<?xml version="1.0" encoding="us-ascii" standalone="no"?><svg xmlns="http://www.w3.org/2000/svg" xmlns:xlink="http://www.w3.org/1999/xlink" contentStyleType="text/css" height="799px" preserveAspectRatio="none" style="width:1275px;height:799px;background:#FFFFFF;" version="1.1" viewBox="0 0 1275 799" width="1275px" zoomAndPan="magnify"><defs/><g><rect fill="#FFFFFF" height="609.4316" style="stroke:#181818;stroke-width:1.0;" width="10" x="93" y="91.4883"/><rect fill="#FFFFFF" height="170.8184" style="stroke:#181818;stroke-width:1.0;" width="10" x="400" y="112.7988"/><rect fill="#FFFFFF" height="36.3105" style="stroke:#181818;stroke-width:1.0;" width="10" x="400" y="312.9277"/><rect fill="#FFFFFF" height="322.3711" style="stroke:#181818;stroke-width:1.0;" width="10" x="400" y="378.5488"/><rect fill="#FFFFFF" height="87.8867" style="stroke:#181818;stroke-width:1.0;" width="10" x="689" y="142.1094"/><rect fill="#FFFFFF" height="263.75" style="stroke:#181818;stroke-width:1.0;" width="10" x="689" y="407.8594"/><rect fill="#FFFFFF" height="29.3105" style="stroke:#181818;stroke-width:1.0;" width="10" x="890.5" y="437.1699"/><rect fill="#FFFFFF" height="29.3105" style="stroke:#181818;stroke-width:1.0;" width="10" x="1003.5" y="495.791"/><rect fill="#FFFFFF" height="87.8867" style="stroke:#181818;stroke-width:1.0;" width="10" x="1163" y="554.4121"/><rect fill="none" height="75.9316" style="stroke:#000000;stroke-width:1.5;" width="517" x="10" y="244.9961"/><line style="stroke:#181818;stroke-width:0.5;stroke-dasharray:5.0,5.0;" x1="98" x2="98" y1="81.4883" y2="718.9199"/><line style="stroke:#181818;stroke-width:0.5;stroke-dasharray:5.0,5.0;" x1="405" x2="405" y1="81.4883" y2="718.9199"/><line style="stroke:#181818;stroke-width:0.5;stroke-dasharray:5.0,5.0;" x1="694" x2="694" y1="81.4883" y2="718.9199"/><line style="stroke:#181818;stroke-width:0.5;stroke-dasharray:5.0,5.0;" x1="895" x2="895" y1="81.4883" y2="718.9199"/><line style="stroke:#181818;stroke-width:0.5;stroke-dasharray:5.0,5.0;" x1="1008" x2="1008" y1="81.4883" y2="718.9199"/><line style="stroke:#181818;stroke-width:0.5;stroke-dasharray:5.0,5.0;" x1="1168" x2="1168" y1="81.4883" y2="718.9199"/><text fill="#000000" font-family="sans-serif" font-size="14" lengthAdjust="spacing" textLength="150" x="20" y="78.5352">Vehicle Fleet Manager</text><ellipse cx="98" cy="13.5" fill="#E3E3E3" rx="8" ry="8" style="stroke:#181818;stroke-width:0.5;"/><path d="M98,21.5 L98,48.5 M85,29.5 L111,29.5 M98,48.5 L85,63.5 M98,48.5 L111,63.5 " fill="none" style="stroke:#181818;stroke-width:0.5;"/><text fill="#000000" font-family="sans-serif" font-size="14" lengthAdjust="spacing" textLength="150" x="20" y="731.4551">Vehicle Fleet Manager</text><ellipse cx="98" cy="742.9082" fill="#E3E3E3" rx="8" ry="8" style="stroke:#181818;stroke-width:0.5;"/><path d="M98,750.9082 L98,777.9082 M85,758.9082 L111,758.9082 M98,777.9082 L85,792.9082 M98,777.9082 L111,792.9082 " fill="none" style="stroke:#181818;stroke-width:0.5;"/><rect fill="#E3E3E3" height="30.4883" rx="2.5" ry="2.5" style="stroke:#181818;stroke-width:0.5;" width="224" x="293" y="50"/><text fill="#000000" font-family="sans-serif" font-size="14" lengthAdjust="spacing" textLength="210" x="300" y="70.5352">:RegisterVehicleMaintenanceUI</text><rect fill="#E3E3E3" height="30.4883" rx="2.5" ry="2.5" style="stroke:#181818;stroke-width:0.5;" width="224" x="293" y="717.9199"/><text fill="#000000" font-family="sans-serif" font-size="14" lengthAdjust="spacing" textLength="210" x="300" y="738.4551">:RegisterVehicleMaintenanceUI</text><rect fill="#E3E3E3" height="30.4883" rx="2.5" ry="2.5" style="stroke:#181818;stroke-width:0.5;" width="280" x="554" y="50"/><text fill="#000000" font-family="sans-serif" font-size="14" lengthAdjust="spacing" textLength="266" x="561" y="70.5352">:RegisterVehicleMaintenanceController</text><rect fill="#E3E3E3" height="30.4883" rx="2.5" ry="2.5" style="stroke:#181818;stroke-width:0.5;" width="280" x="554" y="717.9199"/><text fill="#000000" font-family="sans-serif" font-size="14" lengthAdjust="spacing" textLength="266" x="561" y="738.4551">:RegisterVehicleMaintenanceController</text><rect fill="#E3E3E3" height="30.4883" rx="2.5" ry="2.5" style="stroke:#181818;stroke-width:0.5;" width="103" x="844" y="50"/><text fill="#000000" font-family="sans-serif" font-size="14" lengthAdjust="spacing" textLength="89" x="851" y="70.5352">:Repositories</text><rect fill="#E3E3E3" height="30.4883" rx="2.5" ry="2.5" style="stroke:#181818;stroke-width:0.5;" width="103" x="844" y="717.9199"/><text fill="#000000" font-family="sans-serif" font-size="14" lengthAdjust="spacing" textLength="89" x="851" y="738.4551">:Repositories</text><rect fill="#E3E3E3" height="46.9766" rx="2.5" ry="2.5" style="stroke:#181818;stroke-width:0.5;" width="103" x="957" y="33.5117"/><text fill="#000000" font-family="sans-serif" font-size="14" lengthAdjust="spacing" textLength="82" x="967.5" y="54.0469">repositories</text><text fill="#000000" font-family="sans-serif" font-size="14" lengthAdjust="spacing" textLength="89" x="964" y="70.5352">:Repositories</text><rect fill="#E3E3E3" height="46.9766" rx="2.5" ry="2.5" style="stroke:#181818;stroke-width:0.5;" width="103" x="957" y="717.9199"/><text fill="#000000" font-family="sans-serif" font-size="14" lengthAdjust="spacing" textLength="82" x="967.5" y="738.4551">repositories</text><text fill="#000000" font-family="sans-serif" font-size="14" lengthAdjust="spacing" textLength="89" x="964" y="754.9434">:Repositories</text><rect fill="#E3E3E3" height="46.9766" rx="2.5" ry="2.5" style="stroke:#181818;stroke-width:0.5;" width="196" x="1070" y="33.5117"/><text fill="#000000" font-family="sans-serif" font-size="14" lengthAdjust="spacing" textLength="175" x="1080.5" y="54.0469">registerVehicleRepository</text><text fill="#000000" font-family="sans-serif" font-size="14" lengthAdjust="spacing" textLength="182" x="1077" y="70.5352">:RegisterVehicleRepository</text><rect fill="#E3E3E3" height="46.9766" rx="2.5" ry="2.5" style="stroke:#181818;stroke-width:0.5;" width="196" x="1070" y="717.9199"/><text fill="#000000" font-family="sans-serif" font-size="14" lengthAdjust="spacing" textLength="175" x="1080.5" y="738.4551">registerVehicleRepository</text><text fill="#000000" font-family="sans-serif" font-size="14" lengthAdjust="spacing" textLength="182" x="1077" y="754.9434">:RegisterVehicleRepository</text><rect fill="#FFFFFF" height="609.4316" style="stroke:#181818;stroke-width:1.0;" width="10" x="93" y="91.4883"/><rect fill="#FFFFFF" height="170.8184" style="stroke:#181818;stroke-width:1.0;" width="10" x="400" y="112.7988"/><rect fill="#FFFFFF" height="36.3105" style="stroke:#181818;stroke-width:1.0;" width="10" x="400" y="312.9277"/><rect fill="#FFFFFF" height="322.3711" style="stroke:#181818;stroke-width:1.0;" width="10" x="400" y="378.5488"/><rect fill="#FFFFFF" height="87.8867" style="stroke:#181818;stroke-width:1.0;" width="10" x="689" y="142.1094"/><rect fill="#FFFFFF" height="263.75" style="stroke:#181818;stroke-width:1.0;" width="10" x="689" y="407.8594"/><rect fill="#FFFFFF" height="29.3105" style="stroke:#181818;stroke-width:1.0;" width="10" x="890.5" y="437.1699"/><rect fill="#FFFFFF" height="29.3105" style="stroke:#181818;stroke-width:1.0;" width="10" x="1003.5" y="495.791"/><rect fill="#FFFFFF" height="87.8867" style="stroke:#181818;stroke-width:1.0;" width="10" x="1163" y="554.4121"/><polygon fill="#181818" points="388,108.7988,398,112.7988,388,116.7988,392,112.7988" style="stroke:#181818;stroke-width:1.0;"/><line style="stroke:#181818;stroke-width:1.0;" x1="103" x2="394" y1="112.7988" y2="112.7988"/><text fill="#000000" font-family="sans-serif" font-size="13" font-weight="bold" lengthAdjust="spacing" textLength="9" x="110" y="108.0566">1</text><text fill="#000000" font-family="sans-serif" font-size="13" lengthAdjust="spacing" textLength="241" x="123" y="108.0566">asks to register a vehicle maintenance</text><polygon fill="#181818" points="677,138.1094,687,142.1094,677,146.1094,681,142.1094" style="stroke:#181818;stroke-width:1.0;"/><line style="stroke:#181818;stroke-width:1.0;" x1="410" x2="683" y1="142.1094" y2="142.1094"/><text fill="#000000" font-family="sans-serif" font-size="13" font-weight="bold" lengthAdjust="spacing" textLength="9" x="417" y="137.3672">2</text><text fill="#000000" font-family="sans-serif" font-size="13" lengthAdjust="spacing" textLength="96" x="430" y="137.3672">getVehicleList()</text><rect fill="none" height="53.5762" style="stroke:#000000;stroke-width:1.5;" width="286" x="551" y="150.1094"/><path d="M551,150.1094 L615,150.1094 L615,157.1094 L605,167.1094 L551,167.1094 L551,150.1094 " fill="#EEEEEE" style="stroke:#000000;stroke-width:2.0;"/><text fill="#000000" font-family="sans-serif" font-size="13" font-weight="bold" lengthAdjust="spacing" textLength="19" x="564" y="164.6777">ref</text><text fill="#000000" font-family="sans-serif" font-size="12" lengthAdjust="spacing" textLength="160" x="614" y="182.7109">Get Registered Vehicles List</text><text fill="#000000" font-family="sans-serif" font-size="12" lengthAdjust="spacing" textLength="4" x="692" y="196.8438">&#160;</text><polygon fill="#181818" points="421,225.9961,411,229.9961,421,233.9961,417,229.9961" style="stroke:#181818;stroke-width:1.0;"/><line style="stroke:#181818;stroke-width:1.0;" x1="415" x2="693" y1="229.9961" y2="229.9961"/><text fill="#000000" font-family="sans-serif" font-size="13" font-weight="bold" lengthAdjust="spacing" textLength="9" x="427" y="225.2539">3</text><text fill="#000000" font-family="sans-serif" font-size="13" lengthAdjust="spacing" textLength="67" x="440" y="225.2539">vehicleList</text><path d="M10,244.9961 L84,244.9961 L84,252.3066 L74,262.3066 L10,262.3066 L10,244.9961 " fill="#EEEEEE" style="stroke:#000000;stroke-width:1.5;"/><rect fill="none" height="75.9316" style="stroke:#000000;stroke-width:1.5;" width="517" x="10" y="244.9961"/><text fill="#000000" font-family="sans-serif" font-size="13" font-weight="bold" lengthAdjust="spacing" textLength="29" x="25" y="258.5645">loop</text><polygon fill="#181818" points="114,279.6172,104,283.6172,114,287.6172,110,283.6172" style="stroke:#181818;stroke-width:1.0;"/><line style="stroke:#181818;stroke-width:1.0;stroke-dasharray:2.0,2.0;" x1="108" x2="404" y1="283.6172" y2="283.6172"/><text fill="#000000" font-family="sans-serif" font-size="13" font-weight="bold" lengthAdjust="spacing" textLength="9" x="120" y="278.875">4</text><text fill="#000000" font-family="sans-serif" font-size="13" lengthAdjust="spacing" textLength="203" x="133" y="278.875">shows list of registered vehicles</text><polygon fill="#181818" points="388,308.9277,398,312.9277,388,316.9277,392,312.9277" style="stroke:#181818;stroke-width:1.0;"/><line style="stroke:#181818;stroke-width:1.0;" x1="103" x2="394" y1="312.9277" y2="312.9277"/><text fill="#000000" font-family="sans-serif" font-size="13" font-weight="bold" lengthAdjust="spacing" textLength="9" x="110" y="308.1855">5</text><text fill="#000000" font-family="sans-serif" font-size="13" lengthAdjust="spacing" textLength="206" x="123" y="308.1855">chooses vehicle for maintenance</text><polygon fill="#181818" points="114,345.2383,104,349.2383,114,353.2383,110,349.2383" style="stroke:#181818;stroke-width:1.0;"/><line style="stroke:#181818;stroke-width:1.0;stroke-dasharray:2.0,2.0;" x1="108" x2="404" y1="349.2383" y2="349.2383"/><text fill="#000000" font-family="sans-serif" font-size="13" font-weight="bold" lengthAdjust="spacing" textLength="9" x="120" y="344.4961">6</text><text fill="#000000" font-family="sans-serif" font-size="13" lengthAdjust="spacing" textLength="260" x="133" y="344.4961">shows all data and requests confirmation</text><polygon fill="#181818" points="388,374.5488,398,378.5488,388,382.5488,392,378.5488" style="stroke:#181818;stroke-width:1.0;"/><line style="stroke:#181818;stroke-width:1.0;" x1="103" x2="394" y1="378.5488" y2="378.5488"/><text fill="#000000" font-family="sans-serif" font-size="13" font-weight="bold" lengthAdjust="spacing" textLength="9" x="110" y="373.8066">7</text><text fill="#000000" font-family="sans-serif" font-size="13" lengthAdjust="spacing" textLength="87" x="123" y="373.8066">confirms data</text><polygon fill="#181818" points="677,403.8594,687,407.8594,677,411.8594,681,407.8594" style="stroke:#181818;stroke-width:1.0;"/><line style="stroke:#181818;stroke-width:1.0;" x1="410" x2="683" y1="407.8594" y2="407.8594"/><text fill="#000000" font-family="sans-serif" font-size="13" font-weight="bold" lengthAdjust="spacing" textLength="9" x="417" y="403.1172">8</text><text fill="#000000" font-family="sans-serif" font-size="13" lengthAdjust="spacing" textLength="247" x="430" y="403.1172">registerVehicleMaintenance(vehicleList)</text><polygon fill="#181818" points="878.5,433.1699,888.5,437.1699,878.5,441.1699,882.5,437.1699" style="stroke:#181818;stroke-width:1.0;"/><line style="stroke:#181818;stroke-width:1.0;" x1="699" x2="884.5" y1="437.1699" y2="437.1699"/><text fill="#000000" font-family="sans-serif" font-size="13" font-weight="bold" lengthAdjust="spacing" textLength="9" x="706" y="432.4277">9</text><text fill="#000000" font-family="sans-serif" font-size="13" lengthAdjust="spacing" textLength="81" x="719" y="432.4277">getInstance()</text><polygon fill="#181818" points="710,462.4805,700,466.4805,710,470.4805,706,466.4805" style="stroke:#181818;stroke-width:1.0;"/><line style="stroke:#181818;stroke-width:1.0;stroke-dasharray:2.0,2.0;" x1="704" x2="894.5" y1="466.4805" y2="466.4805"/><text fill="#000000" font-family="sans-serif" font-size="13" font-weight="bold" lengthAdjust="spacing" textLength="18" x="716" y="461.7383">10</text><text fill="#000000" font-family="sans-serif" font-size="13" lengthAdjust="spacing" textLength="75" x="738" y="461.7383">repositories</text><polygon fill="#181818" points="991.5,491.791,1001.5,495.791,991.5,499.791,995.5,495.791" style="stroke:#181818;stroke-width:1.0;"/><line style="stroke:#181818;stroke-width:1.0;" x1="699" x2="997.5" y1="495.791" y2="495.791"/><text fill="#000000" font-family="sans-serif" font-size="13" font-weight="bold" lengthAdjust="spacing" textLength="18" x="706" y="491.0488">11</text><text fill="#000000" font-family="sans-serif" font-size="13" lengthAdjust="spacing" textLength="191" x="728" y="491.0488">getRegisterVehicleRepository()</text><polygon fill="#181818" points="710,521.1016,700,525.1016,710,529.1016,706,525.1016" style="stroke:#181818;stroke-width:1.0;"/><line style="stroke:#181818;stroke-width:1.0;stroke-dasharray:2.0,2.0;" x1="704" x2="1007.5" y1="525.1016" y2="525.1016"/><text fill="#000000" font-family="sans-serif" font-size="13" font-weight="bold" lengthAdjust="spacing" textLength="18" x="716" y="520.3594">12</text><text fill="#000000" font-family="sans-serif" font-size="13" lengthAdjust="spacing" textLength="160" x="738" y="520.3594">registerVehicleRepository</text><polygon fill="#181818" points="1151,550.4121,1161,554.4121,1151,558.4121,1155,554.4121" style="stroke:#181818;stroke-width:1.0;"/><line style="stroke:#181818;stroke-width:1.0;" x1="699" x2="1157" y1="554.4121" y2="554.4121"/><text fill="#000000" font-family="sans-serif" font-size="13" font-weight="bold" lengthAdjust="spacing" textLength="18" x="706" y="549.6699">13</text><text fill="#000000" font-family="sans-serif" font-size="13" lengthAdjust="spacing" textLength="247" x="728" y="549.6699">registerVehicleMaintenance(vehicleList)</text><rect fill="none" height="53.5762" style="stroke:#000000;stroke-width:1.5;" width="202" x="1067" y="562.4121"/><path d="M1067,562.4121 L1131,562.4121 L1131,569.4121 L1121,579.4121 L1067,579.4121 L1067,562.4121 " fill="#EEEEEE" style="stroke:#000000;stroke-width:2.0;"/><text fill="#000000" font-family="sans-serif" font-size="13" font-weight="bold" lengthAdjust="spacing" textLength="19" x="1080" y="576.9805">ref</text><text fill="#000000" font-family="sans-serif" font-size="12" lengthAdjust="spacing" textLength="168" x="1084" y="595.0137">Register Vehicle Maintenance</text><text fill="#000000" font-family="sans-serif" font-size="12" lengthAdjust="spacing" textLength="4" x="1166" y="609.1465">&#160;</text><polygon fill="#181818" points="710,638.2988,700,642.2988,710,646.2988,706,642.2988" style="stroke:#181818;stroke-width:1.0;"/><line style="stroke:#181818;stroke-width:1.0;" x1="704" x2="1167" y1="642.2988" y2="642.2988"/><text fill="#000000" font-family="sans-serif" font-size="13" font-weight="bold" lengthAdjust="spacing" textLength="18" x="716" y="637.5566">14</text><text fill="#000000" font-family="sans-serif" font-size="13" lengthAdjust="spacing" textLength="80" x="738" y="637.5566">maintenance</text><polygon fill="#181818" points="421,667.6094,411,671.6094,421,675.6094,417,671.6094" style="stroke:#181818;stroke-width:1.0;"/><line style="stroke:#181818;stroke-width:1.0;stroke-dasharray:2.0,2.0;" x1="415" x2="693" y1="671.6094" y2="671.6094"/><text fill="#000000" font-family="sans-serif" font-size="13" font-weight="bold" lengthAdjust="spacing" textLength="18" x="427" y="666.8672">15</text><text fill="#000000" font-family="sans-serif" font-size="13" lengthAdjust="spacing" textLength="80" x="449" y="666.8672">maintenance</text><polygon fill="#181818" points="109,696.9199,99,700.9199,109,704.9199,105,700.9199" style="stroke:#181818;stroke-width:1.0;"/><line style="stroke:#181818;stroke-width:1.0;stroke-dasharray:2.0,2.0;" x1="103" x2="404" y1="700.9199" y2="700.9199"/><text fill="#000000" font-family="sans-serif" font-size="13" font-weight="bold" lengthAdjust="spacing" textLength="18" x="115" y="696.1777">16</text><text fill="#000000" font-family="sans-serif" font-size="13" lengthAdjust="spacing" textLength="170" x="137" y="696.1777">displays operation success</text><!--SRC=[fLNBRjim4BppAnQ-93xa1tm84AHeOS062YVfgHU6Mjc49L8bQQV- -ovfwa5RafMKDudScTtPvT3kfQguuIMKMccnCxf4SEQ0p3Ox5HTxliKNToeG30h7rRRe7h0xdkaFgRQGyy8YO_pWj3gKxsWOkzl9327NshthlumBfmtCVk5E2aBxNY0wM7D5-6O6tCBJjpKZL2U5hBXoC5jiS2kjGnDZrbmgXuehWM_B4FAsd1pnh9KpkYWYsVFhPdKLMsahAKc9DfnfVfnUfA-RAaj3J2VYjxe6-BbwUhsCIF9h6KBum5vCPc2NUMNbaJiC2ZA8YpxWuP4aWWN5xoqu3JKzS3Z6FfIjH6riWqW2r_y8YE2yRWIuHHSJMH7W_RmvbKG7aRix1dFGH-A_sl7h1mr4NIPc40aiU0gMd4QLUQpaNyYiBlZO9fSSoZ1DBjaijAwI7xvaGlHABcZKzOU5WX11vusIb6VaiaD4f66orMsCs6bjgSIw6pbTaMv7UcNjD2MASIjhNXIGSSU11-7-7D0w2qAhN9gIEqc3FPpyOExdS1kG9sMQZ90PlAhtdUxDsSXeNKrGtppqtEBp02-LTO5kFehJKFRPmMYaNtti3r44hq7h6ADGdOvyEerQ2Ez6vye7lMIg5C7ORjOU2Bl53ZdOnCflixOz7w3wnDnDd8b1LnwBRtnmyoLDpeCLhRn-KDTzHjwtQlDaa_2l9MolS3cLCXdV_vo24SbxteDWLej1Jxry3_fzT06Pj5N1JnPqXIOO9jY346ZFr_R2xJkV_ad-1m00]--></g></svg>