<?xml version="1.0" encoding="us-ascii" standalone="no"?><svg xmlns="http://www.w3.org/2000/svg" xmlns:xlink="http://www.w3.org/1999/xlink" contentStyleType="text/css" height="489px" preserveAspectRatio="none" style="width:901px;height:489px;background:#FFFFFF;" version="1.1" viewBox="0 0 901 489" width="901.2px" zoomAndPan="magnify"><defs/><g><!--class Repositories--><g id="elem_Repositories"><rect codeLine="11" fill="#F1F1F1" height="73.4906" id="Repositories" rx="1.5" ry="1.5" style="stroke:#181818;stroke-width:0.3;" width="147" x="692.4" y="4.2"/><ellipse cx="739.65" cy="13.8" fill="#ADD1B2" rx="6.6" ry="6.6" style="stroke:#181818;stroke-width:0.6;"/><path d="M741.3094,11.325 Q741.4031,11.1938 741.5156,11.1281 Q741.6281,11.0625 741.7594,11.0625 Q741.9844,11.0625 742.125,11.2219 Q742.2656,11.3719 742.2656,11.7375 L742.2656,12.6094 Q742.2656,12.975 742.125,13.1344 Q741.9844,13.2938 741.7594,13.2938 Q741.5531,13.2938 741.4313,13.1719 Q741.3094,13.0594 741.2438,12.75 Q741.2156,12.5344 741.1031,12.4219 Q740.9063,12.1969 740.5406,12.0656 Q740.175,11.9344 739.8,11.9344 Q739.3406,11.9344 738.9563,12.1313 Q738.5813,12.3281 738.2813,12.7781 Q737.9906,13.2281 737.9906,13.8469 L737.9906,14.5031 Q737.9906,15.2437 738.525,15.7406 Q739.0594,16.2281 740.0156,16.2281 Q740.5781,16.2281 740.9719,16.0781 Q741.2063,15.9844 741.4594,15.7219 Q741.6188,15.5625 741.7031,15.5156 Q741.7969,15.4688 741.9187,15.4688 Q742.1156,15.4688 742.2656,15.6281 Q742.425,15.7781 742.425,15.9844 Q742.425,16.1906 742.2188,16.4344 Q741.9187,16.7813 741.4406,16.9781 Q740.7937,17.25 740.0156,17.25 Q739.1062,17.25 738.3844,16.875 Q737.7937,16.575 737.3813,15.9375 Q736.9688,15.2906 736.9688,14.5219 L736.9688,13.8281 Q736.9688,13.0313 737.3344,12.3469 Q737.7094,11.6531 738.3656,11.2875 Q739.0219,10.9125 739.7625,10.9125 Q740.2031,10.9125 740.5875,11.0156 Q740.9812,11.1094 741.3094,11.325 Z " fill="#000000"/><text fill="#000000" font-family="sans-serif" font-size="8.4" lengthAdjust="spacing" textLength="47.4" x="751.95" y="17.2781">Repositories</text><line style="stroke:#181818;stroke-width:0.3;" x1="693" x2="838.8" y1="23.4" y2="23.4"/><line style="stroke:#181818;stroke-width:0.3;" x1="693" x2="838.8" y1="28.2" y2="28.2"/><text fill="#000000" font-family="sans-serif" font-size="8.4" lengthAdjust="spacing" textLength="56.4" x="696" y="39.6645">-Repositories()</text><text fill="#000000" font-family="sans-serif" font-size="8.4" lengthAdjust="spacing" textLength="109.2" x="696" y="50.8371">+getInstance() : Repositories</text><text fill="#000000" font-family="sans-serif" font-size="8.4" lengthAdjust="spacing" textLength="91.2" x="696" y="62.0098">+getVehicleRepository()</text><text fill="#000000" font-family="sans-serif" font-size="8.4" lengthAdjust="spacing" textLength="139.8" x="696" y="73.1824">+getVehicleMaintenanceRepository()</text></g><!--class RegisterVehicleController--><g id="elem_RegisterVehicleController"><rect codeLine="18" fill="#F1F1F1" height="51.1453" id="RegisterVehicleController" rx="1.5" ry="1.5" style="stroke:#181818;stroke-width:0.3;" width="519" x="111" y="15.3"/><ellipse cx="319.65" cy="24.9" fill="#ADD1B2" rx="6.6" ry="6.6" style="stroke:#181818;stroke-width:0.6;"/><path d="M321.3094,22.425 Q321.4031,22.2938 321.5156,22.2281 Q321.6281,22.1625 321.7594,22.1625 Q321.9844,22.1625 322.125,22.3219 Q322.2656,22.4719 322.2656,22.8375 L322.2656,23.7094 Q322.2656,24.075 322.125,24.2344 Q321.9844,24.3938 321.7594,24.3938 Q321.5531,24.3938 321.4313,24.2719 Q321.3094,24.1594 321.2438,23.85 Q321.2156,23.6344 321.1031,23.5219 Q320.9063,23.2969 320.5406,23.1656 Q320.175,23.0344 319.8,23.0344 Q319.3406,23.0344 318.9563,23.2313 Q318.5813,23.4281 318.2813,23.8781 Q317.9906,24.3281 317.9906,24.9469 L317.9906,25.6031 Q317.9906,26.3438 318.525,26.8406 Q319.0594,27.3281 320.0156,27.3281 Q320.5781,27.3281 320.9719,27.1781 Q321.2063,27.0844 321.4594,26.8219 Q321.6188,26.6625 321.7031,26.6156 Q321.7969,26.5687 321.9188,26.5687 Q322.1156,26.5687 322.2656,26.7281 Q322.425,26.8781 322.425,27.0844 Q322.425,27.2906 322.2188,27.5344 Q321.9188,27.8812 321.4406,28.0781 Q320.7938,28.35 320.0156,28.35 Q319.1063,28.35 318.3844,27.975 Q317.7938,27.675 317.3812,27.0375 Q316.9688,26.3906 316.9688,25.6219 L316.9688,24.9281 Q316.9688,24.1312 317.3344,23.4469 Q317.7094,22.7531 318.3656,22.3875 Q319.0219,22.0125 319.7625,22.0125 Q320.2031,22.0125 320.5875,22.1156 Q320.9813,22.2094 321.3094,22.425 Z " fill="#000000"/><text fill="#000000" font-family="sans-serif" font-size="8.4" lengthAdjust="spacing" textLength="96.6" x="331.95" y="28.3781">RegisterVehicleController</text><line style="stroke:#181818;stroke-width:0.3;" x1="111.6" x2="629.4" y1="34.5" y2="34.5"/><line style="stroke:#181818;stroke-width:0.3;" x1="111.6" x2="629.4" y1="39.3" y2="39.3"/><text fill="#000000" font-family="sans-serif" font-size="8.4" lengthAdjust="spacing" textLength="174.6" x="114.6" y="50.7645">+RegisterVehicleController(vehicleRepository)</text><text fill="#000000" font-family="sans-serif" font-size="8.4" lengthAdjust="spacing" textLength="511.8" x="114.6" y="61.9371">+registerVehicle(plateNumber, brand, model, type, tare, grossWeight, currentKms, registrationDate, acquisitionDate, serviceFrequency)</text></g><!--class vehicleMaintenanceRepository--><g id="elem_vehicleMaintenanceRepository"><rect codeLine="23" fill="#F1F1F1" height="62.318" id="vehicleMaintenanceRepository" rx="1.5" ry="1.5" style="stroke:#181818;stroke-width:0.3;" width="184.2" x="603" y="223.8"/><ellipse cx="634.65" cy="233.4" fill="#ADD1B2" rx="6.6" ry="6.6" style="stroke:#181818;stroke-width:0.6;"/><path d="M636.3094,230.925 Q636.4031,230.7938 636.5156,230.7281 Q636.6281,230.6625 636.7594,230.6625 Q636.9844,230.6625 637.125,230.8219 Q637.2656,230.9719 637.2656,231.3375 L637.2656,232.2094 Q637.2656,232.575 637.125,232.7344 Q636.9844,232.8937 636.7594,232.8937 Q636.5531,232.8937 636.4313,232.7719 Q636.3094,232.6594 636.2438,232.35 Q636.2156,232.1344 636.1031,232.0219 Q635.9063,231.7969 635.5406,231.6656 Q635.175,231.5344 634.8,231.5344 Q634.3406,231.5344 633.9563,231.7313 Q633.5813,231.9281 633.2813,232.3781 Q632.9906,232.8281 632.9906,233.4469 L632.9906,234.1031 Q632.9906,234.8438 633.525,235.3406 Q634.0594,235.8281 635.0156,235.8281 Q635.5781,235.8281 635.9719,235.6781 Q636.2063,235.5844 636.4594,235.3219 Q636.6188,235.1625 636.7031,235.1156 Q636.7969,235.0688 636.9187,235.0688 Q637.1156,235.0688 637.2656,235.2281 Q637.425,235.3781 637.425,235.5844 Q637.425,235.7906 637.2188,236.0344 Q636.9187,236.3813 636.4406,236.5781 Q635.7937,236.85 635.0156,236.85 Q634.1062,236.85 633.3844,236.475 Q632.7937,236.175 632.3813,235.5375 Q631.9688,234.8906 631.9688,234.1219 L631.9688,233.4281 Q631.9688,232.6313 632.3344,231.9469 Q632.7094,231.2531 633.3656,230.8875 Q634.0219,230.5125 634.7625,230.5125 Q635.2031,230.5125 635.5875,230.6156 Q635.9812,230.7094 636.3094,230.925 Z " fill="#000000"/><text fill="#000000" font-family="sans-serif" font-size="8.4" lengthAdjust="spacing" textLength="115.8" x="646.95" y="236.8781">vehicleMaintenanceRepository</text><line style="stroke:#181818;stroke-width:0.3;" x1="603.6" x2="786.6" y1="243" y2="243"/><line style="stroke:#181818;stroke-width:0.3;" x1="603.6" x2="786.6" y1="247.8" y2="247.8"/><text fill="#000000" font-family="sans-serif" font-size="8.4" lengthAdjust="spacing" textLength="177" x="606.6" y="259.2645">+registerVehicleMaintenance(vehicleList, date)</text><text fill="#000000" font-family="sans-serif" font-size="8.4" lengthAdjust="spacing" textLength="52.8" x="606.6" y="270.4371">+addVehicle()</text><text fill="#000000" font-family="sans-serif" font-size="8.4" lengthAdjust="spacing" textLength="94.2" x="606.6" y="281.6098">+validateVehicle(vehicle)</text></g><!--class vehicleRepository--><g id="elem_vehicleRepository"><rect codeLine="29" fill="#F1F1F1" height="62.318" id="vehicleRepository" rx="1.5" ry="1.5" style="stroke:#181818;stroke-width:0.3;" width="519" x="308.4" y="124.8"/><ellipse cx="531.75" cy="134.4" fill="#ADD1B2" rx="6.6" ry="6.6" style="stroke:#181818;stroke-width:0.6;"/><path d="M533.4094,131.925 Q533.5031,131.7938 533.6156,131.7281 Q533.7281,131.6625 533.8594,131.6625 Q534.0844,131.6625 534.225,131.8219 Q534.3656,131.9719 534.3656,132.3375 L534.3656,133.2094 Q534.3656,133.575 534.225,133.7344 Q534.0844,133.8937 533.8594,133.8937 Q533.6531,133.8937 533.5313,133.7719 Q533.4094,133.6594 533.3438,133.35 Q533.3156,133.1344 533.2031,133.0219 Q533.0063,132.7969 532.6406,132.6656 Q532.275,132.5344 531.9,132.5344 Q531.4406,132.5344 531.0563,132.7313 Q530.6813,132.9281 530.3813,133.3781 Q530.0906,133.8281 530.0906,134.4469 L530.0906,135.1031 Q530.0906,135.8438 530.625,136.3406 Q531.1594,136.8281 532.1156,136.8281 Q532.6781,136.8281 533.0719,136.6781 Q533.3063,136.5844 533.5594,136.3219 Q533.7188,136.1625 533.8031,136.1156 Q533.8969,136.0688 534.0188,136.0688 Q534.2156,136.0688 534.3656,136.2281 Q534.525,136.3781 534.525,136.5844 Q534.525,136.7906 534.3188,137.0344 Q534.0188,137.3813 533.5406,137.5781 Q532.8938,137.85 532.1156,137.85 Q531.2063,137.85 530.4844,137.475 Q529.8938,137.175 529.4812,136.5375 Q529.0688,135.8906 529.0688,135.1219 L529.0688,134.4281 Q529.0688,133.6313 529.4344,132.9469 Q529.8094,132.2531 530.4656,131.8875 Q531.1219,131.5125 531.8625,131.5125 Q532.3031,131.5125 532.6875,131.6156 Q533.0813,131.7094 533.4094,131.925 Z " fill="#000000"/><text fill="#000000" font-family="sans-serif" font-size="8.4" lengthAdjust="spacing" textLength="67.2" x="544.05" y="137.8781">vehicleRepository</text><line style="stroke:#181818;stroke-width:0.3;" x1="309" x2="826.8" y1="144" y2="144"/><line style="stroke:#181818;stroke-width:0.3;" x1="309" x2="826.8" y1="148.8" y2="148.8"/><text fill="#000000" font-family="sans-serif" font-size="8.4" lengthAdjust="spacing" textLength="511.8" x="312" y="160.2645">+registerVehicle(plateNumber, brand, model, type, tare, grossWeight, currentKms, registrationDate, acquisitionDate, serviceFrequency)</text><text fill="#000000" font-family="sans-serif" font-size="8.4" lengthAdjust="spacing" textLength="79.2" x="312" y="171.4371">+addVehicle(vehicle)</text><text fill="#000000" font-family="sans-serif" font-size="8.4" lengthAdjust="spacing" textLength="94.2" x="312" y="182.6098">+validateVehicle(vehicle)</text></g><!--class RegisterVehicleUI--><g id="elem_RegisterVehicleUI"><rect codeLine="35" fill="#F1F1F1" height="28.8" id="RegisterVehicleUI" rx="1.5" ry="1.5" style="stroke:#181818;stroke-width:0.3;" width="85.8" x="4.2" y="26.4"/><ellipse cx="13.2" cy="36" fill="#ADD1B2" rx="6.6" ry="6.6" style="stroke:#181818;stroke-width:0.6;"/><path d="M14.8594,33.525 Q14.9531,33.3938 15.0656,33.3281 Q15.1781,33.2625 15.3094,33.2625 Q15.5344,33.2625 15.675,33.4219 Q15.8156,33.5719 15.8156,33.9375 L15.8156,34.8094 Q15.8156,35.175 15.675,35.3344 Q15.5344,35.4938 15.3094,35.4938 Q15.1031,35.4938 14.9813,35.3719 Q14.8594,35.2594 14.7938,34.95 Q14.7656,34.7344 14.6531,34.6219 Q14.4562,34.3969 14.0906,34.2656 Q13.725,34.1344 13.35,34.1344 Q12.8906,34.1344 12.5063,34.3313 Q12.1313,34.5281 11.8312,34.9781 Q11.5406,35.4281 11.5406,36.0469 L11.5406,36.7031 Q11.5406,37.4438 12.075,37.9406 Q12.6094,38.4281 13.5656,38.4281 Q14.1281,38.4281 14.5219,38.2781 Q14.7563,38.1844 15.0094,37.9219 Q15.1688,37.7625 15.2531,37.7156 Q15.3469,37.6687 15.4688,37.6687 Q15.6656,37.6687 15.8156,37.8281 Q15.975,37.9781 15.975,38.1844 Q15.975,38.3906 15.7687,38.6344 Q15.4688,38.9812 14.9906,39.1781 Q14.3438,39.45 13.5656,39.45 Q12.6563,39.45 11.9344,39.075 Q11.3438,38.775 10.9313,38.1375 Q10.5187,37.4906 10.5187,36.7219 L10.5187,36.0281 Q10.5187,35.2312 10.8844,34.5469 Q11.2594,33.8531 11.9156,33.4875 Q12.5719,33.1125 13.3125,33.1125 Q13.7531,33.1125 14.1375,33.2156 Q14.5313,33.3094 14.8594,33.525 Z " fill="#000000"/><text fill="#000000" font-family="sans-serif" font-size="8.4" lengthAdjust="spacing" textLength="66.6" x="21.6" y="39.4781">RegisterVehicleUI</text><line style="stroke:#181818;stroke-width:0.3;" x1="4.8" x2="89.4" y1="45.6" y2="45.6"/><line style="stroke:#181818;stroke-width:0.3;" x1="4.8" x2="89.4" y1="50.4" y2="50.4"/></g><!--class Vehicle--><g id="elem_Vehicle"><rect codeLine="38" fill="#F1F1F1" height="151.6992" id="Vehicle" rx="1.5" ry="1.5" style="stroke:#181818;stroke-width:0.3;" width="123" x="570" y="333.6"/><ellipse cx="615.15" cy="343.2" fill="#ADD1B2" rx="6.6" ry="6.6" style="stroke:#181818;stroke-width:0.6;"/><path d="M616.8094,340.725 Q616.9031,340.5938 617.0156,340.5281 Q617.1281,340.4625 617.2594,340.4625 Q617.4844,340.4625 617.625,340.6219 Q617.7656,340.7719 617.7656,341.1375 L617.7656,342.0094 Q617.7656,342.375 617.625,342.5344 Q617.4844,342.6937 617.2594,342.6937 Q617.0531,342.6937 616.9313,342.5719 Q616.8094,342.4594 616.7438,342.15 Q616.7156,341.9344 616.6031,341.8219 Q616.4063,341.5969 616.0406,341.4656 Q615.675,341.3344 615.3,341.3344 Q614.8406,341.3344 614.4563,341.5313 Q614.0813,341.7281 613.7813,342.1781 Q613.4906,342.6281 613.4906,343.2469 L613.4906,343.9031 Q613.4906,344.6438 614.025,345.1406 Q614.5594,345.6281 615.5156,345.6281 Q616.0781,345.6281 616.4719,345.4781 Q616.7063,345.3844 616.9594,345.1219 Q617.1188,344.9625 617.2031,344.9156 Q617.2969,344.8688 617.4187,344.8688 Q617.6156,344.8688 617.7656,345.0281 Q617.925,345.1781 617.925,345.3844 Q617.925,345.5906 617.7188,345.8344 Q617.4187,346.1813 616.9406,346.3781 Q616.2937,346.65 615.5156,346.65 Q614.6062,346.65 613.8844,346.275 Q613.2937,345.975 612.8813,345.3375 Q612.4688,344.6906 612.4688,343.9219 L612.4688,343.2281 Q612.4688,342.4313 612.8344,341.7469 Q613.2094,341.0531 613.8656,340.6875 Q614.5219,340.3125 615.2625,340.3125 Q615.7031,340.3125 616.0875,340.4156 Q616.4812,340.5094 616.8094,340.725 Z " fill="#000000"/><text fill="#000000" font-family="sans-serif" font-size="8.4" lengthAdjust="spacing" textLength="27.6" x="627.45" y="346.6781">Vehicle</text><line style="stroke:#181818;stroke-width:0.3;" x1="570.6" x2="692.4" y1="352.8" y2="352.8"/><text fill="#000000" font-family="sans-serif" font-size="8.4" lengthAdjust="spacing" textLength="75.6" x="573.6" y="364.2645">-String plateNumber</text><text fill="#000000" font-family="sans-serif" font-size="8.4" lengthAdjust="spacing" textLength="49.8" x="573.6" y="375.4371">-String brand</text><text fill="#000000" font-family="sans-serif" font-size="8.4" lengthAdjust="spacing" textLength="50.4" x="573.6" y="386.6098">-String model</text><text fill="#000000" font-family="sans-serif" font-size="8.4" lengthAdjust="spacing" textLength="43.8" x="573.6" y="397.7824">-String type</text><text fill="#000000" font-family="sans-serif" font-size="8.4" lengthAdjust="spacing" textLength="47.4" x="573.6" y="408.9551">-Double tare</text><text fill="#000000" font-family="sans-serif" font-size="8.4" lengthAdjust="spacing" textLength="79.8" x="573.6" y="420.1277">-Double grossWeight</text><text fill="#000000" font-family="sans-serif" font-size="8.4" lengthAdjust="spacing" textLength="75.6" x="573.6" y="431.3004">-Double currentKms</text><text fill="#000000" font-family="sans-serif" font-size="8.4" lengthAdjust="spacing" textLength="88.2" x="573.6" y="442.473">-String registrationDate</text><text fill="#000000" font-family="sans-serif" font-size="8.4" lengthAdjust="spacing" textLength="85.8" x="573.6" y="453.6457">-String acquisitionDate</text><text fill="#000000" font-family="sans-serif" font-size="8.4" lengthAdjust="spacing" textLength="100.2" x="573.6" y="464.8184">-Double serviceFrequency</text><text fill="#000000" font-family="sans-serif" font-size="8.4" lengthAdjust="spacing" textLength="115.8" x="573.6" y="475.991">-Double kmAtLastMaintenance</text><line style="stroke:#181818;stroke-width:0.3;" x1="570.6" x2="692.4" y1="480.4992" y2="480.4992"/></g><!--class Maintenance--><g id="elem_Maintenance"><rect codeLine="52" fill="#F1F1F1" height="39.9727" id="Maintenance" rx="1.5" ry="1.5" style="stroke:#181818;stroke-width:0.3;" width="111" x="714" y="389.4"/><ellipse cx="742.65" cy="399" fill="#ADD1B2" rx="6.6" ry="6.6" style="stroke:#181818;stroke-width:0.6;"/><path d="M744.3094,396.525 Q744.4031,396.3938 744.5156,396.3281 Q744.6281,396.2625 744.7594,396.2625 Q744.9844,396.2625 745.125,396.4219 Q745.2656,396.5719 745.2656,396.9375 L745.2656,397.8094 Q745.2656,398.175 745.125,398.3344 Q744.9844,398.4938 744.7594,398.4938 Q744.5531,398.4938 744.4313,398.3719 Q744.3094,398.2594 744.2438,397.95 Q744.2156,397.7344 744.1031,397.6219 Q743.9063,397.3969 743.5406,397.2656 Q743.175,397.1344 742.8,397.1344 Q742.3406,397.1344 741.9563,397.3313 Q741.5813,397.5281 741.2813,397.9781 Q740.9906,398.4281 740.9906,399.0469 L740.9906,399.7031 Q740.9906,400.4437 741.525,400.9406 Q742.0594,401.4281 743.0156,401.4281 Q743.5781,401.4281 743.9719,401.2781 Q744.2063,401.1844 744.4594,400.9219 Q744.6188,400.7625 744.7031,400.7156 Q744.7969,400.6688 744.9187,400.6688 Q745.1156,400.6688 745.2656,400.8281 Q745.425,400.9781 745.425,401.1844 Q745.425,401.3906 745.2188,401.6344 Q744.9187,401.9813 744.4406,402.1781 Q743.7937,402.45 743.0156,402.45 Q742.1062,402.45 741.3844,402.075 Q740.7937,401.775 740.3813,401.1375 Q739.9688,400.4906 739.9688,399.7219 L739.9688,399.0281 Q739.9688,398.2313 740.3344,397.5469 Q740.7094,396.8531 741.3656,396.4875 Q742.0219,396.1125 742.7625,396.1125 Q743.2031,396.1125 743.5875,396.2156 Q743.9812,396.3094 744.3094,396.525 Z " fill="#000000"/><text fill="#000000" font-family="sans-serif" font-size="8.4" lengthAdjust="spacing" textLength="48.6" x="754.95" y="402.4781">Maintenance</text><line style="stroke:#181818;stroke-width:0.3;" x1="714.6" x2="824.4" y1="408.6" y2="408.6"/><text fill="#000000" font-family="sans-serif" font-size="8.4" lengthAdjust="spacing" textLength="103.8" x="717.6" y="420.0645">-Double km at maintenance</text><line style="stroke:#181818;stroke-width:0.3;" x1="714.6" x2="824.4" y1="424.5727" y2="424.5727"/></g><!--link Repositories to Repositories--><g id="link_Repositories_Repositories"><path codeLine="56" d="M839.598,30.342 C851.904,31.806 860.4,35.292 860.4,40.8 C860.4,46.308 855.4788,49.3687 843.1728,50.8327 " fill="none" id="Repositories-to-Repositories" style="stroke:#181818;stroke-width:0.6;"/><polygon fill="#181818" points="839.598,51.258,845.2437,53.0033,842.577,50.9036,844.6767,48.2369,839.598,51.258" style="stroke:#181818;stroke-width:0.6;"/><text fill="#000000" font-family="sans-serif" font-size="7.8" lengthAdjust="spacing" textLength="29.4" x="864" y="44.117">instance</text></g><!--link RegisterVehicleUI to RegisterVehicleController--><g id="link_RegisterVehicleUI_RegisterVehicleController"><path codeLine="58" d="M90.018,40.8 C96.882,40.8 100.404,40.8 107.298,40.8 " fill="none" id="RegisterVehicleUI-to-RegisterVehicleController" style="stroke:#181818;stroke-width:0.6;stroke-dasharray:7.0,7.0;"/><polygon fill="#181818" points="110.898,40.8,105.498,38.4,107.898,40.8,105.498,43.2,110.898,40.8" style="stroke:#181818;stroke-width:0.6;"/></g><!--link RegisterVehicleController to vehicleRepository--><g id="link_RegisterVehicleController_vehicleRepository"><path codeLine="59" d="M413.82,66.42 C443.556,83.592 480.0866,104.6875 511.7186,122.9575 " fill="none" id="RegisterVehicleController-to-vehicleRepository" style="stroke:#181818;stroke-width:0.6;stroke-dasharray:7.0,7.0;"/><polygon fill="#181818" points="514.836,124.758,511.3603,119.9789,512.2382,123.2576,508.9596,124.1355,514.836,124.758" style="stroke:#181818;stroke-width:0.6;"/><text fill="#000000" font-family="sans-serif" font-size="7.8" lengthAdjust="spacing" textLength="60.6" x="481.5" y="104.417">vehicleRepository</text><text fill="#000000" font-family="sans-serif" font-size="7.8" lengthAdjust="spacing" textLength="4.2" x="503.2233" y="118.1088">1</text></g><!--link Repositories to vehicleRepository--><g id="link_Repositories_vehicleRepository"><path codeLine="62" d="M703.254,77.472 C676.854,92.67 649.5716,108.3754 624.2756,122.9434 " fill="none" id="Repositories-to-vehicleRepository" style="stroke:#181818;stroke-width:0.6;"/><polygon fill="#181818" points="621.156,124.74,627.0332,124.1249,623.7557,123.2428,624.6377,119.9653,621.156,124.74" style="stroke:#181818;stroke-width:0.6;"/><text fill="#000000" font-family="sans-serif" font-size="7.8" lengthAdjust="spacing" textLength="4.2" x="623.8301" y="118.0884">1</text></g><!--link RegisterVehicleController to Repositories--><g id="link_RegisterVehicleController_Repositories"><path codeLine="64" d="M630.102,40.8 C652.482,40.8 670.086,40.8 688.794,40.8 " fill="none" id="RegisterVehicleController-to-Repositories" style="stroke:#181818;stroke-width:0.6;stroke-dasharray:7.0,7.0;"/><polygon fill="#181818" points="692.394,40.8,686.994,38.4,689.394,40.8,686.994,43.2,692.394,40.8" style="stroke:#181818;stroke-width:0.6;"/><text fill="#000000" font-family="sans-serif" font-size="7.8" lengthAdjust="spacing" textLength="40.2" x="641.1" y="36.617">repositories</text></g><!--reverse link vehicleRepository to Vehicle--><g id="link_vehicleRepository_Vehicle"><path codeLine="66" d="M571.0596,194.4892 C574.2516,232.8112 578.7,286.2 578.7,286.2 C578.7,286.2 588.138,308.142 599.04,333.462 " fill="none" id="vehicleRepository-backto-Vehicle" style="stroke:#181818;stroke-width:0.6;"/><polygon fill="none" points="570.462,187.314,568.3691,191.1008,571.0596,194.4892,573.1525,190.7024,570.462,187.314" style="stroke:#181818;stroke-width:0.6;"/><text fill="#000000" font-family="sans-serif" font-size="7.8" lengthAdjust="spacing" textLength="12.6" x="579.3" y="258.317">has</text><text fill="#000000" font-family="sans-serif" font-size="7.8" lengthAdjust="spacing" textLength="4.2" x="566.3212" y="200.413">1</text><text fill="#000000" font-family="sans-serif" font-size="7.8" lengthAdjust="spacing" textLength="12" x="584.6963" y="326.743">1..*</text></g><!--reverse link vehicleMaintenanceRepository to Vehicle--><g id="link_vehicleMaintenanceRepository_Vehicle"><path codeLine="68" d="M679.6219,292.9048 C673.9339,306.6208 669.708,316.812 662.754,333.564 " fill="none" id="vehicleMaintenanceRepository-backto-Vehicle" style="stroke:#181818;stroke-width:0.6;"/><polygon fill="none" points="682.38,286.254,678.784,288.66,679.6219,292.9048,683.2179,290.4988,682.38,286.254" style="stroke:#181818;stroke-width:0.6;"/><text fill="#000000" font-family="sans-serif" font-size="7.8" lengthAdjust="spacing" textLength="12.6" x="674.7" y="313.217">has</text></g><!--link Vehicle to Maintenance--><g id="link_Vehicle_Maintenance"><path codeLine="70" d="M693.072,409.5 C699.954,409.5 704.226,409.5 710.244,409.5 " fill="none" id="Vehicle-to-Maintenance" style="stroke:#181818;stroke-width:0.6;"/><polygon fill="#181818" points="713.844,409.5,708.444,407.1,710.844,409.5,708.444,411.9,713.844,409.5" style="stroke:#181818;stroke-width:0.6;"/></g><!--SRC=[nLGzRzim4DtvAmvUx3IIqQuP0WGD2XXDEzHeEzFKHI9CaSgHSg4Q_Uyb3SaY9JlfLW-2zUwz-tWYRsdtKZUSU0srqKPKP6e4HosoCT9miUSbRbsd40Y5uxfKCS5Ml32_f2xXcIiRHvJKwBe6eJ6g2oziUI5eo1aMgOJYrZuuHtBNEjm8exVoDy9xnfOAdnqu0oJBoa4XGplIQCPE6lY6ZR7I6P9euSZ0__84NDsSm5ieqMsqzQC8NDt0NK8QAJ-maaBXETZ5-ZxuXKljK8TC2U_Fs5GfhKFg-H-DTcIKGkexlBtEM1sc3GprAPMi6iKTVcth7L86E-AwoFmdBL1b43psJqx-MPAnzYS6zp8GBH5gzxcsMP-FU73pqQVAW8kNLlgYPy0Y7QJ0JuGlBMhHHICUNh7YUBdZY3jC-UJZ6HI-s30bBufXm04wS2K3PS1xxRoPDpluFvxD1ZiFyA_pJKxBzuq_H-TW3mvdV-ilaR-NqQHfu3Hr2fqSIA7WHeyycdRdrq1m9aKYbzB0w5YQTEfU6fqucQQSkff6z_M3U-BMHITiz2S2ZrCPS0TrAaeMIdwVBfWxaFqA2SJfHrdVNx_NxFfEyBB5XyNy4FjgCunD6yolYDdh1ITJKRmBsRoJKCBaUUx_hDVl5drABwpuoB-u2u8C9lpXrVSUVx6_]--></g></svg>