<?xml version="1.0" encoding="us-ascii" standalone="no"?><svg xmlns="http://www.w3.org/2000/svg" xmlns:xlink="http://www.w3.org/1999/xlink" contentStyleType="text/css" height="873.6px" preserveAspectRatio="none" style="width:1345px;height:873px;background:#FFFFFF;" version="1.1" viewBox="0 0 1345 873" width="1345.6px" zoomAndPan="magnify"><defs/><g><rect fill="#FFFFFF" height="718.2469" style="stroke:#181818;stroke-width:0.8000000000000002;" width="8" x="71.2" y="74.8969"/><rect fill="#FFFFFF" height="246.3281" style="stroke:#181818;stroke-width:0.8000000000000002;" width="8" x="301.6" y="93.5297"/><rect fill="#FFFFFF" height="30.6328" style="stroke:#181818;stroke-width:0.8000000000000002;" width="8" x="301.6" y="364.8906"/><rect fill="#FFFFFF" height="372.5875" style="stroke:#181818;stroke-width:0.8000000000000002;" width="8" x="301.6" y="420.5563"/><rect fill="#FFFFFF" height="175.2297" style="stroke:#181818;stroke-width:0.8000000000000002;" width="8" x="548" y="118.5625"/><rect fill="#FFFFFF" height="322.5219" style="stroke:#181818;stroke-width:0.8000000000000002;" width="8" x="548" y="445.5891"/><rect fill="#FFFFFF" height="25.0328" style="stroke:#181818;stroke-width:0.8000000000000002;" width="8" x="698.8" y="143.5953"/><rect fill="#FFFFFF" height="25.0328" style="stroke:#181818;stroke-width:0.8000000000000002;" width="8" x="698.8" y="470.6219"/><rect fill="#FFFFFF" height="25.0328" style="stroke:#181818;stroke-width:0.8000000000000002;" width="8" x="784.4" y="193.6609"/><rect fill="#FFFFFF" height="25.0328" style="stroke:#181818;stroke-width:0.8000000000000002;" width="8" x="784.4" y="520.6875"/><rect fill="#FFFFFF" height="25.0328" style="stroke:#181818;stroke-width:0.8000000000000002;" width="8" x="884" y="243.7266"/><rect fill="#FFFFFF" height="172.325" style="stroke:#181818;stroke-width:0.8000000000000002;" width="8" x="1011.6" y="570.7531"/><rect fill="#FFFFFF" height="51.4328" style="stroke:#181818;stroke-width:0.8000000000000002;" width="8" x="1015.6" y="673.0125"/><rect fill="none" height="65.4984" style="stroke:#000000;stroke-width:1.2000000000000002;" width="389.6" x="8" y="305.7922"/><rect fill="none" height="86.2984" style="stroke:#000000;stroke-width:1.2000000000000002;" width="218.8" x="940.8" y="632.5469"/><line style="stroke:#181818;stroke-width:0.4000000000000001;stroke-dasharray:5.0,5.0;" x1="75.2" x2="75.2" y1="66.8969" y2="807.5438"/><line style="stroke:#181818;stroke-width:0.4000000000000001;stroke-dasharray:5.0,5.0;" x1="305.6" x2="305.6" y1="66.8969" y2="807.5438"/><line style="stroke:#181818;stroke-width:0.4000000000000001;stroke-dasharray:5.0,5.0;" x1="552" x2="552" y1="66.8969" y2="807.5438"/><line style="stroke:#181818;stroke-width:0.4000000000000001;stroke-dasharray:5.0,5.0;" x1="702.4" x2="702.4" y1="66.8969" y2="807.5438"/><line style="stroke:#181818;stroke-width:0.4000000000000001;stroke-dasharray:5.0,5.0;" x1="788" x2="788" y1="66.8969" y2="807.5438"/><line style="stroke:#181818;stroke-width:0.4000000000000001;stroke-dasharray:5.0,5.0;" x1="888" x2="888" y1="66.8969" y2="807.5438"/><line style="stroke:#181818;stroke-width:0.4000000000000001;stroke-dasharray:5.0,5.0;" x1="1015.2" x2="1015.2" y1="66.8969" y2="807.5438"/><line style="stroke:#181818;stroke-width:0.4000000000000001;stroke-dasharray:5.0,5.0;" x1="1301.2" x2="1301.2" y1="610.05" y2="807.5438"/><text fill="#000000" font-family="sans-serif" font-size="11.2" lengthAdjust="spacing" textLength="113.6" x="16" y="64.0859">Vehicle Fleet Manager</text><ellipse cx="75.2" cy="10.8" fill="#E3E3E3" rx="6.4" ry="6.4" style="stroke:#181818;stroke-width:0.4000000000000001;"/><path d="M75.2,17.2 L75.2,38.8 M64.8,23.6 L85.6,23.6 M75.2,38.8 L64.8,50.8 M75.2,38.8 L85.6,50.8 " fill="none" style="stroke:#181818;stroke-width:0.4000000000000001;"/><text fill="#000000" font-family="sans-serif" font-size="11.2" lengthAdjust="spacing" textLength="113.6" x="16" y="818.8297">Vehicle Fleet Manager</text><ellipse cx="75.2" cy="828.4406" fill="#E3E3E3" rx="6.4" ry="6.4" style="stroke:#181818;stroke-width:0.4000000000000001;"/><path d="M75.2,834.8406 L75.2,856.4406 M64.8,841.2406 L85.6,841.2406 M75.2,856.4406 L64.8,868.4406 M75.2,856.4406 L85.6,868.4406 " fill="none" style="stroke:#181818;stroke-width:0.4000000000000001;"/><rect fill="#E3E3E3" height="26.0969" rx="2" ry="2" style="stroke:#181818;stroke-width:0.4000000000000001;" width="168" x="221.6" y="40"/><text fill="#000000" font-family="sans-serif" font-size="11.2" lengthAdjust="spacing" textLength="156.8" x="227.2" y="57.6859">:RegisterVehicleMaintenanceUI</text><rect fill="#E3E3E3" height="26.0969" rx="2" ry="2" style="stroke:#181818;stroke-width:0.4000000000000001;" width="168" x="221.6" y="806.7438"/><text fill="#000000" font-family="sans-serif" font-size="11.2" lengthAdjust="spacing" textLength="156.8" x="227.2" y="824.4297">:RegisterVehicleMaintenanceUI</text><rect fill="#E3E3E3" height="26.0969" rx="2" ry="2" style="stroke:#181818;stroke-width:0.4000000000000001;" width="208" x="448" y="40"/><text fill="#000000" font-family="sans-serif" font-size="11.2" lengthAdjust="spacing" textLength="196.8" x="453.6" y="57.6859">:RegisterVehicleMaintenanceController</text><rect fill="#E3E3E3" height="26.0969" rx="2" ry="2" style="stroke:#181818;stroke-width:0.4000000000000001;" width="208" x="448" y="806.7438"/><text fill="#000000" font-family="sans-serif" font-size="11.2" lengthAdjust="spacing" textLength="196.8" x="453.6" y="824.4297">:RegisterVehicleMaintenanceController</text><rect fill="#E3E3E3" height="26.0969" rx="2" ry="2" style="stroke:#181818;stroke-width:0.4000000000000001;" width="77.6" x="664" y="40"/><text fill="#000000" font-family="sans-serif" font-size="11.2" lengthAdjust="spacing" textLength="66.4" x="669.6" y="57.6859">:Repositories</text><rect fill="#E3E3E3" height="26.0969" rx="2" ry="2" style="stroke:#181818;stroke-width:0.4000000000000001;" width="77.6" x="664" y="806.7438"/><text fill="#000000" font-family="sans-serif" font-size="11.2" lengthAdjust="spacing" textLength="66.4" x="669.6" y="824.4297">:Repositories</text><rect fill="#E3E3E3" height="40.9938" rx="2" ry="2" style="stroke:#181818;stroke-width:0.4000000000000001;" width="77.6" x="749.6" y="25.1031"/><text fill="#000000" font-family="sans-serif" font-size="11.2" lengthAdjust="spacing" textLength="59.2" x="758.8" y="42.7891">repositories</text><text fill="#000000" font-family="sans-serif" font-size="11.2" lengthAdjust="spacing" textLength="66.4" x="755.2" y="57.6859">:Repositories</text><rect fill="#E3E3E3" height="40.9938" rx="2" ry="2" style="stroke:#181818;stroke-width:0.4000000000000001;" width="77.6" x="749.6" y="806.7438"/><text fill="#000000" font-family="sans-serif" font-size="11.2" lengthAdjust="spacing" textLength="59.2" x="758.8" y="824.4297">repositories</text><text fill="#000000" font-family="sans-serif" font-size="11.2" lengthAdjust="spacing" textLength="66.4" x="755.2" y="839.3266">:Repositories</text><rect fill="#E3E3E3" height="40.9938" rx="2" ry="2" style="stroke:#181818;stroke-width:0.4000000000000001;" width="105.6" x="835.2" y="25.1031"/><text fill="#000000" font-family="sans-serif" font-size="11.2" lengthAdjust="spacing" textLength="89.6" x="843.2" y="42.7891">vehicleRepository</text><text fill="#000000" font-family="sans-serif" font-size="11.2" lengthAdjust="spacing" textLength="94.4" x="840.8" y="57.6859">:VehicleRepository</text><rect fill="#E3E3E3" height="40.9938" rx="2" ry="2" style="stroke:#181818;stroke-width:0.4000000000000001;" width="105.6" x="835.2" y="806.7438"/><text fill="#000000" font-family="sans-serif" font-size="11.2" lengthAdjust="spacing" textLength="89.6" x="843.2" y="824.4297">vehicleRepository</text><text fill="#000000" font-family="sans-serif" font-size="11.2" lengthAdjust="spacing" textLength="94.4" x="840.8" y="839.3266">:VehicleRepository</text><rect fill="#E3E3E3" height="40.9938" rx="2" ry="2" style="stroke:#181818;stroke-width:0.4000000000000001;" width="133.6" x="948.8" y="25.1031"/><text fill="#000000" font-family="sans-serif" font-size="11.2" lengthAdjust="spacing" textLength="119.2" x="956" y="42.7891">MaintenanceRepository</text><text fill="#000000" font-family="sans-serif" font-size="11.2" lengthAdjust="spacing" textLength="122.4" x="954.4" y="57.6859">:MaintenanceRepository</text><rect fill="#E3E3E3" height="40.9938" rx="2" ry="2" style="stroke:#181818;stroke-width:0.4000000000000001;" width="133.6" x="948.8" y="806.7438"/><text fill="#000000" font-family="sans-serif" font-size="11.2" lengthAdjust="spacing" textLength="119.2" x="956" y="824.4297">MaintenanceRepository</text><text fill="#000000" font-family="sans-serif" font-size="11.2" lengthAdjust="spacing" textLength="122.4" x="954.4" y="839.3266">:MaintenanceRepository</text><rect fill="#E3E3E3" height="40.9938" rx="2" ry="2" style="stroke:#181818;stroke-width:0.4000000000000001;" width="79.2" x="1262" y="806.7438"/><text fill="#000000" font-family="sans-serif" font-size="11.2" lengthAdjust="spacing" textLength="64.8" x="1269.2" y="824.4297">maintenance</text><text fill="#000000" font-family="sans-serif" font-size="11.2" lengthAdjust="spacing" textLength="68" x="1267.6" y="839.3266">:Maintenance</text><rect fill="#FFFFFF" height="718.2469" style="stroke:#181818;stroke-width:0.8000000000000002;" width="8" x="71.2" y="74.8969"/><rect fill="#FFFFFF" height="246.3281" style="stroke:#181818;stroke-width:0.8000000000000002;" width="8" x="301.6" y="93.5297"/><rect fill="#FFFFFF" height="30.6328" style="stroke:#181818;stroke-width:0.8000000000000002;" width="8" x="301.6" y="364.8906"/><rect fill="#FFFFFF" height="372.5875" style="stroke:#181818;stroke-width:0.8000000000000002;" width="8" x="301.6" y="420.5563"/><rect fill="#FFFFFF" height="175.2297" style="stroke:#181818;stroke-width:0.8000000000000002;" width="8" x="548" y="118.5625"/><rect fill="#FFFFFF" height="322.5219" style="stroke:#181818;stroke-width:0.8000000000000002;" width="8" x="548" y="445.5891"/><rect fill="#FFFFFF" height="25.0328" style="stroke:#181818;stroke-width:0.8000000000000002;" width="8" x="698.8" y="143.5953"/><rect fill="#FFFFFF" height="25.0328" style="stroke:#181818;stroke-width:0.8000000000000002;" width="8" x="698.8" y="470.6219"/><rect fill="#FFFFFF" height="25.0328" style="stroke:#181818;stroke-width:0.8000000000000002;" width="8" x="784.4" y="193.6609"/><rect fill="#FFFFFF" height="25.0328" style="stroke:#181818;stroke-width:0.8000000000000002;" width="8" x="784.4" y="520.6875"/><rect fill="#FFFFFF" height="25.0328" style="stroke:#181818;stroke-width:0.8000000000000002;" width="8" x="884" y="243.7266"/><rect fill="#FFFFFF" height="172.325" style="stroke:#181818;stroke-width:0.8000000000000002;" width="8" x="1011.6" y="570.7531"/><rect fill="#FFFFFF" height="51.4328" style="stroke:#181818;stroke-width:0.8000000000000002;" width="8" x="1015.6" y="673.0125"/><polygon fill="#181818" points="292,90.3297,300,93.5297,292,96.7297,295.2,93.5297" style="stroke:#181818;stroke-width:0.8000000000000002;"/><line style="stroke:#181818;stroke-width:0.8000000000000002;" x1="79.2" x2="296.8" y1="93.5297" y2="93.5297"/><text fill="#000000" font-family="sans-serif" font-size="10.4" font-weight="bold" lengthAdjust="spacing" textLength="5.6" x="84.8" y="89.3195">1</text><text fill="#000000" font-family="sans-serif" font-size="10.4" lengthAdjust="spacing" textLength="177.6" x="93.6" y="89.3195">asks to register a vehicle maintenance</text><polygon fill="#181818" points="538.4,115.3625,546.4,118.5625,538.4,121.7625,541.6,118.5625" style="stroke:#181818;stroke-width:0.8000000000000002;"/><line style="stroke:#181818;stroke-width:0.8000000000000002;" x1="309.6" x2="543.2" y1="118.5625" y2="118.5625"/><text fill="#000000" font-family="sans-serif" font-size="10.4" font-weight="bold" lengthAdjust="spacing" textLength="5.6" x="315.2" y="114.3523">2</text><text fill="#000000" font-family="sans-serif" font-size="10.4" lengthAdjust="spacing" textLength="72" x="324" y="114.3523">getVehicleList()</text><polygon fill="#181818" points="689.2,140.3953,697.2,143.5953,689.2,146.7953,692.4,143.5953" style="stroke:#181818;stroke-width:0.8000000000000002;"/><line style="stroke:#181818;stroke-width:0.8000000000000002;" x1="556" x2="694" y1="143.5953" y2="143.5953"/><text fill="#000000" font-family="sans-serif" font-size="10.4" font-weight="bold" lengthAdjust="spacing" textLength="5.6" x="561.6" y="139.3852">3</text><text fill="#000000" font-family="sans-serif" font-size="10.4" lengthAdjust="spacing" textLength="60" x="570.4" y="139.3852">getInstance()</text><polygon fill="#181818" points="564.8,165.4281,556.8,168.6281,564.8,171.8281,561.6,168.6281" style="stroke:#181818;stroke-width:0.8000000000000002;"/><line style="stroke:#181818;stroke-width:0.8000000000000002;" x1="560" x2="702" y1="168.6281" y2="168.6281"/><text fill="#000000" font-family="sans-serif" font-size="10.4" font-weight="bold" lengthAdjust="spacing" textLength="5.6" x="569.6" y="164.418">4</text><text fill="#000000" font-family="sans-serif" font-size="10.4" lengthAdjust="spacing" textLength="53.6" x="578.4" y="164.418">repositories</text><polygon fill="#181818" points="774.8,190.4609,782.8,193.6609,774.8,196.8609,778,193.6609" style="stroke:#181818;stroke-width:0.8000000000000002;"/><line style="stroke:#181818;stroke-width:0.8000000000000002;" x1="556" x2="779.6" y1="193.6609" y2="193.6609"/><text fill="#000000" font-family="sans-serif" font-size="10.4" font-weight="bold" lengthAdjust="spacing" textLength="5.6" x="561.6" y="189.4508">5</text><text fill="#000000" font-family="sans-serif" font-size="10.4" lengthAdjust="spacing" textLength="104.8" x="570.4" y="189.4508">getVehicleRepository()</text><polygon fill="#181818" points="564.8,215.4938,556.8,218.6938,564.8,221.8938,561.6,218.6938" style="stroke:#181818;stroke-width:0.8000000000000002;"/><line style="stroke:#181818;stroke-width:0.8000000000000002;" x1="560" x2="787.6" y1="218.6938" y2="218.6938"/><text fill="#000000" font-family="sans-serif" font-size="10.4" font-weight="bold" lengthAdjust="spacing" textLength="5.6" x="569.6" y="214.4836">6</text><text fill="#000000" font-family="sans-serif" font-size="10.4" lengthAdjust="spacing" textLength="80.8" x="578.4" y="214.4836">vehicleRepository</text><polygon fill="#181818" points="874.4,240.5266,882.4,243.7266,874.4,246.9266,877.6,243.7266" style="stroke:#181818;stroke-width:0.8000000000000002;"/><line style="stroke:#181818;stroke-width:0.8000000000000002;" x1="556" x2="879.2" y1="243.7266" y2="243.7266"/><text fill="#000000" font-family="sans-serif" font-size="10.4" font-weight="bold" lengthAdjust="spacing" textLength="5.6" x="561.6" y="239.5164">7</text><text fill="#000000" font-family="sans-serif" font-size="10.4" lengthAdjust="spacing" textLength="72" x="570.4" y="239.5164">getVehicleList()</text><polygon fill="#181818" points="564.8,265.5594,556.8,268.7594,564.8,271.9594,561.6,268.7594" style="stroke:#181818;stroke-width:0.8000000000000002;"/><line style="stroke:#181818;stroke-width:0.8000000000000002;" x1="560" x2="887.2" y1="268.7594" y2="268.7594"/><text fill="#000000" font-family="sans-serif" font-size="10.4" font-weight="bold" lengthAdjust="spacing" textLength="5.6" x="569.6" y="264.5492">8</text><text fill="#000000" font-family="sans-serif" font-size="10.4" lengthAdjust="spacing" textLength="48" x="578.4" y="264.5492">vehicleList</text><polygon fill="#181818" points="318.4,290.5922,310.4,293.7922,318.4,296.9922,315.2,293.7922" style="stroke:#181818;stroke-width:0.8000000000000002;"/><line style="stroke:#181818;stroke-width:0.8000000000000002;" x1="313.6" x2="551.2" y1="293.7922" y2="293.7922"/><text fill="#000000" font-family="sans-serif" font-size="10.4" font-weight="bold" lengthAdjust="spacing" textLength="5.6" x="323.2" y="289.582">9</text><text fill="#000000" font-family="sans-serif" font-size="10.4" lengthAdjust="spacing" textLength="48" x="332" y="289.582">vehicleList</text><path d="M8,305.7922 L66.4,305.7922 L66.4,313.225 L58.4,321.225 L8,321.225 L8,305.7922 " fill="#EEEEEE" style="stroke:#000000;stroke-width:1.2000000000000002;"/><rect fill="none" height="65.4984" style="stroke:#000000;stroke-width:1.2000000000000002;" width="389.6" x="8" y="305.7922"/><text fill="#000000" font-family="sans-serif" font-size="10.4" font-weight="bold" lengthAdjust="spacing" textLength="22.4" x="20" y="317.8148">loop</text><polygon fill="#181818" points="88,336.6578,80,339.8578,88,343.0578,84.8,339.8578" style="stroke:#181818;stroke-width:0.8000000000000002;"/><line style="stroke:#181818;stroke-width:0.8000000000000002;stroke-dasharray:2.0,2.0;" x1="83.2" x2="304.8" y1="339.8578" y2="339.8578"/><text fill="#000000" font-family="sans-serif" font-size="10.4" font-weight="bold" lengthAdjust="spacing" textLength="11.2" x="92.8" y="335.6477">10</text><text fill="#000000" font-family="sans-serif" font-size="10.4" lengthAdjust="spacing" textLength="146.4" x="107.2" y="335.6477">shows list of registered vehicles</text><polygon fill="#181818" points="292,361.6906,300,364.8906,292,368.0906,295.2,364.8906" style="stroke:#181818;stroke-width:0.8000000000000002;"/><line style="stroke:#181818;stroke-width:0.8000000000000002;" x1="79.2" x2="296.8" y1="364.8906" y2="364.8906"/><text fill="#000000" font-family="sans-serif" font-size="10.4" font-weight="bold" lengthAdjust="spacing" textLength="11.2" x="84.8" y="360.6805">11</text><text fill="#000000" font-family="sans-serif" font-size="10.4" lengthAdjust="spacing" textLength="150.4" x="99.2" y="360.6805">chooses vehicle for maintenance</text><polygon fill="#181818" points="88,392.3234,80,395.5234,88,398.7234,84.8,395.5234" style="stroke:#181818;stroke-width:0.8000000000000002;"/><line style="stroke:#181818;stroke-width:0.8000000000000002;stroke-dasharray:2.0,2.0;" x1="83.2" x2="304.8" y1="395.5234" y2="395.5234"/><text fill="#000000" font-family="sans-serif" font-size="10.4" font-weight="bold" lengthAdjust="spacing" textLength="11.2" x="92.8" y="391.3133">12</text><text fill="#000000" font-family="sans-serif" font-size="10.4" lengthAdjust="spacing" textLength="188.8" x="107.2" y="391.3133">shows all data and requests confirmation</text><polygon fill="#181818" points="292,417.3563,300,420.5563,292,423.7563,295.2,420.5563" style="stroke:#181818;stroke-width:0.8000000000000002;"/><line style="stroke:#181818;stroke-width:0.8000000000000002;" x1="79.2" x2="296.8" y1="420.5563" y2="420.5563"/><text fill="#000000" font-family="sans-serif" font-size="10.4" font-weight="bold" lengthAdjust="spacing" textLength="11.2" x="84.8" y="416.3461">13</text><text fill="#000000" font-family="sans-serif" font-size="10.4" lengthAdjust="spacing" textLength="62.4" x="99.2" y="416.3461">confirms data</text><polygon fill="#181818" points="538.4,442.3891,546.4,445.5891,538.4,448.7891,541.6,445.5891" style="stroke:#181818;stroke-width:0.8000000000000002;"/><line style="stroke:#181818;stroke-width:0.8000000000000002;" x1="309.6" x2="543.2" y1="445.5891" y2="445.5891"/><text fill="#000000" font-family="sans-serif" font-size="10.4" font-weight="bold" lengthAdjust="spacing" textLength="11.2" x="315.2" y="441.3789">14</text><text fill="#000000" font-family="sans-serif" font-size="10.4" lengthAdjust="spacing" textLength="208.8" x="329.6" y="441.3789">registerVehicleMaintenance(vehicleList, date)</text><polygon fill="#181818" points="689.2,467.4219,697.2,470.6219,689.2,473.8219,692.4,470.6219" style="stroke:#181818;stroke-width:0.8000000000000002;"/><line style="stroke:#181818;stroke-width:0.8000000000000002;" x1="556" x2="694" y1="470.6219" y2="470.6219"/><text fill="#000000" font-family="sans-serif" font-size="10.4" font-weight="bold" lengthAdjust="spacing" textLength="11.2" x="561.6" y="466.4117">15</text><text fill="#000000" font-family="sans-serif" font-size="10.4" lengthAdjust="spacing" textLength="60" x="576" y="466.4117">getInstance()</text><polygon fill="#181818" points="564.8,492.4547,556.8,495.6547,564.8,498.8547,561.6,495.6547" style="stroke:#181818;stroke-width:0.8000000000000002;"/><line style="stroke:#181818;stroke-width:0.8000000000000002;stroke-dasharray:2.0,2.0;" x1="560" x2="702" y1="495.6547" y2="495.6547"/><text fill="#000000" font-family="sans-serif" font-size="10.4" font-weight="bold" lengthAdjust="spacing" textLength="11.2" x="569.6" y="491.4445">16</text><text fill="#000000" font-family="sans-serif" font-size="10.4" lengthAdjust="spacing" textLength="53.6" x="584" y="491.4445">repositories</text><polygon fill="#181818" points="774.8,517.4875,782.8,520.6875,774.8,523.8875,778,520.6875" style="stroke:#181818;stroke-width:0.8000000000000002;"/><line style="stroke:#181818;stroke-width:0.8000000000000002;" x1="556" x2="779.6" y1="520.6875" y2="520.6875"/><text fill="#000000" font-family="sans-serif" font-size="10.4" font-weight="bold" lengthAdjust="spacing" textLength="11.2" x="561.6" y="516.4773">17</text><text fill="#000000" font-family="sans-serif" font-size="10.4" lengthAdjust="spacing" textLength="143.2" x="576" y="516.4773">getRegisterVehicleRepository()</text><polygon fill="#181818" points="564.8,542.5203,556.8,545.7203,564.8,548.9203,561.6,545.7203" style="stroke:#181818;stroke-width:0.8000000000000002;"/><line style="stroke:#181818;stroke-width:0.8000000000000002;stroke-dasharray:2.0,2.0;" x1="560" x2="787.6" y1="545.7203" y2="545.7203"/><text fill="#000000" font-family="sans-serif" font-size="10.4" font-weight="bold" lengthAdjust="spacing" textLength="11.2" x="569.6" y="541.5102">18</text><text fill="#000000" font-family="sans-serif" font-size="10.4" lengthAdjust="spacing" textLength="118.4" x="584" y="541.5102">registerVehicleRepository</text><polygon fill="#181818" points="1002,567.5531,1010,570.7531,1002,573.9531,1005.2,570.7531" style="stroke:#181818;stroke-width:0.8000000000000002;"/><line style="stroke:#181818;stroke-width:0.8000000000000002;" x1="556" x2="1006.8" y1="570.7531" y2="570.7531"/><text fill="#000000" font-family="sans-serif" font-size="10.4" font-weight="bold" lengthAdjust="spacing" textLength="11.2" x="561.6" y="566.543">19</text><text fill="#000000" font-family="sans-serif" font-size="10.4" lengthAdjust="spacing" textLength="208.8" x="576" y="566.543">registerVehicleMaintenance(vehicleList, date)</text><polygon fill="#181818" points="1252.4,592.5859,1260.4,595.7859,1252.4,598.9859,1255.6,595.7859" style="stroke:#181818;stroke-width:0.8000000000000002;"/><line style="stroke:#181818;stroke-width:0.8000000000000002;" x1="1019.6" x2="1257.2" y1="595.7859" y2="595.7859"/><text fill="#000000" font-family="sans-serif" font-size="10.4" font-weight="bold" lengthAdjust="spacing" textLength="11.2" x="1025.2" y="591.5758">20</text><text fill="#000000" font-family="sans-serif" font-size="10.4" lengthAdjust="spacing" textLength="208.8" x="1039.6" y="591.5758">registerVehicleMaintenance(vehicleList, date)</text><rect fill="#E3E3E3" height="40.9938" rx="2" ry="2" style="stroke:#181818;stroke-width:0.4000000000000001;" width="79.2" x="1262" y="577.1531"/><text fill="#000000" font-family="sans-serif" font-size="11.2" lengthAdjust="spacing" textLength="64.8" x="1269.2" y="594.8391">maintenance</text><text fill="#000000" font-family="sans-serif" font-size="11.2" lengthAdjust="spacing" textLength="68" x="1267.6" y="609.7359">:Maintenance</text><path d="M940.8,632.5469 L999.2,632.5469 L999.2,639.9797 L991.2,647.9797 L940.8,647.9797 L940.8,632.5469 " fill="#EEEEEE" style="stroke:#000000;stroke-width:1.2000000000000002;"/><rect fill="none" height="86.2984" style="stroke:#000000;stroke-width:1.2000000000000002;" width="218.8" x="940.8" y="632.5469"/><text fill="#000000" font-family="sans-serif" font-size="10.4" font-weight="bold" lengthAdjust="spacing" textLength="22.4" x="952.8" y="644.5695">loop</text><line style="stroke:#181818;stroke-width:0.8000000000000002;" x1="1019.6" x2="1057.2" y1="662.6125" y2="662.6125"/><line style="stroke:#181818;stroke-width:0.8000000000000002;" x1="1057.2" x2="1057.2" y1="662.6125" y2="673.0125"/><line style="stroke:#181818;stroke-width:0.8000000000000002;" x1="1024.4" x2="1057.2" y1="673.0125" y2="673.0125"/><polygon fill="#181818" points="1032.4,669.8125,1024.4,673.0125,1032.4,676.2125,1029.2,673.0125" style="stroke:#181818;stroke-width:0.8000000000000002;"/><text fill="#000000" font-family="sans-serif" font-size="10.4" font-weight="bold" lengthAdjust="spacing" textLength="11.2" x="1029.2" y="658.4023">21</text><text fill="#000000" font-family="sans-serif" font-size="10.4" lengthAdjust="spacing" textLength="92" x="1043.6" y="658.4023">addVehicle (vehicle)</text><line style="stroke:#181818;stroke-width:0.8000000000000002;" x1="1023.6" x2="1057.2" y1="702.0453" y2="702.0453"/><line style="stroke:#181818;stroke-width:0.8000000000000002;" x1="1057.2" x2="1057.2" y1="702.0453" y2="712.4453"/><line style="stroke:#181818;stroke-width:0.8000000000000002;" x1="1024.4" x2="1057.2" y1="712.4453" y2="712.4453"/><polygon fill="#181818" points="1032.4,709.2453,1024.4,712.4453,1032.4,715.6453,1029.2,712.4453" style="stroke:#181818;stroke-width:0.8000000000000002;"/><text fill="#000000" font-family="sans-serif" font-size="10.4" font-weight="bold" lengthAdjust="spacing" textLength="11.2" x="1029.2" y="697.8352">22</text><text fill="#000000" font-family="sans-serif" font-size="10.4" lengthAdjust="spacing" textLength="106.4" x="1043.6" y="697.8352">validateVehicle(vehicle)</text><polygon fill="#181818" points="564.8,739.8781,556.8,743.0781,564.8,746.2781,561.6,743.0781" style="stroke:#181818;stroke-width:0.8000000000000002;"/><line style="stroke:#181818;stroke-width:0.8000000000000002;stroke-dasharray:2.0,2.0;" x1="560" x2="1014.8" y1="743.0781" y2="743.0781"/><text fill="#000000" font-family="sans-serif" font-size="10.4" font-weight="bold" lengthAdjust="spacing" textLength="11.2" x="569.6" y="738.868">23</text><text fill="#000000" font-family="sans-serif" font-size="10.4" lengthAdjust="spacing" textLength="59.2" x="584" y="738.868">maintenance</text><polygon fill="#181818" points="318.4,764.9109,310.4,768.1109,318.4,771.3109,315.2,768.1109" style="stroke:#181818;stroke-width:0.8000000000000002;"/><line style="stroke:#181818;stroke-width:0.8000000000000002;stroke-dasharray:2.0,2.0;" x1="313.6" x2="551.2" y1="768.1109" y2="768.1109"/><text fill="#000000" font-family="sans-serif" font-size="10.4" font-weight="bold" lengthAdjust="spacing" textLength="11.2" x="323.2" y="763.9008">24</text><text fill="#000000" font-family="sans-serif" font-size="10.4" lengthAdjust="spacing" textLength="59.2" x="337.6" y="763.9008">maintenance</text><polygon fill="#181818" points="84,789.9438,76,793.1438,84,796.3438,80.8,793.1438" style="stroke:#181818;stroke-width:0.8000000000000002;"/><line style="stroke:#181818;stroke-width:0.8000000000000002;stroke-dasharray:2.0,2.0;" x1="79.2" x2="304.8" y1="793.1438" y2="793.1438"/><text fill="#000000" font-family="sans-serif" font-size="10.4" font-weight="bold" lengthAdjust="spacing" textLength="11.2" x="88.8" y="788.9336">25</text><text fill="#000000" font-family="sans-serif" font-size="10.4" lengthAdjust="spacing" textLength="126.4" x="103.2" y="788.9336">displays operation success</text><!--SRC=[fLR1Zjem4BtdAqPSkbsrFy2X4gAx4X91AvRbr8it6S0YiLFRiENlQpiXiHCRicqkABRVcpUUcHVaaRAA2592oHdF3eAN24gSC97jJaMo8zdZgxeK208pHTY-S0_80ydv1sLxs952OfAGa-BiLBwZI98l1veZx3XNx_nFGZB51KosUA2PPdik41MaX6b-CG4YOVOpJJIheXcj25CmcQvnJwL2qM1IGfb2HbY6RmiBULkCHimvKu8NHHDilbal1zYAIwf5KfJsJBjmUQKcRvsP3n4EuXSR4hmiPniVSQvrTSmQjkslMUns_VJYOvraF7nmtNAa0uwoE-iZw_EpnMhpj9gjva-9gHSz4uMsBWaqZtw1xp_qnSDK8uuI5DUDKLyw46Zo0oTEXsqPTTdQHSsa-KmvDECULNCRIytuyBKzvS5jxRmj2zSqWOhLh0icbH4JemoLsZjfdX1xfzrj1W-QuyqmeJnCutZNqG5Z6TXUyxOiIQTlq7enaKEcgopJawEhP1lOtV5UBDL0dE6BoR9yGLcs6KSm3FkcuBpo5amtQaRJvLDjRln3Gg4PWU_QBiVy6YjQPhU_-qEJ7JYNADj9sMbJTASbU9UQq5r7bjzJJOe2Sg8849PhwRzFA9M4ZBCT5ILHjDTullYezXekBVCefTvqYwWvFpZL-sROSVJe_y_uVzu2eZRGP7d31aPOGJInpWzw7xYeBzpn1jyZ7F4HzbkPXDclqjFQC_wzzbucwS04p9CsPk9ylnuVFnjpm3em1o-K_jLVm3o__f-vKWQ8Ul93TUZndab1ZQg6lECUuFfMq2zEFE8WU3UeCJ-w5oTapzOxufHzUmxRsXHoAgk2N2Jm2eNrBv2dB4DP3rdFV9rNy-_bBm00]--></g></svg>