<?xml version="1.0" encoding="us-ascii" standalone="no"?><svg xmlns="http://www.w3.org/2000/svg" xmlns:xlink="http://www.w3.org/1999/xlink" contentStyleType="text/css" height="520px" preserveAspectRatio="none" style="width:1201px;height:520px;background:#FFFFFF;" version="1.1" viewBox="0 0 1201 520" width="1201.6px" zoomAndPan="magnify"><defs/><g><!--class Repositories--><g id="elem_Repositories"><rect codeLine="11" fill="#F1F1F1" height="97.9875" id="Repositories" rx="2" ry="2" style="stroke:#181818;stroke-width:0.4000000000000001;" width="196" x="923.2" y="5.6"/><ellipse cx="986.2" cy="18.4" fill="#ADD1B2" rx="8.8" ry="8.8" style="stroke:#181818;stroke-width:0.8000000000000002;"/><path d="M988.4125,15.1 Q988.5375,14.925 988.6875,14.8375 Q988.8375,14.75 989.0125,14.75 Q989.3125,14.75 989.5,14.9625 Q989.6875,15.1625 989.6875,15.65 L989.6875,16.8125 Q989.6875,17.3 989.5,17.5125 Q989.3125,17.725 989.0125,17.725 Q988.7375,17.725 988.575,17.5625 Q988.4125,17.4125 988.325,17 Q988.2875,16.7125 988.1375,16.5625 Q987.875,16.2625 987.3875,16.0875 Q986.9,15.9125 986.4,15.9125 Q985.7875,15.9125 985.275,16.175 Q984.775,16.4375 984.375,17.0375 Q983.9875,17.6375 983.9875,18.4625 L983.9875,19.3375 Q983.9875,20.325 984.7,20.9875 Q985.4125,21.6375 986.6875,21.6375 Q987.4375,21.6375 987.9625,21.4375 Q988.275,21.3125 988.6125,20.9625 Q988.825,20.75 988.9375,20.6875 Q989.0625,20.625 989.225,20.625 Q989.4875,20.625 989.6875,20.8375 Q989.9,21.0375 989.9,21.3125 Q989.9,21.5875 989.625,21.9125 Q989.225,22.375 988.5875,22.6375 Q987.725,23 986.6875,23 Q985.475,23 984.5125,22.5 Q983.725,22.1 983.175,21.25 Q982.625,20.3875 982.625,19.3625 L982.625,18.4375 Q982.625,17.375 983.1125,16.4625 Q983.6125,15.5375 984.4875,15.05 Q985.3625,14.55 986.35,14.55 Q986.9375,14.55 987.45,14.6875 Q987.975,14.8125 988.4125,15.1 Z " fill="#000000"/><text fill="#000000" font-family="sans-serif" font-size="11.2" lengthAdjust="spacing" textLength="63.2" x="1002.6" y="23.0375">Repositories</text><line style="stroke:#181818;stroke-width:0.4000000000000001;" x1="924" x2="1118.4" y1="31.2" y2="31.2"/><line style="stroke:#181818;stroke-width:0.4000000000000001;" x1="924" x2="1118.4" y1="37.6" y2="37.6"/><text fill="#000000" font-family="sans-serif" font-size="11.2" lengthAdjust="spacing" textLength="75.2" x="928" y="52.8859">-Repositories()</text><text fill="#000000" font-family="sans-serif" font-size="11.2" lengthAdjust="spacing" textLength="145.6" x="928" y="67.7828">+getInstance() : Repositories</text><text fill="#000000" font-family="sans-serif" font-size="11.2" lengthAdjust="spacing" textLength="121.6" x="928" y="82.6797">+getVehicleRepository()</text><text fill="#000000" font-family="sans-serif" font-size="11.2" lengthAdjust="spacing" textLength="186.4" x="928" y="97.5766">+getVehicleMaintenanceRepository()</text></g><!--class RegisterVehicleController--><g id="elem_RegisterVehicleController"><rect codeLine="18" fill="#F1F1F1" height="68.1938" id="RegisterVehicleController" rx="2" ry="2" style="stroke:#181818;stroke-width:0.4000000000000001;" width="692" x="148" y="20.4"/><ellipse cx="426.2" cy="33.2" fill="#ADD1B2" rx="8.8" ry="8.8" style="stroke:#181818;stroke-width:0.8000000000000002;"/><path d="M428.4125,29.9 Q428.5375,29.725 428.6875,29.6375 Q428.8375,29.55 429.0125,29.55 Q429.3125,29.55 429.5,29.7625 Q429.6875,29.9625 429.6875,30.45 L429.6875,31.6125 Q429.6875,32.1 429.5,32.3125 Q429.3125,32.525 429.0125,32.525 Q428.7375,32.525 428.575,32.3625 Q428.4125,32.2125 428.325,31.8 Q428.2875,31.5125 428.1375,31.3625 Q427.875,31.0625 427.3875,30.8875 Q426.9,30.7125 426.4,30.7125 Q425.7875,30.7125 425.275,30.975 Q424.775,31.2375 424.375,31.8375 Q423.9875,32.4375 423.9875,33.2625 L423.9875,34.1375 Q423.9875,35.125 424.7,35.7875 Q425.4125,36.4375 426.6875,36.4375 Q427.4375,36.4375 427.9625,36.2375 Q428.275,36.1125 428.6125,35.7625 Q428.825,35.55 428.9375,35.4875 Q429.0625,35.425 429.225,35.425 Q429.4875,35.425 429.6875,35.6375 Q429.9,35.8375 429.9,36.1125 Q429.9,36.3875 429.625,36.7125 Q429.225,37.175 428.5875,37.4375 Q427.725,37.8 426.6875,37.8 Q425.475,37.8 424.5125,37.3 Q423.725,36.9 423.175,36.05 Q422.625,35.1875 422.625,34.1625 L422.625,33.2375 Q422.625,32.175 423.1125,31.2625 Q423.6125,30.3375 424.4875,29.85 Q425.3625,29.35 426.35,29.35 Q426.9375,29.35 427.45,29.4875 Q427.975,29.6125 428.4125,29.9 Z " fill="#000000"/><text fill="#000000" font-family="sans-serif" font-size="11.2" lengthAdjust="spacing" textLength="128.8" x="442.6" y="37.8375">RegisterVehicleController</text><line style="stroke:#181818;stroke-width:0.4000000000000001;" x1="148.8" x2="839.2" y1="46" y2="46"/><line style="stroke:#181818;stroke-width:0.4000000000000001;" x1="148.8" x2="839.2" y1="52.4" y2="52.4"/><text fill="#000000" font-family="sans-serif" font-size="11.2" lengthAdjust="spacing" textLength="232.8" x="152.8" y="67.6859">+RegisterVehicleController(vehicleRepository)</text><text fill="#000000" font-family="sans-serif" font-size="11.2" lengthAdjust="spacing" textLength="682.4" x="152.8" y="82.5828">+registerVehicle(plateNumber, brand, model, type, tare, grossWeight, currentKms, registrationDate, acquisitionDate, serviceFrequency)</text></g><!--class maintenanceRepository--><g id="elem_maintenanceRepository"><rect codeLine="23" fill="#F1F1F1" height="83.0906" id="maintenanceRepository" rx="2" ry="2" style="stroke:#181818;stroke-width:0.4000000000000001;" width="245.6" x="890.4" y="166.4"/><ellipse cx="950.2" cy="179.2" fill="#ADD1B2" rx="8.8" ry="8.8" style="stroke:#181818;stroke-width:0.8000000000000002;"/><path d="M952.4125,175.9 Q952.5375,175.725 952.6875,175.6375 Q952.8375,175.55 953.0125,175.55 Q953.3125,175.55 953.5,175.7625 Q953.6875,175.9625 953.6875,176.45 L953.6875,177.6125 Q953.6875,178.1 953.5,178.3125 Q953.3125,178.525 953.0125,178.525 Q952.7375,178.525 952.575,178.3625 Q952.4125,178.2125 952.325,177.8 Q952.2875,177.5125 952.1375,177.3625 Q951.875,177.0625 951.3875,176.8875 Q950.9,176.7125 950.4,176.7125 Q949.7875,176.7125 949.275,176.975 Q948.775,177.2375 948.375,177.8375 Q947.9875,178.4375 947.9875,179.2625 L947.9875,180.1375 Q947.9875,181.125 948.7,181.7875 Q949.4125,182.4375 950.6875,182.4375 Q951.4375,182.4375 951.9625,182.2375 Q952.275,182.1125 952.6125,181.7625 Q952.825,181.55 952.9375,181.4875 Q953.0625,181.425 953.225,181.425 Q953.4875,181.425 953.6875,181.6375 Q953.9,181.8375 953.9,182.1125 Q953.9,182.3875 953.625,182.7125 Q953.225,183.175 952.5875,183.4375 Q951.725,183.8 950.6875,183.8 Q949.475,183.8 948.5125,183.3 Q947.725,182.9 947.175,182.05 Q946.625,181.1875 946.625,180.1625 L946.625,179.2375 Q946.625,178.175 947.1125,177.2625 Q947.6125,176.3375 948.4875,175.85 Q949.3625,175.35 950.35,175.35 Q950.9375,175.35 951.45,175.4875 Q951.975,175.6125 952.4125,175.9 Z " fill="#000000"/><text fill="#000000" font-family="sans-serif" font-size="11.2" lengthAdjust="spacing" textLength="119.2" x="966.6" y="183.8375">maintenanceRepository</text><line style="stroke:#181818;stroke-width:0.4000000000000001;" x1="891.2" x2="1135.2" y1="192" y2="192"/><line style="stroke:#181818;stroke-width:0.4000000000000001;" x1="891.2" x2="1135.2" y1="198.4" y2="198.4"/><text fill="#000000" font-family="sans-serif" font-size="11.2" lengthAdjust="spacing" textLength="236" x="895.2" y="213.6859">+registerVehicleMaintenance(vehicleList, date)</text><text fill="#000000" font-family="sans-serif" font-size="11.2" lengthAdjust="spacing" textLength="70.4" x="895.2" y="228.5828">+addVehicle()</text><text fill="#000000" font-family="sans-serif" font-size="11.2" lengthAdjust="spacing" textLength="125.6" x="895.2" y="243.4797">+validateVehicle(vehicle)</text></g><!--class vehicleRepository--><g id="elem_vehicleRepository"><rect codeLine="29" fill="#F1F1F1" height="83.0906" id="vehicleRepository" rx="2" ry="2" style="stroke:#181818;stroke-width:0.4000000000000001;" width="692" x="170.4" y="166.4"/><ellipse cx="468.2" cy="179.2" fill="#ADD1B2" rx="8.8" ry="8.8" style="stroke:#181818;stroke-width:0.8000000000000002;"/><path d="M470.4125,175.9 Q470.5375,175.725 470.6875,175.6375 Q470.8375,175.55 471.0125,175.55 Q471.3125,175.55 471.5,175.7625 Q471.6875,175.9625 471.6875,176.45 L471.6875,177.6125 Q471.6875,178.1 471.5,178.3125 Q471.3125,178.525 471.0125,178.525 Q470.7375,178.525 470.575,178.3625 Q470.4125,178.2125 470.325,177.8 Q470.2875,177.5125 470.1375,177.3625 Q469.875,177.0625 469.3875,176.8875 Q468.9,176.7125 468.4,176.7125 Q467.7875,176.7125 467.275,176.975 Q466.775,177.2375 466.375,177.8375 Q465.9875,178.4375 465.9875,179.2625 L465.9875,180.1375 Q465.9875,181.125 466.7,181.7875 Q467.4125,182.4375 468.6875,182.4375 Q469.4375,182.4375 469.9625,182.2375 Q470.275,182.1125 470.6125,181.7625 Q470.825,181.55 470.9375,181.4875 Q471.0625,181.425 471.225,181.425 Q471.4875,181.425 471.6875,181.6375 Q471.9,181.8375 471.9,182.1125 Q471.9,182.3875 471.625,182.7125 Q471.225,183.175 470.5875,183.4375 Q469.725,183.8 468.6875,183.8 Q467.475,183.8 466.5125,183.3 Q465.725,182.9 465.175,182.05 Q464.625,181.1875 464.625,180.1625 L464.625,179.2375 Q464.625,178.175 465.1125,177.2625 Q465.6125,176.3375 466.4875,175.85 Q467.3625,175.35 468.35,175.35 Q468.9375,175.35 469.45,175.4875 Q469.975,175.6125 470.4125,175.9 Z " fill="#000000"/><text fill="#000000" font-family="sans-serif" font-size="11.2" lengthAdjust="spacing" textLength="89.6" x="484.6" y="183.8375">vehicleRepository</text><line style="stroke:#181818;stroke-width:0.4000000000000001;" x1="171.2" x2="861.6" y1="192" y2="192"/><line style="stroke:#181818;stroke-width:0.4000000000000001;" x1="171.2" x2="861.6" y1="198.4" y2="198.4"/><text fill="#000000" font-family="sans-serif" font-size="11.2" lengthAdjust="spacing" textLength="682.4" x="175.2" y="213.6859">+registerVehicle(plateNumber, brand, model, type, tare, grossWeight, currentKms, registrationDate, acquisitionDate, serviceFrequency)</text><text fill="#000000" font-family="sans-serif" font-size="11.2" lengthAdjust="spacing" textLength="105.6" x="175.2" y="228.5828">+addVehicle(vehicle)</text><text fill="#000000" font-family="sans-serif" font-size="11.2" lengthAdjust="spacing" textLength="125.6" x="175.2" y="243.4797">+validateVehicle(vehicle)</text></g><!--class RegisterVehicleUI--><g id="elem_RegisterVehicleUI"><rect codeLine="35" fill="#F1F1F1" height="38.4" id="RegisterVehicleUI" rx="2" ry="2" style="stroke:#181818;stroke-width:0.4000000000000001;" width="114.4" x="5.6" y="35.2"/><ellipse cx="17.6" cy="48" fill="#ADD1B2" rx="8.8" ry="8.8" style="stroke:#181818;stroke-width:0.8000000000000002;"/><path d="M19.8125,44.7 Q19.9375,44.525 20.0875,44.4375 Q20.2375,44.35 20.4125,44.35 Q20.7125,44.35 20.9,44.5625 Q21.0875,44.7625 21.0875,45.25 L21.0875,46.4125 Q21.0875,46.9 20.9,47.1125 Q20.7125,47.325 20.4125,47.325 Q20.1375,47.325 19.975,47.1625 Q19.8125,47.0125 19.725,46.6 Q19.6875,46.3125 19.5375,46.1625 Q19.275,45.8625 18.7875,45.6875 Q18.3,45.5125 17.8,45.5125 Q17.1875,45.5125 16.675,45.775 Q16.175,46.0375 15.775,46.6375 Q15.3875,47.2375 15.3875,48.0625 L15.3875,48.9375 Q15.3875,49.925 16.1,50.5875 Q16.8125,51.2375 18.0875,51.2375 Q18.8375,51.2375 19.3625,51.0375 Q19.675,50.9125 20.0125,50.5625 Q20.225,50.35 20.3375,50.2875 Q20.4625,50.225 20.625,50.225 Q20.8875,50.225 21.0875,50.4375 Q21.3,50.6375 21.3,50.9125 Q21.3,51.1875 21.025,51.5125 Q20.625,51.975 19.9875,52.2375 Q19.125,52.6 18.0875,52.6 Q16.875,52.6 15.9125,52.1 Q15.125,51.7 14.575,50.85 Q14.025,49.9875 14.025,48.9625 L14.025,48.0375 Q14.025,46.975 14.5125,46.0625 Q15.0125,45.1375 15.8875,44.65 Q16.7625,44.15 17.75,44.15 Q18.3375,44.15 18.85,44.2875 Q19.375,44.4125 19.8125,44.7 Z " fill="#000000"/><text fill="#000000" font-family="sans-serif" font-size="11.2" lengthAdjust="spacing" textLength="88.8" x="28.8" y="52.6375">RegisterVehicleUI</text><line style="stroke:#181818;stroke-width:0.4000000000000001;" x1="6.4" x2="119.2" y1="60.8" y2="60.8"/><line style="stroke:#181818;stroke-width:0.4000000000000001;" x1="6.4" x2="119.2" y1="67.2" y2="67.2"/></g><!--class Vehicle--><g id="elem_Vehicle"><rect codeLine="38" fill="#F1F1F1" height="202.2656" id="Vehicle" rx="2" ry="2" style="stroke:#181818;stroke-width:0.4000000000000001;" width="164" x="668.8" y="312.8"/><ellipse cx="729" cy="325.6" fill="#ADD1B2" rx="8.8" ry="8.8" style="stroke:#181818;stroke-width:0.8000000000000002;"/><path d="M731.2125,322.3 Q731.3375,322.125 731.4875,322.0375 Q731.6375,321.95 731.8125,321.95 Q732.1125,321.95 732.3,322.1625 Q732.4875,322.3625 732.4875,322.85 L732.4875,324.0125 Q732.4875,324.5 732.3,324.7125 Q732.1125,324.925 731.8125,324.925 Q731.5375,324.925 731.375,324.7625 Q731.2125,324.6125 731.125,324.2 Q731.0875,323.9125 730.9375,323.7625 Q730.675,323.4625 730.1875,323.2875 Q729.7,323.1125 729.2,323.1125 Q728.5875,323.1125 728.075,323.375 Q727.575,323.6375 727.175,324.2375 Q726.7875,324.8375 726.7875,325.6625 L726.7875,326.5375 Q726.7875,327.525 727.5,328.1875 Q728.2125,328.8375 729.4875,328.8375 Q730.2375,328.8375 730.7625,328.6375 Q731.075,328.5125 731.4125,328.1625 Q731.625,327.95 731.7375,327.8875 Q731.8625,327.825 732.025,327.825 Q732.2875,327.825 732.4875,328.0375 Q732.7,328.2375 732.7,328.5125 Q732.7,328.7875 732.425,329.1125 Q732.025,329.575 731.3875,329.8375 Q730.525,330.2 729.4875,330.2 Q728.275,330.2 727.3125,329.7 Q726.525,329.3 725.975,328.45 Q725.425,327.5875 725.425,326.5625 L725.425,325.6375 Q725.425,324.575 725.9125,323.6625 Q726.4125,322.7375 727.2875,322.25 Q728.1625,321.75 729.15,321.75 Q729.7375,321.75 730.25,321.8875 Q730.775,322.0125 731.2125,322.3 Z " fill="#000000"/><text fill="#000000" font-family="sans-serif" font-size="11.2" lengthAdjust="spacing" textLength="36.8" x="745.4" y="330.2375">Vehicle</text><line style="stroke:#181818;stroke-width:0.4000000000000001;" x1="669.6" x2="832" y1="338.4" y2="338.4"/><text fill="#000000" font-family="sans-serif" font-size="11.2" lengthAdjust="spacing" textLength="100.8" x="673.6" y="353.6859">-String plateNumber</text><text fill="#000000" font-family="sans-serif" font-size="11.2" lengthAdjust="spacing" textLength="66.4" x="673.6" y="368.5828">-String brand</text><text fill="#000000" font-family="sans-serif" font-size="11.2" lengthAdjust="spacing" textLength="67.2" x="673.6" y="383.4797">-String model</text><text fill="#000000" font-family="sans-serif" font-size="11.2" lengthAdjust="spacing" textLength="58.4" x="673.6" y="398.3766">-String type</text><text fill="#000000" font-family="sans-serif" font-size="11.2" lengthAdjust="spacing" textLength="63.2" x="673.6" y="413.2734">-Double tare</text><text fill="#000000" font-family="sans-serif" font-size="11.2" lengthAdjust="spacing" textLength="106.4" x="673.6" y="428.1703">-Double grossWeight</text><text fill="#000000" font-family="sans-serif" font-size="11.2" lengthAdjust="spacing" textLength="100.8" x="673.6" y="443.0672">-Double currentKms</text><text fill="#000000" font-family="sans-serif" font-size="11.2" lengthAdjust="spacing" textLength="117.6" x="673.6" y="457.9641">-String registrationDate</text><text fill="#000000" font-family="sans-serif" font-size="11.2" lengthAdjust="spacing" textLength="114.4" x="673.6" y="472.8609">-String acquisitionDate</text><text fill="#000000" font-family="sans-serif" font-size="11.2" lengthAdjust="spacing" textLength="133.6" x="673.6" y="487.7578">-Double serviceFrequency</text><text fill="#000000" font-family="sans-serif" font-size="11.2" lengthAdjust="spacing" textLength="154.4" x="673.6" y="502.6547">-Double kmAtLastMaintenance</text><line style="stroke:#181818;stroke-width:0.4000000000000001;" x1="669.6" x2="832" y1="508.6656" y2="508.6656"/></g><!--class Maintenance--><g id="elem_Maintenance"><rect codeLine="52" fill="#F1F1F1" height="53.2969" id="Maintenance" rx="2" ry="2" style="stroke:#181818;stroke-width:0.4000000000000001;" width="148" x="900" y="387.2"/><ellipse cx="938.2" cy="400" fill="#ADD1B2" rx="8.8" ry="8.8" style="stroke:#181818;stroke-width:0.8000000000000002;"/><path d="M940.4125,396.7 Q940.5375,396.525 940.6875,396.4375 Q940.8375,396.35 941.0125,396.35 Q941.3125,396.35 941.5,396.5625 Q941.6875,396.7625 941.6875,397.25 L941.6875,398.4125 Q941.6875,398.9 941.5,399.1125 Q941.3125,399.325 941.0125,399.325 Q940.7375,399.325 940.575,399.1625 Q940.4125,399.0125 940.325,398.6 Q940.2875,398.3125 940.1375,398.1625 Q939.875,397.8625 939.3875,397.6875 Q938.9,397.5125 938.4,397.5125 Q937.7875,397.5125 937.275,397.775 Q936.775,398.0375 936.375,398.6375 Q935.9875,399.2375 935.9875,400.0625 L935.9875,400.9375 Q935.9875,401.925 936.7,402.5875 Q937.4125,403.2375 938.6875,403.2375 Q939.4375,403.2375 939.9625,403.0375 Q940.275,402.9125 940.6125,402.5625 Q940.825,402.35 940.9375,402.2875 Q941.0625,402.225 941.225,402.225 Q941.4875,402.225 941.6875,402.4375 Q941.9,402.6375 941.9,402.9125 Q941.9,403.1875 941.625,403.5125 Q941.225,403.975 940.5875,404.2375 Q939.725,404.6 938.6875,404.6 Q937.475,404.6 936.5125,404.1 Q935.725,403.7 935.175,402.85 Q934.625,401.9875 934.625,400.9625 L934.625,400.0375 Q934.625,398.975 935.1125,398.0625 Q935.6125,397.1375 936.4875,396.65 Q937.3625,396.15 938.35,396.15 Q938.9375,396.15 939.45,396.2875 Q939.975,396.4125 940.4125,396.7 Z " fill="#000000"/><text fill="#000000" font-family="sans-serif" font-size="11.2" lengthAdjust="spacing" textLength="64.8" x="954.6" y="404.6375">Maintenance</text><line style="stroke:#181818;stroke-width:0.4000000000000001;" x1="900.8" x2="1047.2" y1="412.8" y2="412.8"/><text fill="#000000" font-family="sans-serif" font-size="11.2" lengthAdjust="spacing" textLength="138.4" x="904.8" y="428.0859">-Double km at maintenance</text><line style="stroke:#181818;stroke-width:0.4000000000000001;" x1="900.8" x2="1047.2" y1="434.0969" y2="434.0969"/></g><!--link Repositories to Repositories--><g id="link_Repositories_Repositories"><path codeLine="56" d="M1119.464,40.456 C1135.872,42.408 1147.2,47.056 1147.2,54.4 C1147.2,61.744 1140.6384,65.825 1124.2304,67.777 " fill="none" id="Repositories-to-Repositories" style="stroke:#181818;stroke-width:0.8000000000000002;"/><polygon fill="#181818" points="1119.464,68.344,1126.9916,70.671,1123.436,67.8715,1126.2356,64.3158,1119.464,68.344" style="stroke:#181818;stroke-width:0.8000000000000002;"/><text fill="#000000" font-family="sans-serif" font-size="10.4" lengthAdjust="spacing" textLength="39.2" x="1152" y="58.8227">instance</text></g><!--link RegisterVehicleUI to RegisterVehicleController--><g id="link_RegisterVehicleUI_RegisterVehicleController"><path codeLine="58" d="M120.024,54.4 C129.176,54.4 133.872,54.4 143.064,54.4 " fill="none" id="RegisterVehicleUI-to-RegisterVehicleController" style="stroke:#181818;stroke-width:0.8000000000000002;stroke-dasharray:7.0,7.0;"/><polygon fill="#181818" points="147.864,54.4,140.664,51.2,143.864,54.4,140.664,57.6,147.864,54.4" style="stroke:#181818;stroke-width:0.8000000000000002;"/></g><!--link RegisterVehicleController to vehicleRepository--><g id="link_RegisterVehicleController_vehicleRepository"><path codeLine="59" d="M498.912,88.56 C502.288,111.456 506.0933,137.2351 509.6773,161.5951 " fill="none" id="RegisterVehicleController-to-vehicleRepository" style="stroke:#181818;stroke-width:0.8000000000000002;stroke-dasharray:7.0,7.0;"/><polygon fill="#181818" points="510.376,166.344,512.4939,158.7549,509.7938,162.3866,506.1621,159.6865,510.376,166.344" style="stroke:#181818;stroke-width:0.8000000000000002;"/><text fill="#000000" font-family="sans-serif" font-size="10.4" lengthAdjust="spacing" textLength="80.8" x="507.6" y="139.2227">vehicleRepository</text><text fill="#000000" font-family="sans-serif" font-size="10.4" lengthAdjust="spacing" textLength="5.6" x="503.5903" y="157.4784">1</text></g><!--link Repositories to vehicleRepository--><g id="link_Repositories_vehicleRepository"><path codeLine="62" d="M923.096,95.096 C866.64,118.064 806.8,142.4 806.8,142.4 C806.8,142.4 762.0448,152.3865 703.9728,165.3465 " fill="none" id="Repositories-to-vehicleRepository" style="stroke:#181818;stroke-width:0.8000000000000002;"/><polygon fill="#181818" points="699.288,166.392,707.0121,167.9469,703.192,165.5207,705.6181,161.7006,699.288,166.392" style="stroke:#181818;stroke-width:0.8000000000000002;"/><text fill="#000000" font-family="sans-serif" font-size="10.4" lengthAdjust="spacing" textLength="5.6" x="717.8873" y="157.5328">1</text></g><!--link RegisterVehicleController to Repositories--><g id="link_RegisterVehicleController_Repositories"><path codeLine="64" d="M840.136,54.4 C869.976,54.4 893.448,54.4 918.392,54.4 " fill="none" id="RegisterVehicleController-to-Repositories" style="stroke:#181818;stroke-width:0.8000000000000002;stroke-dasharray:7.0,7.0;"/><polygon fill="#181818" points="923.192,54.4,915.992,51.2,919.192,54.4,915.992,57.6,923.192,54.4" style="stroke:#181818;stroke-width:0.8000000000000002;"/><text fill="#000000" font-family="sans-serif" font-size="10.4" lengthAdjust="spacing" textLength="53.6" x="854.8" y="48.8227">repositories</text></g><!--reverse link vehicleRepository to Vehicle--><g id="link_vehicleRepository_Vehicle"><path codeLine="66" d="M570.5074,255.9814 C600.6354,282.2534 633.368,310.792 668.656,341.568 " fill="none" id="vehicleRepository-backto-Vehicle" style="stroke:#181818;stroke-width:0.8000000000000002;"/><polygon fill="none" points="563.272,249.672,564.7866,255.2385,570.5074,255.9814,568.9928,250.4149,563.272,249.672" style="stroke:#181818;stroke-width:0.8000000000000002;"/><text fill="#000000" font-family="sans-serif" font-size="10.4" lengthAdjust="spacing" textLength="16.8" x="606" y="285.6227">has</text><text fill="#000000" font-family="sans-serif" font-size="10.4" lengthAdjust="spacing" textLength="4" x="658.4767" y="333.3855">*</text></g><!--reverse link maintenanceRepository to Maintenance--><g id="link_maintenanceRepository_Maintenance"><path codeLine="68" d="M1003.5525,259.1003 C995.7125,299.9963 985.688,352.24 979.024,386.992 " fill="none" id="maintenanceRepository-backto-Maintenance" style="stroke:#181818;stroke-width:0.8000000000000002;"/><polygon fill="none" points="1005.36,249.672,1001.3135,253.7837,1003.5525,259.1003,1007.599,254.9886,1005.36,249.672" style="stroke:#181818;stroke-width:0.8000000000000002;"/><text fill="#000000" font-family="sans-serif" font-size="10.4" lengthAdjust="spacing" textLength="16.8" x="1001.2" y="285.6227">has</text><text fill="#000000" font-family="sans-serif" font-size="10.4" lengthAdjust="spacing" textLength="4" x="975.6005" y="378.2211">*</text></g><!--link Vehicle to Maintenance--><g id="link_Vehicle_Maintenance"><path codeLine="70" d="M832.88,414 C851.888,414 899.6,414 899.6,414 C899.6,414 894.872,414 895.016,414 " fill="none" id="Vehicle-to-Maintenance" style="stroke:#181818;stroke-width:0.8000000000000002;"/><polygon fill="#181818" points="899.816,414,892.616,410.8,895.816,414,892.616,417.2,899.816,414" style="stroke:#181818;stroke-width:0.8000000000000002;"/></g><!--link Repositories to maintenanceRepository--><g id="link_Repositories_maintenanceRepository"><path codeLine="72" d="M1018.672,103.296 C1017.6,123.56 1016.6287,142.1027 1015.6047,161.5267 " fill="none" id="Repositories-to-maintenanceRepository" style="stroke:#181818;stroke-width:0.8000000000000002;"/><polygon fill="#181818" points="1015.352,166.32,1018.9266,159.2984,1015.5626,162.3255,1012.5355,158.9615,1015.352,166.32" style="stroke:#181818;stroke-width:0.8000000000000002;"/><text fill="#000000" font-family="sans-serif" font-size="10.4" lengthAdjust="spacing" textLength="5.6" x="1009.6649" y="157.4511">1</text></g><!--link RegisterVehicleController to maintenanceRepository--><g id="link_RegisterVehicleController_maintenanceRepository"><path codeLine="74" d="M608.216,88.416 C720.896,121.176 876.4,166.4 876.4,166.4 C876.4,166.4 877.1204,166.6114 885.6724,169.1634 " fill="none" id="RegisterVehicleController-to-maintenanceRepository" style="stroke:#181818;stroke-width:0.8000000000000002;stroke-dasharray:7.0,7.0;"/><polygon fill="#181818" points="890.272,170.536,884.2877,165.4108,886.439,169.3922,882.4576,171.5435,890.272,170.536" style="stroke:#181818;stroke-width:0.8000000000000002;"/><text fill="#000000" font-family="sans-serif" font-size="10.4" lengthAdjust="spacing" textLength="108.8" x="794" y="139.2227">maintenanceRepository</text><text fill="#000000" font-family="sans-serif" font-size="10.4" lengthAdjust="spacing" textLength="5.6" x="878.5821" y="166.0229">1</text></g><!--SRC=[pLJ1Zjem4BtxAqPSOBjXrLuvhBJggXBgjeUYjcVZp0OBnywE9rGKzTzhemJi452FvH29D_F6yvx7C_LRRHj9ieRQMQSsv6e4fXR5ET98jPKLhdXl40WLIrkPDC5lPEb-QLl1gpG-ZHXjaVSDGkFCFluHqv6W8tOYOIaZlNzY9hrk6PVAsPN-ZV1UYAd1LmPsGBhQC9GwjgET5UB8WM_OEA_PaKOF1m7XDy_0sTqHl8SAUMbzaA9mTWUBBEcSyWCtMXay1VSflmj-aTeosbWfo_jpRghIdf6w_8_ECZbZaBeExwzdp7R31lhpAQVC6YCPlxRr6gc0DKbR5k5AIpG5H8_3LrBuLkIy_udHlG9KIuIMFzU-wEgHZ6u-Xr85IFNMwd3e2V18Ewtm4-5RYrRj4udrc0U7yLOJltfvBo5UG1bEwUN9ikoLzT1E6XrJUhpZ9brSc7Nudyow47OIyA_w1cFoVHa6w1Jim7xeL-7rX0UPACq3HzKvT7GWXw8R7VBisdLu_z6P74bSoWDdn_AYG_VowC39lEJGrJowhP_uHNfE9kpiJm8UXZIGd8vm96MRPFwORvO5w6vtnCJXfJmyNd_Guleo2BJ9Xydb48VJBZ0nR71-XInk7pXGHUaI59UTW9lFOV9kqWzRe6nao1nz_Y7vc9iOt-VtzD1rUbVZcaQBtzJrS8Euk5BlBm00]--></g></svg>