<?xml version="1.0" encoding="us-ascii" standalone="no"?><svg xmlns="http://www.w3.org/2000/svg" xmlns:xlink="http://www.w3.org/1999/xlink" contentStyleType="text/css" height="1092px" preserveAspectRatio="none" style="width:1575px;height:1092px;background:#FFFFFF;" version="1.1" viewBox="0 0 1575 1092" width="1575px" zoomAndPan="magnify"><defs/><g><rect fill="#FFFFFF" height="897.8086" style="stroke:#181818;stroke-width:1.0;" width="10" x="89" y="93.6211"/><rect fill="#FFFFFF" height="307.9102" style="stroke:#181818;stroke-width:1.0;" width="10" x="377" y="116.9121"/><rect fill="#FFFFFF" height="38.291" style="stroke:#181818;stroke-width:1.0;" width="10" x="377" y="456.1133"/><rect fill="#FFFFFF" height="465.7344" style="stroke:#181818;stroke-width:1.0;" width="10" x="377" y="525.6953"/><rect fill="#FFFFFF" height="219.0371" style="stroke:#181818;stroke-width:1.0;" width="10" x="685" y="148.2031"/><rect fill="#FFFFFF" height="403.1523" style="stroke:#181818;stroke-width:1.0;" width="10" x="685" y="556.9863"/><rect fill="#FFFFFF" height="31.291" style="stroke:#181818;stroke-width:1.0;" width="10" x="873.5" y="179.4941"/><rect fill="#FFFFFF" height="31.291" style="stroke:#181818;stroke-width:1.0;" width="10" x="873.5" y="588.2773"/><rect fill="#FFFFFF" height="31.291" style="stroke:#181818;stroke-width:1.0;" width="10" x="980.5" y="242.0762"/><rect fill="#FFFFFF" height="31.291" style="stroke:#181818;stroke-width:1.0;" width="10" x="980.5" y="650.8594"/><rect fill="#FFFFFF" height="31.291" style="stroke:#181818;stroke-width:1.0;" width="10" x="1105" y="304.6582"/><rect fill="#FFFFFF" height="215.4063" style="stroke:#181818;stroke-width:1.0;" width="10" x="1264.5" y="713.4414"/><rect fill="#FFFFFF" height="64.291" style="stroke:#181818;stroke-width:1.0;" width="10" x="1269.5" y="841.2656"/><rect fill="none" height="81.873" style="stroke:#000000;stroke-width:1.5;" width="487" x="10" y="382.2402"/><rect fill="none" height="107.873" style="stroke:#000000;stroke-width:1.5;" width="273.5" x="1176" y="790.6836"/><line style="stroke:#181818;stroke-width:0.5;stroke-dasharray:5.0,5.0;" x1="94" x2="94" y1="83.6211" y2="1009.4297"/><line style="stroke:#181818;stroke-width:0.5;stroke-dasharray:5.0,5.0;" x1="382" x2="382" y1="83.6211" y2="1009.4297"/><line style="stroke:#181818;stroke-width:0.5;stroke-dasharray:5.0,5.0;" x1="690" x2="690" y1="83.6211" y2="1009.4297"/><line style="stroke:#181818;stroke-width:0.5;stroke-dasharray:5.0,5.0;" x1="878" x2="878" y1="83.6211" y2="1009.4297"/><line style="stroke:#181818;stroke-width:0.5;stroke-dasharray:5.0,5.0;" x1="985" x2="985" y1="83.6211" y2="1009.4297"/><line style="stroke:#181818;stroke-width:0.5;stroke-dasharray:5.0,5.0;" x1="1110" x2="1110" y1="83.6211" y2="1009.4297"/><line style="stroke:#181818;stroke-width:0.5;stroke-dasharray:5.0,5.0;" x1="1269" x2="1269" y1="83.6211" y2="1009.4297"/><line style="stroke:#181818;stroke-width:0.5;stroke-dasharray:5.0,5.0;" x1="1519.5" x2="1519.5" y1="762.5625" y2="1009.4297"/><text fill="#000000" font-family="sans-serif" font-size="14" lengthAdjust="spacing" textLength="142" x="20" y="80.1074">Vehicle Fleet Manager</text><ellipse cx="94" cy="13.5" fill="#E3E3E3" rx="8" ry="8" style="stroke:#181818;stroke-width:0.5;"/><path d="M94,21.5 L94,48.5 M81,29.5 L107,29.5 M94,48.5 L81,63.5 M94,48.5 L107,63.5 " fill="none" style="stroke:#181818;stroke-width:0.5;"/><text fill="#000000" font-family="sans-serif" font-size="14" lengthAdjust="spacing" textLength="142" x="20" y="1023.5371">Vehicle Fleet Manager</text><ellipse cx="94" cy="1035.5508" fill="#E3E3E3" rx="8" ry="8" style="stroke:#181818;stroke-width:0.5;"/><path d="M94,1043.5508 L94,1070.5508 M81,1051.5508 L107,1051.5508 M94,1070.5508 L81,1085.5508 M94,1070.5508 L107,1085.5508 " fill="none" style="stroke:#181818;stroke-width:0.5;"/><rect fill="#E3E3E3" height="32.6211" rx="2.5" ry="2.5" style="stroke:#181818;stroke-width:0.5;" width="210" x="277" y="50"/><text fill="#000000" font-family="sans-serif" font-size="14" lengthAdjust="spacing" textLength="196" x="284" y="72.1074">:RegisterVehicleMaintenanceUI</text><rect fill="#E3E3E3" height="32.6211" rx="2.5" ry="2.5" style="stroke:#181818;stroke-width:0.5;" width="210" x="277" y="1008.4297"/><text fill="#000000" font-family="sans-serif" font-size="14" lengthAdjust="spacing" textLength="196" x="284" y="1030.5371">:RegisterVehicleMaintenanceUI</text><rect fill="#E3E3E3" height="32.6211" rx="2.5" ry="2.5" style="stroke:#181818;stroke-width:0.5;" width="260" x="560" y="50"/><text fill="#000000" font-family="sans-serif" font-size="14" lengthAdjust="spacing" textLength="246" x="567" y="72.1074">:RegisterVehicleMaintenanceController</text><rect fill="#E3E3E3" height="32.6211" rx="2.5" ry="2.5" style="stroke:#181818;stroke-width:0.5;" width="260" x="560" y="1008.4297"/><text fill="#000000" font-family="sans-serif" font-size="14" lengthAdjust="spacing" textLength="246" x="567" y="1030.5371">:RegisterVehicleMaintenanceController</text><rect fill="#E3E3E3" height="32.6211" rx="2.5" ry="2.5" style="stroke:#181818;stroke-width:0.5;" width="97" x="830" y="50"/><text fill="#000000" font-family="sans-serif" font-size="14" lengthAdjust="spacing" textLength="83" x="837" y="72.1074">:Repositories</text><rect fill="#E3E3E3" height="32.6211" rx="2.5" ry="2.5" style="stroke:#181818;stroke-width:0.5;" width="97" x="830" y="1008.4297"/><text fill="#000000" font-family="sans-serif" font-size="14" lengthAdjust="spacing" textLength="83" x="837" y="1030.5371">:Repositories</text><rect fill="#E3E3E3" height="51.2422" rx="2.5" ry="2.5" style="stroke:#181818;stroke-width:0.5;" width="97" x="937" y="31.3789"/><text fill="#000000" font-family="sans-serif" font-size="14" lengthAdjust="spacing" textLength="74" x="948.5" y="53.4863">repositories</text><text fill="#000000" font-family="sans-serif" font-size="14" lengthAdjust="spacing" textLength="83" x="944" y="72.1074">:Repositories</text><rect fill="#E3E3E3" height="51.2422" rx="2.5" ry="2.5" style="stroke:#181818;stroke-width:0.5;" width="97" x="937" y="1008.4297"/><text fill="#000000" font-family="sans-serif" font-size="14" lengthAdjust="spacing" textLength="74" x="948.5" y="1030.5371">repositories</text><text fill="#000000" font-family="sans-serif" font-size="14" lengthAdjust="spacing" textLength="83" x="944" y="1049.1582">:Repositories</text><rect fill="#E3E3E3" height="51.2422" rx="2.5" ry="2.5" style="stroke:#181818;stroke-width:0.5;" width="132" x="1044" y="31.3789"/><text fill="#000000" font-family="sans-serif" font-size="14" lengthAdjust="spacing" textLength="112" x="1054" y="53.4863">vehicleRepository</text><text fill="#000000" font-family="sans-serif" font-size="14" lengthAdjust="spacing" textLength="118" x="1051" y="72.1074">:VehicleRepository</text><rect fill="#E3E3E3" height="51.2422" rx="2.5" ry="2.5" style="stroke:#181818;stroke-width:0.5;" width="132" x="1044" y="1008.4297"/><text fill="#000000" font-family="sans-serif" font-size="14" lengthAdjust="spacing" textLength="112" x="1054" y="1030.5371">vehicleRepository</text><text fill="#000000" font-family="sans-serif" font-size="14" lengthAdjust="spacing" textLength="118" x="1051" y="1049.1582">:VehicleRepository</text><rect fill="#E3E3E3" height="51.2422" rx="2.5" ry="2.5" style="stroke:#181818;stroke-width:0.5;" width="167" x="1186" y="31.3789"/><text fill="#000000" font-family="sans-serif" font-size="14" lengthAdjust="spacing" textLength="149" x="1195" y="53.4863">MaintenanceRepository</text><text fill="#000000" font-family="sans-serif" font-size="14" lengthAdjust="spacing" textLength="153" x="1193" y="72.1074">:MaintenanceRepository</text><rect fill="#E3E3E3" height="51.2422" rx="2.5" ry="2.5" style="stroke:#181818;stroke-width:0.5;" width="167" x="1186" y="1008.4297"/><text fill="#000000" font-family="sans-serif" font-size="14" lengthAdjust="spacing" textLength="149" x="1195" y="1030.5371">MaintenanceRepository</text><text fill="#000000" font-family="sans-serif" font-size="14" lengthAdjust="spacing" textLength="153" x="1193" y="1049.1582">:MaintenanceRepository</text><rect fill="#E3E3E3" height="51.2422" rx="2.5" ry="2.5" style="stroke:#181818;stroke-width:0.5;" width="99" x="1470.5" y="1008.4297"/><text fill="#000000" font-family="sans-serif" font-size="14" lengthAdjust="spacing" textLength="81" x="1479.5" y="1030.5371">maintenance</text><text fill="#000000" font-family="sans-serif" font-size="14" lengthAdjust="spacing" textLength="85" x="1477.5" y="1049.1582">:Maintenance</text><rect fill="#FFFFFF" height="897.8086" style="stroke:#181818;stroke-width:1.0;" width="10" x="89" y="93.6211"/><rect fill="#FFFFFF" height="307.9102" style="stroke:#181818;stroke-width:1.0;" width="10" x="377" y="116.9121"/><rect fill="#FFFFFF" height="38.291" style="stroke:#181818;stroke-width:1.0;" width="10" x="377" y="456.1133"/><rect fill="#FFFFFF" height="465.7344" style="stroke:#181818;stroke-width:1.0;" width="10" x="377" y="525.6953"/><rect fill="#FFFFFF" height="219.0371" style="stroke:#181818;stroke-width:1.0;" width="10" x="685" y="148.2031"/><rect fill="#FFFFFF" height="403.1523" style="stroke:#181818;stroke-width:1.0;" width="10" x="685" y="556.9863"/><rect fill="#FFFFFF" height="31.291" style="stroke:#181818;stroke-width:1.0;" width="10" x="873.5" y="179.4941"/><rect fill="#FFFFFF" height="31.291" style="stroke:#181818;stroke-width:1.0;" width="10" x="873.5" y="588.2773"/><rect fill="#FFFFFF" height="31.291" style="stroke:#181818;stroke-width:1.0;" width="10" x="980.5" y="242.0762"/><rect fill="#FFFFFF" height="31.291" style="stroke:#181818;stroke-width:1.0;" width="10" x="980.5" y="650.8594"/><rect fill="#FFFFFF" height="31.291" style="stroke:#181818;stroke-width:1.0;" width="10" x="1105" y="304.6582"/><rect fill="#FFFFFF" height="215.4063" style="stroke:#181818;stroke-width:1.0;" width="10" x="1264.5" y="713.4414"/><rect fill="#FFFFFF" height="64.291" style="stroke:#181818;stroke-width:1.0;" width="10" x="1269.5" y="841.2656"/><polygon fill="#181818" points="365,112.9121,375,116.9121,365,120.9121,369,116.9121" style="stroke:#181818;stroke-width:1.0;"/><line style="stroke:#181818;stroke-width:1.0;" x1="99" x2="371" y1="116.9121" y2="116.9121"/><text fill="#000000" font-family="sans-serif" font-size="13" font-weight="bold" lengthAdjust="spacing" textLength="7" x="106" y="111.6494">1</text><text fill="#000000" font-family="sans-serif" font-size="13" lengthAdjust="spacing" textLength="222" x="117" y="111.6494">asks to register a vehicle maintenance</text><polygon fill="#181818" points="673,144.2031,683,148.2031,673,152.2031,677,148.2031" style="stroke:#181818;stroke-width:1.0;"/><line style="stroke:#181818;stroke-width:1.0;" x1="387" x2="679" y1="148.2031" y2="148.2031"/><text fill="#000000" font-family="sans-serif" font-size="13" font-weight="bold" lengthAdjust="spacing" textLength="7" x="394" y="142.9404">2</text><text fill="#000000" font-family="sans-serif" font-size="13" lengthAdjust="spacing" textLength="90" x="405" y="142.9404">getVehicleList()</text><polygon fill="#181818" points="861.5,175.4941,871.5,179.4941,861.5,183.4941,865.5,179.4941" style="stroke:#181818;stroke-width:1.0;"/><line style="stroke:#181818;stroke-width:1.0;" x1="695" x2="867.5" y1="179.4941" y2="179.4941"/><text fill="#000000" font-family="sans-serif" font-size="13" font-weight="bold" lengthAdjust="spacing" textLength="7" x="702" y="174.2314">3</text><text fill="#000000" font-family="sans-serif" font-size="13" lengthAdjust="spacing" textLength="75" x="713" y="174.2314">getInstance()</text><polygon fill="#181818" points="706,206.7852,696,210.7852,706,214.7852,702,210.7852" style="stroke:#181818;stroke-width:1.0;"/><line style="stroke:#181818;stroke-width:1.0;" x1="700" x2="877.5" y1="210.7852" y2="210.7852"/><text fill="#000000" font-family="sans-serif" font-size="13" font-weight="bold" lengthAdjust="spacing" textLength="7" x="712" y="205.5225">4</text><text fill="#000000" font-family="sans-serif" font-size="13" lengthAdjust="spacing" textLength="67" x="723" y="205.5225">repositories</text><polygon fill="#181818" points="968.5,238.0762,978.5,242.0762,968.5,246.0762,972.5,242.0762" style="stroke:#181818;stroke-width:1.0;"/><line style="stroke:#181818;stroke-width:1.0;" x1="695" x2="974.5" y1="242.0762" y2="242.0762"/><text fill="#000000" font-family="sans-serif" font-size="13" font-weight="bold" lengthAdjust="spacing" textLength="7" x="702" y="236.8135">5</text><text fill="#000000" font-family="sans-serif" font-size="13" lengthAdjust="spacing" textLength="131" x="713" y="236.8135">getVehicleRepository()</text><polygon fill="#181818" points="706,269.3672,696,273.3672,706,277.3672,702,273.3672" style="stroke:#181818;stroke-width:1.0;"/><line style="stroke:#181818;stroke-width:1.0;" x1="700" x2="984.5" y1="273.3672" y2="273.3672"/><text fill="#000000" font-family="sans-serif" font-size="13" font-weight="bold" lengthAdjust="spacing" textLength="7" x="712" y="268.1045">6</text><text fill="#000000" font-family="sans-serif" font-size="13" lengthAdjust="spacing" textLength="101" x="723" y="268.1045">vehicleRepository</text><polygon fill="#181818" points="1093,300.6582,1103,304.6582,1093,308.6582,1097,304.6582" style="stroke:#181818;stroke-width:1.0;"/><line style="stroke:#181818;stroke-width:1.0;" x1="695" x2="1099" y1="304.6582" y2="304.6582"/><text fill="#000000" font-family="sans-serif" font-size="13" font-weight="bold" lengthAdjust="spacing" textLength="7" x="702" y="299.3955">7</text><text fill="#000000" font-family="sans-serif" font-size="13" lengthAdjust="spacing" textLength="90" x="713" y="299.3955">getVehicleList()</text><polygon fill="#181818" points="706,331.9492,696,335.9492,706,339.9492,702,335.9492" style="stroke:#181818;stroke-width:1.0;"/><line style="stroke:#181818;stroke-width:1.0;" x1="700" x2="1109" y1="335.9492" y2="335.9492"/><text fill="#000000" font-family="sans-serif" font-size="13" font-weight="bold" lengthAdjust="spacing" textLength="7" x="712" y="330.6865">8</text><text fill="#000000" font-family="sans-serif" font-size="13" lengthAdjust="spacing" textLength="60" x="723" y="330.6865">vehicleList</text><polygon fill="#181818" points="398,363.2402,388,367.2402,398,371.2402,394,367.2402" style="stroke:#181818;stroke-width:1.0;"/><line style="stroke:#181818;stroke-width:1.0;" x1="392" x2="689" y1="367.2402" y2="367.2402"/><text fill="#000000" font-family="sans-serif" font-size="13" font-weight="bold" lengthAdjust="spacing" textLength="7" x="404" y="361.9775">9</text><text fill="#000000" font-family="sans-serif" font-size="13" lengthAdjust="spacing" textLength="60" x="415" y="361.9775">vehicleList</text><path d="M10,382.2402 L83,382.2402 L83,391.5313 L73,401.5313 L10,401.5313 L10,382.2402 " fill="#EEEEEE" style="stroke:#000000;stroke-width:1.5;"/><rect fill="none" height="81.873" style="stroke:#000000;stroke-width:1.5;" width="487" x="10" y="382.2402"/><text fill="#000000" font-family="sans-serif" font-size="13" font-weight="bold" lengthAdjust="spacing" textLength="28" x="25" y="397.2686">loop</text><polygon fill="#181818" points="110,420.8223,100,424.8223,110,428.8223,106,424.8223" style="stroke:#181818;stroke-width:1.0;"/><line style="stroke:#181818;stroke-width:1.0;stroke-dasharray:2.0,2.0;" x1="104" x2="381" y1="424.8223" y2="424.8223"/><text fill="#000000" font-family="sans-serif" font-size="13" font-weight="bold" lengthAdjust="spacing" textLength="14" x="116" y="419.5596">10</text><text fill="#000000" font-family="sans-serif" font-size="13" lengthAdjust="spacing" textLength="183" x="134" y="419.5596">shows list of registered vehicles</text><polygon fill="#181818" points="365,452.1133,375,456.1133,365,460.1133,369,456.1133" style="stroke:#181818;stroke-width:1.0;"/><line style="stroke:#181818;stroke-width:1.0;" x1="99" x2="371" y1="456.1133" y2="456.1133"/><text fill="#000000" font-family="sans-serif" font-size="13" font-weight="bold" lengthAdjust="spacing" textLength="14" x="106" y="450.8506">11</text><text fill="#000000" font-family="sans-serif" font-size="13" lengthAdjust="spacing" textLength="188" x="124" y="450.8506">chooses vehicle for maintenance</text><polygon fill="#181818" points="110,490.4043,100,494.4043,110,498.4043,106,494.4043" style="stroke:#181818;stroke-width:1.0;"/><line style="stroke:#181818;stroke-width:1.0;stroke-dasharray:2.0,2.0;" x1="104" x2="381" y1="494.4043" y2="494.4043"/><text fill="#000000" font-family="sans-serif" font-size="13" font-weight="bold" lengthAdjust="spacing" textLength="14" x="116" y="489.1416">12</text><text fill="#000000" font-family="sans-serif" font-size="13" lengthAdjust="spacing" textLength="236" x="134" y="489.1416">shows all data and requests confirmation</text><polygon fill="#181818" points="365,521.6953,375,525.6953,365,529.6953,369,525.6953" style="stroke:#181818;stroke-width:1.0;"/><line style="stroke:#181818;stroke-width:1.0;" x1="99" x2="371" y1="525.6953" y2="525.6953"/><text fill="#000000" font-family="sans-serif" font-size="13" font-weight="bold" lengthAdjust="spacing" textLength="14" x="106" y="520.4326">13</text><text fill="#000000" font-family="sans-serif" font-size="13" lengthAdjust="spacing" textLength="78" x="124" y="520.4326">confirms data</text><polygon fill="#181818" points="673,552.9863,683,556.9863,673,560.9863,677,556.9863" style="stroke:#181818;stroke-width:1.0;"/><line style="stroke:#181818;stroke-width:1.0;" x1="387" x2="679" y1="556.9863" y2="556.9863"/><text fill="#000000" font-family="sans-serif" font-size="13" font-weight="bold" lengthAdjust="spacing" textLength="14" x="394" y="551.7236">14</text><text fill="#000000" font-family="sans-serif" font-size="13" lengthAdjust="spacing" textLength="261" x="412" y="551.7236">registerVehicleMaintenance(vehicleList, date)</text><polygon fill="#181818" points="861.5,584.2773,871.5,588.2773,861.5,592.2773,865.5,588.2773" style="stroke:#181818;stroke-width:1.0;"/><line style="stroke:#181818;stroke-width:1.0;" x1="695" x2="867.5" y1="588.2773" y2="588.2773"/><text fill="#000000" font-family="sans-serif" font-size="13" font-weight="bold" lengthAdjust="spacing" textLength="14" x="702" y="583.0146">15</text><text fill="#000000" font-family="sans-serif" font-size="13" lengthAdjust="spacing" textLength="75" x="720" y="583.0146">getInstance()</text><polygon fill="#181818" points="706,615.5684,696,619.5684,706,623.5684,702,619.5684" style="stroke:#181818;stroke-width:1.0;"/><line style="stroke:#181818;stroke-width:1.0;stroke-dasharray:2.0,2.0;" x1="700" x2="877.5" y1="619.5684" y2="619.5684"/><text fill="#000000" font-family="sans-serif" font-size="13" font-weight="bold" lengthAdjust="spacing" textLength="14" x="712" y="614.3057">16</text><text fill="#000000" font-family="sans-serif" font-size="13" lengthAdjust="spacing" textLength="67" x="730" y="614.3057">repositories</text><polygon fill="#181818" points="968.5,646.8594,978.5,650.8594,968.5,654.8594,972.5,650.8594" style="stroke:#181818;stroke-width:1.0;"/><line style="stroke:#181818;stroke-width:1.0;" x1="695" x2="974.5" y1="650.8594" y2="650.8594"/><text fill="#000000" font-family="sans-serif" font-size="13" font-weight="bold" lengthAdjust="spacing" textLength="14" x="702" y="645.5967">17</text><text fill="#000000" font-family="sans-serif" font-size="13" lengthAdjust="spacing" textLength="179" x="720" y="645.5967">getRegisterVehicleRepository()</text><polygon fill="#181818" points="706,678.1504,696,682.1504,706,686.1504,702,682.1504" style="stroke:#181818;stroke-width:1.0;"/><line style="stroke:#181818;stroke-width:1.0;stroke-dasharray:2.0,2.0;" x1="700" x2="984.5" y1="682.1504" y2="682.1504"/><text fill="#000000" font-family="sans-serif" font-size="13" font-weight="bold" lengthAdjust="spacing" textLength="14" x="712" y="676.8877">18</text><text fill="#000000" font-family="sans-serif" font-size="13" lengthAdjust="spacing" textLength="148" x="730" y="676.8877">registerVehicleRepository</text><polygon fill="#181818" points="1252.5,709.4414,1262.5,713.4414,1252.5,717.4414,1256.5,713.4414" style="stroke:#181818;stroke-width:1.0;"/><line style="stroke:#181818;stroke-width:1.0;" x1="695" x2="1258.5" y1="713.4414" y2="713.4414"/><text fill="#000000" font-family="sans-serif" font-size="13" font-weight="bold" lengthAdjust="spacing" textLength="14" x="702" y="708.1787">19</text><text fill="#000000" font-family="sans-serif" font-size="13" lengthAdjust="spacing" textLength="261" x="720" y="708.1787">registerVehicleMaintenance(vehicleList, date)</text><polygon fill="#181818" points="1458.5,740.7324,1468.5,744.7324,1458.5,748.7324,1462.5,744.7324" style="stroke:#181818;stroke-width:1.0;"/><line style="stroke:#181818;stroke-width:1.0;" x1="1274.5" x2="1464.5" y1="744.7324" y2="744.7324"/><text fill="#000000" font-family="sans-serif" font-size="13" font-weight="bold" lengthAdjust="spacing" textLength="14" x="1281.5" y="739.4697">20</text><text fill="#000000" font-family="sans-serif" font-size="13" lengthAdjust="spacing" textLength="154" x="1299.5" y="739.4697">Maintenance(vehicle, date)</text><rect fill="#E3E3E3" height="51.2422" rx="2.5" ry="2.5" style="stroke:#181818;stroke-width:0.5;" width="99" x="1470.5" y="721.4414"/><text fill="#000000" font-family="sans-serif" font-size="14" lengthAdjust="spacing" textLength="81" x="1479.5" y="743.5488">maintenance</text><text fill="#000000" font-family="sans-serif" font-size="14" lengthAdjust="spacing" textLength="85" x="1477.5" y="762.1699">:Maintenance</text><path d="M1176,790.6836 L1249,790.6836 L1249,799.9746 L1239,809.9746 L1176,809.9746 L1176,790.6836 " fill="#EEEEEE" style="stroke:#000000;stroke-width:1.5;"/><rect fill="none" height="107.873" style="stroke:#000000;stroke-width:1.5;" width="273.5" x="1176" y="790.6836"/><text fill="#000000" font-family="sans-serif" font-size="13" font-weight="bold" lengthAdjust="spacing" textLength="28" x="1191" y="805.7119">loop</text><line style="stroke:#181818;stroke-width:1.0;" x1="1274.5" x2="1321.5" y1="828.2656" y2="828.2656"/><line style="stroke:#181818;stroke-width:1.0;" x1="1321.5" x2="1321.5" y1="828.2656" y2="841.2656"/><line style="stroke:#181818;stroke-width:1.0;" x1="1280.5" x2="1321.5" y1="841.2656" y2="841.2656"/><polygon fill="#181818" points="1290.5,837.2656,1280.5,841.2656,1290.5,845.2656,1286.5,841.2656" style="stroke:#181818;stroke-width:1.0;"/><text fill="#000000" font-family="sans-serif" font-size="13" font-weight="bold" lengthAdjust="spacing" textLength="14" x="1286.5" y="823.0029">21</text><text fill="#000000" font-family="sans-serif" font-size="13" lengthAdjust="spacing" textLength="115" x="1304.5" y="823.0029">addVehicle (vehicle)</text><line style="stroke:#181818;stroke-width:1.0;" x1="1279.5" x2="1321.5" y1="877.5566" y2="877.5566"/><line style="stroke:#181818;stroke-width:1.0;" x1="1321.5" x2="1321.5" y1="877.5566" y2="890.5566"/><line style="stroke:#181818;stroke-width:1.0;" x1="1280.5" x2="1321.5" y1="890.5566" y2="890.5566"/><polygon fill="#181818" points="1290.5,886.5566,1280.5,890.5566,1290.5,894.5566,1286.5,890.5566" style="stroke:#181818;stroke-width:1.0;"/><text fill="#000000" font-family="sans-serif" font-size="13" font-weight="bold" lengthAdjust="spacing" textLength="14" x="1286.5" y="872.2939">22</text><text fill="#000000" font-family="sans-serif" font-size="13" lengthAdjust="spacing" textLength="133" x="1304.5" y="872.2939">validateVehicle(vehicle)</text><polygon fill="#181818" points="706,924.8477,696,928.8477,706,932.8477,702,928.8477" style="stroke:#181818;stroke-width:1.0;"/><line style="stroke:#181818;stroke-width:1.0;stroke-dasharray:2.0,2.0;" x1="700" x2="1268.5" y1="928.8477" y2="928.8477"/><text fill="#000000" font-family="sans-serif" font-size="13" font-weight="bold" lengthAdjust="spacing" textLength="14" x="712" y="923.585">23</text><text fill="#000000" font-family="sans-serif" font-size="13" lengthAdjust="spacing" textLength="74" x="730" y="923.585">maintenance</text><polygon fill="#181818" points="398,956.1387,388,960.1387,398,964.1387,394,960.1387" style="stroke:#181818;stroke-width:1.0;"/><line style="stroke:#181818;stroke-width:1.0;stroke-dasharray:2.0,2.0;" x1="392" x2="689" y1="960.1387" y2="960.1387"/><text fill="#000000" font-family="sans-serif" font-size="13" font-weight="bold" lengthAdjust="spacing" textLength="14" x="404" y="954.876">24</text><text fill="#000000" font-family="sans-serif" font-size="13" lengthAdjust="spacing" textLength="74" x="422" y="954.876">maintenance</text><polygon fill="#181818" points="105,987.4297,95,991.4297,105,995.4297,101,991.4297" style="stroke:#181818;stroke-width:1.0;"/><line style="stroke:#181818;stroke-width:1.0;stroke-dasharray:2.0,2.0;" x1="99" x2="381" y1="991.4297" y2="991.4297"/><text fill="#000000" font-family="sans-serif" font-size="13" font-weight="bold" lengthAdjust="spacing" textLength="14" x="111" y="986.167">25</text><text fill="#000000" font-family="sans-serif" font-size="13" lengthAdjust="spacing" textLength="158" x="129" y="986.167">displays operation success</text><!--SRC=[fLPDZzem4BtdLuouTBjg_m27IeXI2OcW5SjowiMR360HxDGsRFdtjPrFnpQaRIu8s-_D6y_CI-I9if88SeOpPpmx2dv6KEA2YMntIfATo05VrQr049WfmWv5_u0yafn_K7Q0FIaa9WcvACukvtSKIVBfI7E4FUVgdVzEIAQuWCaEZpJJR3yAH0KfOPfVJ818c7rF4ysgQ4PBmXHCfXiyKAbGr9YKKAQG4PRXsz92tfQZ4NFEbE15KGURRpSh3rjoIRL8YjAUQHTkhzJahJDp8QA7-CbyWfVLREiYhfMkZbd3TiCrYzrj5YykjfUCWm-kMuxKupXtPrraTNwsN6yNwzbwlaXClUYLABHrIQ1-z1_u-arVF4mruYH1STqOrQK3WJe_wCNfi2sZBbkxg9aqdoc7PZoWgczZfHcVFhUd7BYjdRDbuPecKB6ATScaCc9YbA5IEoVD4sBljFURmO7cU3TCA0_JECvrTC1O1hRNd2rBqkdpMYycqcTgP9cU75qbsy3EbeLxWWn7J8hFqKYn3JY2mU-LWlFIMJ0Tg1bDPq-reV4F2OLc1BvlEnlp9bQqjFsU7WvATkHSecodOw-Di3yXmVlJXFrrPFaZrQGe82UA066vblxhWb99o3ZRKt4cYWwQpHKVrLx1fMKUfTIPQ14rvATUzRuOTXmzxlypydy_zj7HhxEyC_eZnZ-QMES1WvTQr0iU-87h2ptn4VPxcOJP6-bfvHF_NdidazGp0VEajPdqtbdFprC816a2U1IU4pYy-bU_ulAy-M1fw0940wsXIn_mNab1ZQgQlEFsSCEv7rOY7j4Btarbp7mUnGbviJMAEENGYyCUDeMSoh8WDmcyH67D2kGbor1M4pLmsjvVytdo1m00]--></g></svg>