<?xml version="1.0" encoding="us-ascii" standalone="no"?><svg xmlns="http://www.w3.org/2000/svg" xmlns:xlink="http://www.w3.org/1999/xlink" contentStyleType="text/css" height="849px" preserveAspectRatio="none" style="width:1191px;height:849px;background:#FFFFFF;" version="1.1" viewBox="0 0 1191 849" width="1191px" zoomAndPan="magnify"><defs/><g><rect fill="#FFFFFF" height="654.373" style="stroke:#181818;stroke-width:1.0;" width="10" x="89" y="93.6211"/><rect fill="#FFFFFF" height="184.377" style="stroke:#181818;stroke-width:1.0;" width="10" x="370" y="116.9121"/><rect fill="#FFFFFF" height="38.291" style="stroke:#181818;stroke-width:1.0;" width="10" x="370" y="332.5801"/><rect fill="#FFFFFF" height="345.832" style="stroke:#181818;stroke-width:1.0;" width="10" x="370" y="402.1621"/><rect fill="#FFFFFF" height="95.5039" style="stroke:#181818;stroke-width:1.0;" width="10" x="638" y="148.2031"/><rect fill="#FFFFFF" height="283.25" style="stroke:#181818;stroke-width:1.0;" width="10" x="638" y="433.4531"/><rect fill="#FFFFFF" height="31.291" style="stroke:#181818;stroke-width:1.0;" width="10" x="826.5" y="464.7441"/><rect fill="#FFFFFF" height="31.291" style="stroke:#181818;stroke-width:1.0;" width="10" x="933.5" y="527.3262"/><rect fill="#FFFFFF" height="95.5039" style="stroke:#181818;stroke-width:1.0;" width="10" x="1084.5" y="589.9082"/><rect fill="none" height="81.873" style="stroke:#000000;stroke-width:1.5;" width="480" x="10" y="258.707"/><line style="stroke:#181818;stroke-width:0.5;stroke-dasharray:5.0,5.0;" x1="94" x2="94" y1="83.6211" y2="765.9941"/><line style="stroke:#181818;stroke-width:0.5;stroke-dasharray:5.0,5.0;" x1="375" x2="375" y1="83.6211" y2="765.9941"/><line style="stroke:#181818;stroke-width:0.5;stroke-dasharray:5.0,5.0;" x1="643" x2="643" y1="83.6211" y2="765.9941"/><line style="stroke:#181818;stroke-width:0.5;stroke-dasharray:5.0,5.0;" x1="831" x2="831" y1="83.6211" y2="765.9941"/><line style="stroke:#181818;stroke-width:0.5;stroke-dasharray:5.0,5.0;" x1="938" x2="938" y1="83.6211" y2="765.9941"/><line style="stroke:#181818;stroke-width:0.5;stroke-dasharray:5.0,5.0;" x1="1089" x2="1089" y1="83.6211" y2="765.9941"/><text fill="#000000" font-family="sans-serif" font-size="14" lengthAdjust="spacing" textLength="142" x="20" y="80.1074">Vehicle Fleet Manager</text><ellipse cx="94" cy="13.5" fill="#E3E3E3" rx="8" ry="8" style="stroke:#181818;stroke-width:0.5;"/><path d="M94,21.5 L94,48.5 M81,29.5 L107,29.5 M94,48.5 L81,63.5 M94,48.5 L107,63.5 " fill="none" style="stroke:#181818;stroke-width:0.5;"/><text fill="#000000" font-family="sans-serif" font-size="14" lengthAdjust="spacing" textLength="142" x="20" y="780.1016">Vehicle Fleet Manager</text><ellipse cx="94" cy="792.1152" fill="#E3E3E3" rx="8" ry="8" style="stroke:#181818;stroke-width:0.5;"/><path d="M94,800.1152 L94,827.1152 M81,808.1152 L107,808.1152 M94,827.1152 L81,842.1152 M94,827.1152 L107,842.1152 " fill="none" style="stroke:#181818;stroke-width:0.5;"/><rect fill="#E3E3E3" height="32.6211" rx="2.5" ry="2.5" style="stroke:#181818;stroke-width:0.5;" width="210" x="270" y="50"/><text fill="#000000" font-family="sans-serif" font-size="14" lengthAdjust="spacing" textLength="196" x="277" y="72.1074">:RegisterVehicleMaintenanceUI</text><rect fill="#E3E3E3" height="32.6211" rx="2.5" ry="2.5" style="stroke:#181818;stroke-width:0.5;" width="210" x="270" y="764.9941"/><text fill="#000000" font-family="sans-serif" font-size="14" lengthAdjust="spacing" textLength="196" x="277" y="787.1016">:RegisterVehicleMaintenanceUI</text><rect fill="#E3E3E3" height="32.6211" rx="2.5" ry="2.5" style="stroke:#181818;stroke-width:0.5;" width="260" x="513" y="50"/><text fill="#000000" font-family="sans-serif" font-size="14" lengthAdjust="spacing" textLength="246" x="520" y="72.1074">:RegisterVehicleMaintenanceController</text><rect fill="#E3E3E3" height="32.6211" rx="2.5" ry="2.5" style="stroke:#181818;stroke-width:0.5;" width="260" x="513" y="764.9941"/><text fill="#000000" font-family="sans-serif" font-size="14" lengthAdjust="spacing" textLength="246" x="520" y="787.1016">:RegisterVehicleMaintenanceController</text><rect fill="#E3E3E3" height="32.6211" rx="2.5" ry="2.5" style="stroke:#181818;stroke-width:0.5;" width="97" x="783" y="50"/><text fill="#000000" font-family="sans-serif" font-size="14" lengthAdjust="spacing" textLength="83" x="790" y="72.1074">:Repositories</text><rect fill="#E3E3E3" height="32.6211" rx="2.5" ry="2.5" style="stroke:#181818;stroke-width:0.5;" width="97" x="783" y="764.9941"/><text fill="#000000" font-family="sans-serif" font-size="14" lengthAdjust="spacing" textLength="83" x="790" y="787.1016">:Repositories</text><rect fill="#E3E3E3" height="51.2422" rx="2.5" ry="2.5" style="stroke:#181818;stroke-width:0.5;" width="97" x="890" y="31.3789"/><text fill="#000000" font-family="sans-serif" font-size="14" lengthAdjust="spacing" textLength="74" x="901.5" y="53.4863">repositories</text><text fill="#000000" font-family="sans-serif" font-size="14" lengthAdjust="spacing" textLength="83" x="897" y="72.1074">:Repositories</text><rect fill="#E3E3E3" height="51.2422" rx="2.5" ry="2.5" style="stroke:#181818;stroke-width:0.5;" width="97" x="890" y="764.9941"/><text fill="#000000" font-family="sans-serif" font-size="14" lengthAdjust="spacing" textLength="74" x="901.5" y="787.1016">repositories</text><text fill="#000000" font-family="sans-serif" font-size="14" lengthAdjust="spacing" textLength="83" x="897" y="805.7227">:Repositories</text><rect fill="#E3E3E3" height="51.2422" rx="2.5" ry="2.5" style="stroke:#181818;stroke-width:0.5;" width="185" x="997" y="31.3789"/><text fill="#000000" font-family="sans-serif" font-size="14" lengthAdjust="spacing" textLength="162" x="1008.5" y="53.4863">registerVehicleRepository</text><text fill="#000000" font-family="sans-serif" font-size="14" lengthAdjust="spacing" textLength="171" x="1004" y="72.1074">:RegisterVehicleRepository</text><rect fill="#E3E3E3" height="51.2422" rx="2.5" ry="2.5" style="stroke:#181818;stroke-width:0.5;" width="185" x="997" y="764.9941"/><text fill="#000000" font-family="sans-serif" font-size="14" lengthAdjust="spacing" textLength="162" x="1008.5" y="787.1016">registerVehicleRepository</text><text fill="#000000" font-family="sans-serif" font-size="14" lengthAdjust="spacing" textLength="171" x="1004" y="805.7227">:RegisterVehicleRepository</text><rect fill="#FFFFFF" height="654.373" style="stroke:#181818;stroke-width:1.0;" width="10" x="89" y="93.6211"/><rect fill="#FFFFFF" height="184.377" style="stroke:#181818;stroke-width:1.0;" width="10" x="370" y="116.9121"/><rect fill="#FFFFFF" height="38.291" style="stroke:#181818;stroke-width:1.0;" width="10" x="370" y="332.5801"/><rect fill="#FFFFFF" height="345.832" style="stroke:#181818;stroke-width:1.0;" width="10" x="370" y="402.1621"/><rect fill="#FFFFFF" height="95.5039" style="stroke:#181818;stroke-width:1.0;" width="10" x="638" y="148.2031"/><rect fill="#FFFFFF" height="283.25" style="stroke:#181818;stroke-width:1.0;" width="10" x="638" y="433.4531"/><rect fill="#FFFFFF" height="31.291" style="stroke:#181818;stroke-width:1.0;" width="10" x="826.5" y="464.7441"/><rect fill="#FFFFFF" height="31.291" style="stroke:#181818;stroke-width:1.0;" width="10" x="933.5" y="527.3262"/><rect fill="#FFFFFF" height="95.5039" style="stroke:#181818;stroke-width:1.0;" width="10" x="1084.5" y="589.9082"/><polygon fill="#181818" points="358,112.9121,368,116.9121,358,120.9121,362,116.9121" style="stroke:#181818;stroke-width:1.0;"/><line style="stroke:#181818;stroke-width:1.0;" x1="99" x2="364" y1="116.9121" y2="116.9121"/><text fill="#000000" font-family="sans-serif" font-size="13" font-weight="bold" lengthAdjust="spacing" textLength="7" x="106" y="111.6494">1</text><text fill="#000000" font-family="sans-serif" font-size="13" lengthAdjust="spacing" textLength="222" x="117" y="111.6494">asks to register a vehicle maintenance</text><polygon fill="#181818" points="626,144.2031,636,148.2031,626,152.2031,630,148.2031" style="stroke:#181818;stroke-width:1.0;"/><line style="stroke:#181818;stroke-width:1.0;" x1="380" x2="632" y1="148.2031" y2="148.2031"/><text fill="#000000" font-family="sans-serif" font-size="13" font-weight="bold" lengthAdjust="spacing" textLength="7" x="387" y="142.9404">2</text><text fill="#000000" font-family="sans-serif" font-size="13" lengthAdjust="spacing" textLength="90" x="398" y="142.9404">getVehicleList()</text><rect fill="none" height="59.2129" style="stroke:#000000;stroke-width:1.5;" width="266" x="510" y="156.2031"/><path d="M510,156.2031 L572,156.2031 L572,165.2031 L562,175.2031 L510,175.2031 L510,156.2031 " fill="#EEEEEE" style="stroke:#000000;stroke-width:2.0;"/><text fill="#000000" font-family="sans-serif" font-size="13" font-weight="bold" lengthAdjust="spacing" textLength="17" x="523" y="172.2314">ref</text><text fill="#000000" font-family="sans-serif" font-size="12" lengthAdjust="spacing" textLength="156" x="565" y="192.1523">Get Registered Vehicles List</text><text fill="#000000" font-family="sans-serif" font-size="12" lengthAdjust="spacing" textLength="3" x="641.5" y="208.1133">&#160;</text><polygon fill="#181818" points="391,239.707,381,243.707,391,247.707,387,243.707" style="stroke:#181818;stroke-width:1.0;"/><line style="stroke:#181818;stroke-width:1.0;" x1="385" x2="642" y1="243.707" y2="243.707"/><text fill="#000000" font-family="sans-serif" font-size="13" font-weight="bold" lengthAdjust="spacing" textLength="7" x="397" y="238.4443">3</text><text fill="#000000" font-family="sans-serif" font-size="13" lengthAdjust="spacing" textLength="60" x="408" y="238.4443">vehicleList</text><path d="M10,258.707 L83,258.707 L83,267.998 L73,277.998 L10,277.998 L10,258.707 " fill="#EEEEEE" style="stroke:#000000;stroke-width:1.5;"/><rect fill="none" height="81.873" style="stroke:#000000;stroke-width:1.5;" width="480" x="10" y="258.707"/><text fill="#000000" font-family="sans-serif" font-size="13" font-weight="bold" lengthAdjust="spacing" textLength="28" x="25" y="273.7354">loop</text><polygon fill="#181818" points="110,297.2891,100,301.2891,110,305.2891,106,301.2891" style="stroke:#181818;stroke-width:1.0;"/><line style="stroke:#181818;stroke-width:1.0;stroke-dasharray:2.0,2.0;" x1="104" x2="374" y1="301.2891" y2="301.2891"/><text fill="#000000" font-family="sans-serif" font-size="13" font-weight="bold" lengthAdjust="spacing" textLength="7" x="116" y="296.0264">4</text><text fill="#000000" font-family="sans-serif" font-size="13" lengthAdjust="spacing" textLength="183" x="127" y="296.0264">shows list of registered vehicles</text><polygon fill="#181818" points="358,328.5801,368,332.5801,358,336.5801,362,332.5801" style="stroke:#181818;stroke-width:1.0;"/><line style="stroke:#181818;stroke-width:1.0;" x1="99" x2="364" y1="332.5801" y2="332.5801"/><text fill="#000000" font-family="sans-serif" font-size="13" font-weight="bold" lengthAdjust="spacing" textLength="7" x="106" y="327.3174">5</text><text fill="#000000" font-family="sans-serif" font-size="13" lengthAdjust="spacing" textLength="188" x="117" y="327.3174">chooses vehicle for maintenance</text><polygon fill="#181818" points="110,366.8711,100,370.8711,110,374.8711,106,370.8711" style="stroke:#181818;stroke-width:1.0;"/><line style="stroke:#181818;stroke-width:1.0;stroke-dasharray:2.0,2.0;" x1="104" x2="374" y1="370.8711" y2="370.8711"/><text fill="#000000" font-family="sans-serif" font-size="13" font-weight="bold" lengthAdjust="spacing" textLength="7" x="116" y="365.6084">6</text><text fill="#000000" font-family="sans-serif" font-size="13" lengthAdjust="spacing" textLength="236" x="127" y="365.6084">shows all data and requests confirmation</text><polygon fill="#181818" points="358,398.1621,368,402.1621,358,406.1621,362,402.1621" style="stroke:#181818;stroke-width:1.0;"/><line style="stroke:#181818;stroke-width:1.0;" x1="99" x2="364" y1="402.1621" y2="402.1621"/><text fill="#000000" font-family="sans-serif" font-size="13" font-weight="bold" lengthAdjust="spacing" textLength="7" x="106" y="396.8994">7</text><text fill="#000000" font-family="sans-serif" font-size="13" lengthAdjust="spacing" textLength="78" x="117" y="396.8994">confirms data</text><polygon fill="#181818" points="626,429.4531,636,433.4531,626,437.4531,630,433.4531" style="stroke:#181818;stroke-width:1.0;"/><line style="stroke:#181818;stroke-width:1.0;" x1="380" x2="632" y1="433.4531" y2="433.4531"/><text fill="#000000" font-family="sans-serif" font-size="13" font-weight="bold" lengthAdjust="spacing" textLength="7" x="387" y="428.1904">8</text><text fill="#000000" font-family="sans-serif" font-size="13" lengthAdjust="spacing" textLength="228" x="398" y="428.1904">registerVehicleMaintenance(vehicleList)</text><polygon fill="#181818" points="814.5,460.7441,824.5,464.7441,814.5,468.7441,818.5,464.7441" style="stroke:#181818;stroke-width:1.0;"/><line style="stroke:#181818;stroke-width:1.0;" x1="648" x2="820.5" y1="464.7441" y2="464.7441"/><text fill="#000000" font-family="sans-serif" font-size="13" font-weight="bold" lengthAdjust="spacing" textLength="7" x="655" y="459.4814">9</text><text fill="#000000" font-family="sans-serif" font-size="13" lengthAdjust="spacing" textLength="75" x="666" y="459.4814">getInstance()</text><polygon fill="#181818" points="659,492.0352,649,496.0352,659,500.0352,655,496.0352" style="stroke:#181818;stroke-width:1.0;"/><line style="stroke:#181818;stroke-width:1.0;stroke-dasharray:2.0,2.0;" x1="653" x2="830.5" y1="496.0352" y2="496.0352"/><text fill="#000000" font-family="sans-serif" font-size="13" font-weight="bold" lengthAdjust="spacing" textLength="14" x="665" y="490.7725">10</text><text fill="#000000" font-family="sans-serif" font-size="13" lengthAdjust="spacing" textLength="67" x="683" y="490.7725">repositories</text><polygon fill="#181818" points="921.5,523.3262,931.5,527.3262,921.5,531.3262,925.5,527.3262" style="stroke:#181818;stroke-width:1.0;"/><line style="stroke:#181818;stroke-width:1.0;" x1="648" x2="927.5" y1="527.3262" y2="527.3262"/><text fill="#000000" font-family="sans-serif" font-size="13" font-weight="bold" lengthAdjust="spacing" textLength="14" x="655" y="522.0635">11</text><text fill="#000000" font-family="sans-serif" font-size="13" lengthAdjust="spacing" textLength="179" x="673" y="522.0635">getRegisterVehicleRepository()</text><polygon fill="#181818" points="659,554.6172,649,558.6172,659,562.6172,655,558.6172" style="stroke:#181818;stroke-width:1.0;"/><line style="stroke:#181818;stroke-width:1.0;stroke-dasharray:2.0,2.0;" x1="653" x2="937.5" y1="558.6172" y2="558.6172"/><text fill="#000000" font-family="sans-serif" font-size="13" font-weight="bold" lengthAdjust="spacing" textLength="14" x="665" y="553.3545">12</text><text fill="#000000" font-family="sans-serif" font-size="13" lengthAdjust="spacing" textLength="148" x="683" y="553.3545">registerVehicleRepository</text><polygon fill="#181818" points="1072.5,585.9082,1082.5,589.9082,1072.5,593.9082,1076.5,589.9082" style="stroke:#181818;stroke-width:1.0;"/><line style="stroke:#181818;stroke-width:1.0;" x1="648" x2="1078.5" y1="589.9082" y2="589.9082"/><text fill="#000000" font-family="sans-serif" font-size="13" font-weight="bold" lengthAdjust="spacing" textLength="14" x="655" y="584.6455">13</text><text fill="#000000" font-family="sans-serif" font-size="13" lengthAdjust="spacing" textLength="228" x="673" y="584.6455">registerVehicleMaintenance(vehicleList)</text><rect fill="none" height="59.2129" style="stroke:#000000;stroke-width:1.5;" width="191" x="994" y="597.9082"/><path d="M994,597.9082 L1056,597.9082 L1056,606.9082 L1046,616.9082 L994,616.9082 L994,597.9082 " fill="#EEEEEE" style="stroke:#000000;stroke-width:2.0;"/><text fill="#000000" font-family="sans-serif" font-size="13" font-weight="bold" lengthAdjust="spacing" textLength="17" x="1007" y="613.9365">ref</text><text fill="#000000" font-family="sans-serif" font-size="12" lengthAdjust="spacing" textLength="163" x="1008" y="633.8574">Register Vehicle Maintenance</text><text fill="#000000" font-family="sans-serif" font-size="12" lengthAdjust="spacing" textLength="3" x="1088" y="649.8184">&#160;</text><polygon fill="#181818" points="659,681.4121,649,685.4121,659,689.4121,655,685.4121" style="stroke:#181818;stroke-width:1.0;"/><line style="stroke:#181818;stroke-width:1.0;" x1="653" x2="1088.5" y1="685.4121" y2="685.4121"/><text fill="#000000" font-family="sans-serif" font-size="13" font-weight="bold" lengthAdjust="spacing" textLength="14" x="665" y="680.1494">14</text><text fill="#000000" font-family="sans-serif" font-size="13" lengthAdjust="spacing" textLength="74" x="683" y="680.1494">maintenance</text><polygon fill="#181818" points="391,712.7031,381,716.7031,391,720.7031,387,716.7031" style="stroke:#181818;stroke-width:1.0;"/><line style="stroke:#181818;stroke-width:1.0;stroke-dasharray:2.0,2.0;" x1="385" x2="642" y1="716.7031" y2="716.7031"/><text fill="#000000" font-family="sans-serif" font-size="13" font-weight="bold" lengthAdjust="spacing" textLength="14" x="397" y="711.4404">15</text><text fill="#000000" font-family="sans-serif" font-size="13" lengthAdjust="spacing" textLength="74" x="415" y="711.4404">maintenance</text><polygon fill="#181818" points="105,743.9941,95,747.9941,105,751.9941,101,747.9941" style="stroke:#181818;stroke-width:1.0;"/><line style="stroke:#181818;stroke-width:1.0;stroke-dasharray:2.0,2.0;" x1="99" x2="374" y1="747.9941" y2="747.9941"/><text fill="#000000" font-family="sans-serif" font-size="13" font-weight="bold" lengthAdjust="spacing" textLength="14" x="111" y="742.7314">16</text><text fill="#000000" font-family="sans-serif" font-size="13" lengthAdjust="spacing" textLength="158" x="129" y="742.7314">displays operation success</text><!--SRC=[fLNBRjim4BppAnQ-93xa1tm84AHeOS062YVfgHU6Mjc49L8bQQV- -ovfwa5RafMKDudScTtPvT3kfQguuIMKMccnCxf4SEQ0p3Ox5HTxliKNToeG30h7rRRe7h0xdkaFgRQGyy8YO_pWj3gKxsWOkzl9327NshthlumBfmtCVk5E2aBxNY0wM7D5-6O6tCBJjpKZL2U5hBXoC5jiS2kjGnDZrbmgXuehWM_B4FAsd1pnh9KpkYWYsVFhPdKLMsahAKc9DfnfVfnUfA-RAaj3J2VYjxe6-BbwUhsCIF9h6KBum5vCPc2NUMNbaJiC2ZA8YpxWuP4aWWN5xoqu3JKzS3Z6FfIjH6riWqW2r_y8YE2yRWIuHHSJMH7W_RmvbKG7aRix1dFGH-A_sl7h1mr4NIPc40aiU0gMd4QLUQpaNyYiBlZO9fSSoZ1DBjaijAwI7xvaGlHABcZKzOU5WX11vusIb6VaiaD4f66orMsCs6bjgSIw6pbTaMv7UcNjD2MASIjhNXIGSSU11-7-7D0w2qAhN9gIEqc3FPpyOExdS1kG9sMQZ90PlAhtdUxDsSXeNKrGtppqtEBp02-LTO5kFehJKFRPmMYaNtti3r44hq7h6ADGdOvyEerQ2Ez6vye7lMIg5C7ORjOU2Bl53ZdOnCflixOz7w3wnDnDd8b1LnwBRtnmyoLDpeCLhRn-KDTzHjwtQlDaa_2l9MolS3cLCXdV_vo24SbxteDWLej1Jxry3_fzT06Pj5N1JnPqXIOO9jY346ZFr_R2xJkV_ad-1m00]--></g></svg>