<?xml version="1.0" encoding="us-ascii" standalone="no"?><svg xmlns="http://www.w3.org/2000/svg" xmlns:xlink="http://www.w3.org/1999/xlink" contentStyleType="text/css" height="420px" preserveAspectRatio="none" style="width:637px;height:420px;background:#FFFFFF;" version="1.1" viewBox="0 0 637 420" width="637px" zoomAndPan="magnify"><defs/><g><rect fill="#FFFFFF" height="229.4844" style="stroke:#181818;stroke-width:1.0;" width="10" x="267" y="130.2188"/><rect fill="#FFFFFF" height="92.6211" style="stroke:#181818;stroke-width:1.0;" width="10" x="272" y="267.082"/><rect fill="#FFFFFF" height="41.3105" style="stroke:#181818;stroke-width:1.0;" width="10" x="277" y="309.3926"/><rect fill="none" height="177.1738" style="stroke:#000000;stroke-width:1.5;" width="439" x="192" y="145.2188"/><line style="stroke:#181818;stroke-width:0.5;stroke-dasharray:5.0,5.0;" x1="272" x2="272" y1="52.9766" y2="368.7031"/><line style="stroke:#181818;stroke-width:0.5;stroke-dasharray:5.0,5.0;" x1="587" x2="587" y1="210.1504" y2="368.7031"/><rect fill="#E3E3E3" height="46.9766" rx="2.5" ry="2.5" style="stroke:#181818;stroke-width:0.5;" width="140" x="202" y="5"/><text fill="#000000" font-family="sans-serif" font-size="14" lengthAdjust="spacing" textLength="120" x="212" y="25.5352">vehicleRepository</text><text fill="#000000" font-family="sans-serif" font-size="14" lengthAdjust="spacing" textLength="126" x="209" y="42.0234">:VehicleRepository</text><rect fill="#E3E3E3" height="46.9766" rx="2.5" ry="2.5" style="stroke:#181818;stroke-width:0.5;" width="140" x="202" y="367.7031"/><text fill="#000000" font-family="sans-serif" font-size="14" lengthAdjust="spacing" textLength="120" x="212" y="388.2383">vehicleRepository</text><text fill="#000000" font-family="sans-serif" font-size="14" lengthAdjust="spacing" textLength="126" x="209" y="404.7266">:VehicleRepository</text><rect fill="#E3E3E3" height="46.9766" rx="2.5" ry="2.5" style="stroke:#181818;stroke-width:0.5;" width="67" x="554" y="367.7031"/><text fill="#000000" font-family="sans-serif" font-size="14" lengthAdjust="spacing" textLength="47" x="564" y="388.2383">vehicle</text><text fill="#000000" font-family="sans-serif" font-size="14" lengthAdjust="spacing" textLength="53" x="561" y="404.7266">:Vehicle</text><rect fill="#FFFFFF" height="229.4844" style="stroke:#181818;stroke-width:1.0;" width="10" x="267" y="130.2188"/><rect fill="#FFFFFF" height="92.6211" style="stroke:#181818;stroke-width:1.0;" width="10" x="272" y="267.082"/><rect fill="#FFFFFF" height="41.3105" style="stroke:#181818;stroke-width:1.0;" width="10" x="277" y="309.3926"/><polygon fill="#181818" points="255,126.2188,265,130.2188,255,134.2188,259,130.2188" style="stroke:#181818;stroke-width:1.0;"/><line style="stroke:#181818;stroke-width:1.0;" x1="0" x2="261" y1="130.2188" y2="130.2188"/><text fill="#000000" font-family="sans-serif" font-size="13" font-weight="bold" lengthAdjust="spacing" textLength="18" x="7" y="102.5107">11</text><text fill="#000000" font-family="sans-serif" font-size="13" lengthAdjust="spacing" textLength="226" x="29" y="79.5449">registerVehicle(plateNumber, brand,</text><text fill="#000000" font-family="sans-serif" font-size="13" lengthAdjust="spacing" textLength="196" x="33" y="94.8555">model, type, tare, grossWeight,</text><text fill="#000000" font-family="sans-serif" font-size="13" lengthAdjust="spacing" textLength="182" x="33" y="110.166">currentKms,registrationDate,</text><text fill="#000000" font-family="sans-serif" font-size="13" lengthAdjust="spacing" textLength="219" x="29" y="125.4766">acquisitionDate, serviceFrequency)</text><path d="M192,145.2188 L346,145.2188 L346,152.5293 L336,162.5293 L192,162.5293 L192,145.2188 " fill="#EEEEEE" style="stroke:#000000;stroke-width:1.5;"/><rect fill="none" height="177.1738" style="stroke:#000000;stroke-width:1.5;" width="439" x="192" y="145.2188"/><text fill="#000000" font-family="sans-serif" font-size="13" font-weight="bold" lengthAdjust="spacing" textLength="109" x="207" y="158.7871">Register Vehicle</text><polygon fill="#181818" points="542,225.7715,552,229.7715,542,233.7715,546,229.7715" style="stroke:#181818;stroke-width:1.0;"/><line style="stroke:#181818;stroke-width:1.0;" x1="277" x2="548" y1="229.7715" y2="229.7715"/><text fill="#000000" font-family="sans-serif" font-size="13" font-weight="bold" lengthAdjust="spacing" textLength="30" x="284" y="202.0635">11.1</text><text fill="#000000" font-family="sans-serif" font-size="13" lengthAdjust="spacing" textLength="181" x="318" y="179.0977">register(plateNumber, brand,</text><text fill="#000000" font-family="sans-serif" font-size="13" lengthAdjust="spacing" textLength="192" x="322" y="194.4082">model,type, tare, grossWeight,</text><text fill="#000000" font-family="sans-serif" font-size="13" lengthAdjust="spacing" textLength="182" x="322" y="209.7188">currentKms,registrationDate,</text><text fill="#000000" font-family="sans-serif" font-size="13" lengthAdjust="spacing" textLength="219" x="318" y="225.0293">acquisitionDate, serviceFrequency)</text><rect fill="#E3E3E3" height="46.9766" rx="2.5" ry="2.5" style="stroke:#181818;stroke-width:0.5;" width="67" x="554" y="179.7949"/><text fill="#000000" font-family="sans-serif" font-size="14" lengthAdjust="spacing" textLength="47" x="564" y="200.3301">vehicle</text><text fill="#000000" font-family="sans-serif" font-size="14" lengthAdjust="spacing" textLength="53" x="561" y="216.8184">:Vehicle</text><line style="stroke:#181818;stroke-width:1.0;" x1="277" x2="324" y1="254.082" y2="254.082"/><line style="stroke:#181818;stroke-width:1.0;" x1="324" x2="324" y1="254.082" y2="267.082"/><line style="stroke:#181818;stroke-width:1.0;" x1="283" x2="324" y1="267.082" y2="267.082"/><polygon fill="#181818" points="293,263.082,283,267.082,293,271.082,289,267.082" style="stroke:#181818;stroke-width:1.0;"/><text fill="#000000" font-family="sans-serif" font-size="13" font-weight="bold" lengthAdjust="spacing" textLength="30" x="289" y="249.3398">11.2</text><text fill="#000000" font-family="sans-serif" font-size="13" lengthAdjust="spacing" textLength="124" x="323" y="249.3398">addVehicle (vehicle)</text><line style="stroke:#181818;stroke-width:1.0;" x1="282" x2="329" y1="296.3926" y2="296.3926"/><line style="stroke:#181818;stroke-width:1.0;" x1="329" x2="329" y1="296.3926" y2="309.3926"/><line style="stroke:#181818;stroke-width:1.0;" x1="288" x2="329" y1="309.3926" y2="309.3926"/><polygon fill="#181818" points="298,305.3926,288,309.3926,298,313.3926,294,309.3926" style="stroke:#181818;stroke-width:1.0;"/><text fill="#000000" font-family="sans-serif" font-size="13" font-weight="bold" lengthAdjust="spacing" textLength="30" x="294" y="291.6504">11.3</text><text fill="#000000" font-family="sans-serif" font-size="13" lengthAdjust="spacing" textLength="146" x="328" y="291.6504">validateVehicle(vehicle)</text><polygon fill="#181818" points="11,346.7031,1,350.7031,11,354.7031,7,350.7031" style="stroke:#181818;stroke-width:1.0;"/><line style="stroke:#181818;stroke-width:1.0;stroke-dasharray:2.0,2.0;" x1="5" x2="266" y1="350.7031" y2="350.7031"/><text fill="#000000" font-family="sans-serif" font-size="13" font-weight="bold" lengthAdjust="spacing" textLength="18" x="17" y="345.9609">12</text><text fill="#000000" font-family="sans-serif" font-size="13" lengthAdjust="spacing" textLength="44" x="39" y="345.9609">vehicle</text><!--SRC=[jL5DJyCm3BtdLrWxRLE7D8uJuWBZGo2GXZGkktY9QQEbIUUaHVttP5dtoSID7Ap8Vdv-p_OhRIjaBA5qric2NKaGk2RXzvKAvGfp-WYj8M2I0MrkZW6-GEM-jStX2uqd8M8wQAahj05w3HLQ6ffHvRmEZjk5dSpFSpr03- -pnukjXuO4cq-VdkzUfq9W7PojooKnZCTYTBiXc4I5kVQ1k6lfLmO3lILO1aj6gxA5ZNOLcGn2Mr6Co37cxBp_99qNOOEGDJFPy5BwR4l96BIpzv4jbb6kQnsrxpBWYHijwO5fNPELxU1CtzLOe0owYU1a5EAB4-iAPfrWw1IBLDkyY8DegpCy71xC_UdgFqsTIKiRHwKwwT3lJZOucFZb-X95WqQh2DeTRKzpt732b2farVPplEhhbBaPZTA4oDsjLT4fmGy0]--></g></svg>