<?xml version="1.0" encoding="us-ascii" standalone="no"?><svg xmlns="http://www.w3.org/2000/svg" xmlns:xlink="http://www.w3.org/1999/xlink" contentStyleType="text/css" height="545px" preserveAspectRatio="none" style="width:1127px;height:545px;background:#FFFFFF;" version="1.1" viewBox="0 0 1127 545" width="1127px" zoomAndPan="magnify"><defs/><g><!--class ListGreenSpaceUI--><g id="elem_ListGreenSpaceUI"><rect codeLine="11" fill="#F1F1F1" height="48" id="ListGreenSpaceUI" rx="2.5" ry="2.5" style="stroke:#181818;stroke-width:0.5;" width="146" x="34.5" y="44"/><ellipse cx="49.5" cy="60" fill="#ADD1B2" rx="11" ry="11" style="stroke:#181818;stroke-width:1.0;"/><path d="M52.2656,55.875 Q52.4219,55.6563 52.6094,55.5469 Q52.7969,55.4375 53.0156,55.4375 Q53.3906,55.4375 53.625,55.7031 Q53.8594,55.9531 53.8594,56.5625 L53.8594,58.0156 Q53.8594,58.625 53.625,58.8906 Q53.3906,59.1563 53.0156,59.1563 Q52.6719,59.1563 52.4688,58.9531 Q52.2656,58.7656 52.1563,58.25 Q52.1094,57.8906 51.9219,57.7031 Q51.5938,57.3281 50.9844,57.1094 Q50.375,56.8906 49.75,56.8906 Q48.9844,56.8906 48.3438,57.2188 Q47.7188,57.5469 47.2188,58.2969 Q46.7344,59.0469 46.7344,60.0781 L46.7344,61.1719 Q46.7344,62.4063 47.625,63.2344 Q48.5156,64.0469 50.1094,64.0469 Q51.0469,64.0469 51.7031,63.7969 Q52.0938,63.6406 52.5156,63.2031 Q52.7813,62.9375 52.9219,62.8594 Q53.0781,62.7813 53.2813,62.7813 Q53.6094,62.7813 53.8594,63.0469 Q54.125,63.2969 54.125,63.6406 Q54.125,63.9844 53.7813,64.3906 Q53.2813,64.9688 52.4844,65.2969 Q51.4063,65.75 50.1094,65.75 Q48.5938,65.75 47.3906,65.125 Q46.4063,64.625 45.7188,63.5625 Q45.0313,62.4844 45.0313,61.2031 L45.0313,60.0469 Q45.0313,58.7188 45.6406,57.5781 Q46.2656,56.4219 47.3594,55.8125 Q48.4531,55.1875 49.6875,55.1875 Q50.4219,55.1875 51.0625,55.3594 Q51.7188,55.5156 52.2656,55.875 Z " fill="#000000"/><text fill="#000000" font-family="sans-serif" font-size="14" lengthAdjust="spacing" textLength="114" x="63.5" y="65.7969">ListGreenSpaceUI</text><line style="stroke:#181818;stroke-width:0.5;" x1="35.5" x2="179.5" y1="76" y2="76"/><line style="stroke:#181818;stroke-width:0.5;" x1="35.5" x2="179.5" y1="84" y2="84"/></g><!--class GreenSpaceMapper--><g id="elem_GreenSpaceMapper"><rect codeLine="14" fill="#F1F1F1" height="103.8633" id="GreenSpaceMapper" rx="2.5" ry="2.5" style="stroke:#181818;stroke-width:0.5;" width="233" x="576" y="16"/><ellipse cx="624.25" cy="32" fill="#ADD1B2" rx="11" ry="11" style="stroke:#181818;stroke-width:1.0;"/><path d="M627.0156,27.875 Q627.1719,27.6563 627.3594,27.5469 Q627.5469,27.4375 627.7656,27.4375 Q628.1406,27.4375 628.375,27.7031 Q628.6094,27.9531 628.6094,28.5625 L628.6094,30.0156 Q628.6094,30.625 628.375,30.8906 Q628.1406,31.1563 627.7656,31.1563 Q627.4219,31.1563 627.2188,30.9531 Q627.0156,30.7656 626.9063,30.25 Q626.8594,29.8906 626.6719,29.7031 Q626.3438,29.3281 625.7344,29.1094 Q625.125,28.8906 624.5,28.8906 Q623.7344,28.8906 623.0938,29.2188 Q622.4688,29.5469 621.9688,30.2969 Q621.4844,31.0469 621.4844,32.0781 L621.4844,33.1719 Q621.4844,34.4063 622.375,35.2344 Q623.2656,36.0469 624.8594,36.0469 Q625.7969,36.0469 626.4531,35.7969 Q626.8438,35.6406 627.2656,35.2031 Q627.5313,34.9375 627.6719,34.8594 Q627.8281,34.7813 628.0313,34.7813 Q628.3594,34.7813 628.6094,35.0469 Q628.875,35.2969 628.875,35.6406 Q628.875,35.9844 628.5313,36.3906 Q628.0313,36.9688 627.2344,37.2969 Q626.1563,37.75 624.8594,37.75 Q623.3438,37.75 622.1406,37.125 Q621.1563,36.625 620.4688,35.5625 Q619.7813,34.4844 619.7813,33.2031 L619.7813,32.0469 Q619.7813,30.7188 620.3906,29.5781 Q621.0156,28.4219 622.1094,27.8125 Q623.2031,27.1875 624.4375,27.1875 Q625.1719,27.1875 625.8125,27.3594 Q626.4688,27.5156 627.0156,27.875 Z " fill="#000000"/><text fill="#000000" font-family="sans-serif" font-size="14" lengthAdjust="spacing" textLength="128" x="644.75" y="37.7969">GreenSpaceMapper</text><line style="stroke:#181818;stroke-width:0.5;" x1="577" x2="808" y1="48" y2="48"/><text fill="#000000" font-family="sans-serif" font-size="14" lengthAdjust="spacing" textLength="126" x="582" y="67.1074">-greenSpaceListDto</text><line style="stroke:#181818;stroke-width:0.5;" x1="577" x2="808" y1="74.6211" y2="74.6211"/><text fill="#000000" font-family="sans-serif" font-size="14" lengthAdjust="spacing" textLength="151" x="582" y="93.7285">+toDto(greenSpaceList)</text><text fill="#000000" font-family="sans-serif" font-size="14" lengthAdjust="spacing" textLength="221" x="582" y="112.3496">+addGreenSpace(greenSpaceDto)</text></g><!--class GreenSpaceDto--><g id="elem_GreenSpaceDto"><rect codeLine="19" fill="#F1F1F1" height="122.4844" id="GreenSpaceDto" rx="2.5" ry="2.5" style="stroke:#181818;stroke-width:0.5;" width="206" x="914.5" y="7"/><ellipse cx="962.25" cy="23" fill="#ADD1B2" rx="11" ry="11" style="stroke:#181818;stroke-width:1.0;"/><path d="M965.0156,18.875 Q965.1719,18.6563 965.3594,18.5469 Q965.5469,18.4375 965.7656,18.4375 Q966.1406,18.4375 966.375,18.7031 Q966.6094,18.9531 966.6094,19.5625 L966.6094,21.0156 Q966.6094,21.625 966.375,21.8906 Q966.1406,22.1563 965.7656,22.1563 Q965.4219,22.1563 965.2188,21.9531 Q965.0156,21.7656 964.9063,21.25 Q964.8594,20.8906 964.6719,20.7031 Q964.3438,20.3281 963.7344,20.1094 Q963.125,19.8906 962.5,19.8906 Q961.7344,19.8906 961.0938,20.2188 Q960.4688,20.5469 959.9688,21.2969 Q959.4844,22.0469 959.4844,23.0781 L959.4844,24.1719 Q959.4844,25.4063 960.375,26.2344 Q961.2656,27.0469 962.8594,27.0469 Q963.7969,27.0469 964.4531,26.7969 Q964.8438,26.6406 965.2656,26.2031 Q965.5313,25.9375 965.6719,25.8594 Q965.8281,25.7813 966.0313,25.7813 Q966.3594,25.7813 966.6094,26.0469 Q966.875,26.2969 966.875,26.6406 Q966.875,26.9844 966.5313,27.3906 Q966.0313,27.9688 965.2344,28.2969 Q964.1563,28.75 962.8594,28.75 Q961.3438,28.75 960.1406,28.125 Q959.1563,27.625 958.4688,26.5625 Q957.7813,25.4844 957.7813,24.2031 L957.7813,23.0469 Q957.7813,21.7188 958.3906,20.5781 Q959.0156,19.4219 960.1094,18.8125 Q961.2031,18.1875 962.4375,18.1875 Q963.1719,18.1875 963.8125,18.3594 Q964.4688,18.5156 965.0156,18.875 Z " fill="#000000"/><text fill="#000000" font-family="sans-serif" font-size="14" lengthAdjust="spacing" textLength="102" x="982.75" y="28.7969">GreenSpaceDto</text><line style="stroke:#181818;stroke-width:0.5;" x1="915.5" x2="1119.5" y1="39" y2="39"/><text fill="#000000" font-family="sans-serif" font-size="14" lengthAdjust="spacing" textLength="40" x="920.5" y="58.1074">-name</text><text fill="#000000" font-family="sans-serif" font-size="14" lengthAdjust="spacing" textLength="69" x="920.5" y="76.7285">-dimension</text><text fill="#000000" font-family="sans-serif" font-size="14" lengthAdjust="spacing" textLength="56" x="920.5" y="95.3496">-address</text><line style="stroke:#181818;stroke-width:0.5;" x1="915.5" x2="1119.5" y1="102.8633" y2="102.8633"/><text fill="#000000" font-family="sans-serif" font-size="14" lengthAdjust="spacing" textLength="194" x="920.5" y="121.9707">+greenSpaceDto(greenSpace)</text></g><!--class ListGreenSpaceController--><g id="elem_ListGreenSpaceController"><rect codeLine="25" fill="#F1F1F1" height="103.8633" id="ListGreenSpaceController" rx="2.5" ry="2.5" style="stroke:#181818;stroke-width:0.5;" width="234" x="215.5" y="16"/><ellipse cx="247.6" cy="32" fill="#ADD1B2" rx="11" ry="11" style="stroke:#181818;stroke-width:1.0;"/><path d="M250.3656,27.875 Q250.5219,27.6563 250.7094,27.5469 Q250.8969,27.4375 251.1156,27.4375 Q251.4906,27.4375 251.725,27.7031 Q251.9594,27.9531 251.9594,28.5625 L251.9594,30.0156 Q251.9594,30.625 251.725,30.8906 Q251.4906,31.1563 251.1156,31.1563 Q250.7719,31.1563 250.5688,30.9531 Q250.3656,30.7656 250.2563,30.25 Q250.2094,29.8906 250.0219,29.7031 Q249.6938,29.3281 249.0844,29.1094 Q248.475,28.8906 247.85,28.8906 Q247.0844,28.8906 246.4438,29.2188 Q245.8188,29.5469 245.3188,30.2969 Q244.8344,31.0469 244.8344,32.0781 L244.8344,33.1719 Q244.8344,34.4063 245.725,35.2344 Q246.6156,36.0469 248.2094,36.0469 Q249.1469,36.0469 249.8031,35.7969 Q250.1938,35.6406 250.6156,35.2031 Q250.8813,34.9375 251.0219,34.8594 Q251.1781,34.7813 251.3813,34.7813 Q251.7094,34.7813 251.9594,35.0469 Q252.225,35.2969 252.225,35.6406 Q252.225,35.9844 251.8813,36.3906 Q251.3813,36.9688 250.5844,37.2969 Q249.5063,37.75 248.2094,37.75 Q246.6938,37.75 245.4906,37.125 Q244.5063,36.625 243.8188,35.5625 Q243.1313,34.4844 243.1313,33.2031 L243.1313,32.0469 Q243.1313,30.7188 243.7406,29.5781 Q244.3656,28.4219 245.4594,27.8125 Q246.5531,27.1875 247.7875,27.1875 Q248.5219,27.1875 249.1625,27.3594 Q249.8188,27.5156 250.3656,27.875 Z " fill="#000000"/><text fill="#000000" font-family="sans-serif" font-size="14" lengthAdjust="spacing" textLength="164" x="265.4" y="37.7969">ListGreenSpaceController</text><line style="stroke:#181818;stroke-width:0.5;" x1="216.5" x2="448.5" y1="48" y2="48"/><line style="stroke:#181818;stroke-width:0.5;" x1="216.5" x2="448.5" y1="56" y2="56"/><text fill="#000000" font-family="sans-serif" font-size="14" lengthAdjust="spacing" textLength="140" x="221.5" y="75.1074">+getGreenSpaceList()</text><text fill="#000000" font-family="sans-serif" font-size="14" lengthAdjust="spacing" textLength="222" x="221.5" y="93.7285">+createListGreenSpaceController()</text><text fill="#000000" font-family="sans-serif" font-size="14" lengthAdjust="spacing" textLength="151" x="221.5" y="112.3496">+toDto(greenSpaceList)</text></g><!--class GreenSpaceRepository--><g id="elem_GreenSpaceRepository"><rect codeLine="30" fill="#F1F1F1" height="85.2422" id="GreenSpaceRepository" rx="2.5" ry="2.5" style="stroke:#181818;stroke-width:0.5;" width="180" x="196.5" y="453"/><ellipse cx="211.5" cy="469" fill="#ADD1B2" rx="11" ry="11" style="stroke:#181818;stroke-width:1.0;"/><path d="M214.2656,464.875 Q214.4219,464.6563 214.6094,464.5469 Q214.7969,464.4375 215.0156,464.4375 Q215.3906,464.4375 215.625,464.7031 Q215.8594,464.9531 215.8594,465.5625 L215.8594,467.0156 Q215.8594,467.625 215.625,467.8906 Q215.3906,468.1563 215.0156,468.1563 Q214.6719,468.1563 214.4688,467.9531 Q214.2656,467.7656 214.1563,467.25 Q214.1094,466.8906 213.9219,466.7031 Q213.5938,466.3281 212.9844,466.1094 Q212.375,465.8906 211.75,465.8906 Q210.9844,465.8906 210.3438,466.2188 Q209.7188,466.5469 209.2188,467.2969 Q208.7344,468.0469 208.7344,469.0781 L208.7344,470.1719 Q208.7344,471.4063 209.625,472.2344 Q210.5156,473.0469 212.1094,473.0469 Q213.0469,473.0469 213.7031,472.7969 Q214.0938,472.6406 214.5156,472.2031 Q214.7813,471.9375 214.9219,471.8594 Q215.0781,471.7813 215.2813,471.7813 Q215.6094,471.7813 215.8594,472.0469 Q216.125,472.2969 216.125,472.6406 Q216.125,472.9844 215.7813,473.3906 Q215.2813,473.9688 214.4844,474.2969 Q213.4063,474.75 212.1094,474.75 Q210.5938,474.75 209.3906,474.125 Q208.4063,473.625 207.7188,472.5625 Q207.0313,471.4844 207.0313,470.2031 L207.0313,469.0469 Q207.0313,467.7188 207.6406,466.5781 Q208.2656,465.4219 209.3594,464.8125 Q210.4531,464.1875 211.6875,464.1875 Q212.4219,464.1875 213.0625,464.3594 Q213.7188,464.5156 214.2656,464.875 Z " fill="#000000"/><text fill="#000000" font-family="sans-serif" font-size="14" lengthAdjust="spacing" textLength="148" x="225.5" y="474.7969">GreenSpaceRepository</text><line style="stroke:#181818;stroke-width:0.5;" x1="197.5" x2="375.5" y1="485" y2="485"/><text fill="#000000" font-family="sans-serif" font-size="14" lengthAdjust="spacing" textLength="104" x="202.5" y="504.1074">-greenSpaceList</text><line style="stroke:#181818;stroke-width:0.5;" x1="197.5" x2="375.5" y1="511.6211" y2="511.6211"/><text fill="#000000" font-family="sans-serif" font-size="14" lengthAdjust="spacing" textLength="140" x="202.5" y="530.7285">+getGreenSpaceList()</text></g><!--class Repositories--><g id="elem_Repositories"><rect codeLine="36" fill="#F1F1F1" height="103.8633" id="Repositories" rx="2.5" ry="2.5" style="stroke:#181818;stroke-width:0.5;" width="285" x="7" y="208"/><ellipse cx="105.75" cy="224" fill="#ADD1B2" rx="11" ry="11" style="stroke:#181818;stroke-width:1.0;"/><path d="M108.5156,219.875 Q108.6719,219.6563 108.8594,219.5469 Q109.0469,219.4375 109.2656,219.4375 Q109.6406,219.4375 109.875,219.7031 Q110.1094,219.9531 110.1094,220.5625 L110.1094,222.0156 Q110.1094,222.625 109.875,222.8906 Q109.6406,223.1563 109.2656,223.1563 Q108.9219,223.1563 108.7188,222.9531 Q108.5156,222.7656 108.4063,222.25 Q108.3594,221.8906 108.1719,221.7031 Q107.8438,221.3281 107.2344,221.1094 Q106.625,220.8906 106,220.8906 Q105.2344,220.8906 104.5938,221.2188 Q103.9688,221.5469 103.4688,222.2969 Q102.9844,223.0469 102.9844,224.0781 L102.9844,225.1719 Q102.9844,226.4063 103.875,227.2344 Q104.7656,228.0469 106.3594,228.0469 Q107.2969,228.0469 107.9531,227.7969 Q108.3438,227.6406 108.7656,227.2031 Q109.0313,226.9375 109.1719,226.8594 Q109.3281,226.7813 109.5313,226.7813 Q109.8594,226.7813 110.1094,227.0469 Q110.375,227.2969 110.375,227.6406 Q110.375,227.9844 110.0313,228.3906 Q109.5313,228.9688 108.7344,229.2969 Q107.6563,229.75 106.3594,229.75 Q104.8438,229.75 103.6406,229.125 Q102.6563,228.625 101.9688,227.5625 Q101.2813,226.4844 101.2813,225.2031 L101.2813,224.0469 Q101.2813,222.7188 101.8906,221.5781 Q102.5156,220.4219 103.6094,219.8125 Q104.7031,219.1875 105.9375,219.1875 Q106.6719,219.1875 107.3125,219.3594 Q107.9688,219.5156 108.5156,219.875 Z " fill="#000000"/><text fill="#000000" font-family="sans-serif" font-size="14" lengthAdjust="spacing" textLength="79" x="126.25" y="229.7969">Repositories</text><line style="stroke:#181818;stroke-width:0.5;" x1="8" x2="291" y1="240" y2="240"/><line style="stroke:#181818;stroke-width:0.5;" x1="8" x2="291" y1="248" y2="248"/><text fill="#000000" font-family="sans-serif" font-size="14" lengthAdjust="spacing" textLength="94" x="13" y="267.1074">-Repositories()</text><text fill="#000000" font-family="sans-serif" font-size="14" lengthAdjust="spacing" textLength="273" x="13" y="285.7285">+getGreenSpaceRepository(): Repositories</text><text fill="#000000" font-family="sans-serif" font-size="14" lengthAdjust="spacing" textLength="178" x="13" y="304.3496">+getInstance(): Repositories</text></g><!--link ListGreenSpaceUI to ListGreenSpaceController--><g id="link_ListGreenSpaceUI_ListGreenSpaceController"><path codeLine="42" d="M180.65,68 C181.84,68 182.5,68 182.5,68 C182.5,68 192.17,68 209.18,68 " fill="none" id="ListGreenSpaceUI-to-ListGreenSpaceController" style="stroke:#181818;stroke-width:1.0;stroke-dasharray:7.0,7.0;"/><polygon fill="#181818" points="215.18,68,206.18,64,210.18,68,206.18,72,215.18,68" style="stroke:#181818;stroke-width:1.0;"/></g><!--link ListGreenSpaceController to Repositories--><g id="link_ListGreenSpaceController_Repositories"><path codeLine="43" d="M283.22,120.17 C257.07,147.31 229.1923,176.2585 203.0323,203.4185 " fill="none" id="ListGreenSpaceController-to-Repositories" style="stroke:#181818;stroke-width:1.0;stroke-dasharray:7.0,7.0;"/><polygon fill="#181818" points="198.87,207.74,207.9945,204.0327,202.3386,204.1388,202.2325,198.4829,198.87,207.74" style="stroke:#181818;stroke-width:1.0;"/><text fill="#000000" font-family="sans-serif" font-size="13" lengthAdjust="spacing" textLength="67" x="242.5" y="174.0283">repositories</text></g><!--link Repositories to Repositories--><g id="link_Repositories_Repositories"><path codeLine="44" d="M292.26,244.77 C313.02,247.19 327,252.27 327,260 C327,267.73 318.9796,272.1153 298.2196,274.5353 " fill="none" id="Repositories-to-Repositories" style="stroke:#181818;stroke-width:1.0;"/><polygon fill="#181818" points="292.26,275.23,301.6626,278.161,297.2264,274.6511,300.7363,270.2148,292.26,275.23" style="stroke:#181818;stroke-width:1.0;"/><text fill="#000000" font-family="sans-serif" font-size="13" lengthAdjust="spacing" textLength="49" x="333" y="265.5283">instance</text></g><!--link ListGreenSpaceController to GreenSpaceRepository--><g id="link_ListGreenSpaceController_GreenSpaceRepository"><path codeLine="45" d="M353.19,120.36 C369.15,159.96 388.5,208 388.5,208 C388.5,208 388.5,312 388.5,312 C388.5,312 342.937,393.5124 312.827,447.3924 " fill="none" id="ListGreenSpaceController-to-GreenSpaceRepository" style="stroke:#181818;stroke-width:1.0;stroke-dasharray:7.0,7.0;"/><polygon fill="#181818" points="309.9,452.63,317.7822,446.7249,312.3391,448.2653,310.7987,442.8222,309.9,452.63" style="stroke:#181818;stroke-width:1.0;"/><text fill="#000000" font-family="sans-serif" font-size="13" lengthAdjust="spacing" textLength="131" x="373.5" y="357.0283">greenSpaceRepository</text></g><!--link Repositories to GreenSpaceRepository--><g id="link_Repositories_GreenSpaceRepository"><path codeLine="46" d="M179.57,312.24 C204.3,354.4 235.8727,408.2256 258.9527,447.5456 " fill="none" id="Repositories-to-GreenSpaceRepository" style="stroke:#181818;stroke-width:1.0;"/><polygon fill="#181818" points="261.99,452.72,260.8837,442.9335,259.4589,448.408,253.9844,446.9832,261.99,452.72" style="stroke:#181818;stroke-width:1.0;"/><text fill="#000000" font-family="sans-serif" font-size="13" lengthAdjust="spacing" textLength="7" x="175.9743" y="334.078">1</text><text fill="#000000" font-family="sans-serif" font-size="13" lengthAdjust="spacing" textLength="7" x="250.5259" y="441.5795">1</text></g><!--link ListGreenSpaceController to GreenSpaceMapper--><g id="link_ListGreenSpaceController_GreenSpaceMapper"><path codeLine="47" d="M449.88,68 C490.3,68 529.54,68 569.9,68 " fill="none" id="ListGreenSpaceController-to-GreenSpaceMapper" style="stroke:#181818;stroke-width:1.0;"/><polygon fill="#181818" points="575.9,68,566.9,64,570.9,68,566.9,72,575.9,68" style="stroke:#181818;stroke-width:1.0;"/><text fill="#000000" font-family="sans-serif" font-size="13" lengthAdjust="spacing" textLength="90" x="467.75" y="61.0283">greenSpaceList</text><text fill="#000000" font-family="sans-serif" font-size="13" lengthAdjust="spacing" textLength="7" x="457.6239" y="64.4975">1</text><text fill="#000000" font-family="sans-serif" font-size="13" lengthAdjust="spacing" textLength="7" x="560.8308" y="64.4716">1</text></g><!--link GreenSpaceMapper to GreenSpaceDto--><g id="link_GreenSpaceMapper_GreenSpaceDto"><path codeLine="48" d="M809.37,68 C843.68,68 874.93,68 908.32,68 " fill="none" id="GreenSpaceMapper-to-GreenSpaceDto" style="stroke:#181818;stroke-width:1.0;"/><polygon fill="#181818" points="914.32,68,905.32,64,909.32,68,905.32,72,914.32,68" style="stroke:#181818;stroke-width:1.0;"/><text fill="#000000" font-family="sans-serif" font-size="13" lengthAdjust="spacing" textLength="69" x="827.25" y="61.0283">greenSpace</text><text fill="#000000" font-family="sans-serif" font-size="13" lengthAdjust="spacing" textLength="7" x="817.0812" y="64.4975">1</text><text fill="#000000" font-family="sans-serif" font-size="13" lengthAdjust="spacing" textLength="7" x="899.4857" y="64.397">1</text></g><!--SRC=[VLFDQiCm3BxxASGkRHafspM7mjXW5BRBoXx0IzJKrB63hJAoqdUVt2QDaoRDoT7t9ylspE-LgQIJ9PJMs6pdR8b0xe2YGogPxMM16werWiECf2bqJF0xcTjVPGhOIkrZH2k3L5S8bTLr-16p4T0wiY9IPLfw_qBarC-1S9rPir5_24z2p3Hk2SY2KyME85UX7MMD46SDV2XFxmxHRBXf_5uVXJWrK5V-b5M5xYY0lmIAQps8txYJK7_a45xF- -YYmMIUTtOHXnMBaK0kjsb6bjWiSrMYyQ7vop-RElI-YUYPHX6TVt-lhzQGirgt6sC7ZE10dhVjPmubuPJ-IXkVmEtslh2oNf5rzVXCx_Hp4kt9NKqKUhP9UeNGqi2W2vqlqXwveQwDvulAnpE4ENDuJM2vcXodc09WoQhO6L9-7L5G3qjkkAffy4x0QdJAQJJVhjgFUtX-W2JXqB0OCvbEFKk7mikRIOSdEoICY_aQnSf_]--></g></svg>