<?xml version="1.0" encoding="us-ascii" standalone="no"?><svg xmlns="http://www.w3.org/2000/svg" xmlns:xlink="http://www.w3.org/1999/xlink" contentStyleType="text/css" height="652px" preserveAspectRatio="none" style="width:1183px;height:652px;background:#FFFFFF;" version="1.1" viewBox="0 0 1183 652" width="1183px" zoomAndPan="magnify"><defs/><g><rect fill="#FFFFFF" height="497.0254" style="stroke:#181818;stroke-width:1.0;" width="10" x="349" y="90.5332"/><rect fill="#FFFFFF" height="31.291" style="stroke:#181818;stroke-width:1.0;" width="10" x="498.5" y="148.1152"/><rect fill="#FFFFFF" height="31.291" style="stroke:#181818;stroke-width:1.0;" width="10" x="605.5" y="210.6973"/><rect fill="#FFFFFF" height="266.9883" style="stroke:#181818;stroke-width:1.0;" width="10" x="747" y="273.2793"/><rect fill="#FFFFFF" height="89.582" style="stroke:#181818;stroke-width:1.0;" width="10" x="946" y="419.3945"/><rect fill="#FFFFFF" height="36.291" style="stroke:#181818;stroke-width:1.0;" width="10" x="951" y="472.6855"/><rect fill="#FFFFFF" height="9" style="stroke:#181818;stroke-width:1.0;" width="10" x="1099" y="578.5586"/><rect fill="none" height="442.7344" style="stroke:#000000;stroke-width:1.5;" width="856" x="253" y="105.5332"/><rect fill="none" height="83.873" style="stroke:#000000;stroke-width:1.5;" width="390" x="649" y="350.5215"/><rect fill="none" height="50.582" style="stroke:#000000;stroke-width:1.5;" width="370" x="659" y="376.8125"/><line style="stroke:#181818;stroke-width:0.5;stroke-dasharray:5.0,5.0;" x1="354" x2="354" y1="57.2422" y2="596.5586"/><line style="stroke:#181818;stroke-width:0.5;stroke-dasharray:5.0,5.0;" x1="503" x2="503" y1="57.2422" y2="596.5586"/><line style="stroke:#181818;stroke-width:0.5;stroke-dasharray:5.0,5.0;" x1="610" x2="610" y1="57.2422" y2="596.5586"/><line style="stroke:#181818;stroke-width:0.5;stroke-dasharray:5.0,5.0;" x1="752" x2="752" y1="57.2422" y2="596.5586"/><line style="stroke:#181818;stroke-width:0.5;stroke-dasharray:5.0,5.0;" x1="951" x2="951" y1="322.4004" y2="596.5586"/><line style="stroke:#181818;stroke-width:0.5;stroke-dasharray:5.0,5.0;" x1="1104" x2="1104" y1="57.2422" y2="596.5586"/><rect fill="#E3E3E3" height="32.6211" rx="2.5" ry="2.5" style="stroke:#181818;stroke-width:0.5;" width="182" x="263" y="23.6211"/><text fill="#000000" font-family="sans-serif" font-size="14" lengthAdjust="spacing" textLength="168" x="270" y="45.7285">:ListGreenSpaceController</text><rect fill="#E3E3E3" height="32.6211" rx="2.5" ry="2.5" style="stroke:#181818;stroke-width:0.5;" width="182" x="263" y="595.5586"/><text fill="#000000" font-family="sans-serif" font-size="14" lengthAdjust="spacing" textLength="168" x="270" y="617.666">:ListGreenSpaceController</text><rect fill="#E3E3E3" height="32.6211" rx="2.5" ry="2.5" style="stroke:#181818;stroke-width:0.5;" width="97" x="455" y="23.6211"/><text fill="#000000" font-family="sans-serif" font-size="14" lengthAdjust="spacing" textLength="83" x="462" y="45.7285">:Repositories</text><rect fill="#E3E3E3" height="32.6211" rx="2.5" ry="2.5" style="stroke:#181818;stroke-width:0.5;" width="97" x="455" y="595.5586"/><text fill="#000000" font-family="sans-serif" font-size="14" lengthAdjust="spacing" textLength="83" x="462" y="617.666">:Repositories</text><rect fill="#E3E3E3" height="51.2422" rx="2.5" ry="2.5" style="stroke:#181818;stroke-width:0.5;" width="97" x="562" y="5"/><text fill="#000000" font-family="sans-serif" font-size="14" lengthAdjust="spacing" textLength="74" x="573.5" y="27.1074">repositories</text><text fill="#000000" font-family="sans-serif" font-size="14" lengthAdjust="spacing" textLength="83" x="569" y="45.7285">:Repositories</text><rect fill="#E3E3E3" height="51.2422" rx="2.5" ry="2.5" style="stroke:#181818;stroke-width:0.5;" width="97" x="562" y="595.5586"/><text fill="#000000" font-family="sans-serif" font-size="14" lengthAdjust="spacing" textLength="74" x="573.5" y="617.666">repositories</text><text fill="#000000" font-family="sans-serif" font-size="14" lengthAdjust="spacing" textLength="83" x="569" y="636.2871">:Repositories</text><rect fill="#E3E3E3" height="51.2422" rx="2.5" ry="2.5" style="stroke:#181818;stroke-width:0.5;" width="166" x="669" y="5"/><text fill="#000000" font-family="sans-serif" font-size="14" lengthAdjust="spacing" textLength="145" x="679.5" y="27.1074">greenSpaceRepository</text><text fill="#000000" font-family="sans-serif" font-size="14" lengthAdjust="spacing" textLength="152" x="676" y="45.7285">:GreenSpaceRepository</text><rect fill="#E3E3E3" height="51.2422" rx="2.5" ry="2.5" style="stroke:#181818;stroke-width:0.5;" width="166" x="669" y="595.5586"/><text fill="#000000" font-family="sans-serif" font-size="14" lengthAdjust="spacing" textLength="145" x="679.5" y="617.666">greenSpaceRepository</text><text fill="#000000" font-family="sans-serif" font-size="14" lengthAdjust="spacing" textLength="152" x="676" y="636.2871">:GreenSpaceRepository</text><rect fill="#E3E3E3" height="51.2422" rx="2.5" ry="2.5" style="stroke:#181818;stroke-width:0.5;" width="136" x="883" y="595.5586"/><text fill="#000000" font-family="sans-serif" font-size="14" lengthAdjust="spacing" textLength="99" x="901.5" y="617.666">greenSpaceList</text><text fill="#000000" font-family="sans-serif" font-size="14" lengthAdjust="spacing" textLength="122" x="890" y="636.2871">:List&lt;GreenSpace&gt;</text><rect fill="#E3E3E3" height="32.6211" rx="2.5" ry="2.5" style="stroke:#181818;stroke-width:0.5;" width="146" x="1031" y="23.6211"/><text fill="#000000" font-family="sans-serif" font-size="14" lengthAdjust="spacing" textLength="132" x="1038" y="45.7285">:GreenSpaceMapper</text><rect fill="#E3E3E3" height="32.6211" rx="2.5" ry="2.5" style="stroke:#181818;stroke-width:0.5;" width="146" x="1031" y="595.5586"/><text fill="#000000" font-family="sans-serif" font-size="14" lengthAdjust="spacing" textLength="132" x="1038" y="617.666">:GreenSpaceMapper</text><rect fill="#FFFFFF" height="497.0254" style="stroke:#181818;stroke-width:1.0;" width="10" x="349" y="90.5332"/><rect fill="#FFFFFF" height="31.291" style="stroke:#181818;stroke-width:1.0;" width="10" x="498.5" y="148.1152"/><rect fill="#FFFFFF" height="31.291" style="stroke:#181818;stroke-width:1.0;" width="10" x="605.5" y="210.6973"/><rect fill="#FFFFFF" height="266.9883" style="stroke:#181818;stroke-width:1.0;" width="10" x="747" y="273.2793"/><rect fill="#FFFFFF" height="89.582" style="stroke:#181818;stroke-width:1.0;" width="10" x="946" y="419.3945"/><rect fill="#FFFFFF" height="36.291" style="stroke:#181818;stroke-width:1.0;" width="10" x="951" y="472.6855"/><rect fill="#FFFFFF" height="9" style="stroke:#181818;stroke-width:1.0;" width="10" x="1099" y="578.5586"/><polygon fill="#181818" points="337,86.5332,347,90.5332,337,94.5332,341,90.5332" style="stroke:#181818;stroke-width:1.0;"/><line style="stroke:#181818;stroke-width:1.0;" x1="0" x2="343" y1="90.5332" y2="90.5332"/><text fill="#000000" font-family="sans-serif" font-size="13" font-weight="bold" lengthAdjust="spacing" textLength="7" x="7" y="85.2705">9</text><text fill="#000000" font-family="sans-serif" font-size="13" lengthAdjust="spacing" textLength="319" x="18" y="85.2705">getGreenSpaceList(greenSpaceManager,sortingOption)</text><path d="M253,105.5332 L429,105.5332 L429,114.8242 L419,124.8242 L253,124.8242 L253,105.5332 " fill="#EEEEEE" style="stroke:#000000;stroke-width:1.5;"/><rect fill="none" height="442.7344" style="stroke:#000000;stroke-width:1.5;" width="856" x="253" y="105.5332"/><text fill="#000000" font-family="sans-serif" font-size="13" font-weight="bold" lengthAdjust="spacing" textLength="131" x="268" y="120.5615">Get GreenSpace List</text><polygon fill="#181818" points="486.5,144.1152,496.5,148.1152,486.5,152.1152,490.5,148.1152" style="stroke:#181818;stroke-width:1.0;"/><line style="stroke:#181818;stroke-width:1.0;" x1="359" x2="492.5" y1="148.1152" y2="148.1152"/><text fill="#000000" font-family="sans-serif" font-size="13" font-weight="bold" lengthAdjust="spacing" textLength="18" x="366" y="142.8525">9.1</text><text fill="#000000" font-family="sans-serif" font-size="13" lengthAdjust="spacing" textLength="75" x="388" y="142.8525">getInstance()</text><polygon fill="#181818" points="370,175.4063,360,179.4063,370,183.4063,366,179.4063" style="stroke:#181818;stroke-width:1.0;"/><line style="stroke:#181818;stroke-width:1.0;stroke-dasharray:2.0,2.0;" x1="364" x2="502.5" y1="179.4063" y2="179.4063"/><text fill="#000000" font-family="sans-serif" font-size="13" font-weight="bold" lengthAdjust="spacing" textLength="18" x="376" y="174.1436">9.2</text><text fill="#000000" font-family="sans-serif" font-size="13" lengthAdjust="spacing" textLength="67" x="398" y="174.1436">repositories</text><polygon fill="#181818" points="593.5,206.6973,603.5,210.6973,593.5,214.6973,597.5,210.6973" style="stroke:#181818;stroke-width:1.0;"/><line style="stroke:#181818;stroke-width:1.0;" x1="359" x2="599.5" y1="210.6973" y2="210.6973"/><text fill="#000000" font-family="sans-serif" font-size="13" font-weight="bold" lengthAdjust="spacing" textLength="18" x="366" y="205.4346">9.3</text><text fill="#000000" font-family="sans-serif" font-size="13" lengthAdjust="spacing" textLength="160" x="388" y="205.4346">getGreenSpaceRepository()</text><polygon fill="#181818" points="370,237.9883,360,241.9883,370,245.9883,366,241.9883" style="stroke:#181818;stroke-width:1.0;"/><line style="stroke:#181818;stroke-width:1.0;stroke-dasharray:2.0,2.0;" x1="364" x2="609.5" y1="241.9883" y2="241.9883"/><text fill="#000000" font-family="sans-serif" font-size="13" font-weight="bold" lengthAdjust="spacing" textLength="18" x="376" y="236.7256">9.4</text><text fill="#000000" font-family="sans-serif" font-size="13" lengthAdjust="spacing" textLength="131" x="398" y="236.7256">greenSpaceRepository</text><polygon fill="#181818" points="735,269.2793,745,273.2793,735,277.2793,739,273.2793" style="stroke:#181818;stroke-width:1.0;"/><line style="stroke:#181818;stroke-width:1.0;" x1="359" x2="741" y1="273.2793" y2="273.2793"/><text fill="#000000" font-family="sans-serif" font-size="13" font-weight="bold" lengthAdjust="spacing" textLength="18" x="366" y="268.0166">9.5</text><text fill="#000000" font-family="sans-serif" font-size="13" lengthAdjust="spacing" textLength="319" x="388" y="268.0166">getGreenSpaceList(greenSpaceManager,sortingOption)</text><polygon fill="#181818" points="871,300.5703,881,304.5703,871,308.5703,875,304.5703" style="stroke:#181818;stroke-width:1.0;"/><line style="stroke:#181818;stroke-width:1.0;" x1="757" x2="877" y1="304.5703" y2="304.5703"/><text fill="#000000" font-family="sans-serif" font-size="13" font-weight="bold" lengthAdjust="spacing" textLength="18" x="764" y="299.3076">9.6</text><text fill="#000000" font-family="sans-serif" font-size="13" lengthAdjust="spacing" textLength="44" x="786" y="299.3076">create()</text><rect fill="#E3E3E3" height="51.2422" rx="2.5" ry="2.5" style="stroke:#181818;stroke-width:0.5;" width="136" x="883" y="281.2793"/><text fill="#000000" font-family="sans-serif" font-size="14" lengthAdjust="spacing" textLength="99" x="901.5" y="303.3867">greenSpaceList</text><text fill="#000000" font-family="sans-serif" font-size="14" lengthAdjust="spacing" textLength="122" x="890" y="322.0078">:List&lt;GreenSpace&gt;</text><path d="M649,350.5215 L722,350.5215 L722,359.8125 L712,369.8125 L649,369.8125 L649,350.5215 " fill="#EEEEEE" style="stroke:#000000;stroke-width:1.5;"/><rect fill="none" height="83.873" style="stroke:#000000;stroke-width:1.5;" width="390" x="649" y="350.5215"/><text fill="#000000" font-family="sans-serif" font-size="13" font-weight="bold" lengthAdjust="spacing" textLength="28" x="664" y="365.5498">loop</text><text fill="#000000" font-family="sans-serif" font-size="11" font-weight="bold" lengthAdjust="spacing" textLength="225" x="737" y="364.3916">[for each greenSpace in greenSpaceList]</text><path d="M659,376.8125 L724,376.8125 L724,386.1035 L714,396.1035 L659,396.1035 L659,376.8125 " fill="#EEEEEE" style="stroke:#000000;stroke-width:1.5;"/><rect fill="none" height="50.582" style="stroke:#000000;stroke-width:1.5;" width="370" x="659" y="376.8125"/><text fill="#000000" font-family="sans-serif" font-size="13" font-weight="bold" lengthAdjust="spacing" textLength="20" x="674" y="391.8408">opt</text><text fill="#000000" font-family="sans-serif" font-size="11" font-weight="bold" lengthAdjust="spacing" textLength="260" x="739" y="390.6826">[greenSpace.getGSM() == greenSpaceManager]</text><polygon fill="#181818" points="934,415.3945,944,419.3945,934,423.3945,938,419.3945" style="stroke:#181818;stroke-width:1.0;"/><line style="stroke:#181818;stroke-width:1.0;" x1="757" x2="940" y1="419.3945" y2="419.3945"/><text fill="#000000" font-family="sans-serif" font-size="13" font-weight="bold" lengthAdjust="spacing" textLength="18" x="764" y="414.1318">9.7</text><text fill="#000000" font-family="sans-serif" font-size="13" lengthAdjust="spacing" textLength="148" x="786" y="414.1318">add(greenSpaceManager)</text><line style="stroke:#181818;stroke-width:1.0;" x1="956" x2="1003" y1="459.6855" y2="459.6855"/><line style="stroke:#181818;stroke-width:1.0;" x1="1003" x2="1003" y1="459.6855" y2="472.6855"/><line style="stroke:#181818;stroke-width:1.0;" x1="962" x2="1003" y1="472.6855" y2="472.6855"/><polygon fill="#181818" points="972,468.6855,962,472.6855,972,476.6855,968,472.6855" style="stroke:#181818;stroke-width:1.0;"/><text fill="#000000" font-family="sans-serif" font-size="13" font-weight="bold" lengthAdjust="spacing" textLength="18" x="968" y="454.4229">9.8</text><text fill="#000000" font-family="sans-serif" font-size="13" lengthAdjust="spacing" textLength="107" x="990" y="454.4229">sort(sortingOption)</text><polygon fill="#181818" points="768,504.9766,758,508.9766,768,512.9766,764,508.9766" style="stroke:#181818;stroke-width:1.0;"/><line style="stroke:#181818;stroke-width:1.0;stroke-dasharray:2.0,2.0;" x1="762" x2="950" y1="508.9766" y2="508.9766"/><text fill="#000000" font-family="sans-serif" font-size="13" font-weight="bold" lengthAdjust="spacing" textLength="18" x="774" y="503.7139">9.9</text><text fill="#000000" font-family="sans-serif" font-size="13" lengthAdjust="spacing" textLength="90" x="796" y="503.7139">greenSpaceList</text><polygon fill="#181818" points="370,536.2676,360,540.2676,370,544.2676,366,540.2676" style="stroke:#181818;stroke-width:1.0;"/><line style="stroke:#181818;stroke-width:1.0;stroke-dasharray:2.0,2.0;" x1="364" x2="751" y1="540.2676" y2="540.2676"/><text fill="#000000" font-family="sans-serif" font-size="13" font-weight="bold" lengthAdjust="spacing" textLength="25" x="376" y="535.0049">9.10</text><text fill="#000000" font-family="sans-serif" font-size="13" lengthAdjust="spacing" textLength="90" x="405" y="535.0049">greenSpaceList</text><polygon fill="#181818" points="1087,574.5586,1097,578.5586,1087,582.5586,1091,578.5586" style="stroke:#181818;stroke-width:1.0;"/><line style="stroke:#181818;stroke-width:1.0;" x1="359" x2="1093" y1="578.5586" y2="578.5586"/><text fill="#000000" font-family="sans-serif" font-size="13" font-weight="bold" lengthAdjust="spacing" textLength="14" x="366" y="573.2959">10</text><text fill="#000000" font-family="sans-serif" font-size="13" lengthAdjust="spacing" textLength="129" x="384" y="573.2959">toDto(greenSpaceList)</text><!--SRC=[dLNDJkCm4BxxAKPSDaM0bYFHmWLGjH9e4UMu5vCCgKNgiMntTtdxjHEIE8vJsiwbbJFp_Op7jdaNKd7DDx0XISLQqmR1wYqoqtzHl7Zd5QxiHusWiR1SLdMOODQyfBz2Ll36QuECyQqbkTsyecRisrgK26z4zfN-CUOgh2Y4ujB2IVuWZ5rgHBbo97XBqcggQzGdm0tSlZm_HFdFgCW8IrgWQNBwXO-LyAeSxxX41nM_PGBW_cbSKFLo1cnNk4miDm2f_3b4RzTX-PyV0-1DXEC_Hxw7v4Ukr6T_shzXj-6ACJY_QJe7ELGODDUZPbM08zsUwZD3ZaTMlvGL91SZh8jBnWih_d2BxLw0YqhJLi4IBGpGq2Zs0L4qGfoWn3Qr-dvAuyQfm6mngUsvKtiyoVQHOZd_R4SEuIHCoaiyZAutTlyKDtgetsdApLtQX4CSH2UdQvVu56mdDWLst9ZC-qeAJXfjfocXQAJKwpazpQ7GwE0J7UsY9bBkcj7Wch4E0438-6oHii7IXVU_UimMS7qD4-UpVFlBTotcPJbjwc8dzanN-wFsPN4NACl3alVDZLocVFknoQBPsHT-rZmS6B7EcPEG7qqKdBz38OueJGzTSEl7ix8NPtXQsv9k588duV8x2- -JzW5ob9RkB6LZuc6ZUxRkmVeF]--></g></svg>