<?xml version="1.0" encoding="us-ascii" standalone="no"?><svg xmlns="http://www.w3.org/2000/svg" xmlns:xlink="http://www.w3.org/1999/xlink" contentStyleType="text/css" height="872px" preserveAspectRatio="none" style="width:894px;height:872px;background:#FFFFFF;" version="1.1" viewBox="0 0 894 872" width="894px" zoomAndPan="magnify"><defs/><g><rect fill="#FFFFFF" height="603.752" style="stroke:#181818;stroke-width:1.0;" width="10" x="53" y="130.8633"/><rect fill="#FFFFFF" height="201.707" style="stroke:#181818;stroke-width:1.0;" width="10" x="379" y="154.1543"/><rect fill="#FFFFFF" height="31.291" style="stroke:#181818;stroke-width:1.0;" width="10" x="379" y="387.1523"/><rect fill="#FFFFFF" height="284.8809" style="stroke:#181818;stroke-width:1.0;" width="10" x="379" y="449.7344"/><rect fill="#FFFFFF" height="95.5039" style="stroke:#181818;stroke-width:1.0;" width="10" x="594" y="229.0664"/><rect fill="#FFFFFF" height="222.2988" style="stroke:#181818;stroke-width:1.0;" width="10" x="594" y="481.0254"/><rect fill="#FFFFFF" height="95.5039" style="stroke:#181818;stroke-width:1.0;" width="10" x="770" y="576.5293"/><line style="stroke:#181818;stroke-width:0.5;stroke-dasharray:5.0,5.0;" x1="58" x2="58" y1="120.8633" y2="752.6152"/><line style="stroke:#181818;stroke-width:0.5;stroke-dasharray:5.0,5.0;" x1="384" x2="384" y1="120.8633" y2="752.6152"/><line style="stroke:#181818;stroke-width:0.5;stroke-dasharray:5.0,5.0;" x1="599" x2="599" y1="193.9648" y2="752.6152"/><line style="stroke:#181818;stroke-width:0.5;stroke-dasharray:5.0,5.0;" x1="775" x2="775" y1="120.8633" y2="752.6152"/><text fill="#000000" font-family="sans-serif" font-size="14" lengthAdjust="spacing" textLength="40" x="35" y="80.1074">Green</text><text fill="#000000" font-family="sans-serif" font-size="14" lengthAdjust="spacing" textLength="100" x="5" y="98.7285">Space Manager</text><text fill="#000000" font-family="sans-serif" font-size="14" lengthAdjust="spacing" textLength="41" x="34.5" y="117.3496">(GSM)</text><ellipse cx="58" cy="13.5" fill="#E3E3E3" rx="8" ry="8" style="stroke:#181818;stroke-width:0.5;"/><path d="M58,21.5 L58,48.5 M45,29.5 L71,29.5 M58,48.5 L45,63.5 M58,48.5 L71,63.5 " fill="none" style="stroke:#181818;stroke-width:0.5;"/><text fill="#000000" font-family="sans-serif" font-size="14" lengthAdjust="spacing" textLength="40" x="35" y="766.7227">Green</text><text fill="#000000" font-family="sans-serif" font-size="14" lengthAdjust="spacing" textLength="100" x="5" y="785.3438">Space Manager</text><text fill="#000000" font-family="sans-serif" font-size="14" lengthAdjust="spacing" textLength="41" x="34.5" y="803.9648">(GSM)</text><ellipse cx="58" cy="815.9785" fill="#E3E3E3" rx="8" ry="8" style="stroke:#181818;stroke-width:0.5;"/><path d="M58,823.9785 L58,850.9785 M45,831.9785 L71,831.9785 M58,850.9785 L45,865.9785 M58,850.9785 L71,865.9785 " fill="none" style="stroke:#181818;stroke-width:0.5;"/><rect fill="#E3E3E3" height="32.6211" rx="2.5" ry="2.5" style="stroke:#181818;stroke-width:0.5;" width="132" x="318" y="87.2422"/><text fill="#000000" font-family="sans-serif" font-size="14" lengthAdjust="spacing" textLength="118" x="325" y="109.3496">:ListGreenSpaceUI</text><rect fill="#E3E3E3" height="32.6211" rx="2.5" ry="2.5" style="stroke:#181818;stroke-width:0.5;" width="132" x="318" y="751.6152"/><text fill="#000000" font-family="sans-serif" font-size="14" lengthAdjust="spacing" textLength="118" x="325" y="773.7227">:ListGreenSpaceUI</text><rect fill="#E3E3E3" height="32.6211" rx="2.5" ry="2.5" style="stroke:#181818;stroke-width:0.5;" width="182" x="508" y="751.6152"/><text fill="#000000" font-family="sans-serif" font-size="14" lengthAdjust="spacing" textLength="168" x="515" y="773.7227">:ListGreenSpaceController</text><rect fill="#E3E3E3" height="32.6211" rx="2.5" ry="2.5" style="stroke:#181818;stroke-width:0.5;" width="142" x="704" y="87.2422"/><text fill="#000000" font-family="sans-serif" font-size="14" lengthAdjust="spacing" textLength="128" x="711" y="109.3496">GreenSpaceMapper</text><rect fill="#E3E3E3" height="32.6211" rx="2.5" ry="2.5" style="stroke:#181818;stroke-width:0.5;" width="142" x="704" y="751.6152"/><text fill="#000000" font-family="sans-serif" font-size="14" lengthAdjust="spacing" textLength="128" x="711" y="773.7227">GreenSpaceMapper</text><rect fill="#FFFFFF" height="603.752" style="stroke:#181818;stroke-width:1.0;" width="10" x="53" y="130.8633"/><rect fill="#FFFFFF" height="201.707" style="stroke:#181818;stroke-width:1.0;" width="10" x="379" y="154.1543"/><rect fill="#FFFFFF" height="31.291" style="stroke:#181818;stroke-width:1.0;" width="10" x="379" y="387.1523"/><rect fill="#FFFFFF" height="284.8809" style="stroke:#181818;stroke-width:1.0;" width="10" x="379" y="449.7344"/><rect fill="#FFFFFF" height="95.5039" style="stroke:#181818;stroke-width:1.0;" width="10" x="594" y="229.0664"/><rect fill="#FFFFFF" height="222.2988" style="stroke:#181818;stroke-width:1.0;" width="10" x="594" y="481.0254"/><rect fill="#FFFFFF" height="95.5039" style="stroke:#181818;stroke-width:1.0;" width="10" x="770" y="576.5293"/><polygon fill="#181818" points="367,150.1543,377,154.1543,367,158.1543,371,154.1543" style="stroke:#181818;stroke-width:1.0;"/><line style="stroke:#181818;stroke-width:1.0;" x1="63" x2="373" y1="154.1543" y2="154.1543"/><text fill="#000000" font-family="sans-serif" font-size="13" font-weight="bold" lengthAdjust="spacing" textLength="7" x="70" y="148.8916">1</text><text fill="#000000" font-family="sans-serif" font-size="13" lengthAdjust="spacing" textLength="286" x="81" y="148.8916">asks to list all the GreenSpaces managed by him</text><polygon fill="#181818" points="496,181.4453,506,185.4453,496,189.4453,500,185.4453" style="stroke:#181818;stroke-width:1.0;"/><line style="stroke:#181818;stroke-width:1.0;" x1="389" x2="502" y1="185.4453" y2="185.4453"/><text fill="#000000" font-family="sans-serif" font-size="13" font-weight="bold" lengthAdjust="spacing" textLength="7" x="396" y="180.1826">2</text><text fill="#000000" font-family="sans-serif" font-size="13" lengthAdjust="spacing" textLength="36" x="407" y="180.1826">create</text><rect fill="#E3E3E3" height="32.6211" rx="2.5" ry="2.5" style="stroke:#181818;stroke-width:0.5;" width="182" x="508" y="162.1543"/><text fill="#000000" font-family="sans-serif" font-size="14" lengthAdjust="spacing" textLength="168" x="515" y="184.2617">:ListGreenSpaceController</text><polygon fill="#181818" points="582,225.0664,592,229.0664,582,233.0664,586,229.0664" style="stroke:#181818;stroke-width:1.0;"/><line style="stroke:#181818;stroke-width:1.0;" x1="389" x2="588" y1="229.0664" y2="229.0664"/><text fill="#000000" font-family="sans-serif" font-size="13" font-weight="bold" lengthAdjust="spacing" textLength="7" x="396" y="223.8037">3</text><text fill="#000000" font-family="sans-serif" font-size="13" lengthAdjust="spacing" textLength="175" x="407" y="223.8037">getCollaboratorByEmail(email)</text><rect fill="none" height="59.2129" style="stroke:#000000;stroke-width:1.5;" width="188" x="505" y="237.0664"/><path d="M505,237.0664 L567,237.0664 L567,246.0664 L557,256.0664 L505,256.0664 L505,237.0664 " fill="#EEEEEE" style="stroke:#000000;stroke-width:2.0;"/><text fill="#000000" font-family="sans-serif" font-size="13" font-weight="bold" lengthAdjust="spacing" textLength="17" x="518" y="253.0947">ref</text><text fill="#000000" font-family="sans-serif" font-size="12" lengthAdjust="spacing" textLength="132" x="533" y="273.0156">Get GSM Through Email</text><text fill="#000000" font-family="sans-serif" font-size="12" lengthAdjust="spacing" textLength="3" x="597.5" y="288.9766">&#160;</text><polygon fill="#181818" points="400,320.5703,390,324.5703,400,328.5703,396,324.5703" style="stroke:#181818;stroke-width:1.0;"/><line style="stroke:#181818;stroke-width:1.0;stroke-dasharray:2.0,2.0;" x1="394" x2="598" y1="324.5703" y2="324.5703"/><text fill="#000000" font-family="sans-serif" font-size="13" font-weight="bold" lengthAdjust="spacing" textLength="7" x="406" y="319.3076">4</text><text fill="#000000" font-family="sans-serif" font-size="13" lengthAdjust="spacing" textLength="119" x="417" y="319.3076">greenSpaceManager</text><polygon fill="#181818" points="74,351.8613,64,355.8613,74,359.8613,70,355.8613" style="stroke:#181818;stroke-width:1.0;"/><line style="stroke:#181818;stroke-width:1.0;stroke-dasharray:2.0,2.0;" x1="68" x2="383" y1="355.8613" y2="355.8613"/><text fill="#000000" font-family="sans-serif" font-size="13" font-weight="bold" lengthAdjust="spacing" textLength="7" x="80" y="350.5986">5</text><text fill="#000000" font-family="sans-serif" font-size="13" lengthAdjust="spacing" textLength="233" x="91" y="350.5986">asks the user to choose a sorting option</text><polygon fill="#181818" points="367,383.1523,377,387.1523,367,391.1523,371,387.1523" style="stroke:#181818;stroke-width:1.0;"/><line style="stroke:#181818;stroke-width:1.0;" x1="63" x2="373" y1="387.1523" y2="387.1523"/><text fill="#000000" font-family="sans-serif" font-size="13" font-weight="bold" lengthAdjust="spacing" textLength="7" x="70" y="381.8896">6</text><text fill="#000000" font-family="sans-serif" font-size="13" lengthAdjust="spacing" textLength="142" x="81" y="381.8896">chooses a sorting option</text><polygon fill="#181818" points="74,414.4434,64,418.4434,74,422.4434,70,418.4434" style="stroke:#181818;stroke-width:1.0;"/><line style="stroke:#181818;stroke-width:1.0;stroke-dasharray:2.0,2.0;" x1="68" x2="383" y1="418.4434" y2="418.4434"/><text fill="#000000" font-family="sans-serif" font-size="13" font-weight="bold" lengthAdjust="spacing" textLength="7" x="80" y="413.1807">7</text><text fill="#000000" font-family="sans-serif" font-size="13" lengthAdjust="spacing" textLength="120" x="91" y="413.1807">asks for confirmation</text><polygon fill="#181818" points="367,445.7344,377,449.7344,367,453.7344,371,449.7344" style="stroke:#181818;stroke-width:1.0;"/><line style="stroke:#181818;stroke-width:1.0;" x1="63" x2="373" y1="449.7344" y2="449.7344"/><text fill="#000000" font-family="sans-serif" font-size="13" font-weight="bold" lengthAdjust="spacing" textLength="7" x="70" y="444.4717">8</text><text fill="#000000" font-family="sans-serif" font-size="13" lengthAdjust="spacing" textLength="229" x="81" y="444.4717">confirms that he wants to create the list</text><polygon fill="#181818" points="582,477.0254,592,481.0254,582,485.0254,586,481.0254" style="stroke:#181818;stroke-width:1.0;"/><line style="stroke:#181818;stroke-width:1.0;" x1="389" x2="588" y1="481.0254" y2="481.0254"/><text fill="#000000" font-family="sans-serif" font-size="13" font-weight="bold" lengthAdjust="spacing" textLength="7" x="396" y="475.7627">9</text><text fill="#000000" font-family="sans-serif" font-size="13" lengthAdjust="spacing" textLength="119" x="407" y="475.7627">getGreenSpaceList()</text><rect fill="none" height="59.2129" style="stroke:#000000;stroke-width:1.5;" width="188" x="505" y="489.0254"/><path d="M505,489.0254 L567,489.0254 L567,498.0254 L557,508.0254 L505,508.0254 L505,489.0254 " fill="#EEEEEE" style="stroke:#000000;stroke-width:2.0;"/><text fill="#000000" font-family="sans-serif" font-size="13" font-weight="bold" lengthAdjust="spacing" textLength="17" x="518" y="505.0537">ref</text><text fill="#000000" font-family="sans-serif" font-size="12" lengthAdjust="spacing" textLength="114" x="542" y="524.9746">Get GreenSpace List</text><text fill="#000000" font-family="sans-serif" font-size="12" lengthAdjust="spacing" textLength="3" x="597.5" y="540.9355">&#160;</text><polygon fill="#181818" points="758,572.5293,768,576.5293,758,580.5293,762,576.5293" style="stroke:#181818;stroke-width:1.0;"/><line style="stroke:#181818;stroke-width:1.0;" x1="604" x2="764" y1="576.5293" y2="576.5293"/><text fill="#000000" font-family="sans-serif" font-size="13" font-weight="bold" lengthAdjust="spacing" textLength="14" x="611" y="571.2666">10</text><text fill="#000000" font-family="sans-serif" font-size="13" lengthAdjust="spacing" textLength="129" x="629" y="571.2666">toDto(greenSpaceList)</text><rect fill="none" height="59.2129" style="stroke:#000000;stroke-width:1.5;" width="187" x="701" y="584.5293"/><path d="M701,584.5293 L763,584.5293 L763,593.5293 L753,603.5293 L701,603.5293 L701,584.5293 " fill="#EEEEEE" style="stroke:#000000;stroke-width:2.0;"/><text fill="#000000" font-family="sans-serif" font-size="13" font-weight="bold" lengthAdjust="spacing" textLength="17" x="714" y="600.5576">ref</text><text fill="#000000" font-family="sans-serif" font-size="12" lengthAdjust="spacing" textLength="179" x="705" y="620.4785">Create a copy of GreenSpace list</text><text fill="#000000" font-family="sans-serif" font-size="12" lengthAdjust="spacing" textLength="3" x="793" y="636.4395">&#160;</text><polygon fill="#181818" points="615,668.0332,605,672.0332,615,676.0332,611,672.0332" style="stroke:#181818;stroke-width:1.0;"/><line style="stroke:#181818;stroke-width:1.0;stroke-dasharray:2.0,2.0;" x1="609" x2="774" y1="672.0332" y2="672.0332"/><text fill="#000000" font-family="sans-serif" font-size="13" font-weight="bold" lengthAdjust="spacing" textLength="14" x="621" y="666.7705">11</text><text fill="#000000" font-family="sans-serif" font-size="13" lengthAdjust="spacing" textLength="110" x="639" y="666.7705">greenSpaceListDto</text><polygon fill="#181818" points="400,699.3242,390,703.3242,400,707.3242,396,703.3242" style="stroke:#181818;stroke-width:1.0;"/><line style="stroke:#181818;stroke-width:1.0;stroke-dasharray:2.0,2.0;" x1="394" x2="598" y1="703.3242" y2="703.3242"/><text fill="#000000" font-family="sans-serif" font-size="13" font-weight="bold" lengthAdjust="spacing" textLength="14" x="406" y="698.0615">12</text><text fill="#000000" font-family="sans-serif" font-size="13" lengthAdjust="spacing" textLength="110" x="424" y="698.0615">greenSpaceListDto</text><polygon fill="#181818" points="69,730.6152,59,734.6152,69,738.6152,65,734.6152" style="stroke:#181818;stroke-width:1.0;"/><line style="stroke:#181818;stroke-width:1.0;stroke-dasharray:2.0,2.0;" x1="63" x2="383" y1="734.6152" y2="734.6152"/><text fill="#000000" font-family="sans-serif" font-size="13" font-weight="bold" lengthAdjust="spacing" textLength="14" x="75" y="729.3525">13</text><text fill="#000000" font-family="sans-serif" font-size="13" lengthAdjust="spacing" textLength="80" x="93" y="729.3525">shows the list</text><!--SRC=[bLN1RgD03BtFLrYvR5AfFv133vjTLPMQowQzzUA0WL66CPePcitVhna8WMsWoHmY2C_sU_Op-8Es5JeieMJBIU6u90Yk9kNx9nKc1ynf5qw6m54IqEPc2F05fdpKDeSCZIUbi0viwt9FJgaVXKu9CkQmvxyAay0E5i-Eo7xOdQGcsAALzEx3BfztszK2q8DSACaTTA8hj04MwrVjGuoACUyl4VR-CelQi0sEZI4NqPktFwzg7731Rh6gEbnxgHgk-XC3HJOAkYCtyFWafM4ju8E7m62aBA0n40f1zpazb55Q2liJ5Bgy9EbJYuB-p_EHr5AWOVlm84KIHuASWmaefx0HfRXdXzBXdwVV9MgpfEPtzJLsn27s1IQEempuazmyAZQ6GcpEcvYepWk83DHa2DbqybaKzTXrEH_CA1hbQbXAqtgQJacoXjnvPZAdseig6LvIC7i21C_Y334nLq6pLLSo3wSrz46Rma_d-7RUOtgPx4Z2DjEkn5kuVE7JnZOwCO1eFOhRerDRCqNzZMcl4rHpDhlOkrcsvKhTvwax_TGNWwRQTJTDEQbrqLEtpy8-yA_0otmaO3M_6zsxO8vdh-W6R4-j7GFAfAeJS3OKQYQ5th8wpUa4YwdEOnj9bYPyjqBdL-34KbxBgExVnhLyEVZensxyp-A3s_WQ_WS0]--></g></svg>