<?xml version="1.0" encoding="us-ascii" standalone="no"?><svg xmlns="http://www.w3.org/2000/svg" xmlns:xlink="http://www.w3.org/1999/xlink" contentStyleType="text/css" height="1316.7px" preserveAspectRatio="none" style="width:1733px;height:1316px;background:#FFFFFF;" version="1.1" viewBox="0 0 1733 1316" width="1733.2px" zoomAndPan="magnify"><defs/><g><rect fill="#FFFFFF" height="1128.2961" style="stroke:#181818;stroke-width:0.6999999999999998;" width="7" x="37.1" y="91.6043"/><rect fill="#FFFFFF" height="442.0568" style="stroke:#181818;stroke-width:0.6999999999999998;" width="7" x="247.8" y="107.908"/><rect fill="#FFFFFF" height="21.9037" style="stroke:#181818;stroke-width:0.6999999999999998;" width="7" x="247.8" y="571.8686"/><rect fill="#FFFFFF" height="604.2244" style="stroke:#181818;stroke-width:0.6999999999999998;" width="7" x="247.8" y="615.676"/><rect fill="#FFFFFF" height="367.7146" style="stroke:#181818;stroke-width:0.6999999999999998;" width="7" x="504" y="160.3465"/><rect fill="#FFFFFF" height="560.417" style="stroke:#181818;stroke-width:0.6999999999999998;" width="7" x="504" y="637.5797"/><rect fill="#FFFFFF" height="23.5348" style="stroke:#181818;stroke-width:0.6999999999999998;" width="7" x="632.45" y="189.2502"/><rect fill="#FFFFFF" height="36.5695" style="stroke:#181818;stroke-width:0.6999999999999998;" width="7" x="735.35" y="241.6887"/><rect fill="#FFFFFF" height="36.5695" style="stroke:#181818;stroke-width:0.6999999999999998;" width="7" x="828.45" y="307.1619"/><rect fill="#FFFFFF" height="21.9037" style="stroke:#181818;stroke-width:0.6999999999999998;" width="7" x="907.55" y="365.6352"/><rect fill="#FFFFFF" height="21.9037" style="stroke:#181818;stroke-width:0.6999999999999998;" width="7" x="907.55" y="659.4834"/><rect fill="#FFFFFF" height="21.9037" style="stroke:#181818;stroke-width:0.6999999999999998;" width="7" x="982.45" y="409.4426"/><rect fill="#FFFFFF" height="21.9037" style="stroke:#181818;stroke-width:0.6999999999999998;" width="7" x="982.45" y="703.2908"/><rect fill="#FFFFFF" height="52.9074" style="stroke:#181818;stroke-width:0.6999999999999998;" width="7" x="1080.8" y="453.25"/><rect fill="#FFFFFF" height="25.4037" style="stroke:#181818;stroke-width:0.6999999999999998;" width="7" x="1084.3" y="480.7537"/><rect fill="#FFFFFF" height="186.8918" style="stroke:#181818;stroke-width:0.6999999999999998;" width="7" x="1232.7" y="747.0982"/><rect fill="#FFFFFF" height="220.1992" style="stroke:#181818;stroke-width:0.6999999999999998;" width="7" x="1348.9" y="955.8937"/><rect fill="#FFFFFF" height="62.7074" style="stroke:#181818;stroke-width:0.6999999999999998;" width="7" x="1454.6" y="849.3789"/><rect fill="#FFFFFF" height="25.4037" style="stroke:#181818;stroke-width:0.6999999999999998;" width="7" x="1458.1" y="886.6826"/><rect fill="#FFFFFF" height="21.9037" style="stroke:#181818;stroke-width:0.6999999999999998;" width="7" x="1454.6" y="1039.7707"/><rect fill="#FFFFFF" height="21.9037" style="stroke:#181818;stroke-width:0.6999999999999998;" width="7" x="1558.9" y="1083.5781"/><rect fill="#FFFFFF" height="26.8037" style="stroke:#181818;stroke-width:0.6999999999999998;" width="7" x="1663.2" y="1127.3855"/><rect fill="none" height="58.7111" style="stroke:#000000;stroke-width:1.0499999999999998;" width="355.6" x="1164.1" y="801.1678"/><rect fill="none" height="35.4074" style="stroke:#000000;stroke-width:1.0499999999999998;" width="341.6" x="1171.1" y="819.5715"/><rect fill="none" height="123.0223" style="stroke:#000000;stroke-width:1.0499999999999998;" width="434.7" x="1294.3" y="1009.9633"/><line style="stroke:#181818;stroke-width:0.3499999999999999;stroke-dasharray:5.0,5.0;" x1="40.6" x2="40.6" y1="84.6043" y2="1232.5004"/><line style="stroke:#181818;stroke-width:0.3499999999999999;stroke-dasharray:5.0,5.0;" x1="251.3" x2="251.3" y1="84.6043" y2="1232.5004"/><line style="stroke:#181818;stroke-width:0.3499999999999999;stroke-dasharray:5.0,5.0;" x1="507.5" x2="507.5" y1="135.7754" y2="1232.5004"/><line style="stroke:#181818;stroke-width:0.3499999999999999;stroke-dasharray:5.0,5.0;" x1="635.6" x2="635.6" y1="188.2139" y2="1232.5004"/><line style="stroke:#181818;stroke-width:0.3499999999999999;stroke-dasharray:5.0,5.0;" x1="738.5" x2="738.5" y1="247.1697" y2="1232.5004"/><line style="stroke:#181818;stroke-width:0.3499999999999999;stroke-dasharray:5.0,5.0;" x1="831.6" x2="831.6" y1="312.643" y2="1232.5004"/><line style="stroke:#181818;stroke-width:0.3499999999999999;stroke-dasharray:5.0,5.0;" x1="910.7" x2="910.7" y1="84.6043" y2="1232.5004"/><line style="stroke:#181818;stroke-width:0.3499999999999999;stroke-dasharray:5.0,5.0;" x1="985.6" x2="985.6" y1="84.6043" y2="1232.5004"/><line style="stroke:#181818;stroke-width:0.3499999999999999;stroke-dasharray:5.0,5.0;" x1="1084.3" x2="1084.3" y1="84.6043" y2="1232.5004"/><line style="stroke:#181818;stroke-width:0.3499999999999999;stroke-dasharray:5.0,5.0;" x1="1236.2" x2="1236.2" y1="84.6043" y2="1232.5004"/><line style="stroke:#181818;stroke-width:0.3499999999999999;stroke-dasharray:5.0,5.0;" x1="1352.4" x2="1352.4" y1="84.6043" y2="1232.5004"/><line style="stroke:#181818;stroke-width:0.3499999999999999;stroke-dasharray:5.0,5.0;" x1="1458.1" x2="1458.1" y1="781.483" y2="1232.5004"/><line style="stroke:#181818;stroke-width:0.3499999999999999;stroke-dasharray:5.0,5.0;" x1="1562.4" x2="1562.4" y1="84.6043" y2="1232.5004"/><line style="stroke:#181818;stroke-width:0.3499999999999999;stroke-dasharray:5.0,5.0;" x1="1666.7" x2="1666.7" y1="990.2785" y2="1232.5004"/><text fill="#000000" font-family="sans-serif" font-size="9.8" lengthAdjust="spacing" textLength="28" x="24.5" y="56.0752">Green</text><text fill="#000000" font-family="sans-serif" font-size="9.8" lengthAdjust="spacing" textLength="70" x="3.5" y="69.11">Space Manager</text><text fill="#000000" font-family="sans-serif" font-size="9.8" lengthAdjust="spacing" textLength="28.7" x="24.15" y="82.1447">(GSM)</text><ellipse cx="40.6" cy="9.45" fill="#E3E3E3" rx="5.6" ry="5.6" style="stroke:#181818;stroke-width:0.3499999999999999;"/><path d="M40.6,15.05 L40.6,33.95 M31.5,20.65 L49.7,20.65 M40.6,33.95 L31.5,44.45 M40.6,33.95 L49.7,44.45 " fill="none" style="stroke:#181818;stroke-width:0.3499999999999999;"/><text fill="#000000" font-family="sans-serif" font-size="9.8" lengthAdjust="spacing" textLength="28" x="24.5" y="1242.3756">Green</text><text fill="#000000" font-family="sans-serif" font-size="9.8" lengthAdjust="spacing" textLength="70" x="3.5" y="1255.4104">Space Manager</text><text fill="#000000" font-family="sans-serif" font-size="9.8" lengthAdjust="spacing" textLength="28.7" x="24.15" y="1268.4451">(GSM)</text><ellipse cx="40.6" cy="1276.8547" fill="#E3E3E3" rx="5.6" ry="5.6" style="stroke:#181818;stroke-width:0.3499999999999999;"/><path d="M40.6,1282.4547 L40.6,1301.3547 M31.5,1288.0547 L49.7,1288.0547 M40.6,1301.3547 L31.5,1311.8547 M40.6,1301.3547 L49.7,1311.8547 " fill="none" style="stroke:#181818;stroke-width:0.3499999999999999;"/><rect fill="#E3E3E3" height="22.8348" rx="1.75" ry="1.75" style="stroke:#181818;stroke-width:0.3499999999999999;" width="92.4" x="205.1" y="61.0695"/><text fill="#000000" font-family="sans-serif" font-size="9.8" lengthAdjust="spacing" textLength="82.6" x="210" y="76.5447">:ListGreenSpaceUI</text><rect fill="#E3E3E3" height="22.8348" rx="1.75" ry="1.75" style="stroke:#181818;stroke-width:0.3499999999999999;" width="92.4" x="205.1" y="1231.8004"/><text fill="#000000" font-family="sans-serif" font-size="9.8" lengthAdjust="spacing" textLength="82.6" x="210" y="1247.2756">:ListGreenSpaceUI</text><rect fill="#E3E3E3" height="22.8348" rx="1.75" ry="1.75" style="stroke:#181818;stroke-width:0.3499999999999999;" width="127.4" x="443.8" y="1231.8004"/><text fill="#000000" font-family="sans-serif" font-size="9.8" lengthAdjust="spacing" textLength="117.6" x="448.7" y="1247.2756">:ListGreenSpaceController</text><rect fill="#E3E3E3" height="22.8348" rx="1.75" ry="1.75" style="stroke:#181818;stroke-width:0.3499999999999999;" width="95.9" x="588" y="1231.8004"/><text fill="#000000" font-family="sans-serif" font-size="9.8" lengthAdjust="spacing" textLength="86.1" x="592.9" y="1247.2756">:ApplicationSession</text><rect fill="#E3E3E3" height="35.8695" rx="1.75" ry="1.75" style="stroke:#181818;stroke-width:0.3499999999999999;" width="95.9" x="690.9" y="1231.8004"/><text fill="#000000" font-family="sans-serif" font-size="9.8" lengthAdjust="spacing" textLength="51.8" x="712.95" y="1247.2756">appSession</text><text fill="#000000" font-family="sans-serif" font-size="9.8" lengthAdjust="spacing" textLength="86.1" x="695.8" y="1260.3104">:ApplicationSession</text><rect fill="#E3E3E3" height="35.8695" rx="1.75" ry="1.75" style="stroke:#181818;stroke-width:0.3499999999999999;" width="76.3" x="793.8" y="1231.8004"/><text fill="#000000" font-family="sans-serif" font-size="9.8" lengthAdjust="spacing" textLength="66.5" x="798.7" y="1247.2756">currentSession</text><text fill="#000000" font-family="sans-serif" font-size="9.8" lengthAdjust="spacing" textLength="58.1" x="802.9" y="1260.3104">:UserSession</text><rect fill="#E3E3E3" height="22.8348" rx="1.75" ry="1.75" style="stroke:#181818;stroke-width:0.3499999999999999;" width="67.9" x="877.1" y="61.0695"/><text fill="#000000" font-family="sans-serif" font-size="9.8" lengthAdjust="spacing" textLength="58.1" x="882" y="76.5447">:Repositories</text><rect fill="#E3E3E3" height="22.8348" rx="1.75" ry="1.75" style="stroke:#181818;stroke-width:0.3499999999999999;" width="67.9" x="877.1" y="1231.8004"/><text fill="#000000" font-family="sans-serif" font-size="9.8" lengthAdjust="spacing" textLength="58.1" x="882" y="1247.2756">:Repositories</text><rect fill="#E3E3E3" height="35.8695" rx="1.75" ry="1.75" style="stroke:#181818;stroke-width:0.3499999999999999;" width="67.9" x="952" y="48.0348"/><text fill="#000000" font-family="sans-serif" font-size="9.8" lengthAdjust="spacing" textLength="51.8" x="960.05" y="63.51">repositories</text><text fill="#000000" font-family="sans-serif" font-size="9.8" lengthAdjust="spacing" textLength="58.1" x="956.9" y="76.5447">:Repositories</text><rect fill="#E3E3E3" height="35.8695" rx="1.75" ry="1.75" style="stroke:#181818;stroke-width:0.3499999999999999;" width="67.9" x="952" y="1231.8004"/><text fill="#000000" font-family="sans-serif" font-size="9.8" lengthAdjust="spacing" textLength="51.8" x="960.05" y="1247.2756">repositories</text><text fill="#000000" font-family="sans-serif" font-size="9.8" lengthAdjust="spacing" textLength="58.1" x="956.9" y="1260.3104">:Repositories</text><rect fill="#E3E3E3" height="35.8695" rx="1.75" ry="1.75" style="stroke:#181818;stroke-width:0.3499999999999999;" width="114.8" x="1026.9" y="48.0348"/><text fill="#000000" font-family="sans-serif" font-size="9.8" lengthAdjust="spacing" textLength="100.1" x="1034.25" y="63.51">collaboratorRepository</text><text fill="#000000" font-family="sans-serif" font-size="9.8" lengthAdjust="spacing" textLength="105" x="1031.8" y="76.5447">:CollaboratorRepository</text><rect fill="#E3E3E3" height="35.8695" rx="1.75" ry="1.75" style="stroke:#181818;stroke-width:0.3499999999999999;" width="114.8" x="1026.9" y="1231.8004"/><text fill="#000000" font-family="sans-serif" font-size="9.8" lengthAdjust="spacing" textLength="100.1" x="1034.25" y="1247.2756">collaboratorRepository</text><text fill="#000000" font-family="sans-serif" font-size="9.8" lengthAdjust="spacing" textLength="105" x="1031.8" y="1260.3104">:CollaboratorRepository</text><rect fill="#E3E3E3" height="35.8695" rx="1.75" ry="1.75" style="stroke:#181818;stroke-width:0.3499999999999999;" width="116.2" x="1178.1" y="48.0348"/><text fill="#000000" font-family="sans-serif" font-size="9.8" lengthAdjust="spacing" textLength="101.5" x="1185.45" y="63.51">greenSpaceRepository</text><text fill="#000000" font-family="sans-serif" font-size="9.8" lengthAdjust="spacing" textLength="106.4" x="1183" y="76.5447">:GreenSpaceRepository</text><rect fill="#E3E3E3" height="35.8695" rx="1.75" ry="1.75" style="stroke:#181818;stroke-width:0.3499999999999999;" width="116.2" x="1178.1" y="1231.8004"/><text fill="#000000" font-family="sans-serif" font-size="9.8" lengthAdjust="spacing" textLength="101.5" x="1185.45" y="1247.2756">greenSpaceRepository</text><text fill="#000000" font-family="sans-serif" font-size="9.8" lengthAdjust="spacing" textLength="106.4" x="1183" y="1260.3104">:GreenSpaceRepository</text><rect fill="#E3E3E3" height="22.8348" rx="1.75" ry="1.75" style="stroke:#181818;stroke-width:0.3499999999999999;" width="102.2" x="1301.3" y="61.0695"/><text fill="#000000" font-family="sans-serif" font-size="9.8" lengthAdjust="spacing" textLength="92.4" x="1306.2" y="76.5447">:GreenSpaceMapper</text><rect fill="#E3E3E3" height="22.8348" rx="1.75" ry="1.75" style="stroke:#181818;stroke-width:0.3499999999999999;" width="102.2" x="1301.3" y="1231.8004"/><text fill="#000000" font-family="sans-serif" font-size="9.8" lengthAdjust="spacing" textLength="92.4" x="1306.2" y="1247.2756">:GreenSpaceMapper</text><rect fill="#E3E3E3" height="35.8695" rx="1.75" ry="1.75" style="stroke:#181818;stroke-width:0.3499999999999999;" width="95.2" x="1410.5" y="1231.8004"/><text fill="#000000" font-family="sans-serif" font-size="9.8" lengthAdjust="spacing" textLength="69.3" x="1423.45" y="1247.2756">greenSpaceList</text><text fill="#000000" font-family="sans-serif" font-size="9.8" lengthAdjust="spacing" textLength="85.4" x="1415.4" y="1260.3104">:List&lt;GreenSpace&gt;</text><rect fill="#E3E3E3" height="35.8695" rx="1.75" ry="1.75" style="stroke:#181818;stroke-width:0.3499999999999999;" width="84" x="1520.4" y="48.0348"/><text fill="#000000" font-family="sans-serif" font-size="9.8" lengthAdjust="spacing" textLength="69.3" x="1527.75" y="63.51">greenSpaceDto</text><text fill="#000000" font-family="sans-serif" font-size="9.8" lengthAdjust="spacing" textLength="74.2" x="1525.3" y="76.5447">:GreenSpaceDto</text><rect fill="#E3E3E3" height="35.8695" rx="1.75" ry="1.75" style="stroke:#181818;stroke-width:0.3499999999999999;" width="84" x="1520.4" y="1231.8004"/><text fill="#000000" font-family="sans-serif" font-size="9.8" lengthAdjust="spacing" textLength="69.3" x="1527.75" y="1247.2756">greenSpaceDto</text><text fill="#000000" font-family="sans-serif" font-size="9.8" lengthAdjust="spacing" textLength="74.2" x="1525.3" y="1260.3104">:GreenSpaceDto</text><rect fill="#E3E3E3" height="35.8695" rx="1.75" ry="1.75" style="stroke:#181818;stroke-width:0.3499999999999999;" width="110.6" x="1611.4" y="1231.8004"/><text fill="#000000" font-family="sans-serif" font-size="9.8" lengthAdjust="spacing" textLength="84.7" x="1624.35" y="1247.2756">greenSpaceListDto</text><text fill="#000000" font-family="sans-serif" font-size="9.8" lengthAdjust="spacing" textLength="100.8" x="1616.3" y="1260.3104">:List&lt;GreenSpaceDto&gt;</text><rect fill="#FFFFFF" height="1128.2961" style="stroke:#181818;stroke-width:0.6999999999999998;" width="7" x="37.1" y="91.6043"/><rect fill="#FFFFFF" height="442.0568" style="stroke:#181818;stroke-width:0.6999999999999998;" width="7" x="247.8" y="107.908"/><rect fill="#FFFFFF" height="21.9037" style="stroke:#181818;stroke-width:0.6999999999999998;" width="7" x="247.8" y="571.8686"/><rect fill="#FFFFFF" height="604.2244" style="stroke:#181818;stroke-width:0.6999999999999998;" width="7" x="247.8" y="615.676"/><rect fill="#FFFFFF" height="367.7146" style="stroke:#181818;stroke-width:0.6999999999999998;" width="7" x="504" y="160.3465"/><rect fill="#FFFFFF" height="560.417" style="stroke:#181818;stroke-width:0.6999999999999998;" width="7" x="504" y="637.5797"/><rect fill="#FFFFFF" height="23.5348" style="stroke:#181818;stroke-width:0.6999999999999998;" width="7" x="632.45" y="189.2502"/><rect fill="#FFFFFF" height="36.5695" style="stroke:#181818;stroke-width:0.6999999999999998;" width="7" x="735.35" y="241.6887"/><rect fill="#FFFFFF" height="36.5695" style="stroke:#181818;stroke-width:0.6999999999999998;" width="7" x="828.45" y="307.1619"/><rect fill="#FFFFFF" height="21.9037" style="stroke:#181818;stroke-width:0.6999999999999998;" width="7" x="907.55" y="365.6352"/><rect fill="#FFFFFF" height="21.9037" style="stroke:#181818;stroke-width:0.6999999999999998;" width="7" x="907.55" y="659.4834"/><rect fill="#FFFFFF" height="21.9037" style="stroke:#181818;stroke-width:0.6999999999999998;" width="7" x="982.45" y="409.4426"/><rect fill="#FFFFFF" height="21.9037" style="stroke:#181818;stroke-width:0.6999999999999998;" width="7" x="982.45" y="703.2908"/><rect fill="#FFFFFF" height="52.9074" style="stroke:#181818;stroke-width:0.6999999999999998;" width="7" x="1080.8" y="453.25"/><rect fill="#FFFFFF" height="25.4037" style="stroke:#181818;stroke-width:0.6999999999999998;" width="7" x="1084.3" y="480.7537"/><rect fill="#FFFFFF" height="186.8918" style="stroke:#181818;stroke-width:0.6999999999999998;" width="7" x="1232.7" y="747.0982"/><rect fill="#FFFFFF" height="220.1992" style="stroke:#181818;stroke-width:0.6999999999999998;" width="7" x="1348.9" y="955.8937"/><rect fill="#FFFFFF" height="62.7074" style="stroke:#181818;stroke-width:0.6999999999999998;" width="7" x="1454.6" y="849.3789"/><rect fill="#FFFFFF" height="25.4037" style="stroke:#181818;stroke-width:0.6999999999999998;" width="7" x="1458.1" y="886.6826"/><rect fill="#FFFFFF" height="21.9037" style="stroke:#181818;stroke-width:0.6999999999999998;" width="7" x="1454.6" y="1039.7707"/><rect fill="#FFFFFF" height="21.9037" style="stroke:#181818;stroke-width:0.6999999999999998;" width="7" x="1558.9" y="1083.5781"/><rect fill="#FFFFFF" height="26.8037" style="stroke:#181818;stroke-width:0.6999999999999998;" width="7" x="1663.2" y="1127.3855"/><polygon fill="#181818" points="239.4,105.108,246.4,107.908,239.4,110.708,242.2,107.908" style="stroke:#181818;stroke-width:0.6999999999999998;"/><line style="stroke:#181818;stroke-width:0.6999999999999998;" x1="44.1" x2="243.6" y1="107.908" y2="107.908"/><text fill="#000000" font-family="sans-serif" font-size="9.1" font-weight="bold" lengthAdjust="spacing" textLength="4.9" x="49" y="104.2241">1</text><text fill="#000000" font-family="sans-serif" font-size="9.1" lengthAdjust="spacing" textLength="182.7" x="56.7" y="104.2241">asks to list all greenSpaces managed by him</text><polygon fill="#181818" points="435.4,127.0117,442.4,129.8117,435.4,132.6117,438.2,129.8117" style="stroke:#181818;stroke-width:0.6999999999999998;"/><line style="stroke:#181818;stroke-width:0.6999999999999998;" x1="254.8" x2="439.6" y1="129.8117" y2="129.8117"/><text fill="#000000" font-family="sans-serif" font-size="9.1" font-weight="bold" lengthAdjust="spacing" textLength="4.9" x="259.7" y="126.1278">2</text><text fill="#000000" font-family="sans-serif" font-size="9.1" lengthAdjust="spacing" textLength="25.2" x="267.4" y="126.1278">create</text><rect fill="#E3E3E3" height="22.8348" rx="1.75" ry="1.75" style="stroke:#181818;stroke-width:0.3499999999999999;" width="127.4" x="443.8" y="113.508"/><text fill="#000000" font-family="sans-serif" font-size="9.8" lengthAdjust="spacing" textLength="117.6" x="448.7" y="128.9832">:ListGreenSpaceController</text><polygon fill="#181818" points="495.6,157.5465,502.6,160.3465,495.6,163.1465,498.4,160.3465" style="stroke:#181818;stroke-width:0.6999999999999998;"/><line style="stroke:#181818;stroke-width:0.6999999999999998;" x1="254.8" x2="499.8" y1="160.3465" y2="160.3465"/><text fill="#000000" font-family="sans-serif" font-size="9.1" font-weight="bold" lengthAdjust="spacing" textLength="4.9" x="259.7" y="156.6626">3</text><text fill="#000000" font-family="sans-serif" font-size="9.1" lengthAdjust="spacing" textLength="122.5" x="267.4" y="156.6626">getCollaboratorByEmail(email)</text><polygon fill="#181818" points="579.6,179.4502,586.6,182.2502,579.6,185.0502,582.4,182.2502" style="stroke:#181818;stroke-width:0.6999999999999998;"/><line style="stroke:#181818;stroke-width:0.6999999999999998;" x1="511" x2="583.8" y1="182.2502" y2="182.2502"/><text fill="#000000" font-family="sans-serif" font-size="9.1" font-weight="bold" lengthAdjust="spacing" textLength="4.9" x="515.9" y="178.5663">4</text><text fill="#000000" font-family="sans-serif" font-size="9.1" lengthAdjust="spacing" textLength="52.5" x="523.6" y="178.5663">getInstance()</text><rect fill="#E3E3E3" height="22.8348" rx="1.75" ry="1.75" style="stroke:#181818;stroke-width:0.3499999999999999;" width="95.9" x="588" y="165.9465"/><text fill="#000000" font-family="sans-serif" font-size="9.8" lengthAdjust="spacing" textLength="86.1" x="592.9" y="181.4217">:ApplicationSession</text><polygon fill="#181818" points="518.7,209.985,511.7,212.785,518.7,215.585,515.9,212.785" style="stroke:#181818;stroke-width:0.6999999999999998;"/><line style="stroke:#181818;stroke-width:0.6999999999999998;" x1="514.5" x2="635.25" y1="212.785" y2="212.785"/><text fill="#000000" font-family="sans-serif" font-size="9.1" font-weight="bold" lengthAdjust="spacing" textLength="4.9" x="522.9" y="209.1011">5</text><text fill="#000000" font-family="sans-serif" font-size="9.1" lengthAdjust="spacing" textLength="47.6" x="530.6" y="209.1011">appSession</text><polygon fill="#181818" points="682.5,231.8887,689.5,234.6887,682.5,237.4887,685.3,234.6887" style="stroke:#181818;stroke-width:0.6999999999999998;"/><line style="stroke:#181818;stroke-width:0.6999999999999998;" x1="511" x2="686.7" y1="234.6887" y2="234.6887"/><text fill="#000000" font-family="sans-serif" font-size="9.1" font-weight="bold" lengthAdjust="spacing" textLength="4.9" x="515.9" y="231.0048">6</text><text fill="#000000" font-family="sans-serif" font-size="9.1" lengthAdjust="spacing" textLength="80.5" x="523.6" y="231.0048">getCurrentSession()</text><rect fill="#E3E3E3" height="35.8695" rx="1.75" ry="1.75" style="stroke:#181818;stroke-width:0.3499999999999999;" width="95.9" x="690.9" y="218.385"/><text fill="#000000" font-family="sans-serif" font-size="9.8" lengthAdjust="spacing" textLength="51.8" x="712.95" y="233.8602">appSession</text><text fill="#000000" font-family="sans-serif" font-size="9.8" lengthAdjust="spacing" textLength="86.1" x="695.8" y="246.8949">:ApplicationSession</text><polygon fill="#181818" points="518.7,275.4582,511.7,278.2582,518.7,281.0582,515.9,278.2582" style="stroke:#181818;stroke-width:0.6999999999999998;"/><line style="stroke:#181818;stroke-width:0.6999999999999998;stroke-dasharray:2.0,2.0;" x1="514.5" x2="738.15" y1="278.2582" y2="278.2582"/><text fill="#000000" font-family="sans-serif" font-size="9.1" font-weight="bold" lengthAdjust="spacing" textLength="4.9" x="522.9" y="274.5743">7</text><text fill="#000000" font-family="sans-serif" font-size="9.1" lengthAdjust="spacing" textLength="60.9" x="530.6" y="274.5743">currentSession</text><polygon fill="#181818" points="785.4,297.3619,792.4,300.1619,785.4,302.9619,788.2,300.1619" style="stroke:#181818;stroke-width:0.6999999999999998;"/><line style="stroke:#181818;stroke-width:0.6999999999999998;" x1="511" x2="789.6" y1="300.1619" y2="300.1619"/><text fill="#000000" font-family="sans-serif" font-size="9.1" font-weight="bold" lengthAdjust="spacing" textLength="4.9" x="515.9" y="296.478">8</text><text fill="#000000" font-family="sans-serif" font-size="9.1" lengthAdjust="spacing" textLength="60.2" x="523.6" y="296.478">getUserEmail()</text><rect fill="#E3E3E3" height="35.8695" rx="1.75" ry="1.75" style="stroke:#181818;stroke-width:0.3499999999999999;" width="76.3" x="793.8" y="283.8582"/><text fill="#000000" font-family="sans-serif" font-size="9.8" lengthAdjust="spacing" textLength="66.5" x="798.7" y="299.3334">currentSession</text><text fill="#000000" font-family="sans-serif" font-size="9.8" lengthAdjust="spacing" textLength="58.1" x="802.9" y="312.3682">:UserSession</text><polygon fill="#181818" points="518.7,340.9314,511.7,343.7314,518.7,346.5314,515.9,343.7314" style="stroke:#181818;stroke-width:0.6999999999999998;"/><line style="stroke:#181818;stroke-width:0.6999999999999998;stroke-dasharray:2.0,2.0;" x1="514.5" x2="831.25" y1="343.7314" y2="343.7314"/><text fill="#000000" font-family="sans-serif" font-size="9.1" font-weight="bold" lengthAdjust="spacing" textLength="4.9" x="522.9" y="340.0476">9</text><text fill="#000000" font-family="sans-serif" font-size="9.1" lengthAdjust="spacing" textLength="21.7" x="530.6" y="340.0476">email</text><polygon fill="#181818" points="899.15,362.8352,906.15,365.6352,899.15,368.4352,901.95,365.6352" style="stroke:#181818;stroke-width:0.6999999999999998;"/><line style="stroke:#181818;stroke-width:0.6999999999999998;" x1="511" x2="903.35" y1="365.6352" y2="365.6352"/><text fill="#000000" font-family="sans-serif" font-size="9.1" font-weight="bold" lengthAdjust="spacing" textLength="9.8" x="515.9" y="361.9513">10</text><text fill="#000000" font-family="sans-serif" font-size="9.1" lengthAdjust="spacing" textLength="52.5" x="528.5" y="361.9513">getInstance()</text><polygon fill="#181818" points="518.7,384.7389,511.7,387.5389,518.7,390.3389,515.9,387.5389" style="stroke:#181818;stroke-width:0.6999999999999998;"/><line style="stroke:#181818;stroke-width:0.6999999999999998;stroke-dasharray:2.0,2.0;" x1="514.5" x2="910.35" y1="387.5389" y2="387.5389"/><text fill="#000000" font-family="sans-serif" font-size="9.1" font-weight="bold" lengthAdjust="spacing" textLength="9.8" x="522.9" y="383.855">11</text><text fill="#000000" font-family="sans-serif" font-size="9.1" lengthAdjust="spacing" textLength="46.9" x="535.5" y="383.855">repositories</text><polygon fill="#181818" points="974.05,406.6426,981.05,409.4426,974.05,412.2426,976.85,409.4426" style="stroke:#181818;stroke-width:0.6999999999999998;"/><line style="stroke:#181818;stroke-width:0.6999999999999998;" x1="511" x2="978.25" y1="409.4426" y2="409.4426"/><text fill="#000000" font-family="sans-serif" font-size="9.1" font-weight="bold" lengthAdjust="spacing" textLength="9.8" x="515.9" y="405.7587">12</text><text fill="#000000" font-family="sans-serif" font-size="9.1" lengthAdjust="spacing" textLength="104.3" x="528.5" y="405.7587">getCollaboratorRepository</text><polygon fill="#181818" points="518.7,428.5463,511.7,431.3463,518.7,434.1463,515.9,431.3463" style="stroke:#181818;stroke-width:0.6999999999999998;"/><line style="stroke:#181818;stroke-width:0.6999999999999998;stroke-dasharray:2.0,2.0;" x1="514.5" x2="985.25" y1="431.3463" y2="431.3463"/><text fill="#000000" font-family="sans-serif" font-size="9.1" font-weight="bold" lengthAdjust="spacing" textLength="9.8" x="522.9" y="427.6624">13</text><text fill="#000000" font-family="sans-serif" font-size="9.1" lengthAdjust="spacing" textLength="90.3" x="535.5" y="427.6624">collaboratorRepository</text><polygon fill="#181818" points="1072.4,450.45,1079.4,453.25,1072.4,456.05,1075.2,453.25" style="stroke:#181818;stroke-width:0.6999999999999998;"/><line style="stroke:#181818;stroke-width:0.6999999999999998;" x1="511" x2="1076.6" y1="453.25" y2="453.25"/><text fill="#000000" font-family="sans-serif" font-size="9.1" font-weight="bold" lengthAdjust="spacing" textLength="9.8" x="515.9" y="449.5661">14</text><text fill="#000000" font-family="sans-serif" font-size="9.1" lengthAdjust="spacing" textLength="122.5" x="528.5" y="449.5661">getCollaboratorByEmail(email)</text><line style="stroke:#181818;stroke-width:0.6999999999999998;" x1="1087.8" x2="1120.7" y1="471.6537" y2="471.6537"/><line style="stroke:#181818;stroke-width:0.6999999999999998;" x1="1120.7" x2="1120.7" y1="471.6537" y2="480.7537"/><line style="stroke:#181818;stroke-width:0.6999999999999998;" x1="1092" x2="1120.7" y1="480.7537" y2="480.7537"/><polygon fill="#181818" points="1099,477.9537,1092,480.7537,1099,483.5537,1096.2,480.7537" style="stroke:#181818;stroke-width:0.6999999999999998;"/><text fill="#000000" font-family="sans-serif" font-size="9.1" font-weight="bold" lengthAdjust="spacing" textLength="9.8" x="1096.2" y="467.9698">15</text><text fill="#000000" font-family="sans-serif" font-size="9.1" lengthAdjust="spacing" textLength="122.5" x="1108.8" y="467.9698">getCollaboratorByEmail(email)</text><polygon fill="#181818" points="518.7,503.3574,511.7,506.1574,518.7,508.9574,515.9,506.1574" style="stroke:#181818;stroke-width:0.6999999999999998;"/><line style="stroke:#181818;stroke-width:0.6999999999999998;stroke-dasharray:2.0,2.0;" x1="514.5" x2="1083.6" y1="506.1574" y2="506.1574"/><text fill="#000000" font-family="sans-serif" font-size="9.1" font-weight="bold" lengthAdjust="spacing" textLength="9.8" x="522.9" y="502.4735">16</text><text fill="#000000" font-family="sans-serif" font-size="9.1" lengthAdjust="spacing" textLength="83.3" x="535.5" y="502.4735">greenSpaceManager</text><polygon fill="#181818" points="262.5,525.2611,255.5,528.0611,262.5,530.8611,259.7,528.0611" style="stroke:#181818;stroke-width:0.6999999999999998;"/><line style="stroke:#181818;stroke-width:0.6999999999999998;stroke-dasharray:2.0,2.0;" x1="258.3" x2="506.8" y1="528.0611" y2="528.0611"/><text fill="#000000" font-family="sans-serif" font-size="9.1" font-weight="bold" lengthAdjust="spacing" textLength="9.8" x="266.7" y="524.3772">17</text><text fill="#000000" font-family="sans-serif" font-size="9.1" lengthAdjust="spacing" textLength="83.3" x="279.3" y="524.3772">greenSpaceManager</text><polygon fill="#181818" points="51.8,547.1648,44.8,549.9648,51.8,552.7648,49,549.9648" style="stroke:#181818;stroke-width:0.6999999999999998;"/><line style="stroke:#181818;stroke-width:0.6999999999999998;stroke-dasharray:2.0,2.0;" x1="47.6" x2="250.6" y1="549.9648" y2="549.9648"/><text fill="#000000" font-family="sans-serif" font-size="9.1" font-weight="bold" lengthAdjust="spacing" textLength="9.8" x="56" y="546.281">18</text><text fill="#000000" font-family="sans-serif" font-size="9.1" lengthAdjust="spacing" textLength="163.1" x="68.6" y="546.281">asks the user to choose a sorting option</text><polygon fill="#181818" points="239.4,569.0686,246.4,571.8686,239.4,574.6686,242.2,571.8686" style="stroke:#181818;stroke-width:0.6999999999999998;"/><line style="stroke:#181818;stroke-width:0.6999999999999998;" x1="44.1" x2="243.6" y1="571.8686" y2="571.8686"/><text fill="#000000" font-family="sans-serif" font-size="9.1" font-weight="bold" lengthAdjust="spacing" textLength="9.8" x="49" y="568.1847">19</text><text fill="#000000" font-family="sans-serif" font-size="9.1" lengthAdjust="spacing" textLength="99.4" x="61.6" y="568.1847">chooses a sorting option</text><polygon fill="#181818" points="51.8,590.9723,44.8,593.7723,51.8,596.5723,49,593.7723" style="stroke:#181818;stroke-width:0.6999999999999998;"/><line style="stroke:#181818;stroke-width:0.6999999999999998;stroke-dasharray:2.0,2.0;" x1="47.6" x2="250.6" y1="593.7723" y2="593.7723"/><text fill="#000000" font-family="sans-serif" font-size="9.1" font-weight="bold" lengthAdjust="spacing" textLength="9.8" x="56" y="590.0884">20</text><text fill="#000000" font-family="sans-serif" font-size="9.1" lengthAdjust="spacing" textLength="84" x="68.6" y="590.0884">asks for confirmation</text><polygon fill="#181818" points="239.4,612.876,246.4,615.676,239.4,618.476,242.2,615.676" style="stroke:#181818;stroke-width:0.6999999999999998;"/><line style="stroke:#181818;stroke-width:0.6999999999999998;" x1="44.1" x2="243.6" y1="615.676" y2="615.676"/><text fill="#000000" font-family="sans-serif" font-size="9.1" font-weight="bold" lengthAdjust="spacing" textLength="9.8" x="49" y="611.9921">21</text><text fill="#000000" font-family="sans-serif" font-size="9.1" lengthAdjust="spacing" textLength="160.3" x="61.6" y="611.9921">confirms that he wants to create the list</text><polygon fill="#181818" points="495.6,634.7797,502.6,637.5797,495.6,640.3797,498.4,637.5797" style="stroke:#181818;stroke-width:0.6999999999999998;"/><line style="stroke:#181818;stroke-width:0.6999999999999998;" x1="254.8" x2="499.8" y1="637.5797" y2="637.5797"/><text fill="#000000" font-family="sans-serif" font-size="9.1" font-weight="bold" lengthAdjust="spacing" textLength="9.8" x="259.7" y="633.8958">22</text><text fill="#000000" font-family="sans-serif" font-size="9.1" lengthAdjust="spacing" textLength="223.3" x="272.3" y="633.8958">getGreenSpaceList(greenSpaceManager,sortingOption)</text><polygon fill="#181818" points="899.15,656.6834,906.15,659.4834,899.15,662.2834,901.95,659.4834" style="stroke:#181818;stroke-width:0.6999999999999998;"/><line style="stroke:#181818;stroke-width:0.6999999999999998;" x1="511" x2="903.35" y1="659.4834" y2="659.4834"/><text fill="#000000" font-family="sans-serif" font-size="9.1" font-weight="bold" lengthAdjust="spacing" textLength="9.8" x="515.9" y="655.7995">23</text><text fill="#000000" font-family="sans-serif" font-size="9.1" lengthAdjust="spacing" textLength="52.5" x="528.5" y="655.7995">getInstance()</text><polygon fill="#181818" points="518.7,678.5871,511.7,681.3871,518.7,684.1871,515.9,681.3871" style="stroke:#181818;stroke-width:0.6999999999999998;"/><line style="stroke:#181818;stroke-width:0.6999999999999998;stroke-dasharray:2.0,2.0;" x1="514.5" x2="910.35" y1="681.3871" y2="681.3871"/><text fill="#000000" font-family="sans-serif" font-size="9.1" font-weight="bold" lengthAdjust="spacing" textLength="9.8" x="522.9" y="677.7032">24</text><text fill="#000000" font-family="sans-serif" font-size="9.1" lengthAdjust="spacing" textLength="46.9" x="535.5" y="677.7032">repositories</text><polygon fill="#181818" points="974.05,700.4908,981.05,703.2908,974.05,706.0908,976.85,703.2908" style="stroke:#181818;stroke-width:0.6999999999999998;"/><line style="stroke:#181818;stroke-width:0.6999999999999998;" x1="511" x2="978.25" y1="703.2908" y2="703.2908"/><text fill="#000000" font-family="sans-serif" font-size="9.1" font-weight="bold" lengthAdjust="spacing" textLength="9.8" x="515.9" y="699.6069">25</text><text fill="#000000" font-family="sans-serif" font-size="9.1" lengthAdjust="spacing" textLength="112" x="528.5" y="699.6069">getGreenSpaceRepository()</text><polygon fill="#181818" points="518.7,722.3945,511.7,725.1945,518.7,727.9945,515.9,725.1945" style="stroke:#181818;stroke-width:0.6999999999999998;"/><line style="stroke:#181818;stroke-width:0.6999999999999998;stroke-dasharray:2.0,2.0;" x1="514.5" x2="985.25" y1="725.1945" y2="725.1945"/><text fill="#000000" font-family="sans-serif" font-size="9.1" font-weight="bold" lengthAdjust="spacing" textLength="9.8" x="522.9" y="721.5106">26</text><text fill="#000000" font-family="sans-serif" font-size="9.1" lengthAdjust="spacing" textLength="91.7" x="535.5" y="721.5106">greenSpaceRepository</text><polygon fill="#181818" points="1224.3,744.2982,1231.3,747.0982,1224.3,749.8982,1227.1,747.0982" style="stroke:#181818;stroke-width:0.6999999999999998;"/><line style="stroke:#181818;stroke-width:0.6999999999999998;" x1="511" x2="1228.5" y1="747.0982" y2="747.0982"/><text fill="#000000" font-family="sans-serif" font-size="9.1" font-weight="bold" lengthAdjust="spacing" textLength="9.8" x="515.9" y="743.4144">27</text><text fill="#000000" font-family="sans-serif" font-size="9.1" lengthAdjust="spacing" textLength="223.3" x="528.5" y="743.4144">getGreenSpaceList(greenSpaceManager,sortingOption)</text><polygon fill="#181818" points="1402.1,766.202,1409.1,769.002,1402.1,771.802,1404.9,769.002" style="stroke:#181818;stroke-width:0.6999999999999998;"/><line style="stroke:#181818;stroke-width:0.6999999999999998;" x1="1239.7" x2="1406.3" y1="769.002" y2="769.002"/><text fill="#000000" font-family="sans-serif" font-size="9.1" font-weight="bold" lengthAdjust="spacing" textLength="9.8" x="1244.6" y="765.3181">28</text><text fill="#000000" font-family="sans-serif" font-size="9.1" lengthAdjust="spacing" textLength="30.8" x="1257.2" y="765.3181">create()</text><rect fill="#E3E3E3" height="35.8695" rx="1.75" ry="1.75" style="stroke:#181818;stroke-width:0.3499999999999999;" width="95.2" x="1410.5" y="752.6982"/><text fill="#000000" font-family="sans-serif" font-size="9.8" lengthAdjust="spacing" textLength="69.3" x="1423.45" y="768.1734">greenSpaceList</text><text fill="#000000" font-family="sans-serif" font-size="9.8" lengthAdjust="spacing" textLength="85.4" x="1415.4" y="781.2082">:List&lt;GreenSpace&gt;</text><path d="M1164.1,801.1678 L1215.2,801.1678 L1215.2,807.6715 L1208.2,814.6715 L1164.1,814.6715 L1164.1,801.1678 " fill="#EEEEEE" style="stroke:#000000;stroke-width:1.0499999999999998;"/><rect fill="none" height="58.7111" style="stroke:#000000;stroke-width:1.0499999999999998;" width="355.6" x="1164.1" y="801.1678"/><text fill="#000000" font-family="sans-serif" font-size="9.1" font-weight="bold" lengthAdjust="spacing" textLength="19.6" x="1174.6" y="811.6876">loop</text><text fill="#000000" font-family="sans-serif" font-size="7.7" font-weight="bold" lengthAdjust="spacing" textLength="157.5" x="1225.7" y="810.8769">[for each greenSpace in greenSpaceList]</text><path d="M1171.1,819.5715 L1216.6,819.5715 L1216.6,826.0752 L1209.6,833.0752 L1171.1,833.0752 L1171.1,819.5715 " fill="#EEEEEE" style="stroke:#000000;stroke-width:1.0499999999999998;"/><rect fill="none" height="35.4074" style="stroke:#000000;stroke-width:1.0499999999999998;" width="341.6" x="1171.1" y="819.5715"/><text fill="#000000" font-family="sans-serif" font-size="9.1" font-weight="bold" lengthAdjust="spacing" textLength="14" x="1181.6" y="830.0913">opt</text><text fill="#000000" font-family="sans-serif" font-size="7.7" font-weight="bold" lengthAdjust="spacing" textLength="182" x="1227.1" y="829.2806">[greenSpace.getGSM() == greenSpaceManager]</text><polygon fill="#181818" points="1446.2,846.5789,1453.2,849.3789,1446.2,852.1789,1449,849.3789" style="stroke:#181818;stroke-width:0.6999999999999998;"/><line style="stroke:#181818;stroke-width:0.6999999999999998;" x1="1239.7" x2="1450.4" y1="849.3789" y2="849.3789"/><text fill="#000000" font-family="sans-serif" font-size="9.1" font-weight="bold" lengthAdjust="spacing" textLength="9.8" x="1244.6" y="845.695">29</text><text fill="#000000" font-family="sans-serif" font-size="9.1" lengthAdjust="spacing" textLength="103.6" x="1257.2" y="845.695">add(greenSpaceManager)</text><line style="stroke:#181818;stroke-width:0.6999999999999998;" x1="1461.6" x2="1494.5" y1="877.5826" y2="877.5826"/><line style="stroke:#181818;stroke-width:0.6999999999999998;" x1="1494.5" x2="1494.5" y1="877.5826" y2="886.6826"/><line style="stroke:#181818;stroke-width:0.6999999999999998;" x1="1465.8" x2="1494.5" y1="886.6826" y2="886.6826"/><polygon fill="#181818" points="1472.8,883.8826,1465.8,886.6826,1472.8,889.4826,1470,886.6826" style="stroke:#181818;stroke-width:0.6999999999999998;"/><text fill="#000000" font-family="sans-serif" font-size="9.1" font-weight="bold" lengthAdjust="spacing" textLength="9.8" x="1470" y="873.8987">30</text><text fill="#000000" font-family="sans-serif" font-size="9.1" lengthAdjust="spacing" textLength="74.9" x="1482.6" y="873.8987">sort(sortingOption)</text><polygon fill="#181818" points="1247.4,909.2863,1240.4,912.0863,1247.4,914.8863,1244.6,912.0863" style="stroke:#181818;stroke-width:0.6999999999999998;"/><line style="stroke:#181818;stroke-width:0.6999999999999998;stroke-dasharray:2.0,2.0;" x1="1243.2" x2="1457.4" y1="912.0863" y2="912.0863"/><text fill="#000000" font-family="sans-serif" font-size="9.1" font-weight="bold" lengthAdjust="spacing" textLength="9.8" x="1251.6" y="908.4024">31</text><text fill="#000000" font-family="sans-serif" font-size="9.1" lengthAdjust="spacing" textLength="63" x="1264.2" y="908.4024">greenSpaceList</text><polygon fill="#181818" points="518.7,931.19,511.7,933.99,518.7,936.79,515.9,933.99" style="stroke:#181818;stroke-width:0.6999999999999998;"/><line style="stroke:#181818;stroke-width:0.6999999999999998;stroke-dasharray:2.0,2.0;" x1="514.5" x2="1235.5" y1="933.99" y2="933.99"/><text fill="#000000" font-family="sans-serif" font-size="9.1" font-weight="bold" lengthAdjust="spacing" textLength="9.8" x="522.9" y="930.3062">32</text><text fill="#000000" font-family="sans-serif" font-size="9.1" lengthAdjust="spacing" textLength="63" x="535.5" y="930.3062">greenSpaceList</text><polygon fill="#181818" points="1340.5,953.0937,1347.5,955.8937,1340.5,958.6937,1343.3,955.8937" style="stroke:#181818;stroke-width:0.6999999999999998;"/><line style="stroke:#181818;stroke-width:0.6999999999999998;" x1="511" x2="1344.7" y1="955.8937" y2="955.8937"/><text fill="#000000" font-family="sans-serif" font-size="9.1" font-weight="bold" lengthAdjust="spacing" textLength="9.8" x="515.9" y="952.2099">33</text><text fill="#000000" font-family="sans-serif" font-size="9.1" lengthAdjust="spacing" textLength="94.5" x="528.5" y="952.2099">toDTO(greenSpaceList)</text><polygon fill="#181818" points="1603,974.9975,1610,977.7975,1603,980.5975,1605.8,977.7975" style="stroke:#181818;stroke-width:0.6999999999999998;"/><line style="stroke:#181818;stroke-width:0.6999999999999998;stroke-dasharray:2.0,2.0;" x1="1355.9" x2="1607.2" y1="977.7975" y2="977.7975"/><text fill="#000000" font-family="sans-serif" font-size="9.1" font-weight="bold" lengthAdjust="spacing" textLength="9.8" x="1360.8" y="974.1136">34</text><text fill="#000000" font-family="sans-serif" font-size="9.1" lengthAdjust="spacing" textLength="30.8" x="1373.4" y="974.1136">create()</text><rect fill="#E3E3E3" height="35.8695" rx="1.75" ry="1.75" style="stroke:#181818;stroke-width:0.3499999999999999;" width="110.6" x="1611.4" y="961.4937"/><text fill="#000000" font-family="sans-serif" font-size="9.8" lengthAdjust="spacing" textLength="84.7" x="1624.35" y="976.9689">greenSpaceListDto</text><text fill="#000000" font-family="sans-serif" font-size="9.8" lengthAdjust="spacing" textLength="100.8" x="1616.3" y="990.0037">:List&lt;GreenSpaceDto&gt;</text><path d="M1294.3,1009.9633 L1345.4,1009.9633 L1345.4,1016.467 L1338.4,1023.467 L1294.3,1023.467 L1294.3,1009.9633 " fill="#EEEEEE" style="stroke:#000000;stroke-width:1.0499999999999998;"/><rect fill="none" height="123.0223" style="stroke:#000000;stroke-width:1.0499999999999998;" width="434.7" x="1294.3" y="1009.9633"/><text fill="#000000" font-family="sans-serif" font-size="9.1" font-weight="bold" lengthAdjust="spacing" textLength="19.6" x="1304.8" y="1020.4831">loop</text><text fill="#000000" font-family="sans-serif" font-size="7.7" font-weight="bold" lengthAdjust="spacing" textLength="105.7" x="1355.9" y="1019.6724">[for each entry in entryList]</text><polygon fill="#181818" points="1446.2,1036.9707,1453.2,1039.7707,1446.2,1042.5707,1449,1039.7707" style="stroke:#181818;stroke-width:0.6999999999999998;"/><line style="stroke:#181818;stroke-width:0.6999999999999998;" x1="1355.9" x2="1450.4" y1="1039.7707" y2="1039.7707"/><text fill="#000000" font-family="sans-serif" font-size="9.1" font-weight="bold" lengthAdjust="spacing" textLength="9.8" x="1360.8" y="1036.0868">35</text><text fill="#000000" font-family="sans-serif" font-size="9.1" lengthAdjust="spacing" textLength="20.3" x="1373.4" y="1036.0868">get(i)</text><polygon fill="#181818" points="1363.6,1058.8744,1356.6,1061.6744,1363.6,1064.4744,1360.8,1061.6744" style="stroke:#181818;stroke-width:0.6999999999999998;"/><line style="stroke:#181818;stroke-width:0.6999999999999998;stroke-dasharray:2.0,2.0;" x1="1359.4" x2="1457.4" y1="1061.6744" y2="1061.6744"/><text fill="#000000" font-family="sans-serif" font-size="9.1" font-weight="bold" lengthAdjust="spacing" textLength="9.8" x="1367.8" y="1057.9905">36</text><text fill="#000000" font-family="sans-serif" font-size="9.1" lengthAdjust="spacing" textLength="20.3" x="1380.4" y="1057.9905">entry</text><polygon fill="#181818" points="1550.5,1080.7781,1557.5,1083.5781,1550.5,1086.3781,1553.3,1083.5781" style="stroke:#181818;stroke-width:0.6999999999999998;"/><line style="stroke:#181818;stroke-width:0.6999999999999998;" x1="1355.9" x2="1554.7" y1="1083.5781" y2="1083.5781"/><text fill="#000000" font-family="sans-serif" font-size="9.1" font-weight="bold" lengthAdjust="spacing" textLength="9.8" x="1360.8" y="1079.8942">37</text><text fill="#000000" font-family="sans-serif" font-size="9.1" lengthAdjust="spacing" textLength="73.5" x="1373.4" y="1079.8942">toDTOEntry(entry)</text><polygon fill="#181818" points="1363.6,1102.6818,1356.6,1105.4818,1363.6,1108.2818,1360.8,1105.4818" style="stroke:#181818;stroke-width:0.6999999999999998;"/><line style="stroke:#181818;stroke-width:0.6999999999999998;stroke-dasharray:2.0,2.0;" x1="1359.4" x2="1561.7" y1="1105.4818" y2="1105.4818"/><text fill="#000000" font-family="sans-serif" font-size="9.1" font-weight="bold" lengthAdjust="spacing" textLength="9.8" x="1367.8" y="1101.7979">38</text><text fill="#000000" font-family="sans-serif" font-size="9.1" lengthAdjust="spacing" textLength="34.3" x="1380.4" y="1101.7979">entryDto</text><polygon fill="#181818" points="1654.8,1124.5855,1661.8,1127.3855,1654.8,1130.1855,1657.6,1127.3855" style="stroke:#181818;stroke-width:0.6999999999999998;"/><line style="stroke:#181818;stroke-width:0.6999999999999998;" x1="1355.9" x2="1659" y1="1127.3855" y2="1127.3855"/><text fill="#000000" font-family="sans-serif" font-size="9.1" font-weight="bold" lengthAdjust="spacing" textLength="9.8" x="1360.8" y="1123.7017">39</text><text fill="#000000" font-family="sans-serif" font-size="9.1" lengthAdjust="spacing" textLength="51.8" x="1373.4" y="1123.7017">add(taskDto)</text><polygon fill="#181818" points="1363.6,1151.3893,1356.6,1154.1893,1363.6,1156.9893,1360.8,1154.1893" style="stroke:#181818;stroke-width:0.6999999999999998;"/><line style="stroke:#181818;stroke-width:0.6999999999999998;stroke-dasharray:2.0,2.0;" x1="1359.4" x2="1666" y1="1154.1893" y2="1154.1893"/><text fill="#000000" font-family="sans-serif" font-size="9.1" font-weight="bold" lengthAdjust="spacing" textLength="9.8" x="1367.8" y="1150.5054">40</text><text fill="#000000" font-family="sans-serif" font-size="9.1" lengthAdjust="spacing" textLength="54.6" x="1380.4" y="1150.5054">listEntriesDto</text><polygon fill="#181818" points="518.7,1173.293,511.7,1176.093,518.7,1178.893,515.9,1176.093" style="stroke:#181818;stroke-width:0.6999999999999998;"/><line style="stroke:#181818;stroke-width:0.6999999999999998;stroke-dasharray:2.0,2.0;" x1="514.5" x2="1351.7" y1="1176.093" y2="1176.093"/><text fill="#000000" font-family="sans-serif" font-size="9.1" font-weight="bold" lengthAdjust="spacing" textLength="9.8" x="522.9" y="1172.4091">41</text><text fill="#000000" font-family="sans-serif" font-size="9.1" lengthAdjust="spacing" textLength="77" x="535.5" y="1172.4091">greenSpaceListDto</text><polygon fill="#181818" points="262.5,1195.1967,255.5,1197.9967,262.5,1200.7967,259.7,1197.9967" style="stroke:#181818;stroke-width:0.6999999999999998;"/><line style="stroke:#181818;stroke-width:0.6999999999999998;stroke-dasharray:2.0,2.0;" x1="258.3" x2="506.8" y1="1197.9967" y2="1197.9967"/><text fill="#000000" font-family="sans-serif" font-size="9.1" font-weight="bold" lengthAdjust="spacing" textLength="9.8" x="266.7" y="1194.3128">42</text><text fill="#000000" font-family="sans-serif" font-size="9.1" lengthAdjust="spacing" textLength="77" x="279.3" y="1194.3128">greenSpaceListDto</text><polygon fill="#181818" points="48.3,1217.1004,41.3,1219.9004,48.3,1222.7004,45.5,1219.9004" style="stroke:#181818;stroke-width:0.6999999999999998;"/><line style="stroke:#181818;stroke-width:0.6999999999999998;stroke-dasharray:2.0,2.0;" x1="44.1" x2="250.6" y1="1219.9004" y2="1219.9004"/><text fill="#000000" font-family="sans-serif" font-size="9.1" font-weight="bold" lengthAdjust="spacing" textLength="9.8" x="52.5" y="1216.2165">43</text><text fill="#000000" font-family="sans-serif" font-size="9.1" lengthAdjust="spacing" textLength="56" x="65.1" y="1216.2165">shows the list</text><!--SRC=[rLXDJ-Cm4BtdLrXSDg1bVm1QaDXILPNAWWZSa5PkQbgBr8viTrd-_OwTBpknqxXxsXoWJMVUcsVFZ2UHxvILME0zsdF6yvtWUuAKE914jh-KE7_7MvAfpu8WGNA5sRQm3UGER_W7PLlqXWj9aWGV56U7_Pg89Fcoenk2tZXNQ_udmRdY0fqj127ibMK0JT0zPW0lNbcwoExFpn2M23uaWAreJalC53gxMb6fZ9VnULaQivVbgDMCCoLuKH1Xh6VFJwkU_MrP5ZJ7YdAM4IdXdx7yTVluw5hYigmDNbd8Q-2K7uGWJ7MEBv88soERPzdouMSlg2TISabXdIYHngozyPbHlVImkAwBi3o0PWWmxqS6guBNN60mwj31TURzmO3uVLpSRRls3kh2SzjW-knxgz7vtiCcr5jPVGnnwom0LltlU-T-qsFKFuSGxXHtmeRlnllk-M6Cj7BhySBDYdgrp9urW2u2-XihOj8yGVK5Nz3b3UGqkWBhTuaKHmL08LmKLjWIxKszRD3w4-telWDeOQ4isflD1R00halWuW88Sa70Sc3bMeBTbYWx9NvyplUO5YdHVy-zxauafkI2PeO3k7IvNLmOiYMJq5voaeR1VJocOATuc4jRDnfXhTlIdWAm8V6aZSvEvipf395YexGQgQrMjoD5wesLMtUtMhBkVLNonAbjUkHanRM3fTfaQwJOXlQOI4zlHZ6Pt1Bwcloefu_vigjS-qn89egEYg5TWVdZi55OxNoQ-lcHtD8ibheydilMESRMwF9JdDmJ7Rc1y4UT0_7yHv5Qnufrg9lXxtXvMzjtIap7tSVpeJcPXv5FO3J7OF-C1KHzv3U7_OwW0xH8VUhdEyubGHX93gC6ZDMyL7Qxjf3jezuU82e86SO83WjTQ7LaRp2mvvozKR778s7O64uabQjMY1K2bHymE9dXfff1Z78zv_X3IyP6auKpVQM3lVbQYtymsjsCFpAZ_4j_Z- -dOxtyI2kFRT-3jkqRpaT5XPgdtQAl_ADzR4zkWlM1dPO2OLtUW8FLxOt8YLJ7esUVAir7ne22yz9K6Ip6pW90bFKVLw28hLlVjFxiFZr7rzSHZMbw-BevRJR3HJq-mNbMrGWmrzH9Zh1DdF5KsvvAdswTDkb8-pX9F8gy-d46Ak7gP2Ah_c8XJd3r9vrlAgXpPHAdNQskIzCzghS5GA0uF7-dBatWLAZVC3W_rZWwulfPtdgMzXIuMzZmt0LoeQRDXvLzulb8F3a9vPxI2K_TyVlHfbUxL2R897xpnoN1aZNRCDS4gQ6P8CcyDmbPQTHXy7UAJubV8uy7NUzrtGmL34K0FI7cvdsFjwqvTni6HuIUYVGYmQ4_a6B5xsEn4jLRMXel2U3LYH-OW7r8yKCljDST_v3kwDURQgslvZLPyXS0]--></g></svg>