<?xml version="1.0" encoding="us-ascii" standalone="no"?><svg xmlns="http://www.w3.org/2000/svg" xmlns:xlink="http://www.w3.org/1999/xlink" contentStyleType="text/css" height="652px" preserveAspectRatio="none" style="width:1172px;height:652px;background:#FFFFFF;" version="1.1" viewBox="0 0 1172 652" width="1172px" zoomAndPan="magnify"><defs/><g><rect fill="#FFFFFF" height="497.0254" style="stroke:#181818;stroke-width:1.0;" width="10" x="349" y="90.5332"/><rect fill="#FFFFFF" height="31.291" style="stroke:#181818;stroke-width:1.0;" width="10" x="488" y="148.1152"/><rect fill="#FFFFFF" height="31.291" style="stroke:#181818;stroke-width:1.0;" width="10" x="595" y="210.6973"/><rect fill="#FFFFFF" height="266.9883" style="stroke:#181818;stroke-width:1.0;" width="10" x="736.5" y="273.2793"/><rect fill="#FFFFFF" height="89.582" style="stroke:#181818;stroke-width:1.0;" width="10" x="935.5" y="419.3945"/><rect fill="#FFFFFF" height="36.291" style="stroke:#181818;stroke-width:1.0;" width="10" x="940.5" y="472.6855"/><rect fill="#FFFFFF" height="9" style="stroke:#181818;stroke-width:1.0;" width="10" x="1088.5" y="578.5586"/><rect fill="none" height="442.7344" style="stroke:#000000;stroke-width:1.5;" width="835" x="263.5" y="105.5332"/><rect fill="none" height="83.873" style="stroke:#000000;stroke-width:1.5;" width="390" x="638.5" y="350.5215"/><rect fill="none" height="50.582" style="stroke:#000000;stroke-width:1.5;" width="370" x="648.5" y="376.8125"/><line style="stroke:#181818;stroke-width:0.5;stroke-dasharray:5.0,5.0;" x1="353.5" x2="353.5" y1="57.2422" y2="596.5586"/><line style="stroke:#181818;stroke-width:0.5;stroke-dasharray:5.0,5.0;" x1="492.5" x2="492.5" y1="57.2422" y2="596.5586"/><line style="stroke:#181818;stroke-width:0.5;stroke-dasharray:5.0,5.0;" x1="599.5" x2="599.5" y1="57.2422" y2="596.5586"/><line style="stroke:#181818;stroke-width:0.5;stroke-dasharray:5.0,5.0;" x1="741.5" x2="741.5" y1="57.2422" y2="596.5586"/><line style="stroke:#181818;stroke-width:0.5;stroke-dasharray:5.0,5.0;" x1="940.5" x2="940.5" y1="322.4004" y2="596.5586"/><line style="stroke:#181818;stroke-width:0.5;stroke-dasharray:5.0,5.0;" x1="1093.5" x2="1093.5" y1="57.2422" y2="596.5586"/><rect fill="#E3E3E3" height="32.6211" rx="2.5" ry="2.5" style="stroke:#181818;stroke-width:0.5;" width="161" x="273.5" y="23.6211"/><text fill="#000000" font-family="sans-serif" font-size="14" lengthAdjust="spacing" textLength="147" x="280.5" y="45.7285">:MaintenanceController</text><rect fill="#E3E3E3" height="32.6211" rx="2.5" ry="2.5" style="stroke:#181818;stroke-width:0.5;" width="161" x="273.5" y="595.5586"/><text fill="#000000" font-family="sans-serif" font-size="14" lengthAdjust="spacing" textLength="147" x="280.5" y="617.666">:MaintenanceController</text><rect fill="#E3E3E3" height="32.6211" rx="2.5" ry="2.5" style="stroke:#181818;stroke-width:0.5;" width="97" x="444.5" y="23.6211"/><text fill="#000000" font-family="sans-serif" font-size="14" lengthAdjust="spacing" textLength="83" x="451.5" y="45.7285">:Repositories</text><rect fill="#E3E3E3" height="32.6211" rx="2.5" ry="2.5" style="stroke:#181818;stroke-width:0.5;" width="97" x="444.5" y="595.5586"/><text fill="#000000" font-family="sans-serif" font-size="14" lengthAdjust="spacing" textLength="83" x="451.5" y="617.666">:Repositories</text><rect fill="#E3E3E3" height="51.2422" rx="2.5" ry="2.5" style="stroke:#181818;stroke-width:0.5;" width="97" x="551.5" y="5"/><text fill="#000000" font-family="sans-serif" font-size="14" lengthAdjust="spacing" textLength="74" x="563" y="27.1074">repositories</text><text fill="#000000" font-family="sans-serif" font-size="14" lengthAdjust="spacing" textLength="83" x="558.5" y="45.7285">:Repositories</text><rect fill="#E3E3E3" height="51.2422" rx="2.5" ry="2.5" style="stroke:#181818;stroke-width:0.5;" width="97" x="551.5" y="595.5586"/><text fill="#000000" font-family="sans-serif" font-size="14" lengthAdjust="spacing" textLength="74" x="563" y="617.666">repositories</text><text fill="#000000" font-family="sans-serif" font-size="14" lengthAdjust="spacing" textLength="83" x="558.5" y="636.2871">:Repositories</text><rect fill="#E3E3E3" height="51.2422" rx="2.5" ry="2.5" style="stroke:#181818;stroke-width:0.5;" width="166" x="658.5" y="5"/><text fill="#000000" font-family="sans-serif" font-size="14" lengthAdjust="spacing" textLength="145" x="669" y="27.1074">greenSpaceRepository</text><text fill="#000000" font-family="sans-serif" font-size="14" lengthAdjust="spacing" textLength="152" x="665.5" y="45.7285">:GreenSpaceRepository</text><rect fill="#E3E3E3" height="51.2422" rx="2.5" ry="2.5" style="stroke:#181818;stroke-width:0.5;" width="166" x="658.5" y="595.5586"/><text fill="#000000" font-family="sans-serif" font-size="14" lengthAdjust="spacing" textLength="145" x="669" y="617.666">greenSpaceRepository</text><text fill="#000000" font-family="sans-serif" font-size="14" lengthAdjust="spacing" textLength="152" x="665.5" y="636.2871">:GreenSpaceRepository</text><rect fill="#E3E3E3" height="51.2422" rx="2.5" ry="2.5" style="stroke:#181818;stroke-width:0.5;" width="136" x="872.5" y="595.5586"/><text fill="#000000" font-family="sans-serif" font-size="14" lengthAdjust="spacing" textLength="99" x="891" y="617.666">greenSpaceList</text><text fill="#000000" font-family="sans-serif" font-size="14" lengthAdjust="spacing" textLength="122" x="879.5" y="636.2871">:List&lt;GreenSpace&gt;</text><rect fill="#E3E3E3" height="32.6211" rx="2.5" ry="2.5" style="stroke:#181818;stroke-width:0.5;" width="146" x="1020.5" y="23.6211"/><text fill="#000000" font-family="sans-serif" font-size="14" lengthAdjust="spacing" textLength="132" x="1027.5" y="45.7285">:GreenSpaceMapper</text><rect fill="#E3E3E3" height="32.6211" rx="2.5" ry="2.5" style="stroke:#181818;stroke-width:0.5;" width="146" x="1020.5" y="595.5586"/><text fill="#000000" font-family="sans-serif" font-size="14" lengthAdjust="spacing" textLength="132" x="1027.5" y="617.666">:GreenSpaceMapper</text><rect fill="#FFFFFF" height="497.0254" style="stroke:#181818;stroke-width:1.0;" width="10" x="349" y="90.5332"/><rect fill="#FFFFFF" height="31.291" style="stroke:#181818;stroke-width:1.0;" width="10" x="488" y="148.1152"/><rect fill="#FFFFFF" height="31.291" style="stroke:#181818;stroke-width:1.0;" width="10" x="595" y="210.6973"/><rect fill="#FFFFFF" height="266.9883" style="stroke:#181818;stroke-width:1.0;" width="10" x="736.5" y="273.2793"/><rect fill="#FFFFFF" height="89.582" style="stroke:#181818;stroke-width:1.0;" width="10" x="935.5" y="419.3945"/><rect fill="#FFFFFF" height="36.291" style="stroke:#181818;stroke-width:1.0;" width="10" x="940.5" y="472.6855"/><rect fill="#FFFFFF" height="9" style="stroke:#181818;stroke-width:1.0;" width="10" x="1088.5" y="578.5586"/><polygon fill="#181818" points="337,86.5332,347,90.5332,337,94.5332,341,90.5332" style="stroke:#181818;stroke-width:1.0;"/><line style="stroke:#181818;stroke-width:1.0;" x1="0" x2="343" y1="90.5332" y2="90.5332"/><text fill="#000000" font-family="sans-serif" font-size="13" font-weight="bold" lengthAdjust="spacing" textLength="7" x="7" y="85.2705">9</text><text fill="#000000" font-family="sans-serif" font-size="13" lengthAdjust="spacing" textLength="319" x="18" y="85.2705">getGreenSpaceList(greenSpaceManager,sortingOption)</text><path d="M263.5,105.5332 L439.5,105.5332 L439.5,114.8242 L429.5,124.8242 L263.5,124.8242 L263.5,105.5332 " fill="#EEEEEE" style="stroke:#000000;stroke-width:1.5;"/><rect fill="none" height="442.7344" style="stroke:#000000;stroke-width:1.5;" width="835" x="263.5" y="105.5332"/><text fill="#000000" font-family="sans-serif" font-size="13" font-weight="bold" lengthAdjust="spacing" textLength="131" x="278.5" y="120.5615">Get GreenSpace List</text><polygon fill="#181818" points="476,144.1152,486,148.1152,476,152.1152,480,148.1152" style="stroke:#181818;stroke-width:1.0;"/><line style="stroke:#181818;stroke-width:1.0;" x1="359" x2="482" y1="148.1152" y2="148.1152"/><text fill="#000000" font-family="sans-serif" font-size="13" font-weight="bold" lengthAdjust="spacing" textLength="18" x="366" y="142.8525">9.1</text><text fill="#000000" font-family="sans-serif" font-size="13" lengthAdjust="spacing" textLength="75" x="388" y="142.8525">getInstance()</text><polygon fill="#181818" points="370,175.4063,360,179.4063,370,183.4063,366,179.4063" style="stroke:#181818;stroke-width:1.0;"/><line style="stroke:#181818;stroke-width:1.0;stroke-dasharray:2.0,2.0;" x1="364" x2="492" y1="179.4063" y2="179.4063"/><text fill="#000000" font-family="sans-serif" font-size="13" font-weight="bold" lengthAdjust="spacing" textLength="18" x="376" y="174.1436">9.2</text><text fill="#000000" font-family="sans-serif" font-size="13" lengthAdjust="spacing" textLength="67" x="398" y="174.1436">repositories</text><polygon fill="#181818" points="583,206.6973,593,210.6973,583,214.6973,587,210.6973" style="stroke:#181818;stroke-width:1.0;"/><line style="stroke:#181818;stroke-width:1.0;" x1="359" x2="589" y1="210.6973" y2="210.6973"/><text fill="#000000" font-family="sans-serif" font-size="13" font-weight="bold" lengthAdjust="spacing" textLength="18" x="366" y="205.4346">9.3</text><text fill="#000000" font-family="sans-serif" font-size="13" lengthAdjust="spacing" textLength="160" x="388" y="205.4346">getGreenSpaceRepository()</text><polygon fill="#181818" points="370,237.9883,360,241.9883,370,245.9883,366,241.9883" style="stroke:#181818;stroke-width:1.0;"/><line style="stroke:#181818;stroke-width:1.0;stroke-dasharray:2.0,2.0;" x1="364" x2="599" y1="241.9883" y2="241.9883"/><text fill="#000000" font-family="sans-serif" font-size="13" font-weight="bold" lengthAdjust="spacing" textLength="18" x="376" y="236.7256">9.4</text><text fill="#000000" font-family="sans-serif" font-size="13" lengthAdjust="spacing" textLength="131" x="398" y="236.7256">greenSpaceRepository</text><polygon fill="#181818" points="724.5,269.2793,734.5,273.2793,724.5,277.2793,728.5,273.2793" style="stroke:#181818;stroke-width:1.0;"/><line style="stroke:#181818;stroke-width:1.0;" x1="359" x2="730.5" y1="273.2793" y2="273.2793"/><text fill="#000000" font-family="sans-serif" font-size="13" font-weight="bold" lengthAdjust="spacing" textLength="18" x="366" y="268.0166">9.5</text><text fill="#000000" font-family="sans-serif" font-size="13" lengthAdjust="spacing" textLength="319" x="388" y="268.0166">getGreenSpaceList(greenSpaceManager,sortingOption)</text><polygon fill="#181818" points="860.5,300.5703,870.5,304.5703,860.5,308.5703,864.5,304.5703" style="stroke:#181818;stroke-width:1.0;"/><line style="stroke:#181818;stroke-width:1.0;" x1="746.5" x2="866.5" y1="304.5703" y2="304.5703"/><text fill="#000000" font-family="sans-serif" font-size="13" font-weight="bold" lengthAdjust="spacing" textLength="18" x="753.5" y="299.3076">9.6</text><text fill="#000000" font-family="sans-serif" font-size="13" lengthAdjust="spacing" textLength="44" x="775.5" y="299.3076">create()</text><rect fill="#E3E3E3" height="51.2422" rx="2.5" ry="2.5" style="stroke:#181818;stroke-width:0.5;" width="136" x="872.5" y="281.2793"/><text fill="#000000" font-family="sans-serif" font-size="14" lengthAdjust="spacing" textLength="99" x="891" y="303.3867">greenSpaceList</text><text fill="#000000" font-family="sans-serif" font-size="14" lengthAdjust="spacing" textLength="122" x="879.5" y="322.0078">:List&lt;GreenSpace&gt;</text><path d="M638.5,350.5215 L711.5,350.5215 L711.5,359.8125 L701.5,369.8125 L638.5,369.8125 L638.5,350.5215 " fill="#EEEEEE" style="stroke:#000000;stroke-width:1.5;"/><rect fill="none" height="83.873" style="stroke:#000000;stroke-width:1.5;" width="390" x="638.5" y="350.5215"/><text fill="#000000" font-family="sans-serif" font-size="13" font-weight="bold" lengthAdjust="spacing" textLength="28" x="653.5" y="365.5498">loop</text><text fill="#000000" font-family="sans-serif" font-size="11" font-weight="bold" lengthAdjust="spacing" textLength="225" x="726.5" y="364.3916">[for each greenSpace in greenSpaceList]</text><path d="M648.5,376.8125 L713.5,376.8125 L713.5,386.1035 L703.5,396.1035 L648.5,396.1035 L648.5,376.8125 " fill="#EEEEEE" style="stroke:#000000;stroke-width:1.5;"/><rect fill="none" height="50.582" style="stroke:#000000;stroke-width:1.5;" width="370" x="648.5" y="376.8125"/><text fill="#000000" font-family="sans-serif" font-size="13" font-weight="bold" lengthAdjust="spacing" textLength="20" x="663.5" y="391.8408">opt</text><text fill="#000000" font-family="sans-serif" font-size="11" font-weight="bold" lengthAdjust="spacing" textLength="260" x="728.5" y="390.6826">[greenSpace.getGSM() == greenSpaceManager]</text><polygon fill="#181818" points="923.5,415.3945,933.5,419.3945,923.5,423.3945,927.5,419.3945" style="stroke:#181818;stroke-width:1.0;"/><line style="stroke:#181818;stroke-width:1.0;" x1="746.5" x2="929.5" y1="419.3945" y2="419.3945"/><text fill="#000000" font-family="sans-serif" font-size="13" font-weight="bold" lengthAdjust="spacing" textLength="18" x="753.5" y="414.1318">9.7</text><text fill="#000000" font-family="sans-serif" font-size="13" lengthAdjust="spacing" textLength="148" x="775.5" y="414.1318">add(greenSpaceManager)</text><line style="stroke:#181818;stroke-width:1.0;" x1="945.5" x2="992.5" y1="459.6855" y2="459.6855"/><line style="stroke:#181818;stroke-width:1.0;" x1="992.5" x2="992.5" y1="459.6855" y2="472.6855"/><line style="stroke:#181818;stroke-width:1.0;" x1="951.5" x2="992.5" y1="472.6855" y2="472.6855"/><polygon fill="#181818" points="961.5,468.6855,951.5,472.6855,961.5,476.6855,957.5,472.6855" style="stroke:#181818;stroke-width:1.0;"/><text fill="#000000" font-family="sans-serif" font-size="13" font-weight="bold" lengthAdjust="spacing" textLength="18" x="957.5" y="454.4229">9.8</text><text fill="#000000" font-family="sans-serif" font-size="13" lengthAdjust="spacing" textLength="107" x="979.5" y="454.4229">sort(sortingOption)</text><polygon fill="#181818" points="757.5,504.9766,747.5,508.9766,757.5,512.9766,753.5,508.9766" style="stroke:#181818;stroke-width:1.0;"/><line style="stroke:#181818;stroke-width:1.0;stroke-dasharray:2.0,2.0;" x1="751.5" x2="939.5" y1="508.9766" y2="508.9766"/><text fill="#000000" font-family="sans-serif" font-size="13" font-weight="bold" lengthAdjust="spacing" textLength="18" x="763.5" y="503.7139">9.9</text><text fill="#000000" font-family="sans-serif" font-size="13" lengthAdjust="spacing" textLength="90" x="785.5" y="503.7139">greenSpaceList</text><polygon fill="#181818" points="370,536.2676,360,540.2676,370,544.2676,366,540.2676" style="stroke:#181818;stroke-width:1.0;"/><line style="stroke:#181818;stroke-width:1.0;stroke-dasharray:2.0,2.0;" x1="364" x2="740.5" y1="540.2676" y2="540.2676"/><text fill="#000000" font-family="sans-serif" font-size="13" font-weight="bold" lengthAdjust="spacing" textLength="25" x="376" y="535.0049">9.10</text><text fill="#000000" font-family="sans-serif" font-size="13" lengthAdjust="spacing" textLength="90" x="405" y="535.0049">greenSpaceList</text><polygon fill="#181818" points="1076.5,574.5586,1086.5,578.5586,1076.5,582.5586,1080.5,578.5586" style="stroke:#181818;stroke-width:1.0;"/><line style="stroke:#181818;stroke-width:1.0;" x1="359" x2="1082.5" y1="578.5586" y2="578.5586"/><text fill="#000000" font-family="sans-serif" font-size="13" font-weight="bold" lengthAdjust="spacing" textLength="14" x="366" y="573.2959">10</text><text fill="#000000" font-family="sans-serif" font-size="13" lengthAdjust="spacing" textLength="129" x="384" y="573.2959">toDto(greenSpaceList)</text><!--SRC=[dLLDRzim3BthLn2zr2dMOZtEM7lfYg10WnNDZhkeDki8TKH1PhRrtq-sQrkMvJG9Bmbayl4zVaZLcz96Mhc5BMdADfQs26ntAAh-Yv7PconmpUybWiMCfIvAtw7Qo9p-Abt0gomh54BkcFHk-u9MYFEDoX5UYVY5_WdX8bXboaZDS9QkfDACMkeCxqYpfR94UmQoWhjVpu-1ypCQgXIJLLWrFlt1-rhLb5pISOZr8dxh2C3zqpYWi8XwxGJZWEq2bv7Z1Y3cFuVug2fsMFNFzm7mDi2fFmUw1-ULDEQZFkrVlzJmJGYul6qg1oaKoCiHQb9uEDerr7wfoENHnK_3YlHYX7LrBMJ6wezaR7i1pWfBEmDBP1YWeM5S6mJM47648crg-JteYklM9uj9R9yxrkE9TssnB9SVvKZ1duH9U8x7fUk5tJ-5XHxYzufoSnSNuH07qj7fsaS-1jkHZO6TDYRpkgA4eqBRQOem6Z6j-LnSf91PTF2HYdPM4XbtnrXmnTXu0A1qk5jas3kwglMlLya2RcvWedmst-7qNObbda-BkjYBFLFLVjK-3UuCTNwSyw6-WSgOxdfiac1s3eMV5Gz7MiXpPXFIanDv-tSin0cXyQ7pRlrmLWxAwMzh6zADWlSaN7yL_dtIFa0k9TCFfcISU6XqdwrxiFu3]--></g></svg>