<?xml version="1.0" encoding="us-ascii" standalone="no"?><svg xmlns="http://www.w3.org/2000/svg" xmlns:xlink="http://www.w3.org/1999/xlink" contentStyleType="text/css" height="1540px" preserveAspectRatio="none" style="width:1999px;height:1540px;background:#FFFFFF;" version="1.1" viewBox="0 0 1999 1540" width="1999.2px" zoomAndPan="magnify"><defs/><g><rect fill="#FFFFFF" height="1324.9141" style="stroke:#181818;stroke-width:0.8000000000000002;" width="8" x="42.4" y="104.6906"/><rect fill="#FFFFFF" height="540.6406" style="stroke:#181818;stroke-width:0.8000000000000002;" width="8" x="283.2" y="123.3234"/><rect fill="#FFFFFF" height="25.0328" style="stroke:#181818;stroke-width:0.8000000000000002;" width="8" x="283.2" y="688.9969"/><rect fill="#FFFFFF" height="690.5422" style="stroke:#181818;stroke-width:0.8000000000000002;" width="8" x="283.2" y="739.0625"/><rect fill="#FFFFFF" height="455.6781" style="stroke:#181818;stroke-width:0.8000000000000002;" width="8" x="576" y="183.2531"/><rect fill="#FFFFFF" height="424.2453" style="stroke:#181818;stroke-width:0.8000000000000002;" width="8" x="580" y="214.6859"/><rect fill="#FFFFFF" height="640.4766" style="stroke:#181818;stroke-width:0.8000000000000002;" width="8" x="576" y="764.0953"/><rect fill="#FFFFFF" height="26.8969" style="stroke:#181818;stroke-width:0.8000000000000002;" width="8" x="741.6" y="251.7188"/><rect fill="#FFFFFF" height="41.7938" style="stroke:#181818;stroke-width:0.8000000000000002;" width="8" x="859.2" y="311.6484"/><rect fill="#FFFFFF" height="41.7938" style="stroke:#181818;stroke-width:0.8000000000000002;" width="8" x="965.6" y="386.475"/><rect fill="#FFFFFF" height="25.0328" style="stroke:#181818;stroke-width:0.8000000000000002;" width="8" x="1056" y="453.3016"/><rect fill="#FFFFFF" height="25.0328" style="stroke:#181818;stroke-width:0.8000000000000002;" width="8" x="1056" y="789.1281"/><rect fill="#FFFFFF" height="25.0328" style="stroke:#181818;stroke-width:0.8000000000000002;" width="8" x="1141.6" y="503.3672"/><rect fill="#FFFFFF" height="25.0328" style="stroke:#181818;stroke-width:0.8000000000000002;" width="8" x="1141.6" y="839.1938"/><rect fill="#FFFFFF" height="60.4656" style="stroke:#181818;stroke-width:0.8000000000000002;" width="8" x="1254" y="553.4328"/><rect fill="#FFFFFF" height="29.0328" style="stroke:#181818;stroke-width:0.8000000000000002;" width="8" x="1258" y="584.8656"/><rect fill="#FFFFFF" height="213.5906" style="stroke:#181818;stroke-width:0.8000000000000002;" width="8" x="1427.6" y="889.2594"/><rect fill="#FFFFFF" height="251.6563" style="stroke:#181818;stroke-width:0.8000000000000002;" width="8" x="1560.4" y="1127.8828"/><rect fill="#FFFFFF" height="71.6656" style="stroke:#181818;stroke-width:0.8000000000000002;" width="8" x="1681.2" y="1006.1516"/><rect fill="#FFFFFF" height="29.0328" style="stroke:#181818;stroke-width:0.8000000000000002;" width="8" x="1685.2" y="1048.7844"/><rect fill="#FFFFFF" height="25.0328" style="stroke:#181818;stroke-width:0.8000000000000002;" width="8" x="1681.2" y="1223.7422"/><rect fill="#FFFFFF" height="25.0328" style="stroke:#181818;stroke-width:0.8000000000000002;" width="8" x="1800.4" y="1273.8078"/><rect fill="#FFFFFF" height="30.6328" style="stroke:#181818;stroke-width:0.8000000000000002;" width="8" x="1919.6" y="1323.8734"/><rect fill="none" height="67.0984" style="stroke:#000000;stroke-width:1.2000000000000002;" width="406.4" x="1349.2" y="951.0531"/><rect fill="none" height="40.4656" style="stroke:#000000;stroke-width:1.2000000000000002;" width="390.4" x="1357.2" y="972.0859"/><rect fill="none" height="140.5969" style="stroke:#000000;stroke-width:1.2000000000000002;" width="496.8" x="1498" y="1189.6766"/><line style="stroke:#181818;stroke-width:0.4000000000000001;stroke-dasharray:5.0,5.0;" x1="46.4" x2="46.4" y1="96.6906" y2="1444.0047"/><line style="stroke:#181818;stroke-width:0.4000000000000001;stroke-dasharray:5.0,5.0;" x1="287.2" x2="287.2" y1="96.6906" y2="1444.0047"/><line style="stroke:#181818;stroke-width:0.4000000000000001;stroke-dasharray:5.0,5.0;" x1="580" x2="580" y1="155.1719" y2="1444.0047"/><line style="stroke:#181818;stroke-width:0.4000000000000001;stroke-dasharray:5.0,5.0;" x1="745.2" x2="745.2" y1="250.5344" y2="1444.0047"/><line style="stroke:#181818;stroke-width:0.4000000000000001;stroke-dasharray:5.0,5.0;" x1="862.8" x2="862.8" y1="317.9125" y2="1444.0047"/><line style="stroke:#181818;stroke-width:0.4000000000000001;stroke-dasharray:5.0,5.0;" x1="969.2" x2="969.2" y1="392.7391" y2="1444.0047"/><line style="stroke:#181818;stroke-width:0.4000000000000001;stroke-dasharray:5.0,5.0;" x1="1059.6" x2="1059.6" y1="96.6906" y2="1444.0047"/><line style="stroke:#181818;stroke-width:0.4000000000000001;stroke-dasharray:5.0,5.0;" x1="1145.2" x2="1145.2" y1="96.6906" y2="1444.0047"/><line style="stroke:#181818;stroke-width:0.4000000000000001;stroke-dasharray:5.0,5.0;" x1="1258" x2="1258" y1="96.6906" y2="1444.0047"/><line style="stroke:#181818;stroke-width:0.4000000000000001;stroke-dasharray:5.0,5.0;" x1="1431.6" x2="1431.6" y1="96.6906" y2="1444.0047"/><line style="stroke:#181818;stroke-width:0.4000000000000001;stroke-dasharray:5.0,5.0;" x1="1564.4" x2="1564.4" y1="96.6906" y2="1444.0047"/><line style="stroke:#181818;stroke-width:0.4000000000000001;stroke-dasharray:5.0,5.0;" x1="1685.2" x2="1685.2" y1="928.5563" y2="1444.0047"/><line style="stroke:#181818;stroke-width:0.4000000000000001;stroke-dasharray:5.0,5.0;" x1="1804.4" x2="1804.4" y1="96.6906" y2="1444.0047"/><line style="stroke:#181818;stroke-width:0.4000000000000001;stroke-dasharray:5.0,5.0;" x1="1923.6" x2="1923.6" y1="1167.1797" y2="1444.0047"/><text fill="#000000" font-family="sans-serif" font-size="11.2" lengthAdjust="spacing" textLength="32" x="28" y="64.0859">Green</text><text fill="#000000" font-family="sans-serif" font-size="11.2" lengthAdjust="spacing" textLength="80" x="4" y="78.9828">Space Manager</text><text fill="#000000" font-family="sans-serif" font-size="11.2" lengthAdjust="spacing" textLength="32.8" x="27.6" y="93.8797">(GSM)</text><ellipse cx="46.4" cy="10.8" fill="#E3E3E3" rx="6.4" ry="6.4" style="stroke:#181818;stroke-width:0.4000000000000001;"/><path d="M46.4,17.2 L46.4,38.8 M36,23.6 L56.8,23.6 M46.4,38.8 L36,50.8 M46.4,38.8 L56.8,50.8 " fill="none" style="stroke:#181818;stroke-width:0.4000000000000001;"/><text fill="#000000" font-family="sans-serif" font-size="11.2" lengthAdjust="spacing" textLength="32" x="28" y="1455.2906">Green</text><text fill="#000000" font-family="sans-serif" font-size="11.2" lengthAdjust="spacing" textLength="80" x="4" y="1470.1875">Space Manager</text><text fill="#000000" font-family="sans-serif" font-size="11.2" lengthAdjust="spacing" textLength="32.8" x="27.6" y="1485.0844">(GSM)</text><ellipse cx="46.4" cy="1494.6953" fill="#E3E3E3" rx="6.4" ry="6.4" style="stroke:#181818;stroke-width:0.4000000000000001;"/><path d="M46.4,1501.0953 L46.4,1522.6953 M36,1507.4953 L56.8,1507.4953 M46.4,1522.6953 L36,1534.6953 M46.4,1522.6953 L56.8,1534.6953 " fill="none" style="stroke:#181818;stroke-width:0.4000000000000001;"/><rect fill="#E3E3E3" height="26.0969" rx="2" ry="2" style="stroke:#181818;stroke-width:0.4000000000000001;" width="105.6" x="234.4" y="69.7938"/><text fill="#000000" font-family="sans-serif" font-size="11.2" lengthAdjust="spacing" textLength="94.4" x="240" y="87.4797">:ListGreenSpaceUI</text><rect fill="#E3E3E3" height="26.0969" rx="2" ry="2" style="stroke:#181818;stroke-width:0.4000000000000001;" width="105.6" x="234.4" y="1443.2047"/><text fill="#000000" font-family="sans-serif" font-size="11.2" lengthAdjust="spacing" textLength="94.4" x="240" y="1460.8906">:ListGreenSpaceUI</text><rect fill="#E3E3E3" height="26.0969" rx="2" ry="2" style="stroke:#181818;stroke-width:0.4000000000000001;" width="145.6" x="507.2" y="1443.2047"/><text fill="#000000" font-family="sans-serif" font-size="11.2" lengthAdjust="spacing" textLength="134.4" x="512.8" y="1460.8906">:ListGreenSpaceController</text><rect fill="#E3E3E3" height="26.0969" rx="2" ry="2" style="stroke:#181818;stroke-width:0.4000000000000001;" width="109.6" x="690.8" y="1443.2047"/><text fill="#000000" font-family="sans-serif" font-size="11.2" lengthAdjust="spacing" textLength="98.4" x="696.4" y="1460.8906">:ApplicationSession</text><rect fill="#E3E3E3" height="40.9938" rx="2" ry="2" style="stroke:#181818;stroke-width:0.4000000000000001;" width="109.6" x="808.4" y="1443.2047"/><text fill="#000000" font-family="sans-serif" font-size="11.2" lengthAdjust="spacing" textLength="59.2" x="833.6" y="1460.8906">appSession</text><text fill="#000000" font-family="sans-serif" font-size="11.2" lengthAdjust="spacing" textLength="98.4" x="814" y="1475.7875">:ApplicationSession</text><rect fill="#E3E3E3" height="40.9938" rx="2" ry="2" style="stroke:#181818;stroke-width:0.4000000000000001;" width="87.2" x="926" y="1443.2047"/><text fill="#000000" font-family="sans-serif" font-size="11.2" lengthAdjust="spacing" textLength="76" x="931.6" y="1460.8906">currentSession</text><text fill="#000000" font-family="sans-serif" font-size="11.2" lengthAdjust="spacing" textLength="66.4" x="936.4" y="1475.7875">:UserSession</text><rect fill="#E3E3E3" height="26.0969" rx="2" ry="2" style="stroke:#181818;stroke-width:0.4000000000000001;" width="77.6" x="1021.2" y="69.7938"/><text fill="#000000" font-family="sans-serif" font-size="11.2" lengthAdjust="spacing" textLength="66.4" x="1026.8" y="87.4797">:Repositories</text><rect fill="#E3E3E3" height="26.0969" rx="2" ry="2" style="stroke:#181818;stroke-width:0.4000000000000001;" width="77.6" x="1021.2" y="1443.2047"/><text fill="#000000" font-family="sans-serif" font-size="11.2" lengthAdjust="spacing" textLength="66.4" x="1026.8" y="1460.8906">:Repositories</text><rect fill="#E3E3E3" height="40.9938" rx="2" ry="2" style="stroke:#181818;stroke-width:0.4000000000000001;" width="77.6" x="1106.8" y="54.8969"/><text fill="#000000" font-family="sans-serif" font-size="11.2" lengthAdjust="spacing" textLength="59.2" x="1116" y="72.5828">repositories</text><text fill="#000000" font-family="sans-serif" font-size="11.2" lengthAdjust="spacing" textLength="66.4" x="1112.4" y="87.4797">:Repositories</text><rect fill="#E3E3E3" height="40.9938" rx="2" ry="2" style="stroke:#181818;stroke-width:0.4000000000000001;" width="77.6" x="1106.8" y="1443.2047"/><text fill="#000000" font-family="sans-serif" font-size="11.2" lengthAdjust="spacing" textLength="59.2" x="1116" y="1460.8906">repositories</text><text fill="#000000" font-family="sans-serif" font-size="11.2" lengthAdjust="spacing" textLength="66.4" x="1112.4" y="1475.7875">:Repositories</text><rect fill="#E3E3E3" height="40.9938" rx="2" ry="2" style="stroke:#181818;stroke-width:0.4000000000000001;" width="131.2" x="1192.4" y="54.8969"/><text fill="#000000" font-family="sans-serif" font-size="11.2" lengthAdjust="spacing" textLength="114.4" x="1200.8" y="72.5828">collaboratorRepository</text><text fill="#000000" font-family="sans-serif" font-size="11.2" lengthAdjust="spacing" textLength="120" x="1198" y="87.4797">:CollaboratorRepository</text><rect fill="#E3E3E3" height="40.9938" rx="2" ry="2" style="stroke:#181818;stroke-width:0.4000000000000001;" width="131.2" x="1192.4" y="1443.2047"/><text fill="#000000" font-family="sans-serif" font-size="11.2" lengthAdjust="spacing" textLength="114.4" x="1200.8" y="1460.8906">collaboratorRepository</text><text fill="#000000" font-family="sans-serif" font-size="11.2" lengthAdjust="spacing" textLength="120" x="1198" y="1475.7875">:CollaboratorRepository</text><rect fill="#E3E3E3" height="40.9938" rx="2" ry="2" style="stroke:#181818;stroke-width:0.4000000000000001;" width="132.8" x="1365.2" y="54.8969"/><text fill="#000000" font-family="sans-serif" font-size="11.2" lengthAdjust="spacing" textLength="116" x="1373.6" y="72.5828">greenSpaceRepository</text><text fill="#000000" font-family="sans-serif" font-size="11.2" lengthAdjust="spacing" textLength="121.6" x="1370.8" y="87.4797">:GreenSpaceRepository</text><rect fill="#E3E3E3" height="40.9938" rx="2" ry="2" style="stroke:#181818;stroke-width:0.4000000000000001;" width="132.8" x="1365.2" y="1443.2047"/><text fill="#000000" font-family="sans-serif" font-size="11.2" lengthAdjust="spacing" textLength="116" x="1373.6" y="1460.8906">greenSpaceRepository</text><text fill="#000000" font-family="sans-serif" font-size="11.2" lengthAdjust="spacing" textLength="121.6" x="1370.8" y="1475.7875">:GreenSpaceRepository</text><rect fill="#E3E3E3" height="26.0969" rx="2" ry="2" style="stroke:#181818;stroke-width:0.4000000000000001;" width="116.8" x="1506" y="69.7938"/><text fill="#000000" font-family="sans-serif" font-size="11.2" lengthAdjust="spacing" textLength="105.6" x="1511.6" y="87.4797">:GreenSpaceMapper</text><rect fill="#E3E3E3" height="26.0969" rx="2" ry="2" style="stroke:#181818;stroke-width:0.4000000000000001;" width="116.8" x="1506" y="1443.2047"/><text fill="#000000" font-family="sans-serif" font-size="11.2" lengthAdjust="spacing" textLength="105.6" x="1511.6" y="1460.8906">:GreenSpaceMapper</text><rect fill="#E3E3E3" height="40.9938" rx="2" ry="2" style="stroke:#181818;stroke-width:0.4000000000000001;" width="108.8" x="1630.8" y="1443.2047"/><text fill="#000000" font-family="sans-serif" font-size="11.2" lengthAdjust="spacing" textLength="79.2" x="1645.6" y="1460.8906">greenSpaceList</text><text fill="#000000" font-family="sans-serif" font-size="11.2" lengthAdjust="spacing" textLength="97.6" x="1636.4" y="1475.7875">:List&lt;GreenSpace&gt;</text><rect fill="#E3E3E3" height="40.9938" rx="2" ry="2" style="stroke:#181818;stroke-width:0.4000000000000001;" width="96" x="1756.4" y="54.8969"/><text fill="#000000" font-family="sans-serif" font-size="11.2" lengthAdjust="spacing" textLength="79.2" x="1764.8" y="72.5828">greenSpaceDto</text><text fill="#000000" font-family="sans-serif" font-size="11.2" lengthAdjust="spacing" textLength="84.8" x="1762" y="87.4797">:GreenSpaceDto</text><rect fill="#E3E3E3" height="40.9938" rx="2" ry="2" style="stroke:#181818;stroke-width:0.4000000000000001;" width="96" x="1756.4" y="1443.2047"/><text fill="#000000" font-family="sans-serif" font-size="11.2" lengthAdjust="spacing" textLength="79.2" x="1764.8" y="1460.8906">greenSpaceDto</text><text fill="#000000" font-family="sans-serif" font-size="11.2" lengthAdjust="spacing" textLength="84.8" x="1762" y="1475.7875">:GreenSpaceDto</text><rect fill="#E3E3E3" height="40.9938" rx="2" ry="2" style="stroke:#181818;stroke-width:0.4000000000000001;" width="126.4" x="1860.4" y="1443.2047"/><text fill="#000000" font-family="sans-serif" font-size="11.2" lengthAdjust="spacing" textLength="96.8" x="1875.2" y="1460.8906">greenSpaceListDto</text><text fill="#000000" font-family="sans-serif" font-size="11.2" lengthAdjust="spacing" textLength="115.2" x="1866" y="1475.7875">:List&lt;GreenSpaceDto&gt;</text><rect fill="#FFFFFF" height="1324.9141" style="stroke:#181818;stroke-width:0.8000000000000002;" width="8" x="42.4" y="104.6906"/><rect fill="#FFFFFF" height="540.6406" style="stroke:#181818;stroke-width:0.8000000000000002;" width="8" x="283.2" y="123.3234"/><rect fill="#FFFFFF" height="25.0328" style="stroke:#181818;stroke-width:0.8000000000000002;" width="8" x="283.2" y="688.9969"/><rect fill="#FFFFFF" height="690.5422" style="stroke:#181818;stroke-width:0.8000000000000002;" width="8" x="283.2" y="739.0625"/><rect fill="#FFFFFF" height="455.6781" style="stroke:#181818;stroke-width:0.8000000000000002;" width="8" x="576" y="183.2531"/><rect fill="#FFFFFF" height="424.2453" style="stroke:#181818;stroke-width:0.8000000000000002;" width="8" x="580" y="214.6859"/><rect fill="#FFFFFF" height="640.4766" style="stroke:#181818;stroke-width:0.8000000000000002;" width="8" x="576" y="764.0953"/><rect fill="#FFFFFF" height="26.8969" style="stroke:#181818;stroke-width:0.8000000000000002;" width="8" x="741.6" y="251.7188"/><rect fill="#FFFFFF" height="41.7938" style="stroke:#181818;stroke-width:0.8000000000000002;" width="8" x="859.2" y="311.6484"/><rect fill="#FFFFFF" height="41.7938" style="stroke:#181818;stroke-width:0.8000000000000002;" width="8" x="965.6" y="386.475"/><rect fill="#FFFFFF" height="25.0328" style="stroke:#181818;stroke-width:0.8000000000000002;" width="8" x="1056" y="453.3016"/><rect fill="#FFFFFF" height="25.0328" style="stroke:#181818;stroke-width:0.8000000000000002;" width="8" x="1056" y="789.1281"/><rect fill="#FFFFFF" height="25.0328" style="stroke:#181818;stroke-width:0.8000000000000002;" width="8" x="1141.6" y="503.3672"/><rect fill="#FFFFFF" height="25.0328" style="stroke:#181818;stroke-width:0.8000000000000002;" width="8" x="1141.6" y="839.1938"/><rect fill="#FFFFFF" height="60.4656" style="stroke:#181818;stroke-width:0.8000000000000002;" width="8" x="1254" y="553.4328"/><rect fill="#FFFFFF" height="29.0328" style="stroke:#181818;stroke-width:0.8000000000000002;" width="8" x="1258" y="584.8656"/><rect fill="#FFFFFF" height="213.5906" style="stroke:#181818;stroke-width:0.8000000000000002;" width="8" x="1427.6" y="889.2594"/><rect fill="#FFFFFF" height="251.6563" style="stroke:#181818;stroke-width:0.8000000000000002;" width="8" x="1560.4" y="1127.8828"/><rect fill="#FFFFFF" height="71.6656" style="stroke:#181818;stroke-width:0.8000000000000002;" width="8" x="1681.2" y="1006.1516"/><rect fill="#FFFFFF" height="29.0328" style="stroke:#181818;stroke-width:0.8000000000000002;" width="8" x="1685.2" y="1048.7844"/><rect fill="#FFFFFF" height="25.0328" style="stroke:#181818;stroke-width:0.8000000000000002;" width="8" x="1681.2" y="1223.7422"/><rect fill="#FFFFFF" height="25.0328" style="stroke:#181818;stroke-width:0.8000000000000002;" width="8" x="1800.4" y="1273.8078"/><rect fill="#FFFFFF" height="30.6328" style="stroke:#181818;stroke-width:0.8000000000000002;" width="8" x="1919.6" y="1323.8734"/><polygon fill="#181818" points="273.6,120.1234,281.6,123.3234,273.6,126.5234,276.8,123.3234" style="stroke:#181818;stroke-width:0.8000000000000002;"/><line style="stroke:#181818;stroke-width:0.8000000000000002;" x1="50.4" x2="278.4" y1="123.3234" y2="123.3234"/><text fill="#000000" font-family="sans-serif" font-size="10.4" font-weight="bold" lengthAdjust="spacing" textLength="5.6" x="56" y="119.1133">1</text><text fill="#000000" font-family="sans-serif" font-size="10.4" lengthAdjust="spacing" textLength="208.8" x="64.8" y="119.1133">asks to list all greenSpaces managed by him</text><polygon fill="#181818" points="497.6,145.1563,505.6,148.3563,497.6,151.5563,500.8,148.3563" style="stroke:#181818;stroke-width:0.8000000000000002;"/><line style="stroke:#181818;stroke-width:0.8000000000000002;" x1="291.2" x2="502.4" y1="148.3563" y2="148.3563"/><text fill="#000000" font-family="sans-serif" font-size="10.4" font-weight="bold" lengthAdjust="spacing" textLength="5.6" x="296.8" y="144.1461">2</text><text fill="#000000" font-family="sans-serif" font-size="10.4" lengthAdjust="spacing" textLength="28.8" x="305.6" y="144.1461">create</text><rect fill="#E3E3E3" height="26.0969" rx="2" ry="2" style="stroke:#181818;stroke-width:0.4000000000000001;" width="145.6" x="507.2" y="129.7234"/><text fill="#000000" font-family="sans-serif" font-size="11.2" lengthAdjust="spacing" textLength="134.4" x="512.8" y="147.4094">:ListGreenSpaceController</text><polygon fill="#181818" points="566.4,180.0531,574.4,183.2531,566.4,186.4531,569.6,183.2531" style="stroke:#181818;stroke-width:0.8000000000000002;"/><line style="stroke:#181818;stroke-width:0.8000000000000002;" x1="291.2" x2="571.2" y1="183.2531" y2="183.2531"/><text fill="#000000" font-family="sans-serif" font-size="10.4" font-weight="bold" lengthAdjust="spacing" textLength="5.6" x="296.8" y="179.043">3</text><text fill="#000000" font-family="sans-serif" font-size="10.4" lengthAdjust="spacing" textLength="140" x="305.6" y="179.043">getCollaboratorByEmail(email)</text><line style="stroke:#181818;stroke-width:0.8000000000000002;" x1="584" x2="621.6" y1="204.2859" y2="204.2859"/><line style="stroke:#181818;stroke-width:0.8000000000000002;" x1="621.6" x2="621.6" y1="204.2859" y2="214.6859"/><line style="stroke:#181818;stroke-width:0.8000000000000002;" x1="588.8" x2="621.6" y1="214.6859" y2="214.6859"/><polygon fill="#181818" points="596.8,211.4859,588.8,214.6859,596.8,217.8859,593.6,214.6859" style="stroke:#181818;stroke-width:0.8000000000000002;"/><text fill="#000000" font-family="sans-serif" font-size="10.4" font-weight="bold" lengthAdjust="spacing" textLength="5.6" x="593.6" y="200.0758">4</text><text fill="#000000" font-family="sans-serif" font-size="10.4" lengthAdjust="spacing" textLength="137.6" x="602.4" y="200.0758">getCollaboratorFromSession()</text><polygon fill="#181818" points="681.2,240.5188,689.2,243.7188,681.2,246.9188,684.4,243.7188" style="stroke:#181818;stroke-width:0.8000000000000002;"/><line style="stroke:#181818;stroke-width:0.8000000000000002;" x1="588" x2="686" y1="243.7188" y2="243.7188"/><text fill="#000000" font-family="sans-serif" font-size="10.4" font-weight="bold" lengthAdjust="spacing" textLength="5.6" x="593.6" y="239.5086">5</text><text fill="#000000" font-family="sans-serif" font-size="10.4" lengthAdjust="spacing" textLength="60" x="602.4" y="239.5086">getInstance()</text><rect fill="#E3E3E3" height="26.0969" rx="2" ry="2" style="stroke:#181818;stroke-width:0.4000000000000001;" width="109.6" x="690.8" y="225.0859"/><text fill="#000000" font-family="sans-serif" font-size="11.2" lengthAdjust="spacing" textLength="98.4" x="696.4" y="242.7719">:ApplicationSession</text><polygon fill="#181818" points="596.8,275.4156,588.8,278.6156,596.8,281.8156,593.6,278.6156" style="stroke:#181818;stroke-width:0.8000000000000002;"/><line style="stroke:#181818;stroke-width:0.8000000000000002;" x1="592" x2="744.8" y1="278.6156" y2="278.6156"/><text fill="#000000" font-family="sans-serif" font-size="10.4" font-weight="bold" lengthAdjust="spacing" textLength="5.6" x="601.6" y="274.4055">6</text><text fill="#000000" font-family="sans-serif" font-size="10.4" lengthAdjust="spacing" textLength="54.4" x="610.4" y="274.4055">appSession</text><polygon fill="#181818" points="798.8,300.4484,806.8,303.6484,798.8,306.8484,802,303.6484" style="stroke:#181818;stroke-width:0.8000000000000002;"/><line style="stroke:#181818;stroke-width:0.8000000000000002;" x1="588" x2="803.6" y1="303.6484" y2="303.6484"/><text fill="#000000" font-family="sans-serif" font-size="10.4" font-weight="bold" lengthAdjust="spacing" textLength="5.6" x="593.6" y="299.4383">7</text><text fill="#000000" font-family="sans-serif" font-size="10.4" lengthAdjust="spacing" textLength="92" x="602.4" y="299.4383">getCurrentSession()</text><rect fill="#E3E3E3" height="40.9938" rx="2" ry="2" style="stroke:#181818;stroke-width:0.4000000000000001;" width="109.6" x="808.4" y="285.0156"/><text fill="#000000" font-family="sans-serif" font-size="11.2" lengthAdjust="spacing" textLength="59.2" x="833.6" y="302.7016">appSession</text><text fill="#000000" font-family="sans-serif" font-size="11.2" lengthAdjust="spacing" textLength="98.4" x="814" y="317.5984">:ApplicationSession</text><polygon fill="#181818" points="596.8,350.2422,588.8,353.4422,596.8,356.6422,593.6,353.4422" style="stroke:#181818;stroke-width:0.8000000000000002;"/><line style="stroke:#181818;stroke-width:0.8000000000000002;stroke-dasharray:2.0,2.0;" x1="592" x2="862.4" y1="353.4422" y2="353.4422"/><text fill="#000000" font-family="sans-serif" font-size="10.4" font-weight="bold" lengthAdjust="spacing" textLength="5.6" x="601.6" y="349.232">8</text><text fill="#000000" font-family="sans-serif" font-size="10.4" lengthAdjust="spacing" textLength="69.6" x="610.4" y="349.232">currentSession</text><polygon fill="#181818" points="916.4,375.275,924.4,378.475,916.4,381.675,919.6,378.475" style="stroke:#181818;stroke-width:0.8000000000000002;"/><line style="stroke:#181818;stroke-width:0.8000000000000002;" x1="588" x2="921.2" y1="378.475" y2="378.475"/><text fill="#000000" font-family="sans-serif" font-size="10.4" font-weight="bold" lengthAdjust="spacing" textLength="5.6" x="593.6" y="374.2648">9</text><text fill="#000000" font-family="sans-serif" font-size="10.4" lengthAdjust="spacing" textLength="68.8" x="602.4" y="374.2648">getUserEmail()</text><rect fill="#E3E3E3" height="40.9938" rx="2" ry="2" style="stroke:#181818;stroke-width:0.4000000000000001;" width="87.2" x="926" y="359.8422"/><text fill="#000000" font-family="sans-serif" font-size="11.2" lengthAdjust="spacing" textLength="76" x="931.6" y="377.5281">currentSession</text><text fill="#000000" font-family="sans-serif" font-size="11.2" lengthAdjust="spacing" textLength="66.4" x="936.4" y="392.425">:UserSession</text><polygon fill="#181818" points="596.8,425.0688,588.8,428.2688,596.8,431.4688,593.6,428.2688" style="stroke:#181818;stroke-width:0.8000000000000002;"/><line style="stroke:#181818;stroke-width:0.8000000000000002;stroke-dasharray:2.0,2.0;" x1="592" x2="968.8" y1="428.2688" y2="428.2688"/><text fill="#000000" font-family="sans-serif" font-size="10.4" font-weight="bold" lengthAdjust="spacing" textLength="11.2" x="601.6" y="424.0586">10</text><text fill="#000000" font-family="sans-serif" font-size="10.4" lengthAdjust="spacing" textLength="24.8" x="616" y="424.0586">email</text><polygon fill="#181818" points="1046.4,450.1016,1054.4,453.3016,1046.4,456.5016,1049.6,453.3016" style="stroke:#181818;stroke-width:0.8000000000000002;"/><line style="stroke:#181818;stroke-width:0.8000000000000002;" x1="588" x2="1051.2" y1="453.3016" y2="453.3016"/><text fill="#000000" font-family="sans-serif" font-size="10.4" font-weight="bold" lengthAdjust="spacing" textLength="11.2" x="593.6" y="449.0914">11</text><text fill="#000000" font-family="sans-serif" font-size="10.4" lengthAdjust="spacing" textLength="60" x="608" y="449.0914">getInstance()</text><polygon fill="#181818" points="596.8,475.1344,588.8,478.3344,596.8,481.5344,593.6,478.3344" style="stroke:#181818;stroke-width:0.8000000000000002;"/><line style="stroke:#181818;stroke-width:0.8000000000000002;stroke-dasharray:2.0,2.0;" x1="592" x2="1059.2" y1="478.3344" y2="478.3344"/><text fill="#000000" font-family="sans-serif" font-size="10.4" font-weight="bold" lengthAdjust="spacing" textLength="11.2" x="601.6" y="474.1242">12</text><text fill="#000000" font-family="sans-serif" font-size="10.4" lengthAdjust="spacing" textLength="53.6" x="616" y="474.1242">repositories</text><polygon fill="#181818" points="1132,500.1672,1140,503.3672,1132,506.5672,1135.2,503.3672" style="stroke:#181818;stroke-width:0.8000000000000002;"/><line style="stroke:#181818;stroke-width:0.8000000000000002;" x1="588" x2="1136.8" y1="503.3672" y2="503.3672"/><text fill="#000000" font-family="sans-serif" font-size="10.4" font-weight="bold" lengthAdjust="spacing" textLength="11.2" x="593.6" y="499.157">13</text><text fill="#000000" font-family="sans-serif" font-size="10.4" lengthAdjust="spacing" textLength="119.2" x="608" y="499.157">getCollaboratorRepository</text><polygon fill="#181818" points="596.8,525.2,588.8,528.4,596.8,531.6,593.6,528.4" style="stroke:#181818;stroke-width:0.8000000000000002;"/><line style="stroke:#181818;stroke-width:0.8000000000000002;stroke-dasharray:2.0,2.0;" x1="592" x2="1144.8" y1="528.4" y2="528.4"/><text fill="#000000" font-family="sans-serif" font-size="10.4" font-weight="bold" lengthAdjust="spacing" textLength="11.2" x="601.6" y="524.1898">14</text><text fill="#000000" font-family="sans-serif" font-size="10.4" lengthAdjust="spacing" textLength="103.2" x="616" y="524.1898">collaboratorRepository</text><polygon fill="#181818" points="1244.4,550.2328,1252.4,553.4328,1244.4,556.6328,1247.6,553.4328" style="stroke:#181818;stroke-width:0.8000000000000002;"/><line style="stroke:#181818;stroke-width:0.8000000000000002;" x1="588" x2="1249.2" y1="553.4328" y2="553.4328"/><text fill="#000000" font-family="sans-serif" font-size="10.4" font-weight="bold" lengthAdjust="spacing" textLength="11.2" x="593.6" y="549.2227">15</text><text fill="#000000" font-family="sans-serif" font-size="10.4" lengthAdjust="spacing" textLength="140" x="608" y="549.2227">getCollaboratorByEmail(email)</text><line style="stroke:#181818;stroke-width:0.8000000000000002;" x1="1262" x2="1299.6" y1="574.4656" y2="574.4656"/><line style="stroke:#181818;stroke-width:0.8000000000000002;" x1="1299.6" x2="1299.6" y1="574.4656" y2="584.8656"/><line style="stroke:#181818;stroke-width:0.8000000000000002;" x1="1266.8" x2="1299.6" y1="584.8656" y2="584.8656"/><polygon fill="#181818" points="1274.8,581.6656,1266.8,584.8656,1274.8,588.0656,1271.6,584.8656" style="stroke:#181818;stroke-width:0.8000000000000002;"/><text fill="#000000" font-family="sans-serif" font-size="10.4" font-weight="bold" lengthAdjust="spacing" textLength="11.2" x="1271.6" y="570.2555">16</text><text fill="#000000" font-family="sans-serif" font-size="10.4" lengthAdjust="spacing" textLength="140" x="1286" y="570.2555">getCollaboratorByEmail(email)</text><polygon fill="#181818" points="596.8,610.6984,588.8,613.8984,596.8,617.0984,593.6,613.8984" style="stroke:#181818;stroke-width:0.8000000000000002;"/><line style="stroke:#181818;stroke-width:0.8000000000000002;stroke-dasharray:2.0,2.0;" x1="592" x2="1257.2" y1="613.8984" y2="613.8984"/><text fill="#000000" font-family="sans-serif" font-size="10.4" font-weight="bold" lengthAdjust="spacing" textLength="11.2" x="601.6" y="609.6883">17</text><text fill="#000000" font-family="sans-serif" font-size="10.4" lengthAdjust="spacing" textLength="95.2" x="616" y="609.6883">greenSpaceManager</text><polygon fill="#181818" points="300,635.7313,292,638.9313,300,642.1313,296.8,638.9313" style="stroke:#181818;stroke-width:0.8000000000000002;"/><line style="stroke:#181818;stroke-width:0.8000000000000002;stroke-dasharray:2.0,2.0;" x1="295.2" x2="579.2" y1="638.9313" y2="638.9313"/><text fill="#000000" font-family="sans-serif" font-size="10.4" font-weight="bold" lengthAdjust="spacing" textLength="11.2" x="304.8" y="634.7211">18</text><text fill="#000000" font-family="sans-serif" font-size="10.4" lengthAdjust="spacing" textLength="95.2" x="319.2" y="634.7211">greenSpaceManager</text><polygon fill="#181818" points="59.2,660.7641,51.2,663.9641,59.2,667.1641,56,663.9641" style="stroke:#181818;stroke-width:0.8000000000000002;"/><line style="stroke:#181818;stroke-width:0.8000000000000002;stroke-dasharray:2.0,2.0;" x1="54.4" x2="286.4" y1="663.9641" y2="663.9641"/><text fill="#000000" font-family="sans-serif" font-size="10.4" font-weight="bold" lengthAdjust="spacing" textLength="11.2" x="64" y="659.7539">19</text><text fill="#000000" font-family="sans-serif" font-size="10.4" lengthAdjust="spacing" textLength="186.4" x="78.4" y="659.7539">asks the user to choose a sorting option</text><polygon fill="#181818" points="273.6,685.7969,281.6,688.9969,273.6,692.1969,276.8,688.9969" style="stroke:#181818;stroke-width:0.8000000000000002;"/><line style="stroke:#181818;stroke-width:0.8000000000000002;" x1="50.4" x2="278.4" y1="688.9969" y2="688.9969"/><text fill="#000000" font-family="sans-serif" font-size="10.4" font-weight="bold" lengthAdjust="spacing" textLength="11.2" x="56" y="684.7867">20</text><text fill="#000000" font-family="sans-serif" font-size="10.4" lengthAdjust="spacing" textLength="113.6" x="70.4" y="684.7867">chooses a sorting option</text><polygon fill="#181818" points="59.2,710.8297,51.2,714.0297,59.2,717.2297,56,714.0297" style="stroke:#181818;stroke-width:0.8000000000000002;"/><line style="stroke:#181818;stroke-width:0.8000000000000002;stroke-dasharray:2.0,2.0;" x1="54.4" x2="286.4" y1="714.0297" y2="714.0297"/><text fill="#000000" font-family="sans-serif" font-size="10.4" font-weight="bold" lengthAdjust="spacing" textLength="11.2" x="64" y="709.8195">21</text><text fill="#000000" font-family="sans-serif" font-size="10.4" lengthAdjust="spacing" textLength="96" x="78.4" y="709.8195">asks for confirmation</text><polygon fill="#181818" points="273.6,735.8625,281.6,739.0625,273.6,742.2625,276.8,739.0625" style="stroke:#181818;stroke-width:0.8000000000000002;"/><line style="stroke:#181818;stroke-width:0.8000000000000002;" x1="50.4" x2="278.4" y1="739.0625" y2="739.0625"/><text fill="#000000" font-family="sans-serif" font-size="10.4" font-weight="bold" lengthAdjust="spacing" textLength="11.2" x="56" y="734.8523">22</text><text fill="#000000" font-family="sans-serif" font-size="10.4" lengthAdjust="spacing" textLength="183.2" x="70.4" y="734.8523">confirms that he wants to create the list</text><polygon fill="#181818" points="566.4,760.8953,574.4,764.0953,566.4,767.2953,569.6,764.0953" style="stroke:#181818;stroke-width:0.8000000000000002;"/><line style="stroke:#181818;stroke-width:0.8000000000000002;" x1="291.2" x2="571.2" y1="764.0953" y2="764.0953"/><text fill="#000000" font-family="sans-serif" font-size="10.4" font-weight="bold" lengthAdjust="spacing" textLength="11.2" x="296.8" y="759.8852">23</text><text fill="#000000" font-family="sans-serif" font-size="10.4" lengthAdjust="spacing" textLength="255.2" x="311.2" y="759.8852">getGreenSpaceList(greenSpaceManager,sortingOption)</text><polygon fill="#181818" points="1046.4,785.9281,1054.4,789.1281,1046.4,792.3281,1049.6,789.1281" style="stroke:#181818;stroke-width:0.8000000000000002;"/><line style="stroke:#181818;stroke-width:0.8000000000000002;" x1="584" x2="1051.2" y1="789.1281" y2="789.1281"/><text fill="#000000" font-family="sans-serif" font-size="10.4" font-weight="bold" lengthAdjust="spacing" textLength="11.2" x="589.6" y="784.918">24</text><text fill="#000000" font-family="sans-serif" font-size="10.4" lengthAdjust="spacing" textLength="60" x="604" y="784.918">getInstance()</text><polygon fill="#181818" points="592.8,810.9609,584.8,814.1609,592.8,817.3609,589.6,814.1609" style="stroke:#181818;stroke-width:0.8000000000000002;"/><line style="stroke:#181818;stroke-width:0.8000000000000002;stroke-dasharray:2.0,2.0;" x1="588" x2="1059.2" y1="814.1609" y2="814.1609"/><text fill="#000000" font-family="sans-serif" font-size="10.4" font-weight="bold" lengthAdjust="spacing" textLength="11.2" x="597.6" y="809.9508">25</text><text fill="#000000" font-family="sans-serif" font-size="10.4" lengthAdjust="spacing" textLength="53.6" x="612" y="809.9508">repositories</text><polygon fill="#181818" points="1132,835.9938,1140,839.1938,1132,842.3938,1135.2,839.1938" style="stroke:#181818;stroke-width:0.8000000000000002;"/><line style="stroke:#181818;stroke-width:0.8000000000000002;" x1="584" x2="1136.8" y1="839.1938" y2="839.1938"/><text fill="#000000" font-family="sans-serif" font-size="10.4" font-weight="bold" lengthAdjust="spacing" textLength="11.2" x="589.6" y="834.9836">26</text><text fill="#000000" font-family="sans-serif" font-size="10.4" lengthAdjust="spacing" textLength="128" x="604" y="834.9836">getGreenSpaceRepository()</text><polygon fill="#181818" points="592.8,861.0266,584.8,864.2266,592.8,867.4266,589.6,864.2266" style="stroke:#181818;stroke-width:0.8000000000000002;"/><line style="stroke:#181818;stroke-width:0.8000000000000002;stroke-dasharray:2.0,2.0;" x1="588" x2="1144.8" y1="864.2266" y2="864.2266"/><text fill="#000000" font-family="sans-serif" font-size="10.4" font-weight="bold" lengthAdjust="spacing" textLength="11.2" x="597.6" y="860.0164">27</text><text fill="#000000" font-family="sans-serif" font-size="10.4" lengthAdjust="spacing" textLength="104.8" x="612" y="860.0164">greenSpaceRepository</text><polygon fill="#181818" points="1418,886.0594,1426,889.2594,1418,892.4594,1421.2,889.2594" style="stroke:#181818;stroke-width:0.8000000000000002;"/><line style="stroke:#181818;stroke-width:0.8000000000000002;" x1="584" x2="1422.8" y1="889.2594" y2="889.2594"/><text fill="#000000" font-family="sans-serif" font-size="10.4" font-weight="bold" lengthAdjust="spacing" textLength="11.2" x="589.6" y="885.0492">28</text><text fill="#000000" font-family="sans-serif" font-size="10.4" lengthAdjust="spacing" textLength="255.2" x="604" y="885.0492">getGreenSpaceList(greenSpaceManager,sortingOption)</text><polygon fill="#181818" points="1621.2,911.0922,1629.2,914.2922,1621.2,917.4922,1624.4,914.2922" style="stroke:#181818;stroke-width:0.8000000000000002;"/><line style="stroke:#181818;stroke-width:0.8000000000000002;" x1="1435.6" x2="1626" y1="914.2922" y2="914.2922"/><text fill="#000000" font-family="sans-serif" font-size="10.4" font-weight="bold" lengthAdjust="spacing" textLength="11.2" x="1441.2" y="910.082">29</text><text fill="#000000" font-family="sans-serif" font-size="10.4" lengthAdjust="spacing" textLength="35.2" x="1455.6" y="910.082">create()</text><rect fill="#E3E3E3" height="40.9938" rx="2" ry="2" style="stroke:#181818;stroke-width:0.4000000000000001;" width="108.8" x="1630.8" y="895.6594"/><text fill="#000000" font-family="sans-serif" font-size="11.2" lengthAdjust="spacing" textLength="79.2" x="1645.6" y="913.3453">greenSpaceList</text><text fill="#000000" font-family="sans-serif" font-size="11.2" lengthAdjust="spacing" textLength="97.6" x="1636.4" y="928.2422">:List&lt;GreenSpace&gt;</text><path d="M1349.2,951.0531 L1407.6,951.0531 L1407.6,958.4859 L1399.6,966.4859 L1349.2,966.4859 L1349.2,951.0531 " fill="#EEEEEE" style="stroke:#000000;stroke-width:1.2000000000000002;"/><rect fill="none" height="67.0984" style="stroke:#000000;stroke-width:1.2000000000000002;" width="406.4" x="1349.2" y="951.0531"/><text fill="#000000" font-family="sans-serif" font-size="10.4" font-weight="bold" lengthAdjust="spacing" textLength="22.4" x="1361.2" y="963.0758">loop</text><text fill="#000000" font-family="sans-serif" font-size="8.8" font-weight="bold" lengthAdjust="spacing" textLength="180" x="1419.6" y="962.1492">[for each greenSpace in greenSpaceList]</text><path d="M1357.2,972.0859 L1409.2,972.0859 L1409.2,979.5188 L1401.2,987.5188 L1357.2,987.5188 L1357.2,972.0859 " fill="#EEEEEE" style="stroke:#000000;stroke-width:1.2000000000000002;"/><rect fill="none" height="40.4656" style="stroke:#000000;stroke-width:1.2000000000000002;" width="390.4" x="1357.2" y="972.0859"/><text fill="#000000" font-family="sans-serif" font-size="10.4" font-weight="bold" lengthAdjust="spacing" textLength="16" x="1369.2" y="984.1086">opt</text><text fill="#000000" font-family="sans-serif" font-size="8.8" font-weight="bold" lengthAdjust="spacing" textLength="208" x="1421.2" y="983.182">[greenSpace.getGSM() == greenSpaceManager]</text><polygon fill="#181818" points="1671.6,1002.9516,1679.6,1006.1516,1671.6,1009.3516,1674.8,1006.1516" style="stroke:#181818;stroke-width:0.8000000000000002;"/><line style="stroke:#181818;stroke-width:0.8000000000000002;" x1="1435.6" x2="1676.4" y1="1006.1516" y2="1006.1516"/><text fill="#000000" font-family="sans-serif" font-size="10.4" font-weight="bold" lengthAdjust="spacing" textLength="11.2" x="1441.2" y="1001.9414">30</text><text fill="#000000" font-family="sans-serif" font-size="10.4" lengthAdjust="spacing" textLength="118.4" x="1455.6" y="1001.9414">add(greenSpaceManager)</text><line style="stroke:#181818;stroke-width:0.8000000000000002;" x1="1689.2" x2="1726.8" y1="1038.3844" y2="1038.3844"/><line style="stroke:#181818;stroke-width:0.8000000000000002;" x1="1726.8" x2="1726.8" y1="1038.3844" y2="1048.7844"/><line style="stroke:#181818;stroke-width:0.8000000000000002;" x1="1694" x2="1726.8" y1="1048.7844" y2="1048.7844"/><polygon fill="#181818" points="1702,1045.5844,1694,1048.7844,1702,1051.9844,1698.8,1048.7844" style="stroke:#181818;stroke-width:0.8000000000000002;"/><text fill="#000000" font-family="sans-serif" font-size="10.4" font-weight="bold" lengthAdjust="spacing" textLength="11.2" x="1698.8" y="1034.1742">31</text><text fill="#000000" font-family="sans-serif" font-size="10.4" lengthAdjust="spacing" textLength="85.6" x="1713.2" y="1034.1742">sort(sortingOption)</text><polygon fill="#181818" points="1444.4,1074.6172,1436.4,1077.8172,1444.4,1081.0172,1441.2,1077.8172" style="stroke:#181818;stroke-width:0.8000000000000002;"/><line style="stroke:#181818;stroke-width:0.8000000000000002;stroke-dasharray:2.0,2.0;" x1="1439.6" x2="1684.4" y1="1077.8172" y2="1077.8172"/><text fill="#000000" font-family="sans-serif" font-size="10.4" font-weight="bold" lengthAdjust="spacing" textLength="11.2" x="1449.2" y="1073.607">32</text><text fill="#000000" font-family="sans-serif" font-size="10.4" lengthAdjust="spacing" textLength="72" x="1463.6" y="1073.607">greenSpaceList</text><polygon fill="#181818" points="592.8,1099.65,584.8,1102.85,592.8,1106.05,589.6,1102.85" style="stroke:#181818;stroke-width:0.8000000000000002;"/><line style="stroke:#181818;stroke-width:0.8000000000000002;stroke-dasharray:2.0,2.0;" x1="588" x2="1430.8" y1="1102.85" y2="1102.85"/><text fill="#000000" font-family="sans-serif" font-size="10.4" font-weight="bold" lengthAdjust="spacing" textLength="11.2" x="597.6" y="1098.6398">33</text><text fill="#000000" font-family="sans-serif" font-size="10.4" lengthAdjust="spacing" textLength="72" x="612" y="1098.6398">greenSpaceList</text><polygon fill="#181818" points="1550.8,1124.6828,1558.8,1127.8828,1550.8,1131.0828,1554,1127.8828" style="stroke:#181818;stroke-width:0.8000000000000002;"/><line style="stroke:#181818;stroke-width:0.8000000000000002;" x1="584" x2="1555.6" y1="1127.8828" y2="1127.8828"/><text fill="#000000" font-family="sans-serif" font-size="10.4" font-weight="bold" lengthAdjust="spacing" textLength="11.2" x="589.6" y="1123.6727">34</text><text fill="#000000" font-family="sans-serif" font-size="10.4" lengthAdjust="spacing" textLength="108" x="604" y="1123.6727">toDTO(greenSpaceList)</text><polygon fill="#181818" points="1850.8,1149.7156,1858.8,1152.9156,1850.8,1156.1156,1854,1152.9156" style="stroke:#181818;stroke-width:0.8000000000000002;"/><line style="stroke:#181818;stroke-width:0.8000000000000002;stroke-dasharray:2.0,2.0;" x1="1568.4" x2="1855.6" y1="1152.9156" y2="1152.9156"/><text fill="#000000" font-family="sans-serif" font-size="10.4" font-weight="bold" lengthAdjust="spacing" textLength="11.2" x="1574" y="1148.7055">35</text><text fill="#000000" font-family="sans-serif" font-size="10.4" lengthAdjust="spacing" textLength="35.2" x="1588.4" y="1148.7055">create()</text><rect fill="#E3E3E3" height="40.9938" rx="2" ry="2" style="stroke:#181818;stroke-width:0.4000000000000001;" width="126.4" x="1860.4" y="1134.2828"/><text fill="#000000" font-family="sans-serif" font-size="11.2" lengthAdjust="spacing" textLength="96.8" x="1875.2" y="1151.9688">greenSpaceListDto</text><text fill="#000000" font-family="sans-serif" font-size="11.2" lengthAdjust="spacing" textLength="115.2" x="1866" y="1166.8656">:List&lt;GreenSpaceDto&gt;</text><path d="M1498,1189.6766 L1556.4,1189.6766 L1556.4,1197.1094 L1548.4,1205.1094 L1498,1205.1094 L1498,1189.6766 " fill="#EEEEEE" style="stroke:#000000;stroke-width:1.2000000000000002;"/><rect fill="none" height="140.5969" style="stroke:#000000;stroke-width:1.2000000000000002;" width="496.8" x="1498" y="1189.6766"/><text fill="#000000" font-family="sans-serif" font-size="10.4" font-weight="bold" lengthAdjust="spacing" textLength="22.4" x="1510" y="1201.6992">loop</text><text fill="#000000" font-family="sans-serif" font-size="8.8" font-weight="bold" lengthAdjust="spacing" textLength="120.8" x="1568.4" y="1200.7727">[for each entry in entryList]</text><polygon fill="#181818" points="1671.6,1220.5422,1679.6,1223.7422,1671.6,1226.9422,1674.8,1223.7422" style="stroke:#181818;stroke-width:0.8000000000000002;"/><line style="stroke:#181818;stroke-width:0.8000000000000002;" x1="1568.4" x2="1676.4" y1="1223.7422" y2="1223.7422"/><text fill="#000000" font-family="sans-serif" font-size="10.4" font-weight="bold" lengthAdjust="spacing" textLength="11.2" x="1574" y="1219.532">36</text><text fill="#000000" font-family="sans-serif" font-size="10.4" lengthAdjust="spacing" textLength="23.2" x="1588.4" y="1219.532">get(i)</text><polygon fill="#181818" points="1577.2,1245.575,1569.2,1248.775,1577.2,1251.975,1574,1248.775" style="stroke:#181818;stroke-width:0.8000000000000002;"/><line style="stroke:#181818;stroke-width:0.8000000000000002;stroke-dasharray:2.0,2.0;" x1="1572.4" x2="1684.4" y1="1248.775" y2="1248.775"/><text fill="#000000" font-family="sans-serif" font-size="10.4" font-weight="bold" lengthAdjust="spacing" textLength="11.2" x="1582" y="1244.5648">37</text><text fill="#000000" font-family="sans-serif" font-size="10.4" lengthAdjust="spacing" textLength="23.2" x="1596.4" y="1244.5648">entry</text><polygon fill="#181818" points="1790.8,1270.6078,1798.8,1273.8078,1790.8,1277.0078,1794,1273.8078" style="stroke:#181818;stroke-width:0.8000000000000002;"/><line style="stroke:#181818;stroke-width:0.8000000000000002;" x1="1568.4" x2="1795.6" y1="1273.8078" y2="1273.8078"/><text fill="#000000" font-family="sans-serif" font-size="10.4" font-weight="bold" lengthAdjust="spacing" textLength="11.2" x="1574" y="1269.5977">38</text><text fill="#000000" font-family="sans-serif" font-size="10.4" lengthAdjust="spacing" textLength="84" x="1588.4" y="1269.5977">toDTOEntry(entry)</text><polygon fill="#181818" points="1577.2,1295.6406,1569.2,1298.8406,1577.2,1302.0406,1574,1298.8406" style="stroke:#181818;stroke-width:0.8000000000000002;"/><line style="stroke:#181818;stroke-width:0.8000000000000002;stroke-dasharray:2.0,2.0;" x1="1572.4" x2="1803.6" y1="1298.8406" y2="1298.8406"/><text fill="#000000" font-family="sans-serif" font-size="10.4" font-weight="bold" lengthAdjust="spacing" textLength="11.2" x="1582" y="1294.6305">39</text><text fill="#000000" font-family="sans-serif" font-size="10.4" lengthAdjust="spacing" textLength="39.2" x="1596.4" y="1294.6305">entryDto</text><polygon fill="#181818" points="1910,1320.6734,1918,1323.8734,1910,1327.0734,1913.2,1323.8734" style="stroke:#181818;stroke-width:0.8000000000000002;"/><line style="stroke:#181818;stroke-width:0.8000000000000002;" x1="1568.4" x2="1914.8" y1="1323.8734" y2="1323.8734"/><text fill="#000000" font-family="sans-serif" font-size="10.4" font-weight="bold" lengthAdjust="spacing" textLength="11.2" x="1574" y="1319.6633">40</text><text fill="#000000" font-family="sans-serif" font-size="10.4" lengthAdjust="spacing" textLength="59.2" x="1588.4" y="1319.6633">add(taskDto)</text><polygon fill="#181818" points="1577.2,1351.3063,1569.2,1354.5063,1577.2,1357.7063,1574,1354.5063" style="stroke:#181818;stroke-width:0.8000000000000002;"/><line style="stroke:#181818;stroke-width:0.8000000000000002;stroke-dasharray:2.0,2.0;" x1="1572.4" x2="1922.8" y1="1354.5063" y2="1354.5063"/><text fill="#000000" font-family="sans-serif" font-size="10.4" font-weight="bold" lengthAdjust="spacing" textLength="11.2" x="1582" y="1350.2961">41</text><text fill="#000000" font-family="sans-serif" font-size="10.4" lengthAdjust="spacing" textLength="62.4" x="1596.4" y="1350.2961">listEntriesDto</text><polygon fill="#181818" points="592.8,1376.3391,584.8,1379.5391,592.8,1382.7391,589.6,1379.5391" style="stroke:#181818;stroke-width:0.8000000000000002;"/><line style="stroke:#181818;stroke-width:0.8000000000000002;stroke-dasharray:2.0,2.0;" x1="588" x2="1563.6" y1="1379.5391" y2="1379.5391"/><text fill="#000000" font-family="sans-serif" font-size="10.4" font-weight="bold" lengthAdjust="spacing" textLength="11.2" x="597.6" y="1375.3289">42</text><text fill="#000000" font-family="sans-serif" font-size="10.4" lengthAdjust="spacing" textLength="88" x="612" y="1375.3289">greenSpaceListDto</text><polygon fill="#181818" points="300,1401.3719,292,1404.5719,300,1407.7719,296.8,1404.5719" style="stroke:#181818;stroke-width:0.8000000000000002;"/><line style="stroke:#181818;stroke-width:0.8000000000000002;stroke-dasharray:2.0,2.0;" x1="295.2" x2="579.2" y1="1404.5719" y2="1404.5719"/><text fill="#000000" font-family="sans-serif" font-size="10.4" font-weight="bold" lengthAdjust="spacing" textLength="11.2" x="304.8" y="1400.3617">43</text><text fill="#000000" font-family="sans-serif" font-size="10.4" lengthAdjust="spacing" textLength="88" x="319.2" y="1400.3617">greenSpaceListDto</text><polygon fill="#181818" points="55.2,1426.4047,47.2,1429.6047,55.2,1432.8047,52,1429.6047" style="stroke:#181818;stroke-width:0.8000000000000002;"/><line style="stroke:#181818;stroke-width:0.8000000000000002;stroke-dasharray:2.0,2.0;" x1="50.4" x2="286.4" y1="1429.6047" y2="1429.6047"/><text fill="#000000" font-family="sans-serif" font-size="10.4" font-weight="bold" lengthAdjust="spacing" textLength="11.2" x="60" y="1425.3945">44</text><text fill="#000000" font-family="sans-serif" font-size="10.4" lengthAdjust="spacing" textLength="64" x="74.4" y="1425.3945">shows the list</text><!--SRC=[rLZVJzim47xFNs7nib2D_G7LG6BGeKfq809lI9ERcjOYjIFR7Uj_lxFpetPYft6tb-K1slJkk- -pxywNo7VAIYpm5cqvu_b6y2r1Ikn88jjVIfo_upN9rBuWI91SOROkR0EvmIl-GTaQlU52aYJ1EyNPRhia8aa-RUYAe3VErPB_Jd2kk41dTu8GzieoW2PeWHd0YrUMtcMBypE49O8F2M0hcjCICuNEflTKAkDbV5xcnknbFcXrmvaIl2Y8CDOtpq_t7VlhiYneZXNbB2DImZzZ-VFwyT6rn6LP6xooa5VFATy9GPWwEBv88coFR9PbyuSV7L9FfEIImZfH8erPUsEVKRtqiBYkYx0y84mVODPb1gk2brnWC3gWW-kDzmS3ulTnSTVjsZkeTvxR1jDdtrcDW-y2Dg7UokfZABRE0eYg_tqzk5zr8kgVGmYtYZkquRlnldr-60fQkNNYmiqgzFqyUzO0kWZeBwo8IVC4rHTyGHTNaDDe2jRl4YcE2e12k2WisX9jJRsiq7AFDdHx06XXeIpQcyq5i02kIs0oWG2v863Pit8jmMvDb9qIt_QpBQP5IlJVSw-xmyIKNCZAX0Y6-WwjgAwLz6yZ7QMW2tuoCHpcJ4A3oyb0K5zyqpB6U9XBMpVIORVRvZ86O4NYWpOw3p9ldDuKAJPAgv7QQdLxOgJUMBbrVwqbw-vRfM-SsgPBZrPSErYgJRr4Yct27XFfEHrGJ2Qt0Nt7pA2dB_B5eQ3jKoaPAJgAGxi2iyT-_x0Eb77gPqToIqUnrENniMoTGz4QNVuG9tTbHsw0_g1pWCz_nDGwRQonmeoVnylRshvJE1rt7yw7PZReCnyHyRJZSGX0Zmb0IKyjpRoo8MW7FLOFBlc6SqaGHfB3j0HF1hnKTh-taErfnPw1AWWPnWZEEmTgDRCtUER8ENkZOei7QDWO3fFALIl42e7A3vZzp7nMZL56kHxL_DIIeUdgpXaWqzxcVgx5FnZjRicucvFyomCYlY4F7GP7peBO_j_h-xxdYq5HeUvhz_Yf_-aajgatP7rWfwL0M9UNSB2wlOmSffgF7fwgD1-O8mhEIrDbi1WR2m1HrdtYWYAsRdtH-hD5UeukBoCwstZwkZcjLlr5FJu2UbRL233Ns56Gi5MSyLZRZagVRfqswK3xE4ayYhowF0ELC3qva5L_iH0dkFgJpZTMrBaoAgPThQvBqpsg5nuGGF7RvuVK3HCu5UgN9CwFDOvcNB-Ei5u7U0hSBMnuS0EvKDFcmxrzulc2U78IoZsb8nxdu_UZJQzsgGp997xpXoN1aZNRCDC1KXDcX2JpwYTafL7xv6yL7yDV8m-JhlUwReOAXYA07i6vUMNbRMlEtIQ28qBFH7gHuD3lIR7u-w9OYUejBOsN1F3gn0-Cq3wa-A4Nskk6VqXtzEjCjTPNywOl-GC0]--></g></svg>