<?xml version="1.0" encoding="us-ascii" standalone="no"?><svg xmlns="http://www.w3.org/2000/svg" xmlns:xlink="http://www.w3.org/1999/xlink" contentStyleType="text/css" height="767px" preserveAspectRatio="none" style="width:1307px;height:767px;background:#FFFFFF;" version="1.1" viewBox="0 0 1307 767" width="1307px" zoomAndPan="magnify"><defs/><g><rect fill="#FFFFFF" height="602.8887" style="stroke:#181818;stroke-width:1.0;" width="10" x="205" y="90.5332"/><rect fill="#FFFFFF" height="537.3066" style="stroke:#181818;stroke-width:1.0;" width="10" x="210" y="156.1152"/><rect fill="#FFFFFF" height="33.6211" style="stroke:#181818;stroke-width:1.0;" width="10" x="423" y="202.4063"/><rect fill="#FFFFFF" height="52.2422" style="stroke:#181818;stroke-width:1.0;" width="10" x="570" y="277.3184"/><rect fill="#FFFFFF" height="52.2422" style="stroke:#181818;stroke-width:1.0;" width="10" x="703" y="370.8516"/><rect fill="#FFFFFF" height="31.291" style="stroke:#181818;stroke-width:1.0;" width="10" x="816" y="454.3848"/><rect fill="#FFFFFF" height="31.291" style="stroke:#181818;stroke-width:1.0;" width="10" x="923" y="516.9668"/><rect fill="#FFFFFF" height="75.582" style="stroke:#181818;stroke-width:1.0;" width="10" x="1063.5" y="579.5488"/><rect fill="#FFFFFF" height="36.291" style="stroke:#181818;stroke-width:1.0;" width="10" x="1068.5" y="618.8398"/><rect fill="none" height="557.5977" style="stroke:#000000;stroke-width:1.5;" width="1168" x="133.5" y="105.5332"/><line style="stroke:#181818;stroke-width:0.5;stroke-dasharray:5.0,5.0;" x1="209.5" x2="209.5" y1="57.2422" y2="711.4219"/><line style="stroke:#181818;stroke-width:0.5;stroke-dasharray:5.0,5.0;" x1="427.5" x2="427.5" y1="200.9258" y2="711.4219"/><line style="stroke:#181818;stroke-width:0.5;stroke-dasharray:5.0,5.0;" x1="574.5" x2="574.5" y1="285.1484" y2="711.4219"/><line style="stroke:#181818;stroke-width:0.5;stroke-dasharray:5.0,5.0;" x1="707.5" x2="707.5" y1="378.6816" y2="711.4219"/><line style="stroke:#181818;stroke-width:0.5;stroke-dasharray:5.0,5.0;" x1="820.5" x2="820.5" y1="57.2422" y2="711.4219"/><line style="stroke:#181818;stroke-width:0.5;stroke-dasharray:5.0,5.0;" x1="927.5" x2="927.5" y1="57.2422" y2="711.4219"/><line style="stroke:#181818;stroke-width:0.5;stroke-dasharray:5.0,5.0;" x1="1068.5" x2="1068.5" y1="57.2422" y2="711.4219"/><rect fill="#E3E3E3" height="32.6211" rx="2.5" ry="2.5" style="stroke:#181818;stroke-width:0.5;" width="133" x="143.5" y="23.6211"/><text fill="#000000" font-family="sans-serif" font-size="14" lengthAdjust="spacing" textLength="119" x="150.5" y="45.7285">:ListTaskController</text><rect fill="#E3E3E3" height="32.6211" rx="2.5" ry="2.5" style="stroke:#181818;stroke-width:0.5;" width="133" x="143.5" y="710.4219"/><text fill="#000000" font-family="sans-serif" font-size="14" lengthAdjust="spacing" textLength="119" x="150.5" y="732.5293">:ListTaskController</text><rect fill="#E3E3E3" height="32.6211" rx="2.5" ry="2.5" style="stroke:#181818;stroke-width:0.5;" width="137" x="359.5" y="710.4219"/><text fill="#000000" font-family="sans-serif" font-size="14" lengthAdjust="spacing" textLength="123" x="366.5" y="732.5293">:ApplicationSession</text><rect fill="#E3E3E3" height="51.2422" rx="2.5" ry="2.5" style="stroke:#181818;stroke-width:0.5;" width="137" x="506.5" y="710.4219"/><text fill="#000000" font-family="sans-serif" font-size="14" lengthAdjust="spacing" textLength="74" x="538" y="732.5293">appSession</text><text fill="#000000" font-family="sans-serif" font-size="14" lengthAdjust="spacing" textLength="123" x="513.5" y="751.1504">:ApplicationSession</text><rect fill="#E3E3E3" height="51.2422" rx="2.5" ry="2.5" style="stroke:#181818;stroke-width:0.5;" width="109" x="653.5" y="710.4219"/><text fill="#000000" font-family="sans-serif" font-size="14" lengthAdjust="spacing" textLength="95" x="660.5" y="732.5293">currentSession</text><text fill="#000000" font-family="sans-serif" font-size="14" lengthAdjust="spacing" textLength="83" x="666.5" y="751.1504">:UserSession</text><rect fill="#E3E3E3" height="32.6211" rx="2.5" ry="2.5" style="stroke:#181818;stroke-width:0.5;" width="97" x="772.5" y="23.6211"/><text fill="#000000" font-family="sans-serif" font-size="14" lengthAdjust="spacing" textLength="83" x="779.5" y="45.7285">:Repositories</text><rect fill="#E3E3E3" height="32.6211" rx="2.5" ry="2.5" style="stroke:#181818;stroke-width:0.5;" width="97" x="772.5" y="710.4219"/><text fill="#000000" font-family="sans-serif" font-size="14" lengthAdjust="spacing" textLength="83" x="779.5" y="732.5293">:Repositories</text><rect fill="#E3E3E3" height="51.2422" rx="2.5" ry="2.5" style="stroke:#181818;stroke-width:0.5;" width="97" x="879.5" y="5"/><text fill="#000000" font-family="sans-serif" font-size="14" lengthAdjust="spacing" textLength="74" x="891" y="27.1074">repositories</text><text fill="#000000" font-family="sans-serif" font-size="14" lengthAdjust="spacing" textLength="83" x="886.5" y="45.7285">:Repositories</text><rect fill="#E3E3E3" height="51.2422" rx="2.5" ry="2.5" style="stroke:#181818;stroke-width:0.5;" width="97" x="879.5" y="710.4219"/><text fill="#000000" font-family="sans-serif" font-size="14" lengthAdjust="spacing" textLength="74" x="891" y="732.5293">repositories</text><text fill="#000000" font-family="sans-serif" font-size="14" lengthAdjust="spacing" textLength="83" x="886.5" y="751.1504">:Repositories</text><rect fill="#E3E3E3" height="51.2422" rx="2.5" ry="2.5" style="stroke:#181818;stroke-width:0.5;" width="164" x="986.5" y="5"/><text fill="#000000" font-family="sans-serif" font-size="14" lengthAdjust="spacing" textLength="143" x="997" y="27.1074">collaboratorRepository</text><text fill="#000000" font-family="sans-serif" font-size="14" lengthAdjust="spacing" textLength="150" x="993.5" y="45.7285">:CollaboratorRepository</text><rect fill="#E3E3E3" height="51.2422" rx="2.5" ry="2.5" style="stroke:#181818;stroke-width:0.5;" width="164" x="986.5" y="710.4219"/><text fill="#000000" font-family="sans-serif" font-size="14" lengthAdjust="spacing" textLength="143" x="997" y="732.5293">collaboratorRepository</text><text fill="#000000" font-family="sans-serif" font-size="14" lengthAdjust="spacing" textLength="150" x="993.5" y="751.1504">:CollaboratorRepository</text><rect fill="#FFFFFF" height="602.8887" style="stroke:#181818;stroke-width:1.0;" width="10" x="205" y="90.5332"/><rect fill="#FFFFFF" height="537.3066" style="stroke:#181818;stroke-width:1.0;" width="10" x="210" y="156.1152"/><rect fill="#FFFFFF" height="33.6211" style="stroke:#181818;stroke-width:1.0;" width="10" x="423" y="202.4063"/><rect fill="#FFFFFF" height="52.2422" style="stroke:#181818;stroke-width:1.0;" width="10" x="570" y="277.3184"/><rect fill="#FFFFFF" height="52.2422" style="stroke:#181818;stroke-width:1.0;" width="10" x="703" y="370.8516"/><rect fill="#FFFFFF" height="31.291" style="stroke:#181818;stroke-width:1.0;" width="10" x="816" y="454.3848"/><rect fill="#FFFFFF" height="31.291" style="stroke:#181818;stroke-width:1.0;" width="10" x="923" y="516.9668"/><rect fill="#FFFFFF" height="75.582" style="stroke:#181818;stroke-width:1.0;" width="10" x="1063.5" y="579.5488"/><rect fill="#FFFFFF" height="36.291" style="stroke:#181818;stroke-width:1.0;" width="10" x="1068.5" y="618.8398"/><polygon fill="#181818" points="193,86.5332,203,90.5332,193,94.5332,197,90.5332" style="stroke:#181818;stroke-width:1.0;"/><line style="stroke:#181818;stroke-width:1.0;" x1="0" x2="199" y1="90.5332" y2="90.5332"/><text fill="#000000" font-family="sans-serif" font-size="13" font-weight="bold" lengthAdjust="spacing" textLength="7" x="7" y="85.2705">3</text><text fill="#000000" font-family="sans-serif" font-size="13" lengthAdjust="spacing" textLength="175" x="18" y="85.2705">getCollaboratorByEmail(email)</text><path d="M133.5,105.5332 L293.5,105.5332 L293.5,114.8242 L283.5,124.8242 L133.5,124.8242 L133.5,105.5332 " fill="#EEEEEE" style="stroke:#000000;stroke-width:1.5;"/><rect fill="none" height="557.5977" style="stroke:#000000;stroke-width:1.5;" width="1168" x="133.5" y="105.5332"/><text fill="#000000" font-family="sans-serif" font-size="13" font-weight="bold" lengthAdjust="spacing" textLength="115" x="148.5" y="120.5615">Get GSM by Email</text><line style="stroke:#181818;stroke-width:1.0;" x1="215" x2="262" y1="143.1152" y2="143.1152"/><line style="stroke:#181818;stroke-width:1.0;" x1="262" x2="262" y1="143.1152" y2="156.1152"/><line style="stroke:#181818;stroke-width:1.0;" x1="221" x2="262" y1="156.1152" y2="156.1152"/><polygon fill="#181818" points="231,152.1152,221,156.1152,231,160.1152,227,156.1152" style="stroke:#181818;stroke-width:1.0;"/><text fill="#000000" font-family="sans-serif" font-size="13" font-weight="bold" lengthAdjust="spacing" textLength="18" x="227" y="137.8525">3.1</text><text fill="#000000" font-family="sans-serif" font-size="13" lengthAdjust="spacing" textLength="172" x="249" y="137.8525">getCollaboratorFromSession()</text><polygon fill="#181818" points="347.5,188.4063,357.5,192.4063,347.5,196.4063,351.5,192.4063" style="stroke:#181818;stroke-width:1.0;"/><line style="stroke:#181818;stroke-width:1.0;" x1="220" x2="353.5" y1="192.4063" y2="192.4063"/><text fill="#000000" font-family="sans-serif" font-size="13" font-weight="bold" lengthAdjust="spacing" textLength="18" x="227" y="187.1436">3.2</text><text fill="#000000" font-family="sans-serif" font-size="13" lengthAdjust="spacing" textLength="75" x="249" y="187.1436">getInstance()</text><rect fill="#E3E3E3" height="32.6211" rx="2.5" ry="2.5" style="stroke:#181818;stroke-width:0.5;" width="137" x="359.5" y="169.1152"/><text fill="#000000" font-family="sans-serif" font-size="14" lengthAdjust="spacing" textLength="123" x="366.5" y="191.2227">:ApplicationSession</text><polygon fill="#181818" points="231,232.0273,221,236.0273,231,240.0273,227,236.0273" style="stroke:#181818;stroke-width:1.0;"/><line style="stroke:#181818;stroke-width:1.0;" x1="225" x2="427" y1="236.0273" y2="236.0273"/><text fill="#000000" font-family="sans-serif" font-size="13" font-weight="bold" lengthAdjust="spacing" textLength="18" x="237" y="230.7646">3.3</text><text fill="#000000" font-family="sans-serif" font-size="13" lengthAdjust="spacing" textLength="68" x="259" y="230.7646">appSession</text><polygon fill="#181818" points="494.5,263.3184,504.5,267.3184,494.5,271.3184,498.5,267.3184" style="stroke:#181818;stroke-width:1.0;"/><line style="stroke:#181818;stroke-width:1.0;" x1="220" x2="500.5" y1="267.3184" y2="267.3184"/><text fill="#000000" font-family="sans-serif" font-size="13" font-weight="bold" lengthAdjust="spacing" textLength="18" x="227" y="262.0557">3.4</text><text fill="#000000" font-family="sans-serif" font-size="13" lengthAdjust="spacing" textLength="115" x="249" y="262.0557">getCurrentSession()</text><rect fill="#E3E3E3" height="51.2422" rx="2.5" ry="2.5" style="stroke:#181818;stroke-width:0.5;" width="137" x="506.5" y="244.0273"/><text fill="#000000" font-family="sans-serif" font-size="14" lengthAdjust="spacing" textLength="74" x="538" y="266.1348">appSession</text><text fill="#000000" font-family="sans-serif" font-size="14" lengthAdjust="spacing" textLength="123" x="513.5" y="284.7559">:ApplicationSession</text><polygon fill="#181818" points="231,325.5605,221,329.5605,231,333.5605,227,329.5605" style="stroke:#181818;stroke-width:1.0;"/><line style="stroke:#181818;stroke-width:1.0;stroke-dasharray:2.0,2.0;" x1="225" x2="574" y1="329.5605" y2="329.5605"/><text fill="#000000" font-family="sans-serif" font-size="13" font-weight="bold" lengthAdjust="spacing" textLength="18" x="237" y="324.2979">3.5</text><text fill="#000000" font-family="sans-serif" font-size="13" lengthAdjust="spacing" textLength="87" x="259" y="324.2979">currentSession</text><polygon fill="#181818" points="641.5,356.8516,651.5,360.8516,641.5,364.8516,645.5,360.8516" style="stroke:#181818;stroke-width:1.0;"/><line style="stroke:#181818;stroke-width:1.0;" x1="220" x2="647.5" y1="360.8516" y2="360.8516"/><text fill="#000000" font-family="sans-serif" font-size="13" font-weight="bold" lengthAdjust="spacing" textLength="18" x="227" y="355.5889">3.6</text><text fill="#000000" font-family="sans-serif" font-size="13" lengthAdjust="spacing" textLength="86" x="249" y="355.5889">getUserEmail()</text><rect fill="#E3E3E3" height="51.2422" rx="2.5" ry="2.5" style="stroke:#181818;stroke-width:0.5;" width="109" x="653.5" y="337.5605"/><text fill="#000000" font-family="sans-serif" font-size="14" lengthAdjust="spacing" textLength="95" x="660.5" y="359.668">currentSession</text><text fill="#000000" font-family="sans-serif" font-size="14" lengthAdjust="spacing" textLength="83" x="666.5" y="378.2891">:UserSession</text><polygon fill="#181818" points="231,419.0938,221,423.0938,231,427.0938,227,423.0938" style="stroke:#181818;stroke-width:1.0;"/><line style="stroke:#181818;stroke-width:1.0;stroke-dasharray:2.0,2.0;" x1="225" x2="707" y1="423.0938" y2="423.0938"/><text fill="#000000" font-family="sans-serif" font-size="13" font-weight="bold" lengthAdjust="spacing" textLength="18" x="237" y="417.8311">3.7</text><text fill="#000000" font-family="sans-serif" font-size="13" lengthAdjust="spacing" textLength="31" x="259" y="417.8311">email</text><polygon fill="#181818" points="804,450.3848,814,454.3848,804,458.3848,808,454.3848" style="stroke:#181818;stroke-width:1.0;"/><line style="stroke:#181818;stroke-width:1.0;" x1="220" x2="810" y1="454.3848" y2="454.3848"/><text fill="#000000" font-family="sans-serif" font-size="13" font-weight="bold" lengthAdjust="spacing" textLength="18" x="227" y="449.1221">3.8</text><text fill="#000000" font-family="sans-serif" font-size="13" lengthAdjust="spacing" textLength="75" x="249" y="449.1221">getInstance()</text><polygon fill="#181818" points="231,481.6758,221,485.6758,231,489.6758,227,485.6758" style="stroke:#181818;stroke-width:1.0;"/><line style="stroke:#181818;stroke-width:1.0;stroke-dasharray:2.0,2.0;" x1="225" x2="820" y1="485.6758" y2="485.6758"/><text fill="#000000" font-family="sans-serif" font-size="13" font-weight="bold" lengthAdjust="spacing" textLength="18" x="237" y="480.4131">3.9</text><text fill="#000000" font-family="sans-serif" font-size="13" lengthAdjust="spacing" textLength="67" x="259" y="480.4131">repositories</text><polygon fill="#181818" points="911,512.9668,921,516.9668,911,520.9668,915,516.9668" style="stroke:#181818;stroke-width:1.0;"/><line style="stroke:#181818;stroke-width:1.0;" x1="220" x2="917" y1="516.9668" y2="516.9668"/><text fill="#000000" font-family="sans-serif" font-size="13" font-weight="bold" lengthAdjust="spacing" textLength="25" x="227" y="511.7041">3.10</text><text fill="#000000" font-family="sans-serif" font-size="13" lengthAdjust="spacing" textLength="149" x="256" y="511.7041">getCollaboratorRepository</text><polygon fill="#181818" points="231,544.2578,221,548.2578,231,552.2578,227,548.2578" style="stroke:#181818;stroke-width:1.0;"/><line style="stroke:#181818;stroke-width:1.0;stroke-dasharray:2.0,2.0;" x1="225" x2="927" y1="548.2578" y2="548.2578"/><text fill="#000000" font-family="sans-serif" font-size="13" font-weight="bold" lengthAdjust="spacing" textLength="25" x="237" y="542.9951">3.11</text><text fill="#000000" font-family="sans-serif" font-size="13" lengthAdjust="spacing" textLength="129" x="266" y="542.9951">collaboratorRepository</text><polygon fill="#181818" points="1051.5,575.5488,1061.5,579.5488,1051.5,583.5488,1055.5,579.5488" style="stroke:#181818;stroke-width:1.0;"/><line style="stroke:#181818;stroke-width:1.0;" x1="220" x2="1057.5" y1="579.5488" y2="579.5488"/><text fill="#000000" font-family="sans-serif" font-size="13" font-weight="bold" lengthAdjust="spacing" textLength="25" x="227" y="574.2861">3.12</text><text fill="#000000" font-family="sans-serif" font-size="13" lengthAdjust="spacing" textLength="175" x="256" y="574.2861">getCollaboratorByEmail(email)</text><line style="stroke:#181818;stroke-width:1.0;" x1="1073.5" x2="1120.5" y1="605.8398" y2="605.8398"/><line style="stroke:#181818;stroke-width:1.0;" x1="1120.5" x2="1120.5" y1="605.8398" y2="618.8398"/><line style="stroke:#181818;stroke-width:1.0;" x1="1079.5" x2="1120.5" y1="618.8398" y2="618.8398"/><polygon fill="#181818" points="1089.5,614.8398,1079.5,618.8398,1089.5,622.8398,1085.5,618.8398" style="stroke:#181818;stroke-width:1.0;"/><text fill="#000000" font-family="sans-serif" font-size="13" font-weight="bold" lengthAdjust="spacing" textLength="25" x="1085.5" y="600.5771">3.13</text><text fill="#000000" font-family="sans-serif" font-size="13" lengthAdjust="spacing" textLength="175" x="1114.5" y="600.5771">getCollaboratorByEmail(email)</text><polygon fill="#181818" points="231,651.1309,221,655.1309,231,659.1309,227,655.1309" style="stroke:#181818;stroke-width:1.0;"/><line style="stroke:#181818;stroke-width:1.0;stroke-dasharray:2.0,2.0;" x1="225" x2="1067.5" y1="655.1309" y2="655.1309"/><text fill="#000000" font-family="sans-serif" font-size="13" font-weight="bold" lengthAdjust="spacing" textLength="25" x="237" y="649.8682">3.14</text><text fill="#000000" font-family="sans-serif" font-size="13" lengthAdjust="spacing" textLength="119" x="266" y="649.8682">greenSpaceManager</text><polygon fill="#181818" points="11,689.4219,1,693.4219,11,697.4219,7,693.4219" style="stroke:#181818;stroke-width:1.0;"/><line style="stroke:#181818;stroke-width:1.0;stroke-dasharray:2.0,2.0;" x1="5" x2="209" y1="693.4219" y2="693.4219"/><text fill="#000000" font-family="sans-serif" font-size="13" font-weight="bold" lengthAdjust="spacing" textLength="7" x="17" y="688.1592">4</text><text fill="#000000" font-family="sans-serif" font-size="13" lengthAdjust="spacing" textLength="119" x="28" y="688.1592">greenSpaceManager</text><!--SRC=[fPLHQzim4CVVzIcElgmjf53Qfp06NV1AeUr2tRqLniMvEYAsP2HvMxxzPCLsP5ksDwe76wpx_-_7tKdMUouAL9X3BeLCTahc14QLn7IxKs2onvHYSyW852K6HPhv0Ng7M_cRYnJUCTF469P6YZBVa6Biquvl2TwbD1lvXp6hC3pX1Ge3Pyj7hiqhwlrA2gDabf4w0zImUdrvx4NU5KN64pHSYfYqjYyN-VDklUv6Ob7K0MzYJ3KG9QLI9Cn9-4EJyXLn5CSFtvzxK2zKICsDL9oq2si_769U5ScMeIjHdiAc6Hf4VJ9R5Tn8XJRev6wbg-26Cmbh_BR03MEm-E8A3Kj8oVXsNmzHZZmxf-fvqP5TNJDC3F-5XevT0hjI9Si2xid0VVm4cmCuENDxrN9PHhDzipDNb_hyejLqimoighvVNZgl1w7jH2RaYRtL-hX92KMuLUqsY4iupL18iALvquRpXBdgZDWCx2IhGsrPkwCxmpk7MuzvZLmTWkCaJDCsXsEKk0xmgDrepS0sjdt8m24R6uJMAtGmE-a30HwkVsnP07NIlkMEreFXzuxda3dgDSj-y1i_RUFJ-KODJLW-TnSC8CVk6fyx7FDnYFy6cO9fwveg8X7RdnuzeR3_FSL6vdCkup-6ajYwjtVDthOUdnUBOySW1EPbE5wJ_Gz_0G00]--></g></svg>