<?xml version="1.0" encoding="us-ascii" standalone="no"?><svg xmlns="http://www.w3.org/2000/svg" xmlns:xlink="http://www.w3.org/1999/xlink" contentStyleType="text/css" height="461px" preserveAspectRatio="none" style="width:895px;height:461px;background:#FFFFFF;" version="1.1" viewBox="0 0 895 461" width="895px" zoomAndPan="magnify"><defs/><g><rect fill="#FFFFFF" height="296.6191" style="stroke:#181818;stroke-width:1.0;" width="10" x="231" y="90.5332"/><rect fill="#FFFFFF" height="31.291" style="stroke:#181818;stroke-width:1.0;" width="10" x="384.5" y="148.1152"/><rect fill="#FFFFFF" height="31.291" style="stroke:#181818;stroke-width:1.0;" width="10" x="491.5" y="210.6973"/><rect fill="#FFFFFF" height="75.582" style="stroke:#181818;stroke-width:1.0;" width="10" x="632" y="273.2793"/><rect fill="#FFFFFF" height="36.291" style="stroke:#181818;stroke-width:1.0;" width="10" x="637" y="312.5703"/><rect fill="none" height="251.3281" style="stroke:#000000;stroke-width:1.5;" width="758" x="131" y="105.5332"/><line style="stroke:#181818;stroke-width:0.5;stroke-dasharray:5.0,5.0;" x1="236" x2="236" y1="57.2422" y2="405.1523"/><line style="stroke:#181818;stroke-width:0.5;stroke-dasharray:5.0,5.0;" x1="389" x2="389" y1="57.2422" y2="405.1523"/><line style="stroke:#181818;stroke-width:0.5;stroke-dasharray:5.0,5.0;" x1="496" x2="496" y1="57.2422" y2="405.1523"/><line style="stroke:#181818;stroke-width:0.5;stroke-dasharray:5.0,5.0;" x1="637" x2="637" y1="57.2422" y2="405.1523"/><rect fill="#E3E3E3" height="32.6211" rx="2.5" ry="2.5" style="stroke:#181818;stroke-width:0.5;" width="190" x="141" y="23.6211"/><text fill="#000000" font-family="sans-serif" font-size="14" lengthAdjust="spacing" textLength="176" x="148" y="45.7285">:ListGreenSpaceControllere</text><rect fill="#E3E3E3" height="32.6211" rx="2.5" ry="2.5" style="stroke:#181818;stroke-width:0.5;" width="190" x="141" y="404.1523"/><text fill="#000000" font-family="sans-serif" font-size="14" lengthAdjust="spacing" textLength="176" x="148" y="426.2598">:ListGreenSpaceControllere</text><rect fill="#E3E3E3" height="32.6211" rx="2.5" ry="2.5" style="stroke:#181818;stroke-width:0.5;" width="97" x="341" y="23.6211"/><text fill="#000000" font-family="sans-serif" font-size="14" lengthAdjust="spacing" textLength="83" x="348" y="45.7285">:Repositories</text><rect fill="#E3E3E3" height="32.6211" rx="2.5" ry="2.5" style="stroke:#181818;stroke-width:0.5;" width="97" x="341" y="404.1523"/><text fill="#000000" font-family="sans-serif" font-size="14" lengthAdjust="spacing" textLength="83" x="348" y="426.2598">:Repositories</text><rect fill="#E3E3E3" height="51.2422" rx="2.5" ry="2.5" style="stroke:#181818;stroke-width:0.5;" width="97" x="448" y="5"/><text fill="#000000" font-family="sans-serif" font-size="14" lengthAdjust="spacing" textLength="74" x="459.5" y="27.1074">repositories</text><text fill="#000000" font-family="sans-serif" font-size="14" lengthAdjust="spacing" textLength="83" x="455" y="45.7285">:Repositories</text><rect fill="#E3E3E3" height="51.2422" rx="2.5" ry="2.5" style="stroke:#181818;stroke-width:0.5;" width="97" x="448" y="404.1523"/><text fill="#000000" font-family="sans-serif" font-size="14" lengthAdjust="spacing" textLength="74" x="459.5" y="426.2598">repositories</text><text fill="#000000" font-family="sans-serif" font-size="14" lengthAdjust="spacing" textLength="83" x="455" y="444.8809">:Repositories</text><rect fill="#E3E3E3" height="51.2422" rx="2.5" ry="2.5" style="stroke:#181818;stroke-width:0.5;" width="164" x="555" y="5"/><text fill="#000000" font-family="sans-serif" font-size="14" lengthAdjust="spacing" textLength="143" x="565.5" y="27.1074">collaboratorRepository</text><text fill="#000000" font-family="sans-serif" font-size="14" lengthAdjust="spacing" textLength="150" x="562" y="45.7285">:CollaboratorRepository</text><rect fill="#E3E3E3" height="51.2422" rx="2.5" ry="2.5" style="stroke:#181818;stroke-width:0.5;" width="164" x="555" y="404.1523"/><text fill="#000000" font-family="sans-serif" font-size="14" lengthAdjust="spacing" textLength="143" x="565.5" y="426.2598">collaboratorRepository</text><text fill="#000000" font-family="sans-serif" font-size="14" lengthAdjust="spacing" textLength="150" x="562" y="444.8809">:CollaboratorRepository</text><rect fill="#FFFFFF" height="296.6191" style="stroke:#181818;stroke-width:1.0;" width="10" x="231" y="90.5332"/><rect fill="#FFFFFF" height="31.291" style="stroke:#181818;stroke-width:1.0;" width="10" x="384.5" y="148.1152"/><rect fill="#FFFFFF" height="31.291" style="stroke:#181818;stroke-width:1.0;" width="10" x="491.5" y="210.6973"/><rect fill="#FFFFFF" height="75.582" style="stroke:#181818;stroke-width:1.0;" width="10" x="632" y="273.2793"/><rect fill="#FFFFFF" height="36.291" style="stroke:#181818;stroke-width:1.0;" width="10" x="637" y="312.5703"/><polygon fill="#181818" points="219,86.5332,229,90.5332,219,94.5332,223,90.5332" style="stroke:#181818;stroke-width:1.0;"/><line style="stroke:#181818;stroke-width:1.0;" x1="0" x2="225" y1="90.5332" y2="90.5332"/><text fill="#000000" font-family="sans-serif" font-size="13" font-weight="bold" lengthAdjust="spacing" textLength="7" x="7" y="85.2705">3</text><text fill="#000000" font-family="sans-serif" font-size="13" lengthAdjust="spacing" textLength="201" x="18" y="85.2705">getCollaboratorThoughEmail(email)</text><path d="M131,105.5332 L329,105.5332 L329,114.8242 L319,124.8242 L131,124.8242 L131,105.5332 " fill="#EEEEEE" style="stroke:#000000;stroke-width:1.5;"/><rect fill="none" height="251.3281" style="stroke:#000000;stroke-width:1.5;" width="758" x="131" y="105.5332"/><text fill="#000000" font-family="sans-serif" font-size="13" font-weight="bold" lengthAdjust="spacing" textLength="153" x="146" y="120.5615">Get GSM Through Email</text><polygon fill="#181818" points="372.5,144.1152,382.5,148.1152,372.5,152.1152,376.5,148.1152" style="stroke:#181818;stroke-width:1.0;"/><line style="stroke:#181818;stroke-width:1.0;" x1="241" x2="378.5" y1="148.1152" y2="148.1152"/><text fill="#000000" font-family="sans-serif" font-size="13" font-weight="bold" lengthAdjust="spacing" textLength="18" x="248" y="142.8525">3.1</text><text fill="#000000" font-family="sans-serif" font-size="13" lengthAdjust="spacing" textLength="75" x="270" y="142.8525">getInstance()</text><polygon fill="#181818" points="252,175.4063,242,179.4063,252,183.4063,248,179.4063" style="stroke:#181818;stroke-width:1.0;"/><line style="stroke:#181818;stroke-width:1.0;stroke-dasharray:2.0,2.0;" x1="246" x2="388.5" y1="179.4063" y2="179.4063"/><text fill="#000000" font-family="sans-serif" font-size="13" font-weight="bold" lengthAdjust="spacing" textLength="18" x="258" y="174.1436">3.2</text><text fill="#000000" font-family="sans-serif" font-size="13" lengthAdjust="spacing" textLength="67" x="280" y="174.1436">repositories</text><polygon fill="#181818" points="479.5,206.6973,489.5,210.6973,479.5,214.6973,483.5,210.6973" style="stroke:#181818;stroke-width:1.0;"/><line style="stroke:#181818;stroke-width:1.0;" x1="241" x2="485.5" y1="210.6973" y2="210.6973"/><text fill="#000000" font-family="sans-serif" font-size="13" font-weight="bold" lengthAdjust="spacing" textLength="18" x="248" y="205.4346">3.3</text><text fill="#000000" font-family="sans-serif" font-size="13" lengthAdjust="spacing" textLength="149" x="270" y="205.4346">getCollaboratorRepository</text><polygon fill="#181818" points="252,237.9883,242,241.9883,252,245.9883,248,241.9883" style="stroke:#181818;stroke-width:1.0;"/><line style="stroke:#181818;stroke-width:1.0;stroke-dasharray:2.0,2.0;" x1="246" x2="495.5" y1="241.9883" y2="241.9883"/><text fill="#000000" font-family="sans-serif" font-size="13" font-weight="bold" lengthAdjust="spacing" textLength="18" x="258" y="236.7256">3.4</text><text fill="#000000" font-family="sans-serif" font-size="13" lengthAdjust="spacing" textLength="129" x="280" y="236.7256">collaboratorRepository</text><polygon fill="#181818" points="620,269.2793,630,273.2793,620,277.2793,624,273.2793" style="stroke:#181818;stroke-width:1.0;"/><line style="stroke:#181818;stroke-width:1.0;" x1="241" x2="626" y1="273.2793" y2="273.2793"/><text fill="#000000" font-family="sans-serif" font-size="13" font-weight="bold" lengthAdjust="spacing" textLength="18" x="248" y="268.0166">3.5</text><text fill="#000000" font-family="sans-serif" font-size="13" lengthAdjust="spacing" textLength="201" x="270" y="268.0166">getCollaboratorThoughEmail(email)</text><line style="stroke:#181818;stroke-width:1.0;" x1="642" x2="689" y1="299.5703" y2="299.5703"/><line style="stroke:#181818;stroke-width:1.0;" x1="689" x2="689" y1="299.5703" y2="312.5703"/><line style="stroke:#181818;stroke-width:1.0;" x1="648" x2="689" y1="312.5703" y2="312.5703"/><polygon fill="#181818" points="658,308.5703,648,312.5703,658,316.5703,654,312.5703" style="stroke:#181818;stroke-width:1.0;"/><text fill="#000000" font-family="sans-serif" font-size="13" font-weight="bold" lengthAdjust="spacing" textLength="18" x="654" y="294.3076">3.6</text><text fill="#000000" font-family="sans-serif" font-size="13" lengthAdjust="spacing" textLength="201" x="676" y="294.3076">getCollaboratorThoughEmail(email)</text><polygon fill="#181818" points="252,344.8613,242,348.8613,252,352.8613,248,348.8613" style="stroke:#181818;stroke-width:1.0;"/><line style="stroke:#181818;stroke-width:1.0;stroke-dasharray:2.0,2.0;" x1="246" x2="636" y1="348.8613" y2="348.8613"/><text fill="#000000" font-family="sans-serif" font-size="13" font-weight="bold" lengthAdjust="spacing" textLength="18" x="258" y="343.5986">3.7</text><text fill="#000000" font-family="sans-serif" font-size="13" lengthAdjust="spacing" textLength="119" x="280" y="343.5986">greenSpaceManager</text><polygon fill="#181818" points="11,383.1523,1,387.1523,11,391.1523,7,387.1523" style="stroke:#181818;stroke-width:1.0;"/><line style="stroke:#181818;stroke-width:1.0;stroke-dasharray:2.0,2.0;" x1="5" x2="235" y1="387.1523" y2="387.1523"/><text fill="#000000" font-family="sans-serif" font-size="13" font-weight="bold" lengthAdjust="spacing" textLength="7" x="17" y="381.8896">4</text><text fill="#000000" font-family="sans-serif" font-size="13" lengthAdjust="spacing" textLength="119" x="28" y="381.8896">greenSpaceManager</text><!--SRC=[rLGxRy8m4DxzAquiXI6LgdP2LHU4K2MG467iSZZNn2An8zjfox-lSTHWg8bIjdf8fFY-nproPYzaZHehg9HKlD2g8h2w8MQwcnhv7dDAxQ4aqCGjohmC0qo1cVeKCeTtB0qnXerLigbsf1cxAqH6yAwKtQalvW1MS56Zj32QBeMn2qqaKwT1CoMjLcL9caQ01cRRpV82iA5Q6M6L5cHyJFVXa8gZAwTx3j41uar62ERhSm1t3d2dDBgW4xk3pg8NdYIE2Ui0Zun1yk9pWYdaP4EwRQ6Ql9XNACen7P-JC-Zz0qDknGTQQei2xkHQDJKioC8YNS7MTSvHWETWp4V4ZjTtFY9rQsszIkFwosaykSfnF9sVM0DwaJ7bv5IPi5-zF1dTvg6hm7pzkn51yuPbxwQdFrkd4cJ7_wuLvjcdzfDNN6BGp0rA-Tgizu6lUFfdReFVjzjPAvHkDUf-meistk9f89navj_1zdXgUP-Jf7KVjH_G-mN3lW40]--></g></svg>