<?xml version="1.0" encoding="us-ascii" standalone="no"?><svg xmlns="http://www.w3.org/2000/svg" xmlns:xlink="http://www.w3.org/1999/xlink" contentStyleType="text/css" height="683px" preserveAspectRatio="none" style="width:790px;height:683px;background:#FFFFFF;" version="1.1" viewBox="0 0 790 683" width="790px" zoomAndPan="magnify"><defs/><g><rect fill="#FFFFFF" height="414.375" style="stroke:#181818;stroke-width:1.0;" width="10" x="53" y="130.8633"/><rect fill="#FFFFFF" height="391.084" style="stroke:#181818;stroke-width:1.0;" width="10" x="327" y="154.1543"/><rect fill="#FFFFFF" height="222.2988" style="stroke:#181818;stroke-width:1.0;" width="10" x="494" y="291.6484"/><rect fill="#FFFFFF" height="95.5039" style="stroke:#181818;stroke-width:1.0;" width="10" x="666" y="387.1523"/><line style="stroke:#181818;stroke-width:0.5;stroke-dasharray:5.0,5.0;" x1="58" x2="58" y1="120.8633" y2="563.2383"/><line style="stroke:#181818;stroke-width:0.5;stroke-dasharray:5.0,5.0;" x1="332" x2="332" y1="120.8633" y2="563.2383"/><line style="stroke:#181818;stroke-width:0.5;stroke-dasharray:5.0,5.0;" x1="499" x2="499" y1="256.5469" y2="563.2383"/><line style="stroke:#181818;stroke-width:0.5;stroke-dasharray:5.0,5.0;" x1="671" x2="671" y1="120.8633" y2="563.2383"/><text fill="#000000" font-family="sans-serif" font-size="14" lengthAdjust="spacing" textLength="40" x="35" y="80.1074">Green</text><text fill="#000000" font-family="sans-serif" font-size="14" lengthAdjust="spacing" textLength="100" x="5" y="98.7285">Space Manager</text><text fill="#000000" font-family="sans-serif" font-size="14" lengthAdjust="spacing" textLength="41" x="34.5" y="117.3496">(GSM)</text><ellipse cx="58" cy="13.5" fill="#E3E3E3" rx="8" ry="8" style="stroke:#181818;stroke-width:0.5;"/><path d="M58,21.5 L58,48.5 M45,29.5 L71,29.5 M58,48.5 L45,63.5 M58,48.5 L71,63.5 " fill="none" style="stroke:#181818;stroke-width:0.5;"/><text fill="#000000" font-family="sans-serif" font-size="14" lengthAdjust="spacing" textLength="40" x="35" y="577.3457">Green</text><text fill="#000000" font-family="sans-serif" font-size="14" lengthAdjust="spacing" textLength="100" x="5" y="595.9668">Space Manager</text><text fill="#000000" font-family="sans-serif" font-size="14" lengthAdjust="spacing" textLength="41" x="34.5" y="614.5879">(GSM)</text><ellipse cx="58" cy="626.6016" fill="#E3E3E3" rx="8" ry="8" style="stroke:#181818;stroke-width:0.5;"/><path d="M58,634.6016 L58,661.6016 M45,642.6016 L71,642.6016 M58,661.6016 L45,676.6016 M58,661.6016 L71,676.6016 " fill="none" style="stroke:#181818;stroke-width:0.5;"/><rect fill="#E3E3E3" height="32.6211" rx="2.5" ry="2.5" style="stroke:#181818;stroke-width:0.5;" width="132" x="266" y="87.2422"/><text fill="#000000" font-family="sans-serif" font-size="14" lengthAdjust="spacing" textLength="118" x="273" y="109.3496">:ListGreenSpaceUI</text><rect fill="#E3E3E3" height="32.6211" rx="2.5" ry="2.5" style="stroke:#181818;stroke-width:0.5;" width="132" x="266" y="562.2383"/><text fill="#000000" font-family="sans-serif" font-size="14" lengthAdjust="spacing" textLength="118" x="273" y="584.3457">:ListGreenSpaceUI</text><rect fill="#E3E3E3" height="32.6211" rx="2.5" ry="2.5" style="stroke:#181818;stroke-width:0.5;" width="182" x="408" y="562.2383"/><text fill="#000000" font-family="sans-serif" font-size="14" lengthAdjust="spacing" textLength="168" x="415" y="584.3457">:ListGreenSpaceController</text><rect fill="#E3E3E3" height="32.6211" rx="2.5" ry="2.5" style="stroke:#181818;stroke-width:0.5;" width="142" x="600" y="87.2422"/><text fill="#000000" font-family="sans-serif" font-size="14" lengthAdjust="spacing" textLength="128" x="607" y="109.3496">GreenSpaceMapper</text><rect fill="#E3E3E3" height="32.6211" rx="2.5" ry="2.5" style="stroke:#181818;stroke-width:0.5;" width="142" x="600" y="562.2383"/><text fill="#000000" font-family="sans-serif" font-size="14" lengthAdjust="spacing" textLength="128" x="607" y="584.3457">GreenSpaceMapper</text><rect fill="#FFFFFF" height="414.375" style="stroke:#181818;stroke-width:1.0;" width="10" x="53" y="130.8633"/><rect fill="#FFFFFF" height="391.084" style="stroke:#181818;stroke-width:1.0;" width="10" x="327" y="154.1543"/><rect fill="#FFFFFF" height="222.2988" style="stroke:#181818;stroke-width:1.0;" width="10" x="494" y="291.6484"/><rect fill="#FFFFFF" height="95.5039" style="stroke:#181818;stroke-width:1.0;" width="10" x="666" y="387.1523"/><polygon fill="#181818" points="315,150.1543,325,154.1543,315,158.1543,319,154.1543" style="stroke:#181818;stroke-width:1.0;"/><line style="stroke:#181818;stroke-width:1.0;" x1="63" x2="321" y1="154.1543" y2="154.1543"/><text fill="#000000" font-family="sans-serif" font-size="13" font-weight="bold" lengthAdjust="spacing" textLength="7" x="70" y="148.8916">1</text><text fill="#000000" font-family="sans-serif" font-size="13" lengthAdjust="spacing" textLength="186" x="81" y="148.8916">asks to list all the GreenSpaces</text><polygon fill="#181818" points="74,181.4453,64,185.4453,74,189.4453,70,185.4453" style="stroke:#181818;stroke-width:1.0;"/><line style="stroke:#181818;stroke-width:1.0;stroke-dasharray:2.0,2.0;" x1="68" x2="326" y1="185.4453" y2="185.4453"/><text fill="#000000" font-family="sans-serif" font-size="13" font-weight="bold" lengthAdjust="spacing" textLength="7" x="80" y="180.1826">2</text><text fill="#000000" font-family="sans-serif" font-size="13" lengthAdjust="spacing" textLength="120" x="91" y="180.1826">asks for confirmation</text><polygon fill="#181818" points="315,212.7363,325,216.7363,315,220.7363,319,216.7363" style="stroke:#181818;stroke-width:1.0;"/><line style="stroke:#181818;stroke-width:1.0;" x1="63" x2="321" y1="216.7363" y2="216.7363"/><text fill="#000000" font-family="sans-serif" font-size="13" font-weight="bold" lengthAdjust="spacing" textLength="7" x="70" y="211.4736">3</text><text fill="#000000" font-family="sans-serif" font-size="13" lengthAdjust="spacing" textLength="229" x="81" y="211.4736">confirms that he wants to create the list</text><polygon fill="#181818" points="396,244.0273,406,248.0273,396,252.0273,400,248.0273" style="stroke:#181818;stroke-width:1.0;"/><line style="stroke:#181818;stroke-width:1.0;" x1="337" x2="402" y1="248.0273" y2="248.0273"/><text fill="#000000" font-family="sans-serif" font-size="13" font-weight="bold" lengthAdjust="spacing" textLength="7" x="344" y="242.7646">4</text><text fill="#000000" font-family="sans-serif" font-size="13" lengthAdjust="spacing" textLength="36" x="355" y="242.7646">create</text><rect fill="#E3E3E3" height="32.6211" rx="2.5" ry="2.5" style="stroke:#181818;stroke-width:0.5;" width="182" x="408" y="224.7363"/><text fill="#000000" font-family="sans-serif" font-size="14" lengthAdjust="spacing" textLength="168" x="415" y="246.8438">:ListGreenSpaceController</text><polygon fill="#181818" points="482,287.6484,492,291.6484,482,295.6484,486,291.6484" style="stroke:#181818;stroke-width:1.0;"/><line style="stroke:#181818;stroke-width:1.0;" x1="337" x2="488" y1="291.6484" y2="291.6484"/><text fill="#000000" font-family="sans-serif" font-size="13" font-weight="bold" lengthAdjust="spacing" textLength="7" x="344" y="286.3857">5</text><text fill="#000000" font-family="sans-serif" font-size="13" lengthAdjust="spacing" textLength="119" x="355" y="286.3857">getGreenSpaceList()</text><rect fill="none" height="59.2129" style="stroke:#000000;stroke-width:1.5;" width="188" x="405" y="299.6484"/><path d="M405,299.6484 L467,299.6484 L467,308.6484 L457,318.6484 L405,318.6484 L405,299.6484 " fill="#EEEEEE" style="stroke:#000000;stroke-width:2.0;"/><text fill="#000000" font-family="sans-serif" font-size="13" font-weight="bold" lengthAdjust="spacing" textLength="17" x="418" y="315.6768">ref</text><text fill="#000000" font-family="sans-serif" font-size="12" lengthAdjust="spacing" textLength="114" x="442" y="335.5977">Get GreenSpace List</text><text fill="#000000" font-family="sans-serif" font-size="12" lengthAdjust="spacing" textLength="3" x="497.5" y="351.5586">&#160;</text><polygon fill="#181818" points="654,383.1523,664,387.1523,654,391.1523,658,387.1523" style="stroke:#181818;stroke-width:1.0;"/><line style="stroke:#181818;stroke-width:1.0;" x1="504" x2="660" y1="387.1523" y2="387.1523"/><text fill="#000000" font-family="sans-serif" font-size="13" font-weight="bold" lengthAdjust="spacing" textLength="7" x="511" y="381.8896">6</text><text fill="#000000" font-family="sans-serif" font-size="13" lengthAdjust="spacing" textLength="129" x="522" y="381.8896">toDto(greenSpaceList)</text><rect fill="none" height="59.2129" style="stroke:#000000;stroke-width:1.5;" width="187" x="597" y="395.1523"/><path d="M597,395.1523 L659,395.1523 L659,404.1523 L649,414.1523 L597,414.1523 L597,395.1523 " fill="#EEEEEE" style="stroke:#000000;stroke-width:2.0;"/><text fill="#000000" font-family="sans-serif" font-size="13" font-weight="bold" lengthAdjust="spacing" textLength="17" x="610" y="411.1807">ref</text><text fill="#000000" font-family="sans-serif" font-size="12" lengthAdjust="spacing" textLength="179" x="601" y="431.1016">Create a copy of GreenSpace list</text><text fill="#000000" font-family="sans-serif" font-size="12" lengthAdjust="spacing" textLength="3" x="689" y="447.0625">&#160;</text><polygon fill="#181818" points="515,478.6563,505,482.6563,515,486.6563,511,482.6563" style="stroke:#181818;stroke-width:1.0;"/><line style="stroke:#181818;stroke-width:1.0;stroke-dasharray:2.0,2.0;" x1="509" x2="670" y1="482.6563" y2="482.6563"/><text fill="#000000" font-family="sans-serif" font-size="13" font-weight="bold" lengthAdjust="spacing" textLength="7" x="521" y="477.3936">7</text><text fill="#000000" font-family="sans-serif" font-size="13" lengthAdjust="spacing" textLength="110" x="532" y="477.3936">greenSpaceListDto</text><polygon fill="#181818" points="348,509.9473,338,513.9473,348,517.9473,344,513.9473" style="stroke:#181818;stroke-width:1.0;"/><line style="stroke:#181818;stroke-width:1.0;stroke-dasharray:2.0,2.0;" x1="342" x2="498" y1="513.9473" y2="513.9473"/><text fill="#000000" font-family="sans-serif" font-size="13" font-weight="bold" lengthAdjust="spacing" textLength="7" x="354" y="508.6846">8</text><text fill="#000000" font-family="sans-serif" font-size="13" lengthAdjust="spacing" textLength="110" x="365" y="508.6846">greenSpaceListDto</text><polygon fill="#181818" points="69,541.2383,59,545.2383,69,549.2383,65,545.2383" style="stroke:#181818;stroke-width:1.0;"/><line style="stroke:#181818;stroke-width:1.0;stroke-dasharray:2.0,2.0;" x1="63" x2="331" y1="545.2383" y2="545.2383"/><text fill="#000000" font-family="sans-serif" font-size="13" font-weight="bold" lengthAdjust="spacing" textLength="7" x="75" y="539.9756">9</text><text fill="#000000" font-family="sans-serif" font-size="13" lengthAdjust="spacing" textLength="80" x="86" y="539.9756">shows the list</text><!--SRC=[ZLInRkCm3Dtr5KIMImhq1p9qwG55WMPfhbiNrg5j8R9eI4pJ_dqfnLNiYzCxJhBq-FWUAJdkhUynO0STUwxQm1s1X0EPM4vwhFROq5O-7K6WIj0tRWo8BUxuQ7q3DRf8nk11s1-wDmh6_6hjZg1cbZV-C5W91rWy12B_whTAJR11h_JXrIyVjflL0Z22BenoYwriZrvWiNwoKN9MpdbvpB2NnnzHz-mbi7CKClh-p_FJ57-6Rh3l1zXfQP9K-uv2MOo18VG3Rk-qCgmLl8yW34wh0Ze7qYgwSCPpLk5InMKpXVBSAbrY7VXgxK_5lhQXGx7if_Xn-G6b4beKqD97DPK5LO5IiIGdQRkeU9TxSNEJI3Bq2aBF6nerDBLtkPg0YxFSNPY9G3NmEuNhY6AEPDG-IDNCR0BvtUn-rgpQJoDKzSA_XPVDnC1gDhNu6CR_ayxYw3-mHTff9AXJwp-1wx5HTzNelmn_ns1OhzBts2QMjGcpwJlwsxQvR6U-RdECvWhLnPpFbtoj_me-nkdD7AMcvp7wp2_l2m00]--></g></svg>