<?xml version="1.0" encoding="us-ascii" standalone="no"?><svg xmlns="http://www.w3.org/2000/svg" xmlns:xlink="http://www.w3.org/1999/xlink" contentStyleType="text/css" height="1133.3px" preserveAspectRatio="none" style="width:1447px;height:1133px;background:#FFFFFF;" version="1.1" viewBox="0 0 1447 1133" width="1447.6px" zoomAndPan="magnify"><defs/><g><rect fill="#FFFFFF" height="944.9111" style="stroke:#181818;stroke-width:0.6999999999999998;" width="7" x="37.1" y="91.6043"/><rect fill="#FFFFFF" height="258.6719" style="stroke:#181818;stroke-width:0.6999999999999998;" width="7" x="247.8" y="107.908"/><rect fill="#FFFFFF" height="21.9037" style="stroke:#181818;stroke-width:0.6999999999999998;" width="7" x="247.8" y="388.4836"/><rect fill="#FFFFFF" height="604.2244" style="stroke:#181818;stroke-width:0.6999999999999998;" width="7" x="247.8" y="432.291"/><rect fill="#FFFFFF" height="184.3297" style="stroke:#181818;stroke-width:0.6999999999999998;" width="7" x="504" y="160.3465"/><rect fill="#FFFFFF" height="560.417" style="stroke:#181818;stroke-width:0.6999999999999998;" width="7" x="504" y="454.1947"/><rect fill="#FFFFFF" height="21.9037" style="stroke:#181818;stroke-width:0.6999999999999998;" width="7" x="608.65" y="182.2502"/><rect fill="#FFFFFF" height="21.9037" style="stroke:#181818;stroke-width:0.6999999999999998;" width="7" x="608.65" y="476.0984"/><rect fill="#FFFFFF" height="21.9037" style="stroke:#181818;stroke-width:0.6999999999999998;" width="7" x="683.55" y="226.0576"/><rect fill="#FFFFFF" height="21.9037" style="stroke:#181818;stroke-width:0.6999999999999998;" width="7" x="683.55" y="519.9059"/><rect fill="#FFFFFF" height="52.9074" style="stroke:#181818;stroke-width:0.6999999999999998;" width="7" x="781.9" y="269.865"/><rect fill="#FFFFFF" height="25.4037" style="stroke:#181818;stroke-width:0.6999999999999998;" width="7" x="785.4" y="297.3687"/><rect fill="#FFFFFF" height="186.8918" style="stroke:#181818;stroke-width:0.6999999999999998;" width="7" x="947.1" y="563.7133"/><rect fill="#FFFFFF" height="220.1992" style="stroke:#181818;stroke-width:0.6999999999999998;" width="7" x="1063.3" y="772.5088"/><rect fill="#FFFFFF" height="62.7074" style="stroke:#181818;stroke-width:0.6999999999999998;" width="7" x="1169" y="665.9939"/><rect fill="#FFFFFF" height="25.4037" style="stroke:#181818;stroke-width:0.6999999999999998;" width="7" x="1172.5" y="703.2977"/><rect fill="#FFFFFF" height="21.9037" style="stroke:#181818;stroke-width:0.6999999999999998;" width="7" x="1169" y="856.3857"/><rect fill="#FFFFFF" height="21.9037" style="stroke:#181818;stroke-width:0.6999999999999998;" width="7" x="1273.3" y="900.1932"/><rect fill="#FFFFFF" height="26.8037" style="stroke:#181818;stroke-width:0.6999999999999998;" width="7" x="1377.6" y="944.0006"/><rect fill="none" height="58.7111" style="stroke:#000000;stroke-width:1.0499999999999998;" width="355.6" x="878.5" y="617.7828"/><rect fill="none" height="35.4074" style="stroke:#000000;stroke-width:1.0499999999999998;" width="341.6" x="885.5" y="636.1865"/><rect fill="none" height="123.0223" style="stroke:#000000;stroke-width:1.0499999999999998;" width="434.7" x="1008.7" y="826.5783"/><line style="stroke:#181818;stroke-width:0.3499999999999999;stroke-dasharray:5.0,5.0;" x1="40.6" x2="40.6" y1="84.6043" y2="1049.1154"/><line style="stroke:#181818;stroke-width:0.3499999999999999;stroke-dasharray:5.0,5.0;" x1="251.3" x2="251.3" y1="84.6043" y2="1049.1154"/><line style="stroke:#181818;stroke-width:0.3499999999999999;stroke-dasharray:5.0,5.0;" x1="507.5" x2="507.5" y1="135.7754" y2="1049.1154"/><line style="stroke:#181818;stroke-width:0.3499999999999999;stroke-dasharray:5.0,5.0;" x1="611.8" x2="611.8" y1="84.6043" y2="1049.1154"/><line style="stroke:#181818;stroke-width:0.3499999999999999;stroke-dasharray:5.0,5.0;" x1="686.7" x2="686.7" y1="84.6043" y2="1049.1154"/><line style="stroke:#181818;stroke-width:0.3499999999999999;stroke-dasharray:5.0,5.0;" x1="785.4" x2="785.4" y1="84.6043" y2="1049.1154"/><line style="stroke:#181818;stroke-width:0.3499999999999999;stroke-dasharray:5.0,5.0;" x1="950.6" x2="950.6" y1="84.6043" y2="1049.1154"/><line style="stroke:#181818;stroke-width:0.3499999999999999;stroke-dasharray:5.0,5.0;" x1="1066.8" x2="1066.8" y1="84.6043" y2="1049.1154"/><line style="stroke:#181818;stroke-width:0.3499999999999999;stroke-dasharray:5.0,5.0;" x1="1172.5" x2="1172.5" y1="598.098" y2="1049.1154"/><line style="stroke:#181818;stroke-width:0.3499999999999999;stroke-dasharray:5.0,5.0;" x1="1276.8" x2="1276.8" y1="84.6043" y2="1049.1154"/><line style="stroke:#181818;stroke-width:0.3499999999999999;stroke-dasharray:5.0,5.0;" x1="1381.1" x2="1381.1" y1="806.8936" y2="1049.1154"/><text fill="#000000" font-family="sans-serif" font-size="9.8" lengthAdjust="spacing" textLength="28" x="24.5" y="56.0752">Green</text><text fill="#000000" font-family="sans-serif" font-size="9.8" lengthAdjust="spacing" textLength="70" x="3.5" y="69.11">Space Manager</text><text fill="#000000" font-family="sans-serif" font-size="9.8" lengthAdjust="spacing" textLength="28.7" x="24.15" y="82.1447">(GSM)</text><ellipse cx="40.6" cy="9.45" fill="#E3E3E3" rx="5.6" ry="5.6" style="stroke:#181818;stroke-width:0.3499999999999999;"/><path d="M40.6,15.05 L40.6,33.95 M31.5,20.65 L49.7,20.65 M40.6,33.95 L31.5,44.45 M40.6,33.95 L49.7,44.45 " fill="none" style="stroke:#181818;stroke-width:0.3499999999999999;"/><text fill="#000000" font-family="sans-serif" font-size="9.8" lengthAdjust="spacing" textLength="28" x="24.5" y="1058.9906">Green</text><text fill="#000000" font-family="sans-serif" font-size="9.8" lengthAdjust="spacing" textLength="70" x="3.5" y="1072.0254">Space Manager</text><text fill="#000000" font-family="sans-serif" font-size="9.8" lengthAdjust="spacing" textLength="28.7" x="24.15" y="1085.0602">(GSM)</text><ellipse cx="40.6" cy="1093.4697" fill="#E3E3E3" rx="5.6" ry="5.6" style="stroke:#181818;stroke-width:0.3499999999999999;"/><path d="M40.6,1099.0697 L40.6,1117.9697 M31.5,1104.6697 L49.7,1104.6697 M40.6,1117.9697 L31.5,1128.4697 M40.6,1117.9697 L49.7,1128.4697 " fill="none" style="stroke:#181818;stroke-width:0.3499999999999999;"/><rect fill="#E3E3E3" height="22.8348" rx="1.75" ry="1.75" style="stroke:#181818;stroke-width:0.3499999999999999;" width="92.4" x="205.1" y="61.0695"/><text fill="#000000" font-family="sans-serif" font-size="9.8" lengthAdjust="spacing" textLength="82.6" x="210" y="76.5447">:ListGreenSpaceUI</text><rect fill="#E3E3E3" height="22.8348" rx="1.75" ry="1.75" style="stroke:#181818;stroke-width:0.3499999999999999;" width="92.4" x="205.1" y="1048.4154"/><text fill="#000000" font-family="sans-serif" font-size="9.8" lengthAdjust="spacing" textLength="82.6" x="210" y="1063.8906">:ListGreenSpaceUI</text><rect fill="#E3E3E3" height="22.8348" rx="1.75" ry="1.75" style="stroke:#181818;stroke-width:0.3499999999999999;" width="127.4" x="443.8" y="1048.4154"/><text fill="#000000" font-family="sans-serif" font-size="9.8" lengthAdjust="spacing" textLength="117.6" x="448.7" y="1063.8906">:ListGreenSpaceController</text><rect fill="#E3E3E3" height="22.8348" rx="1.75" ry="1.75" style="stroke:#181818;stroke-width:0.3499999999999999;" width="67.9" x="578.2" y="61.0695"/><text fill="#000000" font-family="sans-serif" font-size="9.8" lengthAdjust="spacing" textLength="58.1" x="583.1" y="76.5447">:Repositories</text><rect fill="#E3E3E3" height="22.8348" rx="1.75" ry="1.75" style="stroke:#181818;stroke-width:0.3499999999999999;" width="67.9" x="578.2" y="1048.4154"/><text fill="#000000" font-family="sans-serif" font-size="9.8" lengthAdjust="spacing" textLength="58.1" x="583.1" y="1063.8906">:Repositories</text><rect fill="#E3E3E3" height="35.8695" rx="1.75" ry="1.75" style="stroke:#181818;stroke-width:0.3499999999999999;" width="67.9" x="653.1" y="48.0348"/><text fill="#000000" font-family="sans-serif" font-size="9.8" lengthAdjust="spacing" textLength="51.8" x="661.15" y="63.51">repositories</text><text fill="#000000" font-family="sans-serif" font-size="9.8" lengthAdjust="spacing" textLength="58.1" x="658" y="76.5447">:Repositories</text><rect fill="#E3E3E3" height="35.8695" rx="1.75" ry="1.75" style="stroke:#181818;stroke-width:0.3499999999999999;" width="67.9" x="653.1" y="1048.4154"/><text fill="#000000" font-family="sans-serif" font-size="9.8" lengthAdjust="spacing" textLength="51.8" x="661.15" y="1063.8906">repositories</text><text fill="#000000" font-family="sans-serif" font-size="9.8" lengthAdjust="spacing" textLength="58.1" x="658" y="1076.9254">:Repositories</text><rect fill="#E3E3E3" height="35.8695" rx="1.75" ry="1.75" style="stroke:#181818;stroke-width:0.3499999999999999;" width="114.8" x="728" y="48.0348"/><text fill="#000000" font-family="sans-serif" font-size="9.8" lengthAdjust="spacing" textLength="100.1" x="735.35" y="63.51">collaboratorRepository</text><text fill="#000000" font-family="sans-serif" font-size="9.8" lengthAdjust="spacing" textLength="105" x="732.9" y="76.5447">:CollaboratorRepository</text><rect fill="#E3E3E3" height="35.8695" rx="1.75" ry="1.75" style="stroke:#181818;stroke-width:0.3499999999999999;" width="114.8" x="728" y="1048.4154"/><text fill="#000000" font-family="sans-serif" font-size="9.8" lengthAdjust="spacing" textLength="100.1" x="735.35" y="1063.8906">collaboratorRepository</text><text fill="#000000" font-family="sans-serif" font-size="9.8" lengthAdjust="spacing" textLength="105" x="732.9" y="1076.9254">:CollaboratorRepository</text><rect fill="#E3E3E3" height="35.8695" rx="1.75" ry="1.75" style="stroke:#181818;stroke-width:0.3499999999999999;" width="116.2" x="892.5" y="48.0348"/><text fill="#000000" font-family="sans-serif" font-size="9.8" lengthAdjust="spacing" textLength="101.5" x="899.85" y="63.51">greenSpaceRepository</text><text fill="#000000" font-family="sans-serif" font-size="9.8" lengthAdjust="spacing" textLength="106.4" x="897.4" y="76.5447">:GreenSpaceRepository</text><rect fill="#E3E3E3" height="35.8695" rx="1.75" ry="1.75" style="stroke:#181818;stroke-width:0.3499999999999999;" width="116.2" x="892.5" y="1048.4154"/><text fill="#000000" font-family="sans-serif" font-size="9.8" lengthAdjust="spacing" textLength="101.5" x="899.85" y="1063.8906">greenSpaceRepository</text><text fill="#000000" font-family="sans-serif" font-size="9.8" lengthAdjust="spacing" textLength="106.4" x="897.4" y="1076.9254">:GreenSpaceRepository</text><rect fill="#E3E3E3" height="22.8348" rx="1.75" ry="1.75" style="stroke:#181818;stroke-width:0.3499999999999999;" width="102.2" x="1015.7" y="61.0695"/><text fill="#000000" font-family="sans-serif" font-size="9.8" lengthAdjust="spacing" textLength="92.4" x="1020.6" y="76.5447">:GreenSpaceMapper</text><rect fill="#E3E3E3" height="22.8348" rx="1.75" ry="1.75" style="stroke:#181818;stroke-width:0.3499999999999999;" width="102.2" x="1015.7" y="1048.4154"/><text fill="#000000" font-family="sans-serif" font-size="9.8" lengthAdjust="spacing" textLength="92.4" x="1020.6" y="1063.8906">:GreenSpaceMapper</text><rect fill="#E3E3E3" height="35.8695" rx="1.75" ry="1.75" style="stroke:#181818;stroke-width:0.3499999999999999;" width="95.2" x="1124.9" y="1048.4154"/><text fill="#000000" font-family="sans-serif" font-size="9.8" lengthAdjust="spacing" textLength="69.3" x="1137.85" y="1063.8906">greenSpaceList</text><text fill="#000000" font-family="sans-serif" font-size="9.8" lengthAdjust="spacing" textLength="85.4" x="1129.8" y="1076.9254">:List&lt;GreenSpace&gt;</text><rect fill="#E3E3E3" height="35.8695" rx="1.75" ry="1.75" style="stroke:#181818;stroke-width:0.3499999999999999;" width="84" x="1234.8" y="48.0348"/><text fill="#000000" font-family="sans-serif" font-size="9.8" lengthAdjust="spacing" textLength="69.3" x="1242.15" y="63.51">greenSpaceDto</text><text fill="#000000" font-family="sans-serif" font-size="9.8" lengthAdjust="spacing" textLength="74.2" x="1239.7" y="76.5447">:GreenSpaceDto</text><rect fill="#E3E3E3" height="35.8695" rx="1.75" ry="1.75" style="stroke:#181818;stroke-width:0.3499999999999999;" width="84" x="1234.8" y="1048.4154"/><text fill="#000000" font-family="sans-serif" font-size="9.8" lengthAdjust="spacing" textLength="69.3" x="1242.15" y="1063.8906">greenSpaceDto</text><text fill="#000000" font-family="sans-serif" font-size="9.8" lengthAdjust="spacing" textLength="74.2" x="1239.7" y="1076.9254">:GreenSpaceDto</text><rect fill="#E3E3E3" height="35.8695" rx="1.75" ry="1.75" style="stroke:#181818;stroke-width:0.3499999999999999;" width="110.6" x="1325.8" y="1048.4154"/><text fill="#000000" font-family="sans-serif" font-size="9.8" lengthAdjust="spacing" textLength="84.7" x="1338.75" y="1063.8906">greenSpaceListDto</text><text fill="#000000" font-family="sans-serif" font-size="9.8" lengthAdjust="spacing" textLength="100.8" x="1330.7" y="1076.9254">:List&lt;GreenSpaceDto&gt;</text><rect fill="#FFFFFF" height="944.9111" style="stroke:#181818;stroke-width:0.6999999999999998;" width="7" x="37.1" y="91.6043"/><rect fill="#FFFFFF" height="258.6719" style="stroke:#181818;stroke-width:0.6999999999999998;" width="7" x="247.8" y="107.908"/><rect fill="#FFFFFF" height="21.9037" style="stroke:#181818;stroke-width:0.6999999999999998;" width="7" x="247.8" y="388.4836"/><rect fill="#FFFFFF" height="604.2244" style="stroke:#181818;stroke-width:0.6999999999999998;" width="7" x="247.8" y="432.291"/><rect fill="#FFFFFF" height="184.3297" style="stroke:#181818;stroke-width:0.6999999999999998;" width="7" x="504" y="160.3465"/><rect fill="#FFFFFF" height="560.417" style="stroke:#181818;stroke-width:0.6999999999999998;" width="7" x="504" y="454.1947"/><rect fill="#FFFFFF" height="21.9037" style="stroke:#181818;stroke-width:0.6999999999999998;" width="7" x="608.65" y="182.2502"/><rect fill="#FFFFFF" height="21.9037" style="stroke:#181818;stroke-width:0.6999999999999998;" width="7" x="608.65" y="476.0984"/><rect fill="#FFFFFF" height="21.9037" style="stroke:#181818;stroke-width:0.6999999999999998;" width="7" x="683.55" y="226.0576"/><rect fill="#FFFFFF" height="21.9037" style="stroke:#181818;stroke-width:0.6999999999999998;" width="7" x="683.55" y="519.9059"/><rect fill="#FFFFFF" height="52.9074" style="stroke:#181818;stroke-width:0.6999999999999998;" width="7" x="781.9" y="269.865"/><rect fill="#FFFFFF" height="25.4037" style="stroke:#181818;stroke-width:0.6999999999999998;" width="7" x="785.4" y="297.3687"/><rect fill="#FFFFFF" height="186.8918" style="stroke:#181818;stroke-width:0.6999999999999998;" width="7" x="947.1" y="563.7133"/><rect fill="#FFFFFF" height="220.1992" style="stroke:#181818;stroke-width:0.6999999999999998;" width="7" x="1063.3" y="772.5088"/><rect fill="#FFFFFF" height="62.7074" style="stroke:#181818;stroke-width:0.6999999999999998;" width="7" x="1169" y="665.9939"/><rect fill="#FFFFFF" height="25.4037" style="stroke:#181818;stroke-width:0.6999999999999998;" width="7" x="1172.5" y="703.2977"/><rect fill="#FFFFFF" height="21.9037" style="stroke:#181818;stroke-width:0.6999999999999998;" width="7" x="1169" y="856.3857"/><rect fill="#FFFFFF" height="21.9037" style="stroke:#181818;stroke-width:0.6999999999999998;" width="7" x="1273.3" y="900.1932"/><rect fill="#FFFFFF" height="26.8037" style="stroke:#181818;stroke-width:0.6999999999999998;" width="7" x="1377.6" y="944.0006"/><polygon fill="#181818" points="239.4,105.108,246.4,107.908,239.4,110.708,242.2,107.908" style="stroke:#181818;stroke-width:0.6999999999999998;"/><line style="stroke:#181818;stroke-width:0.6999999999999998;" x1="44.1" x2="243.6" y1="107.908" y2="107.908"/><text fill="#000000" font-family="sans-serif" font-size="9.1" font-weight="bold" lengthAdjust="spacing" textLength="4.9" x="49" y="104.2241">1</text><text fill="#000000" font-family="sans-serif" font-size="9.1" lengthAdjust="spacing" textLength="182.7" x="56.7" y="104.2241">asks to list all greenSpaces managed by him</text><polygon fill="#181818" points="435.4,127.0117,442.4,129.8117,435.4,132.6117,438.2,129.8117" style="stroke:#181818;stroke-width:0.6999999999999998;"/><line style="stroke:#181818;stroke-width:0.6999999999999998;" x1="254.8" x2="439.6" y1="129.8117" y2="129.8117"/><text fill="#000000" font-family="sans-serif" font-size="9.1" font-weight="bold" lengthAdjust="spacing" textLength="4.9" x="259.7" y="126.1278">2</text><text fill="#000000" font-family="sans-serif" font-size="9.1" lengthAdjust="spacing" textLength="25.2" x="267.4" y="126.1278">create</text><rect fill="#E3E3E3" height="22.8348" rx="1.75" ry="1.75" style="stroke:#181818;stroke-width:0.3499999999999999;" width="127.4" x="443.8" y="113.508"/><text fill="#000000" font-family="sans-serif" font-size="9.8" lengthAdjust="spacing" textLength="117.6" x="448.7" y="128.9832">:ListGreenSpaceController</text><polygon fill="#181818" points="495.6,157.5465,502.6,160.3465,495.6,163.1465,498.4,160.3465" style="stroke:#181818;stroke-width:0.6999999999999998;"/><line style="stroke:#181818;stroke-width:0.6999999999999998;" x1="254.8" x2="499.8" y1="160.3465" y2="160.3465"/><text fill="#000000" font-family="sans-serif" font-size="9.1" font-weight="bold" lengthAdjust="spacing" textLength="4.9" x="259.7" y="156.6626">3</text><text fill="#000000" font-family="sans-serif" font-size="9.1" lengthAdjust="spacing" textLength="140.7" x="267.4" y="156.6626">getCollaboratorThoughEmail(email)</text><polygon fill="#181818" points="600.25,179.4502,607.25,182.2502,600.25,185.0502,603.05,182.2502" style="stroke:#181818;stroke-width:0.6999999999999998;"/><line style="stroke:#181818;stroke-width:0.6999999999999998;" x1="511" x2="604.45" y1="182.2502" y2="182.2502"/><text fill="#000000" font-family="sans-serif" font-size="9.1" font-weight="bold" lengthAdjust="spacing" textLength="4.9" x="515.9" y="178.5663">4</text><text fill="#000000" font-family="sans-serif" font-size="9.1" lengthAdjust="spacing" textLength="52.5" x="523.6" y="178.5663">getInstance()</text><polygon fill="#181818" points="518.7,201.3539,511.7,204.1539,518.7,206.9539,515.9,204.1539" style="stroke:#181818;stroke-width:0.6999999999999998;"/><line style="stroke:#181818;stroke-width:0.6999999999999998;stroke-dasharray:2.0,2.0;" x1="514.5" x2="611.45" y1="204.1539" y2="204.1539"/><text fill="#000000" font-family="sans-serif" font-size="9.1" font-weight="bold" lengthAdjust="spacing" textLength="4.9" x="522.9" y="200.47">5</text><text fill="#000000" font-family="sans-serif" font-size="9.1" lengthAdjust="spacing" textLength="46.9" x="530.6" y="200.47">repositories</text><polygon fill="#181818" points="675.15,223.2576,682.15,226.0576,675.15,228.8576,677.95,226.0576" style="stroke:#181818;stroke-width:0.6999999999999998;"/><line style="stroke:#181818;stroke-width:0.6999999999999998;" x1="511" x2="679.35" y1="226.0576" y2="226.0576"/><text fill="#000000" font-family="sans-serif" font-size="9.1" font-weight="bold" lengthAdjust="spacing" textLength="4.9" x="515.9" y="222.3737">6</text><text fill="#000000" font-family="sans-serif" font-size="9.1" lengthAdjust="spacing" textLength="104.3" x="523.6" y="222.3737">getCollaboratorRepository</text><polygon fill="#181818" points="518.7,245.1613,511.7,247.9613,518.7,250.7613,515.9,247.9613" style="stroke:#181818;stroke-width:0.6999999999999998;"/><line style="stroke:#181818;stroke-width:0.6999999999999998;stroke-dasharray:2.0,2.0;" x1="514.5" x2="686.35" y1="247.9613" y2="247.9613"/><text fill="#000000" font-family="sans-serif" font-size="9.1" font-weight="bold" lengthAdjust="spacing" textLength="4.9" x="522.9" y="244.2774">7</text><text fill="#000000" font-family="sans-serif" font-size="9.1" lengthAdjust="spacing" textLength="90.3" x="530.6" y="244.2774">collaboratorRepository</text><polygon fill="#181818" points="773.5,267.065,780.5,269.865,773.5,272.665,776.3,269.865" style="stroke:#181818;stroke-width:0.6999999999999998;"/><line style="stroke:#181818;stroke-width:0.6999999999999998;" x1="511" x2="777.7" y1="269.865" y2="269.865"/><text fill="#000000" font-family="sans-serif" font-size="9.1" font-weight="bold" lengthAdjust="spacing" textLength="4.9" x="515.9" y="266.1812">8</text><text fill="#000000" font-family="sans-serif" font-size="9.1" lengthAdjust="spacing" textLength="140.7" x="523.6" y="266.1812">getCollaboratorThoughEmail(email)</text><line style="stroke:#181818;stroke-width:0.6999999999999998;" x1="788.9" x2="821.8" y1="288.2687" y2="288.2687"/><line style="stroke:#181818;stroke-width:0.6999999999999998;" x1="821.8" x2="821.8" y1="288.2687" y2="297.3687"/><line style="stroke:#181818;stroke-width:0.6999999999999998;" x1="793.1" x2="821.8" y1="297.3687" y2="297.3687"/><polygon fill="#181818" points="800.1,294.5687,793.1,297.3687,800.1,300.1687,797.3,297.3687" style="stroke:#181818;stroke-width:0.6999999999999998;"/><text fill="#000000" font-family="sans-serif" font-size="9.1" font-weight="bold" lengthAdjust="spacing" textLength="4.9" x="797.3" y="284.5849">9</text><text fill="#000000" font-family="sans-serif" font-size="9.1" lengthAdjust="spacing" textLength="140.7" x="805" y="284.5849">getCollaboratorThoughEmail(email)</text><polygon fill="#181818" points="518.7,319.9725,511.7,322.7725,518.7,325.5725,515.9,322.7725" style="stroke:#181818;stroke-width:0.6999999999999998;"/><line style="stroke:#181818;stroke-width:0.6999999999999998;stroke-dasharray:2.0,2.0;" x1="514.5" x2="784.7" y1="322.7725" y2="322.7725"/><text fill="#000000" font-family="sans-serif" font-size="9.1" font-weight="bold" lengthAdjust="spacing" textLength="9.8" x="522.9" y="319.0886">10</text><text fill="#000000" font-family="sans-serif" font-size="9.1" lengthAdjust="spacing" textLength="83.3" x="535.5" y="319.0886">greenSpaceManager</text><polygon fill="#181818" points="262.5,341.8762,255.5,344.6762,262.5,347.4762,259.7,344.6762" style="stroke:#181818;stroke-width:0.6999999999999998;"/><line style="stroke:#181818;stroke-width:0.6999999999999998;stroke-dasharray:2.0,2.0;" x1="258.3" x2="506.8" y1="344.6762" y2="344.6762"/><text fill="#000000" font-family="sans-serif" font-size="9.1" font-weight="bold" lengthAdjust="spacing" textLength="9.8" x="266.7" y="340.9923">11</text><text fill="#000000" font-family="sans-serif" font-size="9.1" lengthAdjust="spacing" textLength="83.3" x="279.3" y="340.9923">greenSpaceManager</text><polygon fill="#181818" points="51.8,363.7799,44.8,366.5799,51.8,369.3799,49,366.5799" style="stroke:#181818;stroke-width:0.6999999999999998;"/><line style="stroke:#181818;stroke-width:0.6999999999999998;stroke-dasharray:2.0,2.0;" x1="47.6" x2="250.6" y1="366.5799" y2="366.5799"/><text fill="#000000" font-family="sans-serif" font-size="9.1" font-weight="bold" lengthAdjust="spacing" textLength="9.8" x="56" y="362.896">12</text><text fill="#000000" font-family="sans-serif" font-size="9.1" lengthAdjust="spacing" textLength="163.1" x="68.6" y="362.896">asks the user to choose a sorting option</text><polygon fill="#181818" points="239.4,385.6836,246.4,388.4836,239.4,391.2836,242.2,388.4836" style="stroke:#181818;stroke-width:0.6999999999999998;"/><line style="stroke:#181818;stroke-width:0.6999999999999998;" x1="44.1" x2="243.6" y1="388.4836" y2="388.4836"/><text fill="#000000" font-family="sans-serif" font-size="9.1" font-weight="bold" lengthAdjust="spacing" textLength="9.8" x="49" y="384.7997">13</text><text fill="#000000" font-family="sans-serif" font-size="9.1" lengthAdjust="spacing" textLength="99.4" x="61.6" y="384.7997">chooses a sorting option</text><polygon fill="#181818" points="51.8,407.5873,44.8,410.3873,51.8,413.1873,49,410.3873" style="stroke:#181818;stroke-width:0.6999999999999998;"/><line style="stroke:#181818;stroke-width:0.6999999999999998;stroke-dasharray:2.0,2.0;" x1="47.6" x2="250.6" y1="410.3873" y2="410.3873"/><text fill="#000000" font-family="sans-serif" font-size="9.1" font-weight="bold" lengthAdjust="spacing" textLength="9.8" x="56" y="406.7034">14</text><text fill="#000000" font-family="sans-serif" font-size="9.1" lengthAdjust="spacing" textLength="84" x="68.6" y="406.7034">asks for confirmation</text><polygon fill="#181818" points="239.4,429.491,246.4,432.291,239.4,435.091,242.2,432.291" style="stroke:#181818;stroke-width:0.6999999999999998;"/><line style="stroke:#181818;stroke-width:0.6999999999999998;" x1="44.1" x2="243.6" y1="432.291" y2="432.291"/><text fill="#000000" font-family="sans-serif" font-size="9.1" font-weight="bold" lengthAdjust="spacing" textLength="9.8" x="49" y="428.6071">15</text><text fill="#000000" font-family="sans-serif" font-size="9.1" lengthAdjust="spacing" textLength="160.3" x="61.6" y="428.6071">confirms that he wants to create the list</text><polygon fill="#181818" points="495.6,451.3947,502.6,454.1947,495.6,456.9947,498.4,454.1947" style="stroke:#181818;stroke-width:0.6999999999999998;"/><line style="stroke:#181818;stroke-width:0.6999999999999998;" x1="254.8" x2="499.8" y1="454.1947" y2="454.1947"/><text fill="#000000" font-family="sans-serif" font-size="9.1" font-weight="bold" lengthAdjust="spacing" textLength="9.8" x="259.7" y="450.5108">16</text><text fill="#000000" font-family="sans-serif" font-size="9.1" lengthAdjust="spacing" textLength="223.3" x="272.3" y="450.5108">getGreenSpaceList(greenSpaceManager,sortingOption)</text><polygon fill="#181818" points="600.25,473.2984,607.25,476.0984,600.25,478.8984,603.05,476.0984" style="stroke:#181818;stroke-width:0.6999999999999998;"/><line style="stroke:#181818;stroke-width:0.6999999999999998;" x1="511" x2="604.45" y1="476.0984" y2="476.0984"/><text fill="#000000" font-family="sans-serif" font-size="9.1" font-weight="bold" lengthAdjust="spacing" textLength="9.8" x="515.9" y="472.4146">17</text><text fill="#000000" font-family="sans-serif" font-size="9.1" lengthAdjust="spacing" textLength="52.5" x="528.5" y="472.4146">getInstance()</text><polygon fill="#181818" points="518.7,495.2021,511.7,498.0021,518.7,500.8021,515.9,498.0021" style="stroke:#181818;stroke-width:0.6999999999999998;"/><line style="stroke:#181818;stroke-width:0.6999999999999998;stroke-dasharray:2.0,2.0;" x1="514.5" x2="611.45" y1="498.0021" y2="498.0021"/><text fill="#000000" font-family="sans-serif" font-size="9.1" font-weight="bold" lengthAdjust="spacing" textLength="9.8" x="522.9" y="494.3183">18</text><text fill="#000000" font-family="sans-serif" font-size="9.1" lengthAdjust="spacing" textLength="46.9" x="535.5" y="494.3183">repositories</text><polygon fill="#181818" points="675.15,517.1059,682.15,519.9059,675.15,522.7059,677.95,519.9059" style="stroke:#181818;stroke-width:0.6999999999999998;"/><line style="stroke:#181818;stroke-width:0.6999999999999998;" x1="511" x2="679.35" y1="519.9059" y2="519.9059"/><text fill="#000000" font-family="sans-serif" font-size="9.1" font-weight="bold" lengthAdjust="spacing" textLength="9.8" x="515.9" y="516.222">19</text><text fill="#000000" font-family="sans-serif" font-size="9.1" lengthAdjust="spacing" textLength="112" x="528.5" y="516.222">getGreenSpaceRepository()</text><polygon fill="#181818" points="518.7,539.0096,511.7,541.8096,518.7,544.6096,515.9,541.8096" style="stroke:#181818;stroke-width:0.6999999999999998;"/><line style="stroke:#181818;stroke-width:0.6999999999999998;stroke-dasharray:2.0,2.0;" x1="514.5" x2="686.35" y1="541.8096" y2="541.8096"/><text fill="#000000" font-family="sans-serif" font-size="9.1" font-weight="bold" lengthAdjust="spacing" textLength="9.8" x="522.9" y="538.1257">20</text><text fill="#000000" font-family="sans-serif" font-size="9.1" lengthAdjust="spacing" textLength="91.7" x="535.5" y="538.1257">greenSpaceRepository</text><polygon fill="#181818" points="938.7,560.9133,945.7,563.7133,938.7,566.5133,941.5,563.7133" style="stroke:#181818;stroke-width:0.6999999999999998;"/><line style="stroke:#181818;stroke-width:0.6999999999999998;" x1="511" x2="942.9" y1="563.7133" y2="563.7133"/><text fill="#000000" font-family="sans-serif" font-size="9.1" font-weight="bold" lengthAdjust="spacing" textLength="9.8" x="515.9" y="560.0294">21</text><text fill="#000000" font-family="sans-serif" font-size="9.1" lengthAdjust="spacing" textLength="223.3" x="528.5" y="560.0294">getGreenSpaceList(greenSpaceManager,sortingOption)</text><polygon fill="#181818" points="1116.5,582.817,1123.5,585.617,1116.5,588.417,1119.3,585.617" style="stroke:#181818;stroke-width:0.6999999999999998;"/><line style="stroke:#181818;stroke-width:0.6999999999999998;" x1="954.1" x2="1120.7" y1="585.617" y2="585.617"/><text fill="#000000" font-family="sans-serif" font-size="9.1" font-weight="bold" lengthAdjust="spacing" textLength="9.8" x="959" y="581.9331">22</text><text fill="#000000" font-family="sans-serif" font-size="9.1" lengthAdjust="spacing" textLength="30.8" x="971.6" y="581.9331">create()</text><rect fill="#E3E3E3" height="35.8695" rx="1.75" ry="1.75" style="stroke:#181818;stroke-width:0.3499999999999999;" width="95.2" x="1124.9" y="569.3133"/><text fill="#000000" font-family="sans-serif" font-size="9.8" lengthAdjust="spacing" textLength="69.3" x="1137.85" y="584.7885">greenSpaceList</text><text fill="#000000" font-family="sans-serif" font-size="9.8" lengthAdjust="spacing" textLength="85.4" x="1129.8" y="597.8232">:List&lt;GreenSpace&gt;</text><path d="M878.5,617.7828 L929.6,617.7828 L929.6,624.2865 L922.6,631.2865 L878.5,631.2865 L878.5,617.7828 " fill="#EEEEEE" style="stroke:#000000;stroke-width:1.0499999999999998;"/><rect fill="none" height="58.7111" style="stroke:#000000;stroke-width:1.0499999999999998;" width="355.6" x="878.5" y="617.7828"/><text fill="#000000" font-family="sans-serif" font-size="9.1" font-weight="bold" lengthAdjust="spacing" textLength="19.6" x="889" y="628.3026">loop</text><text fill="#000000" font-family="sans-serif" font-size="7.7" font-weight="bold" lengthAdjust="spacing" textLength="157.5" x="940.1" y="627.4919">[for each greenSpace in greenSpaceList]</text><path d="M885.5,636.1865 L931,636.1865 L931,642.6902 L924,649.6902 L885.5,649.6902 L885.5,636.1865 " fill="#EEEEEE" style="stroke:#000000;stroke-width:1.0499999999999998;"/><rect fill="none" height="35.4074" style="stroke:#000000;stroke-width:1.0499999999999998;" width="341.6" x="885.5" y="636.1865"/><text fill="#000000" font-family="sans-serif" font-size="9.1" font-weight="bold" lengthAdjust="spacing" textLength="14" x="896" y="646.7063">opt</text><text fill="#000000" font-family="sans-serif" font-size="7.7" font-weight="bold" lengthAdjust="spacing" textLength="182" x="941.5" y="645.8956">[greenSpace.getGSM() == greenSpaceManager]</text><polygon fill="#181818" points="1160.6,663.1939,1167.6,665.9939,1160.6,668.7939,1163.4,665.9939" style="stroke:#181818;stroke-width:0.6999999999999998;"/><line style="stroke:#181818;stroke-width:0.6999999999999998;" x1="954.1" x2="1164.8" y1="665.9939" y2="665.9939"/><text fill="#000000" font-family="sans-serif" font-size="9.1" font-weight="bold" lengthAdjust="spacing" textLength="9.8" x="959" y="662.3101">23</text><text fill="#000000" font-family="sans-serif" font-size="9.1" lengthAdjust="spacing" textLength="103.6" x="971.6" y="662.3101">add(greenSpaceManager)</text><line style="stroke:#181818;stroke-width:0.6999999999999998;" x1="1176" x2="1208.9" y1="694.1977" y2="694.1977"/><line style="stroke:#181818;stroke-width:0.6999999999999998;" x1="1208.9" x2="1208.9" y1="694.1977" y2="703.2977"/><line style="stroke:#181818;stroke-width:0.6999999999999998;" x1="1180.2" x2="1208.9" y1="703.2977" y2="703.2977"/><polygon fill="#181818" points="1187.2,700.4977,1180.2,703.2977,1187.2,706.0977,1184.4,703.2977" style="stroke:#181818;stroke-width:0.6999999999999998;"/><text fill="#000000" font-family="sans-serif" font-size="9.1" font-weight="bold" lengthAdjust="spacing" textLength="9.8" x="1184.4" y="690.5138">24</text><text fill="#000000" font-family="sans-serif" font-size="9.1" lengthAdjust="spacing" textLength="74.9" x="1197" y="690.5138">sort(sortingOption)</text><polygon fill="#181818" points="961.8,725.9014,954.8,728.7014,961.8,731.5014,959,728.7014" style="stroke:#181818;stroke-width:0.6999999999999998;"/><line style="stroke:#181818;stroke-width:0.6999999999999998;stroke-dasharray:2.0,2.0;" x1="957.6" x2="1171.8" y1="728.7014" y2="728.7014"/><text fill="#000000" font-family="sans-serif" font-size="9.1" font-weight="bold" lengthAdjust="spacing" textLength="9.8" x="966" y="725.0175">25</text><text fill="#000000" font-family="sans-serif" font-size="9.1" lengthAdjust="spacing" textLength="63" x="978.6" y="725.0175">greenSpaceList</text><polygon fill="#181818" points="518.7,747.8051,511.7,750.6051,518.7,753.4051,515.9,750.6051" style="stroke:#181818;stroke-width:0.6999999999999998;"/><line style="stroke:#181818;stroke-width:0.6999999999999998;stroke-dasharray:2.0,2.0;" x1="514.5" x2="949.9" y1="750.6051" y2="750.6051"/><text fill="#000000" font-family="sans-serif" font-size="9.1" font-weight="bold" lengthAdjust="spacing" textLength="9.8" x="522.9" y="746.9212">26</text><text fill="#000000" font-family="sans-serif" font-size="9.1" lengthAdjust="spacing" textLength="63" x="535.5" y="746.9212">greenSpaceList</text><polygon fill="#181818" points="1054.9,769.7088,1061.9,772.5088,1054.9,775.3088,1057.7,772.5088" style="stroke:#181818;stroke-width:0.6999999999999998;"/><line style="stroke:#181818;stroke-width:0.6999999999999998;" x1="511" x2="1059.1" y1="772.5088" y2="772.5088"/><text fill="#000000" font-family="sans-serif" font-size="9.1" font-weight="bold" lengthAdjust="spacing" textLength="9.8" x="515.9" y="768.8249">27</text><text fill="#000000" font-family="sans-serif" font-size="9.1" lengthAdjust="spacing" textLength="94.5" x="528.5" y="768.8249">toDTO(greenSpaceList)</text><polygon fill="#181818" points="1317.4,791.6125,1324.4,794.4125,1317.4,797.2125,1320.2,794.4125" style="stroke:#181818;stroke-width:0.6999999999999998;"/><line style="stroke:#181818;stroke-width:0.6999999999999998;stroke-dasharray:2.0,2.0;" x1="1070.3" x2="1321.6" y1="794.4125" y2="794.4125"/><text fill="#000000" font-family="sans-serif" font-size="9.1" font-weight="bold" lengthAdjust="spacing" textLength="9.8" x="1075.2" y="790.7286">28</text><text fill="#000000" font-family="sans-serif" font-size="9.1" lengthAdjust="spacing" textLength="30.8" x="1087.8" y="790.7286">create()</text><rect fill="#E3E3E3" height="35.8695" rx="1.75" ry="1.75" style="stroke:#181818;stroke-width:0.3499999999999999;" width="110.6" x="1325.8" y="778.1088"/><text fill="#000000" font-family="sans-serif" font-size="9.8" lengthAdjust="spacing" textLength="84.7" x="1338.75" y="793.584">greenSpaceListDto</text><text fill="#000000" font-family="sans-serif" font-size="9.8" lengthAdjust="spacing" textLength="100.8" x="1330.7" y="806.6187">:List&lt;GreenSpaceDto&gt;</text><path d="M1008.7,826.5783 L1059.8,826.5783 L1059.8,833.082 L1052.8,840.082 L1008.7,840.082 L1008.7,826.5783 " fill="#EEEEEE" style="stroke:#000000;stroke-width:1.0499999999999998;"/><rect fill="none" height="123.0223" style="stroke:#000000;stroke-width:1.0499999999999998;" width="434.7" x="1008.7" y="826.5783"/><text fill="#000000" font-family="sans-serif" font-size="9.1" font-weight="bold" lengthAdjust="spacing" textLength="19.6" x="1019.2" y="837.0981">loop</text><text fill="#000000" font-family="sans-serif" font-size="7.7" font-weight="bold" lengthAdjust="spacing" textLength="105.7" x="1070.3" y="836.2874">[for each entry in entryList]</text><polygon fill="#181818" points="1160.6,853.5857,1167.6,856.3857,1160.6,859.1857,1163.4,856.3857" style="stroke:#181818;stroke-width:0.6999999999999998;"/><line style="stroke:#181818;stroke-width:0.6999999999999998;" x1="1070.3" x2="1164.8" y1="856.3857" y2="856.3857"/><text fill="#000000" font-family="sans-serif" font-size="9.1" font-weight="bold" lengthAdjust="spacing" textLength="9.8" x="1075.2" y="852.7019">29</text><text fill="#000000" font-family="sans-serif" font-size="9.1" lengthAdjust="spacing" textLength="20.3" x="1087.8" y="852.7019">get(i)</text><polygon fill="#181818" points="1078,875.4895,1071,878.2895,1078,881.0895,1075.2,878.2895" style="stroke:#181818;stroke-width:0.6999999999999998;"/><line style="stroke:#181818;stroke-width:0.6999999999999998;stroke-dasharray:2.0,2.0;" x1="1073.8" x2="1171.8" y1="878.2895" y2="878.2895"/><text fill="#000000" font-family="sans-serif" font-size="9.1" font-weight="bold" lengthAdjust="spacing" textLength="9.8" x="1082.2" y="874.6056">30</text><text fill="#000000" font-family="sans-serif" font-size="9.1" lengthAdjust="spacing" textLength="20.3" x="1094.8" y="874.6056">entry</text><polygon fill="#181818" points="1264.9,897.3932,1271.9,900.1932,1264.9,902.9932,1267.7,900.1932" style="stroke:#181818;stroke-width:0.6999999999999998;"/><line style="stroke:#181818;stroke-width:0.6999999999999998;" x1="1070.3" x2="1269.1" y1="900.1932" y2="900.1932"/><text fill="#000000" font-family="sans-serif" font-size="9.1" font-weight="bold" lengthAdjust="spacing" textLength="9.8" x="1075.2" y="896.5093">31</text><text fill="#000000" font-family="sans-serif" font-size="9.1" lengthAdjust="spacing" textLength="73.5" x="1087.8" y="896.5093">toDTOEntry(entry)</text><polygon fill="#181818" points="1078,919.2969,1071,922.0969,1078,924.8969,1075.2,922.0969" style="stroke:#181818;stroke-width:0.6999999999999998;"/><line style="stroke:#181818;stroke-width:0.6999999999999998;stroke-dasharray:2.0,2.0;" x1="1073.8" x2="1276.1" y1="922.0969" y2="922.0969"/><text fill="#000000" font-family="sans-serif" font-size="9.1" font-weight="bold" lengthAdjust="spacing" textLength="9.8" x="1082.2" y="918.413">32</text><text fill="#000000" font-family="sans-serif" font-size="9.1" lengthAdjust="spacing" textLength="34.3" x="1094.8" y="918.413">entryDto</text><polygon fill="#181818" points="1369.2,941.2006,1376.2,944.0006,1369.2,946.8006,1372,944.0006" style="stroke:#181818;stroke-width:0.6999999999999998;"/><line style="stroke:#181818;stroke-width:0.6999999999999998;" x1="1070.3" x2="1373.4" y1="944.0006" y2="944.0006"/><text fill="#000000" font-family="sans-serif" font-size="9.1" font-weight="bold" lengthAdjust="spacing" textLength="9.8" x="1075.2" y="940.3167">33</text><text fill="#000000" font-family="sans-serif" font-size="9.1" lengthAdjust="spacing" textLength="51.8" x="1087.8" y="940.3167">add(taskDto)</text><polygon fill="#181818" points="1078,968.0043,1071,970.8043,1078,973.6043,1075.2,970.8043" style="stroke:#181818;stroke-width:0.6999999999999998;"/><line style="stroke:#181818;stroke-width:0.6999999999999998;stroke-dasharray:2.0,2.0;" x1="1073.8" x2="1380.4" y1="970.8043" y2="970.8043"/><text fill="#000000" font-family="sans-serif" font-size="9.1" font-weight="bold" lengthAdjust="spacing" textLength="9.8" x="1082.2" y="967.1204">34</text><text fill="#000000" font-family="sans-serif" font-size="9.1" lengthAdjust="spacing" textLength="54.6" x="1094.8" y="967.1204">listEntriesDto</text><polygon fill="#181818" points="518.7,989.908,511.7,992.708,518.7,995.508,515.9,992.708" style="stroke:#181818;stroke-width:0.6999999999999998;"/><line style="stroke:#181818;stroke-width:0.6999999999999998;stroke-dasharray:2.0,2.0;" x1="514.5" x2="1066.1" y1="992.708" y2="992.708"/><text fill="#000000" font-family="sans-serif" font-size="9.1" font-weight="bold" lengthAdjust="spacing" textLength="9.8" x="522.9" y="989.0241">35</text><text fill="#000000" font-family="sans-serif" font-size="9.1" lengthAdjust="spacing" textLength="77" x="535.5" y="989.0241">greenSpaceListDto</text><polygon fill="#181818" points="262.5,1011.8117,255.5,1014.6117,262.5,1017.4117,259.7,1014.6117" style="stroke:#181818;stroke-width:0.6999999999999998;"/><line style="stroke:#181818;stroke-width:0.6999999999999998;stroke-dasharray:2.0,2.0;" x1="258.3" x2="506.8" y1="1014.6117" y2="1014.6117"/><text fill="#000000" font-family="sans-serif" font-size="9.1" font-weight="bold" lengthAdjust="spacing" textLength="9.8" x="266.7" y="1010.9278">36</text><text fill="#000000" font-family="sans-serif" font-size="9.1" lengthAdjust="spacing" textLength="77" x="279.3" y="1010.9278">greenSpaceListDto</text><polygon fill="#181818" points="48.3,1033.7154,41.3,1036.5154,48.3,1039.3154,45.5,1036.5154" style="stroke:#181818;stroke-width:0.6999999999999998;"/><line style="stroke:#181818;stroke-width:0.6999999999999998;stroke-dasharray:2.0,2.0;" x1="44.1" x2="250.6" y1="1036.5154" y2="1036.5154"/><text fill="#000000" font-family="sans-serif" font-size="9.1" font-weight="bold" lengthAdjust="spacing" textLength="9.8" x="52.5" y="1032.8315">37</text><text fill="#000000" font-family="sans-serif" font-size="9.1" lengthAdjust="spacing" textLength="56" x="65.1" y="1032.8315">shows the list</text><!--SRC=[rLXDR-8m4BtdLrYzR43R_G5esqkB41AeLQ6tNammn6fYHx7PBlz-nyu7TcARX9wMmouaCs_UJ6PUnXMVb1Mun3dAEUD9MlAS85cUI2JQEmLEFl6HREGv8wWaYSJic9a68iLx_aNP4Hrm9aWKuPFax9JlI1b5FrAw9-Z0kTpnln5E92_HtQ8aX7sm3K0JjCOCuCiF5YyswyaTmWB1bmYm9KreWPb4TxCL5L9xQP_tfJPxNmQjdZYJ9SyoKchhf-tRgcF_HWekA52YH6YRzi9vGrMMa8VjKXeU7ym1C7-r7H8WW7Uyn61qGGVN9-SD3UBsiN6FRPeMwi9nMMEwx3lLkFYkSL7KLQk- -cAhWaDKzT_lY_jZ9wAwxKDubjoY3R-rz_Fs9HIqSkl4XOjLwDLoirK0gj_e7oo9xgW8rH_uWUuVeNtG3Am_1P8SPG25S9OPj0NATMlkqUwCKffV05fOwC3sOlC1M01NtJQTGe2a963Pix8jmUv8fDaIsvIVZkaynpIBYVftueImsEWEzvhfE13FqUDL-2KJCDi9YVsXh72kOGbwkYBVNofWpbOGPqzkuz1MOFxQBxWn5iEoXqaFPmjHZEoIyR7CF4FHchpS8RxLMrRAdXI2pXvE_nbROqmDaTJlhJ1Wvp7UmkcwUxWl6gNhCnyGKKjALxC0KKbe8vufGIT1IgMYISgv80WZmK6wOIFWXQGmaWvaKpfDGQuWX1_3AxuNQZMp0-mQ2MS7MkOuGCF4i9XKhYf3B15a-GKl8lsog3HTPwxU6svgKKZg5zRRBEuzcvzryYywTxlZh-ZzTtH-lAw6DFsAf8-LyPvykvQTO58-4JMbUkPUbSPgSqFM1NPR2_ZpSXBsJhUJaSLKyPbEczKbi0vad1Twog0OgG60AEkkVp34ngLVAl_DEfwWXuSHmZISlXAd_RvVrCbLjNPKTMNE-BNFO4Dj74M3xGdRZpCUQjkfdAkMgXNZW2JTKj1HXNBnz4pNxEP0naoFXRZ1rTt8hasZmea6nJGLm7Pf5AawqK40oU6C5DjXF6-Q-XHetQnn5EFwl6MSTnoYOOi5WRFvMUc4_kATi2Q8eoT1Gc8wu5Gq_dcqxTMMIfECnZ_yS4fGikOnp5M0M8SPa98-s_gi56gVF9oDX_1No67IzREk1LR2eWNG0pWtPtAdh5bNcmXM4chFKaM2HQANYi7V5SLeLETeARp8WrStlcUhTY6DNwH1NbF-9UnrihCf6p_rdpAYVm00]--></g></svg>