<?xml version="1.0" encoding="us-ascii" standalone="no"?><svg xmlns="http://www.w3.org/2000/svg" xmlns:xlink="http://www.w3.org/1999/xlink" contentStyleType="text/css" height="872px" preserveAspectRatio="none" style="width:920px;height:872px;background:#FFFFFF;" version="1.1" viewBox="0 0 920 872" width="920px" zoomAndPan="magnify"><defs/><g><rect fill="#FFFFFF" height="603.752" style="stroke:#181818;stroke-width:1.0;" width="10" x="53" y="130.8633"/><rect fill="#FFFFFF" height="201.707" style="stroke:#181818;stroke-width:1.0;" width="10" x="379" y="154.1543"/><rect fill="#FFFFFF" height="31.291" style="stroke:#181818;stroke-width:1.0;" width="10" x="379" y="387.1523"/><rect fill="#FFFFFF" height="284.8809" style="stroke:#181818;stroke-width:1.0;" width="10" x="379" y="449.7344"/><rect fill="#FFFFFF" height="95.5039" style="stroke:#181818;stroke-width:1.0;" width="10" x="620" y="229.0664"/><rect fill="#FFFFFF" height="222.2988" style="stroke:#181818;stroke-width:1.0;" width="10" x="620" y="481.0254"/><rect fill="#FFFFFF" height="95.5039" style="stroke:#181818;stroke-width:1.0;" width="10" x="796" y="576.5293"/><line style="stroke:#181818;stroke-width:0.5;stroke-dasharray:5.0,5.0;" x1="58" x2="58" y1="120.8633" y2="752.6152"/><line style="stroke:#181818;stroke-width:0.5;stroke-dasharray:5.0,5.0;" x1="384" x2="384" y1="120.8633" y2="752.6152"/><line style="stroke:#181818;stroke-width:0.5;stroke-dasharray:5.0,5.0;" x1="625" x2="625" y1="193.9648" y2="752.6152"/><line style="stroke:#181818;stroke-width:0.5;stroke-dasharray:5.0,5.0;" x1="801" x2="801" y1="120.8633" y2="752.6152"/><text fill="#000000" font-family="sans-serif" font-size="14" lengthAdjust="spacing" textLength="40" x="35" y="80.1074">Green</text><text fill="#000000" font-family="sans-serif" font-size="14" lengthAdjust="spacing" textLength="100" x="5" y="98.7285">Space Manager</text><text fill="#000000" font-family="sans-serif" font-size="14" lengthAdjust="spacing" textLength="41" x="34.5" y="117.3496">(GSM)</text><ellipse cx="58" cy="13.5" fill="#E3E3E3" rx="8" ry="8" style="stroke:#181818;stroke-width:0.5;"/><path d="M58,21.5 L58,48.5 M45,29.5 L71,29.5 M58,48.5 L45,63.5 M58,48.5 L71,63.5 " fill="none" style="stroke:#181818;stroke-width:0.5;"/><text fill="#000000" font-family="sans-serif" font-size="14" lengthAdjust="spacing" textLength="40" x="35" y="766.7227">Green</text><text fill="#000000" font-family="sans-serif" font-size="14" lengthAdjust="spacing" textLength="100" x="5" y="785.3438">Space Manager</text><text fill="#000000" font-family="sans-serif" font-size="14" lengthAdjust="spacing" textLength="41" x="34.5" y="803.9648">(GSM)</text><ellipse cx="58" cy="815.9785" fill="#E3E3E3" rx="8" ry="8" style="stroke:#181818;stroke-width:0.5;"/><path d="M58,823.9785 L58,850.9785 M45,831.9785 L71,831.9785 M58,850.9785 L45,865.9785 M58,850.9785 L71,865.9785 " fill="none" style="stroke:#181818;stroke-width:0.5;"/><rect fill="#E3E3E3" height="32.6211" rx="2.5" ry="2.5" style="stroke:#181818;stroke-width:0.5;" width="132" x="318" y="87.2422"/><text fill="#000000" font-family="sans-serif" font-size="14" lengthAdjust="spacing" textLength="118" x="325" y="109.3496">:ListGreenSpaceUI</text><rect fill="#E3E3E3" height="32.6211" rx="2.5" ry="2.5" style="stroke:#181818;stroke-width:0.5;" width="132" x="318" y="751.6152"/><text fill="#000000" font-family="sans-serif" font-size="14" lengthAdjust="spacing" textLength="118" x="325" y="773.7227">:ListGreenSpaceUI</text><rect fill="#E3E3E3" height="32.6211" rx="2.5" ry="2.5" style="stroke:#181818;stroke-width:0.5;" width="182" x="534" y="751.6152"/><text fill="#000000" font-family="sans-serif" font-size="14" lengthAdjust="spacing" textLength="168" x="541" y="773.7227">:ListGreenSpaceController</text><rect fill="#E3E3E3" height="32.6211" rx="2.5" ry="2.5" style="stroke:#181818;stroke-width:0.5;" width="142" x="730" y="87.2422"/><text fill="#000000" font-family="sans-serif" font-size="14" lengthAdjust="spacing" textLength="128" x="737" y="109.3496">GreenSpaceMapper</text><rect fill="#E3E3E3" height="32.6211" rx="2.5" ry="2.5" style="stroke:#181818;stroke-width:0.5;" width="142" x="730" y="751.6152"/><text fill="#000000" font-family="sans-serif" font-size="14" lengthAdjust="spacing" textLength="128" x="737" y="773.7227">GreenSpaceMapper</text><rect fill="#FFFFFF" height="603.752" style="stroke:#181818;stroke-width:1.0;" width="10" x="53" y="130.8633"/><rect fill="#FFFFFF" height="201.707" style="stroke:#181818;stroke-width:1.0;" width="10" x="379" y="154.1543"/><rect fill="#FFFFFF" height="31.291" style="stroke:#181818;stroke-width:1.0;" width="10" x="379" y="387.1523"/><rect fill="#FFFFFF" height="284.8809" style="stroke:#181818;stroke-width:1.0;" width="10" x="379" y="449.7344"/><rect fill="#FFFFFF" height="95.5039" style="stroke:#181818;stroke-width:1.0;" width="10" x="620" y="229.0664"/><rect fill="#FFFFFF" height="222.2988" style="stroke:#181818;stroke-width:1.0;" width="10" x="620" y="481.0254"/><rect fill="#FFFFFF" height="95.5039" style="stroke:#181818;stroke-width:1.0;" width="10" x="796" y="576.5293"/><polygon fill="#181818" points="367,150.1543,377,154.1543,367,158.1543,371,154.1543" style="stroke:#181818;stroke-width:1.0;"/><line style="stroke:#181818;stroke-width:1.0;" x1="63" x2="373" y1="154.1543" y2="154.1543"/><text fill="#000000" font-family="sans-serif" font-size="13" font-weight="bold" lengthAdjust="spacing" textLength="7" x="70" y="148.8916">1</text><text fill="#000000" font-family="sans-serif" font-size="13" lengthAdjust="spacing" textLength="286" x="81" y="148.8916">asks to list all the GreenSpaces managed by him</text><polygon fill="#181818" points="522,181.4453,532,185.4453,522,189.4453,526,185.4453" style="stroke:#181818;stroke-width:1.0;"/><line style="stroke:#181818;stroke-width:1.0;" x1="389" x2="528" y1="185.4453" y2="185.4453"/><text fill="#000000" font-family="sans-serif" font-size="13" font-weight="bold" lengthAdjust="spacing" textLength="7" x="396" y="180.1826">2</text><text fill="#000000" font-family="sans-serif" font-size="13" lengthAdjust="spacing" textLength="36" x="407" y="180.1826">create</text><rect fill="#E3E3E3" height="32.6211" rx="2.5" ry="2.5" style="stroke:#181818;stroke-width:0.5;" width="182" x="534" y="162.1543"/><text fill="#000000" font-family="sans-serif" font-size="14" lengthAdjust="spacing" textLength="168" x="541" y="184.2617">:ListGreenSpaceController</text><polygon fill="#181818" points="608,225.0664,618,229.0664,608,233.0664,612,229.0664" style="stroke:#181818;stroke-width:1.0;"/><line style="stroke:#181818;stroke-width:1.0;" x1="389" x2="614" y1="229.0664" y2="229.0664"/><text fill="#000000" font-family="sans-serif" font-size="13" font-weight="bold" lengthAdjust="spacing" textLength="7" x="396" y="223.8037">3</text><text fill="#000000" font-family="sans-serif" font-size="13" lengthAdjust="spacing" textLength="201" x="407" y="223.8037">getCollaboratorThoughEmail(email)</text><rect fill="none" height="59.2129" style="stroke:#000000;stroke-width:1.5;" width="188" x="531" y="237.0664"/><path d="M531,237.0664 L593,237.0664 L593,246.0664 L583,256.0664 L531,256.0664 L531,237.0664 " fill="#EEEEEE" style="stroke:#000000;stroke-width:2.0;"/><text fill="#000000" font-family="sans-serif" font-size="13" font-weight="bold" lengthAdjust="spacing" textLength="17" x="544" y="253.0947">ref</text><text fill="#000000" font-family="sans-serif" font-size="12" lengthAdjust="spacing" textLength="132" x="559" y="273.0156">Get GSM Through Email</text><text fill="#000000" font-family="sans-serif" font-size="12" lengthAdjust="spacing" textLength="3" x="623.5" y="288.9766">&#160;</text><polygon fill="#181818" points="400,320.5703,390,324.5703,400,328.5703,396,324.5703" style="stroke:#181818;stroke-width:1.0;"/><line style="stroke:#181818;stroke-width:1.0;stroke-dasharray:2.0,2.0;" x1="394" x2="624" y1="324.5703" y2="324.5703"/><text fill="#000000" font-family="sans-serif" font-size="13" font-weight="bold" lengthAdjust="spacing" textLength="7" x="406" y="319.3076">4</text><text fill="#000000" font-family="sans-serif" font-size="13" lengthAdjust="spacing" textLength="119" x="417" y="319.3076">greenSpaceManager</text><polygon fill="#181818" points="74,351.8613,64,355.8613,74,359.8613,70,355.8613" style="stroke:#181818;stroke-width:1.0;"/><line style="stroke:#181818;stroke-width:1.0;stroke-dasharray:2.0,2.0;" x1="68" x2="383" y1="355.8613" y2="355.8613"/><text fill="#000000" font-family="sans-serif" font-size="13" font-weight="bold" lengthAdjust="spacing" textLength="7" x="80" y="350.5986">5</text><text fill="#000000" font-family="sans-serif" font-size="13" lengthAdjust="spacing" textLength="233" x="91" y="350.5986">asks the user to choose a sorting option</text><polygon fill="#181818" points="367,383.1523,377,387.1523,367,391.1523,371,387.1523" style="stroke:#181818;stroke-width:1.0;"/><line style="stroke:#181818;stroke-width:1.0;" x1="63" x2="373" y1="387.1523" y2="387.1523"/><text fill="#000000" font-family="sans-serif" font-size="13" font-weight="bold" lengthAdjust="spacing" textLength="7" x="70" y="381.8896">6</text><text fill="#000000" font-family="sans-serif" font-size="13" lengthAdjust="spacing" textLength="142" x="81" y="381.8896">chooses a sorting option</text><polygon fill="#181818" points="74,414.4434,64,418.4434,74,422.4434,70,418.4434" style="stroke:#181818;stroke-width:1.0;"/><line style="stroke:#181818;stroke-width:1.0;stroke-dasharray:2.0,2.0;" x1="68" x2="383" y1="418.4434" y2="418.4434"/><text fill="#000000" font-family="sans-serif" font-size="13" font-weight="bold" lengthAdjust="spacing" textLength="7" x="80" y="413.1807">7</text><text fill="#000000" font-family="sans-serif" font-size="13" lengthAdjust="spacing" textLength="120" x="91" y="413.1807">asks for confirmation</text><polygon fill="#181818" points="367,445.7344,377,449.7344,367,453.7344,371,449.7344" style="stroke:#181818;stroke-width:1.0;"/><line style="stroke:#181818;stroke-width:1.0;" x1="63" x2="373" y1="449.7344" y2="449.7344"/><text fill="#000000" font-family="sans-serif" font-size="13" font-weight="bold" lengthAdjust="spacing" textLength="7" x="70" y="444.4717">8</text><text fill="#000000" font-family="sans-serif" font-size="13" lengthAdjust="spacing" textLength="229" x="81" y="444.4717">confirms that he wants to create the list</text><polygon fill="#181818" points="608,477.0254,618,481.0254,608,485.0254,612,481.0254" style="stroke:#181818;stroke-width:1.0;"/><line style="stroke:#181818;stroke-width:1.0;" x1="389" x2="614" y1="481.0254" y2="481.0254"/><text fill="#000000" font-family="sans-serif" font-size="13" font-weight="bold" lengthAdjust="spacing" textLength="7" x="396" y="475.7627">9</text><text fill="#000000" font-family="sans-serif" font-size="13" lengthAdjust="spacing" textLength="119" x="407" y="475.7627">getGreenSpaceList()</text><rect fill="none" height="59.2129" style="stroke:#000000;stroke-width:1.5;" width="188" x="531" y="489.0254"/><path d="M531,489.0254 L593,489.0254 L593,498.0254 L583,508.0254 L531,508.0254 L531,489.0254 " fill="#EEEEEE" style="stroke:#000000;stroke-width:2.0;"/><text fill="#000000" font-family="sans-serif" font-size="13" font-weight="bold" lengthAdjust="spacing" textLength="17" x="544" y="505.0537">ref</text><text fill="#000000" font-family="sans-serif" font-size="12" lengthAdjust="spacing" textLength="114" x="568" y="524.9746">Get GreenSpace List</text><text fill="#000000" font-family="sans-serif" font-size="12" lengthAdjust="spacing" textLength="3" x="623.5" y="540.9355">&#160;</text><polygon fill="#181818" points="784,572.5293,794,576.5293,784,580.5293,788,576.5293" style="stroke:#181818;stroke-width:1.0;"/><line style="stroke:#181818;stroke-width:1.0;" x1="630" x2="790" y1="576.5293" y2="576.5293"/><text fill="#000000" font-family="sans-serif" font-size="13" font-weight="bold" lengthAdjust="spacing" textLength="14" x="637" y="571.2666">10</text><text fill="#000000" font-family="sans-serif" font-size="13" lengthAdjust="spacing" textLength="129" x="655" y="571.2666">toDto(greenSpaceList)</text><rect fill="none" height="59.2129" style="stroke:#000000;stroke-width:1.5;" width="187" x="727" y="584.5293"/><path d="M727,584.5293 L789,584.5293 L789,593.5293 L779,603.5293 L727,603.5293 L727,584.5293 " fill="#EEEEEE" style="stroke:#000000;stroke-width:2.0;"/><text fill="#000000" font-family="sans-serif" font-size="13" font-weight="bold" lengthAdjust="spacing" textLength="17" x="740" y="600.5576">ref</text><text fill="#000000" font-family="sans-serif" font-size="12" lengthAdjust="spacing" textLength="179" x="731" y="620.4785">Create a copy of GreenSpace list</text><text fill="#000000" font-family="sans-serif" font-size="12" lengthAdjust="spacing" textLength="3" x="819" y="636.4395">&#160;</text><polygon fill="#181818" points="641,668.0332,631,672.0332,641,676.0332,637,672.0332" style="stroke:#181818;stroke-width:1.0;"/><line style="stroke:#181818;stroke-width:1.0;stroke-dasharray:2.0,2.0;" x1="635" x2="800" y1="672.0332" y2="672.0332"/><text fill="#000000" font-family="sans-serif" font-size="13" font-weight="bold" lengthAdjust="spacing" textLength="14" x="647" y="666.7705">11</text><text fill="#000000" font-family="sans-serif" font-size="13" lengthAdjust="spacing" textLength="110" x="665" y="666.7705">greenSpaceListDto</text><polygon fill="#181818" points="400,699.3242,390,703.3242,400,707.3242,396,703.3242" style="stroke:#181818;stroke-width:1.0;"/><line style="stroke:#181818;stroke-width:1.0;stroke-dasharray:2.0,2.0;" x1="394" x2="624" y1="703.3242" y2="703.3242"/><text fill="#000000" font-family="sans-serif" font-size="13" font-weight="bold" lengthAdjust="spacing" textLength="14" x="406" y="698.0615">12</text><text fill="#000000" font-family="sans-serif" font-size="13" lengthAdjust="spacing" textLength="110" x="424" y="698.0615">greenSpaceListDto</text><polygon fill="#181818" points="69,730.6152,59,734.6152,69,738.6152,65,734.6152" style="stroke:#181818;stroke-width:1.0;"/><line style="stroke:#181818;stroke-width:1.0;stroke-dasharray:2.0,2.0;" x1="63" x2="383" y1="734.6152" y2="734.6152"/><text fill="#000000" font-family="sans-serif" font-size="13" font-weight="bold" lengthAdjust="spacing" textLength="14" x="75" y="729.3525">13</text><text fill="#000000" font-family="sans-serif" font-size="13" lengthAdjust="spacing" textLength="80" x="93" y="729.3525">shows the list</text><!--SRC=[bLN1RgD03BtFLrYvR5AfFv13B-cggjHSclJMYmC6He4ncXcQpT_N38J05cWoXmZ2i_sU_Gpkg4s95Wies72KMIu8lAr8kUv9YT4HKzhvSqvWAV9eqhmFS1d6VD8cXGHpHqfXvTbKnO6iKdyo7HCapFx0_nH6dYqiNYoH-JGxIKsmHIFfxQTPlkosgmMW0xbGajlhI9TeF2pMRzhv41LYFbu3xEDr5hLXuotdETc0tkpVtzGmu8hTObcskEPIrLpr5teAR1IqHsxWyKbAmrh0HmUU8PUoW7aEFXDqbzD14QJ5S3X3fejhaYwrAEZ-l1n9BGLgjWyFKYIo9CWvc81IyXjHYWUsA1tUProbsTy2TRwa-dVrCtx08_G69ewb1FYBx3mgD8TyQD1UZ2G4831Gao5auibdGTXZs-cqDwTWbj6mcARrrDsIP3MvoznaLfKJLJB0A6Ds10YEnHrYP2wzPgD6ClSdrlT2ay9Dv_XrvaDwYUn9n2RHji1RkFpWqyJMEj63Q3s9uuDR6qC5_RLnnmcgEQjTBLult7AbxlFKdNxgYa5TRTnDKqvgNFJKxhImz_piUPaE1ApcTwDz7ypnx1JTWEseDMD0cLHv1axwGlD9eRUiJdrQmMAgozW6agK9lwtGvJKuiPHZ6TNzsxYMhmUVtD2D_rcyTnjUnTy0]--></g></svg>