<?xml version="1.0" encoding="us-ascii" standalone="no"?><svg xmlns="http://www.w3.org/2000/svg" xmlns:xlink="http://www.w3.org/1999/xlink" contentStyleType="text/css" height="548px" preserveAspectRatio="none" style="width:1667px;height:548px;background:#FFFFFF;" version="1.1" viewBox="0 0 1667 548" width="1667px" zoomAndPan="magnify"><defs/><g><!--cluster UI--><g id="cluster_UI"><path d="M8.5,168.7627 L23.5,168.7627 A3.75,3.75 0 0 1 26,171.2627 L33,193.3838 L181.5,193.3838 A2.5,2.5 0 0 1 184,195.8838 L184,288.2627 A2.5,2.5 0 0 1 181.5,290.7627 L8.5,290.7627 A2.5,2.5 0 0 1 6,288.2627 L6,171.2627 A2.5,2.5 0 0 1 8.5,168.7627 " fill="none" style="stroke:#000000;stroke-width:1.5;"/><line style="stroke:#000000;stroke-width:1.5;" x1="6" x2="33" y1="193.3838" y2="193.3838"/><text fill="#000000" font-family="sans-serif" font-size="14" font-weight="bold" lengthAdjust="spacing" textLength="14" x="10" y="185.8701">UI</text></g><!--cluster Controller--><g id="cluster_Controller"><path d="M210.5,140.7627 L282.5,140.7627 A3.75,3.75 0 0 1 285,143.2627 L292,165.3838 L471.5,165.3838 A2.5,2.5 0 0 1 474,167.8838 L474,316.2627 A2.5,2.5 0 0 1 471.5,318.7627 L210.5,318.7627 A2.5,2.5 0 0 1 208,316.2627 L208,143.2627 A2.5,2.5 0 0 1 210.5,140.7627 " fill="none" style="stroke:#000000;stroke-width:1.5;"/><line style="stroke:#000000;stroke-width:1.5;" x1="208" x2="292" y1="165.3838" y2="165.3838"/><text fill="#000000" font-family="sans-serif" font-size="14" font-weight="bold" lengthAdjust="spacing" textLength="71" x="212" y="157.8701">Controller</text></g><!--cluster Domain--><g id="cluster_Domain"><path d="M500.5,41.7627 L553.5,41.7627 A3.75,3.75 0 0 1 556,44.2627 L563,66.3838 L1657.5,66.3838 A2.5,2.5 0 0 1 1660,68.8838 L1660,539.2627 A2.5,2.5 0 0 1 1657.5,541.7627 L500.5,541.7627 A2.5,2.5 0 0 1 498,539.2627 L498,44.2627 A2.5,2.5 0 0 1 500.5,41.7627 " fill="none" style="stroke:#000000;stroke-width:1.5;"/><line style="stroke:#000000;stroke-width:1.5;" x1="498" x2="563" y1="66.3838" y2="66.3838"/><text fill="#000000" font-family="sans-serif" font-size="14" font-weight="bold" lengthAdjust="spacing" textLength="52" x="502" y="58.8701">Domain</text></g><!--cluster Mapper--><g id="cluster_Mapper"><path d="M1037.5,86.7627 L1092.5,86.7627 A3.75,3.75 0 0 1 1095,89.2627 L1102,111.3838 L1633.5,111.3838 A2.5,2.5 0 0 1 1636,113.8838 L1636,349.2627 A2.5,2.5 0 0 1 1633.5,351.7627 L1037.5,351.7627 A2.5,2.5 0 0 1 1035,349.2627 L1035,89.2627 A2.5,2.5 0 0 1 1037.5,86.7627 " fill="none" style="stroke:#000000;stroke-width:1.5;"/><line style="stroke:#000000;stroke-width:1.5;" x1="1035" x2="1102" y1="111.3838" y2="111.3838"/><text fill="#000000" font-family="sans-serif" font-size="14" font-weight="bold" lengthAdjust="spacing" textLength="54" x="1039" y="103.8701">Mapper</text></g><!--cluster Dto--><g id="cluster_Dto"><path d="M1376.5,131.7627 L1401.5,131.7627 A3.75,3.75 0 0 1 1404,134.2627 L1411,156.3838 L1609.5,156.3838 A2.5,2.5 0 0 1 1612,158.8838 L1612,325.2627 A2.5,2.5 0 0 1 1609.5,327.7627 L1376.5,327.7627 A2.5,2.5 0 0 1 1374,325.2627 L1374,134.2627 A2.5,2.5 0 0 1 1376.5,131.7627 " fill="none" style="stroke:#000000;stroke-width:1.5;"/><line style="stroke:#000000;stroke-width:1.5;" x1="1374" x2="1411" y1="156.3838" y2="156.3838"/><text fill="#000000" font-family="sans-serif" font-size="14" font-weight="bold" lengthAdjust="spacing" textLength="24" x="1378" y="148.8701">Dto</text></g><!--cluster Reository--><g id="cluster_Reository"><path d="M524.5,140.7627 L592.5,140.7627 A3.75,3.75 0 0 1 595,143.2627 L602,165.3838 L1008.5,165.3838 A2.5,2.5 0 0 1 1011,167.8838 L1011,515.2627 A2.5,2.5 0 0 1 1008.5,517.7627 L524.5,517.7627 A2.5,2.5 0 0 1 522,515.2627 L522,143.2627 A2.5,2.5 0 0 1 524.5,140.7627 " fill="none" style="stroke:#000000;stroke-width:1.5;"/><line style="stroke:#000000;stroke-width:1.5;" x1="522" x2="602" y1="165.3838" y2="165.3838"/><text fill="#000000" font-family="sans-serif" font-size="14" font-weight="bold" lengthAdjust="spacing" textLength="67" x="526" y="157.8701">Reository</text></g><!--class ListGreenSpaceUI--><g id="elem_ListGreenSpaceUI"><rect codeLine="12" fill="#F1F1F1" height="48" id="ListGreenSpaceUI" rx="2.5" ry="2.5" style="stroke:#181818;stroke-width:0.5;" width="146" x="22" y="226.7627"/><ellipse cx="37" cy="242.7627" fill="#ADD1B2" rx="11" ry="11" style="stroke:#181818;stroke-width:1.0;"/><path d="M39.7656,238.6377 Q39.9219,238.4189 40.1094,238.3096 Q40.2969,238.2002 40.5156,238.2002 Q40.8906,238.2002 41.125,238.4658 Q41.3594,238.7158 41.3594,239.3252 L41.3594,240.7783 Q41.3594,241.3877 41.125,241.6533 Q40.8906,241.9189 40.5156,241.9189 Q40.1719,241.9189 39.9688,241.7158 Q39.7656,241.5283 39.6563,241.0127 Q39.6094,240.6533 39.4219,240.4658 Q39.0938,240.0908 38.4844,239.8721 Q37.875,239.6533 37.25,239.6533 Q36.4844,239.6533 35.8438,239.9814 Q35.2188,240.3096 34.7188,241.0596 Q34.2344,241.8096 34.2344,242.8408 L34.2344,243.9346 Q34.2344,245.1689 35.125,245.9971 Q36.0156,246.8096 37.6094,246.8096 Q38.5469,246.8096 39.2031,246.5596 Q39.5938,246.4033 40.0156,245.9658 Q40.2813,245.7002 40.4219,245.6221 Q40.5781,245.5439 40.7813,245.5439 Q41.1094,245.5439 41.3594,245.8096 Q41.625,246.0596 41.625,246.4033 Q41.625,246.7471 41.2813,247.1533 Q40.7813,247.7314 39.9844,248.0596 Q38.9063,248.5127 37.6094,248.5127 Q36.0938,248.5127 34.8906,247.8877 Q33.9063,247.3877 33.2188,246.3252 Q32.5313,245.2471 32.5313,243.9658 L32.5313,242.8096 Q32.5313,241.4814 33.1406,240.3408 Q33.7656,239.1846 34.8594,238.5752 Q35.9531,237.9502 37.1875,237.9502 Q37.9219,237.9502 38.5625,238.1221 Q39.2188,238.2783 39.7656,238.6377 Z " fill="#000000"/><text fill="#000000" font-family="sans-serif" font-size="14" lengthAdjust="spacing" textLength="114" x="51" y="248.5596">ListGreenSpaceUI</text><line style="stroke:#181818;stroke-width:0.5;" x1="23" x2="167" y1="258.7627" y2="258.7627"/><line style="stroke:#181818;stroke-width:0.5;" x1="23" x2="167" y1="266.7627" y2="266.7627"/></g><!--class ListGreenSpaceController--><g id="elem_ListGreenSpaceController"><rect codeLine="17" fill="#F1F1F1" height="103.8633" id="ListGreenSpaceController" rx="2.5" ry="2.5" style="stroke:#181818;stroke-width:0.5;" width="234" x="224" y="198.7627"/><ellipse cx="256.1" cy="214.7627" fill="#ADD1B2" rx="11" ry="11" style="stroke:#181818;stroke-width:1.0;"/><path d="M258.8656,210.6377 Q259.0219,210.4189 259.2094,210.3096 Q259.3969,210.2002 259.6156,210.2002 Q259.9906,210.2002 260.225,210.4658 Q260.4594,210.7158 260.4594,211.3252 L260.4594,212.7783 Q260.4594,213.3877 260.225,213.6533 Q259.9906,213.9189 259.6156,213.9189 Q259.2719,213.9189 259.0688,213.7158 Q258.8656,213.5283 258.7563,213.0127 Q258.7094,212.6533 258.5219,212.4658 Q258.1938,212.0908 257.5844,211.8721 Q256.975,211.6533 256.35,211.6533 Q255.5844,211.6533 254.9438,211.9814 Q254.3188,212.3096 253.8188,213.0596 Q253.3344,213.8096 253.3344,214.8408 L253.3344,215.9346 Q253.3344,217.1689 254.225,217.9971 Q255.1156,218.8096 256.7094,218.8096 Q257.6469,218.8096 258.3031,218.5596 Q258.6938,218.4033 259.1156,217.9658 Q259.3813,217.7002 259.5219,217.6221 Q259.6781,217.5439 259.8813,217.5439 Q260.2094,217.5439 260.4594,217.8096 Q260.725,218.0596 260.725,218.4033 Q260.725,218.7471 260.3813,219.1533 Q259.8813,219.7314 259.0844,220.0596 Q258.0063,220.5127 256.7094,220.5127 Q255.1938,220.5127 253.9906,219.8877 Q253.0063,219.3877 252.3188,218.3252 Q251.6313,217.2471 251.6313,215.9658 L251.6313,214.8096 Q251.6313,213.4814 252.2406,212.3408 Q252.8656,211.1846 253.9594,210.5752 Q255.0531,209.9502 256.2875,209.9502 Q257.0219,209.9502 257.6625,210.1221 Q258.3188,210.2783 258.8656,210.6377 Z " fill="#000000"/><text fill="#000000" font-family="sans-serif" font-size="14" lengthAdjust="spacing" textLength="164" x="273.9" y="220.5596">ListGreenSpaceController</text><line style="stroke:#181818;stroke-width:0.5;" x1="225" x2="457" y1="230.7627" y2="230.7627"/><line style="stroke:#181818;stroke-width:0.5;" x1="225" x2="457" y1="238.7627" y2="238.7627"/><text fill="#000000" font-family="sans-serif" font-size="14" lengthAdjust="spacing" textLength="140" x="230" y="257.8701">+getGreenSpaceList()</text><text fill="#000000" font-family="sans-serif" font-size="14" lengthAdjust="spacing" textLength="222" x="230" y="276.4912">+createListGreenSpaceController()</text><text fill="#000000" font-family="sans-serif" font-size="14" lengthAdjust="spacing" textLength="151" x="230" y="295.1123">+toDto(greenSpaceList)</text></g><!--class GreenSpaceMapper--><g id="elem_GreenSpaceMapper"><rect codeLine="25" fill="#F1F1F1" height="103.8633" id="GreenSpaceMapper" rx="2.5" ry="2.5" style="stroke:#181818;stroke-width:0.5;" width="233" x="1051.5" y="198.7627"/><ellipse cx="1099.75" cy="214.7627" fill="#ADD1B2" rx="11" ry="11" style="stroke:#181818;stroke-width:1.0;"/><path d="M1102.5156,210.6377 Q1102.6719,210.4189 1102.8594,210.3096 Q1103.0469,210.2002 1103.2656,210.2002 Q1103.6406,210.2002 1103.875,210.4658 Q1104.1094,210.7158 1104.1094,211.3252 L1104.1094,212.7783 Q1104.1094,213.3877 1103.875,213.6533 Q1103.6406,213.9189 1103.2656,213.9189 Q1102.9219,213.9189 1102.7188,213.7158 Q1102.5156,213.5283 1102.4063,213.0127 Q1102.3594,212.6533 1102.1719,212.4658 Q1101.8438,212.0908 1101.2344,211.8721 Q1100.625,211.6533 1100,211.6533 Q1099.2344,211.6533 1098.5938,211.9814 Q1097.9688,212.3096 1097.4688,213.0596 Q1096.9844,213.8096 1096.9844,214.8408 L1096.9844,215.9346 Q1096.9844,217.1689 1097.875,217.9971 Q1098.7656,218.8096 1100.3594,218.8096 Q1101.2969,218.8096 1101.9531,218.5596 Q1102.3438,218.4033 1102.7656,217.9658 Q1103.0313,217.7002 1103.1719,217.6221 Q1103.3281,217.5439 1103.5313,217.5439 Q1103.8594,217.5439 1104.1094,217.8096 Q1104.375,218.0596 1104.375,218.4033 Q1104.375,218.7471 1104.0313,219.1533 Q1103.5313,219.7314 1102.7344,220.0596 Q1101.6563,220.5127 1100.3594,220.5127 Q1098.8438,220.5127 1097.6406,219.8877 Q1096.6563,219.3877 1095.9688,218.3252 Q1095.2813,217.2471 1095.2813,215.9658 L1095.2813,214.8096 Q1095.2813,213.4814 1095.8906,212.3408 Q1096.5156,211.1846 1097.6094,210.5752 Q1098.7031,209.9502 1099.9375,209.9502 Q1100.6719,209.9502 1101.3125,210.1221 Q1101.9688,210.2783 1102.5156,210.6377 Z " fill="#000000"/><text fill="#000000" font-family="sans-serif" font-size="14" lengthAdjust="spacing" textLength="128" x="1120.25" y="220.5596">GreenSpaceMapper</text><line style="stroke:#181818;stroke-width:0.5;" x1="1052.5" x2="1283.5" y1="230.7627" y2="230.7627"/><text fill="#000000" font-family="sans-serif" font-size="14" lengthAdjust="spacing" textLength="126" x="1057.5" y="249.8701">-greenSpaceListDto</text><line style="stroke:#181818;stroke-width:0.5;" x1="1052.5" x2="1283.5" y1="257.3838" y2="257.3838"/><text fill="#000000" font-family="sans-serif" font-size="14" lengthAdjust="spacing" textLength="151" x="1057.5" y="276.4912">+toDto(greenSpaceList)</text><text fill="#000000" font-family="sans-serif" font-size="14" lengthAdjust="spacing" textLength="221" x="1057.5" y="295.1123">+addGreenSpace(greenSpaceDto)</text></g><!--class GreenSpaceDto--><g id="elem_GreenSpaceDto"><rect codeLine="31" fill="#F1F1F1" height="122.4844" id="GreenSpaceDto" rx="2.5" ry="2.5" style="stroke:#181818;stroke-width:0.5;" width="206" x="1390" y="189.7627"/><ellipse cx="1437.75" cy="205.7627" fill="#ADD1B2" rx="11" ry="11" style="stroke:#181818;stroke-width:1.0;"/><path d="M1440.5156,201.6377 Q1440.6719,201.4189 1440.8594,201.3096 Q1441.0469,201.2002 1441.2656,201.2002 Q1441.6406,201.2002 1441.875,201.4658 Q1442.1094,201.7158 1442.1094,202.3252 L1442.1094,203.7783 Q1442.1094,204.3877 1441.875,204.6533 Q1441.6406,204.9189 1441.2656,204.9189 Q1440.9219,204.9189 1440.7188,204.7158 Q1440.5156,204.5283 1440.4063,204.0127 Q1440.3594,203.6533 1440.1719,203.4658 Q1439.8438,203.0908 1439.2344,202.8721 Q1438.625,202.6533 1438,202.6533 Q1437.2344,202.6533 1436.5938,202.9814 Q1435.9688,203.3096 1435.4688,204.0596 Q1434.9844,204.8096 1434.9844,205.8408 L1434.9844,206.9346 Q1434.9844,208.1689 1435.875,208.9971 Q1436.7656,209.8096 1438.3594,209.8096 Q1439.2969,209.8096 1439.9531,209.5596 Q1440.3438,209.4033 1440.7656,208.9658 Q1441.0313,208.7002 1441.1719,208.6221 Q1441.3281,208.5439 1441.5313,208.5439 Q1441.8594,208.5439 1442.1094,208.8096 Q1442.375,209.0596 1442.375,209.4033 Q1442.375,209.7471 1442.0313,210.1533 Q1441.5313,210.7314 1440.7344,211.0596 Q1439.6563,211.5127 1438.3594,211.5127 Q1436.8438,211.5127 1435.6406,210.8877 Q1434.6563,210.3877 1433.9688,209.3252 Q1433.2813,208.2471 1433.2813,206.9658 L1433.2813,205.8096 Q1433.2813,204.4814 1433.8906,203.3408 Q1434.5156,202.1846 1435.6094,201.5752 Q1436.7031,200.9502 1437.9375,200.9502 Q1438.6719,200.9502 1439.3125,201.1221 Q1439.9688,201.2783 1440.5156,201.6377 Z " fill="#000000"/><text fill="#000000" font-family="sans-serif" font-size="14" lengthAdjust="spacing" textLength="102" x="1458.25" y="211.5596">GreenSpaceDto</text><line style="stroke:#181818;stroke-width:0.5;" x1="1391" x2="1595" y1="221.7627" y2="221.7627"/><text fill="#000000" font-family="sans-serif" font-size="14" lengthAdjust="spacing" textLength="40" x="1396" y="240.8701">-name</text><text fill="#000000" font-family="sans-serif" font-size="14" lengthAdjust="spacing" textLength="69" x="1396" y="259.4912">-dimension</text><text fill="#000000" font-family="sans-serif" font-size="14" lengthAdjust="spacing" textLength="56" x="1396" y="278.1123">-address</text><line style="stroke:#181818;stroke-width:0.5;" x1="1391" x2="1595" y1="285.626" y2="285.626"/><text fill="#000000" font-family="sans-serif" font-size="14" lengthAdjust="spacing" textLength="194" x="1396" y="304.7334">+greenSpaceDto(greenSpace)</text></g><!--class GreenSpaceRepository--><g id="elem_GreenSpaceRepository"><rect codeLine="40" fill="#F1F1F1" height="85.2422" id="GreenSpaceRepository" rx="2.5" ry="2.5" style="stroke:#181818;stroke-width:0.5;" width="180" x="538" y="416.7627"/><ellipse cx="553" cy="432.7627" fill="#ADD1B2" rx="11" ry="11" style="stroke:#181818;stroke-width:1.0;"/><path d="M555.7656,428.6377 Q555.9219,428.4189 556.1094,428.3096 Q556.2969,428.2002 556.5156,428.2002 Q556.8906,428.2002 557.125,428.4658 Q557.3594,428.7158 557.3594,429.3252 L557.3594,430.7783 Q557.3594,431.3877 557.125,431.6533 Q556.8906,431.9189 556.5156,431.9189 Q556.1719,431.9189 555.9688,431.7158 Q555.7656,431.5283 555.6563,431.0127 Q555.6094,430.6533 555.4219,430.4658 Q555.0938,430.0908 554.4844,429.8721 Q553.875,429.6533 553.25,429.6533 Q552.4844,429.6533 551.8438,429.9814 Q551.2188,430.3096 550.7188,431.0596 Q550.2344,431.8096 550.2344,432.8408 L550.2344,433.9346 Q550.2344,435.1689 551.125,435.9971 Q552.0156,436.8096 553.6094,436.8096 Q554.5469,436.8096 555.2031,436.5596 Q555.5938,436.4033 556.0156,435.9658 Q556.2813,435.7002 556.4219,435.6221 Q556.5781,435.5439 556.7813,435.5439 Q557.1094,435.5439 557.3594,435.8096 Q557.625,436.0596 557.625,436.4033 Q557.625,436.7471 557.2813,437.1533 Q556.7813,437.7314 555.9844,438.0596 Q554.9063,438.5127 553.6094,438.5127 Q552.0938,438.5127 550.8906,437.8877 Q549.9063,437.3877 549.2188,436.3252 Q548.5313,435.2471 548.5313,433.9658 L548.5313,432.8096 Q548.5313,431.4814 549.1406,430.3408 Q549.7656,429.1846 550.8594,428.5752 Q551.9531,427.9502 553.1875,427.9502 Q553.9219,427.9502 554.5625,428.1221 Q555.2188,428.2783 555.7656,428.6377 Z " fill="#000000"/><text fill="#000000" font-family="sans-serif" font-size="14" lengthAdjust="spacing" textLength="148" x="567" y="438.5596">GreenSpaceRepository</text><line style="stroke:#181818;stroke-width:0.5;" x1="539" x2="717" y1="448.7627" y2="448.7627"/><text fill="#000000" font-family="sans-serif" font-size="14" lengthAdjust="spacing" textLength="104" x="544" y="467.8701">-greenSpaceList</text><line style="stroke:#181818;stroke-width:0.5;" x1="539" x2="717" y1="475.3838" y2="475.3838"/><text fill="#000000" font-family="sans-serif" font-size="14" lengthAdjust="spacing" textLength="140" x="544" y="494.4912">+getGreenSpaceList()</text></g><!--class CollaboratorRepository--><g id="elem_CollaboratorRepository"><rect codeLine="44" fill="#F1F1F1" height="85.2422" id="CollaboratorRepository" rx="2.5" ry="2.5" style="stroke:#181818;stroke-width:0.5;" width="241" x="753.5" y="416.7627"/><ellipse cx="796.85" cy="432.7627" fill="#ADD1B2" rx="11" ry="11" style="stroke:#181818;stroke-width:1.0;"/><path d="M799.6156,428.6377 Q799.7719,428.4189 799.9594,428.3096 Q800.1469,428.2002 800.3656,428.2002 Q800.7406,428.2002 800.975,428.4658 Q801.2094,428.7158 801.2094,429.3252 L801.2094,430.7783 Q801.2094,431.3877 800.975,431.6533 Q800.7406,431.9189 800.3656,431.9189 Q800.0219,431.9189 799.8188,431.7158 Q799.6156,431.5283 799.5063,431.0127 Q799.4594,430.6533 799.2719,430.4658 Q798.9438,430.0908 798.3344,429.8721 Q797.725,429.6533 797.1,429.6533 Q796.3344,429.6533 795.6938,429.9814 Q795.0688,430.3096 794.5688,431.0596 Q794.0844,431.8096 794.0844,432.8408 L794.0844,433.9346 Q794.0844,435.1689 794.975,435.9971 Q795.8656,436.8096 797.4594,436.8096 Q798.3969,436.8096 799.0531,436.5596 Q799.4438,436.4033 799.8656,435.9658 Q800.1313,435.7002 800.2719,435.6221 Q800.4281,435.5439 800.6313,435.5439 Q800.9594,435.5439 801.2094,435.8096 Q801.475,436.0596 801.475,436.4033 Q801.475,436.7471 801.1313,437.1533 Q800.6313,437.7314 799.8344,438.0596 Q798.7563,438.5127 797.4594,438.5127 Q795.9438,438.5127 794.7406,437.8877 Q793.7563,437.3877 793.0688,436.3252 Q792.3813,435.2471 792.3813,433.9658 L792.3813,432.8096 Q792.3813,431.4814 792.9906,430.3408 Q793.6156,429.1846 794.7094,428.5752 Q795.8031,427.9502 797.0375,427.9502 Q797.7719,427.9502 798.4125,428.1221 Q799.0688,428.2783 799.6156,428.6377 Z " fill="#000000"/><text fill="#000000" font-family="sans-serif" font-size="14" lengthAdjust="spacing" textLength="146" x="817.15" y="438.5596">CollaboratorRepository</text><line style="stroke:#181818;stroke-width:0.5;" x1="754.5" x2="993.5" y1="448.7627" y2="448.7627"/><text fill="#000000" font-family="sans-serif" font-size="14" lengthAdjust="spacing" textLength="102" x="759.5" y="467.8701">-collaboratorList</text><line style="stroke:#181818;stroke-width:0.5;" x1="754.5" x2="993.5" y1="475.3838" y2="475.3838"/><text fill="#000000" font-family="sans-serif" font-size="14" lengthAdjust="spacing" textLength="229" x="759.5" y="494.4912">+getCollaboratorTroughEmail(email)</text></g><!--class Repositories--><g id="elem_Repositories"><rect codeLine="49" fill="#F1F1F1" height="103.8633" id="Repositories" rx="2.5" ry="2.5" style="stroke:#181818;stroke-width:0.5;" width="285" x="561.5" y="198.7627"/><ellipse cx="660.25" cy="214.7627" fill="#ADD1B2" rx="11" ry="11" style="stroke:#181818;stroke-width:1.0;"/><path d="M663.0156,210.6377 Q663.1719,210.4189 663.3594,210.3096 Q663.5469,210.2002 663.7656,210.2002 Q664.1406,210.2002 664.375,210.4658 Q664.6094,210.7158 664.6094,211.3252 L664.6094,212.7783 Q664.6094,213.3877 664.375,213.6533 Q664.1406,213.9189 663.7656,213.9189 Q663.4219,213.9189 663.2188,213.7158 Q663.0156,213.5283 662.9063,213.0127 Q662.8594,212.6533 662.6719,212.4658 Q662.3438,212.0908 661.7344,211.8721 Q661.125,211.6533 660.5,211.6533 Q659.7344,211.6533 659.0938,211.9814 Q658.4688,212.3096 657.9688,213.0596 Q657.4844,213.8096 657.4844,214.8408 L657.4844,215.9346 Q657.4844,217.1689 658.375,217.9971 Q659.2656,218.8096 660.8594,218.8096 Q661.7969,218.8096 662.4531,218.5596 Q662.8438,218.4033 663.2656,217.9658 Q663.5313,217.7002 663.6719,217.6221 Q663.8281,217.5439 664.0313,217.5439 Q664.3594,217.5439 664.6094,217.8096 Q664.875,218.0596 664.875,218.4033 Q664.875,218.7471 664.5313,219.1533 Q664.0313,219.7314 663.2344,220.0596 Q662.1563,220.5127 660.8594,220.5127 Q659.3438,220.5127 658.1406,219.8877 Q657.1563,219.3877 656.4688,218.3252 Q655.7813,217.2471 655.7813,215.9658 L655.7813,214.8096 Q655.7813,213.4814 656.3906,212.3408 Q657.0156,211.1846 658.1094,210.5752 Q659.2031,209.9502 660.4375,209.9502 Q661.1719,209.9502 661.8125,210.1221 Q662.4688,210.2783 663.0156,210.6377 Z " fill="#000000"/><text fill="#000000" font-family="sans-serif" font-size="14" lengthAdjust="spacing" textLength="79" x="680.75" y="220.5596">Repositories</text><line style="stroke:#181818;stroke-width:0.5;" x1="562.5" x2="845.5" y1="230.7627" y2="230.7627"/><line style="stroke:#181818;stroke-width:0.5;" x1="562.5" x2="845.5" y1="238.7627" y2="238.7627"/><text fill="#000000" font-family="sans-serif" font-size="14" lengthAdjust="spacing" textLength="94" x="567.5" y="257.8701">-Repositories()</text><text fill="#000000" font-family="sans-serif" font-size="14" lengthAdjust="spacing" textLength="273" x="567.5" y="276.4912">+getGreenSpaceRepository(): Repositories</text><text fill="#000000" font-family="sans-serif" font-size="14" lengthAdjust="spacing" textLength="178" x="567.5" y="295.1123">+getInstance(): Repositories</text></g><!--link ListGreenSpaceUI to ListGreenSpaceController--><g id="link_ListGreenSpaceUI_ListGreenSpaceController"><path codeLine="56" d="M168.22,250.7627 C173.62,250.7627 177,250.7627 177,250.7627 C177,250.7627 195.52,250.7627 217.75,250.7627 " fill="none" id="ListGreenSpaceUI-to-ListGreenSpaceController" style="stroke:#181818;stroke-width:1.0;stroke-dasharray:7.0,7.0;"/><polygon fill="#181818" points="223.75,250.7627,214.75,246.7627,218.75,250.7627,214.75,254.7627,223.75,250.7627" style="stroke:#181818;stroke-width:1.0;"/></g><!--link ListGreenSpaceController to Repositories--><g id="link_ListGreenSpaceController_Repositories"><path codeLine="57" d="M458.1,250.7627 C491.05,250.7627 521.25,250.7627 555.5,250.7627 " fill="none" id="ListGreenSpaceController-to-Repositories" style="stroke:#181818;stroke-width:1.0;stroke-dasharray:7.0,7.0;"/><polygon fill="#181818" points="561.5,250.7627,552.5,246.7627,556.5,250.7627,552.5,254.7627,561.5,250.7627" style="stroke:#181818;stroke-width:1.0;"/><text fill="#000000" font-family="sans-serif" font-size="13" lengthAdjust="spacing" textLength="67" x="476.25" y="243.791">repositories</text></g><!--link Repositories to Repositories--><g id="link_Repositories_Repositories"><path codeLine="58" d="M846.76,229.4427 C867.52,232.8327 881.5,239.9327 881.5,250.7627 C881.5,261.5927 873.4416,267.7257 852.6816,271.1157 " fill="none" id="Repositories-to-Repositories" style="stroke:#181818;stroke-width:1.0;"/><polygon fill="#181818" points="846.76,272.0827,856.287,274.58,851.6946,271.2769,854.9977,266.6845,846.76,272.0827" style="stroke:#181818;stroke-width:1.0;"/><text fill="#000000" font-family="sans-serif" font-size="13" lengthAdjust="spacing" textLength="49" x="887.5" y="256.291">instance</text></g><!--link ListGreenSpaceController to GreenSpaceRepository--><g id="link_ListGreenSpaceController_GreenSpaceRepository"><path codeLine="59" d="M343.27,302.8027 C344.97,341.0327 347,386.7627 347,386.7627 C347,386.7627 449.9252,412.9534 532.1152,433.8634 " fill="none" id="ListGreenSpaceController-to-GreenSpaceRepository" style="stroke:#181818;stroke-width:1.0;stroke-dasharray:7.0,7.0;"/><polygon fill="#181818" points="537.93,435.3427,530.1941,429.2472,533.0844,434.1099,528.2216,437.0002,537.93,435.3427" style="stroke:#181818;stroke-width:1.0;"/><text fill="#000000" font-family="sans-serif" font-size="13" lengthAdjust="spacing" textLength="131" x="348" y="382.791">greenSpaceRepository</text></g><!--link Repositories to GreenSpaceRepository--><g id="link_Repositories_GreenSpaceRepository"><path codeLine="60" d="M685.85,302.8027 C672.26,341.0327 656,386.7627 656,386.7627 C656,386.7627 652.6379,395.3558 646.4779,411.0858 " fill="none" id="Repositories-to-GreenSpaceRepository" style="stroke:#181818;stroke-width:1.0;"/><polygon fill="#181818" points="644.29,416.6727,651.2964,409.751,646.1132,412.017,643.8472,406.8338,644.29,416.6727" style="stroke:#181818;stroke-width:1.0;"/><text fill="#000000" font-family="sans-serif" font-size="13" lengthAdjust="spacing" textLength="7" x="676.0761" y="324.6151">1</text><text fill="#000000" font-family="sans-serif" font-size="13" lengthAdjust="spacing" textLength="7" x="639.3284" y="405.5624">1</text></g><!--link ListGreenSpaceController to GreenSpaceMapper--><g id="link_ListGreenSpaceController_GreenSpaceMapper"><path codeLine="61" d="M391.42,198.6727 C444.98,143.3427 522,63.7627 522,63.7627 C522,63.7627 1011,63.7627 1011,63.7627 C1011,63.7627 1073.9517,138.7478 1120.4117,194.0778 " fill="none" id="ListGreenSpaceController-to-GreenSpaceMapper" style="stroke:#181818;stroke-width:1.0;"/><polygon fill="#181818" points="1124.27,198.6727,1121.5458,189.2081,1121.0547,194.8436,1115.4192,194.3525,1124.27,198.6727" style="stroke:#181818;stroke-width:1.0;"/><text fill="#000000" font-family="sans-serif" font-size="13" lengthAdjust="spacing" textLength="90" x="710" y="21.791">greenSpaceList</text><text fill="#000000" font-family="sans-serif" font-size="13" lengthAdjust="spacing" textLength="7" x="390.7249" y="187.588">1</text><text fill="#000000" font-family="sans-serif" font-size="13" lengthAdjust="spacing" textLength="7" x="1110.9235" y="187.588">1</text></g><!--link GreenSpaceMapper to GreenSpaceDto--><g id="link_GreenSpaceMapper_GreenSpaceDto"><path codeLine="62" d="M1284.87,250.7627 C1319.18,250.7627 1350.43,250.7627 1383.82,250.7627 " fill="none" id="GreenSpaceMapper-to-GreenSpaceDto" style="stroke:#181818;stroke-width:1.0;"/><polygon fill="#181818" points="1389.82,250.7627,1380.82,246.7627,1384.82,250.7627,1380.82,254.7627,1389.82,250.7627" style="stroke:#181818;stroke-width:1.0;"/><text fill="#000000" font-family="sans-serif" font-size="13" lengthAdjust="spacing" textLength="69" x="1302.75" y="243.791">greenSpace</text><text fill="#000000" font-family="sans-serif" font-size="13" lengthAdjust="spacing" textLength="7" x="1292.5812" y="247.2602">1</text><text fill="#000000" font-family="sans-serif" font-size="13" lengthAdjust="spacing" textLength="7" x="1374.9857" y="247.1597">1</text></g><!--link Repositories to CollaboratorRepository--><g id="link_Repositories_CollaboratorRepository"><path codeLine="63" d="M746.02,302.8027 C774.83,337.8027 808.7664,379.0205 835.7864,411.8405 " fill="none" id="Repositories-to-CollaboratorRepository" style="stroke:#181818;stroke-width:1.0;"/><polygon fill="#181818" points="839.6,416.4727,836.9678,406.9821,836.422,412.6126,830.7916,412.0668,839.6,416.4727" style="stroke:#181818;stroke-width:1.0;"/><text fill="#000000" font-family="sans-serif" font-size="13" lengthAdjust="spacing" textLength="129" x="815" y="382.791">collaboratorRepository</text><text fill="#000000" font-family="sans-serif" font-size="13" lengthAdjust="spacing" textLength="7" x="743.9554" y="324.6151">1</text><text fill="#000000" font-family="sans-serif" font-size="13" lengthAdjust="spacing" textLength="7" x="826.7966" y="405.651">1</text></g><!--link ListGreenSpaceController to CollaboratorRepository--><g id="link_ListGreenSpaceController_CollaboratorRepository"><path codeLine="64" d="M426.73,302.9127 C473.51,330.8327 522,359.7627 522,359.7627 C522,359.7627 736,416.7627 736,416.7627 C736,416.7627 737.0942,417.0946 747.7342,420.2946 " fill="none" id="ListGreenSpaceController-to-CollaboratorRepository" style="stroke:#181818;stroke-width:1.0;stroke-dasharray:7.0,7.0;"/><polygon fill="#181818" points="753.48,422.0227,746.0134,415.6001,748.6919,420.5827,743.7093,423.2611,753.48,422.0227" style="stroke:#181818;stroke-width:1.0;"/><text fill="#000000" font-family="sans-serif" font-size="13" lengthAdjust="spacing" textLength="129" x="623" y="382.791">collaboratorRepository</text></g><!--SRC=[bLF1Rjim3BthAuXUac18iLrz632qQn5WkpJR1wWswmYLHODYC6H5_trIxCIIOmUT3TWM7zzxb4Wl_AjnhMRTG4EEoXrJWo2yHpKWhIvVTOrRELY41x8LSeBwdQxeZt4rl6ZhKvur3kNG8hHa3t6X5XCWiP1AMANLtdyJOVEy5zoKvBRcBy9dfHOMNmI4W4sz4wWCOoc6d59zXV1xywQEVFXXl3moeji636DSlOVxb7X7JfYiHPucf3Y4wnFKcC0nURdgaP9H2yxnpsb2zqBBEjDOPKNTKwEDUpklV-gs7GeSn4_ngBk6N35uNFNhC5rLWroI4nYhj22XI_TZiBDski7-ip8DEX-RqQs30wFtfyDBsObVj__n2Tm-8NaZn8TBzoTipzZK_gzqwxqNkmjzqS_4EgXSofK9cWkcl5zC-thtFLHhbnYVKRxNFsiQz45rdGNYE8pA6sfOheeikK_TE2_QXKQDuUxmngCEjrzdfrdD0P6KQaC1d5fbsFeYr_GbNjMVsdAHz6-8vdOtNsvW7JpZUqfZtlJ871ExtwSO3yuuOPeSvZTbpXSwFML5DbyVsK8uj_-J-WS0]--></g></svg>