<?xml version="1.0" encoding="us-ascii" standalone="no"?><svg xmlns="http://www.w3.org/2000/svg" xmlns:xlink="http://www.w3.org/1999/xlink" contentStyleType="text/css" height="617.4px" preserveAspectRatio="none" style="width:986px;height:617px;background:#FFFFFF;" version="1.1" viewBox="0 0 986 617" width="987px" zoomAndPan="magnify"><defs/><g><rect fill="#FFFFFF" height="429.4637" style="stroke:#181818;stroke-width:0.6999999999999998;" width="7" x="37.1" y="91.6043"/><rect fill="#FFFFFF" height="21.9037" style="stroke:#181818;stroke-width:0.6999999999999998;" width="7" x="225.4" y="107.908"/><rect fill="#FFFFFF" height="369.3525" style="stroke:#181818;stroke-width:0.6999999999999998;" width="7" x="225.4" y="151.7154"/><rect fill="#FFFFFF" height="295.0104" style="stroke:#181818;stroke-width:0.6999999999999998;" width="7" x="342.3" y="204.1539"/><rect fill="#FFFFFF" height="21.9037" style="stroke:#181818;stroke-width:0.6999999999999998;" width="7" x="446.95" y="226.0576"/><rect fill="#FFFFFF" height="21.9037" style="stroke:#181818;stroke-width:0.6999999999999998;" width="7" x="521.85" y="269.865"/><rect fill="#FFFFFF" height="21.9037" style="stroke:#181818;stroke-width:0.6999999999999998;" width="7" x="624.4" y="313.6725"/><rect fill="#FFFFFF" height="21.9037" style="stroke:#181818;stroke-width:0.6999999999999998;" width="7" x="624.4" y="313.6725"/><rect fill="#FFFFFF" height="119.7807" style="stroke:#181818;stroke-width:0.6999999999999998;" width="7" x="737.1" y="357.4799"/><rect fill="#FFFFFF" height="30.3037" style="stroke:#181818;stroke-width:0.6999999999999998;" width="7" x="740.6" y="446.9568"/><rect fill="none" height="88.077" style="stroke:#000000;stroke-width:1.0499999999999998;" width="300.3" x="682.5" y="367.9799"/><line style="stroke:#181818;stroke-width:0.3499999999999999;stroke-dasharray:5.0,5.0;" x1="40.6" x2="40.6" y1="84.6043" y2="533.668"/><line style="stroke:#181818;stroke-width:0.3499999999999999;stroke-dasharray:5.0,5.0;" x1="228.9" x2="228.9" y1="84.6043" y2="533.668"/><line style="stroke:#181818;stroke-width:0.3499999999999999;stroke-dasharray:5.0,5.0;" x1="345.8" x2="345.8" y1="179.5828" y2="533.668"/><line style="stroke:#181818;stroke-width:0.3499999999999999;stroke-dasharray:5.0,5.0;" x1="450.1" x2="450.1" y1="84.6043" y2="533.668"/><line style="stroke:#181818;stroke-width:0.3499999999999999;stroke-dasharray:5.0,5.0;" x1="525" x2="525" y1="84.6043" y2="533.668"/><line style="stroke:#181818;stroke-width:0.3499999999999999;stroke-dasharray:5.0,5.0;" x1="624.4" x2="624.4" y1="84.6043" y2="533.668"/><line style="stroke:#181818;stroke-width:0.3499999999999999;stroke-dasharray:5.0,5.0;" x1="740.6" x2="740.6" y1="84.6043" y2="533.668"/><line style="stroke:#181818;stroke-width:0.3499999999999999;stroke-dasharray:5.0,5.0;" x1="933.8" x2="933.8" y1="410.2684" y2="533.668"/><text fill="#000000" font-family="sans-serif" font-size="9.8" lengthAdjust="spacing" textLength="28" x="24.5" y="56.0752">Green</text><text fill="#000000" font-family="sans-serif" font-size="9.8" lengthAdjust="spacing" textLength="70" x="3.5" y="69.11">Space Manager</text><text fill="#000000" font-family="sans-serif" font-size="9.8" lengthAdjust="spacing" textLength="28.7" x="24.15" y="82.1447">(GSM)</text><ellipse cx="40.6" cy="9.45" fill="#E3E3E3" rx="5.6" ry="5.6" style="stroke:#181818;stroke-width:0.3499999999999999;"/><path d="M40.6,15.05 L40.6,33.95 M31.5,20.65 L49.7,20.65 M40.6,33.95 L31.5,44.45 M40.6,33.95 L49.7,44.45 " fill="none" style="stroke:#181818;stroke-width:0.3499999999999999;"/><text fill="#000000" font-family="sans-serif" font-size="9.8" lengthAdjust="spacing" textLength="28" x="24.5" y="543.5432">Green</text><text fill="#000000" font-family="sans-serif" font-size="9.8" lengthAdjust="spacing" textLength="70" x="3.5" y="556.5779">Space Manager</text><text fill="#000000" font-family="sans-serif" font-size="9.8" lengthAdjust="spacing" textLength="28.7" x="24.15" y="569.6127">(GSM)</text><ellipse cx="40.6" cy="578.0223" fill="#E3E3E3" rx="5.6" ry="5.6" style="stroke:#181818;stroke-width:0.3499999999999999;"/><path d="M40.6,583.6223 L40.6,602.5223 M31.5,589.2223 L49.7,589.2223 M40.6,602.5223 L31.5,613.0223 M40.6,602.5223 L49.7,613.0223 " fill="none" style="stroke:#181818;stroke-width:0.3499999999999999;"/><rect fill="#E3E3E3" height="22.8348" rx="1.75" ry="1.75" style="stroke:#181818;stroke-width:0.3499999999999999;" width="92.4" x="182.7" y="61.0695"/><text fill="#000000" font-family="sans-serif" font-size="9.8" lengthAdjust="spacing" textLength="82.6" x="187.6" y="76.5447">:ListGreenSpaceUI</text><rect fill="#E3E3E3" height="22.8348" rx="1.75" ry="1.75" style="stroke:#181818;stroke-width:0.3499999999999999;" width="92.4" x="182.7" y="532.968"/><text fill="#000000" font-family="sans-serif" font-size="9.8" lengthAdjust="spacing" textLength="82.6" x="187.6" y="548.4432">:ListGreenSpaceUI</text><rect fill="#E3E3E3" height="22.8348" rx="1.75" ry="1.75" style="stroke:#181818;stroke-width:0.3499999999999999;" width="127.4" x="282.1" y="532.968"/><text fill="#000000" font-family="sans-serif" font-size="9.8" lengthAdjust="spacing" textLength="117.6" x="287" y="548.4432">:ListGreenSpaceController</text><rect fill="#E3E3E3" height="22.8348" rx="1.75" ry="1.75" style="stroke:#181818;stroke-width:0.3499999999999999;" width="67.9" x="416.5" y="61.0695"/><text fill="#000000" font-family="sans-serif" font-size="9.8" lengthAdjust="spacing" textLength="58.1" x="421.4" y="76.5447">:Repositories</text><rect fill="#E3E3E3" height="22.8348" rx="1.75" ry="1.75" style="stroke:#181818;stroke-width:0.3499999999999999;" width="67.9" x="416.5" y="532.968"/><text fill="#000000" font-family="sans-serif" font-size="9.8" lengthAdjust="spacing" textLength="58.1" x="421.4" y="548.4432">:Repositories</text><rect fill="#E3E3E3" height="35.8695" rx="1.75" ry="1.75" style="stroke:#181818;stroke-width:0.3499999999999999;" width="67.9" x="491.4" y="48.0348"/><text fill="#000000" font-family="sans-serif" font-size="9.8" lengthAdjust="spacing" textLength="51.8" x="499.45" y="63.51">repositories</text><text fill="#000000" font-family="sans-serif" font-size="9.8" lengthAdjust="spacing" textLength="58.1" x="496.3" y="76.5447">:Repositories</text><rect fill="#E3E3E3" height="35.8695" rx="1.75" ry="1.75" style="stroke:#181818;stroke-width:0.3499999999999999;" width="67.9" x="491.4" y="532.968"/><text fill="#000000" font-family="sans-serif" font-size="9.8" lengthAdjust="spacing" textLength="51.8" x="499.45" y="548.4432">repositories</text><text fill="#000000" font-family="sans-serif" font-size="9.8" lengthAdjust="spacing" textLength="58.1" x="496.3" y="561.4779">:Repositories</text><rect fill="#E3E3E3" height="35.8695" rx="1.75" ry="1.75" style="stroke:#181818;stroke-width:0.3499999999999999;" width="116.2" x="566.3" y="48.0348"/><text fill="#000000" font-family="sans-serif" font-size="9.8" lengthAdjust="spacing" textLength="101.5" x="573.65" y="63.51">greenSpaceRepository</text><text fill="#000000" font-family="sans-serif" font-size="9.8" lengthAdjust="spacing" textLength="106.4" x="571.2" y="76.5447">:GreenSpaceRepository</text><rect fill="#E3E3E3" height="35.8695" rx="1.75" ry="1.75" style="stroke:#181818;stroke-width:0.3499999999999999;" width="116.2" x="566.3" y="532.968"/><text fill="#000000" font-family="sans-serif" font-size="9.8" lengthAdjust="spacing" textLength="101.5" x="573.65" y="548.4432">greenSpaceRepository</text><text fill="#000000" font-family="sans-serif" font-size="9.8" lengthAdjust="spacing" textLength="106.4" x="571.2" y="561.4779">:GreenSpaceRepository</text><rect fill="#E3E3E3" height="22.8348" rx="1.75" ry="1.75" style="stroke:#181818;stroke-width:0.3499999999999999;" width="102.2" x="689.5" y="61.0695"/><text fill="#000000" font-family="sans-serif" font-size="9.8" lengthAdjust="spacing" textLength="92.4" x="694.4" y="76.5447">:GreenSpaceMapper</text><rect fill="#E3E3E3" height="22.8348" rx="1.75" ry="1.75" style="stroke:#181818;stroke-width:0.3499999999999999;" width="102.2" x="689.5" y="532.968"/><text fill="#000000" font-family="sans-serif" font-size="9.8" lengthAdjust="spacing" textLength="92.4" x="694.4" y="548.4432">:GreenSpaceMapper</text><rect fill="#E3E3E3" height="35.8695" rx="1.75" ry="1.75" style="stroke:#181818;stroke-width:0.3499999999999999;" width="84" x="891.8" y="532.968"/><text fill="#000000" font-family="sans-serif" font-size="9.8" lengthAdjust="spacing" textLength="69.3" x="899.15" y="548.4432">greenSpaceDto</text><text fill="#000000" font-family="sans-serif" font-size="9.8" lengthAdjust="spacing" textLength="74.2" x="896.7" y="561.4779">:GreenSpaceDto</text><rect fill="#FFFFFF" height="429.4637" style="stroke:#181818;stroke-width:0.6999999999999998;" width="7" x="37.1" y="91.6043"/><rect fill="#FFFFFF" height="21.9037" style="stroke:#181818;stroke-width:0.6999999999999998;" width="7" x="225.4" y="107.908"/><rect fill="#FFFFFF" height="369.3525" style="stroke:#181818;stroke-width:0.6999999999999998;" width="7" x="225.4" y="151.7154"/><rect fill="#FFFFFF" height="295.0104" style="stroke:#181818;stroke-width:0.6999999999999998;" width="7" x="342.3" y="204.1539"/><rect fill="#FFFFFF" height="21.9037" style="stroke:#181818;stroke-width:0.6999999999999998;" width="7" x="446.95" y="226.0576"/><rect fill="#FFFFFF" height="21.9037" style="stroke:#181818;stroke-width:0.6999999999999998;" width="7" x="521.85" y="269.865"/><rect fill="#FFFFFF" height="21.9037" style="stroke:#181818;stroke-width:0.6999999999999998;" width="7" x="624.4" y="313.6725"/><rect fill="#FFFFFF" height="21.9037" style="stroke:#181818;stroke-width:0.6999999999999998;" width="7" x="624.4" y="313.6725"/><rect fill="#FFFFFF" height="119.7807" style="stroke:#181818;stroke-width:0.6999999999999998;" width="7" x="737.1" y="357.4799"/><rect fill="#FFFFFF" height="30.3037" style="stroke:#181818;stroke-width:0.6999999999999998;" width="7" x="740.6" y="446.9568"/><polygon fill="#181818" points="217,105.108,224,107.908,217,110.708,219.8,107.908" style="stroke:#181818;stroke-width:0.6999999999999998;"/><line style="stroke:#181818;stroke-width:0.6999999999999998;" x1="44.1" x2="221.2" y1="107.908" y2="107.908"/><text fill="#000000" font-family="sans-serif" font-size="9.1" font-weight="bold" lengthAdjust="spacing" textLength="4.9" x="49" y="104.2241">1</text><text fill="#000000" font-family="sans-serif" font-size="9.1" lengthAdjust="spacing" textLength="112.7" x="56.7" y="104.2241">asks to list all greenSpaces</text><polygon fill="#181818" points="51.8,127.0117,44.8,129.8117,51.8,132.6117,49,129.8117" style="stroke:#181818;stroke-width:0.6999999999999998;"/><line style="stroke:#181818;stroke-width:0.6999999999999998;stroke-dasharray:2.0,2.0;" x1="47.6" x2="228.2" y1="129.8117" y2="129.8117"/><text fill="#000000" font-family="sans-serif" font-size="9.1" font-weight="bold" lengthAdjust="spacing" textLength="4.9" x="56" y="126.1278">2</text><text fill="#000000" font-family="sans-serif" font-size="9.1" lengthAdjust="spacing" textLength="84" x="63.7" y="126.1278">asks for confirmation</text><polygon fill="#181818" points="217,148.9154,224,151.7154,217,154.5154,219.8,151.7154" style="stroke:#181818;stroke-width:0.6999999999999998;"/><line style="stroke:#181818;stroke-width:0.6999999999999998;" x1="44.1" x2="221.2" y1="151.7154" y2="151.7154"/><text fill="#000000" font-family="sans-serif" font-size="9.1" font-weight="bold" lengthAdjust="spacing" textLength="4.9" x="49" y="148.0315">3</text><text fill="#000000" font-family="sans-serif" font-size="9.1" lengthAdjust="spacing" textLength="160.3" x="56.7" y="148.0315">confirms that he wants to create the list</text><polygon fill="#181818" points="273.7,170.8191,280.7,173.6191,273.7,176.4191,276.5,173.6191" style="stroke:#181818;stroke-width:0.6999999999999998;"/><line style="stroke:#181818;stroke-width:0.6999999999999998;" x1="232.4" x2="277.9" y1="173.6191" y2="173.6191"/><text fill="#000000" font-family="sans-serif" font-size="9.1" font-weight="bold" lengthAdjust="spacing" textLength="4.9" x="237.3" y="169.9353">4</text><text fill="#000000" font-family="sans-serif" font-size="9.1" lengthAdjust="spacing" textLength="25.2" x="245" y="169.9353">create</text><rect fill="#E3E3E3" height="22.8348" rx="1.75" ry="1.75" style="stroke:#181818;stroke-width:0.3499999999999999;" width="127.4" x="282.1" y="157.3154"/><text fill="#000000" font-family="sans-serif" font-size="9.8" lengthAdjust="spacing" textLength="117.6" x="287" y="172.7906">:ListGreenSpaceController</text><polygon fill="#181818" points="333.9,201.3539,340.9,204.1539,333.9,206.9539,336.7,204.1539" style="stroke:#181818;stroke-width:0.6999999999999998;"/><line style="stroke:#181818;stroke-width:0.6999999999999998;" x1="232.4" x2="338.1" y1="204.1539" y2="204.1539"/><text fill="#000000" font-family="sans-serif" font-size="9.1" font-weight="bold" lengthAdjust="spacing" textLength="4.9" x="237.3" y="200.47">5</text><text fill="#000000" font-family="sans-serif" font-size="9.1" lengthAdjust="spacing" textLength="83.3" x="245" y="200.47">getGreenSpaceList()</text><polygon fill="#181818" points="438.55,223.2576,445.55,226.0576,438.55,228.8576,441.35,226.0576" style="stroke:#181818;stroke-width:0.6999999999999998;"/><line style="stroke:#181818;stroke-width:0.6999999999999998;" x1="349.3" x2="442.75" y1="226.0576" y2="226.0576"/><text fill="#000000" font-family="sans-serif" font-size="9.1" font-weight="bold" lengthAdjust="spacing" textLength="4.9" x="354.2" y="222.3737">6</text><text fill="#000000" font-family="sans-serif" font-size="9.1" lengthAdjust="spacing" textLength="52.5" x="361.9" y="222.3737">getInstance()</text><polygon fill="#181818" points="357,245.1613,350,247.9613,357,250.7613,354.2,247.9613" style="stroke:#181818;stroke-width:0.6999999999999998;"/><line style="stroke:#181818;stroke-width:0.6999999999999998;stroke-dasharray:2.0,2.0;" x1="352.8" x2="449.75" y1="247.9613" y2="247.9613"/><text fill="#000000" font-family="sans-serif" font-size="9.1" font-weight="bold" lengthAdjust="spacing" textLength="4.9" x="361.2" y="244.2774">7</text><text fill="#000000" font-family="sans-serif" font-size="9.1" lengthAdjust="spacing" textLength="46.9" x="368.9" y="244.2774">repositories</text><polygon fill="#181818" points="513.45,267.065,520.45,269.865,513.45,272.665,516.25,269.865" style="stroke:#181818;stroke-width:0.6999999999999998;"/><line style="stroke:#181818;stroke-width:0.6999999999999998;" x1="349.3" x2="517.65" y1="269.865" y2="269.865"/><text fill="#000000" font-family="sans-serif" font-size="9.1" font-weight="bold" lengthAdjust="spacing" textLength="4.9" x="354.2" y="266.1812">8</text><text fill="#000000" font-family="sans-serif" font-size="9.1" lengthAdjust="spacing" textLength="112" x="361.9" y="266.1812">getGreenSpaceRepository()</text><polygon fill="#181818" points="357,288.9687,350,291.7687,357,294.5687,354.2,291.7687" style="stroke:#181818;stroke-width:0.6999999999999998;"/><line style="stroke:#181818;stroke-width:0.6999999999999998;stroke-dasharray:2.0,2.0;" x1="352.8" x2="524.65" y1="291.7687" y2="291.7687"/><text fill="#000000" font-family="sans-serif" font-size="9.1" font-weight="bold" lengthAdjust="spacing" textLength="4.9" x="361.2" y="288.0849">9</text><text fill="#000000" font-family="sans-serif" font-size="9.1" lengthAdjust="spacing" textLength="91.7" x="368.9" y="288.0849">greenSpaceRepository</text><polygon fill="#181818" points="616,310.8725,623,313.6725,616,316.4725,618.8,313.6725" style="stroke:#181818;stroke-width:0.6999999999999998;"/><line style="stroke:#181818;stroke-width:0.6999999999999998;" x1="349.3" x2="620.2" y1="313.6725" y2="313.6725"/><text fill="#000000" font-family="sans-serif" font-size="9.1" font-weight="bold" lengthAdjust="spacing" textLength="9.8" x="354.2" y="309.9886">10</text><text fill="#000000" font-family="sans-serif" font-size="9.1" lengthAdjust="spacing" textLength="83.3" x="366.8" y="309.9886">getGreenSpaceList()</text><polygon fill="#181818" points="357,332.7762,350,335.5762,357,338.3762,354.2,335.5762" style="stroke:#181818;stroke-width:0.6999999999999998;"/><line style="stroke:#181818;stroke-width:0.6999999999999998;stroke-dasharray:2.0,2.0;" x1="352.8" x2="623.7" y1="335.5762" y2="335.5762"/><text fill="#000000" font-family="sans-serif" font-size="9.1" font-weight="bold" lengthAdjust="spacing" textLength="9.8" x="361.2" y="331.8923">11</text><text fill="#000000" font-family="sans-serif" font-size="9.1" lengthAdjust="spacing" textLength="63" x="373.8" y="331.8923">greenSpaceList</text><polygon fill="#181818" points="728.7,354.6799,735.7,357.4799,728.7,360.2799,731.5,357.4799" style="stroke:#181818;stroke-width:0.6999999999999998;"/><line style="stroke:#181818;stroke-width:0.6999999999999998;" x1="349.3" x2="732.9" y1="357.4799" y2="357.4799"/><text fill="#000000" font-family="sans-serif" font-size="9.1" font-weight="bold" lengthAdjust="spacing" textLength="9.8" x="354.2" y="353.796">12</text><text fill="#000000" font-family="sans-serif" font-size="9.1" lengthAdjust="spacing" textLength="94.5" x="366.8" y="353.796">toDTO(greenSpaceList)</text><path d="M682.5,367.9799 L733.6,367.9799 L733.6,374.4836 L726.6,381.4836 L682.5,381.4836 L682.5,367.9799 " fill="#EEEEEE" style="stroke:#000000;stroke-width:1.0499999999999998;"/><rect fill="none" height="88.077" style="stroke:#000000;stroke-width:1.0499999999999998;" width="300.3" x="682.5" y="367.9799"/><text fill="#000000" font-family="sans-serif" font-size="9.1" font-weight="bold" lengthAdjust="spacing" textLength="19.6" x="693" y="378.4997">loop</text><text fill="#000000" font-family="sans-serif" font-size="7.7" font-weight="bold" lengthAdjust="spacing" textLength="157.5" x="744.1" y="377.689">[for each greenSpace in greenSpaceList]</text><polygon fill="#181818" points="883.4,394.9873,890.4,397.7873,883.4,400.5873,886.2,397.7873" style="stroke:#181818;stroke-width:0.6999999999999998;"/><line style="stroke:#181818;stroke-width:0.6999999999999998;" x1="744.1" x2="887.6" y1="397.7873" y2="397.7873"/><text fill="#000000" font-family="sans-serif" font-size="9.1" font-weight="bold" lengthAdjust="spacing" textLength="9.8" x="749" y="394.1034">13</text><text fill="#000000" font-family="sans-serif" font-size="9.1" lengthAdjust="spacing" textLength="118.3" x="761.6" y="394.1034">GreenSpaceDto(greenSpace)</text><rect fill="#E3E3E3" height="35.8695" rx="1.75" ry="1.75" style="stroke:#181818;stroke-width:0.3499999999999999;" width="84" x="891.8" y="381.4836"/><text fill="#000000" font-family="sans-serif" font-size="9.8" lengthAdjust="spacing" textLength="69.3" x="899.15" y="396.9588">greenSpaceDto</text><text fill="#000000" font-family="sans-serif" font-size="9.8" lengthAdjust="spacing" textLength="74.2" x="896.7" y="409.9936">:GreenSpaceDto</text><line style="stroke:#181818;stroke-width:0.6999999999999998;" x1="744.1" x2="777" y1="437.8568" y2="437.8568"/><line style="stroke:#181818;stroke-width:0.6999999999999998;" x1="777" x2="777" y1="437.8568" y2="446.9568"/><line style="stroke:#181818;stroke-width:0.6999999999999998;" x1="748.3" x2="777" y1="446.9568" y2="446.9568"/><polygon fill="#181818" points="755.3,444.1568,748.3,446.9568,755.3,449.7568,752.5,446.9568" style="stroke:#181818;stroke-width:0.6999999999999998;"/><text fill="#000000" font-family="sans-serif" font-size="9.1" font-weight="bold" lengthAdjust="spacing" textLength="9.8" x="752.5" y="434.1729">14</text><text fill="#000000" font-family="sans-serif" font-size="9.1" lengthAdjust="spacing" textLength="133" x="765.1" y="434.1729">addGreenSpace(greenSpaceDto)</text><polygon fill="#181818" points="357,474.4605,350,477.2605,357,480.0605,354.2,477.2605" style="stroke:#181818;stroke-width:0.6999999999999998;"/><line style="stroke:#181818;stroke-width:0.6999999999999998;stroke-dasharray:2.0,2.0;" x1="352.8" x2="739.9" y1="477.2605" y2="477.2605"/><text fill="#000000" font-family="sans-serif" font-size="9.1" font-weight="bold" lengthAdjust="spacing" textLength="9.8" x="361.2" y="473.5767">15</text><text fill="#000000" font-family="sans-serif" font-size="9.1" lengthAdjust="spacing" textLength="77" x="373.8" y="473.5767">greenSpaceListDto</text><polygon fill="#181818" points="240.1,496.3643,233.1,499.1643,240.1,501.9643,237.3,499.1643" style="stroke:#181818;stroke-width:0.6999999999999998;"/><line style="stroke:#181818;stroke-width:0.6999999999999998;stroke-dasharray:2.0,2.0;" x1="235.9" x2="345.1" y1="499.1643" y2="499.1643"/><text fill="#000000" font-family="sans-serif" font-size="9.1" font-weight="bold" lengthAdjust="spacing" textLength="9.8" x="244.3" y="495.4804">16</text><text fill="#000000" font-family="sans-serif" font-size="9.1" lengthAdjust="spacing" textLength="77" x="256.9" y="495.4804">greenSpaceListDto</text><polygon fill="#181818" points="48.3,518.268,41.3,521.068,48.3,523.868,45.5,521.068" style="stroke:#181818;stroke-width:0.6999999999999998;"/><line style="stroke:#181818;stroke-width:0.6999999999999998;stroke-dasharray:2.0,2.0;" x1="44.1" x2="228.2" y1="521.068" y2="521.068"/><text fill="#000000" font-family="sans-serif" font-size="9.1" font-weight="bold" lengthAdjust="spacing" textLength="9.8" x="52.5" y="517.3841">17</text><text fill="#000000" font-family="sans-serif" font-size="9.1" lengthAdjust="spacing" textLength="56" x="65.1" y="517.3841">shows the list</text><!--SRC=[lLR1RkCW4Btp5IYN9fNo0pdqqbPHf4PRDUqj5sfFR1GRB23Dzkzt88uD3hZUFIod6EQzUG-68Vh8HSCKgsajXSnA9MkWHfs0w6wbOTcH5R0ptnLG1PbXegZy05soN9wvAEY1LHe8OISZnQd-14N8NSbpe0SfpQVyJLXcfAApjG8GUx53Qg1R9f1UxSLylTikPfHfYZy8SXkUyOO9GsUh5wwDGpdCnyQ5VMn6enwbC4fM5IWN_VZ-zZA8VuD6QewIE6WNqqryxxXrYJv2YF8GUn4XU7uD0KKdf-T6u3eoxGXYyGFLFNRBcgPrT_cPolraP90KlntgwVqNiOV2lvW1j-s4jWC_wF81zvYkCFAegP6qmlsbhAeybRf7T3nuBjsa7SYnH2hBs78Ti0eoAGvSrSnmtEHhQ0u-Yq_YwscXgAbaXfP0p-ZNASmKMAp1EIjschO7LnltzvRPuLCX6520Ls6stkQB8BXBvCejMBB3iI1RfD0kv1kXyO9bCA0Dg6DLUXDjHopBilMoedujty2zWvYKhZFs_3hSfHu_QWflJjm4ClQYe_TZJ7oCzYesHfOuuxJmIOgk8xNmZsns_6sgkEkbL-A1zoIDjybHqUJ_0gvdUcc4QCD8x6xpq4pYhhRDC-Qoah9nxGgrb9uCoiLmev8xrKf2SQZ8jPcW4tiQ5rD8EeSiptkYUT3j5qcUAQP1v6HCGwfMC37veLJQh6Hy-VPWNUl_APz7vDfl_15QuJyMUTRX8n4-FCJxTAyY-GC0]--></g></svg>