<?xml version="1.0" encoding="us-ascii" standalone="no"?><svg xmlns="http://www.w3.org/2000/svg" xmlns:xlink="http://www.w3.org/1999/xlink" contentStyleType="text/css" height="537.6px" preserveAspectRatio="none" style="width:1225px;height:537px;background:#FFFFFF;" version="1.1" viewBox="0 0 1225 537" width="1225.7px" zoomAndPan="magnify"><defs/><g><!--cluster UI--><g id="cluster_UI"><path d="M5.95,118.1339 L16.45,118.1339 A2.625,2.625 0 0 1 18.2,119.8839 L23.1,135.3687 L127.05,135.3687 A1.75,1.75 0 0 1 128.8,137.1187 L128.8,201.7839 A1.75,1.75 0 0 1 127.05,203.5339 L5.95,203.5339 A1.75,1.75 0 0 1 4.2,201.7839 L4.2,119.8839 A1.75,1.75 0 0 1 5.95,118.1339 " fill="none" style="stroke:#000000;stroke-width:1.0499999999999998;"/><line style="stroke:#000000;stroke-width:1.0499999999999998;" x1="4.2" x2="23.1" y1="135.3687" y2="135.3687"/><text fill="#000000" font-family="sans-serif" font-size="9.8" font-weight="bold" lengthAdjust="spacing" textLength="9.8" x="7" y="130.1091">UI</text></g><!--cluster Controller--><g id="cluster_Controller"><path d="M147.35,98.5339 L197.75,98.5339 A2.625,2.625 0 0 1 199.5,100.2839 L204.4,115.7687 L330.05,115.7687 A1.75,1.75 0 0 1 331.8,117.5187 L331.8,221.3839 A1.75,1.75 0 0 1 330.05,223.1339 L147.35,223.1339 A1.75,1.75 0 0 1 145.6,221.3839 L145.6,100.2839 A1.75,1.75 0 0 1 147.35,98.5339 " fill="none" style="stroke:#000000;stroke-width:1.0499999999999998;"/><line style="stroke:#000000;stroke-width:1.0499999999999998;" x1="145.6" x2="204.4" y1="115.7687" y2="115.7687"/><text fill="#000000" font-family="sans-serif" font-size="9.8" font-weight="bold" lengthAdjust="spacing" textLength="49.7" x="148.4" y="110.5091">Controller</text></g><!--cluster Domain--><g id="cluster_Domain"><path d="M350.35,29.2339 L387.45,29.2339 A2.625,2.625 0 0 1 389.2,30.9839 L394.1,46.4687 L1219.05,46.4687 A1.75,1.75 0 0 1 1220.8,48.2187 L1220.8,531.1339 A1.75,1.75 0 0 1 1219.05,532.8839 L350.35,532.8839 A1.75,1.75 0 0 1 348.6,531.1339 L348.6,30.9839 A1.75,1.75 0 0 1 350.35,29.2339 " fill="none" style="stroke:#000000;stroke-width:1.0499999999999998;"/><line style="stroke:#000000;stroke-width:1.0499999999999998;" x1="348.6" x2="394.1" y1="46.4687" y2="46.4687"/><text fill="#000000" font-family="sans-serif" font-size="9.8" font-weight="bold" lengthAdjust="spacing" textLength="36.4" x="351.4" y="41.2091">Domain</text></g><!--cluster ExternalModule--><g id="cluster_ExternalModule"><path d="M785.05,281.9339 L863.45,281.9339 A2.625,2.625 0 0 1 865.2,283.6839 L870.1,299.1687 L1198.05,299.1687 A1.75,1.75 0 0 1 1199.8,300.9187 L1199.8,514.3339 A1.75,1.75 0 0 1 1198.05,516.0839 L785.05,516.0839 A1.75,1.75 0 0 1 783.3,514.3339 L783.3,283.6839 A1.75,1.75 0 0 1 785.05,281.9339 " fill="none" style="stroke:#000000;stroke-width:1.0499999999999998;"/><line style="stroke:#000000;stroke-width:1.0499999999999998;" x1="783.3" x2="870.1" y1="299.1687" y2="299.1687"/><text fill="#000000" font-family="sans-serif" font-size="9.8" font-weight="bold" lengthAdjust="spacing" textLength="77.7" x="786.1" y="293.9091">ExternalModule</text></g><!--cluster Mapper--><g id="cluster_Mapper"><path d="M785.05,60.7339 L823.55,60.7339 A2.625,2.625 0 0 1 825.3,62.4839 L830.2,77.9687 L1202.25,77.9687 A1.75,1.75 0 0 1 1204,79.7187 L1204,244.4839 A1.75,1.75 0 0 1 1202.25,246.2339 L785.05,246.2339 A1.75,1.75 0 0 1 783.3,244.4839 L783.3,62.4839 A1.75,1.75 0 0 1 785.05,60.7339 " fill="none" style="stroke:#000000;stroke-width:1.0499999999999998;"/><line style="stroke:#000000;stroke-width:1.0499999999999998;" x1="783.3" x2="830.2" y1="77.9687" y2="77.9687"/><text fill="#000000" font-family="sans-serif" font-size="9.8" font-weight="bold" lengthAdjust="spacing" textLength="37.8" x="786.1" y="72.7091">Mapper</text></g><!--cluster Dto--><g id="cluster_Dto"><path d="M1022.35,92.2339 L1039.85,92.2339 A2.625,2.625 0 0 1 1041.6,93.9839 L1046.5,109.4687 L1185.45,109.4687 A1.75,1.75 0 0 1 1187.2,111.2187 L1187.2,227.6839 A1.75,1.75 0 0 1 1185.45,229.4339 L1022.35,229.4339 A1.75,1.75 0 0 1 1020.6,227.6839 L1020.6,93.9839 A1.75,1.75 0 0 1 1022.35,92.2339 " fill="none" style="stroke:#000000;stroke-width:1.0499999999999998;"/><line style="stroke:#000000;stroke-width:1.0499999999999998;" x1="1020.6" x2="1046.5" y1="109.4687" y2="109.4687"/><text fill="#000000" font-family="sans-serif" font-size="9.8" font-weight="bold" lengthAdjust="spacing" textLength="16.8" x="1023.4" y="104.2091">Dto</text></g><!--cluster Reository--><g id="cluster_Reository"><path d="M367.15,98.5339 L414.75,98.5339 A2.625,2.625 0 0 1 416.5,100.2839 L421.4,115.7687 L764.75,115.7687 A1.75,1.75 0 0 1 766.5,117.5187 L766.5,398.1339 A1.75,1.75 0 0 1 764.75,399.8839 L367.15,399.8839 A1.75,1.75 0 0 1 365.4,398.1339 L365.4,100.2839 A1.75,1.75 0 0 1 367.15,98.5339 " fill="none" style="stroke:#000000;stroke-width:1.0499999999999998;"/><line style="stroke:#000000;stroke-width:1.0499999999999998;" x1="365.4" x2="421.4" y1="115.7687" y2="115.7687"/><text fill="#000000" font-family="sans-serif" font-size="9.8" font-weight="bold" lengthAdjust="spacing" textLength="46.9" x="368.2" y="110.5091">Reository</text></g><!--class ListGreenSpaceUI--><g id="elem_ListGreenSpaceUI"><rect codeLine="12" fill="#F1F1F1" height="33.6" id="ListGreenSpaceUI" rx="1.75" ry="1.75" style="stroke:#181818;stroke-width:0.3499999999999999;" width="102.2" x="15.4" y="158.7339"/><ellipse cx="25.9" cy="169.9339" fill="#ADD1B2" rx="7.7" ry="7.7" style="stroke:#181818;stroke-width:0.6999999999999998;"/><path d="M27.8359,167.0464 Q27.9453,166.8933 28.0766,166.8167 Q28.2078,166.7401 28.3609,166.7401 Q28.6234,166.7401 28.7875,166.9261 Q28.9516,167.1011 28.9516,167.5276 L28.9516,168.5448 Q28.9516,168.9714 28.7875,169.1573 Q28.6234,169.3433 28.3609,169.3433 Q28.1203,169.3433 27.9781,169.2011 Q27.8359,169.0698 27.7594,168.7089 Q27.7266,168.4573 27.5953,168.3261 Q27.3656,168.0636 26.9391,167.9104 Q26.5125,167.7573 26.075,167.7573 Q25.5391,167.7573 25.0906,167.987 Q24.6531,168.2167 24.3031,168.7417 Q23.9641,169.2667 23.9641,169.9886 L23.9641,170.7542 Q23.9641,171.6183 24.5875,172.1979 Q25.2109,172.7667 26.3266,172.7667 Q26.9828,172.7667 27.4422,172.5917 Q27.7156,172.4823 28.0109,172.1761 Q28.1969,171.9901 28.2953,171.9354 Q28.4047,171.8808 28.5469,171.8808 Q28.7766,171.8808 28.9516,172.0667 Q29.1375,172.2417 29.1375,172.4823 Q29.1375,172.7229 28.8969,173.0073 Q28.5469,173.412 27.9891,173.6417 Q27.2344,173.9589 26.3266,173.9589 Q25.2656,173.9589 24.4234,173.5214 Q23.7344,173.1714 23.2531,172.4276 Q22.7719,171.6729 22.7719,170.7761 L22.7719,169.9667 Q22.7719,169.037 23.1984,168.2386 Q23.6359,167.4292 24.4016,167.0026 Q25.1672,166.5651 26.0312,166.5651 Q26.5453,166.5651 26.9937,166.6854 Q27.4531,166.7948 27.8359,167.0464 Z " fill="#000000"/><text fill="#000000" font-family="sans-serif" font-size="9.8" lengthAdjust="spacing" textLength="79.8" x="35.7" y="173.9917">ListGreenSpaceUI</text><line style="stroke:#181818;stroke-width:0.3499999999999999;" x1="16.1" x2="116.9" y1="181.1339" y2="181.1339"/><line style="stroke:#181818;stroke-width:0.3499999999999999;" x1="16.1" x2="116.9" y1="186.7339" y2="186.7339"/></g><!--class ListGreenSpaceController--><g id="elem_ListGreenSpaceController"><rect codeLine="17" fill="#F1F1F1" height="72.7043" id="ListGreenSpaceController" rx="1.75" ry="1.75" style="stroke:#181818;stroke-width:0.3499999999999999;" width="163.8" x="156.8" y="139.1339"/><ellipse cx="179.27" cy="150.3339" fill="#ADD1B2" rx="7.7" ry="7.7" style="stroke:#181818;stroke-width:0.6999999999999998;"/><path d="M181.2059,147.4464 Q181.3153,147.2933 181.4466,147.2167 Q181.5778,147.1401 181.7309,147.1401 Q181.9934,147.1401 182.1575,147.3261 Q182.3216,147.5011 182.3216,147.9276 L182.3216,148.9448 Q182.3216,149.3714 182.1575,149.5573 Q181.9934,149.7433 181.7309,149.7433 Q181.4903,149.7433 181.3481,149.6011 Q181.2059,149.4698 181.1294,149.1089 Q181.0966,148.8573 180.9653,148.7261 Q180.7356,148.4636 180.3091,148.3104 Q179.8825,148.1573 179.445,148.1573 Q178.9091,148.1573 178.4606,148.387 Q178.0231,148.6167 177.6731,149.1417 Q177.3341,149.6667 177.3341,150.3886 L177.3341,151.1542 Q177.3341,152.0183 177.9575,152.5979 Q178.5809,153.1667 179.6966,153.1667 Q180.3528,153.1667 180.8122,152.9917 Q181.0856,152.8823 181.3809,152.5761 Q181.5669,152.3901 181.6653,152.3354 Q181.7747,152.2808 181.9169,152.2808 Q182.1466,152.2808 182.3216,152.4667 Q182.5075,152.6417 182.5075,152.8823 Q182.5075,153.1229 182.2669,153.4073 Q181.9169,153.812 181.3591,154.0417 Q180.6044,154.3589 179.6966,154.3589 Q178.6356,154.3589 177.7934,153.9214 Q177.1044,153.5714 176.6231,152.8276 Q176.1419,152.0729 176.1419,151.1761 L176.1419,150.3667 Q176.1419,149.437 176.5684,148.6386 Q177.0059,147.8292 177.7716,147.4026 Q178.5372,146.9651 179.4012,146.9651 Q179.9153,146.9651 180.3637,147.0854 Q180.8231,147.1948 181.2059,147.4464 Z " fill="#000000"/><text fill="#000000" font-family="sans-serif" font-size="9.8" lengthAdjust="spacing" textLength="114.8" x="191.73" y="154.3917">ListGreenSpaceController</text><line style="stroke:#181818;stroke-width:0.3499999999999999;" x1="157.5" x2="319.9" y1="161.5339" y2="161.5339"/><line style="stroke:#181818;stroke-width:0.3499999999999999;" x1="157.5" x2="319.9" y1="167.1339" y2="167.1339"/><text fill="#000000" font-family="sans-serif" font-size="9.8" lengthAdjust="spacing" textLength="98" x="161" y="180.5091">+getGreenSpaceList()</text><text fill="#000000" font-family="sans-serif" font-size="9.8" lengthAdjust="spacing" textLength="155.4" x="161" y="193.5438">+createListGreenSpaceController()</text><text fill="#000000" font-family="sans-serif" font-size="9.8" lengthAdjust="spacing" textLength="105.7" x="161" y="206.5786">+toDto(greenSpaceList)</text></g><!--class EM--><g id="elem_EM"><rect codeLine="25" fill="#F1F1F1" height="46.6348" id="EM" rx="1.75" ry="1.75" style="stroke:#181818;stroke-width:0.3499999999999999;" width="163.8" x="799.4" y="322.5339"/><ellipse cx="844.025" cy="333.7339" fill="#B4A7E5" rx="7.7" ry="7.7" style="stroke:#181818;stroke-width:0.6999999999999998;"/><path d="M844.6922,331.3823 L844.6922,336.0417 L845.8953,336.0417 Q846.3219,336.0417 846.5078,336.2058 Q846.6937,336.3698 846.6937,336.6433 Q846.6937,336.9058 846.5078,337.0698 Q846.3219,337.2339 845.8953,337.2339 L842.2969,337.2339 Q841.8703,337.2339 841.6844,337.0698 Q841.4984,336.9058 841.4984,336.6323 Q841.4984,336.3698 841.6844,336.2058 Q841.8703,336.0417 842.2969,336.0417 L843.5,336.0417 L843.5,331.3823 L842.2969,331.3823 Q841.8703,331.3823 841.6844,331.2183 Q841.4984,331.0542 841.4984,330.7808 Q841.4984,330.5183 841.6844,330.3542 Q841.8703,330.1901 842.2969,330.1901 L845.8953,330.1901 Q846.3219,330.1901 846.5078,330.3542 Q846.6937,330.5183 846.6937,330.7808 Q846.6937,331.0542 846.5078,331.2183 Q846.3219,331.3823 845.8953,331.3823 L844.6922,331.3823 Z " fill="#000000"/><text fill="#000000" font-family="sans-serif" font-size="9.8" font-style="italic" lengthAdjust="spacing" textLength="68.6" x="858.375" y="337.7917">ExternalModule</text><line style="stroke:#181818;stroke-width:0.3499999999999999;" x1="800.1" x2="962.5" y1="344.9339" y2="344.9339"/><line style="stroke:#181818;stroke-width:0.3499999999999999;" x1="800.1" x2="962.5" y1="350.5339" y2="350.5339"/><text fill="#000000" font-family="sans-serif" font-size="9.8" lengthAdjust="spacing" textLength="155.4" x="803.6" y="363.9091">-getReferenceValue(sortingOption)</text></g><!--class ExternalModuleAdapter1--><g id="elem_ExternalModuleAdapter1"><rect codeLine="28" fill="#F1F1F1" height="59.6695" id="ExternalModuleAdapter1" rx="1.75" ry="1.75" style="stroke:#181818;stroke-width:0.3499999999999999;" width="184.8" x="794.5" y="445.3839"/><ellipse cx="829.675" cy="456.5839" fill="#ADD1B2" rx="7.7" ry="7.7" style="stroke:#181818;stroke-width:0.6999999999999998;"/><path d="M831.6109,453.6964 Q831.7203,453.5433 831.8516,453.4667 Q831.9828,453.3901 832.1359,453.3901 Q832.3984,453.3901 832.5625,453.5761 Q832.7266,453.7511 832.7266,454.1776 L832.7266,455.1948 Q832.7266,455.6214 832.5625,455.8073 Q832.3984,455.9933 832.1359,455.9933 Q831.8953,455.9933 831.7531,455.8511 Q831.6109,455.7198 831.5344,455.3589 Q831.5016,455.1073 831.3703,454.9761 Q831.1406,454.7136 830.7141,454.5604 Q830.2875,454.4073 829.85,454.4073 Q829.3141,454.4073 828.8656,454.637 Q828.4281,454.8667 828.0781,455.3917 Q827.7391,455.9167 827.7391,456.6386 L827.7391,457.4042 Q827.7391,458.2683 828.3625,458.8479 Q828.9859,459.4167 830.1016,459.4167 Q830.7578,459.4167 831.2172,459.2417 Q831.4906,459.1323 831.7859,458.8261 Q831.9719,458.6401 832.0703,458.5854 Q832.1797,458.5308 832.3219,458.5308 Q832.5516,458.5308 832.7266,458.7167 Q832.9125,458.8917 832.9125,459.1323 Q832.9125,459.3729 832.6719,459.6573 Q832.3219,460.062 831.7641,460.2917 Q831.0094,460.6089 830.1016,460.6089 Q829.0406,460.6089 828.1984,460.1714 Q827.5094,459.8214 827.0281,459.0776 Q826.5469,458.3229 826.5469,457.4261 L826.5469,456.6167 Q826.5469,455.687 826.9734,454.8886 Q827.4109,454.0792 828.1766,453.6526 Q828.9422,453.2151 829.8062,453.2151 Q830.3203,453.2151 830.7687,453.3354 Q831.2281,453.4448 831.6109,453.6964 Z " fill="#000000"/><text fill="#000000" font-family="sans-serif" font-size="9.8" lengthAdjust="spacing" textLength="108.5" x="844.025" y="460.6417">ExternalModuleAdapter1</text><line style="stroke:#181818;stroke-width:0.3499999999999999;" x1="795.2" x2="978.6" y1="467.7839" y2="467.7839"/><line style="stroke:#181818;stroke-width:0.3499999999999999;" x1="795.2" x2="978.6" y1="473.3839" y2="473.3839"/><text fill="#000000" font-family="sans-serif" font-size="9.8" lengthAdjust="spacing" textLength="157.5" x="798.7" y="486.7591">+getReferenceValue(sortingOption)</text><text fill="#000000" font-family="sans-serif" font-size="9.8" lengthAdjust="spacing" textLength="176.4" x="798.7" y="499.7938">+sortList(greenSpaceList,sortingOption)</text></g><!--class ExternalModuleAdapter2--><g id="elem_ExternalModuleAdapter2"><rect codeLine="32" fill="#F1F1F1" height="59.6695" id="ExternalModuleAdapter2" rx="1.75" ry="1.75" style="stroke:#181818;stroke-width:0.3499999999999999;" width="184.8" x="1003.8" y="445.3839"/><ellipse cx="1038.975" cy="456.5839" fill="#ADD1B2" rx="7.7" ry="7.7" style="stroke:#181818;stroke-width:0.6999999999999998;"/><path d="M1040.9109,453.6964 Q1041.0203,453.5433 1041.1516,453.4667 Q1041.2828,453.3901 1041.4359,453.3901 Q1041.6984,453.3901 1041.8625,453.5761 Q1042.0266,453.7511 1042.0266,454.1776 L1042.0266,455.1948 Q1042.0266,455.6214 1041.8625,455.8073 Q1041.6984,455.9933 1041.4359,455.9933 Q1041.1953,455.9933 1041.0531,455.8511 Q1040.9109,455.7198 1040.8344,455.3589 Q1040.8016,455.1073 1040.6703,454.9761 Q1040.4406,454.7136 1040.0141,454.5604 Q1039.5875,454.4073 1039.15,454.4073 Q1038.6141,454.4073 1038.1656,454.637 Q1037.7281,454.8667 1037.3781,455.3917 Q1037.0391,455.9167 1037.0391,456.6386 L1037.0391,457.4042 Q1037.0391,458.2683 1037.6625,458.8479 Q1038.2859,459.4167 1039.4016,459.4167 Q1040.0578,459.4167 1040.5172,459.2417 Q1040.7906,459.1323 1041.0859,458.8261 Q1041.2719,458.6401 1041.3703,458.5854 Q1041.4797,458.5308 1041.6219,458.5308 Q1041.8516,458.5308 1042.0266,458.7167 Q1042.2125,458.8917 1042.2125,459.1323 Q1042.2125,459.3729 1041.9719,459.6573 Q1041.6219,460.062 1041.0641,460.2917 Q1040.3094,460.6089 1039.4016,460.6089 Q1038.3406,460.6089 1037.4984,460.1714 Q1036.8094,459.8214 1036.3281,459.0776 Q1035.8469,458.3229 1035.8469,457.4261 L1035.8469,456.6167 Q1035.8469,455.687 1036.2734,454.8886 Q1036.7109,454.0792 1037.4766,453.6526 Q1038.2422,453.2151 1039.1062,453.2151 Q1039.6203,453.2151 1040.0687,453.3354 Q1040.5281,453.4448 1040.9109,453.6964 Z " fill="#000000"/><text fill="#000000" font-family="sans-serif" font-size="9.8" lengthAdjust="spacing" textLength="108.5" x="1053.325" y="460.6417">ExternalModuleAdapter2</text><line style="stroke:#181818;stroke-width:0.3499999999999999;" x1="1004.5" x2="1187.9" y1="467.7839" y2="467.7839"/><line style="stroke:#181818;stroke-width:0.3499999999999999;" x1="1004.5" x2="1187.9" y1="473.3839" y2="473.3839"/><text fill="#000000" font-family="sans-serif" font-size="9.8" lengthAdjust="spacing" textLength="157.5" x="1008" y="486.7591">+getReferenceValue(sortingOption)</text><text fill="#000000" font-family="sans-serif" font-size="9.8" lengthAdjust="spacing" textLength="176.4" x="1008" y="499.7938">+sortList(greenSpaceList,sortingOption)</text></g><!--class GreenSpaceMapper--><g id="elem_GreenSpaceMapper"><rect codeLine="38" fill="#F1F1F1" height="72.7043" id="GreenSpaceMapper" rx="1.75" ry="1.75" style="stroke:#181818;stroke-width:0.3499999999999999;" width="163.1" x="794.85" y="139.1339"/><ellipse cx="828.625" cy="150.3339" fill="#ADD1B2" rx="7.7" ry="7.7" style="stroke:#181818;stroke-width:0.6999999999999998;"/><path d="M830.5609,147.4464 Q830.6703,147.2933 830.8016,147.2167 Q830.9328,147.1401 831.0859,147.1401 Q831.3484,147.1401 831.5125,147.3261 Q831.6766,147.5011 831.6766,147.9276 L831.6766,148.9448 Q831.6766,149.3714 831.5125,149.5573 Q831.3484,149.7433 831.0859,149.7433 Q830.8453,149.7433 830.7031,149.6011 Q830.5609,149.4698 830.4844,149.1089 Q830.4516,148.8573 830.3203,148.7261 Q830.0906,148.4636 829.6641,148.3104 Q829.2375,148.1573 828.8,148.1573 Q828.2641,148.1573 827.8156,148.387 Q827.3781,148.6167 827.0281,149.1417 Q826.6891,149.6667 826.6891,150.3886 L826.6891,151.1542 Q826.6891,152.0183 827.3125,152.5979 Q827.9359,153.1667 829.0516,153.1667 Q829.7078,153.1667 830.1672,152.9917 Q830.4406,152.8823 830.7359,152.5761 Q830.9219,152.3901 831.0203,152.3354 Q831.1297,152.2808 831.2719,152.2808 Q831.5016,152.2808 831.6766,152.4667 Q831.8625,152.6417 831.8625,152.8823 Q831.8625,153.1229 831.6219,153.4073 Q831.2719,153.812 830.7141,154.0417 Q829.9594,154.3589 829.0516,154.3589 Q827.9906,154.3589 827.1484,153.9214 Q826.4594,153.5714 825.9781,152.8276 Q825.4969,152.0729 825.4969,151.1761 L825.4969,150.3667 Q825.4969,149.437 825.9234,148.6386 Q826.3609,147.8292 827.1266,147.4026 Q827.8922,146.9651 828.7562,146.9651 Q829.2703,146.9651 829.7187,147.0854 Q830.1781,147.1948 830.5609,147.4464 Z " fill="#000000"/><text fill="#000000" font-family="sans-serif" font-size="9.8" lengthAdjust="spacing" textLength="89.6" x="842.975" y="154.3917">GreenSpaceMapper</text><line style="stroke:#181818;stroke-width:0.3499999999999999;" x1="795.55" x2="957.25" y1="161.5339" y2="161.5339"/><text fill="#000000" font-family="sans-serif" font-size="9.8" lengthAdjust="spacing" textLength="88.2" x="799.05" y="174.9091">-greenSpaceListDto</text><line style="stroke:#181818;stroke-width:0.3499999999999999;" x1="795.55" x2="957.25" y1="180.1687" y2="180.1687"/><text fill="#000000" font-family="sans-serif" font-size="9.8" lengthAdjust="spacing" textLength="105.7" x="799.05" y="193.5438">+toDto(greenSpaceList)</text><text fill="#000000" font-family="sans-serif" font-size="9.8" lengthAdjust="spacing" textLength="154.7" x="799.05" y="206.5786">+addGreenSpace(greenSpaceDto)</text></g><!--class GreenSpaceDto--><g id="elem_GreenSpaceDto"><rect codeLine="44" fill="#F1F1F1" height="85.7391" id="GreenSpaceDto" rx="1.75" ry="1.75" style="stroke:#181818;stroke-width:0.3499999999999999;" width="144.2" x="1031.8" y="132.8339"/><ellipse cx="1065.225" cy="144.0339" fill="#ADD1B2" rx="7.7" ry="7.7" style="stroke:#181818;stroke-width:0.6999999999999998;"/><path d="M1067.1609,141.1464 Q1067.2703,140.9933 1067.4016,140.9167 Q1067.5328,140.8401 1067.6859,140.8401 Q1067.9484,140.8401 1068.1125,141.0261 Q1068.2766,141.2011 1068.2766,141.6276 L1068.2766,142.6448 Q1068.2766,143.0714 1068.1125,143.2573 Q1067.9484,143.4433 1067.6859,143.4433 Q1067.4453,143.4433 1067.3031,143.3011 Q1067.1609,143.1698 1067.0844,142.8089 Q1067.0516,142.5573 1066.9203,142.4261 Q1066.6906,142.1636 1066.2641,142.0104 Q1065.8375,141.8573 1065.4,141.8573 Q1064.8641,141.8573 1064.4156,142.087 Q1063.9781,142.3167 1063.6281,142.8417 Q1063.2891,143.3667 1063.2891,144.0886 L1063.2891,144.8542 Q1063.2891,145.7183 1063.9125,146.2979 Q1064.5359,146.8667 1065.6516,146.8667 Q1066.3078,146.8667 1066.7672,146.6917 Q1067.0406,146.5823 1067.3359,146.2761 Q1067.5219,146.0901 1067.6203,146.0354 Q1067.7297,145.9808 1067.8719,145.9808 Q1068.1016,145.9808 1068.2766,146.1667 Q1068.4625,146.3417 1068.4625,146.5823 Q1068.4625,146.8229 1068.2219,147.1073 Q1067.8719,147.512 1067.3141,147.7417 Q1066.5594,148.0589 1065.6516,148.0589 Q1064.5906,148.0589 1063.7484,147.6214 Q1063.0594,147.2714 1062.5781,146.5276 Q1062.0969,145.7729 1062.0969,144.8761 L1062.0969,144.0667 Q1062.0969,143.137 1062.5234,142.3386 Q1062.9609,141.5292 1063.7266,141.1026 Q1064.4922,140.6651 1065.3562,140.6651 Q1065.8703,140.6651 1066.3187,140.7854 Q1066.7781,140.8948 1067.1609,141.1464 Z " fill="#000000"/><text fill="#000000" font-family="sans-serif" font-size="9.8" lengthAdjust="spacing" textLength="71.4" x="1079.575" y="148.0917">GreenSpaceDto</text><line style="stroke:#181818;stroke-width:0.3499999999999999;" x1="1032.5" x2="1175.3" y1="155.2339" y2="155.2339"/><text fill="#000000" font-family="sans-serif" font-size="9.8" lengthAdjust="spacing" textLength="28" x="1036" y="168.6091">-name</text><text fill="#000000" font-family="sans-serif" font-size="9.8" lengthAdjust="spacing" textLength="48.3" x="1036" y="181.6438">-dimension</text><text fill="#000000" font-family="sans-serif" font-size="9.8" lengthAdjust="spacing" textLength="39.2" x="1036" y="194.6786">-address</text><line style="stroke:#181818;stroke-width:0.3499999999999999;" x1="1032.5" x2="1175.3" y1="199.9382" y2="199.9382"/><text fill="#000000" font-family="sans-serif" font-size="9.8" lengthAdjust="spacing" textLength="135.8" x="1036" y="213.3134">+greenSpaceDto(greenSpace)</text></g><!--class GreenSpaceRepository--><g id="elem_GreenSpaceRepository"><rect codeLine="53" fill="#F1F1F1" height="85.7391" id="GreenSpaceRepository" rx="1.75" ry="1.75" style="stroke:#181818;stroke-width:0.3499999999999999;" width="184.8" x="376.6" y="303.2839"/><ellipse cx="414.225" cy="314.4839" fill="#ADD1B2" rx="7.7" ry="7.7" style="stroke:#181818;stroke-width:0.6999999999999998;"/><path d="M416.1609,311.5964 Q416.2703,311.4433 416.4016,311.3667 Q416.5328,311.2901 416.6859,311.2901 Q416.9484,311.2901 417.1125,311.4761 Q417.2766,311.6511 417.2766,312.0776 L417.2766,313.0948 Q417.2766,313.5214 417.1125,313.7073 Q416.9484,313.8933 416.6859,313.8933 Q416.4453,313.8933 416.3031,313.7511 Q416.1609,313.6198 416.0844,313.2589 Q416.0516,313.0073 415.9203,312.8761 Q415.6906,312.6136 415.2641,312.4604 Q414.8375,312.3073 414.4,312.3073 Q413.8641,312.3073 413.4156,312.537 Q412.9781,312.7667 412.6281,313.2917 Q412.2891,313.8167 412.2891,314.5386 L412.2891,315.3042 Q412.2891,316.1683 412.9125,316.7479 Q413.5359,317.3167 414.6516,317.3167 Q415.3078,317.3167 415.7672,317.1417 Q416.0406,317.0323 416.3359,316.7261 Q416.5219,316.5401 416.6203,316.4854 Q416.7297,316.4308 416.8719,316.4308 Q417.1016,316.4308 417.2766,316.6167 Q417.4625,316.7917 417.4625,317.0323 Q417.4625,317.2729 417.2219,317.5573 Q416.8719,317.962 416.3141,318.1917 Q415.5594,318.5089 414.6516,318.5089 Q413.5906,318.5089 412.7484,318.0714 Q412.0594,317.7214 411.5781,316.9776 Q411.0969,316.2229 411.0969,315.3261 L411.0969,314.5167 Q411.0969,313.587 411.5234,312.7886 Q411.9609,311.9792 412.7266,311.5526 Q413.4922,311.1151 414.3562,311.1151 Q414.8703,311.1151 415.3187,311.2354 Q415.7781,311.3448 416.1609,311.5964 Z " fill="#000000"/><text fill="#000000" font-family="sans-serif" font-size="9.8" lengthAdjust="spacing" textLength="103.6" x="428.575" y="318.5417">GreenSpaceRepository</text><line style="stroke:#181818;stroke-width:0.3499999999999999;" x1="377.3" x2="560.7" y1="325.6839" y2="325.6839"/><text fill="#000000" font-family="sans-serif" font-size="9.8" lengthAdjust="spacing" textLength="72.8" x="380.8" y="339.0591">-greenSpaceList</text><line style="stroke:#181818;stroke-width:0.3499999999999999;" x1="377.3" x2="560.7" y1="344.3187" y2="344.3187"/><text fill="#000000" font-family="sans-serif" font-size="9.8" lengthAdjust="spacing" textLength="98" x="380.8" y="357.6938">+getGreenSpaceList()</text><text fill="#000000" font-family="sans-serif" font-size="9.8" lengthAdjust="spacing" textLength="94.5" x="380.8" y="370.7286">+getExternalModule()</text><text fill="#000000" font-family="sans-serif" font-size="9.8" lengthAdjust="spacing" textLength="176.4" x="380.8" y="383.7634">+sortList(greenSpaceList,sortingOption)</text></g><!--class CollaboratorRepository--><g id="elem_CollaboratorRepository"><rect codeLine="59" fill="#F1F1F1" height="59.6695" id="CollaboratorRepository" rx="1.75" ry="1.75" style="stroke:#181818;stroke-width:0.3499999999999999;" width="168.7" x="586.25" y="316.2339"/><ellipse cx="616.595" cy="327.4339" fill="#ADD1B2" rx="7.7" ry="7.7" style="stroke:#181818;stroke-width:0.6999999999999998;"/><path d="M618.5309,324.5464 Q618.6403,324.3933 618.7716,324.3167 Q618.9028,324.2401 619.0559,324.2401 Q619.3184,324.2401 619.4825,324.4261 Q619.6466,324.6011 619.6466,325.0276 L619.6466,326.0448 Q619.6466,326.4714 619.4825,326.6573 Q619.3184,326.8433 619.0559,326.8433 Q618.8153,326.8433 618.6731,326.7011 Q618.5309,326.5698 618.4544,326.2089 Q618.4216,325.9573 618.2903,325.8261 Q618.0606,325.5636 617.6341,325.4104 Q617.2075,325.2573 616.77,325.2573 Q616.2341,325.2573 615.7856,325.487 Q615.3481,325.7167 614.9981,326.2417 Q614.6591,326.7667 614.6591,327.4886 L614.6591,328.2542 Q614.6591,329.1183 615.2825,329.6979 Q615.9059,330.2667 617.0216,330.2667 Q617.6778,330.2667 618.1372,330.0917 Q618.4106,329.9823 618.7059,329.6761 Q618.8919,329.4901 618.9903,329.4354 Q619.0997,329.3808 619.2419,329.3808 Q619.4716,329.3808 619.6466,329.5667 Q619.8325,329.7417 619.8325,329.9823 Q619.8325,330.2229 619.5919,330.5073 Q619.2419,330.912 618.6841,331.1417 Q617.9294,331.4589 617.0216,331.4589 Q615.9606,331.4589 615.1184,331.0214 Q614.4294,330.6714 613.9481,329.9276 Q613.4669,329.1729 613.4669,328.2761 L613.4669,327.4667 Q613.4669,326.537 613.8934,325.7386 Q614.3309,324.9292 615.0966,324.5026 Q615.8622,324.0651 616.7262,324.0651 Q617.2403,324.0651 617.6887,324.1854 Q618.1481,324.2948 618.5309,324.5464 Z " fill="#000000"/><text fill="#000000" font-family="sans-serif" font-size="9.8" lengthAdjust="spacing" textLength="102.2" x="630.805" y="331.4917">CollaboratorRepository</text><line style="stroke:#181818;stroke-width:0.3499999999999999;" x1="586.95" x2="754.25" y1="338.6339" y2="338.6339"/><text fill="#000000" font-family="sans-serif" font-size="9.8" lengthAdjust="spacing" textLength="71.4" x="590.45" y="352.0091">-collaboratorList</text><line style="stroke:#181818;stroke-width:0.3499999999999999;" x1="586.95" x2="754.25" y1="357.2687" y2="357.2687"/><text fill="#000000" font-family="sans-serif" font-size="9.8" lengthAdjust="spacing" textLength="160.3" x="590.45" y="370.6438">+getCollaboratorTroughEmail(email)</text></g><!--class Repositories--><g id="elem_Repositories"><rect codeLine="64" fill="#F1F1F1" height="72.7043" id="Repositories" rx="1.75" ry="1.75" style="stroke:#181818;stroke-width:0.3499999999999999;" width="199.5" x="393.05" y="139.1339"/><ellipse cx="462.175" cy="150.3339" fill="#ADD1B2" rx="7.7" ry="7.7" style="stroke:#181818;stroke-width:0.6999999999999998;"/><path d="M464.1109,147.4464 Q464.2203,147.2933 464.3516,147.2167 Q464.4828,147.1401 464.6359,147.1401 Q464.8984,147.1401 465.0625,147.3261 Q465.2266,147.5011 465.2266,147.9276 L465.2266,148.9448 Q465.2266,149.3714 465.0625,149.5573 Q464.8984,149.7433 464.6359,149.7433 Q464.3953,149.7433 464.2531,149.6011 Q464.1109,149.4698 464.0344,149.1089 Q464.0016,148.8573 463.8703,148.7261 Q463.6406,148.4636 463.2141,148.3104 Q462.7875,148.1573 462.35,148.1573 Q461.8141,148.1573 461.3656,148.387 Q460.9281,148.6167 460.5781,149.1417 Q460.2391,149.6667 460.2391,150.3886 L460.2391,151.1542 Q460.2391,152.0183 460.8625,152.5979 Q461.4859,153.1667 462.6016,153.1667 Q463.2578,153.1667 463.7172,152.9917 Q463.9906,152.8823 464.2859,152.5761 Q464.4719,152.3901 464.5703,152.3354 Q464.6797,152.2808 464.8219,152.2808 Q465.0516,152.2808 465.2266,152.4667 Q465.4125,152.6417 465.4125,152.8823 Q465.4125,153.1229 465.1719,153.4073 Q464.8219,153.812 464.2641,154.0417 Q463.5094,154.3589 462.6016,154.3589 Q461.5406,154.3589 460.6984,153.9214 Q460.0094,153.5714 459.5281,152.8276 Q459.0469,152.0729 459.0469,151.1761 L459.0469,150.3667 Q459.0469,149.437 459.4734,148.6386 Q459.9109,147.8292 460.6766,147.4026 Q461.4422,146.9651 462.3062,146.9651 Q462.8203,146.9651 463.2687,147.0854 Q463.7281,147.1948 464.1109,147.4464 Z " fill="#000000"/><text fill="#000000" font-family="sans-serif" font-size="9.8" lengthAdjust="spacing" textLength="55.3" x="476.525" y="154.3917">Repositories</text><line style="stroke:#181818;stroke-width:0.3499999999999999;" x1="393.75" x2="591.85" y1="161.5339" y2="161.5339"/><line style="stroke:#181818;stroke-width:0.3499999999999999;" x1="393.75" x2="591.85" y1="167.1339" y2="167.1339"/><text fill="#000000" font-family="sans-serif" font-size="9.8" lengthAdjust="spacing" textLength="65.8" x="397.25" y="180.5091">-Repositories()</text><text fill="#000000" font-family="sans-serif" font-size="9.8" lengthAdjust="spacing" textLength="191.1" x="397.25" y="193.5438">+getGreenSpaceRepository(): Repositories</text><text fill="#000000" font-family="sans-serif" font-size="9.8" lengthAdjust="spacing" textLength="124.6" x="397.25" y="206.5786">+getInstance(): Repositories</text></g><!--link ListGreenSpaceUI to ListGreenSpaceController--><g id="link_ListGreenSpaceUI_ListGreenSpaceController"><path codeLine="71" d="M117.754,175.5339 C121.534,175.5339 123.9,175.5339 123.9,175.5339 C123.9,175.5339 136.864,175.5339 152.425,175.5339 " fill="none" id="ListGreenSpaceUI-to-ListGreenSpaceController" style="stroke:#181818;stroke-width:0.6999999999999998;stroke-dasharray:7.0,7.0;"/><polygon fill="#181818" points="156.625,175.5339,150.325,172.7339,153.125,175.5339,150.325,178.3339,156.625,175.5339" style="stroke:#181818;stroke-width:0.6999999999999998;"/></g><!--link ListGreenSpaceController to Repositories--><g id="link_ListGreenSpaceController_Repositories"><path codeLine="72" d="M320.67,175.5339 C343.735,175.5339 364.875,175.5339 388.85,175.5339 " fill="none" id="ListGreenSpaceController-to-Repositories" style="stroke:#181818;stroke-width:0.6999999999999998;stroke-dasharray:7.0,7.0;"/><polygon fill="#181818" points="393.05,175.5339,386.75,172.7339,389.55,175.5339,386.75,178.3339,393.05,175.5339" style="stroke:#181818;stroke-width:0.6999999999999998;"/><text fill="#000000" font-family="sans-serif" font-size="9.1" lengthAdjust="spacing" textLength="46.9" x="333.375" y="170.6537">repositories</text></g><!--link Repositories to Repositories--><g id="link_Repositories_Repositories"><path codeLine="73" d="M592.732,160.6099 C607.264,162.9829 617.05,167.9529 617.05,175.5339 C617.05,183.1149 611.4091,187.408 596.8771,189.781 " fill="none" id="Repositories-to-Repositories" style="stroke:#181818;stroke-width:0.6999999999999998;"/><polygon fill="#181818" points="592.732,190.4579,599.4009,192.206,596.1862,189.8938,598.4984,186.6792,592.732,190.4579" style="stroke:#181818;stroke-width:0.6999999999999998;"/><text fill="#000000" font-family="sans-serif" font-size="9.1" lengthAdjust="spacing" textLength="34.3" x="621.25" y="179.4037">instance</text></g><!--link ListGreenSpaceController to GreenSpaceRepository--><g id="link_ListGreenSpaceController_GreenSpaceRepository"><path codeLine="74" d="M246.113,211.9619 C251.657,238.7229 258.3,270.7339 258.3,270.7339 C258.3,270.7339 316.0106,291.1518 372.6266,311.1858 " fill="none" id="ListGreenSpaceController-to-GreenSpaceRepository" style="stroke:#181818;stroke-width:0.6999999999999998;stroke-dasharray:7.0,7.0;"/><polygon fill="#181818" points="376.586,312.5869,371.5809,307.8457,373.2865,311.4193,369.7128,313.1249,376.586,312.5869" style="stroke:#181818;stroke-width:0.6999999999999998;"/><text fill="#000000" font-family="sans-serif" font-size="9.1" lengthAdjust="spacing" textLength="91.7" x="259" y="267.9537">greenSpaceRepository</text></g><!--link Repositories to GreenSpaceRepository--><g id="link_Repositories_GreenSpaceRepository"><path codeLine="75" d="M487.753,212.0879 C484.001,238.7369 479.4557,271.0269 475.5077,299.0619 " fill="none" id="Repositories-to-GreenSpaceRepository" style="stroke:#181818;stroke-width:0.6999999999999998;"/><polygon fill="#181818" points="474.922,303.2209,478.5732,297.3729,475.4101,299.7551,473.0279,296.592,474.922,303.2209" style="stroke:#181818;stroke-width:0.6999999999999998;"/><text fill="#000000" font-family="sans-serif" font-size="9.1" lengthAdjust="spacing" textLength="4.9" x="481.8924" y="227.3727">1</text><text fill="#000000" font-family="sans-serif" font-size="9.1" lengthAdjust="spacing" textLength="4.9" x="470.4234" y="295.5004">1</text></g><!--link ListGreenSpaceController to GreenSpaceMapper--><g id="link_ListGreenSpaceController_GreenSpaceMapper"><path codeLine="76" d="M273.994,139.0709 C311.486,100.3399 365.4,44.6339 365.4,44.6339 C365.4,44.6339 766.5,44.6339 766.5,44.6339 C766.5,44.6339 810.5662,97.1234 843.0882,135.8544 " fill="none" id="ListGreenSpaceController-to-GreenSpaceMapper" style="stroke:#181818;stroke-width:0.6999999999999998;"/><polygon fill="#181818" points="845.789,139.0709,843.8821,132.4457,843.5383,136.3905,839.5935,136.0468,845.789,139.0709" style="stroke:#181818;stroke-width:0.6999999999999998;"/><text fill="#000000" font-family="sans-serif" font-size="9.1" lengthAdjust="spacing" textLength="63" x="526.4" y="15.2537">greenSpaceList</text><text fill="#000000" font-family="sans-serif" font-size="9.1" lengthAdjust="spacing" textLength="4.9" x="273.5074" y="131.3116">1</text><text fill="#000000" font-family="sans-serif" font-size="9.1" lengthAdjust="spacing" textLength="4.9" x="836.4464" y="131.3116">1</text></g><!--link GreenSpaceMapper to GreenSpaceDto--><g id="link_GreenSpaceMapper_GreenSpaceDto"><path codeLine="77" d="M958.209,175.5339 C982.226,175.5339 1004.101,175.5339 1027.474,175.5339 " fill="none" id="GreenSpaceMapper-to-GreenSpaceDto" style="stroke:#181818;stroke-width:0.6999999999999998;"/><polygon fill="#181818" points="1031.674,175.5339,1025.374,172.7339,1028.174,175.5339,1025.374,178.3339,1031.674,175.5339" style="stroke:#181818;stroke-width:0.6999999999999998;"/><text fill="#000000" font-family="sans-serif" font-size="9.1" lengthAdjust="spacing" textLength="48.3" x="970.725" y="170.6537">greenSpace</text><text fill="#000000" font-family="sans-serif" font-size="9.1" lengthAdjust="spacing" textLength="4.9" x="963.6068" y="173.0821">1</text><text fill="#000000" font-family="sans-serif" font-size="9.1" lengthAdjust="spacing" textLength="4.9" x="1021.29" y="173.0118">1</text></g><!--link Repositories to CollaboratorRepository--><g id="link_Repositories_CollaboratorRepository"><path codeLine="78" d="M530.509,212.0879 C563.129,243.0979 606.6486,284.4865 636.9936,313.3265 " fill="none" id="Repositories-to-CollaboratorRepository" style="stroke:#181818;stroke-width:0.6999999999999998;"/><polygon fill="#181818" points="640.038,316.2199,637.4004,309.8502,637.501,313.8087,633.5425,313.9094,640.038,316.2199" style="stroke:#181818;stroke-width:0.6999999999999998;"/><text fill="#000000" font-family="sans-serif" font-size="9.1" lengthAdjust="spacing" textLength="90.3" x="587.3" y="267.9537">collaboratorRepository</text><text fill="#000000" font-family="sans-serif" font-size="9.1" lengthAdjust="spacing" textLength="4.9" x="530.1266" y="227.3727">1</text><text fill="#000000" font-family="sans-serif" font-size="9.1" lengthAdjust="spacing" textLength="4.9" x="629.8767" y="308.4505">1</text></g><!--link ListGreenSpaceController to CollaboratorRepository--><g id="link_ListGreenSpaceController_CollaboratorRepository"><path codeLine="79" d="M298.711,212.0389 C331.457,231.5829 365.4,251.8339 365.4,251.8339 C365.4,251.8339 484.4,270.7339 484.4,270.7339 C484.4,270.7339 574,276.3339 574,276.3339 C574,276.3339 599.8834,294.81 626.2174,313.605 " fill="none" id="ListGreenSpaceController-to-CollaboratorRepository" style="stroke:#181818;stroke-width:0.6999999999999998;stroke-dasharray:7.0,7.0;"/><polygon fill="#181818" points="629.636,316.0449,626.1347,310.106,626.7872,314.0116,622.8815,314.6641,629.636,316.0449" style="stroke:#181818;stroke-width:0.6999999999999998;"/><text fill="#000000" font-family="sans-serif" font-size="9.1" lengthAdjust="spacing" textLength="90.3" x="485.1" y="267.9537">collaboratorRepository</text></g><!--link GreenSpaceRepository to EM--><g id="link_GreenSpaceRepository_EM"><path codeLine="80" d="M533.407,303.2629 C555.142,288.8429 574,276.3339 574,276.3339 C574,276.3339 693.7,272.1339 693.7,272.1339 C693.7,272.1339 776.3,272.1339 776.3,272.1339 C776.3,272.1339 813.6257,298.3825 844.3557,319.9985 " fill="none" id="GreenSpaceRepository-to-EM" style="stroke:#181818;stroke-width:0.6999999999999998;"/><polygon fill="#181818" points="847.791,322.4149,844.2491,316.5001,844.9283,320.4012,841.0272,321.0804,847.791,322.4149" style="stroke:#181818;stroke-width:0.6999999999999998;"/><text fill="#000000" font-family="sans-serif" font-size="9.1" lengthAdjust="spacing" textLength="81.2" x="694.4" y="267.9537">getExternalModule()</text><text fill="#000000" font-family="sans-serif" font-size="9.1" lengthAdjust="spacing" textLength="4.9" x="535.6708" y="295.5473">1</text><text fill="#000000" font-family="sans-serif" font-size="9.1" lengthAdjust="spacing" textLength="4.9" x="835.8116" y="314.5693">1</text></g><!--link EM to ExternalModuleAdapter1--><g id="link_EM_ExternalModuleAdapter1"><path codeLine="81" d="M882.301,369.5249 C883.232,390.6929 884.4352,418.1019 885.4362,441.0829 " fill="none" id="EM-to-ExternalModuleAdapter1" style="stroke:#181818;stroke-width:0.6999999999999998;"/><polygon fill="#181818" points="885.619,445.2789,888.1422,438.863,885.4667,441.7822,882.5475,439.1067,885.619,445.2789" style="stroke:#181818;stroke-width:0.6999999999999998;"/><text fill="#000000" font-family="sans-serif" font-size="9.1" lengthAdjust="spacing" textLength="81.9" x="884.8" y="421.6037">getReferenceValue()</text><text fill="#000000" font-family="sans-serif" font-size="9.1" lengthAdjust="spacing" textLength="4.9" x="877.1429" y="384.6396">1</text><text fill="#000000" font-family="sans-serif" font-size="9.1" lengthAdjust="spacing" textLength="4.9" x="880.1244" y="437.495">1</text></g><!--link EM to ExternalModuleAdapter2--><g id="link_EM_ExternalModuleAdapter2"><path codeLine="82" d="M919.723,369.5249 C955.332,390.6929 1004.8867,420.1518 1043.5477,443.1328 " fill="none" id="EM-to-ExternalModuleAdapter2" style="stroke:#181818;stroke-width:0.6999999999999998;"/><polygon fill="#181818" points="1047.158,445.2789,1043.1732,439.6529,1044.1494,443.4905,1040.3118,444.4667,1047.158,445.2789" style="stroke:#181818;stroke-width:0.6999999999999998;"/><text fill="#000000" font-family="sans-serif" font-size="9.1" lengthAdjust="spacing" textLength="81.9" x="1008" y="421.6037">getReferenceValue()</text><text fill="#000000" font-family="sans-serif" font-size="9.1" lengthAdjust="spacing" textLength="4.9" x="921.2307" y="384.6396">1</text><text fill="#000000" font-family="sans-serif" font-size="9.1" lengthAdjust="spacing" textLength="4.9" x="1034.0515" y="437.495">1</text></g><!--link GreenSpaceRepository to ExternalModuleAdapter1--><g id="link_GreenSpaceRepository_ExternalModuleAdapter1"><path codeLine="83" d="M484.526,388.7189 C491.288,407.0239 497.7,424.3839 497.7,424.3839 C497.7,424.3839 675.1493,447.2001 790.2503,462.0051 " fill="none" id="GreenSpaceRepository-to-ExternalModuleAdapter1" style="stroke:#181818;stroke-width:0.6999999999999998;"/><polygon fill="#181818" points="794.416,462.5409,788.5247,458.96,790.9446,462.0944,787.8103,464.5143,794.416,462.5409" style="stroke:#181818;stroke-width:0.6999999999999998;"/><text fill="#000000" font-family="sans-serif" font-size="9.1" lengthAdjust="spacing" textLength="155.4" x="498.4" y="421.6037">sortList(sortingOption,greenSpaceList)</text><text fill="#000000" font-family="sans-serif" font-size="9.1" lengthAdjust="spacing" textLength="4.9" x="481.2196" y="404.4639">1</text><text fill="#000000" font-family="sans-serif" font-size="9.1" lengthAdjust="spacing" textLength="4.9" x="784.0276" y="459.3897">1</text></g><!--link GreenSpaceRepository to ExternalModuleAdapter2--><g id="link_GreenSpaceRepository_ExternalModuleAdapter2"><path codeLine="84" d="M544.194,388.7889 C561.022,398.2179 574,405.4839 574,405.4839 C574,405.4839 657.3,411.0839 657.3,411.0839 C657.3,411.0839 721.7,424.3839 721.7,424.3839 C721.7,424.3839 991.9,445.3839 991.9,445.3839 C991.9,445.3839 992.4114,445.5225 999.6144,447.5315 " fill="none" id="GreenSpaceRepository-to-ExternalModuleAdapter2" style="stroke:#181818;stroke-width:0.6999999999999998;"/><polygon fill="#181818" points="1003.66,448.6599,998.3439,444.2703,1000.2887,447.7196,996.8394,449.6644,1003.66,448.6599" style="stroke:#181818;stroke-width:0.6999999999999998;"/><text fill="#000000" font-family="sans-serif" font-size="9.1" lengthAdjust="spacing" textLength="155.4" x="722.4" y="421.6037">sortList(sortingOption,greenSpaceList)</text><text fill="#000000" font-family="sans-serif" font-size="9.1" lengthAdjust="spacing" textLength="4.9" x="548.1597" y="404.5425">1</text><text fill="#000000" font-family="sans-serif" font-size="9.1" lengthAdjust="spacing" textLength="4.9" x="993.2684" y="444.7062">1</text></g><!--SRC=[jLHTRzem57tthx1u8MYbMddaOLBLiWgfQ19iUtUJIx3g-4QsqSRG_lkkII1sI2YjD2f1xNFFkTyUsbUfIs54mGlKc6uC5i2TsG9ha5AahoA7bTifu5zHPM02r6v4Xh-aplbQA1lobDJWTYNm4jNE7zYm0qJZa0MiL0bhxvqpycNhO9wYNia_m3ypDbImTjmXDpBVE9v90wcJg1ch8-G_vdjsuFDdQTsJ0T0hmi3Vix_qTpHyGEqCAWMccn3Yd3wVU0u1x8sJKOsa1eI3Flx9pE6ZmoIFD4PHK8zO2Adtf_FijmEZXLfWjbMmPrBJUKrKFeYX0HUMpnPLg6CVwXBMO42dy5EeBIIMYamT-bRwSdcdLSwnodqcIZhV1HbVbgdC_EMX7d5gD-_nEVbVFflYBaHPDjrkEdMyhqiNwL73BZQlmaIMDNA13J56ONSTddi_N5QkjIYW_ZUJ1MZh9xiwamS3rXvh5B83VrM-xN6wNG9QwT3iphqleJnXNVc_EVg4nFrCFZWL3xGhuWMDe63Eeqe3D8uhv7qtkCqtCqfQ9U2_lNojVzAKO4br75tue5jPDZ4aesbaN9lEjNM2XlGChdhGVdxuxPVU5uRr0PuKQlCfDw6h21kVsSewn8lwNIbFWp5eRcDtWxi17vDF_zkbqU_qm6mJgosSjkUlRT1DfZK8cVs1Ta_PD9glQrAWkhrJggj4OJAp1JMiQvi823FeVh4hRklXl8uxwU6-6N1V8AV5ZpRzflrqVaX_ShN-Fm00]--></g></svg>