<?xml version="1.0" encoding="us-ascii" standalone="no"?><svg xmlns="http://www.w3.org/2000/svg" xmlns:xlink="http://www.w3.org/1999/xlink" contentStyleType="text/css" height="512px" preserveAspectRatio="none" style="width:774px;height:512px;background:#FFFFFF;" version="1.1" viewBox="0 0 774 512" width="774px" zoomAndPan="magnify"><defs/><g><rect fill="#FFFFFF" height="347.8613" style="stroke:#181818;stroke-width:1.0;" width="10" x="166" y="90.5332"/><rect fill="#FFFFFF" height="31.291" style="stroke:#181818;stroke-width:1.0;" width="10" x="369" y="299.2305"/><rect fill="#FFFFFF" height="31.291" style="stroke:#181818;stroke-width:1.0;" width="10" x="507" y="236.6484"/><rect fill="#FFFFFF" height="38.291" style="stroke:#181818;stroke-width:1.0;" width="10" x="664" y="361.8125"/><rect fill="none" height="302.5703" style="stroke:#000000;stroke-width:1.5;" width="690" x="78" y="105.5332"/><rect fill="none" height="175.7461" style="stroke:#000000;stroke-width:1.5;" width="670" x="88" y="194.0664"/><line style="stroke:#181818;stroke-width:0.5;stroke-dasharray:5.0,5.0;" x1="171" x2="171" y1="57.2422" y2="456.3945"/><line style="stroke:#181818;stroke-width:0.5;stroke-dasharray:5.0,5.0;" x1="374" x2="374" y1="57.2422" y2="456.3945"/><line style="stroke:#181818;stroke-width:0.5;stroke-dasharray:5.0,5.0;" x1="512" x2="512" y1="57.2422" y2="456.3945"/><line style="stroke:#181818;stroke-width:0.5;stroke-dasharray:5.0,5.0;" x1="669" x2="669" y1="165.9453" y2="456.3945"/><rect fill="#E3E3E3" height="32.6211" rx="2.5" ry="2.5" style="stroke:#181818;stroke-width:0.5;" width="146" x="98" y="23.6211"/><text fill="#000000" font-family="sans-serif" font-size="14" lengthAdjust="spacing" textLength="132" x="105" y="45.7285">:GreenSpaceMapper</text><rect fill="#E3E3E3" height="32.6211" rx="2.5" ry="2.5" style="stroke:#181818;stroke-width:0.5;" width="146" x="98" y="455.3945"/><text fill="#000000" font-family="sans-serif" font-size="14" lengthAdjust="spacing" textLength="132" x="105" y="477.502">:GreenSpaceMapper</text><rect fill="#E3E3E3" height="51.2422" rx="2.5" ry="2.5" style="stroke:#181818;stroke-width:0.5;" width="120" x="314" y="5"/><text fill="#000000" font-family="sans-serif" font-size="14" lengthAdjust="spacing" textLength="99" x="324.5" y="27.1074">greenSpaceDto</text><text fill="#000000" font-family="sans-serif" font-size="14" lengthAdjust="spacing" textLength="106" x="321" y="45.7285">:GreenSpaceDto</text><rect fill="#E3E3E3" height="51.2422" rx="2.5" ry="2.5" style="stroke:#181818;stroke-width:0.5;" width="120" x="314" y="455.3945"/><text fill="#000000" font-family="sans-serif" font-size="14" lengthAdjust="spacing" textLength="99" x="324.5" y="477.502">greenSpaceDto</text><text fill="#000000" font-family="sans-serif" font-size="14" lengthAdjust="spacing" textLength="106" x="321" y="496.123">:GreenSpaceDto</text><rect fill="#E3E3E3" height="51.2422" rx="2.5" ry="2.5" style="stroke:#181818;stroke-width:0.5;" width="136" x="444" y="5"/><text fill="#000000" font-family="sans-serif" font-size="14" lengthAdjust="spacing" textLength="99" x="462.5" y="27.1074">greenSpaceList</text><text fill="#000000" font-family="sans-serif" font-size="14" lengthAdjust="spacing" textLength="122" x="451" y="45.7285">:List&lt;GreenSpace&gt;</text><rect fill="#E3E3E3" height="51.2422" rx="2.5" ry="2.5" style="stroke:#181818;stroke-width:0.5;" width="136" x="444" y="455.3945"/><text fill="#000000" font-family="sans-serif" font-size="14" lengthAdjust="spacing" textLength="99" x="462.5" y="477.502">greenSpaceList</text><text fill="#000000" font-family="sans-serif" font-size="14" lengthAdjust="spacing" textLength="122" x="451" y="496.123">:List&lt;GreenSpace&gt;</text><rect fill="#E3E3E3" height="51.2422" rx="2.5" ry="2.5" style="stroke:#181818;stroke-width:0.5;" width="158" x="590" y="455.3945"/><text fill="#000000" font-family="sans-serif" font-size="14" lengthAdjust="spacing" textLength="121" x="608.5" y="477.502">greenSpaceListDto</text><text fill="#000000" font-family="sans-serif" font-size="14" lengthAdjust="spacing" textLength="144" x="597" y="496.123">:List&lt;GreenSpaceDto&gt;</text><rect fill="#FFFFFF" height="347.8613" style="stroke:#181818;stroke-width:1.0;" width="10" x="166" y="90.5332"/><rect fill="#FFFFFF" height="31.291" style="stroke:#181818;stroke-width:1.0;" width="10" x="369" y="299.2305"/><rect fill="#FFFFFF" height="31.291" style="stroke:#181818;stroke-width:1.0;" width="10" x="507" y="236.6484"/><rect fill="#FFFFFF" height="38.291" style="stroke:#181818;stroke-width:1.0;" width="10" x="664" y="361.8125"/><polygon fill="#181818" points="154,86.5332,164,90.5332,154,94.5332,158,90.5332" style="stroke:#181818;stroke-width:1.0;"/><line style="stroke:#181818;stroke-width:1.0;" x1="0" x2="160" y1="90.5332" y2="90.5332"/><text fill="#000000" font-family="sans-serif" font-size="13" font-weight="bold" lengthAdjust="spacing" textLength="14" x="7" y="85.2705">12</text><text fill="#000000" font-family="sans-serif" font-size="13" lengthAdjust="spacing" textLength="129" x="25" y="85.2705">toDto(greenSpaceList)</text><path d="M78,105.5332 L332,105.5332 L332,114.8242 L322,124.8242 L78,124.8242 L78,105.5332 " fill="#EEEEEE" style="stroke:#000000;stroke-width:1.5;"/><rect fill="none" height="302.5703" style="stroke:#000000;stroke-width:1.5;" width="690" x="78" y="105.5332"/><text fill="#000000" font-family="sans-serif" font-size="13" font-weight="bold" lengthAdjust="spacing" textLength="209" x="93" y="120.5615">Create a copy of GreenSpace list</text><polygon fill="#181818" points="578,144.1152,588,148.1152,578,152.1152,582,148.1152" style="stroke:#181818;stroke-width:1.0;"/><line style="stroke:#181818;stroke-width:1.0;stroke-dasharray:2.0,2.0;" x1="176" x2="584" y1="148.1152" y2="148.1152"/><text fill="#000000" font-family="sans-serif" font-size="13" font-weight="bold" lengthAdjust="spacing" textLength="25" x="183" y="142.8525">12.1</text><text fill="#000000" font-family="sans-serif" font-size="13" lengthAdjust="spacing" textLength="44" x="212" y="142.8525">create()</text><rect fill="#E3E3E3" height="51.2422" rx="2.5" ry="2.5" style="stroke:#181818;stroke-width:0.5;" width="158" x="590" y="124.8242"/><text fill="#000000" font-family="sans-serif" font-size="14" lengthAdjust="spacing" textLength="121" x="608.5" y="146.9316">greenSpaceListDto</text><text fill="#000000" font-family="sans-serif" font-size="14" lengthAdjust="spacing" textLength="144" x="597" y="165.5527">:List&lt;GreenSpaceDto&gt;</text><path d="M88,194.0664 L161,194.0664 L161,203.3574 L151,213.3574 L88,213.3574 L88,194.0664 " fill="#EEEEEE" style="stroke:#000000;stroke-width:1.5;"/><rect fill="none" height="175.7461" style="stroke:#000000;stroke-width:1.5;" width="670" x="88" y="194.0664"/><text fill="#000000" font-family="sans-serif" font-size="13" font-weight="bold" lengthAdjust="spacing" textLength="28" x="103" y="209.0947">loop</text><text fill="#000000" font-family="sans-serif" font-size="11" font-weight="bold" lengthAdjust="spacing" textLength="225" x="176" y="207.9365">[for each greenSpace in greenSpaceList]</text><polygon fill="#181818" points="495,232.6484,505,236.6484,495,240.6484,499,236.6484" style="stroke:#181818;stroke-width:1.0;"/><line style="stroke:#181818;stroke-width:1.0;" x1="176" x2="501" y1="236.6484" y2="236.6484"/><text fill="#000000" font-family="sans-serif" font-size="13" font-weight="bold" lengthAdjust="spacing" textLength="25" x="183" y="231.3857">12.2</text><text fill="#000000" font-family="sans-serif" font-size="13" lengthAdjust="spacing" textLength="29" x="212" y="231.3857">get(i)</text><polygon fill="#181818" points="187,263.9395,177,267.9395,187,271.9395,183,267.9395" style="stroke:#181818;stroke-width:1.0;"/><line style="stroke:#181818;stroke-width:1.0;stroke-dasharray:2.0,2.0;" x1="181" x2="511" y1="267.9395" y2="267.9395"/><text fill="#000000" font-family="sans-serif" font-size="13" font-weight="bold" lengthAdjust="spacing" textLength="25" x="193" y="262.6768">12.3</text><text fill="#000000" font-family="sans-serif" font-size="13" lengthAdjust="spacing" textLength="69" x="222" y="262.6768">greenSpace</text><polygon fill="#181818" points="357,295.2305,367,299.2305,357,303.2305,361,299.2305" style="stroke:#181818;stroke-width:1.0;"/><line style="stroke:#181818;stroke-width:1.0;" x1="176" x2="363" y1="299.2305" y2="299.2305"/><text fill="#000000" font-family="sans-serif" font-size="13" font-weight="bold" lengthAdjust="spacing" textLength="25" x="183" y="293.9678">12.4</text><text fill="#000000" font-family="sans-serif" font-size="13" lengthAdjust="spacing" textLength="145" x="212" y="293.9678">toDTOEntry(greenSpace)</text><polygon fill="#181818" points="187,326.5215,177,330.5215,187,334.5215,183,330.5215" style="stroke:#181818;stroke-width:1.0;"/><line style="stroke:#181818;stroke-width:1.0;stroke-dasharray:2.0,2.0;" x1="181" x2="373" y1="330.5215" y2="330.5215"/><text fill="#000000" font-family="sans-serif" font-size="13" font-weight="bold" lengthAdjust="spacing" textLength="25" x="193" y="325.2588">12.5</text><text fill="#000000" font-family="sans-serif" font-size="13" lengthAdjust="spacing" textLength="89" x="222" y="325.2588">greenSpaceDto</text><polygon fill="#181818" points="652,357.8125,662,361.8125,652,365.8125,656,361.8125" style="stroke:#181818;stroke-width:1.0;"/><line style="stroke:#181818;stroke-width:1.0;" x1="176" x2="658" y1="361.8125" y2="361.8125"/><text fill="#000000" font-family="sans-serif" font-size="13" font-weight="bold" lengthAdjust="spacing" textLength="25" x="183" y="356.5498">12.6</text><text fill="#000000" font-family="sans-serif" font-size="13" lengthAdjust="spacing" textLength="118" x="212" y="356.5498">add(greenSpaceDto)</text><polygon fill="#181818" points="187,396.1035,177,400.1035,187,404.1035,183,400.1035" style="stroke:#181818;stroke-width:1.0;"/><line style="stroke:#181818;stroke-width:1.0;stroke-dasharray:2.0,2.0;" x1="181" x2="668" y1="400.1035" y2="400.1035"/><text fill="#000000" font-family="sans-serif" font-size="13" font-weight="bold" lengthAdjust="spacing" textLength="25" x="193" y="394.8408">12.7</text><text fill="#000000" font-family="sans-serif" font-size="13" lengthAdjust="spacing" textLength="110" x="222" y="394.8408">greenSpaceListDto</text><polygon fill="#181818" points="11,434.3945,1,438.3945,11,442.3945,7,438.3945" style="stroke:#181818;stroke-width:1.0;"/><line style="stroke:#181818;stroke-width:1.0;stroke-dasharray:2.0,2.0;" x1="5" x2="170" y1="438.3945" y2="438.3945"/><text fill="#000000" font-family="sans-serif" font-size="13" font-weight="bold" lengthAdjust="spacing" textLength="14" x="17" y="433.1318">13</text><text fill="#000000" font-family="sans-serif" font-size="13" lengthAdjust="spacing" textLength="110" x="35" y="433.1318">greenSpaceListDto</text><!--SRC=[ZLCxRy8m4DxzAqui3KYfHBiXn5AggX8L0unTZkH8B1BRSfos_FlQUO0JOSGjIPplST_PhavSADHOGYc5J78jImAZQsBLvO_2v8GPxSov8D2K61HPuGEg75FvoqK6HomgOWnh8qLT7aWpzfJpbE0efJd8FyOim_24AnG69eiFJIHsre2-K2dI4y0AsjSXChi0rqP-2uzelnlMUhyDKJQyCfRZ7iihSTNGXgXx2gtnICGkjZgRpztUjU1bX_aBOn2lka2m02CjFXhAJeUCvpd3nF0VDDGF0cnbMjOAtZIvTOH4gZF88rmRWSArts3xwcnZsq7NtMnccqWQaMWwmBegf5HsepGG9hat6E1YF2QuKRtTQWIsbXcPY4zlibnT0ezSWeIHGUpF-FelI4yfv7W_bvrWkudxxRim-kpjv0FXcjCHGZdfG0nxP1v9ukJljzyT0YkEQHeD31velp_WOm29b0rpzJw1FDrTOg4Wlf4JRxhmhiXhwxQCurxzfZpp9BkBT6Ff7m00]--></g></svg>