<?xml version="1.0" encoding="us-ascii" standalone="no"?><svg xmlns="http://www.w3.org/2000/svg" xmlns:xlink="http://www.w3.org/1999/xlink" contentStyleType="text/css" height="723px" preserveAspectRatio="none" style="width:1284px;height:723px;background:#FFFFFF;" version="1.1" viewBox="0 0 1284 723" width="1284px" zoomAndPan="magnify"><defs/><g><rect fill="#FFFFFF" height="558.5977" style="stroke:#181818;stroke-width:1.0;" width="10" x="205" y="90.5332"/><rect fill="#FFFFFF" height="33.6211" style="stroke:#181818;stroke-width:1.0;" width="10" x="399.5" y="158.1152"/><rect fill="#FFFFFF" height="52.2422" style="stroke:#181818;stroke-width:1.0;" width="10" x="546.5" y="233.0273"/><rect fill="#FFFFFF" height="52.2422" style="stroke:#181818;stroke-width:1.0;" width="10" x="679.5" y="326.5605"/><rect fill="#FFFFFF" height="31.291" style="stroke:#181818;stroke-width:1.0;" width="10" x="792.5" y="410.0938"/><rect fill="#FFFFFF" height="31.291" style="stroke:#181818;stroke-width:1.0;" width="10" x="899.5" y="472.6758"/><rect fill="#FFFFFF" height="75.582" style="stroke:#181818;stroke-width:1.0;" width="10" x="1040" y="535.2578"/><rect fill="#FFFFFF" height="36.291" style="stroke:#181818;stroke-width:1.0;" width="10" x="1045" y="574.5488"/><rect fill="none" height="513.3066" style="stroke:#000000;stroke-width:1.5;" width="1144.5" x="133.5" y="105.5332"/><line style="stroke:#181818;stroke-width:0.5;stroke-dasharray:5.0,5.0;" x1="209.5" x2="209.5" y1="57.2422" y2="667.1309"/><line style="stroke:#181818;stroke-width:0.5;stroke-dasharray:5.0,5.0;" x1="404" x2="404" y1="156.6348" y2="667.1309"/><line style="stroke:#181818;stroke-width:0.5;stroke-dasharray:5.0,5.0;" x1="551" x2="551" y1="240.8574" y2="667.1309"/><line style="stroke:#181818;stroke-width:0.5;stroke-dasharray:5.0,5.0;" x1="684" x2="684" y1="334.3906" y2="667.1309"/><line style="stroke:#181818;stroke-width:0.5;stroke-dasharray:5.0,5.0;" x1="797" x2="797" y1="57.2422" y2="667.1309"/><line style="stroke:#181818;stroke-width:0.5;stroke-dasharray:5.0,5.0;" x1="904" x2="904" y1="57.2422" y2="667.1309"/><line style="stroke:#181818;stroke-width:0.5;stroke-dasharray:5.0,5.0;" x1="1045" x2="1045" y1="57.2422" y2="667.1309"/><rect fill="#E3E3E3" height="32.6211" rx="2.5" ry="2.5" style="stroke:#181818;stroke-width:0.5;" width="133" x="143.5" y="23.6211"/><text fill="#000000" font-family="sans-serif" font-size="14" lengthAdjust="spacing" textLength="119" x="150.5" y="45.7285">:ListTaskController</text><rect fill="#E3E3E3" height="32.6211" rx="2.5" ry="2.5" style="stroke:#181818;stroke-width:0.5;" width="133" x="143.5" y="666.1309"/><text fill="#000000" font-family="sans-serif" font-size="14" lengthAdjust="spacing" textLength="119" x="150.5" y="688.2383">:ListTaskController</text><rect fill="#E3E3E3" height="32.6211" rx="2.5" ry="2.5" style="stroke:#181818;stroke-width:0.5;" width="137" x="336" y="666.1309"/><text fill="#000000" font-family="sans-serif" font-size="14" lengthAdjust="spacing" textLength="123" x="343" y="688.2383">:ApplicationSession</text><rect fill="#E3E3E3" height="51.2422" rx="2.5" ry="2.5" style="stroke:#181818;stroke-width:0.5;" width="137" x="483" y="666.1309"/><text fill="#000000" font-family="sans-serif" font-size="14" lengthAdjust="spacing" textLength="74" x="514.5" y="688.2383">appSession</text><text fill="#000000" font-family="sans-serif" font-size="14" lengthAdjust="spacing" textLength="123" x="490" y="706.8594">:ApplicationSession</text><rect fill="#E3E3E3" height="51.2422" rx="2.5" ry="2.5" style="stroke:#181818;stroke-width:0.5;" width="109" x="630" y="666.1309"/><text fill="#000000" font-family="sans-serif" font-size="14" lengthAdjust="spacing" textLength="95" x="637" y="688.2383">currentSession</text><text fill="#000000" font-family="sans-serif" font-size="14" lengthAdjust="spacing" textLength="83" x="643" y="706.8594">:UserSession</text><rect fill="#E3E3E3" height="32.6211" rx="2.5" ry="2.5" style="stroke:#181818;stroke-width:0.5;" width="97" x="749" y="23.6211"/><text fill="#000000" font-family="sans-serif" font-size="14" lengthAdjust="spacing" textLength="83" x="756" y="45.7285">:Repositories</text><rect fill="#E3E3E3" height="32.6211" rx="2.5" ry="2.5" style="stroke:#181818;stroke-width:0.5;" width="97" x="749" y="666.1309"/><text fill="#000000" font-family="sans-serif" font-size="14" lengthAdjust="spacing" textLength="83" x="756" y="688.2383">:Repositories</text><rect fill="#E3E3E3" height="51.2422" rx="2.5" ry="2.5" style="stroke:#181818;stroke-width:0.5;" width="97" x="856" y="5"/><text fill="#000000" font-family="sans-serif" font-size="14" lengthAdjust="spacing" textLength="74" x="867.5" y="27.1074">repositories</text><text fill="#000000" font-family="sans-serif" font-size="14" lengthAdjust="spacing" textLength="83" x="863" y="45.7285">:Repositories</text><rect fill="#E3E3E3" height="51.2422" rx="2.5" ry="2.5" style="stroke:#181818;stroke-width:0.5;" width="97" x="856" y="666.1309"/><text fill="#000000" font-family="sans-serif" font-size="14" lengthAdjust="spacing" textLength="74" x="867.5" y="688.2383">repositories</text><text fill="#000000" font-family="sans-serif" font-size="14" lengthAdjust="spacing" textLength="83" x="863" y="706.8594">:Repositories</text><rect fill="#E3E3E3" height="51.2422" rx="2.5" ry="2.5" style="stroke:#181818;stroke-width:0.5;" width="164" x="963" y="5"/><text fill="#000000" font-family="sans-serif" font-size="14" lengthAdjust="spacing" textLength="143" x="973.5" y="27.1074">collaboratorRepository</text><text fill="#000000" font-family="sans-serif" font-size="14" lengthAdjust="spacing" textLength="150" x="970" y="45.7285">:CollaboratorRepository</text><rect fill="#E3E3E3" height="51.2422" rx="2.5" ry="2.5" style="stroke:#181818;stroke-width:0.5;" width="164" x="963" y="666.1309"/><text fill="#000000" font-family="sans-serif" font-size="14" lengthAdjust="spacing" textLength="143" x="973.5" y="688.2383">collaboratorRepository</text><text fill="#000000" font-family="sans-serif" font-size="14" lengthAdjust="spacing" textLength="150" x="970" y="706.8594">:CollaboratorRepository</text><rect fill="#FFFFFF" height="558.5977" style="stroke:#181818;stroke-width:1.0;" width="10" x="205" y="90.5332"/><rect fill="#FFFFFF" height="33.6211" style="stroke:#181818;stroke-width:1.0;" width="10" x="399.5" y="158.1152"/><rect fill="#FFFFFF" height="52.2422" style="stroke:#181818;stroke-width:1.0;" width="10" x="546.5" y="233.0273"/><rect fill="#FFFFFF" height="52.2422" style="stroke:#181818;stroke-width:1.0;" width="10" x="679.5" y="326.5605"/><rect fill="#FFFFFF" height="31.291" style="stroke:#181818;stroke-width:1.0;" width="10" x="792.5" y="410.0938"/><rect fill="#FFFFFF" height="31.291" style="stroke:#181818;stroke-width:1.0;" width="10" x="899.5" y="472.6758"/><rect fill="#FFFFFF" height="75.582" style="stroke:#181818;stroke-width:1.0;" width="10" x="1040" y="535.2578"/><rect fill="#FFFFFF" height="36.291" style="stroke:#181818;stroke-width:1.0;" width="10" x="1045" y="574.5488"/><polygon fill="#181818" points="193,86.5332,203,90.5332,193,94.5332,197,90.5332" style="stroke:#181818;stroke-width:1.0;"/><line style="stroke:#181818;stroke-width:1.0;" x1="0" x2="199" y1="90.5332" y2="90.5332"/><text fill="#000000" font-family="sans-serif" font-size="13" font-weight="bold" lengthAdjust="spacing" textLength="7" x="7" y="85.2705">3</text><text fill="#000000" font-family="sans-serif" font-size="13" lengthAdjust="spacing" textLength="175" x="18" y="85.2705">getCollaboratorByEmail(email)</text><path d="M133.5,105.5332 L342.5,105.5332 L342.5,114.8242 L332.5,124.8242 L133.5,124.8242 L133.5,105.5332 " fill="#EEEEEE" style="stroke:#000000;stroke-width:1.5;"/><rect fill="none" height="513.3066" style="stroke:#000000;stroke-width:1.5;" width="1144.5" x="133.5" y="105.5332"/><text fill="#000000" font-family="sans-serif" font-size="13" font-weight="bold" lengthAdjust="spacing" textLength="164" x="148.5" y="120.5615">Get Collaborator by Email</text><polygon fill="#181818" points="324,144.1152,334,148.1152,324,152.1152,328,148.1152" style="stroke:#181818;stroke-width:1.0;"/><line style="stroke:#181818;stroke-width:1.0;" x1="215" x2="330" y1="148.1152" y2="148.1152"/><text fill="#000000" font-family="sans-serif" font-size="13" font-weight="bold" lengthAdjust="spacing" textLength="18" x="222" y="142.8525">3.1</text><text fill="#000000" font-family="sans-serif" font-size="13" lengthAdjust="spacing" textLength="75" x="244" y="142.8525">getInstance()</text><rect fill="#E3E3E3" height="32.6211" rx="2.5" ry="2.5" style="stroke:#181818;stroke-width:0.5;" width="137" x="336" y="124.8242"/><text fill="#000000" font-family="sans-serif" font-size="14" lengthAdjust="spacing" textLength="123" x="343" y="146.9316">:ApplicationSession</text><polygon fill="#181818" points="226,187.7363,216,191.7363,226,195.7363,222,191.7363" style="stroke:#181818;stroke-width:1.0;"/><line style="stroke:#181818;stroke-width:1.0;" x1="220" x2="403.5" y1="191.7363" y2="191.7363"/><text fill="#000000" font-family="sans-serif" font-size="13" font-weight="bold" lengthAdjust="spacing" textLength="18" x="232" y="186.4736">3.2</text><text fill="#000000" font-family="sans-serif" font-size="13" lengthAdjust="spacing" textLength="68" x="254" y="186.4736">appSession</text><polygon fill="#181818" points="471,219.0273,481,223.0273,471,227.0273,475,223.0273" style="stroke:#181818;stroke-width:1.0;"/><line style="stroke:#181818;stroke-width:1.0;" x1="215" x2="477" y1="223.0273" y2="223.0273"/><text fill="#000000" font-family="sans-serif" font-size="13" font-weight="bold" lengthAdjust="spacing" textLength="18" x="222" y="217.7646">3.3</text><text fill="#000000" font-family="sans-serif" font-size="13" lengthAdjust="spacing" textLength="115" x="244" y="217.7646">getCurrentSession()</text><rect fill="#E3E3E3" height="51.2422" rx="2.5" ry="2.5" style="stroke:#181818;stroke-width:0.5;" width="137" x="483" y="199.7363"/><text fill="#000000" font-family="sans-serif" font-size="14" lengthAdjust="spacing" textLength="74" x="514.5" y="221.8438">appSession</text><text fill="#000000" font-family="sans-serif" font-size="14" lengthAdjust="spacing" textLength="123" x="490" y="240.4648">:ApplicationSession</text><polygon fill="#181818" points="226,281.2695,216,285.2695,226,289.2695,222,285.2695" style="stroke:#181818;stroke-width:1.0;"/><line style="stroke:#181818;stroke-width:1.0;stroke-dasharray:2.0,2.0;" x1="220" x2="550.5" y1="285.2695" y2="285.2695"/><text fill="#000000" font-family="sans-serif" font-size="13" font-weight="bold" lengthAdjust="spacing" textLength="18" x="232" y="280.0068">3.4</text><text fill="#000000" font-family="sans-serif" font-size="13" lengthAdjust="spacing" textLength="87" x="254" y="280.0068">currentSession</text><polygon fill="#181818" points="618,312.5605,628,316.5605,618,320.5605,622,316.5605" style="stroke:#181818;stroke-width:1.0;"/><line style="stroke:#181818;stroke-width:1.0;" x1="215" x2="624" y1="316.5605" y2="316.5605"/><text fill="#000000" font-family="sans-serif" font-size="13" font-weight="bold" lengthAdjust="spacing" textLength="18" x="222" y="311.2979">3.5</text><text fill="#000000" font-family="sans-serif" font-size="13" lengthAdjust="spacing" textLength="86" x="244" y="311.2979">getUserEmail()</text><rect fill="#E3E3E3" height="51.2422" rx="2.5" ry="2.5" style="stroke:#181818;stroke-width:0.5;" width="109" x="630" y="293.2695"/><text fill="#000000" font-family="sans-serif" font-size="14" lengthAdjust="spacing" textLength="95" x="637" y="315.377">currentSession</text><text fill="#000000" font-family="sans-serif" font-size="14" lengthAdjust="spacing" textLength="83" x="643" y="333.998">:UserSession</text><polygon fill="#181818" points="226,374.8027,216,378.8027,226,382.8027,222,378.8027" style="stroke:#181818;stroke-width:1.0;"/><line style="stroke:#181818;stroke-width:1.0;stroke-dasharray:2.0,2.0;" x1="220" x2="683.5" y1="378.8027" y2="378.8027"/><text fill="#000000" font-family="sans-serif" font-size="13" font-weight="bold" lengthAdjust="spacing" textLength="18" x="232" y="373.54">3.6</text><text fill="#000000" font-family="sans-serif" font-size="13" lengthAdjust="spacing" textLength="31" x="254" y="373.54">email</text><polygon fill="#181818" points="780.5,406.0938,790.5,410.0938,780.5,414.0938,784.5,410.0938" style="stroke:#181818;stroke-width:1.0;"/><line style="stroke:#181818;stroke-width:1.0;" x1="215" x2="786.5" y1="410.0938" y2="410.0938"/><text fill="#000000" font-family="sans-serif" font-size="13" font-weight="bold" lengthAdjust="spacing" textLength="18" x="222" y="404.8311">3.7</text><text fill="#000000" font-family="sans-serif" font-size="13" lengthAdjust="spacing" textLength="75" x="244" y="404.8311">getInstance()</text><polygon fill="#181818" points="226,437.3848,216,441.3848,226,445.3848,222,441.3848" style="stroke:#181818;stroke-width:1.0;"/><line style="stroke:#181818;stroke-width:1.0;stroke-dasharray:2.0,2.0;" x1="220" x2="796.5" y1="441.3848" y2="441.3848"/><text fill="#000000" font-family="sans-serif" font-size="13" font-weight="bold" lengthAdjust="spacing" textLength="18" x="232" y="436.1221">3.8</text><text fill="#000000" font-family="sans-serif" font-size="13" lengthAdjust="spacing" textLength="67" x="254" y="436.1221">repositories</text><polygon fill="#181818" points="887.5,468.6758,897.5,472.6758,887.5,476.6758,891.5,472.6758" style="stroke:#181818;stroke-width:1.0;"/><line style="stroke:#181818;stroke-width:1.0;" x1="215" x2="893.5" y1="472.6758" y2="472.6758"/><text fill="#000000" font-family="sans-serif" font-size="13" font-weight="bold" lengthAdjust="spacing" textLength="18" x="222" y="467.4131">3.9</text><text fill="#000000" font-family="sans-serif" font-size="13" lengthAdjust="spacing" textLength="149" x="244" y="467.4131">getCollaboratorRepository</text><polygon fill="#181818" points="226,499.9668,216,503.9668,226,507.9668,222,503.9668" style="stroke:#181818;stroke-width:1.0;"/><line style="stroke:#181818;stroke-width:1.0;stroke-dasharray:2.0,2.0;" x1="220" x2="903.5" y1="503.9668" y2="503.9668"/><text fill="#000000" font-family="sans-serif" font-size="13" font-weight="bold" lengthAdjust="spacing" textLength="25" x="232" y="498.7041">3.10</text><text fill="#000000" font-family="sans-serif" font-size="13" lengthAdjust="spacing" textLength="129" x="261" y="498.7041">collaboratorRepository</text><polygon fill="#181818" points="1028,531.2578,1038,535.2578,1028,539.2578,1032,535.2578" style="stroke:#181818;stroke-width:1.0;"/><line style="stroke:#181818;stroke-width:1.0;" x1="215" x2="1034" y1="535.2578" y2="535.2578"/><text fill="#000000" font-family="sans-serif" font-size="13" font-weight="bold" lengthAdjust="spacing" textLength="25" x="222" y="529.9951">3.11</text><text fill="#000000" font-family="sans-serif" font-size="13" lengthAdjust="spacing" textLength="175" x="251" y="529.9951">getCollaboratorByEmail(email)</text><line style="stroke:#181818;stroke-width:1.0;" x1="1050" x2="1097" y1="561.5488" y2="561.5488"/><line style="stroke:#181818;stroke-width:1.0;" x1="1097" x2="1097" y1="561.5488" y2="574.5488"/><line style="stroke:#181818;stroke-width:1.0;" x1="1056" x2="1097" y1="574.5488" y2="574.5488"/><polygon fill="#181818" points="1066,570.5488,1056,574.5488,1066,578.5488,1062,574.5488" style="stroke:#181818;stroke-width:1.0;"/><text fill="#000000" font-family="sans-serif" font-size="13" font-weight="bold" lengthAdjust="spacing" textLength="25" x="1062" y="556.2861">3.12</text><text fill="#000000" font-family="sans-serif" font-size="13" lengthAdjust="spacing" textLength="175" x="1091" y="556.2861">getCollaboratorByEmail(email)</text><polygon fill="#181818" points="226,606.8398,216,610.8398,226,614.8398,222,610.8398" style="stroke:#181818;stroke-width:1.0;"/><line style="stroke:#181818;stroke-width:1.0;stroke-dasharray:2.0,2.0;" x1="220" x2="1044" y1="610.8398" y2="610.8398"/><text fill="#000000" font-family="sans-serif" font-size="13" font-weight="bold" lengthAdjust="spacing" textLength="25" x="232" y="605.5771">3.13</text><text fill="#000000" font-family="sans-serif" font-size="13" lengthAdjust="spacing" textLength="119" x="261" y="605.5771">greenSpaceManager</text><polygon fill="#181818" points="11,645.1309,1,649.1309,11,653.1309,7,649.1309" style="stroke:#181818;stroke-width:1.0;"/><line style="stroke:#181818;stroke-width:1.0;stroke-dasharray:2.0,2.0;" x1="5" x2="209" y1="649.1309" y2="649.1309"/><text fill="#000000" font-family="sans-serif" font-size="13" font-weight="bold" lengthAdjust="spacing" textLength="7" x="17" y="643.8682">4</text><text fill="#000000" font-family="sans-serif" font-size="13" lengthAdjust="spacing" textLength="119" x="28" y="643.8682">greenSpaceManager</text><!--SRC=[fPLHQzim4CVVzIcElgmjf32wfp06NJ2Zq7MXxju6u-9S7H5RCfAyBTz-iX8hiYtRBTL33DR__lUBxaxMUougL5X2AONCTagM14RLnBJVgJ3ROqwfEHG4YZA38Yz2WTxXLlxb8eSNB3GnXhMHeYutf1ZxiEDRWXSfpKR-Oyn669xn2eM1Y-K3r-OPzNubXL6oA4XT06fOFJyzz9HtLLNm30sN8YMjxSCfVz-jrrqbLjL9y4kCHGs2ibef4kOS-5EJ2YFI94tlVppse9weafeRgJXf9_Cl3Ybl3iaUGpT41H4spT0WwPFPKy6DL6X5PtSRkefkE9DuJ5WMk6KC5b_SGSCISZAXtTT3KY8lBgdvlUg4tNnac1d-1mqTgmHsvKhM5NmZ0w4BR0xWV9WJDSkbiscRgbrVkxptGjj-okZoogk2vNEvEiSKRZMxxTzPmha3OW5RcZTjES-Ogqw3pC1EiZfKpzfjl1dUETnJavwGcnO-rd6QjctjKUAJ8A1sZJ43szhs8ICZCjO8tYisLftq4K606muTYw1EsdlkP3qOb62uXin9hrZsHLZuQPkGBZHgQUBXSvCyW1oxAKBkkERz46y6cOBnvveh8f7QJnPzHs6_MegDzETSnbTAIMpTCxWaFtcFpul5iM8G0miokAlqFm00]--></g></svg>