<?xml version="1.0" encoding="us-ascii" standalone="no"?><svg xmlns="http://www.w3.org/2000/svg" xmlns:xlink="http://www.w3.org/1999/xlink" contentStyleType="text/css" height="755px" preserveAspectRatio="none" style="width:543px;height:755px;background:#FFFFFF;" version="1.1" viewBox="0 0 543 755" width="543px" zoomAndPan="magnify"><defs/><g><!--cluster actors--><g id="cluster_actors"><rect fill="none" height="283" rx="2.5" ry="2.5" style="stroke:#181818;stroke-width:1.0;" width="148" x="7" y="268"/><text fill="#000000" font-family="sans-serif" font-size="14" font-weight="bold" lengthAdjust="spacing" textLength="99" x="31.5" y="285.1074">System Actors</text></g><!--cluster usecases--><g id="cluster_usecases"><rect fill="none" height="742" rx="2.5" ry="2.5" style="stroke:#181818;stroke-width:1.0;" width="354" x="183" y="7"/><text fill="#000000" font-family="sans-serif" font-size="14" font-weight="bold" lengthAdjust="spacing" textLength="74" x="323" y="24.1074">Use Cases</text></g><!--entity HRM--><g id="elem_HRM"><ellipse cx="81" cy="314" fill="#F1F1F1" rx="8" ry="8" style="stroke:#181818;stroke-width:0.5;"/><path d="M81,322 L81,349 M68,330 L94,330 M81,349 L68,364 M81,349 L94,364 " fill="none" style="stroke:#181818;stroke-width:0.5;"/><text fill="#000000" font-family="sans-serif" font-size="14" lengthAdjust="spacing" textLength="116" x="23" y="380.6074">Human Resources</text><text fill="#000000" font-family="sans-serif" font-size="14" lengthAdjust="spacing" textLength="56" x="23" y="399.2285">Manager</text></g><!--entity FM--><g id="elem_FM"><ellipse cx="81" cy="446" fill="#F1F1F1" rx="8" ry="8" style="stroke:#181818;stroke-width:0.5;"/><path d="M81,454 L81,481 M68,462 L94,462 M81,481 L68,496 M81,481 L94,496 " fill="none" style="stroke:#181818;stroke-width:0.5;"/><text fill="#000000" font-family="sans-serif" font-size="14" lengthAdjust="spacing" textLength="82" x="40" y="512.6074">Vehicle Fleet</text><text fill="#000000" font-family="sans-serif" font-size="14" lengthAdjust="spacing" textLength="56" x="40" y="531.2285">Manager</text></g><g id="elem_UC1"><ellipse cx="359.995" cy="69.199" fill="#F1F1F1" rx="111.495" ry="24.699" style="stroke:#181818;stroke-width:0.5;"/><text fill="#000000" font-family="sans-serif" font-size="14" lengthAdjust="spacing" textLength="184" x="267.995" y="72.9959">UC1 - Register Competences</text></g><g id="elem_UC2"><ellipse cx="359.7523" cy="149.1505" fill="#F1F1F1" rx="88.7523" ry="20.1505" style="stroke:#181818;stroke-width:0.5;"/><text fill="#000000" font-family="sans-serif" font-size="14" lengthAdjust="spacing" textLength="131" x="291.2523" y="153.9542">UC2 - Register a Job</text></g><g id="elem_UC3"><ellipse cx="360.1018" cy="232.2204" fill="#F1F1F1" rx="126.6018" ry="27.7204" style="stroke:#181818;stroke-width:0.5;"/><text fill="#000000" font-family="sans-serif" font-size="14" lengthAdjust="spacing" textLength="217" x="251.6018" y="236.0172">UC3 - Registration of an employee</text></g><g id="elem_UC4"><ellipse cx="360.0132" cy="329.1026" fill="#F1F1F1" rx="161.0132" ry="34.6026" style="stroke:#181818;stroke-width:0.5;"/><text fill="#000000" font-family="sans-serif" font-size="14" lengthAdjust="spacing" textLength="290" x="215.0132" y="332.8995">UC4 - Assigning competences to an employee</text></g><g id="elem_UC5"><ellipse cx="359.7896" cy="425.7579" fill="#F1F1F1" rx="124.2896" ry="27.2579" style="stroke:#181818;stroke-width:0.5;"/><text fill="#000000" font-family="sans-serif" font-size="14" lengthAdjust="spacing" textLength="212" x="253.7896" y="429.5548">UC5 - Generate a Team Proposal</text></g><g id="elem_UC6"><ellipse cx="359.7971" cy="510.9594" fill="#F1F1F1" rx="97.7971" ry="21.9594" style="stroke:#181818;stroke-width:0.5;"/><text fill="#000000" font-family="sans-serif" font-size="14" lengthAdjust="spacing" textLength="153" x="281.519" y="515.3865">UC6 - Register a vehicle</text></g><g id="elem_UC7"><ellipse cx="360.22" cy="599.844" fill="#F1F1F1" rx="147.22" ry="31.844" style="stroke:#181818;stroke-width:0.5;"/><text fill="#000000" font-family="sans-serif" font-size="14" lengthAdjust="spacing" textLength="261" x="229.72" y="603.6409">UC7 - Register the inspection of a vehicle</text></g><g id="elem_UC8"><ellipse cx="359.8867" cy="700.0773" fill="#F1F1F1" rx="153.3867" ry="33.0773" style="stroke:#181818;stroke-width:0.5;"/><text fill="#000000" font-family="sans-serif" font-size="14" lengthAdjust="spacing" textLength="274" x="222.8867" y="703.8742">UC8 - List vehicles that need to be serviced</text></g><!--link HRM to UC1--><g id="link_HRM_UC1"><path d="M87.1,305.23 C95.55,249.85 117.69,160.74 175,111 C196.4,92.42 218.4947,82.9097 246.1247,76.7297 " fill="none" id="HRM-to-UC1" style="stroke:#181818;stroke-width:1.0;"/><polygon fill="#181818" points="251.98,75.42,242.3239,73.4809,247.1006,76.5114,244.0701,81.288,251.98,75.42" style="stroke:#181818;stroke-width:1.0;"/></g><!--link HRM to UC2--><g id="link_HRM_UC2"><path d="M96.55,305.43 C110.51,267.34 135.41,216.06 175,187 C202.74,166.64 232.9316,157.4576 265.8216,152.7076 " fill="none" id="HRM-to-UC2" style="stroke:#181818;stroke-width:1.0;"/><polygon fill="#181818" points="271.76,151.85,262.2807,149.1775,266.8113,152.5647,263.4242,157.0954,271.76,151.85" style="stroke:#181818;stroke-width:1.0;"/></g><!--link HRM to UC3--><g id="link_HRM_UC3"><path d="M132.68,305.14 C145.68,294.62 160.2,284.44 175,277 C200.42,264.23 223.829,256.3639 251.419,249.6739 " fill="none" id="HRM-to-UC3" style="stroke:#181818;stroke-width:1.0;"/><polygon fill="#181818" points="257.25,248.26,247.5609,246.4935,252.3908,249.4383,249.4461,254.2682,257.25,248.26" style="stroke:#181818;stroke-width:1.0;"/></g><!--link HRM to UC4--><g id="link_HRM_UC4"><path d="M139.06,348.85 C160.36,346.93 179.6743,345.1892 205.3843,342.8692 " fill="none" id="HRM-to-UC4" style="stroke:#181818;stroke-width:1.0;"/><polygon fill="#181818" points="211.36,342.33,202.0369,339.155,206.3802,342.7794,202.7559,347.1227,211.36,342.33" style="stroke:#181818;stroke-width:1.0;"/></g><!--link HRM to UC5--><g id="link_HRM_UC5"><path d="M139.44,371.09 C151.18,374.47 163.47,377.92 175,381 C207.25,389.62 237.0181,397.0697 268.2381,404.6197 " fill="none" id="HRM-to-UC5" style="stroke:#181818;stroke-width:1.0;"/><polygon fill="#181818" points="274.07,406.03,266.2624,400.0266,269.2101,404.8547,264.3819,407.8024,274.07,406.03" style="stroke:#181818;stroke-width:1.0;"/></g><!--link FM to UC6--><g id="link_FM_UC6"><path d="M122.28,489.64 C160.54,493.09 213.4344,497.8599 262.8944,502.3299 " fill="none" id="FM-to-UC6" style="stroke:#181818;stroke-width:1.0;"/><polygon fill="#181818" points="268.87,502.87,260.2666,498.0762,263.8903,502.42,259.5465,506.0437,268.87,502.87" style="stroke:#181818;stroke-width:1.0;"/></g><!--link FM to UC7--><g id="link_FM_UC7"><path d="M122.32,518.16 C138.05,529.49 156.68,541.51 175,550 C199.48,561.35 221.2384,568.9261 247.4084,576.1861 " fill="none" id="FM-to-UC7" style="stroke:#181818;stroke-width:1.0;"/><polygon fill="#181818" points="253.19,577.79,245.5868,571.5297,248.372,576.4534,243.4482,579.2385,253.19,577.79" style="stroke:#181818;stroke-width:1.0;"/></g><!--link FM to UC8--><g id="link_FM_UC8"><path d="M98.11,534.62 C112.66,571.21 137.59,619.88 175,649 C192.92,662.95 208.7329,671.1678 230.6229,678.5278 " fill="none" id="FM-to-UC8" style="stroke:#181818;stroke-width:1.0;"/><polygon fill="#181818" points="236.31,680.44,229.0541,673.7803,231.5707,678.8465,226.5045,681.3632,236.31,680.44" style="stroke:#181818;stroke-width:1.0;"/></g><!--SRC=[PPBBJiCm44Nt_efHDrrrGTyh95Ge5Q8IQe4LcwapJQmcTcGxXGhnxuoJz94aYoWZttjcV2TzTr0wHuiPP4ORcLYJ4NXRaBYUv2WF6DFMdr82IzAZZbCI_Ql29HYPRwLZs6FgI0ZHzygp-iCHB91VZmhZe7pwmIndiqXfxy4Ri2fEF4GgS9NHGbmQG6zxSfuoU93UMDS3T83b9_mAuASieBSgCjIm8MSAAybzwJLg7jUMXjLcVQlzf4H9HYzJ8jzKBjVYJpJQduUlMXUEP2YgtdN5eiKT3BXxh7XM2mkJvUH9ozh5nwMUvu31uBwisu3XBG3XnUngwx1b7NQieulLOeWFp1uu3EACpOcevenQd567CsREWtCgrc69ydg9iA8kSDm2ZZl02GEVIHEFHNodT-BTlrcJ6uTf3Pcq89CEPDeCvbWjhxPFI_Nox9vstBDRjqy8b7PvzPULCRLuioPlrk7DcVVAjBEFiqdGWoQAGaex0aVsg2H5DN7U9Cx3__KF]--></g></svg>