<?xml version="1.0" encoding="us-ascii" standalone="no"?><svg xmlns="http://www.w3.org/2000/svg" xmlns:xlink="http://www.w3.org/1999/xlink" contentStyleType="text/css" height="300px" preserveAspectRatio="none" style="width:630px;height:300px;background:#FFFFFF;" version="1.1" viewBox="0 0 630 300" width="630px" zoomAndPan="magnify"><defs/><g><!--class Skill--><g id="elem_Skill"><rect codeLine="11" fill="#F1F1F1" height="85.2422" id="Skill" rx="2.5" ry="2.5" style="stroke:#181818;stroke-width:0.5;" width="97" x="475" y="208"/><ellipse cx="508" cy="224" fill="#ADD1B2" rx="11" ry="11" style="stroke:#181818;stroke-width:1.0;"/><path d="M510.7656,219.875 Q510.9219,219.6563 511.1094,219.5469 Q511.2969,219.4375 511.5156,219.4375 Q511.8906,219.4375 512.125,219.7031 Q512.3594,219.9531 512.3594,220.5625 L512.3594,222.0156 Q512.3594,222.625 512.125,222.8906 Q511.8906,223.1563 511.5156,223.1563 Q511.1719,223.1563 510.9688,222.9531 Q510.7656,222.7656 510.6563,222.25 Q510.6094,221.8906 510.4219,221.7031 Q510.0938,221.3281 509.4844,221.1094 Q508.875,220.8906 508.25,220.8906 Q507.4844,220.8906 506.8438,221.2188 Q506.2188,221.5469 505.7188,222.2969 Q505.2344,223.0469 505.2344,224.0781 L505.2344,225.1719 Q505.2344,226.4063 506.125,227.2344 Q507.0156,228.0469 508.6094,228.0469 Q509.5469,228.0469 510.2031,227.7969 Q510.5938,227.6406 511.0156,227.2031 Q511.2813,226.9375 511.4219,226.8594 Q511.5781,226.7813 511.7813,226.7813 Q512.1094,226.7813 512.3594,227.0469 Q512.625,227.2969 512.625,227.6406 Q512.625,227.9844 512.2813,228.3906 Q511.7813,228.9688 510.9844,229.2969 Q509.9063,229.75 508.6094,229.75 Q507.0938,229.75 505.8906,229.125 Q504.9063,228.625 504.2188,227.5625 Q503.5313,226.4844 503.5313,225.2031 L503.5313,224.0469 Q503.5313,222.7188 504.1406,221.5781 Q504.7656,220.4219 505.8594,219.8125 Q506.9531,219.1875 508.1875,219.1875 Q508.9219,219.1875 509.5625,219.3594 Q510.2188,219.5156 510.7656,219.875 Z " fill="#000000"/><text fill="#000000" font-family="sans-serif" font-size="14" lengthAdjust="spacing" textLength="25" x="526" y="229.7969">Skill</text><line style="stroke:#181818;stroke-width:0.5;" x1="476" x2="571" y1="240" y2="240"/><text fill="#000000" font-family="sans-serif" font-size="14" lengthAdjust="spacing" textLength="85" x="481" y="259.1074">-name: String</text><line style="stroke:#181818;stroke-width:0.5;" x1="476" x2="571" y1="266.6211" y2="266.6211"/><text fill="#000000" font-family="sans-serif" font-size="14" lengthAdjust="spacing" textLength="78" x="481" y="285.7285">+Skill(name)</text></g><!--class HRM--><g id="elem_HRM"><rect codeLine="17" fill="#F1F1F1" height="48" id="HRM" rx="2.5" ry="2.5" style="stroke:#181818;stroke-width:0.5;" width="62" x="561.5" y="53.5"/><ellipse cx="576.5" cy="69.5" fill="#ADD1B2" rx="11" ry="11" style="stroke:#181818;stroke-width:1.0;"/><path d="M579.2656,65.375 Q579.4219,65.1563 579.6094,65.0469 Q579.7969,64.9375 580.0156,64.9375 Q580.3906,64.9375 580.625,65.2031 Q580.8594,65.4531 580.8594,66.0625 L580.8594,67.5156 Q580.8594,68.125 580.625,68.3906 Q580.3906,68.6563 580.0156,68.6563 Q579.6719,68.6563 579.4688,68.4531 Q579.2656,68.2656 579.1563,67.75 Q579.1094,67.3906 578.9219,67.2031 Q578.5938,66.8281 577.9844,66.6094 Q577.375,66.3906 576.75,66.3906 Q575.9844,66.3906 575.3438,66.7188 Q574.7188,67.0469 574.2188,67.7969 Q573.7344,68.5469 573.7344,69.5781 L573.7344,70.6719 Q573.7344,71.9063 574.625,72.7344 Q575.5156,73.5469 577.1094,73.5469 Q578.0469,73.5469 578.7031,73.2969 Q579.0938,73.1406 579.5156,72.7031 Q579.7813,72.4375 579.9219,72.3594 Q580.0781,72.2813 580.2813,72.2813 Q580.6094,72.2813 580.8594,72.5469 Q581.125,72.7969 581.125,73.1406 Q581.125,73.4844 580.7813,73.8906 Q580.2813,74.4688 579.4844,74.7969 Q578.4063,75.25 577.1094,75.25 Q575.5938,75.25 574.3906,74.625 Q573.4063,74.125 572.7188,73.0625 Q572.0313,71.9844 572.0313,70.7031 L572.0313,69.5469 Q572.0313,68.2188 572.6406,67.0781 Q573.2656,65.9219 574.3594,65.3125 Q575.4531,64.6875 576.6875,64.6875 Q577.4219,64.6875 578.0625,64.8594 Q578.7188,65.0156 579.2656,65.375 Z " fill="#000000"/><text fill="#000000" font-family="sans-serif" font-size="14" lengthAdjust="spacing" textLength="30" x="590.5" y="75.2969">HRM</text><line style="stroke:#181818;stroke-width:0.5;" x1="562.5" x2="622.5" y1="85.5" y2="85.5"/><line style="stroke:#181818;stroke-width:0.5;" x1="562.5" x2="622.5" y1="93.5" y2="93.5"/></g><!--class Organization--><g id="elem_Organization"><rect codeLine="20" fill="#F1F1F1" height="141.1055" id="Organization" rx="2.5" ry="2.5" style="stroke:#181818;stroke-width:0.5;" width="141" x="385" y="7"/><ellipse cx="413.05" cy="23" fill="#ADD1B2" rx="11" ry="11" style="stroke:#181818;stroke-width:1.0;"/><path d="M415.8156,18.875 Q415.9719,18.6563 416.1594,18.5469 Q416.3469,18.4375 416.5656,18.4375 Q416.9406,18.4375 417.175,18.7031 Q417.4094,18.9531 417.4094,19.5625 L417.4094,21.0156 Q417.4094,21.625 417.175,21.8906 Q416.9406,22.1563 416.5656,22.1563 Q416.2219,22.1563 416.0188,21.9531 Q415.8156,21.7656 415.7063,21.25 Q415.6594,20.8906 415.4719,20.7031 Q415.1438,20.3281 414.5344,20.1094 Q413.925,19.8906 413.3,19.8906 Q412.5344,19.8906 411.8938,20.2188 Q411.2688,20.5469 410.7688,21.2969 Q410.2844,22.0469 410.2844,23.0781 L410.2844,24.1719 Q410.2844,25.4063 411.175,26.2344 Q412.0656,27.0469 413.6594,27.0469 Q414.5969,27.0469 415.2531,26.7969 Q415.6438,26.6406 416.0656,26.2031 Q416.3313,25.9375 416.4719,25.8594 Q416.6281,25.7813 416.8313,25.7813 Q417.1594,25.7813 417.4094,26.0469 Q417.675,26.2969 417.675,26.6406 Q417.675,26.9844 417.3313,27.3906 Q416.8313,27.9688 416.0344,28.2969 Q414.9563,28.75 413.6594,28.75 Q412.1438,28.75 410.9406,28.125 Q409.9563,27.625 409.2688,26.5625 Q408.5813,25.4844 408.5813,24.2031 L408.5813,23.0469 Q408.5813,21.7188 409.1906,20.5781 Q409.8156,19.4219 410.9094,18.8125 Q412.0031,18.1875 413.2375,18.1875 Q413.9719,18.1875 414.6125,18.3594 Q415.2688,18.5156 415.8156,18.875 Z " fill="#000000"/><text fill="#000000" font-family="sans-serif" font-size="14" lengthAdjust="spacing" textLength="80" x="429.95" y="28.7969">Organization</text><line style="stroke:#181818;stroke-width:0.5;" x1="386" x2="525" y1="39" y2="39"/><text fill="#000000" font-family="sans-serif" font-size="14" lengthAdjust="spacing" textLength="85" x="391" y="58.1074">-name: String</text><text fill="#000000" font-family="sans-serif" font-size="14" lengthAdjust="spacing" textLength="101" x="391" y="76.7285">-address: String</text><line style="stroke:#181818;stroke-width:0.5;" x1="386" x2="525" y1="84.2422" y2="84.2422"/><text fill="#000000" font-family="sans-serif" font-size="14" lengthAdjust="spacing" textLength="101" x="391" y="103.3496">+register(name)</text><text fill="#000000" font-family="sans-serif" font-size="14" lengthAdjust="spacing" textLength="94" x="391" y="121.9707">+addJob(skills)</text><text fill="#000000" font-family="sans-serif" font-size="14" lengthAdjust="spacing" textLength="129" x="391" y="140.5918">+validateSkills(skills)</text></g><!--class RegisterSkillsUI--><g id="elem_RegisterSkillsUI"><rect codeLine="29" fill="#F1F1F1" height="48" id="RegisterSkillsUI" rx="2.5" ry="2.5" style="stroke:#181818;stroke-width:0.5;" width="129" x="7" y="53.5"/><ellipse cx="22" cy="69.5" fill="#ADD1B2" rx="11" ry="11" style="stroke:#181818;stroke-width:1.0;"/><path d="M24.7656,65.375 Q24.9219,65.1563 25.1094,65.0469 Q25.2969,64.9375 25.5156,64.9375 Q25.8906,64.9375 26.125,65.2031 Q26.3594,65.4531 26.3594,66.0625 L26.3594,67.5156 Q26.3594,68.125 26.125,68.3906 Q25.8906,68.6563 25.5156,68.6563 Q25.1719,68.6563 24.9688,68.4531 Q24.7656,68.2656 24.6563,67.75 Q24.6094,67.3906 24.4219,67.2031 Q24.0938,66.8281 23.4844,66.6094 Q22.875,66.3906 22.25,66.3906 Q21.4844,66.3906 20.8438,66.7188 Q20.2188,67.0469 19.7188,67.7969 Q19.2344,68.5469 19.2344,69.5781 L19.2344,70.6719 Q19.2344,71.9063 20.125,72.7344 Q21.0156,73.5469 22.6094,73.5469 Q23.5469,73.5469 24.2031,73.2969 Q24.5938,73.1406 25.0156,72.7031 Q25.2813,72.4375 25.4219,72.3594 Q25.5781,72.2813 25.7813,72.2813 Q26.1094,72.2813 26.3594,72.5469 Q26.625,72.7969 26.625,73.1406 Q26.625,73.4844 26.2813,73.8906 Q25.7813,74.4688 24.9844,74.7969 Q23.9063,75.25 22.6094,75.25 Q21.0938,75.25 19.8906,74.625 Q18.9063,74.125 18.2188,73.0625 Q17.5313,71.9844 17.5313,70.7031 L17.5313,69.5469 Q17.5313,68.2188 18.1406,67.0781 Q18.7656,65.9219 19.8594,65.3125 Q20.9531,64.6875 22.1875,64.6875 Q22.9219,64.6875 23.5625,64.8594 Q24.2188,65.0156 24.7656,65.375 Z " fill="#000000"/><text fill="#000000" font-family="sans-serif" font-size="14" lengthAdjust="spacing" textLength="97" x="36" y="75.2969">RegisterSkillsUI</text><line style="stroke:#181818;stroke-width:0.5;" x1="8" x2="135" y1="85.5" y2="85.5"/><line style="stroke:#181818;stroke-width:0.5;" x1="8" x2="135" y1="93.5" y2="93.5"/></g><!--class RegisterSkillsController--><g id="elem_RegisterSkillsController"><rect codeLine="33" fill="#F1F1F1" height="66.6211" id="RegisterSkillsController" rx="2.5" ry="2.5" style="stroke:#181818;stroke-width:0.5;" width="179" x="171" y="44"/><ellipse cx="186" cy="60" fill="#ADD1B2" rx="11" ry="11" style="stroke:#181818;stroke-width:1.0;"/><path d="M188.7656,55.875 Q188.9219,55.6563 189.1094,55.5469 Q189.2969,55.4375 189.5156,55.4375 Q189.8906,55.4375 190.125,55.7031 Q190.3594,55.9531 190.3594,56.5625 L190.3594,58.0156 Q190.3594,58.625 190.125,58.8906 Q189.8906,59.1563 189.5156,59.1563 Q189.1719,59.1563 188.9688,58.9531 Q188.7656,58.7656 188.6563,58.25 Q188.6094,57.8906 188.4219,57.7031 Q188.0938,57.3281 187.4844,57.1094 Q186.875,56.8906 186.25,56.8906 Q185.4844,56.8906 184.8438,57.2188 Q184.2188,57.5469 183.7188,58.2969 Q183.2344,59.0469 183.2344,60.0781 L183.2344,61.1719 Q183.2344,62.4063 184.125,63.2344 Q185.0156,64.0469 186.6094,64.0469 Q187.5469,64.0469 188.2031,63.7969 Q188.5938,63.6406 189.0156,63.2031 Q189.2813,62.9375 189.4219,62.8594 Q189.5781,62.7813 189.7813,62.7813 Q190.1094,62.7813 190.3594,63.0469 Q190.625,63.2969 190.625,63.6406 Q190.625,63.9844 190.2813,64.3906 Q189.7813,64.9688 188.9844,65.2969 Q187.9063,65.75 186.6094,65.75 Q185.0938,65.75 183.8906,65.125 Q182.9063,64.625 182.2188,63.5625 Q181.5313,62.4844 181.5313,61.2031 L181.5313,60.0469 Q181.5313,58.7188 182.1406,57.5781 Q182.7656,56.4219 183.8594,55.8125 Q184.9531,55.1875 186.1875,55.1875 Q186.9219,55.1875 187.5625,55.3594 Q188.2188,55.5156 188.7656,55.875 Z " fill="#000000"/><text fill="#000000" font-family="sans-serif" font-size="14" lengthAdjust="spacing" textLength="147" x="200" y="65.7969">RegisterSkillsController</text><line style="stroke:#181818;stroke-width:0.5;" x1="172" x2="349" y1="76" y2="76"/><line style="stroke:#181818;stroke-width:0.5;" x1="172" x2="349" y1="84" y2="84"/><text fill="#000000" font-family="sans-serif" font-size="14" lengthAdjust="spacing" textLength="133" x="177" y="103.1074">+registerSkills(name)</text></g><!--link HRM to Skill--><g id="link_HRM_Skill"><path codeLine="37" d="M583.19,101.56 C572.23,128.73 556.0558,168.8262 542.5658,202.2462 " fill="none" id="HRM-to-Skill" style="stroke:#181818;stroke-width:1.0;"/><polygon fill="#181818" points="540.32,207.81,547.398,200.9615,542.1915,203.1735,539.9795,197.967,540.32,207.81" style="stroke:#181818;stroke-width:1.0;"/><text fill="#000000" font-family="sans-serif" font-size="13" lengthAdjust="spacing" textLength="7" x="573.0676" y="123.5603">1</text><text fill="#000000" font-family="sans-serif" font-size="13" lengthAdjust="spacing" textLength="5" x="537.6023" y="196.6838">*</text></g><!--link Organization to Skill--><g id="link_Organization_Skill"><path codeLine="38" d="M483.16,148.05 C491.25,168.39 497.6107,184.4155 504.7807,202.4255 " fill="none" id="Organization-to-Skill" style="stroke:#181818;stroke-width:1.0;"/><polygon fill="#181818" points="507,208,507.3874,198.1588,505.1506,203.3546,499.9548,201.1178,507,208" style="stroke:#181818;stroke-width:1.0;"/><text fill="#000000" font-family="sans-serif" font-size="13" lengthAdjust="spacing" textLength="7" x="478.6515" y="170.2399">1</text><text fill="#000000" font-family="sans-serif" font-size="13" lengthAdjust="spacing" textLength="5" x="498.8531" y="196.5855">*</text></g><!--link RegisterSkillsUI to RegisterSkillsController--><g id="link_RegisterSkillsUI_RegisterSkillsController"><path codeLine="39" d="M136.06,77.5 C140.95,77.5 150.51,77.5 164.75,77.5 " fill="none" id="RegisterSkillsUI-to-RegisterSkillsController" style="stroke:#181818;stroke-width:1.0;stroke-dasharray:7.0,7.0;"/><polygon fill="#181818" points="170.75,77.5,161.75,73.5,165.75,77.5,161.75,81.5,170.75,77.5" style="stroke:#181818;stroke-width:1.0;"/></g><!--link RegisterSkillsController to Organization--><g id="link_RegisterSkillsController_Organization"><path codeLine="40" d="M350.07,77.5 C362.73,77.5 371.09,77.5 378.83,77.5 " fill="none" id="RegisterSkillsController-to-Organization" style="stroke:#181818;stroke-width:1.0;stroke-dasharray:7.0,7.0;"/><polygon fill="#181818" points="384.83,77.5,375.83,73.5,379.83,77.5,375.83,81.5,384.83,77.5" style="stroke:#181818;stroke-width:1.0;"/></g><!--SRC=[TP31JiCm38RlUGghbmrG4LmvJ4AxC2I4j8e7y5elYvR6bUE1EiIxqwvTLzYMc_tx__qvaxXreKB14aeEd6-4ImAL7PcJKc6-HKkPrfv0A5SCrey7uWOB_dB1mXfz72lU1TAw8gZOrsrX9XT45cKpSkKUOtnM5RVQAIro3fdR4pmOC_6qLb06SNQZKBWMnt4mvk21REkyXsy3pKiXO4bFa3KvmPf3xwwRcBRAZVavsbwMRurfAD_5Od1xR9ClXtKjB0gX6F-l4B8kAac_fMisiw-yciPsVJmsFz6x0fKEK74G1v1bdzJf7ui6vfeuvw32tfFqn2UEFdsukRqsUKmWJMUGt2RTbvW_Hv_BPoZtiwi4vYfQOnhlCRy0]--></g></svg>