<?xml version="1.0" encoding="us-ascii" standalone="no"?><svg xmlns="http://www.w3.org/2000/svg" xmlns:xlink="http://www.w3.org/1999/xlink" contentStyleType="text/css" height="468px" preserveAspectRatio="none" style="width:338px;height:468px;background:#FFFFFF;" version="1.1" viewBox="0 0 338 468" width="338px" zoomAndPan="magnify"><defs/><g><rect fill="#FFFFFF" height="303.9883" style="stroke:#181818;stroke-width:1.0;" width="10" x="133" y="90.5332"/><rect fill="#FFFFFF" height="130.873" style="stroke:#181818;stroke-width:1.0;" width="10" x="138" y="218.3574"/><rect fill="#FFFFFF" height="42.291" style="stroke:#181818;stroke-width:1.0;" width="10" x="143" y="262.6484"/><rect fill="none" height="258.6973" style="stroke:#000000;stroke-width:1.5;" width="253" x="79" y="105.5332"/><line style="stroke:#181818;stroke-width:0.5;stroke-dasharray:5.0,5.0;" x1="138" x2="138" y1="57.2422" y2="412.5215"/><line style="stroke:#181818;stroke-width:0.5;stroke-dasharray:5.0,5.0;" x1="300" x2="300" y1="165.9453" y2="412.5215"/><rect fill="#E3E3E3" height="51.2422" rx="2.5" ry="2.5" style="stroke:#181818;stroke-width:0.5;" width="98" x="89" y="5"/><text fill="#000000" font-family="sans-serif" font-size="14" lengthAdjust="spacing" textLength="77" x="99.5" y="27.1074">organization</text><text fill="#000000" font-family="sans-serif" font-size="14" lengthAdjust="spacing" textLength="84" x="96" y="45.7285">:Organization</text><rect fill="#E3E3E3" height="51.2422" rx="2.5" ry="2.5" style="stroke:#181818;stroke-width:0.5;" width="98" x="89" y="411.5215"/><text fill="#000000" font-family="sans-serif" font-size="14" lengthAdjust="spacing" textLength="77" x="99.5" y="433.6289">organization</text><text fill="#000000" font-family="sans-serif" font-size="14" lengthAdjust="spacing" textLength="84" x="96" y="452.25">:Organization</text><rect fill="#E3E3E3" height="51.2422" rx="2.5" ry="2.5" style="stroke:#181818;stroke-width:0.5;" width="43" x="279" y="411.5215"/><text fill="#000000" font-family="sans-serif" font-size="14" lengthAdjust="spacing" textLength="23" x="289" y="433.6289">skill</text><text fill="#000000" font-family="sans-serif" font-size="14" lengthAdjust="spacing" textLength="29" x="286" y="452.25">:Skill</text><rect fill="#FFFFFF" height="303.9883" style="stroke:#181818;stroke-width:1.0;" width="10" x="133" y="90.5332"/><rect fill="#FFFFFF" height="130.873" style="stroke:#181818;stroke-width:1.0;" width="10" x="138" y="218.3574"/><rect fill="#FFFFFF" height="42.291" style="stroke:#181818;stroke-width:1.0;" width="10" x="143" y="262.6484"/><polygon fill="#181818" points="121,86.5332,131,90.5332,121,94.5332,125,90.5332" style="stroke:#181818;stroke-width:1.0;"/><line style="stroke:#181818;stroke-width:1.0;" x1="0" x2="127" y1="90.5332" y2="90.5332"/><text fill="#000000" font-family="sans-serif" font-size="13" font-weight="bold" lengthAdjust="spacing" textLength="7" x="7" y="85.2705">7</text><text fill="#000000" font-family="sans-serif" font-size="13" lengthAdjust="spacing" textLength="103" x="18" y="85.2705">registerJob(name)</text><path d="M79,105.5332 L214,105.5332 L214,114.8242 L204,124.8242 L79,124.8242 L79,105.5332 " fill="#EEEEEE" style="stroke:#000000;stroke-width:1.5;"/><rect fill="none" height="258.6973" style="stroke:#000000;stroke-width:1.5;" width="253" x="79" y="105.5332"/><text fill="#000000" font-family="sans-serif" font-size="13" font-weight="bold" lengthAdjust="spacing" textLength="90" x="94" y="120.5615">Register Skills</text><polygon fill="#181818" points="267,144.1152,277,148.1152,267,152.1152,271,148.1152" style="stroke:#181818;stroke-width:1.0;"/><line style="stroke:#181818;stroke-width:1.0;" x1="143" x2="273" y1="148.1152" y2="148.1152"/><text fill="#000000" font-family="sans-serif" font-size="13" font-weight="bold" lengthAdjust="spacing" textLength="18" x="150" y="142.8525">7.1</text><text fill="#000000" font-family="sans-serif" font-size="13" lengthAdjust="spacing" textLength="90" x="172" y="142.8525">registers(name)</text><rect fill="#E3E3E3" height="51.2422" rx="2.5" ry="2.5" style="stroke:#181818;stroke-width:0.5;" width="43" x="279" y="124.8242"/><text fill="#000000" font-family="sans-serif" font-size="14" lengthAdjust="spacing" textLength="23" x="289" y="146.9316">skill</text><text fill="#000000" font-family="sans-serif" font-size="14" lengthAdjust="spacing" textLength="29" x="286" y="165.5527">:Skill</text><line style="stroke:#181818;stroke-width:1.0;" x1="143" x2="190" y1="205.3574" y2="205.3574"/><line style="stroke:#181818;stroke-width:1.0;" x1="190" x2="190" y1="205.3574" y2="218.3574"/><line style="stroke:#181818;stroke-width:1.0;" x1="149" x2="190" y1="218.3574" y2="218.3574"/><polygon fill="#181818" points="159,214.3574,149,218.3574,159,222.3574,155,218.3574" style="stroke:#181818;stroke-width:1.0;"/><text fill="#000000" font-family="sans-serif" font-size="13" font-weight="bold" lengthAdjust="spacing" textLength="18" x="155" y="200.0947">7.2</text><text fill="#000000" font-family="sans-serif" font-size="13" lengthAdjust="spacing" textLength="77" x="177" y="200.0947">addSkill(skill)</text><line style="stroke:#181818;stroke-width:1.0;" x1="148" x2="195" y1="249.6484" y2="249.6484"/><line style="stroke:#181818;stroke-width:1.0;" x1="195" x2="195" y1="249.6484" y2="262.6484"/><line style="stroke:#181818;stroke-width:1.0;" x1="154" x2="195" y1="262.6484" y2="262.6484"/><polygon fill="#181818" points="164,258.6484,154,262.6484,164,266.6484,160,262.6484" style="stroke:#181818;stroke-width:1.0;"/><text fill="#000000" font-family="sans-serif" font-size="13" font-weight="bold" lengthAdjust="spacing" textLength="18" x="160" y="244.3857">7.3</text><text fill="#000000" font-family="sans-serif" font-size="13" lengthAdjust="spacing" textLength="99" x="182" y="244.3857">validateSkill(skill)</text><line style="stroke:#181818;stroke-width:1.0;" x1="153" x2="195" y1="303.9395" y2="303.9395"/><line style="stroke:#181818;stroke-width:1.0;" x1="195" x2="195" y1="303.9395" y2="316.9395"/><line style="stroke:#181818;stroke-width:1.0;" x1="148" x2="195" y1="316.9395" y2="316.9395"/><polygon fill="#181818" points="158,312.9395,148,316.9395,158,320.9395,154,316.9395" style="stroke:#181818;stroke-width:1.0;"/><text fill="#000000" font-family="sans-serif" font-size="13" font-weight="bold" lengthAdjust="spacing" textLength="18" x="160" y="298.6768">7.4</text><text fill="#000000" font-family="sans-serif" font-size="13" lengthAdjust="spacing" textLength="4" x="182" y="298.6768">&#160;</text><line style="stroke:#181818;stroke-width:1.0;" x1="148" x2="190" y1="348.2305" y2="348.2305"/><line style="stroke:#181818;stroke-width:1.0;" x1="190" x2="190" y1="348.2305" y2="361.2305"/><line style="stroke:#181818;stroke-width:1.0;" x1="143" x2="190" y1="361.2305" y2="361.2305"/><polygon fill="#181818" points="153,357.2305,143,361.2305,153,365.2305,149,361.2305" style="stroke:#181818;stroke-width:1.0;"/><text fill="#000000" font-family="sans-serif" font-size="13" font-weight="bold" lengthAdjust="spacing" textLength="18" x="155" y="342.9678">7.5</text><text fill="#000000" font-family="sans-serif" font-size="13" lengthAdjust="spacing" textLength="4" x="177" y="342.9678">&#160;</text><polygon fill="#181818" points="11,390.5215,1,394.5215,11,398.5215,7,394.5215" style="stroke:#181818;stroke-width:1.0;"/><line style="stroke:#181818;stroke-width:1.0;stroke-dasharray:2.0,2.0;" x1="5" x2="137" y1="394.5215" y2="394.5215"/><text fill="#000000" font-family="sans-serif" font-size="13" font-weight="bold" lengthAdjust="spacing" textLength="7" x="17" y="389.2588">8</text><text fill="#000000" font-family="sans-serif" font-size="13" lengthAdjust="spacing" textLength="17" x="28" y="389.2588">job</text><!--SRC=[VP31QiCm38RlVWhHKrV8eAUEC7OTsmg5vhgB4ckkMriEjjEnFVqShwnf4gPBYFJzduJ3INEB7YrOnwuvU6S9ekz8XBz9Yyq95LNnon1uQYAoCaCW752wJyqAFj044YAresvqYnnXuRn2rjyOjUDtBdU3tmLWWDt- -JQGnCOaikg_6QdUNhPR8R2BZZjRauUDA9xwP9aEKZf4yg-kNZ9QkhlbxjS2cwZF62blWbJAkww5_IK8UKyGUTHNmY3PyzBLwheXNFmZBb-1KcRDCXz_PIQxXpKKdD5ecS1PownjCfrg9uYa_nKpqL6aRn7Bt-ZWeHzoux4eigE4ewl5AFe3]--></g></svg>