<?xml version="1.0" encoding="us-ascii" standalone="no"?><svg xmlns="http://www.w3.org/2000/svg" xmlns:xlink="http://www.w3.org/1999/xlink" contentStyleType="text/css" height="868px" preserveAspectRatio="none" style="width:1023px;height:868px;background:#FFFFFF;" version="1.1" viewBox="0 0 1023 868" width="1023px" zoomAndPan="magnify"><defs/><g><rect fill="#FFFFFF" height="562.2773" style="stroke:#181818;stroke-width:1.0;" width="10" x="37" y="149.4844"/><rect fill="#FFFFFF" height="31.291" style="stroke:#181818;stroke-width:1.0;" width="10" x="319" y="172.7754"/><rect fill="#FFFFFF" height="31.291" style="stroke:#181818;stroke-width:1.0;" width="10" x="319" y="235.3574"/><rect fill="#FFFFFF" height="413.8223" style="stroke:#181818;stroke-width:1.0;" width="10" x="319" y="297.9395"/><rect fill="#FFFFFF" height="351.2402" style="stroke:#181818;stroke-width:1.0;" width="10" x="467" y="329.2305"/><rect fill="#FFFFFF" height="31.291" style="stroke:#181818;stroke-width:1.0;" width="10" x="602.5" y="360.5215"/><rect fill="#FFFFFF" height="31.291" style="stroke:#181818;stroke-width:1.0;" width="10" x="705.5" y="423.1035"/><rect fill="#FFFFFF" height="163.4941" style="stroke:#181818;stroke-width:1.0;" width="10" x="816.5" y="485.6855"/><rect fill="#FFFFFF" height="122.2031" style="stroke:#181818;stroke-width:1.0;" width="10" x="821.5" y="526.9766"/><rect fill="#FFFFFF" height="80.582" style="stroke:#181818;stroke-width:1.0;" width="10" x="826.5" y="568.5977"/><line style="stroke:#181818;stroke-width:0.5;stroke-dasharray:5.0,5.0;" x1="42" x2="42" y1="139.4844" y2="729.7617"/><line style="stroke:#181818;stroke-width:0.5;stroke-dasharray:5.0,5.0;" x1="324" x2="324" y1="139.4844" y2="729.7617"/><line style="stroke:#181818;stroke-width:0.5;stroke-dasharray:5.0,5.0;" x1="472" x2="472" y1="139.4844" y2="729.7617"/><line style="stroke:#181818;stroke-width:0.5;stroke-dasharray:5.0,5.0;" x1="607" x2="607" y1="139.4844" y2="729.7617"/><line style="stroke:#181818;stroke-width:0.5;stroke-dasharray:5.0,5.0;" x1="710" x2="710" y1="139.4844" y2="729.7617"/><line style="stroke:#181818;stroke-width:0.5;stroke-dasharray:5.0,5.0;" x1="821" x2="821" y1="139.4844" y2="729.7617"/><line style="stroke:#181818;stroke-width:0.5;stroke-dasharray:5.0,5.0;" x1="984.5" x2="984.5" y1="525.4961" y2="729.7617"/><text fill="#000000" font-family="sans-serif" font-size="14" lengthAdjust="spacing" textLength="44" x="17" y="80.1074">Human</text><text fill="#000000" font-family="sans-serif" font-size="14" lengthAdjust="spacing" textLength="68" x="5" y="98.7285">Resources</text><text fill="#000000" font-family="sans-serif" font-size="14" lengthAdjust="spacing" textLength="56" x="11" y="117.3496">Manager</text><text fill="#000000" font-family="sans-serif" font-size="14" lengthAdjust="spacing" textLength="40" x="19" y="135.9707">(HRM)</text><ellipse cx="42" cy="13.5" fill="#E3E3E3" rx="8" ry="8" style="stroke:#181818;stroke-width:0.5;"/><path d="M42,21.5 L42,48.5 M29,29.5 L55,29.5 M42,48.5 L29,63.5 M42,48.5 L55,63.5 " fill="none" style="stroke:#181818;stroke-width:0.5;"/><text fill="#000000" font-family="sans-serif" font-size="14" lengthAdjust="spacing" textLength="44" x="17" y="743.8691">Human</text><text fill="#000000" font-family="sans-serif" font-size="14" lengthAdjust="spacing" textLength="68" x="5" y="762.4902">Resources</text><text fill="#000000" font-family="sans-serif" font-size="14" lengthAdjust="spacing" textLength="56" x="11" y="781.1113">Manager</text><text fill="#000000" font-family="sans-serif" font-size="14" lengthAdjust="spacing" textLength="40" x="19" y="799.7324">(HRM)</text><ellipse cx="42" cy="811.7461" fill="#E3E3E3" rx="8" ry="8" style="stroke:#181818;stroke-width:0.5;"/><path d="M42,819.7461 L42,846.7461 M29,827.7461 L55,827.7461 M42,846.7461 L29,861.7461 M42,846.7461 L55,861.7461 " fill="none" style="stroke:#181818;stroke-width:0.5;"/><rect fill="#E3E3E3" height="32.6211" rx="2.5" ry="2.5" style="stroke:#181818;stroke-width:0.5;" width="108" x="270" y="105.8633"/><text fill="#000000" font-family="sans-serif" font-size="14" lengthAdjust="spacing" textLength="94" x="277" y="127.9707">:RegisterSkillUI</text><rect fill="#E3E3E3" height="32.6211" rx="2.5" ry="2.5" style="stroke:#181818;stroke-width:0.5;" width="108" x="270" y="728.7617"/><text fill="#000000" font-family="sans-serif" font-size="14" lengthAdjust="spacing" textLength="94" x="277" y="750.8691">:RegisterSkillUI</text><rect fill="#E3E3E3" height="32.6211" rx="2.5" ry="2.5" style="stroke:#181818;stroke-width:0.5;" width="158" x="393" y="105.8633"/><text fill="#000000" font-family="sans-serif" font-size="14" lengthAdjust="spacing" textLength="144" x="400" y="127.9707">:RegisterSkillController</text><rect fill="#E3E3E3" height="32.6211" rx="2.5" ry="2.5" style="stroke:#181818;stroke-width:0.5;" width="158" x="393" y="728.7617"/><text fill="#000000" font-family="sans-serif" font-size="14" lengthAdjust="spacing" textLength="144" x="400" y="750.8691">:RegisterSkillController</text><rect fill="#E3E3E3" height="32.6211" rx="2.5" ry="2.5" style="stroke:#181818;stroke-width:0.5;" width="93" x="561" y="105.8633"/><text fill="#000000" font-family="sans-serif" font-size="14" lengthAdjust="spacing" textLength="79" x="568" y="127.9707">Repositories</text><rect fill="#E3E3E3" height="32.6211" rx="2.5" ry="2.5" style="stroke:#181818;stroke-width:0.5;" width="93" x="561" y="728.7617"/><text fill="#000000" font-family="sans-serif" font-size="14" lengthAdjust="spacing" textLength="79" x="568" y="750.8691">Repositories</text><rect fill="#E3E3E3" height="51.2422" rx="2.5" ry="2.5" style="stroke:#181818;stroke-width:0.5;" width="93" x="664" y="87.2422"/><text fill="#000000" font-family="sans-serif" font-size="14" lengthAdjust="spacing" textLength="78" x="671.5" y="109.3496">repositories:</text><text fill="#000000" font-family="sans-serif" font-size="14" lengthAdjust="spacing" textLength="79" x="671" y="127.9707">Repositories</text><rect fill="#E3E3E3" height="51.2422" rx="2.5" ry="2.5" style="stroke:#181818;stroke-width:0.5;" width="93" x="664" y="728.7617"/><text fill="#000000" font-family="sans-serif" font-size="14" lengthAdjust="spacing" textLength="78" x="671.5" y="750.8691">repositories:</text><text fill="#000000" font-family="sans-serif" font-size="14" lengthAdjust="spacing" textLength="79" x="671" y="769.4902">Repositories</text><rect fill="#E3E3E3" height="51.2422" rx="2.5" ry="2.5" style="stroke:#181818;stroke-width:0.5;" width="109" x="767" y="87.2422"/><text fill="#000000" font-family="sans-serif" font-size="14" lengthAdjust="spacing" textLength="95" x="774" y="109.3496">skillRepository:</text><text fill="#000000" font-family="sans-serif" font-size="14" lengthAdjust="spacing" textLength="93" x="775" y="127.9707">SkillRepository</text><rect fill="#E3E3E3" height="51.2422" rx="2.5" ry="2.5" style="stroke:#181818;stroke-width:0.5;" width="109" x="767" y="728.7617"/><text fill="#000000" font-family="sans-serif" font-size="14" lengthAdjust="spacing" textLength="95" x="774" y="750.8691">skillRepository:</text><text fill="#000000" font-family="sans-serif" font-size="14" lengthAdjust="spacing" textLength="93" x="775" y="769.4902">SkillRepository</text><rect fill="#E3E3E3" height="32.6211" rx="2.5" ry="2.5" style="stroke:#181818;stroke-width:0.5;" width="66" x="951.5" y="728.7617"/><text fill="#000000" font-family="sans-serif" font-size="14" lengthAdjust="spacing" textLength="52" x="958.5" y="750.8691">skill:Skill</text><rect fill="#FFFFFF" height="562.2773" style="stroke:#181818;stroke-width:1.0;" width="10" x="37" y="149.4844"/><rect fill="#FFFFFF" height="31.291" style="stroke:#181818;stroke-width:1.0;" width="10" x="319" y="172.7754"/><rect fill="#FFFFFF" height="31.291" style="stroke:#181818;stroke-width:1.0;" width="10" x="319" y="235.3574"/><rect fill="#FFFFFF" height="413.8223" style="stroke:#181818;stroke-width:1.0;" width="10" x="319" y="297.9395"/><rect fill="#FFFFFF" height="351.2402" style="stroke:#181818;stroke-width:1.0;" width="10" x="467" y="329.2305"/><rect fill="#FFFFFF" height="31.291" style="stroke:#181818;stroke-width:1.0;" width="10" x="602.5" y="360.5215"/><rect fill="#FFFFFF" height="31.291" style="stroke:#181818;stroke-width:1.0;" width="10" x="705.5" y="423.1035"/><rect fill="#FFFFFF" height="163.4941" style="stroke:#181818;stroke-width:1.0;" width="10" x="816.5" y="485.6855"/><rect fill="#FFFFFF" height="122.2031" style="stroke:#181818;stroke-width:1.0;" width="10" x="821.5" y="526.9766"/><rect fill="#FFFFFF" height="80.582" style="stroke:#181818;stroke-width:1.0;" width="10" x="826.5" y="568.5977"/><polygon fill="#181818" points="307,168.7754,317,172.7754,307,176.7754,311,172.7754" style="stroke:#181818;stroke-width:1.0;"/><line style="stroke:#181818;stroke-width:1.0;" x1="47" x2="313" y1="172.7754" y2="172.7754"/><text fill="#000000" font-family="sans-serif" font-size="13" font-weight="bold" lengthAdjust="spacing" textLength="7" x="54" y="167.5127">1</text><text fill="#000000" font-family="sans-serif" font-size="13" lengthAdjust="spacing" textLength="153" x="65" y="167.5127">asks to register some skill</text><polygon fill="#181818" points="58,200.0664,48,204.0664,58,208.0664,54,204.0664" style="stroke:#181818;stroke-width:1.0;"/><line style="stroke:#181818;stroke-width:1.0;stroke-dasharray:2.0,2.0;" x1="52" x2="323" y1="204.0664" y2="204.0664"/><text fill="#000000" font-family="sans-serif" font-size="13" font-weight="bold" lengthAdjust="spacing" textLength="7" x="64" y="198.8037">2</text><text fill="#000000" font-family="sans-serif" font-size="13" lengthAdjust="spacing" textLength="135" x="75" y="198.8037">requests the skill name</text><polygon fill="#181818" points="307,231.3574,317,235.3574,307,239.3574,311,235.3574" style="stroke:#181818;stroke-width:1.0;"/><line style="stroke:#181818;stroke-width:1.0;" x1="47" x2="313" y1="235.3574" y2="235.3574"/><text fill="#000000" font-family="sans-serif" font-size="13" font-weight="bold" lengthAdjust="spacing" textLength="7" x="54" y="230.0947">3</text><text fill="#000000" font-family="sans-serif" font-size="13" lengthAdjust="spacing" textLength="125" x="65" y="230.0947">Types requested data</text><polygon fill="#181818" points="58,262.6484,48,266.6484,58,270.6484,54,266.6484" style="stroke:#181818;stroke-width:1.0;"/><line style="stroke:#181818;stroke-width:1.0;stroke-dasharray:2.0,2.0;" x1="52" x2="323" y1="266.6484" y2="266.6484"/><text fill="#000000" font-family="sans-serif" font-size="13" font-weight="bold" lengthAdjust="spacing" textLength="7" x="64" y="261.3857">4</text><text fill="#000000" font-family="sans-serif" font-size="13" lengthAdjust="spacing" textLength="237" x="75" y="261.3857">Shows the skill and asks for confirmation</text><polygon fill="#181818" points="307,293.9395,317,297.9395,307,301.9395,311,297.9395" style="stroke:#181818;stroke-width:1.0;"/><line style="stroke:#181818;stroke-width:1.0;" x1="47" x2="313" y1="297.9395" y2="297.9395"/><text fill="#000000" font-family="sans-serif" font-size="13" font-weight="bold" lengthAdjust="spacing" textLength="7" x="54" y="292.6768">5</text><text fill="#000000" font-family="sans-serif" font-size="13" lengthAdjust="spacing" textLength="78" x="65" y="292.6768">Confirms skill</text><polygon fill="#181818" points="455,325.2305,465,329.2305,455,333.2305,459,329.2305" style="stroke:#181818;stroke-width:1.0;"/><line style="stroke:#181818;stroke-width:1.0;" x1="329" x2="461" y1="329.2305" y2="329.2305"/><text fill="#000000" font-family="sans-serif" font-size="13" font-weight="bold" lengthAdjust="spacing" textLength="7" x="336" y="323.9678">6</text><text fill="#000000" font-family="sans-serif" font-size="13" lengthAdjust="spacing" textLength="108" x="347" y="323.9678">registerSkill(name)</text><polygon fill="#181818" points="590.5,356.5215,600.5,360.5215,590.5,364.5215,594.5,360.5215" style="stroke:#181818;stroke-width:1.0;"/><line style="stroke:#181818;stroke-width:1.0;" x1="477" x2="596.5" y1="360.5215" y2="360.5215"/><text fill="#000000" font-family="sans-serif" font-size="13" font-weight="bold" lengthAdjust="spacing" textLength="7" x="484" y="355.2588">7</text><text fill="#000000" font-family="sans-serif" font-size="13" lengthAdjust="spacing" textLength="75" x="495" y="355.2588">getInstance()</text><polygon fill="#181818" points="488,387.8125,478,391.8125,488,395.8125,484,391.8125" style="stroke:#181818;stroke-width:1.0;"/><line style="stroke:#181818;stroke-width:1.0;stroke-dasharray:2.0,2.0;" x1="482" x2="606.5" y1="391.8125" y2="391.8125"/><text fill="#000000" font-family="sans-serif" font-size="13" font-weight="bold" lengthAdjust="spacing" textLength="7" x="494" y="386.5498">8</text><text fill="#000000" font-family="sans-serif" font-size="13" lengthAdjust="spacing" textLength="67" x="505" y="386.5498">repositories</text><polygon fill="#181818" points="693.5,419.1035,703.5,423.1035,693.5,427.1035,697.5,423.1035" style="stroke:#181818;stroke-width:1.0;"/><line style="stroke:#181818;stroke-width:1.0;" x1="477" x2="699.5" y1="423.1035" y2="423.1035"/><text fill="#000000" font-family="sans-serif" font-size="13" font-weight="bold" lengthAdjust="spacing" textLength="7" x="484" y="417.8408">9</text><text fill="#000000" font-family="sans-serif" font-size="13" lengthAdjust="spacing" textLength="120" x="495" y="417.8408">getSkillsRepository()</text><polygon fill="#181818" points="488,450.3945,478,454.3945,488,458.3945,484,454.3945" style="stroke:#181818;stroke-width:1.0;"/><line style="stroke:#181818;stroke-width:1.0;stroke-dasharray:2.0,2.0;" x1="482" x2="709.5" y1="454.3945" y2="454.3945"/><text fill="#000000" font-family="sans-serif" font-size="13" font-weight="bold" lengthAdjust="spacing" textLength="14" x="494" y="449.1318">10</text><text fill="#000000" font-family="sans-serif" font-size="13" lengthAdjust="spacing" textLength="92" x="512" y="449.1318">skillsRepository</text><polygon fill="#181818" points="804.5,481.6855,814.5,485.6855,804.5,489.6855,808.5,485.6855" style="stroke:#181818;stroke-width:1.0;"/><line style="stroke:#181818;stroke-width:1.0;" x1="477" x2="810.5" y1="485.6855" y2="485.6855"/><text fill="#000000" font-family="sans-serif" font-size="13" font-weight="bold" lengthAdjust="spacing" textLength="14" x="484" y="480.4229">11</text><text fill="#000000" font-family="sans-serif" font-size="13" lengthAdjust="spacing" textLength="108" x="502" y="480.4229">registerSkill(name)</text><polygon fill="#181818" points="939.5,512.9766,949.5,516.9766,939.5,520.9766,943.5,516.9766" style="stroke:#181818;stroke-width:1.0;"/><line style="stroke:#181818;stroke-width:1.0;" x1="826.5" x2="945.5" y1="516.9766" y2="516.9766"/><text fill="#000000" font-family="sans-serif" font-size="13" font-weight="bold" lengthAdjust="spacing" textLength="14" x="833.5" y="511.7139">12</text><text fill="#000000" font-family="sans-serif" font-size="13" lengthAdjust="spacing" textLength="83" x="851.5" y="511.7139">register(name)</text><rect fill="#E3E3E3" height="32.6211" rx="2.5" ry="2.5" style="stroke:#181818;stroke-width:0.5;" width="66" x="951.5" y="493.6855"/><text fill="#000000" font-family="sans-serif" font-size="14" lengthAdjust="spacing" textLength="52" x="958.5" y="515.793">skill:Skill</text><line style="stroke:#181818;stroke-width:1.0;" x1="831.5" x2="878.5" y1="555.5977" y2="555.5977"/><line style="stroke:#181818;stroke-width:1.0;" x1="878.5" x2="878.5" y1="555.5977" y2="568.5977"/><line style="stroke:#181818;stroke-width:1.0;" x1="837.5" x2="878.5" y1="568.5977" y2="568.5977"/><polygon fill="#181818" points="847.5,564.5977,837.5,568.5977,847.5,572.5977,843.5,568.5977" style="stroke:#181818;stroke-width:1.0;"/><text fill="#000000" font-family="sans-serif" font-size="13" font-weight="bold" lengthAdjust="spacing" textLength="14" x="843.5" y="550.335">13</text><text fill="#000000" font-family="sans-serif" font-size="13" lengthAdjust="spacing" textLength="77" x="861.5" y="550.335">addSkill(skill)</text><line style="stroke:#181818;stroke-width:1.0;" x1="836.5" x2="878.5" y1="604.8887" y2="604.8887"/><line style="stroke:#181818;stroke-width:1.0;" x1="878.5" x2="878.5" y1="604.8887" y2="617.8887"/><line style="stroke:#181818;stroke-width:1.0;" x1="837.5" x2="878.5" y1="617.8887" y2="617.8887"/><polygon fill="#181818" points="847.5,613.8887,837.5,617.8887,847.5,621.8887,843.5,617.8887" style="stroke:#181818;stroke-width:1.0;"/><text fill="#000000" font-family="sans-serif" font-size="13" font-weight="bold" lengthAdjust="spacing" textLength="14" x="843.5" y="599.626">14</text><text fill="#000000" font-family="sans-serif" font-size="13" lengthAdjust="spacing" textLength="99" x="861.5" y="599.626">validateSkill(skill)</text><polygon fill="#181818" points="488,645.1797,478,649.1797,488,653.1797,484,649.1797" style="stroke:#181818;stroke-width:1.0;"/><line style="stroke:#181818;stroke-width:1.0;stroke-dasharray:2.0,2.0;" x1="482" x2="820.5" y1="649.1797" y2="649.1797"/><text fill="#000000" font-family="sans-serif" font-size="13" font-weight="bold" lengthAdjust="spacing" textLength="14" x="494" y="643.917">15</text><text fill="#000000" font-family="sans-serif" font-size="13" lengthAdjust="spacing" textLength="23" x="512" y="643.917">skill</text><polygon fill="#181818" points="340,676.4707,330,680.4707,340,684.4707,336,680.4707" style="stroke:#181818;stroke-width:1.0;"/><line style="stroke:#181818;stroke-width:1.0;stroke-dasharray:2.0,2.0;" x1="334" x2="471" y1="680.4707" y2="680.4707"/><text fill="#000000" font-family="sans-serif" font-size="13" font-weight="bold" lengthAdjust="spacing" textLength="14" x="346" y="675.208">16</text><text fill="#000000" font-family="sans-serif" font-size="13" lengthAdjust="spacing" textLength="23" x="364" y="675.208">skill</text><polygon fill="#181818" points="53,707.7617,43,711.7617,53,715.7617,49,711.7617" style="stroke:#181818;stroke-width:1.0;"/><line style="stroke:#181818;stroke-width:1.0;stroke-dasharray:2.0,2.0;" x1="47" x2="323" y1="711.7617" y2="711.7617"/><text fill="#000000" font-family="sans-serif" font-size="13" font-weight="bold" lengthAdjust="spacing" textLength="14" x="59" y="706.499">17</text><text fill="#000000" font-family="sans-serif" font-size="13" lengthAdjust="spacing" textLength="158" x="77" y="706.499">displays operation success</text><!--SRC=[fLN1Zfim4BtxAwnScgoqFy0XboZIHkfA4UpUSfc5IR02DlMOtURlEvX0J4CARNt2-CrxyyR3G6UbAx1Goj9ea-RMb2YThL5GVr91UeOJ9kvIeBIOEj2d8WHG3fdvKleaZr0G2W6rCxekFz0AyIrN6SgZCUx3_1IGEcFbugKkGHzqZ6Hgco8Tz2jerh07lNo9NrSB2IJvGR20KwcgG3kvY68yAN9eaxCgYlUTHxtl_WJQ6EsiAGgq7hnvYxyFu35MXXJdf926F3OuYPfKRrjF5M_tmm1gz7hOXMEIuHiVbep7HHxh4NulcagfJt3eoo24l2xUoUSrkvOHWyyadU4xQHrBQcwlZU_mFGtNgN_PBMPvPhA6CsAM7pMIOyRyIY8rbDW7PHXotUKJoRTBXTJHO2OpSF0FUIIv-GgJ09srJe_SEQdHHsLBSChekPanvwODexyjpjftJDHNsD_IiYdBwZwWP_DTTdVShUQqOGuxAf8dT3jD_6cbk5mz3kur1etx4Dwj4ErBtTaAI1x51jMT9zeRtEwzBryqkdq7x6_Q7dybqwws-y0C_IOpon3BJDb8l8-n3fXqaSooaNWVwzR0qzDDQqBcF-LQNv1bhIMlFYqsBZetQgZz2ONY8O631FoQnpEyUZ4xYw01vfLiTi1iODjSry4v74eZNEC3vJOr8vafgWgua3GLMZyT9TKf_rdfmPGCTiqFvXS0]--></g></svg>