<?xml version="1.0" encoding="us-ascii" standalone="no"?><svg xmlns="http://www.w3.org/2000/svg" xmlns:xlink="http://www.w3.org/1999/xlink" contentStyleType="text/css" height="675px" preserveAspectRatio="none" style="width:699px;height:675px;background:#FFFFFF;" version="1.1" viewBox="0 0 699 675" width="699px" zoomAndPan="magnify"><defs/><g><rect fill="#FFFFFF" height="369.123" style="stroke:#181818;stroke-width:1.0;" width="10" x="37" y="149.4844"/><rect fill="#FFFFFF" height="31.291" style="stroke:#181818;stroke-width:1.0;" width="10" x="326" y="172.7754"/><rect fill="#FFFFFF" height="31.291" style="stroke:#181818;stroke-width:1.0;" width="10" x="326" y="235.3574"/><rect fill="#FFFFFF" height="220.668" style="stroke:#181818;stroke-width:1.0;" width="10" x="326" y="297.9395"/><rect fill="#FFFFFF" height="158.0859" style="stroke:#181818;stroke-width:1.0;" width="10" x="481" y="329.2305"/><rect fill="#FFFFFF" height="95.5039" style="stroke:#181818;stroke-width:1.0;" width="10" x="636" y="360.5215"/><line style="stroke:#181818;stroke-width:0.5;stroke-dasharray:5.0,5.0;" x1="42" x2="42" y1="139.4844" y2="536.6074"/><line style="stroke:#181818;stroke-width:0.5;stroke-dasharray:5.0,5.0;" x1="330.5" x2="330.5" y1="139.4844" y2="536.6074"/><line style="stroke:#181818;stroke-width:0.5;stroke-dasharray:5.0,5.0;" x1="485.5" x2="485.5" y1="139.4844" y2="536.6074"/><line style="stroke:#181818;stroke-width:0.5;stroke-dasharray:5.0,5.0;" x1="641" x2="641" y1="139.4844" y2="536.6074"/><text fill="#000000" font-family="sans-serif" font-size="14" lengthAdjust="spacing" textLength="44" x="17" y="80.1074">Human</text><text fill="#000000" font-family="sans-serif" font-size="14" lengthAdjust="spacing" textLength="68" x="5" y="98.7285">Resources</text><text fill="#000000" font-family="sans-serif" font-size="14" lengthAdjust="spacing" textLength="56" x="11" y="117.3496">Manager</text><text fill="#000000" font-family="sans-serif" font-size="14" lengthAdjust="spacing" textLength="40" x="19" y="135.9707">(HRM)</text><ellipse cx="42" cy="13.5" fill="#E3E3E3" rx="8" ry="8" style="stroke:#181818;stroke-width:0.5;"/><path d="M42,21.5 L42,48.5 M29,29.5 L55,29.5 M42,48.5 L29,63.5 M42,48.5 L55,63.5 " fill="none" style="stroke:#181818;stroke-width:0.5;"/><text fill="#000000" font-family="sans-serif" font-size="14" lengthAdjust="spacing" textLength="44" x="17" y="550.7148">Human</text><text fill="#000000" font-family="sans-serif" font-size="14" lengthAdjust="spacing" textLength="68" x="5" y="569.3359">Resources</text><text fill="#000000" font-family="sans-serif" font-size="14" lengthAdjust="spacing" textLength="56" x="11" y="587.957">Manager</text><text fill="#000000" font-family="sans-serif" font-size="14" lengthAdjust="spacing" textLength="40" x="19" y="606.5781">(HRM)</text><ellipse cx="42" cy="618.5918" fill="#E3E3E3" rx="8" ry="8" style="stroke:#181818;stroke-width:0.5;"/><path d="M42,626.5918 L42,653.5918 M29,634.5918 L55,634.5918 M42,653.5918 L29,668.5918 M42,653.5918 L55,668.5918 " fill="none" style="stroke:#181818;stroke-width:0.5;"/><rect fill="#E3E3E3" height="32.6211" rx="2.5" ry="2.5" style="stroke:#181818;stroke-width:0.5;" width="87" x="287.5" y="105.8633"/><text fill="#000000" font-family="sans-serif" font-size="14" lengthAdjust="spacing" textLength="73" x="294.5" y="127.9707">:AddSkillsUI</text><rect fill="#E3E3E3" height="32.6211" rx="2.5" ry="2.5" style="stroke:#181818;stroke-width:0.5;" width="87" x="287.5" y="535.6074"/><text fill="#000000" font-family="sans-serif" font-size="14" lengthAdjust="spacing" textLength="73" x="294.5" y="557.7148">:AddSkillsUI</text><rect fill="#E3E3E3" height="32.6211" rx="2.5" ry="2.5" style="stroke:#181818;stroke-width:0.5;" width="165" x="403.5" y="105.8633"/><text fill="#000000" font-family="sans-serif" font-size="14" lengthAdjust="spacing" textLength="151" x="410.5" y="127.9707">:RegisterSkillsController</text><rect fill="#E3E3E3" height="32.6211" rx="2.5" ry="2.5" style="stroke:#181818;stroke-width:0.5;" width="165" x="403.5" y="535.6074"/><text fill="#000000" font-family="sans-serif" font-size="14" lengthAdjust="spacing" textLength="151" x="410.5" y="557.7148">:RegisterSkillsController</text><rect fill="#E3E3E3" height="51.2422" rx="2.5" ry="2.5" style="stroke:#181818;stroke-width:0.5;" width="98" x="592" y="87.2422"/><text fill="#000000" font-family="sans-serif" font-size="14" lengthAdjust="spacing" textLength="77" x="602.5" y="109.3496">organization</text><text fill="#000000" font-family="sans-serif" font-size="14" lengthAdjust="spacing" textLength="84" x="599" y="127.9707">:Organization</text><rect fill="#E3E3E3" height="51.2422" rx="2.5" ry="2.5" style="stroke:#181818;stroke-width:0.5;" width="98" x="592" y="535.6074"/><text fill="#000000" font-family="sans-serif" font-size="14" lengthAdjust="spacing" textLength="77" x="602.5" y="557.7148">organization</text><text fill="#000000" font-family="sans-serif" font-size="14" lengthAdjust="spacing" textLength="84" x="599" y="576.3359">:Organization</text><rect fill="#FFFFFF" height="369.123" style="stroke:#181818;stroke-width:1.0;" width="10" x="37" y="149.4844"/><rect fill="#FFFFFF" height="31.291" style="stroke:#181818;stroke-width:1.0;" width="10" x="326" y="172.7754"/><rect fill="#FFFFFF" height="31.291" style="stroke:#181818;stroke-width:1.0;" width="10" x="326" y="235.3574"/><rect fill="#FFFFFF" height="220.668" style="stroke:#181818;stroke-width:1.0;" width="10" x="326" y="297.9395"/><rect fill="#FFFFFF" height="158.0859" style="stroke:#181818;stroke-width:1.0;" width="10" x="481" y="329.2305"/><rect fill="#FFFFFF" height="95.5039" style="stroke:#181818;stroke-width:1.0;" width="10" x="636" y="360.5215"/><polygon fill="#181818" points="314,168.7754,324,172.7754,314,176.7754,318,172.7754" style="stroke:#181818;stroke-width:1.0;"/><line style="stroke:#181818;stroke-width:1.0;" x1="47" x2="320" y1="172.7754" y2="172.7754"/><text fill="#000000" font-family="sans-serif" font-size="13" font-weight="bold" lengthAdjust="spacing" textLength="7" x="54" y="167.5127">1</text><text fill="#000000" font-family="sans-serif" font-size="13" lengthAdjust="spacing" textLength="138" x="65" y="167.5127">asks to add some skills</text><polygon fill="#181818" points="58,200.0664,48,204.0664,58,208.0664,54,204.0664" style="stroke:#181818;stroke-width:1.0;"/><line style="stroke:#181818;stroke-width:1.0;" x1="52" x2="330" y1="204.0664" y2="204.0664"/><text fill="#000000" font-family="sans-serif" font-size="13" font-weight="bold" lengthAdjust="spacing" textLength="7" x="64" y="198.8037">2</text><text fill="#000000" font-family="sans-serif" font-size="13" lengthAdjust="spacing" textLength="135" x="75" y="198.8037">requests the skill name</text><polygon fill="#181818" points="314,231.3574,324,235.3574,314,239.3574,318,235.3574" style="stroke:#181818;stroke-width:1.0;"/><line style="stroke:#181818;stroke-width:1.0;" x1="47" x2="320" y1="235.3574" y2="235.3574"/><text fill="#000000" font-family="sans-serif" font-size="13" font-weight="bold" lengthAdjust="spacing" textLength="7" x="54" y="230.0947">3</text><text fill="#000000" font-family="sans-serif" font-size="13" lengthAdjust="spacing" textLength="125" x="65" y="230.0947">Types requested data</text><polygon fill="#181818" points="58,262.6484,48,266.6484,58,270.6484,54,266.6484" style="stroke:#181818;stroke-width:1.0;"/><line style="stroke:#181818;stroke-width:1.0;" x1="52" x2="330" y1="266.6484" y2="266.6484"/><text fill="#000000" font-family="sans-serif" font-size="13" font-weight="bold" lengthAdjust="spacing" textLength="7" x="64" y="261.3857">4</text><text fill="#000000" font-family="sans-serif" font-size="13" lengthAdjust="spacing" textLength="244" x="75" y="261.3857">Shows the skills and asks for confirmation</text><polygon fill="#181818" points="314,293.9395,324,297.9395,314,301.9395,318,297.9395" style="stroke:#181818;stroke-width:1.0;"/><line style="stroke:#181818;stroke-width:1.0;" x1="47" x2="320" y1="297.9395" y2="297.9395"/><text fill="#000000" font-family="sans-serif" font-size="13" font-weight="bold" lengthAdjust="spacing" textLength="7" x="54" y="292.6768">5</text><text fill="#000000" font-family="sans-serif" font-size="13" lengthAdjust="spacing" textLength="89" x="65" y="292.6768">Confirms skills.</text><polygon fill="#181818" points="469,325.2305,479,329.2305,469,333.2305,473,329.2305" style="stroke:#181818;stroke-width:1.0;"/><line style="stroke:#181818;stroke-width:1.0;" x1="336" x2="475" y1="329.2305" y2="329.2305"/><text fill="#000000" font-family="sans-serif" font-size="13" font-weight="bold" lengthAdjust="spacing" textLength="7" x="343" y="323.9678">6</text><text fill="#000000" font-family="sans-serif" font-size="13" lengthAdjust="spacing" textLength="115" x="354" y="323.9678">registerSkills(name)</text><polygon fill="#181818" points="624,356.5215,634,360.5215,624,364.5215,628,360.5215" style="stroke:#181818;stroke-width:1.0;"/><line style="stroke:#181818;stroke-width:1.0;" x1="491" x2="630" y1="360.5215" y2="360.5215"/><text fill="#000000" font-family="sans-serif" font-size="13" font-weight="bold" lengthAdjust="spacing" textLength="7" x="498" y="355.2588">7</text><text fill="#000000" font-family="sans-serif" font-size="13" lengthAdjust="spacing" textLength="115" x="509" y="355.2588">registerSkills(name)</text><rect fill="none" height="59.2129" style="stroke:#000000;stroke-width:1.5;" width="104" x="589" y="368.5215"/><path d="M589,368.5215 L651,368.5215 L651,377.5215 L641,387.5215 L589,387.5215 L589,368.5215 " fill="#EEEEEE" style="stroke:#000000;stroke-width:2.0;"/><text fill="#000000" font-family="sans-serif" font-size="13" font-weight="bold" lengthAdjust="spacing" textLength="17" x="602" y="384.5498">ref</text><text fill="#000000" font-family="sans-serif" font-size="12" lengthAdjust="spacing" textLength="80" x="601" y="404.4707">Register Skills</text><text fill="#000000" font-family="sans-serif" font-size="12" lengthAdjust="spacing" textLength="3" x="639.5" y="420.4316">&#160;</text><polygon fill="#181818" points="502,452.0254,492,456.0254,502,460.0254,498,456.0254" style="stroke:#181818;stroke-width:1.0;"/><line style="stroke:#181818;stroke-width:1.0;" x1="496" x2="640" y1="456.0254" y2="456.0254"/><text fill="#000000" font-family="sans-serif" font-size="13" font-weight="bold" lengthAdjust="spacing" textLength="7" x="508" y="450.7627">8</text><text fill="#000000" font-family="sans-serif" font-size="13" lengthAdjust="spacing" textLength="30" x="519" y="450.7627">skills</text><polygon fill="#181818" points="347,483.3164,337,487.3164,347,491.3164,343,487.3164" style="stroke:#181818;stroke-width:1.0;"/><line style="stroke:#181818;stroke-width:1.0;" x1="341" x2="485" y1="487.3164" y2="487.3164"/><text fill="#000000" font-family="sans-serif" font-size="13" font-weight="bold" lengthAdjust="spacing" textLength="7" x="353" y="482.0537">9</text><text fill="#000000" font-family="sans-serif" font-size="13" lengthAdjust="spacing" textLength="30" x="364" y="482.0537">skills</text><polygon fill="#181818" points="53,514.6074,43,518.6074,53,522.6074,49,518.6074" style="stroke:#181818;stroke-width:1.0;"/><line style="stroke:#181818;stroke-width:1.0;" x1="47" x2="330" y1="518.6074" y2="518.6074"/><text fill="#000000" font-family="sans-serif" font-size="13" font-weight="bold" lengthAdjust="spacing" textLength="14" x="59" y="513.3447">10</text><text fill="#000000" font-family="sans-serif" font-size="13" lengthAdjust="spacing" textLength="165" x="77" y="513.3447">Displays Operation Success</text><!--SRC=[bPJ1Rjim38RlUWeYbxM7xG5yA51aG5jWHG6dlUN2MhGjn1PTKMwRFVqe9_RSP5bJdYphryTV96tPEDzXm1PQzbpKWLk267eoCkrqM6omebNSDWI1YeY-QkO2gT7oc_CLbDW86ODzPD-tpnIC-LOxIr0onsT-DrX43h2uxLlqQv-JS1yAahM_HwyvmjfVtERtbmj00NqmcY2wmdNe8oooQsjN6zSqydGtA9xk3WGvLKuYXPrgoJu6RXeAWthvcF_wgETGeNU_CJfMDzd3R3cSUCXlacFtYf46EyR0FdG5tw_K0MIgt0X41hGM91LGXlIJTaAet-db64fGJi9bMjoNdYGghDv3m6DBqnbBSzIHbGmUjnt9Y24B5YD-tSQgvhUP1m7qTdV9KfjNi2zTQ8SgdUjCeSlTCTapVtp5LkfSgiwykHUfCfT71oRQqEsZxJ7IRY9hXyy47oL8mt5IDKQW4lYLmg26CsESOjWP-ZmBUVkvI1tyhUN1X1x6h9t_lUPOnZHx9v0prBzRCarU1Z-TT0rkzSFhA0m31gk-qF-3d1YqsIfzddy0]--></g></svg>