<?xml version="1.0" encoding="us-ascii" standalone="no"?><svg xmlns="http://www.w3.org/2000/svg" xmlns:xlink="http://www.w3.org/1999/xlink" contentStyleType="text/css" height="832px" preserveAspectRatio="none" style="width:843px;height:832px;background:#FFFFFF;" version="1.1" viewBox="0 0 843 832" width="843px" zoomAndPan="magnify"><defs/><g><rect fill="#FFFFFF" height="525.6953" style="stroke:#181818;stroke-width:1.0;" width="10" x="37" y="149.4844"/><rect fill="#FFFFFF" height="31.291" style="stroke:#181818;stroke-width:1.0;" width="10" x="326" y="172.7754"/><rect fill="#FFFFFF" height="31.291" style="stroke:#181818;stroke-width:1.0;" width="10" x="326" y="235.3574"/><rect fill="#FFFFFF" height="377.2402" style="stroke:#181818;stroke-width:1.0;" width="10" x="326" y="297.9395"/><rect fill="#FFFFFF" height="314.6582" style="stroke:#181818;stroke-width:1.0;" width="10" x="481" y="329.2305"/><rect fill="#FFFFFF" height="252.0762" style="stroke:#181818;stroke-width:1.0;" width="10" x="636" y="360.5215"/><rect fill="#FFFFFF" height="130.873" style="stroke:#181818;stroke-width:1.0;" width="10" x="641" y="443.4336"/><rect fill="#FFFFFF" height="42.291" style="stroke:#181818;stroke-width:1.0;" width="10" x="646" y="487.7246"/><line style="stroke:#181818;stroke-width:0.5;stroke-dasharray:5.0,5.0;" x1="42" x2="42" y1="139.4844" y2="693.1797"/><line style="stroke:#181818;stroke-width:0.5;stroke-dasharray:5.0,5.0;" x1="330.5" x2="330.5" y1="139.4844" y2="693.1797"/><line style="stroke:#181818;stroke-width:0.5;stroke-dasharray:5.0,5.0;" x1="485.5" x2="485.5" y1="139.4844" y2="693.1797"/><line style="stroke:#181818;stroke-width:0.5;stroke-dasharray:5.0,5.0;" x1="641" x2="641" y1="139.4844" y2="693.1797"/><line style="stroke:#181818;stroke-width:0.5;stroke-dasharray:5.0,5.0;" x1="804" x2="804" y1="400.332" y2="693.1797"/><text fill="#000000" font-family="sans-serif" font-size="14" lengthAdjust="spacing" textLength="44" x="17" y="80.1074">Human</text><text fill="#000000" font-family="sans-serif" font-size="14" lengthAdjust="spacing" textLength="68" x="5" y="98.7285">Resources</text><text fill="#000000" font-family="sans-serif" font-size="14" lengthAdjust="spacing" textLength="56" x="11" y="117.3496">Manager</text><text fill="#000000" font-family="sans-serif" font-size="14" lengthAdjust="spacing" textLength="40" x="19" y="135.9707">(HRM)</text><ellipse cx="42" cy="13.5" fill="#E3E3E3" rx="8" ry="8" style="stroke:#181818;stroke-width:0.5;"/><path d="M42,21.5 L42,48.5 M29,29.5 L55,29.5 M42,48.5 L29,63.5 M42,48.5 L55,63.5 " fill="none" style="stroke:#181818;stroke-width:0.5;"/><text fill="#000000" font-family="sans-serif" font-size="14" lengthAdjust="spacing" textLength="44" x="17" y="707.2871">Human</text><text fill="#000000" font-family="sans-serif" font-size="14" lengthAdjust="spacing" textLength="68" x="5" y="725.9082">Resources</text><text fill="#000000" font-family="sans-serif" font-size="14" lengthAdjust="spacing" textLength="56" x="11" y="744.5293">Manager</text><text fill="#000000" font-family="sans-serif" font-size="14" lengthAdjust="spacing" textLength="40" x="19" y="763.1504">(HRM)</text><ellipse cx="42" cy="775.1641" fill="#E3E3E3" rx="8" ry="8" style="stroke:#181818;stroke-width:0.5;"/><path d="M42,783.1641 L42,810.1641 M29,791.1641 L55,791.1641 M42,810.1641 L29,825.1641 M42,810.1641 L55,825.1641 " fill="none" style="stroke:#181818;stroke-width:0.5;"/><rect fill="#E3E3E3" height="32.6211" rx="2.5" ry="2.5" style="stroke:#181818;stroke-width:0.5;" width="87" x="287.5" y="105.8633"/><text fill="#000000" font-family="sans-serif" font-size="14" lengthAdjust="spacing" textLength="73" x="294.5" y="127.9707">:AddSkillsUI</text><rect fill="#E3E3E3" height="32.6211" rx="2.5" ry="2.5" style="stroke:#181818;stroke-width:0.5;" width="87" x="287.5" y="692.1797"/><text fill="#000000" font-family="sans-serif" font-size="14" lengthAdjust="spacing" textLength="73" x="294.5" y="714.2871">:AddSkillsUI</text><rect fill="#E3E3E3" height="32.6211" rx="2.5" ry="2.5" style="stroke:#181818;stroke-width:0.5;" width="165" x="403.5" y="105.8633"/><text fill="#000000" font-family="sans-serif" font-size="14" lengthAdjust="spacing" textLength="151" x="410.5" y="127.9707">:RegisterSkillsController</text><rect fill="#E3E3E3" height="32.6211" rx="2.5" ry="2.5" style="stroke:#181818;stroke-width:0.5;" width="165" x="403.5" y="692.1797"/><text fill="#000000" font-family="sans-serif" font-size="14" lengthAdjust="spacing" textLength="151" x="410.5" y="714.2871">:RegisterSkillsController</text><rect fill="#E3E3E3" height="51.2422" rx="2.5" ry="2.5" style="stroke:#181818;stroke-width:0.5;" width="98" x="592" y="87.2422"/><text fill="#000000" font-family="sans-serif" font-size="14" lengthAdjust="spacing" textLength="77" x="602.5" y="109.3496">organization</text><text fill="#000000" font-family="sans-serif" font-size="14" lengthAdjust="spacing" textLength="84" x="599" y="127.9707">:Organization</text><rect fill="#E3E3E3" height="51.2422" rx="2.5" ry="2.5" style="stroke:#181818;stroke-width:0.5;" width="98" x="592" y="692.1797"/><text fill="#000000" font-family="sans-serif" font-size="14" lengthAdjust="spacing" textLength="77" x="602.5" y="714.2871">organization</text><text fill="#000000" font-family="sans-serif" font-size="14" lengthAdjust="spacing" textLength="84" x="599" y="732.9082">:Organization</text><rect fill="#E3E3E3" height="32.6211" rx="2.5" ry="2.5" style="stroke:#181818;stroke-width:0.5;" width="66" x="771" y="692.1797"/><text fill="#000000" font-family="sans-serif" font-size="14" lengthAdjust="spacing" textLength="52" x="778" y="714.2871">skill:Skill</text><rect fill="#FFFFFF" height="525.6953" style="stroke:#181818;stroke-width:1.0;" width="10" x="37" y="149.4844"/><rect fill="#FFFFFF" height="31.291" style="stroke:#181818;stroke-width:1.0;" width="10" x="326" y="172.7754"/><rect fill="#FFFFFF" height="31.291" style="stroke:#181818;stroke-width:1.0;" width="10" x="326" y="235.3574"/><rect fill="#FFFFFF" height="377.2402" style="stroke:#181818;stroke-width:1.0;" width="10" x="326" y="297.9395"/><rect fill="#FFFFFF" height="314.6582" style="stroke:#181818;stroke-width:1.0;" width="10" x="481" y="329.2305"/><rect fill="#FFFFFF" height="252.0762" style="stroke:#181818;stroke-width:1.0;" width="10" x="636" y="360.5215"/><rect fill="#FFFFFF" height="130.873" style="stroke:#181818;stroke-width:1.0;" width="10" x="641" y="443.4336"/><rect fill="#FFFFFF" height="42.291" style="stroke:#181818;stroke-width:1.0;" width="10" x="646" y="487.7246"/><polygon fill="#181818" points="314,168.7754,324,172.7754,314,176.7754,318,172.7754" style="stroke:#181818;stroke-width:1.0;"/><line style="stroke:#181818;stroke-width:1.0;" x1="47" x2="320" y1="172.7754" y2="172.7754"/><text fill="#000000" font-family="sans-serif" font-size="13" font-weight="bold" lengthAdjust="spacing" textLength="7" x="54" y="167.5127">1</text><text fill="#000000" font-family="sans-serif" font-size="13" lengthAdjust="spacing" textLength="138" x="65" y="167.5127">asks to add some skills</text><polygon fill="#181818" points="58,200.0664,48,204.0664,58,208.0664,54,204.0664" style="stroke:#181818;stroke-width:1.0;"/><line style="stroke:#181818;stroke-width:1.0;" x1="52" x2="330" y1="204.0664" y2="204.0664"/><text fill="#000000" font-family="sans-serif" font-size="13" font-weight="bold" lengthAdjust="spacing" textLength="7" x="64" y="198.8037">2</text><text fill="#000000" font-family="sans-serif" font-size="13" lengthAdjust="spacing" textLength="135" x="75" y="198.8037">requests the skill name</text><polygon fill="#181818" points="314,231.3574,324,235.3574,314,239.3574,318,235.3574" style="stroke:#181818;stroke-width:1.0;"/><line style="stroke:#181818;stroke-width:1.0;" x1="47" x2="320" y1="235.3574" y2="235.3574"/><text fill="#000000" font-family="sans-serif" font-size="13" font-weight="bold" lengthAdjust="spacing" textLength="7" x="54" y="230.0947">3</text><text fill="#000000" font-family="sans-serif" font-size="13" lengthAdjust="spacing" textLength="125" x="65" y="230.0947">Types requested data</text><polygon fill="#181818" points="58,262.6484,48,266.6484,58,270.6484,54,266.6484" style="stroke:#181818;stroke-width:1.0;"/><line style="stroke:#181818;stroke-width:1.0;" x1="52" x2="330" y1="266.6484" y2="266.6484"/><text fill="#000000" font-family="sans-serif" font-size="13" font-weight="bold" lengthAdjust="spacing" textLength="7" x="64" y="261.3857">4</text><text fill="#000000" font-family="sans-serif" font-size="13" lengthAdjust="spacing" textLength="244" x="75" y="261.3857">Shows the skills and asks for confirmation</text><polygon fill="#181818" points="314,293.9395,324,297.9395,314,301.9395,318,297.9395" style="stroke:#181818;stroke-width:1.0;"/><line style="stroke:#181818;stroke-width:1.0;" x1="47" x2="320" y1="297.9395" y2="297.9395"/><text fill="#000000" font-family="sans-serif" font-size="13" font-weight="bold" lengthAdjust="spacing" textLength="7" x="54" y="292.6768">5</text><text fill="#000000" font-family="sans-serif" font-size="13" lengthAdjust="spacing" textLength="89" x="65" y="292.6768">Confirms skills.</text><polygon fill="#181818" points="469,325.2305,479,329.2305,469,333.2305,473,329.2305" style="stroke:#181818;stroke-width:1.0;"/><line style="stroke:#181818;stroke-width:1.0;" x1="336" x2="475" y1="329.2305" y2="329.2305"/><text fill="#000000" font-family="sans-serif" font-size="13" font-weight="bold" lengthAdjust="spacing" textLength="7" x="343" y="323.9678">6</text><text fill="#000000" font-family="sans-serif" font-size="13" lengthAdjust="spacing" textLength="115" x="354" y="323.9678">registerSkills(name)</text><polygon fill="#181818" points="624,356.5215,634,360.5215,624,364.5215,628,360.5215" style="stroke:#181818;stroke-width:1.0;"/><line style="stroke:#181818;stroke-width:1.0;" x1="491" x2="630" y1="360.5215" y2="360.5215"/><text fill="#000000" font-family="sans-serif" font-size="13" font-weight="bold" lengthAdjust="spacing" textLength="7" x="498" y="355.2588">7</text><text fill="#000000" font-family="sans-serif" font-size="13" lengthAdjust="spacing" textLength="115" x="509" y="355.2588">registerSkills(name)</text><polygon fill="#181818" points="759,387.8125,769,391.8125,759,395.8125,763,391.8125" style="stroke:#181818;stroke-width:1.0;"/><line style="stroke:#181818;stroke-width:1.0;" x1="646" x2="765" y1="391.8125" y2="391.8125"/><text fill="#000000" font-family="sans-serif" font-size="13" font-weight="bold" lengthAdjust="spacing" textLength="7" x="653" y="386.5498">8</text><text fill="#000000" font-family="sans-serif" font-size="13" lengthAdjust="spacing" textLength="90" x="664" y="386.5498">registers(name)</text><rect fill="#E3E3E3" height="32.6211" rx="2.5" ry="2.5" style="stroke:#181818;stroke-width:0.5;" width="66" x="771" y="368.5215"/><text fill="#000000" font-family="sans-serif" font-size="14" lengthAdjust="spacing" textLength="52" x="778" y="390.6289">skill:Skill</text><line style="stroke:#181818;stroke-width:1.0;" x1="646" x2="693" y1="430.4336" y2="430.4336"/><line style="stroke:#181818;stroke-width:1.0;" x1="693" x2="693" y1="430.4336" y2="443.4336"/><line style="stroke:#181818;stroke-width:1.0;" x1="652" x2="693" y1="443.4336" y2="443.4336"/><polygon fill="#181818" points="662,439.4336,652,443.4336,662,447.4336,658,443.4336" style="stroke:#181818;stroke-width:1.0;"/><text fill="#000000" font-family="sans-serif" font-size="13" font-weight="bold" lengthAdjust="spacing" textLength="7" x="658" y="425.1709">9</text><text fill="#000000" font-family="sans-serif" font-size="13" lengthAdjust="spacing" textLength="77" x="669" y="425.1709">addSkill(skill)</text><line style="stroke:#181818;stroke-width:1.0;" x1="651" x2="698" y1="474.7246" y2="474.7246"/><line style="stroke:#181818;stroke-width:1.0;" x1="698" x2="698" y1="474.7246" y2="487.7246"/><line style="stroke:#181818;stroke-width:1.0;" x1="657" x2="698" y1="487.7246" y2="487.7246"/><polygon fill="#181818" points="667,483.7246,657,487.7246,667,491.7246,663,487.7246" style="stroke:#181818;stroke-width:1.0;"/><text fill="#000000" font-family="sans-serif" font-size="13" font-weight="bold" lengthAdjust="spacing" textLength="14" x="663" y="469.4619">10</text><text fill="#000000" font-family="sans-serif" font-size="13" lengthAdjust="spacing" textLength="99" x="681" y="469.4619">validateSkill(skill)</text><line style="stroke:#181818;stroke-width:1.0;" x1="656" x2="698" y1="529.0156" y2="529.0156"/><line style="stroke:#181818;stroke-width:1.0;" x1="698" x2="698" y1="529.0156" y2="542.0156"/><line style="stroke:#181818;stroke-width:1.0;" x1="651" x2="698" y1="542.0156" y2="542.0156"/><polygon fill="#181818" points="661,538.0156,651,542.0156,661,546.0156,657,542.0156" style="stroke:#181818;stroke-width:1.0;"/><text fill="#000000" font-family="sans-serif" font-size="13" font-weight="bold" lengthAdjust="spacing" textLength="14" x="663" y="523.7529">11</text><text fill="#000000" font-family="sans-serif" font-size="13" lengthAdjust="spacing" textLength="4" x="681" y="523.7529">&#160;</text><line style="stroke:#181818;stroke-width:1.0;" x1="651" x2="693" y1="573.3066" y2="573.3066"/><line style="stroke:#181818;stroke-width:1.0;" x1="693" x2="693" y1="573.3066" y2="586.3066"/><line style="stroke:#181818;stroke-width:1.0;" x1="646" x2="693" y1="586.3066" y2="586.3066"/><polygon fill="#181818" points="656,582.3066,646,586.3066,656,590.3066,652,586.3066" style="stroke:#181818;stroke-width:1.0;"/><text fill="#000000" font-family="sans-serif" font-size="13" font-weight="bold" lengthAdjust="spacing" textLength="14" x="658" y="568.0439">12</text><text fill="#000000" font-family="sans-serif" font-size="13" lengthAdjust="spacing" textLength="4" x="676" y="568.0439">&#160;</text><polygon fill="#181818" points="502,608.5977,492,612.5977,502,616.5977,498,612.5977" style="stroke:#181818;stroke-width:1.0;"/><line style="stroke:#181818;stroke-width:1.0;" x1="496" x2="640" y1="612.5977" y2="612.5977"/><text fill="#000000" font-family="sans-serif" font-size="13" font-weight="bold" lengthAdjust="spacing" textLength="14" x="508" y="607.335">13</text><text fill="#000000" font-family="sans-serif" font-size="13" lengthAdjust="spacing" textLength="30" x="526" y="607.335">skills</text><polygon fill="#181818" points="347,639.8887,337,643.8887,347,647.8887,343,643.8887" style="stroke:#181818;stroke-width:1.0;"/><line style="stroke:#181818;stroke-width:1.0;" x1="341" x2="485" y1="643.8887" y2="643.8887"/><text fill="#000000" font-family="sans-serif" font-size="13" font-weight="bold" lengthAdjust="spacing" textLength="14" x="353" y="638.626">14</text><text fill="#000000" font-family="sans-serif" font-size="13" lengthAdjust="spacing" textLength="30" x="371" y="638.626">skills</text><polygon fill="#181818" points="53,671.1797,43,675.1797,53,679.1797,49,675.1797" style="stroke:#181818;stroke-width:1.0;"/><line style="stroke:#181818;stroke-width:1.0;" x1="47" x2="330" y1="675.1797" y2="675.1797"/><text fill="#000000" font-family="sans-serif" font-size="13" font-weight="bold" lengthAdjust="spacing" textLength="14" x="59" y="669.917">15</text><text fill="#000000" font-family="sans-serif" font-size="13" lengthAdjust="spacing" textLength="165" x="77" y="669.917">Displays Operation Success</text><!--SRC=[dLJ1Rjim3BtxAuXSbXPOFy270KC6h45J5B3RMowinTX2RCaJvNRPruzI7Cz95ZGkJvRr-DuJHOgtshJei8766bjKpZO4tdMKyB3JOh75adA_gmaS5HvDMOy1NA6oxzgKiC6QAKcmyzPqpIkv9FbIQKMmiTQ_sjy95juwcDrt3PgroOXjvmhYjNb48nfkRURtsUFD3911FX8HyBhGBHeFi_IxKlbMrpM_B2FYPNa2oAZKxCdjKGjhlBDrJIwY5y_PwXXlNOb6_q6lhRX9dqRBcF6K_JnEuC2RHlO8o1-MgrKub7v3Jz5naa0VieAltyGaf8BTCdWBg1Hmg75auW4xKCYHXf-740RX2NIfrFzNH-o5hEf9m613GuwYCTMPbHIUTotnWOOKAFGutKPUsVUH1mOqQd_8ZTnlOSr6koOMybfdGhhOft7FUJV5LhZSK9tn_Sz3PMxE4WQss11dsuS8ku5Pck1AuZE1q3yNKOSGK929hNHx-q_g8vMJ_6WJ-m6Pnmf-d7la5AwCiU0RrbewY2QfVgvEbsrSdJfgmKcI4wIcIlJK-_OzUHG-ottet33k5oX7LF-VWc7OK_YXkQrn9yzXIoxEDEHT8QysNvZjqIgyY7y1]--></g></svg>