<?xml version="1.0" encoding="us-ascii" standalone="no"?><svg xmlns="http://www.w3.org/2000/svg" xmlns:xlink="http://www.w3.org/1999/xlink" contentStyleType="text/css" height="410px" preserveAspectRatio="none" style="width:852px;height:410px;background:#FFFFFF;" version="1.1" viewBox="0 0 852 410" width="852px" zoomAndPan="magnify"><defs/><g><!--class Skill--><g id="elem_Skill"><rect codeLine="11" fill="#F1F1F1" height="85.2422" id="Skill" rx="2.5" ry="2.5" style="stroke:#181818;stroke-width:0.5;" width="97" x="527.5" y="318"/><ellipse cx="560.5" cy="334" fill="#ADD1B2" rx="11" ry="11" style="stroke:#181818;stroke-width:1.0;"/><path d="M563.2656,329.875 Q563.4219,329.6563 563.6094,329.5469 Q563.7969,329.4375 564.0156,329.4375 Q564.3906,329.4375 564.625,329.7031 Q564.8594,329.9531 564.8594,330.5625 L564.8594,332.0156 Q564.8594,332.625 564.625,332.8906 Q564.3906,333.1563 564.0156,333.1563 Q563.6719,333.1563 563.4688,332.9531 Q563.2656,332.7656 563.1563,332.25 Q563.1094,331.8906 562.9219,331.7031 Q562.5938,331.3281 561.9844,331.1094 Q561.375,330.8906 560.75,330.8906 Q559.9844,330.8906 559.3438,331.2188 Q558.7188,331.5469 558.2188,332.2969 Q557.7344,333.0469 557.7344,334.0781 L557.7344,335.1719 Q557.7344,336.4063 558.625,337.2344 Q559.5156,338.0469 561.1094,338.0469 Q562.0469,338.0469 562.7031,337.7969 Q563.0938,337.6406 563.5156,337.2031 Q563.7813,336.9375 563.9219,336.8594 Q564.0781,336.7813 564.2813,336.7813 Q564.6094,336.7813 564.8594,337.0469 Q565.125,337.2969 565.125,337.6406 Q565.125,337.9844 564.7813,338.3906 Q564.2813,338.9688 563.4844,339.2969 Q562.4063,339.75 561.1094,339.75 Q559.5938,339.75 558.3906,339.125 Q557.4063,338.625 556.7188,337.5625 Q556.0313,336.4844 556.0313,335.2031 L556.0313,334.0469 Q556.0313,332.7188 556.6406,331.5781 Q557.2656,330.4219 558.3594,329.8125 Q559.4531,329.1875 560.6875,329.1875 Q561.4219,329.1875 562.0625,329.3594 Q562.7188,329.5156 563.2656,329.875 Z " fill="#000000"/><text fill="#000000" font-family="sans-serif" font-size="14" lengthAdjust="spacing" textLength="25" x="578.5" y="339.7969">Skill</text><line style="stroke:#181818;stroke-width:0.5;" x1="528.5" x2="623.5" y1="350" y2="350"/><text fill="#000000" font-family="sans-serif" font-size="14" lengthAdjust="spacing" textLength="85" x="533.5" y="369.1074">-name: String</text><line style="stroke:#181818;stroke-width:0.5;" x1="528.5" x2="623.5" y1="376.6211" y2="376.6211"/><text fill="#000000" font-family="sans-serif" font-size="14" lengthAdjust="spacing" textLength="78" x="533.5" y="395.7285">+Skill(name)</text></g><!--class HRM--><g id="elem_HRM"><rect codeLine="17" fill="#F1F1F1" height="48" id="HRM" rx="2.5" ry="2.5" style="stroke:#181818;stroke-width:0.5;" width="62" x="658" y="199.5"/><ellipse cx="673" cy="215.5" fill="#ADD1B2" rx="11" ry="11" style="stroke:#181818;stroke-width:1.0;"/><path d="M675.7656,211.375 Q675.9219,211.1563 676.1094,211.0469 Q676.2969,210.9375 676.5156,210.9375 Q676.8906,210.9375 677.125,211.2031 Q677.3594,211.4531 677.3594,212.0625 L677.3594,213.5156 Q677.3594,214.125 677.125,214.3906 Q676.8906,214.6563 676.5156,214.6563 Q676.1719,214.6563 675.9688,214.4531 Q675.7656,214.2656 675.6563,213.75 Q675.6094,213.3906 675.4219,213.2031 Q675.0938,212.8281 674.4844,212.6094 Q673.875,212.3906 673.25,212.3906 Q672.4844,212.3906 671.8438,212.7188 Q671.2188,213.0469 670.7188,213.7969 Q670.2344,214.5469 670.2344,215.5781 L670.2344,216.6719 Q670.2344,217.9063 671.125,218.7344 Q672.0156,219.5469 673.6094,219.5469 Q674.5469,219.5469 675.2031,219.2969 Q675.5938,219.1406 676.0156,218.7031 Q676.2813,218.4375 676.4219,218.3594 Q676.5781,218.2813 676.7813,218.2813 Q677.1094,218.2813 677.3594,218.5469 Q677.625,218.7969 677.625,219.1406 Q677.625,219.4844 677.2813,219.8906 Q676.7813,220.4688 675.9844,220.7969 Q674.9063,221.25 673.6094,221.25 Q672.0938,221.25 670.8906,220.625 Q669.9063,220.125 669.2188,219.0625 Q668.5313,217.9844 668.5313,216.7031 L668.5313,215.5469 Q668.5313,214.2188 669.1406,213.0781 Q669.7656,211.9219 670.8594,211.3125 Q671.9531,210.6875 673.1875,210.6875 Q673.9219,210.6875 674.5625,210.8594 Q675.2188,211.0156 675.7656,211.375 Z " fill="#000000"/><text fill="#000000" font-family="sans-serif" font-size="14" lengthAdjust="spacing" textLength="30" x="687" y="221.2969">HRM</text><line style="stroke:#181818;stroke-width:0.5;" x1="659" x2="719" y1="231.5" y2="231.5"/><line style="stroke:#181818;stroke-width:0.5;" x1="659" x2="719" y1="239.5" y2="239.5"/></g><!--class RegisterSkillUI--><g id="elem_RegisterSkillUI"><rect codeLine="20" fill="#F1F1F1" height="48" id="RegisterSkillUI" rx="2.5" ry="2.5" style="stroke:#181818;stroke-width:0.5;" width="122" x="7" y="35"/><ellipse cx="22" cy="51" fill="#ADD1B2" rx="11" ry="11" style="stroke:#181818;stroke-width:1.0;"/><path d="M24.7656,46.875 Q24.9219,46.6563 25.1094,46.5469 Q25.2969,46.4375 25.5156,46.4375 Q25.8906,46.4375 26.125,46.7031 Q26.3594,46.9531 26.3594,47.5625 L26.3594,49.0156 Q26.3594,49.625 26.125,49.8906 Q25.8906,50.1563 25.5156,50.1563 Q25.1719,50.1563 24.9688,49.9531 Q24.7656,49.7656 24.6563,49.25 Q24.6094,48.8906 24.4219,48.7031 Q24.0938,48.3281 23.4844,48.1094 Q22.875,47.8906 22.25,47.8906 Q21.4844,47.8906 20.8438,48.2188 Q20.2188,48.5469 19.7188,49.2969 Q19.2344,50.0469 19.2344,51.0781 L19.2344,52.1719 Q19.2344,53.4063 20.125,54.2344 Q21.0156,55.0469 22.6094,55.0469 Q23.5469,55.0469 24.2031,54.7969 Q24.5938,54.6406 25.0156,54.2031 Q25.2813,53.9375 25.4219,53.8594 Q25.5781,53.7813 25.7813,53.7813 Q26.1094,53.7813 26.3594,54.0469 Q26.625,54.2969 26.625,54.6406 Q26.625,54.9844 26.2813,55.3906 Q25.7813,55.9688 24.9844,56.2969 Q23.9063,56.75 22.6094,56.75 Q21.0938,56.75 19.8906,56.125 Q18.9063,55.625 18.2188,54.5625 Q17.5313,53.4844 17.5313,52.2031 L17.5313,51.0469 Q17.5313,49.7188 18.1406,48.5781 Q18.7656,47.4219 19.8594,46.8125 Q20.9531,46.1875 22.1875,46.1875 Q22.9219,46.1875 23.5625,46.3594 Q24.2188,46.5156 24.7656,46.875 Z " fill="#000000"/><text fill="#000000" font-family="sans-serif" font-size="14" lengthAdjust="spacing" textLength="90" x="36" y="56.7969">RegisterSkillUI</text><line style="stroke:#181818;stroke-width:0.5;" x1="8" x2="128" y1="67" y2="67"/><line style="stroke:#181818;stroke-width:0.5;" x1="8" x2="128" y1="75" y2="75"/></g><!--class RegisterSkillController--><g id="elem_RegisterSkillController"><rect codeLine="24" fill="#F1F1F1" height="85.2422" id="RegisterSkillController" rx="2.5" ry="2.5" style="stroke:#181818;stroke-width:0.5;" width="247" x="164.5" y="16.5"/><ellipse cx="213.75" cy="32.5" fill="#ADD1B2" rx="11" ry="11" style="stroke:#181818;stroke-width:1.0;"/><path d="M216.5156,28.375 Q216.6719,28.1563 216.8594,28.0469 Q217.0469,27.9375 217.2656,27.9375 Q217.6406,27.9375 217.875,28.2031 Q218.1094,28.4531 218.1094,29.0625 L218.1094,30.5156 Q218.1094,31.125 217.875,31.3906 Q217.6406,31.6563 217.2656,31.6563 Q216.9219,31.6563 216.7188,31.4531 Q216.5156,31.2656 216.4063,30.75 Q216.3594,30.3906 216.1719,30.2031 Q215.8438,29.8281 215.2344,29.6094 Q214.625,29.3906 214,29.3906 Q213.2344,29.3906 212.5938,29.7188 Q211.9688,30.0469 211.4688,30.7969 Q210.9844,31.5469 210.9844,32.5781 L210.9844,33.6719 Q210.9844,34.9063 211.875,35.7344 Q212.7656,36.5469 214.3594,36.5469 Q215.2969,36.5469 215.9531,36.2969 Q216.3438,36.1406 216.7656,35.7031 Q217.0313,35.4375 217.1719,35.3594 Q217.3281,35.2813 217.5313,35.2813 Q217.8594,35.2813 218.1094,35.5469 Q218.375,35.7969 218.375,36.1406 Q218.375,36.4844 218.0313,36.8906 Q217.5313,37.4688 216.7344,37.7969 Q215.6563,38.25 214.3594,38.25 Q212.8438,38.25 211.6406,37.625 Q210.6563,37.125 209.9688,36.0625 Q209.2813,34.9844 209.2813,33.7031 L209.2813,32.5469 Q209.2813,31.2188 209.8906,30.0781 Q210.5156,28.9219 211.6094,28.3125 Q212.7031,27.6875 213.9375,27.6875 Q214.6719,27.6875 215.3125,27.8594 Q215.9688,28.0156 216.5156,28.375 Z " fill="#000000"/><text fill="#000000" font-family="sans-serif" font-size="14" lengthAdjust="spacing" textLength="140" x="234.25" y="38.2969">RegisterSkillController</text><line style="stroke:#181818;stroke-width:0.5;" x1="165.5" x2="410.5" y1="48.5" y2="48.5"/><line style="stroke:#181818;stroke-width:0.5;" x1="165.5" x2="410.5" y1="56.5" y2="56.5"/><text fill="#000000" font-family="sans-serif" font-size="14" lengthAdjust="spacing" textLength="235" x="170.5" y="75.6074">+CreateSkillController(jobRepository)</text><text fill="#000000" font-family="sans-serif" font-size="14" lengthAdjust="spacing" textLength="126" x="170.5" y="94.2285">+registerSkill(name)</text></g><!--class Repositories--><g id="elem_Repositories"><rect codeLine="29" fill="#F1F1F1" height="103.8633" id="Repositories" rx="2.5" ry="2.5" style="stroke:#181818;stroke-width:0.5;" width="234" x="515" y="7"/><ellipse cx="588.25" cy="23" fill="#ADD1B2" rx="11" ry="11" style="stroke:#181818;stroke-width:1.0;"/><path d="M591.0156,18.875 Q591.1719,18.6563 591.3594,18.5469 Q591.5469,18.4375 591.7656,18.4375 Q592.1406,18.4375 592.375,18.7031 Q592.6094,18.9531 592.6094,19.5625 L592.6094,21.0156 Q592.6094,21.625 592.375,21.8906 Q592.1406,22.1563 591.7656,22.1563 Q591.4219,22.1563 591.2188,21.9531 Q591.0156,21.7656 590.9063,21.25 Q590.8594,20.8906 590.6719,20.7031 Q590.3438,20.3281 589.7344,20.1094 Q589.125,19.8906 588.5,19.8906 Q587.7344,19.8906 587.0938,20.2188 Q586.4688,20.5469 585.9688,21.2969 Q585.4844,22.0469 585.4844,23.0781 L585.4844,24.1719 Q585.4844,25.4063 586.375,26.2344 Q587.2656,27.0469 588.8594,27.0469 Q589.7969,27.0469 590.4531,26.7969 Q590.8438,26.6406 591.2656,26.2031 Q591.5313,25.9375 591.6719,25.8594 Q591.8281,25.7813 592.0313,25.7813 Q592.3594,25.7813 592.6094,26.0469 Q592.875,26.2969 592.875,26.6406 Q592.875,26.9844 592.5313,27.3906 Q592.0313,27.9688 591.2344,28.2969 Q590.1563,28.75 588.8594,28.75 Q587.3438,28.75 586.1406,28.125 Q585.1563,27.625 584.4688,26.5625 Q583.7813,25.4844 583.7813,24.2031 L583.7813,23.0469 Q583.7813,21.7188 584.3906,20.5781 Q585.0156,19.4219 586.1094,18.8125 Q587.2031,18.1875 588.4375,18.1875 Q589.1719,18.1875 589.8125,18.3594 Q590.4688,18.5156 591.0156,18.875 Z " fill="#000000"/><text fill="#000000" font-family="sans-serif" font-size="14" lengthAdjust="spacing" textLength="79" x="608.75" y="28.7969">Repositories</text><line style="stroke:#181818;stroke-width:0.5;" x1="516" x2="748" y1="39" y2="39"/><text fill="#000000" font-family="sans-serif" font-size="14" lengthAdjust="spacing" textLength="175" x="521" y="58.1074">-Repositories : Repositories</text><line style="stroke:#181818;stroke-width:0.5;" x1="516" x2="748" y1="65.6211" y2="65.6211"/><text fill="#000000" font-family="sans-serif" font-size="14" lengthAdjust="spacing" textLength="182" x="521" y="84.7285">+getInstance() : Repositories</text><text fill="#000000" font-family="sans-serif" font-size="14" lengthAdjust="spacing" textLength="222" x="521" y="103.3496">+getSkillRepository() : Repositories</text></g><!--class SkillRepository--><g id="elem_SkillRepository"><rect codeLine="35" fill="#F1F1F1" height="66.6211" id="SkillRepository" rx="2.5" ry="2.5" style="stroke:#181818;stroke-width:0.5;" width="125" x="426.5" y="190"/><ellipse cx="441.5" cy="206" fill="#ADD1B2" rx="11" ry="11" style="stroke:#181818;stroke-width:1.0;"/><path d="M444.2656,201.875 Q444.4219,201.6563 444.6094,201.5469 Q444.7969,201.4375 445.0156,201.4375 Q445.3906,201.4375 445.625,201.7031 Q445.8594,201.9531 445.8594,202.5625 L445.8594,204.0156 Q445.8594,204.625 445.625,204.8906 Q445.3906,205.1563 445.0156,205.1563 Q444.6719,205.1563 444.4688,204.9531 Q444.2656,204.7656 444.1563,204.25 Q444.1094,203.8906 443.9219,203.7031 Q443.5938,203.3281 442.9844,203.1094 Q442.375,202.8906 441.75,202.8906 Q440.9844,202.8906 440.3438,203.2188 Q439.7188,203.5469 439.2188,204.2969 Q438.7344,205.0469 438.7344,206.0781 L438.7344,207.1719 Q438.7344,208.4063 439.625,209.2344 Q440.5156,210.0469 442.1094,210.0469 Q443.0469,210.0469 443.7031,209.7969 Q444.0938,209.6406 444.5156,209.2031 Q444.7813,208.9375 444.9219,208.8594 Q445.0781,208.7813 445.2813,208.7813 Q445.6094,208.7813 445.8594,209.0469 Q446.125,209.2969 446.125,209.6406 Q446.125,209.9844 445.7813,210.3906 Q445.2813,210.9688 444.4844,211.2969 Q443.4063,211.75 442.1094,211.75 Q440.5938,211.75 439.3906,211.125 Q438.4063,210.625 437.7188,209.5625 Q437.0313,208.4844 437.0313,207.2031 L437.0313,206.0469 Q437.0313,204.7188 437.6406,203.5781 Q438.2656,202.4219 439.3594,201.8125 Q440.4531,201.1875 441.6875,201.1875 Q442.4219,201.1875 443.0625,201.3594 Q443.7188,201.5156 444.2656,201.875 Z " fill="#000000"/><text fill="#000000" font-family="sans-serif" font-size="14" lengthAdjust="spacing" textLength="93" x="455.5" y="211.7969">SkillRepository</text><line style="stroke:#181818;stroke-width:0.5;" x1="427.5" x2="550.5" y1="222" y2="222"/><line style="stroke:#181818;stroke-width:0.5;" x1="427.5" x2="550.5" y1="230" y2="230"/><text fill="#000000" font-family="sans-serif" font-size="14" lengthAdjust="spacing" textLength="66" x="432.5" y="249.1074">+register()</text></g><!--link HRM to Skill--><g id="link_HRM_Skill"><path codeLine="40" d="M669.57,247.71 C653.48,266.93 634.0611,290.139 614.7511,313.209 " fill="none" id="HRM-to-Skill" style="stroke:#181818;stroke-width:1.0;"/><polygon fill="#181818" points="610.9,317.81,619.744,313.4759,614.1093,313.9759,613.6093,308.3411,610.9,317.81" style="stroke:#181818;stroke-width:1.0;"/><text fill="#000000" font-family="sans-serif" font-size="13" lengthAdjust="spacing" textLength="7" x="657.2674" y="269.3362">1</text><text fill="#000000" font-family="sans-serif" font-size="13" lengthAdjust="spacing" textLength="5" x="611.0638" y="306.6838">*</text></g><!--link Repositories to Skill--><g id="link_Repositories_Skill"><path codeLine="41" d="M622.44,111.15 C611.53,169.45 595.0228,257.7722 584.9128,311.8422 " fill="none" id="Repositories-to-Skill" style="stroke:#181818;stroke-width:1.0;"/><polygon fill="#181818" points="583.81,317.74,589.396,309.6285,584.729,312.8252,581.5323,308.1581,583.81,317.74" style="stroke:#181818;stroke-width:1.0;"/><text fill="#000000" font-family="sans-serif" font-size="13" lengthAdjust="spacing" textLength="7" x="613.7667" y="132.9765">1</text><text fill="#000000" font-family="sans-serif" font-size="13" lengthAdjust="spacing" textLength="5" x="579.6563" y="306.6026">*</text></g><!--link RegisterSkillUI to RegisterSkillController--><g id="link_RegisterSkillUI_RegisterSkillController"><path codeLine="42" d="M129.22,59 C136.46,59 141.33,59 141.33,59 C141.33,59 145.43,59 158.13,59 " fill="none" id="RegisterSkillUI-to-RegisterSkillController" style="stroke:#181818;stroke-width:1.0;stroke-dasharray:7.0,7.0;"/><polygon fill="#181818" points="164.13,59,155.13,55,159.13,59,155.13,63,164.13,59" style="stroke:#181818;stroke-width:1.0;"/></g><!--link RegisterSkillController to Repositories--><g id="link_RegisterSkillController_Repositories"><path codeLine="43" d="M411.71,59 C445.32,59 475.61,59 508.85,59 " fill="none" id="RegisterSkillController-to-Repositories" style="stroke:#181818;stroke-width:1.0;stroke-dasharray:7.0,7.0;"/><polygon fill="#181818" points="514.85,59,505.85,55,509.85,59,505.85,63,514.85,59" style="stroke:#181818;stroke-width:1.0;"/><text fill="#000000" font-family="sans-serif" font-size="13" lengthAdjust="spacing" textLength="67" x="429.75" y="52.0283">repositories</text></g><!--link Repositories to Repositories--><g id="link_Repositories_Repositories"><path codeLine="44" d="M749.27,43.18 C769.75,45.29 784,50.56 784,59 C784,67.44 775.7184,72.0951 755.2384,74.2051 " fill="none" id="Repositories-to-Repositories" style="stroke:#181818;stroke-width:1.0;"/><polygon fill="#181818" points="749.27,74.82,758.6326,77.8766,754.2437,74.3076,757.8127,69.9187,749.27,74.82" style="stroke:#181818;stroke-width:1.0;"/><text fill="#000000" font-family="sans-serif" font-size="13" lengthAdjust="spacing" textLength="49" x="790" y="64.5283">instance</text></g><!--link Repositories to SkillRepository--><g id="link_Repositories_SkillRepository"><path codeLine="45" d="M586.75,111.42 C564.17,137.08 541.4932,162.8452 521.7332,185.3052 " fill="none" id="Repositories-to-SkillRepository" style="stroke:#181818;stroke-width:1.0;"/><polygon fill="#181818" points="517.77,189.81,526.718,185.695,521.0727,186.056,520.7117,180.4107,517.77,189.81" style="stroke:#181818;stroke-width:1.0;"/><text fill="#000000" font-family="sans-serif" font-size="13" lengthAdjust="spacing" textLength="7" x="515.5871" y="178.8597">1</text></g><!--link SkillRepository to Skill--><g id="link_SkillRepository_Skill"><path codeLine="46" d="M510.06,257.18 C521.83,275.44 533.3591,293.337 545.9491,312.867 " fill="none" id="SkillRepository-to-Skill" style="stroke:#181818;stroke-width:1.0;"/><polygon fill="#181818" points="549.2,317.91,547.6856,308.1783,546.4909,313.7075,540.9616,312.5129,549.2,317.91" style="stroke:#181818;stroke-width:1.0;"/><text fill="#000000" font-family="sans-serif" font-size="13" lengthAdjust="spacing" textLength="7" x="537.3709" y="306.7997">1</text></g><!--link RegisterSkillController to SkillRepository--><g id="link_RegisterSkillController_SkillRepository"><path codeLine="47" d="M339.5,101.64 C373.47,129.1 412.6432,160.7789 444.0632,186.1689 " fill="none" id="RegisterSkillController-to-SkillRepository" style="stroke:#181818;stroke-width:1.0;stroke-dasharray:7.0,7.0;"/><polygon fill="#181818" points="448.73,189.94,444.244,181.1721,444.841,186.7974,439.2158,187.3945,448.73,189.94" style="stroke:#181818;stroke-width:1.0;"/><text fill="#000000" font-family="sans-serif" font-size="13" lengthAdjust="spacing" textLength="85" x="408" y="156.0283">skillRepository</text></g><!--link RegisterSkillController to Skill--><g id="link_RegisterSkillController_Skill"><path codeLine="48" d="M308.36,101.78 C336.54,159.61 384,257 384,257 C384,257 464.8772,300.174 521.7572,330.544 " fill="none" id="RegisterSkillController-to-Skill" style="stroke:#181818;stroke-width:1.0;stroke-dasharray:7.0,7.0;"/><polygon fill="#181818" points="527.05,333.37,520.9948,325.6025,522.6393,331.015,517.2268,332.6595,527.05,333.37" style="stroke:#181818;stroke-width:1.0;"/><text fill="#000000" font-family="sans-serif" font-size="13" lengthAdjust="spacing" textLength="23" x="385" y="229.0283">skill</text></g><!--SRC=[XP71Ri8m44Jl-nMhN0X5LEsL0rBLIpdqGjGFC649BeutiXTLQSM_DmaXn86qkTdpPZqxcVY3jeLoAiUSBQTxnpcXk2F1LIbKUb0P9L8QGaUfA9kPFk3tQijVscQuKyRt5QCjILaG5cpA-W2JEo8xOUYvKgEyVn5nUdCKMgLi4_rD-0GmCRGJ54QdixtWLjTnD5k0neF9GHk3Fu3LDqUhSbfWKisn6JHtipCHryeKJXVRs_gzCdN7DMNQ2xc6_LXLqeZsobOS6qEkVNE6huwKq42DFtcpfeAz5dRbj4LTVzGmKeThyjr2mUKYEBOpCvALzTKVIYcUZYBDYzT0j-GfAFHATcjUiiTDPAWBZ9uZdC-N63r4Pni4SU_9OSsFox5sOQprnX9qulfh15hz-03MRLMtO9rsi3iCkmYulo8EZGlqWz7_cIyM-0K0]--></g></svg>