<?xml version="1.0" encoding="us-ascii" standalone="no"?><svg xmlns="http://www.w3.org/2000/svg" xmlns:xlink="http://www.w3.org/1999/xlink" contentStyleType="text/css" height="428px" preserveAspectRatio="none" style="width:856px;height:428px;background:#FFFFFF;" version="1.1" viewBox="0 0 856 428" width="856px" zoomAndPan="magnify"><defs/><g><!--class Skill--><g id="elem_Skill"><rect codeLine="11" fill="#F1F1F1" height="85.2422" id="Skill" rx="2.5" ry="2.5" style="stroke:#181818;stroke-width:0.5;" width="97" x="270.5" y="336"/><ellipse cx="303.5" cy="352" fill="#ADD1B2" rx="11" ry="11" style="stroke:#181818;stroke-width:1.0;"/><path d="M306.2656,347.875 Q306.4219,347.6563 306.6094,347.5469 Q306.7969,347.4375 307.0156,347.4375 Q307.3906,347.4375 307.625,347.7031 Q307.8594,347.9531 307.8594,348.5625 L307.8594,350.0156 Q307.8594,350.625 307.625,350.8906 Q307.3906,351.1563 307.0156,351.1563 Q306.6719,351.1563 306.4688,350.9531 Q306.2656,350.7656 306.1563,350.25 Q306.1094,349.8906 305.9219,349.7031 Q305.5938,349.3281 304.9844,349.1094 Q304.375,348.8906 303.75,348.8906 Q302.9844,348.8906 302.3438,349.2188 Q301.7188,349.5469 301.2188,350.2969 Q300.7344,351.0469 300.7344,352.0781 L300.7344,353.1719 Q300.7344,354.4063 301.625,355.2344 Q302.5156,356.0469 304.1094,356.0469 Q305.0469,356.0469 305.7031,355.7969 Q306.0938,355.6406 306.5156,355.2031 Q306.7813,354.9375 306.9219,354.8594 Q307.0781,354.7813 307.2813,354.7813 Q307.6094,354.7813 307.8594,355.0469 Q308.125,355.2969 308.125,355.6406 Q308.125,355.9844 307.7813,356.3906 Q307.2813,356.9688 306.4844,357.2969 Q305.4063,357.75 304.1094,357.75 Q302.5938,357.75 301.3906,357.125 Q300.4063,356.625 299.7188,355.5625 Q299.0313,354.4844 299.0313,353.2031 L299.0313,352.0469 Q299.0313,350.7188 299.6406,349.5781 Q300.2656,348.4219 301.3594,347.8125 Q302.4531,347.1875 303.6875,347.1875 Q304.4219,347.1875 305.0625,347.3594 Q305.7188,347.5156 306.2656,347.875 Z " fill="#000000"/><text fill="#000000" font-family="sans-serif" font-size="14" lengthAdjust="spacing" textLength="25" x="321.5" y="357.7969">Skill</text><line style="stroke:#181818;stroke-width:0.5;" x1="271.5" x2="366.5" y1="368" y2="368"/><text fill="#000000" font-family="sans-serif" font-size="14" lengthAdjust="spacing" textLength="85" x="276.5" y="387.1074">-name: String</text><line style="stroke:#181818;stroke-width:0.5;" x1="271.5" x2="366.5" y1="394.6211" y2="394.6211"/><text fill="#000000" font-family="sans-serif" font-size="14" lengthAdjust="spacing" textLength="78" x="276.5" y="413.7285">+Skill(name)</text></g><!--class RegisterSkillUI--><g id="elem_RegisterSkillUI"><rect codeLine="18" fill="#F1F1F1" height="48" id="RegisterSkillUI" rx="2.5" ry="2.5" style="stroke:#181818;stroke-width:0.5;" width="122" x="7" y="35"/><ellipse cx="22" cy="51" fill="#ADD1B2" rx="11" ry="11" style="stroke:#181818;stroke-width:1.0;"/><path d="M24.7656,46.875 Q24.9219,46.6563 25.1094,46.5469 Q25.2969,46.4375 25.5156,46.4375 Q25.8906,46.4375 26.125,46.7031 Q26.3594,46.9531 26.3594,47.5625 L26.3594,49.0156 Q26.3594,49.625 26.125,49.8906 Q25.8906,50.1563 25.5156,50.1563 Q25.1719,50.1563 24.9688,49.9531 Q24.7656,49.7656 24.6563,49.25 Q24.6094,48.8906 24.4219,48.7031 Q24.0938,48.3281 23.4844,48.1094 Q22.875,47.8906 22.25,47.8906 Q21.4844,47.8906 20.8438,48.2188 Q20.2188,48.5469 19.7188,49.2969 Q19.2344,50.0469 19.2344,51.0781 L19.2344,52.1719 Q19.2344,53.4063 20.125,54.2344 Q21.0156,55.0469 22.6094,55.0469 Q23.5469,55.0469 24.2031,54.7969 Q24.5938,54.6406 25.0156,54.2031 Q25.2813,53.9375 25.4219,53.8594 Q25.5781,53.7813 25.7813,53.7813 Q26.1094,53.7813 26.3594,54.0469 Q26.625,54.2969 26.625,54.6406 Q26.625,54.9844 26.2813,55.3906 Q25.7813,55.9688 24.9844,56.2969 Q23.9063,56.75 22.6094,56.75 Q21.0938,56.75 19.8906,56.125 Q18.9063,55.625 18.2188,54.5625 Q17.5313,53.4844 17.5313,52.2031 L17.5313,51.0469 Q17.5313,49.7188 18.1406,48.5781 Q18.7656,47.4219 19.8594,46.8125 Q20.9531,46.1875 22.1875,46.1875 Q22.9219,46.1875 23.5625,46.3594 Q24.2188,46.5156 24.7656,46.875 Z " fill="#000000"/><text fill="#000000" font-family="sans-serif" font-size="14" lengthAdjust="spacing" textLength="90" x="36" y="56.7969">RegisterSkillUI</text><line style="stroke:#181818;stroke-width:0.5;" x1="8" x2="128" y1="67" y2="67"/><line style="stroke:#181818;stroke-width:0.5;" x1="8" x2="128" y1="75" y2="75"/></g><!--class RegisterSkillController--><g id="elem_RegisterSkillController"><rect codeLine="22" fill="#F1F1F1" height="85.2422" id="RegisterSkillController" rx="2.5" ry="2.5" style="stroke:#181818;stroke-width:0.5;" width="251" x="164.5" y="16.5"/><ellipse cx="215.75" cy="32.5" fill="#ADD1B2" rx="11" ry="11" style="stroke:#181818;stroke-width:1.0;"/><path d="M218.5156,28.375 Q218.6719,28.1563 218.8594,28.0469 Q219.0469,27.9375 219.2656,27.9375 Q219.6406,27.9375 219.875,28.2031 Q220.1094,28.4531 220.1094,29.0625 L220.1094,30.5156 Q220.1094,31.125 219.875,31.3906 Q219.6406,31.6563 219.2656,31.6563 Q218.9219,31.6563 218.7188,31.4531 Q218.5156,31.2656 218.4063,30.75 Q218.3594,30.3906 218.1719,30.2031 Q217.8438,29.8281 217.2344,29.6094 Q216.625,29.3906 216,29.3906 Q215.2344,29.3906 214.5938,29.7188 Q213.9688,30.0469 213.4688,30.7969 Q212.9844,31.5469 212.9844,32.5781 L212.9844,33.6719 Q212.9844,34.9063 213.875,35.7344 Q214.7656,36.5469 216.3594,36.5469 Q217.2969,36.5469 217.9531,36.2969 Q218.3438,36.1406 218.7656,35.7031 Q219.0313,35.4375 219.1719,35.3594 Q219.3281,35.2813 219.5313,35.2813 Q219.8594,35.2813 220.1094,35.5469 Q220.375,35.7969 220.375,36.1406 Q220.375,36.4844 220.0313,36.8906 Q219.5313,37.4688 218.7344,37.7969 Q217.6563,38.25 216.3594,38.25 Q214.8438,38.25 213.6406,37.625 Q212.6563,37.125 211.9688,36.0625 Q211.2813,34.9844 211.2813,33.7031 L211.2813,32.5469 Q211.2813,31.2188 211.8906,30.0781 Q212.5156,28.9219 213.6094,28.3125 Q214.7031,27.6875 215.9375,27.6875 Q216.6719,27.6875 217.3125,27.8594 Q217.9688,28.0156 218.5156,28.375 Z " fill="#000000"/><text fill="#000000" font-family="sans-serif" font-size="14" lengthAdjust="spacing" textLength="140" x="236.25" y="38.2969">RegisterSkillController</text><line style="stroke:#181818;stroke-width:0.5;" x1="165.5" x2="414.5" y1="48.5" y2="48.5"/><line style="stroke:#181818;stroke-width:0.5;" x1="165.5" x2="414.5" y1="56.5" y2="56.5"/><text fill="#000000" font-family="sans-serif" font-size="14" lengthAdjust="spacing" textLength="239" x="170.5" y="75.6074">+CreateSkillController(skillRepository)</text><text fill="#000000" font-family="sans-serif" font-size="14" lengthAdjust="spacing" textLength="126" x="170.5" y="94.2285">+registerSkill(name)</text></g><!--class Repositories--><g id="elem_Repositories"><rect codeLine="27" fill="#F1F1F1" height="103.8633" id="Repositories" rx="2.5" ry="2.5" style="stroke:#181818;stroke-width:0.5;" width="234" x="519" y="7"/><ellipse cx="592.25" cy="23" fill="#ADD1B2" rx="11" ry="11" style="stroke:#181818;stroke-width:1.0;"/><path d="M595.0156,18.875 Q595.1719,18.6563 595.3594,18.5469 Q595.5469,18.4375 595.7656,18.4375 Q596.1406,18.4375 596.375,18.7031 Q596.6094,18.9531 596.6094,19.5625 L596.6094,21.0156 Q596.6094,21.625 596.375,21.8906 Q596.1406,22.1563 595.7656,22.1563 Q595.4219,22.1563 595.2188,21.9531 Q595.0156,21.7656 594.9063,21.25 Q594.8594,20.8906 594.6719,20.7031 Q594.3438,20.3281 593.7344,20.1094 Q593.125,19.8906 592.5,19.8906 Q591.7344,19.8906 591.0938,20.2188 Q590.4688,20.5469 589.9688,21.2969 Q589.4844,22.0469 589.4844,23.0781 L589.4844,24.1719 Q589.4844,25.4063 590.375,26.2344 Q591.2656,27.0469 592.8594,27.0469 Q593.7969,27.0469 594.4531,26.7969 Q594.8438,26.6406 595.2656,26.2031 Q595.5313,25.9375 595.6719,25.8594 Q595.8281,25.7813 596.0313,25.7813 Q596.3594,25.7813 596.6094,26.0469 Q596.875,26.2969 596.875,26.6406 Q596.875,26.9844 596.5313,27.3906 Q596.0313,27.9688 595.2344,28.2969 Q594.1563,28.75 592.8594,28.75 Q591.3438,28.75 590.1406,28.125 Q589.1563,27.625 588.4688,26.5625 Q587.7813,25.4844 587.7813,24.2031 L587.7813,23.0469 Q587.7813,21.7188 588.3906,20.5781 Q589.0156,19.4219 590.1094,18.8125 Q591.2031,18.1875 592.4375,18.1875 Q593.1719,18.1875 593.8125,18.3594 Q594.4688,18.5156 595.0156,18.875 Z " fill="#000000"/><text fill="#000000" font-family="sans-serif" font-size="14" lengthAdjust="spacing" textLength="79" x="612.75" y="28.7969">Repositories</text><line style="stroke:#181818;stroke-width:0.5;" x1="520" x2="752" y1="39" y2="39"/><line style="stroke:#181818;stroke-width:0.5;" x1="520" x2="752" y1="47" y2="47"/><text fill="#000000" font-family="sans-serif" font-size="14" lengthAdjust="spacing" textLength="94" x="525" y="66.1074">-Repositories()</text><text fill="#000000" font-family="sans-serif" font-size="14" lengthAdjust="spacing" textLength="182" x="525" y="84.7285">+getInstance() : Repositories</text><text fill="#000000" font-family="sans-serif" font-size="14" lengthAdjust="spacing" textLength="222" x="525" y="103.3496">+getSkillRepository() : Repositories</text></g><!--class SkillRepository--><g id="elem_SkillRepository"><rect codeLine="33" fill="#F1F1F1" height="66.6211" id="SkillRepository" rx="2.5" ry="2.5" style="stroke:#181818;stroke-width:0.5;" width="125" x="350.5" y="190"/><ellipse cx="365.5" cy="206" fill="#ADD1B2" rx="11" ry="11" style="stroke:#181818;stroke-width:1.0;"/><path d="M368.2656,201.875 Q368.4219,201.6563 368.6094,201.5469 Q368.7969,201.4375 369.0156,201.4375 Q369.3906,201.4375 369.625,201.7031 Q369.8594,201.9531 369.8594,202.5625 L369.8594,204.0156 Q369.8594,204.625 369.625,204.8906 Q369.3906,205.1563 369.0156,205.1563 Q368.6719,205.1563 368.4688,204.9531 Q368.2656,204.7656 368.1563,204.25 Q368.1094,203.8906 367.9219,203.7031 Q367.5938,203.3281 366.9844,203.1094 Q366.375,202.8906 365.75,202.8906 Q364.9844,202.8906 364.3438,203.2188 Q363.7188,203.5469 363.2188,204.2969 Q362.7344,205.0469 362.7344,206.0781 L362.7344,207.1719 Q362.7344,208.4063 363.625,209.2344 Q364.5156,210.0469 366.1094,210.0469 Q367.0469,210.0469 367.7031,209.7969 Q368.0938,209.6406 368.5156,209.2031 Q368.7813,208.9375 368.9219,208.8594 Q369.0781,208.7813 369.2813,208.7813 Q369.6094,208.7813 369.8594,209.0469 Q370.125,209.2969 370.125,209.6406 Q370.125,209.9844 369.7813,210.3906 Q369.2813,210.9688 368.4844,211.2969 Q367.4063,211.75 366.1094,211.75 Q364.5938,211.75 363.3906,211.125 Q362.4063,210.625 361.7188,209.5625 Q361.0313,208.4844 361.0313,207.2031 L361.0313,206.0469 Q361.0313,204.7188 361.6406,203.5781 Q362.2656,202.4219 363.3594,201.8125 Q364.4531,201.1875 365.6875,201.1875 Q366.4219,201.1875 367.0625,201.3594 Q367.7188,201.5156 368.2656,201.875 Z " fill="#000000"/><text fill="#000000" font-family="sans-serif" font-size="14" lengthAdjust="spacing" textLength="93" x="379.5" y="211.7969">SkillRepository</text><line style="stroke:#181818;stroke-width:0.5;" x1="351.5" x2="474.5" y1="222" y2="222"/><line style="stroke:#181818;stroke-width:0.5;" x1="351.5" x2="474.5" y1="230" y2="230"/><text fill="#000000" font-family="sans-serif" font-size="14" lengthAdjust="spacing" textLength="66" x="356.5" y="249.1074">+register()</text></g><!--link RegisterSkillUI to RegisterSkillController--><g id="link_RegisterSkillUI_RegisterSkillController"><path codeLine="38" d="M129.11,59 C136.78,59 142,59 142,59 C142,59 145.77,59 158.2,59 " fill="none" id="RegisterSkillUI-to-RegisterSkillController" style="stroke:#181818;stroke-width:1.0;stroke-dasharray:7.0,7.0;"/><polygon fill="#181818" points="164.2,59,155.2,55,159.2,59,155.2,63,164.2,59" style="stroke:#181818;stroke-width:1.0;"/></g><!--link RegisterSkillController to Repositories--><g id="link_RegisterSkillController_Repositories"><path codeLine="39" d="M415.89,59 C449.51,59 479.7,59 512.83,59 " fill="none" id="RegisterSkillController-to-Repositories" style="stroke:#181818;stroke-width:1.0;stroke-dasharray:7.0,7.0;"/><polygon fill="#181818" points="518.83,59,509.83,55,513.83,59,509.83,63,518.83,59" style="stroke:#181818;stroke-width:1.0;"/><text fill="#000000" font-family="sans-serif" font-size="13" lengthAdjust="spacing" textLength="67" x="433.75" y="52.0283">repositories</text></g><!--link Repositories to Repositories--><g id="link_Repositories_Repositories"><path codeLine="40" d="M753.27,43.18 C773.75,45.29 788,50.56 788,59 C788,67.44 779.7184,72.0951 759.2384,74.2051 " fill="none" id="Repositories-to-Repositories" style="stroke:#181818;stroke-width:1.0;"/><polygon fill="#181818" points="753.27,74.82,762.6326,77.8766,758.2437,74.3076,761.8127,69.9187,753.27,74.82" style="stroke:#181818;stroke-width:1.0;"/><text fill="#000000" font-family="sans-serif" font-size="13" lengthAdjust="spacing" textLength="49" x="794" y="64.5283">instance</text></g><!--link Repositories to SkillRepository--><g id="link_Repositories_SkillRepository"><path codeLine="41" d="M565.75,111.19 C530.38,136.96 493.429,163.8963 462.499,186.4363 " fill="none" id="Repositories-to-SkillRepository" style="stroke:#181818;stroke-width:1.0;"/><polygon fill="#181818" points="457.65,189.97,467.2793,187.9021,461.6909,187.0253,462.5677,181.4368,457.65,189.97" style="stroke:#181818;stroke-width:1.0;"/><text fill="#000000" font-family="sans-serif" font-size="13" lengthAdjust="spacing" textLength="7" x="549.3008" y="133.0216">1</text><text fill="#000000" font-family="sans-serif" font-size="13" lengthAdjust="spacing" textLength="7" x="458.7514" y="178.7896">1</text></g><!--reverse link SkillRepository to Skill--><g id="link_SkillRepository_Skill"><path codeLine="42" d="M386.5505,267.5458 C372.4205,290.5558 359.7,311.26 344.51,335.98 " fill="none" id="SkillRepository-backto-Skill" style="stroke:#181818;stroke-width:1.0;"/><polygon fill="none" points="392.83,257.32,386.2816,260.3398,386.5505,267.5458,393.0989,264.5261,392.83,257.32" style="stroke:#181818;stroke-width:1.0;"/><text fill="#000000" font-family="sans-serif" font-size="13" lengthAdjust="spacing" textLength="21" x="376" y="302.0283">has</text><text fill="#000000" font-family="sans-serif" font-size="13" lengthAdjust="spacing" textLength="5" x="343.1772" y="324.8809">*</text></g><!--link RegisterSkillController to SkillRepository--><g id="link_RegisterSkillController_SkillRepository"><path codeLine="43" d="M321.68,101.85 C342.39,129.21 365.4386,159.6662 384.5986,184.9762 " fill="none" id="RegisterSkillController-to-SkillRepository" style="stroke:#181818;stroke-width:1.0;stroke-dasharray:7.0,7.0;"/><polygon fill="#181818" points="388.22,189.76,385.9771,180.1699,385.2021,185.7735,379.5986,184.9985,388.22,189.76" style="stroke:#181818;stroke-width:1.0;"/><text fill="#000000" font-family="sans-serif" font-size="13" lengthAdjust="spacing" textLength="85" x="364" y="156.0283">skillRepository</text></g><!--link RegisterSkillController to Skill--><g id="link_RegisterSkillController_Skill"><path codeLine="44" d="M293.79,101.51 C299.35,162.36 309.104,269.1549 314.664,330.0049 " fill="none" id="RegisterSkillController-to-Skill" style="stroke:#181818;stroke-width:1.0;stroke-dasharray:7.0,7.0;"/><polygon fill="#181818" points="315.21,335.98,318.3745,326.6534,314.755,331.0007,310.4077,327.3813,315.21,335.98" style="stroke:#181818;stroke-width:1.0;"/><text fill="#000000" font-family="sans-serif" font-size="13" lengthAdjust="spacing" textLength="23" x="309" y="229.0283">skill</text></g><!--SRC=[XP7FReCm3CRlVWghbz9LJDkLmwIffrwBzW0PTKFK4AF4rSIcllk0GldJTkE2ak_tsP-TPJWQLogl2YpOSPPxBWZ5dmW6fLJPKMbAfRA4dZ9HJjin47Arvo_ZD1wK3MF56aTIbOGbswevmFAEo5uOHgxCgX3UHRpvF0bjCtQf-IPy0LXQEWWAepSw5zoR9evX1z1wC3qQQ_47iFvYTAgW1DEwZjFGtgqlHDGeApX3xzkHDa78j-h7jgxGY7Uq3JlnR2tvhiiQDvwKq4oDGdFUKSd12FjgrS5-N6o8qNVgS4FXEiJuCkhBQ9Aj2_L3P1IjC9b00v9ECzoIvydU1l8wMnytkYnhlgRdjqVRWKTRQosZCPEwnoZHH8lZ6zXqKq_1nUkYXPl_R1IOZyPnZ8kdZgihvYhy5NPkJt3sil-QUmly0W00]--></g></svg>