<?xml version="1.0" encoding="us-ascii" standalone="no"?><svg xmlns="http://www.w3.org/2000/svg" xmlns:xlink="http://www.w3.org/1999/xlink" contentStyleType="text/css" height="566px" preserveAspectRatio="none" style="width:539px;height:566px;background:#FFFFFF;" version="1.1" viewBox="0 0 539 566" width="539px" zoomAndPan="magnify"><defs/><g><!--class Collaborator--><g id="elem_Collaborator"><rect codeLine="12" fill="#F1F1F1" height="166.9688" id="Collaborator" rx="2.5" ry="2.5" style="stroke:#181818;stroke-width:0.5;" width="136" x="45" y="160"/><text fill="#000000" font-family="sans-serif" font-size="14" lengthAdjust="spacing" textLength="78" x="74" y="180.1074">Collaborator</text><line style="stroke:#181818;stroke-width:0.5;" x1="46" x2="180" y1="188.6211" y2="188.6211"/><text fill="#000000" font-family="sans-serif" font-size="14" lengthAdjust="spacing" textLength="35" x="51" y="207.7285">name</text><text fill="#000000" font-family="sans-serif" font-size="14" lengthAdjust="spacing" textLength="56" x="51" y="226.3496">birthdate</text><text fill="#000000" font-family="sans-serif" font-size="14" lengthAdjust="spacing" textLength="93" x="51" y="244.9707">admissionDate</text><text fill="#000000" font-family="sans-serif" font-size="14" lengthAdjust="spacing" textLength="51" x="51" y="263.5918">address</text><text fill="#000000" font-family="sans-serif" font-size="14" lengthAdjust="spacing" textLength="69" x="51" y="282.2129">contactInfo</text><text fill="#000000" font-family="sans-serif" font-size="14" lengthAdjust="spacing" textLength="107" x="51" y="300.834">idDocumentType</text><text fill="#000000" font-family="sans-serif" font-size="14" lengthAdjust="spacing" textLength="124" x="51" y="319.4551">idDocumentNumber</text></g><!--class HRM--><g id="elem_HRM"><rect codeLine="22" fill="#F1F1F1" height="36.6211" id="HRM" rx="2.5" ry="2.5" style="stroke:#181818;stroke-width:0.5;" width="36" x="7" y="388"/><text fill="#000000" font-family="sans-serif" font-size="14" lengthAdjust="spacing" textLength="30" x="10" y="408.1074">HRM</text><line style="stroke:#181818;stroke-width:0.5;" x1="8" x2="42" y1="416.6211" y2="416.6211"/></g><!--class Skill--><g id="elem_Skill"><rect codeLine="26" fill="#F1F1F1" height="55.2422" id="Skill" rx="2.5" ry="2.5" style="stroke:#181818;stroke-width:0.5;" width="47" x="45.5" y="504"/><text fill="#000000" font-family="sans-serif" font-size="14" lengthAdjust="spacing" textLength="25" x="56.5" y="524.1074">Skill</text><line style="stroke:#181818;stroke-width:0.5;" x1="46.5" x2="91.5" y1="532.6211" y2="532.6211"/><text fill="#000000" font-family="sans-serif" font-size="14" lengthAdjust="spacing" textLength="35" x="51.5" y="551.7285">name</text></g><!--class GreenSpace--><g id="elem_GreenSpace"><rect codeLine="29" fill="#F1F1F1" height="92.4844" id="GreenSpace" rx="2.5" ry="2.5" style="stroke:#181818;stroke-width:0.5;" width="86" x="252" y="197.5"/><text fill="#000000" font-family="sans-serif" font-size="14" lengthAdjust="spacing" textLength="80" x="255" y="217.6074">GreenSpace</text><line style="stroke:#181818;stroke-width:0.5;" x1="253" x2="337" y1="226.1211" y2="226.1211"/><text fill="#000000" font-family="sans-serif" font-size="14" lengthAdjust="spacing" textLength="35" x="258" y="245.2285">name</text><text fill="#000000" font-family="sans-serif" font-size="14" lengthAdjust="spacing" textLength="43" x="258" y="263.8496">adress</text><text fill="#000000" font-family="sans-serif" font-size="14" lengthAdjust="spacing" textLength="64" x="258" y="282.4707">dimension</text></g><!--class Garden--><g id="elem_Garden"><rect codeLine="35" fill="#F1F1F1" height="36.6211" id="Garden" rx="2.5" ry="2.5" style="stroke:#181818;stroke-width:0.5;" width="54" x="184" y="388"/><text fill="#000000" font-family="sans-serif" font-size="14" lengthAdjust="spacing" textLength="48" x="187" y="408.1074">Garden</text><line style="stroke:#181818;stroke-width:0.5;" x1="185" x2="237" y1="416.6211" y2="416.6211"/></g><!--class MediumSizedPark--><g id="elem_MediumSizedPark"><rect codeLine="39" fill="#F1F1F1" height="36.6211" id="MediumSizedPark" rx="2.5" ry="2.5" style="stroke:#181818;stroke-width:0.5;" width="118" x="273" y="388"/><text fill="#000000" font-family="sans-serif" font-size="14" lengthAdjust="spacing" textLength="112" x="276" y="408.1074">MediumSizedPark</text><line style="stroke:#181818;stroke-width:0.5;" x1="274" x2="390" y1="416.6211" y2="416.6211"/></g><!--class LargeSizedPark--><g id="elem_LargeSizedPark"><rect codeLine="43" fill="#F1F1F1" height="36.6211" id="LargeSizedPark" rx="2.5" ry="2.5" style="stroke:#181818;stroke-width:0.5;" width="106" x="426" y="388"/><text fill="#000000" font-family="sans-serif" font-size="14" lengthAdjust="spacing" textLength="100" x="429" y="408.1074">LargeSizedPark</text><line style="stroke:#181818;stroke-width:0.5;" x1="427" x2="531" y1="416.6211" y2="416.6211"/></g><!--class Organization--><g id="elem_Organization"><rect codeLine="46" fill="#F1F1F1" height="73.8633" id="Organization" rx="2.5" ry="2.5" style="stroke:#181818;stroke-width:0.5;" width="86" x="160" y="7"/><text fill="#000000" font-family="sans-serif" font-size="14" lengthAdjust="spacing" textLength="80" x="163" y="27.1074">Organization</text><line style="stroke:#181818;stroke-width:0.5;" x1="161" x2="245" y1="35.6211" y2="35.6211"/><text fill="#000000" font-family="sans-serif" font-size="14" lengthAdjust="spacing" textLength="35" x="166" y="54.7285">name</text><text fill="#000000" font-family="sans-serif" font-size="14" lengthAdjust="spacing" textLength="51" x="166" y="73.3496">address</text></g><!--link Collaborator to GreenSpace--><g id="link_Collaborator_GreenSpace"><path codeLine="54" d="M181.03,243.5 C204.76,243.5 230.71,243.5 251.85,243.5 " fill="none" id="Collaborator-GreenSpace" style="stroke:#181818;stroke-width:1.0;"/><polygon fill="#000000" points="198.5,231.1455,207.5451,234.0844,207.5451,228.2066,198.5,231.1455" style="stroke:#000000;stroke-width:1.0;"/><text fill="#000000" font-family="sans-serif" font-size="13" lengthAdjust="spacing" textLength="21" x="212.5" y="236.5283">has</text><text fill="#000000" font-family="sans-serif" font-size="13" lengthAdjust="spacing" textLength="20" x="189.0768" y="258.4215">1..*</text><text fill="#000000" font-family="sans-serif" font-size="13" lengthAdjust="spacing" textLength="7" x="237.1236" y="239.1045">1</text></g><!--link Skill to Collaborator--><g id="link_Skill_Collaborator"><path codeLine="55" d="M81.07,503.97 C84.83,494.67 88.61,484.04 91,474 C102.39,426.1 107.91,371.25 110.58,327.19 " fill="none" id="Skill-Collaborator" style="stroke:#181818;stroke-width:1.0;"/><polygon fill="#000000" points="110.1767,411.5773,114.5648,403.1395,108.7672,402.1717,110.1767,411.5773" style="stroke:#000000;stroke-width:1.0;"/><text fill="#000000" font-family="sans-serif" font-size="13" lengthAdjust="spacing" textLength="21" x="120" y="412.0283">has</text><text fill="#000000" font-family="sans-serif" font-size="13" lengthAdjust="spacing" textLength="20" x="61.5487" y="492.672">1..*</text><text fill="#000000" font-family="sans-serif" font-size="13" lengthAdjust="spacing" textLength="20" x="89.5515" y="348.8661">1..*</text></g><!--link HRM to Skill--><g id="link_HRM_Skill"><path codeLine="56" d="M23.47,425.24 C22.89,438.95 23.44,458.18 29,474 C32.71,484.54 39,494.88 45.51,503.78 " fill="none" id="HRM-Skill" style="stroke:#181818;stroke-width:1.0;"/><polygon fill="#000000" points="35.3509,469.4596,35.7367,459.9568,30.0775,461.5449,35.3509,469.4596" style="stroke:#000000;stroke-width:1.0;"/><text fill="#000000" font-family="sans-serif" font-size="13" lengthAdjust="spacing" textLength="43" x="43" y="470.0283">creates</text><text fill="#000000" font-family="sans-serif" font-size="13" lengthAdjust="spacing" textLength="7" x="6.0432" y="446.6791">1</text><text fill="#000000" font-family="sans-serif" font-size="13" lengthAdjust="spacing" textLength="20" x="18.1841" y="492.8905">1..*</text></g><!--reverse link Collaborator to HRM--><g id="link_Collaborator_HRM"><path codeLine="57" d="M59.0767,343.1545 C46.5267,366.1145 42.75,373.02 34.57,387.99 " fill="none" id="Collaborator-backto-HRM" style="stroke:#181818;stroke-width:1.0;"/><polygon fill="none" points="67.71,327.36,53.8119,340.2767,64.3415,346.0323,67.71,327.36" style="stroke:#181818;stroke-width:1.0;"/></g><!--reverse link GreenSpace to Garden--><g id="link_GreenSpace_Garden"><path codeLine="58" d="M263.051,305.737 C246.061,338.287 232.42,364.45 220.21,387.85 " fill="none" id="GreenSpace-backto-Garden" style="stroke:#181818;stroke-width:1.0;"/><polygon fill="none" points="271.38,289.78,257.732,302.9607,268.37,308.5134,271.38,289.78" style="stroke:#181818;stroke-width:1.0;"/></g><!--reverse link GreenSpace to MediumSizedPark--><g id="link_GreenSpace_MediumSizedPark"><path codeLine="59" d="M309.4413,307.3228 C316.9213,339.8728 322.57,364.45 327.94,387.85 " fill="none" id="GreenSpace-backto-MediumSizedPark" style="stroke:#181818;stroke-width:1.0;"/><polygon fill="none" points="305.41,289.78,303.5937,308.6665,315.2889,305.979,305.41,289.78" style="stroke:#181818;stroke-width:1.0;"/></g><!--reverse link GreenSpace to LargeSizedPark--><g id="link_GreenSpace_LargeSizedPark"><path codeLine="60" d="M351.6875,294.1018 C389.7175,327.3718 429.88,362.52 458.76,387.79 " fill="none" id="GreenSpace-backto-LargeSizedPark" style="stroke:#181818;stroke-width:1.0;"/><polygon fill="none" points="338.14,282.25,347.7369,298.6176,355.6381,289.586,338.14,282.25" style="stroke:#181818;stroke-width:1.0;"/></g><!--link Organization to GreenSpace--><g id="link_Organization_GreenSpace"><path codeLine="61" d="M222.1,81.11 C227.07,90.77 232.33,101.23 237,111 C250.6,139.48 264.92,171.93 275.93,197.46 " fill="none" id="Organization-GreenSpace" style="stroke:#181818;stroke-width:1.0;"/><polygon fill="#000000" points="253.0995,125.1834,251.9688,115.7403,246.6342,118.2083,253.0995,125.1834" style="stroke:#000000;stroke-width:1.0;"/><text fill="#000000" font-family="sans-serif" font-size="13" lengthAdjust="spacing" textLength="30" x="260" y="126.0283">owns</text><text fill="#000000" font-family="sans-serif" font-size="13" lengthAdjust="spacing" textLength="7" x="217.7813" y="103.0143">1</text><text fill="#000000" font-family="sans-serif" font-size="13" lengthAdjust="spacing" textLength="20" x="251.4787" y="186.1221">1..*</text></g><!--link Organization to Collaborator--><g id="link_Organization_Collaborator"><path codeLine="62" d="M181.6,81.22 C176.26,90.77 170.71,101.17 166,111 C158.55,126.54 151.21,143.41 144.48,159.72 " fill="none" id="Organization-Collaborator" style="stroke:#181818;stroke-width:1.0;"/><polygon fill="#000000" points="173.1374,116.1254,166.6139,123.046,171.9277,125.5587,173.1374,116.1254" style="stroke:#000000;stroke-width:1.0;"/><text fill="#000000" font-family="sans-serif" font-size="13" lengthAdjust="spacing" textLength="52" x="180" y="126.0283">works for</text><text fill="#000000" font-family="sans-serif" font-size="13" lengthAdjust="spacing" textLength="7" x="157.4822" y="102.8561">1</text><text fill="#000000" font-family="sans-serif" font-size="13" lengthAdjust="spacing" textLength="20" x="126.3259" y="148.8319">1..*</text></g><!--SRC=[PL7RIWCn47tFLmnz4GJ5lXOHn88Mh8hr1sQJwMxONCeaI_7sxoQxsYRrAPCvCpcNX5wx7J9QiDvvsR6t19474k60x53ssD8clXi29XdHjQOS21qglzUkXIsQG4AS6Tf6Y1vOjrq4fVEMzauKIz9W2BSnicw6I2lftKP_45m9qMb583NBH3BMbcBdLH1Yt84xRmmsdZ5wXay100ujvRFH73k5SRoWiZg4nBeyD1HJ2BbCR15bNBcjprUjbbuEbbnyUzzHtNaQR4Cill_O7rxNYVHut_JQc4d6fEFx5xXd8hT9uL61mbZXGKZA9f5abSSNxv4LkOfaJKeFDWUaNf3x2dj4JfzJGnFop2qw_O4v-a8W55daPuIe4ftDBo_FPt2HYbbXOW4T1hWMazzYQ2pA5_ucSrApEK0QEyoDsmkGJEbJ0jpKrDTVQJAjYIAxiJT5ygzz4ii_l8v6b7cCxewwIfz-xxAoasceZTI6zvxx0DjiuGS0]--></g></svg>