<?xml version="1.0" encoding="us-ascii" standalone="no"?><svg xmlns="http://www.w3.org/2000/svg" xmlns:xlink="http://www.w3.org/1999/xlink" contentStyleType="text/css" height="588px" preserveAspectRatio="none" style="width:1688px;height:588px;background:#FFFFFF;" version="1.1" viewBox="0 0 1688 588" width="1688px" zoomAndPan="magnify"><defs/><g><rect fill="#FFFFFF" height="423.4434" style="stroke:#181818;stroke-width:1.0;" width="10" x="468" y="90.5332"/><rect fill="#FFFFFF" height="31.291" style="stroke:#181818;stroke-width:1.0;" width="10" x="640.5" y="148.1152"/><rect fill="#FFFFFF" height="31.291" style="stroke:#181818;stroke-width:1.0;" width="10" x="745.5" y="210.6973"/><rect fill="#FFFFFF" height="202.4063" style="stroke:#181818;stroke-width:1.0;" width="10" x="957" y="273.2793"/><rect fill="#FFFFFF" height="129.8242" style="stroke:#181818;stroke-width:1.0;" width="10" x="1457" y="314.5703"/><rect fill="#FFFFFF" height="43.291" style="stroke:#181818;stroke-width:1.0;" width="10" x="1462" y="401.1035"/><rect fill="none" height="378.1523" style="stroke:#000000;stroke-width:1.5;" width="1335" x="347" y="105.5332"/><rect fill="none" height="63.582" style="stroke:#000000;stroke-width:1.5;" width="268" x="1404" y="350.5215"/><line style="stroke:#181818;stroke-width:0.5;stroke-dasharray:5.0,5.0;" x1="473" x2="473" y1="57.2422" y2="531.9766"/><line style="stroke:#181818;stroke-width:0.5;stroke-dasharray:5.0,5.0;" x1="645" x2="645" y1="57.2422" y2="531.9766"/><line style="stroke:#181818;stroke-width:0.5;stroke-dasharray:5.0,5.0;" x1="750" x2="750" y1="57.2422" y2="531.9766"/><line style="stroke:#181818;stroke-width:0.5;stroke-dasharray:5.0,5.0;" x1="962" x2="962" y1="57.2422" y2="531.9766"/><line style="stroke:#181818;stroke-width:0.5;stroke-dasharray:5.0,5.0;" x1="1462" x2="1462" y1="322.4004" y2="531.9766"/><rect fill="#E3E3E3" height="32.6211" rx="2.5" ry="2.5" style="stroke:#181818;stroke-width:0.5;" width="232" x="357" y="23.6211"/><text fill="#000000" font-family="sans-serif" font-size="14" lengthAdjust="spacing" textLength="218" x="364" y="45.7285">:GenerateTeamProposalController</text><rect fill="#E3E3E3" height="32.6211" rx="2.5" ry="2.5" style="stroke:#181818;stroke-width:0.5;" width="232" x="357" y="530.9766"/><text fill="#000000" font-family="sans-serif" font-size="14" lengthAdjust="spacing" textLength="218" x="364" y="553.084">:GenerateTeamProposalController</text><rect fill="#E3E3E3" height="32.6211" rx="2.5" ry="2.5" style="stroke:#181818;stroke-width:0.5;" width="93" x="599" y="23.6211"/><text fill="#000000" font-family="sans-serif" font-size="14" lengthAdjust="spacing" textLength="79" x="606" y="45.7285">Repositories</text><rect fill="#E3E3E3" height="32.6211" rx="2.5" ry="2.5" style="stroke:#181818;stroke-width:0.5;" width="93" x="599" y="530.9766"/><text fill="#000000" font-family="sans-serif" font-size="14" lengthAdjust="spacing" textLength="79" x="606" y="553.084">Repositories</text><rect fill="#E3E3E3" height="51.2422" rx="2.5" ry="2.5" style="stroke:#181818;stroke-width:0.5;" width="97" x="702" y="5"/><text fill="#000000" font-family="sans-serif" font-size="14" lengthAdjust="spacing" textLength="74" x="713.5" y="27.1074">repositories</text><text fill="#000000" font-family="sans-serif" font-size="14" lengthAdjust="spacing" textLength="83" x="709" y="45.7285">:Repositories</text><rect fill="#E3E3E3" height="51.2422" rx="2.5" ry="2.5" style="stroke:#181818;stroke-width:0.5;" width="97" x="702" y="530.9766"/><text fill="#000000" font-family="sans-serif" font-size="14" lengthAdjust="spacing" textLength="74" x="713.5" y="553.084">repositories</text><text fill="#000000" font-family="sans-serif" font-size="14" lengthAdjust="spacing" textLength="83" x="709" y="571.7051">:Repositories</text><rect fill="#E3E3E3" height="51.2422" rx="2.5" ry="2.5" style="stroke:#181818;stroke-width:0.5;" width="122" x="901" y="5"/><text fill="#000000" font-family="sans-serif" font-size="14" lengthAdjust="spacing" textLength="99" x="912.5" y="27.1074">teamRepository</text><text fill="#000000" font-family="sans-serif" font-size="14" lengthAdjust="spacing" textLength="108" x="908" y="45.7285">:TeamRepository</text><rect fill="#E3E3E3" height="51.2422" rx="2.5" ry="2.5" style="stroke:#181818;stroke-width:0.5;" width="122" x="901" y="530.9766"/><text fill="#000000" font-family="sans-serif" font-size="14" lengthAdjust="spacing" textLength="99" x="912.5" y="553.084">teamRepository</text><text fill="#000000" font-family="sans-serif" font-size="14" lengthAdjust="spacing" textLength="108" x="908" y="571.7051">:TeamRepository</text><rect fill="#E3E3E3" height="51.2422" rx="2.5" ry="2.5" style="stroke:#181818;stroke-width:0.5;" width="96" x="1414" y="530.9766"/><text fill="#000000" font-family="sans-serif" font-size="14" lengthAdjust="spacing" textLength="75" x="1424.5" y="553.084">collaborator</text><text fill="#000000" font-family="sans-serif" font-size="14" lengthAdjust="spacing" textLength="82" x="1421" y="571.7051">:Collaborator</text><rect fill="#FFFFFF" height="423.4434" style="stroke:#181818;stroke-width:1.0;" width="10" x="468" y="90.5332"/><rect fill="#FFFFFF" height="31.291" style="stroke:#181818;stroke-width:1.0;" width="10" x="640.5" y="148.1152"/><rect fill="#FFFFFF" height="31.291" style="stroke:#181818;stroke-width:1.0;" width="10" x="745.5" y="210.6973"/><rect fill="#FFFFFF" height="202.4063" style="stroke:#181818;stroke-width:1.0;" width="10" x="957" y="273.2793"/><rect fill="#FFFFFF" height="129.8242" style="stroke:#181818;stroke-width:1.0;" width="10" x="1457" y="314.5703"/><rect fill="#FFFFFF" height="43.291" style="stroke:#181818;stroke-width:1.0;" width="10" x="1462" y="401.1035"/><polygon fill="#181818" points="456,86.5332,466,90.5332,456,94.5332,460,90.5332" style="stroke:#181818;stroke-width:1.0;"/><line style="stroke:#181818;stroke-width:1.0;" x1="0" x2="462" y1="90.5332" y2="90.5332"/><text fill="#000000" font-family="sans-serif" font-size="13" font-weight="bold" lengthAdjust="spacing" textLength="14" x="7" y="85.2705">13</text><text fill="#000000" font-family="sans-serif" font-size="13" lengthAdjust="spacing" textLength="431" x="25" y="85.2705">generateTeamProposal(minimumSize, maximumSize, skills, collaborators)</text><path d="M347,105.5332 L476,105.5332 L476,114.8242 L466,124.8242 L347,124.8242 L347,105.5332 " fill="#EEEEEE" style="stroke:#000000;stroke-width:1.5;"/><rect fill="none" height="378.1523" style="stroke:#000000;stroke-width:1.5;" width="1335" x="347" y="105.5332"/><text fill="#000000" font-family="sans-serif" font-size="13" font-weight="bold" lengthAdjust="spacing" textLength="84" x="362" y="120.5615">Get Members</text><polygon fill="#181818" points="628.5,144.1152,638.5,148.1152,628.5,152.1152,632.5,148.1152" style="stroke:#181818;stroke-width:1.0;"/><line style="stroke:#181818;stroke-width:1.0;" x1="478" x2="634.5" y1="148.1152" y2="148.1152"/><text fill="#000000" font-family="sans-serif" font-size="13" font-weight="bold" lengthAdjust="spacing" textLength="25" x="485" y="142.8525">13.1</text><text fill="#000000" font-family="sans-serif" font-size="13" lengthAdjust="spacing" textLength="75" x="514" y="142.8525">getInstance()</text><polygon fill="#181818" points="489,175.4063,479,179.4063,489,183.4063,485,179.4063" style="stroke:#181818;stroke-width:1.0;"/><line style="stroke:#181818;stroke-width:1.0;stroke-dasharray:2.0,2.0;" x1="483" x2="644.5" y1="179.4063" y2="179.4063"/><text fill="#000000" font-family="sans-serif" font-size="13" font-weight="bold" lengthAdjust="spacing" textLength="25" x="495" y="174.1436">13.2</text><text fill="#000000" font-family="sans-serif" font-size="13" lengthAdjust="spacing" textLength="67" x="524" y="174.1436">repositories</text><polygon fill="#181818" points="733.5,206.6973,743.5,210.6973,733.5,214.6973,737.5,210.6973" style="stroke:#181818;stroke-width:1.0;"/><line style="stroke:#181818;stroke-width:1.0;" x1="478" x2="739.5" y1="210.6973" y2="210.6973"/><text fill="#000000" font-family="sans-serif" font-size="13" font-weight="bold" lengthAdjust="spacing" textLength="25" x="485" y="205.4346">13.3</text><text fill="#000000" font-family="sans-serif" font-size="13" lengthAdjust="spacing" textLength="120" x="514" y="205.4346">getTeamRepository()</text><polygon fill="#181818" points="489,237.9883,479,241.9883,489,245.9883,485,241.9883" style="stroke:#181818;stroke-width:1.0;"/><line style="stroke:#181818;stroke-width:1.0;stroke-dasharray:2.0,2.0;" x1="483" x2="749.5" y1="241.9883" y2="241.9883"/><text fill="#000000" font-family="sans-serif" font-size="13" font-weight="bold" lengthAdjust="spacing" textLength="25" x="495" y="236.7256">13.4</text><text fill="#000000" font-family="sans-serif" font-size="13" lengthAdjust="spacing" textLength="91" x="524" y="236.7256">teamRepository</text><polygon fill="#181818" points="945,269.2793,955,273.2793,945,277.2793,949,273.2793" style="stroke:#181818;stroke-width:1.0;"/><line style="stroke:#181818;stroke-width:1.0;" x1="478" x2="951" y1="273.2793" y2="273.2793"/><text fill="#000000" font-family="sans-serif" font-size="13" font-weight="bold" lengthAdjust="spacing" textLength="25" x="485" y="268.0166">13.5</text><text fill="#000000" font-family="sans-serif" font-size="13" lengthAdjust="spacing" textLength="431" x="514" y="268.0166">generateTeamProposal(minimumSize, maximumSize, skills, collaborators)</text><polygon fill="#181818" points="1402,300.5703,1412,304.5703,1402,308.5703,1406,304.5703" style="stroke:#181818;stroke-width:1.0;"/><line style="stroke:#181818;stroke-width:1.0;" x1="967" x2="1408" y1="304.5703" y2="304.5703"/><text fill="#000000" font-family="sans-serif" font-size="13" font-weight="bold" lengthAdjust="spacing" textLength="25" x="974" y="299.3076">13.6</text><text fill="#000000" font-family="sans-serif" font-size="13" lengthAdjust="spacing" textLength="394" x="1003" y="299.3076">chooseMembers(minimumSize, maximumSize, collaborators, skills)</text><rect fill="#E3E3E3" height="51.2422" rx="2.5" ry="2.5" style="stroke:#181818;stroke-width:0.5;" width="96" x="1414" y="281.2793"/><text fill="#000000" font-family="sans-serif" font-size="14" lengthAdjust="spacing" textLength="75" x="1424.5" y="303.3867">collaborator</text><text fill="#000000" font-family="sans-serif" font-size="14" lengthAdjust="spacing" textLength="82" x="1421" y="322.0078">:Collaborator</text><path d="M1404,350.5215 L1477,350.5215 L1477,359.8125 L1467,369.8125 L1404,369.8125 L1404,350.5215 " fill="#EEEEEE" style="stroke:#000000;stroke-width:1.5;"/><rect fill="none" height="63.582" style="stroke:#000000;stroke-width:1.5;" width="268" x="1404" y="350.5215"/><text fill="#000000" font-family="sans-serif" font-size="13" font-weight="bold" lengthAdjust="spacing" textLength="28" x="1419" y="365.5498">loop</text><line style="stroke:#181818;stroke-width:1.0;" x1="1467" x2="1514" y1="388.1035" y2="388.1035"/><line style="stroke:#181818;stroke-width:1.0;" x1="1514" x2="1514" y1="388.1035" y2="401.1035"/><line style="stroke:#181818;stroke-width:1.0;" x1="1473" x2="1514" y1="401.1035" y2="401.1035"/><polygon fill="#181818" points="1483,397.1035,1473,401.1035,1483,405.1035,1479,401.1035" style="stroke:#181818;stroke-width:1.0;"/><text fill="#000000" font-family="sans-serif" font-size="13" font-weight="bold" lengthAdjust="spacing" textLength="25" x="1479" y="382.8408">13.7</text><text fill="#000000" font-family="sans-serif" font-size="13" lengthAdjust="spacing" textLength="152" x="1508" y="382.8408">analyseCollaborator(skills)</text><polygon fill="#181818" points="978,440.3945,968,444.3945,978,448.3945,974,444.3945" style="stroke:#181818;stroke-width:1.0;"/><line style="stroke:#181818;stroke-width:1.0;stroke-dasharray:2.0,2.0;" x1="972" x2="1461" y1="444.3945" y2="444.3945"/><text fill="#000000" font-family="sans-serif" font-size="13" font-weight="bold" lengthAdjust="spacing" textLength="25" x="984" y="439.1318">13.8</text><text fill="#000000" font-family="sans-serif" font-size="13" lengthAdjust="spacing" textLength="54" x="1013" y="439.1318">members</text><polygon fill="#181818" points="489,471.6855,479,475.6855,489,479.6855,485,475.6855" style="stroke:#181818;stroke-width:1.0;"/><line style="stroke:#181818;stroke-width:1.0;stroke-dasharray:2.0,2.0;" x1="483" x2="961" y1="475.6855" y2="475.6855"/><text fill="#000000" font-family="sans-serif" font-size="13" font-weight="bold" lengthAdjust="spacing" textLength="25" x="495" y="470.4229">13.9</text><text fill="#000000" font-family="sans-serif" font-size="13" lengthAdjust="spacing" textLength="54" x="524" y="470.4229">members</text><polygon fill="#181818" points="11,509.9766,1,513.9766,11,517.9766,7,513.9766" style="stroke:#181818;stroke-width:1.0;"/><line style="stroke:#181818;stroke-width:1.0;stroke-dasharray:2.0,2.0;" x1="5" x2="472" y1="513.9766" y2="513.9766"/><text fill="#000000" font-family="sans-serif" font-size="13" font-weight="bold" lengthAdjust="spacing" textLength="14" x="17" y="508.7139">14</text><text fill="#000000" font-family="sans-serif" font-size="13" lengthAdjust="spacing" textLength="54" x="35" y="508.7139">members</text><!--SRC=[hLFBJYCn4BpxArgS4aHMGknfX93OA498GHk57FVIJ9g9XUqUsPw5xDUln_E8dI1omJVtewhSrNPlqjHeKODcm-NEiYRmjY7XnaoDvHjMzEptYi1IwT5KAYrmEzpokpGLlA9o94G8UrdA6es7Y-A135dqj27KAyirErHpDjwoKcGl01tCD-jbrhMcK2OzMqakXxD9veyfqi88jLwiyWOVQCUgVMZPP87Oj5dSFvqqba4Vld2GpZQqpPDh9_htSdd_ImXiF9j6lv25wninkuklWGAgJzuzqT98tUXd-O-kGEF7uHBcgPIxWfJMJO_WVro7GEdbtu3RJGt2gImtDJoGXoTg2vs8uQWZw4bdrChoZyO54qkQJ6FT29XDFQRQaqPXrh-lWDI8MBkbBu16BOjLb92RS28aU77WNwmIsjpE4-AXSU3hdVqkDpALmzQCIlj0ozijn-Lb0UMEsL5lp1UC6TCWO3fY7rplrmwIevZhFD9L7PGKW0RLtb6wnfDZahD4PBPv8ELAnwtxHKph4fy-mpwJ7eSxhi8PZi6UNdVtIphCz4_zZ97RsMpujmEiI0MrNqty1m00]--></g></svg>