<?xml version="1.0" encoding="us-ascii" standalone="no"?><svg xmlns="http://www.w3.org/2000/svg" xmlns:xlink="http://www.w3.org/1999/xlink" contentStyleType="text/css" height="769.2px" preserveAspectRatio="none" style="width:942px;height:769px;background:#FFFFFF;" version="1.1" viewBox="0 0 942 769" width="942.4px" zoomAndPan="magnify"><defs/><g><rect fill="#FFFFFF" height="676.7133" style="stroke:#181818;stroke-width:0.4000000000000001;" width="4" x="30.4" y="44.8969"/><rect fill="#FFFFFF" height="12.5164" style="stroke:#181818;stroke-width:0.4000000000000001;" width="4" x="156" y="54.2133"/><rect fill="#FFFFFF" height="147.5289" style="stroke:#181818;stroke-width:0.4000000000000001;" width="4" x="156" y="79.2461"/><rect fill="#FFFFFF" height="15.3164" style="stroke:#181818;stroke-width:0.4000000000000001;" width="4" x="156" y="239.2914"/><rect fill="#FFFFFF" height="331.9547" style="stroke:#181818;stroke-width:0.4000000000000001;" width="4" x="156" y="267.1242"/><rect fill="#FFFFFF" height="110.0148" style="stroke:#181818;stroke-width:0.4000000000000001;" width="4" x="156" y="611.5953"/><rect fill="#FFFFFF" height="87.6148" style="stroke:#181818;stroke-width:0.4000000000000001;" width="4" x="347.2" y="109.2109"/><rect fill="#FFFFFF" height="87.6148" style="stroke:#181818;stroke-width:0.4000000000000001;" width="4" x="347.2" y="279.6406"/><rect fill="#FFFFFF" height="206.7906" style="stroke:#181818;stroke-width:0.4000000000000001;" width="4" x="347.2" y="379.7719"/><rect fill="#FFFFFF" height="84.982" style="stroke:#181818;stroke-width:0.4000000000000001;" width="4" x="347.2" y="624.1117"/><rect fill="#FFFFFF" height="12.5164" style="stroke:#181818;stroke-width:0.4000000000000001;" width="4" x="416.2" y="121.7273"/><rect fill="#FFFFFF" height="12.5164" style="stroke:#181818;stroke-width:0.4000000000000001;" width="4" x="416.2" y="292.157"/><rect fill="#FFFFFF" height="12.5164" style="stroke:#181818;stroke-width:0.4000000000000001;" width="4" x="416.2" y="392.2883"/><rect fill="#FFFFFF" height="12.5164" style="stroke:#181818;stroke-width:0.4000000000000001;" width="4" x="458.2" y="146.7602"/><rect fill="#FFFFFF" height="12.5164" style="stroke:#181818;stroke-width:0.4000000000000001;" width="4" x="458.2" y="317.1898"/><rect fill="#FFFFFF" height="12.5164" style="stroke:#181818;stroke-width:0.4000000000000001;" width="4" x="458.2" y="417.3211"/><rect fill="#FFFFFF" height="12.5164" style="stroke:#181818;stroke-width:0.4000000000000001;" width="4" x="503.8" y="171.793"/><rect fill="#FFFFFF" height="12.5164" style="stroke:#181818;stroke-width:0.4000000000000001;" width="4" x="562.8" y="342.2227"/><rect fill="#FFFFFF" height="131.6922" style="stroke:#181818;stroke-width:0.4000000000000001;" width="4" x="624" y="442.3539"/><rect fill="#FFFFFF" height="59.9492" style="stroke:#181818;stroke-width:0.4000000000000001;" width="4" x="624" y="636.6281"/><rect fill="#FFFFFF" height="28.9164" style="stroke:#181818;stroke-width:0.4000000000000001;" width="4" x="626" y="652.3445"/><rect fill="#FFFFFF" height="11.2" style="stroke:#181818;stroke-width:0.4000000000000001;" width="4" x="628" y="670.0609"/><rect fill="#FFFFFF" height="102.6594" style="stroke:#181818;stroke-width:0.4000000000000001;" width="4" x="785.6" y="458.8703"/><rect fill="#FFFFFF" height="38.6133" style="stroke:#181818;stroke-width:0.4000000000000001;" width="4" x="857.2" y="504.8"/><rect fill="#FFFFFF" height="14.5164" style="stroke:#181818;stroke-width:0.4000000000000001;" width="4" x="859.2" y="528.8969"/><rect fill="none" height="39.6656" style="stroke:#000000;stroke-width:0.6000000000000001;" width="194.4" x="4" y="202.8258"/><rect fill="none" height="76.1625" style="stroke:#000000;stroke-width:0.6000000000000001;" width="171.2" x="768.8" y="473.2508"/><rect fill="none" height="62.8461" style="stroke:#000000;stroke-width:0.6000000000000001;" width="163.2" x="772.8" y="483.7672"/><line style="stroke:#181818;stroke-width:0.20000000000000004;stroke-dasharray:5.0,5.0;" x1="32.4" x2="32.4" y1="40.8969" y2="728.8102"/><line style="stroke:#181818;stroke-width:0.20000000000000004;stroke-dasharray:5.0,5.0;" x1="158" x2="158" y1="40.8969" y2="728.8102"/><line style="stroke:#181818;stroke-width:0.20000000000000004;stroke-dasharray:5.0,5.0;" x1="349.2" x2="349.2" y1="95.1703" y2="728.8102"/><line style="stroke:#181818;stroke-width:0.20000000000000004;stroke-dasharray:5.0,5.0;" x1="418" x2="418" y1="40.8969" y2="728.8102"/><line style="stroke:#181818;stroke-width:0.20000000000000004;stroke-dasharray:5.0,5.0;" x1="460" x2="460" y1="40.8969" y2="728.8102"/><line style="stroke:#181818;stroke-width:0.20000000000000004;stroke-dasharray:5.0,5.0;" x1="505.6" x2="505.6" y1="40.8969" y2="728.8102"/><line style="stroke:#181818;stroke-width:0.20000000000000004;stroke-dasharray:5.0,5.0;" x1="564.8" x2="564.8" y1="40.8969" y2="728.8102"/><line style="stroke:#181818;stroke-width:0.20000000000000004;stroke-dasharray:5.0,5.0;" x1="626" x2="626" y1="40.8969" y2="728.8102"/><line style="stroke:#181818;stroke-width:0.20000000000000004;stroke-dasharray:5.0,5.0;" x1="787.6" x2="787.6" y1="462.0023" y2="728.8102"/><line style="stroke:#181818;stroke-width:0.20000000000000004;stroke-dasharray:5.0,5.0;" x1="859.2" x2="859.2" y1="507.932" y2="728.8102"/><text fill="#000000" font-family="sans-serif" font-size="5.6" lengthAdjust="spacing" textLength="46.4" x="8" y="32.043">Human Resources</text><text fill="#000000" font-family="sans-serif" font-size="5.6" lengthAdjust="spacing" textLength="22.4" x="20.8" y="39.4914">Manager</text><ellipse cx="32.4" cy="5.4" fill="#E3E3E3" rx="3.2" ry="3.2" style="stroke:#181818;stroke-width:0.20000000000000004;"/><path d="M32.4,8.6 L32.4,19.4 M27.2,11.8 L37.6,11.8 M32.4,19.4 L27.2,25.4 M32.4,19.4 L37.6,25.4 " fill="none" style="stroke:#181818;stroke-width:0.20000000000000004;"/><text fill="#000000" font-family="sans-serif" font-size="5.6" lengthAdjust="spacing" textLength="46.4" x="8" y="734.4531">Human Resources</text><text fill="#000000" font-family="sans-serif" font-size="5.6" lengthAdjust="spacing" textLength="22.4" x="20.8" y="741.9016">Manager</text><ellipse cx="32.4" cy="746.707" fill="#E3E3E3" rx="3.2" ry="3.2" style="stroke:#181818;stroke-width:0.20000000000000004;"/><path d="M32.4,749.907 L32.4,760.707 M27.2,753.107 L37.6,753.107 M32.4,760.707 L27.2,766.707 M32.4,760.707 L37.6,766.707 " fill="none" style="stroke:#181818;stroke-width:0.20000000000000004;"/><rect fill="#E3E3E3" height="13.0484" rx="1" ry="1" style="stroke:#181818;stroke-width:0.20000000000000004;" width="72.8" x="121.6" y="27.4484"/><text fill="#000000" font-family="sans-serif" font-size="5.6" lengthAdjust="spacing" textLength="67.2" x="124.4" y="36.2914">:GenerateTeamProposalUI</text><rect fill="#E3E3E3" height="13.0484" rx="1" ry="1" style="stroke:#181818;stroke-width:0.20000000000000004;" width="72.8" x="121.6" y="728.4102"/><text fill="#000000" font-family="sans-serif" font-size="5.6" lengthAdjust="spacing" textLength="67.2" x="124.4" y="737.2531">:GenerateTeamProposalUI</text><rect fill="#E3E3E3" height="13.0484" rx="1" ry="1" style="stroke:#181818;stroke-width:0.20000000000000004;" width="92.8" x="302.8" y="728.4102"/><text fill="#000000" font-family="sans-serif" font-size="5.6" lengthAdjust="spacing" textLength="87.2" x="305.6" y="737.2531">:GenerateTeamProposalController</text><rect fill="#E3E3E3" height="13.0484" rx="1" ry="1" style="stroke:#181818;stroke-width:0.20000000000000004;" width="37.2" x="399.6" y="27.4484"/><text fill="#000000" font-family="sans-serif" font-size="5.6" lengthAdjust="spacing" textLength="31.6" x="402.4" y="36.2914">Repositories</text><rect fill="#E3E3E3" height="13.0484" rx="1" ry="1" style="stroke:#181818;stroke-width:0.20000000000000004;" width="37.2" x="399.6" y="728.4102"/><text fill="#000000" font-family="sans-serif" font-size="5.6" lengthAdjust="spacing" textLength="31.6" x="402.4" y="737.2531">Repositories</text><rect fill="#E3E3E3" height="20.4969" rx="1" ry="1" style="stroke:#181818;stroke-width:0.20000000000000004;" width="38.8" x="440.8" y="20"/><text fill="#000000" font-family="sans-serif" font-size="5.6" lengthAdjust="spacing" textLength="29.6" x="445.4" y="28.843">repositories</text><text fill="#000000" font-family="sans-serif" font-size="5.6" lengthAdjust="spacing" textLength="33.2" x="443.6" y="36.2914">:Repositories</text><rect fill="#E3E3E3" height="20.4969" rx="1" ry="1" style="stroke:#181818;stroke-width:0.20000000000000004;" width="38.8" x="440.8" y="728.4102"/><text fill="#000000" font-family="sans-serif" font-size="5.6" lengthAdjust="spacing" textLength="29.6" x="445.4" y="737.2531">repositories</text><text fill="#000000" font-family="sans-serif" font-size="5.6" lengthAdjust="spacing" textLength="33.2" x="443.6" y="744.7016">:Repositories</text><rect fill="#E3E3E3" height="20.4969" rx="1" ry="1" style="stroke:#181818;stroke-width:0.20000000000000004;" width="44.4" x="483.6" y="20"/><text fill="#000000" font-family="sans-serif" font-size="5.6" lengthAdjust="spacing" textLength="36.4" x="487.6" y="28.843">skillRepository</text><text fill="#000000" font-family="sans-serif" font-size="5.6" lengthAdjust="spacing" textLength="38.8" x="486.4" y="36.2914">:SkillRepository</text><rect fill="#E3E3E3" height="20.4969" rx="1" ry="1" style="stroke:#181818;stroke-width:0.20000000000000004;" width="44.4" x="483.6" y="728.4102"/><text fill="#000000" font-family="sans-serif" font-size="5.6" lengthAdjust="spacing" textLength="36.4" x="487.6" y="737.2531">skillRepository</text><text fill="#000000" font-family="sans-serif" font-size="5.6" lengthAdjust="spacing" textLength="38.8" x="486.4" y="744.7016">:SkillRepository</text><rect fill="#E3E3E3" height="20.4969" rx="1" ry="1" style="stroke:#181818;stroke-width:0.20000000000000004;" width="65.6" x="532" y="20"/><text fill="#000000" font-family="sans-serif" font-size="5.6" lengthAdjust="spacing" textLength="57.2" x="536.2" y="28.843">collaboratorRepository</text><text fill="#000000" font-family="sans-serif" font-size="5.6" lengthAdjust="spacing" textLength="60" x="534.8" y="36.2914">:CollaboratorRepository</text><rect fill="#E3E3E3" height="20.4969" rx="1" ry="1" style="stroke:#181818;stroke-width:0.20000000000000004;" width="65.6" x="532" y="728.4102"/><text fill="#000000" font-family="sans-serif" font-size="5.6" lengthAdjust="spacing" textLength="57.2" x="536.2" y="737.2531">collaboratorRepository</text><text fill="#000000" font-family="sans-serif" font-size="5.6" lengthAdjust="spacing" textLength="60" x="534.8" y="744.7016">:CollaboratorRepository</text><rect fill="#E3E3E3" height="20.4969" rx="1" ry="1" style="stroke:#181818;stroke-width:0.20000000000000004;" width="48.8" x="601.6" y="20"/><text fill="#000000" font-family="sans-serif" font-size="5.6" lengthAdjust="spacing" textLength="39.6" x="606.2" y="28.843">teamRepository</text><text fill="#000000" font-family="sans-serif" font-size="5.6" lengthAdjust="spacing" textLength="43.2" x="604.4" y="36.2914">:TeamRepository</text><rect fill="#E3E3E3" height="20.4969" rx="1" ry="1" style="stroke:#181818;stroke-width:0.20000000000000004;" width="48.8" x="601.6" y="728.4102"/><text fill="#000000" font-family="sans-serif" font-size="5.6" lengthAdjust="spacing" textLength="39.6" x="606.2" y="737.2531">teamRepository</text><text fill="#000000" font-family="sans-serif" font-size="5.6" lengthAdjust="spacing" textLength="43.2" x="604.4" y="744.7016">:TeamRepository</text><rect fill="#E3E3E3" height="20.4969" rx="1" ry="1" style="stroke:#181818;stroke-width:0.20000000000000004;" width="21.6" x="776.8" y="728.4102"/><text fill="#000000" font-family="sans-serif" font-size="5.6" lengthAdjust="spacing" textLength="12.4" x="781.4" y="737.2531">team</text><text fill="#000000" font-family="sans-serif" font-size="5.6" lengthAdjust="spacing" textLength="16" x="779.6" y="744.7016">:Team</text><rect fill="#E3E3E3" height="20.4969" rx="1" ry="1" style="stroke:#181818;stroke-width:0.20000000000000004;" width="38.4" x="840" y="728.4102"/><text fill="#000000" font-family="sans-serif" font-size="5.6" lengthAdjust="spacing" textLength="30" x="844.2" y="737.2531">collaborator</text><text fill="#000000" font-family="sans-serif" font-size="5.6" lengthAdjust="spacing" textLength="32.8" x="842.8" y="744.7016">:Collaborator</text><rect fill="#FFFFFF" height="676.7133" style="stroke:#181818;stroke-width:0.4000000000000001;" width="4" x="30.4" y="44.8969"/><rect fill="#FFFFFF" height="12.5164" style="stroke:#181818;stroke-width:0.4000000000000001;" width="4" x="156" y="54.2133"/><rect fill="#FFFFFF" height="147.5289" style="stroke:#181818;stroke-width:0.4000000000000001;" width="4" x="156" y="79.2461"/><rect fill="#FFFFFF" height="15.3164" style="stroke:#181818;stroke-width:0.4000000000000001;" width="4" x="156" y="239.2914"/><rect fill="#FFFFFF" height="331.9547" style="stroke:#181818;stroke-width:0.4000000000000001;" width="4" x="156" y="267.1242"/><rect fill="#FFFFFF" height="110.0148" style="stroke:#181818;stroke-width:0.4000000000000001;" width="4" x="156" y="611.5953"/><rect fill="#FFFFFF" height="87.6148" style="stroke:#181818;stroke-width:0.4000000000000001;" width="4" x="347.2" y="109.2109"/><rect fill="#FFFFFF" height="87.6148" style="stroke:#181818;stroke-width:0.4000000000000001;" width="4" x="347.2" y="279.6406"/><rect fill="#FFFFFF" height="206.7906" style="stroke:#181818;stroke-width:0.4000000000000001;" width="4" x="347.2" y="379.7719"/><rect fill="#FFFFFF" height="84.982" style="stroke:#181818;stroke-width:0.4000000000000001;" width="4" x="347.2" y="624.1117"/><rect fill="#FFFFFF" height="12.5164" style="stroke:#181818;stroke-width:0.4000000000000001;" width="4" x="416.2" y="121.7273"/><rect fill="#FFFFFF" height="12.5164" style="stroke:#181818;stroke-width:0.4000000000000001;" width="4" x="416.2" y="292.157"/><rect fill="#FFFFFF" height="12.5164" style="stroke:#181818;stroke-width:0.4000000000000001;" width="4" x="416.2" y="392.2883"/><rect fill="#FFFFFF" height="12.5164" style="stroke:#181818;stroke-width:0.4000000000000001;" width="4" x="458.2" y="146.7602"/><rect fill="#FFFFFF" height="12.5164" style="stroke:#181818;stroke-width:0.4000000000000001;" width="4" x="458.2" y="317.1898"/><rect fill="#FFFFFF" height="12.5164" style="stroke:#181818;stroke-width:0.4000000000000001;" width="4" x="458.2" y="417.3211"/><rect fill="#FFFFFF" height="12.5164" style="stroke:#181818;stroke-width:0.4000000000000001;" width="4" x="503.8" y="171.793"/><rect fill="#FFFFFF" height="12.5164" style="stroke:#181818;stroke-width:0.4000000000000001;" width="4" x="562.8" y="342.2227"/><rect fill="#FFFFFF" height="131.6922" style="stroke:#181818;stroke-width:0.4000000000000001;" width="4" x="624" y="442.3539"/><rect fill="#FFFFFF" height="59.9492" style="stroke:#181818;stroke-width:0.4000000000000001;" width="4" x="624" y="636.6281"/><rect fill="#FFFFFF" height="28.9164" style="stroke:#181818;stroke-width:0.4000000000000001;" width="4" x="626" y="652.3445"/><rect fill="#FFFFFF" height="11.2" style="stroke:#181818;stroke-width:0.4000000000000001;" width="4" x="628" y="670.0609"/><rect fill="#FFFFFF" height="102.6594" style="stroke:#181818;stroke-width:0.4000000000000001;" width="4" x="785.6" y="458.8703"/><rect fill="#FFFFFF" height="38.6133" style="stroke:#181818;stroke-width:0.4000000000000001;" width="4" x="857.2" y="504.8"/><rect fill="#FFFFFF" height="14.5164" style="stroke:#181818;stroke-width:0.4000000000000001;" width="4" x="859.2" y="528.8969"/><polygon fill="#181818" points="151.2,52.6133,155.2,54.2133,151.2,55.8133,152.8,54.2133" style="stroke:#181818;stroke-width:0.4000000000000001;"/><line style="stroke:#181818;stroke-width:0.4000000000000001;" x1="34.4" x2="153.6" y1="54.2133" y2="54.2133"/><text fill="#000000" font-family="sans-serif" font-size="5.2" font-weight="bold" lengthAdjust="spacing" textLength="2.8" x="37.2" y="52.1082">1</text><text fill="#000000" font-family="sans-serif" font-size="5.2" lengthAdjust="spacing" textLength="82.8" x="41.6" y="52.1082">asks to create a new team proposal</text><polygon fill="#181818" points="38.8,65.1297,34.8,66.7297,38.8,68.3297,37.2,66.7297" style="stroke:#181818;stroke-width:0.4000000000000001;"/><line style="stroke:#181818;stroke-width:0.4000000000000001;stroke-dasharray:2.0,2.0;" x1="36.4" x2="157.6" y1="66.7297" y2="66.7297"/><text fill="#000000" font-family="sans-serif" font-size="5.2" font-weight="bold" lengthAdjust="spacing" textLength="2.8" x="41.2" y="64.6246">2</text><text fill="#000000" font-family="sans-serif" font-size="5.2" lengthAdjust="spacing" textLength="107.6" x="45.6" y="64.6246">request the maximum and minimum team size</text><polygon fill="#181818" points="151.2,77.6461,155.2,79.2461,151.2,80.8461,152.8,79.2461" style="stroke:#181818;stroke-width:0.4000000000000001;"/><line style="stroke:#181818;stroke-width:0.4000000000000001;" x1="34.4" x2="153.6" y1="79.2461" y2="79.2461"/><text fill="#000000" font-family="sans-serif" font-size="5.2" font-weight="bold" lengthAdjust="spacing" textLength="2.8" x="37.2" y="77.141">3</text><text fill="#000000" font-family="sans-serif" font-size="5.2" lengthAdjust="spacing" textLength="48.4" x="41.6" y="77.141">types requested size</text><polygon fill="#181818" points="298,90.1625,302,91.7625,298,93.3625,299.6,91.7625" style="stroke:#181818;stroke-width:0.4000000000000001;"/><line style="stroke:#181818;stroke-width:0.4000000000000001;" x1="160" x2="300.4" y1="91.7625" y2="91.7625"/><text fill="#000000" font-family="sans-serif" font-size="5.2" font-weight="bold" lengthAdjust="spacing" textLength="2.8" x="162.8" y="89.6574">4</text><text fill="#000000" font-family="sans-serif" font-size="5.2" lengthAdjust="spacing" textLength="20" x="167.2" y="89.6574">generate</text><rect fill="#E3E3E3" height="13.0484" rx="1" ry="1" style="stroke:#181818;stroke-width:0.20000000000000004;" width="92.8" x="302.8" y="82.4461"/><text fill="#000000" font-family="sans-serif" font-size="5.6" lengthAdjust="spacing" textLength="87.2" x="305.6" y="91.2891">:GenerateTeamProposalController</text><polygon fill="#181818" points="342.4,107.6109,346.4,109.2109,342.4,110.8109,344,109.2109" style="stroke:#181818;stroke-width:0.4000000000000001;"/><line style="stroke:#181818;stroke-width:0.4000000000000001;" x1="160" x2="344.8" y1="109.2109" y2="109.2109"/><text fill="#000000" font-family="sans-serif" font-size="5.2" font-weight="bold" lengthAdjust="spacing" textLength="2.8" x="162.8" y="107.1059">5</text><text fill="#000000" font-family="sans-serif" font-size="5.2" lengthAdjust="spacing" textLength="22.8" x="167.2" y="107.1059">listSkills()</text><polygon fill="#181818" points="411.4,120.1273,415.4,121.7273,411.4,123.3273,413,121.7273" style="stroke:#181818;stroke-width:0.4000000000000001;"/><line style="stroke:#181818;stroke-width:0.4000000000000001;" x1="351.2" x2="413.8" y1="121.7273" y2="121.7273"/><text fill="#000000" font-family="sans-serif" font-size="5.2" font-weight="bold" lengthAdjust="spacing" textLength="2.8" x="354" y="119.6223">6</text><text fill="#000000" font-family="sans-serif" font-size="5.2" lengthAdjust="spacing" textLength="30" x="358.4" y="119.6223">getInstance()</text><polygon fill="#181818" points="355.6,132.6438,351.6,134.2438,355.6,135.8438,354,134.2438" style="stroke:#181818;stroke-width:0.4000000000000001;"/><line style="stroke:#181818;stroke-width:0.4000000000000001;stroke-dasharray:2.0,2.0;" x1="353.2" x2="417.8" y1="134.2438" y2="134.2438"/><text fill="#000000" font-family="sans-serif" font-size="5.2" font-weight="bold" lengthAdjust="spacing" textLength="2.8" x="358" y="132.1387">7</text><text fill="#000000" font-family="sans-serif" font-size="5.2" lengthAdjust="spacing" textLength="26.8" x="362.4" y="132.1387">repositories</text><polygon fill="#181818" points="453.4,145.1602,457.4,146.7602,453.4,148.3602,455,146.7602" style="stroke:#181818;stroke-width:0.4000000000000001;"/><line style="stroke:#181818;stroke-width:0.4000000000000001;" x1="351.2" x2="455.8" y1="146.7602" y2="146.7602"/><text fill="#000000" font-family="sans-serif" font-size="5.2" font-weight="bold" lengthAdjust="spacing" textLength="2.8" x="354" y="144.6551">8</text><text fill="#000000" font-family="sans-serif" font-size="5.2" lengthAdjust="spacing" textLength="45.2" x="358.4" y="144.6551">getSkillRepository()</text><polygon fill="#181818" points="355.6,157.6766,351.6,159.2766,355.6,160.8766,354,159.2766" style="stroke:#181818;stroke-width:0.4000000000000001;"/><line style="stroke:#181818;stroke-width:0.4000000000000001;stroke-dasharray:2.0,2.0;" x1="353.2" x2="459.8" y1="159.2766" y2="159.2766"/><text fill="#000000" font-family="sans-serif" font-size="5.2" font-weight="bold" lengthAdjust="spacing" textLength="2.8" x="358" y="157.1715">9</text><text fill="#000000" font-family="sans-serif" font-size="5.2" lengthAdjust="spacing" textLength="34" x="362.4" y="157.1715">skillRepository</text><polygon fill="#181818" points="499,170.193,503,171.793,499,173.393,500.6,171.793" style="stroke:#181818;stroke-width:0.4000000000000001;"/><line style="stroke:#181818;stroke-width:0.4000000000000001;" x1="351.2" x2="501.4" y1="171.793" y2="171.793"/><text fill="#000000" font-family="sans-serif" font-size="5.2" font-weight="bold" lengthAdjust="spacing" textLength="5.6" x="354" y="169.6879">10</text><text fill="#000000" font-family="sans-serif" font-size="5.2" lengthAdjust="spacing" textLength="22.8" x="361.2" y="169.6879">listSkills()</text><polygon fill="#181818" points="355.6,182.7094,351.6,184.3094,355.6,185.9094,354,184.3094" style="stroke:#181818;stroke-width:0.4000000000000001;"/><line style="stroke:#181818;stroke-width:0.4000000000000001;stroke-dasharray:2.0,2.0;" x1="353.2" x2="505.4" y1="184.3094" y2="184.3094"/><text fill="#000000" font-family="sans-serif" font-size="5.2" font-weight="bold" lengthAdjust="spacing" textLength="5.6" x="358" y="182.2043">11</text><text fill="#000000" font-family="sans-serif" font-size="5.2" lengthAdjust="spacing" textLength="12" x="365.2" y="182.2043">skills</text><polygon fill="#181818" points="164.4,195.2258,160.4,196.8258,164.4,198.4258,162.8,196.8258" style="stroke:#181818;stroke-width:0.4000000000000001;"/><line style="stroke:#181818;stroke-width:0.4000000000000001;stroke-dasharray:2.0,2.0;" x1="162" x2="348.8" y1="196.8258" y2="196.8258"/><text fill="#000000" font-family="sans-serif" font-size="5.2" font-weight="bold" lengthAdjust="spacing" textLength="5.6" x="166.8" y="194.7207">12</text><text fill="#000000" font-family="sans-serif" font-size="5.2" lengthAdjust="spacing" textLength="12" x="174" y="194.7207">skills</text><path d="M4,202.8258 L33.2,202.8258 L33.2,206.5422 L29.2,210.5422 L4,210.5422 L4,202.8258 " fill="#EEEEEE" style="stroke:#000000;stroke-width:0.6000000000000001;"/><rect fill="none" height="39.6656" style="stroke:#000000;stroke-width:0.6000000000000001;" width="194.4" x="4" y="202.8258"/><text fill="#000000" font-family="sans-serif" font-size="5.2" font-weight="bold" lengthAdjust="spacing" textLength="11.2" x="10" y="208.8371">loop</text><polygon fill="#181818" points="38.8,225.175,34.8,226.775,38.8,228.375,37.2,226.775" style="stroke:#181818;stroke-width:0.4000000000000001;"/><line style="stroke:#181818;stroke-width:0.4000000000000001;stroke-dasharray:2.0,2.0;" x1="36.4" x2="157.6" y1="226.775" y2="226.775"/><text fill="#000000" font-family="sans-serif" font-size="5.2" font-weight="bold" lengthAdjust="spacing" textLength="5.6" x="41.2" y="221.2117">13</text><text fill="#000000" font-family="sans-serif" font-size="5.2" lengthAdjust="spacing" textLength="90" x="48.4" y="217.7535">shows the list of skills and asks you to</text><text fill="#000000" font-family="sans-serif" font-size="5.2" lengthAdjust="spacing" textLength="86.4" x="48.4" y="224.6699">select one that you need for that task</text><polygon fill="#181818" points="151.2,237.6914,155.2,239.2914,151.2,240.8914,152.8,239.2914" style="stroke:#181818;stroke-width:0.4000000000000001;"/><line style="stroke:#181818;stroke-width:0.4000000000000001;" x1="34.4" x2="153.6" y1="239.2914" y2="239.2914"/><text fill="#000000" font-family="sans-serif" font-size="5.2" font-weight="bold" lengthAdjust="spacing" textLength="5.6" x="37.2" y="237.1863">14</text><text fill="#000000" font-family="sans-serif" font-size="5.2" lengthAdjust="spacing" textLength="33.6" x="44.4" y="237.1863">select the skill</text><polygon fill="#181818" points="38.8,253.0078,34.8,254.6078,38.8,256.2078,37.2,254.6078" style="stroke:#181818;stroke-width:0.4000000000000001;"/><line style="stroke:#181818;stroke-width:0.4000000000000001;stroke-dasharray:2.0,2.0;" x1="36.4" x2="157.6" y1="254.6078" y2="254.6078"/><text fill="#000000" font-family="sans-serif" font-size="5.2" font-weight="bold" lengthAdjust="spacing" textLength="5.6" x="41.2" y="252.5027">15</text><text fill="#000000" font-family="sans-serif" font-size="5.2" lengthAdjust="spacing" textLength="94.4" x="48.4" y="252.5027">shows all data and requests confirmation</text><polygon fill="#181818" points="151.2,265.5242,155.2,267.1242,151.2,268.7242,152.8,267.1242" style="stroke:#181818;stroke-width:0.4000000000000001;"/><line style="stroke:#181818;stroke-width:0.4000000000000001;" x1="34.4" x2="153.6" y1="267.1242" y2="267.1242"/><text fill="#000000" font-family="sans-serif" font-size="5.2" font-weight="bold" lengthAdjust="spacing" textLength="5.6" x="37.2" y="265.0191">16</text><text fill="#000000" font-family="sans-serif" font-size="5.2" lengthAdjust="spacing" textLength="31.2" x="44.4" y="265.0191">confirms data</text><polygon fill="#181818" points="342.4,278.0406,346.4,279.6406,342.4,281.2406,344,279.6406" style="stroke:#181818;stroke-width:0.4000000000000001;"/><line style="stroke:#181818;stroke-width:0.4000000000000001;" x1="160" x2="344.8" y1="279.6406" y2="279.6406"/><text fill="#000000" font-family="sans-serif" font-size="5.2" font-weight="bold" lengthAdjust="spacing" textLength="5.6" x="162.8" y="277.5355">17</text><text fill="#000000" font-family="sans-serif" font-size="5.2" lengthAdjust="spacing" textLength="40.8" x="170" y="277.5355">getCollaborators()</text><polygon fill="#181818" points="411.4,290.557,415.4,292.157,411.4,293.757,413,292.157" style="stroke:#181818;stroke-width:0.4000000000000001;"/><line style="stroke:#181818;stroke-width:0.4000000000000001;" x1="351.2" x2="413.8" y1="292.157" y2="292.157"/><text fill="#000000" font-family="sans-serif" font-size="5.2" font-weight="bold" lengthAdjust="spacing" textLength="5.6" x="354" y="290.052">18</text><text fill="#000000" font-family="sans-serif" font-size="5.2" lengthAdjust="spacing" textLength="30" x="361.2" y="290.052">getInstance()</text><polygon fill="#181818" points="355.6,303.0734,351.6,304.6734,355.6,306.2734,354,304.6734" style="stroke:#181818;stroke-width:0.4000000000000001;"/><line style="stroke:#181818;stroke-width:0.4000000000000001;stroke-dasharray:2.0,2.0;" x1="353.2" x2="417.8" y1="304.6734" y2="304.6734"/><text fill="#000000" font-family="sans-serif" font-size="5.2" font-weight="bold" lengthAdjust="spacing" textLength="5.6" x="358" y="302.5684">19</text><text fill="#000000" font-family="sans-serif" font-size="5.2" lengthAdjust="spacing" textLength="26.8" x="365.2" y="302.5684">repositories</text><polygon fill="#181818" points="453.4,315.5898,457.4,317.1898,453.4,318.7898,455,317.1898" style="stroke:#181818;stroke-width:0.4000000000000001;"/><line style="stroke:#181818;stroke-width:0.4000000000000001;" x1="351.2" x2="455.8" y1="317.1898" y2="317.1898"/><text fill="#000000" font-family="sans-serif" font-size="5.2" font-weight="bold" lengthAdjust="spacing" textLength="5.6" x="354" y="315.0848">20</text><text fill="#000000" font-family="sans-serif" font-size="5.2" lengthAdjust="spacing" textLength="62.8" x="361.2" y="315.0848">getCollaboratorRepository()</text><polygon fill="#181818" points="355.6,328.1063,351.6,329.7063,355.6,331.3063,354,329.7063" style="stroke:#181818;stroke-width:0.4000000000000001;"/><line style="stroke:#181818;stroke-width:0.4000000000000001;stroke-dasharray:2.0,2.0;" x1="353.2" x2="459.8" y1="329.7063" y2="329.7063"/><text fill="#000000" font-family="sans-serif" font-size="5.2" font-weight="bold" lengthAdjust="spacing" textLength="5.6" x="358" y="327.6012">21</text><text fill="#000000" font-family="sans-serif" font-size="5.2" lengthAdjust="spacing" textLength="51.6" x="365.2" y="327.6012">collaboratorRepository</text><polygon fill="#181818" points="558,340.6227,562,342.2227,558,343.8227,559.6,342.2227" style="stroke:#181818;stroke-width:0.4000000000000001;"/><line style="stroke:#181818;stroke-width:0.4000000000000001;" x1="351.2" x2="560.4" y1="342.2227" y2="342.2227"/><text fill="#000000" font-family="sans-serif" font-size="5.2" font-weight="bold" lengthAdjust="spacing" textLength="5.6" x="354" y="340.1176">22</text><text fill="#000000" font-family="sans-serif" font-size="5.2" lengthAdjust="spacing" textLength="40.8" x="361.2" y="340.1176">getCollaborators()</text><polygon fill="#181818" points="355.6,353.1391,351.6,354.7391,355.6,356.3391,354,354.7391" style="stroke:#181818;stroke-width:0.4000000000000001;"/><line style="stroke:#181818;stroke-width:0.4000000000000001;stroke-dasharray:2.0,2.0;" x1="353.2" x2="564.4" y1="354.7391" y2="354.7391"/><text fill="#000000" font-family="sans-serif" font-size="5.2" font-weight="bold" lengthAdjust="spacing" textLength="5.6" x="358" y="352.634">23</text><text fill="#000000" font-family="sans-serif" font-size="5.2" lengthAdjust="spacing" textLength="29.6" x="365.2" y="352.634">collaborators</text><polygon fill="#181818" points="164.4,365.6555,160.4,367.2555,164.4,368.8555,162.8,367.2555" style="stroke:#181818;stroke-width:0.4000000000000001;"/><line style="stroke:#181818;stroke-width:0.4000000000000001;stroke-dasharray:2.0,2.0;" x1="162" x2="348.8" y1="367.2555" y2="367.2555"/><text fill="#000000" font-family="sans-serif" font-size="5.2" font-weight="bold" lengthAdjust="spacing" textLength="5.6" x="166.8" y="365.1504">24</text><text fill="#000000" font-family="sans-serif" font-size="5.2" lengthAdjust="spacing" textLength="29.6" x="174" y="365.1504">collaborators</text><polygon fill="#181818" points="342.4,378.1719,346.4,379.7719,342.4,381.3719,344,379.7719" style="stroke:#181818;stroke-width:0.4000000000000001;"/><line style="stroke:#181818;stroke-width:0.4000000000000001;" x1="160" x2="344.8" y1="379.7719" y2="379.7719"/><text fill="#000000" font-family="sans-serif" font-size="5.2" font-weight="bold" lengthAdjust="spacing" textLength="5.6" x="162.8" y="377.6668">25</text><text fill="#000000" font-family="sans-serif" font-size="5.2" lengthAdjust="spacing" textLength="172.4" x="170" y="377.6668">generateTeamProposal(minimumSize, maximumSize, skills, collaborators)</text><polygon fill="#181818" points="411.4,390.6883,415.4,392.2883,411.4,393.8883,413,392.2883" style="stroke:#181818;stroke-width:0.4000000000000001;"/><line style="stroke:#181818;stroke-width:0.4000000000000001;" x1="351.2" x2="413.8" y1="392.2883" y2="392.2883"/><text fill="#000000" font-family="sans-serif" font-size="5.2" font-weight="bold" lengthAdjust="spacing" textLength="5.6" x="354" y="390.1832">26</text><text fill="#000000" font-family="sans-serif" font-size="5.2" lengthAdjust="spacing" textLength="30" x="361.2" y="390.1832">getInstance()</text><polygon fill="#181818" points="355.6,403.2047,351.6,404.8047,355.6,406.4047,354,404.8047" style="stroke:#181818;stroke-width:0.4000000000000001;"/><line style="stroke:#181818;stroke-width:0.4000000000000001;stroke-dasharray:2.0,2.0;" x1="353.2" x2="417.8" y1="404.8047" y2="404.8047"/><text fill="#000000" font-family="sans-serif" font-size="5.2" font-weight="bold" lengthAdjust="spacing" textLength="5.6" x="358" y="402.6996">27</text><text fill="#000000" font-family="sans-serif" font-size="5.2" lengthAdjust="spacing" textLength="26.8" x="365.2" y="402.6996">repositories</text><polygon fill="#181818" points="453.4,415.7211,457.4,417.3211,453.4,418.9211,455,417.3211" style="stroke:#181818;stroke-width:0.4000000000000001;"/><line style="stroke:#181818;stroke-width:0.4000000000000001;" x1="351.2" x2="455.8" y1="417.3211" y2="417.3211"/><text fill="#000000" font-family="sans-serif" font-size="5.2" font-weight="bold" lengthAdjust="spacing" textLength="5.6" x="354" y="415.216">28</text><text fill="#000000" font-family="sans-serif" font-size="5.2" lengthAdjust="spacing" textLength="48" x="361.2" y="415.216">getTeamRepository()</text><polygon fill="#181818" points="355.6,428.2375,351.6,429.8375,355.6,431.4375,354,429.8375" style="stroke:#181818;stroke-width:0.4000000000000001;"/><line style="stroke:#181818;stroke-width:0.4000000000000001;stroke-dasharray:2.0,2.0;" x1="353.2" x2="459.8" y1="429.8375" y2="429.8375"/><text fill="#000000" font-family="sans-serif" font-size="5.2" font-weight="bold" lengthAdjust="spacing" textLength="5.6" x="358" y="427.7324">29</text><text fill="#000000" font-family="sans-serif" font-size="5.2" lengthAdjust="spacing" textLength="36.4" x="365.2" y="427.7324">teamRepository</text><polygon fill="#181818" points="619.2,440.7539,623.2,442.3539,619.2,443.9539,620.8,442.3539" style="stroke:#181818;stroke-width:0.4000000000000001;"/><line style="stroke:#181818;stroke-width:0.4000000000000001;" x1="351.2" x2="621.6" y1="442.3539" y2="442.3539"/><text fill="#000000" font-family="sans-serif" font-size="5.2" font-weight="bold" lengthAdjust="spacing" textLength="5.6" x="354" y="440.2488">30</text><text fill="#000000" font-family="sans-serif" font-size="5.2" lengthAdjust="spacing" textLength="172.4" x="361.2" y="440.2488">generateTeamProposal(minimumSize, maximumSize, skills, collaborators)</text><polygon fill="#181818" points="772,453.2703,776,454.8703,772,456.4703,773.6,454.8703" style="stroke:#181818;stroke-width:0.4000000000000001;"/><line style="stroke:#181818;stroke-width:0.4000000000000001;" x1="628" x2="774.4" y1="454.8703" y2="454.8703"/><text fill="#000000" font-family="sans-serif" font-size="5.2" font-weight="bold" lengthAdjust="spacing" textLength="5.6" x="630.8" y="452.7652">31</text><text fill="#000000" font-family="sans-serif" font-size="5.2" lengthAdjust="spacing" textLength="132" x="638" y="452.7652">Team(minimumSize, maximumSize, collaborators, skills)</text><rect fill="#E3E3E3" height="20.4969" rx="1" ry="1" style="stroke:#181818;stroke-width:0.20000000000000004;" width="21.6" x="776.8" y="445.5539"/><text fill="#000000" font-family="sans-serif" font-size="5.6" lengthAdjust="spacing" textLength="12.4" x="781.4" y="454.3969">team</text><text fill="#000000" font-family="sans-serif" font-size="5.6" lengthAdjust="spacing" textLength="16" x="779.6" y="461.8453">:Team</text><path d="M768.8,473.2508 L798,473.2508 L798,476.9672 L794,480.9672 L768.8,480.9672 L768.8,473.2508 " fill="#EEEEEE" style="stroke:#000000;stroke-width:0.6000000000000001;"/><rect fill="none" height="76.1625" style="stroke:#000000;stroke-width:0.6000000000000001;" width="171.2" x="768.8" y="473.2508"/><text fill="#000000" font-family="sans-serif" font-size="5.2" font-weight="bold" lengthAdjust="spacing" textLength="11.2" x="774.8" y="479.2621">loop</text><text fill="#000000" font-family="sans-serif" font-size="4.4" font-weight="bold" lengthAdjust="spacing" textLength="48.8" x="804" y="478.7988">[for each collaborator]</text><path d="M772.8,483.7672 L802,483.7672 L802,487.4836 L798,491.4836 L772.8,491.4836 L772.8,483.7672 " fill="#EEEEEE" style="stroke:#000000;stroke-width:0.6000000000000001;"/><rect fill="none" height="62.8461" style="stroke:#000000;stroke-width:0.6000000000000001;" width="163.2" x="772.8" y="483.7672"/><text fill="#000000" font-family="sans-serif" font-size="5.2" font-weight="bold" lengthAdjust="spacing" textLength="11.2" x="778.8" y="489.7785">loop</text><text fill="#000000" font-family="sans-serif" font-size="4.4" font-weight="bold" lengthAdjust="spacing" textLength="31.6" x="808" y="489.3152">[for each skill]</text><polygon fill="#181818" points="835.2,499.2,839.2,500.8,835.2,502.4,836.8,500.8" style="stroke:#181818;stroke-width:0.4000000000000001;"/><line style="stroke:#181818;stroke-width:0.4000000000000001;" x1="789.6" x2="837.6" y1="500.8" y2="500.8"/><text fill="#000000" font-family="sans-serif" font-size="5.2" font-weight="bold" lengthAdjust="spacing" textLength="5.6" x="792.4" y="498.6949">32</text><text fill="#000000" font-family="sans-serif" font-size="5.2" lengthAdjust="spacing" textLength="33.6" x="799.6" y="498.6949">addTeam(skill)</text><rect fill="#E3E3E3" height="20.4969" rx="1" ry="1" style="stroke:#181818;stroke-width:0.20000000000000004;" width="38.4" x="840" y="491.4836"/><text fill="#000000" font-family="sans-serif" font-size="5.6" lengthAdjust="spacing" textLength="30" x="844.2" y="500.3266">collaborator</text><text fill="#000000" font-family="sans-serif" font-size="5.6" lengthAdjust="spacing" textLength="32.8" x="842.8" y="507.775">:Collaborator</text><line style="stroke:#181818;stroke-width:0.4000000000000001;" x1="861.2" x2="880" y1="523.6969" y2="523.6969"/><line style="stroke:#181818;stroke-width:0.4000000000000001;" x1="880" x2="880" y1="523.6969" y2="528.8969"/><line style="stroke:#181818;stroke-width:0.4000000000000001;" x1="863.6" x2="880" y1="528.8969" y2="528.8969"/><polygon fill="#181818" points="867.6,527.2969,863.6,528.8969,867.6,530.4969,866,528.8969" style="stroke:#181818;stroke-width:0.4000000000000001;"/><text fill="#000000" font-family="sans-serif" font-size="5.2" font-weight="bold" lengthAdjust="spacing" textLength="5.6" x="866" y="521.5918">33</text><text fill="#000000" font-family="sans-serif" font-size="5.2" lengthAdjust="spacing" textLength="58" x="873.2" y="521.5918">analyseCollaborator(skill)</text><polygon fill="#181818" points="794,541.8133,790,543.4133,794,545.0133,792.4,543.4133" style="stroke:#181818;stroke-width:0.4000000000000001;"/><line style="stroke:#181818;stroke-width:0.4000000000000001;stroke-dasharray:2.0,2.0;" x1="791.6" x2="858.8" y1="543.4133" y2="543.4133"/><text fill="#000000" font-family="sans-serif" font-size="5.2" font-weight="bold" lengthAdjust="spacing" textLength="5.6" x="796.4" y="541.3082">34</text><text fill="#000000" font-family="sans-serif" font-size="5.2" lengthAdjust="spacing" textLength="30.4" x="803.6" y="541.3082">canJoinTeam</text><polygon fill="#181818" points="632.4,559.9297,628.4,561.5297,632.4,563.1297,630.8,561.5297" style="stroke:#181818;stroke-width:0.4000000000000001;"/><line style="stroke:#181818;stroke-width:0.4000000000000001;stroke-dasharray:2.0,2.0;" x1="630" x2="787.2" y1="561.5297" y2="561.5297"/><text fill="#000000" font-family="sans-serif" font-size="5.2" font-weight="bold" lengthAdjust="spacing" textLength="5.6" x="634.8" y="559.4246">35</text><text fill="#000000" font-family="sans-serif" font-size="5.2" lengthAdjust="spacing" textLength="11.6" x="642" y="559.4246">team</text><polygon fill="#181818" points="355.6,572.4461,351.6,574.0461,355.6,575.6461,354,574.0461" style="stroke:#181818;stroke-width:0.4000000000000001;"/><line style="stroke:#181818;stroke-width:0.4000000000000001;stroke-dasharray:2.0,2.0;" x1="353.2" x2="625.6" y1="574.0461" y2="574.0461"/><text fill="#000000" font-family="sans-serif" font-size="5.2" font-weight="bold" lengthAdjust="spacing" textLength="5.6" x="358" y="571.941">36</text><text fill="#000000" font-family="sans-serif" font-size="5.2" lengthAdjust="spacing" textLength="11.6" x="365.2" y="571.941">team</text><polygon fill="#181818" points="164.4,584.9625,160.4,586.5625,164.4,588.1625,162.8,586.5625" style="stroke:#181818;stroke-width:0.4000000000000001;"/><line style="stroke:#181818;stroke-width:0.4000000000000001;stroke-dasharray:2.0,2.0;" x1="162" x2="348.8" y1="586.5625" y2="586.5625"/><text fill="#000000" font-family="sans-serif" font-size="5.2" font-weight="bold" lengthAdjust="spacing" textLength="5.6" x="166.8" y="584.4574">37</text><text fill="#000000" font-family="sans-serif" font-size="5.2" lengthAdjust="spacing" textLength="11.6" x="174" y="584.4574">team</text><polygon fill="#181818" points="38.8,597.4789,34.8,599.0789,38.8,600.6789,37.2,599.0789" style="stroke:#181818;stroke-width:0.4000000000000001;"/><line style="stroke:#181818;stroke-width:0.4000000000000001;stroke-dasharray:2.0,2.0;" x1="36.4" x2="157.6" y1="599.0789" y2="599.0789"/><text fill="#000000" font-family="sans-serif" font-size="5.2" font-weight="bold" lengthAdjust="spacing" textLength="5.6" x="41.2" y="596.9738">38</text><text fill="#000000" font-family="sans-serif" font-size="5.2" lengthAdjust="spacing" textLength="74" x="48.4" y="596.9738">show the team recommendation</text><polygon fill="#181818" points="151.2,609.9953,155.2,611.5953,151.2,613.1953,152.8,611.5953" style="stroke:#181818;stroke-width:0.4000000000000001;"/><line style="stroke:#181818;stroke-width:0.4000000000000001;" x1="34.4" x2="153.6" y1="611.5953" y2="611.5953"/><text fill="#000000" font-family="sans-serif" font-size="5.2" font-weight="bold" lengthAdjust="spacing" textLength="5.6" x="37.2" y="609.4902">39</text><text fill="#000000" font-family="sans-serif" font-size="5.2" lengthAdjust="spacing" textLength="71.6" x="44.4" y="609.4902">accepts team recommendation</text><polygon fill="#181818" points="342.4,622.5117,346.4,624.1117,342.4,625.7117,344,624.1117" style="stroke:#181818;stroke-width:0.4000000000000001;"/><line style="stroke:#181818;stroke-width:0.4000000000000001;" x1="160" x2="344.8" y1="624.1117" y2="624.1117"/><text fill="#000000" font-family="sans-serif" font-size="5.2" font-weight="bold" lengthAdjust="spacing" textLength="5.6" x="162.8" y="622.0066">40</text><text fill="#000000" font-family="sans-serif" font-size="5.2" lengthAdjust="spacing" textLength="37.2" x="170" y="622.0066">addTeam(Team)</text><polygon fill="#181818" points="619.2,635.0281,623.2,636.6281,619.2,638.2281,620.8,636.6281" style="stroke:#181818;stroke-width:0.4000000000000001;"/><line style="stroke:#181818;stroke-width:0.4000000000000001;" x1="351.2" x2="621.6" y1="636.6281" y2="636.6281"/><text fill="#000000" font-family="sans-serif" font-size="5.2" font-weight="bold" lengthAdjust="spacing" textLength="5.6" x="354" y="634.523">41</text><text fill="#000000" font-family="sans-serif" font-size="5.2" lengthAdjust="spacing" textLength="36" x="361.2" y="634.523">addTeam(team)</text><line style="stroke:#181818;stroke-width:0.4000000000000001;" x1="628" x2="646.8" y1="647.1445" y2="647.1445"/><line style="stroke:#181818;stroke-width:0.4000000000000001;" x1="646.8" x2="646.8" y1="647.1445" y2="652.3445"/><line style="stroke:#181818;stroke-width:0.4000000000000001;" x1="630.4" x2="646.8" y1="652.3445" y2="652.3445"/><polygon fill="#181818" points="634.4,650.7445,630.4,652.3445,634.4,653.9445,632.8,652.3445" style="stroke:#181818;stroke-width:0.4000000000000001;"/><text fill="#000000" font-family="sans-serif" font-size="5.2" font-weight="bold" lengthAdjust="spacing" textLength="5.6" x="632.8" y="645.0395">42</text><text fill="#000000" font-family="sans-serif" font-size="5.2" lengthAdjust="spacing" textLength="36" x="640" y="645.0395">addTeam(team)</text><line style="stroke:#181818;stroke-width:0.4000000000000001;" x1="632" x2="648.8" y1="666.8609" y2="666.8609"/><line style="stroke:#181818;stroke-width:0.4000000000000001;" x1="648.8" x2="648.8" y1="666.8609" y2="672.0609"/><line style="stroke:#181818;stroke-width:0.4000000000000001;" x1="632.4" x2="648.8" y1="672.0609" y2="672.0609"/><polygon fill="#181818" points="636.4,670.4609,632.4,672.0609,636.4,673.6609,634.8,672.0609" style="stroke:#181818;stroke-width:0.4000000000000001;"/><text fill="#000000" font-family="sans-serif" font-size="5.2" font-weight="bold" lengthAdjust="spacing" textLength="5.6" x="634.8" y="664.7559">43</text><text fill="#000000" font-family="sans-serif" font-size="5.2" lengthAdjust="spacing" textLength="44.8" x="642" y="664.7559">validateTeam(team)</text><polygon fill="#181818" points="355.6,694.9773,351.6,696.5773,355.6,698.1773,354,696.5773" style="stroke:#181818;stroke-width:0.4000000000000001;"/><line style="stroke:#181818;stroke-width:0.4000000000000001;stroke-dasharray:2.0,2.0;" x1="353.2" x2="625.6" y1="696.5773" y2="696.5773"/><text fill="#000000" font-family="sans-serif" font-size="5.2" font-weight="bold" lengthAdjust="spacing" textLength="5.6" x="358" y="694.4723">44</text><text fill="#000000" font-family="sans-serif" font-size="5.2" lengthAdjust="spacing" textLength="5.6" x="365.2" y="694.4723">ok</text><polygon fill="#181818" points="164.4,707.4938,160.4,709.0938,164.4,710.6938,162.8,709.0938" style="stroke:#181818;stroke-width:0.4000000000000001;"/><line style="stroke:#181818;stroke-width:0.4000000000000001;stroke-dasharray:2.0,2.0;" x1="162" x2="348.8" y1="709.0938" y2="709.0938"/><text fill="#000000" font-family="sans-serif" font-size="5.2" font-weight="bold" lengthAdjust="spacing" textLength="5.6" x="166.8" y="706.9887">45</text><text fill="#000000" font-family="sans-serif" font-size="5.2" lengthAdjust="spacing" textLength="5.6" x="174" y="706.9887">ok</text><polygon fill="#181818" points="36.8,720.0102,32.8,721.6102,36.8,723.2102,35.2,721.6102" style="stroke:#181818;stroke-width:0.4000000000000001;"/><line style="stroke:#181818;stroke-width:0.4000000000000001;stroke-dasharray:2.0,2.0;" x1="34.4" x2="157.6" y1="721.6102" y2="721.6102"/><text fill="#000000" font-family="sans-serif" font-size="5.2" font-weight="bold" lengthAdjust="spacing" textLength="5.6" x="39.2" y="719.5051">46</text><text fill="#000000" font-family="sans-serif" font-size="5.2" lengthAdjust="spacing" textLength="63.2" x="46.4" y="719.5051">displays operation success</text><!--SRC=[tLTDSziW4BthLp2vDF4aVy27pAGPJ-FMcNWSzvOBaR3D684gK1BtrtTPVHWii9MalPI3nuRTjmzukwprbik2bZGdkP8gtPGgPyIK5KjqjrBGT4lNxD7i12CbImsLQ-4Qw0tDr2kNQxAYGhCaePLHiigVMPaaNpOyOsIbb7bMRmbDZIh9sLsLKqaMJAkgJ9b-akIUIeXHdX6goTtYFW5amrDUK6d8sVWRawoaXYqPpUUbAfIcukSKZNzE1zZUAcbA9KGJu7Qvc7bU2mPc7AXnfdsuqbbvacFN4A4Maxdl0CSYH6Us0vz7VmRT7dzCPxEURmeKwRC2zghq86w32_LU7leu1hRk-I-z2VHRJcxkWuwDEHhPtt6A1yHQEhERhuczQFu2ju2NcH0Oy8LSNSDzaJ4ORW5SaRHareOIoLun62cQ6qEN3WGk6IVi080hmB5mOv3ZhuffGyo6aPo-yRpA2PKPoRd4xuYf-M-6xXdh8RgipAvWkeLasTulokCQfJGQWVEwaLqIie1rmRL19UZpYywY0qP5TjCmq0kyNS7P86OgDIHWoXmK5yXJick1mrt5KxHXx2awJewvSrvHt8xeP8xy3jGUemdAwxERp1rI1uaKutK8rF9fConsz1wTBXrxd3gOg_rL8ZFle5n6OQoQLgkq0mJ7Uoy4eLGH43quRzIhHiNRZH6rQk1G-9XPErNPx7gIcWcerqH9AEeRQd11Cf3s2gempXXmE9aR4BC6ia4nM3WjcCoI8vIf42IZXYBH9iqqIPLSyJAdXYivW4bZhX5fI7QYAjqwDIm1tvk1_oW51-LWBmd3xqMKyEba3BzCKQAnfAmVgwCtuj_AGpWhw_a8l-ZvXT2Sl8oX1BEphx5-rt7Ul4AFy8vSjizJ_QFEs4i_udylIxyD-OGS_GRdtJ9iUf-_VMlUBjh-ghUJPi7oiDiOZSR4XZyIrWlNihZe0NUXiMlhBRTl2jP-EAIDXpl0V5_u3qTm4bklEkUX8xJRf5c6EqMWYw2JcwlOHvB8gDVt-80kgTXfvjQLOv4-5AsvCwWKL7vNNDhjH9tyodCKVw2fVLzZyqVkm5LyM1jE_B119rel1ME95zI-LsazxwC5rcqXiF_0FS7VK9NdiE-XRGDDKrOO7VK-sKIquhKVxohKxT7j8Om7yUwgCGJm4w0lLF2igOaVHZubXY4sVSsfxM35UMfp_0PfBUEw47IdYIhiym0Q8Re20MaTKfhpq_xP_GC0]--></g></svg>