<?xml version="1.0" encoding="us-ascii" standalone="no"?><svg xmlns="http://www.w3.org/2000/svg" xmlns:xlink="http://www.w3.org/1999/xlink" contentStyleType="text/css" height="1098px" preserveAspectRatio="none" style="width:1418px;height:1098px;background:#FFFFFF;" version="1.1" viewBox="0 0 1418 1098" width="1418px" zoomAndPan="magnify"><defs/><g><!--class GenerateTeamProposalController--><g id="elem_GenerateTeamProposalController"><rect codeLine="11" fill="#F1F1F1" height="141.1055" id="GenerateTeamProposalController" rx="2.5" ry="2.5" style="stroke:#181818;stroke-width:0.5;" width="593" x="238.5" y="7"/><ellipse cx="423.75" cy="23" fill="#ADD1B2" rx="11" ry="11" style="stroke:#181818;stroke-width:1.0;"/><path d="M426.5156,18.875 Q426.6719,18.6563 426.8594,18.5469 Q427.0469,18.4375 427.2656,18.4375 Q427.6406,18.4375 427.875,18.7031 Q428.1094,18.9531 428.1094,19.5625 L428.1094,21.0156 Q428.1094,21.625 427.875,21.8906 Q427.6406,22.1563 427.2656,22.1563 Q426.9219,22.1563 426.7188,21.9531 Q426.5156,21.7656 426.4063,21.25 Q426.3594,20.8906 426.1719,20.7031 Q425.8438,20.3281 425.2344,20.1094 Q424.625,19.8906 424,19.8906 Q423.2344,19.8906 422.5938,20.2188 Q421.9688,20.5469 421.4688,21.2969 Q420.9844,22.0469 420.9844,23.0781 L420.9844,24.1719 Q420.9844,25.4063 421.875,26.2344 Q422.7656,27.0469 424.3594,27.0469 Q425.2969,27.0469 425.9531,26.7969 Q426.3438,26.6406 426.7656,26.2031 Q427.0313,25.9375 427.1719,25.8594 Q427.3281,25.7813 427.5313,25.7813 Q427.8594,25.7813 428.1094,26.0469 Q428.375,26.2969 428.375,26.6406 Q428.375,26.9844 428.0313,27.3906 Q427.5313,27.9688 426.7344,28.2969 Q425.6563,28.75 424.3594,28.75 Q422.8438,28.75 421.6406,28.125 Q420.6563,27.625 419.9688,26.5625 Q419.2813,25.4844 419.2813,24.2031 L419.2813,23.0469 Q419.2813,21.7188 419.8906,20.5781 Q420.5156,19.4219 421.6094,18.8125 Q422.7031,18.1875 423.9375,18.1875 Q424.6719,18.1875 425.3125,18.3594 Q425.9688,18.5156 426.5156,18.875 Z " fill="#000000"/><text fill="#000000" font-family="sans-serif" font-size="14" lengthAdjust="spacing" textLength="214" x="444.25" y="28.7969">GenerateTeamProposalController</text><line style="stroke:#181818;stroke-width:0.5;" x1="239.5" x2="830.5" y1="39" y2="39"/><line style="stroke:#181818;stroke-width:0.5;" x1="239.5" x2="830.5" y1="47" y2="47"/><text fill="#000000" font-family="sans-serif" font-size="14" lengthAdjust="spacing" textLength="581" x="244.5" y="66.1074">+GenerateTeamProposalController(skillRepository, collaboratorRepository, teamRepository)</text><text fill="#000000" font-family="sans-serif" font-size="14" lengthAdjust="spacing" textLength="67" x="244.5" y="84.7285">+listSkills()</text><text fill="#000000" font-family="sans-serif" font-size="14" lengthAdjust="spacing" textLength="123" x="244.5" y="103.3496">+getCollaborators()</text><text fill="#000000" font-family="sans-serif" font-size="14" lengthAdjust="spacing" textLength="468" x="244.5" y="121.9707">+generateTeamProposal(minimumSize, maximumSize, skills, collaborators)</text><text fill="#000000" font-family="sans-serif" font-size="14" lengthAdjust="spacing" textLength="109" x="244.5" y="140.5918">+addTeam(team)</text></g><!--class GenerateTeamProposalUI--><g id="elem_GenerateTeamProposalUI"><rect codeLine="20" fill="#F1F1F1" height="48" id="GenerateTeamProposalUI" rx="2.5" ry="2.5" style="stroke:#181818;stroke-width:0.5;" width="196" x="7" y="53.5"/><ellipse cx="22" cy="69.5" fill="#ADD1B2" rx="11" ry="11" style="stroke:#181818;stroke-width:1.0;"/><path d="M24.7656,65.375 Q24.9219,65.1563 25.1094,65.0469 Q25.2969,64.9375 25.5156,64.9375 Q25.8906,64.9375 26.125,65.2031 Q26.3594,65.4531 26.3594,66.0625 L26.3594,67.5156 Q26.3594,68.125 26.125,68.3906 Q25.8906,68.6563 25.5156,68.6563 Q25.1719,68.6563 24.9688,68.4531 Q24.7656,68.2656 24.6563,67.75 Q24.6094,67.3906 24.4219,67.2031 Q24.0938,66.8281 23.4844,66.6094 Q22.875,66.3906 22.25,66.3906 Q21.4844,66.3906 20.8438,66.7188 Q20.2188,67.0469 19.7188,67.7969 Q19.2344,68.5469 19.2344,69.5781 L19.2344,70.6719 Q19.2344,71.9063 20.125,72.7344 Q21.0156,73.5469 22.6094,73.5469 Q23.5469,73.5469 24.2031,73.2969 Q24.5938,73.1406 25.0156,72.7031 Q25.2813,72.4375 25.4219,72.3594 Q25.5781,72.2813 25.7813,72.2813 Q26.1094,72.2813 26.3594,72.5469 Q26.625,72.7969 26.625,73.1406 Q26.625,73.4844 26.2813,73.8906 Q25.7813,74.4688 24.9844,74.7969 Q23.9063,75.25 22.6094,75.25 Q21.0938,75.25 19.8906,74.625 Q18.9063,74.125 18.2188,73.0625 Q17.5313,71.9844 17.5313,70.7031 L17.5313,69.5469 Q17.5313,68.2188 18.1406,67.0781 Q18.7656,65.9219 19.8594,65.3125 Q20.9531,64.6875 22.1875,64.6875 Q22.9219,64.6875 23.5625,64.8594 Q24.2188,65.0156 24.7656,65.375 Z " fill="#000000"/><text fill="#000000" font-family="sans-serif" font-size="14" lengthAdjust="spacing" textLength="164" x="36" y="75.2969">GenerateTeamProposalUI</text><line style="stroke:#181818;stroke-width:0.5;" x1="8" x2="202" y1="85.5" y2="85.5"/><line style="stroke:#181818;stroke-width:0.5;" x1="8" x2="202" y1="93.5" y2="93.5"/></g><!--class Repositories--><g id="elem_Repositories"><rect codeLine="23" fill="#F1F1F1" height="141.1055" id="Repositories" rx="2.5" ry="2.5" style="stroke:#181818;stroke-width:0.5;" width="196" x="935" y="7"/><ellipse cx="989.25" cy="23" fill="#ADD1B2" rx="11" ry="11" style="stroke:#181818;stroke-width:1.0;"/><path d="M992.0156,18.875 Q992.1719,18.6563 992.3594,18.5469 Q992.5469,18.4375 992.7656,18.4375 Q993.1406,18.4375 993.375,18.7031 Q993.6094,18.9531 993.6094,19.5625 L993.6094,21.0156 Q993.6094,21.625 993.375,21.8906 Q993.1406,22.1563 992.7656,22.1563 Q992.4219,22.1563 992.2188,21.9531 Q992.0156,21.7656 991.9063,21.25 Q991.8594,20.8906 991.6719,20.7031 Q991.3438,20.3281 990.7344,20.1094 Q990.125,19.8906 989.5,19.8906 Q988.7344,19.8906 988.0938,20.2188 Q987.4688,20.5469 986.9688,21.2969 Q986.4844,22.0469 986.4844,23.0781 L986.4844,24.1719 Q986.4844,25.4063 987.375,26.2344 Q988.2656,27.0469 989.8594,27.0469 Q990.7969,27.0469 991.4531,26.7969 Q991.8438,26.6406 992.2656,26.2031 Q992.5313,25.9375 992.6719,25.8594 Q992.8281,25.7813 993.0313,25.7813 Q993.3594,25.7813 993.6094,26.0469 Q993.875,26.2969 993.875,26.6406 Q993.875,26.9844 993.5313,27.3906 Q993.0313,27.9688 992.2344,28.2969 Q991.1563,28.75 989.8594,28.75 Q988.3438,28.75 987.1406,28.125 Q986.1563,27.625 985.4688,26.5625 Q984.7813,25.4844 984.7813,24.2031 L984.7813,23.0469 Q984.7813,21.7188 985.3906,20.5781 Q986.0156,19.4219 987.1094,18.8125 Q988.2031,18.1875 989.4375,18.1875 Q990.1719,18.1875 990.8125,18.3594 Q991.4688,18.5156 992.0156,18.875 Z " fill="#000000"/><text fill="#000000" font-family="sans-serif" font-size="14" lengthAdjust="spacing" textLength="79" x="1009.75" y="28.7969">Repositories</text><line style="stroke:#181818;stroke-width:0.5;" x1="936" x2="1130" y1="39" y2="39"/><line style="stroke:#181818;stroke-width:0.5;" x1="936" x2="1130" y1="47" y2="47"/><text fill="#000000" font-family="sans-serif" font-size="14" lengthAdjust="spacing" textLength="94" x="941" y="66.1074">-Repositories()</text><text fill="#000000" font-family="sans-serif" font-size="14" lengthAdjust="spacing" textLength="182" x="941" y="84.7285">+getInstance() : Repositories</text><text fill="#000000" font-family="sans-serif" font-size="14" lengthAdjust="spacing" textLength="131" x="941" y="103.3496">+getSkillRepository()</text><text fill="#000000" font-family="sans-serif" font-size="14" lengthAdjust="spacing" textLength="184" x="941" y="121.9707">+getCollaboratorRepository()</text><text fill="#000000" font-family="sans-serif" font-size="14" lengthAdjust="spacing" textLength="142" x="941" y="140.5918">+getTeamRepository()</text></g><!--class SkillRepository--><g id="elem_SkillRepository"><rect codeLine="32" fill="#F1F1F1" height="66.6211" id="SkillRepository" rx="2.5" ry="2.5" style="stroke:#181818;stroke-width:0.5;" width="125" x="426.5" y="307.5"/><ellipse cx="441.5" cy="323.5" fill="#ADD1B2" rx="11" ry="11" style="stroke:#181818;stroke-width:1.0;"/><path d="M444.2656,319.375 Q444.4219,319.1563 444.6094,319.0469 Q444.7969,318.9375 445.0156,318.9375 Q445.3906,318.9375 445.625,319.2031 Q445.8594,319.4531 445.8594,320.0625 L445.8594,321.5156 Q445.8594,322.125 445.625,322.3906 Q445.3906,322.6563 445.0156,322.6563 Q444.6719,322.6563 444.4688,322.4531 Q444.2656,322.2656 444.1563,321.75 Q444.1094,321.3906 443.9219,321.2031 Q443.5938,320.8281 442.9844,320.6094 Q442.375,320.3906 441.75,320.3906 Q440.9844,320.3906 440.3438,320.7188 Q439.7188,321.0469 439.2188,321.7969 Q438.7344,322.5469 438.7344,323.5781 L438.7344,324.6719 Q438.7344,325.9063 439.625,326.7344 Q440.5156,327.5469 442.1094,327.5469 Q443.0469,327.5469 443.7031,327.2969 Q444.0938,327.1406 444.5156,326.7031 Q444.7813,326.4375 444.9219,326.3594 Q445.0781,326.2813 445.2813,326.2813 Q445.6094,326.2813 445.8594,326.5469 Q446.125,326.7969 446.125,327.1406 Q446.125,327.4844 445.7813,327.8906 Q445.2813,328.4688 444.4844,328.7969 Q443.4063,329.25 442.1094,329.25 Q440.5938,329.25 439.3906,328.625 Q438.4063,328.125 437.7188,327.0625 Q437.0313,325.9844 437.0313,324.7031 L437.0313,323.5469 Q437.0313,322.2188 437.6406,321.0781 Q438.2656,319.9219 439.3594,319.3125 Q440.4531,318.6875 441.6875,318.6875 Q442.4219,318.6875 443.0625,318.8594 Q443.7188,319.0156 444.2656,319.375 Z " fill="#000000"/><text fill="#000000" font-family="sans-serif" font-size="14" lengthAdjust="spacing" textLength="93" x="455.5" y="329.2969">SkillRepository</text><line style="stroke:#181818;stroke-width:0.5;" x1="427.5" x2="550.5" y1="339.5" y2="339.5"/><line style="stroke:#181818;stroke-width:0.5;" x1="427.5" x2="550.5" y1="347.5" y2="347.5"/><text fill="#000000" font-family="sans-serif" font-size="14" lengthAdjust="spacing" textLength="67" x="432.5" y="366.6074">+listSkills()</text></g><!--class CollaboratorRepository--><g id="elem_CollaboratorRepository"><rect codeLine="36" fill="#F1F1F1" height="66.6211" id="CollaboratorRepository" rx="2.5" ry="2.5" style="stroke:#181818;stroke-width:0.5;" width="178" x="718" y="307.5"/><ellipse cx="733" cy="323.5" fill="#ADD1B2" rx="11" ry="11" style="stroke:#181818;stroke-width:1.0;"/><path d="M735.7656,319.375 Q735.9219,319.1563 736.1094,319.0469 Q736.2969,318.9375 736.5156,318.9375 Q736.8906,318.9375 737.125,319.2031 Q737.3594,319.4531 737.3594,320.0625 L737.3594,321.5156 Q737.3594,322.125 737.125,322.3906 Q736.8906,322.6563 736.5156,322.6563 Q736.1719,322.6563 735.9688,322.4531 Q735.7656,322.2656 735.6563,321.75 Q735.6094,321.3906 735.4219,321.2031 Q735.0938,320.8281 734.4844,320.6094 Q733.875,320.3906 733.25,320.3906 Q732.4844,320.3906 731.8438,320.7188 Q731.2188,321.0469 730.7188,321.7969 Q730.2344,322.5469 730.2344,323.5781 L730.2344,324.6719 Q730.2344,325.9063 731.125,326.7344 Q732.0156,327.5469 733.6094,327.5469 Q734.5469,327.5469 735.2031,327.2969 Q735.5938,327.1406 736.0156,326.7031 Q736.2813,326.4375 736.4219,326.3594 Q736.5781,326.2813 736.7813,326.2813 Q737.1094,326.2813 737.3594,326.5469 Q737.625,326.7969 737.625,327.1406 Q737.625,327.4844 737.2813,327.8906 Q736.7813,328.4688 735.9844,328.7969 Q734.9063,329.25 733.6094,329.25 Q732.0938,329.25 730.8906,328.625 Q729.9063,328.125 729.2188,327.0625 Q728.5313,325.9844 728.5313,324.7031 L728.5313,323.5469 Q728.5313,322.2188 729.1406,321.0781 Q729.7656,319.9219 730.8594,319.3125 Q731.9531,318.6875 733.1875,318.6875 Q733.9219,318.6875 734.5625,318.8594 Q735.2188,319.0156 735.7656,319.375 Z " fill="#000000"/><text fill="#000000" font-family="sans-serif" font-size="14" lengthAdjust="spacing" textLength="146" x="747" y="329.2969">CollaboratorRepository</text><line style="stroke:#181818;stroke-width:0.5;" x1="719" x2="895" y1="339.5" y2="339.5"/><line style="stroke:#181818;stroke-width:0.5;" x1="719" x2="895" y1="347.5" y2="347.5"/><text fill="#000000" font-family="sans-serif" font-size="14" lengthAdjust="spacing" textLength="123" x="724" y="366.6074">+getCollaborators()</text></g><!--class TeamRepository--><g id="elem_TeamRepository"><rect codeLine="40" fill="#F1F1F1" height="103.8633" id="TeamRepository" rx="2.5" ry="2.5" style="stroke:#181818;stroke-width:0.5;" width="480" x="931" y="289"/><ellipse cx="1114.75" cy="305" fill="#ADD1B2" rx="11" ry="11" style="stroke:#181818;stroke-width:1.0;"/><path d="M1117.5156,300.875 Q1117.6719,300.6563 1117.8594,300.5469 Q1118.0469,300.4375 1118.2656,300.4375 Q1118.6406,300.4375 1118.875,300.7031 Q1119.1094,300.9531 1119.1094,301.5625 L1119.1094,303.0156 Q1119.1094,303.625 1118.875,303.8906 Q1118.6406,304.1563 1118.2656,304.1563 Q1117.9219,304.1563 1117.7188,303.9531 Q1117.5156,303.7656 1117.4063,303.25 Q1117.3594,302.8906 1117.1719,302.7031 Q1116.8438,302.3281 1116.2344,302.1094 Q1115.625,301.8906 1115,301.8906 Q1114.2344,301.8906 1113.5938,302.2188 Q1112.9688,302.5469 1112.4688,303.2969 Q1111.9844,304.0469 1111.9844,305.0781 L1111.9844,306.1719 Q1111.9844,307.4063 1112.875,308.2344 Q1113.7656,309.0469 1115.3594,309.0469 Q1116.2969,309.0469 1116.9531,308.7969 Q1117.3438,308.6406 1117.7656,308.2031 Q1118.0313,307.9375 1118.1719,307.8594 Q1118.3281,307.7813 1118.5313,307.7813 Q1118.8594,307.7813 1119.1094,308.0469 Q1119.375,308.2969 1119.375,308.6406 Q1119.375,308.9844 1119.0313,309.3906 Q1118.5313,309.9688 1117.7344,310.2969 Q1116.6563,310.75 1115.3594,310.75 Q1113.8438,310.75 1112.6406,310.125 Q1111.6563,309.625 1110.9688,308.5625 Q1110.2813,307.4844 1110.2813,306.2031 L1110.2813,305.0469 Q1110.2813,303.7188 1110.8906,302.5781 Q1111.5156,301.4219 1112.6094,300.8125 Q1113.7031,300.1875 1114.9375,300.1875 Q1115.6719,300.1875 1116.3125,300.3594 Q1116.9688,300.5156 1117.5156,300.875 Z " fill="#000000"/><text fill="#000000" font-family="sans-serif" font-size="14" lengthAdjust="spacing" textLength="104" x="1135.25" y="310.7969">TeamRepository</text><line style="stroke:#181818;stroke-width:0.5;" x1="932" x2="1410" y1="321" y2="321"/><line style="stroke:#181818;stroke-width:0.5;" x1="932" x2="1410" y1="329" y2="329"/><text fill="#000000" font-family="sans-serif" font-size="14" lengthAdjust="spacing" textLength="468" x="937" y="348.1074">+generateTeamProposal(minimumSize, maximumSize, skills, collaborators)</text><text fill="#000000" font-family="sans-serif" font-size="14" lengthAdjust="spacing" textLength="109" x="937" y="366.7285">+addTeam(team)</text><text fill="#000000" font-family="sans-serif" font-size="14" lengthAdjust="spacing" textLength="134" x="937" y="385.3496">+validateTeam(team)</text></g><!--class Team--><g id="elem_Team"><rect codeLine="46" fill="#F1F1F1" height="66.6211" id="Team" rx="2.5" ry="2.5" style="stroke:#181818;stroke-width:0.5;" width="367" x="926.5" y="472"/><ellipse cx="1087.75" cy="488" fill="#ADD1B2" rx="11" ry="11" style="stroke:#181818;stroke-width:1.0;"/><path d="M1090.5156,483.875 Q1090.6719,483.6563 1090.8594,483.5469 Q1091.0469,483.4375 1091.2656,483.4375 Q1091.6406,483.4375 1091.875,483.7031 Q1092.1094,483.9531 1092.1094,484.5625 L1092.1094,486.0156 Q1092.1094,486.625 1091.875,486.8906 Q1091.6406,487.1563 1091.2656,487.1563 Q1090.9219,487.1563 1090.7188,486.9531 Q1090.5156,486.7656 1090.4063,486.25 Q1090.3594,485.8906 1090.1719,485.7031 Q1089.8438,485.3281 1089.2344,485.1094 Q1088.625,484.8906 1088,484.8906 Q1087.2344,484.8906 1086.5938,485.2188 Q1085.9688,485.5469 1085.4688,486.2969 Q1084.9844,487.0469 1084.9844,488.0781 L1084.9844,489.1719 Q1084.9844,490.4063 1085.875,491.2344 Q1086.7656,492.0469 1088.3594,492.0469 Q1089.2969,492.0469 1089.9531,491.7969 Q1090.3438,491.6406 1090.7656,491.2031 Q1091.0313,490.9375 1091.1719,490.8594 Q1091.3281,490.7813 1091.5313,490.7813 Q1091.8594,490.7813 1092.1094,491.0469 Q1092.375,491.2969 1092.375,491.6406 Q1092.375,491.9844 1092.0313,492.3906 Q1091.5313,492.9688 1090.7344,493.2969 Q1089.6563,493.75 1088.3594,493.75 Q1086.8438,493.75 1085.6406,493.125 Q1084.6563,492.625 1083.9688,491.5625 Q1083.2813,490.4844 1083.2813,489.2031 L1083.2813,488.0469 Q1083.2813,486.7188 1083.8906,485.5781 Q1084.5156,484.4219 1085.6094,483.8125 Q1086.7031,483.1875 1087.9375,483.1875 Q1088.6719,483.1875 1089.3125,483.3594 Q1089.9688,483.5156 1090.5156,483.875 Z " fill="#000000"/><text fill="#000000" font-family="sans-serif" font-size="14" lengthAdjust="spacing" textLength="36" x="1108.25" y="493.7969">Team</text><line style="stroke:#181818;stroke-width:0.5;" x1="927.5" x2="1292.5" y1="504" y2="504"/><line style="stroke:#181818;stroke-width:0.5;" x1="927.5" x2="1292.5" y1="512" y2="512"/><text fill="#000000" font-family="sans-serif" font-size="14" lengthAdjust="spacing" textLength="355" x="932.5" y="531.1074">+Team(minimumSize, maximumSize, collaborators, skills)</text></g><!--class Collaborator--><g id="elem_Collaborator"><rect codeLine="50" fill="#F1F1F1" height="308.6953" id="Collaborator" rx="2.5" ry="2.5" style="stroke:#181818;stroke-width:0.5;" width="457" x="578.5" y="618"/><ellipse cx="763.75" cy="634" fill="#ADD1B2" rx="11" ry="11" style="stroke:#181818;stroke-width:1.0;"/><path d="M766.5156,629.875 Q766.6719,629.6563 766.8594,629.5469 Q767.0469,629.4375 767.2656,629.4375 Q767.6406,629.4375 767.875,629.7031 Q768.1094,629.9531 768.1094,630.5625 L768.1094,632.0156 Q768.1094,632.625 767.875,632.8906 Q767.6406,633.1563 767.2656,633.1563 Q766.9219,633.1563 766.7188,632.9531 Q766.5156,632.7656 766.4063,632.25 Q766.3594,631.8906 766.1719,631.7031 Q765.8438,631.3281 765.2344,631.1094 Q764.625,630.8906 764,630.8906 Q763.2344,630.8906 762.5938,631.2188 Q761.9688,631.5469 761.4688,632.2969 Q760.9844,633.0469 760.9844,634.0781 L760.9844,635.1719 Q760.9844,636.4063 761.875,637.2344 Q762.7656,638.0469 764.3594,638.0469 Q765.2969,638.0469 765.9531,637.7969 Q766.3438,637.6406 766.7656,637.2031 Q767.0313,636.9375 767.1719,636.8594 Q767.3281,636.7813 767.5313,636.7813 Q767.8594,636.7813 768.1094,637.0469 Q768.375,637.2969 768.375,637.6406 Q768.375,637.9844 768.0313,638.3906 Q767.5313,638.9688 766.7344,639.2969 Q765.6563,639.75 764.3594,639.75 Q762.8438,639.75 761.6406,639.125 Q760.6563,638.625 759.9688,637.5625 Q759.2813,636.4844 759.2813,635.2031 L759.2813,634.0469 Q759.2813,632.7188 759.8906,631.5781 Q760.5156,630.4219 761.6094,629.8125 Q762.7031,629.1875 763.9375,629.1875 Q764.6719,629.1875 765.3125,629.3594 Q765.9688,629.5156 766.5156,629.875 Z " fill="#000000"/><text fill="#000000" font-family="sans-serif" font-size="14" lengthAdjust="spacing" textLength="78" x="784.25" y="639.7969">Collaborator</text><line style="stroke:#181818;stroke-width:0.5;" x1="579.5" x2="1034.5" y1="650" y2="650"/><text fill="#000000" font-family="sans-serif" font-size="14" lengthAdjust="spacing" textLength="89" x="584.5" y="669.1074">-name : String</text><text fill="#000000" font-family="sans-serif" font-size="14" lengthAdjust="spacing" textLength="103" x="584.5" y="687.7285">-birthdate : Date</text><text fill="#000000" font-family="sans-serif" font-size="14" lengthAdjust="spacing" textLength="140" x="584.5" y="706.3496">-admissionData : Date</text><text fill="#000000" font-family="sans-serif" font-size="14" lengthAdjust="spacing" textLength="105" x="584.5" y="724.9707">-address : String</text><text fill="#000000" font-family="sans-serif" font-size="14" lengthAdjust="spacing" textLength="73" x="584.5" y="743.5918">-mobile : int</text><text fill="#000000" font-family="sans-serif" font-size="14" lengthAdjust="spacing" textLength="87" x="584.5" y="762.2129">-email : String</text><text fill="#000000" font-family="sans-serif" font-size="14" lengthAdjust="spacing" textLength="135" x="584.5" y="780.834">-taxpayerNumber : int</text><text fill="#000000" font-family="sans-serif" font-size="14" lengthAdjust="spacing" textLength="161" x="584.5" y="799.4551">-idDocumentType : String</text><text fill="#000000" font-family="sans-serif" font-size="14" lengthAdjust="spacing" textLength="156" x="584.5" y="818.0762">-idDocumentNumber : int</text><text fill="#000000" font-family="sans-serif" font-size="14" lengthAdjust="spacing" textLength="109" x="584.5" y="836.6973">-jobName : String</text><line style="stroke:#181818;stroke-width:0.5;" x1="579.5" x2="1034.5" y1="844.2109" y2="844.2109"/><text fill="#000000" font-family="sans-serif" font-size="14" lengthAdjust="spacing" textLength="354" x="584.5" y="863.3184">+Collaborator(name, birthdate, admissionData, address,</text><text fill="#000000" font-family="sans-serif" font-size="14" lengthAdjust="spacing" textLength="445" x="584.5" y="881.9395">mobile, email, taxpayerNumber, idDocumentType, idDocumentNumber)</text><text fill="#000000" font-family="sans-serif" font-size="14" lengthAdjust="spacing" textLength="101" x="584.5" y="900.5605">+addTeam(skill)</text><text fill="#000000" font-family="sans-serif" font-size="14" lengthAdjust="spacing" textLength="168" x="584.5" y="919.1816">+analyseCollaborator(skill)</text></g><!--class Skill--><g id="elem_Skill"><rect codeLine="66" fill="#F1F1F1" height="85.2422" id="Skill" rx="2.5" ry="2.5" style="stroke:#181818;stroke-width:0.5;" width="101" x="479.5" y="1006"/><ellipse cx="514.3" cy="1022" fill="#ADD1B2" rx="11" ry="11" style="stroke:#181818;stroke-width:1.0;"/><path d="M517.0656,1017.875 Q517.2219,1017.6563 517.4094,1017.5469 Q517.5969,1017.4375 517.8156,1017.4375 Q518.1906,1017.4375 518.425,1017.7031 Q518.6594,1017.9531 518.6594,1018.5625 L518.6594,1020.0156 Q518.6594,1020.625 518.425,1020.8906 Q518.1906,1021.1563 517.8156,1021.1563 Q517.4719,1021.1563 517.2688,1020.9531 Q517.0656,1020.7656 516.9563,1020.25 Q516.9094,1019.8906 516.7219,1019.7031 Q516.3938,1019.3281 515.7844,1019.1094 Q515.175,1018.8906 514.55,1018.8906 Q513.7844,1018.8906 513.1438,1019.2188 Q512.5188,1019.5469 512.0188,1020.2969 Q511.5344,1021.0469 511.5344,1022.0781 L511.5344,1023.1719 Q511.5344,1024.4063 512.425,1025.2344 Q513.3156,1026.0469 514.9094,1026.0469 Q515.8469,1026.0469 516.5031,1025.7969 Q516.8938,1025.6406 517.3156,1025.2031 Q517.5813,1024.9375 517.7219,1024.8594 Q517.8781,1024.7813 518.0813,1024.7813 Q518.4094,1024.7813 518.6594,1025.0469 Q518.925,1025.2969 518.925,1025.6406 Q518.925,1025.9844 518.5813,1026.3906 Q518.0813,1026.9688 517.2844,1027.2969 Q516.2063,1027.75 514.9094,1027.75 Q513.3938,1027.75 512.1906,1027.125 Q511.2062,1026.625 510.5187,1025.5625 Q509.8312,1024.4844 509.8312,1023.2031 L509.8312,1022.0469 Q509.8312,1020.7188 510.4406,1019.5781 Q511.0656,1018.4219 512.1594,1017.8125 Q513.2531,1017.1875 514.4875,1017.1875 Q515.2219,1017.1875 515.8625,1017.3594 Q516.5188,1017.5156 517.0656,1017.875 Z " fill="#000000"/><text fill="#000000" font-family="sans-serif" font-size="14" lengthAdjust="spacing" textLength="25" x="532.7" y="1027.7969">Skill</text><line style="stroke:#181818;stroke-width:0.5;" x1="480.5" x2="579.5" y1="1038" y2="1038"/><text fill="#000000" font-family="sans-serif" font-size="14" lengthAdjust="spacing" textLength="89" x="485.5" y="1057.1074">-name : String</text><line style="stroke:#181818;stroke-width:0.5;" x1="480.5" x2="579.5" y1="1064.6211" y2="1064.6211"/><text fill="#000000" font-family="sans-serif" font-size="14" lengthAdjust="spacing" textLength="78" x="485.5" y="1083.7285">+Skill(name)</text></g><!--link GenerateTeamProposalUI to GenerateTeamProposalController--><g id="link_GenerateTeamProposalUI_GenerateTeamProposalController"><path codeLine="71" d="M203.38,77.5 C217.64,77.5 224.26,77.5 232.47,77.5 " fill="none" id="GenerateTeamProposalUI-to-GenerateTeamProposalController" style="stroke:#181818;stroke-width:1.0;stroke-dasharray:7.0,7.0;"/><polygon fill="#181818" points="238.47,77.5,229.47,73.5,233.47,77.5,229.47,81.5,238.47,77.5" style="stroke:#181818;stroke-width:1.0;"/></g><!--link GenerateTeamProposalController to Repositories--><g id="link_GenerateTeamProposalController_Repositories"><path codeLine="72" d="M831.52,77.5 C868.55,77.5 898.11,77.5 928.79,77.5 " fill="none" id="GenerateTeamProposalController-to-Repositories" style="stroke:#181818;stroke-width:1.0;stroke-dasharray:7.0,7.0;"/><polygon fill="#181818" points="934.79,77.5,925.79,73.5,929.79,77.5,925.79,81.5,934.79,77.5" style="stroke:#181818;stroke-width:1.0;"/><text fill="#000000" font-family="sans-serif" font-size="13" lengthAdjust="spacing" textLength="67" x="849.75" y="70.5283">repositories</text></g><!--link Repositories to Repositories--><g id="link_Repositories_Repositories"><path codeLine="73" d="M1131.02,59.41 C1151.37,61.31 1166,67.34 1166,77.5 C1166,87.66 1157.344,93.1322 1136.994,95.0322 " fill="none" id="Repositories-to-Repositories" style="stroke:#181818;stroke-width:1.0;"/><polygon fill="#181818" points="1131.02,95.59,1140.3529,98.736,1135.9983,95.1252,1139.6092,90.7707,1131.02,95.59" style="stroke:#181818;stroke-width:1.0;"/><text fill="#000000" font-family="sans-serif" font-size="13" lengthAdjust="spacing" textLength="49" x="1172" y="83.0283">instance</text></g><!--link Repositories to SkillRepository--><g id="link_Repositories_SkillRepository"><path codeLine="75" d="M934.8,115.59 C890.96,132.15 849,148 849,148 C849,148 623,209 623,209 C623,209 566.4505,264.2857 526.7605,303.0857 " fill="none" id="Repositories-to-SkillRepository" style="stroke:#181818;stroke-width:1.0;"/><polygon fill="#181818" points="522.47,307.28,531.7019,303.8489,526.0454,303.7848,526.1095,298.1283,522.47,307.28" style="stroke:#181818;stroke-width:1.0;"/><text fill="#000000" font-family="sans-serif" font-size="13" lengthAdjust="spacing" textLength="7" x="521.183" y="296.324">1</text></g><!--link Repositories to CollaboratorRepository--><g id="link_Repositories_CollaboratorRepository"><path codeLine="76" d="M972.65,148.44 C939.08,187.34 904,228 904,228 C904,228 867.8785,269.715 839.2485,302.765 " fill="none" id="Repositories-to-CollaboratorRepository" style="stroke:#181818;stroke-width:1.0;"/><polygon fill="#181818" points="835.32,307.3,844.2362,303.1165,838.5938,303.5208,838.1894,297.8784,835.32,307.3" style="stroke:#181818;stroke-width:1.0;"/><text fill="#000000" font-family="sans-serif" font-size="13" lengthAdjust="spacing" textLength="7" x="833.0513" y="296.3478">1</text></g><!--link Repositories to TeamRepository--><g id="link_Repositories_TeamRepository"><path codeLine="77" d="M1089.19,148.33 C1114.15,179.36 1138,209 1138,209 C1138,209 1147.414,246.3719 1156.684,283.1619 " fill="none" id="Repositories-to-TeamRepository" style="stroke:#181818;stroke-width:1.0;"/><polygon fill="#181818" points="1158.15,288.98,1159.8298,279.2754,1156.9283,284.1315,1152.0722,281.2301,1158.15,288.98" style="stroke:#181818;stroke-width:1.0;"/><text fill="#000000" font-family="sans-serif" font-size="13" lengthAdjust="spacing" textLength="7" x="1148.953" y="277.9047">1</text></g><!--link GenerateTeamProposalController to SkillRepository--><g id="link_GenerateTeamProposalController_SkillRepository"><path codeLine="79" d="M418.13,148.14 C365.94,179.24 316,209 316,209 C316,209 316,228 316,228 C316,228 382.3928,270.9902 433.4628,304.0402 " fill="none" id="GenerateTeamProposalController-to-SkillRepository" style="stroke:#181818;stroke-width:1.0;stroke-dasharray:7.0,7.0;"/><polygon fill="#181818" points="438.5,307.3,433.1174,299.0521,434.3023,304.5835,428.771,305.7684,438.5,307.3" style="stroke:#181818;stroke-width:1.0;"/><text fill="#000000" font-family="sans-serif" font-size="13" lengthAdjust="spacing" textLength="85" x="317" y="224.0283">skillRepository</text></g><!--link GenerateTeamProposalController to SkillRepository--><g id="link_GenerateTeamProposalController_SkillRepository"><path codeLine="86" d="M501.82,148.33 C487.08,179.36 473,209 473,209 C473,209 473,228 473,228 C473,228 478.7617,268.3103 483.4817,301.3603 " fill="none" id="GenerateTeamProposalController-to-SkillRepository-1" style="stroke:#181818;stroke-width:1.0;stroke-dasharray:7.0,7.0;"/><polygon fill="#181818" points="484.33,307.3,487.0174,297.8249,483.6231,302.3502,479.0978,298.9559,484.33,307.3" style="stroke:#181818;stroke-width:1.0;"/><text fill="#000000" font-family="sans-serif" font-size="13" lengthAdjust="spacing" textLength="30" x="474" y="224.0283">skills</text></g><!--link GenerateTeamProposalController to CollaboratorRepository--><g id="link_GenerateTeamProposalController_CollaboratorRepository"><path codeLine="80" d="M586.93,148.44 C615.81,187.34 646,228 646,228 C646,228 707.5542,270.8241 755.0742,303.8741 " fill="none" id="GenerateTeamProposalController-to-CollaboratorRepository" style="stroke:#181818;stroke-width:1.0;stroke-dasharray:7.0,7.0;"/><polygon fill="#181818" points="760,307.3,754.8952,298.8773,755.8952,304.4451,750.3274,305.4451,760,307.3" style="stroke:#181818;stroke-width:1.0;"/><text fill="#000000" font-family="sans-serif" font-size="13" lengthAdjust="spacing" textLength="129" x="647" y="224.0283">collaboratorRepository</text></g><!--link GenerateTeamProposalController to CollaboratorRepository--><g id="link_GenerateTeamProposalController_CollaboratorRepository"><path codeLine="87" d="M666.28,148.14 C724.9,179.24 781,209 781,209 C781,209 791.6421,262.5948 799.3421,301.3948 " fill="none" id="GenerateTeamProposalController-to-CollaboratorRepository-1" style="stroke:#181818;stroke-width:1.0;stroke-dasharray:7.0,7.0;"/><polygon fill="#181818" points="800.51,307.28,802.6816,297.6735,799.5367,302.3756,794.8346,299.2308,800.51,307.28" style="stroke:#181818;stroke-width:1.0;"/><text fill="#000000" font-family="sans-serif" font-size="13" lengthAdjust="spacing" textLength="74" x="785" y="224.0283">collaborators</text></g><!--link GenerateTeamProposalController to TeamRepository--><g id="link_GenerateTeamProposalController_TeamRepository"><path codeLine="81" d="M712.71,148.14 C792.06,179.24 868,209 868,209 C868,209 962.4029,249.8084 1047.4729,286.5984 " fill="none" id="GenerateTeamProposalController-to-TeamRepository" style="stroke:#181818;stroke-width:1.0;stroke-dasharray:7.0,7.0;"/><polygon fill="#181818" points="1052.98,288.98,1046.3071,281.7362,1048.3908,286.9953,1043.1316,289.0789,1052.98,288.98" style="stroke:#181818;stroke-width:1.0;"/><text fill="#000000" font-family="sans-serif" font-size="13" lengthAdjust="spacing" textLength="91" x="912" y="224.0283">teamRepository</text></g><!--reverse link Team to Collaborator--><g id="link_Team_Collaborator"><path codeLine="83" d="M1063.5069,547.1596 C1039.9169,567.7896 1016.6,588.19 982.59,617.93 " fill="none" id="Team-backto-Collaborator" style="stroke:#181818;stroke-width:1.0;"/><polygon fill="none" points="1072.54,539.26,1065.3903,540.1988,1063.5069,547.1596,1070.6567,546.2208,1072.54,539.26" style="stroke:#181818;stroke-width:1.0;"/><text fill="#000000" font-family="sans-serif" font-size="13" lengthAdjust="spacing" textLength="21" x="1037" y="584.0283">has</text><text fill="#000000" font-family="sans-serif" font-size="13" lengthAdjust="spacing" textLength="5" x="986.515" y="606.5654">*</text></g><!--reverse link Collaborator to Skill--><g id="link_Collaborator_Skill"><path codeLine="84" d="M642.9681,935.7585 C613.7381,964.6685 594.07,984.13 572.2,1005.75 " fill="none" id="Collaborator-backto-Skill" style="stroke:#181818;stroke-width:1.0;"/><polygon fill="none" points="651.5,927.32,644.4213,928.6953,642.9681,935.7585,650.0469,934.3832,651.5,927.32" style="stroke:#181818;stroke-width:1.0;"/><text fill="#000000" font-family="sans-serif" font-size="13" lengthAdjust="spacing" textLength="21" x="620" y="972.0283">has</text><text fill="#000000" font-family="sans-serif" font-size="13" lengthAdjust="spacing" textLength="5" x="573.5272" y="994.6142">*</text></g><!--link SkillRepository to Skill--><g id="link_SkillRepository_Skill"><path codeLine="88" d="M490.9,374.61 C497.59,489.79 519.7615,871.4001 527.2315,999.8001 " fill="none" id="SkillRepository-to-Skill" style="stroke:#181818;stroke-width:1.0;"/><polygon fill="#181818" points="527.58,1005.79,531.0505,996.5729,527.2896,1000.7984,523.064,997.0375,527.58,1005.79" style="stroke:#181818;stroke-width:1.0;"/><text fill="#000000" font-family="sans-serif" font-size="13" lengthAdjust="spacing" textLength="21" x="503" y="584.0283">has</text></g><!--link CollaboratorRepository to Collaborator--><g id="link_CollaboratorRepository_Collaborator"><path codeLine="89" d="M807,374.63 C807,426.17 807,523.63 807,611.99 " fill="none" id="CollaboratorRepository-to-Collaborator" style="stroke:#181818;stroke-width:1.0;"/><polygon fill="#181818" points="807,617.99,811,608.99,807,612.99,803,608.99,807,617.99" style="stroke:#181818;stroke-width:1.0;"/><text fill="#000000" font-family="sans-serif" font-size="13" lengthAdjust="spacing" textLength="21" x="808" y="511.0283">has</text></g><!--link TeamRepository to Team--><g id="link_TeamRepository_Team"><path codeLine="90" d="M1151.7,393.42 C1142.07,419.08 1132.8084,443.7326 1124.3784,466.1926 " fill="none" id="TeamRepository-to-Team" style="stroke:#181818;stroke-width:1.0;"/><polygon fill="#181818" points="1122.27,471.81,1129.1775,464.7896,1124.027,467.1289,1121.6877,461.9784,1122.27,471.81" style="stroke:#181818;stroke-width:1.0;"/><text fill="#000000" font-family="sans-serif" font-size="13" lengthAdjust="spacing" textLength="21" x="1141" y="438.0283">has</text></g><!--SRC=[jLLDRzim3BthLmYvn5cSORlcC61eWI6NObYosowqpJfQzM58obPlw7-VP3ksfTXDK62v12OVgST7aLgQ9oOhq22eK5BbHwq4KgjFI0PF1VaJbBYtDKUgCRSWIpu6c2CKwZUJ9Nq4RiOUpYJQka9QALxx3xASS2fj5Hb5vHoC-MojPjd9uYvNSi_-8Fr0o9BZewLMKStAewK5ytIOaeGqCVGBIjHWyO0WlcfLAGFyJach5UUewLz2tMzz1POu9fn_GsTcLkawfRcpGwPSYD9ZktNnm_UgoywPiNkVmYHdKudsRfHZxBXaaWWccJW9NtHA1JmF7mqp4n8ovrnG53vDubcjo0jvJPJlEoV6ondHry3GT29j0kEua9qqxWRacApeDW0Da7qeu9mCquX38Ahp33oZl7q_0yLxzFHHVT14J_hGaCCev7zrgxNz0iwABl_Gne5IJwG1p1yS77ZcCQDCtsy9RlItTE_6JfQTBMFQ7ZqZvxXtVvqP2i6CSNFdR12x2etkY2YHK1dZFWkJjZEX0CPZd8Nd2chK3oUHkO4Turbnh_AJG6aFVcb4WODt8lIdoXukgbi7CYI-_7GeE0sBJC-5fVI7R8j9smhIY7CQ4KqlgCKte6bFRvJ0QuC1jGuGZi4hVLktYAQa9cnc0xp_T6KJaYlxr2K8LiVMFG-ZVH3uDfiBCEis2OcH3hhuk8Z7VGOrFUOpu72moGq5nZjdIwFduOOSCvjeE_Emt90nMb3Rw2aYf5aNL6qsTF4krCY1Zs18OEg1xTLg4MyNnxnPar0IG-83V1_776UKzR29cYFLFAhHgQlt7m00]--></g></svg>