<?xml version="1.0" encoding="us-ascii" standalone="no"?><svg xmlns="http://www.w3.org/2000/svg" xmlns:xlink="http://www.w3.org/1999/xlink" contentStyleType="text/css" height="1096px" preserveAspectRatio="none" style="width:1242px;height:1096px;background:#FFFFFF;" version="1.1" viewBox="0 0 1242 1096" width="1242px" zoomAndPan="magnify"><defs/><g><!--class GenerateTeamProposalController--><g id="elem_GenerateTeamProposalController"><rect codeLine="11" fill="#F1F1F1" height="141.1055" id="GenerateTeamProposalController" rx="2.5" ry="2.5" style="stroke:#181818;stroke-width:0.5;" width="593" x="238.5" y="7"/><ellipse cx="423.75" cy="23" fill="#ADD1B2" rx="11" ry="11" style="stroke:#181818;stroke-width:1.0;"/><path d="M426.5156,18.875 Q426.6719,18.6563 426.8594,18.5469 Q427.0469,18.4375 427.2656,18.4375 Q427.6406,18.4375 427.875,18.7031 Q428.1094,18.9531 428.1094,19.5625 L428.1094,21.0156 Q428.1094,21.625 427.875,21.8906 Q427.6406,22.1563 427.2656,22.1563 Q426.9219,22.1563 426.7188,21.9531 Q426.5156,21.7656 426.4063,21.25 Q426.3594,20.8906 426.1719,20.7031 Q425.8438,20.3281 425.2344,20.1094 Q424.625,19.8906 424,19.8906 Q423.2344,19.8906 422.5938,20.2188 Q421.9688,20.5469 421.4688,21.2969 Q420.9844,22.0469 420.9844,23.0781 L420.9844,24.1719 Q420.9844,25.4063 421.875,26.2344 Q422.7656,27.0469 424.3594,27.0469 Q425.2969,27.0469 425.9531,26.7969 Q426.3438,26.6406 426.7656,26.2031 Q427.0313,25.9375 427.1719,25.8594 Q427.3281,25.7813 427.5313,25.7813 Q427.8594,25.7813 428.1094,26.0469 Q428.375,26.2969 428.375,26.6406 Q428.375,26.9844 428.0313,27.3906 Q427.5313,27.9688 426.7344,28.2969 Q425.6563,28.75 424.3594,28.75 Q422.8438,28.75 421.6406,28.125 Q420.6563,27.625 419.9688,26.5625 Q419.2813,25.4844 419.2813,24.2031 L419.2813,23.0469 Q419.2813,21.7188 419.8906,20.5781 Q420.5156,19.4219 421.6094,18.8125 Q422.7031,18.1875 423.9375,18.1875 Q424.6719,18.1875 425.3125,18.3594 Q425.9688,18.5156 426.5156,18.875 Z " fill="#000000"/><text fill="#000000" font-family="sans-serif" font-size="14" lengthAdjust="spacing" textLength="214" x="444.25" y="28.7969">GenerateTeamProposalController</text><line style="stroke:#181818;stroke-width:0.5;" x1="239.5" x2="830.5" y1="39" y2="39"/><line style="stroke:#181818;stroke-width:0.5;" x1="239.5" x2="830.5" y1="47" y2="47"/><text fill="#000000" font-family="sans-serif" font-size="14" lengthAdjust="spacing" textLength="581" x="244.5" y="66.1074">+GenerateTeamProposalController(skillRepository, collaboratorRepository, teamRepository)</text><text fill="#000000" font-family="sans-serif" font-size="14" lengthAdjust="spacing" textLength="67" x="244.5" y="84.7285">+listSkills()</text><text fill="#000000" font-family="sans-serif" font-size="14" lengthAdjust="spacing" textLength="123" x="244.5" y="103.3496">+getCollaborators()</text><text fill="#000000" font-family="sans-serif" font-size="14" lengthAdjust="spacing" textLength="468" x="244.5" y="121.9707">+generateTeamProposal(minimumSize, maximumSize, skills, collaborators)</text><text fill="#000000" font-family="sans-serif" font-size="14" lengthAdjust="spacing" textLength="152" x="244.5" y="140.5918">+createTeam(members)</text></g><!--class GenerateTeamProposalUI--><g id="elem_GenerateTeamProposalUI"><rect codeLine="20" fill="#F1F1F1" height="48" id="GenerateTeamProposalUI" rx="2.5" ry="2.5" style="stroke:#181818;stroke-width:0.5;" width="196" x="7" y="53.5"/><ellipse cx="22" cy="69.5" fill="#ADD1B2" rx="11" ry="11" style="stroke:#181818;stroke-width:1.0;"/><path d="M24.7656,65.375 Q24.9219,65.1563 25.1094,65.0469 Q25.2969,64.9375 25.5156,64.9375 Q25.8906,64.9375 26.125,65.2031 Q26.3594,65.4531 26.3594,66.0625 L26.3594,67.5156 Q26.3594,68.125 26.125,68.3906 Q25.8906,68.6563 25.5156,68.6563 Q25.1719,68.6563 24.9688,68.4531 Q24.7656,68.2656 24.6563,67.75 Q24.6094,67.3906 24.4219,67.2031 Q24.0938,66.8281 23.4844,66.6094 Q22.875,66.3906 22.25,66.3906 Q21.4844,66.3906 20.8438,66.7188 Q20.2188,67.0469 19.7188,67.7969 Q19.2344,68.5469 19.2344,69.5781 L19.2344,70.6719 Q19.2344,71.9063 20.125,72.7344 Q21.0156,73.5469 22.6094,73.5469 Q23.5469,73.5469 24.2031,73.2969 Q24.5938,73.1406 25.0156,72.7031 Q25.2813,72.4375 25.4219,72.3594 Q25.5781,72.2813 25.7813,72.2813 Q26.1094,72.2813 26.3594,72.5469 Q26.625,72.7969 26.625,73.1406 Q26.625,73.4844 26.2813,73.8906 Q25.7813,74.4688 24.9844,74.7969 Q23.9063,75.25 22.6094,75.25 Q21.0938,75.25 19.8906,74.625 Q18.9063,74.125 18.2188,73.0625 Q17.5313,71.9844 17.5313,70.7031 L17.5313,69.5469 Q17.5313,68.2188 18.1406,67.0781 Q18.7656,65.9219 19.8594,65.3125 Q20.9531,64.6875 22.1875,64.6875 Q22.9219,64.6875 23.5625,64.8594 Q24.2188,65.0156 24.7656,65.375 Z " fill="#000000"/><text fill="#000000" font-family="sans-serif" font-size="14" lengthAdjust="spacing" textLength="164" x="36" y="75.2969">GenerateTeamProposalUI</text><line style="stroke:#181818;stroke-width:0.5;" x1="8" x2="202" y1="85.5" y2="85.5"/><line style="stroke:#181818;stroke-width:0.5;" x1="8" x2="202" y1="93.5" y2="93.5"/></g><!--class Repositories--><g id="elem_Repositories"><rect codeLine="23" fill="#F1F1F1" height="141.1055" id="Repositories" rx="2.5" ry="2.5" style="stroke:#181818;stroke-width:0.5;" width="196" x="943" y="7"/><ellipse cx="997.25" cy="23" fill="#ADD1B2" rx="11" ry="11" style="stroke:#181818;stroke-width:1.0;"/><path d="M1000.0156,18.875 Q1000.1719,18.6563 1000.3594,18.5469 Q1000.5469,18.4375 1000.7656,18.4375 Q1001.1406,18.4375 1001.375,18.7031 Q1001.6094,18.9531 1001.6094,19.5625 L1001.6094,21.0156 Q1001.6094,21.625 1001.375,21.8906 Q1001.1406,22.1563 1000.7656,22.1563 Q1000.4219,22.1563 1000.2188,21.9531 Q1000.0156,21.7656 999.9063,21.25 Q999.8594,20.8906 999.6719,20.7031 Q999.3438,20.3281 998.7344,20.1094 Q998.125,19.8906 997.5,19.8906 Q996.7344,19.8906 996.0938,20.2188 Q995.4688,20.5469 994.9688,21.2969 Q994.4844,22.0469 994.4844,23.0781 L994.4844,24.1719 Q994.4844,25.4063 995.375,26.2344 Q996.2656,27.0469 997.8594,27.0469 Q998.7969,27.0469 999.4531,26.7969 Q999.8438,26.6406 1000.2656,26.2031 Q1000.5313,25.9375 1000.6719,25.8594 Q1000.8281,25.7813 1001.0313,25.7813 Q1001.3594,25.7813 1001.6094,26.0469 Q1001.875,26.2969 1001.875,26.6406 Q1001.875,26.9844 1001.5313,27.3906 Q1001.0313,27.9688 1000.2344,28.2969 Q999.1563,28.75 997.8594,28.75 Q996.3438,28.75 995.1406,28.125 Q994.1563,27.625 993.4688,26.5625 Q992.7813,25.4844 992.7813,24.2031 L992.7813,23.0469 Q992.7813,21.7188 993.3906,20.5781 Q994.0156,19.4219 995.1094,18.8125 Q996.2031,18.1875 997.4375,18.1875 Q998.1719,18.1875 998.8125,18.3594 Q999.4688,18.5156 1000.0156,18.875 Z " fill="#000000"/><text fill="#000000" font-family="sans-serif" font-size="14" lengthAdjust="spacing" textLength="79" x="1017.75" y="28.7969">Repositories</text><line style="stroke:#181818;stroke-width:0.5;" x1="944" x2="1138" y1="39" y2="39"/><line style="stroke:#181818;stroke-width:0.5;" x1="944" x2="1138" y1="47" y2="47"/><text fill="#000000" font-family="sans-serif" font-size="14" lengthAdjust="spacing" textLength="94" x="949" y="66.1074">-Repositories()</text><text fill="#000000" font-family="sans-serif" font-size="14" lengthAdjust="spacing" textLength="182" x="949" y="84.7285">+getInstance() : Repositories</text><text fill="#000000" font-family="sans-serif" font-size="14" lengthAdjust="spacing" textLength="131" x="949" y="103.3496">+getSkillRepository()</text><text fill="#000000" font-family="sans-serif" font-size="14" lengthAdjust="spacing" textLength="184" x="949" y="121.9707">+getCollaboratorRepository()</text><text fill="#000000" font-family="sans-serif" font-size="14" lengthAdjust="spacing" textLength="142" x="949" y="140.5918">+getTeamRepository()</text></g><!--class SkillRepository--><g id="elem_SkillRepository"><rect codeLine="32" fill="#F1F1F1" height="66.6211" id="SkillRepository" rx="2.5" ry="2.5" style="stroke:#181818;stroke-width:0.5;" width="125" x="846.5" y="334.5"/><ellipse cx="861.5" cy="350.5" fill="#ADD1B2" rx="11" ry="11" style="stroke:#181818;stroke-width:1.0;"/><path d="M864.2656,346.375 Q864.4219,346.1563 864.6094,346.0469 Q864.7969,345.9375 865.0156,345.9375 Q865.3906,345.9375 865.625,346.2031 Q865.8594,346.4531 865.8594,347.0625 L865.8594,348.5156 Q865.8594,349.125 865.625,349.3906 Q865.3906,349.6563 865.0156,349.6563 Q864.6719,349.6563 864.4688,349.4531 Q864.2656,349.2656 864.1563,348.75 Q864.1094,348.3906 863.9219,348.2031 Q863.5938,347.8281 862.9844,347.6094 Q862.375,347.3906 861.75,347.3906 Q860.9844,347.3906 860.3438,347.7188 Q859.7188,348.0469 859.2188,348.7969 Q858.7344,349.5469 858.7344,350.5781 L858.7344,351.6719 Q858.7344,352.9063 859.625,353.7344 Q860.5156,354.5469 862.1094,354.5469 Q863.0469,354.5469 863.7031,354.2969 Q864.0938,354.1406 864.5156,353.7031 Q864.7813,353.4375 864.9219,353.3594 Q865.0781,353.2813 865.2813,353.2813 Q865.6094,353.2813 865.8594,353.5469 Q866.125,353.7969 866.125,354.1406 Q866.125,354.4844 865.7813,354.8906 Q865.2813,355.4688 864.4844,355.7969 Q863.4063,356.25 862.1094,356.25 Q860.5938,356.25 859.3906,355.625 Q858.4063,355.125 857.7188,354.0625 Q857.0313,352.9844 857.0313,351.7031 L857.0313,350.5469 Q857.0313,349.2188 857.6406,348.0781 Q858.2656,346.9219 859.3594,346.3125 Q860.4531,345.6875 861.6875,345.6875 Q862.4219,345.6875 863.0625,345.8594 Q863.7188,346.0156 864.2656,346.375 Z " fill="#000000"/><text fill="#000000" font-family="sans-serif" font-size="14" lengthAdjust="spacing" textLength="93" x="875.5" y="356.2969">SkillRepository</text><line style="stroke:#181818;stroke-width:0.5;" x1="847.5" x2="970.5" y1="366.5" y2="366.5"/><line style="stroke:#181818;stroke-width:0.5;" x1="847.5" x2="970.5" y1="374.5" y2="374.5"/><text fill="#000000" font-family="sans-serif" font-size="14" lengthAdjust="spacing" textLength="67" x="852.5" y="393.6074">+listSkills()</text></g><!--class CollaboratorRepository--><g id="elem_CollaboratorRepository"><rect codeLine="36" fill="#F1F1F1" height="66.6211" id="CollaboratorRepository" rx="2.5" ry="2.5" style="stroke:#181818;stroke-width:0.5;" width="178" x="612" y="334.5"/><ellipse cx="627" cy="350.5" fill="#ADD1B2" rx="11" ry="11" style="stroke:#181818;stroke-width:1.0;"/><path d="M629.7656,346.375 Q629.9219,346.1563 630.1094,346.0469 Q630.2969,345.9375 630.5156,345.9375 Q630.8906,345.9375 631.125,346.2031 Q631.3594,346.4531 631.3594,347.0625 L631.3594,348.5156 Q631.3594,349.125 631.125,349.3906 Q630.8906,349.6563 630.5156,349.6563 Q630.1719,349.6563 629.9688,349.4531 Q629.7656,349.2656 629.6563,348.75 Q629.6094,348.3906 629.4219,348.2031 Q629.0938,347.8281 628.4844,347.6094 Q627.875,347.3906 627.25,347.3906 Q626.4844,347.3906 625.8438,347.7188 Q625.2188,348.0469 624.7188,348.7969 Q624.2344,349.5469 624.2344,350.5781 L624.2344,351.6719 Q624.2344,352.9063 625.125,353.7344 Q626.0156,354.5469 627.6094,354.5469 Q628.5469,354.5469 629.2031,354.2969 Q629.5938,354.1406 630.0156,353.7031 Q630.2813,353.4375 630.4219,353.3594 Q630.5781,353.2813 630.7813,353.2813 Q631.1094,353.2813 631.3594,353.5469 Q631.625,353.7969 631.625,354.1406 Q631.625,354.4844 631.2813,354.8906 Q630.7813,355.4688 629.9844,355.7969 Q628.9063,356.25 627.6094,356.25 Q626.0938,356.25 624.8906,355.625 Q623.9063,355.125 623.2188,354.0625 Q622.5313,352.9844 622.5313,351.7031 L622.5313,350.5469 Q622.5313,349.2188 623.1406,348.0781 Q623.7656,346.9219 624.8594,346.3125 Q625.9531,345.6875 627.1875,345.6875 Q627.9219,345.6875 628.5625,345.8594 Q629.2188,346.0156 629.7656,346.375 Z " fill="#000000"/><text fill="#000000" font-family="sans-serif" font-size="14" lengthAdjust="spacing" textLength="146" x="641" y="356.2969">CollaboratorRepository</text><line style="stroke:#181818;stroke-width:0.5;" x1="613" x2="789" y1="366.5" y2="366.5"/><line style="stroke:#181818;stroke-width:0.5;" x1="613" x2="789" y1="374.5" y2="374.5"/><text fill="#000000" font-family="sans-serif" font-size="14" lengthAdjust="spacing" textLength="123" x="618" y="393.6074">+getCollaborators()</text></g><!--class TeamRepository--><g id="elem_TeamRepository"><rect codeLine="40" fill="#F1F1F1" height="122.4844" id="TeamRepository" rx="2.5" ry="2.5" style="stroke:#181818;stroke-width:0.5;" width="480" x="97" y="307"/><ellipse cx="280.75" cy="323" fill="#ADD1B2" rx="11" ry="11" style="stroke:#181818;stroke-width:1.0;"/><path d="M283.5156,318.875 Q283.6719,318.6563 283.8594,318.5469 Q284.0469,318.4375 284.2656,318.4375 Q284.6406,318.4375 284.875,318.7031 Q285.1094,318.9531 285.1094,319.5625 L285.1094,321.0156 Q285.1094,321.625 284.875,321.8906 Q284.6406,322.1563 284.2656,322.1563 Q283.9219,322.1563 283.7188,321.9531 Q283.5156,321.7656 283.4063,321.25 Q283.3594,320.8906 283.1719,320.7031 Q282.8438,320.3281 282.2344,320.1094 Q281.625,319.8906 281,319.8906 Q280.2344,319.8906 279.5938,320.2188 Q278.9688,320.5469 278.4688,321.2969 Q277.9844,322.0469 277.9844,323.0781 L277.9844,324.1719 Q277.9844,325.4063 278.875,326.2344 Q279.7656,327.0469 281.3594,327.0469 Q282.2969,327.0469 282.9531,326.7969 Q283.3438,326.6406 283.7656,326.2031 Q284.0313,325.9375 284.1719,325.8594 Q284.3281,325.7813 284.5313,325.7813 Q284.8594,325.7813 285.1094,326.0469 Q285.375,326.2969 285.375,326.6406 Q285.375,326.9844 285.0313,327.3906 Q284.5313,327.9688 283.7344,328.2969 Q282.6563,328.75 281.3594,328.75 Q279.8438,328.75 278.6406,328.125 Q277.6563,327.625 276.9688,326.5625 Q276.2813,325.4844 276.2813,324.2031 L276.2813,323.0469 Q276.2813,321.7188 276.8906,320.5781 Q277.5156,319.4219 278.6094,318.8125 Q279.7031,318.1875 280.9375,318.1875 Q281.6719,318.1875 282.3125,318.3594 Q282.9688,318.5156 283.5156,318.875 Z " fill="#000000"/><text fill="#000000" font-family="sans-serif" font-size="14" lengthAdjust="spacing" textLength="104" x="301.25" y="328.7969">TeamRepository</text><line style="stroke:#181818;stroke-width:0.5;" x1="98" x2="576" y1="339" y2="339"/><line style="stroke:#181818;stroke-width:0.5;" x1="98" x2="576" y1="347" y2="347"/><text fill="#000000" font-family="sans-serif" font-size="14" lengthAdjust="spacing" textLength="468" x="103" y="366.1074">+generateTeamProposal(minimumSize, maximumSize, skills, collaborators)</text><text fill="#000000" font-family="sans-serif" font-size="14" lengthAdjust="spacing" textLength="152" x="103" y="384.7285">+createTeam(members)</text><text fill="#000000" font-family="sans-serif" font-size="14" lengthAdjust="spacing" textLength="134" x="103" y="403.3496">+validateTeam(team)</text><text fill="#000000" font-family="sans-serif" font-size="14" lengthAdjust="spacing" textLength="109" x="103" y="421.9707">+addTeam(team)</text></g><!--class Team--><g id="elem_Team"><rect codeLine="47" fill="#F1F1F1" height="66.6211" id="Team" rx="2.5" ry="2.5" style="stroke:#181818;stroke-width:0.5;" width="124" x="275" y="508"/><ellipse cx="315.2" cy="524" fill="#ADD1B2" rx="11" ry="11" style="stroke:#181818;stroke-width:1.0;"/><path d="M317.9656,519.875 Q318.1219,519.6563 318.3094,519.5469 Q318.4969,519.4375 318.7156,519.4375 Q319.0906,519.4375 319.325,519.7031 Q319.5594,519.9531 319.5594,520.5625 L319.5594,522.0156 Q319.5594,522.625 319.325,522.8906 Q319.0906,523.1563 318.7156,523.1563 Q318.3719,523.1563 318.1688,522.9531 Q317.9656,522.7656 317.8563,522.25 Q317.8094,521.8906 317.6219,521.7031 Q317.2938,521.3281 316.6844,521.1094 Q316.075,520.8906 315.45,520.8906 Q314.6844,520.8906 314.0438,521.2188 Q313.4188,521.5469 312.9188,522.2969 Q312.4344,523.0469 312.4344,524.0781 L312.4344,525.1719 Q312.4344,526.4063 313.325,527.2344 Q314.2156,528.0469 315.8094,528.0469 Q316.7469,528.0469 317.4031,527.7969 Q317.7938,527.6406 318.2156,527.2031 Q318.4813,526.9375 318.6219,526.8594 Q318.7781,526.7813 318.9813,526.7813 Q319.3094,526.7813 319.5594,527.0469 Q319.825,527.2969 319.825,527.6406 Q319.825,527.9844 319.4813,528.3906 Q318.9813,528.9688 318.1844,529.2969 Q317.1063,529.75 315.8094,529.75 Q314.2938,529.75 313.0906,529.125 Q312.1063,528.625 311.4188,527.5625 Q310.7313,526.4844 310.7313,525.2031 L310.7313,524.0469 Q310.7313,522.7188 311.3406,521.5781 Q311.9656,520.4219 313.0594,519.8125 Q314.1531,519.1875 315.3875,519.1875 Q316.1219,519.1875 316.7625,519.3594 Q317.4188,519.5156 317.9656,519.875 Z " fill="#000000"/><text fill="#000000" font-family="sans-serif" font-size="14" lengthAdjust="spacing" textLength="36" x="334.8" y="529.7969">Team</text><line style="stroke:#181818;stroke-width:0.5;" x1="276" x2="398" y1="540" y2="540"/><line style="stroke:#181818;stroke-width:0.5;" x1="276" x2="398" y1="548" y2="548"/><text fill="#000000" font-family="sans-serif" font-size="14" lengthAdjust="spacing" textLength="112" x="281" y="567.1074">+Team(members)</text></g><!--class Collaborator--><g id="elem_Collaborator"><rect codeLine="51" fill="#F1F1F1" height="271.4531" id="Collaborator" rx="2.5" ry="2.5" style="stroke:#181818;stroke-width:0.5;" width="435" x="420.5" y="654"/><ellipse cx="594.75" cy="670" fill="#ADD1B2" rx="11" ry="11" style="stroke:#181818;stroke-width:1.0;"/><path d="M597.5156,665.875 Q597.6719,665.6563 597.8594,665.5469 Q598.0469,665.4375 598.2656,665.4375 Q598.6406,665.4375 598.875,665.7031 Q599.1094,665.9531 599.1094,666.5625 L599.1094,668.0156 Q599.1094,668.625 598.875,668.8906 Q598.6406,669.1563 598.2656,669.1563 Q597.9219,669.1563 597.7188,668.9531 Q597.5156,668.7656 597.4063,668.25 Q597.3594,667.8906 597.1719,667.7031 Q596.8438,667.3281 596.2344,667.1094 Q595.625,666.8906 595,666.8906 Q594.2344,666.8906 593.5938,667.2188 Q592.9688,667.5469 592.4688,668.2969 Q591.9844,669.0469 591.9844,670.0781 L591.9844,671.1719 Q591.9844,672.4063 592.875,673.2344 Q593.7656,674.0469 595.3594,674.0469 Q596.2969,674.0469 596.9531,673.7969 Q597.3438,673.6406 597.7656,673.2031 Q598.0313,672.9375 598.1719,672.8594 Q598.3281,672.7813 598.5313,672.7813 Q598.8594,672.7813 599.1094,673.0469 Q599.375,673.2969 599.375,673.6406 Q599.375,673.9844 599.0313,674.3906 Q598.5313,674.9688 597.7344,675.2969 Q596.6563,675.75 595.3594,675.75 Q593.8438,675.75 592.6406,675.125 Q591.6563,674.625 590.9688,673.5625 Q590.2813,672.4844 590.2813,671.2031 L590.2813,670.0469 Q590.2813,668.7188 590.8906,667.5781 Q591.5156,666.4219 592.6094,665.8125 Q593.7031,665.1875 594.9375,665.1875 Q595.6719,665.1875 596.3125,665.3594 Q596.9688,665.5156 597.5156,665.875 Z " fill="#000000"/><text fill="#000000" font-family="sans-serif" font-size="14" lengthAdjust="spacing" textLength="78" x="615.25" y="675.7969">Collaborator</text><line style="stroke:#181818;stroke-width:0.5;" x1="421.5" x2="854.5" y1="686" y2="686"/><text fill="#000000" font-family="sans-serif" font-size="14" lengthAdjust="spacing" textLength="89" x="426.5" y="705.1074">-name : String</text><text fill="#000000" font-family="sans-serif" font-size="14" lengthAdjust="spacing" textLength="110" x="426.5" y="723.7285">-birthdate : String</text><text fill="#000000" font-family="sans-serif" font-size="14" lengthAdjust="spacing" textLength="147" x="426.5" y="742.3496">-admissionData : String</text><text fill="#000000" font-family="sans-serif" font-size="14" lengthAdjust="spacing" textLength="105" x="426.5" y="760.9707">-address : String</text><text fill="#000000" font-family="sans-serif" font-size="14" lengthAdjust="spacing" textLength="122" x="426.5" y="779.5918">-mobileNumber : int</text><text fill="#000000" font-family="sans-serif" font-size="14" lengthAdjust="spacing" textLength="87" x="426.5" y="798.2129">-email : String</text><text fill="#000000" font-family="sans-serif" font-size="14" lengthAdjust="spacing" textLength="161" x="426.5" y="816.834">-idDocumentType : String</text><text fill="#000000" font-family="sans-serif" font-size="14" lengthAdjust="spacing" textLength="156" x="426.5" y="835.4551">-idDocumentNumber : int</text><line style="stroke:#181818;stroke-width:0.5;" x1="421.5" x2="854.5" y1="842.9688" y2="842.9688"/><text fill="#000000" font-family="sans-serif" font-size="14" lengthAdjust="spacing" textLength="354" x="426.5" y="862.0762">+Collaborator(name, birthdate, admissionData, address,</text><text fill="#000000" font-family="sans-serif" font-size="14" lengthAdjust="spacing" textLength="383" x="426.5" y="880.6973">mobileNumber, email, idDocumentType, idDocumentNumber)</text><text fill="#000000" font-family="sans-serif" font-size="14" lengthAdjust="spacing" textLength="423" x="426.5" y="899.3184">+chooseMembers(minimumSize, maximumSize, collaborators, skills)</text><text fill="#000000" font-family="sans-serif" font-size="14" lengthAdjust="spacing" textLength="175" x="426.5" y="917.9395">+analyseCollaborator(skills)</text></g><!--class Skill--><g id="elem_Skill"><rect codeLine="65" fill="#F1F1F1" height="85.2422" id="Skill" rx="2.5" ry="2.5" style="stroke:#181818;stroke-width:0.5;" width="101" x="723.5" y="1004"/><ellipse cx="758.3" cy="1020" fill="#ADD1B2" rx="11" ry="11" style="stroke:#181818;stroke-width:1.0;"/><path d="M761.0656,1015.875 Q761.2219,1015.6563 761.4094,1015.5469 Q761.5969,1015.4375 761.8156,1015.4375 Q762.1906,1015.4375 762.425,1015.7031 Q762.6594,1015.9531 762.6594,1016.5625 L762.6594,1018.0156 Q762.6594,1018.625 762.425,1018.8906 Q762.1906,1019.1563 761.8156,1019.1563 Q761.4719,1019.1563 761.2688,1018.9531 Q761.0656,1018.7656 760.9563,1018.25 Q760.9094,1017.8906 760.7219,1017.7031 Q760.3938,1017.3281 759.7844,1017.1094 Q759.175,1016.8906 758.55,1016.8906 Q757.7844,1016.8906 757.1438,1017.2188 Q756.5188,1017.5469 756.0188,1018.2969 Q755.5344,1019.0469 755.5344,1020.0781 L755.5344,1021.1719 Q755.5344,1022.4063 756.425,1023.2344 Q757.3156,1024.0469 758.9094,1024.0469 Q759.8469,1024.0469 760.5031,1023.7969 Q760.8938,1023.6406 761.3156,1023.2031 Q761.5813,1022.9375 761.7219,1022.8594 Q761.8781,1022.7813 762.0813,1022.7813 Q762.4094,1022.7813 762.6594,1023.0469 Q762.925,1023.2969 762.925,1023.6406 Q762.925,1023.9844 762.5813,1024.3906 Q762.0813,1024.9688 761.2844,1025.2969 Q760.2063,1025.75 758.9094,1025.75 Q757.3938,1025.75 756.1906,1025.125 Q755.2063,1024.625 754.5188,1023.5625 Q753.8313,1022.4844 753.8313,1021.2031 L753.8313,1020.0469 Q753.8313,1018.7188 754.4406,1017.5781 Q755.0656,1016.4219 756.1594,1015.8125 Q757.2531,1015.1875 758.4875,1015.1875 Q759.2219,1015.1875 759.8625,1015.3594 Q760.5188,1015.5156 761.0656,1015.875 Z " fill="#000000"/><text fill="#000000" font-family="sans-serif" font-size="14" lengthAdjust="spacing" textLength="25" x="776.7" y="1025.7969">Skill</text><line style="stroke:#181818;stroke-width:0.5;" x1="724.5" x2="823.5" y1="1036" y2="1036"/><text fill="#000000" font-family="sans-serif" font-size="14" lengthAdjust="spacing" textLength="89" x="729.5" y="1055.1074">-name : String</text><line style="stroke:#181818;stroke-width:0.5;" x1="724.5" x2="823.5" y1="1062.6211" y2="1062.6211"/><text fill="#000000" font-family="sans-serif" font-size="14" lengthAdjust="spacing" textLength="78" x="729.5" y="1081.7285">+Skill(name)</text></g><!--link GenerateTeamProposalUI to GenerateTeamProposalController--><g id="link_GenerateTeamProposalUI_GenerateTeamProposalController"><path codeLine="70" d="M203.38,77.5 C217.64,77.5 224.26,77.5 232.47,77.5 " fill="none" id="GenerateTeamProposalUI-to-GenerateTeamProposalController" style="stroke:#181818;stroke-width:1.0;stroke-dasharray:7.0,7.0;"/><polygon fill="#181818" points="238.47,77.5,229.47,73.5,233.47,77.5,229.47,81.5,238.47,77.5" style="stroke:#181818;stroke-width:1.0;"/></g><!--link GenerateTeamProposalController to Repositories--><g id="link_GenerateTeamProposalController_Repositories"><path codeLine="71" d="M831.54,77.5 C871.55,77.5 904.06,77.5 936.91,77.5 " fill="none" id="GenerateTeamProposalController-to-Repositories" style="stroke:#181818;stroke-width:1.0;stroke-dasharray:7.0,7.0;"/><polygon fill="#181818" points="942.91,77.5,933.91,73.5,937.91,77.5,933.91,81.5,942.91,77.5" style="stroke:#181818;stroke-width:1.0;"/><text fill="#000000" font-family="sans-serif" font-size="13" lengthAdjust="spacing" textLength="67" x="853.75" y="70.5283">repositories</text></g><!--link Repositories to Repositories--><g id="link_Repositories_Repositories"><path codeLine="72" d="M1139.02,59.41 C1159.37,61.31 1174,67.34 1174,77.5 C1174,87.66 1165.344,93.1322 1144.994,95.0322 " fill="none" id="Repositories-to-Repositories" style="stroke:#181818;stroke-width:1.0;"/><polygon fill="#181818" points="1139.02,95.59,1148.3529,98.736,1143.9983,95.1252,1147.6092,90.7707,1139.02,95.59" style="stroke:#181818;stroke-width:1.0;"/><text fill="#000000" font-family="sans-serif" font-size="13" lengthAdjust="spacing" textLength="49" x="1180" y="83.0283">instance</text></g><!--link Repositories to SkillRepository--><g id="link_Repositories_SkillRepository"><path codeLine="74" d="M1064.8,148.15 C1070.51,164.87 1075,178 1075,178 C1075,178 1075,277 1075,277 C1075,277 1022.1347,305.6604 974.6747,331.3904 " fill="none" id="Repositories-to-SkillRepository" style="stroke:#181818;stroke-width:1.0;"/><polygon fill="#181818" points="969.4,334.25,979.2185,333.477,973.7956,331.867,975.4056,326.4441,969.4,334.25" style="stroke:#181818;stroke-width:1.0;"/><text fill="#000000" font-family="sans-serif" font-size="13" lengthAdjust="spacing" textLength="7" x="973.2466" y="323.2883">1</text></g><!--link Repositories to CollaboratorRepository--><g id="link_Repositories_CollaboratorRepository"><path codeLine="75" d="M1023.69,148.44 C1014.06,187.34 1004,228 1004,228 C1004,228 829,307 829,307 C829,307 806.0722,317.7422 776.0522,331.8222 " fill="none" id="Repositories-to-CollaboratorRepository" style="stroke:#181818;stroke-width:1.0;"/><polygon fill="#181818" points="770.62,334.37,780.4668,334.1697,775.1468,332.2468,777.0697,326.9268,770.62,334.37" style="stroke:#181818;stroke-width:1.0;"/><text fill="#000000" font-family="sans-serif" font-size="13" lengthAdjust="spacing" textLength="7" x="776.6374" y="323.1699">1</text></g><!--link Repositories to TeamRepository--><g id="link_Repositories_TeamRepository"><path codeLine="76" d="M942.88,121.14 C841.21,165.33 697,228 697,228 C697,228 595.5073,267.1889 498.1473,304.7789 " fill="none" id="Repositories-to-TeamRepository" style="stroke:#181818;stroke-width:1.0;"/><polygon fill="#181818" points="492.55,306.94,502.3867,307.4299,497.2144,305.1391,499.5052,299.9669,492.55,306.94" style="stroke:#181818;stroke-width:1.0;"/><text fill="#000000" font-family="sans-serif" font-size="13" lengthAdjust="spacing" textLength="7" x="503.1308" y="295.9143">1</text></g><!--link GenerateTeamProposalController to SkillRepository--><g id="link_GenerateTeamProposalController_SkillRepository"><path codeLine="78" d="M743.19,148.01 C793.46,164.8 833,178 833,178 C833,178 847,209 847,209 C847,209 875.7983,282.3946 893.9583,328.6746 " fill="none" id="GenerateTeamProposalController-to-SkillRepository" style="stroke:#181818;stroke-width:1.0;stroke-dasharray:7.0,7.0;"/><polygon fill="#181818" points="896.15,334.26,896.5861,324.4208,894.3236,329.6055,889.1389,327.343,896.15,334.26" style="stroke:#181818;stroke-width:1.0;"/><text fill="#000000" font-family="sans-serif" font-size="13" lengthAdjust="spacing" textLength="85" x="855" y="224.0283">skillRepository</text></g><!--link GenerateTeamProposalController to SkillRepository--><g id="link_GenerateTeamProposalController_SkillRepository"><path codeLine="86" d="M655.08,148.14 C708.69,179.24 760,209 760,209 C760,209 830.3632,283.6151 874.0132,329.8951 " fill="none" id="GenerateTeamProposalController-to-SkillRepository-1" style="stroke:#181818;stroke-width:1.0;stroke-dasharray:7.0,7.0;"/><polygon fill="#181818" points="878.13,334.26,874.8647,324.9682,874.6993,330.6226,869.0449,330.4573,878.13,334.26" style="stroke:#181818;stroke-width:1.0;"/><text fill="#000000" font-family="sans-serif" font-size="13" lengthAdjust="spacing" textLength="30" x="779" y="224.0283">skills</text></g><!--link GenerateTeamProposalController to CollaboratorRepository--><g id="link_GenerateTeamProposalController_CollaboratorRepository"><path codeLine="79" d="M575.18,148.34 C609.15,207.37 653.298,284.0992 679.158,329.0492 " fill="none" id="GenerateTeamProposalController-to-CollaboratorRepository" style="stroke:#181818;stroke-width:1.0;stroke-dasharray:7.0,7.0;"/><polygon fill="#181818" points="682.15,334.25,681.1291,324.4542,679.6566,329.916,674.1948,328.4436,682.15,334.25" style="stroke:#181818;stroke-width:1.0;"/><text fill="#000000" font-family="sans-serif" font-size="13" lengthAdjust="spacing" textLength="129" x="622" y="224.0283">collaboratorRepository</text></g><!--link GenerateTeamProposalController to CollaboratorRepository--><g id="link_GenerateTeamProposalController_CollaboratorRepository"><path codeLine="87" d="M530.72,148.33 C528.82,179.36 527,209 527,209 C527,209 527,228 527,228 C527,228 604.0923,289.5849 655.5123,330.6649 " fill="none" id="GenerateTeamProposalController-to-CollaboratorRepository-1" style="stroke:#181818;stroke-width:1.0;stroke-dasharray:7.0,7.0;"/><polygon fill="#181818" points="660.2,334.41,655.6652,325.6673,656.2936,331.2891,650.6717,331.9176,660.2,334.41" style="stroke:#181818;stroke-width:1.0;"/><text fill="#000000" font-family="sans-serif" font-size="13" lengthAdjust="spacing" textLength="74" x="528" y="224.0283">collaborators</text></g><!--link GenerateTeamProposalController to TeamRepository--><g id="link_GenerateTeamProposalController_TeamRepository"><path codeLine="80" d="M476.67,148.33 C450.76,179.36 426,209 426,209 C426,209 398.9946,256.9423 373.8446,301.5923 " fill="none" id="GenerateTeamProposalController-to-TeamRepository" style="stroke:#181818;stroke-width:1.0;stroke-dasharray:7.0,7.0;"/><polygon fill="#181818" points="370.9,306.82,378.8021,300.9415,373.3539,302.4636,371.8318,297.0153,370.9,306.82" style="stroke:#181818;stroke-width:1.0;"/><text fill="#000000" font-family="sans-serif" font-size="13" lengthAdjust="spacing" textLength="91" x="427" y="224.0283">teamRepository</text></g><!--reverse link Team to Collaborator--><g id="link_Team_Collaborator"><path codeLine="82" d="M386.2622,582.7631 C411.6922,603.5431 437.21,624.4 473.12,653.74 " fill="none" id="Team-backto-Collaborator" style="stroke:#181818;stroke-width:1.0;"/><polygon fill="none" points="376.97,575.17,379.0851,582.0639,386.2622,582.7631,384.1471,575.8691,376.97,575.17" style="stroke:#181818;stroke-width:1.0;"/><text fill="#000000" font-family="sans-serif" font-size="13" lengthAdjust="spacing" textLength="21" x="436" y="620.0283">has</text><text fill="#000000" font-family="sans-serif" font-size="13" lengthAdjust="spacing" textLength="5" x="458.9664" y="642.8747">*</text></g><!--reverse link Collaborator to Skill--><g id="link_Collaborator_Skill"><path codeLine="83" d="M715.4276,935.6779 C730.7576,964.4179 740.18,982.08 751.86,1003.99 " fill="none" id="Collaborator-backto-Skill" style="stroke:#181818;stroke-width:1.0;"/><polygon fill="none" points="709.78,925.09,709.0745,932.2665,715.4276,935.6779,716.1331,928.5014,709.78,925.09" style="stroke:#181818;stroke-width:1.0;"/><text fill="#000000" font-family="sans-serif" font-size="13" lengthAdjust="spacing" textLength="21" x="735" y="970.0283">has</text><text fill="#000000" font-family="sans-serif" font-size="13" lengthAdjust="spacing" textLength="5" x="742.933" y="992.8925">*</text></g><!--link GenerateTeamProposalController to Team--><g id="link_GenerateTeamProposalController_Team"><path codeLine="85" d="M396.02,148.14 C261.89,215.36 79,307 79,307 C79,307 79,429 79,429 C79,429 193.0223,478.2799 269.3623,511.2699 " fill="none" id="GenerateTeamProposalController-to-Team" style="stroke:#181818;stroke-width:1.0;stroke-dasharray:7.0,7.0;"/><polygon fill="#181818" points="274.87,513.65,268.1952,506.408,270.2802,511.6666,265.0217,513.7516,274.87,513.65" style="stroke:#181818;stroke-width:1.0;"/><text fill="#000000" font-family="sans-serif" font-size="13" lengthAdjust="spacing" textLength="29" x="177" y="273.0283">team</text></g><!--link SkillRepository to Skill--><g id="link_SkillRepository_Skill"><path codeLine="88" d="M906.88,401.7 C899.17,520.89 873,925 873,925 C873,925 840.7488,964.2539 812.1588,999.0539 " fill="none" id="SkillRepository-to-Skill" style="stroke:#181818;stroke-width:1.0;"/><polygon fill="#181818" points="808.35,1003.69,817.1539,999.2751,811.524,999.8266,810.9724,994.1967,808.35,1003.69" style="stroke:#181818;stroke-width:1.0;"/><text fill="#000000" font-family="sans-serif" font-size="13" lengthAdjust="spacing" textLength="21" x="894" y="620.0283">has</text></g><!--link CollaboratorRepository to Collaborator--><g id="link_CollaboratorRepository_Collaborator"><path codeLine="89" d="M696.11,401.57 C688.06,455.18 672.4609,559.0165 659.1009,647.9965 " fill="none" id="CollaboratorRepository-to-Collaborator" style="stroke:#181818;stroke-width:1.0;"/><polygon fill="#181818" points="658.21,653.93,663.502,645.6237,658.9524,648.9854,655.5907,644.4358,658.21,653.93" style="stroke:#181818;stroke-width:1.0;"/><text fill="#000000" font-family="sans-serif" font-size="13" lengthAdjust="spacing" textLength="21" x="681" y="547.0283">has</text></g><!--link TeamRepository to Team--><g id="link_TeamRepository_Team"><path codeLine="90" d="M337,429.46 C337,455.89 337,479.83 337,501.96 " fill="none" id="TeamRepository-to-Team" style="stroke:#181818;stroke-width:1.0;"/><polygon fill="#181818" points="337,507.96,341,498.96,337,502.96,333,498.96,337,507.96" style="stroke:#181818;stroke-width:1.0;"/><text fill="#000000" font-family="sans-serif" font-size="13" lengthAdjust="spacing" textLength="21" x="338" y="474.0283">has</text></g><!--SRC=[jLLDRzim3BthLmYvn5sSORlwC61eWIA73iEItNPHRDOMgWz3KhPbG__x97zAifq41UQRoKVgyP6Yrlg5YfeemZ6NGkQLaXomKIT0ewSc-GifOM_E3B22t11HCX-WArB8NrIK-9amxNiO5M3EDU1QihFxGUiPfrH68YygPqJhpyOeUZmPsELIxEaVm1yGMZDuDjX8h6XP6LnGHuTAWL0JWnz1W2863a3uLoLhgGcxby8eoHWe_1TX-sskm1BBXB5lOCtKI7LESMxjv2XjY5I-tTZuyV-koyweDdkNGYUzgGHpx-Nm7LCc2QU2yXDtHQUOaz_ZJyDCXuHqdojNq6LAEF0ZECyhkYJDzvsLvBL739LGq9rKsy3ebxCJsiv13iaTpWBG2Dc7CYw9COyu1D9QpyWpoZjqDT1zGCyVDGJDT6O83Jbu8V-tPwtd9s6qw7rkq7e7AGhF5f0TA4w6OAh5q651x9NFyDvUDr5sjYDLfdAdnmvISAgrlN4Fn92fir1WZudCN1ufWoydnyRwg32T0pYXB4RJua7c9mx27DnkMFHEycs2yX9NLZeMaeRKqvviYdy8ds3QiaeZ7kdavA63bPGQdbgjBun1qFv-AeQU2iBE6e82UaGuznVQjcaHJULDsCALV__foW94LzQeJH3iYio-2ju227pRxGHCkzM1OgI5hZwkulkzW9g_rmlWy2QZ6mgCbqo6erVXXXmBgoTRU4zko1Xjf2nwWH1gjW2MsorUlGirik2AQ1IO1c0xMYtYHXhTuM-NKhzPmL10ZU83NDVzYXRwu60p2aKQErHNRwFEFm00]--></g></svg>