<?xml version="1.0" encoding="us-ascii" standalone="no"?><svg xmlns="http://www.w3.org/2000/svg" xmlns:xlink="http://www.w3.org/1999/xlink" contentStyleType="text/css" height="714px" preserveAspectRatio="none" style="width:555px;height:714px;background:#FFFFFF;" version="1.1" viewBox="0 0 555 714" width="555px" zoomAndPan="magnify"><defs/><g><!--class Job--><g id="elem_Job"><rect codeLine="13" fill="#F1F1F1" height="55.2422" id="Job" rx="2.5" ry="2.5" style="stroke:#181818;stroke-width:0.5;" width="47" x="60.5" y="652"/><text fill="#000000" font-family="sans-serif" font-size="14" lengthAdjust="spacing" textLength="22" x="73" y="672.1074">Job</text><line style="stroke:#181818;stroke-width:0.5;" x1="61.5" x2="106.5" y1="680.6211" y2="680.6211"/><text fill="#000000" font-family="sans-serif" font-size="14" lengthAdjust="spacing" textLength="35" x="66.5" y="699.7285">name</text></g><!--class Collaborator--><g id="elem_Collaborator"><rect codeLine="17" fill="#F1F1F1" height="166.9688" id="Collaborator" rx="2.5" ry="2.5" style="stroke:#181818;stroke-width:0.5;" width="136" x="7" y="178"/><text fill="#000000" font-family="sans-serif" font-size="14" lengthAdjust="spacing" textLength="78" x="36" y="198.1074">Collaborator</text><line style="stroke:#181818;stroke-width:0.5;" x1="8" x2="142" y1="206.6211" y2="206.6211"/><text fill="#000000" font-family="sans-serif" font-size="14" lengthAdjust="spacing" textLength="35" x="13" y="225.7285">name</text><text fill="#000000" font-family="sans-serif" font-size="14" lengthAdjust="spacing" textLength="56" x="13" y="244.3496">birthdate</text><text fill="#000000" font-family="sans-serif" font-size="14" lengthAdjust="spacing" textLength="93" x="13" y="262.9707">admissionDate</text><text fill="#000000" font-family="sans-serif" font-size="14" lengthAdjust="spacing" textLength="51" x="13" y="281.5918">address</text><text fill="#000000" font-family="sans-serif" font-size="14" lengthAdjust="spacing" textLength="69" x="13" y="300.2129">contactInfo</text><text fill="#000000" font-family="sans-serif" font-size="14" lengthAdjust="spacing" textLength="107" x="13" y="318.834">idDocumentType</text><text fill="#000000" font-family="sans-serif" font-size="14" lengthAdjust="spacing" textLength="124" x="13" y="337.4551">idDocumentNumber</text></g><!--class HRM--><g id="elem_HRM"><rect codeLine="27" fill="#F1F1F1" height="166.9688" id="HRM" rx="2.5" ry="2.5" style="stroke:#181818;stroke-width:0.5;" width="136" x="126" y="406"/><text fill="#000000" font-family="sans-serif" font-size="14" lengthAdjust="spacing" textLength="30" x="179" y="426.1074">HRM</text><line style="stroke:#181818;stroke-width:0.5;" x1="127" x2="261" y1="434.6211" y2="434.6211"/><text fill="#000000" font-family="sans-serif" font-size="14" lengthAdjust="spacing" textLength="35" x="132" y="453.7285">name</text><text fill="#000000" font-family="sans-serif" font-size="14" lengthAdjust="spacing" textLength="56" x="132" y="472.3496">birthdate</text><text fill="#000000" font-family="sans-serif" font-size="14" lengthAdjust="spacing" textLength="93" x="132" y="490.9707">admissionDate</text><text fill="#000000" font-family="sans-serif" font-size="14" lengthAdjust="spacing" textLength="51" x="132" y="509.5918">address</text><text fill="#000000" font-family="sans-serif" font-size="14" lengthAdjust="spacing" textLength="69" x="132" y="528.2129">contactInfo</text><text fill="#000000" font-family="sans-serif" font-size="14" lengthAdjust="spacing" textLength="107" x="132" y="546.834">idDocumentType</text><text fill="#000000" font-family="sans-serif" font-size="14" lengthAdjust="spacing" textLength="124" x="132" y="565.4551">idDocumentNumber</text></g><!--class GreenSpace--><g id="elem_GreenSpace"><rect codeLine="37" fill="#F1F1F1" height="92.4844" id="GreenSpace" rx="2.5" ry="2.5" style="stroke:#181818;stroke-width:0.5;" width="86" x="239" y="7"/><text fill="#000000" font-family="sans-serif" font-size="14" lengthAdjust="spacing" textLength="80" x="242" y="27.1074">GreenSpace</text><line style="stroke:#181818;stroke-width:0.5;" x1="240" x2="324" y1="35.6211" y2="35.6211"/><text fill="#000000" font-family="sans-serif" font-size="14" lengthAdjust="spacing" textLength="35" x="245" y="54.7285">name</text><text fill="#000000" font-family="sans-serif" font-size="14" lengthAdjust="spacing" textLength="51" x="245" y="73.3496">address</text><text fill="#000000" font-family="sans-serif" font-size="14" lengthAdjust="spacing" textLength="27" x="245" y="91.9707">type</text></g><!--class Garden--><g id="elem_Garden"><rect codeLine="43" fill="#F1F1F1" height="92.4844" id="Garden" rx="2.5" ry="2.5" style="stroke:#181818;stroke-width:0.5;" width="76" x="178" y="215.5"/><text fill="#000000" font-family="sans-serif" font-size="14" lengthAdjust="spacing" textLength="48" x="192" y="235.6074">Garden</text><line style="stroke:#181818;stroke-width:0.5;" x1="179" x2="253" y1="244.1211" y2="244.1211"/><text fill="#000000" font-family="sans-serif" font-size="14" lengthAdjust="spacing" textLength="35" x="184" y="263.2285">name</text><text fill="#000000" font-family="sans-serif" font-size="14" lengthAdjust="spacing" textLength="51" x="184" y="281.8496">address</text><text fill="#000000" font-family="sans-serif" font-size="14" lengthAdjust="spacing" textLength="64" x="184" y="300.4707">dimension</text></g><!--class MediumSizedPark--><g id="elem_MediumSizedPark"><rect codeLine="49" fill="#F1F1F1" height="92.4844" id="MediumSizedPark" rx="2.5" ry="2.5" style="stroke:#181818;stroke-width:0.5;" width="118" x="289" y="215.5"/><text fill="#000000" font-family="sans-serif" font-size="14" lengthAdjust="spacing" textLength="112" x="292" y="235.6074">MediumSizedPark</text><line style="stroke:#181818;stroke-width:0.5;" x1="290" x2="406" y1="244.1211" y2="244.1211"/><text fill="#000000" font-family="sans-serif" font-size="14" lengthAdjust="spacing" textLength="35" x="295" y="263.2285">name</text><text fill="#000000" font-family="sans-serif" font-size="14" lengthAdjust="spacing" textLength="51" x="295" y="281.8496">address</text><text fill="#000000" font-family="sans-serif" font-size="14" lengthAdjust="spacing" textLength="64" x="295" y="300.4707">dimension</text></g><!--class LargeSizedPark--><g id="elem_LargeSizedPark"><rect codeLine="55" fill="#F1F1F1" height="92.4844" id="LargeSizedPark" rx="2.5" ry="2.5" style="stroke:#181818;stroke-width:0.5;" width="106" x="442" y="215.5"/><text fill="#000000" font-family="sans-serif" font-size="14" lengthAdjust="spacing" textLength="100" x="445" y="235.6074">LargeSizedPark</text><line style="stroke:#181818;stroke-width:0.5;" x1="443" x2="547" y1="244.1211" y2="244.1211"/><text fill="#000000" font-family="sans-serif" font-size="14" lengthAdjust="spacing" textLength="35" x="448" y="263.2285">name</text><text fill="#000000" font-family="sans-serif" font-size="14" lengthAdjust="spacing" textLength="51" x="448" y="281.8496">address</text><text fill="#000000" font-family="sans-serif" font-size="14" lengthAdjust="spacing" textLength="64" x="448" y="300.4707">dimension</text></g><!--link HRM to Job--><g id="link_HRM_Job"><path codeLine="61" d="M145.59,573.23 C128.99,601.6 111.58,631.37 99.52,651.98 " fill="none" id="HRM-Job" style="stroke:#181818;stroke-width:1.0;"/><polygon fill="#000000" points="128.4752,616.9612,135.5793,610.638,130.5059,607.67,128.4752,616.9612" style="stroke:#000000;stroke-width:1.0;"/><text fill="#000000" font-family="sans-serif" font-size="13" lengthAdjust="spacing" textLength="43" x="140" y="618.0283">creates</text><text fill="#000000" font-family="sans-serif" font-size="13" lengthAdjust="spacing" textLength="7" x="134.2912" y="594.9095">1</text><text fill="#000000" font-family="sans-serif" font-size="13" lengthAdjust="spacing" textLength="20" x="105.4215" y="640.6843">1..*</text></g><!--link Collaborator to Job--><g id="link_Collaborator_Job"><path codeLine="62" d="M71.22,345.27 C69.09,407.86 67.63,495.9 72,573 C73.52,599.87 77.21,630.41 80.1,651.69 " fill="none" id="Collaborator-Job" style="stroke:#181818;stroke-width:1.0;"/><polygon fill="#000000" points="77.1448,494.6434,79.8205,485.517,73.9451,485.6873,77.1448,494.6434" style="stroke:#000000;stroke-width:1.0;"/><text fill="#000000" font-family="sans-serif" font-size="13" lengthAdjust="spacing" textLength="21" x="86" y="495.0283">has</text><text fill="#000000" font-family="sans-serif" font-size="13" lengthAdjust="spacing" textLength="7" x="63.6171" y="366.9528">1</text><text fill="#000000" font-family="sans-serif" font-size="13" lengthAdjust="spacing" textLength="20" x="57.0594" y="640.7808">1..*</text></g><!--reverse link Collaborator to HRM--><g id="link_Collaborator_HRM"><path codeLine="63" d="M126.8528,360.9789 C137.2728,380.7789 140.02,385.99 150.45,405.8 " fill="none" id="Collaborator-backto-HRM" style="stroke:#181818;stroke-width:1.0;"/><polygon fill="none" points="118.47,345.05,121.5431,363.7731,132.1624,358.1846,118.47,345.05" style="stroke:#181818;stroke-width:1.0;"/></g><!--link GreenSpace to Collaborator--><g id="link_GreenSpace_Collaborator"><path codeLine="64" d="M238.82,82.41 C220.17,95.58 198.64,112.05 181,129 C165.57,143.83 150.32,160.9 136.4,177.72 " fill="none" id="GreenSpace-Collaborator" style="stroke:#181818;stroke-width:1.0;"/><polygon fill="#000000" points="182.3397,142.0517,190.9634,138.0413,186.9591,133.7384,182.3397,142.0517" style="stroke:#000000;stroke-width:1.0;"/><text fill="#000000" font-family="sans-serif" font-size="13" lengthAdjust="spacing" textLength="49" x="195" y="144.0283">contains</text><text fill="#000000" font-family="sans-serif" font-size="13" lengthAdjust="spacing" textLength="7" x="224.0886" y="82.8855">1</text><text fill="#000000" font-family="sans-serif" font-size="13" lengthAdjust="spacing" textLength="20" x="120.8172" y="166.8319">1..*</text></g><!--reverse link GreenSpace to Garden--><g id="link_GreenSpace_Garden"><path codeLine="65" d="M262.1205,116.2057 C251.1205,150.6257 241.51,180.7 230.49,215.18 " fill="none" id="GreenSpace-backto-Garden" style="stroke:#181818;stroke-width:1.0;"/><polygon fill="none" points="267.6,99.06,256.4053,114.3792,267.8358,118.0322,267.6,99.06" style="stroke:#181818;stroke-width:1.0;"/></g><!--reverse link GreenSpace to MediumSizedPark--><g id="link_GreenSpace_MediumSizedPark"><path codeLine="66" d="M301.8795,116.2057 C312.8795,150.6257 322.49,180.7 333.51,215.18 " fill="none" id="GreenSpace-backto-MediumSizedPark" style="stroke:#181818;stroke-width:1.0;"/><polygon fill="none" points="296.4,99.06,296.1642,118.0322,307.5947,114.3792,296.4,99.06" style="stroke:#181818;stroke-width:1.0;"/></g><!--reverse link GreenSpace to LargeSizedPark--><g id="link_GreenSpace_LargeSizedPark"><path codeLine="67" d="M339.0287,99.8979 C368.2287,123.9279 393.22,145.88 425,178 C436.49,189.62 448.26,202.87 458.79,215.3 " fill="none" id="GreenSpace-backto-LargeSizedPark" style="stroke:#181818;stroke-width:1.0;"/><polygon fill="none" points="325.13,88.46,335.2161,104.5308,342.8414,95.265,325.13,88.46" style="stroke:#181818;stroke-width:1.0;"/></g><!--SRC=[lL9DImCn4BtdLmoz24ABNei8Oa4hLiJw1sQJwIPqavJ9B58__hl95jjT2q8lxYN9p7jlXlSshLtO8AC77qFKbgCd46v9fNrdWtgDDIrbsn0mQS5GDtr0icZYcmirhB19fDHPGoi1YS2kjWB65PQBGVL8ki6KRaJOLQtGNCUmTEy45qfPPmYqOvs7T7TFOgD9IgcE10-nWWy5-GleINtzr6zZqs0L6INo3j3ryrav5cjGkWSQxrBAwyps1SEKKhdcDGIrpCCgbgSpiwXRJq5UjniQLfvQNn4Vfj-_BFv_w1qJXMLEYFgEm50VfEWSECY6mbzuu_Aiiko1j23ZMbyYCi_8wnFPZyZv1pgPN2mTNOvWFCx7P78-wgAVWcRABYQuLeF8E-WGQV48TVMPvRAowdat7DA7JtVfk51qUenEPUVaKVcNLqVzeHlV]--></g></svg>