<?xml version="1.0" encoding="us-ascii" standalone="no"?><svg xmlns="http://www.w3.org/2000/svg" xmlns:xlink="http://www.w3.org/1999/xlink" contentStyleType="text/css" height="965px" preserveAspectRatio="none" style="width:1700px;height:965px;background:#FFFFFF;" version="1.1" viewBox="0 0 1700 965" width="1700px" zoomAndPan="magnify"><defs/><g><!--cluster UI--><g id="cluster_UI"><path d="M774.5,6 L790.5,6 A3.75,3.75 0 0 1 793,8.5 L800,28.4883 L941.5,28.4883 A2.5,2.5 0 0 1 944,30.9883 L944,102.5 A2.5,2.5 0 0 1 941.5,105 L774.5,105 A2.5,2.5 0 0 1 772,102.5 L772,8.5 A2.5,2.5 0 0 1 774.5,6 " fill="#DDDDDD" style="stroke:#000000;stroke-width:1.5;"/><line style="stroke:#000000;stroke-width:1.5;" x1="772" x2="800" y1="28.4883" y2="28.4883"/><text fill="#000000" font-family="sans-serif" font-size="14" font-weight="bold" lengthAdjust="spacing" textLength="15" x="776" y="21.5352">UI</text></g><!--cluster Controller--><g id="cluster_Controller"><path d="M652.5,138 L726.5,138 A3.75,3.75 0 0 1 729,140.5 L736,160.4883 L1063.5,160.4883 A2.5,2.5 0 0 1 1066,162.9883 L1066,283.96 A2.5,2.5 0 0 1 1063.5,286.46 L652.5,286.46 A2.5,2.5 0 0 1 650,283.96 L650,140.5 A2.5,2.5 0 0 1 652.5,138 " fill="#DDDDDD" style="stroke:#000000;stroke-width:1.5;"/><line style="stroke:#000000;stroke-width:1.5;" x1="650" x2="736" y1="160.4883" y2="160.4883"/><text fill="#000000" font-family="sans-serif" font-size="14" font-weight="bold" lengthAdjust="spacing" textLength="73" x="654" y="153.5352">Controller</text></g><!--cluster Domain--><g id="cluster_Domain"><path d="M8.5,335.46 L65.5,335.46 A3.75,3.75 0 0 1 68,337.96 L75,357.9483 L1690.5,357.9483 A2.5,2.5 0 0 1 1693,360.4483 L1693,955.8 A2.5,2.5 0 0 1 1690.5,958.3 L8.5,958.3 A2.5,2.5 0 0 1 6,955.8 L6,337.96 A2.5,2.5 0 0 1 8.5,335.46 " fill="#DDDDDD" style="stroke:#000000;stroke-width:1.5;"/><line style="stroke:#000000;stroke-width:1.5;" x1="6" x2="75" y1="357.9483" y2="357.9483"/><text fill="#000000" font-family="sans-serif" font-size="14" font-weight="bold" lengthAdjust="spacing" textLength="56" x="10" y="350.9952">Domain</text></g><!--cluster Repository--><g id="cluster_Repository"><path d="M32.5,378.46 L111.5,378.46 A3.75,3.75 0 0 1 114,380.96 L121,400.9483 L514.5,400.9483 A2.5,2.5 0 0 1 517,403.4483 L517,707.14 A2.5,2.5 0 0 1 514.5,709.64 L32.5,709.64 A2.5,2.5 0 0 1 30,707.14 L30,380.96 A2.5,2.5 0 0 1 32.5,378.46 " fill="#DDDDDD" style="stroke:#000000;stroke-width:1.5;"/><line style="stroke:#000000;stroke-width:1.5;" x1="30" x2="121" y1="400.9483" y2="400.9483"/><text fill="#000000" font-family="sans-serif" font-size="14" font-weight="bold" lengthAdjust="spacing" textLength="78" x="34" y="393.9952">Repository</text></g><!--cluster Mapper--><g id="cluster_Mapper"><path d="M543.5,577.66 L597.5,577.66 A3.75,3.75 0 0 1 600,580.16 L607,600.1483 L890.5,600.1483 A2.5,2.5 0 0 1 893,602.6483 L893,707.14 A2.5,2.5 0 0 1 890.5,709.64 L543.5,709.64 A2.5,2.5 0 0 1 541,707.14 L541,580.16 A2.5,2.5 0 0 1 543.5,577.66 " fill="#DDDDDD" style="stroke:#000000;stroke-width:1.5;"/><line style="stroke:#000000;stroke-width:1.5;" x1="541" x2="607" y1="600.1483" y2="600.1483"/><text fill="#000000" font-family="sans-serif" font-size="14" font-weight="bold" lengthAdjust="spacing" textLength="53" x="545" y="593.1952">Mapper</text></g><!--cluster DTO--><g id="cluster_DTO"><path d="M543.5,403.2 L577.5,403.2 A3.75,3.75 0 0 1 580,405.7 L587,425.6883 L684.5,425.6883 A2.5,2.5 0 0 1 687,428.1883 L687,499.7 A2.5,2.5 0 0 1 684.5,502.2 L543.5,502.2 A2.5,2.5 0 0 1 541,499.7 L541,405.7 A2.5,2.5 0 0 1 543.5,403.2 " fill="#DDDDDD" style="stroke:#000000;stroke-width:1.5;"/><line style="stroke:#000000;stroke-width:1.5;" x1="541" x2="587" y1="425.6883" y2="425.6883"/><text fill="#000000" font-family="sans-serif" font-size="14" font-weight="bold" lengthAdjust="spacing" textLength="33" x="545" y="418.7352">DTO</text></g><!--class AssignVehicleUI--><g id="elem_AssignVehicleUI"><rect codeLine="13" fill="#F1F1F1" height="48" id="AssignVehicleUI" rx="2.5" ry="2.5" style="stroke:#181818;stroke-width:0.5;" width="141" x="787.5" y="41"/><ellipse cx="802.5" cy="57" fill="#ADD1B2" rx="11" ry="11" style="stroke:#181818;stroke-width:1.0;"/><path d="M805.4731,62.6431 Q804.8921,62.9419 804.2529,63.0913 Q803.6138,63.2407 802.9082,63.2407 Q800.4014,63.2407 799.0815,61.5889 Q797.7617,59.937 797.7617,56.8159 Q797.7617,53.6865 799.0815,52.0347 Q800.4014,50.3828 802.9082,50.3828 Q803.6138,50.3828 804.2612,50.5322 Q804.9087,50.6816 805.4731,50.9805 L805.4731,53.7031 Q804.8423,53.1221 804.2488,52.8523 Q803.6553,52.5825 803.0244,52.5825 Q801.6797,52.5825 800.9949,53.6492 Q800.3101,54.7158 800.3101,56.8159 Q800.3101,58.9077 800.9949,59.9744 Q801.6797,61.041 803.0244,61.041 Q803.6553,61.041 804.2488,60.7712 Q804.8423,60.5015 805.4731,59.9204 Z " fill="#000000"/><text fill="#000000" font-family="sans-serif" font-size="14" lengthAdjust="spacing" textLength="109" x="816.5" y="62.291">AssignVehicleUI</text><line style="stroke:#181818;stroke-width:0.5;" x1="788.5" x2="927.5" y1="73" y2="73"/><line style="stroke:#181818;stroke-width:0.5;" x1="788.5" x2="927.5" y1="81" y2="81"/></g><!--class AssignVehicleController--><g id="elem_AssignVehicleController"><rect codeLine="19" fill="#F1F1F1" height="97.4648" id="AssignVehicleController" rx="2.5" ry="2.5" style="stroke:#181818;stroke-width:0.5;" width="385" x="665.5" y="173"/><ellipse cx="771.25" cy="189" fill="#ADD1B2" rx="11" ry="11" style="stroke:#181818;stroke-width:1.0;"/><path d="M774.2231,194.6431 Q773.6421,194.9419 773.0029,195.0913 Q772.3638,195.2407 771.6582,195.2407 Q769.1514,195.2407 767.8315,193.5889 Q766.5117,191.937 766.5117,188.8159 Q766.5117,185.6865 767.8315,184.0347 Q769.1514,182.3828 771.6582,182.3828 Q772.3638,182.3828 773.0112,182.5322 Q773.6587,182.6816 774.2231,182.9805 L774.2231,185.7031 Q773.5923,185.1221 772.9988,184.8523 Q772.4053,184.5825 771.7744,184.5825 Q770.4297,184.5825 769.7449,185.6492 Q769.0601,186.7158 769.0601,188.8159 Q769.0601,190.9077 769.7449,191.9744 Q770.4297,193.041 771.7744,193.041 Q772.4053,193.041 772.9988,192.7712 Q773.5923,192.5015 774.2231,191.9204 Z " fill="#000000"/><text fill="#000000" font-family="sans-serif" font-size="14" lengthAdjust="spacing" textLength="165" x="791.75" y="194.291">AssignVehicleController</text><line style="stroke:#181818;stroke-width:0.5;" x1="666.5" x2="1049.5" y1="205" y2="205"/><line style="stroke:#181818;stroke-width:0.5;" x1="666.5" x2="1049.5" y1="213" y2="213"/><text fill="#000000" font-family="sans-serif" font-size="14" lengthAdjust="spacing" textLength="303" x="671.5" y="230.5352">+AssignVehicleController(entryList, agenda)</text><text fill="#000000" font-family="sans-serif" font-size="14" lengthAdjust="spacing" textLength="373" x="671.5" y="247.0234">+assignVehiclesToAgendaEntry(agendaEntry), vehicle)</text><text fill="#000000" font-family="sans-serif" font-size="14" lengthAdjust="spacing" textLength="154" x="671.5" y="263.5117">+getAgendaEntryList()</text></g><!--class Entry--><g id="elem_Entry"><rect codeLine="50" fill="#F1F1F1" height="80.9766" id="Entry" rx="2.5" ry="2.5" style="stroke:#181818;stroke-width:0.5;" width="193" x="911.5" y="612.66"/><ellipse cx="986.25" cy="628.66" fill="#ADD1B2" rx="11" ry="11" style="stroke:#181818;stroke-width:1.0;"/><path d="M989.2231,634.3031 Q988.6421,634.6019 988.0029,634.7513 Q987.3638,634.9007 986.6582,634.9007 Q984.1514,634.9007 982.8315,633.2489 Q981.5117,631.597 981.5117,628.4759 Q981.5117,625.3465 982.8315,623.6947 Q984.1514,622.0428 986.6582,622.0428 Q987.3638,622.0428 988.0112,622.1922 Q988.6587,622.3416 989.2231,622.6405 L989.2231,625.3631 Q988.5923,624.7821 987.9988,624.5123 Q987.4053,624.2425 986.7744,624.2425 Q985.4297,624.2425 984.7449,625.3092 Q984.0601,626.3758 984.0601,628.4759 Q984.0601,630.5677 984.7449,631.6344 Q985.4297,632.701 986.7744,632.701 Q987.4053,632.701 987.9988,632.4312 Q988.5923,632.1615 989.2231,631.5804 Z " fill="#000000"/><text fill="#000000" font-family="sans-serif" font-size="14" lengthAdjust="spacing" textLength="35" x="1006.75" y="633.951">Entry</text><line style="stroke:#181818;stroke-width:0.5;" x1="912.5" x2="1103.5" y1="644.66" y2="644.66"/><text fill="#000000" font-family="sans-serif" font-size="14" lengthAdjust="spacing" textLength="80" x="917.5" y="662.1952">-task : Task</text><text fill="#000000" font-family="sans-serif" font-size="14" lengthAdjust="spacing" textLength="181" x="917.5" y="678.6834">-greenSpace : GreenSpace</text><line style="stroke:#181818;stroke-width:0.5;" x1="912.5" x2="1103.5" y1="685.6366" y2="685.6366"/></g><!--class AgendaEntry--><g id="elem_AgendaEntry"><rect codeLine="55" fill="#F1F1F1" height="146.9297" id="AgendaEntry" rx="2.5" ry="2.5" style="stroke:#181818;stroke-width:0.5;" width="461" x="891.5" y="795.37"/><ellipse cx="1073.75" cy="811.37" fill="#ADD1B2" rx="11" ry="11" style="stroke:#181818;stroke-width:1.0;"/><path d="M1076.7231,817.0131 Q1076.1421,817.3119 1075.5029,817.4613 Q1074.8638,817.6107 1074.1582,817.6107 Q1071.6514,817.6107 1070.3315,815.9589 Q1069.0117,814.307 1069.0117,811.1859 Q1069.0117,808.0565 1070.3315,806.4047 Q1071.6514,804.7528 1074.1582,804.7528 Q1074.8638,804.7528 1075.5112,804.9022 Q1076.1587,805.0516 1076.7231,805.3505 L1076.7231,808.0731 Q1076.0923,807.4921 1075.4988,807.2223 Q1074.9053,806.9525 1074.2744,806.9525 Q1072.9297,806.9525 1072.2449,808.0192 Q1071.5601,809.0858 1071.5601,811.1859 Q1071.5601,813.2777 1072.2449,814.3444 Q1072.9297,815.411 1074.2744,815.411 Q1074.9053,815.411 1075.4988,815.1412 Q1076.0923,814.8715 1076.7231,814.2904 Z " fill="#000000"/><text fill="#000000" font-family="sans-serif" font-size="14" lengthAdjust="spacing" textLength="88" x="1094.25" y="816.661">AgendaEntry</text><line style="stroke:#181818;stroke-width:0.5;" x1="892.5" x2="1351.5" y1="827.37" y2="827.37"/><text fill="#000000" font-family="sans-serif" font-size="14" lengthAdjust="spacing" textLength="113" x="897.5" y="844.9052">-startDate : Date</text><text fill="#000000" font-family="sans-serif" font-size="14" lengthAdjust="spacing" textLength="108" x="897.5" y="861.3934">-endDate : Date</text><text fill="#000000" font-family="sans-serif" font-size="14" lengthAdjust="spacing" textLength="100" x="897.5" y="877.8817">-status : enum</text><line style="stroke:#181818;stroke-width:0.5;" x1="892.5" x2="1351.5" y1="884.8348" y2="884.8348"/><text fill="#000000" font-family="sans-serif" font-size="14" lengthAdjust="spacing" textLength="449" x="897.5" y="902.37">+createEntry(task, greenSpace, startDate, endDate) : AgendaEntry</text><text fill="#000000" font-family="sans-serif" font-size="14" lengthAdjust="spacing" textLength="177" x="897.5" y="918.8583">+validateEntry() : boolean</text><text fill="#000000" font-family="sans-serif" font-size="14" lengthAdjust="spacing" textLength="152" x="897.5" y="935.3466">+taskSchedule() : void</text></g><!--class GreenSpace--><g id="elem_GreenSpace"><rect codeLine="64" fill="#F1F1F1" height="97.4648" id="GreenSpace" rx="2.5" ry="2.5" style="stroke:#181818;stroke-width:0.5;" width="190" x="1140" y="604.42"/><ellipse cx="1190.25" cy="620.42" fill="#ADD1B2" rx="11" ry="11" style="stroke:#181818;stroke-width:1.0;"/><path d="M1193.2231,626.0631 Q1192.6421,626.3619 1192.0029,626.5113 Q1191.3638,626.6607 1190.6582,626.6607 Q1188.1514,626.6607 1186.8315,625.0089 Q1185.5117,623.357 1185.5117,620.2359 Q1185.5117,617.1065 1186.8315,615.4547 Q1188.1514,613.8028 1190.6582,613.8028 Q1191.3638,613.8028 1192.0112,613.9522 Q1192.6587,614.1016 1193.2231,614.4005 L1193.2231,617.1231 Q1192.5923,616.5421 1191.9988,616.2723 Q1191.4053,616.0025 1190.7744,616.0025 Q1189.4297,616.0025 1188.7449,617.0692 Q1188.0601,618.1358 1188.0601,620.2359 Q1188.0601,622.3277 1188.7449,623.3944 Q1189.4297,624.461 1190.7744,624.461 Q1191.4053,624.461 1191.9988,624.1912 Q1192.5923,623.9215 1193.2231,623.3404 Z " fill="#000000"/><text fill="#000000" font-family="sans-serif" font-size="14" lengthAdjust="spacing" textLength="81" x="1210.75" y="625.711">GreenSpace</text><line style="stroke:#181818;stroke-width:0.5;" x1="1141" x2="1329" y1="636.42" y2="636.42"/><text fill="#000000" font-family="sans-serif" font-size="14" lengthAdjust="spacing" textLength="99" x="1146" y="653.9552">-name : String</text><text fill="#000000" font-family="sans-serif" font-size="14" lengthAdjust="spacing" textLength="98" x="1146" y="670.4434">-area : double</text><line style="stroke:#181818;stroke-width:0.5;" x1="1141" x2="1329" y1="677.3966" y2="677.3966"/><text fill="#000000" font-family="sans-serif" font-size="14" lengthAdjust="spacing" textLength="178" x="1146" y="694.9317">+GreenSpace(name, area)</text></g><!--class Task--><g id="elem_Task"><rect codeLine="70" fill="#F1F1F1" height="130.4414" id="Task" rx="2.5" ry="2.5" style="stroke:#181818;stroke-width:0.5;" width="313" x="1364.5" y="587.93"/><ellipse cx="1500.75" cy="603.93" fill="#ADD1B2" rx="11" ry="11" style="stroke:#181818;stroke-width:1.0;"/><path d="M1503.7231,609.5731 Q1503.1421,609.8719 1502.5029,610.0213 Q1501.8638,610.1707 1501.1582,610.1707 Q1498.6514,610.1707 1497.3315,608.5189 Q1496.0117,606.867 1496.0117,603.7459 Q1496.0117,600.6165 1497.3315,598.9647 Q1498.6514,597.3128 1501.1582,597.3128 Q1501.8638,597.3128 1502.5112,597.4622 Q1503.1587,597.6116 1503.7231,597.9105 L1503.7231,600.6331 Q1503.0923,600.0521 1502.4988,599.7823 Q1501.9053,599.5125 1501.2744,599.5125 Q1499.9297,599.5125 1499.2449,600.5792 Q1498.5601,601.6458 1498.5601,603.7459 Q1498.5601,605.8377 1499.2449,606.9044 Q1499.9297,607.971 1501.2744,607.971 Q1501.9053,607.971 1502.4988,607.7012 Q1503.0923,607.4315 1503.7231,606.8504 Z " fill="#000000"/><text fill="#000000" font-family="sans-serif" font-size="14" lengthAdjust="spacing" textLength="32" x="1521.25" y="609.221">Task</text><line style="stroke:#181818;stroke-width:0.5;" x1="1365.5" x2="1676.5" y1="619.93" y2="619.93"/><text fill="#000000" font-family="sans-serif" font-size="14" lengthAdjust="spacing" textLength="138" x="1370.5" y="637.4652">-description : String</text><text fill="#000000" font-family="sans-serif" font-size="14" lengthAdjust="spacing" textLength="92" x="1370.5" y="653.9534">-team : Team</text><text fill="#000000" font-family="sans-serif" font-size="14" lengthAdjust="spacing" textLength="168" x="1370.5" y="670.4417">-vehicles : List&lt;Vehicle&gt;</text><text fill="#000000" font-family="sans-serif" font-size="14" lengthAdjust="spacing" textLength="110" x="1370.5" y="686.93">-duration : Date</text><line style="stroke:#181818;stroke-width:0.5;" x1="1365.5" x2="1676.5" y1="693.8831" y2="693.8831"/><text fill="#000000" font-family="sans-serif" font-size="14" lengthAdjust="spacing" textLength="301" x="1370.5" y="711.4183">+Task(description, team, vehicles, duration)</text></g><!--class Repositories--><g id="elem_Repositories"><rect codeLine="31" fill="#F1F1F1" height="97.4648" id="Repositories" rx="2.5" ry="2.5" style="stroke:#181818;stroke-width:0.5;" width="209" x="208.5" y="413.46"/><ellipse cx="266.25" cy="429.46" fill="#ADD1B2" rx="11" ry="11" style="stroke:#181818;stroke-width:1.0;"/><path d="M269.2231,435.1031 Q268.6421,435.4019 268.0029,435.5513 Q267.3638,435.7007 266.6582,435.7007 Q264.1514,435.7007 262.8315,434.0489 Q261.5117,432.397 261.5117,429.2759 Q261.5117,426.1465 262.8315,424.4947 Q264.1514,422.8428 266.6582,422.8428 Q267.3638,422.8428 268.0112,422.9922 Q268.6587,423.1416 269.2231,423.4405 L269.2231,426.1631 Q268.5923,425.5821 267.9988,425.3123 Q267.4053,425.0425 266.7744,425.0425 Q265.4297,425.0425 264.7449,426.1092 Q264.0601,427.1758 264.0601,429.2759 Q264.0601,431.3677 264.7449,432.4344 Q265.4297,433.501 266.7744,433.501 Q267.4053,433.501 267.9988,433.2312 Q268.5923,432.9615 269.2231,432.3804 Z " fill="#000000"/><text fill="#000000" font-family="sans-serif" font-size="14" lengthAdjust="spacing" textLength="85" x="286.75" y="434.751">Repositories</text><line style="stroke:#181818;stroke-width:0.5;" x1="209.5" x2="416.5" y1="445.46" y2="445.46"/><line style="stroke:#181818;stroke-width:0.5;" x1="209.5" x2="416.5" y1="453.46" y2="453.46"/><text fill="#000000" font-family="sans-serif" font-size="14" lengthAdjust="spacing" textLength="103" x="214.5" y="470.9952">-Repositories()</text><text fill="#000000" font-family="sans-serif" font-size="14" lengthAdjust="spacing" textLength="197" x="214.5" y="487.4834">+getInstance() : Repositories</text><text fill="#000000" font-family="sans-serif" font-size="14" lengthAdjust="spacing" textLength="96" x="214.5" y="503.9717">+getAgenda()</text></g><!--class Agenda--><g id="elem_Agenda"><rect codeLine="39" fill="#F1F1F1" height="80.9766" id="Agenda" rx="2.5" ry="2.5" style="stroke:#181818;stroke-width:0.5;" width="253" x="46.5" y="612.66"/><ellipse cx="142.25" cy="628.66" fill="#ADD1B2" rx="11" ry="11" style="stroke:#181818;stroke-width:1.0;"/><path d="M145.2231,634.3031 Q144.6421,634.6019 144.0029,634.7513 Q143.3638,634.9007 142.6582,634.9007 Q140.1514,634.9007 138.8315,633.2489 Q137.5117,631.597 137.5117,628.4759 Q137.5117,625.3465 138.8315,623.6947 Q140.1514,622.0428 142.6582,622.0428 Q143.3638,622.0428 144.0112,622.1922 Q144.6587,622.3416 145.2231,622.6405 L145.2231,625.3631 Q144.5923,624.7821 143.9988,624.5123 Q143.4053,624.2425 142.7744,624.2425 Q141.4297,624.2425 140.7449,625.3092 Q140.0601,626.3758 140.0601,628.4759 Q140.0601,630.5677 140.7449,631.6344 Q141.4297,632.701 142.7744,632.701 Q143.4053,632.701 143.9988,632.4312 Q144.5923,632.1615 145.2231,631.5804 Z " fill="#000000"/><text fill="#000000" font-family="sans-serif" font-size="14" lengthAdjust="spacing" textLength="53" x="162.75" y="633.951">Agenda</text><line style="stroke:#181818;stroke-width:0.5;" x1="47.5" x2="298.5" y1="644.66" y2="644.66"/><line style="stroke:#181818;stroke-width:0.5;" x1="47.5" x2="298.5" y1="652.66" y2="652.66"/><text fill="#000000" font-family="sans-serif" font-size="14" lengthAdjust="spacing" textLength="172" x="52.5" y="670.1952">+assignVehicle(entryList)</text><text fill="#000000" font-family="sans-serif" font-size="14" lengthAdjust="spacing" textLength="241" x="52.5" y="686.6834">+validateEntryCancel(agendaEntry)</text></g><!--class EntryList--><g id="elem_EntryList"><rect codeLine="44" fill="#F1F1F1" height="64.4883" id="EntryList" rx="2.5" ry="2.5" style="stroke:#181818;stroke-width:0.5;" width="166" x="335" y="620.91"/><ellipse cx="384.75" cy="636.91" fill="#ADD1B2" rx="11" ry="11" style="stroke:#181818;stroke-width:1.0;"/><path d="M387.7231,642.5531 Q387.1421,642.8519 386.5029,643.0013 Q385.8638,643.1507 385.1582,643.1507 Q382.6514,643.1507 381.3315,641.4989 Q380.0117,639.847 380.0117,636.7259 Q380.0117,633.5965 381.3315,631.9447 Q382.6514,630.2928 385.1582,630.2928 Q385.8638,630.2928 386.5112,630.4422 Q387.1587,630.5916 387.7231,630.8905 L387.7231,633.6131 Q387.0923,633.0321 386.4988,632.7623 Q385.9053,632.4925 385.2744,632.4925 Q383.9297,632.4925 383.2449,633.5592 Q382.5601,634.6258 382.5601,636.7259 Q382.5601,638.8177 383.2449,639.8844 Q383.9297,640.951 385.2744,640.951 Q385.9053,640.951 386.4988,640.6812 Q387.0923,640.4115 387.7231,639.8304 Z " fill="#000000"/><text fill="#000000" font-family="sans-serif" font-size="14" lengthAdjust="spacing" textLength="58" x="405.25" y="642.201">EntryList</text><line style="stroke:#181818;stroke-width:0.5;" x1="336" x2="500" y1="652.91" y2="652.91"/><line style="stroke:#181818;stroke-width:0.5;" x1="336" x2="500" y1="660.91" y2="660.91"/><text fill="#000000" font-family="sans-serif" font-size="14" lengthAdjust="spacing" textLength="154" x="341" y="678.4452">+getAgendaEntryList()</text></g><!--class EntryListMapper--><g id="elem_EntryListMapper"><rect codeLine="82" fill="#F1F1F1" height="80.9766" id="EntryListMapper" rx="2.5" ry="2.5" style="stroke:#181818;stroke-width:0.5;" width="319" x="557.5" y="612.66"/><ellipse cx="657.75" cy="628.66" fill="#ADD1B2" rx="11" ry="11" style="stroke:#181818;stroke-width:1.0;"/><path d="M660.7231,634.3031 Q660.1421,634.6019 659.5029,634.7513 Q658.8638,634.9007 658.1582,634.9007 Q655.6514,634.9007 654.3315,633.2489 Q653.0117,631.597 653.0117,628.4759 Q653.0117,625.3465 654.3315,623.6947 Q655.6514,622.0428 658.1582,622.0428 Q658.8638,622.0428 659.5112,622.1922 Q660.1587,622.3416 660.7231,622.6405 L660.7231,625.3631 Q660.0923,624.7821 659.4988,624.5123 Q658.9053,624.2425 658.2744,624.2425 Q656.9297,624.2425 656.2449,625.3092 Q655.5601,626.3758 655.5601,628.4759 Q655.5601,630.5677 656.2449,631.6344 Q656.9297,632.701 658.2744,632.701 Q658.9053,632.701 659.4988,632.4312 Q660.0923,632.1615 660.7231,631.5804 Z " fill="#000000"/><text fill="#000000" font-family="sans-serif" font-size="14" lengthAdjust="spacing" textLength="110" x="678.25" y="633.951">EntryListMapper</text><line style="stroke:#181818;stroke-width:0.5;" x1="558.5" x2="875.5" y1="644.66" y2="644.66"/><line style="stroke:#181818;stroke-width:0.5;" x1="558.5" x2="875.5" y1="652.66" y2="652.66"/><text fill="#000000" font-family="sans-serif" font-size="14" lengthAdjust="spacing" textLength="307" x="563.5" y="670.1952">+EntryListToDto(entries) : List&lt;EntryListDto&gt;</text><text fill="#000000" font-family="sans-serif" font-size="14" lengthAdjust="spacing" textLength="217" x="563.5" y="686.6834">+toDTO(entryList) : entryListDto</text></g><!--class EntryListDto--><g id="elem_EntryListDto"><rect codeLine="90" fill="#F1F1F1" height="48" id="EntryListDto" rx="2.5" ry="2.5" style="stroke:#181818;stroke-width:0.5;" width="114" x="557" y="438.2"/><ellipse cx="572" cy="454.2" fill="#ADD1B2" rx="11" ry="11" style="stroke:#181818;stroke-width:1.0;"/><path d="M574.9731,459.8431 Q574.3921,460.1419 573.7529,460.2913 Q573.1138,460.4407 572.4082,460.4407 Q569.9014,460.4407 568.5815,458.7889 Q567.2617,457.137 567.2617,454.0159 Q567.2617,450.8865 568.5815,449.2347 Q569.9014,447.5828 572.4082,447.5828 Q573.1138,447.5828 573.7612,447.7322 Q574.4087,447.8816 574.9731,448.1805 L574.9731,450.9031 Q574.3423,450.3221 573.7488,450.0523 Q573.1553,449.7825 572.5244,449.7825 Q571.1797,449.7825 570.4949,450.8492 Q569.8101,451.9158 569.8101,454.0159 Q569.8101,456.1077 570.4949,457.1744 Q571.1797,458.241 572.5244,458.241 Q573.1553,458.241 573.7488,457.9712 Q574.3423,457.7015 574.9731,457.1204 Z " fill="#000000"/><text fill="#000000" font-family="sans-serif" font-size="14" lengthAdjust="spacing" textLength="82" x="586" y="459.491">EntryListDto</text><line style="stroke:#181818;stroke-width:0.5;" x1="558" x2="670" y1="470.2" y2="470.2"/><line style="stroke:#181818;stroke-width:0.5;" x1="558" x2="670" y1="478.2" y2="478.2"/></g><!--link AssignVehicleUI to AssignVehicleController--><g id="link_AssignVehicleUI_AssignVehicleController"><path codeLine="96" d="M858,89.16 C858,111.17 858,138.93 858,166.74 " fill="none" id="AssignVehicleUI-to-AssignVehicleController" style="stroke:#181818;stroke-width:1.0;stroke-dasharray:7.0,7.0;"/><polygon fill="#181818" points="858,172.74,862,163.74,858,167.74,854,163.74,858,172.74" style="stroke:#181818;stroke-width:1.0;"/></g><!--link Repositories to Repositories--><g id="link_Repositories_Repositories"><path codeLine="98" d="M417.94,446.6 C438.17,448.43 452.5,453.64 452.5,462.2 C452.5,470.76 444.1453,475.4165 423.9153,477.2565 " fill="none" id="Repositories-to-Repositories" style="stroke:#181818;stroke-width:1.0;"/><polygon fill="#181818" points="417.94,477.8,427.2653,480.9683,422.9194,477.3471,426.5407,473.0012,417.94,477.8" style="stroke:#181818;stroke-width:1.0;"/><text fill="#000000" font-family="sans-serif" font-size="13" lengthAdjust="spacing" textLength="53" x="458.5" y="467.2684">instance</text></g><!--link AssignVehicleController to Repositories--><g id="link_AssignVehicleController_Repositories"><path codeLine="99" d="M712.03,270.96 C628.83,298.45 541,327.46 541,327.46 C541,327.46 465.5359,371.7351 400.1659,410.0651 " fill="none" id="AssignVehicleController-to-Repositories" style="stroke:#181818;stroke-width:1.0;stroke-dasharray:7.0,7.0;"/><polygon fill="#181818" points="394.99,413.1,404.777,411.9982,399.3032,410.5709,400.7305,405.0971,394.99,413.1" style="stroke:#181818;stroke-width:1.0;"/><text fill="#000000" font-family="sans-serif" font-size="13" lengthAdjust="spacing" textLength="75" x="610" y="316.0284">repositories</text></g><!--link AssignVehicleController to EntryListMapper--><g id="link_AssignVehicleController_EntryListMapper"><path codeLine="100" d="M955.37,270.95 C989.27,287.74 1019,302.46 1019,302.46 C1019,302.46 1058,327.46 1058,327.46 C1058,327.46 1058,510.93 1058,510.93 C1058,510.93 1019,557.93 1019,557.93 C1019,557.93 881,569.66 881,569.66 C881,569.66 843.4199,588.5634 801.4799,609.6634 " fill="none" id="AssignVehicleController-to-EntryListMapper" style="stroke:#181818;stroke-width:1.0;stroke-dasharray:7.0,7.0;"/><polygon fill="#181818" points="796.12,612.36,805.9576,611.8884,800.5866,610.1129,802.3621,604.7419,796.12,612.36" style="stroke:#181818;stroke-width:1.0;"/><text fill="#000000" font-family="sans-serif" font-size="13" lengthAdjust="spacing" textLength="78" x="1059" y="467.2684">entryListDto</text></g><!--link Repositories to EntryList--><g id="link_Repositories_EntryList"><path codeLine="102" d="M339.77,511.37 C358.85,545.7 381.0355,585.6254 397.5955,615.4254 " fill="none" id="Repositories-to-EntryList" style="stroke:#181818;stroke-width:1.0;"/><polygon fill="#181818" points="400.51,620.67,399.6347,610.8601,398.0813,616.2995,392.6419,614.7461,400.51,620.67" style="stroke:#181818;stroke-width:1.0;"/><text fill="#000000" font-family="sans-serif" font-size="13" lengthAdjust="spacing" textLength="8" x="388.0777" y="610.0237">1</text></g><!--link AssignVehicleController to EntryList--><g id="link_AssignVehicleController_EntryList"><path codeLine="103" d="M847.69,270.65 C830.06,352.6 796,510.93 796,510.93 C796,510.93 767,557.93 767,557.93 C767,557.93 541,569.66 541,569.66 C541,569.66 504.8734,593.8885 470.1834,617.1485 " fill="none" id="AssignVehicleController-to-EntryList" style="stroke:#181818;stroke-width:1.0;stroke-dasharray:7.0,7.0;"/><polygon fill="#181818" points="465.2,620.49,474.9028,618.8001,469.3529,617.7055,470.4475,612.1555,465.2,620.49" style="stroke:#181818;stroke-width:1.0;"/><text fill="#000000" font-family="sans-serif" font-size="13" lengthAdjust="spacing" textLength="63" x="836" y="467.2684">listEntries</text></g><!--link AssignVehicleController to EntryList--><g id="link_AssignVehicleController_EntryList"><path codeLine="104" d="M880.95,270.81 C894.1,298.34 908,327.46 908,327.46 C908,327.46 908,510.93 908,510.93 C908,510.93 798,557.93 798,557.93 C798,557.93 541,569.66 541,569.66 C541,569.66 504.8734,593.8885 470.1834,617.1485 " fill="none" id="AssignVehicleController-to-EntryList-1" style="stroke:#181818;stroke-width:1.0;stroke-dasharray:7.0,7.0;"/><polygon fill="#181818" points="465.2,620.49,474.9028,618.8001,469.3529,617.7055,470.4475,612.1555,465.2,620.49" style="stroke:#181818;stroke-width:1.0;"/><text fill="#000000" font-family="sans-serif" font-size="13" lengthAdjust="spacing" textLength="55" x="909" y="467.2684">entryList</text></g><!--link EntryListDto to EntryListMapper--><g id="link_EntryListDto_EntryListMapper"><path codeLine="107" d="M626.63,486.37 C643.71,517.7 671.5681,568.8019 692.3981,607.0119 " fill="none" id="EntryListDto-to-EntryListMapper" style="stroke:#181818;stroke-width:1.0;stroke-dasharray:7.0,7.0;"/><polygon fill="#181818" points="695.27,612.28,694.4743,602.4633,692.8768,607.89,687.4502,606.2925,695.27,612.28" style="stroke:#181818;stroke-width:1.0;"/><text fill="#000000" font-family="sans-serif" font-size="13" lengthAdjust="spacing" textLength="78" x="666" y="554.4984">entryListDto</text></g><!--link Repositories to Agenda--><g id="link_Repositories_Agenda"><path codeLine="110" d="M277.31,511.37 C254.14,542.64 227.8819,578.0791 206.0619,607.5291 " fill="none" id="Repositories-to-Agenda" style="stroke:#181818;stroke-width:1.0;"/><polygon fill="#181818" points="202.49,612.35,211.0618,607.4999,205.4666,608.3326,204.6339,602.7373,202.49,612.35" style="stroke:#181818;stroke-width:1.0;"/><text fill="#000000" font-family="sans-serif" font-size="13" lengthAdjust="spacing" textLength="8" x="198.7118" y="601.9447">1</text></g><!--link AssignVehicleController to Agenda--><g id="link_AssignVehicleController_Agenda"><path codeLine="111" d="M804.29,270.81 C773.54,298.34 741,327.46 741,327.46 C741,327.46 719,557.93 719,557.93 C719,557.93 317,569.66 317,569.66 C317,569.66 284.4958,588.2768 247.6758,609.3768 " fill="none" id="AssignVehicleController-to-Agenda" style="stroke:#181818;stroke-width:1.0;stroke-dasharray:7.0,7.0;"/><polygon fill="#181818" points="242.47,612.36,252.2675,611.3557,246.8082,609.874,248.2899,604.4146,242.47,612.36" style="stroke:#181818;stroke-width:1.0;"/><text fill="#000000" font-family="sans-serif" font-size="13" lengthAdjust="spacing" textLength="45" x="742" y="467.2684">agenda</text></g><!--link Agenda to AgendaEntry--><g id="link_Agenda_AgendaEntry"><path codeLine="112" d="M262.56,694.09 C291.84,707.15 317,718.37 317,718.37 C317,718.37 647.2908,779.6948 885.1508,823.8548 " fill="none" id="Agenda-to-AgendaEntry" style="stroke:#181818;stroke-width:1.0;"/><polygon fill="#181818" points="891.05,824.95,882.9314,819.3744,886.134,824.0373,881.4711,827.24,891.05,824.95" style="stroke:#181818;stroke-width:1.0;"/><text fill="#000000" font-family="sans-serif" font-size="13" lengthAdjust="spacing" textLength="22" x="555" y="761.9384">has</text></g><!--link GreenSpace to AgendaEntry--><g id="link_GreenSpace_AgendaEntry"><path codeLine="113" d="M1209.5,702.37 C1195.05,729.7 1182.2894,753.8318 1166.1194,784.4118 " fill="none" id="GreenSpace-to-AgendaEntry" style="stroke:#181818;stroke-width:1.0;"/><polygon fill="none" points="1160.51,795.02,1166.8508,791.5857,1166.1194,784.4118,1159.7786,787.8461,1160.51,795.02" style="stroke:#181818;stroke-width:1.0;"/><text fill="#000000" font-family="sans-serif" font-size="13" lengthAdjust="spacing" textLength="22" x="1182" y="761.9384">has</text></g><!--link Task to AgendaEntry--><g id="link_Task_AgendaEntry"><path codeLine="114" d="M1400.2,718.84 C1355.36,742.86 1314.7789,764.5954 1268.6689,789.2854 " fill="none" id="Task-to-AgendaEntry" style="stroke:#181818;stroke-width:1.0;"/><polygon fill="none" points="1258.09,794.95,1265.2676,795.644,1268.6689,789.2854,1261.4913,788.5914,1258.09,794.95" style="stroke:#181818;stroke-width:1.0;"/><text fill="#000000" font-family="sans-serif" font-size="13" lengthAdjust="spacing" textLength="22" x="1334" y="761.9384">has</text></g><!--link Entry to AgendaEntry--><g id="link_Entry_AgendaEntry"><path codeLine="116" d="M1029.31,694.09 C1044.45,722.48 1056.7465,745.5292 1074.7865,779.3392 " fill="none" id="Entry-to-AgendaEntry" style="stroke:#181818;stroke-width:1.0;"/><polygon fill="none" points="1083.26,795.22,1080.0801,776.5147,1069.4929,782.1637,1083.26,795.22" style="stroke:#181818;stroke-width:1.0;"/><text fill="#000000" font-family="sans-serif" font-size="13" lengthAdjust="spacing" textLength="50" x="1066" y="761.9384">extends</text></g><!--SRC=[ZLLTRzem57tthx3eGuCQgkqLLKXLwIQaJPK6tRkRt0OBOqUsOMFT_lkk7STn0hH4I8dln_6vnxuNi-6oPffjQSsA3QjWQGy2g8R2Cba982O6c3KhrIykA_hAX4azWakmXnfehSJ1BSZr2QVILf4agn3Cc7jhDN_PMLWKIYxv7w2V2BaMy6gfLLJpQcrfoHqThYGXWIGTFIz6zExkYn8bwDcCNitzGzy8yR3qtXXUoP-mveM0vmKw_X7tYm0FIbgjX01z1kW4JfU3VehFpJb_1lXr-CQDpIbk9qis3WaiJJ0hTU-zZouyOzttEAVx9gPDhC0ciGuw6m-Bcgiju_ASCZ7i1zJASAlquNqHOnm74ogUz8nPGcuX3LwP0h8ndVQ2XlmnoP5k1VQsg6TFdax5Tfyz4xna5hm63suxqLFD0JUuKQMtZ_LBCcAPbfaD5hB2Lx1K6a0kKKH0-zUuw00I-1O69T5sZeGnnRqQAuOTsJ3IxWoQGEws3UL2GrjgvkZa2OMSHkYS1ZmdVCAX0Uafvi_cHIa1J3PkXxiirb3kH7DoUyNBhgIkp2YCP5l7V8bzAwjWOyWKRQNQlGW8UdUfcKl9VL1oG4xP25g2AJIlNPCFiItWhC23m5UmXCPmOhbZl0ktPTPYxJGBG57U6xzTbcoJU-3OPIQFUPuZIThbEwlh3yP4l5DDR7kTetcbvbRvwumDCMw9HpSwP-4yr7prbDnxVo6wgAE6NprTnWjpsn58XhFnzdPsReuHqfi1ayciFnIcb8Us9-ScfKCVvEXqEhoNDvHr8COHkT7dKPTp6J9Y2dmzDaTpSKxaWNgc8bz4-rXKHxnftNSPX64v3Vyf9AmTGZfyfdJD34bwTp9H9m9y1vvsDJMXy-yG6NvRN1ho7m00]--></g></svg>