<?xml version="1.0" encoding="us-ascii" standalone="no"?><svg xmlns="http://www.w3.org/2000/svg" xmlns:xlink="http://www.w3.org/1999/xlink" contentStyleType="text/css" height="380px" preserveAspectRatio="none" style="width:335px;height:380px;background:#FFFFFF;" version="1.1" viewBox="0 0 335 380" width="335px" zoomAndPan="magnify"><defs/><g><rect fill="#FFFFFF" height="224.4063" style="stroke:#181818;stroke-width:1.0;" width="10" x="140" y="90.5332"/><rect fill="#FFFFFF" height="96.582" style="stroke:#181818;stroke-width:1.0;" width="10" x="145" y="218.3574"/><rect fill="#FFFFFF" height="43.291" style="stroke:#181818;stroke-width:1.0;" width="10" x="150" y="262.6484"/><rect fill="none" height="170.1152" style="stroke:#000000;stroke-width:1.5;" width="244.5" x="84.5" y="105.5332"/><line style="stroke:#181818;stroke-width:0.5;stroke-dasharray:5.0,5.0;" x1="144.5" x2="144.5" y1="57.2422" y2="323.9395"/><line style="stroke:#181818;stroke-width:0.5;stroke-dasharray:5.0,5.0;" x1="299" x2="299" y1="165.9453" y2="323.9395"/><rect fill="#E3E3E3" height="32.6211" rx="2.5" ry="2.5" style="stroke:#181818;stroke-width:0.5;" width="101" x="94.5" y="23.6211"/><text fill="#000000" font-family="sans-serif" font-size="14" lengthAdjust="spacing" textLength="87" x="101.5" y="45.7285">jobRepository</text><rect fill="#E3E3E3" height="32.6211" rx="2.5" ry="2.5" style="stroke:#181818;stroke-width:0.5;" width="101" x="94.5" y="322.9395"/><text fill="#000000" font-family="sans-serif" font-size="14" lengthAdjust="spacing" textLength="87" x="101.5" y="345.0469">jobRepository</text><rect fill="#E3E3E3" height="51.2422" rx="2.5" ry="2.5" style="stroke:#181818;stroke-width:0.5;" width="40" x="279" y="322.9395"/><text fill="#000000" font-family="sans-serif" font-size="14" lengthAdjust="spacing" textLength="19" x="289.5" y="345.0469">job</text><text fill="#000000" font-family="sans-serif" font-size="14" lengthAdjust="spacing" textLength="26" x="286" y="363.668">:Job</text><rect fill="#FFFFFF" height="224.4063" style="stroke:#181818;stroke-width:1.0;" width="10" x="140" y="90.5332"/><rect fill="#FFFFFF" height="96.582" style="stroke:#181818;stroke-width:1.0;" width="10" x="145" y="218.3574"/><rect fill="#FFFFFF" height="43.291" style="stroke:#181818;stroke-width:1.0;" width="10" x="150" y="262.6484"/><polygon fill="#181818" points="128,86.5332,138,90.5332,128,94.5332,132,90.5332" style="stroke:#181818;stroke-width:1.0;"/><line style="stroke:#181818;stroke-width:1.0;" x1="0" x2="134" y1="90.5332" y2="90.5332"/><text fill="#000000" font-family="sans-serif" font-size="13" font-weight="bold" lengthAdjust="spacing" textLength="14" x="7" y="85.2705">11</text><text fill="#000000" font-family="sans-serif" font-size="13" lengthAdjust="spacing" textLength="103" x="25" y="85.2705">registerJob(name)</text><path d="M84.5,105.5332 L208.5,105.5332 L208.5,114.8242 L198.5,124.8242 L84.5,124.8242 L84.5,105.5332 " fill="#EEEEEE" style="stroke:#000000;stroke-width:1.5;"/><rect fill="none" height="170.1152" style="stroke:#000000;stroke-width:1.5;" width="244.5" x="84.5" y="105.5332"/><text fill="#000000" font-family="sans-serif" font-size="13" font-weight="bold" lengthAdjust="spacing" textLength="79" x="99.5" y="120.5615">Register Job</text><polygon fill="#181818" points="267,144.1152,277,148.1152,267,152.1152,271,148.1152" style="stroke:#181818;stroke-width:1.0;"/><line style="stroke:#181818;stroke-width:1.0;" x1="150" x2="273" y1="148.1152" y2="148.1152"/><text fill="#000000" font-family="sans-serif" font-size="13" font-weight="bold" lengthAdjust="spacing" textLength="18" x="157" y="142.8525">7.1</text><text fill="#000000" font-family="sans-serif" font-size="13" lengthAdjust="spacing" textLength="83" x="179" y="142.8525">register(name)</text><rect fill="#E3E3E3" height="51.2422" rx="2.5" ry="2.5" style="stroke:#181818;stroke-width:0.5;" width="40" x="279" y="124.8242"/><text fill="#000000" font-family="sans-serif" font-size="14" lengthAdjust="spacing" textLength="19" x="289.5" y="146.9316">job</text><text fill="#000000" font-family="sans-serif" font-size="14" lengthAdjust="spacing" textLength="26" x="286" y="165.5527">:Job</text><line style="stroke:#181818;stroke-width:1.0;" x1="150" x2="197" y1="205.3574" y2="205.3574"/><line style="stroke:#181818;stroke-width:1.0;" x1="197" x2="197" y1="205.3574" y2="218.3574"/><line style="stroke:#181818;stroke-width:1.0;" x1="156" x2="197" y1="218.3574" y2="218.3574"/><polygon fill="#181818" points="166,214.3574,156,218.3574,166,222.3574,162,218.3574" style="stroke:#181818;stroke-width:1.0;"/><text fill="#000000" font-family="sans-serif" font-size="13" font-weight="bold" lengthAdjust="spacing" textLength="18" x="162" y="200.0947">7.2</text><text fill="#000000" font-family="sans-serif" font-size="13" lengthAdjust="spacing" textLength="66" x="184" y="200.0947">addJob(job)</text><line style="stroke:#181818;stroke-width:1.0;" x1="155" x2="202" y1="249.6484" y2="249.6484"/><line style="stroke:#181818;stroke-width:1.0;" x1="202" x2="202" y1="249.6484" y2="262.6484"/><line style="stroke:#181818;stroke-width:1.0;" x1="161" x2="202" y1="262.6484" y2="262.6484"/><polygon fill="#181818" points="171,258.6484,161,262.6484,171,266.6484,167,262.6484" style="stroke:#181818;stroke-width:1.0;"/><text fill="#000000" font-family="sans-serif" font-size="13" font-weight="bold" lengthAdjust="spacing" textLength="18" x="167" y="244.3857">7.3</text><text fill="#000000" font-family="sans-serif" font-size="13" lengthAdjust="spacing" textLength="88" x="189" y="244.3857">validateJob(job)</text><polygon fill="#181818" points="11,301.9395,1,305.9395,11,309.9395,7,305.9395" style="stroke:#181818;stroke-width:1.0;"/><line style="stroke:#181818;stroke-width:1.0;stroke-dasharray:2.0,2.0;" x1="5" x2="139" y1="305.9395" y2="305.9395"/><text fill="#000000" font-family="sans-serif" font-size="13" font-weight="bold" lengthAdjust="spacing" textLength="7" x="17" y="300.6768">8</text><text fill="#000000" font-family="sans-serif" font-size="13" lengthAdjust="spacing" textLength="17" x="28" y="300.6768">job</text><!--SRC=[TOy_JmCn3CNtV0gh4rGwf9j09yI0nD85TAmiJcBIj9SuId95_VQaNFe7hdYox9_VUqvRwmD6TE3Oirf7TWGvZYJIQHDGRT7GUzuF195KHc-6Io2jKVENzGO-SKWaH1bdgsn0ds6nOTbJu6Gpn_q2CC7gzRb_UPjH7xvRiPm8baBWcDcFJbA4jXNDKxthIWPZKwPOg1kFZcv_iVTthK2LxGup7QsWb8ay1kZhxMG1jIOC3XuibykpHTM_mjKigFKXHeb_flwwdnRN9NOuM5tmcSw_MkJrr5oy_V0pU6oQeqC7HKnecYby0m00]--></g></svg>