<?xml version="1.0" encoding="us-ascii" standalone="no"?><svg xmlns="http://www.w3.org/2000/svg" xmlns:xlink="http://www.w3.org/1999/xlink" contentStyleType="text/css" height="380px" preserveAspectRatio="none" style="width:396px;height:380px;background:#FFFFFF;" version="1.1" viewBox="0 0 396 380" width="396px" zoomAndPan="magnify"><defs/><g><rect fill="#FFFFFF" height="224.4063" style="stroke:#181818;stroke-width:1.0;" width="10" x="167" y="90.5332"/><rect fill="#FFFFFF" height="96.582" style="stroke:#181818;stroke-width:1.0;" width="10" x="172" y="218.3574"/><rect fill="#FFFFFF" height="43.291" style="stroke:#181818;stroke-width:1.0;" width="10" x="177" y="262.6484"/><rect fill="none" height="170.1152" style="stroke:#000000;stroke-width:1.5;" width="277" x="113" y="105.5332"/><line style="stroke:#181818;stroke-width:0.5;stroke-dasharray:5.0,5.0;" x1="172" x2="172" y1="57.2422" y2="323.9395"/><line style="stroke:#181818;stroke-width:0.5;stroke-dasharray:5.0,5.0;" x1="360" x2="360" y1="165.9453" y2="323.9395"/><rect fill="#E3E3E3" height="51.2422" rx="2.5" ry="2.5" style="stroke:#181818;stroke-width:0.5;" width="98" x="123" y="5"/><text fill="#000000" font-family="sans-serif" font-size="14" lengthAdjust="spacing" textLength="77" x="133.5" y="27.1074">organization</text><text fill="#000000" font-family="sans-serif" font-size="14" lengthAdjust="spacing" textLength="84" x="130" y="45.7285">:Organization</text><rect fill="#E3E3E3" height="51.2422" rx="2.5" ry="2.5" style="stroke:#181818;stroke-width:0.5;" width="98" x="123" y="322.9395"/><text fill="#000000" font-family="sans-serif" font-size="14" lengthAdjust="spacing" textLength="77" x="133.5" y="345.0469">organization</text><text fill="#000000" font-family="sans-serif" font-size="14" lengthAdjust="spacing" textLength="84" x="130" y="363.668">:Organization</text><rect fill="#E3E3E3" height="51.2422" rx="2.5" ry="2.5" style="stroke:#181818;stroke-width:0.5;" width="40" x="340" y="322.9395"/><text fill="#000000" font-family="sans-serif" font-size="14" lengthAdjust="spacing" textLength="19" x="350.5" y="345.0469">job</text><text fill="#000000" font-family="sans-serif" font-size="14" lengthAdjust="spacing" textLength="26" x="347" y="363.668">:Job</text><rect fill="#FFFFFF" height="224.4063" style="stroke:#181818;stroke-width:1.0;" width="10" x="167" y="90.5332"/><rect fill="#FFFFFF" height="96.582" style="stroke:#181818;stroke-width:1.0;" width="10" x="172" y="218.3574"/><rect fill="#FFFFFF" height="43.291" style="stroke:#181818;stroke-width:1.0;" width="10" x="177" y="262.6484"/><polygon fill="#181818" points="155,86.5332,165,90.5332,155,94.5332,159,90.5332" style="stroke:#181818;stroke-width:1.0;"/><line style="stroke:#181818;stroke-width:1.0;" x1="0" x2="161" y1="90.5332" y2="90.5332"/><text fill="#000000" font-family="sans-serif" font-size="13" font-weight="bold" lengthAdjust="spacing" textLength="7" x="7" y="85.2705">7</text><text fill="#000000" font-family="sans-serif" font-size="13" lengthAdjust="spacing" textLength="137" x="18" y="85.2705">registerJob(designation)</text><path d="M113,105.5332 L237,105.5332 L237,114.8242 L227,124.8242 L113,124.8242 L113,105.5332 " fill="#EEEEEE" style="stroke:#000000;stroke-width:1.5;"/><rect fill="none" height="170.1152" style="stroke:#000000;stroke-width:1.5;" width="277" x="113" y="105.5332"/><text fill="#000000" font-family="sans-serif" font-size="13" font-weight="bold" lengthAdjust="spacing" textLength="79" x="128" y="120.5615">Register Job</text><polygon fill="#181818" points="328,144.1152,338,148.1152,328,152.1152,332,148.1152" style="stroke:#181818;stroke-width:1.0;"/><line style="stroke:#181818;stroke-width:1.0;" x1="177" x2="334" y1="148.1152" y2="148.1152"/><text fill="#000000" font-family="sans-serif" font-size="13" font-weight="bold" lengthAdjust="spacing" textLength="18" x="184" y="142.8525">7.1</text><text fill="#000000" font-family="sans-serif" font-size="13" lengthAdjust="spacing" textLength="117" x="206" y="142.8525">register(designation)</text><rect fill="#E3E3E3" height="51.2422" rx="2.5" ry="2.5" style="stroke:#181818;stroke-width:0.5;" width="40" x="340" y="124.8242"/><text fill="#000000" font-family="sans-serif" font-size="14" lengthAdjust="spacing" textLength="19" x="350.5" y="146.9316">job</text><text fill="#000000" font-family="sans-serif" font-size="14" lengthAdjust="spacing" textLength="26" x="347" y="165.5527">:Job</text><line style="stroke:#181818;stroke-width:1.0;" x1="177" x2="224" y1="205.3574" y2="205.3574"/><line style="stroke:#181818;stroke-width:1.0;" x1="224" x2="224" y1="205.3574" y2="218.3574"/><line style="stroke:#181818;stroke-width:1.0;" x1="183" x2="224" y1="218.3574" y2="218.3574"/><polygon fill="#181818" points="193,214.3574,183,218.3574,193,222.3574,189,218.3574" style="stroke:#181818;stroke-width:1.0;"/><text fill="#000000" font-family="sans-serif" font-size="13" font-weight="bold" lengthAdjust="spacing" textLength="18" x="189" y="200.0947">7.2</text><text fill="#000000" font-family="sans-serif" font-size="13" lengthAdjust="spacing" textLength="66" x="211" y="200.0947">addJob(job)</text><line style="stroke:#181818;stroke-width:1.0;" x1="182" x2="229" y1="249.6484" y2="249.6484"/><line style="stroke:#181818;stroke-width:1.0;" x1="229" x2="229" y1="249.6484" y2="262.6484"/><line style="stroke:#181818;stroke-width:1.0;" x1="188" x2="229" y1="262.6484" y2="262.6484"/><polygon fill="#181818" points="198,258.6484,188,262.6484,198,266.6484,194,262.6484" style="stroke:#181818;stroke-width:1.0;"/><text fill="#000000" font-family="sans-serif" font-size="13" font-weight="bold" lengthAdjust="spacing" textLength="18" x="194" y="244.3857">7.3</text><text fill="#000000" font-family="sans-serif" font-size="13" lengthAdjust="spacing" textLength="88" x="216" y="244.3857">validateJob(job)</text><polygon fill="#181818" points="11,301.9395,1,305.9395,11,309.9395,7,305.9395" style="stroke:#181818;stroke-width:1.0;"/><line style="stroke:#181818;stroke-width:1.0;stroke-dasharray:2.0,2.0;" x1="5" x2="166" y1="305.9395" y2="305.9395"/><text fill="#000000" font-family="sans-serif" font-size="13" font-weight="bold" lengthAdjust="spacing" textLength="7" x="17" y="300.6768">8</text><text fill="#000000" font-family="sans-serif" font-size="13" lengthAdjust="spacing" textLength="17" x="28" y="300.6768">job</text><!--SRC=[ROzDJyCm38Rl-HNMJcnIaJY1AiGLQPT9uyh5RKmMrjfLuWx1hyVBfgqTv1B5VjwFv7ta0HFsq0jBkqlI4sWQoUNBPi1sZu7UzBiZIDGgSkYcGDwXbw_80Jwmo-ISZJMsSK1MM4WAoF47DGg_SxsPF1U06JRRrxdWKnhZrjAKjTtEuQZ2OzzGWaTNlHmrjLK9CIib8-uyvHYuc2xd-Fs3mrRZ0PLA5DW9ISO1jcVzAGBEnnYm19kjLjUCUS0DMzgWzySYLdvvDVkJ_9_oW5tq1btaK_36eUo8_IbYyi-dCdYkgc9TWnavJpEr-mK0]--></g></svg>