<?xml version="1.0" encoding="us-ascii" standalone="no"?><svg xmlns="http://www.w3.org/2000/svg" xmlns:xlink="http://www.w3.org/1999/xlink" contentStyleType="text/css" height="812px" preserveAspectRatio="none" style="width:1017px;height:812px;background:#FFFFFF;" version="1.1" viewBox="0 0 1017 812" width="1017px" zoomAndPan="magnify"><defs/><g><rect fill="#FFFFFF" height="580.8984" style="stroke:#181818;stroke-width:1.0;" width="10" x="61" y="112.2422"/><rect fill="#FFFFFF" height="31.291" style="stroke:#181818;stroke-width:1.0;" width="10" x="271" y="135.5332"/><rect fill="#FFFFFF" height="31.291" style="stroke:#181818;stroke-width:1.0;" width="10" x="271" y="198.1152"/><rect fill="#FFFFFF" height="432.4434" style="stroke:#181818;stroke-width:1.0;" width="10" x="271" y="260.6973"/><rect fill="#FFFFFF" height="369.8613" style="stroke:#181818;stroke-width:1.0;" width="10" x="414" y="291.9883"/><rect fill="#FFFFFF" height="31.291" style="stroke:#181818;stroke-width:1.0;" width="10" x="548" y="323.2793"/><rect fill="#FFFFFF" height="31.291" style="stroke:#181818;stroke-width:1.0;" width="10" x="690" y="385.8613"/><rect fill="#FFFFFF" height="182.1152" style="stroke:#181818;stroke-width:1.0;" width="10" x="836" y="448.4434"/><rect fill="#FFFFFF" height="80.582" style="stroke:#181818;stroke-width:1.0;" width="10" x="841" y="549.9766"/><rect fill="#FFFFFF" height="36.291" style="stroke:#181818;stroke-width:1.0;" width="10" x="846" y="594.2676"/><line style="stroke:#181818;stroke-width:0.5;stroke-dasharray:5.0,5.0;" x1="66" x2="66" y1="102.2422" y2="711.1406"/><line style="stroke:#181818;stroke-width:0.5;stroke-dasharray:5.0,5.0;" x1="275.5" x2="275.5" y1="102.2422" y2="711.1406"/><line style="stroke:#181818;stroke-width:0.5;stroke-dasharray:5.0,5.0;" x1="418.5" x2="418.5" y1="102.2422" y2="711.1406"/><line style="stroke:#181818;stroke-width:0.5;stroke-dasharray:5.0,5.0;" x1="552.5" x2="552.5" y1="102.2422" y2="711.1406"/><line style="stroke:#181818;stroke-width:0.5;stroke-dasharray:5.0,5.0;" x1="694.5" x2="694.5" y1="102.2422" y2="711.1406"/><line style="stroke:#181818;stroke-width:0.5;stroke-dasharray:5.0,5.0;" x1="840.5" x2="840.5" y1="102.2422" y2="711.1406"/><line style="stroke:#181818;stroke-width:0.5;stroke-dasharray:5.0,5.0;" x1="991" x2="991" y1="497.5645" y2="711.1406"/><text fill="#000000" font-family="sans-serif" font-size="14" lengthAdjust="spacing" textLength="116" x="5" y="80.1074">Human Resources</text><text fill="#000000" font-family="sans-serif" font-size="14" lengthAdjust="spacing" textLength="56" x="37" y="98.7285">Manager</text><ellipse cx="66" cy="13.5" fill="#E3E3E3" rx="8" ry="8" style="stroke:#181818;stroke-width:0.5;"/><path d="M66,21.5 L66,48.5 M53,29.5 L79,29.5 M66,48.5 L53,63.5 M66,48.5 L79,63.5 " fill="none" style="stroke:#181818;stroke-width:0.5;"/><text fill="#000000" font-family="sans-serif" font-size="14" lengthAdjust="spacing" textLength="116" x="5" y="725.248">Human Resources</text><text fill="#000000" font-family="sans-serif" font-size="14" lengthAdjust="spacing" textLength="56" x="37" y="743.8691">Manager</text><ellipse cx="66" cy="755.8828" fill="#E3E3E3" rx="8" ry="8" style="stroke:#181818;stroke-width:0.5;"/><path d="M66,763.8828 L66,790.8828 M53,771.8828 L79,771.8828 M66,790.8828 L53,805.8828 M66,790.8828 L79,805.8828 " fill="none" style="stroke:#181818;stroke-width:0.5;"/><rect fill="#E3E3E3" height="32.6211" rx="2.5" ry="2.5" style="stroke:#181818;stroke-width:0.5;" width="105" x="223.5" y="68.6211"/><text fill="#000000" font-family="sans-serif" font-size="14" lengthAdjust="spacing" textLength="91" x="230.5" y="90.7285">:RegisterJobUI</text><rect fill="#E3E3E3" height="32.6211" rx="2.5" ry="2.5" style="stroke:#181818;stroke-width:0.5;" width="105" x="223.5" y="710.1406"/><text fill="#000000" font-family="sans-serif" font-size="14" lengthAdjust="spacing" textLength="91" x="230.5" y="732.248">:RegisterJobUI</text><rect fill="#E3E3E3" height="32.6211" rx="2.5" ry="2.5" style="stroke:#181818;stroke-width:0.5;" width="155" x="341.5" y="68.6211"/><text fill="#000000" font-family="sans-serif" font-size="14" lengthAdjust="spacing" textLength="141" x="348.5" y="90.7285">:RegisterJobController</text><rect fill="#E3E3E3" height="32.6211" rx="2.5" ry="2.5" style="stroke:#181818;stroke-width:0.5;" width="155" x="341.5" y="710.1406"/><text fill="#000000" font-family="sans-serif" font-size="14" lengthAdjust="spacing" textLength="141" x="348.5" y="732.248">:RegisterJobController</text><rect fill="#E3E3E3" height="32.6211" rx="2.5" ry="2.5" style="stroke:#181818;stroke-width:0.5;" width="93" x="506.5" y="68.6211"/><text fill="#000000" font-family="sans-serif" font-size="14" lengthAdjust="spacing" textLength="79" x="513.5" y="90.7285">Repositories</text><rect fill="#E3E3E3" height="32.6211" rx="2.5" ry="2.5" style="stroke:#181818;stroke-width:0.5;" width="93" x="506.5" y="710.1406"/><text fill="#000000" font-family="sans-serif" font-size="14" lengthAdjust="spacing" textLength="79" x="513.5" y="732.248">Repositories</text><rect fill="#E3E3E3" height="32.6211" rx="2.5" ry="2.5" style="stroke:#181818;stroke-width:0.5;" width="171" x="609.5" y="68.6211"/><text fill="#000000" font-family="sans-serif" font-size="14" lengthAdjust="spacing" textLength="157" x="616.5" y="90.7285">repositories:Repositories</text><rect fill="#E3E3E3" height="32.6211" rx="2.5" ry="2.5" style="stroke:#181818;stroke-width:0.5;" width="171" x="609.5" y="710.1406"/><text fill="#000000" font-family="sans-serif" font-size="14" lengthAdjust="spacing" textLength="157" x="616.5" y="732.248">repositories:Repositories</text><rect fill="#E3E3E3" height="32.6211" rx="2.5" ry="2.5" style="stroke:#181818;stroke-width:0.5;" width="101" x="790.5" y="68.6211"/><text fill="#000000" font-family="sans-serif" font-size="14" lengthAdjust="spacing" textLength="87" x="797.5" y="90.7285">jobRepository</text><rect fill="#E3E3E3" height="32.6211" rx="2.5" ry="2.5" style="stroke:#181818;stroke-width:0.5;" width="101" x="790.5" y="710.1406"/><text fill="#000000" font-family="sans-serif" font-size="14" lengthAdjust="spacing" textLength="87" x="797.5" y="732.248">jobRepository</text><rect fill="#E3E3E3" height="51.2422" rx="2.5" ry="2.5" style="stroke:#181818;stroke-width:0.5;" width="40" x="971" y="710.1406"/><text fill="#000000" font-family="sans-serif" font-size="14" lengthAdjust="spacing" textLength="19" x="981.5" y="732.248">job</text><text fill="#000000" font-family="sans-serif" font-size="14" lengthAdjust="spacing" textLength="26" x="978" y="750.8691">:Job</text><rect fill="#FFFFFF" height="580.8984" style="stroke:#181818;stroke-width:1.0;" width="10" x="61" y="112.2422"/><rect fill="#FFFFFF" height="31.291" style="stroke:#181818;stroke-width:1.0;" width="10" x="271" y="135.5332"/><rect fill="#FFFFFF" height="31.291" style="stroke:#181818;stroke-width:1.0;" width="10" x="271" y="198.1152"/><rect fill="#FFFFFF" height="432.4434" style="stroke:#181818;stroke-width:1.0;" width="10" x="271" y="260.6973"/><rect fill="#FFFFFF" height="369.8613" style="stroke:#181818;stroke-width:1.0;" width="10" x="414" y="291.9883"/><rect fill="#FFFFFF" height="31.291" style="stroke:#181818;stroke-width:1.0;" width="10" x="548" y="323.2793"/><rect fill="#FFFFFF" height="31.291" style="stroke:#181818;stroke-width:1.0;" width="10" x="690" y="385.8613"/><rect fill="#FFFFFF" height="182.1152" style="stroke:#181818;stroke-width:1.0;" width="10" x="836" y="448.4434"/><rect fill="#FFFFFF" height="80.582" style="stroke:#181818;stroke-width:1.0;" width="10" x="841" y="549.9766"/><rect fill="#FFFFFF" height="36.291" style="stroke:#181818;stroke-width:1.0;" width="10" x="846" y="594.2676"/><polygon fill="#181818" points="259,131.5332,269,135.5332,259,139.5332,263,135.5332" style="stroke:#181818;stroke-width:1.0;"/><line style="stroke:#181818;stroke-width:1.0;" x1="71" x2="265" y1="135.5332" y2="135.5332"/><text fill="#000000" font-family="sans-serif" font-size="13" font-weight="bold" lengthAdjust="spacing" textLength="7" x="78" y="130.2705">1</text><text fill="#000000" font-family="sans-serif" font-size="13" lengthAdjust="spacing" textLength="142" x="89" y="130.2705">asks to create a new job</text><polygon fill="#181818" points="82,162.8242,72,166.8242,82,170.8242,78,166.8242" style="stroke:#181818;stroke-width:1.0;"/><line style="stroke:#181818;stroke-width:1.0;stroke-dasharray:2.0,2.0;" x1="76" x2="275" y1="166.8242" y2="166.8242"/><text fill="#000000" font-family="sans-serif" font-size="13" font-weight="bold" lengthAdjust="spacing" textLength="7" x="88" y="161.5615">2</text><text fill="#000000" font-family="sans-serif" font-size="13" lengthAdjust="spacing" textLength="86" x="99" y="161.5615">requests name</text><polygon fill="#181818" points="259,194.1152,269,198.1152,259,202.1152,263,198.1152" style="stroke:#181818;stroke-width:1.0;"/><line style="stroke:#181818;stroke-width:1.0;" x1="71" x2="265" y1="198.1152" y2="198.1152"/><text fill="#000000" font-family="sans-serif" font-size="13" font-weight="bold" lengthAdjust="spacing" textLength="7" x="78" y="192.8525">3</text><text fill="#000000" font-family="sans-serif" font-size="13" lengthAdjust="spacing" textLength="129" x="89" y="192.8525">types requested name</text><polygon fill="#181818" points="82,225.4063,72,229.4063,82,233.4063,78,229.4063" style="stroke:#181818;stroke-width:1.0;"/><line style="stroke:#181818;stroke-width:1.0;stroke-dasharray:2.0,2.0;" x1="76" x2="275" y1="229.4063" y2="229.4063"/><text fill="#000000" font-family="sans-serif" font-size="13" font-weight="bold" lengthAdjust="spacing" textLength="7" x="88" y="224.1436">4</text><text fill="#000000" font-family="sans-serif" font-size="13" lengthAdjust="spacing" textLength="124" x="99" y="224.1436">requests confirmation</text><polygon fill="#181818" points="259,256.6973,269,260.6973,259,264.6973,263,260.6973" style="stroke:#181818;stroke-width:1.0;"/><line style="stroke:#181818;stroke-width:1.0;" x1="71" x2="265" y1="260.6973" y2="260.6973"/><text fill="#000000" font-family="sans-serif" font-size="13" font-weight="bold" lengthAdjust="spacing" textLength="7" x="78" y="255.4346">5</text><text fill="#000000" font-family="sans-serif" font-size="13" lengthAdjust="spacing" textLength="49" x="89" y="255.4346">confirms</text><polygon fill="#181818" points="402,287.9883,412,291.9883,402,295.9883,406,291.9883" style="stroke:#181818;stroke-width:1.0;"/><line style="stroke:#181818;stroke-width:1.0;" x1="281" x2="408" y1="291.9883" y2="291.9883"/><text fill="#000000" font-family="sans-serif" font-size="13" font-weight="bold" lengthAdjust="spacing" textLength="7" x="288" y="286.7256">6</text><text fill="#000000" font-family="sans-serif" font-size="13" lengthAdjust="spacing" textLength="103" x="299" y="286.7256">registerJob(name)</text><polygon fill="#181818" points="536,319.2793,546,323.2793,536,327.2793,540,323.2793" style="stroke:#181818;stroke-width:1.0;"/><line style="stroke:#181818;stroke-width:1.0;" x1="424" x2="542" y1="323.2793" y2="323.2793"/><text fill="#000000" font-family="sans-serif" font-size="13" font-weight="bold" lengthAdjust="spacing" textLength="7" x="431" y="318.0166">7</text><text fill="#000000" font-family="sans-serif" font-size="13" lengthAdjust="spacing" textLength="75" x="442" y="318.0166">getInstance()</text><polygon fill="#181818" points="435,350.5703,425,354.5703,435,358.5703,431,354.5703" style="stroke:#181818;stroke-width:1.0;"/><line style="stroke:#181818;stroke-width:1.0;stroke-dasharray:2.0,2.0;" x1="429" x2="552" y1="354.5703" y2="354.5703"/><text fill="#000000" font-family="sans-serif" font-size="13" font-weight="bold" lengthAdjust="spacing" textLength="7" x="441" y="349.3076">8</text><text fill="#000000" font-family="sans-serif" font-size="13" lengthAdjust="spacing" textLength="67" x="452" y="349.3076">repositories</text><polygon fill="#181818" points="678,381.8613,688,385.8613,678,389.8613,682,385.8613" style="stroke:#181818;stroke-width:1.0;"/><line style="stroke:#181818;stroke-width:1.0;" x1="424" x2="684" y1="385.8613" y2="385.8613"/><text fill="#000000" font-family="sans-serif" font-size="13" font-weight="bold" lengthAdjust="spacing" textLength="7" x="431" y="380.5986">9</text><text fill="#000000" font-family="sans-serif" font-size="13" lengthAdjust="spacing" textLength="108" x="442" y="380.5986">getJobRepository()</text><polygon fill="#181818" points="435,413.1523,425,417.1523,435,421.1523,431,417.1523" style="stroke:#181818;stroke-width:1.0;"/><line style="stroke:#181818;stroke-width:1.0;stroke-dasharray:2.0,2.0;" x1="429" x2="694" y1="417.1523" y2="417.1523"/><text fill="#000000" font-family="sans-serif" font-size="13" font-weight="bold" lengthAdjust="spacing" textLength="14" x="441" y="411.8896">10</text><text fill="#000000" font-family="sans-serif" font-size="13" lengthAdjust="spacing" textLength="79" x="459" y="411.8896">jobRepository</text><polygon fill="#181818" points="824,444.4434,834,448.4434,824,452.4434,828,448.4434" style="stroke:#181818;stroke-width:1.0;"/><line style="stroke:#181818;stroke-width:1.0;" x1="424" x2="830" y1="448.4434" y2="448.4434"/><text fill="#000000" font-family="sans-serif" font-size="13" font-weight="bold" lengthAdjust="spacing" textLength="14" x="431" y="443.1807">11</text><text fill="#000000" font-family="sans-serif" font-size="13" lengthAdjust="spacing" textLength="103" x="449" y="443.1807">registerJob(name)</text><polygon fill="#181818" points="959,475.7344,969,479.7344,959,483.7344,963,479.7344" style="stroke:#181818;stroke-width:1.0;"/><line style="stroke:#181818;stroke-width:1.0;" x1="846" x2="965" y1="479.7344" y2="479.7344"/><text fill="#000000" font-family="sans-serif" font-size="13" font-weight="bold" lengthAdjust="spacing" textLength="14" x="853" y="474.4717">12</text><text fill="#000000" font-family="sans-serif" font-size="13" lengthAdjust="spacing" textLength="83" x="871" y="474.4717">register(name)</text><rect fill="#E3E3E3" height="51.2422" rx="2.5" ry="2.5" style="stroke:#181818;stroke-width:0.5;" width="40" x="971" y="456.4434"/><text fill="#000000" font-family="sans-serif" font-size="14" lengthAdjust="spacing" textLength="19" x="981.5" y="478.5508">job</text><text fill="#000000" font-family="sans-serif" font-size="14" lengthAdjust="spacing" textLength="26" x="978" y="497.1719">:Job</text><line style="stroke:#181818;stroke-width:1.0;" x1="846" x2="893" y1="536.9766" y2="536.9766"/><line style="stroke:#181818;stroke-width:1.0;" x1="893" x2="893" y1="536.9766" y2="549.9766"/><line style="stroke:#181818;stroke-width:1.0;" x1="852" x2="893" y1="549.9766" y2="549.9766"/><polygon fill="#181818" points="862,545.9766,852,549.9766,862,553.9766,858,549.9766" style="stroke:#181818;stroke-width:1.0;"/><text fill="#000000" font-family="sans-serif" font-size="13" font-weight="bold" lengthAdjust="spacing" textLength="14" x="858" y="531.7139">13</text><text fill="#000000" font-family="sans-serif" font-size="13" lengthAdjust="spacing" textLength="66" x="876" y="531.7139">addJob(job)</text><line style="stroke:#181818;stroke-width:1.0;" x1="851" x2="898" y1="581.2676" y2="581.2676"/><line style="stroke:#181818;stroke-width:1.0;" x1="898" x2="898" y1="581.2676" y2="594.2676"/><line style="stroke:#181818;stroke-width:1.0;" x1="857" x2="898" y1="594.2676" y2="594.2676"/><polygon fill="#181818" points="867,590.2676,857,594.2676,867,598.2676,863,594.2676" style="stroke:#181818;stroke-width:1.0;"/><text fill="#000000" font-family="sans-serif" font-size="13" font-weight="bold" lengthAdjust="spacing" textLength="14" x="863" y="576.0049">14</text><text fill="#000000" font-family="sans-serif" font-size="13" lengthAdjust="spacing" textLength="88" x="881" y="576.0049">validateJob(job)</text><polygon fill="#181818" points="435,626.5586,425,630.5586,435,634.5586,431,630.5586" style="stroke:#181818;stroke-width:1.0;"/><line style="stroke:#181818;stroke-width:1.0;stroke-dasharray:2.0,2.0;" x1="429" x2="840" y1="630.5586" y2="630.5586"/><text fill="#000000" font-family="sans-serif" font-size="13" font-weight="bold" lengthAdjust="spacing" textLength="14" x="441" y="625.2959">15</text><text fill="#000000" font-family="sans-serif" font-size="13" lengthAdjust="spacing" textLength="17" x="459" y="625.2959">job</text><polygon fill="#181818" points="292,657.8496,282,661.8496,292,665.8496,288,661.8496" style="stroke:#181818;stroke-width:1.0;"/><line style="stroke:#181818;stroke-width:1.0;stroke-dasharray:2.0,2.0;" x1="286" x2="418" y1="661.8496" y2="661.8496"/><text fill="#000000" font-family="sans-serif" font-size="13" font-weight="bold" lengthAdjust="spacing" textLength="14" x="298" y="656.5869">16</text><text fill="#000000" font-family="sans-serif" font-size="13" lengthAdjust="spacing" textLength="17" x="316" y="656.5869">job</text><polygon fill="#181818" points="77,689.1406,67,693.1406,77,697.1406,73,693.1406" style="stroke:#181818;stroke-width:1.0;"/><line style="stroke:#181818;stroke-width:1.0;stroke-dasharray:2.0,2.0;" x1="71" x2="275" y1="693.1406" y2="693.1406"/><text fill="#000000" font-family="sans-serif" font-size="13" font-weight="bold" lengthAdjust="spacing" textLength="14" x="83" y="687.8779">17</text><text fill="#000000" font-family="sans-serif" font-size="13" lengthAdjust="spacing" textLength="158" x="101" y="687.8779">displays operation success</text><!--SRC=[dLJBKkCm4BpxAwPouL753_Z00IfL9BNKfhnmuoBB4qV4rXYD3EJlaPJ4aK8STbSdszFTqvg7UQrq9uneeILDScMeHR2cnuo7I2VaMjJunsuQ18FI2bqtCO1Neg8FfMjOYeOnoqHlIVTjYIRBBbQgGbWIsP8-Co4j6PWyzAtGK21JRoJoYuP7eLqECm71y50yPaxPAgaweIrCyW9hnHRDdChdMS0ypyOXzwIjeQRPoTq_5RyIS84TiN9657AgOg987iE2K35TfF1NAWVG9a3cl-zEeLvqxdnj4LHclWpgNLWCLyt07VS0DxVkMf0xr9h14aY37YD0umUyUfv73bnNWl317yUxSNIlahiUlVN8ba6B5WEamc-iEA7TTCXx6bO7tZ_aagINohJ2Aj9_atE7v_DvRaFtGfwXlPVUtjK06xYXpyDdVmBNQSITpA56EzFifbZYvLM27wII2KaWSIIKmUVmzY92Z8-gC2uw-9mkWhrvF5UZ7jsSfTQcYyXHCfkZbeurzawsStosxecPtTmdmPs6LwFo-lgWTKBe21-Ut29KbS_hhl8TVJRrQRbtqQZAKVvFSwztc4c_aiSIKN77ZFq0-I6yxT1-Ys8B4J5TXSF2vb0fxXgnOQ0EJLXMu5wwVp2VMjherV-flW00]--></g></svg>