<?xml version="1.0" encoding="us-ascii" standalone="no"?><svg xmlns="http://www.w3.org/2000/svg" xmlns:xlink="http://www.w3.org/1999/xlink" contentStyleType="text/css" height="1251px" preserveAspectRatio="none" style="width:1215px;height:1251px;background:#FFFFFF;" version="1.1" viewBox="0 0 1215 1251" width="1215px" zoomAndPan="magnify"><defs/><g><!--class ApplicationSession--><g id="elem_ApplicationSession"><rect codeLine="11" fill="#F1F1F1" height="85.2422" id="ApplicationSession" rx="2.5" ry="2.5" style="stroke:#181818;stroke-width:0.5;" width="151" x="70" y="312.7627"/><ellipse cx="85" cy="328.7627" fill="#ADD1B2" rx="11" ry="11" style="stroke:#181818;stroke-width:1.0;"/><path d="M87.7656,324.6377 Q87.9219,324.4189 88.1094,324.3096 Q88.2969,324.2002 88.5156,324.2002 Q88.8906,324.2002 89.125,324.4658 Q89.3594,324.7158 89.3594,325.3252 L89.3594,326.7783 Q89.3594,327.3877 89.125,327.6533 Q88.8906,327.9189 88.5156,327.9189 Q88.1719,327.9189 87.9688,327.7158 Q87.7656,327.5283 87.6563,327.0127 Q87.6094,326.6533 87.4219,326.4658 Q87.0938,326.0908 86.4844,325.8721 Q85.875,325.6533 85.25,325.6533 Q84.4844,325.6533 83.8438,325.9814 Q83.2188,326.3096 82.7188,327.0596 Q82.2344,327.8096 82.2344,328.8408 L82.2344,329.9346 Q82.2344,331.1689 83.125,331.9971 Q84.0156,332.8096 85.6094,332.8096 Q86.5469,332.8096 87.2031,332.5596 Q87.5938,332.4033 88.0156,331.9658 Q88.2813,331.7002 88.4219,331.6221 Q88.5781,331.5439 88.7813,331.5439 Q89.1094,331.5439 89.3594,331.8096 Q89.625,332.0596 89.625,332.4033 Q89.625,332.7471 89.2813,333.1533 Q88.7813,333.7314 87.9844,334.0596 Q86.9063,334.5127 85.6094,334.5127 Q84.0938,334.5127 82.8906,333.8877 Q81.9063,333.3877 81.2188,332.3252 Q80.5313,331.2471 80.5313,329.9658 L80.5313,328.8096 Q80.5313,327.4814 81.1406,326.3408 Q81.7656,325.1846 82.8594,324.5752 Q83.9531,323.9502 85.1875,323.9502 Q85.9219,323.9502 86.5625,324.1221 Q87.2188,324.2783 87.7656,324.6377 Z " fill="#000000"/><text fill="#000000" font-family="sans-serif" font-size="14" lengthAdjust="spacing" textLength="119" x="99" y="334.5596">ApplicationSession</text><line style="stroke:#181818;stroke-width:0.5;" x1="71" x2="220" y1="344.7627" y2="344.7627"/><line style="stroke:#181818;stroke-width:0.5;" x1="71" x2="220" y1="352.7627" y2="352.7627"/><text fill="#000000" font-family="sans-serif" font-size="14" lengthAdjust="spacing" textLength="128" x="76" y="371.8701">+static getInstance()</text><text fill="#000000" font-family="sans-serif" font-size="14" lengthAdjust="spacing" textLength="136" x="76" y="390.4912">+getCurrentSession()</text></g><!--class UserSession--><g id="elem_UserSession"><rect codeLine="17" fill="#F1F1F1" height="66.6211" id="UserSession" rx="2.5" ry="2.5" style="stroke:#181818;stroke-width:0.5;" width="113" x="7" y="578.7627"/><ellipse cx="22.9" cy="594.7627" fill="#ADD1B2" rx="11" ry="11" style="stroke:#181818;stroke-width:1.0;"/><path d="M25.6656,590.6377 Q25.8219,590.4189 26.0094,590.3096 Q26.1969,590.2002 26.4156,590.2002 Q26.7906,590.2002 27.025,590.4658 Q27.2594,590.7158 27.2594,591.3252 L27.2594,592.7783 Q27.2594,593.3877 27.025,593.6533 Q26.7906,593.9189 26.4156,593.9189 Q26.0719,593.9189 25.8688,593.7158 Q25.6656,593.5283 25.5563,593.0127 Q25.5094,592.6533 25.3219,592.4658 Q24.9938,592.0908 24.3844,591.8721 Q23.775,591.6533 23.15,591.6533 Q22.3844,591.6533 21.7438,591.9814 Q21.1188,592.3096 20.6188,593.0596 Q20.1344,593.8096 20.1344,594.8408 L20.1344,595.9346 Q20.1344,597.1689 21.025,597.9971 Q21.9156,598.8096 23.5094,598.8096 Q24.4469,598.8096 25.1031,598.5596 Q25.4938,598.4033 25.9156,597.9658 Q26.1813,597.7002 26.3219,597.6221 Q26.4781,597.5439 26.6813,597.5439 Q27.0094,597.5439 27.2594,597.8096 Q27.525,598.0596 27.525,598.4033 Q27.525,598.7471 27.1813,599.1533 Q26.6813,599.7314 25.8844,600.0596 Q24.8063,600.5127 23.5094,600.5127 Q21.9938,600.5127 20.7906,599.8877 Q19.8063,599.3877 19.1188,598.3252 Q18.4313,597.2471 18.4313,595.9658 L18.4313,594.8096 Q18.4313,593.4814 19.0406,592.3408 Q19.6656,591.1846 20.7594,590.5752 Q21.8531,589.9502 23.0875,589.9502 Q23.8219,589.9502 24.4625,590.1221 Q25.1188,590.2783 25.6656,590.6377 Z " fill="#000000"/><text fill="#000000" font-family="sans-serif" font-size="14" lengthAdjust="spacing" textLength="79" x="37.1" y="600.5596">UserSession</text><line style="stroke:#181818;stroke-width:0.5;" x1="8" x2="119" y1="610.7627" y2="610.7627"/><line style="stroke:#181818;stroke-width:0.5;" x1="8" x2="119" y1="618.7627" y2="618.7627"/><text fill="#000000" font-family="sans-serif" font-size="14" lengthAdjust="spacing" textLength="101" x="13" y="637.8701">+getUserEmail()</text></g><!--class Employee--><g id="elem_Employee"><rect codeLine="22" fill="#F1F1F1" height="122.4844" id="Employee" rx="2.5" ry="2.5" style="stroke:#181818;stroke-width:0.5;" width="94" x="802.5" y="1121.7627"/><ellipse cx="817.5" cy="1137.7627" fill="#ADD1B2" rx="11" ry="11" style="stroke:#181818;stroke-width:1.0;"/><path d="M820.2656,1133.6377 Q820.4219,1133.4189 820.6094,1133.3096 Q820.7969,1133.2002 821.0156,1133.2002 Q821.3906,1133.2002 821.625,1133.4658 Q821.8594,1133.7158 821.8594,1134.3252 L821.8594,1135.7783 Q821.8594,1136.3877 821.625,1136.6533 Q821.3906,1136.9189 821.0156,1136.9189 Q820.6719,1136.9189 820.4688,1136.7158 Q820.2656,1136.5283 820.1563,1136.0127 Q820.1094,1135.6533 819.9219,1135.4658 Q819.5938,1135.0908 818.9844,1134.8721 Q818.375,1134.6533 817.75,1134.6533 Q816.9844,1134.6533 816.3438,1134.9814 Q815.7188,1135.3096 815.2188,1136.0596 Q814.7344,1136.8096 814.7344,1137.8408 L814.7344,1138.9346 Q814.7344,1140.1689 815.625,1140.9971 Q816.5156,1141.8096 818.1094,1141.8096 Q819.0469,1141.8096 819.7031,1141.5596 Q820.0938,1141.4033 820.5156,1140.9658 Q820.7813,1140.7002 820.9219,1140.6221 Q821.0781,1140.5439 821.2813,1140.5439 Q821.6094,1140.5439 821.8594,1140.8096 Q822.125,1141.0596 822.125,1141.4033 Q822.125,1141.7471 821.7813,1142.1533 Q821.2813,1142.7314 820.4844,1143.0596 Q819.4063,1143.5127 818.1094,1143.5127 Q816.5938,1143.5127 815.3906,1142.8877 Q814.4063,1142.3877 813.7188,1141.3252 Q813.0313,1140.2471 813.0313,1138.9658 L813.0313,1137.8096 Q813.0313,1136.4814 813.6406,1135.3408 Q814.2656,1134.1846 815.3594,1133.5752 Q816.4531,1132.9502 817.6875,1132.9502 Q818.4219,1132.9502 819.0625,1133.1221 Q819.7188,1133.2783 820.2656,1133.6377 Z " fill="#000000"/><text fill="#000000" font-family="sans-serif" font-size="14" lengthAdjust="spacing" textLength="62" x="831.5" y="1143.5596">Employee</text><line style="stroke:#181818;stroke-width:0.5;" x1="803.5" x2="895.5" y1="1153.7627" y2="1153.7627"/><text fill="#000000" font-family="sans-serif" font-size="14" lengthAdjust="spacing" textLength="40" x="808.5" y="1172.8701">-name</text><text fill="#000000" font-family="sans-serif" font-size="14" lengthAdjust="spacing" textLength="38" x="808.5" y="1191.4912">-email</text><text fill="#000000" font-family="sans-serif" font-size="14" lengthAdjust="spacing" textLength="54" x="808.5" y="1210.1123">-position</text><text fill="#000000" font-family="sans-serif" font-size="14" lengthAdjust="spacing" textLength="45" x="808.5" y="1228.7334">-phone</text><line style="stroke:#181818;stroke-width:0.5;" x1="803.5" x2="895.5" y1="1236.2471" y2="1236.2471"/></g><!--class Task--><g id="elem_Task"><rect codeLine="29" fill="#F1F1F1" height="215.5898" id="Task" rx="2.5" ry="2.5" style="stroke:#181818;stroke-width:0.5;" width="272" x="580.5" y="826.7627"/><ellipse cx="696.75" cy="842.7627" fill="#ADD1B2" rx="11" ry="11" style="stroke:#181818;stroke-width:1.0;"/><path d="M699.5156,838.6377 Q699.6719,838.4189 699.8594,838.3096 Q700.0469,838.2002 700.2656,838.2002 Q700.6406,838.2002 700.875,838.4658 Q701.1094,838.7158 701.1094,839.3252 L701.1094,840.7783 Q701.1094,841.3877 700.875,841.6533 Q700.6406,841.9189 700.2656,841.9189 Q699.9219,841.9189 699.7188,841.7158 Q699.5156,841.5283 699.4063,841.0127 Q699.3594,840.6533 699.1719,840.4658 Q698.8438,840.0908 698.2344,839.8721 Q697.625,839.6533 697,839.6533 Q696.2344,839.6533 695.5938,839.9814 Q694.9688,840.3096 694.4688,841.0596 Q693.9844,841.8096 693.9844,842.8408 L693.9844,843.9346 Q693.9844,845.1689 694.875,845.9971 Q695.7656,846.8096 697.3594,846.8096 Q698.2969,846.8096 698.9531,846.5596 Q699.3438,846.4033 699.7656,845.9658 Q700.0313,845.7002 700.1719,845.6221 Q700.3281,845.5439 700.5313,845.5439 Q700.8594,845.5439 701.1094,845.8096 Q701.375,846.0596 701.375,846.4033 Q701.375,846.7471 701.0313,847.1533 Q700.5313,847.7314 699.7344,848.0596 Q698.6563,848.5127 697.3594,848.5127 Q695.8438,848.5127 694.6406,847.8877 Q693.6563,847.3877 692.9688,846.3252 Q692.2813,845.2471 692.2813,843.9658 L692.2813,842.8096 Q692.2813,841.4814 692.8906,840.3408 Q693.5156,839.1846 694.6094,838.5752 Q695.7031,837.9502 696.9375,837.9502 Q697.6719,837.9502 698.3125,838.1221 Q698.9688,838.2783 699.5156,838.6377 Z " fill="#000000"/><text fill="#000000" font-family="sans-serif" font-size="14" lengthAdjust="spacing" textLength="31" x="717.25" y="848.5596">Task</text><line style="stroke:#181818;stroke-width:0.5;" x1="581.5" x2="851.5" y1="858.7627" y2="858.7627"/><text fill="#000000" font-family="sans-serif" font-size="14" lengthAdjust="spacing" textLength="107" x="586.5" y="877.8701">-String reference</text><text fill="#000000" font-family="sans-serif" font-size="14" lengthAdjust="spacing" textLength="115" x="586.5" y="896.4912">-String description</text><text fill="#000000" font-family="sans-serif" font-size="14" lengthAdjust="spacing" textLength="167" x="586.5" y="915.1123">-String informalDescription</text><text fill="#000000" font-family="sans-serif" font-size="14" lengthAdjust="spacing" textLength="173" x="586.5" y="933.7334">-String technicalDescription</text><text fill="#000000" font-family="sans-serif" font-size="14" lengthAdjust="spacing" textLength="105" x="586.5" y="952.3545">-Integer duration</text><text fill="#000000" font-family="sans-serif" font-size="14" lengthAdjust="spacing" textLength="80" x="586.5" y="970.9756">-Double cost</text><line style="stroke:#181818;stroke-width:0.5;" x1="581.5" x2="851.5" y1="978.4893" y2="978.4893"/><text fill="#000000" font-family="sans-serif" font-size="14" lengthAdjust="spacing" textLength="186" x="586.5" y="997.5967">+Task(reference, description,</text><text fill="#000000" font-family="sans-serif" font-size="14" lengthAdjust="spacing" textLength="260" x="586.5" y="1016.2178">informalDescription, technicalDescription,</text><text fill="#000000" font-family="sans-serif" font-size="14" lengthAdjust="spacing" textLength="255" x="586.5" y="1034.8389">duration, cost, createdBy, taskCategory)</text></g><!--class TaskCategory--><g id="elem_TaskCategory"><rect codeLine="40" fill="#F1F1F1" height="85.2422" id="TaskCategory" rx="2.5" ry="2.5" style="stroke:#181818;stroke-width:0.5;" width="188" x="338.5" y="1140.2627"/><ellipse cx="383.75" cy="1156.2627" fill="#ADD1B2" rx="11" ry="11" style="stroke:#181818;stroke-width:1.0;"/><path d="M386.5156,1152.1377 Q386.6719,1151.9189 386.8594,1151.8096 Q387.0469,1151.7002 387.2656,1151.7002 Q387.6406,1151.7002 387.875,1151.9658 Q388.1094,1152.2158 388.1094,1152.8252 L388.1094,1154.2783 Q388.1094,1154.8877 387.875,1155.1533 Q387.6406,1155.4189 387.2656,1155.4189 Q386.9219,1155.4189 386.7188,1155.2158 Q386.5156,1155.0283 386.4063,1154.5127 Q386.3594,1154.1533 386.1719,1153.9658 Q385.8438,1153.5908 385.2344,1153.3721 Q384.625,1153.1533 384,1153.1533 Q383.2344,1153.1533 382.5938,1153.4814 Q381.9688,1153.8096 381.4688,1154.5596 Q380.9844,1155.3096 380.9844,1156.3408 L380.9844,1157.4346 Q380.9844,1158.6689 381.875,1159.4971 Q382.7656,1160.3096 384.3594,1160.3096 Q385.2969,1160.3096 385.9531,1160.0596 Q386.3438,1159.9033 386.7656,1159.4658 Q387.0313,1159.2002 387.1719,1159.1221 Q387.3281,1159.0439 387.5313,1159.0439 Q387.8594,1159.0439 388.1094,1159.3096 Q388.375,1159.5596 388.375,1159.9033 Q388.375,1160.2471 388.0313,1160.6533 Q387.5313,1161.2314 386.7344,1161.5596 Q385.6563,1162.0127 384.3594,1162.0127 Q382.8438,1162.0127 381.6406,1161.3877 Q380.6563,1160.8877 379.9688,1159.8252 Q379.2813,1158.7471 379.2813,1157.4658 L379.2813,1156.3096 Q379.2813,1154.9814 379.8906,1153.8408 Q380.5156,1152.6846 381.6094,1152.0752 Q382.7031,1151.4502 383.9375,1151.4502 Q384.6719,1151.4502 385.3125,1151.6221 Q385.9688,1151.7783 386.5156,1152.1377 Z " fill="#000000"/><text fill="#000000" font-family="sans-serif" font-size="14" lengthAdjust="spacing" textLength="89" x="404.25" y="1162.0596">TaskCategory</text><line style="stroke:#181818;stroke-width:0.5;" x1="339.5" x2="525.5" y1="1172.2627" y2="1172.2627"/><text fill="#000000" font-family="sans-serif" font-size="14" lengthAdjust="spacing" textLength="115" x="344.5" y="1191.3701">-String description</text><line style="stroke:#181818;stroke-width:0.5;" x1="339.5" x2="525.5" y1="1198.8838" y2="1198.8838"/><text fill="#000000" font-family="sans-serif" font-size="14" lengthAdjust="spacing" textLength="176" x="344.5" y="1217.9912">+TaskCategory(description)</text></g><!--class Organization--><g id="elem_Organization"><rect codeLine="46" fill="#F1F1F1" height="271.4531" id="Organization" rx="2.5" ry="2.5" style="stroke:#181818;stroke-width:0.5;" width="529" x="658" y="476.7627"/><ellipse cx="878.25" cy="492.7627" fill="#ADD1B2" rx="11" ry="11" style="stroke:#181818;stroke-width:1.0;"/><path d="M881.0156,488.6377 Q881.1719,488.4189 881.3594,488.3096 Q881.5469,488.2002 881.7656,488.2002 Q882.1406,488.2002 882.375,488.4658 Q882.6094,488.7158 882.6094,489.3252 L882.6094,490.7783 Q882.6094,491.3877 882.375,491.6533 Q882.1406,491.9189 881.7656,491.9189 Q881.4219,491.9189 881.2188,491.7158 Q881.0156,491.5283 880.9063,491.0127 Q880.8594,490.6533 880.6719,490.4658 Q880.3438,490.0908 879.7344,489.8721 Q879.125,489.6533 878.5,489.6533 Q877.7344,489.6533 877.0938,489.9814 Q876.4688,490.3096 875.9688,491.0596 Q875.4844,491.8096 875.4844,492.8408 L875.4844,493.9346 Q875.4844,495.1689 876.375,495.9971 Q877.2656,496.8096 878.8594,496.8096 Q879.7969,496.8096 880.4531,496.5596 Q880.8438,496.4033 881.2656,495.9658 Q881.5313,495.7002 881.6719,495.6221 Q881.8281,495.5439 882.0313,495.5439 Q882.3594,495.5439 882.6094,495.8096 Q882.875,496.0596 882.875,496.4033 Q882.875,496.7471 882.5313,497.1533 Q882.0313,497.7314 881.2344,498.0596 Q880.1563,498.5127 878.8594,498.5127 Q877.3438,498.5127 876.1406,497.8877 Q875.1563,497.3877 874.4688,496.3252 Q873.7813,495.2471 873.7813,493.9658 L873.7813,492.8096 Q873.7813,491.4814 874.3906,490.3408 Q875.0156,489.1846 876.1094,488.5752 Q877.2031,487.9502 878.4375,487.9502 Q879.1719,487.9502 879.8125,488.1221 Q880.4688,488.2783 881.0156,488.6377 Z " fill="#000000"/><text fill="#000000" font-family="sans-serif" font-size="14" lengthAdjust="spacing" textLength="80" x="898.75" y="498.5596">Organization</text><line style="stroke:#181818;stroke-width:0.5;" x1="659" x2="1186" y1="508.7627" y2="508.7627"/><text fill="#000000" font-family="sans-serif" font-size="14" lengthAdjust="spacing" textLength="81" x="664" y="527.8701">-String name</text><text fill="#000000" font-family="sans-serif" font-size="14" lengthAdjust="spacing" textLength="114" x="664" y="546.4912">-String vatNumber</text><text fill="#000000" font-family="sans-serif" font-size="14" lengthAdjust="spacing" textLength="93" x="664" y="565.1123">-String website</text><text fill="#000000" font-family="sans-serif" font-size="14" lengthAdjust="spacing" textLength="86" x="664" y="583.7334">-String phone</text><text fill="#000000" font-family="sans-serif" font-size="14" lengthAdjust="spacing" textLength="79" x="664" y="602.3545">-String email</text><line style="stroke:#181818;stroke-width:0.5;" x1="659" x2="1186" y1="609.8682" y2="609.8682"/><text fill="#000000" font-family="sans-serif" font-size="14" lengthAdjust="spacing" textLength="96" x="664" y="628.9756">-addTask(task)</text><text fill="#000000" font-family="sans-serif" font-size="14" lengthAdjust="spacing" textLength="121" x="664" y="647.5967">-validateTask(task)</text><text fill="#000000" font-family="sans-serif" font-size="14" lengthAdjust="spacing" textLength="194" x="664" y="666.2178">+anyEmployeeHasEmail(email)</text><text fill="#000000" font-family="sans-serif" font-size="14" lengthAdjust="spacing" textLength="517" x="664" y="684.8389">+Organization(name, vatNumber, webSite, phone, email, postalAddress, manager)</text><text fill="#000000" font-family="sans-serif" font-size="14" lengthAdjust="spacing" textLength="362" x="664" y="703.46">+createTask(reference, description, informalDesccription,</text><text fill="#000000" font-family="sans-serif" font-size="14" lengthAdjust="spacing" textLength="389" x="664" y="722.0811">technicalDescription, duration, cost, taskCategoryDescription)</text><text fill="#000000" font-family="sans-serif" font-size="14" lengthAdjust="spacing" textLength="180" x="664" y="740.7021">-getEmployeeByEmail(email)</text></g><!--class TaskCategoryRepository--><g id="elem_TaskCategoryRepository"><rect codeLine="63" fill="#F1F1F1" height="66.6211" id="TaskCategoryRepository" rx="2.5" ry="2.5" style="stroke:#181818;stroke-width:0.5;" width="295" x="407" y="321.7627"/><ellipse cx="471.75" cy="337.7627" fill="#ADD1B2" rx="11" ry="11" style="stroke:#181818;stroke-width:1.0;"/><path d="M474.5156,333.6377 Q474.6719,333.4189 474.8594,333.3096 Q475.0469,333.2002 475.2656,333.2002 Q475.6406,333.2002 475.875,333.4658 Q476.1094,333.7158 476.1094,334.3252 L476.1094,335.7783 Q476.1094,336.3877 475.875,336.6533 Q475.6406,336.9189 475.2656,336.9189 Q474.9219,336.9189 474.7188,336.7158 Q474.5156,336.5283 474.4063,336.0127 Q474.3594,335.6533 474.1719,335.4658 Q473.8438,335.0908 473.2344,334.8721 Q472.625,334.6533 472,334.6533 Q471.2344,334.6533 470.5938,334.9814 Q469.9688,335.3096 469.4688,336.0596 Q468.9844,336.8096 468.9844,337.8408 L468.9844,338.9346 Q468.9844,340.1689 469.875,340.9971 Q470.7656,341.8096 472.3594,341.8096 Q473.2969,341.8096 473.9531,341.5596 Q474.3438,341.4033 474.7656,340.9658 Q475.0313,340.7002 475.1719,340.6221 Q475.3281,340.5439 475.5313,340.5439 Q475.8594,340.5439 476.1094,340.8096 Q476.375,341.0596 476.375,341.4033 Q476.375,341.7471 476.0313,342.1533 Q475.5313,342.7314 474.7344,343.0596 Q473.6563,343.5127 472.3594,343.5127 Q470.8438,343.5127 469.6406,342.8877 Q468.6563,342.3877 467.9688,341.3252 Q467.2813,340.2471 467.2813,338.9658 L467.2813,337.8096 Q467.2813,336.4814 467.8906,335.3408 Q468.5156,334.1846 469.6094,333.5752 Q470.7031,332.9502 471.9375,332.9502 Q472.6719,332.9502 473.3125,333.1221 Q473.9688,333.2783 474.5156,333.6377 Z " fill="#000000"/><text fill="#000000" font-family="sans-serif" font-size="14" lengthAdjust="spacing" textLength="157" x="492.25" y="343.5596">TaskCategoryRepository</text><line style="stroke:#181818;stroke-width:0.5;" x1="408" x2="701" y1="353.7627" y2="353.7627"/><line style="stroke:#181818;stroke-width:0.5;" x1="408" x2="701" y1="361.7627" y2="361.7627"/><text fill="#000000" font-family="sans-serif" font-size="14" lengthAdjust="spacing" textLength="283" x="413" y="380.8701">+getTaskCategoryByDescription(description)</text></g><!--class OrganizationRepository--><g id="elem_OrganizationRepository"><rect codeLine="67" fill="#F1F1F1" height="66.6211" id="OrganizationRepository" rx="2.5" ry="2.5" style="stroke:#181818;stroke-width:0.5;" width="275" x="880" y="321.7627"/><ellipse cx="939.25" cy="337.7627" fill="#ADD1B2" rx="11" ry="11" style="stroke:#181818;stroke-width:1.0;"/><path d="M942.0156,333.6377 Q942.1719,333.4189 942.3594,333.3096 Q942.5469,333.2002 942.7656,333.2002 Q943.1406,333.2002 943.375,333.4658 Q943.6094,333.7158 943.6094,334.3252 L943.6094,335.7783 Q943.6094,336.3877 943.375,336.6533 Q943.1406,336.9189 942.7656,336.9189 Q942.4219,336.9189 942.2188,336.7158 Q942.0156,336.5283 941.9063,336.0127 Q941.8594,335.6533 941.6719,335.4658 Q941.3438,335.0908 940.7344,334.8721 Q940.125,334.6533 939.5,334.6533 Q938.7344,334.6533 938.0938,334.9814 Q937.4688,335.3096 936.9688,336.0596 Q936.4844,336.8096 936.4844,337.8408 L936.4844,338.9346 Q936.4844,340.1689 937.375,340.9971 Q938.2656,341.8096 939.8594,341.8096 Q940.7969,341.8096 941.4531,341.5596 Q941.8438,341.4033 942.2656,340.9658 Q942.5313,340.7002 942.6719,340.6221 Q942.8281,340.5439 943.0313,340.5439 Q943.3594,340.5439 943.6094,340.8096 Q943.875,341.0596 943.875,341.4033 Q943.875,341.7471 943.5313,342.1533 Q943.0313,342.7314 942.2344,343.0596 Q941.1563,343.5127 939.8594,343.5127 Q938.3438,343.5127 937.1406,342.8877 Q936.1563,342.3877 935.4688,341.3252 Q934.7813,340.2471 934.7813,338.9658 L934.7813,337.8096 Q934.7813,336.4814 935.3906,335.3408 Q936.0156,334.1846 937.1094,333.5752 Q938.2031,332.9502 939.4375,332.9502 Q940.1719,332.9502 940.8125,333.1221 Q941.4688,333.2783 942.0156,333.6377 Z " fill="#000000"/><text fill="#000000" font-family="sans-serif" font-size="14" lengthAdjust="spacing" textLength="148" x="959.75" y="343.5596">OrganizationRepository</text><line style="stroke:#181818;stroke-width:0.5;" x1="881" x2="1154" y1="353.7627" y2="353.7627"/><line style="stroke:#181818;stroke-width:0.5;" x1="881" x2="1154" y1="361.7627" y2="361.7627"/><text fill="#000000" font-family="sans-serif" font-size="14" lengthAdjust="spacing" textLength="263" x="886" y="380.8701">+getOrganizationByEmployeeEmail(email)</text></g><!--class Repositories--><g id="elem_Repositories"><rect codeLine="71" fill="#F1F1F1" height="122.4844" id="Repositories" rx="2.5" ry="2.5" style="stroke:#181818;stroke-width:0.5;" width="207" x="905" y="83.7627"/><ellipse cx="964.75" cy="99.7627" fill="#ADD1B2" rx="11" ry="11" style="stroke:#181818;stroke-width:1.0;"/><path d="M967.5156,95.6377 Q967.6719,95.4189 967.8594,95.3096 Q968.0469,95.2002 968.2656,95.2002 Q968.6406,95.2002 968.875,95.4658 Q969.1094,95.7158 969.1094,96.3252 L969.1094,97.7783 Q969.1094,98.3877 968.875,98.6533 Q968.6406,98.9189 968.2656,98.9189 Q967.9219,98.9189 967.7188,98.7158 Q967.5156,98.5283 967.4063,98.0127 Q967.3594,97.6533 967.1719,97.4658 Q966.8438,97.0908 966.2344,96.8721 Q965.625,96.6533 965,96.6533 Q964.2344,96.6533 963.5938,96.9814 Q962.9688,97.3096 962.4688,98.0596 Q961.9844,98.8096 961.9844,99.8408 L961.9844,100.9346 Q961.9844,102.1689 962.875,102.9971 Q963.7656,103.8096 965.3594,103.8096 Q966.2969,103.8096 966.9531,103.5596 Q967.3438,103.4033 967.7656,102.9658 Q968.0313,102.7002 968.1719,102.6221 Q968.3281,102.5439 968.5313,102.5439 Q968.8594,102.5439 969.1094,102.8096 Q969.375,103.0596 969.375,103.4033 Q969.375,103.7471 969.0313,104.1533 Q968.5313,104.7314 967.7344,105.0596 Q966.6563,105.5127 965.3594,105.5127 Q963.8438,105.5127 962.6406,104.8877 Q961.6563,104.3877 960.9688,103.3252 Q960.2813,102.2471 960.2813,100.9658 L960.2813,99.8096 Q960.2813,98.4814 960.8906,97.3408 Q961.5156,96.1846 962.6094,95.5752 Q963.7031,94.9502 964.9375,94.9502 Q965.6719,94.9502 966.3125,95.1221 Q966.9688,95.2783 967.5156,95.6377 Z " fill="#000000"/><text fill="#000000" font-family="sans-serif" font-size="14" lengthAdjust="spacing" textLength="79" x="985.25" y="105.5596">Repositories</text><line style="stroke:#181818;stroke-width:0.5;" x1="906" x2="1111" y1="115.7627" y2="115.7627"/><line style="stroke:#181818;stroke-width:0.5;" x1="906" x2="1111" y1="123.7627" y2="123.7627"/><text fill="#000000" font-family="sans-serif" font-size="14" lengthAdjust="spacing" textLength="94" x="911" y="142.8701">-Repositories()</text><text fill="#000000" font-family="sans-serif" font-size="14" lengthAdjust="spacing" textLength="182" x="911" y="161.4912">+getInstance() : Repositories</text><text fill="#000000" font-family="sans-serif" font-size="14" lengthAdjust="spacing" textLength="195" x="911" y="180.1123">+getTaskCategoryRepository()</text><text fill="#000000" font-family="sans-serif" font-size="14" lengthAdjust="spacing" textLength="186" x="911" y="198.7334">+getOrganizationRepository()</text></g><!--class CreateTaskController--><g id="elem_CreateTaskController"><rect codeLine="78" fill="#F1F1F1" height="178.3477" id="CreateTaskController" rx="2.5" ry="2.5" style="stroke:#181818;stroke-width:0.5;" width="471" x="169" y="55.7627"/><ellipse cx="332.25" cy="71.7627" fill="#ADD1B2" rx="11" ry="11" style="stroke:#181818;stroke-width:1.0;"/><path d="M335.0156,67.6377 Q335.1719,67.4189 335.3594,67.3096 Q335.5469,67.2002 335.7656,67.2002 Q336.1406,67.2002 336.375,67.4658 Q336.6094,67.7158 336.6094,68.3252 L336.6094,69.7783 Q336.6094,70.3877 336.375,70.6533 Q336.1406,70.9189 335.7656,70.9189 Q335.4219,70.9189 335.2188,70.7158 Q335.0156,70.5283 334.9063,70.0127 Q334.8594,69.6533 334.6719,69.4658 Q334.3438,69.0908 333.7344,68.8721 Q333.125,68.6533 332.5,68.6533 Q331.7344,68.6533 331.0938,68.9814 Q330.4688,69.3096 329.9688,70.0596 Q329.4844,70.8096 329.4844,71.8408 L329.4844,72.9346 Q329.4844,74.1689 330.375,74.9971 Q331.2656,75.8096 332.8594,75.8096 Q333.7969,75.8096 334.4531,75.5596 Q334.8438,75.4033 335.2656,74.9658 Q335.5313,74.7002 335.6719,74.6221 Q335.8281,74.5439 336.0313,74.5439 Q336.3594,74.5439 336.6094,74.8096 Q336.875,75.0596 336.875,75.4033 Q336.875,75.7471 336.5313,76.1533 Q336.0313,76.7314 335.2344,77.0596 Q334.1563,77.5127 332.8594,77.5127 Q331.3438,77.5127 330.1406,76.8877 Q329.1563,76.3877 328.4688,75.3252 Q327.7813,74.2471 327.7813,72.9658 L327.7813,71.8096 Q327.7813,70.4814 328.3906,69.3408 Q329.0156,68.1846 330.1094,67.5752 Q331.2031,66.9502 332.4375,66.9502 Q333.1719,66.9502 333.8125,67.1221 Q334.4688,67.2783 335.0156,67.6377 Z " fill="#000000"/><text fill="#000000" font-family="sans-serif" font-size="14" lengthAdjust="spacing" textLength="136" x="352.75" y="77.5596">CreateTaskController</text><line style="stroke:#181818;stroke-width:0.5;" x1="170" x2="639" y1="87.7627" y2="87.7627"/><line style="stroke:#181818;stroke-width:0.5;" x1="170" x2="639" y1="95.7627" y2="95.7627"/><text fill="#000000" font-family="sans-serif" font-size="14" lengthAdjust="spacing" textLength="459" x="175" y="114.8701">+CreateTaskController(organizationRepository, taskCategoryRepository)</text><text fill="#000000" font-family="sans-serif" font-size="14" lengthAdjust="spacing" textLength="138" x="175" y="133.4912">+getTaskCategories()</text><text fill="#000000" font-family="sans-serif" font-size="14" lengthAdjust="spacing" textLength="296" x="175" y="152.1123">+createTask(userEmail, reference, description,</text><text fill="#000000" font-family="sans-serif" font-size="14" lengthAdjust="spacing" textLength="260" x="175" y="170.7334">informalDescription, technicalDescription,</text><text fill="#000000" font-family="sans-serif" font-size="14" lengthAdjust="spacing" textLength="225" x="175" y="189.3545">duration, cost, categoryDescription)</text><text fill="#000000" font-family="sans-serif" font-size="14" lengthAdjust="spacing" textLength="366" x="175" y="207.9756">-getTaskCategoryByDescription(taskCategoryDescription)</text><text fill="#000000" font-family="sans-serif" font-size="14" lengthAdjust="spacing" textLength="180" x="175" y="226.5967">-getEmployeeFromSession()</text></g><g id="elem_GMN12"><path d="M675.5,105.2627 L675.5,184.4268 L869.5,184.4268 L869.5,115.2627 L859.5,105.2627 L675.5,105.2627 " fill="#FEFFDD" style="stroke:#181818;stroke-width:0.5;"/><path d="M859.5,105.2627 L859.5,115.2627 L869.5,115.2627 L859.5,105.2627 " fill="#FEFFDD" style="stroke:#181818;stroke-width:1.0;"/><text fill="#000000" font-family="sans-serif" font-size="13" lengthAdjust="spacing" textLength="133" x="681.5" y="124.291">- userEmail is obtained</text><text fill="#000000" font-family="sans-serif" font-size="13" lengthAdjust="spacing" textLength="125" x="681.5" y="141.582">from the user session</text><text fill="#000000" font-family="sans-serif" font-size="13" lengthAdjust="spacing" textLength="123" x="681.5" y="158.873">- categoryDescription</text><text fill="#000000" font-family="sans-serif" font-size="13" lengthAdjust="spacing" textLength="173" x="681.5" y="176.1641">is retrieved from selected data</text></g><g id="elem_GMN15"><path d="M486,589.7627 L486,634.3447 A0,0 0 0 0 486,634.3447 L623,634.3447 A0,0 0 0 0 623,634.3447 L623,599.7627 L613,589.7627 L558.5,589.7627 L554.5,388.8127 L550.5,589.7627 L486,589.7627 A0,0 0 0 0 486,589.7627 " fill="#FEFFDD" style="stroke:#181818;stroke-width:0.5;"/><path d="M613,589.7627 L613,599.7627 L623,599.7627 L613,589.7627 " fill="#FEFFDD" style="stroke:#181818;stroke-width:0.5;"/><text fill="#000000" font-family="sans-serif" font-size="13" lengthAdjust="spacing" textLength="116" x="492" y="608.791">- used for displaying</text><text fill="#000000" font-family="sans-serif" font-size="13" lengthAdjust="spacing" textLength="93" x="492" y="626.082">the category list</text></g><!--class CreateTaskUI--><g id="elem_CreateTaskUI"><rect codeLine="98" fill="#F1F1F1" height="48" id="CreateTaskUI" rx="2.5" ry="2.5" style="stroke:#181818;stroke-width:0.5;" width="118" x="15.5" y="120.7627"/><ellipse cx="30.5" cy="136.7627" fill="#ADD1B2" rx="11" ry="11" style="stroke:#181818;stroke-width:1.0;"/><path d="M33.2656,132.6377 Q33.4219,132.4189 33.6094,132.3096 Q33.7969,132.2002 34.0156,132.2002 Q34.3906,132.2002 34.625,132.4658 Q34.8594,132.7158 34.8594,133.3252 L34.8594,134.7783 Q34.8594,135.3877 34.625,135.6533 Q34.3906,135.9189 34.0156,135.9189 Q33.6719,135.9189 33.4688,135.7158 Q33.2656,135.5283 33.1563,135.0127 Q33.1094,134.6533 32.9219,134.4658 Q32.5938,134.0908 31.9844,133.8721 Q31.375,133.6533 30.75,133.6533 Q29.9844,133.6533 29.3438,133.9814 Q28.7188,134.3096 28.2188,135.0596 Q27.7344,135.8096 27.7344,136.8408 L27.7344,137.9346 Q27.7344,139.1689 28.625,139.9971 Q29.5156,140.8096 31.1094,140.8096 Q32.0469,140.8096 32.7031,140.5596 Q33.0938,140.4033 33.5156,139.9658 Q33.7813,139.7002 33.9219,139.6221 Q34.0781,139.5439 34.2813,139.5439 Q34.6094,139.5439 34.8594,139.8096 Q35.125,140.0596 35.125,140.4033 Q35.125,140.7471 34.7813,141.1533 Q34.2813,141.7314 33.4844,142.0596 Q32.4063,142.5127 31.1094,142.5127 Q29.5938,142.5127 28.3906,141.8877 Q27.4063,141.3877 26.7188,140.3252 Q26.0313,139.2471 26.0313,137.9658 L26.0313,136.8096 Q26.0313,135.4814 26.6406,134.3408 Q27.2656,133.1846 28.3594,132.5752 Q29.4531,131.9502 30.6875,131.9502 Q31.4219,131.9502 32.0625,132.1221 Q32.7188,132.2783 33.2656,132.6377 Z " fill="#000000"/><text fill="#000000" font-family="sans-serif" font-size="14" lengthAdjust="spacing" textLength="86" x="44.5" y="142.5596">CreateTaskUI</text><line style="stroke:#181818;stroke-width:0.5;" x1="16.5" x2="132.5" y1="152.7627" y2="152.7627"/><line style="stroke:#181818;stroke-width:0.5;" x1="16.5" x2="132.5" y1="160.7627" y2="160.7627"/></g><!--link CreateTaskController to GMN12--><g id="link_CreateTaskController_GMN12"><path d="M640.21,144.7627 C646.21,144.7627 649.83,144.7627 649.83,144.7627 C649.83,144.7627 660.36,144.7627 675.25,144.7627 " fill="none" id="CreateTaskController-GMN12" style="stroke:#181818;stroke-width:1.0;stroke-dasharray:7.0,7.0;"/></g><!--link Repositories to Repositories--><g id="link_Repositories_Repositories"><path codeLine="101" d="M1112.09,121.7927 C1132.49,124.4227 1147,132.0727 1147,144.7627 C1147,157.4527 1138.4408,164.3355 1118.0408,166.9655 " fill="none" id="Repositories-to-Repositories" style="stroke:#181818;stroke-width:1.0;"/><polygon fill="#181818" points="1112.09,167.7327,1121.5276,170.5491,1117.049,167.0934,1120.5047,162.6148,1112.09,167.7327" style="stroke:#181818;stroke-width:1.0;"/><text fill="#000000" font-family="sans-serif" font-size="13" lengthAdjust="spacing" textLength="49" x="1153" y="150.291">instance</text></g><!--link ApplicationSession to ApplicationSession--><g id="link_ApplicationSession_ApplicationSession"><path codeLine="102" d="M221.16,340.0327 C241,340.9327 256,346.0127 256,355.2627 C256,364.5127 246.9938,369.3208 227.1538,370.2208 " fill="none" id="ApplicationSession-to-ApplicationSession" style="stroke:#181818;stroke-width:1.0;"/><polygon fill="#181818" points="221.16,370.4927,230.332,374.0807,226.1549,370.2661,229.9695,366.089,221.16,370.4927" style="stroke:#181818;stroke-width:1.0;"/><text fill="#000000" font-family="sans-serif" font-size="13" lengthAdjust="spacing" textLength="49" x="262" y="360.791">instance</text></g><!--link CreateTaskUI to CreateTaskController--><g id="link_CreateTaskUI_CreateTaskController"><path codeLine="104" d="M133.69,144.7627 C146.7,144.7627 153.41,144.7627 162.86,144.7627 " fill="none" id="CreateTaskUI-to-CreateTaskController" style="stroke:#181818;stroke-width:1.0;stroke-dasharray:7.0,7.0;"/><polygon fill="#181818" points="168.86,144.7627,159.86,140.7627,163.86,144.7627,159.86,148.7627,168.86,144.7627" style="stroke:#181818;stroke-width:1.0;"/></g><!--link CreateTaskController to Repositories--><g id="link_CreateTaskController_Repositories"><path codeLine="106" d="M640.11,61.8827 C651.01,58.0427 657.5,55.7627 657.5,55.7627 C657.5,55.7627 738,27.7627 738,27.7627 C738,27.7627 807,27.7627 807,27.7627 C807,27.7627 887.5,55.7627 887.5,55.7627 C887.5,55.7627 899.507,64.5972 920.617,80.1272 " fill="none" id="CreateTaskController-to-Repositories" style="stroke:#181818;stroke-width:1.0;stroke-dasharray:7.0,7.0;"/><polygon fill="#181818" points="925.45,83.6827,920.5708,75.1274,921.4225,80.7198,915.8301,81.5714,925.45,83.6827" style="stroke:#181818;stroke-width:1.0;"/><text fill="#000000" font-family="sans-serif" font-size="13" lengthAdjust="spacing" textLength="67" x="739" y="21.791">repositories</text></g><!--link Repositories to TaskCategoryRepository--><g id="link_Repositories_TaskCategoryRepository"><path codeLine="108" d="M989.64,205.8527 C978.09,242.6627 965.5,282.7627 965.5,282.7627 C965.5,282.7627 729.5,312.7627 729.5,312.7627 C729.5,312.7627 719.7084,315.0897 697.7984,320.2797 " fill="none" id="Repositories-to-TaskCategoryRepository" style="stroke:#181818;stroke-width:1.0;"/><polygon fill="#181818" points="691.96,321.6627,701.6397,323.4805,696.8254,320.5102,699.7957,315.6959,691.96,321.6627" style="stroke:#181818;stroke-width:1.0;"/><text fill="#000000" font-family="sans-serif" font-size="13" lengthAdjust="spacing" textLength="7" x="709.6589" y="310.9906">1</text></g><!--link CreateTaskController to TaskCategory--><g id="link_CreateTaskController_TaskCategory"><path codeLine="110" d="M382.95,233.8827 C369.03,290.7827 353.5,354.2627 353.5,354.2627 C353.5,354.2627 353.5,354.2627 353.5,935.7627 C353.5,935.7627 394.7255,1064.13 417.2655,1134.32 " fill="none" id="CreateTaskController-to-TaskCategory" style="stroke:#181818;stroke-width:1.0;stroke-dasharray:7.0,7.0;"/><polygon fill="#181818" points="419.1,1140.0327,420.1567,1130.2407,417.5712,1135.2721,412.5398,1132.6867,419.1,1140.0327" style="stroke:#181818;stroke-width:1.0;"/></g><!--link CreateTaskController to OrganizationRepository--><g id="link_CreateTaskController_OrganizationRepository"><path codeLine="111" d="M640.11,227.7127 C651.01,231.5027 657.5,233.7627 657.5,233.7627 C657.5,233.7627 791.5,263.7627 791.5,263.7627 C791.5,263.7627 865.8701,293.5418 930.6601,319.4918 " fill="none" id="CreateTaskController-to-OrganizationRepository" style="stroke:#181818;stroke-width:1.0;stroke-dasharray:7.0,7.0;"/><polygon fill="#181818" points="936.23,321.7227,929.3625,314.6632,931.5885,319.8636,926.388,322.0896,936.23,321.7227" style="stroke:#181818;stroke-width:1.0;"/><text fill="#000000" font-family="sans-serif" font-size="13" lengthAdjust="spacing" textLength="132" x="836.5" y="278.791">organizationRepository</text></g><!--link CreateTaskController to TaskCategoryRepository--><g id="link_CreateTaskController_TaskCategoryRepository"><path codeLine="112" d="M467.9,233.8827 C490.28,265.0027 510.5872,293.2113 527.5572,316.8113 " fill="none" id="CreateTaskController-to-TaskCategoryRepository" style="stroke:#181818;stroke-width:1.0;stroke-dasharray:7.0,7.0;"/><polygon fill="#181818" points="531.06,321.6827,529.0533,312.0404,528.141,317.6232,522.5582,316.7109,531.06,321.6827" style="stroke:#181818;stroke-width:1.0;"/><text fill="#000000" font-family="sans-serif" font-size="13" lengthAdjust="spacing" textLength="142" x="503.5" y="278.791">TaskCategoryRepository</text></g><!--link Repositories to OrganizationRepository--><g id="link_Repositories_OrganizationRepository"><path codeLine="114" d="M1011.09,205.7927 C1012.72,243.4427 1014.4922,284.5582 1015.8222,315.4782 " fill="none" id="Repositories-to-OrganizationRepository" style="stroke:#181818;stroke-width:1.0;"/><polygon fill="#181818" points="1016.08,321.4727,1019.6895,312.3091,1015.8651,316.4773,1011.6969,312.6529,1016.08,321.4727" style="stroke:#181818;stroke-width:1.0;"/><text fill="#000000" font-family="sans-serif" font-size="13" lengthAdjust="spacing" textLength="7" x="1008.1421" y="310.5033">1</text></g><!--link OrganizationRepository to Organization--><g id="link_OrganizationRepository_Organization"><path codeLine="116" d="M1005.37,388.8127 C996.87,411.6427 986.9751,438.2104 974.7451,471.0304 " fill="none" id="OrganizationRepository-to-Organization" style="stroke:#181818;stroke-width:1.0;"/><polygon fill="#181818" points="972.65,476.6527,979.5409,469.6159,974.3959,471.9674,972.0444,466.8225,972.65,476.6527" style="stroke:#181818;stroke-width:1.0;"/><text fill="#000000" font-family="sans-serif" font-size="13" lengthAdjust="spacing" textLength="5" x="970.4048" y="465.345">*</text></g><!--link ApplicationSession to UserSession--><g id="link_ApplicationSession_UserSession"><path codeLine="117" d="M132.14,397.8027 C115.9,448.3227 90.6474,526.841 75.8174,572.941 " fill="none" id="ApplicationSession-to-UserSession" style="stroke:#181818;stroke-width:1.0;"/><polygon fill="#181818" points="73.98,578.6527,80.5439,571.31,75.5112,573.8929,72.9283,568.8602,73.98,578.6527" style="stroke:#181818;stroke-width:1.0;"/><text fill="#000000" font-family="sans-serif" font-size="13" lengthAdjust="spacing" textLength="72" x="122.5" y="442.791">userSession</text><text fill="#000000" font-family="sans-serif" font-size="13" lengthAdjust="spacing" textLength="7" x="68.3542" y="567.4566">1</text></g><!--link CreateTaskController to Organization--><g id="link_CreateTaskController_Organization"><path codeLine="119" d="M591.09,233.8327 C627.42,250.9827 654.5,263.7627 654.5,263.7627 C654.5,263.7627 719.5,312.7627 719.5,312.7627 C719.5,312.7627 773.6259,392.3513 827.4259,471.4613 " fill="none" id="CreateTaskController-to-Organization" style="stroke:#181818;stroke-width:1.0;stroke-dasharray:7.0,7.0;"/><polygon fill="#181818" points="830.8,476.4227,829.0465,466.7312,827.9883,472.2882,822.4313,471.23,830.8,476.4227" style="stroke:#181818;stroke-width:1.0;"/><text fill="#000000" font-family="sans-serif" font-size="13" lengthAdjust="spacing" textLength="70" x="776.5" y="360.791">organization</text><text fill="#000000" font-family="sans-serif" font-size="13" lengthAdjust="spacing" textLength="7" x="818.5938" y="465.553">1</text></g><!--link CreateTaskController to ApplicationSession--><g id="link_CreateTaskController_ApplicationSession"><path codeLine="120" d="M295.04,233.8827 C261.07,261.2227 229.9041,286.3207 201.8241,308.9207 " fill="none" id="CreateTaskController-to-ApplicationSession" style="stroke:#181818;stroke-width:1.0;stroke-dasharray:7.0,7.0;"/><polygon fill="#181818" points="197.15,312.6827,206.6692,310.1559,201.0451,309.5477,201.6533,303.9237,197.15,312.6827" style="stroke:#181818;stroke-width:1.0;"/></g><!--link CreateTaskController to UserSession--><g id="link_CreateTaskController_UserSession"><path codeLine="121" d="M218.97,233.7827 C134.26,273.9727 52.5,312.7627 52.5,312.7627 C52.5,312.7627 52.5,397.7627 52.5,397.7627 C52.5,397.7627 58.4108,512.4907 61.5008,572.3807 " fill="none" id="CreateTaskController-to-UserSession" style="stroke:#181818;stroke-width:1.0;stroke-dasharray:7.0,7.0;"/><polygon fill="#181818" points="61.81,578.3727,65.341,569.1785,61.5524,573.3793,57.3516,569.5908,61.81,578.3727" style="stroke:#181818;stroke-width:1.0;"/></g><!--link Task to TaskCategory--><g id="link_Task_TaskCategory"><path codeLine="122" d="M592.76,1042.9427 C553.15,1077.2527 516.1452,1109.3144 485.2852,1136.0444 " fill="none" id="Task-to-TaskCategory" style="stroke:#181818;stroke-width:1.0;"/><polygon fill="#181818" points="480.75,1139.9727,490.1717,1137.1038,484.5294,1136.6991,484.934,1131.0568,480.75,1139.9727" style="stroke:#181818;stroke-width:1.0;"/><text fill="#000000" font-family="sans-serif" font-size="13" lengthAdjust="spacing" textLength="77" x="558.5" y="1087.791">taskCategory</text><text fill="#000000" font-family="sans-serif" font-size="13" lengthAdjust="spacing" textLength="5" x="579.6728" y="1064.4683">*</text><text fill="#000000" font-family="sans-serif" font-size="13" lengthAdjust="spacing" textLength="7" x="480.6023" y="1129.151">1</text></g><!--link TaskCategoryRepository to TaskCategory--><g id="link_TaskCategoryRepository_TaskCategory"><path codeLine="123" d="M531.23,388.8727 C505.76,424.5627 468.5,476.7627 468.5,476.7627 C468.5,476.7627 442.6658,982.5905 434.9358,1134.0405 " fill="none" id="TaskCategoryRepository-to-TaskCategory" style="stroke:#181818;stroke-width:1.0;"/><polygon fill="#181818" points="434.63,1140.0327,439.0836,1131.2483,434.8849,1135.0392,431.094,1130.8405,434.63,1140.0327" style="stroke:#181818;stroke-width:1.0;"/><text fill="#000000" font-family="sans-serif" font-size="13" lengthAdjust="spacing" textLength="77" x="454.5" y="792.791">taskCategory</text><text fill="#000000" font-family="sans-serif" font-size="13" lengthAdjust="spacing" textLength="7" x="519.4616" y="410.4615">1</text><text fill="#000000" font-family="sans-serif" font-size="13" lengthAdjust="spacing" textLength="5" x="429.571" y="1128.9001">*</text></g><!--link Organization to Task--><g id="link_Organization_Task"><path codeLine="124" d="M836.03,747.7927 C819.19,774.0027 804.974,796.1053 788.784,821.2953 " fill="none" id="Organization-to-Task" style="stroke:#181818;stroke-width:1.0;"/><polygon fill="#181818" points="785.54,826.3427,793.771,820.9343,788.2434,822.1365,787.0411,816.6089,785.54,826.3427" style="stroke:#181818;stroke-width:1.0;"/><text fill="#000000" font-family="sans-serif" font-size="13" lengthAdjust="spacing" textLength="32" x="814.5" y="792.791">tasks</text><text fill="#000000" font-family="sans-serif" font-size="13" lengthAdjust="spacing" textLength="7" x="823.8286" y="770.1431">1</text><text fill="#000000" font-family="sans-serif" font-size="13" lengthAdjust="spacing" textLength="5" x="785.0107" y="815.539">*</text></g><!--link Task to Employee--><g id="link_Task_Employee"><path codeLine="125" d="M774.45,1042.9427 C789.01,1069.8727 801.278,1092.5539 814.088,1116.2639 " fill="none" id="Task-to-Employee" style="stroke:#181818;stroke-width:1.0;"/><polygon fill="#181818" points="816.94,1121.5427,816.1812,1111.7231,814.5633,1117.1437,809.1427,1115.5258,816.94,1121.5427" style="stroke:#181818;stroke-width:1.0;"/><text fill="#000000" font-family="sans-serif" font-size="13" lengthAdjust="spacing" textLength="59" x="800.5" y="1087.791">createdBy</text></g><!--link Organization to Employee--><g id="link_Organization_Employee"><path codeLine="127" d="M907.31,747.8227 C891.34,889.3527 868.5,1091.7627 868.5,1091.7627 C868.5,1091.7627 866.9009,1099.3524 863.4109,1115.8624 " fill="none" id="Organization-to-Employee" style="stroke:#181818;stroke-width:1.0;"/><polygon fill="#181818" points="862.17,1121.7327,867.9449,1113.7545,863.2041,1116.8408,860.1178,1112.1,862.17,1121.7327" style="stroke:#181818;stroke-width:1.0;"/><text fill="#000000" font-family="sans-serif" font-size="13" lengthAdjust="spacing" textLength="49" x="898.5" y="940.291">employs</text><text fill="#000000" font-family="sans-serif" font-size="13" lengthAdjust="spacing" textLength="5" x="858.3459" y="1110.7104">*</text></g><!--SRC=[jLPBJzmm4BxxLrXSM4f0xPK34WjKvT9AtNBhnPlCxbeuTcHxGQ7gV-yuSP9nS12Nxc4Lp-FpDm-FVUgUf6w45JMlZJRbmPeQkBT7O9Ec4UMJsCF6jmguXT8BlLVKm1r4PLwatlETK8vgbDJWsmPuOrGR5kmqepJM6qQyIYMSk_7UoktHmqDfz4Q-0l_CsAc2dUVUS2lt1yyh6UX8endhVFXDqoXPYY3QW7D1yuTn_9rpvr5SyZtu1utVkeJLMLIXxFPeBMWVdL3pTu1yT63dMEWGnFUra8hQtjUDCYq0xmqlk1Orn4y8nl6xCKvsjEFoO30p8yeluPv6X0rc0HDhOGT8i8HKN84hhMm8LbH8lJEs5kfkoS13UT2Ogep5W_Qm1ykhenL4V6UEMso0qZZFOXu2qzL8hQ1qYjywmw78xeksmrv5Xu__5eI7QjsY1svoYukziUrPcgL1FCyMJGkXEfYlY9uW_h1xeULhnsEEI0eP9S_2Vp_MMx2f-0MsMDkPRL_WHDItGvI9gkfI6K8zYx9deMI5X6UASovqE_JPD-7w7kpG1WCQnoeGBoQoHI2uGO95JwheYHIX9RrGDrLbiTSBNWkDHzuEa7qvtYjtqd6aiDbwytcvQOtlQ77wNE1v6q9Ujqd4x1JfEV5CqvHjaP_G7RgfMRfJJ2tMTESFj4WUaLginq8bd4Uq4K626nkE2kc4cgOMlqgCyj5Cx2X8dZyTORTZfM-DzjOeXPDWY2-dN9aiPbhJINwMfKjZ9Rrs78PimV_Fb7ctvPQRu-Fj-XKlrEHIqSP3lBtCBflG23B6pgNZPki5tfPLfziX9lS7w4ouYtTJxvM9gDCWXWMSFF0CLG_WGE7TYIiSCeA1hdYW5WbkZVTeWmppFJLnH3I3LuLqZH8j3hPE4yWDJF2QnmjZmf-tsUC3jXSc9ZaC5zVfuRZ2yTAtFtjxnGVhZ9Jui6Ixo-jytbcszo_VKB7qyBtXVVBbP2bf2nlW3jHXsMfX-bpn_17ys7O9q1BnDCWOPPuEOmiqExTFgLkscX6UFBoGsP4ymvO3czEQvMRPCVDmNBIbByBkhHQYkiYK7dUdau8jf3su3Sbvppq9REuKZLtFA6Z6n-ZLz9fAYpC245FeFXtx1m00]--></g></svg>