<?xml version="1.0" encoding="us-ascii" standalone="no"?><svg xmlns="http://www.w3.org/2000/svg" xmlns:xlink="http://www.w3.org/1999/xlink" contentStyleType="text/css" height="687px" preserveAspectRatio="none" style="width:746px;height:687px;background:#FFFFFF;" version="1.1" viewBox="0 0 746 687" width="746px" zoomAndPan="magnify"><defs/><g><rect fill="#FFFFFF" height="455.7344" style="stroke:#181818;stroke-width:1.0;" width="10" x="61" y="112.2422"/><rect fill="#FFFFFF" height="31.291" style="stroke:#181818;stroke-width:1.0;" width="10" x="286" y="135.5332"/><rect fill="#FFFFFF" height="31.291" style="stroke:#181818;stroke-width:1.0;" width="10" x="286" y="198.1152"/><rect fill="#FFFFFF" height="307.2793" style="stroke:#181818;stroke-width:1.0;" width="10" x="286" y="260.6973"/><rect fill="#FFFFFF" height="244.6973" style="stroke:#181818;stroke-width:1.0;" width="10" x="429" y="291.9883"/><rect fill="#FFFFFF" height="253.6973" style="stroke:#181818;stroke-width:1.0;" width="10" x="572" y="323.2793"/><rect fill="#FFFFFF" height="152.1641" style="stroke:#181818;stroke-width:1.0;" width="10" x="577" y="424.8125"/><rect fill="#FFFFFF" height="36.291" style="stroke:#181818;stroke-width:1.0;" width="10" x="582" y="469.1035"/><line style="stroke:#181818;stroke-width:0.5;stroke-dasharray:5.0,5.0;" x1="66" x2="66" y1="102.2422" y2="585.9766"/><line style="stroke:#181818;stroke-width:0.5;stroke-dasharray:5.0,5.0;" x1="290.5" x2="290.5" y1="102.2422" y2="585.9766"/><line style="stroke:#181818;stroke-width:0.5;stroke-dasharray:5.0,5.0;" x1="433.5" x2="433.5" y1="102.2422" y2="585.9766"/><line style="stroke:#181818;stroke-width:0.5;stroke-dasharray:5.0,5.0;" x1="577" x2="577" y1="102.2422" y2="585.9766"/><line style="stroke:#181818;stroke-width:0.5;stroke-dasharray:5.0,5.0;" x1="720" x2="720" y1="372.4004" y2="585.9766"/><text fill="#000000" font-family="sans-serif" font-size="14" lengthAdjust="spacing" textLength="116" x="5" y="80.1074">Human Resources</text><text fill="#000000" font-family="sans-serif" font-size="14" lengthAdjust="spacing" textLength="56" x="37" y="98.7285">Manager</text><ellipse cx="66" cy="13.5" fill="#E3E3E3" rx="8" ry="8" style="stroke:#181818;stroke-width:0.5;"/><path d="M66,21.5 L66,48.5 M53,29.5 L79,29.5 M66,48.5 L53,63.5 M66,48.5 L79,63.5 " fill="none" style="stroke:#181818;stroke-width:0.5;"/><text fill="#000000" font-family="sans-serif" font-size="14" lengthAdjust="spacing" textLength="116" x="5" y="600.084">Human Resources</text><text fill="#000000" font-family="sans-serif" font-size="14" lengthAdjust="spacing" textLength="56" x="37" y="618.7051">Manager</text><ellipse cx="66" cy="630.7188" fill="#E3E3E3" rx="8" ry="8" style="stroke:#181818;stroke-width:0.5;"/><path d="M66,638.7188 L66,665.7188 M53,646.7188 L79,646.7188 M66,665.7188 L53,680.7188 M66,665.7188 L79,680.7188 " fill="none" style="stroke:#181818;stroke-width:0.5;"/><rect fill="#E3E3E3" height="32.6211" rx="2.5" ry="2.5" style="stroke:#181818;stroke-width:0.5;" width="105" x="238.5" y="68.6211"/><text fill="#000000" font-family="sans-serif" font-size="14" lengthAdjust="spacing" textLength="91" x="245.5" y="90.7285">:RegisterJobUI</text><rect fill="#E3E3E3" height="32.6211" rx="2.5" ry="2.5" style="stroke:#181818;stroke-width:0.5;" width="105" x="238.5" y="584.9766"/><text fill="#000000" font-family="sans-serif" font-size="14" lengthAdjust="spacing" textLength="91" x="245.5" y="607.084">:RegisterJobUI</text><rect fill="#E3E3E3" height="32.6211" rx="2.5" ry="2.5" style="stroke:#181818;stroke-width:0.5;" width="155" x="356.5" y="68.6211"/><text fill="#000000" font-family="sans-serif" font-size="14" lengthAdjust="spacing" textLength="141" x="363.5" y="90.7285">:RegisterJobController</text><rect fill="#E3E3E3" height="32.6211" rx="2.5" ry="2.5" style="stroke:#181818;stroke-width:0.5;" width="155" x="356.5" y="584.9766"/><text fill="#000000" font-family="sans-serif" font-size="14" lengthAdjust="spacing" textLength="141" x="363.5" y="607.084">:RegisterJobController</text><rect fill="#E3E3E3" height="51.2422" rx="2.5" ry="2.5" style="stroke:#181818;stroke-width:0.5;" width="98" x="528" y="50"/><text fill="#000000" font-family="sans-serif" font-size="14" lengthAdjust="spacing" textLength="77" x="538.5" y="72.1074">organization</text><text fill="#000000" font-family="sans-serif" font-size="14" lengthAdjust="spacing" textLength="84" x="535" y="90.7285">:Organization</text><rect fill="#E3E3E3" height="51.2422" rx="2.5" ry="2.5" style="stroke:#181818;stroke-width:0.5;" width="98" x="528" y="584.9766"/><text fill="#000000" font-family="sans-serif" font-size="14" lengthAdjust="spacing" textLength="77" x="538.5" y="607.084">organization</text><text fill="#000000" font-family="sans-serif" font-size="14" lengthAdjust="spacing" textLength="84" x="535" y="625.7051">:Organization</text><rect fill="#E3E3E3" height="51.2422" rx="2.5" ry="2.5" style="stroke:#181818;stroke-width:0.5;" width="40" x="700" y="584.9766"/><text fill="#000000" font-family="sans-serif" font-size="14" lengthAdjust="spacing" textLength="19" x="710.5" y="607.084">job</text><text fill="#000000" font-family="sans-serif" font-size="14" lengthAdjust="spacing" textLength="26" x="707" y="625.7051">:Job</text><rect fill="#FFFFFF" height="455.7344" style="stroke:#181818;stroke-width:1.0;" width="10" x="61" y="112.2422"/><rect fill="#FFFFFF" height="31.291" style="stroke:#181818;stroke-width:1.0;" width="10" x="286" y="135.5332"/><rect fill="#FFFFFF" height="31.291" style="stroke:#181818;stroke-width:1.0;" width="10" x="286" y="198.1152"/><rect fill="#FFFFFF" height="307.2793" style="stroke:#181818;stroke-width:1.0;" width="10" x="286" y="260.6973"/><rect fill="#FFFFFF" height="244.6973" style="stroke:#181818;stroke-width:1.0;" width="10" x="429" y="291.9883"/><rect fill="#FFFFFF" height="253.6973" style="stroke:#181818;stroke-width:1.0;" width="10" x="572" y="323.2793"/><rect fill="#FFFFFF" height="152.1641" style="stroke:#181818;stroke-width:1.0;" width="10" x="577" y="424.8125"/><rect fill="#FFFFFF" height="36.291" style="stroke:#181818;stroke-width:1.0;" width="10" x="582" y="469.1035"/><polygon fill="#181818" points="274,131.5332,284,135.5332,274,139.5332,278,135.5332" style="stroke:#181818;stroke-width:1.0;"/><line style="stroke:#181818;stroke-width:1.0;" x1="71" x2="280" y1="135.5332" y2="135.5332"/><text fill="#000000" font-family="sans-serif" font-size="13" font-weight="bold" lengthAdjust="spacing" textLength="7" x="78" y="130.2705">1</text><text fill="#000000" font-family="sans-serif" font-size="13" lengthAdjust="spacing" textLength="142" x="89" y="130.2705">asks to create a new job</text><polygon fill="#181818" points="82,162.8242,72,166.8242,82,170.8242,78,166.8242" style="stroke:#181818;stroke-width:1.0;"/><line style="stroke:#181818;stroke-width:1.0;stroke-dasharray:2.0,2.0;" x1="76" x2="290" y1="166.8242" y2="166.8242"/><text fill="#000000" font-family="sans-serif" font-size="13" font-weight="bold" lengthAdjust="spacing" textLength="7" x="88" y="161.5615">2</text><text fill="#000000" font-family="sans-serif" font-size="13" lengthAdjust="spacing" textLength="142" x="99" y="161.5615">requests the designation</text><polygon fill="#181818" points="274,194.1152,284,198.1152,274,202.1152,278,198.1152" style="stroke:#181818;stroke-width:1.0;"/><line style="stroke:#181818;stroke-width:1.0;" x1="71" x2="280" y1="198.1152" y2="198.1152"/><text fill="#000000" font-family="sans-serif" font-size="13" font-weight="bold" lengthAdjust="spacing" textLength="7" x="78" y="192.8525">3</text><text fill="#000000" font-family="sans-serif" font-size="13" lengthAdjust="spacing" textLength="185" x="89" y="192.8525">types requested the designation</text><polygon fill="#181818" points="82,225.4063,72,229.4063,82,233.4063,78,229.4063" style="stroke:#181818;stroke-width:1.0;"/><line style="stroke:#181818;stroke-width:1.0;stroke-dasharray:2.0,2.0;" x1="76" x2="290" y1="229.4063" y2="229.4063"/><text fill="#000000" font-family="sans-serif" font-size="13" font-weight="bold" lengthAdjust="spacing" textLength="7" x="88" y="224.1436">4</text><text fill="#000000" font-family="sans-serif" font-size="13" lengthAdjust="spacing" textLength="124" x="99" y="224.1436">requests confirmation</text><polygon fill="#181818" points="274,256.6973,284,260.6973,274,264.6973,278,260.6973" style="stroke:#181818;stroke-width:1.0;"/><line style="stroke:#181818;stroke-width:1.0;" x1="71" x2="280" y1="260.6973" y2="260.6973"/><text fill="#000000" font-family="sans-serif" font-size="13" font-weight="bold" lengthAdjust="spacing" textLength="7" x="78" y="255.4346">5</text><text fill="#000000" font-family="sans-serif" font-size="13" lengthAdjust="spacing" textLength="49" x="89" y="255.4346">confirms</text><polygon fill="#181818" points="417,287.9883,427,291.9883,417,295.9883,421,291.9883" style="stroke:#181818;stroke-width:1.0;"/><line style="stroke:#181818;stroke-width:1.0;" x1="296" x2="423" y1="291.9883" y2="291.9883"/><text fill="#000000" font-family="sans-serif" font-size="13" font-weight="bold" lengthAdjust="spacing" textLength="7" x="303" y="286.7256">6</text><text fill="#000000" font-family="sans-serif" font-size="13" lengthAdjust="spacing" textLength="103" x="314" y="286.7256">registerJob(name)</text><polygon fill="#181818" points="560,319.2793,570,323.2793,560,327.2793,564,323.2793" style="stroke:#181818;stroke-width:1.0;"/><line style="stroke:#181818;stroke-width:1.0;" x1="439" x2="566" y1="323.2793" y2="323.2793"/><text fill="#000000" font-family="sans-serif" font-size="13" font-weight="bold" lengthAdjust="spacing" textLength="7" x="446" y="318.0166">7</text><text fill="#000000" font-family="sans-serif" font-size="13" lengthAdjust="spacing" textLength="103" x="457" y="318.0166">registerJob(name)</text><polygon fill="#181818" points="688,350.5703,698,354.5703,688,358.5703,692,354.5703" style="stroke:#181818;stroke-width:1.0;"/><line style="stroke:#181818;stroke-width:1.0;" x1="582" x2="694" y1="354.5703" y2="354.5703"/><text fill="#000000" font-family="sans-serif" font-size="13" font-weight="bold" lengthAdjust="spacing" textLength="7" x="589" y="349.3076">8</text><text fill="#000000" font-family="sans-serif" font-size="13" lengthAdjust="spacing" textLength="83" x="600" y="349.3076">register(name)</text><rect fill="#E3E3E3" height="51.2422" rx="2.5" ry="2.5" style="stroke:#181818;stroke-width:0.5;" width="40" x="700" y="331.2793"/><text fill="#000000" font-family="sans-serif" font-size="14" lengthAdjust="spacing" textLength="19" x="710.5" y="353.3867">job</text><text fill="#000000" font-family="sans-serif" font-size="14" lengthAdjust="spacing" textLength="26" x="707" y="372.0078">:Job</text><line style="stroke:#181818;stroke-width:1.0;" x1="582" x2="629" y1="411.8125" y2="411.8125"/><line style="stroke:#181818;stroke-width:1.0;" x1="629" x2="629" y1="411.8125" y2="424.8125"/><line style="stroke:#181818;stroke-width:1.0;" x1="588" x2="629" y1="424.8125" y2="424.8125"/><polygon fill="#181818" points="598,420.8125,588,424.8125,598,428.8125,594,424.8125" style="stroke:#181818;stroke-width:1.0;"/><text fill="#000000" font-family="sans-serif" font-size="13" font-weight="bold" lengthAdjust="spacing" textLength="7" x="594" y="406.5498">9</text><text fill="#000000" font-family="sans-serif" font-size="13" lengthAdjust="spacing" textLength="66" x="605" y="406.5498">addJob(job)</text><line style="stroke:#181818;stroke-width:1.0;" x1="587" x2="634" y1="456.1035" y2="456.1035"/><line style="stroke:#181818;stroke-width:1.0;" x1="634" x2="634" y1="456.1035" y2="469.1035"/><line style="stroke:#181818;stroke-width:1.0;" x1="593" x2="634" y1="469.1035" y2="469.1035"/><polygon fill="#181818" points="603,465.1035,593,469.1035,603,473.1035,599,469.1035" style="stroke:#181818;stroke-width:1.0;"/><text fill="#000000" font-family="sans-serif" font-size="13" font-weight="bold" lengthAdjust="spacing" textLength="14" x="599" y="450.8408">10</text><text fill="#000000" font-family="sans-serif" font-size="13" lengthAdjust="spacing" textLength="88" x="617" y="450.8408">validateJob(job)</text><polygon fill="#181818" points="450,501.3945,440,505.3945,450,509.3945,446,505.3945" style="stroke:#181818;stroke-width:1.0;"/><line style="stroke:#181818;stroke-width:1.0;stroke-dasharray:2.0,2.0;" x1="444" x2="576" y1="505.3945" y2="505.3945"/><text fill="#000000" font-family="sans-serif" font-size="13" font-weight="bold" lengthAdjust="spacing" textLength="14" x="456" y="500.1318">11</text><text fill="#000000" font-family="sans-serif" font-size="13" lengthAdjust="spacing" textLength="17" x="474" y="500.1318">job</text><polygon fill="#181818" points="307,532.6855,297,536.6855,307,540.6855,303,536.6855" style="stroke:#181818;stroke-width:1.0;"/><line style="stroke:#181818;stroke-width:1.0;stroke-dasharray:2.0,2.0;" x1="301" x2="433" y1="536.6855" y2="536.6855"/><text fill="#000000" font-family="sans-serif" font-size="13" font-weight="bold" lengthAdjust="spacing" textLength="14" x="313" y="531.4229">12</text><text fill="#000000" font-family="sans-serif" font-size="13" lengthAdjust="spacing" textLength="17" x="331" y="531.4229">job</text><polygon fill="#181818" points="77,563.9766,67,567.9766,77,571.9766,73,567.9766" style="stroke:#181818;stroke-width:1.0;"/><line style="stroke:#181818;stroke-width:1.0;stroke-dasharray:2.0,2.0;" x1="71" x2="290" y1="567.9766" y2="567.9766"/><text fill="#000000" font-family="sans-serif" font-size="13" font-weight="bold" lengthAdjust="spacing" textLength="14" x="83" y="562.7139">13</text><text fill="#000000" font-family="sans-serif" font-size="13" lengthAdjust="spacing" textLength="158" x="101" y="562.7139">displays operation success</text><!--SRC=[dPF1SjiW48RlFCMEBsqpanVG8PSScdIQoOpQt79PmrecbdPLG4dTf-z24ndLJgOf5mJy_xU87-BEyuW11nY4nMw330GfJ6JYl3AYtM57tzA-9mXa4tBNruAuHITFdZlOO1_969oIy3IiAHZpOUiTmKOahUMdGPiamEfg6f2XfIXJi1Jl6MwGjKPO0KQuQc-CafEtVaHEi6fQwdnC5Bx8-kwwQEwkNvTS2gSWVV-Ck_pUVbsA9NJ8_XScBtpFpMqrB8xRzlFIy21hrIcwB6jlyf_uHqnKTcj0ctx0-ONk31fLxI8a0HieQn2Odk0X-x9ozkfVb8dSr7Ukzanfz9X_J1IJChO4ZgBlk6olg1qT0UhQQJzIV26GEubunmwiyCQ7uP_BF-lZstKkIYobpfpRHyQ1FisosLi2dATpArvbQ51l8XQOdEfY9RiLehQpimFb1A8IQwVfEfThQPx7kjVB_KrvnDuxLVu7gc0EPvWlLhrS9NHa_NDqBs7LpigrFF73lMZ0-JZsk8yW8uLo9o1ELjzmF7Ktgc5-9hy1]--></g></svg>