<?xml version="1.0" encoding="us-ascii" standalone="no"?><svg xmlns="http://www.w3.org/2000/svg" xmlns:xlink="http://www.w3.org/1999/xlink" contentStyleType="text/css" height="380px" preserveAspectRatio="none" style="width:328px;height:380px;background:#FFFFFF;" version="1.1" viewBox="0 0 328 380" width="328px" zoomAndPan="magnify"><defs/><g><rect fill="#FFFFFF" height="224.4063" style="stroke:#181818;stroke-width:1.0;" width="10" x="133" y="90.5332"/><rect fill="#FFFFFF" height="96.582" style="stroke:#181818;stroke-width:1.0;" width="10" x="138" y="218.3574"/><rect fill="#FFFFFF" height="43.291" style="stroke:#181818;stroke-width:1.0;" width="10" x="143" y="262.6484"/><rect fill="none" height="170.1152" style="stroke:#000000;stroke-width:1.5;" width="243" x="79" y="105.5332"/><line style="stroke:#181818;stroke-width:0.5;stroke-dasharray:5.0,5.0;" x1="138" x2="138" y1="57.2422" y2="323.9395"/><line style="stroke:#181818;stroke-width:0.5;stroke-dasharray:5.0,5.0;" x1="292" x2="292" y1="165.9453" y2="323.9395"/><rect fill="#E3E3E3" height="51.2422" rx="2.5" ry="2.5" style="stroke:#181818;stroke-width:0.5;" width="98" x="89" y="5"/><text fill="#000000" font-family="sans-serif" font-size="14" lengthAdjust="spacing" textLength="77" x="99.5" y="27.1074">organization</text><text fill="#000000" font-family="sans-serif" font-size="14" lengthAdjust="spacing" textLength="84" x="96" y="45.7285">:Organization</text><rect fill="#E3E3E3" height="51.2422" rx="2.5" ry="2.5" style="stroke:#181818;stroke-width:0.5;" width="98" x="89" y="322.9395"/><text fill="#000000" font-family="sans-serif" font-size="14" lengthAdjust="spacing" textLength="77" x="99.5" y="345.0469">organization</text><text fill="#000000" font-family="sans-serif" font-size="14" lengthAdjust="spacing" textLength="84" x="96" y="363.668">:Organization</text><rect fill="#E3E3E3" height="51.2422" rx="2.5" ry="2.5" style="stroke:#181818;stroke-width:0.5;" width="40" x="272" y="322.9395"/><text fill="#000000" font-family="sans-serif" font-size="14" lengthAdjust="spacing" textLength="19" x="282.5" y="345.0469">job</text><text fill="#000000" font-family="sans-serif" font-size="14" lengthAdjust="spacing" textLength="26" x="279" y="363.668">:Job</text><rect fill="#FFFFFF" height="224.4063" style="stroke:#181818;stroke-width:1.0;" width="10" x="133" y="90.5332"/><rect fill="#FFFFFF" height="96.582" style="stroke:#181818;stroke-width:1.0;" width="10" x="138" y="218.3574"/><rect fill="#FFFFFF" height="43.291" style="stroke:#181818;stroke-width:1.0;" width="10" x="143" y="262.6484"/><polygon fill="#181818" points="121,86.5332,131,90.5332,121,94.5332,125,90.5332" style="stroke:#181818;stroke-width:1.0;"/><line style="stroke:#181818;stroke-width:1.0;" x1="0" x2="127" y1="90.5332" y2="90.5332"/><text fill="#000000" font-family="sans-serif" font-size="13" font-weight="bold" lengthAdjust="spacing" textLength="7" x="7" y="85.2705">7</text><text fill="#000000" font-family="sans-serif" font-size="13" lengthAdjust="spacing" textLength="103" x="18" y="85.2705">registerJob(name)</text><path d="M79,105.5332 L203,105.5332 L203,114.8242 L193,124.8242 L79,124.8242 L79,105.5332 " fill="#EEEEEE" style="stroke:#000000;stroke-width:1.5;"/><rect fill="none" height="170.1152" style="stroke:#000000;stroke-width:1.5;" width="243" x="79" y="105.5332"/><text fill="#000000" font-family="sans-serif" font-size="13" font-weight="bold" lengthAdjust="spacing" textLength="79" x="94" y="120.5615">Register Job</text><polygon fill="#181818" points="260,144.1152,270,148.1152,260,152.1152,264,148.1152" style="stroke:#181818;stroke-width:1.0;"/><line style="stroke:#181818;stroke-width:1.0;" x1="143" x2="266" y1="148.1152" y2="148.1152"/><text fill="#000000" font-family="sans-serif" font-size="13" font-weight="bold" lengthAdjust="spacing" textLength="18" x="150" y="142.8525">7.1</text><text fill="#000000" font-family="sans-serif" font-size="13" lengthAdjust="spacing" textLength="83" x="172" y="142.8525">register(name)</text><rect fill="#E3E3E3" height="51.2422" rx="2.5" ry="2.5" style="stroke:#181818;stroke-width:0.5;" width="40" x="272" y="124.8242"/><text fill="#000000" font-family="sans-serif" font-size="14" lengthAdjust="spacing" textLength="19" x="282.5" y="146.9316">job</text><text fill="#000000" font-family="sans-serif" font-size="14" lengthAdjust="spacing" textLength="26" x="279" y="165.5527">:Job</text><line style="stroke:#181818;stroke-width:1.0;" x1="143" x2="190" y1="205.3574" y2="205.3574"/><line style="stroke:#181818;stroke-width:1.0;" x1="190" x2="190" y1="205.3574" y2="218.3574"/><line style="stroke:#181818;stroke-width:1.0;" x1="149" x2="190" y1="218.3574" y2="218.3574"/><polygon fill="#181818" points="159,214.3574,149,218.3574,159,222.3574,155,218.3574" style="stroke:#181818;stroke-width:1.0;"/><text fill="#000000" font-family="sans-serif" font-size="13" font-weight="bold" lengthAdjust="spacing" textLength="18" x="155" y="200.0947">7.2</text><text fill="#000000" font-family="sans-serif" font-size="13" lengthAdjust="spacing" textLength="66" x="177" y="200.0947">addJob(job)</text><line style="stroke:#181818;stroke-width:1.0;" x1="148" x2="195" y1="249.6484" y2="249.6484"/><line style="stroke:#181818;stroke-width:1.0;" x1="195" x2="195" y1="249.6484" y2="262.6484"/><line style="stroke:#181818;stroke-width:1.0;" x1="154" x2="195" y1="262.6484" y2="262.6484"/><polygon fill="#181818" points="164,258.6484,154,262.6484,164,266.6484,160,262.6484" style="stroke:#181818;stroke-width:1.0;"/><text fill="#000000" font-family="sans-serif" font-size="13" font-weight="bold" lengthAdjust="spacing" textLength="18" x="160" y="244.3857">7.3</text><text fill="#000000" font-family="sans-serif" font-size="13" lengthAdjust="spacing" textLength="88" x="182" y="244.3857">validateJob(job)</text><polygon fill="#181818" points="11,301.9395,1,305.9395,11,309.9395,7,305.9395" style="stroke:#181818;stroke-width:1.0;"/><line style="stroke:#181818;stroke-width:1.0;stroke-dasharray:2.0,2.0;" x1="5" x2="132" y1="305.9395" y2="305.9395"/><text fill="#000000" font-family="sans-serif" font-size="13" font-weight="bold" lengthAdjust="spacing" textLength="7" x="17" y="300.6768">8</text><text fill="#000000" font-family="sans-serif" font-size="13" lengthAdjust="spacing" textLength="17" x="28" y="300.6768">job</text><!--SRC=[RK-zJiCm4Dxz5ATEK2b8JA08iIAnL2ehoyK-NDFuBhAT8dXwhcxK9eLRR7-_vxmFF632255Ox2v992Xf99FFp81sZvxUodTFaCWMPD_F1Nc7Jhu2U_Z0FfCn2fTWmu1SO2N98uSVB47udTlDxBa2pB3PlYmDdzAfxbMwIkjf38v5U8mT9NWmpVFHq-egFkH2IHKtZ95kbxgxUuEsX0CMgXsWuvEC0smduoaRfb4DQBHYw_KbV4g-4jL-TEvOhUjU-4NZ6Rrs7h0FJbL_xFz74BlJPVQznmeyDKqDRa5ZZAEbznS0]--></g></svg>