<?xml version="1.0" encoding="us-ascii" standalone="no"?><svg xmlns="http://www.w3.org/2000/svg" xmlns:xlink="http://www.w3.org/1999/xlink" contentStyleType="text/css" height="410px" preserveAspectRatio="none" style="width:843px;height:410px;background:#FFFFFF;" version="1.1" viewBox="0 0 843 410" width="843px" zoomAndPan="magnify"><defs/><g><!--class Job--><g id="elem_Job"><rect codeLine="11" fill="#F1F1F1" height="85.2422" id="Job" rx="2.5" ry="2.5" style="stroke:#181818;stroke-width:0.5;" width="97" x="519" y="318"/><ellipse cx="553.35" cy="334" fill="#ADD1B2" rx="11" ry="11" style="stroke:#181818;stroke-width:1.0;"/><path d="M556.1156,329.875 Q556.2719,329.6563 556.4594,329.5469 Q556.6469,329.4375 556.8656,329.4375 Q557.2406,329.4375 557.475,329.7031 Q557.7094,329.9531 557.7094,330.5625 L557.7094,332.0156 Q557.7094,332.625 557.475,332.8906 Q557.2406,333.1563 556.8656,333.1563 Q556.5219,333.1563 556.3188,332.9531 Q556.1156,332.7656 556.0063,332.25 Q555.9594,331.8906 555.7719,331.7031 Q555.4438,331.3281 554.8344,331.1094 Q554.225,330.8906 553.6,330.8906 Q552.8344,330.8906 552.1938,331.2188 Q551.5688,331.5469 551.0688,332.2969 Q550.5844,333.0469 550.5844,334.0781 L550.5844,335.1719 Q550.5844,336.4063 551.475,337.2344 Q552.3656,338.0469 553.9594,338.0469 Q554.8969,338.0469 555.5531,337.7969 Q555.9438,337.6406 556.3656,337.2031 Q556.6313,336.9375 556.7719,336.8594 Q556.9281,336.7813 557.1313,336.7813 Q557.4594,336.7813 557.7094,337.0469 Q557.975,337.2969 557.975,337.6406 Q557.975,337.9844 557.6313,338.3906 Q557.1313,338.9688 556.3344,339.2969 Q555.2563,339.75 553.9594,339.75 Q552.4438,339.75 551.2406,339.125 Q550.2563,338.625 549.5688,337.5625 Q548.8813,336.4844 548.8813,335.2031 L548.8813,334.0469 Q548.8813,332.7188 549.4906,331.5781 Q550.1156,330.4219 551.2094,329.8125 Q552.3031,329.1875 553.5375,329.1875 Q554.2719,329.1875 554.9125,329.3594 Q555.5688,329.5156 556.1156,329.875 Z " fill="#000000"/><text fill="#000000" font-family="sans-serif" font-size="14" lengthAdjust="spacing" textLength="22" x="571.65" y="339.7969">Job</text><line style="stroke:#181818;stroke-width:0.5;" x1="520" x2="615" y1="350" y2="350"/><text fill="#000000" font-family="sans-serif" font-size="14" lengthAdjust="spacing" textLength="85" x="525" y="369.1074">-name: String</text><line style="stroke:#181818;stroke-width:0.5;" x1="520" x2="615" y1="376.6211" y2="376.6211"/><text fill="#000000" font-family="sans-serif" font-size="14" lengthAdjust="spacing" textLength="75" x="525" y="395.7285">+Job(name)</text></g><!--class HRM--><g id="elem_HRM"><rect codeLine="17" fill="#F1F1F1" height="48" id="HRM" rx="2.5" ry="2.5" style="stroke:#181818;stroke-width:0.5;" width="62" x="649.5" y="199.5"/><ellipse cx="664.5" cy="215.5" fill="#ADD1B2" rx="11" ry="11" style="stroke:#181818;stroke-width:1.0;"/><path d="M667.2656,211.375 Q667.4219,211.1563 667.6094,211.0469 Q667.7969,210.9375 668.0156,210.9375 Q668.3906,210.9375 668.625,211.2031 Q668.8594,211.4531 668.8594,212.0625 L668.8594,213.5156 Q668.8594,214.125 668.625,214.3906 Q668.3906,214.6563 668.0156,214.6563 Q667.6719,214.6563 667.4688,214.4531 Q667.2656,214.2656 667.1563,213.75 Q667.1094,213.3906 666.9219,213.2031 Q666.5938,212.8281 665.9844,212.6094 Q665.375,212.3906 664.75,212.3906 Q663.9844,212.3906 663.3438,212.7188 Q662.7188,213.0469 662.2188,213.7969 Q661.7344,214.5469 661.7344,215.5781 L661.7344,216.6719 Q661.7344,217.9063 662.625,218.7344 Q663.5156,219.5469 665.1094,219.5469 Q666.0469,219.5469 666.7031,219.2969 Q667.0938,219.1406 667.5156,218.7031 Q667.7813,218.4375 667.9219,218.3594 Q668.0781,218.2813 668.2813,218.2813 Q668.6094,218.2813 668.8594,218.5469 Q669.125,218.7969 669.125,219.1406 Q669.125,219.4844 668.7813,219.8906 Q668.2813,220.4688 667.4844,220.7969 Q666.4063,221.25 665.1094,221.25 Q663.5938,221.25 662.3906,220.625 Q661.4063,220.125 660.7188,219.0625 Q660.0313,217.9844 660.0313,216.7031 L660.0313,215.5469 Q660.0313,214.2188 660.6406,213.0781 Q661.2656,211.9219 662.3594,211.3125 Q663.4531,210.6875 664.6875,210.6875 Q665.4219,210.6875 666.0625,210.8594 Q666.7188,211.0156 667.2656,211.375 Z " fill="#000000"/><text fill="#000000" font-family="sans-serif" font-size="14" lengthAdjust="spacing" textLength="30" x="678.5" y="221.2969">HRM</text><line style="stroke:#181818;stroke-width:0.5;" x1="650.5" x2="710.5" y1="231.5" y2="231.5"/><line style="stroke:#181818;stroke-width:0.5;" x1="650.5" x2="710.5" y1="239.5" y2="239.5"/></g><!--class RegisterJobUI--><g id="elem_RegisterJobUI"><rect codeLine="20" fill="#F1F1F1" height="48" id="RegisterJobUI" rx="2.5" ry="2.5" style="stroke:#181818;stroke-width:0.5;" width="119" x="7" y="35"/><ellipse cx="22" cy="51" fill="#ADD1B2" rx="11" ry="11" style="stroke:#181818;stroke-width:1.0;"/><path d="M24.7656,46.875 Q24.9219,46.6563 25.1094,46.5469 Q25.2969,46.4375 25.5156,46.4375 Q25.8906,46.4375 26.125,46.7031 Q26.3594,46.9531 26.3594,47.5625 L26.3594,49.0156 Q26.3594,49.625 26.125,49.8906 Q25.8906,50.1563 25.5156,50.1563 Q25.1719,50.1563 24.9688,49.9531 Q24.7656,49.7656 24.6563,49.25 Q24.6094,48.8906 24.4219,48.7031 Q24.0938,48.3281 23.4844,48.1094 Q22.875,47.8906 22.25,47.8906 Q21.4844,47.8906 20.8438,48.2188 Q20.2188,48.5469 19.7188,49.2969 Q19.2344,50.0469 19.2344,51.0781 L19.2344,52.1719 Q19.2344,53.4063 20.125,54.2344 Q21.0156,55.0469 22.6094,55.0469 Q23.5469,55.0469 24.2031,54.7969 Q24.5938,54.6406 25.0156,54.2031 Q25.2813,53.9375 25.4219,53.8594 Q25.5781,53.7813 25.7813,53.7813 Q26.1094,53.7813 26.3594,54.0469 Q26.625,54.2969 26.625,54.6406 Q26.625,54.9844 26.2813,55.3906 Q25.7813,55.9688 24.9844,56.2969 Q23.9063,56.75 22.6094,56.75 Q21.0938,56.75 19.8906,56.125 Q18.9063,55.625 18.2188,54.5625 Q17.5313,53.4844 17.5313,52.2031 L17.5313,51.0469 Q17.5313,49.7188 18.1406,48.5781 Q18.7656,47.4219 19.8594,46.8125 Q20.9531,46.1875 22.1875,46.1875 Q22.9219,46.1875 23.5625,46.3594 Q24.2188,46.5156 24.7656,46.875 Z " fill="#000000"/><text fill="#000000" font-family="sans-serif" font-size="14" lengthAdjust="spacing" textLength="87" x="36" y="56.7969">RegisterJobUI</text><line style="stroke:#181818;stroke-width:0.5;" x1="8" x2="125" y1="67" y2="67"/><line style="stroke:#181818;stroke-width:0.5;" x1="8" x2="125" y1="75" y2="75"/></g><!--class RegisterJobController--><g id="elem_RegisterJobController"><rect codeLine="24" fill="#F1F1F1" height="85.2422" id="RegisterJobController" rx="2.5" ry="2.5" style="stroke:#181818;stroke-width:0.5;" width="244" x="161.5" y="16.5"/><ellipse cx="210.75" cy="32.5" fill="#ADD1B2" rx="11" ry="11" style="stroke:#181818;stroke-width:1.0;"/><path d="M213.5156,28.375 Q213.6719,28.1563 213.8594,28.0469 Q214.0469,27.9375 214.2656,27.9375 Q214.6406,27.9375 214.875,28.2031 Q215.1094,28.4531 215.1094,29.0625 L215.1094,30.5156 Q215.1094,31.125 214.875,31.3906 Q214.6406,31.6563 214.2656,31.6563 Q213.9219,31.6563 213.7188,31.4531 Q213.5156,31.2656 213.4063,30.75 Q213.3594,30.3906 213.1719,30.2031 Q212.8438,29.8281 212.2344,29.6094 Q211.625,29.3906 211,29.3906 Q210.2344,29.3906 209.5938,29.7188 Q208.9688,30.0469 208.4688,30.7969 Q207.9844,31.5469 207.9844,32.5781 L207.9844,33.6719 Q207.9844,34.9063 208.875,35.7344 Q209.7656,36.5469 211.3594,36.5469 Q212.2969,36.5469 212.9531,36.2969 Q213.3438,36.1406 213.7656,35.7031 Q214.0313,35.4375 214.1719,35.3594 Q214.3281,35.2813 214.5313,35.2813 Q214.8594,35.2813 215.1094,35.5469 Q215.375,35.7969 215.375,36.1406 Q215.375,36.4844 215.0313,36.8906 Q214.5313,37.4688 213.7344,37.7969 Q212.6563,38.25 211.3594,38.25 Q209.8438,38.25 208.6406,37.625 Q207.6563,37.125 206.9688,36.0625 Q206.2813,34.9844 206.2813,33.7031 L206.2813,32.5469 Q206.2813,31.2188 206.8906,30.0781 Q207.5156,28.9219 208.6094,28.3125 Q209.7031,27.6875 210.9375,27.6875 Q211.6719,27.6875 212.3125,27.8594 Q212.9688,28.0156 213.5156,28.375 Z " fill="#000000"/><text fill="#000000" font-family="sans-serif" font-size="14" lengthAdjust="spacing" textLength="137" x="231.25" y="38.2969">RegisterJobController</text><line style="stroke:#181818;stroke-width:0.5;" x1="162.5" x2="404.5" y1="48.5" y2="48.5"/><line style="stroke:#181818;stroke-width:0.5;" x1="162.5" x2="404.5" y1="56.5" y2="56.5"/><text fill="#000000" font-family="sans-serif" font-size="14" lengthAdjust="spacing" textLength="232" x="167.5" y="75.6074">+CreateJobController(jobRepository)</text><text fill="#000000" font-family="sans-serif" font-size="14" lengthAdjust="spacing" textLength="123" x="167.5" y="94.2285">+registerJob(name)</text></g><!--class Repositories--><g id="elem_Repositories"><rect codeLine="29" fill="#F1F1F1" height="103.8633" id="Repositories" rx="2.5" ry="2.5" style="stroke:#181818;stroke-width:0.5;" width="231" x="509" y="7"/><ellipse cx="580.75" cy="23" fill="#ADD1B2" rx="11" ry="11" style="stroke:#181818;stroke-width:1.0;"/><path d="M583.5156,18.875 Q583.6719,18.6563 583.8594,18.5469 Q584.0469,18.4375 584.2656,18.4375 Q584.6406,18.4375 584.875,18.7031 Q585.1094,18.9531 585.1094,19.5625 L585.1094,21.0156 Q585.1094,21.625 584.875,21.8906 Q584.6406,22.1563 584.2656,22.1563 Q583.9219,22.1563 583.7188,21.9531 Q583.5156,21.7656 583.4063,21.25 Q583.3594,20.8906 583.1719,20.7031 Q582.8438,20.3281 582.2344,20.1094 Q581.625,19.8906 581,19.8906 Q580.2344,19.8906 579.5938,20.2188 Q578.9688,20.5469 578.4688,21.2969 Q577.9844,22.0469 577.9844,23.0781 L577.9844,24.1719 Q577.9844,25.4063 578.875,26.2344 Q579.7656,27.0469 581.3594,27.0469 Q582.2969,27.0469 582.9531,26.7969 Q583.3438,26.6406 583.7656,26.2031 Q584.0313,25.9375 584.1719,25.8594 Q584.3281,25.7813 584.5313,25.7813 Q584.8594,25.7813 585.1094,26.0469 Q585.375,26.2969 585.375,26.6406 Q585.375,26.9844 585.0313,27.3906 Q584.5313,27.9688 583.7344,28.2969 Q582.6563,28.75 581.3594,28.75 Q579.8438,28.75 578.6406,28.125 Q577.6563,27.625 576.9688,26.5625 Q576.2813,25.4844 576.2813,24.2031 L576.2813,23.0469 Q576.2813,21.7188 576.8906,20.5781 Q577.5156,19.4219 578.6094,18.8125 Q579.7031,18.1875 580.9375,18.1875 Q581.6719,18.1875 582.3125,18.3594 Q582.9688,18.5156 583.5156,18.875 Z " fill="#000000"/><text fill="#000000" font-family="sans-serif" font-size="14" lengthAdjust="spacing" textLength="79" x="601.25" y="28.7969">Repositories</text><line style="stroke:#181818;stroke-width:0.5;" x1="510" x2="739" y1="39" y2="39"/><text fill="#000000" font-family="sans-serif" font-size="14" lengthAdjust="spacing" textLength="175" x="515" y="58.1074">-Repositories : Repositories</text><line style="stroke:#181818;stroke-width:0.5;" x1="510" x2="739" y1="65.6211" y2="65.6211"/><text fill="#000000" font-family="sans-serif" font-size="14" lengthAdjust="spacing" textLength="182" x="515" y="84.7285">+getInstance() : Repositories</text><text fill="#000000" font-family="sans-serif" font-size="14" lengthAdjust="spacing" textLength="219" x="515" y="103.3496">+getJobRepository() : Repositories</text></g><!--class JobRepository--><g id="elem_JobRepository"><rect codeLine="35" fill="#F1F1F1" height="66.6211" id="JobRepository" rx="2.5" ry="2.5" style="stroke:#181818;stroke-width:0.5;" width="122" x="421.5" y="190"/><ellipse cx="436.5" cy="206" fill="#ADD1B2" rx="11" ry="11" style="stroke:#181818;stroke-width:1.0;"/><path d="M439.2656,201.875 Q439.4219,201.6563 439.6094,201.5469 Q439.7969,201.4375 440.0156,201.4375 Q440.3906,201.4375 440.625,201.7031 Q440.8594,201.9531 440.8594,202.5625 L440.8594,204.0156 Q440.8594,204.625 440.625,204.8906 Q440.3906,205.1563 440.0156,205.1563 Q439.6719,205.1563 439.4688,204.9531 Q439.2656,204.7656 439.1563,204.25 Q439.1094,203.8906 438.9219,203.7031 Q438.5938,203.3281 437.9844,203.1094 Q437.375,202.8906 436.75,202.8906 Q435.9844,202.8906 435.3438,203.2188 Q434.7188,203.5469 434.2188,204.2969 Q433.7344,205.0469 433.7344,206.0781 L433.7344,207.1719 Q433.7344,208.4063 434.625,209.2344 Q435.5156,210.0469 437.1094,210.0469 Q438.0469,210.0469 438.7031,209.7969 Q439.0938,209.6406 439.5156,209.2031 Q439.7813,208.9375 439.9219,208.8594 Q440.0781,208.7813 440.2813,208.7813 Q440.6094,208.7813 440.8594,209.0469 Q441.125,209.2969 441.125,209.6406 Q441.125,209.9844 440.7813,210.3906 Q440.2813,210.9688 439.4844,211.2969 Q438.4063,211.75 437.1094,211.75 Q435.5938,211.75 434.3906,211.125 Q433.4063,210.625 432.7188,209.5625 Q432.0313,208.4844 432.0313,207.2031 L432.0313,206.0469 Q432.0313,204.7188 432.6406,203.5781 Q433.2656,202.4219 434.3594,201.8125 Q435.4531,201.1875 436.6875,201.1875 Q437.4219,201.1875 438.0625,201.3594 Q438.7188,201.5156 439.2656,201.875 Z " fill="#000000"/><text fill="#000000" font-family="sans-serif" font-size="14" lengthAdjust="spacing" textLength="90" x="450.5" y="211.7969">JobRepository</text><line style="stroke:#181818;stroke-width:0.5;" x1="422.5" x2="542.5" y1="222" y2="222"/><line style="stroke:#181818;stroke-width:0.5;" x1="422.5" x2="542.5" y1="230" y2="230"/><text fill="#000000" font-family="sans-serif" font-size="14" lengthAdjust="spacing" textLength="66" x="427.5" y="249.1074">+register()</text></g><!--link HRM to Job--><g id="link_HRM_Job"><path codeLine="40" d="M661.07,247.71 C644.98,266.93 625.5611,290.139 606.2511,313.209 " fill="none" id="HRM-to-Job" style="stroke:#181818;stroke-width:1.0;"/><polygon fill="#181818" points="602.4,317.81,611.244,313.4759,605.6093,313.9759,605.1093,308.3411,602.4,317.81" style="stroke:#181818;stroke-width:1.0;"/><text fill="#000000" font-family="sans-serif" font-size="13" lengthAdjust="spacing" textLength="7" x="648.7674" y="269.3362">1</text><text fill="#000000" font-family="sans-serif" font-size="13" lengthAdjust="spacing" textLength="5" x="602.5638" y="306.6838">*</text></g><!--link Repositories to Job--><g id="link_Repositories_Job"><path codeLine="41" d="M614.77,111.15 C603.67,169.45 586.8617,257.7758 576.5717,311.8458 " fill="none" id="Repositories-to-Job" style="stroke:#181818;stroke-width:1.0;"/><polygon fill="#181818" points="575.45,317.74,581.0621,309.6465,576.3848,312.8282,573.2031,308.1509,575.45,317.74" style="stroke:#181818;stroke-width:1.0;"/><text fill="#000000" font-family="sans-serif" font-size="13" lengthAdjust="spacing" textLength="7" x="606.0749" y="132.9765">1</text><text fill="#000000" font-family="sans-serif" font-size="13" lengthAdjust="spacing" textLength="5" x="571.3186" y="306.6026">*</text></g><!--link RegisterJobUI to RegisterJobController--><g id="link_RegisterJobUI_RegisterJobController"><path codeLine="42" d="M126.23,59 C133.73,59 138.83,59 138.83,59 C138.83,59 142.79,59 155.32,59 " fill="none" id="RegisterJobUI-to-RegisterJobController" style="stroke:#181818;stroke-width:1.0;stroke-dasharray:7.0,7.0;"/><polygon fill="#181818" points="161.32,59,152.32,55,156.32,59,152.32,63,161.32,59" style="stroke:#181818;stroke-width:1.0;"/></g><!--link RegisterJobController to Repositories--><g id="link_RegisterJobController_Repositories"><path codeLine="43" d="M405.65,59 C439.28,59 469.65,59 502.9,59 " fill="none" id="RegisterJobController-to-Repositories" style="stroke:#181818;stroke-width:1.0;stroke-dasharray:7.0,7.0;"/><polygon fill="#181818" points="508.9,59,499.9,55,503.9,59,499.9,63,508.9,59" style="stroke:#181818;stroke-width:1.0;"/><text fill="#000000" font-family="sans-serif" font-size="13" lengthAdjust="spacing" textLength="67" x="423.75" y="52.0283">repositories</text></g><!--link Repositories to Repositories--><g id="link_Repositories_Repositories"><path codeLine="44" d="M740.29,43.15 C760.74,45.23 775,50.52 775,59 C775,67.48 766.7092,72.1629 746.2592,74.2429 " fill="none" id="Repositories-to-Repositories" style="stroke:#181818;stroke-width:1.0;"/><polygon fill="#181818" points="740.29,74.85,749.6486,77.9188,745.2643,74.3441,748.839,69.9598,740.29,74.85" style="stroke:#181818;stroke-width:1.0;"/><text fill="#000000" font-family="sans-serif" font-size="13" lengthAdjust="spacing" textLength="49" x="781" y="64.5283">instance</text></g><!--link Repositories to JobRepository--><g id="link_Repositories_JobRepository"><path codeLine="45" d="M579.57,111.42 C557.14,137.08 534.6373,162.8313 515.0173,185.2913 " fill="none" id="Repositories-to-JobRepository" style="stroke:#181818;stroke-width:1.0;"/><polygon fill="#181818" points="511.07,189.81,520.0035,185.6635,514.3594,186.0444,513.9785,180.4004,511.07,189.81" style="stroke:#181818;stroke-width:1.0;"/><text fill="#000000" font-family="sans-serif" font-size="13" lengthAdjust="spacing" textLength="7" x="508.849" y="178.8597">1</text></g><!--link JobRepository to Job--><g id="link_JobRepository_Job"><path codeLine="46" d="M503.08,257.18 C514.57,275.44 525.8244,293.3018 538.1144,312.8318 " fill="none" id="JobRepository-to-Job" style="stroke:#181818;stroke-width:1.0;"/><polygon fill="#181818" points="541.31,317.91,539.902,308.1623,538.647,313.6782,533.1311,312.4232,541.31,317.91" style="stroke:#181818;stroke-width:1.0;"/><text fill="#000000" font-family="sans-serif" font-size="13" lengthAdjust="spacing" textLength="7" x="529.5782" y="306.7997">1</text></g><!--link RegisterJobController to JobRepository--><g id="link_RegisterJobController_JobRepository"><path codeLine="47" d="M334.49,101.64 C368.12,129.1 406.8822,160.7555 437.9822,186.1455 " fill="none" id="RegisterJobController-to-JobRepository" style="stroke:#181818;stroke-width:1.0;stroke-dasharray:7.0,7.0;"/><polygon fill="#181818" points="442.63,189.94,438.1879,181.1498,438.7568,186.7779,433.1287,187.3468,442.63,189.94" style="stroke:#181818;stroke-width:1.0;"/><text fill="#000000" font-family="sans-serif" font-size="13" lengthAdjust="spacing" textLength="79" x="402.5" y="156.0283">jobRepository</text></g><!--link RegisterJobController to Job--><g id="link_RegisterJobController_Job"><path codeLine="48" d="M304.92,101.78 C334.57,159.61 384.5,257 384.5,257 C384.5,257 459.4955,298.9975 513.7055,329.3675 " fill="none" id="RegisterJobController-to-Job" style="stroke:#181818;stroke-width:1.0;stroke-dasharray:7.0,7.0;"/><polygon fill="#181818" points="518.94,332.3,513.0432,324.4115,514.5779,329.8562,509.1332,331.3909,518.94,332.3" style="stroke:#181818;stroke-width:1.0;"/><text fill="#000000" font-family="sans-serif" font-size="13" lengthAdjust="spacing" textLength="17" x="385.5" y="229.0283">job</text></g><!--SRC=[VP71Ri8m44Jl_efLBeGYglRA0QdYKf1w0VK3J5YCY-EDx4LLMl7lZTCGR4ZhcprlxDdno1-rhQIJ9PHagJWuAX7OdL1SbKeMHwbmmxL1S5YmjCh4W3_87Nrggs0lZOyLeoroNI5KPEgm4QC1aHoJY5o5aTw_C3kzFJ4k2x8R_ONm9CJ8u9w12PnM1uQT3d4qMI5Q3wne2zy2cZK5AqkSmQQvnIhHdas2deVpiJXVBA_hjyRIRzUej6Tq3Vc-R8H1PK6M7Hc3hdjj0Wk7aZ7HyW_Qhh4YhvbSFUv0TxtcDaeFQ_Jz6CdXBDbsDohafVNDhnIOZ_z4Ld6OU-uSLNZb-l4kgVCshWYbPSyPJATpo1woO199q7inhlLnFjoc6EwunPCMN1mzqSAZDx3koha7GyfaNf5E7p5_HqijCqX-_L_RBon-0000]--></g></svg>