<?xml version="1.0" encoding="us-ascii" standalone="no"?><svg xmlns="http://www.w3.org/2000/svg" xmlns:xlink="http://www.w3.org/1999/xlink" contentStyleType="text/css" height="446px" preserveAspectRatio="none" style="width:843px;height:446px;background:#FFFFFF;" version="1.1" viewBox="0 0 843 446" width="843px" zoomAndPan="magnify"><defs/><g><!--class Job--><g id="elem_Job"><rect codeLine="11" fill="#F1F1F1" height="85.2422" id="Job" rx="2.5" ry="2.5" style="stroke:#181818;stroke-width:0.5;" width="97" x="350" y="354"/><ellipse cx="384.35" cy="370" fill="#ADD1B2" rx="11" ry="11" style="stroke:#181818;stroke-width:1.0;"/><path d="M387.1156,365.875 Q387.2719,365.6563 387.4594,365.5469 Q387.6469,365.4375 387.8656,365.4375 Q388.2406,365.4375 388.475,365.7031 Q388.7094,365.9531 388.7094,366.5625 L388.7094,368.0156 Q388.7094,368.625 388.475,368.8906 Q388.2406,369.1563 387.8656,369.1563 Q387.5219,369.1563 387.3188,368.9531 Q387.1156,368.7656 387.0063,368.25 Q386.9594,367.8906 386.7719,367.7031 Q386.4438,367.3281 385.8344,367.1094 Q385.225,366.8906 384.6,366.8906 Q383.8344,366.8906 383.1938,367.2188 Q382.5688,367.5469 382.0688,368.2969 Q381.5844,369.0469 381.5844,370.0781 L381.5844,371.1719 Q381.5844,372.4063 382.475,373.2344 Q383.3656,374.0469 384.9594,374.0469 Q385.8969,374.0469 386.5531,373.7969 Q386.9438,373.6406 387.3656,373.2031 Q387.6313,372.9375 387.7719,372.8594 Q387.9281,372.7813 388.1313,372.7813 Q388.4594,372.7813 388.7094,373.0469 Q388.975,373.2969 388.975,373.6406 Q388.975,373.9844 388.6313,374.3906 Q388.1313,374.9688 387.3344,375.2969 Q386.2563,375.75 384.9594,375.75 Q383.4438,375.75 382.2406,375.125 Q381.2563,374.625 380.5688,373.5625 Q379.8813,372.4844 379.8813,371.2031 L379.8813,370.0469 Q379.8813,368.7188 380.4906,367.5781 Q381.1156,366.4219 382.2094,365.8125 Q383.3031,365.1875 384.5375,365.1875 Q385.2719,365.1875 385.9125,365.3594 Q386.5688,365.5156 387.1156,365.875 Z " fill="#000000"/><text fill="#000000" font-family="sans-serif" font-size="14" lengthAdjust="spacing" textLength="22" x="402.65" y="375.7969">Job</text><line style="stroke:#181818;stroke-width:0.5;" x1="351" x2="446" y1="386" y2="386"/><text fill="#000000" font-family="sans-serif" font-size="14" lengthAdjust="spacing" textLength="85" x="356" y="405.1074">-name: String</text><line style="stroke:#181818;stroke-width:0.5;" x1="351" x2="446" y1="412.6211" y2="412.6211"/><text fill="#000000" font-family="sans-serif" font-size="14" lengthAdjust="spacing" textLength="75" x="356" y="431.7285">+Job(name)</text></g><!--class HRM--><g id="elem_HRM"><rect codeLine="17" fill="#F1F1F1" height="85.2422" id="HRM" rx="2.5" ry="2.5" style="stroke:#181818;stroke-width:0.5;" width="135" x="495" y="190"/><ellipse cx="543.25" cy="206" fill="#ADD1B2" rx="11" ry="11" style="stroke:#181818;stroke-width:1.0;"/><path d="M546.0156,201.875 Q546.1719,201.6563 546.3594,201.5469 Q546.5469,201.4375 546.7656,201.4375 Q547.1406,201.4375 547.375,201.7031 Q547.6094,201.9531 547.6094,202.5625 L547.6094,204.0156 Q547.6094,204.625 547.375,204.8906 Q547.1406,205.1563 546.7656,205.1563 Q546.4219,205.1563 546.2188,204.9531 Q546.0156,204.7656 545.9063,204.25 Q545.8594,203.8906 545.6719,203.7031 Q545.3438,203.3281 544.7344,203.1094 Q544.125,202.8906 543.5,202.8906 Q542.7344,202.8906 542.0938,203.2188 Q541.4688,203.5469 540.9688,204.2969 Q540.4844,205.0469 540.4844,206.0781 L540.4844,207.1719 Q540.4844,208.4063 541.375,209.2344 Q542.2656,210.0469 543.8594,210.0469 Q544.7969,210.0469 545.4531,209.7969 Q545.8438,209.6406 546.2656,209.2031 Q546.5313,208.9375 546.6719,208.8594 Q546.8281,208.7813 547.0313,208.7813 Q547.3594,208.7813 547.6094,209.0469 Q547.875,209.2969 547.875,209.6406 Q547.875,209.9844 547.5313,210.3906 Q547.0313,210.9688 546.2344,211.2969 Q545.1563,211.75 543.8594,211.75 Q542.3438,211.75 541.1406,211.125 Q540.1563,210.625 539.4688,209.5625 Q538.7813,208.4844 538.7813,207.2031 L538.7813,206.0469 Q538.7813,204.7188 539.3906,203.5781 Q540.0156,202.4219 541.1094,201.8125 Q542.2031,201.1875 543.4375,201.1875 Q544.1719,201.1875 544.8125,201.3594 Q545.4688,201.5156 546.0156,201.875 Z " fill="#000000"/><text fill="#000000" font-family="sans-serif" font-size="14" lengthAdjust="spacing" textLength="30" x="563.75" y="211.7969">HRM</text><line style="stroke:#181818;stroke-width:0.5;" x1="496" x2="629" y1="222" y2="222"/><line style="stroke:#181818;stroke-width:0.5;" x1="496" x2="629" y1="230" y2="230"/><text fill="#000000" font-family="sans-serif" font-size="14" lengthAdjust="spacing" textLength="48" x="501" y="249.1074">+HRM()</text><text fill="#000000" font-family="sans-serif" font-size="14" lengthAdjust="spacing" textLength="123" x="501" y="267.7285">+registerJob(name)</text></g><!--class RegisterJobUI--><g id="elem_RegisterJobUI"><rect codeLine="23" fill="#F1F1F1" height="48" id="RegisterJobUI" rx="2.5" ry="2.5" style="stroke:#181818;stroke-width:0.5;" width="119" x="7" y="35"/><ellipse cx="22" cy="51" fill="#ADD1B2" rx="11" ry="11" style="stroke:#181818;stroke-width:1.0;"/><path d="M24.7656,46.875 Q24.9219,46.6563 25.1094,46.5469 Q25.2969,46.4375 25.5156,46.4375 Q25.8906,46.4375 26.125,46.7031 Q26.3594,46.9531 26.3594,47.5625 L26.3594,49.0156 Q26.3594,49.625 26.125,49.8906 Q25.8906,50.1563 25.5156,50.1563 Q25.1719,50.1563 24.9688,49.9531 Q24.7656,49.7656 24.6563,49.25 Q24.6094,48.8906 24.4219,48.7031 Q24.0938,48.3281 23.4844,48.1094 Q22.875,47.8906 22.25,47.8906 Q21.4844,47.8906 20.8438,48.2188 Q20.2188,48.5469 19.7188,49.2969 Q19.2344,50.0469 19.2344,51.0781 L19.2344,52.1719 Q19.2344,53.4063 20.125,54.2344 Q21.0156,55.0469 22.6094,55.0469 Q23.5469,55.0469 24.2031,54.7969 Q24.5938,54.6406 25.0156,54.2031 Q25.2813,53.9375 25.4219,53.8594 Q25.5781,53.7813 25.7813,53.7813 Q26.1094,53.7813 26.3594,54.0469 Q26.625,54.2969 26.625,54.6406 Q26.625,54.9844 26.2813,55.3906 Q25.7813,55.9688 24.9844,56.2969 Q23.9063,56.75 22.6094,56.75 Q21.0938,56.75 19.8906,56.125 Q18.9063,55.625 18.2188,54.5625 Q17.5313,53.4844 17.5313,52.2031 L17.5313,51.0469 Q17.5313,49.7188 18.1406,48.5781 Q18.7656,47.4219 19.8594,46.8125 Q20.9531,46.1875 22.1875,46.1875 Q22.9219,46.1875 23.5625,46.3594 Q24.2188,46.5156 24.7656,46.875 Z " fill="#000000"/><text fill="#000000" font-family="sans-serif" font-size="14" lengthAdjust="spacing" textLength="87" x="36" y="56.7969">RegisterJobUI</text><line style="stroke:#181818;stroke-width:0.5;" x1="8" x2="125" y1="67" y2="67"/><line style="stroke:#181818;stroke-width:0.5;" x1="8" x2="125" y1="75" y2="75"/></g><!--class RegisterJobController--><g id="elem_RegisterJobController"><rect codeLine="27" fill="#F1F1F1" height="85.2422" id="RegisterJobController" rx="2.5" ry="2.5" style="stroke:#181818;stroke-width:0.5;" width="244" x="161.5" y="16.5"/><ellipse cx="210.75" cy="32.5" fill="#ADD1B2" rx="11" ry="11" style="stroke:#181818;stroke-width:1.0;"/><path d="M213.5156,28.375 Q213.6719,28.1563 213.8594,28.0469 Q214.0469,27.9375 214.2656,27.9375 Q214.6406,27.9375 214.875,28.2031 Q215.1094,28.4531 215.1094,29.0625 L215.1094,30.5156 Q215.1094,31.125 214.875,31.3906 Q214.6406,31.6563 214.2656,31.6563 Q213.9219,31.6563 213.7188,31.4531 Q213.5156,31.2656 213.4063,30.75 Q213.3594,30.3906 213.1719,30.2031 Q212.8438,29.8281 212.2344,29.6094 Q211.625,29.3906 211,29.3906 Q210.2344,29.3906 209.5938,29.7188 Q208.9688,30.0469 208.4688,30.7969 Q207.9844,31.5469 207.9844,32.5781 L207.9844,33.6719 Q207.9844,34.9063 208.875,35.7344 Q209.7656,36.5469 211.3594,36.5469 Q212.2969,36.5469 212.9531,36.2969 Q213.3438,36.1406 213.7656,35.7031 Q214.0313,35.4375 214.1719,35.3594 Q214.3281,35.2813 214.5313,35.2813 Q214.8594,35.2813 215.1094,35.5469 Q215.375,35.7969 215.375,36.1406 Q215.375,36.4844 215.0313,36.8906 Q214.5313,37.4688 213.7344,37.7969 Q212.6563,38.25 211.3594,38.25 Q209.8438,38.25 208.6406,37.625 Q207.6563,37.125 206.9688,36.0625 Q206.2813,34.9844 206.2813,33.7031 L206.2813,32.5469 Q206.2813,31.2188 206.8906,30.0781 Q207.5156,28.9219 208.6094,28.3125 Q209.7031,27.6875 210.9375,27.6875 Q211.6719,27.6875 212.3125,27.8594 Q212.9688,28.0156 213.5156,28.375 Z " fill="#000000"/><text fill="#000000" font-family="sans-serif" font-size="14" lengthAdjust="spacing" textLength="137" x="231.25" y="38.2969">RegisterJobController</text><line style="stroke:#181818;stroke-width:0.5;" x1="162.5" x2="404.5" y1="48.5" y2="48.5"/><line style="stroke:#181818;stroke-width:0.5;" x1="162.5" x2="404.5" y1="56.5" y2="56.5"/><text fill="#000000" font-family="sans-serif" font-size="14" lengthAdjust="spacing" textLength="232" x="167.5" y="75.6074">+CreateJobController(jobRepository)</text><text fill="#000000" font-family="sans-serif" font-size="14" lengthAdjust="spacing" textLength="123" x="167.5" y="94.2285">+registerJob(name)</text></g><!--class Repositories--><g id="elem_Repositories"><rect codeLine="32" fill="#F1F1F1" height="103.8633" id="Repositories" rx="2.5" ry="2.5" style="stroke:#181818;stroke-width:0.5;" width="231" x="509" y="7"/><ellipse cx="580.75" cy="23" fill="#ADD1B2" rx="11" ry="11" style="stroke:#181818;stroke-width:1.0;"/><path d="M583.5156,18.875 Q583.6719,18.6563 583.8594,18.5469 Q584.0469,18.4375 584.2656,18.4375 Q584.6406,18.4375 584.875,18.7031 Q585.1094,18.9531 585.1094,19.5625 L585.1094,21.0156 Q585.1094,21.625 584.875,21.8906 Q584.6406,22.1563 584.2656,22.1563 Q583.9219,22.1563 583.7188,21.9531 Q583.5156,21.7656 583.4063,21.25 Q583.3594,20.8906 583.1719,20.7031 Q582.8438,20.3281 582.2344,20.1094 Q581.625,19.8906 581,19.8906 Q580.2344,19.8906 579.5938,20.2188 Q578.9688,20.5469 578.4688,21.2969 Q577.9844,22.0469 577.9844,23.0781 L577.9844,24.1719 Q577.9844,25.4063 578.875,26.2344 Q579.7656,27.0469 581.3594,27.0469 Q582.2969,27.0469 582.9531,26.7969 Q583.3438,26.6406 583.7656,26.2031 Q584.0313,25.9375 584.1719,25.8594 Q584.3281,25.7813 584.5313,25.7813 Q584.8594,25.7813 585.1094,26.0469 Q585.375,26.2969 585.375,26.6406 Q585.375,26.9844 585.0313,27.3906 Q584.5313,27.9688 583.7344,28.2969 Q582.6563,28.75 581.3594,28.75 Q579.8438,28.75 578.6406,28.125 Q577.6563,27.625 576.9688,26.5625 Q576.2813,25.4844 576.2813,24.2031 L576.2813,23.0469 Q576.2813,21.7188 576.8906,20.5781 Q577.5156,19.4219 578.6094,18.8125 Q579.7031,18.1875 580.9375,18.1875 Q581.6719,18.1875 582.3125,18.3594 Q582.9688,18.5156 583.5156,18.875 Z " fill="#000000"/><text fill="#000000" font-family="sans-serif" font-size="14" lengthAdjust="spacing" textLength="79" x="601.25" y="28.7969">Repositories</text><line style="stroke:#181818;stroke-width:0.5;" x1="510" x2="739" y1="39" y2="39"/><line style="stroke:#181818;stroke-width:0.5;" x1="510" x2="739" y1="47" y2="47"/><text fill="#000000" font-family="sans-serif" font-size="14" lengthAdjust="spacing" textLength="94" x="515" y="66.1074">-Repositories()</text><text fill="#000000" font-family="sans-serif" font-size="14" lengthAdjust="spacing" textLength="182" x="515" y="84.7285">+getInstance() : Repositories</text><text fill="#000000" font-family="sans-serif" font-size="14" lengthAdjust="spacing" textLength="219" x="515" y="103.3496">+getJobRepository() : Repositories</text></g><!--class JobRepository--><g id="elem_JobRepository"><rect codeLine="38" fill="#F1F1F1" height="66.6211" id="JobRepository" rx="2.5" ry="2.5" style="stroke:#181818;stroke-width:0.5;" width="122" x="337.5" y="199"/><ellipse cx="352.5" cy="215" fill="#ADD1B2" rx="11" ry="11" style="stroke:#181818;stroke-width:1.0;"/><path d="M355.2656,210.875 Q355.4219,210.6563 355.6094,210.5469 Q355.7969,210.4375 356.0156,210.4375 Q356.3906,210.4375 356.625,210.7031 Q356.8594,210.9531 356.8594,211.5625 L356.8594,213.0156 Q356.8594,213.625 356.625,213.8906 Q356.3906,214.1563 356.0156,214.1563 Q355.6719,214.1563 355.4688,213.9531 Q355.2656,213.7656 355.1563,213.25 Q355.1094,212.8906 354.9219,212.7031 Q354.5938,212.3281 353.9844,212.1094 Q353.375,211.8906 352.75,211.8906 Q351.9844,211.8906 351.3438,212.2188 Q350.7188,212.5469 350.2188,213.2969 Q349.7344,214.0469 349.7344,215.0781 L349.7344,216.1719 Q349.7344,217.4063 350.625,218.2344 Q351.5156,219.0469 353.1094,219.0469 Q354.0469,219.0469 354.7031,218.7969 Q355.0938,218.6406 355.5156,218.2031 Q355.7813,217.9375 355.9219,217.8594 Q356.0781,217.7813 356.2813,217.7813 Q356.6094,217.7813 356.8594,218.0469 Q357.125,218.2969 357.125,218.6406 Q357.125,218.9844 356.7813,219.3906 Q356.2813,219.9688 355.4844,220.2969 Q354.4063,220.75 353.1094,220.75 Q351.5938,220.75 350.3906,220.125 Q349.4063,219.625 348.7188,218.5625 Q348.0313,217.4844 348.0313,216.2031 L348.0313,215.0469 Q348.0313,213.7188 348.6406,212.5781 Q349.2656,211.4219 350.3594,210.8125 Q351.4531,210.1875 352.6875,210.1875 Q353.4219,210.1875 354.0625,210.3594 Q354.7188,210.5156 355.2656,210.875 Z " fill="#000000"/><text fill="#000000" font-family="sans-serif" font-size="14" lengthAdjust="spacing" textLength="90" x="366.5" y="220.7969">JobRepository</text><line style="stroke:#181818;stroke-width:0.5;" x1="338.5" x2="458.5" y1="231" y2="231"/><line style="stroke:#181818;stroke-width:0.5;" x1="338.5" x2="458.5" y1="239" y2="239"/><text fill="#000000" font-family="sans-serif" font-size="14" lengthAdjust="spacing" textLength="66" x="343.5" y="258.1074">+register()</text></g><!--reverse link HRM to Job--><g id="link_HRM_Job"><path codeLine="43" d="M511.7326,283.6528 C487.2426,307.8428 465.05,329.76 440.59,353.92 " fill="none" id="HRM-backto-Job" style="stroke:#181818;stroke-width:1.0;"/><polygon fill="none" points="520.27,275.22,513.1904,276.5906,511.7326,283.6528,518.8122,282.2822,520.27,275.22" style="stroke:#181818;stroke-width:1.0;"/><text fill="#000000" font-family="sans-serif" font-size="13" lengthAdjust="spacing" textLength="43" x="486.5" y="320.0283">creates</text><text fill="#000000" font-family="sans-serif" font-size="13" lengthAdjust="spacing" textLength="5" x="441.8997" y="342.8113">*</text></g><!--link RegisterJobUI to RegisterJobController--><g id="link_RegisterJobUI_RegisterJobController"><path codeLine="44" d="M126.23,59 C133.73,59 138.83,59 138.83,59 C138.83,59 142.79,59 155.32,59 " fill="none" id="RegisterJobUI-to-RegisterJobController" style="stroke:#181818;stroke-width:1.0;stroke-dasharray:7.0,7.0;"/><polygon fill="#181818" points="161.32,59,152.32,55,156.32,59,152.32,63,161.32,59" style="stroke:#181818;stroke-width:1.0;"/></g><!--link RegisterJobController to Repositories--><g id="link_RegisterJobController_Repositories"><path codeLine="45" d="M405.65,59 C439.28,59 469.65,59 502.9,59 " fill="none" id="RegisterJobController-to-Repositories" style="stroke:#181818;stroke-width:1.0;stroke-dasharray:7.0,7.0;"/><polygon fill="#181818" points="508.9,59,499.9,55,503.9,59,499.9,63,508.9,59" style="stroke:#181818;stroke-width:1.0;"/><text fill="#000000" font-family="sans-serif" font-size="13" lengthAdjust="spacing" textLength="67" x="423.75" y="52.0283">repositories</text></g><!--link Repositories to Repositories--><g id="link_Repositories_Repositories"><path codeLine="46" d="M740.29,43.15 C760.74,45.23 775,50.52 775,59 C775,67.48 766.7092,72.1629 746.2592,74.2429 " fill="none" id="Repositories-to-Repositories" style="stroke:#181818;stroke-width:1.0;"/><polygon fill="#181818" points="740.29,74.85,749.6486,77.9188,745.2643,74.3441,748.839,69.9598,740.29,74.85" style="stroke:#181818;stroke-width:1.0;"/><text fill="#000000" font-family="sans-serif" font-size="13" lengthAdjust="spacing" textLength="49" x="781" y="64.5283">instance</text></g><!--link Repositories to JobRepository--><g id="link_Repositories_JobRepository"><path codeLine="47" d="M557,111.22 C519.54,139.65 478.8493,170.5226 446.2393,195.2726 " fill="none" id="Repositories-to-JobRepository" style="stroke:#181818;stroke-width:1.0;"/><polygon fill="#181818" points="441.46,198.9,451.0473,196.6452,445.4428,195.8772,446.2108,190.2727,441.46,198.9" style="stroke:#181818;stroke-width:1.0;"/><text fill="#000000" font-family="sans-serif" font-size="13" lengthAdjust="spacing" textLength="7" x="442.2287" y="187.7058">1</text></g><!--reverse link JobRepository to Job--><g id="link_JobRepository_Job"><path codeLine="48" d="M398.5,278.28 C398.5,303.52 398.5,326.58 398.5,353.82 " fill="none" id="JobRepository-backto-Job" style="stroke:#181818;stroke-width:1.0;"/><polygon fill="none" points="398.5,266.28,394.5,272.28,398.5,278.28,402.5,272.28,398.5,266.28" style="stroke:#181818;stroke-width:1.0;"/><text fill="#000000" font-family="sans-serif" font-size="13" lengthAdjust="spacing" textLength="21" x="399.5" y="320.0283">has</text><text fill="#000000" font-family="sans-serif" font-size="13" lengthAdjust="spacing" textLength="7" x="390.9422" y="342.6954">1</text></g><!--link RegisterJobController to JobRepository--><g id="link_RegisterJobController_JobRepository"><path codeLine="49" d="M311.34,101.52 C331.41,131.45 354.7885,166.3166 373.3285,193.9666 " fill="none" id="RegisterJobController-to-JobRepository" style="stroke:#181818;stroke-width:1.0;stroke-dasharray:7.0,7.0;"/><polygon fill="#181818" points="376.67,198.95,374.98,189.2472,373.8854,194.7972,368.3355,193.7025,376.67,198.95" style="stroke:#181818;stroke-width:1.0;"/><text fill="#000000" font-family="sans-serif" font-size="13" lengthAdjust="spacing" textLength="79" x="349.5" y="156.0283">jobRepository</text></g><!--link RegisterJobController to Job--><g id="link_RegisterJobController_Job"><path codeLine="50" d="M286.8,101.71 C291.74,164.23 300.5,275 300.5,275 C300.5,275 332.4036,314.2356 360.7136,349.0356 " fill="none" id="RegisterJobController-to-Job" style="stroke:#181818;stroke-width:1.0;stroke-dasharray:7.0,7.0;"/><polygon fill="#181818" points="364.5,353.69,361.9234,344.1842,361.3447,349.8113,355.7175,349.2327,364.5,353.69" style="stroke:#181818;stroke-width:1.0;"/><text fill="#000000" font-family="sans-serif" font-size="13" lengthAdjust="spacing" textLength="17" x="301.5" y="238.0283">job</text></g><!--SRC=[VL51Ri8m4Bpx5QjS24MfoZM7IXMNWjGBg0ymOKaCZZUo5rLfnT-Rf26nHQXFziwCTsTsvixALDBA4aeob1MMIWIs5nGZKidiB7FSSQqHB6OiJQvzWYlaWRwKoU4ejVCHhGnoNI5KfEls8MOJ85acuQaoBPrxOxPgVs5SPsHswXlXHOYPnYC34rYL5mm7rOwZo0ZHQM13U_WHq9m4Z2mnXLtpYyb5LrkqUDpMv-9waxnlFth9eht7y_vkCLUEqOwIKRCTiSzrevv4LcJOajPeX_zN5YLZWCKdsc-n8gUORFsukTUX9ojqWrU_E3Z8aTV6DTlAC9v36f16oiRlVy-xUj6ElC7HRT2ucr2qOG8b2KHFKRUC5BBEinDXPi-lqr69wG0xkkSxRHfxGmPOajoHLH_3FJ5QHg4p4Vhil2nlNWhf7WyO2bC85lklx8yiVW40]--></g></svg>