<?xml version="1.0" encoding="us-ascii" standalone="no"?><svg xmlns="http://www.w3.org/2000/svg" xmlns:xlink="http://www.w3.org/1999/xlink" contentStyleType="text/css" height="726px" preserveAspectRatio="none" style="width:833px;height:726px;background:#FFFFFF;" version="1.1" viewBox="0 0 833 726" width="833px" zoomAndPan="magnify"><defs/><g><rect fill="#FFFFFF" height="494.2871" style="stroke:#181818;stroke-width:1.0;" width="10" x="61" y="112.2422"/><rect fill="#FFFFFF" height="31.291" style="stroke:#181818;stroke-width:1.0;" width="10" x="271" y="135.5332"/><rect fill="#FFFFFF" height="31.291" style="stroke:#181818;stroke-width:1.0;" width="10" x="271" y="198.1152"/><rect fill="#FFFFFF" height="345.832" style="stroke:#181818;stroke-width:1.0;" width="10" x="271" y="260.6973"/><rect fill="#FFFFFF" height="283.25" style="stroke:#181818;stroke-width:1.0;" width="10" x="414" y="291.9883"/><rect fill="#FFFFFF" height="31.291" style="stroke:#181818;stroke-width:1.0;" width="10" x="548" y="323.2793"/><rect fill="#FFFFFF" height="31.291" style="stroke:#181818;stroke-width:1.0;" width="10" x="653" y="385.8613"/><rect fill="#FFFFFF" height="95.5039" style="stroke:#181818;stroke-width:1.0;" width="10" x="765.5" y="448.4434"/><line style="stroke:#181818;stroke-width:0.5;stroke-dasharray:5.0,5.0;" x1="66" x2="66" y1="102.2422" y2="624.5293"/><line style="stroke:#181818;stroke-width:0.5;stroke-dasharray:5.0,5.0;" x1="275.5" x2="275.5" y1="102.2422" y2="624.5293"/><line style="stroke:#181818;stroke-width:0.5;stroke-dasharray:5.0,5.0;" x1="418.5" x2="418.5" y1="102.2422" y2="624.5293"/><line style="stroke:#181818;stroke-width:0.5;stroke-dasharray:5.0,5.0;" x1="552.5" x2="552.5" y1="102.2422" y2="624.5293"/><line style="stroke:#181818;stroke-width:0.5;stroke-dasharray:5.0,5.0;" x1="657.5" x2="657.5" y1="102.2422" y2="624.5293"/><line style="stroke:#181818;stroke-width:0.5;stroke-dasharray:5.0,5.0;" x1="770.5" x2="770.5" y1="102.2422" y2="624.5293"/><text fill="#000000" font-family="sans-serif" font-size="14" lengthAdjust="spacing" textLength="116" x="5" y="80.1074">Human Resources</text><text fill="#000000" font-family="sans-serif" font-size="14" lengthAdjust="spacing" textLength="56" x="37" y="98.7285">Manager</text><ellipse cx="66" cy="13.5" fill="#E3E3E3" rx="8" ry="8" style="stroke:#181818;stroke-width:0.5;"/><path d="M66,21.5 L66,48.5 M53,29.5 L79,29.5 M66,48.5 L53,63.5 M66,48.5 L79,63.5 " fill="none" style="stroke:#181818;stroke-width:0.5;"/><text fill="#000000" font-family="sans-serif" font-size="14" lengthAdjust="spacing" textLength="116" x="5" y="638.6367">Human Resources</text><text fill="#000000" font-family="sans-serif" font-size="14" lengthAdjust="spacing" textLength="56" x="37" y="657.2578">Manager</text><ellipse cx="66" cy="669.2715" fill="#E3E3E3" rx="8" ry="8" style="stroke:#181818;stroke-width:0.5;"/><path d="M66,677.2715 L66,704.2715 M53,685.2715 L79,685.2715 M66,704.2715 L53,719.2715 M66,704.2715 L79,719.2715 " fill="none" style="stroke:#181818;stroke-width:0.5;"/><rect fill="#E3E3E3" height="32.6211" rx="2.5" ry="2.5" style="stroke:#181818;stroke-width:0.5;" width="105" x="223.5" y="68.6211"/><text fill="#000000" font-family="sans-serif" font-size="14" lengthAdjust="spacing" textLength="91" x="230.5" y="90.7285">:RegisterJobUI</text><rect fill="#E3E3E3" height="32.6211" rx="2.5" ry="2.5" style="stroke:#181818;stroke-width:0.5;" width="105" x="223.5" y="623.5293"/><text fill="#000000" font-family="sans-serif" font-size="14" lengthAdjust="spacing" textLength="91" x="230.5" y="645.6367">:RegisterJobUI</text><rect fill="#E3E3E3" height="32.6211" rx="2.5" ry="2.5" style="stroke:#181818;stroke-width:0.5;" width="155" x="341.5" y="68.6211"/><text fill="#000000" font-family="sans-serif" font-size="14" lengthAdjust="spacing" textLength="141" x="348.5" y="90.7285">:RegisterJobController</text><rect fill="#E3E3E3" height="32.6211" rx="2.5" ry="2.5" style="stroke:#181818;stroke-width:0.5;" width="155" x="341.5" y="623.5293"/><text fill="#000000" font-family="sans-serif" font-size="14" lengthAdjust="spacing" textLength="141" x="348.5" y="645.6367">:RegisterJobController</text><rect fill="#E3E3E3" height="32.6211" rx="2.5" ry="2.5" style="stroke:#181818;stroke-width:0.5;" width="93" x="506.5" y="68.6211"/><text fill="#000000" font-family="sans-serif" font-size="14" lengthAdjust="spacing" textLength="79" x="513.5" y="90.7285">Repositories</text><rect fill="#E3E3E3" height="32.6211" rx="2.5" ry="2.5" style="stroke:#181818;stroke-width:0.5;" width="93" x="506.5" y="623.5293"/><text fill="#000000" font-family="sans-serif" font-size="14" lengthAdjust="spacing" textLength="79" x="513.5" y="645.6367">Repositories</text><rect fill="#E3E3E3" height="51.2422" rx="2.5" ry="2.5" style="stroke:#181818;stroke-width:0.5;" width="97" x="609.5" y="50"/><text fill="#000000" font-family="sans-serif" font-size="14" lengthAdjust="spacing" textLength="74" x="621" y="72.1074">repositories</text><text fill="#000000" font-family="sans-serif" font-size="14" lengthAdjust="spacing" textLength="83" x="616.5" y="90.7285">:Repositories</text><rect fill="#E3E3E3" height="51.2422" rx="2.5" ry="2.5" style="stroke:#181818;stroke-width:0.5;" width="97" x="609.5" y="623.5293"/><text fill="#000000" font-family="sans-serif" font-size="14" lengthAdjust="spacing" textLength="74" x="621" y="645.6367">repositories</text><text fill="#000000" font-family="sans-serif" font-size="14" lengthAdjust="spacing" textLength="83" x="616.5" y="664.2578">:Repositories</text><rect fill="#E3E3E3" height="51.2422" rx="2.5" ry="2.5" style="stroke:#181818;stroke-width:0.5;" width="108" x="716.5" y="50"/><text fill="#000000" font-family="sans-serif" font-size="14" lengthAdjust="spacing" textLength="87" x="727" y="72.1074">jobRepository</text><text fill="#000000" font-family="sans-serif" font-size="14" lengthAdjust="spacing" textLength="94" x="723.5" y="90.7285">:JobRepository</text><rect fill="#E3E3E3" height="51.2422" rx="2.5" ry="2.5" style="stroke:#181818;stroke-width:0.5;" width="108" x="716.5" y="623.5293"/><text fill="#000000" font-family="sans-serif" font-size="14" lengthAdjust="spacing" textLength="87" x="727" y="645.6367">jobRepository</text><text fill="#000000" font-family="sans-serif" font-size="14" lengthAdjust="spacing" textLength="94" x="723.5" y="664.2578">:JobRepository</text><rect fill="#FFFFFF" height="494.2871" style="stroke:#181818;stroke-width:1.0;" width="10" x="61" y="112.2422"/><rect fill="#FFFFFF" height="31.291" style="stroke:#181818;stroke-width:1.0;" width="10" x="271" y="135.5332"/><rect fill="#FFFFFF" height="31.291" style="stroke:#181818;stroke-width:1.0;" width="10" x="271" y="198.1152"/><rect fill="#FFFFFF" height="345.832" style="stroke:#181818;stroke-width:1.0;" width="10" x="271" y="260.6973"/><rect fill="#FFFFFF" height="283.25" style="stroke:#181818;stroke-width:1.0;" width="10" x="414" y="291.9883"/><rect fill="#FFFFFF" height="31.291" style="stroke:#181818;stroke-width:1.0;" width="10" x="548" y="323.2793"/><rect fill="#FFFFFF" height="31.291" style="stroke:#181818;stroke-width:1.0;" width="10" x="653" y="385.8613"/><rect fill="#FFFFFF" height="95.5039" style="stroke:#181818;stroke-width:1.0;" width="10" x="765.5" y="448.4434"/><polygon fill="#181818" points="259,131.5332,269,135.5332,259,139.5332,263,135.5332" style="stroke:#181818;stroke-width:1.0;"/><line style="stroke:#181818;stroke-width:1.0;" x1="71" x2="265" y1="135.5332" y2="135.5332"/><text fill="#000000" font-family="sans-serif" font-size="13" font-weight="bold" lengthAdjust="spacing" textLength="7" x="78" y="130.2705">1</text><text fill="#000000" font-family="sans-serif" font-size="13" lengthAdjust="spacing" textLength="142" x="89" y="130.2705">asks to create a new job</text><polygon fill="#181818" points="82,162.8242,72,166.8242,82,170.8242,78,166.8242" style="stroke:#181818;stroke-width:1.0;"/><line style="stroke:#181818;stroke-width:1.0;stroke-dasharray:2.0,2.0;" x1="76" x2="275" y1="166.8242" y2="166.8242"/><text fill="#000000" font-family="sans-serif" font-size="13" font-weight="bold" lengthAdjust="spacing" textLength="7" x="88" y="161.5615">2</text><text fill="#000000" font-family="sans-serif" font-size="13" lengthAdjust="spacing" textLength="86" x="99" y="161.5615">requests name</text><polygon fill="#181818" points="259,194.1152,269,198.1152,259,202.1152,263,198.1152" style="stroke:#181818;stroke-width:1.0;"/><line style="stroke:#181818;stroke-width:1.0;" x1="71" x2="265" y1="198.1152" y2="198.1152"/><text fill="#000000" font-family="sans-serif" font-size="13" font-weight="bold" lengthAdjust="spacing" textLength="7" x="78" y="192.8525">3</text><text fill="#000000" font-family="sans-serif" font-size="13" lengthAdjust="spacing" textLength="129" x="89" y="192.8525">types requested name</text><polygon fill="#181818" points="82,225.4063,72,229.4063,82,233.4063,78,229.4063" style="stroke:#181818;stroke-width:1.0;"/><line style="stroke:#181818;stroke-width:1.0;stroke-dasharray:2.0,2.0;" x1="76" x2="275" y1="229.4063" y2="229.4063"/><text fill="#000000" font-family="sans-serif" font-size="13" font-weight="bold" lengthAdjust="spacing" textLength="7" x="88" y="224.1436">4</text><text fill="#000000" font-family="sans-serif" font-size="13" lengthAdjust="spacing" textLength="124" x="99" y="224.1436">requests confirmation</text><polygon fill="#181818" points="259,256.6973,269,260.6973,259,264.6973,263,260.6973" style="stroke:#181818;stroke-width:1.0;"/><line style="stroke:#181818;stroke-width:1.0;" x1="71" x2="265" y1="260.6973" y2="260.6973"/><text fill="#000000" font-family="sans-serif" font-size="13" font-weight="bold" lengthAdjust="spacing" textLength="7" x="78" y="255.4346">5</text><text fill="#000000" font-family="sans-serif" font-size="13" lengthAdjust="spacing" textLength="49" x="89" y="255.4346">confirms</text><polygon fill="#181818" points="402,287.9883,412,291.9883,402,295.9883,406,291.9883" style="stroke:#181818;stroke-width:1.0;"/><line style="stroke:#181818;stroke-width:1.0;" x1="281" x2="408" y1="291.9883" y2="291.9883"/><text fill="#000000" font-family="sans-serif" font-size="13" font-weight="bold" lengthAdjust="spacing" textLength="7" x="288" y="286.7256">6</text><text fill="#000000" font-family="sans-serif" font-size="13" lengthAdjust="spacing" textLength="103" x="299" y="286.7256">registerJob(name)</text><polygon fill="#181818" points="536,319.2793,546,323.2793,536,327.2793,540,323.2793" style="stroke:#181818;stroke-width:1.0;"/><line style="stroke:#181818;stroke-width:1.0;" x1="424" x2="542" y1="323.2793" y2="323.2793"/><text fill="#000000" font-family="sans-serif" font-size="13" font-weight="bold" lengthAdjust="spacing" textLength="7" x="431" y="318.0166">7</text><text fill="#000000" font-family="sans-serif" font-size="13" lengthAdjust="spacing" textLength="75" x="442" y="318.0166">getInstance()</text><polygon fill="#181818" points="435,350.5703,425,354.5703,435,358.5703,431,354.5703" style="stroke:#181818;stroke-width:1.0;"/><line style="stroke:#181818;stroke-width:1.0;stroke-dasharray:2.0,2.0;" x1="429" x2="552" y1="354.5703" y2="354.5703"/><text fill="#000000" font-family="sans-serif" font-size="13" font-weight="bold" lengthAdjust="spacing" textLength="7" x="441" y="349.3076">8</text><text fill="#000000" font-family="sans-serif" font-size="13" lengthAdjust="spacing" textLength="67" x="452" y="349.3076">repositories</text><polygon fill="#181818" points="641,381.8613,651,385.8613,641,389.8613,645,385.8613" style="stroke:#181818;stroke-width:1.0;"/><line style="stroke:#181818;stroke-width:1.0;" x1="424" x2="647" y1="385.8613" y2="385.8613"/><text fill="#000000" font-family="sans-serif" font-size="13" font-weight="bold" lengthAdjust="spacing" textLength="7" x="431" y="380.5986">9</text><text fill="#000000" font-family="sans-serif" font-size="13" lengthAdjust="spacing" textLength="108" x="442" y="380.5986">getJobRepository()</text><polygon fill="#181818" points="435,413.1523,425,417.1523,435,421.1523,431,417.1523" style="stroke:#181818;stroke-width:1.0;"/><line style="stroke:#181818;stroke-width:1.0;stroke-dasharray:2.0,2.0;" x1="429" x2="657" y1="417.1523" y2="417.1523"/><text fill="#000000" font-family="sans-serif" font-size="13" font-weight="bold" lengthAdjust="spacing" textLength="14" x="441" y="411.8896">10</text><text fill="#000000" font-family="sans-serif" font-size="13" lengthAdjust="spacing" textLength="79" x="459" y="411.8896">jobRepository</text><polygon fill="#181818" points="753.5,444.4434,763.5,448.4434,753.5,452.4434,757.5,448.4434" style="stroke:#181818;stroke-width:1.0;"/><line style="stroke:#181818;stroke-width:1.0;" x1="424" x2="759.5" y1="448.4434" y2="448.4434"/><text fill="#000000" font-family="sans-serif" font-size="13" font-weight="bold" lengthAdjust="spacing" textLength="14" x="431" y="443.1807">11</text><text fill="#000000" font-family="sans-serif" font-size="13" lengthAdjust="spacing" textLength="103" x="449" y="443.1807">registerJob(name)</text><rect fill="none" height="59.2129" style="stroke:#000000;stroke-width:1.5;" width="114" x="713.5" y="456.4434"/><path d="M713.5,456.4434 L775.5,456.4434 L775.5,465.4434 L765.5,475.4434 L713.5,475.4434 L713.5,456.4434 " fill="#EEEEEE" style="stroke:#000000;stroke-width:2.0;"/><text fill="#000000" font-family="sans-serif" font-size="13" font-weight="bold" lengthAdjust="spacing" textLength="17" x="726.5" y="472.4717">ref</text><text fill="#000000" font-family="sans-serif" font-size="12" lengthAdjust="spacing" textLength="70" x="735.5" y="492.3926">Register Job</text><text fill="#000000" font-family="sans-serif" font-size="12" lengthAdjust="spacing" textLength="3" x="769" y="508.3535">&#160;</text><polygon fill="#181818" points="435,539.9473,425,543.9473,435,547.9473,431,543.9473" style="stroke:#181818;stroke-width:1.0;"/><line style="stroke:#181818;stroke-width:1.0;stroke-dasharray:2.0,2.0;" x1="429" x2="769.5" y1="543.9473" y2="543.9473"/><text fill="#000000" font-family="sans-serif" font-size="13" font-weight="bold" lengthAdjust="spacing" textLength="14" x="441" y="538.6846">12</text><text fill="#000000" font-family="sans-serif" font-size="13" lengthAdjust="spacing" textLength="17" x="459" y="538.6846">job</text><polygon fill="#181818" points="292,571.2383,282,575.2383,292,579.2383,288,575.2383" style="stroke:#181818;stroke-width:1.0;"/><line style="stroke:#181818;stroke-width:1.0;stroke-dasharray:2.0,2.0;" x1="286" x2="418" y1="575.2383" y2="575.2383"/><text fill="#000000" font-family="sans-serif" font-size="13" font-weight="bold" lengthAdjust="spacing" textLength="14" x="298" y="569.9756">13</text><text fill="#000000" font-family="sans-serif" font-size="13" lengthAdjust="spacing" textLength="17" x="316" y="569.9756">job</text><polygon fill="#181818" points="77,602.5293,67,606.5293,77,610.5293,73,606.5293" style="stroke:#181818;stroke-width:1.0;"/><line style="stroke:#181818;stroke-width:1.0;stroke-dasharray:2.0,2.0;" x1="71" x2="275" y1="606.5293" y2="606.5293"/><text fill="#000000" font-family="sans-serif" font-size="13" font-weight="bold" lengthAdjust="spacing" textLength="14" x="83" y="601.2666">14</text><text fill="#000000" font-family="sans-serif" font-size="13" lengthAdjust="spacing" textLength="158" x="101" y="601.2666">displays operation success</text><!--SRC=[bLInSjim3Dtr5JWlJGR_W8OCpVakzZLNdz9iMM0AbbbBX49GIVtt9McBfb8xrs2oYFU01-BHijUcHuiTT6nOxInt1CuEL4ZAzAZssD2JExG4bfH3qxGvG7POyxis3Mon5IeA71oReTkGBOflErqJR9dTXlyKg1nRc3qC7HgeI7YmYkJ5m2CQtyFE00KUgiV2LtPQwHwDWrbPKQF5aLtnvdaPCS_Bwv1xDivosvxAtV-gVap05VKisWlH9DCgDikyc387nbBLOZqb_EPD0XqyOvL_Hyhgv_V02fFhDtGKfol0X_y1ypi_2PGUk1Tm3CfIm20OUWTV_8XCN3zrF0ZXUNDF3rLAlvRNWSG96EmeGchwXvKtT8UUPAHHVUPzePTYizMsGwVP_4_F4ru-xtCN5nRxf8tU17ct2PQuSRNfs4Ua-XBvvafeo2sDUDygkhdDuQdGn18v8a_4EmWTWhOCdy6p6xXQCcbShAEqYMUkwGiMocKjrfcQYGkloVbG8Sau6lJJ-vv86GsT9orjWT_8Zadu4EFZXDLewJ78rDE3avpvsGVX6S3beIvfESurUYudPyIfSSxsBg7MqhTu4E2URBGsoA3ydvHSidZs6TxrNm00]--></g></svg>