<?xml version="1.0" encoding="us-ascii" standalone="no"?><svg xmlns="http://www.w3.org/2000/svg" xmlns:xlink="http://www.w3.org/1999/xlink" contentStyleType="text/css" height="593px" preserveAspectRatio="none" style="width:420px;height:593px;background:#FFFFFF;" version="1.1" viewBox="0 0 420 593" width="420px" zoomAndPan="magnify"><defs/><g><text fill="#000000" font-family="sans-serif" font-size="14" font-weight="bold" lengthAdjust="spacing" textLength="350" x="34" y="30.1074">System Sequence Diagram (SSD) - Alternative Two</text><rect fill="#FFFFFF" height="331.2012" style="stroke:#181818;stroke-width:1.0;" width="10" x="61" y="151.8633"/><rect fill="#FFFFFF" height="31.291" style="stroke:#181818;stroke-width:1.0;" width="10" x="377" y="175.1543"/><rect fill="#FFFFFF" height="31.291" style="stroke:#181818;stroke-width:1.0;" width="10" x="377" y="237.7363"/><rect fill="#FFFFFF" height="48.582" style="stroke:#181818;stroke-width:1.0;" width="10" x="377" y="300.3184"/><rect fill="#FFFFFF" height="31.291" style="stroke:#181818;stroke-width:1.0;" width="10" x="377" y="380.1914"/><rect fill="#FFFFFF" height="31.291" style="stroke:#181818;stroke-width:1.0;" width="10" x="377" y="442.7734"/><line style="stroke:#181818;stroke-width:0.5;stroke-dasharray:5.0,5.0;" x1="66" x2="66" y1="141.8633" y2="492.0645"/><line style="stroke:#181818;stroke-width:0.5;stroke-dasharray:5.0,5.0;" x1="382" x2="382" y1="141.8633" y2="492.0645"/><text fill="#000000" font-family="sans-serif" font-size="14" lengthAdjust="spacing" textLength="116" x="5" y="119.7285">Human Resources</text><text fill="#000000" font-family="sans-serif" font-size="14" lengthAdjust="spacing" textLength="56" x="35" y="138.3496">Manager</text><ellipse cx="66" cy="53.1211" fill="#E3E3E3" rx="8" ry="8" style="stroke:#181818;stroke-width:0.5;"/><path d="M66,61.1211 L66,88.1211 M53,69.1211 L79,69.1211 M66,88.1211 L53,103.1211 M66,88.1211 L79,103.1211 " fill="none" style="stroke:#181818;stroke-width:0.5;"/><text fill="#000000" font-family="sans-serif" font-size="14" lengthAdjust="spacing" textLength="116" x="5" y="506.1719">Human Resources</text><text fill="#000000" font-family="sans-serif" font-size="14" lengthAdjust="spacing" textLength="56" x="35" y="524.793">Manager</text><ellipse cx="66" cy="536.8066" fill="#E3E3E3" rx="8" ry="8" style="stroke:#181818;stroke-width:0.5;"/><path d="M66,544.8066 L66,571.8066 M53,552.8066 L79,552.8066 M66,571.8066 L53,586.8066 M66,571.8066 L79,586.8066 " fill="none" style="stroke:#181818;stroke-width:0.5;"/><rect fill="#E3E3E3" height="32.6211" rx="2.5" ry="2.5" style="stroke:#181818;stroke-width:0.5;" width="64" x="350" y="108.2422"/><text fill="#000000" font-family="sans-serif" font-size="14" lengthAdjust="spacing" textLength="50" x="357" y="130.3496">:System</text><rect fill="#E3E3E3" height="32.6211" rx="2.5" ry="2.5" style="stroke:#181818;stroke-width:0.5;" width="64" x="350" y="491.0645"/><text fill="#000000" font-family="sans-serif" font-size="14" lengthAdjust="spacing" textLength="50" x="357" y="513.1719">:System</text><rect fill="#FFFFFF" height="331.2012" style="stroke:#181818;stroke-width:1.0;" width="10" x="61" y="151.8633"/><rect fill="#FFFFFF" height="31.291" style="stroke:#181818;stroke-width:1.0;" width="10" x="377" y="175.1543"/><rect fill="#FFFFFF" height="31.291" style="stroke:#181818;stroke-width:1.0;" width="10" x="377" y="237.7363"/><rect fill="#FFFFFF" height="48.582" style="stroke:#181818;stroke-width:1.0;" width="10" x="377" y="300.3184"/><rect fill="#FFFFFF" height="31.291" style="stroke:#181818;stroke-width:1.0;" width="10" x="377" y="380.1914"/><rect fill="#FFFFFF" height="31.291" style="stroke:#181818;stroke-width:1.0;" width="10" x="377" y="442.7734"/><polygon fill="#181818" points="365,171.1543,375,175.1543,365,179.1543,369,175.1543" style="stroke:#181818;stroke-width:1.0;"/><line style="stroke:#181818;stroke-width:1.0;" x1="71" x2="371" y1="175.1543" y2="175.1543"/><text fill="#000000" font-family="sans-serif" font-size="13" font-weight="bold" lengthAdjust="spacing" textLength="7" x="78" y="169.8916">1</text><text fill="#000000" font-family="sans-serif" font-size="13" lengthAdjust="spacing" textLength="231" x="89" y="169.8916">request to assign skills to a collaborator</text><polygon fill="#181818" points="82,202.4453,72,206.4453,82,210.4453,78,206.4453" style="stroke:#181818;stroke-width:1.0;"/><line style="stroke:#181818;stroke-width:1.0;stroke-dasharray:2.0,2.0;" x1="76" x2="381" y1="206.4453" y2="206.4453"/><text fill="#000000" font-family="sans-serif" font-size="13" font-weight="bold" lengthAdjust="spacing" textLength="7" x="88" y="201.1826">2</text><text fill="#000000" font-family="sans-serif" font-size="13" lengthAdjust="spacing" textLength="181" x="99" y="201.1826">displays a list of available skills</text><polygon fill="#181818" points="365,233.7363,375,237.7363,365,241.7363,369,237.7363" style="stroke:#181818;stroke-width:1.0;"/><line style="stroke:#181818;stroke-width:1.0;" x1="71" x2="371" y1="237.7363" y2="237.7363"/><text fill="#000000" font-family="sans-serif" font-size="13" font-weight="bold" lengthAdjust="spacing" textLength="7" x="78" y="232.4736">3</text><text fill="#000000" font-family="sans-serif" font-size="13" lengthAdjust="spacing" textLength="147" x="89" y="232.4736">selects collaborator skills</text><polygon fill="#181818" points="82,265.0273,72,269.0273,82,273.0273,78,269.0273" style="stroke:#181818;stroke-width:1.0;"/><line style="stroke:#181818;stroke-width:1.0;stroke-dasharray:2.0,2.0;" x1="76" x2="381" y1="269.0273" y2="269.0273"/><text fill="#000000" font-family="sans-serif" font-size="13" font-weight="bold" lengthAdjust="spacing" textLength="7" x="88" y="263.7646">4</text><text fill="#000000" font-family="sans-serif" font-size="13" lengthAdjust="spacing" textLength="124" x="99" y="263.7646">requests confirmation</text><polygon fill="#181818" points="365,296.3184,375,300.3184,365,304.3184,369,300.3184" style="stroke:#181818;stroke-width:1.0;"/><line style="stroke:#181818;stroke-width:1.0;" x1="71" x2="371" y1="300.3184" y2="300.3184"/><text fill="#000000" font-family="sans-serif" font-size="13" font-weight="bold" lengthAdjust="spacing" textLength="7" x="78" y="295.0557">5</text><text fill="#000000" font-family="sans-serif" font-size="13" lengthAdjust="spacing" textLength="64" x="89" y="295.0557">not confirm</text><polygon fill="#181818" points="82,344.9004,72,348.9004,82,352.9004,78,348.9004" style="stroke:#181818;stroke-width:1.0;"/><line style="stroke:#181818;stroke-width:1.0;stroke-dasharray:2.0,2.0;" x1="76" x2="381" y1="348.9004" y2="348.9004"/><text fill="#000000" font-family="sans-serif" font-size="13" font-weight="bold" lengthAdjust="spacing" textLength="7" x="88" y="334.9922">6</text><text fill="#000000" font-family="sans-serif" font-size="13" lengthAdjust="spacing" textLength="267" x="99" y="326.3467">returns the list of skills (selected and not only)</text><text fill="#000000" font-family="sans-serif" font-size="13" lengthAdjust="spacing" textLength="121" x="103" y="343.6377">and asks for a review</text><polygon fill="#181818" points="365,376.1914,375,380.1914,365,384.1914,369,380.1914" style="stroke:#181818;stroke-width:1.0;"/><line style="stroke:#181818;stroke-width:1.0;" x1="71" x2="371" y1="380.1914" y2="380.1914"/><text fill="#000000" font-family="sans-serif" font-size="13" font-weight="bold" lengthAdjust="spacing" textLength="7" x="78" y="374.9287">7</text><text fill="#000000" font-family="sans-serif" font-size="13" lengthAdjust="spacing" textLength="151" x="89" y="374.9287">review and change (or not)</text><polygon fill="#181818" points="82,407.4824,72,411.4824,82,415.4824,78,411.4824" style="stroke:#181818;stroke-width:1.0;"/><line style="stroke:#181818;stroke-width:1.0;stroke-dasharray:2.0,2.0;" x1="76" x2="381" y1="411.4824" y2="411.4824"/><text fill="#000000" font-family="sans-serif" font-size="13" font-weight="bold" lengthAdjust="spacing" textLength="7" x="88" y="406.2197">8</text><text fill="#000000" font-family="sans-serif" font-size="13" lengthAdjust="spacing" textLength="124" x="99" y="406.2197">requests confirmation</text><polygon fill="#181818" points="365,438.7734,375,442.7734,365,446.7734,369,442.7734" style="stroke:#181818;stroke-width:1.0;"/><line style="stroke:#181818;stroke-width:1.0;" x1="71" x2="371" y1="442.7734" y2="442.7734"/><text fill="#000000" font-family="sans-serif" font-size="13" font-weight="bold" lengthAdjust="spacing" textLength="7" x="78" y="437.5107">9</text><text fill="#000000" font-family="sans-serif" font-size="13" lengthAdjust="spacing" textLength="49" x="89" y="437.5107">confirms</text><polygon fill="#181818" points="82,470.0645,72,474.0645,82,478.0645,78,474.0645" style="stroke:#181818;stroke-width:1.0;"/><line style="stroke:#181818;stroke-width:1.0;stroke-dasharray:2.0,2.0;" x1="76" x2="381" y1="474.0645" y2="474.0645"/><text fill="#000000" font-family="sans-serif" font-size="13" font-weight="bold" lengthAdjust="spacing" textLength="14" x="88" y="468.8018">10</text><text fill="#000000" font-family="sans-serif" font-size="13" lengthAdjust="spacing" textLength="158" x="106" y="468.8018">displays operation success</text><!--SRC=[jLEzRi903Dxp51OJ3Bm0GwLA32miJKSMSt72YOilFJiWthxE9I1QeQfKwasMpz-FlrpawBd3X2sqaQCxfDWIQEgfaDjDX-w83PLw2GI9d28tuNv03bZ5i-S6QWn2HQ5URRIyY58B9Ntqn8vWxR4PnkTbkLx04bw3Kc9KVo9uFyUYm5uZz-sUajLEOuBPfc-HuOqazicHx7YBR5xI351WyxOjp85wvpjaXTbgbCoNOvc9_0cLydG1Tgo0vSlLtifMCeEYeD5muXi6Moq4oGrmCGJSnuJc9yDlX5S5cCv4k3JkGM85bPSku4MC9NWJY3NW2RtHMJgZHWPNz93pkq-XOE7B5qVtDBytDcqyK77jKslV8F8pLZZg5VkqjFQ9BTi3tKAPufwF2r85o5MMY1mk2zXnRg0S1MfR6OtavEdyZE4HaNdSmTulmToOJ6FnZz4DtOTk9gpyzJt5Zb8M1kcT_HRoWu5F]--></g></svg>