<?xml version="1.0" encoding="us-ascii" standalone="no"?><svg xmlns="http://www.w3.org/2000/svg" xmlns:xlink="http://www.w3.org/1999/xlink" contentStyleType="text/css" height="926px" preserveAspectRatio="none" style="width:916px;height:926px;background:#FFFFFF;" version="1.1" viewBox="0 0 916 926" width="916px" zoomAndPan="magnify"><defs/><g><rect fill="#FFFFFF" height="731.6152" style="stroke:#181818;stroke-width:1.0;" width="10" x="33" y="93.6211"/><rect fill="#FFFFFF" height="185.7461" style="stroke:#181818;stroke-width:1.0;" width="10" x="382" y="116.9121"/><rect fill="#FFFFFF" height="48.582" style="stroke:#181818;stroke-width:1.0;" width="10" x="382" y="360.2402"/><rect fill="#FFFFFF" height="142.125" style="stroke:#181818;stroke-width:1.0;" width="10" x="382" y="447.1133"/><rect fill="#FFFFFF" height="204.707" style="stroke:#181818;stroke-width:1.0;" width="10" x="382" y="620.5293"/><rect fill="#FFFFFF" height="79.543" style="stroke:#181818;stroke-width:1.0;" width="10" x="601" y="191.8242"/><rect fill="#FFFFFF" height="79.543" style="stroke:#181818;stroke-width:1.0;" width="10" x="601" y="478.4043"/><rect fill="#FFFFFF" height="142.125" style="stroke:#181818;stroke-width:1.0;" width="10" x="601" y="651.8203"/><rect fill="#FFFFFF" height="79.543" style="stroke:#181818;stroke-width:1.0;" width="10" x="820" y="683.1113"/><rect fill="none" height="99.1641" style="stroke:#000000;stroke-width:1.5;" width="435.5" x="10" y="317.6582"/><line style="stroke:#181818;stroke-width:0.5;stroke-dasharray:5.0,5.0;" x1="38" x2="38" y1="83.6211" y2="843.2363"/><line style="stroke:#181818;stroke-width:0.5;stroke-dasharray:5.0,5.0;" x1="386.5" x2="386.5" y1="83.6211" y2="843.2363"/><line style="stroke:#181818;stroke-width:0.5;stroke-dasharray:5.0,5.0;" x1="605.5" x2="605.5" y1="156.7227" y2="843.2363"/><line style="stroke:#181818;stroke-width:0.5;stroke-dasharray:5.0,5.0;" x1="825" x2="825" y1="83.6211" y2="843.2363"/><text fill="#000000" font-family="sans-serif" font-size="14" lengthAdjust="spacing" textLength="30" x="20" y="80.1074">HRM</text><ellipse cx="38" cy="13.5" fill="#E3E3E3" rx="8" ry="8" style="stroke:#181818;stroke-width:0.5;"/><path d="M38,21.5 L38,48.5 M25,29.5 L51,29.5 M38,48.5 L25,63.5 M38,48.5 L51,63.5 " fill="none" style="stroke:#181818;stroke-width:0.5;"/><text fill="#000000" font-family="sans-serif" font-size="14" lengthAdjust="spacing" textLength="30" x="20" y="857.3438">HRM</text><ellipse cx="38" cy="869.3574" fill="#E3E3E3" rx="8" ry="8" style="stroke:#181818;stroke-width:0.5;"/><path d="M38,877.3574 L38,904.3574 M25,885.3574 L51,885.3574 M38,904.3574 L25,919.3574 M38,904.3574 L51,919.3574 " fill="none" style="stroke:#181818;stroke-width:0.5;"/><rect fill="#E3E3E3" height="32.6211" rx="2.5" ry="2.5" style="stroke:#181818;stroke-width:0.5;" width="97" x="338.5" y="50"/><text fill="#000000" font-family="sans-serif" font-size="14" lengthAdjust="spacing" textLength="83" x="345.5" y="72.1074">:AssignSkillUI</text><rect fill="#E3E3E3" height="32.6211" rx="2.5" ry="2.5" style="stroke:#181818;stroke-width:0.5;" width="97" x="338.5" y="842.2363"/><text fill="#000000" font-family="sans-serif" font-size="14" lengthAdjust="spacing" textLength="83" x="345.5" y="864.3438">:AssignSkillUI</text><rect fill="#E3E3E3" height="32.6211" rx="2.5" ry="2.5" style="stroke:#181818;stroke-width:0.5;" width="147" x="532.5" y="842.2363"/><text fill="#000000" font-family="sans-serif" font-size="14" lengthAdjust="spacing" textLength="133" x="539.5" y="864.3438">:AssignSkillController</text><rect fill="#E3E3E3" height="51.2422" rx="2.5" ry="2.5" style="stroke:#181818;stroke-width:0.5;" width="164" x="743" y="31.3789"/><text fill="#000000" font-family="sans-serif" font-size="14" lengthAdjust="spacing" textLength="143" x="753.5" y="53.4863">collaboratorRepository</text><text fill="#000000" font-family="sans-serif" font-size="14" lengthAdjust="spacing" textLength="150" x="750" y="72.1074">:CollaboratorRepository</text><rect fill="#E3E3E3" height="51.2422" rx="2.5" ry="2.5" style="stroke:#181818;stroke-width:0.5;" width="164" x="743" y="842.2363"/><text fill="#000000" font-family="sans-serif" font-size="14" lengthAdjust="spacing" textLength="143" x="753.5" y="864.3438">collaboratorRepository</text><text fill="#000000" font-family="sans-serif" font-size="14" lengthAdjust="spacing" textLength="150" x="750" y="882.9648">:CollaboratorRepository</text><rect fill="#FFFFFF" height="731.6152" style="stroke:#181818;stroke-width:1.0;" width="10" x="33" y="93.6211"/><rect fill="#FFFFFF" height="185.7461" style="stroke:#181818;stroke-width:1.0;" width="10" x="382" y="116.9121"/><rect fill="#FFFFFF" height="48.582" style="stroke:#181818;stroke-width:1.0;" width="10" x="382" y="360.2402"/><rect fill="#FFFFFF" height="142.125" style="stroke:#181818;stroke-width:1.0;" width="10" x="382" y="447.1133"/><rect fill="#FFFFFF" height="204.707" style="stroke:#181818;stroke-width:1.0;" width="10" x="382" y="620.5293"/><rect fill="#FFFFFF" height="79.543" style="stroke:#181818;stroke-width:1.0;" width="10" x="601" y="191.8242"/><rect fill="#FFFFFF" height="79.543" style="stroke:#181818;stroke-width:1.0;" width="10" x="601" y="478.4043"/><rect fill="#FFFFFF" height="142.125" style="stroke:#181818;stroke-width:1.0;" width="10" x="601" y="651.8203"/><rect fill="#FFFFFF" height="79.543" style="stroke:#181818;stroke-width:1.0;" width="10" x="820" y="683.1113"/><polygon fill="#181818" points="370,112.9121,380,116.9121,370,120.9121,374,116.9121" style="stroke:#181818;stroke-width:1.0;"/><line style="stroke:#181818;stroke-width:1.0;" x1="43" x2="376" y1="116.9121" y2="116.9121"/><text fill="#000000" font-family="sans-serif" font-size="13" font-weight="bold" lengthAdjust="spacing" textLength="7" x="50" y="111.6494">1</text><text fill="#000000" font-family="sans-serif" font-size="13" lengthAdjust="spacing" textLength="309" x="61" y="111.6494">Request to assign one or more skills to a collaborator</text><polygon fill="#181818" points="520.5,144.2031,530.5,148.2031,520.5,152.2031,524.5,148.2031" style="stroke:#181818;stroke-width:1.0;"/><line style="stroke:#181818;stroke-width:1.0;" x1="392" x2="526.5" y1="148.2031" y2="148.2031"/><text fill="#000000" font-family="sans-serif" font-size="13" font-weight="bold" lengthAdjust="spacing" textLength="7" x="399" y="142.9404">2</text><text fill="#000000" font-family="sans-serif" font-size="13" lengthAdjust="spacing" textLength="50" x="410" y="142.9404">generate</text><rect fill="#E3E3E3" height="32.6211" rx="2.5" ry="2.5" style="stroke:#181818;stroke-width:0.5;" width="147" x="532.5" y="124.9121"/><text fill="#000000" font-family="sans-serif" font-size="14" lengthAdjust="spacing" textLength="133" x="539.5" y="147.0195">:AssignSkillController</text><polygon fill="#181818" points="589,187.8242,599,191.8242,589,195.8242,593,191.8242" style="stroke:#181818;stroke-width:1.0;"/><line style="stroke:#181818;stroke-width:1.0;" x1="392" x2="595" y1="191.8242" y2="191.8242"/><text fill="#000000" font-family="sans-serif" font-size="13" font-weight="bold" lengthAdjust="spacing" textLength="7" x="399" y="186.5615">3</text><text fill="#000000" font-family="sans-serif" font-size="13" lengthAdjust="spacing" textLength="57" x="410" y="186.5615">listSkills()</text><rect fill="none" height="43.252" style="stroke:#000000;stroke-width:1.5;" width="153" x="529.5" y="199.8242"/><path d="M529.5,199.8242 L591.5,199.8242 L591.5,208.8242 L581.5,218.8242 L529.5,218.8242 L529.5,199.8242 " fill="#EEEEEE" style="stroke:#000000;stroke-width:2.0;"/><text fill="#000000" font-family="sans-serif" font-size="13" font-weight="bold" lengthAdjust="spacing" textLength="17" x="542.5" y="215.8525">ref</text><text fill="#000000" font-family="sans-serif" font-size="12" lengthAdjust="spacing" textLength="53" x="579.5" y="235.7734">List Skills</text><polygon fill="#181818" points="403,267.3672,393,271.3672,403,275.3672,399,271.3672" style="stroke:#181818;stroke-width:1.0;"/><line style="stroke:#181818;stroke-width:1.0;stroke-dasharray:2.0,2.0;" x1="397" x2="605" y1="271.3672" y2="271.3672"/><text fill="#000000" font-family="sans-serif" font-size="13" font-weight="bold" lengthAdjust="spacing" textLength="7" x="409" y="266.1045">4</text><text fill="#000000" font-family="sans-serif" font-size="13" lengthAdjust="spacing" textLength="30" x="420" y="266.1045">skills</text><polygon fill="#181818" points="54,298.6582,44,302.6582,54,306.6582,50,302.6582" style="stroke:#181818;stroke-width:1.0;"/><line style="stroke:#181818;stroke-width:1.0;stroke-dasharray:2.0,2.0;" x1="48" x2="386" y1="302.6582" y2="302.6582"/><text fill="#000000" font-family="sans-serif" font-size="13" font-weight="bold" lengthAdjust="spacing" textLength="7" x="60" y="297.3955">5</text><text fill="#000000" font-family="sans-serif" font-size="13" lengthAdjust="spacing" textLength="183" x="71" y="297.3955">Displays a list of available skills</text><path d="M10,317.6582 L83,317.6582 L83,326.9492 L73,336.9492 L10,336.9492 L10,317.6582 " fill="#EEEEEE" style="stroke:#000000;stroke-width:1.5;"/><rect fill="none" height="99.1641" style="stroke:#000000;stroke-width:1.5;" width="435.5" x="10" y="317.6582"/><text fill="#000000" font-family="sans-serif" font-size="13" font-weight="bold" lengthAdjust="spacing" textLength="28" x="25" y="332.6865">loop</text><polygon fill="#181818" points="370,356.2402,380,360.2402,370,364.2402,374,360.2402" style="stroke:#181818;stroke-width:1.0;"/><line style="stroke:#181818;stroke-width:1.0;" x1="43" x2="376" y1="360.2402" y2="360.2402"/><text fill="#000000" font-family="sans-serif" font-size="13" font-weight="bold" lengthAdjust="spacing" textLength="7" x="50" y="354.9775">6</text><text fill="#000000" font-family="sans-serif" font-size="13" lengthAdjust="spacing" textLength="87" x="61" y="354.9775">selects a skills</text><polygon fill="#181818" points="54,404.8223,44,408.8223,54,412.8223,50,408.8223" style="stroke:#181818;stroke-width:1.0;"/><line style="stroke:#181818;stroke-width:1.0;stroke-dasharray:2.0,2.0;" x1="48" x2="386" y1="408.8223" y2="408.8223"/><text fill="#000000" font-family="sans-serif" font-size="13" font-weight="bold" lengthAdjust="spacing" textLength="7" x="60" y="394.9141">7</text><text fill="#000000" font-family="sans-serif" font-size="13" lengthAdjust="spacing" textLength="201" x="71" y="386.2686">asks if you want to add more skills</text><text fill="#000000" font-family="sans-serif" font-size="13" lengthAdjust="spacing" textLength="137" x="71" y="403.5596">or continue the program</text><polygon fill="#181818" points="370,443.1133,380,447.1133,370,451.1133,374,447.1133" style="stroke:#181818;stroke-width:1.0;"/><line style="stroke:#181818;stroke-width:1.0;" x1="43" x2="376" y1="447.1133" y2="447.1133"/><text fill="#000000" font-family="sans-serif" font-size="13" font-weight="bold" lengthAdjust="spacing" textLength="7" x="50" y="441.8506">8</text><text fill="#000000" font-family="sans-serif" font-size="13" lengthAdjust="spacing" textLength="162" x="61" y="441.8506">Provides collaborator details</text><polygon fill="#181818" points="589,474.4043,599,478.4043,589,482.4043,593,478.4043" style="stroke:#181818;stroke-width:1.0;"/><line style="stroke:#181818;stroke-width:1.0;" x1="392" x2="595" y1="478.4043" y2="478.4043"/><text fill="#000000" font-family="sans-serif" font-size="13" font-weight="bold" lengthAdjust="spacing" textLength="7" x="399" y="473.1416">9</text><text fill="#000000" font-family="sans-serif" font-size="13" lengthAdjust="spacing" textLength="95" x="410" y="473.1416">getCollaborator()</text><rect fill="none" height="43.252" style="stroke:#000000;stroke-width:1.5;" width="153" x="529.5" y="486.4043"/><path d="M529.5,486.4043 L591.5,486.4043 L591.5,495.4043 L581.5,505.4043 L529.5,505.4043 L529.5,486.4043 " fill="#EEEEEE" style="stroke:#000000;stroke-width:2.0;"/><text fill="#000000" font-family="sans-serif" font-size="13" font-weight="bold" lengthAdjust="spacing" textLength="17" x="542.5" y="502.4326">ref</text><text fill="#000000" font-family="sans-serif" font-size="12" lengthAdjust="spacing" textLength="90" x="561" y="522.3535">Get Collaborator</text><polygon fill="#181818" points="403,553.9473,393,557.9473,403,561.9473,399,557.9473" style="stroke:#181818;stroke-width:1.0;"/><line style="stroke:#181818;stroke-width:1.0;stroke-dasharray:2.0,2.0;" x1="397" x2="605" y1="557.9473" y2="557.9473"/><text fill="#000000" font-family="sans-serif" font-size="13" font-weight="bold" lengthAdjust="spacing" textLength="14" x="409" y="552.6846">10</text><text fill="#000000" font-family="sans-serif" font-size="13" lengthAdjust="spacing" textLength="67" x="427" y="552.6846">collaborator</text><polygon fill="#181818" points="54,585.2383,44,589.2383,54,593.2383,50,589.2383" style="stroke:#181818;stroke-width:1.0;"/><line style="stroke:#181818;stroke-width:1.0;stroke-dasharray:2.0,2.0;" x1="48" x2="386" y1="589.2383" y2="589.2383"/><text fill="#000000" font-family="sans-serif" font-size="13" font-weight="bold" lengthAdjust="spacing" textLength="14" x="60" y="583.9756">11</text><text fill="#000000" font-family="sans-serif" font-size="13" lengthAdjust="spacing" textLength="234" x="78" y="583.9756">Shows details and requests confirmation</text><polygon fill="#181818" points="370,616.5293,380,620.5293,370,624.5293,374,620.5293" style="stroke:#181818;stroke-width:1.0;"/><line style="stroke:#181818;stroke-width:1.0;" x1="43" x2="376" y1="620.5293" y2="620.5293"/><text fill="#000000" font-family="sans-serif" font-size="13" font-weight="bold" lengthAdjust="spacing" textLength="14" x="50" y="615.2666">12</text><text fill="#000000" font-family="sans-serif" font-size="13" lengthAdjust="spacing" textLength="93" x="68" y="615.2666">Confirms details</text><polygon fill="#181818" points="589,647.8203,599,651.8203,589,655.8203,593,651.8203" style="stroke:#181818;stroke-width:1.0;"/><line style="stroke:#181818;stroke-width:1.0;" x1="392" x2="595" y1="651.8203" y2="651.8203"/><text fill="#000000" font-family="sans-serif" font-size="13" font-weight="bold" lengthAdjust="spacing" textLength="14" x="399" y="646.5576">13</text><text fill="#000000" font-family="sans-serif" font-size="13" lengthAdjust="spacing" textLength="172" x="417" y="646.5576">assignSkill(collaborator,skills)</text><polygon fill="#181818" points="808,679.1113,818,683.1113,808,687.1113,812,683.1113" style="stroke:#181818;stroke-width:1.0;"/><line style="stroke:#181818;stroke-width:1.0;" x1="611" x2="814" y1="683.1113" y2="683.1113"/><text fill="#000000" font-family="sans-serif" font-size="13" font-weight="bold" lengthAdjust="spacing" textLength="14" x="618" y="677.8486">14</text><text fill="#000000" font-family="sans-serif" font-size="13" lengthAdjust="spacing" textLength="172" x="636" y="677.8486">assignSkill(collaborator,skills)</text><rect fill="none" height="43.252" style="stroke:#000000;stroke-width:1.5;" width="170" x="740" y="691.1113"/><path d="M740,691.1113 L802,691.1113 L802,700.1113 L792,710.1113 L740,710.1113 L740,691.1113 " fill="#EEEEEE" style="stroke:#000000;stroke-width:2.0;"/><text fill="#000000" font-family="sans-serif" font-size="13" font-weight="bold" lengthAdjust="spacing" textLength="17" x="753" y="707.1396">ref</text><text fill="#000000" font-family="sans-serif" font-size="12" lengthAdjust="spacing" textLength="71" x="789.5" y="727.0605">Assign Skills</text><polygon fill="#181818" points="622,758.6543,612,762.6543,622,766.6543,618,762.6543" style="stroke:#181818;stroke-width:1.0;"/><line style="stroke:#181818;stroke-width:1.0;stroke-dasharray:2.0,2.0;" x1="616" x2="824" y1="762.6543" y2="762.6543"/><text fill="#000000" font-family="sans-serif" font-size="13" font-weight="bold" lengthAdjust="spacing" textLength="14" x="628" y="757.3916">15</text><text fill="#000000" font-family="sans-serif" font-size="13" lengthAdjust="spacing" textLength="67" x="646" y="757.3916">collaborator</text><polygon fill="#181818" points="403,789.9453,393,793.9453,403,797.9453,399,793.9453" style="stroke:#181818;stroke-width:1.0;"/><line style="stroke:#181818;stroke-width:1.0;stroke-dasharray:2.0,2.0;" x1="397" x2="605" y1="793.9453" y2="793.9453"/><text fill="#000000" font-family="sans-serif" font-size="13" font-weight="bold" lengthAdjust="spacing" textLength="14" x="409" y="788.6826">16</text><text fill="#000000" font-family="sans-serif" font-size="13" lengthAdjust="spacing" textLength="67" x="427" y="788.6826">collaborator</text><polygon fill="#181818" points="49,821.2363,39,825.2363,49,829.2363,45,825.2363" style="stroke:#181818;stroke-width:1.0;"/><line style="stroke:#181818;stroke-width:1.0;stroke-dasharray:2.0,2.0;" x1="43" x2="386" y1="825.2363" y2="825.2363"/><text fill="#000000" font-family="sans-serif" font-size="13" font-weight="bold" lengthAdjust="spacing" textLength="14" x="55" y="819.9736">17</text><text fill="#000000" font-family="sans-serif" font-size="13" lengthAdjust="spacing" textLength="49" x="73" y="819.9736">success</text><!--SRC=[dLJ1Rjim3BthAuYUscBz0HyA3Dcm5kY08bbllQWoumYHHK-K4-JlHzb9AgTsaqw7m86UoCVtIFBQ-aO7NKDDdimgK8qGGukAZpUDDcjTuIBk74904xMlN0xWbIvfQtq5I-qObT9j9D_MRnZasqGAy33_hGGShR6DzX6kYk_CjlABjNNkvV4ADCFBupHaHZu6SWv31vtzcJyDmKOkzHi5BTdcs11R-TYz-c8sUj57cVzyxWZQZOxOSLJo0tVtmWKAcEFV5Zb2944dAa0UGQgfAI1muiNT9UJPtmDAGGhsHm9AsCJxzbP2L-XHq3W6AC1PZbtPV7rp11pECNmd0aoSW4kW3ORFKOVp90cXppY9HLzEtgKaSDVfLko5-O0jSSWy5ImlHF02VbXkdDwnI9bg1rg2tcWhchg3q2fxBy8wecPW5gEJramHzlX96mv9DQyPx19srC8sDL6oiYnpTr-zk6sazwnlPIvM24sWIdh-X4tI9YVp76XZI-H1OuW2KMhYSmsIkYFcRIjDeCRTL_zd-o-Ca2TGbtWzyDYClJvrEBDOD5ciQCi73K3xKiXsyvLKyaiRQXqj-HDb1xBEUXnVhgH-No7NEUTllRytb-hQ5t_VhOmlHFqOlLivvuSsmSuDRRyUBndRwRcLF9r5lLhcivx8tHsZz_N-61jARer1PdNQ1ld_jAZ_0G00]--></g></svg>