<?xml version="1.0" encoding="us-ascii" standalone="no"?><svg xmlns="http://www.w3.org/2000/svg" xmlns:xlink="http://www.w3.org/1999/xlink" contentStyleType="text/css" height="451px" preserveAspectRatio="none" style="width:379px;height:451px;background:#FFFFFF;" version="1.1" viewBox="0 0 379 451" width="379px" zoomAndPan="magnify"><defs/><g><text fill="#000000" font-family="sans-serif" font-size="14" font-weight="bold" lengthAdjust="spacing" textLength="351" x="10" y="30.1074">System Sequence Diagram (SSD) - Alternative One</text><rect fill="#FFFFFF" height="188.7461" style="stroke:#181818;stroke-width:1.0;" width="10" x="83" y="151.8633"/><rect fill="#FFFFFF" height="31.291" style="stroke:#181818;stroke-width:1.0;" width="10" x="308" y="175.1543"/><rect fill="#FFFFFF" height="31.291" style="stroke:#181818;stroke-width:1.0;" width="10" x="308" y="237.7363"/><rect fill="#FFFFFF" height="31.291" style="stroke:#181818;stroke-width:1.0;" width="10" x="308" y="300.3184"/><line style="stroke:#181818;stroke-width:0.5;stroke-dasharray:5.0,5.0;" x1="88" x2="88" y1="141.8633" y2="349.6094"/><line style="stroke:#181818;stroke-width:0.5;stroke-dasharray:5.0,5.0;" x1="313" x2="313" y1="141.8633" y2="349.6094"/><text fill="#000000" font-family="sans-serif" font-size="14" lengthAdjust="spacing" textLength="116" x="27" y="119.7285">Human Resources</text><text fill="#000000" font-family="sans-serif" font-size="14" lengthAdjust="spacing" textLength="56" x="57" y="138.3496">Manager</text><ellipse cx="88" cy="53.1211" fill="#E3E3E3" rx="8" ry="8" style="stroke:#181818;stroke-width:0.5;"/><path d="M88,61.1211 L88,88.1211 M75,69.1211 L101,69.1211 M88,88.1211 L75,103.1211 M88,88.1211 L101,103.1211 " fill="none" style="stroke:#181818;stroke-width:0.5;"/><text fill="#000000" font-family="sans-serif" font-size="14" lengthAdjust="spacing" textLength="116" x="27" y="363.7168">Human Resources</text><text fill="#000000" font-family="sans-serif" font-size="14" lengthAdjust="spacing" textLength="56" x="57" y="382.3379">Manager</text><ellipse cx="88" cy="394.3516" fill="#E3E3E3" rx="8" ry="8" style="stroke:#181818;stroke-width:0.5;"/><path d="M88,402.3516 L88,429.3516 M75,410.3516 L101,410.3516 M88,429.3516 L75,444.3516 M88,429.3516 L101,444.3516 " fill="none" style="stroke:#181818;stroke-width:0.5;"/><rect fill="#E3E3E3" height="32.6211" rx="2.5" ry="2.5" style="stroke:#181818;stroke-width:0.5;" width="64" x="281" y="108.2422"/><text fill="#000000" font-family="sans-serif" font-size="14" lengthAdjust="spacing" textLength="50" x="288" y="130.3496">:System</text><rect fill="#E3E3E3" height="32.6211" rx="2.5" ry="2.5" style="stroke:#181818;stroke-width:0.5;" width="64" x="281" y="348.6094"/><text fill="#000000" font-family="sans-serif" font-size="14" lengthAdjust="spacing" textLength="50" x="288" y="370.7168">:System</text><rect fill="#FFFFFF" height="188.7461" style="stroke:#181818;stroke-width:1.0;" width="10" x="83" y="151.8633"/><rect fill="#FFFFFF" height="31.291" style="stroke:#181818;stroke-width:1.0;" width="10" x="308" y="175.1543"/><rect fill="#FFFFFF" height="31.291" style="stroke:#181818;stroke-width:1.0;" width="10" x="308" y="237.7363"/><rect fill="#FFFFFF" height="31.291" style="stroke:#181818;stroke-width:1.0;" width="10" x="308" y="300.3184"/><polygon fill="#181818" points="296,171.1543,306,175.1543,296,179.1543,300,175.1543" style="stroke:#181818;stroke-width:1.0;"/><line style="stroke:#181818;stroke-width:1.0;" x1="93" x2="302" y1="175.1543" y2="175.1543"/><text fill="#000000" font-family="sans-serif" font-size="13" font-weight="bold" lengthAdjust="spacing" textLength="7" x="100" y="169.8916">1</text><text fill="#000000" font-family="sans-serif" font-size="13" lengthAdjust="spacing" textLength="142" x="111" y="169.8916">asks to create a new job</text><polygon fill="#181818" points="104,202.4453,94,206.4453,104,210.4453,100,206.4453" style="stroke:#181818;stroke-width:1.0;"/><line style="stroke:#181818;stroke-width:1.0;stroke-dasharray:2.0,2.0;" x1="98" x2="312" y1="206.4453" y2="206.4453"/><text fill="#000000" font-family="sans-serif" font-size="13" font-weight="bold" lengthAdjust="spacing" textLength="7" x="110" y="201.1826">2</text><text fill="#000000" font-family="sans-serif" font-size="13" lengthAdjust="spacing" textLength="142" x="121" y="201.1826">requests the designation</text><polygon fill="#181818" points="296,233.7363,306,237.7363,296,241.7363,300,237.7363" style="stroke:#181818;stroke-width:1.0;"/><line style="stroke:#181818;stroke-width:1.0;" x1="93" x2="302" y1="237.7363" y2="237.7363"/><text fill="#000000" font-family="sans-serif" font-size="13" font-weight="bold" lengthAdjust="spacing" textLength="7" x="100" y="232.4736">3</text><text fill="#000000" font-family="sans-serif" font-size="13" lengthAdjust="spacing" textLength="185" x="111" y="232.4736">types requested the designation</text><polygon fill="#181818" points="104,265.0273,94,269.0273,104,273.0273,100,269.0273" style="stroke:#181818;stroke-width:1.0;"/><line style="stroke:#181818;stroke-width:1.0;stroke-dasharray:2.0,2.0;" x1="98" x2="312" y1="269.0273" y2="269.0273"/><text fill="#000000" font-family="sans-serif" font-size="13" font-weight="bold" lengthAdjust="spacing" textLength="7" x="110" y="263.7646">4</text><text fill="#000000" font-family="sans-serif" font-size="13" lengthAdjust="spacing" textLength="124" x="121" y="263.7646">requests confirmation</text><polygon fill="#181818" points="296,296.3184,306,300.3184,296,304.3184,300,300.3184" style="stroke:#181818;stroke-width:1.0;"/><line style="stroke:#181818;stroke-width:1.0;" x1="93" x2="302" y1="300.3184" y2="300.3184"/><text fill="#000000" font-family="sans-serif" font-size="13" font-weight="bold" lengthAdjust="spacing" textLength="7" x="100" y="295.0557">5</text><text fill="#000000" font-family="sans-serif" font-size="13" lengthAdjust="spacing" textLength="49" x="111" y="295.0557">confirms</text><polygon fill="#181818" points="104,327.6094,94,331.6094,104,335.6094,100,331.6094" style="stroke:#181818;stroke-width:1.0;"/><line style="stroke:#181818;stroke-width:1.0;stroke-dasharray:2.0,2.0;" x1="98" x2="312" y1="331.6094" y2="331.6094"/><text fill="#000000" font-family="sans-serif" font-size="13" font-weight="bold" lengthAdjust="spacing" textLength="7" x="110" y="326.3467">6</text><text fill="#000000" font-family="sans-serif" font-size="13" lengthAdjust="spacing" textLength="158" x="121" y="326.3467">displays operation success</text><!--SRC=[dP6nRi9038RtF8N5r0vvWGoLAZ6me4faxM8k9boJyuMp3vIthnC2gYewK4-M_F-VVzz9vtd0X052vEYEAGO2JPaAkKy6T1ssLElO4oHoYjpsFmLon2PUFBTmm5weADIhIUjHb0BKTCh4Zc3jiPtaBtMzVeKItdkbnAZ-JF31PiEiaNFOKxBUQKomskI033kIc9CZ-UGjicL9Aq21pMvRM0BrpW_82glgkd8UNjiPvC-eDAiBiB86ohTRlCh4dO16S8ac7GBJ1RxYVXRVxJSUBBNOIoDDmCfUnkuKDTIHe27nxNHRvDdHq4FGxoWw3YGt4ZKFKVz8v28VV0fFnrbyykJUnilGuoWG1qhpKf3ixFlaZ-NV]--></g></svg>