<?xml version="1.0" encoding="us-ascii" standalone="no"?><svg xmlns="http://www.w3.org/2000/svg" xmlns:xlink="http://www.w3.org/1999/xlink" contentStyleType="text/css" height="531px" preserveAspectRatio="none" style="width:378px;height:531px;background:#FFFFFF;" version="1.1" viewBox="0 0 378 531" width="378px" zoomAndPan="magnify"><defs/><g><text fill="#000000" font-family="sans-serif" font-size="14" font-weight="bold" lengthAdjust="spacing" textLength="350" x="10" y="30.1074">System Sequence Diagram (SSD) - Alternative Two</text><rect fill="#FFFFFF" height="268.6191" style="stroke:#181818;stroke-width:1.0;" width="10" x="65.5" y="151.8633"/><rect fill="#FFFFFF" height="31.291" style="stroke:#181818;stroke-width:1.0;" width="10" x="324.5" y="175.1543"/><rect fill="#FFFFFF" height="48.582" style="stroke:#181818;stroke-width:1.0;" width="10" x="324.5" y="237.7363"/><rect fill="#FFFFFF" height="31.291" style="stroke:#181818;stroke-width:1.0;" width="10" x="324.5" y="317.6094"/><rect fill="#FFFFFF" height="31.291" style="stroke:#181818;stroke-width:1.0;" width="10" x="324.5" y="380.1914"/><line style="stroke:#181818;stroke-width:0.5;stroke-dasharray:5.0,5.0;" x1="70.5" x2="70.5" y1="141.8633" y2="429.4824"/><line style="stroke:#181818;stroke-width:0.5;stroke-dasharray:5.0,5.0;" x1="329.5" x2="329.5" y1="141.8633" y2="429.4824"/><text fill="#000000" font-family="sans-serif" font-size="14" lengthAdjust="spacing" textLength="116" x="9.5" y="119.7285">Human Resources</text><text fill="#000000" font-family="sans-serif" font-size="14" lengthAdjust="spacing" textLength="56" x="39.5" y="138.3496">Manager</text><ellipse cx="70.5" cy="53.1211" fill="#E3E3E3" rx="8" ry="8" style="stroke:#181818;stroke-width:0.5;"/><path d="M70.5,61.1211 L70.5,88.1211 M57.5,69.1211 L83.5,69.1211 M70.5,88.1211 L57.5,103.1211 M70.5,88.1211 L83.5,103.1211 " fill="none" style="stroke:#181818;stroke-width:0.5;"/><text fill="#000000" font-family="sans-serif" font-size="14" lengthAdjust="spacing" textLength="116" x="9.5" y="443.5898">Human Resources</text><text fill="#000000" font-family="sans-serif" font-size="14" lengthAdjust="spacing" textLength="56" x="39.5" y="462.2109">Manager</text><ellipse cx="70.5" cy="474.2246" fill="#E3E3E3" rx="8" ry="8" style="stroke:#181818;stroke-width:0.5;"/><path d="M70.5,482.2246 L70.5,509.2246 M57.5,490.2246 L83.5,490.2246 M70.5,509.2246 L57.5,524.2246 M70.5,509.2246 L83.5,524.2246 " fill="none" style="stroke:#181818;stroke-width:0.5;"/><rect fill="#E3E3E3" height="32.6211" rx="2.5" ry="2.5" style="stroke:#181818;stroke-width:0.5;" width="64" x="297.5" y="108.2422"/><text fill="#000000" font-family="sans-serif" font-size="14" lengthAdjust="spacing" textLength="50" x="304.5" y="130.3496">:System</text><rect fill="#E3E3E3" height="32.6211" rx="2.5" ry="2.5" style="stroke:#181818;stroke-width:0.5;" width="64" x="297.5" y="428.4824"/><text fill="#000000" font-family="sans-serif" font-size="14" lengthAdjust="spacing" textLength="50" x="304.5" y="450.5898">:System</text><rect fill="#FFFFFF" height="268.6191" style="stroke:#181818;stroke-width:1.0;" width="10" x="65.5" y="151.8633"/><rect fill="#FFFFFF" height="31.291" style="stroke:#181818;stroke-width:1.0;" width="10" x="324.5" y="175.1543"/><rect fill="#FFFFFF" height="48.582" style="stroke:#181818;stroke-width:1.0;" width="10" x="324.5" y="237.7363"/><rect fill="#FFFFFF" height="31.291" style="stroke:#181818;stroke-width:1.0;" width="10" x="324.5" y="317.6094"/><rect fill="#FFFFFF" height="31.291" style="stroke:#181818;stroke-width:1.0;" width="10" x="324.5" y="380.1914"/><polygon fill="#181818" points="312.5,171.1543,322.5,175.1543,312.5,179.1543,316.5,175.1543" style="stroke:#181818;stroke-width:1.0;"/><line style="stroke:#181818;stroke-width:1.0;" x1="75.5" x2="318.5" y1="175.1543" y2="175.1543"/><text fill="#000000" font-family="sans-serif" font-size="13" font-weight="bold" lengthAdjust="spacing" textLength="7" x="82.5" y="169.8916">1</text><text fill="#000000" font-family="sans-serif" font-size="13" lengthAdjust="spacing" textLength="142" x="93.5" y="169.8916">asks to create a new job</text><polygon fill="#181818" points="86.5,202.4453,76.5,206.4453,86.5,210.4453,82.5,206.4453" style="stroke:#181818;stroke-width:1.0;"/><line style="stroke:#181818;stroke-width:1.0;stroke-dasharray:2.0,2.0;" x1="80.5" x2="328.5" y1="206.4453" y2="206.4453"/><text fill="#000000" font-family="sans-serif" font-size="13" font-weight="bold" lengthAdjust="spacing" textLength="7" x="92.5" y="201.1826">2</text><text fill="#000000" font-family="sans-serif" font-size="13" lengthAdjust="spacing" textLength="142" x="103.5" y="201.1826">requests the designation</text><polygon fill="#181818" points="312.5,233.7363,322.5,237.7363,312.5,241.7363,316.5,237.7363" style="stroke:#181818;stroke-width:1.0;"/><line style="stroke:#181818;stroke-width:1.0;" x1="75.5" x2="318.5" y1="237.7363" y2="237.7363"/><text fill="#000000" font-family="sans-serif" font-size="13" font-weight="bold" lengthAdjust="spacing" textLength="7" x="82.5" y="232.4736">3</text><text fill="#000000" font-family="sans-serif" font-size="13" lengthAdjust="spacing" textLength="185" x="93.5" y="232.4736">types requested the designation</text><polygon fill="#181818" points="86.5,282.3184,76.5,286.3184,86.5,290.3184,82.5,286.3184" style="stroke:#181818;stroke-width:1.0;"/><line style="stroke:#181818;stroke-width:1.0;stroke-dasharray:2.0,2.0;" x1="80.5" x2="328.5" y1="286.3184" y2="286.3184"/><text fill="#000000" font-family="sans-serif" font-size="13" font-weight="bold" lengthAdjust="spacing" textLength="7" x="92.5" y="272.4102">4</text><text fill="#000000" font-family="sans-serif" font-size="13" lengthAdjust="spacing" textLength="214" x="103.5" y="263.7646">displays error message and requests</text><text fill="#000000" font-family="sans-serif" font-size="13" lengthAdjust="spacing" textLength="127" x="107.5" y="281.0557">designation correction</text><polygon fill="#181818" points="312.5,313.6094,322.5,317.6094,312.5,321.6094,316.5,317.6094" style="stroke:#181818;stroke-width:1.0;"/><line style="stroke:#181818;stroke-width:1.0;" x1="75.5" x2="318.5" y1="317.6094" y2="317.6094"/><text fill="#000000" font-family="sans-serif" font-size="13" font-weight="bold" lengthAdjust="spacing" textLength="7" x="82.5" y="312.3467">5</text><text fill="#000000" font-family="sans-serif" font-size="13" lengthAdjust="spacing" textLength="210" x="93.5" y="312.3467">checks and corrects the designation</text><polygon fill="#181818" points="86.5,344.9004,76.5,348.9004,86.5,352.9004,82.5,348.9004" style="stroke:#181818;stroke-width:1.0;"/><line style="stroke:#181818;stroke-width:1.0;stroke-dasharray:2.0,2.0;" x1="80.5" x2="328.5" y1="348.9004" y2="348.9004"/><text fill="#000000" font-family="sans-serif" font-size="13" font-weight="bold" lengthAdjust="spacing" textLength="7" x="92.5" y="343.6377">6</text><text fill="#000000" font-family="sans-serif" font-size="13" lengthAdjust="spacing" textLength="124" x="103.5" y="343.6377">requests confirmation</text><polygon fill="#181818" points="312.5,376.1914,322.5,380.1914,312.5,384.1914,316.5,380.1914" style="stroke:#181818;stroke-width:1.0;"/><line style="stroke:#181818;stroke-width:1.0;" x1="75.5" x2="318.5" y1="380.1914" y2="380.1914"/><text fill="#000000" font-family="sans-serif" font-size="13" font-weight="bold" lengthAdjust="spacing" textLength="7" x="82.5" y="374.9287">7</text><text fill="#000000" font-family="sans-serif" font-size="13" lengthAdjust="spacing" textLength="78" x="93.5" y="374.9287">confirms data</text><polygon fill="#181818" points="86.5,407.4824,76.5,411.4824,86.5,415.4824,82.5,411.4824" style="stroke:#181818;stroke-width:1.0;"/><line style="stroke:#181818;stroke-width:1.0;stroke-dasharray:2.0,2.0;" x1="80.5" x2="328.5" y1="411.4824" y2="411.4824"/><text fill="#000000" font-family="sans-serif" font-size="13" font-weight="bold" lengthAdjust="spacing" textLength="7" x="92.5" y="406.2197">8</text><text fill="#000000" font-family="sans-serif" font-size="13" lengthAdjust="spacing" textLength="158" x="103.5" y="406.2197">displays operation success</text><!--SRC=[fP8nRiCm34LtduB8r0wvG8O21J9aoL9tpC98ZAt6eboIJk3RLtOS8oXIe6av4T3dq-UNz1YuHS48CN5ojQH8OD9HeVD9Y-w85PNMDmH2pf2hvbQWDVfq3bp10Hkbeh1WMLhsQXIXfC-Es16i0rQ3_Aairy-mXDV6I1Wjd0ZUpwaeiBF4NToJvDvP4bXikeWCRwIf4qUwuorozY8BG8NDsxR83Youq28RB5QNAyV3Ipk2mWcDHdK1kN83ovUhlLKM7nKiWHCQT0XCP_X8-r4yZrzvCDKqlioa0RZAoUGzrJAg9l2aeHfsIpnEUBeB-cx5-fRqIY9_5_LxHpvess2lG28vp4YgEJj0zhFP7T_omIKP7lX1rwucboCSk1D0_-bypj8bFWI93mSvpIbuDFnhRAabkUIYdSk_Jtzmy0K0]--></g></svg>