<?xml version="1.0" encoding="us-ascii" standalone="no"?><svg xmlns="http://www.w3.org/2000/svg" xmlns:xlink="http://www.w3.org/1999/xlink" contentStyleType="text/css" height="1516px" preserveAspectRatio="none" style="width:2890px;height:1516px;background:#FFFFFF;" version="1.1" viewBox="0 0 2890 1516" width="2890px" zoomAndPan="magnify"><defs/><g><rect fill="#FFFFFF" height="1284.3496" style="stroke:#181818;stroke-width:1.0;" width="10" x="45" y="112.2422"/><rect fill="#FFFFFF" height="705.4121" style="stroke:#181818;stroke-width:1.0;" width="10" x="344" y="135.5332"/><rect fill="#FFFFFF" height="524.3555" style="stroke:#181818;stroke-width:1.0;" width="10" x="344" y="872.2363"/><rect fill="#FFFFFF" height="599.209" style="stroke:#181818;stroke-width:1.0;" width="10" x="787" y="210.4453"/><rect fill="#FFFFFF" height="461.7734" style="stroke:#181818;stroke-width:1.0;" width="10" x="787" y="903.5273"/><rect fill="#FFFFFF" height="33.6211" style="stroke:#181818;stroke-width:1.0;" width="10" x="970.5" y="251.7363"/><rect fill="#FFFFFF" height="52.2422" style="stroke:#181818;stroke-width:1.0;" width="10" x="1117.5" y="326.6484"/><rect fill="#FFFFFF" height="52.2422" style="stroke:#181818;stroke-width:1.0;" width="10" x="1250.5" y="420.1816"/><rect fill="#FFFFFF" height="33.6211" style="stroke:#181818;stroke-width:1.0;" width="10" x="1361.5" y="513.7148"/><rect fill="#FFFFFF" height="31.291" style="stroke:#181818;stroke-width:1.0;" width="10" x="1361.5" y="1165.2246"/><rect fill="#FFFFFF" height="31.291" style="stroke:#181818;stroke-width:1.0;" width="10" x="1466.5" y="578.627"/><rect fill="#FFFFFF" height="31.291" style="stroke:#181818;stroke-width:1.0;" width="10" x="1466.5" y="1227.8066"/><rect fill="#FFFFFF" height="52.2422" style="stroke:#181818;stroke-width:1.0;" width="10" x="1608" y="651.209"/><rect fill="#FFFFFF" height="33.6211" style="stroke:#181818;stroke-width:1.0;" width="10" x="1808" y="744.7422"/><rect fill="#FFFFFF" height="31.291" style="stroke:#181818;stroke-width:1.0;" width="10" x="1808" y="934.8184"/><rect fill="#FFFFFF" height="126.5332" style="stroke:#181818;stroke-width:1.0;" width="10" x="2531" y="1007.4004"/><rect fill="#FFFFFF" height="28" style="stroke:#181818;stroke-width:1.0;" width="10" x="2536" y="1067.6426"/><rect fill="#FFFFFF" height="33.6211" style="stroke:#181818;stroke-width:1.0;" width="10" x="2812" y="1300.3887"/><line style="stroke:#181818;stroke-width:0.5;stroke-dasharray:5.0,5.0;" x1="50" x2="50" y1="102.2422" y2="1414.5918"/><line style="stroke:#181818;stroke-width:0.5;stroke-dasharray:5.0,5.0;" x1="348.5" x2="348.5" y1="102.2422" y2="1414.5918"/><line style="stroke:#181818;stroke-width:0.5;stroke-dasharray:5.0,5.0;" x1="791.5" x2="791.5" y1="175.3438" y2="1414.5918"/><line style="stroke:#181818;stroke-width:0.5;stroke-dasharray:5.0,5.0;" x1="975" x2="975" y1="250.2559" y2="1414.5918"/><line style="stroke:#181818;stroke-width:0.5;stroke-dasharray:5.0,5.0;" x1="1122" x2="1122" y1="334.4785" y2="1414.5918"/><line style="stroke:#181818;stroke-width:0.5;stroke-dasharray:5.0,5.0;" x1="1255" x2="1255" y1="428.0117" y2="1414.5918"/><line style="stroke:#181818;stroke-width:0.5;stroke-dasharray:5.0,5.0;" x1="1366" x2="1366" y1="512.2344" y2="1414.5918"/><line style="stroke:#181818;stroke-width:0.5;stroke-dasharray:5.0,5.0;" x1="1471" x2="1471" y1="102.2422" y2="1414.5918"/><line style="stroke:#181818;stroke-width:0.5;stroke-dasharray:5.0,5.0;" x1="1613" x2="1613" y1="659.0391" y2="1414.5918"/><line style="stroke:#181818;stroke-width:0.5;stroke-dasharray:5.0,5.0;" x1="1813" x2="1813" y1="743.2617" y2="1414.5918"/><line style="stroke:#181818;stroke-width:0.5;stroke-dasharray:5.0,5.0;" x1="1998" x2="1998" y1="102.2422" y2="1414.5918"/><line style="stroke:#181818;stroke-width:0.5;stroke-dasharray:5.0,5.0;" x1="2155" x2="2155" y1="102.2422" y2="1414.5918"/><line style="stroke:#181818;stroke-width:0.5;stroke-dasharray:5.0,5.0;" x1="2304" x2="2304" y1="102.2422" y2="1414.5918"/><line style="stroke:#181818;stroke-width:0.5;stroke-dasharray:5.0,5.0;" x1="2423" x2="2423" y1="102.2422" y2="1414.5918"/><line style="stroke:#181818;stroke-width:0.5;stroke-dasharray:5.0,5.0;" x1="2536" x2="2536" y1="1015.2305" y2="1414.5918"/><line style="stroke:#181818;stroke-width:0.5;stroke-dasharray:5.0,5.0;" x1="2817" x2="2817" y1="1298.9082" y2="1414.5918"/><text fill="#000000" font-family="sans-serif" font-size="14" lengthAdjust="spacing" textLength="84" x="5" y="80.1074">Green Space</text><text fill="#000000" font-family="sans-serif" font-size="14" lengthAdjust="spacing" textLength="56" x="19" y="98.7285">Manager</text><ellipse cx="50" cy="13.5" fill="#E3E3E3" rx="8" ry="8" style="stroke:#181818;stroke-width:0.5;"/><path d="M50,21.5 L50,48.5 M37,29.5 L63,29.5 M50,48.5 L37,63.5 M50,48.5 L63,63.5 " fill="none" style="stroke:#181818;stroke-width:0.5;"/><text fill="#000000" font-family="sans-serif" font-size="14" lengthAdjust="spacing" textLength="84" x="5" y="1428.6992">Green Space</text><text fill="#000000" font-family="sans-serif" font-size="14" lengthAdjust="spacing" textLength="56" x="19" y="1447.3203">Manager</text><ellipse cx="50" cy="1459.334" fill="#E3E3E3" rx="8" ry="8" style="stroke:#181818;stroke-width:0.5;"/><path d="M50,1467.334 L50,1494.334 M37,1475.334 L63,1475.334 M50,1494.334 L37,1509.334 M50,1494.334 L63,1509.334 " fill="none" style="stroke:#181818;stroke-width:0.5;"/><rect fill="#E3E3E3" height="32.6211" rx="2.5" ry="2.5" style="stroke:#181818;stroke-width:0.5;" width="145" x="276.5" y="68.6211"/><text fill="#000000" font-family="sans-serif" font-size="14" lengthAdjust="spacing" textLength="131" x="283.5" y="90.7285">:AddToDoListEntryUI</text><rect fill="#E3E3E3" height="32.6211" rx="2.5" ry="2.5" style="stroke:#181818;stroke-width:0.5;" width="145" x="276.5" y="1413.5918"/><text fill="#000000" font-family="sans-serif" font-size="14" lengthAdjust="spacing" textLength="131" x="283.5" y="1435.6992">:AddToDoListEntryUI</text><rect fill="#E3E3E3" height="32.6211" rx="2.5" ry="2.5" style="stroke:#181818;stroke-width:0.5;" width="195" x="694.5" y="1413.5918"/><text fill="#000000" font-family="sans-serif" font-size="14" lengthAdjust="spacing" textLength="181" x="701.5" y="1435.6992">:AddToDoListEntryController</text><rect fill="#E3E3E3" height="32.6211" rx="2.5" ry="2.5" style="stroke:#181818;stroke-width:0.5;" width="137" x="907" y="1413.5918"/><text fill="#000000" font-family="sans-serif" font-size="14" lengthAdjust="spacing" textLength="123" x="914" y="1435.6992">:ApplicationSession</text><rect fill="#E3E3E3" height="51.2422" rx="2.5" ry="2.5" style="stroke:#181818;stroke-width:0.5;" width="137" x="1054" y="1413.5918"/><text fill="#000000" font-family="sans-serif" font-size="14" lengthAdjust="spacing" textLength="74" x="1085.5" y="1435.6992">appSession</text><text fill="#000000" font-family="sans-serif" font-size="14" lengthAdjust="spacing" textLength="123" x="1061" y="1454.3203">:ApplicationSession</text><rect fill="#E3E3E3" height="51.2422" rx="2.5" ry="2.5" style="stroke:#181818;stroke-width:0.5;" width="109" x="1201" y="1413.5918"/><text fill="#000000" font-family="sans-serif" font-size="14" lengthAdjust="spacing" textLength="95" x="1208" y="1435.6992">currentSession</text><text fill="#000000" font-family="sans-serif" font-size="14" lengthAdjust="spacing" textLength="83" x="1214" y="1454.3203">:UserSession</text><rect fill="#E3E3E3" height="32.6211" rx="2.5" ry="2.5" style="stroke:#181818;stroke-width:0.5;" width="93" x="1320" y="1413.5918"/><text fill="#000000" font-family="sans-serif" font-size="14" lengthAdjust="spacing" textLength="79" x="1327" y="1435.6992">Repositories</text><rect fill="#E3E3E3" height="51.2422" rx="2.5" ry="2.5" style="stroke:#181818;stroke-width:0.5;" width="97" x="1423" y="50"/><text fill="#000000" font-family="sans-serif" font-size="14" lengthAdjust="spacing" textLength="74" x="1434.5" y="72.1074">repositories</text><text fill="#000000" font-family="sans-serif" font-size="14" lengthAdjust="spacing" textLength="83" x="1430" y="90.7285">:Repositories</text><rect fill="#E3E3E3" height="51.2422" rx="2.5" ry="2.5" style="stroke:#181818;stroke-width:0.5;" width="97" x="1423" y="1413.5918"/><text fill="#000000" font-family="sans-serif" font-size="14" lengthAdjust="spacing" textLength="74" x="1434.5" y="1435.6992">repositories</text><text fill="#000000" font-family="sans-serif" font-size="14" lengthAdjust="spacing" textLength="83" x="1430" y="1454.3203">:Repositories</text><rect fill="#E3E3E3" height="51.2422" rx="2.5" ry="2.5" style="stroke:#181818;stroke-width:0.5;" width="166" x="1530" y="1413.5918"/><text fill="#000000" font-family="sans-serif" font-size="14" lengthAdjust="spacing" textLength="145" x="1540.5" y="1435.6992">greenSpaceRepository</text><text fill="#000000" font-family="sans-serif" font-size="14" lengthAdjust="spacing" textLength="152" x="1537" y="1454.3203">:GreenSpaceRepository</text><rect fill="#E3E3E3" height="32.6211" rx="2.5" ry="2.5" style="stroke:#181818;stroke-width:0.5;" width="214" x="1706" y="1413.5918"/><text fill="#000000" font-family="sans-serif" font-size="14" lengthAdjust="spacing" textLength="200" x="1713" y="1435.6992">:GreenSpaceRepositoryMapper</text><rect fill="#E3E3E3" height="51.2422" rx="2.5" ry="2.5" style="stroke:#181818;stroke-width:0.5;" width="136" x="1930" y="50"/><text fill="#000000" font-family="sans-serif" font-size="14" lengthAdjust="spacing" textLength="104" x="1946" y="72.1074">listGreenSpaces</text><text fill="#000000" font-family="sans-serif" font-size="14" lengthAdjust="spacing" textLength="122" x="1937" y="90.7285">:List&lt;GreenSpace&gt;</text><rect fill="#E3E3E3" height="51.2422" rx="2.5" ry="2.5" style="stroke:#181818;stroke-width:0.5;" width="136" x="1930" y="1413.5918"/><text fill="#000000" font-family="sans-serif" font-size="14" lengthAdjust="spacing" textLength="104" x="1946" y="1435.6992">listGreenSpaces</text><text fill="#000000" font-family="sans-serif" font-size="14" lengthAdjust="spacing" textLength="122" x="1937" y="1454.3203">:List&lt;GreenSpace&gt;</text><rect fill="#E3E3E3" height="51.2422" rx="2.5" ry="2.5" style="stroke:#181818;stroke-width:0.5;" width="158" x="2076" y="50"/><text fill="#000000" font-family="sans-serif" font-size="14" lengthAdjust="spacing" textLength="126" x="2092" y="72.1074">listGreenSpacesDto</text><text fill="#000000" font-family="sans-serif" font-size="14" lengthAdjust="spacing" textLength="144" x="2083" y="90.7285">:List&lt;GreenSpaceDto&gt;</text><rect fill="#E3E3E3" height="51.2422" rx="2.5" ry="2.5" style="stroke:#181818;stroke-width:0.5;" width="158" x="2076" y="1413.5918"/><text fill="#000000" font-family="sans-serif" font-size="14" lengthAdjust="spacing" textLength="126" x="2092" y="1435.6992">listGreenSpacesDto</text><text fill="#000000" font-family="sans-serif" font-size="14" lengthAdjust="spacing" textLength="144" x="2083" y="1454.3203">:List&lt;GreenSpaceDto&gt;</text><rect fill="#E3E3E3" height="51.2422" rx="2.5" ry="2.5" style="stroke:#181818;stroke-width:0.5;" width="120" x="2244" y="50"/><text fill="#000000" font-family="sans-serif" font-size="14" lengthAdjust="spacing" textLength="99" x="2254.5" y="72.1074">greenSpaceDto</text><text fill="#000000" font-family="sans-serif" font-size="14" lengthAdjust="spacing" textLength="106" x="2251" y="90.7285">:GreenSpaceDto</text><rect fill="#E3E3E3" height="51.2422" rx="2.5" ry="2.5" style="stroke:#181818;stroke-width:0.5;" width="120" x="2244" y="1413.5918"/><text fill="#000000" font-family="sans-serif" font-size="14" lengthAdjust="spacing" textLength="99" x="2254.5" y="1435.6992">greenSpaceDto</text><text fill="#000000" font-family="sans-serif" font-size="14" lengthAdjust="spacing" textLength="106" x="2251" y="1454.3203">:GreenSpaceDto</text><rect fill="#E3E3E3" height="51.2422" rx="2.5" ry="2.5" style="stroke:#181818;stroke-width:0.5;" width="98" x="2374" y="50"/><text fill="#000000" font-family="sans-serif" font-size="14" lengthAdjust="spacing" textLength="77" x="2384.5" y="72.1074">greenSpace</text><text fill="#000000" font-family="sans-serif" font-size="14" lengthAdjust="spacing" textLength="84" x="2381" y="90.7285">:GreenSpace</text><rect fill="#E3E3E3" height="51.2422" rx="2.5" ry="2.5" style="stroke:#181818;stroke-width:0.5;" width="98" x="2374" y="1413.5918"/><text fill="#000000" font-family="sans-serif" font-size="14" lengthAdjust="spacing" textLength="77" x="2384.5" y="1435.6992">greenSpace</text><text fill="#000000" font-family="sans-serif" font-size="14" lengthAdjust="spacing" textLength="84" x="2381" y="1454.3203">:GreenSpace</text><rect fill="#E3E3E3" height="51.2422" rx="2.5" ry="2.5" style="stroke:#181818;stroke-width:0.5;" width="108" x="2482" y="1413.5918"/><text fill="#000000" font-family="sans-serif" font-size="14" lengthAdjust="spacing" textLength="85" x="2493.5" y="1435.6992">toDoListEntry</text><text fill="#000000" font-family="sans-serif" font-size="14" lengthAdjust="spacing" textLength="94" x="2489" y="1454.3203">:ToDoListEntry</text><rect fill="#E3E3E3" height="32.6211" rx="2.5" ry="2.5" style="stroke:#181818;stroke-width:0.5;" width="134" x="2750" y="1413.5918"/><text fill="#000000" font-family="sans-serif" font-size="14" lengthAdjust="spacing" textLength="120" x="2757" y="1435.6992">toDoListRepository</text><rect fill="#FFFFFF" height="1284.3496" style="stroke:#181818;stroke-width:1.0;" width="10" x="45" y="112.2422"/><rect fill="#FFFFFF" height="705.4121" style="stroke:#181818;stroke-width:1.0;" width="10" x="344" y="135.5332"/><rect fill="#FFFFFF" height="524.3555" style="stroke:#181818;stroke-width:1.0;" width="10" x="344" y="872.2363"/><rect fill="#FFFFFF" height="599.209" style="stroke:#181818;stroke-width:1.0;" width="10" x="787" y="210.4453"/><rect fill="#FFFFFF" height="461.7734" style="stroke:#181818;stroke-width:1.0;" width="10" x="787" y="903.5273"/><rect fill="#FFFFFF" height="33.6211" style="stroke:#181818;stroke-width:1.0;" width="10" x="970.5" y="251.7363"/><rect fill="#FFFFFF" height="52.2422" style="stroke:#181818;stroke-width:1.0;" width="10" x="1117.5" y="326.6484"/><rect fill="#FFFFFF" height="52.2422" style="stroke:#181818;stroke-width:1.0;" width="10" x="1250.5" y="420.1816"/><rect fill="#FFFFFF" height="33.6211" style="stroke:#181818;stroke-width:1.0;" width="10" x="1361.5" y="513.7148"/><rect fill="#FFFFFF" height="31.291" style="stroke:#181818;stroke-width:1.0;" width="10" x="1361.5" y="1165.2246"/><rect fill="#FFFFFF" height="31.291" style="stroke:#181818;stroke-width:1.0;" width="10" x="1466.5" y="578.627"/><rect fill="#FFFFFF" height="31.291" style="stroke:#181818;stroke-width:1.0;" width="10" x="1466.5" y="1227.8066"/><rect fill="#FFFFFF" height="52.2422" style="stroke:#181818;stroke-width:1.0;" width="10" x="1608" y="651.209"/><rect fill="#FFFFFF" height="33.6211" style="stroke:#181818;stroke-width:1.0;" width="10" x="1808" y="744.7422"/><rect fill="#FFFFFF" height="31.291" style="stroke:#181818;stroke-width:1.0;" width="10" x="1808" y="934.8184"/><rect fill="#FFFFFF" height="126.5332" style="stroke:#181818;stroke-width:1.0;" width="10" x="2531" y="1007.4004"/><rect fill="#FFFFFF" height="28" style="stroke:#181818;stroke-width:1.0;" width="10" x="2536" y="1067.6426"/><rect fill="#FFFFFF" height="33.6211" style="stroke:#181818;stroke-width:1.0;" width="10" x="2812" y="1300.3887"/><polygon fill="#181818" points="332,131.5332,342,135.5332,332,139.5332,336,135.5332" style="stroke:#181818;stroke-width:1.0;"/><line style="stroke:#181818;stroke-width:1.0;" x1="55" x2="338" y1="135.5332" y2="135.5332"/><text fill="#000000" font-family="sans-serif" font-size="13" font-weight="bold" lengthAdjust="spacing" textLength="7" x="62" y="130.2705">1</text><text fill="#000000" font-family="sans-serif" font-size="13" lengthAdjust="spacing" textLength="259" x="73" y="130.2705">Request to add a new entry to the To-Do List</text><polygon fill="#181818" points="682.5,162.8242,692.5,166.8242,682.5,170.8242,686.5,166.8242" style="stroke:#181818;stroke-width:1.0;"/><line style="stroke:#181818;stroke-width:1.0;" x1="354" x2="688.5" y1="166.8242" y2="166.8242"/><text fill="#000000" font-family="sans-serif" font-size="13" font-weight="bold" lengthAdjust="spacing" textLength="7" x="361" y="161.5615">2</text><text fill="#000000" font-family="sans-serif" font-size="13" lengthAdjust="spacing" textLength="38" x="372" y="161.5615">Create</text><rect fill="#E3E3E3" height="32.6211" rx="2.5" ry="2.5" style="stroke:#181818;stroke-width:0.5;" width="195" x="694.5" y="143.5332"/><text fill="#000000" font-family="sans-serif" font-size="14" lengthAdjust="spacing" textLength="181" x="701.5" y="165.6406">:AddToDoListEntryController</text><polygon fill="#181818" points="775,206.4453,785,210.4453,775,214.4453,779,210.4453" style="stroke:#181818;stroke-width:1.0;"/><line style="stroke:#181818;stroke-width:1.0;" x1="354" x2="781" y1="210.4453" y2="210.4453"/><text fill="#000000" font-family="sans-serif" font-size="13" font-weight="bold" lengthAdjust="spacing" textLength="7" x="361" y="205.1826">3</text><text fill="#000000" font-family="sans-serif" font-size="13" lengthAdjust="spacing" textLength="126" x="372" y="205.1826">getListGreenSpaces()</text><polygon fill="#181818" points="895,237.7363,905,241.7363,895,245.7363,899,241.7363" style="stroke:#181818;stroke-width:1.0;"/><line style="stroke:#181818;stroke-width:1.0;" x1="797" x2="901" y1="241.7363" y2="241.7363"/><text fill="#000000" font-family="sans-serif" font-size="13" font-weight="bold" lengthAdjust="spacing" textLength="7" x="804" y="236.4736">4</text><text fill="#000000" font-family="sans-serif" font-size="13" lengthAdjust="spacing" textLength="75" x="815" y="236.4736">getInstance()</text><rect fill="#E3E3E3" height="32.6211" rx="2.5" ry="2.5" style="stroke:#181818;stroke-width:0.5;" width="137" x="907" y="218.4453"/><text fill="#000000" font-family="sans-serif" font-size="14" lengthAdjust="spacing" textLength="123" x="914" y="240.5527">:ApplicationSession</text><polygon fill="#181818" points="808,281.3574,798,285.3574,808,289.3574,804,285.3574" style="stroke:#181818;stroke-width:1.0;"/><line style="stroke:#181818;stroke-width:1.0;" x1="802" x2="974.5" y1="285.3574" y2="285.3574"/><text fill="#000000" font-family="sans-serif" font-size="13" font-weight="bold" lengthAdjust="spacing" textLength="7" x="814" y="280.0947">5</text><text fill="#000000" font-family="sans-serif" font-size="13" lengthAdjust="spacing" textLength="68" x="825" y="280.0947">appSession</text><polygon fill="#181818" points="1042,312.6484,1052,316.6484,1042,320.6484,1046,316.6484" style="stroke:#181818;stroke-width:1.0;"/><line style="stroke:#181818;stroke-width:1.0;" x1="797" x2="1048" y1="316.6484" y2="316.6484"/><text fill="#000000" font-family="sans-serif" font-size="13" font-weight="bold" lengthAdjust="spacing" textLength="7" x="804" y="311.3857">6</text><text fill="#000000" font-family="sans-serif" font-size="13" lengthAdjust="spacing" textLength="115" x="815" y="311.3857">getCurrentSession()</text><rect fill="#E3E3E3" height="51.2422" rx="2.5" ry="2.5" style="stroke:#181818;stroke-width:0.5;" width="137" x="1054" y="293.3574"/><text fill="#000000" font-family="sans-serif" font-size="14" lengthAdjust="spacing" textLength="74" x="1085.5" y="315.4648">appSession</text><text fill="#000000" font-family="sans-serif" font-size="14" lengthAdjust="spacing" textLength="123" x="1061" y="334.0859">:ApplicationSession</text><polygon fill="#181818" points="808,374.8906,798,378.8906,808,382.8906,804,378.8906" style="stroke:#181818;stroke-width:1.0;"/><line style="stroke:#181818;stroke-width:1.0;stroke-dasharray:2.0,2.0;" x1="802" x2="1121.5" y1="378.8906" y2="378.8906"/><text fill="#000000" font-family="sans-serif" font-size="13" font-weight="bold" lengthAdjust="spacing" textLength="7" x="814" y="373.6279">7</text><text fill="#000000" font-family="sans-serif" font-size="13" lengthAdjust="spacing" textLength="87" x="825" y="373.6279">currentSession</text><polygon fill="#181818" points="1189,406.1816,1199,410.1816,1189,414.1816,1193,410.1816" style="stroke:#181818;stroke-width:1.0;"/><line style="stroke:#181818;stroke-width:1.0;" x1="797" x2="1195" y1="410.1816" y2="410.1816"/><text fill="#000000" font-family="sans-serif" font-size="13" font-weight="bold" lengthAdjust="spacing" textLength="7" x="804" y="404.9189">8</text><text fill="#000000" font-family="sans-serif" font-size="13" lengthAdjust="spacing" textLength="86" x="815" y="404.9189">getUserEmail()</text><rect fill="#E3E3E3" height="51.2422" rx="2.5" ry="2.5" style="stroke:#181818;stroke-width:0.5;" width="109" x="1201" y="386.8906"/><text fill="#000000" font-family="sans-serif" font-size="14" lengthAdjust="spacing" textLength="95" x="1208" y="408.998">currentSession</text><text fill="#000000" font-family="sans-serif" font-size="14" lengthAdjust="spacing" textLength="83" x="1214" y="427.6191">:UserSession</text><polygon fill="#181818" points="808,468.4238,798,472.4238,808,476.4238,804,472.4238" style="stroke:#181818;stroke-width:1.0;"/><line style="stroke:#181818;stroke-width:1.0;stroke-dasharray:2.0,2.0;" x1="802" x2="1254.5" y1="472.4238" y2="472.4238"/><text fill="#000000" font-family="sans-serif" font-size="13" font-weight="bold" lengthAdjust="spacing" textLength="7" x="814" y="467.1611">9</text><text fill="#000000" font-family="sans-serif" font-size="13" lengthAdjust="spacing" textLength="31" x="825" y="467.1611">email</text><polygon fill="#181818" points="1308,499.7148,1318,503.7148,1308,507.7148,1312,503.7148" style="stroke:#181818;stroke-width:1.0;"/><line style="stroke:#181818;stroke-width:1.0;" x1="797" x2="1314" y1="503.7148" y2="503.7148"/><text fill="#000000" font-family="sans-serif" font-size="13" font-weight="bold" lengthAdjust="spacing" textLength="14" x="804" y="498.4521">10</text><text fill="#000000" font-family="sans-serif" font-size="13" lengthAdjust="spacing" textLength="75" x="822" y="498.4521">getInstance()</text><rect fill="#E3E3E3" height="32.6211" rx="2.5" ry="2.5" style="stroke:#181818;stroke-width:0.5;" width="93" x="1320" y="480.4238"/><text fill="#000000" font-family="sans-serif" font-size="14" lengthAdjust="spacing" textLength="79" x="1327" y="502.5313">Repositories</text><polygon fill="#181818" points="808,543.3359,798,547.3359,808,551.3359,804,547.3359" style="stroke:#181818;stroke-width:1.0;"/><line style="stroke:#181818;stroke-width:1.0;stroke-dasharray:2.0,2.0;" x1="802" x2="1365.5" y1="547.3359" y2="547.3359"/><text fill="#000000" font-family="sans-serif" font-size="13" font-weight="bold" lengthAdjust="spacing" textLength="14" x="814" y="542.0732">11</text><text fill="#000000" font-family="sans-serif" font-size="13" lengthAdjust="spacing" textLength="67" x="832" y="542.0732">repositories</text><polygon fill="#181818" points="1454.5,574.627,1464.5,578.627,1454.5,582.627,1458.5,578.627" style="stroke:#181818;stroke-width:1.0;"/><line style="stroke:#181818;stroke-width:1.0;" x1="797" x2="1460.5" y1="578.627" y2="578.627"/><text fill="#000000" font-family="sans-serif" font-size="13" font-weight="bold" lengthAdjust="spacing" textLength="14" x="804" y="573.3643">12</text><text fill="#000000" font-family="sans-serif" font-size="13" lengthAdjust="spacing" textLength="160" x="822" y="573.3643">getGreenSpaceRepository()</text><polygon fill="#181818" points="808,605.918,798,609.918,808,613.918,804,609.918" style="stroke:#181818;stroke-width:1.0;"/><line style="stroke:#181818;stroke-width:1.0;stroke-dasharray:2.0,2.0;" x1="802" x2="1470.5" y1="609.918" y2="609.918"/><text fill="#000000" font-family="sans-serif" font-size="13" font-weight="bold" lengthAdjust="spacing" textLength="14" x="814" y="604.6553">13</text><text fill="#000000" font-family="sans-serif" font-size="13" lengthAdjust="spacing" textLength="131" x="832" y="604.6553">greenSpaceRepository</text><polygon fill="#181818" points="1518,637.209,1528,641.209,1518,645.209,1522,641.209" style="stroke:#181818;stroke-width:1.0;"/><line style="stroke:#181818;stroke-width:1.0;" x1="797" x2="1524" y1="641.209" y2="641.209"/><text fill="#000000" font-family="sans-serif" font-size="13" font-weight="bold" lengthAdjust="spacing" textLength="14" x="804" y="635.9463">14</text><text fill="#000000" font-family="sans-serif" font-size="13" lengthAdjust="spacing" textLength="342" x="822" y="635.9463">getListGreenSpacesManagedByGsm(greenSpaceManager)</text><rect fill="#E3E3E3" height="51.2422" rx="2.5" ry="2.5" style="stroke:#181818;stroke-width:0.5;" width="166" x="1530" y="617.918"/><text fill="#000000" font-family="sans-serif" font-size="14" lengthAdjust="spacing" textLength="145" x="1540.5" y="640.0254">greenSpaceRepository</text><text fill="#000000" font-family="sans-serif" font-size="14" lengthAdjust="spacing" textLength="152" x="1537" y="658.6465">:GreenSpaceRepository</text><polygon fill="#181818" points="808,699.4512,798,703.4512,808,707.4512,804,703.4512" style="stroke:#181818;stroke-width:1.0;"/><line style="stroke:#181818;stroke-width:1.0;stroke-dasharray:2.0,2.0;" x1="802" x2="1612" y1="703.4512" y2="703.4512"/><text fill="#000000" font-family="sans-serif" font-size="13" font-weight="bold" lengthAdjust="spacing" textLength="14" x="814" y="698.1885">15</text><text fill="#000000" font-family="sans-serif" font-size="13" lengthAdjust="spacing" textLength="96" x="832" y="698.1885">listGreenSpaces</text><polygon fill="#181818" points="1694,730.7422,1704,734.7422,1694,738.7422,1698,734.7422" style="stroke:#181818;stroke-width:1.0;"/><line style="stroke:#181818;stroke-width:1.0;" x1="797" x2="1700" y1="734.7422" y2="734.7422"/><text fill="#000000" font-family="sans-serif" font-size="13" font-weight="bold" lengthAdjust="spacing" textLength="14" x="804" y="729.4795">16</text><text fill="#000000" font-family="sans-serif" font-size="13" lengthAdjust="spacing" textLength="234" x="822" y="729.4795">listGreenSpacesToDto(listGreenSpaces)</text><rect fill="#E3E3E3" height="32.6211" rx="2.5" ry="2.5" style="stroke:#181818;stroke-width:0.5;" width="214" x="1706" y="711.4512"/><text fill="#000000" font-family="sans-serif" font-size="14" lengthAdjust="spacing" textLength="200" x="1713" y="733.5586">:GreenSpaceRepositoryMapper</text><polygon fill="#181818" points="808,774.3633,798,778.3633,808,782.3633,804,778.3633" style="stroke:#181818;stroke-width:1.0;"/><line style="stroke:#181818;stroke-width:1.0;stroke-dasharray:2.0,2.0;" x1="802" x2="1812" y1="778.3633" y2="778.3633"/><text fill="#000000" font-family="sans-serif" font-size="13" font-weight="bold" lengthAdjust="spacing" textLength="14" x="814" y="773.1006">17</text><text fill="#000000" font-family="sans-serif" font-size="13" lengthAdjust="spacing" textLength="116" x="832" y="773.1006">listGreenSpacesDto</text><polygon fill="#181818" points="365,805.6543,355,809.6543,365,813.6543,361,809.6543" style="stroke:#181818;stroke-width:1.0;"/><line style="stroke:#181818;stroke-width:1.0;stroke-dasharray:2.0,2.0;" x1="359" x2="791" y1="809.6543" y2="809.6543"/><text fill="#000000" font-family="sans-serif" font-size="13" font-weight="bold" lengthAdjust="spacing" textLength="14" x="371" y="804.3916">18</text><text fill="#000000" font-family="sans-serif" font-size="13" lengthAdjust="spacing" textLength="116" x="389" y="804.3916">listGreenSpacesDto</text><polygon fill="#181818" points="66,836.9453,56,840.9453,66,844.9453,62,840.9453" style="stroke:#181818;stroke-width:1.0;"/><line style="stroke:#181818;stroke-width:1.0;stroke-dasharray:2.0,2.0;" x1="60" x2="348" y1="840.9453" y2="840.9453"/><text fill="#000000" font-family="sans-serif" font-size="13" font-weight="bold" lengthAdjust="spacing" textLength="14" x="72" y="835.6826">19</text><text fill="#000000" font-family="sans-serif" font-size="13" lengthAdjust="spacing" textLength="189" x="90" y="835.6826">Displays the list of green spaces</text><polygon fill="#181818" points="332,868.2363,342,872.2363,332,876.2363,336,872.2363" style="stroke:#181818;stroke-width:1.0;"/><line style="stroke:#181818;stroke-width:1.0;" x1="55" x2="338" y1="872.2363" y2="872.2363"/><text fill="#000000" font-family="sans-serif" font-size="13" font-weight="bold" lengthAdjust="spacing" textLength="14" x="62" y="866.9736">20</text><text fill="#000000" font-family="sans-serif" font-size="13" lengthAdjust="spacing" textLength="180" x="80" y="866.9736">Select the desired green space</text><polygon fill="#181818" points="775,899.5273,785,903.5273,775,907.5273,779,903.5273" style="stroke:#181818;stroke-width:1.0;"/><line style="stroke:#181818;stroke-width:1.0;" x1="354" x2="781" y1="903.5273" y2="903.5273"/><text fill="#000000" font-family="sans-serif" font-size="13" font-weight="bold" lengthAdjust="spacing" textLength="14" x="361" y="898.2646">21</text><text fill="#000000" font-family="sans-serif" font-size="13" lengthAdjust="spacing" textLength="396" x="379" y="898.2646">createToDoListEntry(greenSpaceDto, taskDetails, urgency, duration)</text><polygon fill="#181818" points="1796,930.8184,1806,934.8184,1796,938.8184,1800,934.8184" style="stroke:#181818;stroke-width:1.0;"/><line style="stroke:#181818;stroke-width:1.0;" x1="797" x2="1802" y1="934.8184" y2="934.8184"/><text fill="#000000" font-family="sans-serif" font-size="13" font-weight="bold" lengthAdjust="spacing" textLength="14" x="804" y="929.5557">22</text><text fill="#000000" font-family="sans-serif" font-size="13" lengthAdjust="spacing" textLength="244" x="822" y="929.5557">greenSpaceDtoToDomain(greenSpaceDto)</text><polygon fill="#181818" points="808,962.1094,798,966.1094,808,970.1094,804,966.1094" style="stroke:#181818;stroke-width:1.0;"/><line style="stroke:#181818;stroke-width:1.0;stroke-dasharray:2.0,2.0;" x1="802" x2="1812" y1="966.1094" y2="966.1094"/><text fill="#000000" font-family="sans-serif" font-size="13" font-weight="bold" lengthAdjust="spacing" textLength="14" x="814" y="960.8467">23</text><text fill="#000000" font-family="sans-serif" font-size="13" lengthAdjust="spacing" textLength="69" x="832" y="960.8467">greenSpace</text><polygon fill="#181818" points="2470,993.4004,2480,997.4004,2470,1001.4004,2474,997.4004" style="stroke:#181818;stroke-width:1.0;"/><line style="stroke:#181818;stroke-width:1.0;" x1="797" x2="2476" y1="997.4004" y2="997.4004"/><text fill="#000000" font-family="sans-serif" font-size="13" font-weight="bold" lengthAdjust="spacing" textLength="14" x="804" y="992.1377">24</text><text fill="#000000" font-family="sans-serif" font-size="13" lengthAdjust="spacing" textLength="113" x="822" y="992.1377">create(greenSpace)</text><rect fill="#E3E3E3" height="51.2422" rx="2.5" ry="2.5" style="stroke:#181818;stroke-width:0.5;" width="108" x="2482" y="974.1094"/><text fill="#000000" font-family="sans-serif" font-size="14" lengthAdjust="spacing" textLength="85" x="2493.5" y="996.2168">toDoListEntry</text><text fill="#000000" font-family="sans-serif" font-size="14" lengthAdjust="spacing" textLength="94" x="2489" y="1014.8379">:ToDoListEntry</text><line style="stroke:#181818;stroke-width:1.0;" x1="2546" x2="2588" y1="1059.6426" y2="1059.6426"/><line style="stroke:#181818;stroke-width:1.0;" x1="2588" x2="2588" y1="1059.6426" y2="1072.6426"/><line style="stroke:#181818;stroke-width:1.0;" x1="2547" x2="2588" y1="1072.6426" y2="1072.6426"/><polygon fill="#181818" points="2557,1068.6426,2547,1072.6426,2557,1076.6426,2553,1072.6426" style="stroke:#181818;stroke-width:1.0;"/><text fill="#000000" font-family="sans-serif" font-size="13" font-weight="bold" lengthAdjust="spacing" textLength="14" x="2553" y="1054.3799">25</text><text fill="#000000" font-family="sans-serif" font-size="13" lengthAdjust="spacing" textLength="239" x="2571" y="1054.3799">setDetails(taskDetails, urgency, duration)</text><polygon fill="#181818" points="808,1129.9336,798,1133.9336,808,1137.9336,804,1133.9336" style="stroke:#181818;stroke-width:1.0;"/><line style="stroke:#181818;stroke-width:1.0;stroke-dasharray:2.0,2.0;" x1="802" x2="2535" y1="1133.9336" y2="1133.9336"/><text fill="#000000" font-family="sans-serif" font-size="13" font-weight="bold" lengthAdjust="spacing" textLength="14" x="814" y="1128.6709">26</text><text fill="#000000" font-family="sans-serif" font-size="13" lengthAdjust="spacing" textLength="79" x="832" y="1128.6709">toDoListEntry</text><polygon fill="#181818" points="1349.5,1161.2246,1359.5,1165.2246,1349.5,1169.2246,1353.5,1165.2246" style="stroke:#181818;stroke-width:1.0;"/><line style="stroke:#181818;stroke-width:1.0;" x1="797" x2="1355.5" y1="1165.2246" y2="1165.2246"/><text fill="#000000" font-family="sans-serif" font-size="13" font-weight="bold" lengthAdjust="spacing" textLength="14" x="804" y="1159.9619">27</text><text fill="#000000" font-family="sans-serif" font-size="13" lengthAdjust="spacing" textLength="75" x="822" y="1159.9619">getInstance()</text><polygon fill="#181818" points="808,1192.5156,798,1196.5156,808,1200.5156,804,1196.5156" style="stroke:#181818;stroke-width:1.0;"/><line style="stroke:#181818;stroke-width:1.0;stroke-dasharray:2.0,2.0;" x1="802" x2="1365.5" y1="1196.5156" y2="1196.5156"/><text fill="#000000" font-family="sans-serif" font-size="13" font-weight="bold" lengthAdjust="spacing" textLength="14" x="814" y="1191.2529">28</text><text fill="#000000" font-family="sans-serif" font-size="13" lengthAdjust="spacing" textLength="67" x="832" y="1191.2529">repositories</text><polygon fill="#181818" points="1454.5,1223.8066,1464.5,1227.8066,1454.5,1231.8066,1458.5,1227.8066" style="stroke:#181818;stroke-width:1.0;"/><line style="stroke:#181818;stroke-width:1.0;" x1="797" x2="1460.5" y1="1227.8066" y2="1227.8066"/><text fill="#000000" font-family="sans-serif" font-size="13" font-weight="bold" lengthAdjust="spacing" textLength="14" x="804" y="1222.5439">29</text><text fill="#000000" font-family="sans-serif" font-size="13" lengthAdjust="spacing" textLength="139" x="822" y="1222.5439">getToDoListRepository()</text><polygon fill="#181818" points="808,1255.0977,798,1259.0977,808,1263.0977,804,1259.0977" style="stroke:#181818;stroke-width:1.0;"/><line style="stroke:#181818;stroke-width:1.0;stroke-dasharray:2.0,2.0;" x1="802" x2="1470.5" y1="1259.0977" y2="1259.0977"/><text fill="#000000" font-family="sans-serif" font-size="13" font-weight="bold" lengthAdjust="spacing" textLength="14" x="814" y="1253.835">30</text><text fill="#000000" font-family="sans-serif" font-size="13" lengthAdjust="spacing" textLength="110" x="832" y="1253.835">toDoListRepository</text><polygon fill="#181818" points="2738,1286.3887,2748,1290.3887,2738,1294.3887,2742,1290.3887" style="stroke:#181818;stroke-width:1.0;"/><line style="stroke:#181818;stroke-width:1.0;" x1="797" x2="2744" y1="1290.3887" y2="1290.3887"/><text fill="#000000" font-family="sans-serif" font-size="13" font-weight="bold" lengthAdjust="spacing" textLength="14" x="804" y="1285.126">31</text><text fill="#000000" font-family="sans-serif" font-size="13" lengthAdjust="spacing" textLength="190" x="822" y="1285.126">addToDoListEntry(toDoListEntry)</text><rect fill="#E3E3E3" height="32.6211" rx="2.5" ry="2.5" style="stroke:#181818;stroke-width:0.5;" width="134" x="2750" y="1267.0977"/><text fill="#000000" font-family="sans-serif" font-size="14" lengthAdjust="spacing" textLength="120" x="2757" y="1289.2051">toDoListRepository</text><polygon fill="#181818" points="808,1330.0098,798,1334.0098,808,1338.0098,804,1334.0098" style="stroke:#181818;stroke-width:1.0;"/><line style="stroke:#181818;stroke-width:1.0;stroke-dasharray:2.0,2.0;" x1="802" x2="2816" y1="1334.0098" y2="1334.0098"/><text fill="#000000" font-family="sans-serif" font-size="13" font-weight="bold" lengthAdjust="spacing" textLength="14" x="814" y="1328.7471">32</text><text fill="#000000" font-family="sans-serif" font-size="13" lengthAdjust="spacing" textLength="106" x="832" y="1328.7471">operation success</text><polygon fill="#181818" points="365,1361.3008,355,1365.3008,365,1369.3008,361,1365.3008" style="stroke:#181818;stroke-width:1.0;"/><line style="stroke:#181818;stroke-width:1.0;stroke-dasharray:2.0,2.0;" x1="359" x2="791" y1="1365.3008" y2="1365.3008"/><text fill="#000000" font-family="sans-serif" font-size="13" font-weight="bold" lengthAdjust="spacing" textLength="14" x="371" y="1360.0381">33</text><text fill="#000000" font-family="sans-serif" font-size="13" lengthAdjust="spacing" textLength="106" x="389" y="1360.0381">operation success</text><polygon fill="#181818" points="61,1392.5918,51,1396.5918,61,1400.5918,57,1396.5918" style="stroke:#181818;stroke-width:1.0;"/><line style="stroke:#181818;stroke-width:1.0;stroke-dasharray:2.0,2.0;" x1="55" x2="348" y1="1396.5918" y2="1396.5918"/><text fill="#000000" font-family="sans-serif" font-size="13" font-weight="bold" lengthAdjust="spacing" textLength="14" x="67" y="1391.3291">34</text><text fill="#000000" font-family="sans-serif" font-size="13" lengthAdjust="spacing" textLength="160" x="85" y="1391.3291">Displays operation success</text><!--SRC=[rLTjQzim4FwUNo7wAGlj7mYZq2Kc198cnEw7mM1ezZKrTIHFabVoxtUI7LkofRn06ImVsY3TFNhkJlUS8jzpLb913-J06K_V13y0KQA2aMntIfg-qpt4wbW04P0golQ5RI3VQCO_ShOdhxIGC1hHId5M7Nw1mE-fueBSBGG08p5YmG-sfWm1nHsXaYpYzGXXL9xc9MMAt4sViYpXSxxAfOgO4iUNfJ5yMLwmct7youkY0PubkrNVeooBFAKgvom6AV6ViVpvjDswbhGi6uCVBEGrS4eh8O2fpl55Wh0zuYYEbvjdnsi79PSvfYW7wS89QmV1R4E3jejwv-zrYas6MziZEYuyotNcTr7q76-VPX52RU9bijbzxoNCvxl6v9ngvq5OOrwYdOjJO8awA1sDBjhNRkdHmAsMST91ncSnveeFON3HYpHFDg5KrJWEH2-qCywEPy_DzL7sHKKtv-8QpsGptsZQqNE2PT1ja_-X2an_Z0X-y0jvUCGs85EyDRyha8eeJcYM4KeOV13GM7f9lG59-CES4ts4SMxXi8lCWluW50BgFfbC47Gc02rysxYv1xLoAp3-qbgswARdscNzCUu8etjiCZ4uIoPHGbAm01mGquxEblxerHEVAUaQr37Cu0pAYKh7PEPqR8YFbuvXqz9nMpz4ASYe4OQ6bPQDw43p8aJef2C3Kis6HGmqJeYF5-V4oTQRAmldQDc0dBrhCRHbBaGq3DooZRQ6ea-mWdGZJrrnqIBdazGWoIXGNPzAceORzbGz6BDlnuKyZBl3ctaPYCEhuuF0V5PMf3rv3GLv-QnpKTUpmSJUEm_rKF5nR_66U9kfSrNKjMqR-v0CKhabVj_PTHPESdq6ty9snLEhhquZglwKp7DP5lGeZRHhDC9Vwyj9P5Sl2-iay_RGYA70nvk1o43c0Z8RufenWI2f6HBE-1exq_IUA2hVvw1GUEGzgSGUM7gy9rabp1FgfgbnfdnsS-AncX5g7NF9_BCRr9twEJVdqNqFc9QfKsy568YkzvBe1-Hi3qx2SoIefdpZQqjvWKFVp4hBRMIxX3iFgj7juBunzxyCkLFtVSg8KmEmcmVS448_66ZlvzdOALc0i8VDWF_GnWg7usyJSpc9h58Knc2wBvtaAdWOzaO1zmFrbDkM3Np-_mK0]--></g></svg>