<?xml version="1.0" encoding="us-ascii" standalone="no"?><svg xmlns="http://www.w3.org/2000/svg" xmlns:xlink="http://www.w3.org/1999/xlink" contentStyleType="text/css" height="684px" preserveAspectRatio="none" style="width:969px;height:684px;background:#FFFFFF;" version="1.1" viewBox="0 0 969 684" width="969px" zoomAndPan="magnify"><defs/><g><rect fill="#FFFFFF" height="567.4148" style="stroke:#181818;stroke-width:0.6;" width="6" x="11.1" y="56.1727"/><rect fill="#FFFFFF" height="261.6445" style="stroke:#181818;stroke-width:0.6;" width="6" x="184.5" y="70.1473"/><rect fill="#FFFFFF" height="18.7746" style="stroke:#181818;stroke-width:0.6;" width="6" x="184.5" y="350.5664"/><rect fill="#FFFFFF" height="235.4719" style="stroke:#181818;stroke-width:0.6;" width="6" x="184.5" y="388.1156"/><rect fill="#FFFFFF" height="197.9227" style="stroke:#181818;stroke-width:0.6;" width="6" x="336.3" y="115.0945"/><rect fill="#FFFFFF" height="197.9227" style="stroke:#181818;stroke-width:0.6;" width="6" x="336.3" y="406.8902"/><rect fill="#FFFFFF" height="18.7746" style="stroke:#181818;stroke-width:0.6;" width="6" x="412.8" y="133.8691"/><rect fill="#FFFFFF" height="18.7746" style="stroke:#181818;stroke-width:0.6;" width="6" x="412.8" y="425.6648"/><rect fill="#FFFFFF" height="18.7746" style="stroke:#181818;stroke-width:0.6;" width="6" x="477" y="171.4184"/><rect fill="#FFFFFF" height="18.7746" style="stroke:#181818;stroke-width:0.6;" width="6" x="477" y="463.2141"/><rect fill="#FFFFFF" height="85.275" style="stroke:#181818;stroke-width:0.6;" width="6" x="547.2" y="208.9676"/><rect fill="#FFFFFF" height="47.7258" style="stroke:#181818;stroke-width:0.6;" width="6" x="708.6" y="227.7422"/><rect fill="#FFFFFF" height="85.275" style="stroke:#181818;stroke-width:0.6;" width="6" x="800.1" y="500.7633"/><rect fill="#FFFFFF" height="47.7258" style="stroke:#181818;stroke-width:0.6;" width="6" x="918.3" y="519.5379"/><line style="stroke:#181818;stroke-width:0.3;stroke-dasharray:5.0,5.0;" x1="13.8" x2="13.8" y1="50.1727" y2="634.3875"/><line style="stroke:#181818;stroke-width:0.3;stroke-dasharray:5.0,5.0;" x1="187.5" x2="187.5" y1="50.1727" y2="634.3875"/><line style="stroke:#181818;stroke-width:0.3;stroke-dasharray:5.0,5.0;" x1="339.3" x2="339.3" y1="94.0336" y2="634.3875"/><line style="stroke:#181818;stroke-width:0.3;stroke-dasharray:5.0,5.0;" x1="415.5" x2="415.5" y1="50.1727" y2="634.3875"/><line style="stroke:#181818;stroke-width:0.3;stroke-dasharray:5.0,5.0;" x1="479.7" x2="479.7" y1="50.1727" y2="634.3875"/><line style="stroke:#181818;stroke-width:0.3;stroke-dasharray:5.0,5.0;" x1="549.9" x2="549.9" y1="50.1727" y2="634.3875"/><line style="stroke:#181818;stroke-width:0.3;stroke-dasharray:5.0,5.0;" x1="711.6" x2="711.6" y1="50.1727" y2="634.3875"/><line style="stroke:#181818;stroke-width:0.3;stroke-dasharray:5.0,5.0;" x1="802.8" x2="802.8" y1="50.1727" y2="634.3875"/><line style="stroke:#181818;stroke-width:0.3;stroke-dasharray:5.0,5.0;" x1="873" x2="873" y1="50.1727" y2="634.3875"/><line style="stroke:#181818;stroke-width:0.3;stroke-dasharray:5.0,5.0;" x1="921" x2="921" y1="50.1727" y2="634.3875"/><text fill="#000000" font-family="sans-serif" font-size="8.4" lengthAdjust="spacing" textLength="18.6" x="3" y="48.0645">GSM</text><ellipse cx="14.1" cy="8.1" fill="#E3E3E3" rx="4.8" ry="4.8" style="stroke:#181818;stroke-width:0.3;"/><path d="M14.1,12.9 L14.1,29.1 M6.3,17.7 L21.9,17.7 M14.1,29.1 L6.3,38.1 M14.1,29.1 L21.9,38.1 " fill="none" style="stroke:#181818;stroke-width:0.3;"/><text fill="#000000" font-family="sans-serif" font-size="8.4" lengthAdjust="spacing" textLength="18.6" x="3" y="642.852">GSM</text><ellipse cx="14.1" cy="650.0602" fill="#E3E3E3" rx="4.8" ry="4.8" style="stroke:#181818;stroke-width:0.3;"/><path d="M14.1,654.8602 L14.1,671.0602 M6.3,659.6602 L21.9,659.6602 M14.1,671.0602 L6.3,680.0602 M14.1,671.0602 L21.9,680.0602 " fill="none" style="stroke:#181818;stroke-width:0.3;"/><rect fill="#E3E3E3" height="19.5727" rx="1.5" ry="1.5" style="stroke:#181818;stroke-width:0.3;" width="52.8" x="161.1" y="30"/><text fill="#000000" font-family="sans-serif" font-size="8.4" lengthAdjust="spacing" textLength="44.4" x="165.3" y="43.2645">:AddEntryUI</text><rect fill="#E3E3E3" height="19.5727" rx="1.5" ry="1.5" style="stroke:#181818;stroke-width:0.3;" width="52.8" x="161.1" y="633.7875"/><text fill="#000000" font-family="sans-serif" font-size="8.4" lengthAdjust="spacing" textLength="44.4" x="165.3" y="647.052">:AddEntryUI</text><rect fill="#E3E3E3" height="19.5727" rx="1.5" ry="1.5" style="stroke:#181818;stroke-width:0.3;" width="82.8" x="297.9" y="633.7875"/><text fill="#000000" font-family="sans-serif" font-size="8.4" lengthAdjust="spacing" textLength="74.4" x="302.1" y="647.052">:AddEntryController</text><rect fill="#E3E3E3" height="19.5727" rx="1.5" ry="1.5" style="stroke:#181818;stroke-width:0.3;" width="58.2" x="386.7" y="30"/><text fill="#000000" font-family="sans-serif" font-size="8.4" lengthAdjust="spacing" textLength="49.8" x="390.9" y="43.2645">:Repositories</text><rect fill="#E3E3E3" height="19.5727" rx="1.5" ry="1.5" style="stroke:#181818;stroke-width:0.3;" width="58.2" x="386.7" y="633.7875"/><text fill="#000000" font-family="sans-serif" font-size="8.4" lengthAdjust="spacing" textLength="49.8" x="390.9" y="647.052">:Repositories</text><rect fill="#E3E3E3" height="30.7453" rx="1.5" ry="1.5" style="stroke:#181818;stroke-width:0.3;" width="58.2" x="450.9" y="18.8273"/><text fill="#000000" font-family="sans-serif" font-size="8.4" lengthAdjust="spacing" textLength="44.4" x="457.8" y="32.0918">repositories</text><text fill="#000000" font-family="sans-serif" font-size="8.4" lengthAdjust="spacing" textLength="49.8" x="455.1" y="43.2645">:Repositories</text><rect fill="#E3E3E3" height="30.7453" rx="1.5" ry="1.5" style="stroke:#181818;stroke-width:0.3;" width="58.2" x="450.9" y="633.7875"/><text fill="#000000" font-family="sans-serif" font-size="8.4" lengthAdjust="spacing" textLength="44.4" x="457.8" y="647.052">repositories</text><text fill="#000000" font-family="sans-serif" font-size="8.4" lengthAdjust="spacing" textLength="49.8" x="455.1" y="658.2246">:Repositories</text><rect fill="#E3E3E3" height="30.7453" rx="1.5" ry="1.5" style="stroke:#181818;stroke-width:0.3;" width="70.2" x="515.1" y="18.8273"/><text fill="#000000" font-family="sans-serif" font-size="8.4" lengthAdjust="spacing" textLength="56.4" x="522" y="32.0918">gsmRepository</text><text fill="#000000" font-family="sans-serif" font-size="8.4" lengthAdjust="spacing" textLength="61.8" x="519.3" y="43.2645">:GSMRepository</text><rect fill="#E3E3E3" height="30.7453" rx="1.5" ry="1.5" style="stroke:#181818;stroke-width:0.3;" width="70.2" x="515.1" y="633.7875"/><text fill="#000000" font-family="sans-serif" font-size="8.4" lengthAdjust="spacing" textLength="56.4" x="522" y="647.052">gsmRepository</text><text fill="#000000" font-family="sans-serif" font-size="8.4" lengthAdjust="spacing" textLength="61.8" x="519.3" y="658.2246">:GSMRepository</text><rect fill="#E3E3E3" height="30.7453" rx="1.5" ry="1.5" style="stroke:#181818;stroke-width:0.3;" width="99.6" x="661.8" y="18.8273"/><text fill="#000000" font-family="sans-serif" font-size="8.4" lengthAdjust="spacing" textLength="87" x="668.1" y="32.0918">greenSpaceRepository</text><text fill="#000000" font-family="sans-serif" font-size="8.4" lengthAdjust="spacing" textLength="91.2" x="666" y="43.2645">:GreenSpaceRepository</text><rect fill="#E3E3E3" height="30.7453" rx="1.5" ry="1.5" style="stroke:#181818;stroke-width:0.3;" width="99.6" x="661.8" y="633.7875"/><text fill="#000000" font-family="sans-serif" font-size="8.4" lengthAdjust="spacing" textLength="87" x="668.1" y="647.052">greenSpaceRepository</text><text fill="#000000" font-family="sans-serif" font-size="8.4" lengthAdjust="spacing" textLength="91.2" x="666" y="658.2246">:GreenSpaceRepository</text><rect fill="#E3E3E3" height="30.7453" rx="1.5" ry="1.5" style="stroke:#181818;stroke-width:0.3;" width="71.4" x="767.4" y="18.8273"/><text fill="#000000" font-family="sans-serif" font-size="8.4" lengthAdjust="spacing" textLength="60" x="773.1" y="32.0918">entryRepository</text><text fill="#000000" font-family="sans-serif" font-size="8.4" lengthAdjust="spacing" textLength="63" x="771.6" y="43.2645">:EntryRepository</text><rect fill="#E3E3E3" height="30.7453" rx="1.5" ry="1.5" style="stroke:#181818;stroke-width:0.3;" width="71.4" x="767.4" y="633.7875"/><text fill="#000000" font-family="sans-serif" font-size="8.4" lengthAdjust="spacing" textLength="60" x="773.1" y="647.052">entryRepository</text><text fill="#000000" font-family="sans-serif" font-size="8.4" lengthAdjust="spacing" textLength="63" x="771.6" y="658.2246">:EntryRepository</text><rect fill="#E3E3E3" height="19.5727" rx="1.5" ry="1.5" style="stroke:#181818;stroke-width:0.3;" width="56.4" x="844.8" y="30"/><text fill="#000000" font-family="sans-serif" font-size="8.4" lengthAdjust="spacing" textLength="48" x="849" y="43.2645">GreenSpace</text><rect fill="#E3E3E3" height="19.5727" rx="1.5" ry="1.5" style="stroke:#181818;stroke-width:0.3;" width="56.4" x="844.8" y="633.7875"/><text fill="#000000" font-family="sans-serif" font-size="8.4" lengthAdjust="spacing" textLength="48" x="849" y="647.052">GreenSpace</text><rect fill="#E3E3E3" height="19.5727" rx="1.5" ry="1.5" style="stroke:#181818;stroke-width:0.3;" width="28.2" x="907.2" y="30"/><text fill="#000000" font-family="sans-serif" font-size="8.4" lengthAdjust="spacing" textLength="19.8" x="911.4" y="43.2645">Entry</text><rect fill="#E3E3E3" height="19.5727" rx="1.5" ry="1.5" style="stroke:#181818;stroke-width:0.3;" width="28.2" x="907.2" y="633.7875"/><text fill="#000000" font-family="sans-serif" font-size="8.4" lengthAdjust="spacing" textLength="19.8" x="911.4" y="647.052">Entry</text><rect fill="#FFFFFF" height="567.4148" style="stroke:#181818;stroke-width:0.6;" width="6" x="11.1" y="56.1727"/><rect fill="#FFFFFF" height="261.6445" style="stroke:#181818;stroke-width:0.6;" width="6" x="184.5" y="70.1473"/><rect fill="#FFFFFF" height="18.7746" style="stroke:#181818;stroke-width:0.6;" width="6" x="184.5" y="350.5664"/><rect fill="#FFFFFF" height="235.4719" style="stroke:#181818;stroke-width:0.6;" width="6" x="184.5" y="388.1156"/><rect fill="#FFFFFF" height="197.9227" style="stroke:#181818;stroke-width:0.6;" width="6" x="336.3" y="115.0945"/><rect fill="#FFFFFF" height="197.9227" style="stroke:#181818;stroke-width:0.6;" width="6" x="336.3" y="406.8902"/><rect fill="#FFFFFF" height="18.7746" style="stroke:#181818;stroke-width:0.6;" width="6" x="412.8" y="133.8691"/><rect fill="#FFFFFF" height="18.7746" style="stroke:#181818;stroke-width:0.6;" width="6" x="412.8" y="425.6648"/><rect fill="#FFFFFF" height="18.7746" style="stroke:#181818;stroke-width:0.6;" width="6" x="477" y="171.4184"/><rect fill="#FFFFFF" height="18.7746" style="stroke:#181818;stroke-width:0.6;" width="6" x="477" y="463.2141"/><rect fill="#FFFFFF" height="85.275" style="stroke:#181818;stroke-width:0.6;" width="6" x="547.2" y="208.9676"/><rect fill="#FFFFFF" height="47.7258" style="stroke:#181818;stroke-width:0.6;" width="6" x="708.6" y="227.7422"/><rect fill="#FFFFFF" height="85.275" style="stroke:#181818;stroke-width:0.6;" width="6" x="800.1" y="500.7633"/><rect fill="#FFFFFF" height="47.7258" style="stroke:#181818;stroke-width:0.6;" width="6" x="918.3" y="519.5379"/><polygon fill="#181818" points="177.3,67.7473,183.3,70.1473,177.3,72.5473,179.7,70.1473" style="stroke:#181818;stroke-width:0.6;"/><line style="stroke:#181818;stroke-width:0.6;" x1="17.1" x2="180.9" y1="70.1473" y2="70.1473"/><text fill="#000000" font-family="sans-serif" font-size="7.8" font-weight="bold" lengthAdjust="spacing" textLength="4.2" x="21.3" y="66.9896">1</text><text fill="#000000" font-family="sans-serif" font-size="7.8" lengthAdjust="spacing" textLength="96.6" x="27.9" y="66.9896">requests to add a new entry</text><polygon fill="#181818" points="290.7,86.5219,296.7,88.9219,290.7,91.3219,293.1,88.9219" style="stroke:#181818;stroke-width:0.6;"/><line style="stroke:#181818;stroke-width:0.6;" x1="190.5" x2="294.3" y1="88.9219" y2="88.9219"/><text fill="#000000" font-family="sans-serif" font-size="7.8" font-weight="bold" lengthAdjust="spacing" textLength="4.2" x="194.7" y="85.7643">2</text><text fill="#000000" font-family="sans-serif" font-size="7.8" lengthAdjust="spacing" textLength="21.6" x="201.3" y="85.7643">create</text><rect fill="#E3E3E3" height="19.5727" rx="1.5" ry="1.5" style="stroke:#181818;stroke-width:0.3;" width="82.8" x="297.9" y="74.9473"/><text fill="#000000" font-family="sans-serif" font-size="8.4" lengthAdjust="spacing" textLength="74.4" x="302.1" y="88.2117">:AddEntryController</text><polygon fill="#181818" points="329.1,112.6945,335.1,115.0945,329.1,117.4945,331.5,115.0945" style="stroke:#181818;stroke-width:0.6;"/><line style="stroke:#181818;stroke-width:0.6;" x1="190.5" x2="332.7" y1="115.0945" y2="115.0945"/><text fill="#000000" font-family="sans-serif" font-size="7.8" font-weight="bold" lengthAdjust="spacing" textLength="4.2" x="194.7" y="111.9369">3</text><text fill="#000000" font-family="sans-serif" font-size="7.8" lengthAdjust="spacing" textLength="122.4" x="201.3" y="111.9369">getGreenSpacesManagedByGSM()</text><polygon fill="#181818" points="405.6,131.4691,411.6,133.8691,405.6,136.2691,408,133.8691" style="stroke:#181818;stroke-width:0.6;"/><line style="stroke:#181818;stroke-width:0.6;" x1="342.3" x2="409.2" y1="133.8691" y2="133.8691"/><text fill="#000000" font-family="sans-serif" font-size="7.8" font-weight="bold" lengthAdjust="spacing" textLength="4.2" x="346.5" y="130.7115">4</text><text fill="#000000" font-family="sans-serif" font-size="7.8" lengthAdjust="spacing" textLength="45" x="353.1" y="130.7115">getInstance()</text><polygon fill="#181818" points="348.9,150.2438,342.9,152.6437,348.9,155.0438,346.5,152.6437" style="stroke:#181818;stroke-width:0.6;"/><line style="stroke:#181818;stroke-width:0.6;stroke-dasharray:2.0,2.0;" x1="345.3" x2="415.2" y1="152.6437" y2="152.6437"/><text fill="#000000" font-family="sans-serif" font-size="7.8" font-weight="bold" lengthAdjust="spacing" textLength="4.2" x="352.5" y="149.4861">5</text><text fill="#000000" font-family="sans-serif" font-size="7.8" lengthAdjust="spacing" textLength="40.2" x="359.1" y="149.4861">repositories</text><polygon fill="#181818" points="469.8,169.0184,475.8,171.4184,469.8,173.8184,472.2,171.4184" style="stroke:#181818;stroke-width:0.6;"/><line style="stroke:#181818;stroke-width:0.6;" x1="342.3" x2="473.4" y1="171.4184" y2="171.4184"/><text fill="#000000" font-family="sans-serif" font-size="7.8" font-weight="bold" lengthAdjust="spacing" textLength="4.2" x="346.5" y="168.2607">6</text><text fill="#000000" font-family="sans-serif" font-size="7.8" lengthAdjust="spacing" textLength="70.8" x="353.1" y="168.2607">getGSMRepository()</text><polygon fill="#181818" points="348.9,187.793,342.9,190.193,348.9,192.593,346.5,190.193" style="stroke:#181818;stroke-width:0.6;"/><line style="stroke:#181818;stroke-width:0.6;stroke-dasharray:2.0,2.0;" x1="345.3" x2="479.4" y1="190.193" y2="190.193"/><text fill="#000000" font-family="sans-serif" font-size="7.8" font-weight="bold" lengthAdjust="spacing" textLength="4.2" x="352.5" y="187.0354">7</text><text fill="#000000" font-family="sans-serif" font-size="7.8" lengthAdjust="spacing" textLength="36" x="359.1" y="187.0354">GSMRepo</text><polygon fill="#181818" points="540,206.5676,546,208.9676,540,211.3676,542.4,208.9676" style="stroke:#181818;stroke-width:0.6;"/><line style="stroke:#181818;stroke-width:0.6;" x1="342.3" x2="543.6" y1="208.9676" y2="208.9676"/><text fill="#000000" font-family="sans-serif" font-size="7.8" font-weight="bold" lengthAdjust="spacing" textLength="4.2" x="346.5" y="205.81">8</text><text fill="#000000" font-family="sans-serif" font-size="7.8" lengthAdjust="spacing" textLength="137.4" x="353.1" y="205.81">getGreenSpacesManagedByGSM(gsm)</text><polygon fill="#181818" points="701.4,225.3422,707.4,227.7422,701.4,230.1422,703.8,227.7422" style="stroke:#181818;stroke-width:0.6;"/><line style="stroke:#181818;stroke-width:0.6;" x1="553.2" x2="705" y1="227.7422" y2="227.7422"/><text fill="#000000" font-family="sans-serif" font-size="7.8" font-weight="bold" lengthAdjust="spacing" textLength="4.2" x="557.4" y="224.5846">9</text><text fill="#000000" font-family="sans-serif" font-size="7.8" lengthAdjust="spacing" textLength="137.4" x="564" y="224.5846">getGreenSpacesManagedByGSM(gsm)</text><rect fill="none" height="25.9512" style="stroke:#000000;stroke-width:0.8999999999999999;" width="124.2" x="660" y="232.5422"/><path d="M660,232.5422 L697.2,232.5422 L697.2,237.9422 L691.2,243.9422 L660,243.9422 L660,232.5422 " fill="#EEEEEE" style="stroke:#000000;stroke-width:1.2;"/><text fill="#000000" font-family="sans-serif" font-size="7.8" font-weight="bold" lengthAdjust="spacing" textLength="10.2" x="667.8" y="242.1592">ref</text><text fill="#000000" font-family="sans-serif" font-size="7.2" lengthAdjust="spacing" textLength="119.4" x="662.4" y="254.1117">Get Green Spaces Managed by GSM</text><polygon fill="#181818" points="559.8,273.068,553.8,275.468,559.8,277.868,557.4,275.468" style="stroke:#181818;stroke-width:0.6;"/><line style="stroke:#181818;stroke-width:0.6;stroke-dasharray:2.0,2.0;" x1="556.2" x2="711" y1="275.468" y2="275.468"/><text fill="#000000" font-family="sans-serif" font-size="7.8" font-weight="bold" lengthAdjust="spacing" textLength="8.4" x="563.4" y="272.3104">10</text><text fill="#000000" font-family="sans-serif" font-size="7.8" lengthAdjust="spacing" textLength="45.6" x="574.2" y="272.3104">greenSpaces</text><polygon fill="#181818" points="348.9,291.8426,342.9,294.2426,348.9,296.6426,346.5,294.2426" style="stroke:#181818;stroke-width:0.6;"/><line style="stroke:#181818;stroke-width:0.6;stroke-dasharray:2.0,2.0;" x1="345.3" x2="549.6" y1="294.2426" y2="294.2426"/><text fill="#000000" font-family="sans-serif" font-size="7.8" font-weight="bold" lengthAdjust="spacing" textLength="8.4" x="352.5" y="291.085">11</text><text fill="#000000" font-family="sans-serif" font-size="7.8" lengthAdjust="spacing" textLength="45.6" x="363.3" y="291.085">greenSpaces</text><polygon fill="#181818" points="197.1,310.6172,191.1,313.0172,197.1,315.4172,194.7,313.0172" style="stroke:#181818;stroke-width:0.6;"/><line style="stroke:#181818;stroke-width:0.6;stroke-dasharray:2.0,2.0;" x1="193.5" x2="338.7" y1="313.0172" y2="313.0172"/><text fill="#000000" font-family="sans-serif" font-size="7.8" font-weight="bold" lengthAdjust="spacing" textLength="8.4" x="200.7" y="309.8596">12</text><text fill="#000000" font-family="sans-serif" font-size="7.8" lengthAdjust="spacing" textLength="45.6" x="211.5" y="309.8596">greenSpaces</text><polygon fill="#181818" points="23.7,329.3918,17.7,331.7918,23.7,334.1918,21.3,331.7918" style="stroke:#181818;stroke-width:0.6;"/><line style="stroke:#181818;stroke-width:0.6;stroke-dasharray:2.0,2.0;" x1="20.1" x2="186.9" y1="331.7918" y2="331.7918"/><text fill="#000000" font-family="sans-serif" font-size="7.8" font-weight="bold" lengthAdjust="spacing" textLength="8.4" x="27.3" y="328.6342">13</text><text fill="#000000" font-family="sans-serif" font-size="7.8" lengthAdjust="spacing" textLength="100.8" x="38.1" y="328.6342">asks to select a green space</text><polygon fill="#181818" points="177.3,348.1664,183.3,350.5664,177.3,352.9664,179.7,350.5664" style="stroke:#181818;stroke-width:0.6;"/><line style="stroke:#181818;stroke-width:0.6;" x1="17.1" x2="180.9" y1="350.5664" y2="350.5664"/><text fill="#000000" font-family="sans-serif" font-size="7.8" font-weight="bold" lengthAdjust="spacing" textLength="8.4" x="21.3" y="347.4088">14</text><text fill="#000000" font-family="sans-serif" font-size="7.8" lengthAdjust="spacing" textLength="76.8" x="32.1" y="347.4088">selects a green space</text><polygon fill="#181818" points="23.7,366.941,17.7,369.341,23.7,371.741,21.3,369.341" style="stroke:#181818;stroke-width:0.6;"/><line style="stroke:#181818;stroke-width:0.6;" x1="20.1" x2="186.9" y1="369.341" y2="369.341"/><text fill="#000000" font-family="sans-serif" font-size="7.8" font-weight="bold" lengthAdjust="spacing" textLength="8.4" x="27.3" y="366.1834">15</text><text fill="#000000" font-family="sans-serif" font-size="7.8" lengthAdjust="spacing" textLength="142.2" x="38.1" y="366.1834">prompts to enter details for the new entry</text><polygon fill="#181818" points="177.3,385.7156,183.3,388.1156,177.3,390.5156,179.7,388.1156" style="stroke:#181818;stroke-width:0.6;"/><line style="stroke:#181818;stroke-width:0.6;" x1="17.1" x2="180.9" y1="388.1156" y2="388.1156"/><text fill="#000000" font-family="sans-serif" font-size="7.8" font-weight="bold" lengthAdjust="spacing" textLength="8.4" x="21.3" y="384.958">16</text><text fill="#000000" font-family="sans-serif" font-size="7.8" lengthAdjust="spacing" textLength="106.8" x="32.1" y="384.958">enters details for the new entry</text><polygon fill="#181818" points="329.1,404.4902,335.1,406.8902,329.1,409.2902,331.5,406.8902" style="stroke:#181818;stroke-width:0.6;"/><line style="stroke:#181818;stroke-width:0.6;" x1="190.5" x2="332.7" y1="406.8902" y2="406.8902"/><text fill="#000000" font-family="sans-serif" font-size="7.8" font-weight="bold" lengthAdjust="spacing" textLength="8.4" x="194.7" y="403.7326">17</text><text fill="#000000" font-family="sans-serif" font-size="7.8" lengthAdjust="spacing" textLength="123.6" x="205.5" y="403.7326">addEntry(greenSpace, entryDetails)</text><polygon fill="#181818" points="405.6,423.2648,411.6,425.6648,405.6,428.0648,408,425.6648" style="stroke:#181818;stroke-width:0.6;"/><line style="stroke:#181818;stroke-width:0.6;" x1="342.3" x2="409.2" y1="425.6648" y2="425.6648"/><text fill="#000000" font-family="sans-serif" font-size="7.8" font-weight="bold" lengthAdjust="spacing" textLength="8.4" x="346.5" y="422.5072">18</text><text fill="#000000" font-family="sans-serif" font-size="7.8" lengthAdjust="spacing" textLength="45" x="357.3" y="422.5072">getInstance()</text><polygon fill="#181818" points="348.9,442.0395,342.9,444.4395,348.9,446.8395,346.5,444.4395" style="stroke:#181818;stroke-width:0.6;"/><line style="stroke:#181818;stroke-width:0.6;stroke-dasharray:2.0,2.0;" x1="345.3" x2="415.2" y1="444.4395" y2="444.4395"/><text fill="#000000" font-family="sans-serif" font-size="7.8" font-weight="bold" lengthAdjust="spacing" textLength="8.4" x="352.5" y="441.2818">19</text><text fill="#000000" font-family="sans-serif" font-size="7.8" lengthAdjust="spacing" textLength="40.2" x="363.3" y="441.2818">repositories</text><polygon fill="#181818" points="469.8,460.8141,475.8,463.2141,469.8,465.6141,472.2,463.2141" style="stroke:#181818;stroke-width:0.6;"/><line style="stroke:#181818;stroke-width:0.6;" x1="342.3" x2="473.4" y1="463.2141" y2="463.2141"/><text fill="#000000" font-family="sans-serif" font-size="7.8" font-weight="bold" lengthAdjust="spacing" textLength="8.4" x="346.5" y="460.0564">20</text><text fill="#000000" font-family="sans-serif" font-size="7.8" lengthAdjust="spacing" textLength="71.4" x="357.3" y="460.0564">getEntryRepository()</text><polygon fill="#181818" points="348.9,479.5887,342.9,481.9887,348.9,484.3887,346.5,481.9887" style="stroke:#181818;stroke-width:0.6;"/><line style="stroke:#181818;stroke-width:0.6;stroke-dasharray:2.0,2.0;" x1="345.3" x2="479.4" y1="481.9887" y2="481.9887"/><text fill="#000000" font-family="sans-serif" font-size="7.8" font-weight="bold" lengthAdjust="spacing" textLength="8.4" x="352.5" y="478.8311">21</text><text fill="#000000" font-family="sans-serif" font-size="7.8" lengthAdjust="spacing" textLength="36.6" x="363.3" y="478.8311">EntryRepo</text><polygon fill="#181818" points="792.9,498.3633,798.9,500.7633,792.9,503.1633,795.3,500.7633" style="stroke:#181818;stroke-width:0.6;"/><line style="stroke:#181818;stroke-width:0.6;" x1="342.3" x2="796.5" y1="500.7633" y2="500.7633"/><text fill="#000000" font-family="sans-serif" font-size="7.8" font-weight="bold" lengthAdjust="spacing" textLength="8.4" x="346.5" y="497.6057">22</text><text fill="#000000" font-family="sans-serif" font-size="7.8" lengthAdjust="spacing" textLength="132.6" x="357.3" y="497.6057">createEntry(greenSpace, entryDetails)</text><polygon fill="#181818" points="911.1,517.1379,917.1,519.5379,911.1,521.9379,913.5,519.5379" style="stroke:#181818;stroke-width:0.6;"/><line style="stroke:#181818;stroke-width:0.6;" x1="806.1" x2="914.7" y1="519.5379" y2="519.5379"/><text fill="#000000" font-family="sans-serif" font-size="7.8" font-weight="bold" lengthAdjust="spacing" textLength="8.4" x="810.3" y="516.3803">23</text><text fill="#000000" font-family="sans-serif" font-size="7.8" lengthAdjust="spacing" textLength="67.8" x="821.1" y="516.3803">create(entryDetails)</text><rect fill="none" height="25.9512" style="stroke:#000000;stroke-width:0.8999999999999999;" width="60" x="905.4" y="524.3379"/><path d="M905.4,524.3379 L942.6,524.3379 L942.6,529.7379 L936.6,535.7379 L905.4,535.7379 L905.4,524.3379 " fill="#EEEEEE" style="stroke:#000000;stroke-width:1.2;"/><text fill="#000000" font-family="sans-serif" font-size="7.8" font-weight="bold" lengthAdjust="spacing" textLength="10.2" x="913.2" y="533.9549">ref</text><text fill="#000000" font-family="sans-serif" font-size="7.2" lengthAdjust="spacing" textLength="55.2" x="907.8" y="545.9074">Create new entry</text><polygon fill="#181818" points="812.7,564.8637,806.7,567.2637,812.7,569.6637,810.3,567.2637" style="stroke:#181818;stroke-width:0.6;"/><line style="stroke:#181818;stroke-width:0.6;stroke-dasharray:2.0,2.0;" x1="809.1" x2="920.7" y1="567.2637" y2="567.2637"/><text fill="#000000" font-family="sans-serif" font-size="7.8" font-weight="bold" lengthAdjust="spacing" textLength="8.4" x="816.3" y="564.1061">24</text><text fill="#000000" font-family="sans-serif" font-size="7.8" lengthAdjust="spacing" textLength="17.4" x="827.1" y="564.1061">entry</text><polygon fill="#181818" points="348.9,583.6383,342.9,586.0383,348.9,588.4383,346.5,586.0383" style="stroke:#181818;stroke-width:0.6;"/><line style="stroke:#181818;stroke-width:0.6;stroke-dasharray:2.0,2.0;" x1="345.3" x2="802.5" y1="586.0383" y2="586.0383"/><text fill="#000000" font-family="sans-serif" font-size="7.8" font-weight="bold" lengthAdjust="spacing" textLength="8.4" x="352.5" y="582.8807">25</text><text fill="#000000" font-family="sans-serif" font-size="7.8" lengthAdjust="spacing" textLength="61.2" x="363.3" y="582.8807">successMessage</text><polygon fill="#181818" points="197.1,602.4129,191.1,604.8129,197.1,607.2129,194.7,604.8129" style="stroke:#181818;stroke-width:0.6;"/><line style="stroke:#181818;stroke-width:0.6;stroke-dasharray:2.0,2.0;" x1="193.5" x2="338.7" y1="604.8129" y2="604.8129"/><text fill="#000000" font-family="sans-serif" font-size="7.8" font-weight="bold" lengthAdjust="spacing" textLength="8.4" x="200.7" y="601.6553">26</text><text fill="#000000" font-family="sans-serif" font-size="7.8" lengthAdjust="spacing" textLength="61.2" x="211.5" y="601.6553">successMessage</text><polygon fill="#181818" points="20.7,621.1875,14.7,623.5875,20.7,625.9875,18.3,623.5875" style="stroke:#181818;stroke-width:0.6;"/><line style="stroke:#181818;stroke-width:0.6;stroke-dasharray:2.0,2.0;" x1="17.1" x2="186.9" y1="623.5875" y2="623.5875"/><text fill="#000000" font-family="sans-serif" font-size="7.8" font-weight="bold" lengthAdjust="spacing" textLength="8.4" x="24.3" y="620.4299">27</text><text fill="#000000" font-family="sans-serif" font-size="7.8" lengthAdjust="spacing" textLength="94.8" x="35.1" y="620.4299">displays success message</text><!--SRC=[tLN9Rjim4BthAmO-kK7z0pa4Q5qZC503GTpSUc6aiIrOeXGEdK1_tn5fSGlj9DSQy4REU_Dc5HrhsGibMcWxsPK7rRK8Mfsm87VJY_8ezhZLGuEWiDH2xflGW0wYwjvgkOUTQ0YBGfnq9q_jCoh-NUfEmUn-kvc18E3lWb6wBkjUI0spsnzLjP9Q3KzhO_2qld2_xFYpQnfKncxvv_5tOlc8VKSrkwkHZ8qx6BRrg9bLnH0L8FxA3C7g8GRigVMaZE1m_FyfmF4aWIb4kUL4OepE75kIw2BcmZ4P4SqgFZ4CxYm6U-B4Jsncq9x7LB5-5HfD_Gh-WCKTbmfkkI5UJaYQG7SWgWe4I7m38zAZkAW5MpDcBDlD3UDAXNmJdFBP7hLNH1iXkUsgdmExctyhW5-Eq5JV71aeKsHgRHdNahXZIpnJH3Iv1d5MESQ55nlsZiDK-36tKxnwECSSDb5M9hUXbyMmGCRKRpa54spoUBQzdcbkyOo4oOsxcRX6sgXRly0UUuXxFZ9Ik8Fk5LLg1Cdh7hKr0UiQphxXUJ2T6zgYh68dIHYBE64-dbogBubtMGgQF64AMS8asw9DOnQY0eITWt68h5gs57GqmqZOyAxcUJHG83Fb0NISoN2GhJqbWCm8MpSzFofwE_Oyx5oQ2hMe6u8Thtjzm60DN75ge7G5Us65Z76Udmjpdvhl5lJBiltFAoDP-LzT6lxfy9cruQpTslvCuYCntg6xywoJ2qS_pxEzPxom9UnTkXoMXZlehQlRm2fQ9E77m21fYPmWE9zrEfKylhJXDo-b8iTmQVmJwFKDKDNKDsAW2GNjUzWuJl7c-GS0]--></g></svg>