<?xml version="1.0" encoding="us-ascii" standalone="no"?><svg xmlns="http://www.w3.org/2000/svg" xmlns:xlink="http://www.w3.org/1999/xlink" contentStyleType="text/css" height="1124px" preserveAspectRatio="none" style="width:1862px;height:1124px;background:#FFFFFF;" version="1.1" viewBox="0 0 1862 1124" width="1862px" zoomAndPan="magnify"><defs/><g><!--cluster UI--><g id="cluster_UI"><path d="M1536.5,6.0137 L1551.5,6.0137 A3.75,3.75 0 0 1 1554,8.5137 L1561,30.6348 L1731.5,30.6348 A2.5,2.5 0 0 1 1734,33.1348 L1734,178.5137 A2.5,2.5 0 0 1 1731.5,181.0137 L1536.5,181.0137 A2.5,2.5 0 0 1 1534,178.5137 L1534,8.5137 A2.5,2.5 0 0 1 1536.5,6.0137 " fill="#DDDDDD" style="stroke:#000000;stroke-width:1.5;"/><line style="stroke:#000000;stroke-width:1.5;" x1="1534" x2="1561" y1="30.6348" y2="30.6348"/><text fill="#000000" font-family="sans-serif" font-size="14" font-weight="bold" lengthAdjust="spacing" textLength="14" x="1538" y="23.1211">UI</text></g><!--cluster Controller--><g id="cluster_Controller"><path d="M1415.5,232.0137 L1487.5,232.0137 A3.75,3.75 0 0 1 1490,234.5137 L1497,256.6348 L1852.5,256.6348 A2.5,2.5 0 0 1 1855,259.1348 L1855,423.5137 A2.5,2.5 0 0 1 1852.5,426.0137 L1415.5,426.0137 A2.5,2.5 0 0 1 1413,423.5137 L1413,234.5137 A2.5,2.5 0 0 1 1415.5,232.0137 " fill="#DDDDDD" style="stroke:#000000;stroke-width:1.5;"/><line style="stroke:#000000;stroke-width:1.5;" x1="1413" x2="1497" y1="256.6348" y2="256.6348"/><text fill="#000000" font-family="sans-serif" font-size="14" font-weight="bold" lengthAdjust="spacing" textLength="71" x="1417" y="249.1211">Controller</text></g><!--cluster Domain--><g id="cluster_Domain"><path d="M8.5,477.0137 L61.5,477.0137 A3.75,3.75 0 0 1 64,479.5137 L71,501.6348 L1678.5,501.6348 A2.5,2.5 0 0 1 1681,504.1348 L1681,1114.5137 A2.5,2.5 0 0 1 1678.5,1117.0137 L8.5,1117.0137 A2.5,2.5 0 0 1 6,1114.5137 L6,479.5137 A2.5,2.5 0 0 1 8.5,477.0137 " fill="#DDDDDD" style="stroke:#000000;stroke-width:1.5;"/><line style="stroke:#000000;stroke-width:1.5;" x1="6" x2="71" y1="501.6348" y2="501.6348"/><text fill="#000000" font-family="sans-serif" font-size="14" font-weight="bold" lengthAdjust="spacing" textLength="52" x="10" y="494.1211">Domain</text></g><!--cluster Repository--><g id="cluster_Repository"><path d="M1335.5,539.0137 L1412.5,539.0137 A3.75,3.75 0 0 1 1415,541.5137 L1422,563.6348 L1654.5,563.6348 A2.5,2.5 0 0 1 1657,566.1348 L1657,876.5137 A2.5,2.5 0 0 1 1654.5,879.0137 L1335.5,879.0137 A2.5,2.5 0 0 1 1333,876.5137 L1333,541.5137 A2.5,2.5 0 0 1 1335.5,539.0137 " fill="#DDDDDD" style="stroke:#000000;stroke-width:1.5;"/><line style="stroke:#000000;stroke-width:1.5;" x1="1333" x2="1422" y1="563.6348" y2="563.6348"/><text fill="#000000" font-family="sans-serif" font-size="14" font-weight="bold" lengthAdjust="spacing" textLength="76" x="1337" y="556.1211">Repository</text></g><!--cluster Mapper--><g id="cluster_Mapper"><path d="M769.5,522.0137 L824.5,522.0137 A3.75,3.75 0 0 1 827,524.5137 L834,546.6348 L1306.5,546.6348 A2.5,2.5 0 0 1 1309,549.1348 L1309,885.5137 A2.5,2.5 0 0 1 1306.5,888.0137 L769.5,888.0137 A2.5,2.5 0 0 1 767,885.5137 L767,524.5137 A2.5,2.5 0 0 1 769.5,522.0137 " fill="#DDDDDD" style="stroke:#000000;stroke-width:1.5;"/><line style="stroke:#000000;stroke-width:1.5;" x1="767" x2="834" y1="546.6348" y2="546.6348"/><text fill="#000000" font-family="sans-serif" font-size="14" font-weight="bold" lengthAdjust="spacing" textLength="54" x="771" y="539.1211">Mapper</text></g><!--cluster DTO--><g id="cluster_DTO"><path d="M952.5,567.0137 L982.5,567.0137 A3.75,3.75 0 0 1 985,569.5137 L992,591.6348 L1123.5,591.6348 A2.5,2.5 0 0 1 1126,594.1348 L1126,665.5137 A2.5,2.5 0 0 1 1123.5,668.0137 L952.5,668.0137 A2.5,2.5 0 0 1 950,665.5137 L950,569.5137 A2.5,2.5 0 0 1 952.5,567.0137 " fill="#DDDDDD" style="stroke:#000000;stroke-width:1.5;"/><line style="stroke:#000000;stroke-width:1.5;" x1="950" x2="992" y1="591.6348" y2="591.6348"/><text fill="#000000" font-family="sans-serif" font-size="14" font-weight="bold" lengthAdjust="spacing" textLength="29" x="954" y="584.1211">DTO</text></g><!--class AddToDoListEntryUI--><g id="elem_AddToDoListEntryUI"><rect codeLine="12" fill="#F1F1F1" height="122.4844" id="AddToDoListEntryUI" rx="2.5" ry="2.5" style="stroke:#181818;stroke-width:0.5;" width="167" x="1550.5" y="43.0137"/><ellipse cx="1569.1" cy="59.0137" fill="#ADD1B2" rx="11" ry="11" style="stroke:#181818;stroke-width:1.0;"/><path d="M1571.8656,54.8887 Q1572.0219,54.6699 1572.2094,54.5605 Q1572.3969,54.4512 1572.6156,54.4512 Q1572.9906,54.4512 1573.225,54.7168 Q1573.4594,54.9668 1573.4594,55.5762 L1573.4594,57.0293 Q1573.4594,57.6387 1573.225,57.9043 Q1572.9906,58.1699 1572.6156,58.1699 Q1572.2719,58.1699 1572.0688,57.9668 Q1571.8656,57.7793 1571.7563,57.2637 Q1571.7094,56.9043 1571.5219,56.7168 Q1571.1938,56.3418 1570.5844,56.123 Q1569.975,55.9043 1569.35,55.9043 Q1568.5844,55.9043 1567.9438,56.2324 Q1567.3188,56.5605 1566.8188,57.3105 Q1566.3344,58.0605 1566.3344,59.0918 L1566.3344,60.1855 Q1566.3344,61.4199 1567.225,62.248 Q1568.1156,63.0605 1569.7094,63.0605 Q1570.6469,63.0605 1571.3031,62.8105 Q1571.6938,62.6543 1572.1156,62.2168 Q1572.3813,61.9512 1572.5219,61.873 Q1572.6781,61.7949 1572.8813,61.7949 Q1573.2094,61.7949 1573.4594,62.0605 Q1573.725,62.3105 1573.725,62.6543 Q1573.725,62.998 1573.3813,63.4043 Q1572.8813,63.9824 1572.0844,64.3105 Q1571.0063,64.7637 1569.7094,64.7637 Q1568.1938,64.7637 1566.9906,64.1387 Q1566.0063,63.6387 1565.3188,62.5762 Q1564.6313,61.498 1564.6313,60.2168 L1564.6313,59.0605 Q1564.6313,57.7324 1565.2406,56.5918 Q1565.8656,55.4355 1566.9594,54.8262 Q1568.0531,54.2012 1569.2875,54.2012 Q1570.0219,54.2012 1570.6625,54.373 Q1571.3188,54.5293 1571.8656,54.8887 Z " fill="#000000"/><text fill="#000000" font-family="sans-serif" font-size="14" lengthAdjust="spacing" textLength="127" x="1583.9" y="64.8105">AddToDoListEntryUI</text><line style="stroke:#181818;stroke-width:0.5;" x1="1551.5" x2="1716.5" y1="75.0137" y2="75.0137"/><line style="stroke:#181818;stroke-width:0.5;" x1="1551.5" x2="1716.5" y1="83.0137" y2="83.0137"/><text fill="#000000" font-family="sans-serif" font-size="14" lengthAdjust="spacing" textLength="100" x="1556.5" y="102.1211">+displayTasks()</text><text fill="#000000" font-family="sans-serif" font-size="14" lengthAdjust="spacing" textLength="155" x="1556.5" y="120.7422">+selectTask(task : Task)</text><text fill="#000000" font-family="sans-serif" font-size="14" lengthAdjust="spacing" textLength="94" x="1556.5" y="139.3633">+confirmData()</text><text fill="#000000" font-family="sans-serif" font-size="14" lengthAdjust="spacing" textLength="115" x="1556.5" y="157.9844">+displaySuccess()</text></g><!--class AddToDoListController--><g id="elem_AddToDoListController"><rect codeLine="21" fill="#F1F1F1" height="141.1055" id="AddToDoListController" rx="2.5" ry="2.5" style="stroke:#181818;stroke-width:0.5;" width="409" x="1429.5" y="269.0137"/><ellipse cx="1557.75" cy="285.0137" fill="#ADD1B2" rx="11" ry="11" style="stroke:#181818;stroke-width:1.0;"/><path d="M1560.5156,280.8887 Q1560.6719,280.6699 1560.8594,280.5605 Q1561.0469,280.4512 1561.2656,280.4512 Q1561.6406,280.4512 1561.875,280.7168 Q1562.1094,280.9668 1562.1094,281.5762 L1562.1094,283.0293 Q1562.1094,283.6387 1561.875,283.9043 Q1561.6406,284.1699 1561.2656,284.1699 Q1560.9219,284.1699 1560.7188,283.9668 Q1560.5156,283.7793 1560.4063,283.2637 Q1560.3594,282.9043 1560.1719,282.7168 Q1559.8438,282.3418 1559.2344,282.123 Q1558.625,281.9043 1558,281.9043 Q1557.2344,281.9043 1556.5938,282.2324 Q1555.9688,282.5605 1555.4688,283.3105 Q1554.9844,284.0605 1554.9844,285.0918 L1554.9844,286.1855 Q1554.9844,287.4199 1555.875,288.248 Q1556.7656,289.0605 1558.3594,289.0605 Q1559.2969,289.0605 1559.9531,288.8105 Q1560.3438,288.6543 1560.7656,288.2168 Q1561.0313,287.9512 1561.1719,287.873 Q1561.3281,287.7949 1561.5313,287.7949 Q1561.8594,287.7949 1562.1094,288.0605 Q1562.375,288.3105 1562.375,288.6543 Q1562.375,288.998 1562.0313,289.4043 Q1561.5313,289.9824 1560.7344,290.3105 Q1559.6563,290.7637 1558.3594,290.7637 Q1556.8438,290.7637 1555.6406,290.1387 Q1554.6563,289.6387 1553.9688,288.5762 Q1553.2813,287.498 1553.2813,286.2168 L1553.2813,285.0605 Q1553.2813,283.7324 1553.8906,282.5918 Q1554.5156,281.4355 1555.6094,280.8262 Q1556.7031,280.2012 1557.9375,280.2012 Q1558.6719,280.2012 1559.3125,280.373 Q1559.9688,280.5293 1560.5156,280.8887 Z " fill="#000000"/><text fill="#000000" font-family="sans-serif" font-size="14" lengthAdjust="spacing" textLength="144" x="1578.25" y="290.8105">AddToDoListController</text><line style="stroke:#181818;stroke-width:0.5;" x1="1430.5" x2="1837.5" y1="301.0137" y2="301.0137"/><line style="stroke:#181818;stroke-width:0.5;" x1="1430.5" x2="1837.5" y1="309.0137" y2="309.0137"/><text fill="#000000" font-family="sans-serif" font-size="14" lengthAdjust="spacing" textLength="58" x="1435.5" y="328.1211">+create()</text><text fill="#000000" font-family="sans-serif" font-size="14" lengthAdjust="spacing" textLength="301" x="1435.5" y="346.7422">+getToDoListEntries() : List&lt;ToDoListEntryDto&gt;</text><text fill="#000000" font-family="sans-serif" font-size="14" lengthAdjust="spacing" textLength="299" x="1435.5" y="365.3633">+getTask(toDoListEntry : ToDoListEntry) : Task</text><text fill="#000000" font-family="sans-serif" font-size="14" lengthAdjust="spacing" textLength="397" x="1435.5" y="383.9844">+getGreenSpace(toDoListEntry : ToDoListEntry) : GreenSpace</text><text fill="#000000" font-family="sans-serif" font-size="14" lengthAdjust="spacing" textLength="319" x="1435.5" y="402.6055">+addToDoListEntry(toDoListEntry : ToDoListEntry)</text></g><!--class Entry--><g id="elem_Entry"><rect codeLine="46" fill="#F1F1F1" height="85.2422" id="Entry" rx="2.5" ry="2.5" style="stroke:#181818;stroke-width:0.5;" width="186" x="562" y="787.0137"/><ellipse cx="634.25" cy="803.0137" fill="#ADD1B2" rx="11" ry="11" style="stroke:#181818;stroke-width:1.0;"/><path d="M637.0156,798.8887 Q637.1719,798.6699 637.3594,798.5605 Q637.5469,798.4512 637.7656,798.4512 Q638.1406,798.4512 638.375,798.7168 Q638.6094,798.9668 638.6094,799.5762 L638.6094,801.0293 Q638.6094,801.6387 638.375,801.9043 Q638.1406,802.1699 637.7656,802.1699 Q637.4219,802.1699 637.2188,801.9668 Q637.0156,801.7793 636.9063,801.2637 Q636.8594,800.9043 636.6719,800.7168 Q636.3438,800.3418 635.7344,800.123 Q635.125,799.9043 634.5,799.9043 Q633.7344,799.9043 633.0938,800.2324 Q632.4688,800.5605 631.9688,801.3105 Q631.4844,802.0605 631.4844,803.0918 L631.4844,804.1855 Q631.4844,805.4199 632.375,806.248 Q633.2656,807.0605 634.8594,807.0605 Q635.7969,807.0605 636.4531,806.8105 Q636.8438,806.6543 637.2656,806.2168 Q637.5313,805.9512 637.6719,805.873 Q637.8281,805.7949 638.0313,805.7949 Q638.3594,805.7949 638.6094,806.0605 Q638.875,806.3105 638.875,806.6543 Q638.875,806.998 638.5313,807.4043 Q638.0313,807.9824 637.2344,808.3105 Q636.1563,808.7637 634.8594,808.7637 Q633.3438,808.7637 632.1406,808.1387 Q631.1563,807.6387 630.4688,806.5762 Q629.7813,805.498 629.7813,804.2168 L629.7813,803.0605 Q629.7813,801.7324 630.3906,800.5918 Q631.0156,799.4355 632.1094,798.8262 Q633.2031,798.2012 634.4375,798.2012 Q635.1719,798.2012 635.8125,798.373 Q636.4688,798.5293 637.0156,798.8887 Z " fill="#000000"/><text fill="#000000" font-family="sans-serif" font-size="14" lengthAdjust="spacing" textLength="33" x="654.75" y="808.8105">Entry</text><line style="stroke:#181818;stroke-width:0.5;" x1="563" x2="747" y1="819.0137" y2="819.0137"/><text fill="#000000" font-family="sans-serif" font-size="14" lengthAdjust="spacing" textLength="74" x="568" y="838.1211">-task : Task</text><text fill="#000000" font-family="sans-serif" font-size="14" lengthAdjust="spacing" textLength="174" x="568" y="856.7422">-greenSpace : GreenSpace</text><line style="stroke:#181818;stroke-width:0.5;" x1="563" x2="747" y1="864.2559" y2="864.2559"/></g><!--class GreenSpace--><g id="elem_GreenSpace"><rect codeLine="51" fill="#F1F1F1" height="103.8633" id="GreenSpace" rx="2.5" ry="2.5" style="stroke:#181818;stroke-width:0.5;" width="182" x="345" y="777.5137"/><ellipse cx="391.75" cy="793.5137" fill="#ADD1B2" rx="11" ry="11" style="stroke:#181818;stroke-width:1.0;"/><path d="M394.5156,789.3887 Q394.6719,789.1699 394.8594,789.0605 Q395.0469,788.9512 395.2656,788.9512 Q395.6406,788.9512 395.875,789.2168 Q396.1094,789.4668 396.1094,790.0762 L396.1094,791.5293 Q396.1094,792.1387 395.875,792.4043 Q395.6406,792.6699 395.2656,792.6699 Q394.9219,792.6699 394.7188,792.4668 Q394.5156,792.2793 394.4063,791.7637 Q394.3594,791.4043 394.1719,791.2168 Q393.8438,790.8418 393.2344,790.623 Q392.625,790.4043 392,790.4043 Q391.2344,790.4043 390.5938,790.7324 Q389.9688,791.0605 389.4688,791.8105 Q388.9844,792.5605 388.9844,793.5918 L388.9844,794.6855 Q388.9844,795.9199 389.875,796.748 Q390.7656,797.5605 392.3594,797.5605 Q393.2969,797.5605 393.9531,797.3105 Q394.3438,797.1543 394.7656,796.7168 Q395.0313,796.4512 395.1719,796.373 Q395.3281,796.2949 395.5313,796.2949 Q395.8594,796.2949 396.1094,796.5605 Q396.375,796.8105 396.375,797.1543 Q396.375,797.498 396.0313,797.9043 Q395.5313,798.4824 394.7344,798.8105 Q393.6563,799.2637 392.3594,799.2637 Q390.8438,799.2637 389.6406,798.6387 Q388.6563,798.1387 387.9688,797.0762 Q387.2813,795.998 387.2813,794.7168 L387.2813,793.5605 Q387.2813,792.2324 387.8906,791.0918 Q388.5156,789.9355 389.6094,789.3262 Q390.7031,788.7012 391.9375,788.7012 Q392.6719,788.7012 393.3125,788.873 Q393.9688,789.0293 394.5156,789.3887 Z " fill="#000000"/><text fill="#000000" font-family="sans-serif" font-size="14" lengthAdjust="spacing" textLength="80" x="412.25" y="799.3105">GreenSpace</text><line style="stroke:#181818;stroke-width:0.5;" x1="346" x2="526" y1="809.5137" y2="809.5137"/><text fill="#000000" font-family="sans-serif" font-size="14" lengthAdjust="spacing" textLength="89" x="351" y="828.6211">-name : String</text><text fill="#000000" font-family="sans-serif" font-size="14" lengthAdjust="spacing" textLength="89" x="351" y="847.2422">-area : double</text><line style="stroke:#181818;stroke-width:0.5;" x1="346" x2="526" y1="854.7559" y2="854.7559"/><text fill="#000000" font-family="sans-serif" font-size="14" lengthAdjust="spacing" textLength="170" x="351" y="873.8633">+GreenSpace(name, area)</text></g><!--class Task--><g id="elem_Task"><rect codeLine="57" fill="#F1F1F1" height="141.1055" id="Task" rx="2.5" ry="2.5" style="stroke:#181818;stroke-width:0.5;" width="288" x="22" y="759.0137"/><ellipse cx="146.25" cy="775.0137" fill="#ADD1B2" rx="11" ry="11" style="stroke:#181818;stroke-width:1.0;"/><path d="M149.0156,770.8887 Q149.1719,770.6699 149.3594,770.5605 Q149.5469,770.4512 149.7656,770.4512 Q150.1406,770.4512 150.375,770.7168 Q150.6094,770.9668 150.6094,771.5762 L150.6094,773.0293 Q150.6094,773.6387 150.375,773.9043 Q150.1406,774.1699 149.7656,774.1699 Q149.4219,774.1699 149.2188,773.9668 Q149.0156,773.7793 148.9063,773.2637 Q148.8594,772.9043 148.6719,772.7168 Q148.3438,772.3418 147.7344,772.123 Q147.125,771.9043 146.5,771.9043 Q145.7344,771.9043 145.0938,772.2324 Q144.4688,772.5605 143.9688,773.3105 Q143.4844,774.0605 143.4844,775.0918 L143.4844,776.1855 Q143.4844,777.4199 144.375,778.248 Q145.2656,779.0605 146.8594,779.0605 Q147.7969,779.0605 148.4531,778.8105 Q148.8438,778.6543 149.2656,778.2168 Q149.5313,777.9512 149.6719,777.873 Q149.8281,777.7949 150.0313,777.7949 Q150.3594,777.7949 150.6094,778.0605 Q150.875,778.3105 150.875,778.6543 Q150.875,778.998 150.5313,779.4043 Q150.0313,779.9824 149.2344,780.3105 Q148.1563,780.7637 146.8594,780.7637 Q145.3438,780.7637 144.1406,780.1387 Q143.1563,779.6387 142.4688,778.5762 Q141.7813,777.498 141.7813,776.2168 L141.7813,775.0605 Q141.7813,773.7324 142.3906,772.5918 Q143.0156,771.4355 144.1094,770.8262 Q145.2031,770.2012 146.4375,770.2012 Q147.1719,770.2012 147.8125,770.373 Q148.4688,770.5293 149.0156,770.8887 Z " fill="#000000"/><text fill="#000000" font-family="sans-serif" font-size="14" lengthAdjust="spacing" textLength="31" x="166.75" y="780.8105">Task</text><line style="stroke:#181818;stroke-width:0.5;" x1="23" x2="309" y1="791.0137" y2="791.0137"/><text fill="#000000" font-family="sans-serif" font-size="14" lengthAdjust="spacing" textLength="123" x="28" y="810.1211">-description : String</text><text fill="#000000" font-family="sans-serif" font-size="14" lengthAdjust="spacing" textLength="84" x="28" y="828.7422">-team : Team</text><text fill="#000000" font-family="sans-serif" font-size="14" lengthAdjust="spacing" textLength="152" x="28" y="847.3633">-vehicles : List&lt;Vehicle&gt;</text><text fill="#000000" font-family="sans-serif" font-size="14" lengthAdjust="spacing" textLength="99" x="28" y="865.9844">-duration : Date</text><line style="stroke:#181818;stroke-width:0.5;" x1="23" x2="309" y1="873.498" y2="873.498"/><text fill="#000000" font-family="sans-serif" font-size="14" lengthAdjust="spacing" textLength="276" x="28" y="892.6055">+Task(description, team, vehicles, duration)</text></g><!--class ToDoListEntry--><g id="elem_ToDoListEntry"><rect codeLine="65" fill="#F1F1F1" height="122.4844" id="ToDoListEntry" rx="2.5" ry="2.5" style="stroke:#181818;stroke-width:0.5;" width="231" x="390.5" y="979.0137"/><ellipse cx="456.75" cy="995.0137" fill="#ADD1B2" rx="11" ry="11" style="stroke:#181818;stroke-width:1.0;"/><path d="M459.5156,990.8887 Q459.6719,990.6699 459.8594,990.5605 Q460.0469,990.4512 460.2656,990.4512 Q460.6406,990.4512 460.875,990.7168 Q461.1094,990.9668 461.1094,991.5762 L461.1094,993.0293 Q461.1094,993.6387 460.875,993.9043 Q460.6406,994.1699 460.2656,994.1699 Q459.9219,994.1699 459.7188,993.9668 Q459.5156,993.7793 459.4063,993.2637 Q459.3594,992.9043 459.1719,992.7168 Q458.8438,992.3418 458.2344,992.123 Q457.625,991.9043 457,991.9043 Q456.2344,991.9043 455.5938,992.2324 Q454.9688,992.5605 454.4688,993.3105 Q453.9844,994.0605 453.9844,995.0918 L453.9844,996.1855 Q453.9844,997.4199 454.875,998.248 Q455.7656,999.0605 457.3594,999.0605 Q458.2969,999.0605 458.9531,998.8105 Q459.3438,998.6543 459.7656,998.2168 Q460.0313,997.9512 460.1719,997.873 Q460.3281,997.7949 460.5313,997.7949 Q460.8594,997.7949 461.1094,998.0605 Q461.375,998.3105 461.375,998.6543 Q461.375,998.998 461.0313,999.4043 Q460.5313,999.9824 459.7344,1000.3105 Q458.6563,1000.7637 457.3594,1000.7637 Q455.8438,1000.7637 454.6406,1000.1387 Q453.6563,999.6387 452.9688,998.5762 Q452.2813,997.498 452.2813,996.2168 L452.2813,995.0605 Q452.2813,993.7324 452.8906,992.5918 Q453.5156,991.4355 454.6094,990.8262 Q455.7031,990.2012 456.9375,990.2012 Q457.6719,990.2012 458.3125,990.373 Q458.9688,990.5293 459.5156,990.8887 Z " fill="#000000"/><text fill="#000000" font-family="sans-serif" font-size="14" lengthAdjust="spacing" textLength="90" x="477.25" y="1000.8105">ToDoListEntry</text><line style="stroke:#181818;stroke-width:0.5;" x1="391.5" x2="620.5" y1="1011.0137" y2="1011.0137"/><text fill="#000000" font-family="sans-serif" font-size="14" lengthAdjust="spacing" textLength="74" x="396.5" y="1030.1211">-task : Task</text><text fill="#000000" font-family="sans-serif" font-size="14" lengthAdjust="spacing" textLength="174" x="396.5" y="1048.7422">-greenSpace : GreenSpace</text><text fill="#000000" font-family="sans-serif" font-size="14" lengthAdjust="spacing" textLength="96" x="396.5" y="1067.3633">-priority : Enum</text><line style="stroke:#181818;stroke-width:0.5;" x1="391.5" x2="620.5" y1="1074.877" y2="1074.877"/><text fill="#000000" font-family="sans-serif" font-size="14" lengthAdjust="spacing" textLength="219" x="396.5" y="1093.9844">+ToDoListEntry(task, greenSpace)</text></g><!--class Repositories--><g id="elem_Repositories"><rect codeLine="34" fill="#F1F1F1" height="103.8633" id="Repositories" rx="2.5" ry="2.5" style="stroke:#181818;stroke-width:0.5;" width="194" x="1366" y="576.0137"/><ellipse cx="1419.25" cy="592.0137" fill="#ADD1B2" rx="11" ry="11" style="stroke:#181818;stroke-width:1.0;"/><path d="M1422.0156,587.8887 Q1422.1719,587.6699 1422.3594,587.5605 Q1422.5469,587.4512 1422.7656,587.4512 Q1423.1406,587.4512 1423.375,587.7168 Q1423.6094,587.9668 1423.6094,588.5762 L1423.6094,590.0293 Q1423.6094,590.6387 1423.375,590.9043 Q1423.1406,591.1699 1422.7656,591.1699 Q1422.4219,591.1699 1422.2188,590.9668 Q1422.0156,590.7793 1421.9063,590.2637 Q1421.8594,589.9043 1421.6719,589.7168 Q1421.3438,589.3418 1420.7344,589.123 Q1420.125,588.9043 1419.5,588.9043 Q1418.7344,588.9043 1418.0938,589.2324 Q1417.4688,589.5605 1416.9688,590.3105 Q1416.4844,591.0605 1416.4844,592.0918 L1416.4844,593.1855 Q1416.4844,594.4199 1417.375,595.248 Q1418.2656,596.0605 1419.8594,596.0605 Q1420.7969,596.0605 1421.4531,595.8105 Q1421.8438,595.6543 1422.2656,595.2168 Q1422.5313,594.9512 1422.6719,594.873 Q1422.8281,594.7949 1423.0313,594.7949 Q1423.3594,594.7949 1423.6094,595.0605 Q1423.875,595.3105 1423.875,595.6543 Q1423.875,595.998 1423.5313,596.4043 Q1423.0313,596.9824 1422.2344,597.3105 Q1421.1563,597.7637 1419.8594,597.7637 Q1418.3438,597.7637 1417.1406,597.1387 Q1416.1563,596.6387 1415.4688,595.5762 Q1414.7813,594.498 1414.7813,593.2168 L1414.7813,592.0605 Q1414.7813,590.7324 1415.3906,589.5918 Q1416.0156,588.4355 1417.1094,587.8262 Q1418.2031,587.2012 1419.4375,587.2012 Q1420.1719,587.2012 1420.8125,587.373 Q1421.4688,587.5293 1422.0156,587.8887 Z " fill="#000000"/><text fill="#000000" font-family="sans-serif" font-size="14" lengthAdjust="spacing" textLength="79" x="1439.75" y="597.8105">Repositories</text><line style="stroke:#181818;stroke-width:0.5;" x1="1367" x2="1559" y1="608.0137" y2="608.0137"/><line style="stroke:#181818;stroke-width:0.5;" x1="1367" x2="1559" y1="616.0137" y2="616.0137"/><text fill="#000000" font-family="sans-serif" font-size="14" lengthAdjust="spacing" textLength="94" x="1372" y="635.1211">-Repositories()</text><text fill="#000000" font-family="sans-serif" font-size="14" lengthAdjust="spacing" textLength="182" x="1372" y="653.7422">+getInstance() : Repositories</text><text fill="#000000" font-family="sans-serif" font-size="14" lengthAdjust="spacing" textLength="164" x="1372" y="672.3633">+getToDoList() : ToDoList</text></g><!--class ToDoList--><g id="elem_ToDoList"><rect codeLine="40" fill="#F1F1F1" height="66.6211" id="ToDoList" rx="2.5" ry="2.5" style="stroke:#181818;stroke-width:0.5;" width="291" x="1349.5" y="796.0137"/><ellipse cx="1462.25" cy="812.0137" fill="#ADD1B2" rx="11" ry="11" style="stroke:#181818;stroke-width:1.0;"/><path d="M1465.0156,807.8887 Q1465.1719,807.6699 1465.3594,807.5605 Q1465.5469,807.4512 1465.7656,807.4512 Q1466.1406,807.4512 1466.375,807.7168 Q1466.6094,807.9668 1466.6094,808.5762 L1466.6094,810.0293 Q1466.6094,810.6387 1466.375,810.9043 Q1466.1406,811.1699 1465.7656,811.1699 Q1465.4219,811.1699 1465.2188,810.9668 Q1465.0156,810.7793 1464.9063,810.2637 Q1464.8594,809.9043 1464.6719,809.7168 Q1464.3438,809.3418 1463.7344,809.123 Q1463.125,808.9043 1462.5,808.9043 Q1461.7344,808.9043 1461.0938,809.2324 Q1460.4688,809.5605 1459.9688,810.3105 Q1459.4844,811.0605 1459.4844,812.0918 L1459.4844,813.1855 Q1459.4844,814.4199 1460.375,815.248 Q1461.2656,816.0605 1462.8594,816.0605 Q1463.7969,816.0605 1464.4531,815.8105 Q1464.8438,815.6543 1465.2656,815.2168 Q1465.5313,814.9512 1465.6719,814.873 Q1465.8281,814.7949 1466.0313,814.7949 Q1466.3594,814.7949 1466.6094,815.0605 Q1466.875,815.3105 1466.875,815.6543 Q1466.875,815.998 1466.5313,816.4043 Q1466.0313,816.9824 1465.2344,817.3105 Q1464.1563,817.7637 1462.8594,817.7637 Q1461.3438,817.7637 1460.1406,817.1387 Q1459.1563,816.6387 1458.4688,815.5762 Q1457.7813,814.498 1457.7813,813.2168 L1457.7813,812.0605 Q1457.7813,810.7324 1458.3906,809.5918 Q1459.0156,808.4355 1460.1094,807.8262 Q1461.2031,807.2012 1462.4375,807.2012 Q1463.1719,807.2012 1463.8125,807.373 Q1464.4688,807.5293 1465.0156,807.8887 Z " fill="#000000"/><text fill="#000000" font-family="sans-serif" font-size="14" lengthAdjust="spacing" textLength="57" x="1482.75" y="817.8105">ToDoList</text><line style="stroke:#181818;stroke-width:0.5;" x1="1350.5" x2="1639.5" y1="828.0137" y2="828.0137"/><line style="stroke:#181818;stroke-width:0.5;" x1="1350.5" x2="1639.5" y1="836.0137" y2="836.0137"/><text fill="#000000" font-family="sans-serif" font-size="14" lengthAdjust="spacing" textLength="279" x="1355.5" y="855.1211">+getToDoListEntries() : List&lt;ToDoListEntry&gt;</text></g><!--class ToDoListMapper--><g id="elem_ToDoListMapper"><rect codeLine="74" fill="#F1F1F1" height="85.2422" id="ToDoListMapper" rx="2.5" ry="2.5" style="stroke:#181818;stroke-width:0.5;" width="510" x="783" y="787.0137"/><ellipse cx="981.25" cy="803.0137" fill="#ADD1B2" rx="11" ry="11" style="stroke:#181818;stroke-width:1.0;"/><path d="M984.0156,798.8887 Q984.1719,798.6699 984.3594,798.5605 Q984.5469,798.4512 984.7656,798.4512 Q985.1406,798.4512 985.375,798.7168 Q985.6094,798.9668 985.6094,799.5762 L985.6094,801.0293 Q985.6094,801.6387 985.375,801.9043 Q985.1406,802.1699 984.7656,802.1699 Q984.4219,802.1699 984.2188,801.9668 Q984.0156,801.7793 983.9063,801.2637 Q983.8594,800.9043 983.6719,800.7168 Q983.3438,800.3418 982.7344,800.123 Q982.125,799.9043 981.5,799.9043 Q980.7344,799.9043 980.0938,800.2324 Q979.4688,800.5605 978.9688,801.3105 Q978.4844,802.0605 978.4844,803.0918 L978.4844,804.1855 Q978.4844,805.4199 979.375,806.248 Q980.2656,807.0605 981.8594,807.0605 Q982.7969,807.0605 983.4531,806.8105 Q983.8438,806.6543 984.2656,806.2168 Q984.5313,805.9512 984.6719,805.873 Q984.8281,805.7949 985.0313,805.7949 Q985.3594,805.7949 985.6094,806.0605 Q985.875,806.3105 985.875,806.6543 Q985.875,806.998 985.5313,807.4043 Q985.0313,807.9824 984.2344,808.3105 Q983.1563,808.7637 981.8594,808.7637 Q980.3438,808.7637 979.1406,808.1387 Q978.1563,807.6387 977.4688,806.5762 Q976.7813,805.498 976.7813,804.2168 L976.7813,803.0605 Q976.7813,801.7324 977.3906,800.5918 Q978.0156,799.4355 979.1094,798.8262 Q980.2031,798.2012 981.4375,798.2012 Q982.1719,798.2012 982.8125,798.373 Q983.4688,798.5293 984.0156,798.8887 Z " fill="#000000"/><text fill="#000000" font-family="sans-serif" font-size="14" lengthAdjust="spacing" textLength="105" x="1001.75" y="808.8105">ToDoListMapper</text><line style="stroke:#181818;stroke-width:0.5;" x1="784" x2="1292" y1="819.0137" y2="819.0137"/><line style="stroke:#181818;stroke-width:0.5;" x1="784" x2="1292" y1="827.0137" y2="827.0137"/><text fill="#000000" font-family="sans-serif" font-size="14" lengthAdjust="spacing" textLength="498" x="789" y="846.1211">+toDoListEntriesToDto(entries : List&lt;ToDoListEntry&gt;) : List&lt;ToDoListEntryDto&gt;</text><text fill="#000000" font-family="sans-serif" font-size="14" lengthAdjust="spacing" textLength="371" x="789" y="864.7422">+toDTO(toDoListEntry : ToDoListEntry) : ToDoListEntryDto</text></g><!--class ToDoListEntryDto--><g id="elem_ToDoListEntryDto"><rect codeLine="80" fill="#F1F1F1" height="48" id="ToDoListEntryDto" rx="2.5" ry="2.5" style="stroke:#181818;stroke-width:0.5;" width="144" x="966" y="604.0137"/><ellipse cx="981" cy="620.0137" fill="#ADD1B2" rx="11" ry="11" style="stroke:#181818;stroke-width:1.0;"/><path d="M983.7656,615.8887 Q983.9219,615.6699 984.1094,615.5605 Q984.2969,615.4512 984.5156,615.4512 Q984.8906,615.4512 985.125,615.7168 Q985.3594,615.9668 985.3594,616.5762 L985.3594,618.0293 Q985.3594,618.6387 985.125,618.9043 Q984.8906,619.1699 984.5156,619.1699 Q984.1719,619.1699 983.9688,618.9668 Q983.7656,618.7793 983.6563,618.2637 Q983.6094,617.9043 983.4219,617.7168 Q983.0938,617.3418 982.4844,617.123 Q981.875,616.9043 981.25,616.9043 Q980.4844,616.9043 979.8438,617.2324 Q979.2188,617.5605 978.7188,618.3105 Q978.2344,619.0605 978.2344,620.0918 L978.2344,621.1855 Q978.2344,622.4199 979.125,623.248 Q980.0156,624.0605 981.6094,624.0605 Q982.5469,624.0605 983.2031,623.8105 Q983.5938,623.6543 984.0156,623.2168 Q984.2813,622.9512 984.4219,622.873 Q984.5781,622.7949 984.7813,622.7949 Q985.1094,622.7949 985.3594,623.0605 Q985.625,623.3105 985.625,623.6543 Q985.625,623.998 985.2813,624.4043 Q984.7813,624.9824 983.9844,625.3105 Q982.9063,625.7637 981.6094,625.7637 Q980.0938,625.7637 978.8906,625.1387 Q977.9063,624.6387 977.2188,623.5762 Q976.5313,622.498 976.5313,621.2168 L976.5313,620.0605 Q976.5313,618.7324 977.1406,617.5918 Q977.7656,616.4355 978.8594,615.8262 Q979.9531,615.2012 981.1875,615.2012 Q981.9219,615.2012 982.5625,615.373 Q983.2188,615.5293 983.7656,615.8887 Z " fill="#000000"/><text fill="#000000" font-family="sans-serif" font-size="14" lengthAdjust="spacing" textLength="112" x="995" y="625.8105">ToDoListEntryDto</text><line style="stroke:#181818;stroke-width:0.5;" x1="967" x2="1109" y1="636.0137" y2="636.0137"/><line style="stroke:#181818;stroke-width:0.5;" x1="967" x2="1109" y1="644.0137" y2="644.0137"/></g><!--link Repositories to Repositories--><g id="link_Repositories_Repositories"><path codeLine="87" d="M1560.28,611.7337 C1580.48,613.4437 1595,618.8737 1595,628.0137 C1595,637.1537 1586.4586,642.0776 1566.2586,643.7876 " fill="none" id="Repositories-to-Repositories" style="stroke:#181818;stroke-width:1.0;"/><polygon fill="#181818" points="1560.28,644.2937,1569.5853,647.5203,1565.2622,643.8719,1568.9105,639.5488,1560.28,644.2937" style="stroke:#181818;stroke-width:1.0;"/><text fill="#000000" font-family="sans-serif" font-size="13" lengthAdjust="spacing" textLength="49" x="1601" y="633.542">instance</text></g><!--link Repositories to ToDoList--><g id="link_Repositories_ToDoList"><path codeLine="88" d="M1471.2,680.1337 C1477.05,716.6137 1483.8004,758.6593 1488.8304,790.0393 " fill="none" id="Repositories-to-ToDoList" style="stroke:#181818;stroke-width:1.0;"/><polygon fill="#181818" points="1489.78,795.9637,1492.3051,786.444,1488.9886,791.0267,1484.406,787.7102,1489.78,795.9637" style="stroke:#181818;stroke-width:1.0;"/><text fill="#000000" font-family="sans-serif" font-size="13" lengthAdjust="spacing" textLength="69" x="1480" y="725.042">getToDoList</text><text fill="#000000" font-family="sans-serif" font-size="13" lengthAdjust="spacing" textLength="7" x="1481.0633" y="784.7793">1</text></g><!--link ToDoList to ToDoListEntry--><g id="link_ToDoList_ToDoListEntry"><path codeLine="90" d="M1407.99,863.0237 C1359.58,881.1137 1309,900.0137 1309,900.0137 C1309,900.0137 850.192,979.4301 627.822,1017.9301 " fill="none" id="ToDoList-to-ToDoListEntry" style="stroke:#181818;stroke-width:1.0;"/><polygon fill="#181818" points="621.91,1018.9537,631.4605,1021.3597,626.8367,1018.1007,630.0957,1013.4769,621.91,1018.9537" style="stroke:#181818;stroke-width:1.0;"/><text fill="#000000" font-family="sans-serif" font-size="13" lengthAdjust="spacing" textLength="21" x="1136" y="945.042">has</text></g><!--link GreenSpace to ToDoListEntry--><g id="link_GreenSpace_ToDoListEntry"><path codeLine="91" d="M453.12,881.5137 C463,910.9337 471.6509,936.7076 482.0009,967.5376 " fill="none" id="GreenSpace-to-ToDoListEntry" style="stroke:#181818;stroke-width:1.0;"/><polygon fill="none" points="485.82,978.9137,487.7025,971.9526,482.0009,967.5376,480.1184,974.4987,485.82,978.9137" style="stroke:#181818;stroke-width:1.0;"/><text fill="#000000" font-family="sans-serif" font-size="13" lengthAdjust="spacing" textLength="21" x="476" y="945.042">has</text></g><!--link Task to ToDoListEntry--><g id="link_Task_ToDoListEntry"><path codeLine="92" d="M279.69,900.2337 C321.29,925.7437 357.7307,948.0899 397.8407,972.6899 " fill="none" id="Task-to-ToDoListEntry" style="stroke:#181818;stroke-width:1.0;"/><polygon fill="none" points="408.07,978.9637,405.0466,972.417,397.8407,972.6899,400.8641,979.2366,408.07,978.9637" style="stroke:#181818;stroke-width:1.0;"/><text fill="#000000" font-family="sans-serif" font-size="13" lengthAdjust="spacing" textLength="21" x="358" y="945.042">has</text></g><!--link ToDoListEntryDto to ToDoListMapper--><g id="link_ToDoListEntryDto_ToDoListMapper"><path codeLine="93" d="M1038,652.2937 C1038,685.2837 1038,740.1737 1038,781.0137 " fill="none" id="ToDoListEntryDto-to-ToDoListMapper" style="stroke:#181818;stroke-width:1.0;stroke-dasharray:7.0,7.0;"/><polygon fill="#181818" points="1038,787.0137,1042,778.0137,1038,782.0137,1034,778.0137,1038,787.0137" style="stroke:#181818;stroke-width:1.0;"/><text fill="#000000" font-family="sans-serif" font-size="13" lengthAdjust="spacing" textLength="99" x="1039" y="725.042">toDoListEntryDto</text></g><!--link Entry to ToDoListEntry--><g id="link_Entry_ToDoListEntry"><path codeLine="94" d="M625.21,872.2037 C603.38,902.7437 583.8959,930.0091 559.4759,964.1791 " fill="none" id="Entry-to-ToDoListEntry" style="stroke:#181818;stroke-width:1.0;"/><polygon fill="none" points="549.01,978.8237,564.3575,967.6677,554.5944,960.6904,549.01,978.8237" style="stroke:#181818;stroke-width:1.0;"/><text fill="#000000" font-family="sans-serif" font-size="13" lengthAdjust="spacing" textLength="46" x="581" y="945.042">extends</text></g><!--link AddToDoListEntryUI to AddToDoListController--><g id="link_AddToDoListEntryUI_AddToDoListController"><path codeLine="98" d="M1634,165.1437 C1634,196.7637 1634,229.6937 1634,262.6537 " fill="none" id="AddToDoListEntryUI-to-AddToDoListController" style="stroke:#181818;stroke-width:1.0;"/><polygon fill="#181818" points="1634,268.6537,1638,259.6537,1634,263.6537,1630,259.6537,1634,268.6537" style="stroke:#181818;stroke-width:1.0;"/><text fill="#000000" font-family="sans-serif" font-size="13" lengthAdjust="spacing" textLength="77" x="1635" y="212.042">interacts with</text></g><!--link AddToDoListController to Repositories--><g id="link_AddToDoListController_Repositories"><path codeLine="99" d="M1592.39,410.2337 C1561.84,461.4137 1524.1153,524.6217 1496.5553,570.7917 " fill="none" id="AddToDoListController-to-Repositories" style="stroke:#181818;stroke-width:1.0;"/><polygon fill="#181818" points="1493.48,575.9437,1501.5276,570.266,1496.0428,571.6504,1494.6584,566.1656,1493.48,575.9437" style="stroke:#181818;stroke-width:1.0;"/><text fill="#000000" font-family="sans-serif" font-size="13" lengthAdjust="spacing" textLength="28" x="1569" y="457.042">uses</text></g><!--link AddToDoListController to ToDoListMapper--><g id="link_AddToDoListController_ToDoListMapper"><path codeLine="100" d="M1646.44,410.0337 C1651.86,440.3037 1657,469.0137 1657,469.0137 C1657,469.0137 1657,729.0137 1657,729.0137 C1657,729.0137 1333,759.0137 1333,759.0137 C1333,759.0137 1283.1302,770.768 1220.1302,785.608 " fill="none" id="AddToDoListController-to-ToDoListMapper" style="stroke:#181818;stroke-width:1.0;"/><polygon fill="#181818" points="1214.29,786.9837,1223.9674,788.8136,1219.1568,785.8373,1222.1331,781.0267,1214.29,786.9837" style="stroke:#181818;stroke-width:1.0;"/><text fill="#000000" font-family="sans-serif" font-size="13" lengthAdjust="spacing" textLength="28" x="1658" y="633.542">uses</text></g><!--SRC=[fLPRRzCm57xFhx3AGpVHJF1QJP4cEb0bq2JQyUubfuarnuxi4qQ1_dUEapInqtGNuOUszldEvtDtv_PHg8eRNh9IAvqMHfV0qDGG3PAAfuyyXmtk9J03ANALInzW2vxf9w5ojkFI-X8f5E2-0bPfkNURQ3uXr0OB7NbggUJMtY0QyL0Zh5EjDk8ti0zHD9UmGuQQ6P4No3BXx15QHL5d9PlThsVi-lgpbXcO967lLirYVo96gs5cDrcsrIlzLLYyLMZsz-jExDPxOhMLvFijju_suj8JM91qdJk_GFfWI-P- -mWoTITCkUB80ysESbEdATWZwI4wU7P_qcIAbXBCM-mVj08NKWCS8J0X1_IT5a1ca0TkVnr4OuKw6Uar7liOvxg_l-nY4UfzCG1gGnx2oze3rkFWeqIzG3CHrPKkkL1d8jhWU-XtgBGLgCt-EVYGXHvFeVI2xrOS2BqqzA5PAqjzH85nlllWK-ZHnmPwtFImmzYi8s9aqXiA81cJTryjVnlwWJncNYzuftcVqDFi1eI3B61Ll7IQ6x9KvTuvfzAcyqpN3zAl5Q_OdEgY0LwUNkVC32xAmAP6L6wCJDs7G1E9lAClx_Gd52ALbFWkW3_QVUBprePtf3GFV5ERVlAkNJINB7hIHQyxPN_G0l-NXnPH6K6bXwwVRbLT-eQ6pKV42uylCAvles-ygixEi3ErskgSL2o6vKfer1VGRgOhznKJhQVUthrYferefjfkc3NRksT6zxJdH-8HoAqv8qB6Zy-WPK-wbXbx0AhO7RsT6Il001CxfW0oo0A2mvaU3ePM72VXmPA9RYvDWsSVPyDyMVeJfMNlPGwy7GMtuErmy_ezZlLPMDEdpmB68RowIiOLjGnggCzWInN7Vq-jX5y8AhEHUqKc_YSunwQVNnSx1CDJf4m9BA9fs4JCQqjZ_ppwnAK6_my0]--></g></svg>