<?xml version="1.0" encoding="us-ascii" standalone="no"?><svg xmlns="http://www.w3.org/2000/svg" xmlns:xlink="http://www.w3.org/1999/xlink" contentStyleType="text/css" height="479px" preserveAspectRatio="none" style="width:712px;height:479px;background:#FFFFFF;" version="1.1" viewBox="0 0 712 479" width="712px" zoomAndPan="magnify"><defs/><g><rect fill="#FFFFFF" height="280.9395" style="stroke:#181818;stroke-width:1.0;" width="10" x="170" y="116.8242"/><rect fill="#FFFFFF" height="218.3574" style="stroke:#181818;stroke-width:1.0;" width="10" x="350" y="148.1152"/><rect fill="#FFFFFF" height="145.7754" style="stroke:#181818;stroke-width:1.0;" width="10" x="505" y="189.4063"/><rect fill="#FFFFFF" height="52.2422" style="stroke:#181818;stroke-width:1.0;" width="10" x="630.5" y="251.6484"/><rect fill="none" height="331.5215" style="stroke:#000000;stroke-width:1.5;" width="703" x="3" y="74.2422"/><line style="stroke:#181818;stroke-width:0.5;stroke-dasharray:5.0,5.0;" x1="174.5" x2="174.5" y1="57.2422" y2="422.7637"/><line style="stroke:#181818;stroke-width:0.5;stroke-dasharray:5.0,5.0;" x1="354.5" x2="354.5" y1="57.2422" y2="422.7637"/><line style="stroke:#181818;stroke-width:0.5;stroke-dasharray:5.0,5.0;" x1="510" x2="510" y1="197.2363" y2="422.7637"/><line style="stroke:#181818;stroke-width:0.5;stroke-dasharray:5.0,5.0;" x1="635" x2="635" y1="259.4785" y2="422.7637"/><line style="stroke:#181818;stroke-width:0.5;stroke-dasharray:5.0,5.0;" x1="683" x2="683" y1="57.2422" y2="422.7637"/><rect fill="#E3E3E3" height="51.2422" rx="2.5" ry="2.5" style="stroke:#181818;stroke-width:0.5;" width="97" x="126.5" y="5"/><text fill="#000000" font-family="sans-serif" font-size="14" lengthAdjust="spacing" textLength="79" x="135.5" y="27.1074">Repositories</text><text fill="#000000" font-family="sans-serif" font-size="14" lengthAdjust="spacing" textLength="83" x="133.5" y="45.7285">:Repositories</text><rect fill="#E3E3E3" height="51.2422" rx="2.5" ry="2.5" style="stroke:#181818;stroke-width:0.5;" width="97" x="126.5" y="421.7637"/><text fill="#000000" font-family="sans-serif" font-size="14" lengthAdjust="spacing" textLength="79" x="135.5" y="443.8711">Repositories</text><text fill="#000000" font-family="sans-serif" font-size="14" lengthAdjust="spacing" textLength="83" x="133.5" y="462.4922">:Repositories</text><rect fill="#E3E3E3" height="51.2422" rx="2.5" ry="2.5" style="stroke:#181818;stroke-width:0.5;" width="75" x="317.5" y="5"/><text fill="#000000" font-family="sans-serif" font-size="14" lengthAdjust="spacing" textLength="52" x="329" y="27.1074">toDoList</text><text fill="#000000" font-family="sans-serif" font-size="14" lengthAdjust="spacing" textLength="61" x="324.5" y="45.7285">:ToDoList</text><rect fill="#E3E3E3" height="51.2422" rx="2.5" ry="2.5" style="stroke:#181818;stroke-width:0.5;" width="75" x="317.5" y="421.7637"/><text fill="#000000" font-family="sans-serif" font-size="14" lengthAdjust="spacing" textLength="52" x="329" y="443.8711">toDoList</text><text fill="#000000" font-family="sans-serif" font-size="14" lengthAdjust="spacing" textLength="61" x="324.5" y="462.4922">:ToDoList</text><rect fill="#E3E3E3" height="51.2422" rx="2.5" ry="2.5" style="stroke:#181818;stroke-width:0.5;" width="108" x="456" y="421.7637"/><text fill="#000000" font-family="sans-serif" font-size="14" lengthAdjust="spacing" textLength="85" x="467.5" y="443.8711">toDoListEntry</text><text fill="#000000" font-family="sans-serif" font-size="14" lengthAdjust="spacing" textLength="94" x="463" y="462.4922">:ToDoListEntry</text><rect fill="#E3E3E3" height="51.2422" rx="2.5" ry="2.5" style="stroke:#181818;stroke-width:0.5;" width="49" x="611" y="421.7637"/><text fill="#000000" font-family="sans-serif" font-size="14" lengthAdjust="spacing" textLength="26" x="622.5" y="443.8711">task</text><text fill="#000000" font-family="sans-serif" font-size="14" lengthAdjust="spacing" textLength="35" x="618" y="462.4922">:Task</text><rect fill="#E3E3E3" height="32.6211" rx="2.5" ry="2.5" style="stroke:#181818;stroke-width:0.5;" width="26" x="670" y="23.6211"/><text fill="#000000" font-family="sans-serif" font-size="14" lengthAdjust="spacing" textLength="12" x="677" y="45.7285">UI</text><rect fill="#E3E3E3" height="32.6211" rx="2.5" ry="2.5" style="stroke:#181818;stroke-width:0.5;" width="26" x="670" y="421.7637"/><text fill="#000000" font-family="sans-serif" font-size="14" lengthAdjust="spacing" textLength="12" x="677" y="443.8711">UI</text><rect fill="#FFFFFF" height="280.9395" style="stroke:#181818;stroke-width:1.0;" width="10" x="170" y="116.8242"/><rect fill="#FFFFFF" height="218.3574" style="stroke:#181818;stroke-width:1.0;" width="10" x="350" y="148.1152"/><rect fill="#FFFFFF" height="145.7754" style="stroke:#181818;stroke-width:1.0;" width="10" x="505" y="189.4063"/><rect fill="#FFFFFF" height="52.2422" style="stroke:#181818;stroke-width:1.0;" width="10" x="630.5" y="251.6484"/><path d="M3,74.2422 L103,74.2422 L103,83.5332 L93,93.5332 L3,93.5332 L3,74.2422 " fill="#EEEEEE" style="stroke:#000000;stroke-width:1.5;"/><rect fill="none" height="331.5215" style="stroke:#000000;stroke-width:1.5;" width="703" x="3" y="74.2422"/><text fill="#000000" font-family="sans-serif" font-size="13" font-weight="bold" lengthAdjust="spacing" textLength="55" x="18" y="89.2705">Get Task</text><polygon fill="#181818" points="158,112.8242,168,116.8242,158,120.8242,162,116.8242" style="stroke:#181818;stroke-width:1.0;"/><line style="stroke:#181818;stroke-width:1.0;" x1="0" x2="164" y1="116.8242" y2="116.8242"/><text fill="#000000" font-family="sans-serif" font-size="13" font-weight="bold" lengthAdjust="spacing" textLength="7" x="7" y="111.5615">1</text><text fill="#000000" font-family="sans-serif" font-size="13" lengthAdjust="spacing" textLength="133" x="18" y="111.5615">getTask(toDoListEntry)</text><polygon fill="#181818" points="338,144.1152,348,148.1152,338,152.1152,342,148.1152" style="stroke:#181818;stroke-width:1.0;"/><line style="stroke:#181818;stroke-width:1.0;" x1="180" x2="344" y1="148.1152" y2="148.1152"/><text fill="#000000" font-family="sans-serif" font-size="13" font-weight="bold" lengthAdjust="spacing" textLength="14" x="187" y="142.8525">11</text><text fill="#000000" font-family="sans-serif" font-size="13" lengthAdjust="spacing" textLength="133" x="205" y="142.8525">getTask(toDoListEntry)</text><polygon fill="#181818" points="444,175.4063,454,179.4063,444,183.4063,448,179.4063" style="stroke:#181818;stroke-width:1.0;"/><line style="stroke:#181818;stroke-width:1.0;" x1="360" x2="450" y1="179.4063" y2="179.4063"/><text fill="#000000" font-family="sans-serif" font-size="13" font-weight="bold" lengthAdjust="spacing" textLength="14" x="367" y="174.1436">12</text><text fill="#000000" font-family="sans-serif" font-size="13" lengthAdjust="spacing" textLength="54" x="385" y="174.1436">getTask()</text><rect fill="#E3E3E3" height="51.2422" rx="2.5" ry="2.5" style="stroke:#181818;stroke-width:0.5;" width="108" x="456" y="156.1152"/><text fill="#000000" font-family="sans-serif" font-size="14" lengthAdjust="spacing" textLength="85" x="467.5" y="178.2227">toDoListEntry</text><text fill="#000000" font-family="sans-serif" font-size="14" lengthAdjust="spacing" textLength="94" x="463" y="196.8438">:ToDoListEntry</text><polygon fill="#181818" points="599,237.6484,609,241.6484,599,245.6484,603,241.6484" style="stroke:#181818;stroke-width:1.0;"/><line style="stroke:#181818;stroke-width:1.0;" x1="515" x2="605" y1="241.6484" y2="241.6484"/><text fill="#000000" font-family="sans-serif" font-size="13" font-weight="bold" lengthAdjust="spacing" textLength="14" x="522" y="236.3857">13</text><text fill="#000000" font-family="sans-serif" font-size="13" lengthAdjust="spacing" textLength="54" x="540" y="236.3857">getTask()</text><rect fill="#E3E3E3" height="51.2422" rx="2.5" ry="2.5" style="stroke:#181818;stroke-width:0.5;" width="49" x="611" y="218.3574"/><text fill="#000000" font-family="sans-serif" font-size="14" lengthAdjust="spacing" textLength="26" x="622.5" y="240.4648">task</text><text fill="#000000" font-family="sans-serif" font-size="14" lengthAdjust="spacing" textLength="35" x="618" y="259.0859">:Task</text><polygon fill="#181818" points="526,299.8906,516,303.8906,526,307.8906,522,303.8906" style="stroke:#181818;stroke-width:1.0;"/><line style="stroke:#181818;stroke-width:1.0;stroke-dasharray:2.0,2.0;" x1="520" x2="634.5" y1="303.8906" y2="303.8906"/><text fill="#000000" font-family="sans-serif" font-size="13" font-weight="bold" lengthAdjust="spacing" textLength="14" x="532" y="298.6279">14</text><text fill="#000000" font-family="sans-serif" font-size="13" lengthAdjust="spacing" textLength="25" x="550" y="298.6279">task</text><polygon fill="#181818" points="371,331.1816,361,335.1816,371,339.1816,367,335.1816" style="stroke:#181818;stroke-width:1.0;"/><line style="stroke:#181818;stroke-width:1.0;stroke-dasharray:2.0,2.0;" x1="365" x2="509" y1="335.1816" y2="335.1816"/><text fill="#000000" font-family="sans-serif" font-size="13" font-weight="bold" lengthAdjust="spacing" textLength="14" x="377" y="329.9189">15</text><text fill="#000000" font-family="sans-serif" font-size="13" lengthAdjust="spacing" textLength="25" x="395" y="329.9189">task</text><polygon fill="#181818" points="191,362.4727,181,366.4727,191,370.4727,187,366.4727" style="stroke:#181818;stroke-width:1.0;"/><line style="stroke:#181818;stroke-width:1.0;stroke-dasharray:2.0,2.0;" x1="185" x2="354" y1="366.4727" y2="366.4727"/><text fill="#000000" font-family="sans-serif" font-size="13" font-weight="bold" lengthAdjust="spacing" textLength="14" x="197" y="361.21">16</text><text fill="#000000" font-family="sans-serif" font-size="13" lengthAdjust="spacing" textLength="25" x="215" y="361.21">task</text><polygon fill="#181818" points="671,393.7637,681,397.7637,671,401.7637,675,397.7637" style="stroke:#181818;stroke-width:1.0;"/><line style="stroke:#181818;stroke-width:1.0;stroke-dasharray:2.0,2.0;" x1="175" x2="677" y1="397.7637" y2="397.7637"/><text fill="#000000" font-family="sans-serif" font-size="13" font-weight="bold" lengthAdjust="spacing" textLength="14" x="182" y="392.501">17</text><text fill="#000000" font-family="sans-serif" font-size="13" lengthAdjust="spacing" textLength="25" x="200" y="392.501">task</text><!--SRC=[VP71Ri8m38RlUGgBqq3Ym9N3f4aWX413ejrXqYvUyKhKDgaITnDlloICBkdAV6bY__zNsx6LL2qQRA3HIXTdeni2DXq9srTQB2eiAUDBJM2eO5Hb7Gli6K_wIweIFh2s98HBionaYufXSgHMMydQIB9lQXbV9u0M3iTDQc2zqdjfsOdpdsCGveVLOR_Dyd7rMh6vH9PmJtphv_puEZ2ZhRp7VQxIfsmd17QiLTUyan6YDBfhOKCCNYJ4_D4tl8IIs2SUajzFOoyi5W8Bbf_858OKuC8Tm35kFS5TaXVtzdxqaFRH0o9O670sYvZJNly7TTr6Nu-PeHJ0RXrtU2aph0q6uRCm7_RdQ7xhYVf4_w06NQNBIr0nPdpAtwrTtp4cZBYZ9tFwb-rD7ad3mv8wVGC0]--></g></svg>