<?xml version="1.0" encoding="us-ascii" standalone="no"?><svg xmlns="http://www.w3.org/2000/svg" xmlns:xlink="http://www.w3.org/1999/xlink" contentStyleType="text/css" height="385px" preserveAspectRatio="none" style="width:778px;height:385px;background:#FFFFFF;" version="1.1" viewBox="0 0 778 385" width="778px" zoomAndPan="magnify"><defs/><g><rect fill="#FFFFFF" height="187.4063" style="stroke:#181818;stroke-width:1.0;" width="10" x="224" y="116.8242"/><rect fill="#FFFFFF" height="124.8242" style="stroke:#181818;stroke-width:1.0;" width="10" x="458" y="148.1152"/><rect fill="#FFFFFF" height="52.2422" style="stroke:#181818;stroke-width:1.0;" width="10" x="667" y="189.4063"/><rect fill="none" height="237.9883" style="stroke:#000000;stroke-width:1.5;" width="769" x="3" y="74.2422"/><line style="stroke:#181818;stroke-width:0.5;stroke-dasharray:5.0,5.0;" x1="228.5" x2="228.5" y1="57.2422" y2="329.2305"/><line style="stroke:#181818;stroke-width:0.5;stroke-dasharray:5.0,5.0;" x1="462.5" x2="462.5" y1="57.2422" y2="329.2305"/><line style="stroke:#181818;stroke-width:0.5;stroke-dasharray:5.0,5.0;" x1="672" x2="672" y1="197.2363" y2="329.2305"/><line style="stroke:#181818;stroke-width:0.5;stroke-dasharray:5.0,5.0;" x1="749" x2="749" y1="57.2422" y2="329.2305"/><rect fill="#E3E3E3" height="51.2422" rx="2.5" ry="2.5" style="stroke:#181818;stroke-width:0.5;" width="97" x="180.5" y="5"/><text fill="#000000" font-family="sans-serif" font-size="14" lengthAdjust="spacing" textLength="79" x="189.5" y="27.1074">Repositories</text><text fill="#000000" font-family="sans-serif" font-size="14" lengthAdjust="spacing" textLength="83" x="187.5" y="45.7285">:Repositories</text><rect fill="#E3E3E3" height="51.2422" rx="2.5" ry="2.5" style="stroke:#181818;stroke-width:0.5;" width="97" x="180.5" y="328.2305"/><text fill="#000000" font-family="sans-serif" font-size="14" lengthAdjust="spacing" textLength="79" x="189.5" y="350.3379">Repositories</text><text fill="#000000" font-family="sans-serif" font-size="14" lengthAdjust="spacing" textLength="83" x="187.5" y="368.959">:Repositories</text><rect fill="#E3E3E3" height="51.2422" rx="2.5" ry="2.5" style="stroke:#181818;stroke-width:0.5;" width="75" x="425.5" y="5"/><text fill="#000000" font-family="sans-serif" font-size="14" lengthAdjust="spacing" textLength="52" x="437" y="27.1074">toDoList</text><text fill="#000000" font-family="sans-serif" font-size="14" lengthAdjust="spacing" textLength="61" x="432.5" y="45.7285">:ToDoList</text><rect fill="#E3E3E3" height="51.2422" rx="2.5" ry="2.5" style="stroke:#181818;stroke-width:0.5;" width="75" x="425.5" y="328.2305"/><text fill="#000000" font-family="sans-serif" font-size="14" lengthAdjust="spacing" textLength="52" x="437" y="350.3379">toDoList</text><text fill="#000000" font-family="sans-serif" font-size="14" lengthAdjust="spacing" textLength="61" x="432.5" y="368.959">:ToDoList</text><rect fill="#E3E3E3" height="51.2422" rx="2.5" ry="2.5" style="stroke:#181818;stroke-width:0.5;" width="108" x="618" y="328.2305"/><text fill="#000000" font-family="sans-serif" font-size="14" lengthAdjust="spacing" textLength="85" x="629.5" y="350.3379">toDoListEntry</text><text fill="#000000" font-family="sans-serif" font-size="14" lengthAdjust="spacing" textLength="94" x="625" y="368.959">:ToDoListEntry</text><rect fill="#E3E3E3" height="32.6211" rx="2.5" ry="2.5" style="stroke:#181818;stroke-width:0.5;" width="26" x="736" y="23.6211"/><text fill="#000000" font-family="sans-serif" font-size="14" lengthAdjust="spacing" textLength="12" x="743" y="45.7285">UI</text><rect fill="#E3E3E3" height="32.6211" rx="2.5" ry="2.5" style="stroke:#181818;stroke-width:0.5;" width="26" x="736" y="328.2305"/><text fill="#000000" font-family="sans-serif" font-size="14" lengthAdjust="spacing" textLength="12" x="743" y="350.3379">UI</text><rect fill="#FFFFFF" height="187.4063" style="stroke:#181818;stroke-width:1.0;" width="10" x="224" y="116.8242"/><rect fill="#FFFFFF" height="124.8242" style="stroke:#181818;stroke-width:1.0;" width="10" x="458" y="148.1152"/><rect fill="#FFFFFF" height="52.2422" style="stroke:#181818;stroke-width:1.0;" width="10" x="667" y="189.4063"/><path d="M3,74.2422 L169,74.2422 L169,83.5332 L159,93.5332 L3,93.5332 L3,74.2422 " fill="#EEEEEE" style="stroke:#000000;stroke-width:1.5;"/><rect fill="none" height="237.9883" style="stroke:#000000;stroke-width:1.5;" width="769" x="3" y="74.2422"/><text fill="#000000" font-family="sans-serif" font-size="13" font-weight="bold" lengthAdjust="spacing" textLength="121" x="18" y="89.2705">Get ToDo List Entry</text><polygon fill="#181818" points="212,112.8242,222,116.8242,212,120.8242,216,116.8242" style="stroke:#181818;stroke-width:1.0;"/><line style="stroke:#181818;stroke-width:1.0;" x1="0" x2="218" y1="116.8242" y2="116.8242"/><text fill="#000000" font-family="sans-serif" font-size="13" font-weight="bold" lengthAdjust="spacing" textLength="7" x="7" y="111.5615">1</text><text fill="#000000" font-family="sans-serif" font-size="13" lengthAdjust="spacing" textLength="187" x="18" y="111.5615">getToDoListEntry(toDoListEntry)</text><polygon fill="#181818" points="446,144.1152,456,148.1152,446,152.1152,450,148.1152" style="stroke:#181818;stroke-width:1.0;"/><line style="stroke:#181818;stroke-width:1.0;" x1="234" x2="452" y1="148.1152" y2="148.1152"/><text fill="#000000" font-family="sans-serif" font-size="13" font-weight="bold" lengthAdjust="spacing" textLength="14" x="241" y="142.8525">11</text><text fill="#000000" font-family="sans-serif" font-size="13" lengthAdjust="spacing" textLength="187" x="259" y="142.8525">getToDoListEntry(toDoListEntry)</text><polygon fill="#181818" points="606,175.4063,616,179.4063,606,183.4063,610,179.4063" style="stroke:#181818;stroke-width:1.0;"/><line style="stroke:#181818;stroke-width:1.0;" x1="468" x2="612" y1="179.4063" y2="179.4063"/><text fill="#000000" font-family="sans-serif" font-size="13" font-weight="bold" lengthAdjust="spacing" textLength="14" x="475" y="174.1436">12</text><text fill="#000000" font-family="sans-serif" font-size="13" lengthAdjust="spacing" textLength="108" x="493" y="174.1436">getToDoListEntry()</text><rect fill="#E3E3E3" height="51.2422" rx="2.5" ry="2.5" style="stroke:#181818;stroke-width:0.5;" width="108" x="618" y="156.1152"/><text fill="#000000" font-family="sans-serif" font-size="14" lengthAdjust="spacing" textLength="85" x="629.5" y="178.2227">toDoListEntry</text><text fill="#000000" font-family="sans-serif" font-size="14" lengthAdjust="spacing" textLength="94" x="625" y="196.8438">:ToDoListEntry</text><polygon fill="#181818" points="479,237.6484,469,241.6484,479,245.6484,475,241.6484" style="stroke:#181818;stroke-width:1.0;"/><line style="stroke:#181818;stroke-width:1.0;stroke-dasharray:2.0,2.0;" x1="473" x2="671" y1="241.6484" y2="241.6484"/><text fill="#000000" font-family="sans-serif" font-size="13" font-weight="bold" lengthAdjust="spacing" textLength="14" x="485" y="236.3857">13</text><text fill="#000000" font-family="sans-serif" font-size="13" lengthAdjust="spacing" textLength="79" x="503" y="236.3857">toDoListEntry</text><polygon fill="#181818" points="245,268.9395,235,272.9395,245,276.9395,241,272.9395" style="stroke:#181818;stroke-width:1.0;"/><line style="stroke:#181818;stroke-width:1.0;stroke-dasharray:2.0,2.0;" x1="239" x2="462" y1="272.9395" y2="272.9395"/><text fill="#000000" font-family="sans-serif" font-size="13" font-weight="bold" lengthAdjust="spacing" textLength="14" x="251" y="267.6768">14</text><text fill="#000000" font-family="sans-serif" font-size="13" lengthAdjust="spacing" textLength="79" x="269" y="267.6768">toDoListEntry</text><polygon fill="#181818" points="737,300.2305,747,304.2305,737,308.2305,741,304.2305" style="stroke:#181818;stroke-width:1.0;"/><line style="stroke:#181818;stroke-width:1.0;stroke-dasharray:2.0,2.0;" x1="229" x2="743" y1="304.2305" y2="304.2305"/><text fill="#000000" font-family="sans-serif" font-size="13" font-weight="bold" lengthAdjust="spacing" textLength="14" x="236" y="298.9678">15</text><text fill="#000000" font-family="sans-serif" font-size="13" lengthAdjust="spacing" textLength="79" x="254" y="298.9678">toDoListEntry</text><!--SRC=[XP31Ri8m343l_WgBqq3Ym9N3JY24X5QfT8T9ktZ5An5jKYNk9lv-QSQoH5J2fyJnUx7jBahtPAd3pcXJdwtf6CKE32w-z5HVgE6ZN5j6oxMGRjgqm9tfPBwLRl2JMiS0FYsgLZrfmLd9lN5AZ5NitlKwlSwG71RbBWV4RCn1EV75rUqO2gjYKnpsnsgwUgl5NXCat3Dk-rALRm0qYD53zy4MeB5cw777WYE68uS115W-ZvsjiM79b4_PX_FKXwiLK2tgYuJ3M80-_06zxAyBVAmSgUY9KuVq6D6KMCDiYyMKV1x1E-Tj8vX4zeJBlF6ipuYT-97ul-FVhKwg9ZJ90Ztukh_Z4YRic_Nf1m00]--></g></svg>