<?xml version="1.0" encoding="us-ascii" standalone="no"?><svg xmlns="http://www.w3.org/2000/svg" xmlns:xlink="http://www.w3.org/1999/xlink" contentStyleType="text/css" height="1334.9px" preserveAspectRatio="none" style="width:1429px;height:1334px;background:#FFFFFF;" version="1.1" viewBox="0 0 1429 1334" width="1429.4px" zoomAndPan="magnify"><defs/><g><rect fill="#FFFFFF" height="1179.124" style="stroke:#181818;stroke-width:0.6999999999999998;" width="7" x="33.95" y="78.5695"/><rect fill="#FFFFFF" height="707.0561" style="stroke:#181818;stroke-width:0.6999999999999998;" width="7" x="227.85" y="94.8732"/><rect fill="#FFFFFF" height="421.7568" style="stroke:#181818;stroke-width:0.6999999999999998;" width="7" x="227.85" y="835.9367"/><rect fill="#FFFFFF" height="608.5064" style="stroke:#181818;stroke-width:0.6999999999999998;" width="7" x="384.65" y="147.3117"/><rect fill="#FFFFFF" height="196.6576" style="stroke:#181818;stroke-width:0.6999999999999998;" width="7" x="384.65" y="857.8404"/><rect fill="#FFFFFF" height="174.9918" style="stroke:#181818;stroke-width:0.6999999999999998;" width="7" x="384.65" y="1076.4018"/><rect fill="#FFFFFF" height="21.9037" style="stroke:#181818;stroke-width:0.6999999999999998;" width="7" x="480.9" y="169.2154"/><rect fill="#FFFFFF" height="21.9037" style="stroke:#181818;stroke-width:0.6999999999999998;" width="7" x="554.4" y="213.0229"/><rect fill="#FFFFFF" height="153.5844" style="stroke:#181818;stroke-width:0.6999999999999998;" width="7" x="619.85" y="256.8303"/><rect fill="#FFFFFF" height="152.8502" style="stroke:#181818;stroke-width:0.6999999999999998;" width="7" x="619.85" y="879.7441"/><rect fill="#FFFFFF" height="131.1844" style="stroke:#181818;stroke-width:0.6999999999999998;" width="7" x="619.85" y="1098.3055"/><rect fill="#FFFFFF" height="294.5961" style="stroke:#181818;stroke-width:0.6999999999999998;" width="7" x="694.4" y="439.3184"/><rect fill="#FFFFFF" height="19.6" style="stroke:#181818;stroke-width:0.6999999999999998;" width="7" x="697.9" y="574.2338"/><rect fill="#FFFFFF" height="102.777" style="stroke:#181818;stroke-width:0.6999999999999998;" width="7" x="891.1" y="285.734"/><rect fill="#FFFFFF" height="21" style="stroke:#181818;stroke-width:0.6999999999999998;" width="7" x="894.6" y="340.7072"/><rect fill="#FFFFFF" height="21.9037" style="stroke:#181818;stroke-width:0.6999999999999998;" width="7" x="891.1" y="524.8264"/><rect fill="#FFFFFF" height="21" style="stroke:#181818;stroke-width:0.6999999999999998;" width="7" x="1010.1" y="686.1107"/><rect fill="#FFFFFF" height="36.5695" style="stroke:#181818;stroke-width:0.6999999999999998;" width="7" x="1120.35" y="627.6375"/><rect fill="#FFFFFF" height="36.5695" style="stroke:#181818;stroke-width:0.6999999999999998;" width="7" x="1186.85" y="952.2174"/><rect fill="#FFFFFF" height="36.5695" style="stroke:#181818;stroke-width:0.6999999999999998;" width="7" x="1246.7" y="1149.1129"/><rect fill="#FFFFFF" height="102.0428" style="stroke:#181818;stroke-width:0.6999999999999998;" width="7" x="1383.9" y="908.6479"/><rect fill="#FFFFFF" height="87.377" style="stroke:#181818;stroke-width:0.6999999999999998;" width="7" x="1383.9" y="1120.2092"/><rect fill="none" height="56.4074" style="stroke:#000000;stroke-width:1.0499999999999998;" width="360.85" x="591.85" y="310.8998"/><rect fill="none" height="217.6918" style="stroke:#000000;stroke-width:1.0499999999999998;" width="525.35" x="647.85" y="495.0189"/><line style="stroke:#181818;stroke-width:0.3499999999999999;stroke-dasharray:5.0,5.0;" x1="37.1" x2="37.1" y1="71.5695" y2="1263.9936"/><line style="stroke:#181818;stroke-width:0.3499999999999999;stroke-dasharray:5.0,5.0;" x1="231" x2="231" y1="71.5695" y2="1263.9936"/><line style="stroke:#181818;stroke-width:0.3499999999999999;stroke-dasharray:5.0,5.0;" x1="388.15" x2="388.15" y1="122.7406" y2="1263.9936"/><line style="stroke:#181818;stroke-width:0.3499999999999999;stroke-dasharray:5.0,5.0;" x1="484.05" x2="484.05" y1="71.5695" y2="1263.9936"/><line style="stroke:#181818;stroke-width:0.3499999999999999;stroke-dasharray:5.0,5.0;" x1="557.55" x2="557.55" y1="71.5695" y2="1263.9936"/><line style="stroke:#181818;stroke-width:0.3499999999999999;stroke-dasharray:5.0,5.0;" x1="623.35" x2="623.35" y1="71.5695" y2="1263.9936"/><line style="stroke:#181818;stroke-width:0.3499999999999999;stroke-dasharray:5.0,5.0;" x1="697.55" x2="697.55" y1="438.282" y2="1263.9936"/><line style="stroke:#181818;stroke-width:0.3499999999999999;stroke-dasharray:5.0,5.0;" x1="894.6" x2="894.6" y1="291.215" y2="1263.9936"/><line style="stroke:#181818;stroke-width:0.3499999999999999;stroke-dasharray:5.0,5.0;" x1="1013.6" x2="1013.6" y1="475.3342" y2="1263.9936"/><line style="stroke:#181818;stroke-width:0.3499999999999999;stroke-dasharray:5.0,5.0;" x1="1123.5" x2="1123.5" y1="633.1186" y2="1263.9936"/><line style="stroke:#181818;stroke-width:0.3499999999999999;stroke-dasharray:5.0,5.0;" x1="1190" x2="1190" y1="957.6984" y2="1263.9936"/><line style="stroke:#181818;stroke-width:0.3499999999999999;stroke-dasharray:5.0,5.0;" x1="1250.2" x2="1250.2" y1="1154.5939" y2="1263.9936"/><line style="stroke:#181818;stroke-width:0.3499999999999999;stroke-dasharray:5.0,5.0;" x1="1387.4" x2="1387.4" y1="914.1289" y2="1263.9936"/><text fill="#000000" font-family="sans-serif" font-size="9.8" lengthAdjust="spacing" textLength="63.7" x="3.5" y="56.0752">Green Spaces</text><text fill="#000000" font-family="sans-serif" font-size="9.8" lengthAdjust="spacing" textLength="39.2" x="17.15" y="69.11">Manager</text><ellipse cx="37.45" cy="9.45" fill="#E3E3E3" rx="5.6" ry="5.6" style="stroke:#181818;stroke-width:0.3499999999999999;"/><path d="M37.45,15.05 L37.45,33.95 M28.35,20.65 L46.55,20.65 M37.45,33.95 L28.35,44.45 M37.45,33.95 L46.55,44.45 " fill="none" style="stroke:#181818;stroke-width:0.3499999999999999;"/><text fill="#000000" font-family="sans-serif" font-size="9.8" lengthAdjust="spacing" textLength="63.7" x="3.5" y="1273.8687">Green Spaces</text><text fill="#000000" font-family="sans-serif" font-size="9.8" lengthAdjust="spacing" textLength="39.2" x="17.15" y="1286.9035">Manager</text><ellipse cx="37.45" cy="1295.3131" fill="#E3E3E3" rx="5.6" ry="5.6" style="stroke:#181818;stroke-width:0.3499999999999999;"/><path d="M37.45,1300.9131 L37.45,1319.8131 M28.35,1306.5131 L46.55,1306.5131 M37.45,1319.8131 L28.35,1330.3131 M37.45,1319.8131 L46.55,1330.3131 " fill="none" style="stroke:#181818;stroke-width:0.3499999999999999;"/><rect fill="#E3E3E3" height="22.8348" rx="1.75" ry="1.75" style="stroke:#181818;stroke-width:0.3499999999999999;" width="101.5" x="180.6" y="48.0348"/><text fill="#000000" font-family="sans-serif" font-size="9.8" lengthAdjust="spacing" textLength="91.7" x="185.5" y="63.51">:AddToDoListEntryUI</text><rect fill="#E3E3E3" height="22.8348" rx="1.75" ry="1.75" style="stroke:#181818;stroke-width:0.3499999999999999;" width="101.5" x="180.6" y="1263.2936"/><text fill="#000000" font-family="sans-serif" font-size="9.8" lengthAdjust="spacing" textLength="91.7" x="185.5" y="1278.7687">:AddToDoListEntryUI</text><rect fill="#E3E3E3" height="22.8348" rx="1.75" ry="1.75" style="stroke:#181818;stroke-width:0.3499999999999999;" width="113.4" x="331.45" y="1263.2936"/><text fill="#000000" font-family="sans-serif" font-size="9.8" lengthAdjust="spacing" textLength="103.6" x="336.35" y="1278.7687">:AddToDoListController</text><rect fill="#E3E3E3" height="22.8348" rx="1.75" ry="1.75" style="stroke:#181818;stroke-width:0.3499999999999999;" width="65.1" x="451.85" y="48.0348"/><text fill="#000000" font-family="sans-serif" font-size="9.8" lengthAdjust="spacing" textLength="55.3" x="456.75" y="63.51">Repositories</text><rect fill="#E3E3E3" height="22.8348" rx="1.75" ry="1.75" style="stroke:#181818;stroke-width:0.3499999999999999;" width="65.1" x="451.85" y="1263.2936"/><text fill="#000000" font-family="sans-serif" font-size="9.8" lengthAdjust="spacing" textLength="55.3" x="456.75" y="1278.7687">Repositories</text><rect fill="#E3E3E3" height="35.8695" rx="1.75" ry="1.75" style="stroke:#181818;stroke-width:0.3499999999999999;" width="67.9" x="523.95" y="35"/><text fill="#000000" font-family="sans-serif" font-size="9.8" lengthAdjust="spacing" textLength="51.8" x="532" y="50.4752">repositories</text><text fill="#000000" font-family="sans-serif" font-size="9.8" lengthAdjust="spacing" textLength="58.1" x="528.85" y="63.51">:Repositories</text><rect fill="#E3E3E3" height="35.8695" rx="1.75" ry="1.75" style="stroke:#181818;stroke-width:0.3499999999999999;" width="67.9" x="523.95" y="1263.2936"/><text fill="#000000" font-family="sans-serif" font-size="9.8" lengthAdjust="spacing" textLength="51.8" x="532" y="1278.7687">repositories</text><text fill="#000000" font-family="sans-serif" font-size="9.8" lengthAdjust="spacing" textLength="58.1" x="528.85" y="1291.8035">:Repositories</text><rect fill="#E3E3E3" height="35.8695" rx="1.75" ry="1.75" style="stroke:#181818;stroke-width:0.3499999999999999;" width="49" x="598.85" y="35"/><text fill="#000000" font-family="sans-serif" font-size="9.8" lengthAdjust="spacing" textLength="36.4" x="605.15" y="50.4752">toDoList</text><text fill="#000000" font-family="sans-serif" font-size="9.8" lengthAdjust="spacing" textLength="39.2" x="603.75" y="63.51">:toDoList</text><rect fill="#E3E3E3" height="35.8695" rx="1.75" ry="1.75" style="stroke:#181818;stroke-width:0.3499999999999999;" width="49" x="598.85" y="1263.2936"/><text fill="#000000" font-family="sans-serif" font-size="9.8" lengthAdjust="spacing" textLength="36.4" x="605.15" y="1278.7687">toDoList</text><text fill="#000000" font-family="sans-serif" font-size="9.8" lengthAdjust="spacing" textLength="39.2" x="603.75" y="1291.8035">:toDoList</text><rect fill="#E3E3E3" height="22.8348" rx="1.75" ry="1.75" style="stroke:#181818;stroke-width:0.3499999999999999;" width="86.1" x="654.85" y="1263.2936"/><text fill="#000000" font-family="sans-serif" font-size="9.8" lengthAdjust="spacing" textLength="76.3" x="659.75" y="1278.7687">:ToDoListMapper</text><rect fill="#E3E3E3" height="35.8695" rx="1.75" ry="1.75" style="stroke:#181818;stroke-width:0.3499999999999999;" width="102.2" x="843.5" y="1263.2936"/><text fill="#000000" font-family="sans-serif" font-size="9.8" lengthAdjust="spacing" textLength="42.7" x="873.25" y="1278.7687">listEntries</text><text fill="#000000" font-family="sans-serif" font-size="9.8" lengthAdjust="spacing" textLength="92.4" x="848.4" y="1291.8035">:List&lt;ToDoListEntry&gt;</text><rect fill="#E3E3E3" height="35.8695" rx="1.75" ry="1.75" style="stroke:#181818;stroke-width:0.3499999999999999;" width="121.8" x="952.7" y="1263.2936"/><text fill="#000000" font-family="sans-serif" font-size="9.8" lengthAdjust="spacing" textLength="51.8" x="987.7" y="1278.7687">toDoListDto</text><text fill="#000000" font-family="sans-serif" font-size="9.8" lengthAdjust="spacing" textLength="112" x="957.6" y="1291.8035">:List&lt;toDoListEntriesDto&gt;</text><rect fill="#E3E3E3" height="35.8695" rx="1.75" ry="1.75" style="stroke:#181818;stroke-width:0.3499999999999999;" width="84.7" x="1081.5" y="1263.2936"/><text fill="#000000" font-family="sans-serif" font-size="9.8" lengthAdjust="spacing" textLength="74.9" x="1086.4" y="1278.7687">toDoListEntryDto</text><text fill="#000000" font-family="sans-serif" font-size="9.8" lengthAdjust="spacing" textLength="58.1" x="1094.8" y="1291.8035">:ToDoListDto</text><rect fill="#E3E3E3" height="35.8695" rx="1.75" ry="1.75" style="stroke:#181818;stroke-width:0.3499999999999999;" width="34.3" x="1173.2" y="1263.2936"/><text fill="#000000" font-family="sans-serif" font-size="9.8" lengthAdjust="spacing" textLength="18.2" x="1181.25" y="1278.7687">task</text><text fill="#000000" font-family="sans-serif" font-size="9.8" lengthAdjust="spacing" textLength="24.5" x="1178.1" y="1291.8035">:Task</text><rect fill="#E3E3E3" height="35.8695" rx="1.75" ry="1.75" style="stroke:#181818;stroke-width:0.3499999999999999;" width="71.4" x="1214.5" y="1263.2936"/><text fill="#000000" font-family="sans-serif" font-size="9.8" lengthAdjust="spacing" textLength="53.9" x="1223.25" y="1278.7687">greenSpace</text><text fill="#000000" font-family="sans-serif" font-size="9.8" lengthAdjust="spacing" textLength="61.6" x="1219.4" y="1291.8035">: GreenSpace</text><rect fill="#E3E3E3" height="35.8695" rx="1.75" ry="1.75" style="stroke:#181818;stroke-width:0.3499999999999999;" width="75.6" x="1349.6" y="1263.2936"/><text fill="#000000" font-family="sans-serif" font-size="9.8" lengthAdjust="spacing" textLength="59.5" x="1357.65" y="1278.7687">toDoListEntry</text><text fill="#000000" font-family="sans-serif" font-size="9.8" lengthAdjust="spacing" textLength="65.8" x="1354.5" y="1291.8035">:ToDoListEntry</text><rect fill="#FFFFFF" height="1179.124" style="stroke:#181818;stroke-width:0.6999999999999998;" width="7" x="33.95" y="78.5695"/><rect fill="#FFFFFF" height="707.0561" style="stroke:#181818;stroke-width:0.6999999999999998;" width="7" x="227.85" y="94.8732"/><rect fill="#FFFFFF" height="421.7568" style="stroke:#181818;stroke-width:0.6999999999999998;" width="7" x="227.85" y="835.9367"/><rect fill="#FFFFFF" height="608.5064" style="stroke:#181818;stroke-width:0.6999999999999998;" width="7" x="384.65" y="147.3117"/><rect fill="#FFFFFF" height="196.6576" style="stroke:#181818;stroke-width:0.6999999999999998;" width="7" x="384.65" y="857.8404"/><rect fill="#FFFFFF" height="174.9918" style="stroke:#181818;stroke-width:0.6999999999999998;" width="7" x="384.65" y="1076.4018"/><rect fill="#FFFFFF" height="21.9037" style="stroke:#181818;stroke-width:0.6999999999999998;" width="7" x="480.9" y="169.2154"/><rect fill="#FFFFFF" height="21.9037" style="stroke:#181818;stroke-width:0.6999999999999998;" width="7" x="554.4" y="213.0229"/><rect fill="#FFFFFF" height="153.5844" style="stroke:#181818;stroke-width:0.6999999999999998;" width="7" x="619.85" y="256.8303"/><rect fill="#FFFFFF" height="152.8502" style="stroke:#181818;stroke-width:0.6999999999999998;" width="7" x="619.85" y="879.7441"/><rect fill="#FFFFFF" height="131.1844" style="stroke:#181818;stroke-width:0.6999999999999998;" width="7" x="619.85" y="1098.3055"/><rect fill="#FFFFFF" height="294.5961" style="stroke:#181818;stroke-width:0.6999999999999998;" width="7" x="694.4" y="439.3184"/><rect fill="#FFFFFF" height="19.6" style="stroke:#181818;stroke-width:0.6999999999999998;" width="7" x="697.9" y="574.2338"/><rect fill="#FFFFFF" height="102.777" style="stroke:#181818;stroke-width:0.6999999999999998;" width="7" x="891.1" y="285.734"/><rect fill="#FFFFFF" height="21" style="stroke:#181818;stroke-width:0.6999999999999998;" width="7" x="894.6" y="340.7072"/><rect fill="#FFFFFF" height="21.9037" style="stroke:#181818;stroke-width:0.6999999999999998;" width="7" x="891.1" y="524.8264"/><rect fill="#FFFFFF" height="21" style="stroke:#181818;stroke-width:0.6999999999999998;" width="7" x="1010.1" y="686.1107"/><rect fill="#FFFFFF" height="36.5695" style="stroke:#181818;stroke-width:0.6999999999999998;" width="7" x="1120.35" y="627.6375"/><rect fill="#FFFFFF" height="36.5695" style="stroke:#181818;stroke-width:0.6999999999999998;" width="7" x="1186.85" y="952.2174"/><rect fill="#FFFFFF" height="36.5695" style="stroke:#181818;stroke-width:0.6999999999999998;" width="7" x="1246.7" y="1149.1129"/><rect fill="#FFFFFF" height="102.0428" style="stroke:#181818;stroke-width:0.6999999999999998;" width="7" x="1383.9" y="908.6479"/><rect fill="#FFFFFF" height="87.377" style="stroke:#181818;stroke-width:0.6999999999999998;" width="7" x="1383.9" y="1120.2092"/><polygon fill="#181818" points="219.45,92.0732,226.45,94.8732,219.45,97.6732,222.25,94.8732" style="stroke:#181818;stroke-width:0.6999999999999998;"/><line style="stroke:#181818;stroke-width:0.6999999999999998;" x1="40.95" x2="223.65" y1="94.8732" y2="94.8732"/><text fill="#000000" font-family="sans-serif" font-size="9.1" font-weight="bold" lengthAdjust="spacing" textLength="4.9" x="45.85" y="91.1894">1</text><text fill="#000000" font-family="sans-serif" font-size="9.1" lengthAdjust="spacing" textLength="155.4" x="53.55" y="91.1894">asks to add a new entry to the agenda</text><polygon fill="#181818" points="323.05,113.977,330.05,116.777,323.05,119.577,325.85,116.777" style="stroke:#181818;stroke-width:0.6999999999999998;"/><line style="stroke:#181818;stroke-width:0.6999999999999998;" x1="234.85" x2="327.25" y1="116.777" y2="116.777"/><text fill="#000000" font-family="sans-serif" font-size="9.1" font-weight="bold" lengthAdjust="spacing" textLength="4.9" x="239.75" y="113.0931">2</text><text fill="#000000" font-family="sans-serif" font-size="9.1" lengthAdjust="spacing" textLength="25.2" x="247.45" y="113.0931">create</text><rect fill="#E3E3E3" height="22.8348" rx="1.75" ry="1.75" style="stroke:#181818;stroke-width:0.3499999999999999;" width="113.4" x="331.45" y="100.4732"/><text fill="#000000" font-family="sans-serif" font-size="9.8" lengthAdjust="spacing" textLength="103.6" x="336.35" y="115.9484">:AddToDoListController</text><polygon fill="#181818" points="376.25,144.5117,383.25,147.3117,376.25,150.1117,379.05,147.3117" style="stroke:#181818;stroke-width:0.6999999999999998;"/><line style="stroke:#181818;stroke-width:0.6999999999999998;" x1="234.85" x2="380.45" y1="147.3117" y2="147.3117"/><text fill="#000000" font-family="sans-serif" font-size="9.1" font-weight="bold" lengthAdjust="spacing" textLength="4.9" x="239.75" y="143.6278">3</text><text fill="#000000" font-family="sans-serif" font-size="9.1" lengthAdjust="spacing" textLength="82.6" x="247.45" y="143.6278">getToDoListEntries()</text><polygon fill="#181818" points="472.5,166.4154,479.5,169.2154,472.5,172.0154,475.3,169.2154" style="stroke:#181818;stroke-width:0.6999999999999998;"/><line style="stroke:#181818;stroke-width:0.6999999999999998;" x1="391.65" x2="476.7" y1="169.2154" y2="169.2154"/><text fill="#000000" font-family="sans-serif" font-size="9.1" font-weight="bold" lengthAdjust="spacing" textLength="4.9" x="396.55" y="165.5315">4</text><text fill="#000000" font-family="sans-serif" font-size="9.1" lengthAdjust="spacing" textLength="52.5" x="404.25" y="165.5315">getInstance()</text><polygon fill="#181818" points="399.35,188.3191,392.35,191.1191,399.35,193.9191,396.55,191.1191" style="stroke:#181818;stroke-width:0.6999999999999998;"/><line style="stroke:#181818;stroke-width:0.6999999999999998;stroke-dasharray:2.0,2.0;" x1="395.15" x2="483.7" y1="191.1191" y2="191.1191"/><text fill="#000000" font-family="sans-serif" font-size="9.1" font-weight="bold" lengthAdjust="spacing" textLength="4.9" x="403.55" y="187.4353">5</text><text fill="#000000" font-family="sans-serif" font-size="9.1" lengthAdjust="spacing" textLength="46.9" x="411.25" y="187.4353">repositories</text><polygon fill="#181818" points="546,210.2229,553,213.0229,546,215.8229,548.8,213.0229" style="stroke:#181818;stroke-width:0.6999999999999998;"/><line style="stroke:#181818;stroke-width:0.6999999999999998;" x1="391.65" x2="550.2" y1="213.0229" y2="213.0229"/><text fill="#000000" font-family="sans-serif" font-size="9.1" font-weight="bold" lengthAdjust="spacing" textLength="4.9" x="396.55" y="209.339">6</text><text fill="#000000" font-family="sans-serif" font-size="9.1" lengthAdjust="spacing" textLength="53.9" x="404.25" y="209.339">getToDoList()</text><polygon fill="#181818" points="399.35,232.1266,392.35,234.9266,399.35,237.7266,396.55,234.9266" style="stroke:#181818;stroke-width:0.6999999999999998;"/><line style="stroke:#181818;stroke-width:0.6999999999999998;stroke-dasharray:2.0,2.0;" x1="395.15" x2="557.2" y1="234.9266" y2="234.9266"/><text fill="#000000" font-family="sans-serif" font-size="9.1" font-weight="bold" lengthAdjust="spacing" textLength="4.9" x="403.55" y="231.2427">7</text><text fill="#000000" font-family="sans-serif" font-size="9.1" lengthAdjust="spacing" textLength="33.6" x="411.25" y="231.2427">toDoList</text><polygon fill="#181818" points="611.45,254.0303,618.45,256.8303,611.45,259.6303,614.25,256.8303" style="stroke:#181818;stroke-width:0.6999999999999998;"/><line style="stroke:#181818;stroke-width:0.6999999999999998;" x1="391.65" x2="615.65" y1="256.8303" y2="256.8303"/><text fill="#000000" font-family="sans-serif" font-size="9.1" font-weight="bold" lengthAdjust="spacing" textLength="4.9" x="396.55" y="253.1464">8</text><text fill="#000000" font-family="sans-serif" font-size="9.1" lengthAdjust="spacing" textLength="82.6" x="404.25" y="253.1464">getToDoListEntries()</text><polygon fill="#181818" points="835.1,275.934,842.1,278.734,835.1,281.534,837.9,278.734" style="stroke:#181818;stroke-width:0.6999999999999998;"/><line style="stroke:#181818;stroke-width:0.6999999999999998;stroke-dasharray:2.0,2.0;" x1="626.85" x2="839.3" y1="278.734" y2="278.734"/><text fill="#000000" font-family="sans-serif" font-size="9.1" font-weight="bold" lengthAdjust="spacing" textLength="4.9" x="631.75" y="275.0501">9</text><text fill="#000000" font-family="sans-serif" font-size="9.1" lengthAdjust="spacing" textLength="30.8" x="639.45" y="275.0501">create()</text><rect fill="#E3E3E3" height="35.8695" rx="1.75" ry="1.75" style="stroke:#181818;stroke-width:0.3499999999999999;" width="102.2" x="843.5" y="262.4303"/><text fill="#000000" font-family="sans-serif" font-size="9.8" lengthAdjust="spacing" textLength="42.7" x="873.25" y="277.9055">listEntries</text><text fill="#000000" font-family="sans-serif" font-size="9.8" lengthAdjust="spacing" textLength="92.4" x="848.4" y="290.9402">:List&lt;ToDoListEntry&gt;</text><path d="M591.85,310.8998 L642.95,310.8998 L642.95,317.4035 L635.95,324.4035 L591.85,324.4035 L591.85,310.8998 " fill="#EEEEEE" style="stroke:#000000;stroke-width:1.0499999999999998;"/><rect fill="none" height="56.4074" style="stroke:#000000;stroke-width:1.0499999999999998;" width="360.85" x="591.85" y="310.8998"/><text fill="#000000" font-family="sans-serif" font-size="9.1" font-weight="bold" lengthAdjust="spacing" textLength="19.6" x="602.35" y="321.4196">loop</text><text fill="#000000" font-family="sans-serif" font-size="7.7" font-weight="bold" lengthAdjust="spacing" textLength="91" x="653.45" y="320.6089">[for each toDoListEntry]</text><polygon fill="#181818" points="886.2,337.9072,893.2,340.7072,886.2,343.5072,889,340.7072" style="stroke:#181818;stroke-width:0.6999999999999998;"/><line style="stroke:#181818;stroke-width:0.6999999999999998;" x1="626.85" x2="890.4" y1="340.7072" y2="340.7072"/><text fill="#000000" font-family="sans-serif" font-size="9.1" font-weight="bold" lengthAdjust="spacing" textLength="9.8" x="631.75" y="337.0233">10</text><text fill="#000000" font-family="sans-serif" font-size="9.1" lengthAdjust="spacing" textLength="75.6" x="644.35" y="337.0233">add(toDoListEntry)</text><polygon fill="#181818" points="634.55,385.7109,627.55,388.5109,634.55,391.3109,631.75,388.5109" style="stroke:#181818;stroke-width:0.6999999999999998;"/><line style="stroke:#181818;stroke-width:0.6999999999999998;stroke-dasharray:2.0,2.0;" x1="630.35" x2="893.9" y1="388.5109" y2="388.5109"/><text fill="#000000" font-family="sans-serif" font-size="9.1" font-weight="bold" lengthAdjust="spacing" textLength="9.8" x="638.75" y="384.8271">11</text><text fill="#000000" font-family="sans-serif" font-size="9.1" lengthAdjust="spacing" textLength="40.6" x="651.35" y="384.8271">listEntries</text><polygon fill="#181818" points="399.35,407.6146,392.35,410.4146,399.35,413.2146,396.55,410.4146" style="stroke:#181818;stroke-width:0.6999999999999998;"/><line style="stroke:#181818;stroke-width:0.6999999999999998;stroke-dasharray:2.0,2.0;" x1="395.15" x2="622.65" y1="410.4146" y2="410.4146"/><text fill="#000000" font-family="sans-serif" font-size="9.1" font-weight="bold" lengthAdjust="spacing" textLength="9.8" x="403.55" y="406.7308">12</text><text fill="#000000" font-family="sans-serif" font-size="9.1" lengthAdjust="spacing" textLength="40.6" x="416.15" y="406.7308">listEntries</text><polygon fill="#181818" points="646.45,429.5184,653.45,432.3184,646.45,435.1184,649.25,432.3184" style="stroke:#181818;stroke-width:0.6999999999999998;"/><line style="stroke:#181818;stroke-width:0.6999999999999998;" x1="391.65" x2="650.65" y1="432.3184" y2="432.3184"/><text fill="#000000" font-family="sans-serif" font-size="9.1" font-weight="bold" lengthAdjust="spacing" textLength="9.8" x="396.55" y="428.6345">13</text><text fill="#000000" font-family="sans-serif" font-size="9.1" lengthAdjust="spacing" textLength="132.3" x="409.15" y="428.6345">toDoListEntriesToDto(listEntries)</text><rect fill="#E3E3E3" height="22.8348" rx="1.75" ry="1.75" style="stroke:#181818;stroke-width:0.3499999999999999;" width="86.1" x="654.85" y="416.0146"/><text fill="#000000" font-family="sans-serif" font-size="9.8" lengthAdjust="spacing" textLength="76.3" x="659.75" y="431.4898">:ToDoListMapper</text><polygon fill="#181818" points="944.3,460.0531,951.3,462.8531,944.3,465.6531,947.1,462.8531" style="stroke:#181818;stroke-width:0.6999999999999998;"/><line style="stroke:#181818;stroke-width:0.6999999999999998;stroke-dasharray:2.0,2.0;" x1="701.4" x2="948.5" y1="462.8531" y2="462.8531"/><text fill="#000000" font-family="sans-serif" font-size="9.1" font-weight="bold" lengthAdjust="spacing" textLength="9.8" x="706.3" y="459.1692">14</text><text fill="#000000" font-family="sans-serif" font-size="9.1" lengthAdjust="spacing" textLength="30.8" x="718.9" y="459.1692">create()</text><rect fill="#E3E3E3" height="35.8695" rx="1.75" ry="1.75" style="stroke:#181818;stroke-width:0.3499999999999999;" width="121.8" x="952.7" y="446.5494"/><text fill="#000000" font-family="sans-serif" font-size="9.8" lengthAdjust="spacing" textLength="51.8" x="987.7" y="462.0246">toDoListDto</text><text fill="#000000" font-family="sans-serif" font-size="9.8" lengthAdjust="spacing" textLength="112" x="957.6" y="475.0594">:List&lt;toDoListEntriesDto&gt;</text><path d="M647.85,495.0189 L698.95,495.0189 L698.95,501.5227 L691.95,508.5227 L647.85,508.5227 L647.85,495.0189 " fill="#EEEEEE" style="stroke:#000000;stroke-width:1.0499999999999998;"/><rect fill="none" height="217.6918" style="stroke:#000000;stroke-width:1.0499999999999998;" width="525.35" x="647.85" y="495.0189"/><text fill="#000000" font-family="sans-serif" font-size="9.1" font-weight="bold" lengthAdjust="spacing" textLength="19.6" x="658.35" y="505.5388">loop</text><text fill="#000000" font-family="sans-serif" font-size="7.7" font-weight="bold" lengthAdjust="spacing" textLength="91" x="709.45" y="504.728">[for each toDoListEntry]</text><polygon fill="#181818" points="882.7,522.0264,889.7,524.8264,882.7,527.6264,885.5,524.8264" style="stroke:#181818;stroke-width:0.6999999999999998;"/><line style="stroke:#181818;stroke-width:0.6999999999999998;" x1="701.4" x2="886.9" y1="524.8264" y2="524.8264"/><text fill="#000000" font-family="sans-serif" font-size="9.1" font-weight="bold" lengthAdjust="spacing" textLength="9.8" x="706.3" y="521.1425">15</text><text fill="#000000" font-family="sans-serif" font-size="9.1" lengthAdjust="spacing" textLength="20.3" x="718.9" y="521.1425">get(i)</text><polygon fill="#181818" points="709.1,543.9301,702.1,546.7301,709.1,549.5301,706.3,546.7301" style="stroke:#181818;stroke-width:0.6999999999999998;"/><line style="stroke:#181818;stroke-width:0.6999999999999998;stroke-dasharray:2.0,2.0;" x1="704.9" x2="893.9" y1="546.7301" y2="546.7301"/><text fill="#000000" font-family="sans-serif" font-size="9.1" font-weight="bold" lengthAdjust="spacing" textLength="9.8" x="713.3" y="543.0462">16</text><text fill="#000000" font-family="sans-serif" font-size="9.1" lengthAdjust="spacing" textLength="55.3" x="725.9" y="543.0462">toDoListEntry</text><line style="stroke:#181818;stroke-width:0.6999999999999998;" x1="704.9" x2="734.3" y1="568.6338" y2="568.6338"/><line style="stroke:#181818;stroke-width:0.6999999999999998;" x1="734.3" x2="734.3" y1="568.6338" y2="577.7338"/><line style="stroke:#181818;stroke-width:0.6999999999999998;" x1="705.6" x2="734.3" y1="577.7338" y2="577.7338"/><polygon fill="#181818" points="712.6,574.9338,705.6,577.7338,712.6,580.5338,709.8,577.7338" style="stroke:#181818;stroke-width:0.6999999999999998;"/><text fill="#000000" font-family="sans-serif" font-size="9.1" font-weight="bold" lengthAdjust="spacing" textLength="9.8" x="709.8" y="564.9499">17</text><text fill="#000000" font-family="sans-serif" font-size="9.1" lengthAdjust="spacing" textLength="167.3" x="722.4" y="564.9499">toDoListEntryDto = toDTO(toDoListEntry)</text><polygon fill="#181818" points="1073.1,617.8375,1080.1,620.6375,1073.1,623.4375,1075.9,620.6375" style="stroke:#181818;stroke-width:0.6999999999999998;"/><line style="stroke:#181818;stroke-width:0.6999999999999998;stroke-dasharray:2.0,2.0;" x1="701.4" x2="1077.3" y1="620.6375" y2="620.6375"/><text fill="#000000" font-family="sans-serif" font-size="9.1" font-weight="bold" lengthAdjust="spacing" textLength="9.8" x="706.3" y="616.9536">18</text><text fill="#000000" font-family="sans-serif" font-size="9.1" lengthAdjust="spacing" textLength="30.8" x="718.9" y="616.9536">create()</text><rect fill="#E3E3E3" height="35.8695" rx="1.75" ry="1.75" style="stroke:#181818;stroke-width:0.3499999999999999;" width="84.7" x="1081.5" y="604.3338"/><text fill="#000000" font-family="sans-serif" font-size="9.8" lengthAdjust="spacing" textLength="74.9" x="1086.4" y="619.809">toDoListEntryDto</text><text fill="#000000" font-family="sans-serif" font-size="9.8" lengthAdjust="spacing" textLength="58.1" x="1094.8" y="632.8437">:ToDoListDto</text><polygon fill="#181818" points="709.1,661.407,702.1,664.207,709.1,667.007,706.3,664.207" style="stroke:#181818;stroke-width:0.6999999999999998;"/><line style="stroke:#181818;stroke-width:0.6999999999999998;stroke-dasharray:2.0,2.0;" x1="704.9" x2="1123.15" y1="664.207" y2="664.207"/><text fill="#000000" font-family="sans-serif" font-size="9.1" font-weight="bold" lengthAdjust="spacing" textLength="9.8" x="713.3" y="660.5231">19</text><text fill="#000000" font-family="sans-serif" font-size="9.1" lengthAdjust="spacing" textLength="69.3" x="725.9" y="660.5231">toDoListEntryDto</text><polygon fill="#181818" points="1001.7,683.3107,1008.7,686.1107,1001.7,688.9107,1004.5,686.1107" style="stroke:#181818;stroke-width:0.6999999999999998;"/><line style="stroke:#181818;stroke-width:0.6999999999999998;" x1="701.4" x2="1005.9" y1="686.1107" y2="686.1107"/><text fill="#000000" font-family="sans-serif" font-size="9.1" font-weight="bold" lengthAdjust="spacing" textLength="9.8" x="706.3" y="682.4269">20</text><text fill="#000000" font-family="sans-serif" font-size="9.1" lengthAdjust="spacing" textLength="89.6" x="718.9" y="682.4269">add(toDoListEntryDto)</text><polygon fill="#181818" points="399.35,731.1145,392.35,733.9145,399.35,736.7145,396.55,733.9145" style="stroke:#181818;stroke-width:0.6999999999999998;"/><line style="stroke:#181818;stroke-width:0.6999999999999998;stroke-dasharray:2.0,2.0;" x1="395.15" x2="697.2" y1="733.9145" y2="733.9145"/><text fill="#000000" font-family="sans-serif" font-size="9.1" font-weight="bold" lengthAdjust="spacing" textLength="9.8" x="403.55" y="730.2306">21</text><text fill="#000000" font-family="sans-serif" font-size="9.1" lengthAdjust="spacing" textLength="47.6" x="416.15" y="730.2306">toDoListDto</text><polygon fill="#181818" points="242.55,753.0182,235.55,755.8182,242.55,758.6182,239.75,755.8182" style="stroke:#181818;stroke-width:0.6999999999999998;"/><line style="stroke:#181818;stroke-width:0.6999999999999998;stroke-dasharray:2.0,2.0;" x1="238.35" x2="387.45" y1="755.8182" y2="755.8182"/><text fill="#000000" font-family="sans-serif" font-size="9.1" font-weight="bold" lengthAdjust="spacing" textLength="9.8" x="246.75" y="752.1343">22</text><text fill="#000000" font-family="sans-serif" font-size="9.1" lengthAdjust="spacing" textLength="47.6" x="259.35" y="752.1343">toDoListDto</text><polygon fill="#181818" points="48.65,799.1293,41.65,801.9293,48.65,804.7293,45.85,801.9293" style="stroke:#181818;stroke-width:0.6999999999999998;"/><line style="stroke:#181818;stroke-width:0.6999999999999998;stroke-dasharray:2.0,2.0;" x1="44.45" x2="230.65" y1="801.9293" y2="801.9293"/><text fill="#000000" font-family="sans-serif" font-size="9.1" font-weight="bold" lengthAdjust="spacing" textLength="9.8" x="52.85" y="786.1417">23</text><text fill="#000000" font-family="sans-serif" font-size="9.1" lengthAdjust="spacing" textLength="146.3" x="65.45" y="774.038">shows all the tasks registered in the</text><text fill="#000000" font-family="sans-serif" font-size="9.1" lengthAdjust="spacing" textLength="151.9" x="65.45" y="786.1417">To-Do List and asks you to select the</text><text fill="#000000" font-family="sans-serif" font-size="9.1" lengthAdjust="spacing" textLength="81.9" x="65.45" y="798.2454">one you want to add</text><polygon fill="#181818" points="219.45,833.1367,226.45,835.9367,219.45,838.7367,222.25,835.9367" style="stroke:#181818;stroke-width:0.6999999999999998;"/><line style="stroke:#181818;stroke-width:0.6999999999999998;" x1="40.95" x2="223.65" y1="835.9367" y2="835.9367"/><text fill="#000000" font-family="sans-serif" font-size="9.1" font-weight="bold" lengthAdjust="spacing" textLength="9.8" x="45.85" y="826.201">24</text><text fill="#000000" font-family="sans-serif" font-size="9.1" lengthAdjust="spacing" textLength="161" x="58.45" y="820.1491">select the desired task and its start and</text><text fill="#000000" font-family="sans-serif" font-size="9.1" lengthAdjust="spacing" textLength="35" x="61.25" y="832.2528">end date</text><polygon fill="#181818" points="376.25,855.0404,383.25,857.8404,376.25,860.6404,379.05,857.8404" style="stroke:#181818;stroke-width:0.6999999999999998;"/><line style="stroke:#181818;stroke-width:0.6999999999999998;" x1="234.85" x2="380.45" y1="857.8404" y2="857.8404"/><text fill="#000000" font-family="sans-serif" font-size="9.1" font-weight="bold" lengthAdjust="spacing" textLength="9.8" x="239.75" y="854.1565">25</text><text fill="#000000" font-family="sans-serif" font-size="9.1" lengthAdjust="spacing" textLength="93.1" x="252.35" y="854.1565">getTask(toDoListEntry)</text><polygon fill="#181818" points="611.45,876.9441,618.45,879.7441,611.45,882.5441,614.25,879.7441" style="stroke:#181818;stroke-width:0.6999999999999998;"/><line style="stroke:#181818;stroke-width:0.6999999999999998;" x1="391.65" x2="615.65" y1="879.7441" y2="879.7441"/><text fill="#000000" font-family="sans-serif" font-size="9.1" font-weight="bold" lengthAdjust="spacing" textLength="9.8" x="396.55" y="876.0603">26</text><text fill="#000000" font-family="sans-serif" font-size="9.1" lengthAdjust="spacing" textLength="93.1" x="409.15" y="876.0603">getTask(toDoListEntry)</text><polygon fill="#181818" points="1341.2,898.8479,1348.2,901.6479,1341.2,904.4479,1344,901.6479" style="stroke:#181818;stroke-width:0.6999999999999998;"/><line style="stroke:#181818;stroke-width:0.6999999999999998;" x1="626.85" x2="1345.4" y1="901.6479" y2="901.6479"/><text fill="#000000" font-family="sans-serif" font-size="9.1" font-weight="bold" lengthAdjust="spacing" textLength="9.8" x="631.75" y="897.964">27</text><text fill="#000000" font-family="sans-serif" font-size="9.1" lengthAdjust="spacing" textLength="37.8" x="644.35" y="897.964">getTask()</text><rect fill="#E3E3E3" height="35.8695" rx="1.75" ry="1.75" style="stroke:#181818;stroke-width:0.3499999999999999;" width="75.6" x="1349.6" y="885.3441"/><text fill="#000000" font-family="sans-serif" font-size="9.8" lengthAdjust="spacing" textLength="59.5" x="1357.65" y="900.8193">toDoListEntry</text><text fill="#000000" font-family="sans-serif" font-size="9.8" lengthAdjust="spacing" textLength="65.8" x="1354.5" y="913.8541">:ToDoListEntry</text><polygon fill="#181818" points="1215.2,942.4174,1208.2,945.2174,1215.2,948.0174,1212.4,945.2174" style="stroke:#181818;stroke-width:0.6999999999999998;"/><line style="stroke:#181818;stroke-width:0.6999999999999998;" x1="1211" x2="1383.2" y1="945.2174" y2="945.2174"/><text fill="#000000" font-family="sans-serif" font-size="9.1" font-weight="bold" lengthAdjust="spacing" textLength="9.8" x="1219.4" y="941.5335">28</text><text fill="#000000" font-family="sans-serif" font-size="9.1" lengthAdjust="spacing" textLength="37.8" x="1232" y="941.5335">getTask()</text><rect fill="#E3E3E3" height="35.8695" rx="1.75" ry="1.75" style="stroke:#181818;stroke-width:0.3499999999999999;" width="34.3" x="1173.2" y="928.9137"/><text fill="#000000" font-family="sans-serif" font-size="9.8" lengthAdjust="spacing" textLength="18.2" x="1181.25" y="944.3889">task</text><text fill="#000000" font-family="sans-serif" font-size="9.8" lengthAdjust="spacing" textLength="24.5" x="1178.1" y="957.4236">:Task</text><polygon fill="#181818" points="1375.5,985.9869,1382.5,988.7869,1375.5,991.5869,1378.3,988.7869" style="stroke:#181818;stroke-width:0.6999999999999998;"/><line style="stroke:#181818;stroke-width:0.6999999999999998;stroke-dasharray:2.0,2.0;" x1="1190.35" x2="1379.7" y1="988.7869" y2="988.7869"/><text fill="#000000" font-family="sans-serif" font-size="9.1" font-weight="bold" lengthAdjust="spacing" textLength="9.8" x="1195.25" y="985.103">29</text><text fill="#000000" font-family="sans-serif" font-size="9.1" lengthAdjust="spacing" textLength="17.5" x="1207.85" y="985.103">task</text><polygon fill="#181818" points="634.55,1007.8906,627.55,1010.6906,634.55,1013.4906,631.75,1010.6906" style="stroke:#181818;stroke-width:0.6999999999999998;"/><line style="stroke:#181818;stroke-width:0.6999999999999998;stroke-dasharray:2.0,2.0;" x1="630.35" x2="1386.7" y1="1010.6906" y2="1010.6906"/><text fill="#000000" font-family="sans-serif" font-size="9.1" font-weight="bold" lengthAdjust="spacing" textLength="9.8" x="638.75" y="1007.0067">30</text><text fill="#000000" font-family="sans-serif" font-size="9.1" lengthAdjust="spacing" textLength="17.5" x="651.35" y="1007.0067">task</text><polygon fill="#181818" points="399.35,1029.7943,392.35,1032.5943,399.35,1035.3943,396.55,1032.5943" style="stroke:#181818;stroke-width:0.6999999999999998;"/><line style="stroke:#181818;stroke-width:0.6999999999999998;stroke-dasharray:2.0,2.0;" x1="395.15" x2="622.65" y1="1032.5943" y2="1032.5943"/><text fill="#000000" font-family="sans-serif" font-size="9.1" font-weight="bold" lengthAdjust="spacing" textLength="9.8" x="403.55" y="1028.9104">31</text><text fill="#000000" font-family="sans-serif" font-size="9.1" lengthAdjust="spacing" textLength="17.5" x="416.15" y="1028.9104">task</text><polygon fill="#181818" points="242.55,1051.698,235.55,1054.498,242.55,1057.298,239.75,1054.498" style="stroke:#181818;stroke-width:0.6999999999999998;"/><line style="stroke:#181818;stroke-width:0.6999999999999998;stroke-dasharray:2.0,2.0;" x1="238.35" x2="387.45" y1="1054.498" y2="1054.498"/><text fill="#000000" font-family="sans-serif" font-size="9.1" font-weight="bold" lengthAdjust="spacing" textLength="9.8" x="246.75" y="1050.8142">32</text><text fill="#000000" font-family="sans-serif" font-size="9.1" lengthAdjust="spacing" textLength="17.5" x="259.35" y="1050.8142">task</text><polygon fill="#181818" points="376.25,1073.6018,383.25,1076.4018,376.25,1079.2018,379.05,1076.4018" style="stroke:#181818;stroke-width:0.6999999999999998;"/><line style="stroke:#181818;stroke-width:0.6999999999999998;" x1="234.85" x2="380.45" y1="1076.4018" y2="1076.4018"/><text fill="#000000" font-family="sans-serif" font-size="9.1" font-weight="bold" lengthAdjust="spacing" textLength="9.8" x="239.75" y="1072.7179">33</text><text fill="#000000" font-family="sans-serif" font-size="9.1" lengthAdjust="spacing" textLength="123.9" x="252.35" y="1072.7179">getGreenSpace(toDoListEntry)</text><polygon fill="#181818" points="611.45,1095.5055,618.45,1098.3055,611.45,1101.1055,614.25,1098.3055" style="stroke:#181818;stroke-width:0.6999999999999998;"/><line style="stroke:#181818;stroke-width:0.6999999999999998;" x1="391.65" x2="615.65" y1="1098.3055" y2="1098.3055"/><text fill="#000000" font-family="sans-serif" font-size="9.1" font-weight="bold" lengthAdjust="spacing" textLength="9.8" x="396.55" y="1094.6216">34</text><text fill="#000000" font-family="sans-serif" font-size="9.1" lengthAdjust="spacing" textLength="123.9" x="409.15" y="1094.6216">getGreenSpace(toDoListEntry)</text><polygon fill="#181818" points="1375.5,1117.4092,1382.5,1120.2092,1375.5,1123.0092,1378.3,1120.2092" style="stroke:#181818;stroke-width:0.6999999999999998;"/><line style="stroke:#181818;stroke-width:0.6999999999999998;" x1="626.85" x2="1379.7" y1="1120.2092" y2="1120.2092"/><text fill="#000000" font-family="sans-serif" font-size="9.1" font-weight="bold" lengthAdjust="spacing" textLength="9.8" x="631.75" y="1116.5253">35</text><text fill="#000000" font-family="sans-serif" font-size="9.1" lengthAdjust="spacing" textLength="68.6" x="644.35" y="1116.5253">getGreenSpace()</text><polygon fill="#181818" points="1293.6,1139.3129,1286.6,1142.1129,1293.6,1144.9129,1290.8,1142.1129" style="stroke:#181818;stroke-width:0.6999999999999998;"/><line style="stroke:#181818;stroke-width:0.6999999999999998;" x1="1289.4" x2="1383.2" y1="1142.1129" y2="1142.1129"/><text fill="#000000" font-family="sans-serif" font-size="9.1" font-weight="bold" lengthAdjust="spacing" textLength="9.8" x="1297.8" y="1138.429">36</text><text fill="#000000" font-family="sans-serif" font-size="9.1" lengthAdjust="spacing" textLength="68.6" x="1310.4" y="1138.429">getGreenSpace()</text><rect fill="#E3E3E3" height="35.8695" rx="1.75" ry="1.75" style="stroke:#181818;stroke-width:0.3499999999999999;" width="71.4" x="1214.5" y="1125.8092"/><text fill="#000000" font-family="sans-serif" font-size="9.8" lengthAdjust="spacing" textLength="53.9" x="1223.25" y="1141.2844">greenSpace</text><text fill="#000000" font-family="sans-serif" font-size="9.8" lengthAdjust="spacing" textLength="61.6" x="1219.4" y="1154.3191">: GreenSpace</text><polygon fill="#181818" points="1375.5,1182.8824,1382.5,1185.6824,1375.5,1188.4824,1378.3,1185.6824" style="stroke:#181818;stroke-width:0.6999999999999998;"/><line style="stroke:#181818;stroke-width:0.6999999999999998;stroke-dasharray:2.0,2.0;" x1="1250.2" x2="1379.7" y1="1185.6824" y2="1185.6824"/><text fill="#000000" font-family="sans-serif" font-size="9.1" font-weight="bold" lengthAdjust="spacing" textLength="9.8" x="1255.1" y="1181.9985">37</text><text fill="#000000" font-family="sans-serif" font-size="9.1" lengthAdjust="spacing" textLength="48.3" x="1267.7" y="1181.9985">greenSpace</text><polygon fill="#181818" points="634.55,1204.7861,627.55,1207.5861,634.55,1210.3861,631.75,1207.5861" style="stroke:#181818;stroke-width:0.6999999999999998;"/><line style="stroke:#181818;stroke-width:0.6999999999999998;stroke-dasharray:2.0,2.0;" x1="630.35" x2="1386.7" y1="1207.5861" y2="1207.5861"/><text fill="#000000" font-family="sans-serif" font-size="9.1" font-weight="bold" lengthAdjust="spacing" textLength="9.8" x="638.75" y="1203.9022">38</text><text fill="#000000" font-family="sans-serif" font-size="9.1" lengthAdjust="spacing" textLength="48.3" x="651.35" y="1203.9022">greenSpace</text><polygon fill="#181818" points="399.35,1226.6898,392.35,1229.4898,399.35,1232.2898,396.55,1229.4898" style="stroke:#181818;stroke-width:0.6999999999999998;"/><line style="stroke:#181818;stroke-width:0.6999999999999998;stroke-dasharray:2.0,2.0;" x1="395.15" x2="622.65" y1="1229.4898" y2="1229.4898"/><text fill="#000000" font-family="sans-serif" font-size="9.1" font-weight="bold" lengthAdjust="spacing" textLength="9.8" x="403.55" y="1225.806">39</text><text fill="#000000" font-family="sans-serif" font-size="9.1" lengthAdjust="spacing" textLength="48.3" x="416.15" y="1225.806">greenSpace</text><polygon fill="#181818" points="242.55,1248.5936,235.55,1251.3936,242.55,1254.1936,239.75,1251.3936" style="stroke:#181818;stroke-width:0.6999999999999998;"/><line style="stroke:#181818;stroke-width:0.6999999999999998;stroke-dasharray:2.0,2.0;" x1="238.35" x2="387.45" y1="1251.3936" y2="1251.3936"/><text fill="#000000" font-family="sans-serif" font-size="9.1" font-weight="bold" lengthAdjust="spacing" textLength="9.8" x="246.75" y="1247.7097">40</text><text fill="#000000" font-family="sans-serif" font-size="9.1" lengthAdjust="spacing" textLength="48.3" x="259.35" y="1247.7097">greenSpace</text><!--SRC=[hLTDR-8m4BtdLunwMReIVm3jLa8bgj2MWY0zhDIBIro823QopRBzzpjsFh0JEqctzQKbdddpx7bZZ-KXOoSYo16EdF7jNl0Z1INED9Brp8bi3sH7D-ezfo3eLX6sosq3kISflsHi1syabpIAo5bnTZw-KX55t_PPIk6DS_NA_qPagxY0cmT1AOCD8bFvmc1160OGDq0aF6mM4SAgR9kT25DmCvccQS9d_36JAcPAl3_FZU7pF6ntpz6Gvtc9UP-i7ntZDJrncI6LZ4eNHLWpBsnY6ngeTRno7LGP4eshVurXifmj7-URnBN6PRAKe6tIRrlRBCZfLAwaibnCLwjuxThdvGOLpBNZ3sVVxWo2zewValKytlWNCbEySbUMEwBYp9t3OfOi_HWcNW6KN64TNytXTpU0vMr-j_qRpaGUj0_-AKodcr-knKxhpiWExU2X_bKeRnt7JvlLz3xsvMme8otnx0zHr2Wv0Xpu3uplKB0mGVk31CM1f2aGOFG2L0FfJsfFeOXbl6eS5Bhve0TY89BMy_VlYBOL52ryqpYveofn4pYwhIrhT5CRzMSSnXjHREaRi3cJMFfRQg7OG4vDsHPcsBCmBabEm2utsoUb_RWrqNZbB3R43oktJIjUMMmgzOMOD14g1fK2-ZRTuLCNVOkK7ZMaPcVLh9Ns1d0hW5tfNaizSivFU3eBm6NkmIc_e8_Bpw6d5Pwc8mVdjXF8IxVBmKh841Uif_3gRUPZDv7MQHfzW4OxbfF9iZH3u1QeNnvDnHNtW155ux165Ie-iWBroB2yKOBqYtbdb_3qTkKOVLPTpM1DRM5rZRBFoZwKz3BeP03FKFA7hQax8AODVkfFoN987OKIsKExB-qzgQzkxmySHwsBlpDcPJKWGxXXGrSxB7OxKvg8vsJ3o0CNhMCEvEYbvpt5FFafpnUhbul-Gm35ALErB3um2yXj87G7WexOyapmNS0l4aYUczP6cTP7q1r2KK5Jo9Zv_i8IFfvnq260iBHeaTxvMVT4akRuu2ZjEAFc-qMtPKKF5JN8LBrItN9DR8YKoan7rbHCg4n9mAP6cC3u4C5jXbHtL0CQiFAoHwXGcOPxh53dq04si7UmxsL7zQPIgnXjrVfBPK2Dca3OQFVWkp5qOnwybFLi-x3HGaJetYeAGZTOkvllXGuT8CFk-1RamCkzBZlRlxFUR3rUtpHVfif-oCzginNdY_LvVTbLAksCvSIpNeL1nLvjlBgzlZhxrDiNh5F37M4-f-G0y0Vrx45fgJhw1m00]--></g></svg>