<?xml version="1.0" encoding="us-ascii" standalone="no"?><svg xmlns="http://www.w3.org/2000/svg" xmlns:xlink="http://www.w3.org/1999/xlink" contentStyleType="text/css" height="505.4px" preserveAspectRatio="none" style="width:1153px;height:505px;background:#FFFFFF;" version="1.1" viewBox="0 0 1153 505" width="1153.6px" zoomAndPan="magnify"><defs/><g><!--cluster Domain--><g id="cluster_Domain"><path d="M155.05,4.2096 L192.15,4.2096 A2.625,2.625 0 0 1 193.9,5.9596 L198.8,21.4443 L1146.95,21.4443 A1.75,1.75 0 0 1 1148.7,23.1943 L1148.7,498.7596 A1.75,1.75 0 0 1 1146.95,500.5096 L155.05,500.5096 A1.75,1.75 0 0 1 153.3,498.7596 L153.3,5.9596 A1.75,1.75 0 0 1 155.05,4.2096 " fill="#DDDDDD" style="stroke:#000000;stroke-width:1.0499999999999998;"/><line style="stroke:#000000;stroke-width:1.0499999999999998;" x1="153.3" x2="198.8" y1="21.4443" y2="21.4443"/><text fill="#000000" font-family="sans-serif" font-size="9.8" font-weight="bold" lengthAdjust="spacing" textLength="36.4" x="156.1" y="16.1848">Domain</text></g><!--cluster Repository--><g id="cluster_Repository"><path d="M171.85,35.7096 L225.75,35.7096 A2.625,2.625 0 0 1 227.5,37.4596 L232.4,52.9443 L1130.15,52.9443 A1.75,1.75 0 0 1 1131.9,54.6943 L1131.9,481.9596 A1.75,1.75 0 0 1 1130.15,483.7096 L171.85,483.7096 A1.75,1.75 0 0 1 170.1,481.9596 L170.1,37.4596 A1.75,1.75 0 0 1 171.85,35.7096 " fill="#DDDDDD" style="stroke:#000000;stroke-width:1.0499999999999998;"/><line style="stroke:#000000;stroke-width:1.0499999999999998;" x1="170.1" x2="232.4" y1="52.9443" y2="52.9443"/><text fill="#000000" font-family="sans-serif" font-size="9.8" font-weight="bold" lengthAdjust="spacing" textLength="53.2" x="172.9" y="47.6848">Repository</text></g><!--cluster Mapper--><g id="cluster_Mapper"><path d="M835.45,67.2096 L873.95,67.2096 A2.625,2.625 0 0 1 875.7,68.9596 L880.6,84.4443 L1113.35,84.4443 A1.75,1.75 0 0 1 1115.1,86.1943 L1115.1,321.6596 A1.75,1.75 0 0 1 1113.35,323.4096 L835.45,323.4096 A1.75,1.75 0 0 1 833.7,321.6596 L833.7,68.9596 A1.75,1.75 0 0 1 835.45,67.2096 " fill="#DDDDDD" style="stroke:#000000;stroke-width:1.0499999999999998;"/><line style="stroke:#000000;stroke-width:1.0499999999999998;" x1="833.7" x2="880.6" y1="84.4443" y2="84.4443"/><text fill="#000000" font-family="sans-serif" font-size="9.8" font-weight="bold" lengthAdjust="spacing" textLength="37.8" x="836.5" y="79.1848">Mapper</text></g><!--cluster DTO--><g id="cluster_DTO"><path d="M914.55,98.7096 L935.55,98.7096 A2.625,2.625 0 0 1 937.3,100.4596 L942.2,115.9443 L1034.25,115.9443 A1.75,1.75 0 0 1 1036,117.6943 L1036,167.6596 A1.75,1.75 0 0 1 1034.25,169.4096 L914.55,169.4096 A1.75,1.75 0 0 1 912.8,167.6596 L912.8,100.4596 A1.75,1.75 0 0 1 914.55,98.7096 " fill="#DDDDDD" style="stroke:#000000;stroke-width:1.0499999999999998;"/><line style="stroke:#000000;stroke-width:1.0499999999999998;" x1="912.8" x2="942.2" y1="115.9443" y2="115.9443"/><text fill="#000000" font-family="sans-serif" font-size="9.8" font-weight="bold" lengthAdjust="spacing" textLength="20.3" x="915.6" y="110.6848">DTO</text></g><!--entity UI--><g id="elem_UI"><path d="M5.95,121.4596 L34.65,121.4596 A2.625,2.625 0 0 1 36.4,123.2096 L41.3,136.1596 L51.45,136.1596 A1.75,1.75 0 0 1 53.2,137.9096 L53.2,159.3443 A1.75,1.75 0 0 1 51.45,161.0943 L5.95,161.0943 A1.75,1.75 0 0 1 4.2,159.3443 L4.2,123.2096 A1.75,1.75 0 0 1 5.95,121.4596 " fill="#DDDDDD" style="stroke:#181818;stroke-width:0.3499999999999999;"/><line style="stroke:#181818;stroke-width:0.3499999999999999;" x1="4.2" x2="41.3" y1="136.1596" y2="136.1596"/><text fill="#000000" font-family="sans-serif" font-size="9.8" lengthAdjust="spacing" textLength="8.4" x="11.2" y="151.6348">UI</text></g><!--entity Controller--><g id="elem_Controller"><path d="M79.45,121.4596 L108.15,121.4596 A2.625,2.625 0 0 1 109.9,123.2096 L114.8,136.1596 L140.35,136.1596 A1.75,1.75 0 0 1 142.1,137.9096 L142.1,159.3443 A1.75,1.75 0 0 1 140.35,161.0943 L79.45,161.0943 A1.75,1.75 0 0 1 77.7,159.3443 L77.7,123.2096 A1.75,1.75 0 0 1 79.45,121.4596 " fill="#DDDDDD" style="stroke:#181818;stroke-width:0.3499999999999999;"/><line style="stroke:#181818;stroke-width:0.3499999999999999;" x1="77.7" x2="114.8" y1="136.1596" y2="136.1596"/><text fill="#000000" font-family="sans-serif" font-size="9.8" lengthAdjust="spacing" textLength="43.4" x="84.7" y="151.6348">Controller</text></g><!--class Repositories--><g id="elem_Repositories"><rect codeLine="24" fill="#F1F1F1" height="72.7043" id="Repositories" rx="1.75" ry="1.75" style="stroke:#181818;stroke-width:0.3499999999999999;" width="135.8" x="631.4" y="105.0096"/><ellipse cx="668.675" cy="116.2096" fill="#ADD1B2" rx="7.7" ry="7.7" style="stroke:#181818;stroke-width:0.6999999999999998;"/><path d="M670.6109,113.3221 Q670.7203,113.1689 670.8516,113.0924 Q670.9828,113.0158 671.1359,113.0158 Q671.3984,113.0158 671.5625,113.2018 Q671.7266,113.3768 671.7266,113.8033 L671.7266,114.8205 Q671.7266,115.2471 671.5625,115.433 Q671.3984,115.6189 671.1359,115.6189 Q670.8953,115.6189 670.7531,115.4768 Q670.6109,115.3455 670.5344,114.9846 Q670.5016,114.733 670.3703,114.6018 Q670.1406,114.3393 669.7141,114.1861 Q669.2875,114.033 668.85,114.033 Q668.3141,114.033 667.8656,114.2627 Q667.4281,114.4924 667.0781,115.0174 Q666.7391,115.5424 666.7391,116.2643 L666.7391,117.0299 Q666.7391,117.8939 667.3625,118.4736 Q667.9859,119.0424 669.1016,119.0424 Q669.7578,119.0424 670.2172,118.8674 Q670.4906,118.758 670.7859,118.4518 Q670.9719,118.2658 671.0703,118.2111 Q671.1797,118.1564 671.3219,118.1564 Q671.5516,118.1564 671.7266,118.3424 Q671.9125,118.5174 671.9125,118.758 Q671.9125,118.9986 671.6719,119.283 Q671.3219,119.6877 670.7641,119.9174 Q670.0094,120.2346 669.1016,120.2346 Q668.0406,120.2346 667.1984,119.7971 Q666.5094,119.4471 666.0281,118.7033 Q665.5469,117.9486 665.5469,117.0518 L665.5469,116.2424 Q665.5469,115.3127 665.9734,114.5143 Q666.4109,113.7049 667.1766,113.2783 Q667.9422,112.8408 668.8062,112.8408 Q669.3203,112.8408 669.7687,112.9611 Q670.2281,113.0705 670.6109,113.3221 Z " fill="#000000"/><text fill="#000000" font-family="sans-serif" font-size="9.8" lengthAdjust="spacing" textLength="55.3" x="683.025" y="120.2674">Repositories</text><line style="stroke:#181818;stroke-width:0.3499999999999999;" x1="632.1" x2="766.5" y1="127.4096" y2="127.4096"/><line style="stroke:#181818;stroke-width:0.3499999999999999;" x1="632.1" x2="766.5" y1="133.0096" y2="133.0096"/><text fill="#000000" font-family="sans-serif" font-size="9.8" lengthAdjust="spacing" textLength="65.8" x="635.6" y="146.3848">-Repositories()</text><text fill="#000000" font-family="sans-serif" font-size="9.8" lengthAdjust="spacing" textLength="127.4" x="635.6" y="159.4195">+getInstance() : Repositories</text><text fill="#000000" font-family="sans-serif" font-size="9.8" lengthAdjust="spacing" textLength="66.5" x="635.6" y="172.4543">+getToDoList()</text></g><!--class ToDoList--><g id="elem_ToDoList"><rect codeLine="30" fill="#F1F1F1" height="46.6348" id="ToDoList" rx="1.75" ry="1.75" style="stroke:#181818;stroke-width:0.3499999999999999;" width="105.7" x="714.35" y="259.0096"/><ellipse cx="744.38" cy="270.2096" fill="#ADD1B2" rx="7.7" ry="7.7" style="stroke:#181818;stroke-width:0.6999999999999998;"/><path d="M746.3159,267.3221 Q746.4253,267.1689 746.5566,267.0924 Q746.6878,267.0158 746.8409,267.0158 Q747.1034,267.0158 747.2675,267.2018 Q747.4316,267.3768 747.4316,267.8033 L747.4316,268.8205 Q747.4316,269.2471 747.2675,269.433 Q747.1034,269.6189 746.8409,269.6189 Q746.6003,269.6189 746.4581,269.4768 Q746.3159,269.3455 746.2394,268.9846 Q746.2066,268.733 746.0753,268.6018 Q745.8456,268.3393 745.4191,268.1861 Q744.9925,268.033 744.555,268.033 Q744.0191,268.033 743.5706,268.2627 Q743.1331,268.4924 742.7831,269.0174 Q742.4441,269.5424 742.4441,270.2643 L742.4441,271.0299 Q742.4441,271.8939 743.0675,272.4736 Q743.6909,273.0424 744.8066,273.0424 Q745.4628,273.0424 745.9222,272.8674 Q746.1956,272.758 746.4909,272.4518 Q746.6769,272.2658 746.7753,272.2111 Q746.8847,272.1564 747.0269,272.1564 Q747.2566,272.1564 747.4316,272.3424 Q747.6175,272.5174 747.6175,272.758 Q747.6175,272.9986 747.3769,273.283 Q747.0269,273.6877 746.4691,273.9174 Q745.7144,274.2346 744.8066,274.2346 Q743.7456,274.2346 742.9034,273.7971 Q742.2144,273.4471 741.7331,272.7033 Q741.2519,271.9486 741.2519,271.0518 L741.2519,270.2424 Q741.2519,269.3127 741.6784,268.5143 Q742.1159,267.7049 742.8816,267.2783 Q743.6472,266.8408 744.5112,266.8408 Q745.0253,266.8408 745.4737,266.9611 Q745.9331,267.0705 746.3159,267.3221 Z " fill="#000000"/><text fill="#000000" font-family="sans-serif" font-size="9.8" lengthAdjust="spacing" textLength="39.9" x="758.52" y="274.2674">ToDoList</text><line style="stroke:#181818;stroke-width:0.3499999999999999;" x1="715.05" x2="819.35" y1="281.4096" y2="281.4096"/><line style="stroke:#181818;stroke-width:0.3499999999999999;" x1="715.05" x2="819.35" y1="287.0096" y2="287.0096"/><text fill="#000000" font-family="sans-serif" font-size="9.8" lengthAdjust="spacing" textLength="97.3" x="718.55" y="300.3848">+getToDoListEntries()</text></g><!--class Entry--><g id="elem_Entry"><rect codeLine="34" fill="#F1F1F1" height="59.6695" id="Entry" rx="1.75" ry="1.75" style="stroke:#181818;stroke-width:0.3499999999999999;" width="130.2" x="559.3" y="252.7096"/><ellipse cx="609.875" cy="263.9096" fill="#ADD1B2" rx="7.7" ry="7.7" style="stroke:#181818;stroke-width:0.6999999999999998;"/><path d="M611.8109,261.0221 Q611.9203,260.8689 612.0516,260.7924 Q612.1828,260.7158 612.3359,260.7158 Q612.5984,260.7158 612.7625,260.9018 Q612.9266,261.0768 612.9266,261.5033 L612.9266,262.5205 Q612.9266,262.9471 612.7625,263.133 Q612.5984,263.3189 612.3359,263.3189 Q612.0953,263.3189 611.9531,263.1768 Q611.8109,263.0455 611.7344,262.6846 Q611.7016,262.433 611.5703,262.3018 Q611.3406,262.0393 610.9141,261.8861 Q610.4875,261.733 610.05,261.733 Q609.5141,261.733 609.0656,261.9627 Q608.6281,262.1924 608.2781,262.7174 Q607.9391,263.2424 607.9391,263.9643 L607.9391,264.7299 Q607.9391,265.5939 608.5625,266.1736 Q609.1859,266.7424 610.3016,266.7424 Q610.9578,266.7424 611.4172,266.5674 Q611.6906,266.458 611.9859,266.1518 Q612.1719,265.9658 612.2703,265.9111 Q612.3797,265.8564 612.5219,265.8564 Q612.7516,265.8564 612.9266,266.0424 Q613.1125,266.2174 613.1125,266.458 Q613.1125,266.6986 612.8719,266.983 Q612.5219,267.3877 611.9641,267.6174 Q611.2094,267.9346 610.3016,267.9346 Q609.2406,267.9346 608.3984,267.4971 Q607.7094,267.1471 607.2281,266.4033 Q606.7469,265.6486 606.7469,264.7518 L606.7469,263.9424 Q606.7469,263.0127 607.1734,262.2143 Q607.6109,261.4049 608.3766,260.9783 Q609.1422,260.5408 610.0062,260.5408 Q610.5203,260.5408 610.9687,260.6611 Q611.4281,260.7705 611.8109,261.0221 Z " fill="#000000"/><text fill="#000000" font-family="sans-serif" font-size="9.8" lengthAdjust="spacing" textLength="23.1" x="624.225" y="267.9674">Entry</text><line style="stroke:#181818;stroke-width:0.3499999999999999;" x1="560" x2="688.8" y1="275.1096" y2="275.1096"/><text fill="#000000" font-family="sans-serif" font-size="9.8" lengthAdjust="spacing" textLength="51.8" x="563.5" y="288.4848">-task : Task</text><text fill="#000000" font-family="sans-serif" font-size="9.8" lengthAdjust="spacing" textLength="121.8" x="563.5" y="301.5195">-greenSpace : GreenSpace</text><line style="stroke:#181818;stroke-width:0.3499999999999999;" x1="560" x2="688.8" y1="306.7791" y2="306.7791"/></g><!--class GreenSpace--><g id="elem_GreenSpace"><rect codeLine="39" fill="#F1F1F1" height="72.7043" id="GreenSpace" rx="1.75" ry="1.75" style="stroke:#181818;stroke-width:0.3499999999999999;" width="127.4" x="407.4" y="246.0596"/><ellipse cx="440.125" cy="257.2596" fill="#ADD1B2" rx="7.7" ry="7.7" style="stroke:#181818;stroke-width:0.6999999999999998;"/><path d="M442.0609,254.3721 Q442.1703,254.2189 442.3016,254.1424 Q442.4328,254.0658 442.5859,254.0658 Q442.8484,254.0658 443.0125,254.2518 Q443.1766,254.4268 443.1766,254.8533 L443.1766,255.8705 Q443.1766,256.2971 443.0125,256.483 Q442.8484,256.6689 442.5859,256.6689 Q442.3453,256.6689 442.2031,256.5268 Q442.0609,256.3955 441.9844,256.0346 Q441.9516,255.783 441.8203,255.6518 Q441.5906,255.3893 441.1641,255.2361 Q440.7375,255.083 440.3,255.083 Q439.7641,255.083 439.3156,255.3127 Q438.8781,255.5424 438.5281,256.0674 Q438.1891,256.5924 438.1891,257.3143 L438.1891,258.0799 Q438.1891,258.9439 438.8125,259.5236 Q439.4359,260.0924 440.5516,260.0924 Q441.2078,260.0924 441.6672,259.9174 Q441.9406,259.808 442.2359,259.5018 Q442.4219,259.3158 442.5203,259.2611 Q442.6297,259.2064 442.7719,259.2064 Q443.0016,259.2064 443.1766,259.3924 Q443.3625,259.5674 443.3625,259.808 Q443.3625,260.0486 443.1219,260.333 Q442.7719,260.7377 442.2141,260.9674 Q441.4594,261.2846 440.5516,261.2846 Q439.4906,261.2846 438.6484,260.8471 Q437.9594,260.4971 437.4781,259.7533 Q436.9969,258.9986 436.9969,258.1018 L436.9969,257.2924 Q436.9969,256.3627 437.4234,255.5643 Q437.8609,254.7549 438.6266,254.3283 Q439.3922,253.8908 440.2562,253.8908 Q440.7703,253.8908 441.2187,254.0111 Q441.6781,254.1205 442.0609,254.3721 Z " fill="#000000"/><text fill="#000000" font-family="sans-serif" font-size="9.8" lengthAdjust="spacing" textLength="56" x="454.475" y="261.3174">GreenSpace</text><line style="stroke:#181818;stroke-width:0.3499999999999999;" x1="408.1" x2="534.1" y1="268.4596" y2="268.4596"/><text fill="#000000" font-family="sans-serif" font-size="9.8" lengthAdjust="spacing" textLength="62.3" x="411.6" y="281.8348">-name : String</text><text fill="#000000" font-family="sans-serif" font-size="9.8" lengthAdjust="spacing" textLength="62.3" x="411.6" y="294.8695">-area : double</text><line style="stroke:#181818;stroke-width:0.3499999999999999;" x1="408.1" x2="534.1" y1="300.1291" y2="300.1291"/><text fill="#000000" font-family="sans-serif" font-size="9.8" lengthAdjust="spacing" textLength="119" x="411.6" y="313.5043">+GreenSpace(name, area)</text></g><!--class Task--><g id="elem_Task"><rect codeLine="45" fill="#F1F1F1" height="98.7738" id="Task" rx="1.75" ry="1.75" style="stroke:#181818;stroke-width:0.3499999999999999;" width="201.6" x="181.3" y="233.1096"/><ellipse cx="268.275" cy="244.3096" fill="#ADD1B2" rx="7.7" ry="7.7" style="stroke:#181818;stroke-width:0.6999999999999998;"/><path d="M270.2109,241.4221 Q270.3203,241.2689 270.4516,241.1924 Q270.5828,241.1158 270.7359,241.1158 Q270.9984,241.1158 271.1625,241.3018 Q271.3266,241.4768 271.3266,241.9033 L271.3266,242.9205 Q271.3266,243.3471 271.1625,243.533 Q270.9984,243.7189 270.7359,243.7189 Q270.4953,243.7189 270.3531,243.5768 Q270.2109,243.4455 270.1344,243.0846 Q270.1016,242.833 269.9703,242.7018 Q269.7406,242.4393 269.3141,242.2861 Q268.8875,242.133 268.45,242.133 Q267.9141,242.133 267.4656,242.3627 Q267.0281,242.5924 266.6781,243.1174 Q266.3391,243.6424 266.3391,244.3643 L266.3391,245.1299 Q266.3391,245.9939 266.9625,246.5736 Q267.5859,247.1424 268.7016,247.1424 Q269.3578,247.1424 269.8172,246.9674 Q270.0906,246.858 270.3859,246.5518 Q270.5719,246.3658 270.6703,246.3111 Q270.7797,246.2564 270.9219,246.2564 Q271.1516,246.2564 271.3266,246.4424 Q271.5125,246.6174 271.5125,246.858 Q271.5125,247.0986 271.2719,247.383 Q270.9219,247.7877 270.3641,248.0174 Q269.6094,248.3346 268.7016,248.3346 Q267.6406,248.3346 266.7984,247.8971 Q266.1094,247.5471 265.6281,246.8033 Q265.1469,246.0486 265.1469,245.1518 L265.1469,244.3424 Q265.1469,243.4127 265.5734,242.6143 Q266.0109,241.8049 266.7766,241.3783 Q267.5422,240.9408 268.4062,240.9408 Q268.9203,240.9408 269.3687,241.0611 Q269.8281,241.1705 270.2109,241.4221 Z " fill="#000000"/><text fill="#000000" font-family="sans-serif" font-size="9.8" lengthAdjust="spacing" textLength="21.7" x="282.625" y="248.3674">Task</text><line style="stroke:#181818;stroke-width:0.3499999999999999;" x1="182" x2="382.2" y1="255.5096" y2="255.5096"/><text fill="#000000" font-family="sans-serif" font-size="9.8" lengthAdjust="spacing" textLength="86.1" x="185.5" y="268.8848">-description : String</text><text fill="#000000" font-family="sans-serif" font-size="9.8" lengthAdjust="spacing" textLength="58.8" x="185.5" y="281.9195">-team : Team</text><text fill="#000000" font-family="sans-serif" font-size="9.8" lengthAdjust="spacing" textLength="106.4" x="185.5" y="294.9543">-vehicles : List&lt;Vehicle&gt;</text><text fill="#000000" font-family="sans-serif" font-size="9.8" lengthAdjust="spacing" textLength="69.3" x="185.5" y="307.9891">-duration : Date</text><line style="stroke:#181818;stroke-width:0.3499999999999999;" x1="182" x2="382.2" y1="313.2486" y2="313.2486"/><text fill="#000000" font-family="sans-serif" font-size="9.8" lengthAdjust="spacing" textLength="193.2" x="185.5" y="326.6238">+Task(description, team, vehicles, duration)</text></g><!--class ToDoListEntry--><g id="elem_ToDoListEntry"><rect codeLine="53" fill="#F1F1F1" height="85.7391" id="ToDoListEntry" rx="1.75" ry="1.75" style="stroke:#181818;stroke-width:0.3499999999999999;" width="161.7" x="439.25" y="387.1096"/><ellipse cx="485.625" cy="398.3096" fill="#ADD1B2" rx="7.7" ry="7.7" style="stroke:#181818;stroke-width:0.6999999999999998;"/><path d="M487.5609,395.4221 Q487.6703,395.2689 487.8016,395.1924 Q487.9328,395.1158 488.0859,395.1158 Q488.3484,395.1158 488.5125,395.3018 Q488.6766,395.4768 488.6766,395.9033 L488.6766,396.9205 Q488.6766,397.3471 488.5125,397.533 Q488.3484,397.7189 488.0859,397.7189 Q487.8453,397.7189 487.7031,397.5768 Q487.5609,397.4455 487.4844,397.0846 Q487.4516,396.833 487.3203,396.7018 Q487.0906,396.4393 486.6641,396.2861 Q486.2375,396.133 485.8,396.133 Q485.2641,396.133 484.8156,396.3627 Q484.3781,396.5924 484.0281,397.1174 Q483.6891,397.6424 483.6891,398.3643 L483.6891,399.1299 Q483.6891,399.9939 484.3125,400.5736 Q484.9359,401.1424 486.0516,401.1424 Q486.7078,401.1424 487.1672,400.9674 Q487.4406,400.858 487.7359,400.5518 Q487.9219,400.3658 488.0203,400.3111 Q488.1297,400.2564 488.2719,400.2564 Q488.5016,400.2564 488.6766,400.4424 Q488.8625,400.6174 488.8625,400.858 Q488.8625,401.0986 488.6219,401.383 Q488.2719,401.7877 487.7141,402.0174 Q486.9594,402.3346 486.0516,402.3346 Q484.9906,402.3346 484.1484,401.8971 Q483.4594,401.5471 482.9781,400.8033 Q482.4969,400.0486 482.4969,399.1518 L482.4969,398.3424 Q482.4969,397.4127 482.9234,396.6143 Q483.3609,395.8049 484.1266,395.3783 Q484.8922,394.9408 485.7562,394.9408 Q486.2703,394.9408 486.7187,395.0611 Q487.1781,395.1705 487.5609,395.4221 Z " fill="#000000"/><text fill="#000000" font-family="sans-serif" font-size="9.8" lengthAdjust="spacing" textLength="63" x="499.975" y="402.3674">ToDoListEntry</text><line style="stroke:#181818;stroke-width:0.3499999999999999;" x1="439.95" x2="600.25" y1="409.5096" y2="409.5096"/><text fill="#000000" font-family="sans-serif" font-size="9.8" lengthAdjust="spacing" textLength="51.8" x="443.45" y="422.8848">-task : Task</text><text fill="#000000" font-family="sans-serif" font-size="9.8" lengthAdjust="spacing" textLength="121.8" x="443.45" y="435.9195">-greenSpace : GreenSpace</text><text fill="#000000" font-family="sans-serif" font-size="9.8" lengthAdjust="spacing" textLength="66.5" x="443.45" y="448.9543">-priority : enum</text><line style="stroke:#181818;stroke-width:0.3499999999999999;" x1="439.95" x2="600.25" y1="454.2139" y2="454.2139"/><text fill="#000000" font-family="sans-serif" font-size="9.8" lengthAdjust="spacing" textLength="153.3" x="443.45" y="467.5891">+ToDoListEntry(task, greenSpace)</text></g><!--class ToDoListMapper--><g id="elem_ToDoListMapper"><rect codeLine="62" fill="#F1F1F1" height="59.6695" id="ToDoListMapper" rx="1.75" ry="1.75" style="stroke:#181818;stroke-width:0.3499999999999999;" width="259" x="844.9" y="252.7096"/><ellipse cx="934.675" cy="263.9096" fill="#ADD1B2" rx="7.7" ry="7.7" style="stroke:#181818;stroke-width:0.6999999999999998;"/><path d="M936.6109,261.0221 Q936.7203,260.8689 936.8516,260.7924 Q936.9828,260.7158 937.1359,260.7158 Q937.3984,260.7158 937.5625,260.9018 Q937.7266,261.0768 937.7266,261.5033 L937.7266,262.5205 Q937.7266,262.9471 937.5625,263.133 Q937.3984,263.3189 937.1359,263.3189 Q936.8953,263.3189 936.7531,263.1768 Q936.6109,263.0455 936.5344,262.6846 Q936.5016,262.433 936.3703,262.3018 Q936.1406,262.0393 935.7141,261.8861 Q935.2875,261.733 934.85,261.733 Q934.3141,261.733 933.8656,261.9627 Q933.4281,262.1924 933.0781,262.7174 Q932.7391,263.2424 932.7391,263.9643 L932.7391,264.7299 Q932.7391,265.5939 933.3625,266.1736 Q933.9859,266.7424 935.1016,266.7424 Q935.7578,266.7424 936.2172,266.5674 Q936.4906,266.458 936.7859,266.1518 Q936.9719,265.9658 937.0703,265.9111 Q937.1797,265.8564 937.3219,265.8564 Q937.5516,265.8564 937.7266,266.0424 Q937.9125,266.2174 937.9125,266.458 Q937.9125,266.6986 937.6719,266.983 Q937.3219,267.3877 936.7641,267.6174 Q936.0094,267.9346 935.1016,267.9346 Q934.0406,267.9346 933.1984,267.4971 Q932.5094,267.1471 932.0281,266.4033 Q931.5469,265.6486 931.5469,264.7518 L931.5469,263.9424 Q931.5469,263.0127 931.9734,262.2143 Q932.4109,261.4049 933.1766,260.9783 Q933.9422,260.5408 934.8062,260.5408 Q935.3203,260.5408 935.7687,260.6611 Q936.2281,260.7705 936.6109,261.0221 Z " fill="#000000"/><text fill="#000000" font-family="sans-serif" font-size="9.8" lengthAdjust="spacing" textLength="73.5" x="949.025" y="267.9674">ToDoListMapper</text><line style="stroke:#181818;stroke-width:0.3499999999999999;" x1="845.6" x2="1103.2" y1="275.1096" y2="275.1096"/><line style="stroke:#181818;stroke-width:0.3499999999999999;" x1="845.6" x2="1103.2" y1="280.7096" y2="280.7096"/><text fill="#000000" font-family="sans-serif" font-size="9.8" lengthAdjust="spacing" textLength="250.6" x="849.1" y="294.0848">+toDoListEntriesToDto(entries) : List&lt;ToDoListEntryDto&gt;</text><text fill="#000000" font-family="sans-serif" font-size="9.8" lengthAdjust="spacing" textLength="188.3" x="849.1" y="307.1195">+toDTO(toDoListEntry) : ToDoListEntryDto</text></g><!--class ToDoListEntryDto--><g id="elem_ToDoListEntryDto"><rect codeLine="68" fill="#F1F1F1" height="33.6" id="ToDoListEntryDto" rx="1.75" ry="1.75" style="stroke:#181818;stroke-width:0.3499999999999999;" width="100.8" x="924" y="124.6096"/><ellipse cx="934.5" cy="135.8096" fill="#ADD1B2" rx="7.7" ry="7.7" style="stroke:#181818;stroke-width:0.6999999999999998;"/><path d="M936.4359,132.9221 Q936.5453,132.7689 936.6766,132.6924 Q936.8078,132.6158 936.9609,132.6158 Q937.2234,132.6158 937.3875,132.8018 Q937.5516,132.9768 937.5516,133.4033 L937.5516,134.4205 Q937.5516,134.8471 937.3875,135.033 Q937.2234,135.2189 936.9609,135.2189 Q936.7203,135.2189 936.5781,135.0768 Q936.4359,134.9455 936.3594,134.5846 Q936.3266,134.333 936.1953,134.2018 Q935.9656,133.9393 935.5391,133.7861 Q935.1125,133.633 934.675,133.633 Q934.1391,133.633 933.6906,133.8627 Q933.2531,134.0924 932.9031,134.6174 Q932.5641,135.1424 932.5641,135.8643 L932.5641,136.6299 Q932.5641,137.4939 933.1875,138.0736 Q933.8109,138.6424 934.9266,138.6424 Q935.5828,138.6424 936.0422,138.4674 Q936.3156,138.358 936.6109,138.0518 Q936.7969,137.8658 936.8953,137.8111 Q937.0047,137.7564 937.1469,137.7564 Q937.3766,137.7564 937.5516,137.9424 Q937.7375,138.1174 937.7375,138.358 Q937.7375,138.5986 937.4969,138.883 Q937.1469,139.2877 936.5891,139.5174 Q935.8344,139.8346 934.9266,139.8346 Q933.8656,139.8346 933.0234,139.3971 Q932.3344,139.0471 931.8531,138.3033 Q931.3719,137.5486 931.3719,136.6518 L931.3719,135.8424 Q931.3719,134.9127 931.7984,134.1143 Q932.2359,133.3049 933.0016,132.8783 Q933.7672,132.4408 934.6312,132.4408 Q935.1453,132.4408 935.5937,132.5611 Q936.0531,132.6705 936.4359,132.9221 Z " fill="#000000"/><text fill="#000000" font-family="sans-serif" font-size="9.8" lengthAdjust="spacing" textLength="78.4" x="944.3" y="139.8674">ToDoListEntryDto</text><line style="stroke:#181818;stroke-width:0.3499999999999999;" x1="924.7" x2="1024.1" y1="147.0096" y2="147.0096"/><line style="stroke:#181818;stroke-width:0.3499999999999999;" x1="924.7" x2="1024.1" y1="152.6096" y2="152.6096"/></g><!--link Repositories to Repositories--><g id="link_Repositories_Repositories"><path codeLine="71" d="M767.396,130.0136 C781.536,131.2106 791.7,135.0116 791.7,141.4096 C791.7,147.8076 785.721,151.2543 771.581,152.4513 " fill="none" id="Repositories-to-Repositories" style="stroke:#181818;stroke-width:0.6999999999999998;"/><polygon fill="#181818" points="767.396,152.8056,773.9097,155.0642,770.8835,152.5103,773.4374,149.4841,767.396,152.8056" style="stroke:#181818;stroke-width:0.6999999999999998;"/><text fill="#000000" font-family="sans-serif" font-size="9.1" lengthAdjust="spacing" textLength="34.3" x="795.9" y="145.2794">instance</text></g><!--link Repositories to ToDoList--><g id="link_Repositories_ToDoList"><path codeLine="72" d="M716.695,177.8936 C729.113,203.4296 743.6082,233.231 754.2832,255.197 " fill="none" id="Repositories-to-ToDoList" style="stroke:#181818;stroke-width:0.6999999999999998;"/><polygon fill="#181818" points="756.119,258.9746,755.8837,252.0844,754.5892,255.8266,750.8469,254.5321,756.119,258.9746" style="stroke:#181818;stroke-width:0.6999999999999998;"/><text fill="#000000" font-family="sans-serif" font-size="9.1" lengthAdjust="spacing" textLength="4.9" x="748.5551" y="251.1455">1</text></g><!--link ToDoList to ToDoListEntry--><g id="link_ToDoList_ToDoListEntry"><path codeLine="75" d="M736.75,305.9166 C719.803,318.5796 702.1,331.8096 702.1,331.8096 C702.1,331.8096 651.7639,358.7183 602.5749,385.0173 " fill="none" id="ToDoList-to-ToDoListEntry" style="stroke:#181818;stroke-width:0.6999999999999998;"/><polygon fill="#181818" points="598.871,386.9976,605.747,386.4964,601.9575,385.3473,603.1066,381.5579,598.871,386.9976" style="stroke:#181818;stroke-width:0.6999999999999998;"/><text fill="#000000" font-family="sans-serif" font-size="9.1" lengthAdjust="spacing" textLength="14.7" x="662.9" y="363.3294">has</text></g><!--link GreenSpace to ToDoListEntry--><g id="link_GreenSpace_ToDoListEntry"><path codeLine="76" d="M483.084,318.8596 C490,339.4536 496.0556,357.4953 503.3006,379.0763 " fill="none" id="GreenSpace-to-ToDoListEntry" style="stroke:#181818;stroke-width:0.6999999999999998;"/><polygon fill="none" points="505.974,387.0396,507.2917,382.1668,503.3006,379.0763,501.9829,383.9491,505.974,387.0396" style="stroke:#181818;stroke-width:0.6999999999999998;"/><text fill="#000000" font-family="sans-serif" font-size="9.1" lengthAdjust="spacing" textLength="14.7" x="499.1" y="363.3294">has</text></g><!--link Task to ToDoListEntry--><g id="link_Task_ToDoListEntry"><path codeLine="77" d="M361.683,331.9636 C390.803,349.8206 416.3115,365.4629 444.3885,382.6829 " fill="none" id="Task-to-ToDoListEntry" style="stroke:#181818;stroke-width:0.6999999999999998;"/><polygon fill="none" points="451.549,387.0746,449.4326,382.4919,444.3885,382.6829,446.5048,387.2656,451.549,387.0746" style="stroke:#181818;stroke-width:0.6999999999999998;"/><text fill="#000000" font-family="sans-serif" font-size="9.1" lengthAdjust="spacing" textLength="14.7" x="415.8" y="363.3294">has</text></g><!--link ToDoListEntryDto to ToDoListMapper--><g id="link_ToDoListEntryDto_ToDoListMapper"><path codeLine="78" d="M974.4,158.4056 C974.4,181.4986 974.4,219.9216 974.4,248.5096 " fill="none" id="ToDoListEntryDto-to-ToDoListMapper" style="stroke:#181818;stroke-width:0.6999999999999998;stroke-dasharray:7.0,7.0;"/><polygon fill="#181818" points="974.4,252.7096,977.2,246.4096,974.4,249.2096,971.6,246.4096,974.4,252.7096" style="stroke:#181818;stroke-width:0.6999999999999998;"/><text fill="#000000" font-family="sans-serif" font-size="9.1" lengthAdjust="spacing" textLength="69.3" x="975.1" y="209.3294">toDoListEntryDto</text></g><!--link Entry to ToDoListEntry--><g id="link_Entry_ToDoListEntry"><path codeLine="79" d="M603.547,312.3426 C588.266,333.7206 574.6272,352.8064 557.5332,376.7254 " fill="none" id="Entry-to-ToDoListEntry" style="stroke:#181818;stroke-width:0.6999999999999998;"/><polygon fill="none" points="550.207,386.9766,560.9502,379.1674,554.1161,374.2833,550.207,386.9766" style="stroke:#181818;stroke-width:0.6999999999999998;"/><text fill="#000000" font-family="sans-serif" font-size="9.1" lengthAdjust="spacing" textLength="32.2" x="572.6" y="363.3294">extends</text></g><!--SRC=[dLDDZzCm4BtxLrZbq5GaAxXMLQGL1LG9j18jtBt9R6hLiIDx2WJO_yuu7qxSRIL4Bf7Vl7dpPZnUkfFKZR2YvhNHfZXQKmD7UmOsHHfHd4G5UsmLS0i52bsfES4THMb-I5tn9w7SFAAa1cmRu8rHhJ-mvPMWiMZOBAjGmhbxH2iVpmYxmkYz_0Ny3MDB1K_8qN0hgoFoKdexqcZ61fDyyNMtu9lD1wDAi7dENssxZ_zcx7d6UcSqMgCKs5liYBurjP3w5ZNGla1Zd4HZsrlKhZKUU18SePo-B0AJLGU-vXNWJZkQU079YgyZqaGvcAtv91rIslDOOyG6_OZtdfhlgmIwXzhW1OKxKRK3_GQaiW1wJvq2uH_3OHAOiA2YHUtPUogcgm4J5WHXfJa_qWxrpgRKnAUa7MdUYdSpYfRW2YiRV-kNsWYqFEIQVWFo7OwoK3JaDVTzRxxrvtpKEbin26q5ZdPykMHM9ks4qo2MXhmhu_xVEVRHnagwMcmf1lfSZuRcsedNJ6SwdObf1p-BfhcvrR7NdZek2CRBGIGq2VI7rJZ0o0eHyf1xU4Zc2grFkMJ7R-hmy4yknsGAK7hqTB8iZz_IcilXjRmaBjukWYODBBmF7ujlRysFmh7PGcUPkKhf5lDcyDB_tLr-EVernyiHzH9PzkUbA_Y9e4l7_W80]--></g></svg>