<?xml version="1.0" encoding="us-ascii" standalone="no"?><svg xmlns="http://www.w3.org/2000/svg" xmlns:xlink="http://www.w3.org/1999/xlink" contentStyleType="text/css" height="525px" preserveAspectRatio="none" style="width:406px;height:525px;background:#FFFFFF;" version="1.1" viewBox="0 0 406 525" width="406px" zoomAndPan="magnify"><defs/><g><text fill="#000000" font-family="sans-serif" font-size="14" font-weight="bold" lengthAdjust="spacing" textLength="351" x="26.5" y="30.1074">System Sequence Diagram (SSD) - Alternative One</text><rect fill="#FFFFFF" height="188.7461" style="stroke:#181818;stroke-width:1.0;" width="10" x="31" y="189.1055"/><rect fill="#FFFFFF" height="31.291" style="stroke:#181818;stroke-width:1.0;" width="10" x="363" y="212.3965"/><rect fill="#FFFFFF" height="31.291" style="stroke:#181818;stroke-width:1.0;" width="10" x="363" y="274.9785"/><rect fill="#FFFFFF" height="31.291" style="stroke:#181818;stroke-width:1.0;" width="10" x="363" y="337.5605"/><line style="stroke:#181818;stroke-width:0.5;stroke-dasharray:5.0,5.0;" x1="36" x2="36" y1="179.1055" y2="386.8516"/><line style="stroke:#181818;stroke-width:0.5;stroke-dasharray:5.0,5.0;" x1="368" x2="368" y1="179.1055" y2="386.8516"/><text fill="#000000" font-family="sans-serif" font-size="14" lengthAdjust="spacing" textLength="46" x="10" y="119.7285">Vehicle</text><text fill="#000000" font-family="sans-serif" font-size="14" lengthAdjust="spacing" textLength="32" x="17" y="138.3496">Fleet</text><text fill="#000000" font-family="sans-serif" font-size="14" lengthAdjust="spacing" textLength="56" x="5" y="156.9707">Manager</text><text fill="#000000" font-family="sans-serif" font-size="14" lengthAdjust="spacing" textLength="39" x="13.5" y="175.5918">(VFM)</text><ellipse cx="36" cy="53.1211" fill="#E3E3E3" rx="8" ry="8" style="stroke:#181818;stroke-width:0.5;"/><path d="M36,61.1211 L36,88.1211 M23,69.1211 L49,69.1211 M36,88.1211 L23,103.1211 M36,88.1211 L49,103.1211 " fill="none" style="stroke:#181818;stroke-width:0.5;"/><text fill="#000000" font-family="sans-serif" font-size="14" lengthAdjust="spacing" textLength="46" x="10" y="400.959">Vehicle</text><text fill="#000000" font-family="sans-serif" font-size="14" lengthAdjust="spacing" textLength="32" x="17" y="419.5801">Fleet</text><text fill="#000000" font-family="sans-serif" font-size="14" lengthAdjust="spacing" textLength="56" x="5" y="438.2012">Manager</text><text fill="#000000" font-family="sans-serif" font-size="14" lengthAdjust="spacing" textLength="39" x="13.5" y="456.8223">(VFM)</text><ellipse cx="36" cy="468.8359" fill="#E3E3E3" rx="8" ry="8" style="stroke:#181818;stroke-width:0.5;"/><path d="M36,476.8359 L36,503.8359 M23,484.8359 L49,484.8359 M36,503.8359 L23,518.8359 M36,503.8359 L49,518.8359 " fill="none" style="stroke:#181818;stroke-width:0.5;"/><rect fill="#E3E3E3" height="32.6211" rx="2.5" ry="2.5" style="stroke:#181818;stroke-width:0.5;" width="64" x="336" y="145.4844"/><text fill="#000000" font-family="sans-serif" font-size="14" lengthAdjust="spacing" textLength="50" x="343" y="167.5918">:System</text><rect fill="#E3E3E3" height="32.6211" rx="2.5" ry="2.5" style="stroke:#181818;stroke-width:0.5;" width="64" x="336" y="385.8516"/><text fill="#000000" font-family="sans-serif" font-size="14" lengthAdjust="spacing" textLength="50" x="343" y="407.959">:System</text><rect fill="#FFFFFF" height="188.7461" style="stroke:#181818;stroke-width:1.0;" width="10" x="31" y="189.1055"/><rect fill="#FFFFFF" height="31.291" style="stroke:#181818;stroke-width:1.0;" width="10" x="363" y="212.3965"/><rect fill="#FFFFFF" height="31.291" style="stroke:#181818;stroke-width:1.0;" width="10" x="363" y="274.9785"/><rect fill="#FFFFFF" height="31.291" style="stroke:#181818;stroke-width:1.0;" width="10" x="363" y="337.5605"/><polygon fill="#181818" points="351,208.3965,361,212.3965,351,216.3965,355,212.3965" style="stroke:#181818;stroke-width:1.0;"/><line style="stroke:#181818;stroke-width:1.0;" x1="41" x2="357" y1="212.3965" y2="212.3965"/><text fill="#000000" font-family="sans-serif" font-size="13" font-weight="bold" lengthAdjust="spacing" textLength="7" x="48" y="207.1338">1</text><text fill="#000000" font-family="sans-serif" font-size="13" lengthAdjust="spacing" textLength="279" x="59" y="207.1338">asks to list all the vehicles that need a check-up</text><polygon fill="#181818" points="52,239.6875,42,243.6875,52,247.6875,48,243.6875" style="stroke:#181818;stroke-width:1.0;"/><line style="stroke:#181818;stroke-width:1.0;stroke-dasharray:2.0,2.0;" x1="46" x2="367" y1="243.6875" y2="243.6875"/><text fill="#000000" font-family="sans-serif" font-size="13" font-weight="bold" lengthAdjust="spacing" textLength="7" x="58" y="238.4248">2</text><text fill="#000000" font-family="sans-serif" font-size="13" lengthAdjust="spacing" textLength="287" x="69" y="238.4248">shows the list of all vehicles that need a check-up</text><polygon fill="#181818" points="351,270.9785,361,274.9785,351,278.9785,355,274.9785" style="stroke:#181818;stroke-width:1.0;"/><line style="stroke:#181818;stroke-width:1.0;" x1="41" x2="357" y1="274.9785" y2="274.9785"/><text fill="#000000" font-family="sans-serif" font-size="13" font-weight="bold" lengthAdjust="spacing" textLength="7" x="48" y="269.7158">3</text><text fill="#000000" font-family="sans-serif" font-size="13" lengthAdjust="spacing" textLength="231" x="59" y="269.7158">Confirms that he wants to create the list</text><polygon fill="#181818" points="52,302.2695,42,306.2695,52,310.2695,48,306.2695" style="stroke:#181818;stroke-width:1.0;"/><line style="stroke:#181818;stroke-width:1.0;stroke-dasharray:2.0,2.0;" x1="46" x2="367" y1="306.2695" y2="306.2695"/><text fill="#000000" font-family="sans-serif" font-size="13" font-weight="bold" lengthAdjust="spacing" textLength="7" x="58" y="301.0068">4</text><text fill="#000000" font-family="sans-serif" font-size="13" lengthAdjust="spacing" textLength="287" x="69" y="301.0068">shows the list of all vehicles that need a check-up</text><polygon fill="#181818" points="351,333.5605,361,337.5605,351,341.5605,355,337.5605" style="stroke:#181818;stroke-width:1.0;"/><line style="stroke:#181818;stroke-width:1.0;" x1="41" x2="357" y1="337.5605" y2="337.5605"/><text fill="#000000" font-family="sans-serif" font-size="13" font-weight="bold" lengthAdjust="spacing" textLength="7" x="48" y="332.2979">5</text><text fill="#000000" font-family="sans-serif" font-size="13" lengthAdjust="spacing" textLength="92" x="59" y="332.2979">confirms the list</text><polygon fill="#181818" points="52,364.8516,42,368.8516,52,372.8516,48,368.8516" style="stroke:#181818;stroke-width:1.0;"/><line style="stroke:#181818;stroke-width:1.0;stroke-dasharray:2.0,2.0;" x1="46" x2="367" y1="368.8516" y2="368.8516"/><text fill="#000000" font-family="sans-serif" font-size="13" font-weight="bold" lengthAdjust="spacing" textLength="7" x="58" y="363.5889">6</text><text fill="#000000" font-family="sans-serif" font-size="13" lengthAdjust="spacing" textLength="147" x="69" y="363.5889">shows operation success</text><!--SRC=[hP8nRy8m48Lt_ueJ4mpv0moLgbAsgaCa9fQhUIHMd7DgNq3y-vf00gg4gbRrPElktlVUoQbnqd7abjeWmTOnj22DFKoQAXtRXYkKUlAW2AiibRzlI3Nlmj59HNls2SQeqznQdfAYfHAVFSI2LewhS_kyB5SBAkZPAwAmkWFeNV8OzngaRpyGyzrgY3JRe7RMOojh3-XMtbYobRYL-MRzjfWH9tfjEnzEWCbcr5dNiIZDbXVwq76v3fhkm8hRYA5ynXSLJwFdPHvh4caWxv8IUqzQWmuNDxbGiv80EsAoDMnJzDsWDI569btFLRZ8Z8ctp9iBnpH83vom7r0_OtRu3deOv2N8tiNsAfP9nxoV8PgDE0kCzCdgmmp_d-ENMUmjovtdF-qyT8ZvwmMXr5kBb1xirPWl]--></g></svg>