<?xml version="1.0" encoding="us-ascii" standalone="no"?><svg xmlns="http://www.w3.org/2000/svg" xmlns:xlink="http://www.w3.org/1999/xlink" contentStyleType="text/css" height="442px" preserveAspectRatio="none" style="width:457px;height:442px;background:#FFFFFF;" version="1.1" viewBox="0 0 457 442" width="457px" zoomAndPan="magnify"><defs/><g><text fill="#000000" font-family="sans-serif" font-size="14" font-weight="bold" lengthAdjust="spacing" textLength="363" x="48.5" y="28.5352">System Sequence Diagram (SSD) - Alternative One</text><rect fill="#FFFFFF" height="223.4844" style="stroke:#181818;stroke-width:1.0;" width="10" x="96" y="128.9766"/><rect fill="#FFFFFF" height="53.6211" style="stroke:#181818;stroke-width:1.0;" width="10" x="403" y="150.2871"/><rect fill="#FFFFFF" height="36.3105" style="stroke:#181818;stroke-width:1.0;" width="10" x="403" y="248.5293"/><rect fill="#FFFFFF" height="29.3105" style="stroke:#181818;stroke-width:1.0;" width="10" x="403" y="314.1504"/><rect fill="none" height="91.2422" style="stroke:#000000;stroke-width:1.5;" width="441" x="10" y="165.2871"/><line style="stroke:#181818;stroke-width:0.5;stroke-dasharray:5.0,5.0;" x1="101" x2="101" y1="118.9766" y2="361.4609"/><line style="stroke:#181818;stroke-width:0.5;stroke-dasharray:5.0,5.0;" x1="408" x2="408" y1="118.9766" y2="361.4609"/><text fill="#000000" font-family="sans-serif" font-size="14" lengthAdjust="spacing" textLength="156" x="20" y="116.0234">Green Spaces Manager</text><ellipse cx="101" cy="50.9883" fill="#E3E3E3" rx="8" ry="8" style="stroke:#181818;stroke-width:0.5;"/><path d="M101,58.9883 L101,85.9883 M88,66.9883 L114,66.9883 M101,85.9883 L88,100.9883 M101,85.9883 L114,100.9883 " fill="none" style="stroke:#181818;stroke-width:0.5;"/><text fill="#000000" font-family="sans-serif" font-size="14" lengthAdjust="spacing" textLength="156" x="20" y="373.9961">Green Spaces Manager</text><ellipse cx="101" cy="385.4492" fill="#E3E3E3" rx="8" ry="8" style="stroke:#181818;stroke-width:0.5;"/><path d="M101,393.4492 L101,420.4492 M88,401.4492 L114,401.4492 M101,420.4492 L88,435.4492 M101,420.4492 L114,435.4492 " fill="none" style="stroke:#181818;stroke-width:0.5;"/><rect fill="#E3E3E3" height="30.4883" rx="2.5" ry="2.5" style="stroke:#181818;stroke-width:0.5;" width="66" x="375" y="87.4883"/><text fill="#000000" font-family="sans-serif" font-size="14" lengthAdjust="spacing" textLength="52" x="382" y="108.0234">:System</text><rect fill="#E3E3E3" height="30.4883" rx="2.5" ry="2.5" style="stroke:#181818;stroke-width:0.5;" width="66" x="375" y="360.4609"/><text fill="#000000" font-family="sans-serif" font-size="14" lengthAdjust="spacing" textLength="52" x="382" y="380.9961">:System</text><rect fill="#FFFFFF" height="223.4844" style="stroke:#181818;stroke-width:1.0;" width="10" x="96" y="128.9766"/><rect fill="#FFFFFF" height="53.6211" style="stroke:#181818;stroke-width:1.0;" width="10" x="403" y="150.2871"/><rect fill="#FFFFFF" height="36.3105" style="stroke:#181818;stroke-width:1.0;" width="10" x="403" y="248.5293"/><rect fill="#FFFFFF" height="29.3105" style="stroke:#181818;stroke-width:1.0;" width="10" x="403" y="314.1504"/><polygon fill="#181818" points="391,146.2871,401,150.2871,391,154.2871,395,150.2871" style="stroke:#181818;stroke-width:1.0;"/><line style="stroke:#181818;stroke-width:1.0;" x1="106" x2="397" y1="150.2871" y2="150.2871"/><text fill="#000000" font-family="sans-serif" font-size="13" font-weight="bold" lengthAdjust="spacing" textLength="9" x="113" y="145.5449">1</text><text fill="#000000" font-family="sans-serif" font-size="13" lengthAdjust="spacing" textLength="257" x="126" y="145.5449">asks to postpone a entry to a future date</text><path d="M10,165.2871 L84,165.2871 L84,172.5977 L74,182.5977 L10,182.5977 L10,165.2871 " fill="#EEEEEE" style="stroke:#000000;stroke-width:1.5;"/><rect fill="none" height="91.2422" style="stroke:#000000;stroke-width:1.5;" width="441" x="10" y="165.2871"/><text fill="#000000" font-family="sans-serif" font-size="13" font-weight="bold" lengthAdjust="spacing" textLength="29" x="25" y="178.8555">loop</text><polygon fill="#181818" points="117,199.9082,107,203.9082,117,207.9082,113,203.9082" style="stroke:#181818;stroke-width:1.0;"/><line style="stroke:#181818;stroke-width:1.0;stroke-dasharray:2.0,2.0;" x1="111" x2="407" y1="203.9082" y2="203.9082"/><text fill="#000000" font-family="sans-serif" font-size="13" font-weight="bold" lengthAdjust="spacing" textLength="9" x="123" y="199.166">2</text><text fill="#000000" font-family="sans-serif" font-size="13" lengthAdjust="spacing" textLength="154" x="136" y="199.166">shows registered entries</text><polygon fill="#181818" points="391,244.5293,401,248.5293,391,252.5293,395,248.5293" style="stroke:#181818;stroke-width:1.0;"/><line style="stroke:#181818;stroke-width:1.0;" x1="106" x2="397" y1="248.5293" y2="248.5293"/><text fill="#000000" font-family="sans-serif" font-size="13" font-weight="bold" lengthAdjust="spacing" textLength="9" x="113" y="236.1318">3</text><text fill="#000000" font-family="sans-serif" font-size="13" lengthAdjust="spacing" textLength="195" x="126" y="228.4766">chooses entry to postpone and</text><text fill="#000000" font-family="sans-serif" font-size="13" lengthAdjust="spacing" textLength="158" x="126" y="243.7871">the date to be postponed</text><polygon fill="#181818" points="117,280.8398,107,284.8398,117,288.8398,113,284.8398" style="stroke:#181818;stroke-width:1.0;"/><line style="stroke:#181818;stroke-width:1.0;stroke-dasharray:2.0,2.0;" x1="111" x2="407" y1="284.8398" y2="284.8398"/><text fill="#000000" font-family="sans-serif" font-size="13" font-weight="bold" lengthAdjust="spacing" textLength="9" x="123" y="280.0977">4</text><text fill="#000000" font-family="sans-serif" font-size="13" lengthAdjust="spacing" textLength="260" x="136" y="280.0977">shows all data and requests confirmation</text><polygon fill="#181818" points="391,310.1504,401,314.1504,391,318.1504,395,314.1504" style="stroke:#181818;stroke-width:1.0;"/><line style="stroke:#181818;stroke-width:1.0;" x1="106" x2="397" y1="314.1504" y2="314.1504"/><text fill="#000000" font-family="sans-serif" font-size="13" font-weight="bold" lengthAdjust="spacing" textLength="9" x="113" y="309.4082">5</text><text fill="#000000" font-family="sans-serif" font-size="13" lengthAdjust="spacing" textLength="87" x="126" y="309.4082">confirms data</text><polygon fill="#181818" points="117,339.4609,107,343.4609,117,347.4609,113,343.4609" style="stroke:#181818;stroke-width:1.0;"/><line style="stroke:#181818;stroke-width:1.0;" x1="111" x2="407" y1="343.4609" y2="343.4609"/><text fill="#000000" font-family="sans-serif" font-size="13" font-weight="bold" lengthAdjust="spacing" textLength="9" x="123" y="338.7188">6</text><text fill="#000000" font-family="sans-serif" font-size="13" lengthAdjust="spacing" textLength="170" x="136" y="338.7188">displays operation success</text><!--SRC=[VP8zRiCm38LtduB8r0wvG8O21L9qAZfuxSB8Z2r49bMHJk3RLvORft-k9bcFVEyJPJrvZfYmXrvON9Ua9x0qKAMB4j6TiANQna2Go1bo6xuMQ8UDN3otSCIWL5NcBPVMenhrKDFxGEm8zXxRgVokhlVti8N7O9GOpPy9NZctuM32Gt-WbFVE9C7cEH4nr1c155wGCqVQ02eyzJ78I5Hb1FFEHsI3pMxEB1NpjZZvCnhTMYh8w_e5suShwIwtdHHC88fQ52P08BOqJcS8ny66HD1aisAnE5-ZWaWiohG-JRVPVydQvLd9HVCKMv_LH4tnzwIbhQ5VbgkehXFHF9I5xyRC3RonTJFf91reKPk_oObduJze365on1AGfbTLKt32Hv_w_8p2AvTOlSBSgiMr-WFhvoY_GJLUOy1HGIAb4WywkFoVhCto0m00]--></g></svg>