<?xml version="1.0" encoding="us-ascii" standalone="no"?><svg xmlns="http://www.w3.org/2000/svg" xmlns:xlink="http://www.w3.org/1999/xlink" contentStyleType="text/css" height="800px" preserveAspectRatio="none" style="width:891px;height:800px;background:#FFFFFF;" version="1.1" viewBox="0 0 891 800" width="891px" zoomAndPan="magnify"><defs/><g><rect fill="#FFFFFF" height="494.2871" style="stroke:#181818;stroke-width:1.0;" width="10" x="37" y="149.4844"/><rect fill="#FFFFFF" height="31.291" style="stroke:#181818;stroke-width:1.0;" width="10" x="319" y="172.7754"/><rect fill="#FFFFFF" height="31.291" style="stroke:#181818;stroke-width:1.0;" width="10" x="319" y="235.3574"/><rect fill="#FFFFFF" height="345.832" style="stroke:#181818;stroke-width:1.0;" width="10" x="319" y="297.9395"/><rect fill="#FFFFFF" height="283.25" style="stroke:#181818;stroke-width:1.0;" width="10" x="467" y="329.2305"/><rect fill="#FFFFFF" height="31.291" style="stroke:#181818;stroke-width:1.0;" width="10" x="602.5" y="360.5215"/><rect fill="#FFFFFF" height="31.291" style="stroke:#181818;stroke-width:1.0;" width="10" x="707.5" y="423.1035"/><rect fill="#FFFFFF" height="95.5039" style="stroke:#181818;stroke-width:1.0;" width="10" x="821.5" y="485.6855"/><line style="stroke:#181818;stroke-width:0.5;stroke-dasharray:5.0,5.0;" x1="42" x2="42" y1="139.4844" y2="661.7715"/><line style="stroke:#181818;stroke-width:0.5;stroke-dasharray:5.0,5.0;" x1="324" x2="324" y1="139.4844" y2="661.7715"/><line style="stroke:#181818;stroke-width:0.5;stroke-dasharray:5.0,5.0;" x1="472" x2="472" y1="139.4844" y2="661.7715"/><line style="stroke:#181818;stroke-width:0.5;stroke-dasharray:5.0,5.0;" x1="607" x2="607" y1="139.4844" y2="661.7715"/><line style="stroke:#181818;stroke-width:0.5;stroke-dasharray:5.0,5.0;" x1="712" x2="712" y1="139.4844" y2="661.7715"/><line style="stroke:#181818;stroke-width:0.5;stroke-dasharray:5.0,5.0;" x1="826" x2="826" y1="139.4844" y2="661.7715"/><text fill="#000000" font-family="sans-serif" font-size="14" lengthAdjust="spacing" textLength="44" x="17" y="80.1074">Human</text><text fill="#000000" font-family="sans-serif" font-size="14" lengthAdjust="spacing" textLength="68" x="5" y="98.7285">Resources</text><text fill="#000000" font-family="sans-serif" font-size="14" lengthAdjust="spacing" textLength="56" x="11" y="117.3496">Manager</text><text fill="#000000" font-family="sans-serif" font-size="14" lengthAdjust="spacing" textLength="40" x="19" y="135.9707">(HRM)</text><ellipse cx="42" cy="13.5" fill="#E3E3E3" rx="8" ry="8" style="stroke:#181818;stroke-width:0.5;"/><path d="M42,21.5 L42,48.5 M29,29.5 L55,29.5 M42,48.5 L29,63.5 M42,48.5 L55,63.5 " fill="none" style="stroke:#181818;stroke-width:0.5;"/><text fill="#000000" font-family="sans-serif" font-size="14" lengthAdjust="spacing" textLength="44" x="17" y="675.8789">Human</text><text fill="#000000" font-family="sans-serif" font-size="14" lengthAdjust="spacing" textLength="68" x="5" y="694.5">Resources</text><text fill="#000000" font-family="sans-serif" font-size="14" lengthAdjust="spacing" textLength="56" x="11" y="713.1211">Manager</text><text fill="#000000" font-family="sans-serif" font-size="14" lengthAdjust="spacing" textLength="40" x="19" y="731.7422">(HRM)</text><ellipse cx="42" cy="743.7559" fill="#E3E3E3" rx="8" ry="8" style="stroke:#181818;stroke-width:0.5;"/><path d="M42,751.7559 L42,778.7559 M29,759.7559 L55,759.7559 M42,778.7559 L29,793.7559 M42,778.7559 L55,793.7559 " fill="none" style="stroke:#181818;stroke-width:0.5;"/><rect fill="#E3E3E3" height="32.6211" rx="2.5" ry="2.5" style="stroke:#181818;stroke-width:0.5;" width="108" x="270" y="105.8633"/><text fill="#000000" font-family="sans-serif" font-size="14" lengthAdjust="spacing" textLength="94" x="277" y="127.9707">:RegisterSkillUI</text><rect fill="#E3E3E3" height="32.6211" rx="2.5" ry="2.5" style="stroke:#181818;stroke-width:0.5;" width="108" x="270" y="660.7715"/><text fill="#000000" font-family="sans-serif" font-size="14" lengthAdjust="spacing" textLength="94" x="277" y="682.8789">:RegisterSkillUI</text><rect fill="#E3E3E3" height="32.6211" rx="2.5" ry="2.5" style="stroke:#181818;stroke-width:0.5;" width="158" x="393" y="105.8633"/><text fill="#000000" font-family="sans-serif" font-size="14" lengthAdjust="spacing" textLength="144" x="400" y="127.9707">:RegisterSkillController</text><rect fill="#E3E3E3" height="32.6211" rx="2.5" ry="2.5" style="stroke:#181818;stroke-width:0.5;" width="158" x="393" y="660.7715"/><text fill="#000000" font-family="sans-serif" font-size="14" lengthAdjust="spacing" textLength="144" x="400" y="682.8789">:RegisterSkillController</text><rect fill="#E3E3E3" height="32.6211" rx="2.5" ry="2.5" style="stroke:#181818;stroke-width:0.5;" width="93" x="561" y="105.8633"/><text fill="#000000" font-family="sans-serif" font-size="14" lengthAdjust="spacing" textLength="79" x="568" y="127.9707">Repositories</text><rect fill="#E3E3E3" height="32.6211" rx="2.5" ry="2.5" style="stroke:#181818;stroke-width:0.5;" width="93" x="561" y="660.7715"/><text fill="#000000" font-family="sans-serif" font-size="14" lengthAdjust="spacing" textLength="79" x="568" y="682.8789">Repositories</text><rect fill="#E3E3E3" height="51.2422" rx="2.5" ry="2.5" style="stroke:#181818;stroke-width:0.5;" width="97" x="664" y="87.2422"/><text fill="#000000" font-family="sans-serif" font-size="14" lengthAdjust="spacing" textLength="74" x="675.5" y="109.3496">repositories</text><text fill="#000000" font-family="sans-serif" font-size="14" lengthAdjust="spacing" textLength="83" x="671" y="127.9707">:Repositories</text><rect fill="#E3E3E3" height="51.2422" rx="2.5" ry="2.5" style="stroke:#181818;stroke-width:0.5;" width="97" x="664" y="660.7715"/><text fill="#000000" font-family="sans-serif" font-size="14" lengthAdjust="spacing" textLength="74" x="675.5" y="682.8789">repositories</text><text fill="#000000" font-family="sans-serif" font-size="14" lengthAdjust="spacing" textLength="83" x="671" y="701.5">:Repositories</text><rect fill="#E3E3E3" height="51.2422" rx="2.5" ry="2.5" style="stroke:#181818;stroke-width:0.5;" width="111" x="771" y="87.2422"/><text fill="#000000" font-family="sans-serif" font-size="14" lengthAdjust="spacing" textLength="91" x="781" y="109.3496">skillRepository</text><text fill="#000000" font-family="sans-serif" font-size="14" lengthAdjust="spacing" textLength="97" x="778" y="127.9707">:SkillRepository</text><rect fill="#E3E3E3" height="51.2422" rx="2.5" ry="2.5" style="stroke:#181818;stroke-width:0.5;" width="111" x="771" y="660.7715"/><text fill="#000000" font-family="sans-serif" font-size="14" lengthAdjust="spacing" textLength="91" x="781" y="682.8789">skillRepository</text><text fill="#000000" font-family="sans-serif" font-size="14" lengthAdjust="spacing" textLength="97" x="778" y="701.5">:SkillRepository</text><rect fill="#FFFFFF" height="494.2871" style="stroke:#181818;stroke-width:1.0;" width="10" x="37" y="149.4844"/><rect fill="#FFFFFF" height="31.291" style="stroke:#181818;stroke-width:1.0;" width="10" x="319" y="172.7754"/><rect fill="#FFFFFF" height="31.291" style="stroke:#181818;stroke-width:1.0;" width="10" x="319" y="235.3574"/><rect fill="#FFFFFF" height="345.832" style="stroke:#181818;stroke-width:1.0;" width="10" x="319" y="297.9395"/><rect fill="#FFFFFF" height="283.25" style="stroke:#181818;stroke-width:1.0;" width="10" x="467" y="329.2305"/><rect fill="#FFFFFF" height="31.291" style="stroke:#181818;stroke-width:1.0;" width="10" x="602.5" y="360.5215"/><rect fill="#FFFFFF" height="31.291" style="stroke:#181818;stroke-width:1.0;" width="10" x="707.5" y="423.1035"/><rect fill="#FFFFFF" height="95.5039" style="stroke:#181818;stroke-width:1.0;" width="10" x="821.5" y="485.6855"/><polygon fill="#181818" points="307,168.7754,317,172.7754,307,176.7754,311,172.7754" style="stroke:#181818;stroke-width:1.0;"/><line style="stroke:#181818;stroke-width:1.0;" x1="47" x2="313" y1="172.7754" y2="172.7754"/><text fill="#000000" font-family="sans-serif" font-size="13" font-weight="bold" lengthAdjust="spacing" textLength="7" x="54" y="167.5127">1</text><text fill="#000000" font-family="sans-serif" font-size="13" lengthAdjust="spacing" textLength="153" x="65" y="167.5127">asks to register some skill</text><polygon fill="#181818" points="58,200.0664,48,204.0664,58,208.0664,54,204.0664" style="stroke:#181818;stroke-width:1.0;"/><line style="stroke:#181818;stroke-width:1.0;stroke-dasharray:2.0,2.0;" x1="52" x2="323" y1="204.0664" y2="204.0664"/><text fill="#000000" font-family="sans-serif" font-size="13" font-weight="bold" lengthAdjust="spacing" textLength="7" x="64" y="198.8037">2</text><text fill="#000000" font-family="sans-serif" font-size="13" lengthAdjust="spacing" textLength="135" x="75" y="198.8037">requests the skill name</text><polygon fill="#181818" points="307,231.3574,317,235.3574,307,239.3574,311,235.3574" style="stroke:#181818;stroke-width:1.0;"/><line style="stroke:#181818;stroke-width:1.0;" x1="47" x2="313" y1="235.3574" y2="235.3574"/><text fill="#000000" font-family="sans-serif" font-size="13" font-weight="bold" lengthAdjust="spacing" textLength="7" x="54" y="230.0947">3</text><text fill="#000000" font-family="sans-serif" font-size="13" lengthAdjust="spacing" textLength="125" x="65" y="230.0947">Types requested data</text><polygon fill="#181818" points="58,262.6484,48,266.6484,58,270.6484,54,266.6484" style="stroke:#181818;stroke-width:1.0;"/><line style="stroke:#181818;stroke-width:1.0;stroke-dasharray:2.0,2.0;" x1="52" x2="323" y1="266.6484" y2="266.6484"/><text fill="#000000" font-family="sans-serif" font-size="13" font-weight="bold" lengthAdjust="spacing" textLength="7" x="64" y="261.3857">4</text><text fill="#000000" font-family="sans-serif" font-size="13" lengthAdjust="spacing" textLength="237" x="75" y="261.3857">Shows the skill and asks for confirmation</text><polygon fill="#181818" points="307,293.9395,317,297.9395,307,301.9395,311,297.9395" style="stroke:#181818;stroke-width:1.0;"/><line style="stroke:#181818;stroke-width:1.0;" x1="47" x2="313" y1="297.9395" y2="297.9395"/><text fill="#000000" font-family="sans-serif" font-size="13" font-weight="bold" lengthAdjust="spacing" textLength="7" x="54" y="292.6768">5</text><text fill="#000000" font-family="sans-serif" font-size="13" lengthAdjust="spacing" textLength="78" x="65" y="292.6768">Confirms skill</text><polygon fill="#181818" points="455,325.2305,465,329.2305,455,333.2305,459,329.2305" style="stroke:#181818;stroke-width:1.0;"/><line style="stroke:#181818;stroke-width:1.0;" x1="329" x2="461" y1="329.2305" y2="329.2305"/><text fill="#000000" font-family="sans-serif" font-size="13" font-weight="bold" lengthAdjust="spacing" textLength="7" x="336" y="323.9678">6</text><text fill="#000000" font-family="sans-serif" font-size="13" lengthAdjust="spacing" textLength="108" x="347" y="323.9678">registerSkill(name)</text><polygon fill="#181818" points="590.5,356.5215,600.5,360.5215,590.5,364.5215,594.5,360.5215" style="stroke:#181818;stroke-width:1.0;"/><line style="stroke:#181818;stroke-width:1.0;" x1="477" x2="596.5" y1="360.5215" y2="360.5215"/><text fill="#000000" font-family="sans-serif" font-size="13" font-weight="bold" lengthAdjust="spacing" textLength="7" x="484" y="355.2588">7</text><text fill="#000000" font-family="sans-serif" font-size="13" lengthAdjust="spacing" textLength="75" x="495" y="355.2588">getInstance()</text><polygon fill="#181818" points="488,387.8125,478,391.8125,488,395.8125,484,391.8125" style="stroke:#181818;stroke-width:1.0;"/><line style="stroke:#181818;stroke-width:1.0;stroke-dasharray:2.0,2.0;" x1="482" x2="606.5" y1="391.8125" y2="391.8125"/><text fill="#000000" font-family="sans-serif" font-size="13" font-weight="bold" lengthAdjust="spacing" textLength="7" x="494" y="386.5498">8</text><text fill="#000000" font-family="sans-serif" font-size="13" lengthAdjust="spacing" textLength="67" x="505" y="386.5498">repositories</text><polygon fill="#181818" points="695.5,419.1035,705.5,423.1035,695.5,427.1035,699.5,423.1035" style="stroke:#181818;stroke-width:1.0;"/><line style="stroke:#181818;stroke-width:1.0;" x1="477" x2="701.5" y1="423.1035" y2="423.1035"/><text fill="#000000" font-family="sans-serif" font-size="13" font-weight="bold" lengthAdjust="spacing" textLength="7" x="484" y="417.8408">9</text><text fill="#000000" font-family="sans-serif" font-size="13" lengthAdjust="spacing" textLength="120" x="495" y="417.8408">getSkillsRepository()</text><polygon fill="#181818" points="488,450.3945,478,454.3945,488,458.3945,484,454.3945" style="stroke:#181818;stroke-width:1.0;"/><line style="stroke:#181818;stroke-width:1.0;stroke-dasharray:2.0,2.0;" x1="482" x2="711.5" y1="454.3945" y2="454.3945"/><text fill="#000000" font-family="sans-serif" font-size="13" font-weight="bold" lengthAdjust="spacing" textLength="14" x="494" y="449.1318">10</text><text fill="#000000" font-family="sans-serif" font-size="13" lengthAdjust="spacing" textLength="92" x="512" y="449.1318">skillsRepository</text><polygon fill="#181818" points="809.5,481.6855,819.5,485.6855,809.5,489.6855,813.5,485.6855" style="stroke:#181818;stroke-width:1.0;"/><line style="stroke:#181818;stroke-width:1.0;" x1="477" x2="815.5" y1="485.6855" y2="485.6855"/><text fill="#000000" font-family="sans-serif" font-size="13" font-weight="bold" lengthAdjust="spacing" textLength="14" x="484" y="480.4229">11</text><text fill="#000000" font-family="sans-serif" font-size="13" lengthAdjust="spacing" textLength="108" x="502" y="480.4229">registerSkill(name)</text><rect fill="none" height="59.2129" style="stroke:#000000;stroke-width:1.5;" width="117" x="768" y="493.6855"/><path d="M768,493.6855 L830,493.6855 L830,502.6855 L820,512.6855 L768,512.6855 L768,493.6855 " fill="#EEEEEE" style="stroke:#000000;stroke-width:2.0;"/><text fill="#000000" font-family="sans-serif" font-size="13" font-weight="bold" lengthAdjust="spacing" textLength="17" x="781" y="509.7139">ref</text><text fill="#000000" font-family="sans-serif" font-size="12" lengthAdjust="spacing" textLength="73" x="790" y="529.6348">Register Skill</text><text fill="#000000" font-family="sans-serif" font-size="12" lengthAdjust="spacing" textLength="3" x="825" y="545.5957">&#160;</text><polygon fill="#181818" points="488,577.1895,478,581.1895,488,585.1895,484,581.1895" style="stroke:#181818;stroke-width:1.0;"/><line style="stroke:#181818;stroke-width:1.0;stroke-dasharray:2.0,2.0;" x1="482" x2="825.5" y1="581.1895" y2="581.1895"/><text fill="#000000" font-family="sans-serif" font-size="13" font-weight="bold" lengthAdjust="spacing" textLength="14" x="494" y="575.9268">12</text><text fill="#000000" font-family="sans-serif" font-size="13" lengthAdjust="spacing" textLength="23" x="512" y="575.9268">skill</text><polygon fill="#181818" points="340,608.4805,330,612.4805,340,616.4805,336,612.4805" style="stroke:#181818;stroke-width:1.0;"/><line style="stroke:#181818;stroke-width:1.0;stroke-dasharray:2.0,2.0;" x1="334" x2="471" y1="612.4805" y2="612.4805"/><text fill="#000000" font-family="sans-serif" font-size="13" font-weight="bold" lengthAdjust="spacing" textLength="14" x="346" y="607.2178">13</text><text fill="#000000" font-family="sans-serif" font-size="13" lengthAdjust="spacing" textLength="23" x="364" y="607.2178">skill</text><polygon fill="#181818" points="53,639.7715,43,643.7715,53,647.7715,49,643.7715" style="stroke:#181818;stroke-width:1.0;"/><line style="stroke:#181818;stroke-width:1.0;stroke-dasharray:2.0,2.0;" x1="47" x2="323" y1="643.7715" y2="643.7715"/><text fill="#000000" font-family="sans-serif" font-size="13" font-weight="bold" lengthAdjust="spacing" textLength="14" x="59" y="638.5088">14</text><text fill="#000000" font-family="sans-serif" font-size="13" lengthAdjust="spacing" textLength="158" x="77" y="638.5088">displays operation success</text><!--SRC=[dLLDRwCm4BtpAqQvR7Be7-3GInIfaRPI1Eqj5nU6O0LircFQpR_ViHDSi_c0NPy0ltapxtayq56gJXZHGgkLBcgZMmHhUamex7IYE8e3vlRK81Wih5279WPGBKhz9TK1Aj4G9edehLPz-u4cINxKiaIejBOV-dSY2giDB5xwLgYzof1qRmgalNeLYdEOlLg-PA-h1GW2VaWuWPM5x8Ioi4WpF4YoQFAZR9hthKUzRn-1rbfPevi6ZGUltxAV8tY6dIR9DKcaCO-9TlOgZO6UAjlinW7ayWNOYMFoyHSVbhiuPuFy51QznYI1o-8tU7fcIP0ozaXWDHj-bWFaZiOd2VX0moQ4ZyDYbYScSvmfi_pgaImprXSIKAB545HYp7LLJmflfmvfeC4IIc75VzIHr_ehBaAeygoquhOejAgaQOMLMisjZ3dNvp3wLtEUVJkamM5_N4jdo-ew8B3v5hhQ7fRRTSnnkwHmGBjLnFUcmENgVd38CUhAk_1XnMXlzI0h8haN6xaxBsaGkDbvNTuq-cvorZSjprs1ILMRNII6_aepIn2dcPAHUnstEc1IHJvBXi4Az2TVt_nHETT7UhdqlgBfBAZAIKn-mz4vDZxMUJRoCYHkSqPSjo_FzuH8ePJKDU94e3iqVX80zGN_8kZEH8ZUt33z0m00]--></g></svg>