<?xml version="1.0" encoding="us-ascii" standalone="no"?><svg xmlns="http://www.w3.org/2000/svg" xmlns:xlink="http://www.w3.org/1999/xlink" contentStyleType="text/css" height="1934px" preserveAspectRatio="none" style="width:2367px;height:1934px;background:#FFFFFF;" version="1.1" viewBox="0 0 2367 1934" width="2367px" zoomAndPan="magnify"><defs/><g><rect fill="#FFFFFF" height="1702.0742" style="stroke:#181818;stroke-width:1.0;" width="10" x="76" y="112.2422"/><rect fill="#FFFFFF" height="31.291" style="stroke:#181818;stroke-width:1.0;" width="10" x="390" y="135.5332"/><rect fill="#FFFFFF" height="368.8223" style="stroke:#181818;stroke-width:1.0;" width="10" x="390" y="198.1152"/><rect fill="#FFFFFF" height="38.291" style="stroke:#181818;stroke-width:1.0;" width="10" x="390" y="598.2285"/><rect fill="#FFFFFF" height="682.7715" style="stroke:#181818;stroke-width:1.0;" width="10" x="390" y="667.8105"/><rect fill="#FFFFFF" height="432.4434" style="stroke:#181818;stroke-width:1.0;" width="10" x="390" y="1381.873"/><rect fill="#FFFFFF" height="219.0371" style="stroke:#181818;stroke-width:1.0;" width="10" x="810" y="273.0273"/><rect fill="#FFFFFF" height="219.0371" style="stroke:#181818;stroke-width:1.0;" width="10" x="810" y="699.1016"/><rect fill="#FFFFFF" height="369.8613" style="stroke:#181818;stroke-width:1.0;" width="10" x="810" y="949.4297"/><rect fill="#FFFFFF" height="369.8613" style="stroke:#181818;stroke-width:1.0;" width="10" x="810" y="1413.1641"/><rect fill="#FFFFFF" height="31.291" style="stroke:#181818;stroke-width:1.0;" width="10" x="982.5" y="304.3184"/><rect fill="#FFFFFF" height="31.291" style="stroke:#181818;stroke-width:1.0;" width="10" x="982.5" y="730.3926"/><rect fill="#FFFFFF" height="31.291" style="stroke:#181818;stroke-width:1.0;" width="10" x="982.5" y="980.7207"/><rect fill="#FFFFFF" height="31.291" style="stroke:#181818;stroke-width:1.0;" width="10" x="982.5" y="1444.4551"/><rect fill="#FFFFFF" height="31.291" style="stroke:#181818;stroke-width:1.0;" width="10" x="1087.5" y="366.9004"/><rect fill="#FFFFFF" height="31.291" style="stroke:#181818;stroke-width:1.0;" width="10" x="1087.5" y="792.9746"/><rect fill="#FFFFFF" height="31.291" style="stroke:#181818;stroke-width:1.0;" width="10" x="1087.5" y="1043.3027"/><rect fill="#FFFFFF" height="31.291" style="stroke:#181818;stroke-width:1.0;" width="10" x="1087.5" y="1507.0371"/><rect fill="#FFFFFF" height="31.291" style="stroke:#181818;stroke-width:1.0;" width="10" x="1201.5" y="429.4824"/><rect fill="#FFFFFF" height="31.291" style="stroke:#181818;stroke-width:1.0;" width="10" x="1349" y="855.5566"/><rect fill="#FFFFFF" height="182.1152" style="stroke:#181818;stroke-width:1.0;" width="10" x="1530" y="1105.8848"/><rect fill="#FFFFFF" height="80.582" style="stroke:#181818;stroke-width:1.0;" width="10" x="1535" y="1207.418"/><rect fill="#FFFFFF" height="36.291" style="stroke:#181818;stroke-width:1.0;" width="10" x="1540" y="1251.709"/><rect fill="#FFFFFF" height="182.1152" style="stroke:#181818;stroke-width:1.0;" width="10" x="2131" y="1569.6191"/><rect fill="#FFFFFF" height="80.582" style="stroke:#181818;stroke-width:1.0;" width="10" x="2136" y="1671.1523"/><rect fill="#FFFFFF" height="36.291" style="stroke:#181818;stroke-width:1.0;" width="10" x="2141" y="1715.4434"/><rect fill="none" height="99.1641" style="stroke:#000000;stroke-width:1.5;" width="486" x="10" y="507.0645"/><line style="stroke:#181818;stroke-width:0.5;stroke-dasharray:5.0,5.0;" x1="81" x2="81" y1="102.2422" y2="1832.3164"/><line style="stroke:#181818;stroke-width:0.5;stroke-dasharray:5.0,5.0;" x1="395" x2="395" y1="102.2422" y2="1832.3164"/><line style="stroke:#181818;stroke-width:0.5;stroke-dasharray:5.0,5.0;" x1="815" x2="815" y1="237.9258" y2="1832.3164"/><line style="stroke:#181818;stroke-width:0.5;stroke-dasharray:5.0,5.0;" x1="987" x2="987" y1="102.2422" y2="1832.3164"/><line style="stroke:#181818;stroke-width:0.5;stroke-dasharray:5.0,5.0;" x1="1092" x2="1092" y1="102.2422" y2="1832.3164"/><line style="stroke:#181818;stroke-width:0.5;stroke-dasharray:5.0,5.0;" x1="1206" x2="1206" y1="102.2422" y2="1832.3164"/><line style="stroke:#181818;stroke-width:0.5;stroke-dasharray:5.0,5.0;" x1="1354" x2="1354" y1="102.2422" y2="1832.3164"/><line style="stroke:#181818;stroke-width:0.5;stroke-dasharray:5.0,5.0;" x1="1535" x2="1535" y1="102.2422" y2="1832.3164"/><line style="stroke:#181818;stroke-width:0.5;stroke-dasharray:5.0,5.0;" x1="2010" x2="2010" y1="1155.0059" y2="1832.3164"/><line style="stroke:#181818;stroke-width:0.5;stroke-dasharray:5.0,5.0;" x1="2136" x2="2136" y1="102.2422" y2="1832.3164"/><line style="stroke:#181818;stroke-width:0.5;stroke-dasharray:5.0,5.0;" x1="2334" x2="2334" y1="1618.7402" y2="1832.3164"/><text fill="#000000" font-family="sans-serif" font-size="14" lengthAdjust="spacing" textLength="116" x="20" y="80.1074">Human Resources</text><text fill="#000000" font-family="sans-serif" font-size="14" lengthAdjust="spacing" textLength="56" x="52" y="98.7285">Manager</text><ellipse cx="81" cy="13.5" fill="#E3E3E3" rx="8" ry="8" style="stroke:#181818;stroke-width:0.5;"/><path d="M81,21.5 L81,48.5 M68,29.5 L94,29.5 M81,48.5 L68,63.5 M81,48.5 L94,63.5 " fill="none" style="stroke:#181818;stroke-width:0.5;"/><text fill="#000000" font-family="sans-serif" font-size="14" lengthAdjust="spacing" textLength="116" x="20" y="1846.4238">Human Resources</text><text fill="#000000" font-family="sans-serif" font-size="14" lengthAdjust="spacing" textLength="56" x="52" y="1865.0449">Manager</text><ellipse cx="81" cy="1877.0586" fill="#E3E3E3" rx="8" ry="8" style="stroke:#181818;stroke-width:0.5;"/><path d="M81,1885.0586 L81,1912.0586 M68,1893.0586 L94,1893.0586 M81,1912.0586 L68,1927.0586 M81,1912.0586 L94,1927.0586 " fill="none" style="stroke:#181818;stroke-width:0.5;"/><rect fill="#E3E3E3" height="32.6211" rx="2.5" ry="2.5" style="stroke:#181818;stroke-width:0.5;" width="182" x="304" y="68.6211"/><text fill="#000000" font-family="sans-serif" font-size="14" lengthAdjust="spacing" textLength="168" x="311" y="90.7285">:GenerateTeamProposalUI</text><rect fill="#E3E3E3" height="32.6211" rx="2.5" ry="2.5" style="stroke:#181818;stroke-width:0.5;" width="182" x="304" y="1831.3164"/><text fill="#000000" font-family="sans-serif" font-size="14" lengthAdjust="spacing" textLength="168" x="311" y="1853.4238">:GenerateTeamProposalUI</text><rect fill="#E3E3E3" height="32.6211" rx="2.5" ry="2.5" style="stroke:#181818;stroke-width:0.5;" width="232" x="699" y="1831.3164"/><text fill="#000000" font-family="sans-serif" font-size="14" lengthAdjust="spacing" textLength="218" x="706" y="1853.4238">:GenerateTeamProposalController</text><rect fill="#E3E3E3" height="32.6211" rx="2.5" ry="2.5" style="stroke:#181818;stroke-width:0.5;" width="93" x="941" y="68.6211"/><text fill="#000000" font-family="sans-serif" font-size="14" lengthAdjust="spacing" textLength="79" x="948" y="90.7285">Repositories</text><rect fill="#E3E3E3" height="32.6211" rx="2.5" ry="2.5" style="stroke:#181818;stroke-width:0.5;" width="93" x="941" y="1831.3164"/><text fill="#000000" font-family="sans-serif" font-size="14" lengthAdjust="spacing" textLength="79" x="948" y="1853.4238">Repositories</text><rect fill="#E3E3E3" height="51.2422" rx="2.5" ry="2.5" style="stroke:#181818;stroke-width:0.5;" width="97" x="1044" y="50"/><text fill="#000000" font-family="sans-serif" font-size="14" lengthAdjust="spacing" textLength="74" x="1055.5" y="72.1074">repositories</text><text fill="#000000" font-family="sans-serif" font-size="14" lengthAdjust="spacing" textLength="83" x="1051" y="90.7285">:Repositories</text><rect fill="#E3E3E3" height="51.2422" rx="2.5" ry="2.5" style="stroke:#181818;stroke-width:0.5;" width="97" x="1044" y="1831.3164"/><text fill="#000000" font-family="sans-serif" font-size="14" lengthAdjust="spacing" textLength="74" x="1055.5" y="1853.4238">repositories</text><text fill="#000000" font-family="sans-serif" font-size="14" lengthAdjust="spacing" textLength="83" x="1051" y="1872.0449">:Repositories</text><rect fill="#E3E3E3" height="51.2422" rx="2.5" ry="2.5" style="stroke:#181818;stroke-width:0.5;" width="111" x="1151" y="50"/><text fill="#000000" font-family="sans-serif" font-size="14" lengthAdjust="spacing" textLength="91" x="1161" y="72.1074">skillRepository</text><text fill="#000000" font-family="sans-serif" font-size="14" lengthAdjust="spacing" textLength="97" x="1158" y="90.7285">:SkillRepository</text><rect fill="#E3E3E3" height="51.2422" rx="2.5" ry="2.5" style="stroke:#181818;stroke-width:0.5;" width="111" x="1151" y="1831.3164"/><text fill="#000000" font-family="sans-serif" font-size="14" lengthAdjust="spacing" textLength="91" x="1161" y="1853.4238">skillRepository</text><text fill="#000000" font-family="sans-serif" font-size="14" lengthAdjust="spacing" textLength="97" x="1158" y="1872.0449">:SkillRepository</text><rect fill="#E3E3E3" height="51.2422" rx="2.5" ry="2.5" style="stroke:#181818;stroke-width:0.5;" width="164" x="1272" y="50"/><text fill="#000000" font-family="sans-serif" font-size="14" lengthAdjust="spacing" textLength="143" x="1282.5" y="72.1074">collaboratorRepository</text><text fill="#000000" font-family="sans-serif" font-size="14" lengthAdjust="spacing" textLength="150" x="1279" y="90.7285">:CollaboratorRepository</text><rect fill="#E3E3E3" height="51.2422" rx="2.5" ry="2.5" style="stroke:#181818;stroke-width:0.5;" width="164" x="1272" y="1831.3164"/><text fill="#000000" font-family="sans-serif" font-size="14" lengthAdjust="spacing" textLength="143" x="1282.5" y="1853.4238">collaboratorRepository</text><text fill="#000000" font-family="sans-serif" font-size="14" lengthAdjust="spacing" textLength="150" x="1279" y="1872.0449">:CollaboratorRepository</text><rect fill="#E3E3E3" height="51.2422" rx="2.5" ry="2.5" style="stroke:#181818;stroke-width:0.5;" width="178" x="1446" y="50"/><text fill="#000000" font-family="sans-serif" font-size="14" lengthAdjust="spacing" textLength="155" x="1457.5" y="72.1074">teamProposalRepository</text><text fill="#000000" font-family="sans-serif" font-size="14" lengthAdjust="spacing" textLength="164" x="1453" y="90.7285">:TeamProposalRepository</text><rect fill="#E3E3E3" height="51.2422" rx="2.5" ry="2.5" style="stroke:#181818;stroke-width:0.5;" width="178" x="1446" y="1831.3164"/><text fill="#000000" font-family="sans-serif" font-size="14" lengthAdjust="spacing" textLength="155" x="1457.5" y="1853.4238">teamProposalRepository</text><text fill="#000000" font-family="sans-serif" font-size="14" lengthAdjust="spacing" textLength="164" x="1453" y="1872.0449">:TeamProposalRepository</text><rect fill="#E3E3E3" height="51.2422" rx="2.5" ry="2.5" style="stroke:#181818;stroke-width:0.5;" width="110" x="1955" y="1831.3164"/><text fill="#000000" font-family="sans-serif" font-size="14" lengthAdjust="spacing" textLength="87" x="1966.5" y="1853.4238">teamProposal</text><text fill="#000000" font-family="sans-serif" font-size="14" lengthAdjust="spacing" textLength="96" x="1962" y="1872.0449">:TeamProposal</text><rect fill="#E3E3E3" height="51.2422" rx="2.5" ry="2.5" style="stroke:#181818;stroke-width:0.5;" width="122" x="2075" y="50"/><text fill="#000000" font-family="sans-serif" font-size="14" lengthAdjust="spacing" textLength="99" x="2086.5" y="72.1074">teamRepository</text><text fill="#000000" font-family="sans-serif" font-size="14" lengthAdjust="spacing" textLength="108" x="2082" y="90.7285">:TeamRepository</text><rect fill="#E3E3E3" height="51.2422" rx="2.5" ry="2.5" style="stroke:#181818;stroke-width:0.5;" width="122" x="2075" y="1831.3164"/><text fill="#000000" font-family="sans-serif" font-size="14" lengthAdjust="spacing" textLength="99" x="2086.5" y="1853.4238">teamRepository</text><text fill="#000000" font-family="sans-serif" font-size="14" lengthAdjust="spacing" textLength="108" x="2082" y="1872.0449">:TeamRepository</text><rect fill="#E3E3E3" height="51.2422" rx="2.5" ry="2.5" style="stroke:#181818;stroke-width:0.5;" width="54" x="2307" y="1831.3164"/><text fill="#000000" font-family="sans-serif" font-size="14" lengthAdjust="spacing" textLength="31" x="2318.5" y="1853.4238">team</text><text fill="#000000" font-family="sans-serif" font-size="14" lengthAdjust="spacing" textLength="40" x="2314" y="1872.0449">:Team</text><rect fill="#FFFFFF" height="1702.0742" style="stroke:#181818;stroke-width:1.0;" width="10" x="76" y="112.2422"/><rect fill="#FFFFFF" height="31.291" style="stroke:#181818;stroke-width:1.0;" width="10" x="390" y="135.5332"/><rect fill="#FFFFFF" height="368.8223" style="stroke:#181818;stroke-width:1.0;" width="10" x="390" y="198.1152"/><rect fill="#FFFFFF" height="38.291" style="stroke:#181818;stroke-width:1.0;" width="10" x="390" y="598.2285"/><rect fill="#FFFFFF" height="682.7715" style="stroke:#181818;stroke-width:1.0;" width="10" x="390" y="667.8105"/><rect fill="#FFFFFF" height="432.4434" style="stroke:#181818;stroke-width:1.0;" width="10" x="390" y="1381.873"/><rect fill="#FFFFFF" height="219.0371" style="stroke:#181818;stroke-width:1.0;" width="10" x="810" y="273.0273"/><rect fill="#FFFFFF" height="219.0371" style="stroke:#181818;stroke-width:1.0;" width="10" x="810" y="699.1016"/><rect fill="#FFFFFF" height="369.8613" style="stroke:#181818;stroke-width:1.0;" width="10" x="810" y="949.4297"/><rect fill="#FFFFFF" height="369.8613" style="stroke:#181818;stroke-width:1.0;" width="10" x="810" y="1413.1641"/><rect fill="#FFFFFF" height="31.291" style="stroke:#181818;stroke-width:1.0;" width="10" x="982.5" y="304.3184"/><rect fill="#FFFFFF" height="31.291" style="stroke:#181818;stroke-width:1.0;" width="10" x="982.5" y="730.3926"/><rect fill="#FFFFFF" height="31.291" style="stroke:#181818;stroke-width:1.0;" width="10" x="982.5" y="980.7207"/><rect fill="#FFFFFF" height="31.291" style="stroke:#181818;stroke-width:1.0;" width="10" x="982.5" y="1444.4551"/><rect fill="#FFFFFF" height="31.291" style="stroke:#181818;stroke-width:1.0;" width="10" x="1087.5" y="366.9004"/><rect fill="#FFFFFF" height="31.291" style="stroke:#181818;stroke-width:1.0;" width="10" x="1087.5" y="792.9746"/><rect fill="#FFFFFF" height="31.291" style="stroke:#181818;stroke-width:1.0;" width="10" x="1087.5" y="1043.3027"/><rect fill="#FFFFFF" height="31.291" style="stroke:#181818;stroke-width:1.0;" width="10" x="1087.5" y="1507.0371"/><rect fill="#FFFFFF" height="31.291" style="stroke:#181818;stroke-width:1.0;" width="10" x="1201.5" y="429.4824"/><rect fill="#FFFFFF" height="31.291" style="stroke:#181818;stroke-width:1.0;" width="10" x="1349" y="855.5566"/><rect fill="#FFFFFF" height="182.1152" style="stroke:#181818;stroke-width:1.0;" width="10" x="1530" y="1105.8848"/><rect fill="#FFFFFF" height="80.582" style="stroke:#181818;stroke-width:1.0;" width="10" x="1535" y="1207.418"/><rect fill="#FFFFFF" height="36.291" style="stroke:#181818;stroke-width:1.0;" width="10" x="1540" y="1251.709"/><rect fill="#FFFFFF" height="182.1152" style="stroke:#181818;stroke-width:1.0;" width="10" x="2131" y="1569.6191"/><rect fill="#FFFFFF" height="80.582" style="stroke:#181818;stroke-width:1.0;" width="10" x="2136" y="1671.1523"/><rect fill="#FFFFFF" height="36.291" style="stroke:#181818;stroke-width:1.0;" width="10" x="2141" y="1715.4434"/><polygon fill="#181818" points="378,131.5332,388,135.5332,378,139.5332,382,135.5332" style="stroke:#181818;stroke-width:1.0;"/><line style="stroke:#181818;stroke-width:1.0;" x1="86" x2="384" y1="135.5332" y2="135.5332"/><text fill="#000000" font-family="sans-serif" font-size="13" font-weight="bold" lengthAdjust="spacing" textLength="7" x="93" y="130.2705">1</text><text fill="#000000" font-family="sans-serif" font-size="13" lengthAdjust="spacing" textLength="207" x="104" y="130.2705">asks to create a new team proposal</text><polygon fill="#181818" points="97,162.8242,87,166.8242,97,170.8242,93,166.8242" style="stroke:#181818;stroke-width:1.0;"/><line style="stroke:#181818;stroke-width:1.0;stroke-dasharray:2.0,2.0;" x1="91" x2="394" y1="166.8242" y2="166.8242"/><text fill="#000000" font-family="sans-serif" font-size="13" font-weight="bold" lengthAdjust="spacing" textLength="7" x="103" y="161.5615">2</text><text fill="#000000" font-family="sans-serif" font-size="13" lengthAdjust="spacing" textLength="269" x="114" y="161.5615">request the maximum and minimum team size</text><polygon fill="#181818" points="378,194.1152,388,198.1152,378,202.1152,382,198.1152" style="stroke:#181818;stroke-width:1.0;"/><line style="stroke:#181818;stroke-width:1.0;" x1="86" x2="384" y1="198.1152" y2="198.1152"/><text fill="#000000" font-family="sans-serif" font-size="13" font-weight="bold" lengthAdjust="spacing" textLength="7" x="93" y="192.8525">3</text><text fill="#000000" font-family="sans-serif" font-size="13" lengthAdjust="spacing" textLength="121" x="104" y="192.8525">types requested size</text><polygon fill="#181818" points="687,225.4063,697,229.4063,687,233.4063,691,229.4063" style="stroke:#181818;stroke-width:1.0;"/><line style="stroke:#181818;stroke-width:1.0;" x1="400" x2="693" y1="229.4063" y2="229.4063"/><text fill="#000000" font-family="sans-serif" font-size="13" font-weight="bold" lengthAdjust="spacing" textLength="7" x="407" y="224.1436">4</text><text fill="#000000" font-family="sans-serif" font-size="13" lengthAdjust="spacing" textLength="50" x="418" y="224.1436">generate</text><rect fill="#E3E3E3" height="32.6211" rx="2.5" ry="2.5" style="stroke:#181818;stroke-width:0.5;" width="232" x="699" y="206.1152"/><text fill="#000000" font-family="sans-serif" font-size="14" lengthAdjust="spacing" textLength="218" x="706" y="228.2227">:GenerateTeamProposalController</text><polygon fill="#181818" points="798,269.0273,808,273.0273,798,277.0273,802,273.0273" style="stroke:#181818;stroke-width:1.0;"/><line style="stroke:#181818;stroke-width:1.0;" x1="400" x2="804" y1="273.0273" y2="273.0273"/><text fill="#000000" font-family="sans-serif" font-size="13" font-weight="bold" lengthAdjust="spacing" textLength="7" x="407" y="267.7646">5</text><text fill="#000000" font-family="sans-serif" font-size="13" lengthAdjust="spacing" textLength="57" x="418" y="267.7646">listSkills()</text><polygon fill="#181818" points="970.5,300.3184,980.5,304.3184,970.5,308.3184,974.5,304.3184" style="stroke:#181818;stroke-width:1.0;"/><line style="stroke:#181818;stroke-width:1.0;" x1="820" x2="976.5" y1="304.3184" y2="304.3184"/><text fill="#000000" font-family="sans-serif" font-size="13" font-weight="bold" lengthAdjust="spacing" textLength="7" x="827" y="299.0557">6</text><text fill="#000000" font-family="sans-serif" font-size="13" lengthAdjust="spacing" textLength="75" x="838" y="299.0557">getInstance()</text><polygon fill="#181818" points="831,331.6094,821,335.6094,831,339.6094,827,335.6094" style="stroke:#181818;stroke-width:1.0;"/><line style="stroke:#181818;stroke-width:1.0;stroke-dasharray:2.0,2.0;" x1="825" x2="986.5" y1="335.6094" y2="335.6094"/><text fill="#000000" font-family="sans-serif" font-size="13" font-weight="bold" lengthAdjust="spacing" textLength="7" x="837" y="330.3467">7</text><text fill="#000000" font-family="sans-serif" font-size="13" lengthAdjust="spacing" textLength="67" x="848" y="330.3467">repositories</text><polygon fill="#181818" points="1075.5,362.9004,1085.5,366.9004,1075.5,370.9004,1079.5,366.9004" style="stroke:#181818;stroke-width:1.0;"/><line style="stroke:#181818;stroke-width:1.0;" x1="820" x2="1081.5" y1="366.9004" y2="366.9004"/><text fill="#000000" font-family="sans-serif" font-size="13" font-weight="bold" lengthAdjust="spacing" textLength="7" x="827" y="361.6377">8</text><text fill="#000000" font-family="sans-serif" font-size="13" lengthAdjust="spacing" textLength="113" x="838" y="361.6377">getSkillRepository()</text><polygon fill="#181818" points="831,394.1914,821,398.1914,831,402.1914,827,398.1914" style="stroke:#181818;stroke-width:1.0;"/><line style="stroke:#181818;stroke-width:1.0;stroke-dasharray:2.0,2.0;" x1="825" x2="1091.5" y1="398.1914" y2="398.1914"/><text fill="#000000" font-family="sans-serif" font-size="13" font-weight="bold" lengthAdjust="spacing" textLength="7" x="837" y="392.9287">9</text><text fill="#000000" font-family="sans-serif" font-size="13" lengthAdjust="spacing" textLength="85" x="848" y="392.9287">skillRepository</text><polygon fill="#181818" points="1189.5,425.4824,1199.5,429.4824,1189.5,433.4824,1193.5,429.4824" style="stroke:#181818;stroke-width:1.0;"/><line style="stroke:#181818;stroke-width:1.0;" x1="820" x2="1195.5" y1="429.4824" y2="429.4824"/><text fill="#000000" font-family="sans-serif" font-size="13" font-weight="bold" lengthAdjust="spacing" textLength="14" x="827" y="424.2197">10</text><text fill="#000000" font-family="sans-serif" font-size="13" lengthAdjust="spacing" textLength="57" x="845" y="424.2197">listSkills()</text><polygon fill="#181818" points="831,456.7734,821,460.7734,831,464.7734,827,460.7734" style="stroke:#181818;stroke-width:1.0;"/><line style="stroke:#181818;stroke-width:1.0;stroke-dasharray:2.0,2.0;" x1="825" x2="1205.5" y1="460.7734" y2="460.7734"/><text fill="#000000" font-family="sans-serif" font-size="13" font-weight="bold" lengthAdjust="spacing" textLength="14" x="837" y="455.5107">11</text><text fill="#000000" font-family="sans-serif" font-size="13" lengthAdjust="spacing" textLength="30" x="855" y="455.5107">skills</text><polygon fill="#181818" points="411,488.0645,401,492.0645,411,496.0645,407,492.0645" style="stroke:#181818;stroke-width:1.0;"/><line style="stroke:#181818;stroke-width:1.0;stroke-dasharray:2.0,2.0;" x1="405" x2="814" y1="492.0645" y2="492.0645"/><text fill="#000000" font-family="sans-serif" font-size="13" font-weight="bold" lengthAdjust="spacing" textLength="14" x="417" y="486.8018">12</text><text fill="#000000" font-family="sans-serif" font-size="13" lengthAdjust="spacing" textLength="30" x="435" y="486.8018">skills</text><path d="M10,507.0645 L83,507.0645 L83,516.3555 L73,526.3555 L10,526.3555 L10,507.0645 " fill="#EEEEEE" style="stroke:#000000;stroke-width:1.5;"/><rect fill="none" height="99.1641" style="stroke:#000000;stroke-width:1.5;" width="486" x="10" y="507.0645"/><text fill="#000000" font-family="sans-serif" font-size="13" font-weight="bold" lengthAdjust="spacing" textLength="28" x="25" y="522.0928">loop</text><polygon fill="#181818" points="97,562.9375,87,566.9375,97,570.9375,93,566.9375" style="stroke:#181818;stroke-width:1.0;"/><line style="stroke:#181818;stroke-width:1.0;stroke-dasharray:2.0,2.0;" x1="91" x2="394" y1="566.9375" y2="566.9375"/><text fill="#000000" font-family="sans-serif" font-size="13" font-weight="bold" lengthAdjust="spacing" textLength="14" x="103" y="553.0293">13</text><text fill="#000000" font-family="sans-serif" font-size="13" lengthAdjust="spacing" textLength="225" x="121" y="544.3838">shows the list of skills and asks you to</text><text fill="#000000" font-family="sans-serif" font-size="13" lengthAdjust="spacing" textLength="216" x="121" y="561.6748">select one that you need for that task</text><polygon fill="#181818" points="378,594.2285,388,598.2285,378,602.2285,382,598.2285" style="stroke:#181818;stroke-width:1.0;"/><line style="stroke:#181818;stroke-width:1.0;" x1="86" x2="384" y1="598.2285" y2="598.2285"/><text fill="#000000" font-family="sans-serif" font-size="13" font-weight="bold" lengthAdjust="spacing" textLength="14" x="93" y="592.9658">14</text><text fill="#000000" font-family="sans-serif" font-size="13" lengthAdjust="spacing" textLength="84" x="111" y="592.9658">select the skill</text><polygon fill="#181818" points="97,632.5195,87,636.5195,97,640.5195,93,636.5195" style="stroke:#181818;stroke-width:1.0;"/><line style="stroke:#181818;stroke-width:1.0;stroke-dasharray:2.0,2.0;" x1="91" x2="394" y1="636.5195" y2="636.5195"/><text fill="#000000" font-family="sans-serif" font-size="13" font-weight="bold" lengthAdjust="spacing" textLength="14" x="103" y="631.2568">15</text><text fill="#000000" font-family="sans-serif" font-size="13" lengthAdjust="spacing" textLength="236" x="121" y="631.2568">shows all data and requests confirmation</text><polygon fill="#181818" points="378,663.8105,388,667.8105,378,671.8105,382,667.8105" style="stroke:#181818;stroke-width:1.0;"/><line style="stroke:#181818;stroke-width:1.0;" x1="86" x2="384" y1="667.8105" y2="667.8105"/><text fill="#000000" font-family="sans-serif" font-size="13" font-weight="bold" lengthAdjust="spacing" textLength="14" x="93" y="662.5479">16</text><text fill="#000000" font-family="sans-serif" font-size="13" lengthAdjust="spacing" textLength="78" x="111" y="662.5479">confirms data</text><polygon fill="#181818" points="798,695.1016,808,699.1016,798,703.1016,802,699.1016" style="stroke:#181818;stroke-width:1.0;"/><line style="stroke:#181818;stroke-width:1.0;" x1="400" x2="804" y1="699.1016" y2="699.1016"/><text fill="#000000" font-family="sans-serif" font-size="13" font-weight="bold" lengthAdjust="spacing" textLength="14" x="407" y="693.8389">17</text><text fill="#000000" font-family="sans-serif" font-size="13" lengthAdjust="spacing" textLength="134" x="425" y="693.8389">chooseMembers(skills)</text><polygon fill="#181818" points="970.5,726.3926,980.5,730.3926,970.5,734.3926,974.5,730.3926" style="stroke:#181818;stroke-width:1.0;"/><line style="stroke:#181818;stroke-width:1.0;" x1="820" x2="976.5" y1="730.3926" y2="730.3926"/><text fill="#000000" font-family="sans-serif" font-size="13" font-weight="bold" lengthAdjust="spacing" textLength="14" x="827" y="725.1299">18</text><text fill="#000000" font-family="sans-serif" font-size="13" lengthAdjust="spacing" textLength="75" x="845" y="725.1299">getInstance()</text><polygon fill="#181818" points="831,757.6836,821,761.6836,831,765.6836,827,761.6836" style="stroke:#181818;stroke-width:1.0;"/><line style="stroke:#181818;stroke-width:1.0;stroke-dasharray:2.0,2.0;" x1="825" x2="986.5" y1="761.6836" y2="761.6836"/><text fill="#000000" font-family="sans-serif" font-size="13" font-weight="bold" lengthAdjust="spacing" textLength="14" x="837" y="756.4209">19</text><text fill="#000000" font-family="sans-serif" font-size="13" lengthAdjust="spacing" textLength="67" x="855" y="756.4209">repositories</text><polygon fill="#181818" points="1075.5,788.9746,1085.5,792.9746,1075.5,796.9746,1079.5,792.9746" style="stroke:#181818;stroke-width:1.0;"/><line style="stroke:#181818;stroke-width:1.0;" x1="820" x2="1081.5" y1="792.9746" y2="792.9746"/><text fill="#000000" font-family="sans-serif" font-size="13" font-weight="bold" lengthAdjust="spacing" textLength="14" x="827" y="787.7119">20</text><text fill="#000000" font-family="sans-serif" font-size="13" lengthAdjust="spacing" textLength="157" x="845" y="787.7119">getCollaboratorRepository()</text><polygon fill="#181818" points="831,820.2656,821,824.2656,831,828.2656,827,824.2656" style="stroke:#181818;stroke-width:1.0;"/><line style="stroke:#181818;stroke-width:1.0;stroke-dasharray:2.0,2.0;" x1="825" x2="1091.5" y1="824.2656" y2="824.2656"/><text fill="#000000" font-family="sans-serif" font-size="13" font-weight="bold" lengthAdjust="spacing" textLength="14" x="837" y="819.0029">21</text><text fill="#000000" font-family="sans-serif" font-size="13" lengthAdjust="spacing" textLength="129" x="855" y="819.0029">collaboratorRepository</text><polygon fill="#181818" points="1337,851.5566,1347,855.5566,1337,859.5566,1341,855.5566" style="stroke:#181818;stroke-width:1.0;"/><line style="stroke:#181818;stroke-width:1.0;" x1="820" x2="1343" y1="855.5566" y2="855.5566"/><text fill="#000000" font-family="sans-serif" font-size="13" font-weight="bold" lengthAdjust="spacing" textLength="14" x="827" y="850.2939">22</text><text fill="#000000" font-family="sans-serif" font-size="13" lengthAdjust="spacing" textLength="134" x="845" y="850.2939">chooseMembers(skills)</text><polygon fill="#181818" points="831,882.8477,821,886.8477,831,890.8477,827,886.8477" style="stroke:#181818;stroke-width:1.0;"/><line style="stroke:#181818;stroke-width:1.0;stroke-dasharray:2.0,2.0;" x1="825" x2="1353" y1="886.8477" y2="886.8477"/><text fill="#000000" font-family="sans-serif" font-size="13" font-weight="bold" lengthAdjust="spacing" textLength="14" x="837" y="881.585">23</text><text fill="#000000" font-family="sans-serif" font-size="13" lengthAdjust="spacing" textLength="54" x="855" y="881.585">members</text><polygon fill="#181818" points="411,914.1387,401,918.1387,411,922.1387,407,918.1387" style="stroke:#181818;stroke-width:1.0;"/><line style="stroke:#181818;stroke-width:1.0;stroke-dasharray:2.0,2.0;" x1="405" x2="814" y1="918.1387" y2="918.1387"/><text fill="#000000" font-family="sans-serif" font-size="13" font-weight="bold" lengthAdjust="spacing" textLength="14" x="417" y="912.876">24</text><text fill="#000000" font-family="sans-serif" font-size="13" lengthAdjust="spacing" textLength="54" x="435" y="912.876">members</text><polygon fill="#181818" points="798,945.4297,808,949.4297,798,953.4297,802,949.4297" style="stroke:#181818;stroke-width:1.0;"/><line style="stroke:#181818;stroke-width:1.0;" x1="400" x2="804" y1="949.4297" y2="949.4297"/><text fill="#000000" font-family="sans-serif" font-size="13" font-weight="bold" lengthAdjust="spacing" textLength="14" x="407" y="944.167">25</text><text fill="#000000" font-family="sans-serif" font-size="13" lengthAdjust="spacing" textLength="373" x="425" y="944.167">generateTeamProposal(minimumSize, maximumSize, members)</text><polygon fill="#181818" points="970.5,976.7207,980.5,980.7207,970.5,984.7207,974.5,980.7207" style="stroke:#181818;stroke-width:1.0;"/><line style="stroke:#181818;stroke-width:1.0;" x1="820" x2="976.5" y1="980.7207" y2="980.7207"/><text fill="#000000" font-family="sans-serif" font-size="13" font-weight="bold" lengthAdjust="spacing" textLength="14" x="827" y="975.458">26</text><text fill="#000000" font-family="sans-serif" font-size="13" lengthAdjust="spacing" textLength="75" x="845" y="975.458">getInstance()</text><polygon fill="#181818" points="831,1008.0117,821,1012.0117,831,1016.0117,827,1012.0117" style="stroke:#181818;stroke-width:1.0;"/><line style="stroke:#181818;stroke-width:1.0;stroke-dasharray:2.0,2.0;" x1="825" x2="986.5" y1="1012.0117" y2="1012.0117"/><text fill="#000000" font-family="sans-serif" font-size="13" font-weight="bold" lengthAdjust="spacing" textLength="14" x="837" y="1006.749">27</text><text fill="#000000" font-family="sans-serif" font-size="13" lengthAdjust="spacing" textLength="67" x="855" y="1006.749">repositories</text><polygon fill="#181818" points="1075.5,1039.3027,1085.5,1043.3027,1075.5,1047.3027,1079.5,1043.3027" style="stroke:#181818;stroke-width:1.0;"/><line style="stroke:#181818;stroke-width:1.0;" x1="820" x2="1081.5" y1="1043.3027" y2="1043.3027"/><text fill="#000000" font-family="sans-serif" font-size="13" font-weight="bold" lengthAdjust="spacing" textLength="14" x="827" y="1038.04">28</text><text fill="#000000" font-family="sans-serif" font-size="13" lengthAdjust="spacing" textLength="171" x="845" y="1038.04">getTeamProposalRepository()</text><polygon fill="#181818" points="831,1070.5938,821,1074.5938,831,1078.5938,827,1074.5938" style="stroke:#181818;stroke-width:1.0;"/><line style="stroke:#181818;stroke-width:1.0;stroke-dasharray:2.0,2.0;" x1="825" x2="1091.5" y1="1074.5938" y2="1074.5938"/><text fill="#000000" font-family="sans-serif" font-size="13" font-weight="bold" lengthAdjust="spacing" textLength="14" x="837" y="1069.3311">29</text><text fill="#000000" font-family="sans-serif" font-size="13" lengthAdjust="spacing" textLength="142" x="855" y="1069.3311">teamProposalRepository</text><polygon fill="#181818" points="1518,1101.8848,1528,1105.8848,1518,1109.8848,1522,1105.8848" style="stroke:#181818;stroke-width:1.0;"/><line style="stroke:#181818;stroke-width:1.0;" x1="820" x2="1524" y1="1105.8848" y2="1105.8848"/><text fill="#000000" font-family="sans-serif" font-size="13" font-weight="bold" lengthAdjust="spacing" textLength="14" x="827" y="1100.6221">30</text><text fill="#000000" font-family="sans-serif" font-size="13" lengthAdjust="spacing" textLength="373" x="845" y="1100.6221">generateTeamProposal(minimumSize, maximumSize, members)</text><polygon fill="#181818" points="1943,1133.1758,1953,1137.1758,1943,1141.1758,1947,1137.1758" style="stroke:#181818;stroke-width:1.0;"/><line style="stroke:#181818;stroke-width:1.0;" x1="1540" x2="1949" y1="1137.1758" y2="1137.1758"/><text fill="#000000" font-family="sans-serif" font-size="13" font-weight="bold" lengthAdjust="spacing" textLength="14" x="1547" y="1131.9131">31</text><text fill="#000000" font-family="sans-serif" font-size="13" lengthAdjust="spacing" textLength="373" x="1565" y="1131.9131">generateTeamProposal(minimumSize, maximumSize, members)</text><rect fill="#E3E3E3" height="51.2422" rx="2.5" ry="2.5" style="stroke:#181818;stroke-width:0.5;" width="110" x="1955" y="1113.8848"/><text fill="#000000" font-family="sans-serif" font-size="14" lengthAdjust="spacing" textLength="87" x="1966.5" y="1135.9922">teamProposal</text><text fill="#000000" font-family="sans-serif" font-size="14" lengthAdjust="spacing" textLength="96" x="1962" y="1154.6133">:TeamProposal</text><line style="stroke:#181818;stroke-width:1.0;" x1="1540" x2="1587" y1="1194.418" y2="1194.418"/><line style="stroke:#181818;stroke-width:1.0;" x1="1587" x2="1587" y1="1194.418" y2="1207.418"/><line style="stroke:#181818;stroke-width:1.0;" x1="1546" x2="1587" y1="1207.418" y2="1207.418"/><polygon fill="#181818" points="1556,1203.418,1546,1207.418,1556,1211.418,1552,1207.418" style="stroke:#181818;stroke-width:1.0;"/><text fill="#000000" font-family="sans-serif" font-size="13" font-weight="bold" lengthAdjust="spacing" textLength="14" x="1552" y="1189.1553">32</text><text fill="#000000" font-family="sans-serif" font-size="13" lengthAdjust="spacing" textLength="192" x="1570" y="1189.1553">addTeamProposal(teamProposal)</text><line style="stroke:#181818;stroke-width:1.0;" x1="1545" x2="1592" y1="1238.709" y2="1238.709"/><line style="stroke:#181818;stroke-width:1.0;" x1="1592" x2="1592" y1="1238.709" y2="1251.709"/><line style="stroke:#181818;stroke-width:1.0;" x1="1551" x2="1592" y1="1251.709" y2="1251.709"/><polygon fill="#181818" points="1561,1247.709,1551,1251.709,1561,1255.709,1557,1251.709" style="stroke:#181818;stroke-width:1.0;"/><text fill="#000000" font-family="sans-serif" font-size="13" font-weight="bold" lengthAdjust="spacing" textLength="14" x="1557" y="1233.4463">33</text><text fill="#000000" font-family="sans-serif" font-size="13" lengthAdjust="spacing" textLength="214" x="1575" y="1233.4463">validateTeamProposal(teamProposal)</text><polygon fill="#181818" points="831,1284,821,1288,831,1292,827,1288" style="stroke:#181818;stroke-width:1.0;"/><line style="stroke:#181818;stroke-width:1.0;stroke-dasharray:2.0,2.0;" x1="825" x2="1534" y1="1288" y2="1288"/><text fill="#000000" font-family="sans-serif" font-size="13" font-weight="bold" lengthAdjust="spacing" textLength="14" x="837" y="1282.7373">34</text><text fill="#000000" font-family="sans-serif" font-size="13" lengthAdjust="spacing" textLength="80" x="855" y="1282.7373">teamProposal</text><polygon fill="#181818" points="411,1315.291,401,1319.291,411,1323.291,407,1319.291" style="stroke:#181818;stroke-width:1.0;"/><line style="stroke:#181818;stroke-width:1.0;stroke-dasharray:2.0,2.0;" x1="405" x2="814" y1="1319.291" y2="1319.291"/><text fill="#000000" font-family="sans-serif" font-size="13" font-weight="bold" lengthAdjust="spacing" textLength="14" x="417" y="1314.0283">35</text><text fill="#000000" font-family="sans-serif" font-size="13" lengthAdjust="spacing" textLength="80" x="435" y="1314.0283">teamProposal</text><polygon fill="#181818" points="97,1346.582,87,1350.582,97,1354.582,93,1350.582" style="stroke:#181818;stroke-width:1.0;"/><line style="stroke:#181818;stroke-width:1.0;stroke-dasharray:2.0,2.0;" x1="91" x2="394" y1="1350.582" y2="1350.582"/><text fill="#000000" font-family="sans-serif" font-size="13" font-weight="bold" lengthAdjust="spacing" textLength="14" x="103" y="1345.3193">36</text><text fill="#000000" font-family="sans-serif" font-size="13" lengthAdjust="spacing" textLength="185" x="121" y="1345.3193">show the team recommendation</text><polygon fill="#181818" points="378,1377.873,388,1381.873,378,1385.873,382,1381.873" style="stroke:#181818;stroke-width:1.0;"/><line style="stroke:#181818;stroke-width:1.0;" x1="86" x2="384" y1="1381.873" y2="1381.873"/><text fill="#000000" font-family="sans-serif" font-size="13" font-weight="bold" lengthAdjust="spacing" textLength="14" x="93" y="1376.6104">37</text><text fill="#000000" font-family="sans-serif" font-size="13" lengthAdjust="spacing" textLength="179" x="111" y="1376.6104">accepts team recommendation</text><polygon fill="#181818" points="798,1409.1641,808,1413.1641,798,1417.1641,802,1413.1641" style="stroke:#181818;stroke-width:1.0;"/><line style="stroke:#181818;stroke-width:1.0;" x1="400" x2="804" y1="1413.1641" y2="1413.1641"/><text fill="#000000" font-family="sans-serif" font-size="13" font-weight="bold" lengthAdjust="spacing" textLength="14" x="407" y="1407.9014">38</text><text fill="#000000" font-family="sans-serif" font-size="13" lengthAdjust="spacing" textLength="156" x="425" y="1407.9014">createTeam(teamProposal)</text><polygon fill="#181818" points="970.5,1440.4551,980.5,1444.4551,970.5,1448.4551,974.5,1444.4551" style="stroke:#181818;stroke-width:1.0;"/><line style="stroke:#181818;stroke-width:1.0;" x1="820" x2="976.5" y1="1444.4551" y2="1444.4551"/><text fill="#000000" font-family="sans-serif" font-size="13" font-weight="bold" lengthAdjust="spacing" textLength="14" x="827" y="1439.1924">39</text><text fill="#000000" font-family="sans-serif" font-size="13" lengthAdjust="spacing" textLength="75" x="845" y="1439.1924">getInstance()</text><polygon fill="#181818" points="831,1471.7461,821,1475.7461,831,1479.7461,827,1475.7461" style="stroke:#181818;stroke-width:1.0;"/><line style="stroke:#181818;stroke-width:1.0;stroke-dasharray:2.0,2.0;" x1="825" x2="986.5" y1="1475.7461" y2="1475.7461"/><text fill="#000000" font-family="sans-serif" font-size="13" font-weight="bold" lengthAdjust="spacing" textLength="14" x="837" y="1470.4834">40</text><text fill="#000000" font-family="sans-serif" font-size="13" lengthAdjust="spacing" textLength="67" x="855" y="1470.4834">repositories</text><polygon fill="#181818" points="1075.5,1503.0371,1085.5,1507.0371,1075.5,1511.0371,1079.5,1507.0371" style="stroke:#181818;stroke-width:1.0;"/><line style="stroke:#181818;stroke-width:1.0;" x1="820" x2="1081.5" y1="1507.0371" y2="1507.0371"/><text fill="#000000" font-family="sans-serif" font-size="13" font-weight="bold" lengthAdjust="spacing" textLength="14" x="827" y="1501.7744">41</text><text fill="#000000" font-family="sans-serif" font-size="13" lengthAdjust="spacing" textLength="120" x="845" y="1501.7744">getTeamRepository()</text><polygon fill="#181818" points="831,1534.3281,821,1538.3281,831,1542.3281,827,1538.3281" style="stroke:#181818;stroke-width:1.0;"/><line style="stroke:#181818;stroke-width:1.0;stroke-dasharray:2.0,2.0;" x1="825" x2="1091.5" y1="1538.3281" y2="1538.3281"/><text fill="#000000" font-family="sans-serif" font-size="13" font-weight="bold" lengthAdjust="spacing" textLength="14" x="837" y="1533.0654">42</text><text fill="#000000" font-family="sans-serif" font-size="13" lengthAdjust="spacing" textLength="91" x="855" y="1533.0654">teamRepository</text><polygon fill="#181818" points="2119,1565.6191,2129,1569.6191,2119,1573.6191,2123,1569.6191" style="stroke:#181818;stroke-width:1.0;"/><line style="stroke:#181818;stroke-width:1.0;" x1="820" x2="2125" y1="1569.6191" y2="1569.6191"/><text fill="#000000" font-family="sans-serif" font-size="13" font-weight="bold" lengthAdjust="spacing" textLength="14" x="827" y="1564.3564">43</text><text fill="#000000" font-family="sans-serif" font-size="13" lengthAdjust="spacing" textLength="156" x="845" y="1564.3564">createTeam(teamProposal)</text><polygon fill="#181818" points="2295,1596.9102,2305,1600.9102,2295,1604.9102,2299,1600.9102" style="stroke:#181818;stroke-width:1.0;"/><line style="stroke:#181818;stroke-width:1.0;" x1="2141" x2="2301" y1="1600.9102" y2="1600.9102"/><text fill="#000000" font-family="sans-serif" font-size="13" font-weight="bold" lengthAdjust="spacing" textLength="14" x="2148" y="1595.6475">44</text><text fill="#000000" font-family="sans-serif" font-size="13" lengthAdjust="spacing" textLength="124" x="2166" y="1595.6475">create(teamProposal)</text><rect fill="#E3E3E3" height="51.2422" rx="2.5" ry="2.5" style="stroke:#181818;stroke-width:0.5;" width="54" x="2307" y="1577.6191"/><text fill="#000000" font-family="sans-serif" font-size="14" lengthAdjust="spacing" textLength="31" x="2318.5" y="1599.7266">team</text><text fill="#000000" font-family="sans-serif" font-size="14" lengthAdjust="spacing" textLength="40" x="2314" y="1618.3477">:Team</text><line style="stroke:#181818;stroke-width:1.0;" x1="2141" x2="2188" y1="1658.1523" y2="1658.1523"/><line style="stroke:#181818;stroke-width:1.0;" x1="2188" x2="2188" y1="1658.1523" y2="1671.1523"/><line style="stroke:#181818;stroke-width:1.0;" x1="2147" x2="2188" y1="1671.1523" y2="1671.1523"/><polygon fill="#181818" points="2157,1667.1523,2147,1671.1523,2157,1675.1523,2153,1671.1523" style="stroke:#181818;stroke-width:1.0;"/><text fill="#000000" font-family="sans-serif" font-size="13" font-weight="bold" lengthAdjust="spacing" textLength="14" x="2153" y="1652.8896">45</text><text fill="#000000" font-family="sans-serif" font-size="13" lengthAdjust="spacing" textLength="90" x="2171" y="1652.8896">addTeam(team)</text><line style="stroke:#181818;stroke-width:1.0;" x1="2146" x2="2193" y1="1702.4434" y2="1702.4434"/><line style="stroke:#181818;stroke-width:1.0;" x1="2193" x2="2193" y1="1702.4434" y2="1715.4434"/><line style="stroke:#181818;stroke-width:1.0;" x1="2152" x2="2193" y1="1715.4434" y2="1715.4434"/><polygon fill="#181818" points="2162,1711.4434,2152,1715.4434,2162,1719.4434,2158,1715.4434" style="stroke:#181818;stroke-width:1.0;"/><text fill="#000000" font-family="sans-serif" font-size="13" font-weight="bold" lengthAdjust="spacing" textLength="14" x="2158" y="1697.1807">46</text><text fill="#000000" font-family="sans-serif" font-size="13" lengthAdjust="spacing" textLength="112" x="2176" y="1697.1807">validateTeam(team)</text><polygon fill="#181818" points="831,1747.7344,821,1751.7344,831,1755.7344,827,1751.7344" style="stroke:#181818;stroke-width:1.0;"/><line style="stroke:#181818;stroke-width:1.0;stroke-dasharray:2.0,2.0;" x1="825" x2="2135" y1="1751.7344" y2="1751.7344"/><text fill="#000000" font-family="sans-serif" font-size="13" font-weight="bold" lengthAdjust="spacing" textLength="14" x="837" y="1746.4717">47</text><text fill="#000000" font-family="sans-serif" font-size="13" lengthAdjust="spacing" textLength="29" x="855" y="1746.4717">team</text><polygon fill="#181818" points="411,1779.0254,401,1783.0254,411,1787.0254,407,1783.0254" style="stroke:#181818;stroke-width:1.0;"/><line style="stroke:#181818;stroke-width:1.0;stroke-dasharray:2.0,2.0;" x1="405" x2="814" y1="1783.0254" y2="1783.0254"/><text fill="#000000" font-family="sans-serif" font-size="13" font-weight="bold" lengthAdjust="spacing" textLength="14" x="417" y="1777.7627">48</text><text fill="#000000" font-family="sans-serif" font-size="13" lengthAdjust="spacing" textLength="29" x="435" y="1777.7627">team</text><polygon fill="#181818" points="92,1810.3164,82,1814.3164,92,1818.3164,88,1814.3164" style="stroke:#181818;stroke-width:1.0;"/><line style="stroke:#181818;stroke-width:1.0;stroke-dasharray:2.0,2.0;" x1="86" x2="394" y1="1814.3164" y2="1814.3164"/><text fill="#000000" font-family="sans-serif" font-size="13" font-weight="bold" lengthAdjust="spacing" textLength="14" x="98" y="1809.0537">49</text><text fill="#000000" font-family="sans-serif" font-size="13" lengthAdjust="spacing" textLength="158" x="116" y="1809.0537">displays operation success</text><!--SRC=[tLV1Rk8m4BtdAwnUjgssFy2Xqgf2MxH5HK1llRZ905OTEnixRTclt_4a12Tn82pTItCYyRmtp_OyZp6lGcKyvobBjTBn9jSfC9iN49bw9EFnAr_3mcubi1nYozLQ-W5cmnFzBjIQhRWq44Myi5eLwGlaKVHj8n9WAwtjY_w8U6nrpYxkYvGhDWUZYpm6ywpOb2lCaLymRjZzV1eXinMnoBYox6Bq4nJatC8IU3hBTQODbqyJ2dwQ38YzqyhcMiegmTro_j10pG7314eJO9fqkJVoh4P-857DnxCc09T5oZfiYvX5yml15hyc3myTR8mI-Oj6zJflKDm51ygvF7Pvh3Vr1iyoE40yo_6FwMp-U92hnK0uVxoBx6GFP0schCBh594h7V66-qhb4J5yy0UxkSKAO2CCUyL0pU8SN0nd2ju9oBATE0UfIR1iw8DxaE06UHpT20lyTm76Chi1bl8FaHOfuofXgL3qcpYD-0C4Jw33wAkosmpCZXAIFQvNnoqLv_KrWjTL8KUX21oNmbYgBNDvLKVKn5JZzMTy28LeluHT4ZjH1YqTWyVY4pMyuKVGuu_IAheqRXKza1VkhLSlRorqF2DzBV_qoSGgwgeRppnHBMlswMeJxVJiFDktz0qvjS4xccgQc_rMahB6GlcAmbobh5sbjHWyzBuGfDPPeEWHlD7lXYhUJOpfLKL7XK_Eskh2kUjP6P3O0PXMs2OstDA00Ypj5PxhzCKYuAWtC6T9v99Iih0jG2NH0SbSIfPmoqbePJF3OgrM8a-v5LeDK5A56s8Quaw4RBGsC0NNuinbkLX3F7Yg2V-J2mVPiEF3S1Fg5NpSZ-5srokqpvTb1posASsDUGnxi_pkIKnBjZvD8HxFbrryq9Vjwbe7RZ2NLVzPO0VvlcjCrKkPuylNN_ZoSaRzXQz99zVV_kPq_jOrfk1ToJepsOyv2VvChg__NKOdJJULzuQthYHffF1rN0N91atkIDOtBaNIdjqdfVRJ1Wkb2_5gv13pmB3eH4pZk6a87NJc-FsKcZ7TR_5VdavJRBv3UoYFOyYiwKKVxwXqRtSxshEJN_XG-xJ3xCn3hEoYnpQYOwLU7tc7apkKIkOMQw_tFUEJhkge8VW0VnyyLzhS_e5oLeAQlB4jXopTg_EpuZhdmsddGY9C9ldMC9svZe9-PgP0iniJEXMyL_Sl_Iy0]--></g></svg>