<?xml version="1.0" encoding="us-ascii" standalone="no"?><svg xmlns="http://www.w3.org/2000/svg" xmlns:xlink="http://www.w3.org/1999/xlink" contentStyleType="text/css" height="1829px" preserveAspectRatio="none" style="width:2281px;height:1829px;background:#FFFFFF;" version="1.1" viewBox="0 0 2281 1829" width="2281px" zoomAndPan="magnify"><defs/><g><rect fill="#FFFFFF" height="1597.2012" style="stroke:#181818;stroke-width:1.0;" width="10" x="76" y="112.2422"/><rect fill="#FFFFFF" height="31.291" style="stroke:#181818;stroke-width:1.0;" width="10" x="390" y="135.5332"/><rect fill="#FFFFFF" height="368.8223" style="stroke:#181818;stroke-width:1.0;" width="10" x="390" y="198.1152"/><rect fill="#FFFFFF" height="38.291" style="stroke:#181818;stroke-width:1.0;" width="10" x="390" y="598.2285"/><rect fill="#FFFFFF" height="703.0625" style="stroke:#181818;stroke-width:1.0;" width="10" x="390" y="667.8105"/><rect fill="#FFFFFF" height="307.2793" style="stroke:#181818;stroke-width:1.0;" width="10" x="390" y="1402.1641"/><rect fill="#FFFFFF" height="219.0371" style="stroke:#181818;stroke-width:1.0;" width="10" x="868" y="273.0273"/><rect fill="#FFFFFF" height="219.0371" style="stroke:#181818;stroke-width:1.0;" width="10" x="868" y="699.1016"/><rect fill="#FFFFFF" height="390.1523" style="stroke:#181818;stroke-width:1.0;" width="10" x="868" y="949.4297"/><rect fill="#FFFFFF" height="244.6973" style="stroke:#181818;stroke-width:1.0;" width="10" x="868" y="1433.4551"/><rect fill="#FFFFFF" height="31.291" style="stroke:#181818;stroke-width:1.0;" width="10" x="1040.5" y="304.3184"/><rect fill="#FFFFFF" height="31.291" style="stroke:#181818;stroke-width:1.0;" width="10" x="1040.5" y="730.3926"/><rect fill="#FFFFFF" height="31.291" style="stroke:#181818;stroke-width:1.0;" width="10" x="1040.5" y="980.7207"/><rect fill="#FFFFFF" height="31.291" style="stroke:#181818;stroke-width:1.0;" width="10" x="1145.5" y="366.9004"/><rect fill="#FFFFFF" height="31.291" style="stroke:#181818;stroke-width:1.0;" width="10" x="1145.5" y="792.9746"/><rect fill="#FFFFFF" height="31.291" style="stroke:#181818;stroke-width:1.0;" width="10" x="1145.5" y="1043.3027"/><rect fill="#FFFFFF" height="31.291" style="stroke:#181818;stroke-width:1.0;" width="10" x="1259.5" y="429.4824"/><rect fill="#FFFFFF" height="31.291" style="stroke:#181818;stroke-width:1.0;" width="10" x="1407" y="855.5566"/><rect fill="#FFFFFF" height="202.4063" style="stroke:#181818;stroke-width:1.0;" width="10" x="1560" y="1105.8848"/><rect fill="#FFFFFF" height="182.1152" style="stroke:#181818;stroke-width:1.0;" width="10" x="1560" y="1464.7461"/><rect fill="#FFFFFF" height="80.582" style="stroke:#181818;stroke-width:1.0;" width="10" x="1565" y="1566.2793"/><rect fill="#FFFFFF" height="36.291" style="stroke:#181818;stroke-width:1.0;" width="10" x="1570" y="1610.5703"/><rect fill="#FFFFFF" height="129.8242" style="stroke:#181818;stroke-width:1.0;" width="10" x="2049" y="1147.1758"/><rect fill="#FFFFFF" height="43.291" style="stroke:#181818;stroke-width:1.0;" width="10" x="2054" y="1233.709"/><rect fill="none" height="99.1641" style="stroke:#000000;stroke-width:1.5;" width="486" x="10" y="507.0645"/><rect fill="none" height="63.582" style="stroke:#000000;stroke-width:1.5;" width="257" x="1996" y="1183.127"/><line style="stroke:#181818;stroke-width:0.5;stroke-dasharray:5.0,5.0;" x1="81" x2="81" y1="102.2422" y2="1727.4434"/><line style="stroke:#181818;stroke-width:0.5;stroke-dasharray:5.0,5.0;" x1="395" x2="395" y1="102.2422" y2="1727.4434"/><line style="stroke:#181818;stroke-width:0.5;stroke-dasharray:5.0,5.0;" x1="873" x2="873" y1="237.9258" y2="1727.4434"/><line style="stroke:#181818;stroke-width:0.5;stroke-dasharray:5.0,5.0;" x1="1045" x2="1045" y1="102.2422" y2="1727.4434"/><line style="stroke:#181818;stroke-width:0.5;stroke-dasharray:5.0,5.0;" x1="1150" x2="1150" y1="102.2422" y2="1727.4434"/><line style="stroke:#181818;stroke-width:0.5;stroke-dasharray:5.0,5.0;" x1="1264" x2="1264" y1="102.2422" y2="1727.4434"/><line style="stroke:#181818;stroke-width:0.5;stroke-dasharray:5.0,5.0;" x1="1412" x2="1412" y1="102.2422" y2="1727.4434"/><line style="stroke:#181818;stroke-width:0.5;stroke-dasharray:5.0,5.0;" x1="1565" x2="1565" y1="102.2422" y2="1727.4434"/><line style="stroke:#181818;stroke-width:0.5;stroke-dasharray:5.0,5.0;" x1="2054" x2="2054" y1="1155.0059" y2="1727.4434"/><line style="stroke:#181818;stroke-width:0.5;stroke-dasharray:5.0,5.0;" x1="2248" x2="2248" y1="1513.8672" y2="1727.4434"/><text fill="#000000" font-family="sans-serif" font-size="14" lengthAdjust="spacing" textLength="116" x="20" y="80.1074">Human Resources</text><text fill="#000000" font-family="sans-serif" font-size="14" lengthAdjust="spacing" textLength="56" x="52" y="98.7285">Manager</text><ellipse cx="81" cy="13.5" fill="#E3E3E3" rx="8" ry="8" style="stroke:#181818;stroke-width:0.5;"/><path d="M81,21.5 L81,48.5 M68,29.5 L94,29.5 M81,48.5 L68,63.5 M81,48.5 L94,63.5 " fill="none" style="stroke:#181818;stroke-width:0.5;"/><text fill="#000000" font-family="sans-serif" font-size="14" lengthAdjust="spacing" textLength="116" x="20" y="1741.5508">Human Resources</text><text fill="#000000" font-family="sans-serif" font-size="14" lengthAdjust="spacing" textLength="56" x="52" y="1760.1719">Manager</text><ellipse cx="81" cy="1772.1855" fill="#E3E3E3" rx="8" ry="8" style="stroke:#181818;stroke-width:0.5;"/><path d="M81,1780.1855 L81,1807.1855 M68,1788.1855 L94,1788.1855 M81,1807.1855 L68,1822.1855 M81,1807.1855 L94,1822.1855 " fill="none" style="stroke:#181818;stroke-width:0.5;"/><rect fill="#E3E3E3" height="32.6211" rx="2.5" ry="2.5" style="stroke:#181818;stroke-width:0.5;" width="182" x="304" y="68.6211"/><text fill="#000000" font-family="sans-serif" font-size="14" lengthAdjust="spacing" textLength="168" x="311" y="90.7285">:GenerateTeamProposalUI</text><rect fill="#E3E3E3" height="32.6211" rx="2.5" ry="2.5" style="stroke:#181818;stroke-width:0.5;" width="182" x="304" y="1726.4434"/><text fill="#000000" font-family="sans-serif" font-size="14" lengthAdjust="spacing" textLength="168" x="311" y="1748.5508">:GenerateTeamProposalUI</text><rect fill="#E3E3E3" height="32.6211" rx="2.5" ry="2.5" style="stroke:#181818;stroke-width:0.5;" width="232" x="757" y="1726.4434"/><text fill="#000000" font-family="sans-serif" font-size="14" lengthAdjust="spacing" textLength="218" x="764" y="1748.5508">:GenerateTeamProposalController</text><rect fill="#E3E3E3" height="32.6211" rx="2.5" ry="2.5" style="stroke:#181818;stroke-width:0.5;" width="93" x="999" y="68.6211"/><text fill="#000000" font-family="sans-serif" font-size="14" lengthAdjust="spacing" textLength="79" x="1006" y="90.7285">Repositories</text><rect fill="#E3E3E3" height="32.6211" rx="2.5" ry="2.5" style="stroke:#181818;stroke-width:0.5;" width="93" x="999" y="1726.4434"/><text fill="#000000" font-family="sans-serif" font-size="14" lengthAdjust="spacing" textLength="79" x="1006" y="1748.5508">Repositories</text><rect fill="#E3E3E3" height="51.2422" rx="2.5" ry="2.5" style="stroke:#181818;stroke-width:0.5;" width="97" x="1102" y="50"/><text fill="#000000" font-family="sans-serif" font-size="14" lengthAdjust="spacing" textLength="74" x="1113.5" y="72.1074">repositories</text><text fill="#000000" font-family="sans-serif" font-size="14" lengthAdjust="spacing" textLength="83" x="1109" y="90.7285">:Repositories</text><rect fill="#E3E3E3" height="51.2422" rx="2.5" ry="2.5" style="stroke:#181818;stroke-width:0.5;" width="97" x="1102" y="1726.4434"/><text fill="#000000" font-family="sans-serif" font-size="14" lengthAdjust="spacing" textLength="74" x="1113.5" y="1748.5508">repositories</text><text fill="#000000" font-family="sans-serif" font-size="14" lengthAdjust="spacing" textLength="83" x="1109" y="1767.1719">:Repositories</text><rect fill="#E3E3E3" height="51.2422" rx="2.5" ry="2.5" style="stroke:#181818;stroke-width:0.5;" width="111" x="1209" y="50"/><text fill="#000000" font-family="sans-serif" font-size="14" lengthAdjust="spacing" textLength="91" x="1219" y="72.1074">skillRepository</text><text fill="#000000" font-family="sans-serif" font-size="14" lengthAdjust="spacing" textLength="97" x="1216" y="90.7285">:SkillRepository</text><rect fill="#E3E3E3" height="51.2422" rx="2.5" ry="2.5" style="stroke:#181818;stroke-width:0.5;" width="111" x="1209" y="1726.4434"/><text fill="#000000" font-family="sans-serif" font-size="14" lengthAdjust="spacing" textLength="91" x="1219" y="1748.5508">skillRepository</text><text fill="#000000" font-family="sans-serif" font-size="14" lengthAdjust="spacing" textLength="97" x="1216" y="1767.1719">:SkillRepository</text><rect fill="#E3E3E3" height="51.2422" rx="2.5" ry="2.5" style="stroke:#181818;stroke-width:0.5;" width="164" x="1330" y="50"/><text fill="#000000" font-family="sans-serif" font-size="14" lengthAdjust="spacing" textLength="143" x="1340.5" y="72.1074">collaboratorRepository</text><text fill="#000000" font-family="sans-serif" font-size="14" lengthAdjust="spacing" textLength="150" x="1337" y="90.7285">:CollaboratorRepository</text><rect fill="#E3E3E3" height="51.2422" rx="2.5" ry="2.5" style="stroke:#181818;stroke-width:0.5;" width="164" x="1330" y="1726.4434"/><text fill="#000000" font-family="sans-serif" font-size="14" lengthAdjust="spacing" textLength="143" x="1340.5" y="1748.5508">collaboratorRepository</text><text fill="#000000" font-family="sans-serif" font-size="14" lengthAdjust="spacing" textLength="150" x="1337" y="1767.1719">:CollaboratorRepository</text><rect fill="#E3E3E3" height="51.2422" rx="2.5" ry="2.5" style="stroke:#181818;stroke-width:0.5;" width="122" x="1504" y="50"/><text fill="#000000" font-family="sans-serif" font-size="14" lengthAdjust="spacing" textLength="99" x="1515.5" y="72.1074">teamRepository</text><text fill="#000000" font-family="sans-serif" font-size="14" lengthAdjust="spacing" textLength="108" x="1511" y="90.7285">:TeamRepository</text><rect fill="#E3E3E3" height="51.2422" rx="2.5" ry="2.5" style="stroke:#181818;stroke-width:0.5;" width="122" x="1504" y="1726.4434"/><text fill="#000000" font-family="sans-serif" font-size="14" lengthAdjust="spacing" textLength="99" x="1515.5" y="1748.5508">teamRepository</text><text fill="#000000" font-family="sans-serif" font-size="14" lengthAdjust="spacing" textLength="108" x="1511" y="1767.1719">:TeamRepository</text><rect fill="#E3E3E3" height="51.2422" rx="2.5" ry="2.5" style="stroke:#181818;stroke-width:0.5;" width="96" x="2006" y="1726.4434"/><text fill="#000000" font-family="sans-serif" font-size="14" lengthAdjust="spacing" textLength="75" x="2016.5" y="1748.5508">collaborator</text><text fill="#000000" font-family="sans-serif" font-size="14" lengthAdjust="spacing" textLength="82" x="2013" y="1767.1719">:Collaborator</text><rect fill="#E3E3E3" height="51.2422" rx="2.5" ry="2.5" style="stroke:#181818;stroke-width:0.5;" width="54" x="2221" y="1726.4434"/><text fill="#000000" font-family="sans-serif" font-size="14" lengthAdjust="spacing" textLength="31" x="2232.5" y="1748.5508">team</text><text fill="#000000" font-family="sans-serif" font-size="14" lengthAdjust="spacing" textLength="40" x="2228" y="1767.1719">:Team</text><rect fill="#FFFFFF" height="1597.2012" style="stroke:#181818;stroke-width:1.0;" width="10" x="76" y="112.2422"/><rect fill="#FFFFFF" height="31.291" style="stroke:#181818;stroke-width:1.0;" width="10" x="390" y="135.5332"/><rect fill="#FFFFFF" height="368.8223" style="stroke:#181818;stroke-width:1.0;" width="10" x="390" y="198.1152"/><rect fill="#FFFFFF" height="38.291" style="stroke:#181818;stroke-width:1.0;" width="10" x="390" y="598.2285"/><rect fill="#FFFFFF" height="703.0625" style="stroke:#181818;stroke-width:1.0;" width="10" x="390" y="667.8105"/><rect fill="#FFFFFF" height="307.2793" style="stroke:#181818;stroke-width:1.0;" width="10" x="390" y="1402.1641"/><rect fill="#FFFFFF" height="219.0371" style="stroke:#181818;stroke-width:1.0;" width="10" x="868" y="273.0273"/><rect fill="#FFFFFF" height="219.0371" style="stroke:#181818;stroke-width:1.0;" width="10" x="868" y="699.1016"/><rect fill="#FFFFFF" height="390.1523" style="stroke:#181818;stroke-width:1.0;" width="10" x="868" y="949.4297"/><rect fill="#FFFFFF" height="244.6973" style="stroke:#181818;stroke-width:1.0;" width="10" x="868" y="1433.4551"/><rect fill="#FFFFFF" height="31.291" style="stroke:#181818;stroke-width:1.0;" width="10" x="1040.5" y="304.3184"/><rect fill="#FFFFFF" height="31.291" style="stroke:#181818;stroke-width:1.0;" width="10" x="1040.5" y="730.3926"/><rect fill="#FFFFFF" height="31.291" style="stroke:#181818;stroke-width:1.0;" width="10" x="1040.5" y="980.7207"/><rect fill="#FFFFFF" height="31.291" style="stroke:#181818;stroke-width:1.0;" width="10" x="1145.5" y="366.9004"/><rect fill="#FFFFFF" height="31.291" style="stroke:#181818;stroke-width:1.0;" width="10" x="1145.5" y="792.9746"/><rect fill="#FFFFFF" height="31.291" style="stroke:#181818;stroke-width:1.0;" width="10" x="1145.5" y="1043.3027"/><rect fill="#FFFFFF" height="31.291" style="stroke:#181818;stroke-width:1.0;" width="10" x="1259.5" y="429.4824"/><rect fill="#FFFFFF" height="31.291" style="stroke:#181818;stroke-width:1.0;" width="10" x="1407" y="855.5566"/><rect fill="#FFFFFF" height="202.4063" style="stroke:#181818;stroke-width:1.0;" width="10" x="1560" y="1105.8848"/><rect fill="#FFFFFF" height="182.1152" style="stroke:#181818;stroke-width:1.0;" width="10" x="1560" y="1464.7461"/><rect fill="#FFFFFF" height="80.582" style="stroke:#181818;stroke-width:1.0;" width="10" x="1565" y="1566.2793"/><rect fill="#FFFFFF" height="36.291" style="stroke:#181818;stroke-width:1.0;" width="10" x="1570" y="1610.5703"/><rect fill="#FFFFFF" height="129.8242" style="stroke:#181818;stroke-width:1.0;" width="10" x="2049" y="1147.1758"/><rect fill="#FFFFFF" height="43.291" style="stroke:#181818;stroke-width:1.0;" width="10" x="2054" y="1233.709"/><polygon fill="#181818" points="378,131.5332,388,135.5332,378,139.5332,382,135.5332" style="stroke:#181818;stroke-width:1.0;"/><line style="stroke:#181818;stroke-width:1.0;" x1="86" x2="384" y1="135.5332" y2="135.5332"/><text fill="#000000" font-family="sans-serif" font-size="13" font-weight="bold" lengthAdjust="spacing" textLength="7" x="93" y="130.2705">1</text><text fill="#000000" font-family="sans-serif" font-size="13" lengthAdjust="spacing" textLength="207" x="104" y="130.2705">asks to create a new team proposal</text><polygon fill="#181818" points="97,162.8242,87,166.8242,97,170.8242,93,166.8242" style="stroke:#181818;stroke-width:1.0;"/><line style="stroke:#181818;stroke-width:1.0;stroke-dasharray:2.0,2.0;" x1="91" x2="394" y1="166.8242" y2="166.8242"/><text fill="#000000" font-family="sans-serif" font-size="13" font-weight="bold" lengthAdjust="spacing" textLength="7" x="103" y="161.5615">2</text><text fill="#000000" font-family="sans-serif" font-size="13" lengthAdjust="spacing" textLength="269" x="114" y="161.5615">request the maximum and minimum team size</text><polygon fill="#181818" points="378,194.1152,388,198.1152,378,202.1152,382,198.1152" style="stroke:#181818;stroke-width:1.0;"/><line style="stroke:#181818;stroke-width:1.0;" x1="86" x2="384" y1="198.1152" y2="198.1152"/><text fill="#000000" font-family="sans-serif" font-size="13" font-weight="bold" lengthAdjust="spacing" textLength="7" x="93" y="192.8525">3</text><text fill="#000000" font-family="sans-serif" font-size="13" lengthAdjust="spacing" textLength="121" x="104" y="192.8525">types requested size</text><polygon fill="#181818" points="745,225.4063,755,229.4063,745,233.4063,749,229.4063" style="stroke:#181818;stroke-width:1.0;"/><line style="stroke:#181818;stroke-width:1.0;" x1="400" x2="751" y1="229.4063" y2="229.4063"/><text fill="#000000" font-family="sans-serif" font-size="13" font-weight="bold" lengthAdjust="spacing" textLength="7" x="407" y="224.1436">4</text><text fill="#000000" font-family="sans-serif" font-size="13" lengthAdjust="spacing" textLength="50" x="418" y="224.1436">generate</text><rect fill="#E3E3E3" height="32.6211" rx="2.5" ry="2.5" style="stroke:#181818;stroke-width:0.5;" width="232" x="757" y="206.1152"/><text fill="#000000" font-family="sans-serif" font-size="14" lengthAdjust="spacing" textLength="218" x="764" y="228.2227">:GenerateTeamProposalController</text><polygon fill="#181818" points="856,269.0273,866,273.0273,856,277.0273,860,273.0273" style="stroke:#181818;stroke-width:1.0;"/><line style="stroke:#181818;stroke-width:1.0;" x1="400" x2="862" y1="273.0273" y2="273.0273"/><text fill="#000000" font-family="sans-serif" font-size="13" font-weight="bold" lengthAdjust="spacing" textLength="7" x="407" y="267.7646">5</text><text fill="#000000" font-family="sans-serif" font-size="13" lengthAdjust="spacing" textLength="57" x="418" y="267.7646">listSkills()</text><polygon fill="#181818" points="1028.5,300.3184,1038.5,304.3184,1028.5,308.3184,1032.5,304.3184" style="stroke:#181818;stroke-width:1.0;"/><line style="stroke:#181818;stroke-width:1.0;" x1="878" x2="1034.5" y1="304.3184" y2="304.3184"/><text fill="#000000" font-family="sans-serif" font-size="13" font-weight="bold" lengthAdjust="spacing" textLength="7" x="885" y="299.0557">6</text><text fill="#000000" font-family="sans-serif" font-size="13" lengthAdjust="spacing" textLength="75" x="896" y="299.0557">getInstance()</text><polygon fill="#181818" points="889,331.6094,879,335.6094,889,339.6094,885,335.6094" style="stroke:#181818;stroke-width:1.0;"/><line style="stroke:#181818;stroke-width:1.0;stroke-dasharray:2.0,2.0;" x1="883" x2="1044.5" y1="335.6094" y2="335.6094"/><text fill="#000000" font-family="sans-serif" font-size="13" font-weight="bold" lengthAdjust="spacing" textLength="7" x="895" y="330.3467">7</text><text fill="#000000" font-family="sans-serif" font-size="13" lengthAdjust="spacing" textLength="67" x="906" y="330.3467">repositories</text><polygon fill="#181818" points="1133.5,362.9004,1143.5,366.9004,1133.5,370.9004,1137.5,366.9004" style="stroke:#181818;stroke-width:1.0;"/><line style="stroke:#181818;stroke-width:1.0;" x1="878" x2="1139.5" y1="366.9004" y2="366.9004"/><text fill="#000000" font-family="sans-serif" font-size="13" font-weight="bold" lengthAdjust="spacing" textLength="7" x="885" y="361.6377">8</text><text fill="#000000" font-family="sans-serif" font-size="13" lengthAdjust="spacing" textLength="113" x="896" y="361.6377">getSkillRepository()</text><polygon fill="#181818" points="889,394.1914,879,398.1914,889,402.1914,885,398.1914" style="stroke:#181818;stroke-width:1.0;"/><line style="stroke:#181818;stroke-width:1.0;stroke-dasharray:2.0,2.0;" x1="883" x2="1149.5" y1="398.1914" y2="398.1914"/><text fill="#000000" font-family="sans-serif" font-size="13" font-weight="bold" lengthAdjust="spacing" textLength="7" x="895" y="392.9287">9</text><text fill="#000000" font-family="sans-serif" font-size="13" lengthAdjust="spacing" textLength="85" x="906" y="392.9287">skillRepository</text><polygon fill="#181818" points="1247.5,425.4824,1257.5,429.4824,1247.5,433.4824,1251.5,429.4824" style="stroke:#181818;stroke-width:1.0;"/><line style="stroke:#181818;stroke-width:1.0;" x1="878" x2="1253.5" y1="429.4824" y2="429.4824"/><text fill="#000000" font-family="sans-serif" font-size="13" font-weight="bold" lengthAdjust="spacing" textLength="14" x="885" y="424.2197">10</text><text fill="#000000" font-family="sans-serif" font-size="13" lengthAdjust="spacing" textLength="57" x="903" y="424.2197">listSkills()</text><polygon fill="#181818" points="889,456.7734,879,460.7734,889,464.7734,885,460.7734" style="stroke:#181818;stroke-width:1.0;"/><line style="stroke:#181818;stroke-width:1.0;stroke-dasharray:2.0,2.0;" x1="883" x2="1263.5" y1="460.7734" y2="460.7734"/><text fill="#000000" font-family="sans-serif" font-size="13" font-weight="bold" lengthAdjust="spacing" textLength="14" x="895" y="455.5107">11</text><text fill="#000000" font-family="sans-serif" font-size="13" lengthAdjust="spacing" textLength="30" x="913" y="455.5107">skills</text><polygon fill="#181818" points="411,488.0645,401,492.0645,411,496.0645,407,492.0645" style="stroke:#181818;stroke-width:1.0;"/><line style="stroke:#181818;stroke-width:1.0;stroke-dasharray:2.0,2.0;" x1="405" x2="872" y1="492.0645" y2="492.0645"/><text fill="#000000" font-family="sans-serif" font-size="13" font-weight="bold" lengthAdjust="spacing" textLength="14" x="417" y="486.8018">12</text><text fill="#000000" font-family="sans-serif" font-size="13" lengthAdjust="spacing" textLength="30" x="435" y="486.8018">skills</text><path d="M10,507.0645 L83,507.0645 L83,516.3555 L73,526.3555 L10,526.3555 L10,507.0645 " fill="#EEEEEE" style="stroke:#000000;stroke-width:1.5;"/><rect fill="none" height="99.1641" style="stroke:#000000;stroke-width:1.5;" width="486" x="10" y="507.0645"/><text fill="#000000" font-family="sans-serif" font-size="13" font-weight="bold" lengthAdjust="spacing" textLength="28" x="25" y="522.0928">loop</text><polygon fill="#181818" points="97,562.9375,87,566.9375,97,570.9375,93,566.9375" style="stroke:#181818;stroke-width:1.0;"/><line style="stroke:#181818;stroke-width:1.0;stroke-dasharray:2.0,2.0;" x1="91" x2="394" y1="566.9375" y2="566.9375"/><text fill="#000000" font-family="sans-serif" font-size="13" font-weight="bold" lengthAdjust="spacing" textLength="14" x="103" y="553.0293">13</text><text fill="#000000" font-family="sans-serif" font-size="13" lengthAdjust="spacing" textLength="225" x="121" y="544.3838">shows the list of skills and asks you to</text><text fill="#000000" font-family="sans-serif" font-size="13" lengthAdjust="spacing" textLength="216" x="121" y="561.6748">select one that you need for that task</text><polygon fill="#181818" points="378,594.2285,388,598.2285,378,602.2285,382,598.2285" style="stroke:#181818;stroke-width:1.0;"/><line style="stroke:#181818;stroke-width:1.0;" x1="86" x2="384" y1="598.2285" y2="598.2285"/><text fill="#000000" font-family="sans-serif" font-size="13" font-weight="bold" lengthAdjust="spacing" textLength="14" x="93" y="592.9658">14</text><text fill="#000000" font-family="sans-serif" font-size="13" lengthAdjust="spacing" textLength="84" x="111" y="592.9658">select the skill</text><polygon fill="#181818" points="97,632.5195,87,636.5195,97,640.5195,93,636.5195" style="stroke:#181818;stroke-width:1.0;"/><line style="stroke:#181818;stroke-width:1.0;stroke-dasharray:2.0,2.0;" x1="91" x2="394" y1="636.5195" y2="636.5195"/><text fill="#000000" font-family="sans-serif" font-size="13" font-weight="bold" lengthAdjust="spacing" textLength="14" x="103" y="631.2568">15</text><text fill="#000000" font-family="sans-serif" font-size="13" lengthAdjust="spacing" textLength="236" x="121" y="631.2568">shows all data and requests confirmation</text><polygon fill="#181818" points="378,663.8105,388,667.8105,378,671.8105,382,667.8105" style="stroke:#181818;stroke-width:1.0;"/><line style="stroke:#181818;stroke-width:1.0;" x1="86" x2="384" y1="667.8105" y2="667.8105"/><text fill="#000000" font-family="sans-serif" font-size="13" font-weight="bold" lengthAdjust="spacing" textLength="14" x="93" y="662.5479">16</text><text fill="#000000" font-family="sans-serif" font-size="13" lengthAdjust="spacing" textLength="78" x="111" y="662.5479">confirms data</text><polygon fill="#181818" points="856,695.1016,866,699.1016,856,703.1016,860,699.1016" style="stroke:#181818;stroke-width:1.0;"/><line style="stroke:#181818;stroke-width:1.0;" x1="400" x2="862" y1="699.1016" y2="699.1016"/><text fill="#000000" font-family="sans-serif" font-size="13" font-weight="bold" lengthAdjust="spacing" textLength="14" x="407" y="693.8389">17</text><text fill="#000000" font-family="sans-serif" font-size="13" lengthAdjust="spacing" textLength="102" x="425" y="693.8389">getCollaborators()</text><polygon fill="#181818" points="1028.5,726.3926,1038.5,730.3926,1028.5,734.3926,1032.5,730.3926" style="stroke:#181818;stroke-width:1.0;"/><line style="stroke:#181818;stroke-width:1.0;" x1="878" x2="1034.5" y1="730.3926" y2="730.3926"/><text fill="#000000" font-family="sans-serif" font-size="13" font-weight="bold" lengthAdjust="spacing" textLength="14" x="885" y="725.1299">18</text><text fill="#000000" font-family="sans-serif" font-size="13" lengthAdjust="spacing" textLength="75" x="903" y="725.1299">getInstance()</text><polygon fill="#181818" points="889,757.6836,879,761.6836,889,765.6836,885,761.6836" style="stroke:#181818;stroke-width:1.0;"/><line style="stroke:#181818;stroke-width:1.0;stroke-dasharray:2.0,2.0;" x1="883" x2="1044.5" y1="761.6836" y2="761.6836"/><text fill="#000000" font-family="sans-serif" font-size="13" font-weight="bold" lengthAdjust="spacing" textLength="14" x="895" y="756.4209">19</text><text fill="#000000" font-family="sans-serif" font-size="13" lengthAdjust="spacing" textLength="67" x="913" y="756.4209">repositories</text><polygon fill="#181818" points="1133.5,788.9746,1143.5,792.9746,1133.5,796.9746,1137.5,792.9746" style="stroke:#181818;stroke-width:1.0;"/><line style="stroke:#181818;stroke-width:1.0;" x1="878" x2="1139.5" y1="792.9746" y2="792.9746"/><text fill="#000000" font-family="sans-serif" font-size="13" font-weight="bold" lengthAdjust="spacing" textLength="14" x="885" y="787.7119">20</text><text fill="#000000" font-family="sans-serif" font-size="13" lengthAdjust="spacing" textLength="157" x="903" y="787.7119">getCollaboratorRepository()</text><polygon fill="#181818" points="889,820.2656,879,824.2656,889,828.2656,885,824.2656" style="stroke:#181818;stroke-width:1.0;"/><line style="stroke:#181818;stroke-width:1.0;stroke-dasharray:2.0,2.0;" x1="883" x2="1149.5" y1="824.2656" y2="824.2656"/><text fill="#000000" font-family="sans-serif" font-size="13" font-weight="bold" lengthAdjust="spacing" textLength="14" x="895" y="819.0029">21</text><text fill="#000000" font-family="sans-serif" font-size="13" lengthAdjust="spacing" textLength="129" x="913" y="819.0029">collaboratorRepository</text><polygon fill="#181818" points="1395,851.5566,1405,855.5566,1395,859.5566,1399,855.5566" style="stroke:#181818;stroke-width:1.0;"/><line style="stroke:#181818;stroke-width:1.0;" x1="878" x2="1401" y1="855.5566" y2="855.5566"/><text fill="#000000" font-family="sans-serif" font-size="13" font-weight="bold" lengthAdjust="spacing" textLength="14" x="885" y="850.2939">22</text><text fill="#000000" font-family="sans-serif" font-size="13" lengthAdjust="spacing" textLength="102" x="903" y="850.2939">getCollaborators()</text><polygon fill="#181818" points="889,882.8477,879,886.8477,889,890.8477,885,886.8477" style="stroke:#181818;stroke-width:1.0;"/><line style="stroke:#181818;stroke-width:1.0;stroke-dasharray:2.0,2.0;" x1="883" x2="1411" y1="886.8477" y2="886.8477"/><text fill="#000000" font-family="sans-serif" font-size="13" font-weight="bold" lengthAdjust="spacing" textLength="14" x="895" y="881.585">23</text><text fill="#000000" font-family="sans-serif" font-size="13" lengthAdjust="spacing" textLength="74" x="913" y="881.585">collaborators</text><polygon fill="#181818" points="411,914.1387,401,918.1387,411,922.1387,407,918.1387" style="stroke:#181818;stroke-width:1.0;"/><line style="stroke:#181818;stroke-width:1.0;stroke-dasharray:2.0,2.0;" x1="405" x2="872" y1="918.1387" y2="918.1387"/><text fill="#000000" font-family="sans-serif" font-size="13" font-weight="bold" lengthAdjust="spacing" textLength="14" x="417" y="912.876">24</text><text fill="#000000" font-family="sans-serif" font-size="13" lengthAdjust="spacing" textLength="74" x="435" y="912.876">collaborators</text><polygon fill="#181818" points="856,945.4297,866,949.4297,856,953.4297,860,949.4297" style="stroke:#181818;stroke-width:1.0;"/><line style="stroke:#181818;stroke-width:1.0;" x1="400" x2="862" y1="949.4297" y2="949.4297"/><text fill="#000000" font-family="sans-serif" font-size="13" font-weight="bold" lengthAdjust="spacing" textLength="14" x="407" y="944.167">25</text><text fill="#000000" font-family="sans-serif" font-size="13" lengthAdjust="spacing" textLength="431" x="425" y="944.167">generateTeamProposal(minimumSize, maximumSize, skills, collaborators)</text><polygon fill="#181818" points="1028.5,976.7207,1038.5,980.7207,1028.5,984.7207,1032.5,980.7207" style="stroke:#181818;stroke-width:1.0;"/><line style="stroke:#181818;stroke-width:1.0;" x1="878" x2="1034.5" y1="980.7207" y2="980.7207"/><text fill="#000000" font-family="sans-serif" font-size="13" font-weight="bold" lengthAdjust="spacing" textLength="14" x="885" y="975.458">26</text><text fill="#000000" font-family="sans-serif" font-size="13" lengthAdjust="spacing" textLength="75" x="903" y="975.458">getInstance()</text><polygon fill="#181818" points="889,1008.0117,879,1012.0117,889,1016.0117,885,1012.0117" style="stroke:#181818;stroke-width:1.0;"/><line style="stroke:#181818;stroke-width:1.0;stroke-dasharray:2.0,2.0;" x1="883" x2="1044.5" y1="1012.0117" y2="1012.0117"/><text fill="#000000" font-family="sans-serif" font-size="13" font-weight="bold" lengthAdjust="spacing" textLength="14" x="895" y="1006.749">27</text><text fill="#000000" font-family="sans-serif" font-size="13" lengthAdjust="spacing" textLength="67" x="913" y="1006.749">repositories</text><polygon fill="#181818" points="1133.5,1039.3027,1143.5,1043.3027,1133.5,1047.3027,1137.5,1043.3027" style="stroke:#181818;stroke-width:1.0;"/><line style="stroke:#181818;stroke-width:1.0;" x1="878" x2="1139.5" y1="1043.3027" y2="1043.3027"/><text fill="#000000" font-family="sans-serif" font-size="13" font-weight="bold" lengthAdjust="spacing" textLength="14" x="885" y="1038.04">28</text><text fill="#000000" font-family="sans-serif" font-size="13" lengthAdjust="spacing" textLength="120" x="903" y="1038.04">getTeamRepository()</text><polygon fill="#181818" points="889,1070.5938,879,1074.5938,889,1078.5938,885,1074.5938" style="stroke:#181818;stroke-width:1.0;"/><line style="stroke:#181818;stroke-width:1.0;stroke-dasharray:2.0,2.0;" x1="883" x2="1149.5" y1="1074.5938" y2="1074.5938"/><text fill="#000000" font-family="sans-serif" font-size="13" font-weight="bold" lengthAdjust="spacing" textLength="14" x="895" y="1069.3311">29</text><text fill="#000000" font-family="sans-serif" font-size="13" lengthAdjust="spacing" textLength="91" x="913" y="1069.3311">teamRepository</text><polygon fill="#181818" points="1548,1101.8848,1558,1105.8848,1548,1109.8848,1552,1105.8848" style="stroke:#181818;stroke-width:1.0;"/><line style="stroke:#181818;stroke-width:1.0;" x1="878" x2="1554" y1="1105.8848" y2="1105.8848"/><text fill="#000000" font-family="sans-serif" font-size="13" font-weight="bold" lengthAdjust="spacing" textLength="14" x="885" y="1100.6221">30</text><text fill="#000000" font-family="sans-serif" font-size="13" lengthAdjust="spacing" textLength="431" x="903" y="1100.6221">generateTeamProposal(minimumSize, maximumSize, skills, collaborators)</text><polygon fill="#181818" points="1994,1133.1758,2004,1137.1758,1994,1141.1758,1998,1137.1758" style="stroke:#181818;stroke-width:1.0;"/><line style="stroke:#181818;stroke-width:1.0;" x1="1570" x2="2000" y1="1137.1758" y2="1137.1758"/><text fill="#000000" font-family="sans-serif" font-size="13" font-weight="bold" lengthAdjust="spacing" textLength="14" x="1577" y="1131.9131">31</text><text fill="#000000" font-family="sans-serif" font-size="13" lengthAdjust="spacing" textLength="394" x="1595" y="1131.9131">chooseMembers(minimumSize, maximumSize, collaborators, skills)</text><rect fill="#E3E3E3" height="51.2422" rx="2.5" ry="2.5" style="stroke:#181818;stroke-width:0.5;" width="96" x="2006" y="1113.8848"/><text fill="#000000" font-family="sans-serif" font-size="14" lengthAdjust="spacing" textLength="75" x="2016.5" y="1135.9922">collaborator</text><text fill="#000000" font-family="sans-serif" font-size="14" lengthAdjust="spacing" textLength="82" x="2013" y="1154.6133">:Collaborator</text><path d="M1996,1183.127 L2069,1183.127 L2069,1192.418 L2059,1202.418 L1996,1202.418 L1996,1183.127 " fill="#EEEEEE" style="stroke:#000000;stroke-width:1.5;"/><rect fill="none" height="63.582" style="stroke:#000000;stroke-width:1.5;" width="257" x="1996" y="1183.127"/><text fill="#000000" font-family="sans-serif" font-size="13" font-weight="bold" lengthAdjust="spacing" textLength="28" x="2011" y="1198.1553">loop</text><line style="stroke:#181818;stroke-width:1.0;" x1="2059" x2="2106" y1="1220.709" y2="1220.709"/><line style="stroke:#181818;stroke-width:1.0;" x1="2106" x2="2106" y1="1220.709" y2="1233.709"/><line style="stroke:#181818;stroke-width:1.0;" x1="2065" x2="2106" y1="1233.709" y2="1233.709"/><polygon fill="#181818" points="2075,1229.709,2065,1233.709,2075,1237.709,2071,1233.709" style="stroke:#181818;stroke-width:1.0;"/><text fill="#000000" font-family="sans-serif" font-size="13" font-weight="bold" lengthAdjust="spacing" textLength="14" x="2071" y="1215.4463">32</text><text fill="#000000" font-family="sans-serif" font-size="13" lengthAdjust="spacing" textLength="152" x="2089" y="1215.4463">analyseCollaborator(skills)</text><polygon fill="#181818" points="1581,1273,1571,1277,1581,1281,1577,1277" style="stroke:#181818;stroke-width:1.0;"/><line style="stroke:#181818;stroke-width:1.0;stroke-dasharray:2.0,2.0;" x1="1575" x2="2053" y1="1277" y2="1277"/><text fill="#000000" font-family="sans-serif" font-size="13" font-weight="bold" lengthAdjust="spacing" textLength="14" x="1587" y="1271.7373">33</text><text fill="#000000" font-family="sans-serif" font-size="13" lengthAdjust="spacing" textLength="54" x="1605" y="1271.7373">members</text><polygon fill="#181818" points="889,1304.291,879,1308.291,889,1312.291,885,1308.291" style="stroke:#181818;stroke-width:1.0;"/><line style="stroke:#181818;stroke-width:1.0;stroke-dasharray:2.0,2.0;" x1="883" x2="1564" y1="1308.291" y2="1308.291"/><text fill="#000000" font-family="sans-serif" font-size="13" font-weight="bold" lengthAdjust="spacing" textLength="14" x="895" y="1303.0283">34</text><text fill="#000000" font-family="sans-serif" font-size="13" lengthAdjust="spacing" textLength="54" x="913" y="1303.0283">members</text><polygon fill="#181818" points="411,1335.582,401,1339.582,411,1343.582,407,1339.582" style="stroke:#181818;stroke-width:1.0;"/><line style="stroke:#181818;stroke-width:1.0;stroke-dasharray:2.0,2.0;" x1="405" x2="872" y1="1339.582" y2="1339.582"/><text fill="#000000" font-family="sans-serif" font-size="13" font-weight="bold" lengthAdjust="spacing" textLength="14" x="417" y="1334.3193">35</text><text fill="#000000" font-family="sans-serif" font-size="13" lengthAdjust="spacing" textLength="54" x="435" y="1334.3193">members</text><polygon fill="#181818" points="97,1366.873,87,1370.873,97,1374.873,93,1370.873" style="stroke:#181818;stroke-width:1.0;"/><line style="stroke:#181818;stroke-width:1.0;stroke-dasharray:2.0,2.0;" x1="91" x2="394" y1="1370.873" y2="1370.873"/><text fill="#000000" font-family="sans-serif" font-size="13" font-weight="bold" lengthAdjust="spacing" textLength="14" x="103" y="1365.6104">36</text><text fill="#000000" font-family="sans-serif" font-size="13" lengthAdjust="spacing" textLength="185" x="121" y="1365.6104">show the team recommendation</text><polygon fill="#181818" points="378,1398.1641,388,1402.1641,378,1406.1641,382,1402.1641" style="stroke:#181818;stroke-width:1.0;"/><line style="stroke:#181818;stroke-width:1.0;" x1="86" x2="384" y1="1402.1641" y2="1402.1641"/><text fill="#000000" font-family="sans-serif" font-size="13" font-weight="bold" lengthAdjust="spacing" textLength="14" x="93" y="1396.9014">37</text><text fill="#000000" font-family="sans-serif" font-size="13" lengthAdjust="spacing" textLength="179" x="111" y="1396.9014">accepts team recommendation</text><polygon fill="#181818" points="856,1429.4551,866,1433.4551,856,1437.4551,860,1433.4551" style="stroke:#181818;stroke-width:1.0;"/><line style="stroke:#181818;stroke-width:1.0;" x1="400" x2="862" y1="1433.4551" y2="1433.4551"/><text fill="#000000" font-family="sans-serif" font-size="13" font-weight="bold" lengthAdjust="spacing" textLength="14" x="407" y="1428.1924">38</text><text fill="#000000" font-family="sans-serif" font-size="13" lengthAdjust="spacing" textLength="130" x="425" y="1428.1924">createTeam(members)</text><polygon fill="#181818" points="1548,1460.7461,1558,1464.7461,1548,1468.7461,1552,1464.7461" style="stroke:#181818;stroke-width:1.0;"/><line style="stroke:#181818;stroke-width:1.0;" x1="878" x2="1554" y1="1464.7461" y2="1464.7461"/><text fill="#000000" font-family="sans-serif" font-size="13" font-weight="bold" lengthAdjust="spacing" textLength="14" x="885" y="1459.4834">39</text><text fill="#000000" font-family="sans-serif" font-size="13" lengthAdjust="spacing" textLength="130" x="903" y="1459.4834">createTeam(members)</text><polygon fill="#181818" points="2209,1492.0371,2219,1496.0371,2209,1500.0371,2213,1496.0371" style="stroke:#181818;stroke-width:1.0;"/><line style="stroke:#181818;stroke-width:1.0;" x1="1570" x2="2215" y1="1496.0371" y2="1496.0371"/><text fill="#000000" font-family="sans-serif" font-size="13" font-weight="bold" lengthAdjust="spacing" textLength="14" x="1577" y="1490.7744">40</text><text fill="#000000" font-family="sans-serif" font-size="13" lengthAdjust="spacing" textLength="94" x="1595" y="1490.7744">Team(members)</text><rect fill="#E3E3E3" height="51.2422" rx="2.5" ry="2.5" style="stroke:#181818;stroke-width:0.5;" width="54" x="2221" y="1472.7461"/><text fill="#000000" font-family="sans-serif" font-size="14" lengthAdjust="spacing" textLength="31" x="2232.5" y="1494.8535">team</text><text fill="#000000" font-family="sans-serif" font-size="14" lengthAdjust="spacing" textLength="40" x="2228" y="1513.4746">:Team</text><line style="stroke:#181818;stroke-width:1.0;" x1="1570" x2="1617" y1="1553.2793" y2="1553.2793"/><line style="stroke:#181818;stroke-width:1.0;" x1="1617" x2="1617" y1="1553.2793" y2="1566.2793"/><line style="stroke:#181818;stroke-width:1.0;" x1="1576" x2="1617" y1="1566.2793" y2="1566.2793"/><polygon fill="#181818" points="1586,1562.2793,1576,1566.2793,1586,1570.2793,1582,1566.2793" style="stroke:#181818;stroke-width:1.0;"/><text fill="#000000" font-family="sans-serif" font-size="13" font-weight="bold" lengthAdjust="spacing" textLength="14" x="1582" y="1548.0166">41</text><text fill="#000000" font-family="sans-serif" font-size="13" lengthAdjust="spacing" textLength="90" x="1600" y="1548.0166">addTeam(team)</text><line style="stroke:#181818;stroke-width:1.0;" x1="1575" x2="1622" y1="1597.5703" y2="1597.5703"/><line style="stroke:#181818;stroke-width:1.0;" x1="1622" x2="1622" y1="1597.5703" y2="1610.5703"/><line style="stroke:#181818;stroke-width:1.0;" x1="1581" x2="1622" y1="1610.5703" y2="1610.5703"/><polygon fill="#181818" points="1591,1606.5703,1581,1610.5703,1591,1614.5703,1587,1610.5703" style="stroke:#181818;stroke-width:1.0;"/><text fill="#000000" font-family="sans-serif" font-size="13" font-weight="bold" lengthAdjust="spacing" textLength="14" x="1587" y="1592.3076">42</text><text fill="#000000" font-family="sans-serif" font-size="13" lengthAdjust="spacing" textLength="112" x="1605" y="1592.3076">validateTeam(team)</text><polygon fill="#181818" points="889,1642.8613,879,1646.8613,889,1650.8613,885,1646.8613" style="stroke:#181818;stroke-width:1.0;"/><line style="stroke:#181818;stroke-width:1.0;stroke-dasharray:2.0,2.0;" x1="883" x2="1564" y1="1646.8613" y2="1646.8613"/><text fill="#000000" font-family="sans-serif" font-size="13" font-weight="bold" lengthAdjust="spacing" textLength="14" x="895" y="1641.5986">43</text><text fill="#000000" font-family="sans-serif" font-size="13" lengthAdjust="spacing" textLength="29" x="913" y="1641.5986">team</text><polygon fill="#181818" points="411,1674.1523,401,1678.1523,411,1682.1523,407,1678.1523" style="stroke:#181818;stroke-width:1.0;"/><line style="stroke:#181818;stroke-width:1.0;stroke-dasharray:2.0,2.0;" x1="405" x2="872" y1="1678.1523" y2="1678.1523"/><text fill="#000000" font-family="sans-serif" font-size="13" font-weight="bold" lengthAdjust="spacing" textLength="14" x="417" y="1672.8896">44</text><text fill="#000000" font-family="sans-serif" font-size="13" lengthAdjust="spacing" textLength="29" x="435" y="1672.8896">team</text><polygon fill="#181818" points="92,1705.4434,82,1709.4434,92,1713.4434,88,1709.4434" style="stroke:#181818;stroke-width:1.0;"/><line style="stroke:#181818;stroke-width:1.0;stroke-dasharray:2.0,2.0;" x1="86" x2="394" y1="1709.4434" y2="1709.4434"/><text fill="#000000" font-family="sans-serif" font-size="13" font-weight="bold" lengthAdjust="spacing" textLength="14" x="98" y="1704.1807">45</text><text fill="#000000" font-family="sans-serif" font-size="13" lengthAdjust="spacing" textLength="158" x="116" y="1704.1807">displays operation success</text><!--SRC=[tLTDR-CW4BtxLw1UDgtQFv13fMuLRQDDr2X9RxrGcoIe6Bm6jyt- -Xt67u4OKcS_BkjJOcRUF9Zt0EjNBWjQqfpaIgfqLwgS4LDMBD7TI47JLxfbAxCNZ9GiDLHkXHkWTpHJxrnkoOOApPA4LaR9AdzXPP9ysV6CaOrIvaLz93GrgYGN3rLE9LaohQeoPVfPaZcLKAEy85IJX-Ky0MJ3KrvGQSZ5-1kJhAI6hHdD5wKgbARYQOh1JzC1iVTAcb89qHIuNozdNjQIGHW7Qfnf7wvqHfxbs0r4gELauIV0iWZHXUqXP-M_mRJLz-birijDWI9zKS1UbHx4VN2WdijZ7yV0rBtyjVS2yzQJk_b90aTbssApkw_zOaq9ZB7_4zje_WPTm6Oc11xuGMvkeLza366l4AX8MZ8RGubaxvX8YgPZcDA1G9FnXNq0u0PmBDmOvFYZOjeGisCafnyyht92PKPoBl4tOch-as5wndg8BYkpBvXk8Lbso8lok4KfNLr1yhQHNHAAW771jK4bwD5b5z41eoAxr_1W5cIxWhD5p5HgC63A71GNo5Eo6u6FEughQClOLNIId71dlQAu7T790laTgJr64vJNPpTPEAIEZ1JZTGpKycaT5bjwZqvdnnwd3kRcq4favYsKooYCLTDgbNQ4u6GVX22KAWAYX-ITUjUeU3ineZOD70eVdRLNbNNNizHCm7vDb8HDVKSD3aW6qjx0Benl32HywWseMGFPebWiR0ici-G4PIe4oQYXIBIncIQfaXjUvjHm9GSmQS8r8Wrn9whItSc66V1S1_uZ2mxoOC-4uVCYIlXpCuPFfYZHc2dhm-faH_okF8PTMR-Fy8kkNmZDyMKC9UZEliRwjuvHSmgju1ovRe-d-a_js6k_udylI_yQyWToz2yuPykmkVlyxQvvisZlLxsPD0ED7U0wTNK5ojiffTcSsJkpFi70gzmIkkpLS2LlBsp7uzxPScGiY3zmWwkQf6AlcMlNKQpiaDBsZ3XLsMrFNgz74apmZMrB9RyHqdMZqrPRD08KxAktYnm3dDm_t1CIZrUyiS9NbifpMAgXfo9DKrOO7St-z8oiR-BM1wE6_rcxKTUoGJYzDNGyOMTW7U539147jJzX1R8CKsp-EPOCWhrHmRDs7kSYXcLLVnQT8whGU38qkQTAh1ypHrIM6TU5e7jDL64tIf0JqHLeJUkGA9s_zhFl5m00]--></g></svg>