<?xml version="1.0" encoding="us-ascii" standalone="no"?><svg xmlns="http://www.w3.org/2000/svg" xmlns:xlink="http://www.w3.org/1999/xlink" contentStyleType="text/css" height="1138px" preserveAspectRatio="none" style="width:945px;height:1138px;background:#FFFFFF;" version="1.1" viewBox="0 0 945 1138" width="945px" zoomAndPan="magnify"><defs/><g><rect fill="#FFFFFF" height="906.293" style="stroke:#181818;stroke-width:1.0;" width="10" x="76" y="112.2422"/><rect fill="#FFFFFF" height="31.291" style="stroke:#181818;stroke-width:1.0;" width="10" x="390" y="135.5332"/><rect fill="#FFFFFF" height="245.2891" style="stroke:#181818;stroke-width:1.0;" width="10" x="390" y="198.1152"/><rect fill="#FFFFFF" height="38.291" style="stroke:#181818;stroke-width:1.0;" width="10" x="390" y="474.6953"/><rect fill="#FFFFFF" height="284.8809" style="stroke:#181818;stroke-width:1.0;" width="10" x="390" y="544.2773"/><rect fill="#FFFFFF" height="158.0859" style="stroke:#181818;stroke-width:1.0;" width="10" x="390" y="860.4492"/><rect fill="#FFFFFF" height="788.1289" style="stroke:#181818;stroke-width:1.0;" width="10" x="815" y="239.4063"/><rect fill="#FFFFFF" height="95.5039" style="stroke:#181818;stroke-width:1.0;" width="10" x="820" y="273.0273"/><rect fill="#FFFFFF" height="95.5039" style="stroke:#181818;stroke-width:1.0;" width="10" x="820" y="575.5684"/><rect fill="#FFFFFF" height="95.5039" style="stroke:#181818;stroke-width:1.0;" width="10" x="820" y="702.3633"/><rect fill="#FFFFFF" height="95.5039" style="stroke:#181818;stroke-width:1.0;" width="10" x="820" y="891.7402"/><rect fill="none" height="99.1641" style="stroke:#000000;stroke-width:1.5;" width="486" x="10" y="383.5313"/><line style="stroke:#181818;stroke-width:0.5;stroke-dasharray:5.0,5.0;" x1="81" x2="81" y1="102.2422" y2="1036.5352"/><line style="stroke:#181818;stroke-width:0.5;stroke-dasharray:5.0,5.0;" x1="395" x2="395" y1="102.2422" y2="1036.5352"/><line style="stroke:#181818;stroke-width:0.5;stroke-dasharray:5.0,5.0;" x1="820" x2="820" y1="237.9258" y2="1036.5352"/><text fill="#000000" font-family="sans-serif" font-size="14" lengthAdjust="spacing" textLength="116" x="20" y="80.1074">Human Resources</text><text fill="#000000" font-family="sans-serif" font-size="14" lengthAdjust="spacing" textLength="56" x="52" y="98.7285">Manager</text><ellipse cx="81" cy="13.5" fill="#E3E3E3" rx="8" ry="8" style="stroke:#181818;stroke-width:0.5;"/><path d="M81,21.5 L81,48.5 M68,29.5 L94,29.5 M81,48.5 L68,63.5 M81,48.5 L94,63.5 " fill="none" style="stroke:#181818;stroke-width:0.5;"/><text fill="#000000" font-family="sans-serif" font-size="14" lengthAdjust="spacing" textLength="116" x="20" y="1050.6426">Human Resources</text><text fill="#000000" font-family="sans-serif" font-size="14" lengthAdjust="spacing" textLength="56" x="52" y="1069.2637">Manager</text><ellipse cx="81" cy="1081.2773" fill="#E3E3E3" rx="8" ry="8" style="stroke:#181818;stroke-width:0.5;"/><path d="M81,1089.2773 L81,1116.2773 M68,1097.2773 L94,1097.2773 M81,1116.2773 L68,1131.2773 M81,1116.2773 L94,1131.2773 " fill="none" style="stroke:#181818;stroke-width:0.5;"/><rect fill="#E3E3E3" height="32.6211" rx="2.5" ry="2.5" style="stroke:#181818;stroke-width:0.5;" width="182" x="304" y="68.6211"/><text fill="#000000" font-family="sans-serif" font-size="14" lengthAdjust="spacing" textLength="168" x="311" y="90.7285">:GenerateTeamProposalUI</text><rect fill="#E3E3E3" height="32.6211" rx="2.5" ry="2.5" style="stroke:#181818;stroke-width:0.5;" width="182" x="304" y="1035.5352"/><text fill="#000000" font-family="sans-serif" font-size="14" lengthAdjust="spacing" textLength="168" x="311" y="1057.6426">:GenerateTeamProposalUI</text><rect fill="#E3E3E3" height="32.6211" rx="2.5" ry="2.5" style="stroke:#181818;stroke-width:0.5;" width="232" x="704" y="1035.5352"/><text fill="#000000" font-family="sans-serif" font-size="14" lengthAdjust="spacing" textLength="218" x="711" y="1057.6426">:GenerateTeamProposalController</text><rect fill="#FFFFFF" height="906.293" style="stroke:#181818;stroke-width:1.0;" width="10" x="76" y="112.2422"/><rect fill="#FFFFFF" height="31.291" style="stroke:#181818;stroke-width:1.0;" width="10" x="390" y="135.5332"/><rect fill="#FFFFFF" height="245.2891" style="stroke:#181818;stroke-width:1.0;" width="10" x="390" y="198.1152"/><rect fill="#FFFFFF" height="38.291" style="stroke:#181818;stroke-width:1.0;" width="10" x="390" y="474.6953"/><rect fill="#FFFFFF" height="284.8809" style="stroke:#181818;stroke-width:1.0;" width="10" x="390" y="544.2773"/><rect fill="#FFFFFF" height="158.0859" style="stroke:#181818;stroke-width:1.0;" width="10" x="390" y="860.4492"/><rect fill="#FFFFFF" height="788.1289" style="stroke:#181818;stroke-width:1.0;" width="10" x="815" y="239.4063"/><rect fill="#FFFFFF" height="95.5039" style="stroke:#181818;stroke-width:1.0;" width="10" x="820" y="273.0273"/><rect fill="#FFFFFF" height="95.5039" style="stroke:#181818;stroke-width:1.0;" width="10" x="820" y="575.5684"/><rect fill="#FFFFFF" height="95.5039" style="stroke:#181818;stroke-width:1.0;" width="10" x="820" y="702.3633"/><rect fill="#FFFFFF" height="95.5039" style="stroke:#181818;stroke-width:1.0;" width="10" x="820" y="891.7402"/><polygon fill="#181818" points="378,131.5332,388,135.5332,378,139.5332,382,135.5332" style="stroke:#181818;stroke-width:1.0;"/><line style="stroke:#181818;stroke-width:1.0;" x1="86" x2="384" y1="135.5332" y2="135.5332"/><text fill="#000000" font-family="sans-serif" font-size="13" font-weight="bold" lengthAdjust="spacing" textLength="7" x="93" y="130.2705">1</text><text fill="#000000" font-family="sans-serif" font-size="13" lengthAdjust="spacing" textLength="207" x="104" y="130.2705">asks to create a new team proposal</text><polygon fill="#181818" points="97,162.8242,87,166.8242,97,170.8242,93,166.8242" style="stroke:#181818;stroke-width:1.0;"/><line style="stroke:#181818;stroke-width:1.0;stroke-dasharray:2.0,2.0;" x1="91" x2="394" y1="166.8242" y2="166.8242"/><text fill="#000000" font-family="sans-serif" font-size="13" font-weight="bold" lengthAdjust="spacing" textLength="7" x="103" y="161.5615">2</text><text fill="#000000" font-family="sans-serif" font-size="13" lengthAdjust="spacing" textLength="269" x="114" y="161.5615">request the maximum and minimum team size</text><polygon fill="#181818" points="378,194.1152,388,198.1152,378,202.1152,382,198.1152" style="stroke:#181818;stroke-width:1.0;"/><line style="stroke:#181818;stroke-width:1.0;" x1="86" x2="384" y1="198.1152" y2="198.1152"/><text fill="#000000" font-family="sans-serif" font-size="13" font-weight="bold" lengthAdjust="spacing" textLength="7" x="93" y="192.8525">3</text><text fill="#000000" font-family="sans-serif" font-size="13" lengthAdjust="spacing" textLength="121" x="104" y="192.8525">types requested size</text><polygon fill="#181818" points="692,225.4063,702,229.4063,692,233.4063,696,229.4063" style="stroke:#181818;stroke-width:1.0;"/><line style="stroke:#181818;stroke-width:1.0;" x1="400" x2="698" y1="229.4063" y2="229.4063"/><text fill="#000000" font-family="sans-serif" font-size="13" font-weight="bold" lengthAdjust="spacing" textLength="7" x="407" y="224.1436">4</text><text fill="#000000" font-family="sans-serif" font-size="13" lengthAdjust="spacing" textLength="50" x="418" y="224.1436">generate</text><rect fill="#E3E3E3" height="32.6211" rx="2.5" ry="2.5" style="stroke:#181818;stroke-width:0.5;" width="232" x="704" y="206.1152"/><text fill="#000000" font-family="sans-serif" font-size="14" lengthAdjust="spacing" textLength="218" x="711" y="228.2227">:GenerateTeamProposalController</text><polygon fill="#181818" points="808,269.0273,818,273.0273,808,277.0273,812,273.0273" style="stroke:#181818;stroke-width:1.0;"/><line style="stroke:#181818;stroke-width:1.0;" x1="400" x2="814" y1="273.0273" y2="273.0273"/><text fill="#000000" font-family="sans-serif" font-size="13" font-weight="bold" lengthAdjust="spacing" textLength="7" x="407" y="267.7646">5</text><text fill="#000000" font-family="sans-serif" font-size="13" lengthAdjust="spacing" textLength="57" x="418" y="267.7646">listSkills()</text><rect fill="none" height="59.2129" style="stroke:#000000;stroke-width:1.5;" width="238" x="701" y="281.0273"/><path d="M701,281.0273 L763,281.0273 L763,290.0273 L753,300.0273 L701,300.0273 L701,281.0273 " fill="#EEEEEE" style="stroke:#000000;stroke-width:2.0;"/><text fill="#000000" font-family="sans-serif" font-size="13" font-weight="bold" lengthAdjust="spacing" textLength="17" x="714" y="297.0557">ref</text><text fill="#000000" font-family="sans-serif" font-size="12" lengthAdjust="spacing" textLength="53" x="793.5" y="316.9766">List Skills</text><text fill="#000000" font-family="sans-serif" font-size="12" lengthAdjust="spacing" textLength="3" x="818.5" y="332.9375">&#160;</text><polygon fill="#181818" points="411,364.5313,401,368.5313,411,372.5313,407,368.5313" style="stroke:#181818;stroke-width:1.0;"/><line style="stroke:#181818;stroke-width:1.0;stroke-dasharray:2.0,2.0;" x1="405" x2="814" y1="368.5313" y2="368.5313"/><text fill="#000000" font-family="sans-serif" font-size="13" font-weight="bold" lengthAdjust="spacing" textLength="7" x="417" y="363.2686">6</text><text fill="#000000" font-family="sans-serif" font-size="13" lengthAdjust="spacing" textLength="30" x="428" y="363.2686">skills</text><path d="M10,383.5313 L83,383.5313 L83,392.8223 L73,402.8223 L10,402.8223 L10,383.5313 " fill="#EEEEEE" style="stroke:#000000;stroke-width:1.5;"/><rect fill="none" height="99.1641" style="stroke:#000000;stroke-width:1.5;" width="486" x="10" y="383.5313"/><text fill="#000000" font-family="sans-serif" font-size="13" font-weight="bold" lengthAdjust="spacing" textLength="28" x="25" y="398.5596">loop</text><polygon fill="#181818" points="97,439.4043,87,443.4043,97,447.4043,93,443.4043" style="stroke:#181818;stroke-width:1.0;"/><line style="stroke:#181818;stroke-width:1.0;stroke-dasharray:2.0,2.0;" x1="91" x2="394" y1="443.4043" y2="443.4043"/><text fill="#000000" font-family="sans-serif" font-size="13" font-weight="bold" lengthAdjust="spacing" textLength="7" x="103" y="429.4961">7</text><text fill="#000000" font-family="sans-serif" font-size="13" lengthAdjust="spacing" textLength="225" x="114" y="420.8506">shows the list of skills and asks you to</text><text fill="#000000" font-family="sans-serif" font-size="13" lengthAdjust="spacing" textLength="216" x="114" y="438.1416">select one that you need for that task</text><polygon fill="#181818" points="378,470.6953,388,474.6953,378,478.6953,382,474.6953" style="stroke:#181818;stroke-width:1.0;"/><line style="stroke:#181818;stroke-width:1.0;" x1="86" x2="384" y1="474.6953" y2="474.6953"/><text fill="#000000" font-family="sans-serif" font-size="13" font-weight="bold" lengthAdjust="spacing" textLength="7" x="93" y="469.4326">8</text><text fill="#000000" font-family="sans-serif" font-size="13" lengthAdjust="spacing" textLength="84" x="104" y="469.4326">select the skill</text><polygon fill="#181818" points="97,508.9863,87,512.9863,97,516.9863,93,512.9863" style="stroke:#181818;stroke-width:1.0;"/><line style="stroke:#181818;stroke-width:1.0;stroke-dasharray:2.0,2.0;" x1="91" x2="394" y1="512.9863" y2="512.9863"/><text fill="#000000" font-family="sans-serif" font-size="13" font-weight="bold" lengthAdjust="spacing" textLength="7" x="103" y="507.7236">9</text><text fill="#000000" font-family="sans-serif" font-size="13" lengthAdjust="spacing" textLength="236" x="114" y="507.7236">shows all data and requests confirmation</text><polygon fill="#181818" points="378,540.2773,388,544.2773,378,548.2773,382,544.2773" style="stroke:#181818;stroke-width:1.0;"/><line style="stroke:#181818;stroke-width:1.0;" x1="86" x2="384" y1="544.2773" y2="544.2773"/><text fill="#000000" font-family="sans-serif" font-size="13" font-weight="bold" lengthAdjust="spacing" textLength="14" x="93" y="539.0146">10</text><text fill="#000000" font-family="sans-serif" font-size="13" lengthAdjust="spacing" textLength="78" x="111" y="539.0146">confirms data</text><polygon fill="#181818" points="808,571.5684,818,575.5684,808,579.5684,812,575.5684" style="stroke:#181818;stroke-width:1.0;"/><line style="stroke:#181818;stroke-width:1.0;" x1="400" x2="814" y1="575.5684" y2="575.5684"/><text fill="#000000" font-family="sans-serif" font-size="13" font-weight="bold" lengthAdjust="spacing" textLength="14" x="407" y="570.3057">11</text><text fill="#000000" font-family="sans-serif" font-size="13" lengthAdjust="spacing" textLength="134" x="425" y="570.3057">chooseMembers(skills)</text><rect fill="none" height="59.2129" style="stroke:#000000;stroke-width:1.5;" width="238" x="701" y="583.5684"/><path d="M701,583.5684 L763,583.5684 L763,592.5684 L753,602.5684 L701,602.5684 L701,583.5684 " fill="#EEEEEE" style="stroke:#000000;stroke-width:2.0;"/><text fill="#000000" font-family="sans-serif" font-size="13" font-weight="bold" lengthAdjust="spacing" textLength="17" x="714" y="599.5967">ref</text><text fill="#000000" font-family="sans-serif" font-size="12" lengthAdjust="spacing" textLength="99" x="770.5" y="619.5176">Choose Members</text><text fill="#000000" font-family="sans-serif" font-size="12" lengthAdjust="spacing" textLength="3" x="818.5" y="635.4785">&#160;</text><polygon fill="#181818" points="411,667.0723,401,671.0723,411,675.0723,407,671.0723" style="stroke:#181818;stroke-width:1.0;"/><line style="stroke:#181818;stroke-width:1.0;stroke-dasharray:2.0,2.0;" x1="405" x2="814" y1="671.0723" y2="671.0723"/><text fill="#000000" font-family="sans-serif" font-size="13" font-weight="bold" lengthAdjust="spacing" textLength="14" x="417" y="665.8096">12</text><text fill="#000000" font-family="sans-serif" font-size="13" lengthAdjust="spacing" textLength="54" x="435" y="665.8096">members</text><polygon fill="#181818" points="808,698.3633,818,702.3633,808,706.3633,812,702.3633" style="stroke:#181818;stroke-width:1.0;"/><line style="stroke:#181818;stroke-width:1.0;" x1="400" x2="814" y1="702.3633" y2="702.3633"/><text fill="#000000" font-family="sans-serif" font-size="13" font-weight="bold" lengthAdjust="spacing" textLength="14" x="407" y="697.1006">13</text><text fill="#000000" font-family="sans-serif" font-size="13" lengthAdjust="spacing" textLength="373" x="425" y="697.1006">generateTeamProposal(minimumSize, maximumSize, members)</text><rect fill="none" height="59.2129" style="stroke:#000000;stroke-width:1.5;" width="238" x="701" y="710.3633"/><path d="M701,710.3633 L763,710.3633 L763,719.3633 L753,729.3633 L701,729.3633 L701,710.3633 " fill="#EEEEEE" style="stroke:#000000;stroke-width:2.0;"/><text fill="#000000" font-family="sans-serif" font-size="13" font-weight="bold" lengthAdjust="spacing" textLength="17" x="714" y="726.3916">ref</text><text fill="#000000" font-family="sans-serif" font-size="12" lengthAdjust="spacing" textLength="139" x="750.5" y="746.3125">Generate Team Proposal</text><text fill="#000000" font-family="sans-serif" font-size="12" lengthAdjust="spacing" textLength="3" x="818.5" y="762.2734">&#160;</text><polygon fill="#181818" points="411,793.8672,401,797.8672,411,801.8672,407,797.8672" style="stroke:#181818;stroke-width:1.0;"/><line style="stroke:#181818;stroke-width:1.0;stroke-dasharray:2.0,2.0;" x1="405" x2="814" y1="797.8672" y2="797.8672"/><text fill="#000000" font-family="sans-serif" font-size="13" font-weight="bold" lengthAdjust="spacing" textLength="14" x="417" y="792.6045">14</text><text fill="#000000" font-family="sans-serif" font-size="13" lengthAdjust="spacing" textLength="80" x="435" y="792.6045">teamProposal</text><polygon fill="#181818" points="97,825.1582,87,829.1582,97,833.1582,93,829.1582" style="stroke:#181818;stroke-width:1.0;"/><line style="stroke:#181818;stroke-width:1.0;stroke-dasharray:2.0,2.0;" x1="91" x2="394" y1="829.1582" y2="829.1582"/><text fill="#000000" font-family="sans-serif" font-size="13" font-weight="bold" lengthAdjust="spacing" textLength="14" x="103" y="823.8955">15</text><text fill="#000000" font-family="sans-serif" font-size="13" lengthAdjust="spacing" textLength="185" x="121" y="823.8955">show the team recommendation</text><polygon fill="#181818" points="378,856.4492,388,860.4492,378,864.4492,382,860.4492" style="stroke:#181818;stroke-width:1.0;"/><line style="stroke:#181818;stroke-width:1.0;" x1="86" x2="384" y1="860.4492" y2="860.4492"/><text fill="#000000" font-family="sans-serif" font-size="13" font-weight="bold" lengthAdjust="spacing" textLength="14" x="93" y="855.1865">16</text><text fill="#000000" font-family="sans-serif" font-size="13" lengthAdjust="spacing" textLength="179" x="111" y="855.1865">accepts team recommendation</text><polygon fill="#181818" points="808,887.7402,818,891.7402,808,895.7402,812,891.7402" style="stroke:#181818;stroke-width:1.0;"/><line style="stroke:#181818;stroke-width:1.0;" x1="400" x2="814" y1="891.7402" y2="891.7402"/><text fill="#000000" font-family="sans-serif" font-size="13" font-weight="bold" lengthAdjust="spacing" textLength="14" x="407" y="886.4775">17</text><text fill="#000000" font-family="sans-serif" font-size="13" lengthAdjust="spacing" textLength="156" x="425" y="886.4775">createTeam(teamProposal)</text><rect fill="none" height="59.2129" style="stroke:#000000;stroke-width:1.5;" width="238" x="701" y="899.7402"/><path d="M701,899.7402 L763,899.7402 L763,908.7402 L753,918.7402 L701,918.7402 L701,899.7402 " fill="#EEEEEE" style="stroke:#000000;stroke-width:2.0;"/><text fill="#000000" font-family="sans-serif" font-size="13" font-weight="bold" lengthAdjust="spacing" textLength="17" x="714" y="915.7686">ref</text><text fill="#000000" font-family="sans-serif" font-size="12" lengthAdjust="spacing" textLength="72" x="784" y="935.6895">Create Team</text><text fill="#000000" font-family="sans-serif" font-size="12" lengthAdjust="spacing" textLength="3" x="818.5" y="951.6504">&#160;</text><polygon fill="#181818" points="411,983.2441,401,987.2441,411,991.2441,407,987.2441" style="stroke:#181818;stroke-width:1.0;"/><line style="stroke:#181818;stroke-width:1.0;stroke-dasharray:2.0,2.0;" x1="405" x2="814" y1="987.2441" y2="987.2441"/><text fill="#000000" font-family="sans-serif" font-size="13" font-weight="bold" lengthAdjust="spacing" textLength="14" x="417" y="981.9814">18</text><text fill="#000000" font-family="sans-serif" font-size="13" lengthAdjust="spacing" textLength="29" x="435" y="981.9814">team</text><polygon fill="#181818" points="92,1014.5352,82,1018.5352,92,1022.5352,88,1018.5352" style="stroke:#181818;stroke-width:1.0;"/><line style="stroke:#181818;stroke-width:1.0;stroke-dasharray:2.0,2.0;" x1="86" x2="394" y1="1018.5352" y2="1018.5352"/><text fill="#000000" font-family="sans-serif" font-size="13" font-weight="bold" lengthAdjust="spacing" textLength="14" x="98" y="1013.2725">19</text><text fill="#000000" font-family="sans-serif" font-size="13" lengthAdjust="spacing" textLength="158" x="116" y="1013.2725">displays operation success</text><!--SRC=[hLN1KkCm3BtdApHSjijiVw07BXmMPkZCJWitBY9H6azjAsivGFVhLtQI4g3GCeDFZgtt93t9YcoDRp6W0yUUooQm8uYXeqBsDosMMzpGEkuiGQ0oej_OgO4qMF6JyHkeqGeL1NQHVUSUA1J5ZyPK13LpVE3d0il80SwkEeSULYJSXPBatiCIlVe8Pu02LwjbeSpHbAP57-5iyPiy1OnqI-Z-16vPqDvTP-ExwnDiBzd7mDOE3YvlLpT5YiKygc7sLu0ktS3yGYbXeMPRWSXG1aes29wU85BIOo3Da3s9nf4FqbA2kV8akeKgzhSZYH0R0eVFndKEq5VWZC_xp2dc7sLuHUyOfr75NKioKbBrWlimZekSxVcvWZU3CllxFQWNv3rCGTP8N6-DjJBxUGoOLg0Q-952VmLlresoGK_t6aQ-UdsGtS_7lAM7Z9SJbLuYiCpjWH8ekE4doVgdP83hWIwN8TTvnrsgzRqNijhWm5vVGOCnNtXIeMjjstmI5N2qKkgp9qfEixF3HNgLzVkGqLgeC68ET2YwGCc-Di5XDEnFY6GmbynqIgyef64MMb9wmJBhnVg6ubzcMXXuJw__0jm0-RJ-RxFO71W4i-7LhVNT_1gVu_3H-_Y6FCS91CapZAw_ac-SX7nQqjF6oLsNnufEQtPEVPtQB5YMr6gFVOG-tZfvNAR4PzCalgDx-a6SgBygvTSah8oq5dS2tAOoQkeWdUeYSaZ0oMVwZ_m7]--></g></svg>