<?xml version="1.0" encoding="us-ascii" standalone="no"?><svg xmlns="http://www.w3.org/2000/svg" xmlns:xlink="http://www.w3.org/1999/xlink" contentStyleType="text/css" height="442px" preserveAspectRatio="none" style="width:582px;height:442px;background:#FFFFFF;" version="1.1" viewBox="0 0 582 442" width="582px" zoomAndPan="magnify"><defs/><g><rect fill="#FFFFFF" height="277.9883" style="stroke:#181818;stroke-width:1.0;" width="10" x="167" y="90.5332"/><rect fill="#FFFFFF" height="182.1152" style="stroke:#181818;stroke-width:1.0;" width="10" x="355" y="148.1152"/><rect fill="#FFFFFF" height="80.582" style="stroke:#181818;stroke-width:1.0;" width="10" x="360" y="249.6484"/><rect fill="#FFFFFF" height="36.291" style="stroke:#181818;stroke-width:1.0;" width="10" x="365" y="293.9395"/><rect fill="none" height="232.6973" style="stroke:#000000;stroke-width:1.5;" width="530" x="46" y="105.5332"/><line style="stroke:#181818;stroke-width:0.5;stroke-dasharray:5.0,5.0;" x1="172" x2="172" y1="57.2422" y2="386.5215"/><line style="stroke:#181818;stroke-width:0.5;stroke-dasharray:5.0,5.0;" x1="360" x2="360" y1="57.2422" y2="386.5215"/><line style="stroke:#181818;stroke-width:0.5;stroke-dasharray:5.0,5.0;" x1="539" x2="539" y1="197.2363" y2="386.5215"/><rect fill="#E3E3E3" height="32.6211" rx="2.5" ry="2.5" style="stroke:#181818;stroke-width:0.5;" width="232" x="56" y="23.6211"/><text fill="#000000" font-family="sans-serif" font-size="14" lengthAdjust="spacing" textLength="218" x="63" y="45.7285">:GenerateTeamProposalController</text><rect fill="#E3E3E3" height="32.6211" rx="2.5" ry="2.5" style="stroke:#181818;stroke-width:0.5;" width="232" x="56" y="385.5215"/><text fill="#000000" font-family="sans-serif" font-size="14" lengthAdjust="spacing" textLength="218" x="63" y="407.6289">:GenerateTeamProposalController</text><rect fill="#E3E3E3" height="51.2422" rx="2.5" ry="2.5" style="stroke:#181818;stroke-width:0.5;" width="122" x="299" y="5"/><text fill="#000000" font-family="sans-serif" font-size="14" lengthAdjust="spacing" textLength="99" x="310.5" y="27.1074">teamRepository</text><text fill="#000000" font-family="sans-serif" font-size="14" lengthAdjust="spacing" textLength="108" x="306" y="45.7285">:TeamRepository</text><rect fill="#E3E3E3" height="51.2422" rx="2.5" ry="2.5" style="stroke:#181818;stroke-width:0.5;" width="122" x="299" y="385.5215"/><text fill="#000000" font-family="sans-serif" font-size="14" lengthAdjust="spacing" textLength="99" x="310.5" y="407.6289">teamRepository</text><text fill="#000000" font-family="sans-serif" font-size="14" lengthAdjust="spacing" textLength="108" x="306" y="426.25">:TeamRepository</text><rect fill="#E3E3E3" height="51.2422" rx="2.5" ry="2.5" style="stroke:#181818;stroke-width:0.5;" width="54" x="512" y="385.5215"/><text fill="#000000" font-family="sans-serif" font-size="14" lengthAdjust="spacing" textLength="31" x="523.5" y="407.6289">team</text><text fill="#000000" font-family="sans-serif" font-size="14" lengthAdjust="spacing" textLength="40" x="519" y="426.25">:Team</text><rect fill="#FFFFFF" height="277.9883" style="stroke:#181818;stroke-width:1.0;" width="10" x="167" y="90.5332"/><rect fill="#FFFFFF" height="182.1152" style="stroke:#181818;stroke-width:1.0;" width="10" x="355" y="148.1152"/><rect fill="#FFFFFF" height="80.582" style="stroke:#181818;stroke-width:1.0;" width="10" x="360" y="249.6484"/><rect fill="#FFFFFF" height="36.291" style="stroke:#181818;stroke-width:1.0;" width="10" x="365" y="293.9395"/><polygon fill="#181818" points="155,86.5332,165,90.5332,155,94.5332,159,90.5332" style="stroke:#181818;stroke-width:1.0;"/><line style="stroke:#181818;stroke-width:1.0;" x1="0" x2="161" y1="90.5332" y2="90.5332"/><text fill="#000000" font-family="sans-serif" font-size="13" font-weight="bold" lengthAdjust="spacing" textLength="14" x="7" y="85.2705">17</text><text fill="#000000" font-family="sans-serif" font-size="13" lengthAdjust="spacing" textLength="130" x="25" y="85.2705">createTeam(members)</text><path d="M46,105.5332 L175,105.5332 L175,114.8242 L165,124.8242 L46,124.8242 L46,105.5332 " fill="#EEEEEE" style="stroke:#000000;stroke-width:1.5;"/><rect fill="none" height="232.6973" style="stroke:#000000;stroke-width:1.5;" width="530" x="46" y="105.5332"/><text fill="#000000" font-family="sans-serif" font-size="13" font-weight="bold" lengthAdjust="spacing" textLength="84" x="61" y="120.5615">Get Members</text><polygon fill="#181818" points="343,144.1152,353,148.1152,343,152.1152,347,148.1152" style="stroke:#181818;stroke-width:1.0;"/><line style="stroke:#181818;stroke-width:1.0;" x1="177" x2="349" y1="148.1152" y2="148.1152"/><text fill="#000000" font-family="sans-serif" font-size="13" font-weight="bold" lengthAdjust="spacing" textLength="25" x="184" y="142.8525">17.1</text><text fill="#000000" font-family="sans-serif" font-size="13" lengthAdjust="spacing" textLength="130" x="213" y="142.8525">createTeam(members)</text><polygon fill="#181818" points="500,175.4063,510,179.4063,500,183.4063,504,179.4063" style="stroke:#181818;stroke-width:1.0;"/><line style="stroke:#181818;stroke-width:1.0;" x1="365" x2="506" y1="179.4063" y2="179.4063"/><text fill="#000000" font-family="sans-serif" font-size="13" font-weight="bold" lengthAdjust="spacing" textLength="25" x="372" y="174.1436">17.2</text><text fill="#000000" font-family="sans-serif" font-size="13" lengthAdjust="spacing" textLength="94" x="401" y="174.1436">Team(members)</text><rect fill="#E3E3E3" height="51.2422" rx="2.5" ry="2.5" style="stroke:#181818;stroke-width:0.5;" width="54" x="512" y="156.1152"/><text fill="#000000" font-family="sans-serif" font-size="14" lengthAdjust="spacing" textLength="31" x="523.5" y="178.2227">team</text><text fill="#000000" font-family="sans-serif" font-size="14" lengthAdjust="spacing" textLength="40" x="519" y="196.8438">:Team</text><line style="stroke:#181818;stroke-width:1.0;" x1="365" x2="412" y1="236.6484" y2="236.6484"/><line style="stroke:#181818;stroke-width:1.0;" x1="412" x2="412" y1="236.6484" y2="249.6484"/><line style="stroke:#181818;stroke-width:1.0;" x1="371" x2="412" y1="249.6484" y2="249.6484"/><polygon fill="#181818" points="381,245.6484,371,249.6484,381,253.6484,377,249.6484" style="stroke:#181818;stroke-width:1.0;"/><text fill="#000000" font-family="sans-serif" font-size="13" font-weight="bold" lengthAdjust="spacing" textLength="25" x="377" y="231.3857">17.3</text><text fill="#000000" font-family="sans-serif" font-size="13" lengthAdjust="spacing" textLength="90" x="406" y="231.3857">addTeam(team)</text><line style="stroke:#181818;stroke-width:1.0;" x1="370" x2="417" y1="280.9395" y2="280.9395"/><line style="stroke:#181818;stroke-width:1.0;" x1="417" x2="417" y1="280.9395" y2="293.9395"/><line style="stroke:#181818;stroke-width:1.0;" x1="376" x2="417" y1="293.9395" y2="293.9395"/><polygon fill="#181818" points="386,289.9395,376,293.9395,386,297.9395,382,293.9395" style="stroke:#181818;stroke-width:1.0;"/><text fill="#000000" font-family="sans-serif" font-size="13" font-weight="bold" lengthAdjust="spacing" textLength="25" x="382" y="275.6768">17.4</text><text fill="#000000" font-family="sans-serif" font-size="13" lengthAdjust="spacing" textLength="112" x="411" y="275.6768">validateTeam(team)</text><polygon fill="#181818" points="188,326.2305,178,330.2305,188,334.2305,184,330.2305" style="stroke:#181818;stroke-width:1.0;"/><line style="stroke:#181818;stroke-width:1.0;stroke-dasharray:2.0,2.0;" x1="182" x2="359" y1="330.2305" y2="330.2305"/><text fill="#000000" font-family="sans-serif" font-size="13" font-weight="bold" lengthAdjust="spacing" textLength="25" x="194" y="324.9678">17.5</text><text fill="#000000" font-family="sans-serif" font-size="13" lengthAdjust="spacing" textLength="29" x="223" y="324.9678">team</text><polygon fill="#181818" points="11,364.5215,1,368.5215,11,372.5215,7,368.5215" style="stroke:#181818;stroke-width:1.0;"/><line style="stroke:#181818;stroke-width:1.0;stroke-dasharray:2.0,2.0;" x1="5" x2="171" y1="368.5215" y2="368.5215"/><text fill="#000000" font-family="sans-serif" font-size="13" font-weight="bold" lengthAdjust="spacing" textLength="14" x="17" y="363.2588">18</text><text fill="#000000" font-family="sans-serif" font-size="13" lengthAdjust="spacing" textLength="29" x="35" y="363.2588">team</text><!--SRC=[bP8nQyCm48Lt_OeZKnDm8LEBA8KIGfO6WkknozMwEYAoP2Gv9V- -acm7EqrQUfFzxdjF9v_TGUe6BTPG6stAlJKrWRSjCNVkD5WUiA8tVr84bagFkb9ZmErHc2-fA_X4vOYn87jPoWQrXndVa2QBdWh2UcTDOnogbT7U6gN8pW0Th8hyTUho0SufiD8RUthNl9W8oLMiNxRvUlVJsEC9Yk-COUkDRkiFih1yODbpEX4ub9RwoUvgYcqtlu3lbq4elJm6hfiJGbNMj0rioCEsix4afzIGtazsFJ-2vyJX3acDrGin9Ow-M72u60z6DQA7HmueHB94_to2tpxsPjWHbHJ37VwRE4djlphlLp9c1FsUSwt_5n1bqg9RLKUF5_kObASi6tw5RgfHK5es-mO0]--></g></svg>