<?xml version="1.0" encoding="us-ascii" standalone="no"?><svg xmlns="http://www.w3.org/2000/svg" xmlns:xlink="http://www.w3.org/1999/xlink" contentStyleType="text/css" height="379px" preserveAspectRatio="none" style="width:759px;height:379px;background:#FFFFFF;" version="1.1" viewBox="0 0 759 379" width="759px" zoomAndPan="magnify"><defs/><g><rect fill="#FFFFFF" height="252.3281" style="stroke:#181818;stroke-width:1.0;" width="10" x="171" y="71.9121"/><rect fill="#FFFFFF" height="31.291" style="stroke:#181818;stroke-width:1.0;" width="10" x="343.5" y="129.4941"/><rect fill="#FFFFFF" height="31.291" style="stroke:#181818;stroke-width:1.0;" width="10" x="485.5" y="192.0762"/><rect fill="#FFFFFF" height="31.291" style="stroke:#181818;stroke-width:1.0;" width="10" x="659.5" y="254.6582"/><rect fill="none" height="207.0371" style="stroke:#000000;stroke-width:1.5;" width="703" x="50" y="86.9121"/><line style="stroke:#181818;stroke-width:0.5;stroke-dasharray:5.0,5.0;" x1="176" x2="176" y1="38.6211" y2="342.2402"/><line style="stroke:#181818;stroke-width:0.5;stroke-dasharray:5.0,5.0;" x1="348" x2="348" y1="38.6211" y2="342.2402"/><line style="stroke:#181818;stroke-width:0.5;stroke-dasharray:5.0,5.0;" x1="490" x2="490" y1="38.6211" y2="342.2402"/><line style="stroke:#181818;stroke-width:0.5;stroke-dasharray:5.0,5.0;" x1="664" x2="664" y1="38.6211" y2="342.2402"/><rect fill="#E3E3E3" height="32.6211" rx="2.5" ry="2.5" style="stroke:#181818;stroke-width:0.5;" width="232" x="60" y="5"/><text fill="#000000" font-family="sans-serif" font-size="14" lengthAdjust="spacing" textLength="218" x="67" y="27.1074">:GenerateTeamProposalController</text><rect fill="#E3E3E3" height="32.6211" rx="2.5" ry="2.5" style="stroke:#181818;stroke-width:0.5;" width="232" x="60" y="341.2402"/><text fill="#000000" font-family="sans-serif" font-size="14" lengthAdjust="spacing" textLength="218" x="67" y="363.3477">:GenerateTeamProposalController</text><rect fill="#E3E3E3" height="32.6211" rx="2.5" ry="2.5" style="stroke:#181818;stroke-width:0.5;" width="93" x="302" y="5"/><text fill="#000000" font-family="sans-serif" font-size="14" lengthAdjust="spacing" textLength="79" x="309" y="27.1074">Repositories</text><rect fill="#E3E3E3" height="32.6211" rx="2.5" ry="2.5" style="stroke:#181818;stroke-width:0.5;" width="93" x="302" y="341.2402"/><text fill="#000000" font-family="sans-serif" font-size="14" lengthAdjust="spacing" textLength="79" x="309" y="363.3477">Repositories</text><rect fill="#E3E3E3" height="32.6211" rx="2.5" ry="2.5" style="stroke:#181818;stroke-width:0.5;" width="171" x="405" y="5"/><text fill="#000000" font-family="sans-serif" font-size="14" lengthAdjust="spacing" textLength="157" x="412" y="27.1074">repositories:Repositories</text><rect fill="#E3E3E3" height="32.6211" rx="2.5" ry="2.5" style="stroke:#181818;stroke-width:0.5;" width="171" x="405" y="341.2402"/><text fill="#000000" font-family="sans-serif" font-size="14" lengthAdjust="spacing" textLength="157" x="412" y="363.3477">repositories:Repositories</text><rect fill="#E3E3E3" height="32.6211" rx="2.5" ry="2.5" style="stroke:#181818;stroke-width:0.5;" width="157" x="586" y="5"/><text fill="#000000" font-family="sans-serif" font-size="14" lengthAdjust="spacing" textLength="143" x="593" y="27.1074">collaboratorRepository</text><rect fill="#E3E3E3" height="32.6211" rx="2.5" ry="2.5" style="stroke:#181818;stroke-width:0.5;" width="157" x="586" y="341.2402"/><text fill="#000000" font-family="sans-serif" font-size="14" lengthAdjust="spacing" textLength="143" x="593" y="363.3477">collaboratorRepository</text><rect fill="#FFFFFF" height="252.3281" style="stroke:#181818;stroke-width:1.0;" width="10" x="171" y="71.9121"/><rect fill="#FFFFFF" height="31.291" style="stroke:#181818;stroke-width:1.0;" width="10" x="343.5" y="129.4941"/><rect fill="#FFFFFF" height="31.291" style="stroke:#181818;stroke-width:1.0;" width="10" x="485.5" y="192.0762"/><rect fill="#FFFFFF" height="31.291" style="stroke:#181818;stroke-width:1.0;" width="10" x="659.5" y="254.6582"/><polygon fill="#181818" points="159,67.9121,169,71.9121,159,75.9121,163,71.9121" style="stroke:#181818;stroke-width:1.0;"/><line style="stroke:#181818;stroke-width:1.0;" x1="0" x2="165" y1="71.9121" y2="71.9121"/><text fill="#000000" font-family="sans-serif" font-size="13" font-weight="bold" lengthAdjust="spacing" textLength="14" x="7" y="66.6494">11</text><text fill="#000000" font-family="sans-serif" font-size="13" lengthAdjust="spacing" textLength="134" x="25" y="66.6494">chooseMembers(skills)</text><path d="M50,86.9121 L204,86.9121 L204,96.2031 L194,106.2031 L50,106.2031 L50,86.9121 " fill="#EEEEEE" style="stroke:#000000;stroke-width:1.5;"/><rect fill="none" height="207.0371" style="stroke:#000000;stroke-width:1.5;" width="703" x="50" y="86.9121"/><text fill="#000000" font-family="sans-serif" font-size="13" font-weight="bold" lengthAdjust="spacing" textLength="109" x="65" y="101.9404">Choose Members</text><polygon fill="#181818" points="331.5,125.4941,341.5,129.4941,331.5,133.4941,335.5,129.4941" style="stroke:#181818;stroke-width:1.0;"/><line style="stroke:#181818;stroke-width:1.0;" x1="181" x2="337.5" y1="129.4941" y2="129.4941"/><text fill="#000000" font-family="sans-serif" font-size="13" font-weight="bold" lengthAdjust="spacing" textLength="25" x="188" y="124.2314">11.1</text><text fill="#000000" font-family="sans-serif" font-size="13" lengthAdjust="spacing" textLength="75" x="217" y="124.2314">getInstance()</text><polygon fill="#181818" points="192,156.7852,182,160.7852,192,164.7852,188,160.7852" style="stroke:#181818;stroke-width:1.0;"/><line style="stroke:#181818;stroke-width:1.0;stroke-dasharray:2.0,2.0;" x1="186" x2="347.5" y1="160.7852" y2="160.7852"/><text fill="#000000" font-family="sans-serif" font-size="13" font-weight="bold" lengthAdjust="spacing" textLength="25" x="198" y="155.5225">11.2</text><text fill="#000000" font-family="sans-serif" font-size="13" lengthAdjust="spacing" textLength="67" x="227" y="155.5225">repositories</text><polygon fill="#181818" points="473.5,188.0762,483.5,192.0762,473.5,196.0762,477.5,192.0762" style="stroke:#181818;stroke-width:1.0;"/><line style="stroke:#181818;stroke-width:1.0;" x1="181" x2="479.5" y1="192.0762" y2="192.0762"/><text fill="#000000" font-family="sans-serif" font-size="13" font-weight="bold" lengthAdjust="spacing" textLength="25" x="188" y="186.8135">11.3</text><text fill="#000000" font-family="sans-serif" font-size="13" lengthAdjust="spacing" textLength="157" x="217" y="186.8135">getCollaboratorRepository()</text><polygon fill="#181818" points="192,219.3672,182,223.3672,192,227.3672,188,223.3672" style="stroke:#181818;stroke-width:1.0;"/><line style="stroke:#181818;stroke-width:1.0;stroke-dasharray:2.0,2.0;" x1="186" x2="489.5" y1="223.3672" y2="223.3672"/><text fill="#000000" font-family="sans-serif" font-size="13" font-weight="bold" lengthAdjust="spacing" textLength="25" x="198" y="218.1045">11.4</text><text fill="#000000" font-family="sans-serif" font-size="13" lengthAdjust="spacing" textLength="129" x="227" y="218.1045">collaboratorRepository</text><polygon fill="#181818" points="647.5,250.6582,657.5,254.6582,647.5,258.6582,651.5,254.6582" style="stroke:#181818;stroke-width:1.0;"/><line style="stroke:#181818;stroke-width:1.0;" x1="181" x2="653.5" y1="254.6582" y2="254.6582"/><text fill="#000000" font-family="sans-serif" font-size="13" font-weight="bold" lengthAdjust="spacing" textLength="25" x="188" y="249.3955">11.5</text><text fill="#000000" font-family="sans-serif" font-size="13" lengthAdjust="spacing" textLength="134" x="217" y="249.3955">chooseMembers(skills)</text><polygon fill="#181818" points="192,281.9492,182,285.9492,192,289.9492,188,285.9492" style="stroke:#181818;stroke-width:1.0;"/><line style="stroke:#181818;stroke-width:1.0;stroke-dasharray:2.0,2.0;" x1="186" x2="663.5" y1="285.9492" y2="285.9492"/><text fill="#000000" font-family="sans-serif" font-size="13" font-weight="bold" lengthAdjust="spacing" textLength="25" x="198" y="280.6865">11.6</text><text fill="#000000" font-family="sans-serif" font-size="13" lengthAdjust="spacing" textLength="54" x="227" y="280.6865">members</text><polygon fill="#181818" points="11,320.2402,1,324.2402,11,328.2402,7,324.2402" style="stroke:#181818;stroke-width:1.0;"/><line style="stroke:#181818;stroke-width:1.0;stroke-dasharray:2.0,2.0;" x1="5" x2="175" y1="324.2402" y2="324.2402"/><text fill="#000000" font-family="sans-serif" font-size="13" font-weight="bold" lengthAdjust="spacing" textLength="14" x="17" y="318.9775">12</text><text fill="#000000" font-family="sans-serif" font-size="13" lengthAdjust="spacing" textLength="54" x="35" y="318.9775">members</text><!--SRC=[XPBFJiCm3CRlVGgB2zkXIEDO8IxLX926gCPUm4kzDbeQLqaAxEr9_qMfACB7-FFdd-tOgzGj6coWOSsYDjmGEDDHOaEcHN75YZxSJH4O4WvrfMA1hR7aBwahkA2obFYuhsL9S65sP_vElCn98LlK3kwo5z9aqD69i2aCjsnHvQoTOQN8t05Qo4_7mwBgI5uc7Hj9TcbdeamMomQZuxvOoeLlWcVs_Ta4zMri-dxevGbsZdNNdCd0RfUapmCDP21gPajlr6Vine-lbDqkrG-x18MJdtwwSOO4V5I6knRoeHoc-Z7Jn-3kkyJi6LJaNhNrgnQqsGPjC5_i8wJxY3EGJlGPn6iA-fB-CGni-s90obUtjmhORtB1jIyYdFKph8B5HZFFUAg_Jl8BPhvip3E-HKZDT9WLXgc-VoLTZZxntH-7bwSqdR_Ax1LxzD_X1m00]--></g></svg>