<?xml version="1.0" encoding="us-ascii" standalone="no"?><svg xmlns="http://www.w3.org/2000/svg" xmlns:xlink="http://www.w3.org/1999/xlink" contentStyleType="text/css" height="410px" preserveAspectRatio="none" style="width:446px;height:410px;background:#FFFFFF;" version="1.1" viewBox="0 0 446 410" width="446px" zoomAndPan="magnify"><defs/><g><rect fill="#FFFFFF" height="245.4063" style="stroke:#181818;stroke-width:1.0;" width="10" x="193" y="90.5332"/><rect fill="#FFFFFF" height="72.291" style="stroke:#181818;stroke-width:1.0;" width="10" x="198" y="218.3574"/><rect fill="#FFFFFF" height="28" style="stroke:#181818;stroke-width:1.0;" width="10" x="203" y="262.6484"/><rect fill="none" height="200.1152" style="stroke:#000000;stroke-width:1.5;" width="308.5" x="131.5" y="105.5332"/><line style="stroke:#181818;stroke-width:0.5;stroke-dasharray:5.0,5.0;" x1="197.5" x2="197.5" y1="57.2422" y2="353.9395"/><line style="stroke:#181818;stroke-width:0.5;stroke-dasharray:5.0,5.0;" x1="405" x2="405" y1="165.9453" y2="353.9395"/><rect fill="#E3E3E3" height="32.6211" rx="2.5" ry="2.5" style="stroke:#181818;stroke-width:0.5;" width="113" x="141.5" y="23.6211"/><text fill="#000000" font-family="sans-serif" font-size="14" lengthAdjust="spacing" textLength="99" x="148.5" y="45.7285">teamRepository</text><rect fill="#E3E3E3" height="32.6211" rx="2.5" ry="2.5" style="stroke:#181818;stroke-width:0.5;" width="113" x="141.5" y="352.9395"/><text fill="#000000" font-family="sans-serif" font-size="14" lengthAdjust="spacing" textLength="99" x="148.5" y="375.0469">teamRepository</text><rect fill="#E3E3E3" height="51.2422" rx="2.5" ry="2.5" style="stroke:#181818;stroke-width:0.5;" width="50" x="380" y="352.9395"/><text fill="#000000" font-family="sans-serif" font-size="14" lengthAdjust="spacing" textLength="35" x="387.5" y="375.0469">team:</text><text fill="#000000" font-family="sans-serif" font-size="14" lengthAdjust="spacing" textLength="36" x="387" y="393.668">Team</text><rect fill="#FFFFFF" height="245.4063" style="stroke:#181818;stroke-width:1.0;" width="10" x="193" y="90.5332"/><rect fill="#FFFFFF" height="72.291" style="stroke:#181818;stroke-width:1.0;" width="10" x="198" y="218.3574"/><rect fill="#FFFFFF" height="28" style="stroke:#181818;stroke-width:1.0;" width="10" x="203" y="262.6484"/><polygon fill="#181818" points="181,86.5332,191,90.5332,181,94.5332,185,90.5332" style="stroke:#181818;stroke-width:1.0;"/><line style="stroke:#181818;stroke-width:1.0;" x1="0" x2="187" y1="90.5332" y2="90.5332"/><text fill="#000000" font-family="sans-serif" font-size="13" font-weight="bold" lengthAdjust="spacing" textLength="14" x="7" y="85.2705">18</text><text fill="#000000" font-family="sans-serif" font-size="13" lengthAdjust="spacing" textLength="156" x="25" y="85.2705">createTeam(teamProposal)</text><path d="M131.5,105.5332 L258.5,105.5332 L258.5,114.8242 L248.5,124.8242 L131.5,124.8242 L131.5,105.5332 " fill="#EEEEEE" style="stroke:#000000;stroke-width:1.5;"/><rect fill="none" height="200.1152" style="stroke:#000000;stroke-width:1.5;" width="308.5" x="131.5" y="105.5332"/><text fill="#000000" font-family="sans-serif" font-size="13" font-weight="bold" lengthAdjust="spacing" textLength="82" x="146.5" y="120.5615">Create Team</text><polygon fill="#181818" points="368,144.1152,378,148.1152,368,152.1152,372,148.1152" style="stroke:#181818;stroke-width:1.0;"/><line style="stroke:#181818;stroke-width:1.0;" x1="203" x2="374" y1="148.1152" y2="148.1152"/><text fill="#000000" font-family="sans-serif" font-size="13" font-weight="bold" lengthAdjust="spacing" textLength="25" x="210" y="142.8525">18.1</text><text fill="#000000" font-family="sans-serif" font-size="13" lengthAdjust="spacing" textLength="124" x="239" y="142.8525">create(teamProposal)</text><rect fill="#E3E3E3" height="51.2422" rx="2.5" ry="2.5" style="stroke:#181818;stroke-width:0.5;" width="50" x="380" y="124.8242"/><text fill="#000000" font-family="sans-serif" font-size="14" lengthAdjust="spacing" textLength="35" x="387.5" y="146.9316">team:</text><text fill="#000000" font-family="sans-serif" font-size="14" lengthAdjust="spacing" textLength="36" x="387" y="165.5527">Team</text><line style="stroke:#181818;stroke-width:1.0;" x1="203" x2="250" y1="205.3574" y2="205.3574"/><line style="stroke:#181818;stroke-width:1.0;" x1="250" x2="250" y1="205.3574" y2="218.3574"/><line style="stroke:#181818;stroke-width:1.0;" x1="209" x2="250" y1="218.3574" y2="218.3574"/><polygon fill="#181818" points="219,214.3574,209,218.3574,219,222.3574,215,218.3574" style="stroke:#181818;stroke-width:1.0;"/><text fill="#000000" font-family="sans-serif" font-size="13" font-weight="bold" lengthAdjust="spacing" textLength="25" x="215" y="200.0947">18.2</text><text fill="#000000" font-family="sans-serif" font-size="13" lengthAdjust="spacing" textLength="90" x="244" y="200.0947">addTeam(team)</text><line style="stroke:#181818;stroke-width:1.0;" x1="213" x2="255" y1="254.6484" y2="254.6484"/><line style="stroke:#181818;stroke-width:1.0;" x1="255" x2="255" y1="254.6484" y2="267.6484"/><line style="stroke:#181818;stroke-width:1.0;" x1="214" x2="255" y1="267.6484" y2="267.6484"/><polygon fill="#181818" points="224,263.6484,214,267.6484,224,271.6484,220,267.6484" style="stroke:#181818;stroke-width:1.0;"/><text fill="#000000" font-family="sans-serif" font-size="13" font-weight="bold" lengthAdjust="spacing" textLength="25" x="220" y="249.3857">18.3</text><text fill="#000000" font-family="sans-serif" font-size="13" lengthAdjust="spacing" textLength="112" x="249" y="249.3857">validateTeam(team)</text><polygon fill="#181818" points="11,331.9395,1,335.9395,11,339.9395,7,335.9395" style="stroke:#181818;stroke-width:1.0;"/><line style="stroke:#181818;stroke-width:1.0;stroke-dasharray:2.0,2.0;" x1="5" x2="197" y1="335.9395" y2="335.9395"/><text fill="#000000" font-family="sans-serif" font-size="13" font-weight="bold" lengthAdjust="spacing" textLength="14" x="17" y="330.6768">19</text><text fill="#000000" font-family="sans-serif" font-size="13" lengthAdjust="spacing" textLength="29" x="35" y="330.6768">team</text><!--SRC=[bP71QiCm38RlVWhHozP21hrjOGpAw75GkXntKMqrCKsiO2lT-lPpJ1FITZ2gYspv__N9TZXOrwB71Xfsh2lF3O7uZbGOJrhK1opfKqurWISjwCfwAWWL6lwsheGzre6KmaxOTSsEl58FbJK4UsRPyOzIqI5MsnQTm4m8cosr7AomFyq00nJhrSTslRdLvL-kY2c9-lsK0ijdfI1x6zoGW_Q4GhtZiLTlF4SCrlDBrzDIeHPxZDAH335AprqBxwa758a6vnWGaTOtNYm6rXLdD5oPpiiSq9XnlFc5-cQaVtiTiRPcUjzx6Xgw-xmlapCfJn_q9LLUisoSCdv5-gs_8By0]--></g></svg>