<?xml version="1.0" encoding="us-ascii" standalone="no"?><svg xmlns="http://www.w3.org/2000/svg" xmlns:xlink="http://www.w3.org/1999/xlink" contentStyleType="text/css" height="1060px" preserveAspectRatio="none" style="width:1407px;height:1060px;background:#FFFFFF;" version="1.1" viewBox="0 0 1407 1060" width="1407px" zoomAndPan="magnify"><defs/><g><!--class HRM--><g id="elem_HRM"><rect codeLine="11" fill="#F1F1F1" height="85.2422" id="HRM" rx="2.5" ry="2.5" style="stroke:#181818;stroke-width:0.5;" width="269" x="7" y="316.5"/><ellipse cx="122.25" cy="332.5" fill="#ADD1B2" rx="11" ry="11" style="stroke:#181818;stroke-width:1.0;"/><path d="M125.0156,328.375 Q125.1719,328.1563 125.3594,328.0469 Q125.5469,327.9375 125.7656,327.9375 Q126.1406,327.9375 126.375,328.2031 Q126.6094,328.4531 126.6094,329.0625 L126.6094,330.5156 Q126.6094,331.125 126.375,331.3906 Q126.1406,331.6563 125.7656,331.6563 Q125.4219,331.6563 125.2188,331.4531 Q125.0156,331.2656 124.9063,330.75 Q124.8594,330.3906 124.6719,330.2031 Q124.3438,329.8281 123.7344,329.6094 Q123.125,329.3906 122.5,329.3906 Q121.7344,329.3906 121.0938,329.7188 Q120.4688,330.0469 119.9688,330.7969 Q119.4844,331.5469 119.4844,332.5781 L119.4844,333.6719 Q119.4844,334.9063 120.375,335.7344 Q121.2656,336.5469 122.8594,336.5469 Q123.7969,336.5469 124.4531,336.2969 Q124.8438,336.1406 125.2656,335.7031 Q125.5313,335.4375 125.6719,335.3594 Q125.8281,335.2813 126.0313,335.2813 Q126.3594,335.2813 126.6094,335.5469 Q126.875,335.7969 126.875,336.1406 Q126.875,336.4844 126.5313,336.8906 Q126.0313,337.4688 125.2344,337.7969 Q124.1563,338.25 122.8594,338.25 Q121.3438,338.25 120.1406,337.625 Q119.1563,337.125 118.4688,336.0625 Q117.7813,334.9844 117.7813,333.7031 L117.7813,332.5469 Q117.7813,331.2188 118.3906,330.0781 Q119.0156,328.9219 120.1094,328.3125 Q121.2031,327.6875 122.4375,327.6875 Q123.1719,327.6875 123.8125,327.8594 Q124.4688,328.0156 125.0156,328.375 Z " fill="#000000"/><text fill="#000000" font-family="sans-serif" font-size="14" lengthAdjust="spacing" textLength="30" x="142.75" y="338.2969">HRM</text><line style="stroke:#181818;stroke-width:0.5;" x1="8" x2="275" y1="348.5" y2="348.5"/><line style="stroke:#181818;stroke-width:0.5;" x1="8" x2="275" y1="356.5" y2="356.5"/><text fill="#000000" font-family="sans-serif" font-size="14" lengthAdjust="spacing" textLength="48" x="13" y="375.6074">+HRM()</text><text fill="#000000" font-family="sans-serif" font-size="14" lengthAdjust="spacing" textLength="257" x="13" y="394.2285">+generateTeamProposal(size, members)</text></g><!--class GenerateTeamProposalController--><g id="elem_GenerateTeamProposalController"><rect codeLine="16" fill="#F1F1F1" height="141.1055" id="GenerateTeamProposalController" rx="2.5" ry="2.5" style="stroke:#181818;stroke-width:0.5;" width="593" x="367" y="7"/><ellipse cx="552.25" cy="23" fill="#ADD1B2" rx="11" ry="11" style="stroke:#181818;stroke-width:1.0;"/><path d="M555.0156,18.875 Q555.1719,18.6563 555.3594,18.5469 Q555.5469,18.4375 555.7656,18.4375 Q556.1406,18.4375 556.375,18.7031 Q556.6094,18.9531 556.6094,19.5625 L556.6094,21.0156 Q556.6094,21.625 556.375,21.8906 Q556.1406,22.1563 555.7656,22.1563 Q555.4219,22.1563 555.2188,21.9531 Q555.0156,21.7656 554.9063,21.25 Q554.8594,20.8906 554.6719,20.7031 Q554.3438,20.3281 553.7344,20.1094 Q553.125,19.8906 552.5,19.8906 Q551.7344,19.8906 551.0938,20.2188 Q550.4688,20.5469 549.9688,21.2969 Q549.4844,22.0469 549.4844,23.0781 L549.4844,24.1719 Q549.4844,25.4063 550.375,26.2344 Q551.2656,27.0469 552.8594,27.0469 Q553.7969,27.0469 554.4531,26.7969 Q554.8438,26.6406 555.2656,26.2031 Q555.5313,25.9375 555.6719,25.8594 Q555.8281,25.7813 556.0313,25.7813 Q556.3594,25.7813 556.6094,26.0469 Q556.875,26.2969 556.875,26.6406 Q556.875,26.9844 556.5313,27.3906 Q556.0313,27.9688 555.2344,28.2969 Q554.1563,28.75 552.8594,28.75 Q551.3438,28.75 550.1406,28.125 Q549.1563,27.625 548.4688,26.5625 Q547.7813,25.4844 547.7813,24.2031 L547.7813,23.0469 Q547.7813,21.7188 548.3906,20.5781 Q549.0156,19.4219 550.1094,18.8125 Q551.2031,18.1875 552.4375,18.1875 Q553.1719,18.1875 553.8125,18.3594 Q554.4688,18.5156 555.0156,18.875 Z " fill="#000000"/><text fill="#000000" font-family="sans-serif" font-size="14" lengthAdjust="spacing" textLength="214" x="572.75" y="28.7969">GenerateTeamProposalController</text><line style="stroke:#181818;stroke-width:0.5;" x1="368" x2="959" y1="39" y2="39"/><line style="stroke:#181818;stroke-width:0.5;" x1="368" x2="959" y1="47" y2="47"/><text fill="#000000" font-family="sans-serif" font-size="14" lengthAdjust="spacing" textLength="581" x="373" y="66.1074">+GenerateTeamProposalController(skillRepository, collaboratorRepository, teamRepository)</text><text fill="#000000" font-family="sans-serif" font-size="14" lengthAdjust="spacing" textLength="67" x="373" y="84.7285">+listSkills()</text><text fill="#000000" font-family="sans-serif" font-size="14" lengthAdjust="spacing" textLength="152" x="373" y="103.3496">+chooseMembers(skills)</text><text fill="#000000" font-family="sans-serif" font-size="14" lengthAdjust="spacing" textLength="257" x="373" y="121.9707">+generateTeamProposal(size, members)</text><text fill="#000000" font-family="sans-serif" font-size="14" lengthAdjust="spacing" textLength="181" x="373" y="140.5918">+createTeam(teamProposal)</text></g><!--class GenerateTeamProposalUI--><g id="elem_GenerateTeamProposalUI"><rect codeLine="25" fill="#F1F1F1" height="48" id="GenerateTeamProposalUI" rx="2.5" ry="2.5" style="stroke:#181818;stroke-width:0.5;" width="196" x="135.5" y="53.5"/><ellipse cx="150.5" cy="69.5" fill="#ADD1B2" rx="11" ry="11" style="stroke:#181818;stroke-width:1.0;"/><path d="M153.2656,65.375 Q153.4219,65.1563 153.6094,65.0469 Q153.7969,64.9375 154.0156,64.9375 Q154.3906,64.9375 154.625,65.2031 Q154.8594,65.4531 154.8594,66.0625 L154.8594,67.5156 Q154.8594,68.125 154.625,68.3906 Q154.3906,68.6563 154.0156,68.6563 Q153.6719,68.6563 153.4688,68.4531 Q153.2656,68.2656 153.1563,67.75 Q153.1094,67.3906 152.9219,67.2031 Q152.5938,66.8281 151.9844,66.6094 Q151.375,66.3906 150.75,66.3906 Q149.9844,66.3906 149.3438,66.7188 Q148.7188,67.0469 148.2188,67.7969 Q147.7344,68.5469 147.7344,69.5781 L147.7344,70.6719 Q147.7344,71.9063 148.625,72.7344 Q149.5156,73.5469 151.1094,73.5469 Q152.0469,73.5469 152.7031,73.2969 Q153.0938,73.1406 153.5156,72.7031 Q153.7813,72.4375 153.9219,72.3594 Q154.0781,72.2813 154.2813,72.2813 Q154.6094,72.2813 154.8594,72.5469 Q155.125,72.7969 155.125,73.1406 Q155.125,73.4844 154.7813,73.8906 Q154.2813,74.4688 153.4844,74.7969 Q152.4063,75.25 151.1094,75.25 Q149.5938,75.25 148.3906,74.625 Q147.4063,74.125 146.7188,73.0625 Q146.0313,71.9844 146.0313,70.7031 L146.0313,69.5469 Q146.0313,68.2188 146.6406,67.0781 Q147.2656,65.9219 148.3594,65.3125 Q149.4531,64.6875 150.6875,64.6875 Q151.4219,64.6875 152.0625,64.8594 Q152.7188,65.0156 153.2656,65.375 Z " fill="#000000"/><text fill="#000000" font-family="sans-serif" font-size="14" lengthAdjust="spacing" textLength="164" x="164.5" y="75.2969">GenerateTeamProposalUI</text><line style="stroke:#181818;stroke-width:0.5;" x1="136.5" x2="330.5" y1="85.5" y2="85.5"/><line style="stroke:#181818;stroke-width:0.5;" x1="136.5" x2="330.5" y1="93.5" y2="93.5"/></g><!--class Repositories--><g id="elem_Repositories"><rect codeLine="28" fill="#F1F1F1" height="141.1055" id="Repositories" rx="2.5" ry="2.5" style="stroke:#181818;stroke-width:0.5;" width="196" x="1063.5" y="7"/><ellipse cx="1117.75" cy="23" fill="#ADD1B2" rx="11" ry="11" style="stroke:#181818;stroke-width:1.0;"/><path d="M1120.5156,18.875 Q1120.6719,18.6563 1120.8594,18.5469 Q1121.0469,18.4375 1121.2656,18.4375 Q1121.6406,18.4375 1121.875,18.7031 Q1122.1094,18.9531 1122.1094,19.5625 L1122.1094,21.0156 Q1122.1094,21.625 1121.875,21.8906 Q1121.6406,22.1563 1121.2656,22.1563 Q1120.9219,22.1563 1120.7188,21.9531 Q1120.5156,21.7656 1120.4063,21.25 Q1120.3594,20.8906 1120.1719,20.7031 Q1119.8438,20.3281 1119.2344,20.1094 Q1118.625,19.8906 1118,19.8906 Q1117.2344,19.8906 1116.5938,20.2188 Q1115.9688,20.5469 1115.4688,21.2969 Q1114.9844,22.0469 1114.9844,23.0781 L1114.9844,24.1719 Q1114.9844,25.4063 1115.875,26.2344 Q1116.7656,27.0469 1118.3594,27.0469 Q1119.2969,27.0469 1119.9531,26.7969 Q1120.3438,26.6406 1120.7656,26.2031 Q1121.0313,25.9375 1121.1719,25.8594 Q1121.3281,25.7813 1121.5313,25.7813 Q1121.8594,25.7813 1122.1094,26.0469 Q1122.375,26.2969 1122.375,26.6406 Q1122.375,26.9844 1122.0313,27.3906 Q1121.5313,27.9688 1120.7344,28.2969 Q1119.6563,28.75 1118.3594,28.75 Q1116.8438,28.75 1115.6406,28.125 Q1114.6563,27.625 1113.9688,26.5625 Q1113.2813,25.4844 1113.2813,24.2031 L1113.2813,23.0469 Q1113.2813,21.7188 1113.8906,20.5781 Q1114.5156,19.4219 1115.6094,18.8125 Q1116.7031,18.1875 1117.9375,18.1875 Q1118.6719,18.1875 1119.3125,18.3594 Q1119.9688,18.5156 1120.5156,18.875 Z " fill="#000000"/><text fill="#000000" font-family="sans-serif" font-size="14" lengthAdjust="spacing" textLength="79" x="1138.25" y="28.7969">Repositories</text><line style="stroke:#181818;stroke-width:0.5;" x1="1064.5" x2="1258.5" y1="39" y2="39"/><line style="stroke:#181818;stroke-width:0.5;" x1="1064.5" x2="1258.5" y1="47" y2="47"/><text fill="#000000" font-family="sans-serif" font-size="14" lengthAdjust="spacing" textLength="94" x="1069.5" y="66.1074">-Repositories()</text><text fill="#000000" font-family="sans-serif" font-size="14" lengthAdjust="spacing" textLength="182" x="1069.5" y="84.7285">+getInstance() : Repositories</text><text fill="#000000" font-family="sans-serif" font-size="14" lengthAdjust="spacing" textLength="131" x="1069.5" y="103.3496">+getSkillRepository()</text><text fill="#000000" font-family="sans-serif" font-size="14" lengthAdjust="spacing" textLength="184" x="1069.5" y="121.9707">+getCollaboratorRepository()</text><text fill="#000000" font-family="sans-serif" font-size="14" lengthAdjust="spacing" textLength="142" x="1069.5" y="140.5918">+getTeamRepository()</text></g><!--class SkillRepository--><g id="elem_SkillRepository"><rect codeLine="37" fill="#F1F1F1" height="48" id="SkillRepository" rx="2.5" ry="2.5" style="stroke:#181818;stroke-width:0.5;" width="125" x="1181" y="335"/><ellipse cx="1196" cy="351" fill="#ADD1B2" rx="11" ry="11" style="stroke:#181818;stroke-width:1.0;"/><path d="M1198.7656,346.875 Q1198.9219,346.6563 1199.1094,346.5469 Q1199.2969,346.4375 1199.5156,346.4375 Q1199.8906,346.4375 1200.125,346.7031 Q1200.3594,346.9531 1200.3594,347.5625 L1200.3594,349.0156 Q1200.3594,349.625 1200.125,349.8906 Q1199.8906,350.1563 1199.5156,350.1563 Q1199.1719,350.1563 1198.9688,349.9531 Q1198.7656,349.7656 1198.6563,349.25 Q1198.6094,348.8906 1198.4219,348.7031 Q1198.0938,348.3281 1197.4844,348.1094 Q1196.875,347.8906 1196.25,347.8906 Q1195.4844,347.8906 1194.8438,348.2188 Q1194.2188,348.5469 1193.7188,349.2969 Q1193.2344,350.0469 1193.2344,351.0781 L1193.2344,352.1719 Q1193.2344,353.4063 1194.125,354.2344 Q1195.0156,355.0469 1196.6094,355.0469 Q1197.5469,355.0469 1198.2031,354.7969 Q1198.5938,354.6406 1199.0156,354.2031 Q1199.2813,353.9375 1199.4219,353.8594 Q1199.5781,353.7813 1199.7813,353.7813 Q1200.1094,353.7813 1200.3594,354.0469 Q1200.625,354.2969 1200.625,354.6406 Q1200.625,354.9844 1200.2813,355.3906 Q1199.7813,355.9688 1198.9844,356.2969 Q1197.9063,356.75 1196.6094,356.75 Q1195.0938,356.75 1193.8906,356.125 Q1192.9063,355.625 1192.2188,354.5625 Q1191.5313,353.4844 1191.5313,352.2031 L1191.5313,351.0469 Q1191.5313,349.7188 1192.1406,348.5781 Q1192.7656,347.4219 1193.8594,346.8125 Q1194.9531,346.1875 1196.1875,346.1875 Q1196.9219,346.1875 1197.5625,346.3594 Q1198.2188,346.5156 1198.7656,346.875 Z " fill="#000000"/><text fill="#000000" font-family="sans-serif" font-size="14" lengthAdjust="spacing" textLength="93" x="1210" y="356.7969">SkillRepository</text><line style="stroke:#181818;stroke-width:0.5;" x1="1182" x2="1305" y1="367" y2="367"/><line style="stroke:#181818;stroke-width:0.5;" x1="1182" x2="1305" y1="375" y2="375"/></g><!--class CollaboratorRepository--><g id="elem_CollaboratorRepository"><rect codeLine="41" fill="#F1F1F1" height="48" id="CollaboratorRepository" rx="2.5" ry="2.5" style="stroke:#181818;stroke-width:0.5;" width="178" x="943.5" y="335"/><ellipse cx="958.5" cy="351" fill="#ADD1B2" rx="11" ry="11" style="stroke:#181818;stroke-width:1.0;"/><path d="M961.2656,346.875 Q961.4219,346.6563 961.6094,346.5469 Q961.7969,346.4375 962.0156,346.4375 Q962.3906,346.4375 962.625,346.7031 Q962.8594,346.9531 962.8594,347.5625 L962.8594,349.0156 Q962.8594,349.625 962.625,349.8906 Q962.3906,350.1563 962.0156,350.1563 Q961.6719,350.1563 961.4688,349.9531 Q961.2656,349.7656 961.1563,349.25 Q961.1094,348.8906 960.9219,348.7031 Q960.5938,348.3281 959.9844,348.1094 Q959.375,347.8906 958.75,347.8906 Q957.9844,347.8906 957.3438,348.2188 Q956.7188,348.5469 956.2188,349.2969 Q955.7344,350.0469 955.7344,351.0781 L955.7344,352.1719 Q955.7344,353.4063 956.625,354.2344 Q957.5156,355.0469 959.1094,355.0469 Q960.0469,355.0469 960.7031,354.7969 Q961.0938,354.6406 961.5156,354.2031 Q961.7813,353.9375 961.9219,353.8594 Q962.0781,353.7813 962.2813,353.7813 Q962.6094,353.7813 962.8594,354.0469 Q963.125,354.2969 963.125,354.6406 Q963.125,354.9844 962.7813,355.3906 Q962.2813,355.9688 961.4844,356.2969 Q960.4063,356.75 959.1094,356.75 Q957.5938,356.75 956.3906,356.125 Q955.4063,355.625 954.7188,354.5625 Q954.0313,353.4844 954.0313,352.2031 L954.0313,351.0469 Q954.0313,349.7188 954.6406,348.5781 Q955.2656,347.4219 956.3594,346.8125 Q957.4531,346.1875 958.6875,346.1875 Q959.4219,346.1875 960.0625,346.3594 Q960.7188,346.5156 961.2656,346.875 Z " fill="#000000"/><text fill="#000000" font-family="sans-serif" font-size="14" lengthAdjust="spacing" textLength="146" x="972.5" y="356.7969">CollaboratorRepository</text><line style="stroke:#181818;stroke-width:0.5;" x1="944.5" x2="1120.5" y1="367" y2="367"/><line style="stroke:#181818;stroke-width:0.5;" x1="944.5" x2="1120.5" y1="375" y2="375"/></g><!--class TeamProposalRepository--><g id="elem_TeamProposalRepository"><rect codeLine="45" fill="#F1F1F1" height="103.8633" id="TeamProposalRepository" rx="2.5" ry="2.5" style="stroke:#181818;stroke-width:0.5;" width="266" x="642.5" y="307"/><ellipse cx="691.25" cy="323" fill="#ADD1B2" rx="11" ry="11" style="stroke:#181818;stroke-width:1.0;"/><path d="M694.0156,318.875 Q694.1719,318.6563 694.3594,318.5469 Q694.5469,318.4375 694.7656,318.4375 Q695.1406,318.4375 695.375,318.7031 Q695.6094,318.9531 695.6094,319.5625 L695.6094,321.0156 Q695.6094,321.625 695.375,321.8906 Q695.1406,322.1563 694.7656,322.1563 Q694.4219,322.1563 694.2188,321.9531 Q694.0156,321.7656 693.9063,321.25 Q693.8594,320.8906 693.6719,320.7031 Q693.3438,320.3281 692.7344,320.1094 Q692.125,319.8906 691.5,319.8906 Q690.7344,319.8906 690.0938,320.2188 Q689.4688,320.5469 688.9688,321.2969 Q688.4844,322.0469 688.4844,323.0781 L688.4844,324.1719 Q688.4844,325.4063 689.375,326.2344 Q690.2656,327.0469 691.8594,327.0469 Q692.7969,327.0469 693.4531,326.7969 Q693.8438,326.6406 694.2656,326.2031 Q694.5313,325.9375 694.6719,325.8594 Q694.8281,325.7813 695.0313,325.7813 Q695.3594,325.7813 695.6094,326.0469 Q695.875,326.2969 695.875,326.6406 Q695.875,326.9844 695.5313,327.3906 Q695.0313,327.9688 694.2344,328.2969 Q693.1563,328.75 691.8594,328.75 Q690.3438,328.75 689.1406,328.125 Q688.1563,327.625 687.4688,326.5625 Q686.7813,325.4844 686.7813,324.2031 L686.7813,323.0469 Q686.7813,321.7188 687.3906,320.5781 Q688.0156,319.4219 689.1094,318.8125 Q690.2031,318.1875 691.4375,318.1875 Q692.1719,318.1875 692.8125,318.3594 Q693.4688,318.5156 694.0156,318.875 Z " fill="#000000"/><text fill="#000000" font-family="sans-serif" font-size="14" lengthAdjust="spacing" textLength="160" x="711.75" y="328.7969">TeamProposalRepository</text><line style="stroke:#181818;stroke-width:0.5;" x1="643.5" x2="907.5" y1="339" y2="339"/><line style="stroke:#181818;stroke-width:0.5;" x1="643.5" x2="907.5" y1="347" y2="347"/><text fill="#000000" font-family="sans-serif" font-size="14" lengthAdjust="spacing" textLength="254" x="648.5" y="366.1074">-generateTeamProposal(size, members)</text><text fill="#000000" font-family="sans-serif" font-size="14" lengthAdjust="spacing" textLength="243" x="648.5" y="384.7285">-validateTeamProposal(teamProposal)</text><text fill="#000000" font-family="sans-serif" font-size="14" lengthAdjust="spacing" textLength="218" x="648.5" y="403.3496">-addTeamProposal(teamProposal)</text></g><!--class TeamRepository--><g id="elem_TeamRepository"><rect codeLine="51" fill="#F1F1F1" height="103.8633" id="TeamRepository" rx="2.5" ry="2.5" style="stroke:#181818;stroke-width:0.5;" width="154" x="382.5" y="307"/><ellipse cx="405.6" cy="323" fill="#ADD1B2" rx="11" ry="11" style="stroke:#181818;stroke-width:1.0;"/><path d="M408.3656,318.875 Q408.5219,318.6563 408.7094,318.5469 Q408.8969,318.4375 409.1156,318.4375 Q409.4906,318.4375 409.725,318.7031 Q409.9594,318.9531 409.9594,319.5625 L409.9594,321.0156 Q409.9594,321.625 409.725,321.8906 Q409.4906,322.1563 409.1156,322.1563 Q408.7719,322.1563 408.5688,321.9531 Q408.3656,321.7656 408.2563,321.25 Q408.2094,320.8906 408.0219,320.7031 Q407.6938,320.3281 407.0844,320.1094 Q406.475,319.8906 405.85,319.8906 Q405.0844,319.8906 404.4438,320.2188 Q403.8188,320.5469 403.3188,321.2969 Q402.8344,322.0469 402.8344,323.0781 L402.8344,324.1719 Q402.8344,325.4063 403.725,326.2344 Q404.6156,327.0469 406.2094,327.0469 Q407.1469,327.0469 407.8031,326.7969 Q408.1938,326.6406 408.6156,326.2031 Q408.8813,325.9375 409.0219,325.8594 Q409.1781,325.7813 409.3813,325.7813 Q409.7094,325.7813 409.9594,326.0469 Q410.225,326.2969 410.225,326.6406 Q410.225,326.9844 409.8813,327.3906 Q409.3813,327.9688 408.5844,328.2969 Q407.5063,328.75 406.2094,328.75 Q404.6938,328.75 403.4906,328.125 Q402.5063,327.625 401.8188,326.5625 Q401.1313,325.4844 401.1313,324.2031 L401.1313,323.0469 Q401.1313,321.7188 401.7406,320.5781 Q402.3656,319.4219 403.4594,318.8125 Q404.5531,318.1875 405.7875,318.1875 Q406.5219,318.1875 407.1625,318.3594 Q407.8188,318.5156 408.3656,318.875 Z " fill="#000000"/><text fill="#000000" font-family="sans-serif" font-size="14" lengthAdjust="spacing" textLength="104" x="421.4" y="328.7969">TeamRepository</text><line style="stroke:#181818;stroke-width:0.5;" x1="383.5" x2="535.5" y1="339" y2="339"/><line style="stroke:#181818;stroke-width:0.5;" x1="383.5" x2="535.5" y1="347" y2="347"/><text fill="#000000" font-family="sans-serif" font-size="14" lengthAdjust="spacing" textLength="106" x="388.5" y="366.1074">-addTeam(team)</text><text fill="#000000" font-family="sans-serif" font-size="14" lengthAdjust="spacing" textLength="131" x="388.5" y="384.7285">-validateTeam(team)</text><text fill="#000000" font-family="sans-serif" font-size="14" lengthAdjust="spacing" textLength="142" x="388.5" y="403.3496">-create(teamProposal)</text></g><!--class TeamProposal--><g id="elem_TeamProposal"><rect codeLine="57" fill="#F1F1F1" height="103.8633" id="TeamProposal" rx="2.5" ry="2.5" style="stroke:#181818;stroke-width:0.5;" width="237" x="516" y="490"/><ellipse cx="584.25" cy="506" fill="#ADD1B2" rx="11" ry="11" style="stroke:#181818;stroke-width:1.0;"/><path d="M587.0156,501.875 Q587.1719,501.6563 587.3594,501.5469 Q587.5469,501.4375 587.7656,501.4375 Q588.1406,501.4375 588.375,501.7031 Q588.6094,501.9531 588.6094,502.5625 L588.6094,504.0156 Q588.6094,504.625 588.375,504.8906 Q588.1406,505.1563 587.7656,505.1563 Q587.4219,505.1563 587.2188,504.9531 Q587.0156,504.7656 586.9063,504.25 Q586.8594,503.8906 586.6719,503.7031 Q586.3438,503.3281 585.7344,503.1094 Q585.125,502.8906 584.5,502.8906 Q583.7344,502.8906 583.0938,503.2188 Q582.4688,503.5469 581.9688,504.2969 Q581.4844,505.0469 581.4844,506.0781 L581.4844,507.1719 Q581.4844,508.4063 582.375,509.2344 Q583.2656,510.0469 584.8594,510.0469 Q585.7969,510.0469 586.4531,509.7969 Q586.8438,509.6406 587.2656,509.2031 Q587.5313,508.9375 587.6719,508.8594 Q587.8281,508.7813 588.0313,508.7813 Q588.3594,508.7813 588.6094,509.0469 Q588.875,509.2969 588.875,509.6406 Q588.875,509.9844 588.5313,510.3906 Q588.0313,510.9688 587.2344,511.2969 Q586.1563,511.75 584.8594,511.75 Q583.3438,511.75 582.1406,511.125 Q581.1563,510.625 580.4688,509.5625 Q579.7813,508.4844 579.7813,507.2031 L579.7813,506.0469 Q579.7813,504.7188 580.3906,503.5781 Q581.0156,502.4219 582.1094,501.8125 Q583.2031,501.1875 584.4375,501.1875 Q585.1719,501.1875 585.8125,501.3594 Q586.4688,501.5156 587.0156,501.875 Z " fill="#000000"/><text fill="#000000" font-family="sans-serif" font-size="14" lengthAdjust="spacing" textLength="92" x="604.75" y="511.7969">TeamProposal</text><line style="stroke:#181818;stroke-width:0.5;" x1="517" x2="752" y1="522" y2="522"/><text fill="#000000" font-family="sans-serif" font-size="14" lengthAdjust="spacing" textLength="56" x="522" y="541.1074">-size : int</text><text fill="#000000" font-family="sans-serif" font-size="14" lengthAdjust="spacing" textLength="225" x="522" y="559.7285">-members : ArrayList&lt;Collaborator&gt;</text><line style="stroke:#181818;stroke-width:0.5;" x1="517" x2="752" y1="567.2422" y2="567.2422"/><text fill="#000000" font-family="sans-serif" font-size="14" lengthAdjust="spacing" textLength="200" x="522" y="586.3496">+TeamProposal(size, members)</text></g><!--class Team--><g id="elem_Team"><rect codeLine="63" fill="#F1F1F1" height="85.2422" id="Team" rx="2.5" ry="2.5" style="stroke:#181818;stroke-width:0.5;" width="203" x="276" y="499.5"/><ellipse cx="355.25" cy="515.5" fill="#ADD1B2" rx="11" ry="11" style="stroke:#181818;stroke-width:1.0;"/><path d="M358.0156,511.375 Q358.1719,511.1563 358.3594,511.0469 Q358.5469,510.9375 358.7656,510.9375 Q359.1406,510.9375 359.375,511.2031 Q359.6094,511.4531 359.6094,512.0625 L359.6094,513.5156 Q359.6094,514.125 359.375,514.3906 Q359.1406,514.6563 358.7656,514.6563 Q358.4219,514.6563 358.2188,514.4531 Q358.0156,514.2656 357.9063,513.75 Q357.8594,513.3906 357.6719,513.2031 Q357.3438,512.8281 356.7344,512.6094 Q356.125,512.3906 355.5,512.3906 Q354.7344,512.3906 354.0938,512.7188 Q353.4688,513.0469 352.9688,513.7969 Q352.4844,514.5469 352.4844,515.5781 L352.4844,516.6719 Q352.4844,517.9063 353.375,518.7344 Q354.2656,519.5469 355.8594,519.5469 Q356.7969,519.5469 357.4531,519.2969 Q357.8438,519.1406 358.2656,518.7031 Q358.5313,518.4375 358.6719,518.3594 Q358.8281,518.2813 359.0313,518.2813 Q359.3594,518.2813 359.6094,518.5469 Q359.875,518.7969 359.875,519.1406 Q359.875,519.4844 359.5313,519.8906 Q359.0313,520.4688 358.2344,520.7969 Q357.1563,521.25 355.8594,521.25 Q354.3438,521.25 353.1406,520.625 Q352.1563,520.125 351.4688,519.0625 Q350.7813,517.9844 350.7813,516.7031 L350.7813,515.5469 Q350.7813,514.2188 351.3906,513.0781 Q352.0156,511.9219 353.1094,511.3125 Q354.2031,510.6875 355.4375,510.6875 Q356.1719,510.6875 356.8125,510.8594 Q357.4688,511.0156 358.0156,511.375 Z " fill="#000000"/><text fill="#000000" font-family="sans-serif" font-size="14" lengthAdjust="spacing" textLength="36" x="375.75" y="521.2969">Team</text><line style="stroke:#181818;stroke-width:0.5;" x1="277" x2="478" y1="531.5" y2="531.5"/><text fill="#000000" font-family="sans-serif" font-size="14" lengthAdjust="spacing" textLength="191" x="282" y="550.6074">-teamProposal : teamProposal</text><line style="stroke:#181818;stroke-width:0.5;" x1="277" x2="478" y1="558.1211" y2="558.1211"/><text fill="#000000" font-family="sans-serif" font-size="14" lengthAdjust="spacing" textLength="141" x="282" y="577.2285">+Team(teamProposal)</text></g><!--class Collaborator--><g id="elem_Collaborator"><rect codeLine="68" fill="#F1F1F1" height="215.5898" id="Collaborator" rx="2.5" ry="2.5" style="stroke:#181818;stroke-width:0.5;" width="370" x="820.5" y="673"/><ellipse cx="962.25" cy="689" fill="#ADD1B2" rx="11" ry="11" style="stroke:#181818;stroke-width:1.0;"/><path d="M965.0156,684.875 Q965.1719,684.6563 965.3594,684.5469 Q965.5469,684.4375 965.7656,684.4375 Q966.1406,684.4375 966.375,684.7031 Q966.6094,684.9531 966.6094,685.5625 L966.6094,687.0156 Q966.6094,687.625 966.375,687.8906 Q966.1406,688.1563 965.7656,688.1563 Q965.4219,688.1563 965.2188,687.9531 Q965.0156,687.7656 964.9063,687.25 Q964.8594,686.8906 964.6719,686.7031 Q964.3438,686.3281 963.7344,686.1094 Q963.125,685.8906 962.5,685.8906 Q961.7344,685.8906 961.0938,686.2188 Q960.4688,686.5469 959.9688,687.2969 Q959.4844,688.0469 959.4844,689.0781 L959.4844,690.1719 Q959.4844,691.4063 960.375,692.2344 Q961.2656,693.0469 962.8594,693.0469 Q963.7969,693.0469 964.4531,692.7969 Q964.8438,692.6406 965.2656,692.2031 Q965.5313,691.9375 965.6719,691.8594 Q965.8281,691.7813 966.0313,691.7813 Q966.3594,691.7813 966.6094,692.0469 Q966.875,692.2969 966.875,692.6406 Q966.875,692.9844 966.5313,693.3906 Q966.0313,693.9688 965.2344,694.2969 Q964.1563,694.75 962.8594,694.75 Q961.3438,694.75 960.1406,694.125 Q959.1563,693.625 958.4688,692.5625 Q957.7813,691.4844 957.7813,690.2031 L957.7813,689.0469 Q957.7813,687.7188 958.3906,686.5781 Q959.0156,685.4219 960.1094,684.8125 Q961.2031,684.1875 962.4375,684.1875 Q963.1719,684.1875 963.8125,684.3594 Q964.4688,684.5156 965.0156,684.875 Z " fill="#000000"/><text fill="#000000" font-family="sans-serif" font-size="14" lengthAdjust="spacing" textLength="78" x="982.75" y="694.7969">Collaborator</text><line style="stroke:#181818;stroke-width:0.5;" x1="821.5" x2="1189.5" y1="705" y2="705"/><text fill="#000000" font-family="sans-serif" font-size="14" lengthAdjust="spacing" textLength="89" x="826.5" y="724.1074">-name : String</text><text fill="#000000" font-family="sans-serif" font-size="14" lengthAdjust="spacing" textLength="110" x="826.5" y="742.7285">-birthdate : String</text><text fill="#000000" font-family="sans-serif" font-size="14" lengthAdjust="spacing" textLength="147" x="826.5" y="761.3496">-admissionData : String</text><text fill="#000000" font-family="sans-serif" font-size="14" lengthAdjust="spacing" textLength="105" x="826.5" y="779.9707">-address : String</text><text fill="#000000" font-family="sans-serif" font-size="14" lengthAdjust="spacing" textLength="101" x="826.5" y="798.5918">-contactInfo : int</text><text fill="#000000" font-family="sans-serif" font-size="14" lengthAdjust="spacing" textLength="161" x="826.5" y="817.2129">-idDocumentType : String</text><text fill="#000000" font-family="sans-serif" font-size="14" lengthAdjust="spacing" textLength="156" x="826.5" y="835.834">-idDocumentNumber : int</text><line style="stroke:#181818;stroke-width:0.5;" x1="821.5" x2="1189.5" y1="843.3477" y2="843.3477"/><text fill="#000000" font-family="sans-serif" font-size="14" lengthAdjust="spacing" textLength="354" x="826.5" y="862.4551">+Collaborator(name, birthdate, admissionData, address,</text><text fill="#000000" font-family="sans-serif" font-size="14" lengthAdjust="spacing" textLength="321" x="826.5" y="881.0762">contactInfo, idDocumentType, idDocumentNumber)</text></g><!--class Skill--><g id="elem_Skill"><rect codeLine="79" fill="#F1F1F1" height="85.2422" id="Skill" rx="2.5" ry="2.5" style="stroke:#181818;stroke-width:0.5;" width="101" x="1074" y="968"/><ellipse cx="1108.8" cy="984" fill="#ADD1B2" rx="11" ry="11" style="stroke:#181818;stroke-width:1.0;"/><path d="M1111.5656,979.875 Q1111.7219,979.6563 1111.9094,979.5469 Q1112.0969,979.4375 1112.3156,979.4375 Q1112.6906,979.4375 1112.925,979.7031 Q1113.1594,979.9531 1113.1594,980.5625 L1113.1594,982.0156 Q1113.1594,982.625 1112.925,982.8906 Q1112.6906,983.1563 1112.3156,983.1563 Q1111.9719,983.1563 1111.7688,982.9531 Q1111.5656,982.7656 1111.4563,982.25 Q1111.4094,981.8906 1111.2219,981.7031 Q1110.8938,981.3281 1110.2844,981.1094 Q1109.675,980.8906 1109.05,980.8906 Q1108.2844,980.8906 1107.6438,981.2188 Q1107.0188,981.5469 1106.5188,982.2969 Q1106.0344,983.0469 1106.0344,984.0781 L1106.0344,985.1719 Q1106.0344,986.4063 1106.925,987.2344 Q1107.8156,988.0469 1109.4094,988.0469 Q1110.3469,988.0469 1111.0031,987.7969 Q1111.3938,987.6406 1111.8156,987.2031 Q1112.0813,986.9375 1112.2219,986.8594 Q1112.3781,986.7813 1112.5813,986.7813 Q1112.9094,986.7813 1113.1594,987.0469 Q1113.425,987.2969 1113.425,987.6406 Q1113.425,987.9844 1113.0813,988.3906 Q1112.5813,988.9688 1111.7844,989.2969 Q1110.7063,989.75 1109.4094,989.75 Q1107.8938,989.75 1106.6906,989.125 Q1105.7063,988.625 1105.0188,987.5625 Q1104.3313,986.4844 1104.3313,985.2031 L1104.3313,984.0469 Q1104.3313,982.7188 1104.9406,981.5781 Q1105.5656,980.4219 1106.6594,979.8125 Q1107.7531,979.1875 1108.9875,979.1875 Q1109.7219,979.1875 1110.3625,979.3594 Q1111.0188,979.5156 1111.5656,979.875 Z " fill="#000000"/><text fill="#000000" font-family="sans-serif" font-size="14" lengthAdjust="spacing" textLength="25" x="1127.2" y="989.7969">Skill</text><line style="stroke:#181818;stroke-width:0.5;" x1="1075" x2="1174" y1="1000" y2="1000"/><text fill="#000000" font-family="sans-serif" font-size="14" lengthAdjust="spacing" textLength="89" x="1080" y="1019.1074">-name : String</text><line style="stroke:#181818;stroke-width:0.5;" x1="1075" x2="1174" y1="1026.6211" y2="1026.6211"/><text fill="#000000" font-family="sans-serif" font-size="14" lengthAdjust="spacing" textLength="78" x="1080" y="1045.7285">+Skill(name)</text></g><!--link GenerateTeamProposalUI to GenerateTeamProposalController--><g id="link_GenerateTeamProposalUI_GenerateTeamProposalController"><path codeLine="84" d="M331.88,77.5 C346.14,77.5 352.76,77.5 360.97,77.5 " fill="none" id="GenerateTeamProposalUI-to-GenerateTeamProposalController" style="stroke:#181818;stroke-width:1.0;stroke-dasharray:7.0,7.0;"/><polygon fill="#181818" points="366.97,77.5,357.97,73.5,361.97,77.5,357.97,81.5,366.97,77.5" style="stroke:#181818;stroke-width:1.0;"/></g><!--link GenerateTeamProposalController to Repositories--><g id="link_GenerateTeamProposalController_Repositories"><path codeLine="85" d="M960.02,77.5 C997.05,77.5 1026.61,77.5 1057.29,77.5 " fill="none" id="GenerateTeamProposalController-to-Repositories" style="stroke:#181818;stroke-width:1.0;stroke-dasharray:7.0,7.0;"/><polygon fill="#181818" points="1063.29,77.5,1054.29,73.5,1058.29,77.5,1054.29,81.5,1063.29,77.5" style="stroke:#181818;stroke-width:1.0;"/><text fill="#000000" font-family="sans-serif" font-size="13" lengthAdjust="spacing" textLength="67" x="978.25" y="70.5283">repositories</text></g><!--link Repositories to Repositories--><g id="link_Repositories_Repositories"><path codeLine="86" d="M1259.52,59.41 C1279.87,61.31 1294.5,67.34 1294.5,77.5 C1294.5,87.66 1285.844,93.1322 1265.494,95.0322 " fill="none" id="Repositories-to-Repositories" style="stroke:#181818;stroke-width:1.0;"/><polygon fill="#181818" points="1259.52,95.59,1268.8529,98.736,1264.4983,95.1252,1268.1092,90.7707,1259.52,95.59" style="stroke:#181818;stroke-width:1.0;"/><text fill="#000000" font-family="sans-serif" font-size="13" lengthAdjust="spacing" textLength="49" x="1300.5" y="83.0283">instance</text></g><!--link Repositories to SkillRepository--><g id="link_Repositories_SkillRepository"><path codeLine="88" d="M1259.75,119.4 C1325.66,146.84 1400.5,178 1400.5,178 C1400.5,178 1400.5,277 1400.5,277 C1400.5,277 1340.2119,308.0984 1293.8219,332.0384 " fill="none" id="Repositories-to-SkillRepository" style="stroke:#181818;stroke-width:1.0;"/><polygon fill="#181818" points="1288.49,334.79,1298.3222,334.2172,1292.9332,332.497,1294.6534,327.1081,1288.49,334.79" style="stroke:#181818;stroke-width:1.0;"/><text fill="#000000" font-family="sans-serif" font-size="13" lengthAdjust="spacing" textLength="7" x="1291.6032" y="323.8807">1</text></g><!--link Repositories to CollaboratorRepository--><g id="link_Repositories_CollaboratorRepository"><path codeLine="89" d="M1251.4,148.33 C1291.35,179.36 1329.5,209 1329.5,209 C1329.5,209 1329.5,228 1329.5,228 C1329.5,228 1176.0964,295.1438 1090.7564,332.5038 " fill="none" id="Repositories-to-CollaboratorRepository" style="stroke:#181818;stroke-width:1.0;"/><polygon fill="#181818" points="1085.26,334.91,1095.1087,334.965,1089.8403,332.9048,1091.9004,327.6364,1085.26,334.91" style="stroke:#181818;stroke-width:1.0;"/><text fill="#000000" font-family="sans-serif" font-size="13" lengthAdjust="spacing" textLength="7" x="1090.8829" y="323.6244">1</text></g><!--link Repositories to TeamProposalRepository--><g id="link_Repositories_TeamProposalRepository"><path codeLine="90" d="M1101.62,148.44 C1068.31,187.34 1033.5,228 1033.5,228 C1033.5,228 954.3682,267.8701 882.0882,304.2901 " fill="none" id="Repositories-to-TeamProposalRepository" style="stroke:#181818;stroke-width:1.0;"/><polygon fill="#181818" points="876.73,306.99,886.5673,306.5123,881.1952,304.7401,882.9674,299.368,876.73,306.99" style="stroke:#181818;stroke-width:1.0;"/><text fill="#000000" font-family="sans-serif" font-size="13" lengthAdjust="spacing" textLength="7" x="882.8625" y="295.916">1</text></g><!--link Repositories to TeamRepository--><g id="link_Repositories_TeamRepository"><path codeLine="91" d="M1063.31,126.01 C972.83,169.78 852.5,228 852.5,228 C852.5,228 656.8264,292.7256 542.3764,330.5856 " fill="none" id="Repositories-to-TeamRepository" style="stroke:#181818;stroke-width:1.0;"/><polygon fill="#181818" points="536.68,332.47,546.4809,333.4411,541.427,330.8997,543.9684,325.8458,536.68,332.47" style="stroke:#181818;stroke-width:1.0;"/><text fill="#000000" font-family="sans-serif" font-size="13" lengthAdjust="spacing" textLength="7" x="544.6219" y="326.0711">1</text></g><!--link GenerateTeamProposalController to SkillRepository--><g id="link_GenerateTeamProposalController_SkillRepository"><path codeLine="93" d="M860.69,148.05 C948.95,179.18 1033.5,209 1033.5,209 C1033.5,209 1146.7265,289.3381 1205.7965,331.2481 " fill="none" id="GenerateTeamProposalController-to-SkillRepository" style="stroke:#181818;stroke-width:1.0;stroke-dasharray:7.0,7.0;"/><polygon fill="#181818" points="1210.69,334.72,1205.6644,326.2499,1206.6121,331.8268,1201.0352,332.7745,1210.69,334.72" style="stroke:#181818;stroke-width:1.0;"/><text fill="#000000" font-family="sans-serif" font-size="13" lengthAdjust="spacing" textLength="85" x="1060.5" y="224.0283">skillRepository</text></g><!--link GenerateTeamProposalController to CollaboratorRepository--><g id="link_GenerateTeamProposalController_CollaboratorRepository"><path codeLine="94" d="M776.64,148.14 C827.15,179.24 875.5,209 875.5,209 C875.5,209 959.4579,288.6797 1003.6179,330.5897 " fill="none" id="GenerateTeamProposalController-to-CollaboratorRepository" style="stroke:#181818;stroke-width:1.0;stroke-dasharray:7.0,7.0;"/><polygon fill="#181818" points="1007.97,334.72,1004.1955,325.6231,1004.3433,331.2781,998.6884,331.4259,1007.97,334.72" style="stroke:#181818;stroke-width:1.0;"/><text fill="#000000" font-family="sans-serif" font-size="13" lengthAdjust="spacing" textLength="129" x="895.5" y="224.0283">collaboratorRepository</text></g><!--link GenerateTeamProposalController to TeamRepository--><g id="link_GenerateTeamProposalController_TeamRepository"><path codeLine="95" d="M560.5,148.14 C514.51,179.24 470.5,209 470.5,209 C470.5,209 466.9115,257.6363 463.7315,300.7363 " fill="none" id="GenerateTeamProposalController-to-TeamRepository" style="stroke:#181818;stroke-width:1.0;stroke-dasharray:7.0,7.0;"/><polygon fill="#181818" points="463.29,306.72,467.9414,298.0387,463.6579,301.7336,459.9631,297.4501,463.29,306.72" style="stroke:#181818;stroke-width:1.0;"/><text fill="#000000" font-family="sans-serif" font-size="13" lengthAdjust="spacing" textLength="91" x="471.5" y="224.0283">teamRepository</text></g><!--link GenerateTeamProposalController to TeamProposalRepository--><g id="link_GenerateTeamProposalController_TeamProposalRepository"><path codeLine="96" d="M691.47,148.31 C711.17,197.46 734.8678,256.6007 752.6878,301.0607 " fill="none" id="GenerateTeamProposalController-to-TeamProposalRepository" style="stroke:#181818;stroke-width:1.0;stroke-dasharray:7.0,7.0;"/><polygon fill="#181818" points="754.92,306.63,755.2845,296.7879,753.0598,301.9889,747.8588,299.7642,754.92,306.63" style="stroke:#181818;stroke-width:1.0;"/><text fill="#000000" font-family="sans-serif" font-size="13" lengthAdjust="spacing" textLength="142" x="724.5" y="224.0283">teamProposalRepository</text></g><!--link HRM to Team--><g id="link_HRM_Team"><path codeLine="98" d="M190.1,401.54 C222.25,429.02 258.5,460 258.5,460 C258.5,460 282.1393,476.0948 311.2993,495.9348 " fill="none" id="HRM-to-Team" style="stroke:#181818;stroke-width:1.0;"/><polygon fill="#181818" points="316.26,499.31,311.0691,490.9401,312.1261,496.4974,306.5689,497.5544,316.26,499.31" style="stroke:#181818;stroke-width:1.0;"/><text fill="#000000" font-family="sans-serif" font-size="13" lengthAdjust="spacing" textLength="43" x="259.5" y="456.0283">creates</text><text fill="#000000" font-family="sans-serif" font-size="13" lengthAdjust="spacing" textLength="7" x="190.2878" y="423.7067">1</text><text fill="#000000" font-family="sans-serif" font-size="13" lengthAdjust="spacing" textLength="5" x="301.1014" y="488.1838">*</text></g><!--reverse link Team to Collaborator--><g id="link_Team_Collaborator"><path codeLine="99" d="M487.0796,589.1867 C500.3796,594.7867 498.5,594 498.5,594 C498.5,594 675.48,658.93 820.31,712.06 " fill="none" id="Team-backto-Collaborator" style="stroke:#181818;stroke-width:1.0;"/><polygon fill="none" points="476.02,584.53,479.9976,590.5449,487.0796,589.1867,483.102,583.1718,476.02,584.53" style="stroke:#181818;stroke-width:1.0;"/><text fill="#000000" font-family="sans-serif" font-size="13" lengthAdjust="spacing" textLength="21" x="622.5" y="639.0283">has</text><text fill="#000000" font-family="sans-serif" font-size="13" lengthAdjust="spacing" textLength="5" x="807.3918" y="705.8361">*</text></g><!--reverse link Collaborator to Skill--><g id="link_Collaborator_Skill"><path codeLine="100" d="M1067.0801,899.7241 C1081.7201,927.7241 1091.1,945.64 1102.74,967.9 " fill="none" id="Collaborator-backto-Skill" style="stroke:#181818;stroke-width:1.0;"/><polygon fill="none" points="1061.52,889.09,1060.7554,896.2604,1067.0801,899.7241,1067.8448,892.5537,1061.52,889.09" style="stroke:#181818;stroke-width:1.0;"/><text fill="#000000" font-family="sans-serif" font-size="13" lengthAdjust="spacing" textLength="21" x="1086.5" y="934.0283">has</text><text fill="#000000" font-family="sans-serif" font-size="13" lengthAdjust="spacing" textLength="5" x="1093.8736" y="956.7881">*</text></g><!--link GenerateTeamProposalController to TeamProposal--><g id="link_GenerateTeamProposalController_TeamProposal"><path codeLine="102" d="M651.59,148.3 C640.12,215.5 624.5,307 624.5,307 C624.5,307 624.5,411 624.5,411 C624.5,411 627.3084,447.5878 630.1184,484.0078 " fill="none" id="GenerateTeamProposalController-to-TeamProposal" style="stroke:#181818;stroke-width:1.0;stroke-dasharray:7.0,7.0;"/><polygon fill="#181818" points="630.58,489.99,633.8758,480.709,630.1954,485.0048,625.8995,481.3244,630.58,489.99" style="stroke:#181818;stroke-width:1.0;"/><text fill="#000000" font-family="sans-serif" font-size="13" lengthAdjust="spacing" textLength="80" x="634.5" y="273.0283">teamProposal</text></g><!--link GenerateTeamProposalController to Team--><g id="link_GenerateTeamProposalController_Team"><path codeLine="103" d="M554.31,148.15 C528.09,164.87 507.5,178 507.5,178 C507.5,178 461.5,209 461.5,209 C461.5,209 364.5,307 364.5,307 C364.5,307 364.5,411 364.5,411 C364.5,411 368.9114,455.1799 372.7214,493.1799 " fill="none" id="GenerateTeamProposalController-to-Team" style="stroke:#181818;stroke-width:1.0;stroke-dasharray:7.0,7.0;"/><polygon fill="#181818" points="373.32,499.15,376.4022,489.7958,372.8212,494.1749,368.4421,490.594,373.32,499.15" style="stroke:#181818;stroke-width:1.0;"/><text fill="#000000" font-family="sans-serif" font-size="13" lengthAdjust="spacing" textLength="29" x="414.5" y="273.0283">team</text></g><!--link SkillRepository to Skill--><g id="link_SkillRepository_Skill"><path codeLine="104" d="M1241.97,383.07 C1235.24,484.89 1208.5,889 1208.5,889 C1208.5,889 1181.3313,927.968 1157.0713,962.768 " fill="none" id="SkillRepository-to-Skill" style="stroke:#181818;stroke-width:1.0;"/><polygon fill="#181818" points="1153.64,967.69,1162.0683,962.5945,1156.4994,963.5883,1155.5056,958.0194,1153.64,967.69" style="stroke:#181818;stroke-width:1.0;"/><text fill="#000000" font-family="sans-serif" font-size="13" lengthAdjust="spacing" textLength="21" x="1226.5" y="639.0283">has</text></g><!--link CollaboratorRepository to Collaborator--><g id="link_CollaboratorRepository_Collaborator"><path codeLine="105" d="M1031.01,383.18 C1027.53,437.26 1019.0846,568.6423 1012.7946,666.5723 " fill="none" id="CollaboratorRepository-to-Collaborator" style="stroke:#181818;stroke-width:1.0;"/><polygon fill="#181818" points="1012.41,672.56,1016.9787,663.8349,1012.7305,667.5703,1008.9951,663.3221,1012.41,672.56" style="stroke:#181818;stroke-width:1.0;"/><text fill="#000000" font-family="sans-serif" font-size="13" lengthAdjust="spacing" textLength="21" x="1024.5" y="547.5283">has</text></g><!--link TeamRepository to Team--><g id="link_TeamRepository_Team"><path codeLine="106" d="M436.22,411.38 C423.63,439.18 410.7457,467.6146 398.8957,493.7746 " fill="none" id="TeamRepository-to-Team" style="stroke:#181818;stroke-width:1.0;"/><polygon fill="#181818" points="396.42,499.24,403.7772,492.6924,398.4831,494.6855,396.49,489.3914,396.42,499.24" style="stroke:#181818;stroke-width:1.0;"/><text fill="#000000" font-family="sans-serif" font-size="13" lengthAdjust="spacing" textLength="21" x="422.5" y="456.0283">has</text></g><!--link TeamProposalRepository to TeamProposal--><g id="link_TeamProposalRepository_TeamProposal"><path codeLine="107" d="M735.47,411.38 C716.34,435.94 697.1876,460.527 678.0676,485.067 " fill="none" id="TeamProposalRepository-to-TeamProposal" style="stroke:#181818;stroke-width:1.0;"/><polygon fill="#181818" points="674.38,489.8,683.0668,485.1589,677.453,485.8558,676.7561,480.2421,674.38,489.8" style="stroke:#181818;stroke-width:1.0;"/><text fill="#000000" font-family="sans-serif" font-size="13" lengthAdjust="spacing" textLength="21" x="710.5" y="456.0283">has</text></g><!--SRC=[bLN1ZjiW4Btp5MWlSHgxQgzMjT9gLseZTQjgazvw8VQiZHP31AHLMlNV2pQnWTXURqvXvitmve4VA_L2-P58qk16S57KKZI0jJm16Z97KhoG2dRwp01BA3JX5VC1gYQb-4rvXPy9Ktw6KGxwV0Hy5Eni5sWraXHI2-HL5OmeTQUrf8UJXcqX-8x-0Vm1eHM3Pusrm99MjSObjNIeu0YrDVZBqoF-Yx3vRUp_PEt-Ly114Wrx8CrtAOv24POeqpJ53JG7a6gD_bsQV1u1tmkkfM0CPDz_7fQOSHXx0XEcMiXpYWiJ9mTXIeJquzhK3-iBOqQLtjaMgX-Yg8LGyDZnxVghjmpekaXmk4Hxu7R-6G5-RCtWlKGzNmhA2P85GKzvlUNAN9a2aZNE0z00sOLY-TNtexBvY7qWeCaCFAE-XkgG6sySG7m10aWty5BHC_oBC5h6o53-3aZASWOJ41iXvAhRgh6jWqHt4UPsk8Jx_dOsSuQKQnTmOvhOdPJa_DLSsa- -hhVkb1PzTnRKR-NJCktzfTTpYhtFeM_9IMFPxuolyCh53bJgsieJ9qZPKAMCjJmGJQwJfGIbuh0nAaqASz-VHQ0IBHz4SMg0wxsrkwXgo7uxMKcyqaqmI687I0VAQKWolT1AyK_kKKcZ_TEh7TVH1pEZsAP3j5JQiWclU7_xYZ-YLrpMD0XC9ZSlZ-SSGIxBhi3KUGwAaGPwy_4cDeO9rBX5J837pM86x84Mg15RMOwZ5sP1ZmdBooVUfWKT8oFAezTiOOSHZmq_ULyg-yPR2LifttLIsX5QErEeNMAHPMqoC88SrqIX8DG3kulV8Tx8EhQdPTMk2iNdQiVooKoScOMD31UTXqMvpIxP4QqlA6-WLeR_]--></g></svg>