<?xml version="1.0" encoding="us-ascii" standalone="no"?><svg xmlns="http://www.w3.org/2000/svg" xmlns:xlink="http://www.w3.org/1999/xlink" contentStyleType="text/css" height="1096px" preserveAspectRatio="none" style="width:1767px;height:1096px;background:#FFFFFF;" version="1.1" viewBox="0 0 1767 1096" width="1767px" zoomAndPan="magnify"><defs/><g><!--class HRM--><g id="elem_HRM"><rect codeLine="11" fill="#F1F1F1" height="85.2422" id="HRM" rx="2.5" ry="2.5" style="stroke:#181818;stroke-width:0.5;" width="480" x="7" y="325.5"/><ellipse cx="227.75" cy="341.5" fill="#ADD1B2" rx="11" ry="11" style="stroke:#181818;stroke-width:1.0;"/><path d="M230.5156,337.375 Q230.6719,337.1563 230.8594,337.0469 Q231.0469,336.9375 231.2656,336.9375 Q231.6406,336.9375 231.875,337.2031 Q232.1094,337.4531 232.1094,338.0625 L232.1094,339.5156 Q232.1094,340.125 231.875,340.3906 Q231.6406,340.6563 231.2656,340.6563 Q230.9219,340.6563 230.7188,340.4531 Q230.5156,340.2656 230.4063,339.75 Q230.3594,339.3906 230.1719,339.2031 Q229.8438,338.8281 229.2344,338.6094 Q228.625,338.3906 228,338.3906 Q227.2344,338.3906 226.5938,338.7188 Q225.9688,339.0469 225.4688,339.7969 Q224.9844,340.5469 224.9844,341.5781 L224.9844,342.6719 Q224.9844,343.9063 225.875,344.7344 Q226.7656,345.5469 228.3594,345.5469 Q229.2969,345.5469 229.9531,345.2969 Q230.3438,345.1406 230.7656,344.7031 Q231.0313,344.4375 231.1719,344.3594 Q231.3281,344.2813 231.5313,344.2813 Q231.8594,344.2813 232.1094,344.5469 Q232.375,344.7969 232.375,345.1406 Q232.375,345.4844 232.0313,345.8906 Q231.5313,346.4688 230.7344,346.7969 Q229.6563,347.25 228.3594,347.25 Q226.8438,347.25 225.6406,346.625 Q224.6563,346.125 223.9688,345.0625 Q223.2813,343.9844 223.2813,342.7031 L223.2813,341.5469 Q223.2813,340.2188 223.8906,339.0781 Q224.5156,337.9219 225.6094,337.3125 Q226.7031,336.6875 227.9375,336.6875 Q228.6719,336.6875 229.3125,336.8594 Q229.9688,337.0156 230.5156,337.375 Z " fill="#000000"/><text fill="#000000" font-family="sans-serif" font-size="14" lengthAdjust="spacing" textLength="30" x="248.25" y="347.2969">HRM</text><line style="stroke:#181818;stroke-width:0.5;" x1="8" x2="486" y1="357.5" y2="357.5"/><line style="stroke:#181818;stroke-width:0.5;" x1="8" x2="486" y1="365.5" y2="365.5"/><text fill="#000000" font-family="sans-serif" font-size="14" lengthAdjust="spacing" textLength="48" x="13" y="384.6074">+HRM()</text><text fill="#000000" font-family="sans-serif" font-size="14" lengthAdjust="spacing" textLength="468" x="13" y="403.2285">+generateTeamProposal(minimumSize, maximumSize, skills, collaborators)</text></g><!--class GenerateTeamProposalController--><g id="elem_GenerateTeamProposalController"><rect codeLine="16" fill="#F1F1F1" height="141.1055" id="GenerateTeamProposalController" rx="2.5" ry="2.5" style="stroke:#181818;stroke-width:0.5;" width="593" x="771.5" y="7"/><ellipse cx="956.75" cy="23" fill="#ADD1B2" rx="11" ry="11" style="stroke:#181818;stroke-width:1.0;"/><path d="M959.5156,18.875 Q959.6719,18.6563 959.8594,18.5469 Q960.0469,18.4375 960.2656,18.4375 Q960.6406,18.4375 960.875,18.7031 Q961.1094,18.9531 961.1094,19.5625 L961.1094,21.0156 Q961.1094,21.625 960.875,21.8906 Q960.6406,22.1563 960.2656,22.1563 Q959.9219,22.1563 959.7188,21.9531 Q959.5156,21.7656 959.4063,21.25 Q959.3594,20.8906 959.1719,20.7031 Q958.8438,20.3281 958.2344,20.1094 Q957.625,19.8906 957,19.8906 Q956.2344,19.8906 955.5938,20.2188 Q954.9688,20.5469 954.4688,21.2969 Q953.9844,22.0469 953.9844,23.0781 L953.9844,24.1719 Q953.9844,25.4063 954.875,26.2344 Q955.7656,27.0469 957.3594,27.0469 Q958.2969,27.0469 958.9531,26.7969 Q959.3438,26.6406 959.7656,26.2031 Q960.0313,25.9375 960.1719,25.8594 Q960.3281,25.7813 960.5313,25.7813 Q960.8594,25.7813 961.1094,26.0469 Q961.375,26.2969 961.375,26.6406 Q961.375,26.9844 961.0313,27.3906 Q960.5313,27.9688 959.7344,28.2969 Q958.6563,28.75 957.3594,28.75 Q955.8438,28.75 954.6406,28.125 Q953.6563,27.625 952.9688,26.5625 Q952.2813,25.4844 952.2813,24.2031 L952.2813,23.0469 Q952.2813,21.7188 952.8906,20.5781 Q953.5156,19.4219 954.6094,18.8125 Q955.7031,18.1875 956.9375,18.1875 Q957.6719,18.1875 958.3125,18.3594 Q958.9688,18.5156 959.5156,18.875 Z " fill="#000000"/><text fill="#000000" font-family="sans-serif" font-size="14" lengthAdjust="spacing" textLength="214" x="977.25" y="28.7969">GenerateTeamProposalController</text><line style="stroke:#181818;stroke-width:0.5;" x1="772.5" x2="1363.5" y1="39" y2="39"/><line style="stroke:#181818;stroke-width:0.5;" x1="772.5" x2="1363.5" y1="47" y2="47"/><text fill="#000000" font-family="sans-serif" font-size="14" lengthAdjust="spacing" textLength="581" x="777.5" y="66.1074">+GenerateTeamProposalController(skillRepository, collaboratorRepository, teamRepository)</text><text fill="#000000" font-family="sans-serif" font-size="14" lengthAdjust="spacing" textLength="67" x="777.5" y="84.7285">+listSkills()</text><text fill="#000000" font-family="sans-serif" font-size="14" lengthAdjust="spacing" textLength="123" x="777.5" y="103.3496">+getCollaborators()</text><text fill="#000000" font-family="sans-serif" font-size="14" lengthAdjust="spacing" textLength="468" x="777.5" y="121.9707">+generateTeamProposal(minimumSize, maximumSize, skills, collaborators)</text><text fill="#000000" font-family="sans-serif" font-size="14" lengthAdjust="spacing" textLength="152" x="777.5" y="140.5918">+createTeam(members)</text></g><!--class GenerateTeamProposalUI--><g id="elem_GenerateTeamProposalUI"><rect codeLine="25" fill="#F1F1F1" height="48" id="GenerateTeamProposalUI" rx="2.5" ry="2.5" style="stroke:#181818;stroke-width:0.5;" width="196" x="540" y="53.5"/><ellipse cx="555" cy="69.5" fill="#ADD1B2" rx="11" ry="11" style="stroke:#181818;stroke-width:1.0;"/><path d="M557.7656,65.375 Q557.9219,65.1563 558.1094,65.0469 Q558.2969,64.9375 558.5156,64.9375 Q558.8906,64.9375 559.125,65.2031 Q559.3594,65.4531 559.3594,66.0625 L559.3594,67.5156 Q559.3594,68.125 559.125,68.3906 Q558.8906,68.6563 558.5156,68.6563 Q558.1719,68.6563 557.9688,68.4531 Q557.7656,68.2656 557.6563,67.75 Q557.6094,67.3906 557.4219,67.2031 Q557.0938,66.8281 556.4844,66.6094 Q555.875,66.3906 555.25,66.3906 Q554.4844,66.3906 553.8438,66.7188 Q553.2188,67.0469 552.7188,67.7969 Q552.2344,68.5469 552.2344,69.5781 L552.2344,70.6719 Q552.2344,71.9063 553.125,72.7344 Q554.0156,73.5469 555.6094,73.5469 Q556.5469,73.5469 557.2031,73.2969 Q557.5938,73.1406 558.0156,72.7031 Q558.2813,72.4375 558.4219,72.3594 Q558.5781,72.2813 558.7813,72.2813 Q559.1094,72.2813 559.3594,72.5469 Q559.625,72.7969 559.625,73.1406 Q559.625,73.4844 559.2813,73.8906 Q558.7813,74.4688 557.9844,74.7969 Q556.9063,75.25 555.6094,75.25 Q554.0938,75.25 552.8906,74.625 Q551.9063,74.125 551.2188,73.0625 Q550.5313,71.9844 550.5313,70.7031 L550.5313,69.5469 Q550.5313,68.2188 551.1406,67.0781 Q551.7656,65.9219 552.8594,65.3125 Q553.9531,64.6875 555.1875,64.6875 Q555.9219,64.6875 556.5625,64.8594 Q557.2188,65.0156 557.7656,65.375 Z " fill="#000000"/><text fill="#000000" font-family="sans-serif" font-size="14" lengthAdjust="spacing" textLength="164" x="569" y="75.2969">GenerateTeamProposalUI</text><line style="stroke:#181818;stroke-width:0.5;" x1="541" x2="735" y1="85.5" y2="85.5"/><line style="stroke:#181818;stroke-width:0.5;" x1="541" x2="735" y1="93.5" y2="93.5"/></g><!--class Repositories--><g id="elem_Repositories"><rect codeLine="28" fill="#F1F1F1" height="141.1055" id="Repositories" rx="2.5" ry="2.5" style="stroke:#181818;stroke-width:0.5;" width="196" x="1468" y="7"/><ellipse cx="1522.25" cy="23" fill="#ADD1B2" rx="11" ry="11" style="stroke:#181818;stroke-width:1.0;"/><path d="M1525.0156,18.875 Q1525.1719,18.6563 1525.3594,18.5469 Q1525.5469,18.4375 1525.7656,18.4375 Q1526.1406,18.4375 1526.375,18.7031 Q1526.6094,18.9531 1526.6094,19.5625 L1526.6094,21.0156 Q1526.6094,21.625 1526.375,21.8906 Q1526.1406,22.1563 1525.7656,22.1563 Q1525.4219,22.1563 1525.2188,21.9531 Q1525.0156,21.7656 1524.9063,21.25 Q1524.8594,20.8906 1524.6719,20.7031 Q1524.3438,20.3281 1523.7344,20.1094 Q1523.125,19.8906 1522.5,19.8906 Q1521.7344,19.8906 1521.0938,20.2188 Q1520.4688,20.5469 1519.9688,21.2969 Q1519.4844,22.0469 1519.4844,23.0781 L1519.4844,24.1719 Q1519.4844,25.4063 1520.375,26.2344 Q1521.2656,27.0469 1522.8594,27.0469 Q1523.7969,27.0469 1524.4531,26.7969 Q1524.8438,26.6406 1525.2656,26.2031 Q1525.5313,25.9375 1525.6719,25.8594 Q1525.8281,25.7813 1526.0313,25.7813 Q1526.3594,25.7813 1526.6094,26.0469 Q1526.875,26.2969 1526.875,26.6406 Q1526.875,26.9844 1526.5313,27.3906 Q1526.0313,27.9688 1525.2344,28.2969 Q1524.1563,28.75 1522.8594,28.75 Q1521.3438,28.75 1520.1406,28.125 Q1519.1563,27.625 1518.4688,26.5625 Q1517.7813,25.4844 1517.7813,24.2031 L1517.7813,23.0469 Q1517.7813,21.7188 1518.3906,20.5781 Q1519.0156,19.4219 1520.1094,18.8125 Q1521.2031,18.1875 1522.4375,18.1875 Q1523.1719,18.1875 1523.8125,18.3594 Q1524.4688,18.5156 1525.0156,18.875 Z " fill="#000000"/><text fill="#000000" font-family="sans-serif" font-size="14" lengthAdjust="spacing" textLength="79" x="1542.75" y="28.7969">Repositories</text><line style="stroke:#181818;stroke-width:0.5;" x1="1469" x2="1663" y1="39" y2="39"/><line style="stroke:#181818;stroke-width:0.5;" x1="1469" x2="1663" y1="47" y2="47"/><text fill="#000000" font-family="sans-serif" font-size="14" lengthAdjust="spacing" textLength="94" x="1474" y="66.1074">-Repositories()</text><text fill="#000000" font-family="sans-serif" font-size="14" lengthAdjust="spacing" textLength="182" x="1474" y="84.7285">+getInstance() : Repositories</text><text fill="#000000" font-family="sans-serif" font-size="14" lengthAdjust="spacing" textLength="131" x="1474" y="103.3496">+getSkillRepository()</text><text fill="#000000" font-family="sans-serif" font-size="14" lengthAdjust="spacing" textLength="184" x="1474" y="121.9707">+getCollaboratorRepository()</text><text fill="#000000" font-family="sans-serif" font-size="14" lengthAdjust="spacing" textLength="142" x="1474" y="140.5918">+getTeamRepository()</text></g><!--class SkillRepository--><g id="elem_SkillRepository"><rect codeLine="37" fill="#F1F1F1" height="66.6211" id="SkillRepository" rx="2.5" ry="2.5" style="stroke:#181818;stroke-width:0.5;" width="125" x="1363.5" y="334.5"/><ellipse cx="1378.5" cy="350.5" fill="#ADD1B2" rx="11" ry="11" style="stroke:#181818;stroke-width:1.0;"/><path d="M1381.2656,346.375 Q1381.4219,346.1563 1381.6094,346.0469 Q1381.7969,345.9375 1382.0156,345.9375 Q1382.3906,345.9375 1382.625,346.2031 Q1382.8594,346.4531 1382.8594,347.0625 L1382.8594,348.5156 Q1382.8594,349.125 1382.625,349.3906 Q1382.3906,349.6563 1382.0156,349.6563 Q1381.6719,349.6563 1381.4688,349.4531 Q1381.2656,349.2656 1381.1563,348.75 Q1381.1094,348.3906 1380.9219,348.2031 Q1380.5938,347.8281 1379.9844,347.6094 Q1379.375,347.3906 1378.75,347.3906 Q1377.9844,347.3906 1377.3438,347.7188 Q1376.7188,348.0469 1376.2188,348.7969 Q1375.7344,349.5469 1375.7344,350.5781 L1375.7344,351.6719 Q1375.7344,352.9063 1376.625,353.7344 Q1377.5156,354.5469 1379.1094,354.5469 Q1380.0469,354.5469 1380.7031,354.2969 Q1381.0938,354.1406 1381.5156,353.7031 Q1381.7813,353.4375 1381.9219,353.3594 Q1382.0781,353.2813 1382.2813,353.2813 Q1382.6094,353.2813 1382.8594,353.5469 Q1383.125,353.7969 1383.125,354.1406 Q1383.125,354.4844 1382.7813,354.8906 Q1382.2813,355.4688 1381.4844,355.7969 Q1380.4063,356.25 1379.1094,356.25 Q1377.5938,356.25 1376.3906,355.625 Q1375.4063,355.125 1374.7188,354.0625 Q1374.0313,352.9844 1374.0313,351.7031 L1374.0313,350.5469 Q1374.0313,349.2188 1374.6406,348.0781 Q1375.2656,346.9219 1376.3594,346.3125 Q1377.4531,345.6875 1378.6875,345.6875 Q1379.4219,345.6875 1380.0625,345.8594 Q1380.7188,346.0156 1381.2656,346.375 Z " fill="#000000"/><text fill="#000000" font-family="sans-serif" font-size="14" lengthAdjust="spacing" textLength="93" x="1392.5" y="356.2969">SkillRepository</text><line style="stroke:#181818;stroke-width:0.5;" x1="1364.5" x2="1487.5" y1="366.5" y2="366.5"/><line style="stroke:#181818;stroke-width:0.5;" x1="1364.5" x2="1487.5" y1="374.5" y2="374.5"/><text fill="#000000" font-family="sans-serif" font-size="14" lengthAdjust="spacing" textLength="67" x="1369.5" y="393.6074">+listSkills()</text></g><!--class CollaboratorRepository--><g id="elem_CollaboratorRepository"><rect codeLine="41" fill="#F1F1F1" height="66.6211" id="CollaboratorRepository" rx="2.5" ry="2.5" style="stroke:#181818;stroke-width:0.5;" width="178" x="1108" y="334.5"/><ellipse cx="1123" cy="350.5" fill="#ADD1B2" rx="11" ry="11" style="stroke:#181818;stroke-width:1.0;"/><path d="M1125.7656,346.375 Q1125.9219,346.1563 1126.1094,346.0469 Q1126.2969,345.9375 1126.5156,345.9375 Q1126.8906,345.9375 1127.125,346.2031 Q1127.3594,346.4531 1127.3594,347.0625 L1127.3594,348.5156 Q1127.3594,349.125 1127.125,349.3906 Q1126.8906,349.6563 1126.5156,349.6563 Q1126.1719,349.6563 1125.9688,349.4531 Q1125.7656,349.2656 1125.6563,348.75 Q1125.6094,348.3906 1125.4219,348.2031 Q1125.0938,347.8281 1124.4844,347.6094 Q1123.875,347.3906 1123.25,347.3906 Q1122.4844,347.3906 1121.8438,347.7188 Q1121.2188,348.0469 1120.7188,348.7969 Q1120.2344,349.5469 1120.2344,350.5781 L1120.2344,351.6719 Q1120.2344,352.9063 1121.125,353.7344 Q1122.0156,354.5469 1123.6094,354.5469 Q1124.5469,354.5469 1125.2031,354.2969 Q1125.5938,354.1406 1126.0156,353.7031 Q1126.2813,353.4375 1126.4219,353.3594 Q1126.5781,353.2813 1126.7813,353.2813 Q1127.1094,353.2813 1127.3594,353.5469 Q1127.625,353.7969 1127.625,354.1406 Q1127.625,354.4844 1127.2813,354.8906 Q1126.7813,355.4688 1125.9844,355.7969 Q1124.9063,356.25 1123.6094,356.25 Q1122.0938,356.25 1120.8906,355.625 Q1119.9063,355.125 1119.2188,354.0625 Q1118.5313,352.9844 1118.5313,351.7031 L1118.5313,350.5469 Q1118.5313,349.2188 1119.1406,348.0781 Q1119.7656,346.9219 1120.8594,346.3125 Q1121.9531,345.6875 1123.1875,345.6875 Q1123.9219,345.6875 1124.5625,345.8594 Q1125.2188,346.0156 1125.7656,346.375 Z " fill="#000000"/><text fill="#000000" font-family="sans-serif" font-size="14" lengthAdjust="spacing" textLength="146" x="1137" y="356.2969">CollaboratorRepository</text><line style="stroke:#181818;stroke-width:0.5;" x1="1109" x2="1285" y1="366.5" y2="366.5"/><line style="stroke:#181818;stroke-width:0.5;" x1="1109" x2="1285" y1="374.5" y2="374.5"/><text fill="#000000" font-family="sans-serif" font-size="14" lengthAdjust="spacing" textLength="123" x="1114" y="393.6074">+getCollaborators()</text></g><!--class TeamRepository--><g id="elem_TeamRepository"><rect codeLine="45" fill="#F1F1F1" height="122.4844" id="TeamRepository" rx="2.5" ry="2.5" style="stroke:#181818;stroke-width:0.5;" width="480" x="593" y="307"/><ellipse cx="776.75" cy="323" fill="#ADD1B2" rx="11" ry="11" style="stroke:#181818;stroke-width:1.0;"/><path d="M779.5156,318.875 Q779.6719,318.6563 779.8594,318.5469 Q780.0469,318.4375 780.2656,318.4375 Q780.6406,318.4375 780.875,318.7031 Q781.1094,318.9531 781.1094,319.5625 L781.1094,321.0156 Q781.1094,321.625 780.875,321.8906 Q780.6406,322.1563 780.2656,322.1563 Q779.9219,322.1563 779.7188,321.9531 Q779.5156,321.7656 779.4063,321.25 Q779.3594,320.8906 779.1719,320.7031 Q778.8438,320.3281 778.2344,320.1094 Q777.625,319.8906 777,319.8906 Q776.2344,319.8906 775.5938,320.2188 Q774.9688,320.5469 774.4688,321.2969 Q773.9844,322.0469 773.9844,323.0781 L773.9844,324.1719 Q773.9844,325.4063 774.875,326.2344 Q775.7656,327.0469 777.3594,327.0469 Q778.2969,327.0469 778.9531,326.7969 Q779.3438,326.6406 779.7656,326.2031 Q780.0313,325.9375 780.1719,325.8594 Q780.3281,325.7813 780.5313,325.7813 Q780.8594,325.7813 781.1094,326.0469 Q781.375,326.2969 781.375,326.6406 Q781.375,326.9844 781.0313,327.3906 Q780.5313,327.9688 779.7344,328.2969 Q778.6563,328.75 777.3594,328.75 Q775.8438,328.75 774.6406,328.125 Q773.6563,327.625 772.9688,326.5625 Q772.2813,325.4844 772.2813,324.2031 L772.2813,323.0469 Q772.2813,321.7188 772.8906,320.5781 Q773.5156,319.4219 774.6094,318.8125 Q775.7031,318.1875 776.9375,318.1875 Q777.6719,318.1875 778.3125,318.3594 Q778.9688,318.5156 779.5156,318.875 Z " fill="#000000"/><text fill="#000000" font-family="sans-serif" font-size="14" lengthAdjust="spacing" textLength="104" x="797.25" y="328.7969">TeamRepository</text><line style="stroke:#181818;stroke-width:0.5;" x1="594" x2="1072" y1="339" y2="339"/><line style="stroke:#181818;stroke-width:0.5;" x1="594" x2="1072" y1="347" y2="347"/><text fill="#000000" font-family="sans-serif" font-size="14" lengthAdjust="spacing" textLength="468" x="599" y="366.1074">+generateTeamProposal(minimumSize, maximumSize, skills, collaborators)</text><text fill="#000000" font-family="sans-serif" font-size="14" lengthAdjust="spacing" textLength="152" x="599" y="384.7285">+createTeam(members)</text><text fill="#000000" font-family="sans-serif" font-size="14" lengthAdjust="spacing" textLength="134" x="599" y="403.3496">+validateTeam(team)</text><text fill="#000000" font-family="sans-serif" font-size="14" lengthAdjust="spacing" textLength="109" x="599" y="421.9707">+addTeam(team)</text></g><!--class Team--><g id="elem_Team"><rect codeLine="52" fill="#F1F1F1" height="66.6211" id="Team" rx="2.5" ry="2.5" style="stroke:#181818;stroke-width:0.5;" width="124" x="566" y="508"/><ellipse cx="606.2" cy="524" fill="#ADD1B2" rx="11" ry="11" style="stroke:#181818;stroke-width:1.0;"/><path d="M608.9656,519.875 Q609.1219,519.6563 609.3094,519.5469 Q609.4969,519.4375 609.7156,519.4375 Q610.0906,519.4375 610.325,519.7031 Q610.5594,519.9531 610.5594,520.5625 L610.5594,522.0156 Q610.5594,522.625 610.325,522.8906 Q610.0906,523.1563 609.7156,523.1563 Q609.3719,523.1563 609.1688,522.9531 Q608.9656,522.7656 608.8563,522.25 Q608.8094,521.8906 608.6219,521.7031 Q608.2938,521.3281 607.6844,521.1094 Q607.075,520.8906 606.45,520.8906 Q605.6844,520.8906 605.0438,521.2188 Q604.4188,521.5469 603.9188,522.2969 Q603.4344,523.0469 603.4344,524.0781 L603.4344,525.1719 Q603.4344,526.4063 604.325,527.2344 Q605.2156,528.0469 606.8094,528.0469 Q607.7469,528.0469 608.4031,527.7969 Q608.7938,527.6406 609.2156,527.2031 Q609.4813,526.9375 609.6219,526.8594 Q609.7781,526.7813 609.9813,526.7813 Q610.3094,526.7813 610.5594,527.0469 Q610.825,527.2969 610.825,527.6406 Q610.825,527.9844 610.4813,528.3906 Q609.9813,528.9688 609.1844,529.2969 Q608.1063,529.75 606.8094,529.75 Q605.2938,529.75 604.0906,529.125 Q603.1063,528.625 602.4188,527.5625 Q601.7313,526.4844 601.7313,525.2031 L601.7313,524.0469 Q601.7313,522.7188 602.3406,521.5781 Q602.9656,520.4219 604.0594,519.8125 Q605.1531,519.1875 606.3875,519.1875 Q607.1219,519.1875 607.7625,519.3594 Q608.4188,519.5156 608.9656,519.875 Z " fill="#000000"/><text fill="#000000" font-family="sans-serif" font-size="14" lengthAdjust="spacing" textLength="36" x="625.8" y="529.7969">Team</text><line style="stroke:#181818;stroke-width:0.5;" x1="567" x2="689" y1="540" y2="540"/><line style="stroke:#181818;stroke-width:0.5;" x1="567" x2="689" y1="548" y2="548"/><text fill="#000000" font-family="sans-serif" font-size="14" lengthAdjust="spacing" textLength="112" x="572" y="567.1074">+Team(members)</text></g><!--class Collaborator--><g id="elem_Collaborator"><rect codeLine="56" fill="#F1F1F1" height="271.4531" id="Collaborator" rx="2.5" ry="2.5" style="stroke:#181818;stroke-width:0.5;" width="435" x="937.5" y="654"/><ellipse cx="1111.75" cy="670" fill="#ADD1B2" rx="11" ry="11" style="stroke:#181818;stroke-width:1.0;"/><path d="M1114.5156,665.875 Q1114.6719,665.6563 1114.8594,665.5469 Q1115.0469,665.4375 1115.2656,665.4375 Q1115.6406,665.4375 1115.875,665.7031 Q1116.1094,665.9531 1116.1094,666.5625 L1116.1094,668.0156 Q1116.1094,668.625 1115.875,668.8906 Q1115.6406,669.1563 1115.2656,669.1563 Q1114.9219,669.1563 1114.7188,668.9531 Q1114.5156,668.7656 1114.4063,668.25 Q1114.3594,667.8906 1114.1719,667.7031 Q1113.8438,667.3281 1113.2344,667.1094 Q1112.625,666.8906 1112,666.8906 Q1111.2344,666.8906 1110.5938,667.2188 Q1109.9688,667.5469 1109.4688,668.2969 Q1108.9844,669.0469 1108.9844,670.0781 L1108.9844,671.1719 Q1108.9844,672.4063 1109.875,673.2344 Q1110.7656,674.0469 1112.3594,674.0469 Q1113.2969,674.0469 1113.9531,673.7969 Q1114.3438,673.6406 1114.7656,673.2031 Q1115.0313,672.9375 1115.1719,672.8594 Q1115.3281,672.7813 1115.5313,672.7813 Q1115.8594,672.7813 1116.1094,673.0469 Q1116.375,673.2969 1116.375,673.6406 Q1116.375,673.9844 1116.0313,674.3906 Q1115.5313,674.9688 1114.7344,675.2969 Q1113.6563,675.75 1112.3594,675.75 Q1110.8438,675.75 1109.6406,675.125 Q1108.6563,674.625 1107.9688,673.5625 Q1107.2813,672.4844 1107.2813,671.2031 L1107.2813,670.0469 Q1107.2813,668.7188 1107.8906,667.5781 Q1108.5156,666.4219 1109.6094,665.8125 Q1110.7031,665.1875 1111.9375,665.1875 Q1112.6719,665.1875 1113.3125,665.3594 Q1113.9688,665.5156 1114.5156,665.875 Z " fill="#000000"/><text fill="#000000" font-family="sans-serif" font-size="14" lengthAdjust="spacing" textLength="78" x="1132.25" y="675.7969">Collaborator</text><line style="stroke:#181818;stroke-width:0.5;" x1="938.5" x2="1371.5" y1="686" y2="686"/><text fill="#000000" font-family="sans-serif" font-size="14" lengthAdjust="spacing" textLength="89" x="943.5" y="705.1074">-name : String</text><text fill="#000000" font-family="sans-serif" font-size="14" lengthAdjust="spacing" textLength="110" x="943.5" y="723.7285">-birthdate : String</text><text fill="#000000" font-family="sans-serif" font-size="14" lengthAdjust="spacing" textLength="147" x="943.5" y="742.3496">-admissionData : String</text><text fill="#000000" font-family="sans-serif" font-size="14" lengthAdjust="spacing" textLength="105" x="943.5" y="760.9707">-address : String</text><text fill="#000000" font-family="sans-serif" font-size="14" lengthAdjust="spacing" textLength="122" x="943.5" y="779.5918">-mobileNumber : int</text><text fill="#000000" font-family="sans-serif" font-size="14" lengthAdjust="spacing" textLength="87" x="943.5" y="798.2129">-email : String</text><text fill="#000000" font-family="sans-serif" font-size="14" lengthAdjust="spacing" textLength="161" x="943.5" y="816.834">-idDocumentType : String</text><text fill="#000000" font-family="sans-serif" font-size="14" lengthAdjust="spacing" textLength="156" x="943.5" y="835.4551">-idDocumentNumber : int</text><line style="stroke:#181818;stroke-width:0.5;" x1="938.5" x2="1371.5" y1="842.9688" y2="842.9688"/><text fill="#000000" font-family="sans-serif" font-size="14" lengthAdjust="spacing" textLength="354" x="943.5" y="862.0762">+Collaborator(name, birthdate, admissionData, address,</text><text fill="#000000" font-family="sans-serif" font-size="14" lengthAdjust="spacing" textLength="383" x="943.5" y="880.6973">mobileNumber, email, idDocumentType, idDocumentNumber)</text><text fill="#000000" font-family="sans-serif" font-size="14" lengthAdjust="spacing" textLength="423" x="943.5" y="899.3184">+chooseMembers(minimumSize, maximumSize, collaborators, skills)</text><text fill="#000000" font-family="sans-serif" font-size="14" lengthAdjust="spacing" textLength="175" x="943.5" y="917.9395">+analyseCollaborator(skills)</text></g><!--class Skill--><g id="elem_Skill"><rect codeLine="70" fill="#F1F1F1" height="85.2422" id="Skill" rx="2.5" ry="2.5" style="stroke:#181818;stroke-width:0.5;" width="101" x="1240.5" y="1004"/><ellipse cx="1275.3" cy="1020" fill="#ADD1B2" rx="11" ry="11" style="stroke:#181818;stroke-width:1.0;"/><path d="M1278.0656,1015.875 Q1278.2219,1015.6563 1278.4094,1015.5469 Q1278.5969,1015.4375 1278.8156,1015.4375 Q1279.1906,1015.4375 1279.425,1015.7031 Q1279.6594,1015.9531 1279.6594,1016.5625 L1279.6594,1018.0156 Q1279.6594,1018.625 1279.425,1018.8906 Q1279.1906,1019.1563 1278.8156,1019.1563 Q1278.4719,1019.1563 1278.2688,1018.9531 Q1278.0656,1018.7656 1277.9563,1018.25 Q1277.9094,1017.8906 1277.7219,1017.7031 Q1277.3938,1017.3281 1276.7844,1017.1094 Q1276.175,1016.8906 1275.55,1016.8906 Q1274.7844,1016.8906 1274.1438,1017.2188 Q1273.5188,1017.5469 1273.0188,1018.2969 Q1272.5344,1019.0469 1272.5344,1020.0781 L1272.5344,1021.1719 Q1272.5344,1022.4063 1273.425,1023.2344 Q1274.3156,1024.0469 1275.9094,1024.0469 Q1276.8469,1024.0469 1277.5031,1023.7969 Q1277.8938,1023.6406 1278.3156,1023.2031 Q1278.5813,1022.9375 1278.7219,1022.8594 Q1278.8781,1022.7813 1279.0813,1022.7813 Q1279.4094,1022.7813 1279.6594,1023.0469 Q1279.925,1023.2969 1279.925,1023.6406 Q1279.925,1023.9844 1279.5813,1024.3906 Q1279.0813,1024.9688 1278.2844,1025.2969 Q1277.2063,1025.75 1275.9094,1025.75 Q1274.3938,1025.75 1273.1906,1025.125 Q1272.2063,1024.625 1271.5188,1023.5625 Q1270.8313,1022.4844 1270.8313,1021.2031 L1270.8313,1020.0469 Q1270.8313,1018.7188 1271.4406,1017.5781 Q1272.0656,1016.4219 1273.1594,1015.8125 Q1274.2531,1015.1875 1275.4875,1015.1875 Q1276.2219,1015.1875 1276.8625,1015.3594 Q1277.5188,1015.5156 1278.0656,1015.875 Z " fill="#000000"/><text fill="#000000" font-family="sans-serif" font-size="14" lengthAdjust="spacing" textLength="25" x="1293.7" y="1025.7969">Skill</text><line style="stroke:#181818;stroke-width:0.5;" x1="1241.5" x2="1340.5" y1="1036" y2="1036"/><text fill="#000000" font-family="sans-serif" font-size="14" lengthAdjust="spacing" textLength="89" x="1246.5" y="1055.1074">-name : String</text><line style="stroke:#181818;stroke-width:0.5;" x1="1241.5" x2="1340.5" y1="1062.6211" y2="1062.6211"/><text fill="#000000" font-family="sans-serif" font-size="14" lengthAdjust="spacing" textLength="78" x="1246.5" y="1081.7285">+Skill(name)</text></g><!--link GenerateTeamProposalUI to GenerateTeamProposalController--><g id="link_GenerateTeamProposalUI_GenerateTeamProposalController"><path codeLine="75" d="M736.38,77.5 C750.64,77.5 757.26,77.5 765.47,77.5 " fill="none" id="GenerateTeamProposalUI-to-GenerateTeamProposalController" style="stroke:#181818;stroke-width:1.0;stroke-dasharray:7.0,7.0;"/><polygon fill="#181818" points="771.47,77.5,762.47,73.5,766.47,77.5,762.47,81.5,771.47,77.5" style="stroke:#181818;stroke-width:1.0;"/></g><!--link GenerateTeamProposalController to Repositories--><g id="link_GenerateTeamProposalController_Repositories"><path codeLine="76" d="M1364.52,77.5 C1401.55,77.5 1431.11,77.5 1461.79,77.5 " fill="none" id="GenerateTeamProposalController-to-Repositories" style="stroke:#181818;stroke-width:1.0;stroke-dasharray:7.0,7.0;"/><polygon fill="#181818" points="1467.79,77.5,1458.79,73.5,1462.79,77.5,1458.79,81.5,1467.79,77.5" style="stroke:#181818;stroke-width:1.0;"/><text fill="#000000" font-family="sans-serif" font-size="13" lengthAdjust="spacing" textLength="67" x="1382.75" y="70.5283">repositories</text></g><!--link Repositories to Repositories--><g id="link_Repositories_Repositories"><path codeLine="77" d="M1664.02,59.41 C1684.37,61.31 1699,67.34 1699,77.5 C1699,87.66 1690.344,93.1322 1669.994,95.0322 " fill="none" id="Repositories-to-Repositories" style="stroke:#181818;stroke-width:1.0;"/><polygon fill="#181818" points="1664.02,95.59,1673.3529,98.736,1668.9983,95.1252,1672.6092,90.7707,1664.02,95.59" style="stroke:#181818;stroke-width:1.0;"/><text fill="#000000" font-family="sans-serif" font-size="13" lengthAdjust="spacing" textLength="49" x="1705" y="83.0283">instance</text></g><!--link Repositories to SkillRepository--><g id="link_Repositories_SkillRepository"><path codeLine="79" d="M1584.2,148.15 C1588.57,164.87 1592,178 1592,178 C1592,178 1592,277 1592,277 C1592,277 1539.1347,305.6604 1491.6747,331.3904 " fill="none" id="Repositories-to-SkillRepository" style="stroke:#181818;stroke-width:1.0;"/><polygon fill="#181818" points="1486.4,334.25,1496.2185,333.477,1490.7956,331.867,1492.4056,326.4441,1486.4,334.25" style="stroke:#181818;stroke-width:1.0;"/><text fill="#000000" font-family="sans-serif" font-size="13" lengthAdjust="spacing" textLength="7" x="1490.2466" y="323.2883">1</text></g><!--link Repositories to CollaboratorRepository--><g id="link_Repositories_CollaboratorRepository"><path codeLine="80" d="M1519.22,148.44 C1493.19,187.34 1466,228 1466,228 C1466,228 1344.9106,290.5759 1265.4006,331.6559 " fill="none" id="Repositories-to-CollaboratorRepository" style="stroke:#181818;stroke-width:1.0;"/><polygon fill="#181818" points="1260.07,334.41,1269.9019,333.8325,1264.5121,332.1149,1266.2298,326.7251,1260.07,334.41" style="stroke:#181818;stroke-width:1.0;"/><text fill="#000000" font-family="sans-serif" font-size="13" lengthAdjust="spacing" textLength="7" x="1264.7978" y="323.2178">1</text></g><!--link Repositories to TeamRepository--><g id="link_Repositories_TeamRepository"><path codeLine="81" d="M1467.7,120.15 C1377.56,158.34 1258,209 1258,209 C1258,209 1214,228 1214,228 C1214,228 1106.2966,267.2937 1003.2566,304.8837 " fill="none" id="Repositories-to-TeamRepository" style="stroke:#181818;stroke-width:1.0;"/><polygon fill="#181818" points="997.62,306.94,1007.4458,307.6133,1002.3172,305.2264,1004.7041,300.0978,997.62,306.94" style="stroke:#181818;stroke-width:1.0;"/><text fill="#000000" font-family="sans-serif" font-size="13" lengthAdjust="spacing" textLength="7" x="1009.2495" y="295.9143">1</text></g><!--link GenerateTeamProposalController to SkillRepository--><g id="link_GenerateTeamProposalController_SkillRepository"><path codeLine="83" d="M1265.01,148.01 C1312.58,164.8 1350,178 1350,178 C1350,178 1364,209 1364,209 C1364,209 1392.7983,282.3946 1410.9583,328.6746 " fill="none" id="GenerateTeamProposalController-to-SkillRepository" style="stroke:#181818;stroke-width:1.0;stroke-dasharray:7.0,7.0;"/><polygon fill="#181818" points="1413.15,334.26,1413.5861,324.4208,1411.3236,329.6055,1406.1389,327.343,1413.15,334.26" style="stroke:#181818;stroke-width:1.0;"/><text fill="#000000" font-family="sans-serif" font-size="13" lengthAdjust="spacing" textLength="85" x="1372" y="224.0283">skillRepository</text></g><!--link GenerateTeamProposalController to SkillRepository--><g id="link_GenerateTeamProposalController_SkillRepository"><path codeLine="92" d="M1154.66,148.34 C1227.92,207.37 1324.9185,285.5348 1380.6885,330.4848 " fill="none" id="GenerateTeamProposalController-to-SkillRepository-1" style="stroke:#181818;stroke-width:1.0;stroke-dasharray:7.0,7.0;"/><polygon fill="#181818" points="1385.36,334.25,1380.8628,325.4878,1381.4671,331.1123,1375.8426,331.7165,1385.36,334.25" style="stroke:#181818;stroke-width:1.0;"/><text fill="#000000" font-family="sans-serif" font-size="13" lengthAdjust="spacing" textLength="30" x="1254" y="224.0283">skills</text></g><!--link GenerateTeamProposalController to CollaboratorRepository--><g id="link_GenerateTeamProposalController_CollaboratorRepository"><path codeLine="84" d="M995.76,148.33 C963.66,179.36 933,209 933,209 C933,209 933,228 933,228 C933,228 1090,307 1090,307 C1090,307 1108.4776,317.3537 1133.5676,331.4337 " fill="none" id="GenerateTeamProposalController-to-CollaboratorRepository" style="stroke:#181818;stroke-width:1.0;stroke-dasharray:7.0,7.0;"/><polygon fill="#181818" points="1138.8,334.37,1132.9089,326.4773,1134.4397,331.9231,1128.9939,333.4538,1138.8,334.37" style="stroke:#181818;stroke-width:1.0;"/><text fill="#000000" font-family="sans-serif" font-size="13" lengthAdjust="spacing" textLength="129" x="934" y="224.0283">collaboratorRepository</text></g><!--link GenerateTeamProposalController to CollaboratorRepository--><g id="link_GenerateTeamProposalController_CollaboratorRepository"><path codeLine="93" d="M1099.23,148.34 C1125.62,207.37 1159.8107,283.8227 1179.9107,328.7727 " fill="none" id="GenerateTeamProposalController-to-CollaboratorRepository-1" style="stroke:#181818;stroke-width:1.0;stroke-dasharray:7.0,7.0;"/><polygon fill="#181818" points="1182.36,334.25,1182.3377,324.4012,1180.3189,329.6856,1175.0346,327.6668,1182.36,334.25" style="stroke:#181818;stroke-width:1.0;"/><text fill="#000000" font-family="sans-serif" font-size="13" lengthAdjust="spacing" textLength="74" x="1136" y="224.0283">collaborators</text></g><!--link GenerateTeamProposalController to TeamRepository--><g id="link_GenerateTeamProposalController_TeamRepository"><path codeLine="85" d="M942.05,148.14 C885.82,179.24 832,209 832,209 C832,209 832,228 832,228 C832,228 832.2569,263.2702 832.5269,300.8402 " fill="none" id="GenerateTeamProposalController-to-TeamRepository" style="stroke:#181818;stroke-width:1.0;stroke-dasharray:7.0,7.0;"/><polygon fill="#181818" points="832.57,306.84,836.5052,297.8115,832.5341,301.8401,828.5054,297.869,832.57,306.84" style="stroke:#181818;stroke-width:1.0;"/><text fill="#000000" font-family="sans-serif" font-size="13" lengthAdjust="spacing" textLength="91" x="833" y="224.0283">teamRepository</text></g><!--link HRM to Team--><g id="link_HRM_Team"><path codeLine="87" d="M331.56,410.52 C394.3,441.32 469,478 469,478 C469,478 515.4858,496.2752 560.0358,513.7852 " fill="none" id="HRM-to-Team" style="stroke:#181818;stroke-width:1.0;"/><polygon fill="#181818" points="565.62,515.98,558.707,508.965,560.9665,514.151,555.7806,516.4106,565.62,515.98" style="stroke:#181818;stroke-width:1.0;"/><text fill="#000000" font-family="sans-serif" font-size="13" lengthAdjust="spacing" textLength="43" x="470" y="474.0283">creates</text><text fill="#000000" font-family="sans-serif" font-size="13" lengthAdjust="spacing" textLength="7" x="337.4789" y="432.6835">1</text><text fill="#000000" font-family="sans-serif" font-size="13" lengthAdjust="spacing" textLength="5" x="553.1183" y="509.1135">*</text></g><!--reverse link Team to Collaborator--><g id="link_Team_Collaborator"><path codeLine="88" d="M700.8739,576.5152 C761.8939,604.9952 847.79,645.1 937.29,686.87 " fill="none" id="Team-backto-Collaborator" style="stroke:#181818;stroke-width:1.0;"/><polygon fill="none" points="690,571.44,693.7452,577.6022,700.8739,576.5152,697.1287,570.353,690,571.44" style="stroke:#181818;stroke-width:1.0;"/><text fill="#000000" font-family="sans-serif" font-size="13" lengthAdjust="spacing" textLength="21" x="800" y="620.0283">has</text><text fill="#000000" font-family="sans-serif" font-size="13" lengthAdjust="spacing" textLength="5" x="924.3762" y="679.9017">*</text></g><!--reverse link Collaborator to Skill--><g id="link_Collaborator_Skill"><path codeLine="89" d="M1232.4276,935.6779 C1247.7576,964.4179 1257.18,982.08 1268.86,1003.99 " fill="none" id="Collaborator-backto-Skill" style="stroke:#181818;stroke-width:1.0;"/><polygon fill="none" points="1226.78,925.09,1226.0745,932.2665,1232.4276,935.6779,1233.1331,928.5014,1226.78,925.09" style="stroke:#181818;stroke-width:1.0;"/><text fill="#000000" font-family="sans-serif" font-size="13" lengthAdjust="spacing" textLength="21" x="1252" y="970.0283">has</text><text fill="#000000" font-family="sans-serif" font-size="13" lengthAdjust="spacing" textLength="5" x="1259.933" y="992.8925">*</text></g><!--link GenerateTeamProposalController to Team--><g id="link_GenerateTeamProposalController_Team"><path codeLine="91" d="M917.74,148.14 C772.73,215.36 575,307 575,307 C575,307 575,429 575,429 C575,429 594.3033,469.6215 609.9533,502.5315 " fill="none" id="GenerateTeamProposalController-to-Team" style="stroke:#181818;stroke-width:1.0;stroke-dasharray:7.0,7.0;"/><polygon fill="#181818" points="612.53,507.95,612.2773,498.1044,610.3827,503.4346,605.0526,501.54,612.53,507.95" style="stroke:#181818;stroke-width:1.0;"/><text fill="#000000" font-family="sans-serif" font-size="13" lengthAdjust="spacing" textLength="29" x="681" y="273.0283">team</text></g><!--link SkillRepository to Skill--><g id="link_SkillRepository_Skill"><path codeLine="94" d="M1423.88,401.7 C1416.17,520.89 1390,925 1390,925 C1390,925 1357.7488,964.2539 1329.1588,999.0539 " fill="none" id="SkillRepository-to-Skill" style="stroke:#181818;stroke-width:1.0;"/><polygon fill="#181818" points="1325.35,1003.69,1334.1539,999.2751,1328.524,999.8266,1327.9724,994.1967,1325.35,1003.69" style="stroke:#181818;stroke-width:1.0;"/><text fill="#000000" font-family="sans-serif" font-size="13" lengthAdjust="spacing" textLength="21" x="1411" y="620.0283">has</text></g><!--link CollaboratorRepository to Collaborator--><g id="link_CollaboratorRepository_Collaborator"><path codeLine="95" d="M1193.74,401.57 C1188.37,455.18 1177.9778,558.9799 1169.0678,647.9599 " fill="none" id="CollaboratorRepository-to-Collaborator" style="stroke:#181818;stroke-width:1.0;"/><polygon fill="#181818" points="1168.47,653.93,1173.3468,645.3733,1168.9682,648.9549,1165.3866,644.5762,1168.47,653.93" style="stroke:#181818;stroke-width:1.0;"/><text fill="#000000" font-family="sans-serif" font-size="13" lengthAdjust="spacing" textLength="21" x="1184" y="547.0283">has</text></g><!--link TeamRepository to Team--><g id="link_TeamRepository_Team"><path codeLine="96" d="M761.01,429.22 C729.4,455.67 698.1325,481.8307 671.6125,504.0107 " fill="none" id="TeamRepository-to-Team" style="stroke:#181818;stroke-width:1.0;"/><polygon fill="#181818" points="667.01,507.86,676.4799,505.1544,670.8454,504.6523,671.3475,499.0177,667.01,507.86" style="stroke:#181818;stroke-width:1.0;"/><text fill="#000000" font-family="sans-serif" font-size="13" lengthAdjust="spacing" textLength="21" x="726" y="474.0283">has</text></g><!--SRC=[jLLDZzCm4BtxLrXxQKfJ1DSSa5Qx4lIm26tBZOkRpARM-gEoNQ0W_ZjsFXpRIRhL2dfgFCypxxsnnmlzJCMHAC8nbqAM1oKvOADEW8R8aPJFf8QjEJF02af3HCr2W3wGIlwWeiPFXEammgW0Spu2FafsTXzeCH6KoaWKx2ePqVhM64Nt9mERKeej_GNu7K8B1ay66uaLhGy6LzJHeL8WrEp1dnuVy6-4xM_b_cVBxdyD0XGni0F2loXvb9gmZ5D1-Ocxt3dcvEVmOQamfdDSIiR8NjgTKkab-jEN-JYHxauAeomUb6Tm6POrLHx1BbER_noN2zUDtJzyzveOrMRR40rachkGyZ_Mt-Og5NIPCWvy3vqp5wpvkh6MUFEy4WgwiseTBOPoDaBRurP2jiH511eWszZ6EJEc4Rl8MXiPU2PvVLSZtprwkfJVDD4PlpNc46pvlprh8zy9erKVSmUj3v2g2jOYifxYw12ClV0T5iHEbW9lxQqMTRUsfyeSNFKqG2fEjRON-vuOCWvM2coPP9dBFMNm-UJOs1WLfWi09vIbQ5hTo_B4GPYT6q6pqL6-LIGlSxBoGKWUKyzxiZd-9aA2USigJtZaeyg-WmSfDJoqNbyu1b7x-rFXUoe8Esk81FI8-DnVQDkgHJJAcsqpL_xjXnS687fXZDe4qQmexECJ380ejbwFmBGR7IX5MkZD-vlqVi-Wfk_r33Y-oUWAWUcGAN3oAboHOsRq53FloHKPaubK92yGGkwTTO8RuMzQuQvWCsOqQZwnNA-RO3GE2dmW6aLB7jYUl1Pn9SkEs-kTrgysEFPNexI0yoPKDDCc1vjmA6c1GtLw6tV-0W00]--></g></svg>