<?xml version="1.0" encoding="us-ascii" standalone="no"?><svg xmlns="http://www.w3.org/2000/svg" xmlns:xlink="http://www.w3.org/1999/xlink" contentStyleType="text/css" height="797px" preserveAspectRatio="none" style="width:1538px;height:797px;background:#FFFFFF;" version="1.1" viewBox="0 0 1538 797" width="1538px" zoomAndPan="magnify"><defs/><g><!--class HRM--><g id="elem_HRM"><rect codeLine="11" fill="#F1F1F1" height="85.2422" id="HRM" rx="2.5" ry="2.5" style="stroke:#181818;stroke-width:0.5;" width="269" x="7" y="35"/><ellipse cx="122.25" cy="51" fill="#ADD1B2" rx="11" ry="11" style="stroke:#181818;stroke-width:1.0;"/><path d="M125.0156,46.875 Q125.1719,46.6563 125.3594,46.5469 Q125.5469,46.4375 125.7656,46.4375 Q126.1406,46.4375 126.375,46.7031 Q126.6094,46.9531 126.6094,47.5625 L126.6094,49.0156 Q126.6094,49.625 126.375,49.8906 Q126.1406,50.1563 125.7656,50.1563 Q125.4219,50.1563 125.2188,49.9531 Q125.0156,49.7656 124.9063,49.25 Q124.8594,48.8906 124.6719,48.7031 Q124.3438,48.3281 123.7344,48.1094 Q123.125,47.8906 122.5,47.8906 Q121.7344,47.8906 121.0938,48.2188 Q120.4688,48.5469 119.9688,49.2969 Q119.4844,50.0469 119.4844,51.0781 L119.4844,52.1719 Q119.4844,53.4063 120.375,54.2344 Q121.2656,55.0469 122.8594,55.0469 Q123.7969,55.0469 124.4531,54.7969 Q124.8438,54.6406 125.2656,54.2031 Q125.5313,53.9375 125.6719,53.8594 Q125.8281,53.7813 126.0313,53.7813 Q126.3594,53.7813 126.6094,54.0469 Q126.875,54.2969 126.875,54.6406 Q126.875,54.9844 126.5313,55.3906 Q126.0313,55.9688 125.2344,56.2969 Q124.1563,56.75 122.8594,56.75 Q121.3438,56.75 120.1406,56.125 Q119.1563,55.625 118.4688,54.5625 Q117.7813,53.4844 117.7813,52.2031 L117.7813,51.0469 Q117.7813,49.7188 118.3906,48.5781 Q119.0156,47.4219 120.1094,46.8125 Q121.2031,46.1875 122.4375,46.1875 Q123.1719,46.1875 123.8125,46.3594 Q124.4688,46.5156 125.0156,46.875 Z " fill="#000000"/><text fill="#000000" font-family="sans-serif" font-size="14" lengthAdjust="spacing" textLength="30" x="142.75" y="56.7969">HRM</text><line style="stroke:#181818;stroke-width:0.5;" x1="8" x2="275" y1="67" y2="67"/><line style="stroke:#181818;stroke-width:0.5;" x1="8" x2="275" y1="75" y2="75"/><text fill="#000000" font-family="sans-serif" font-size="14" lengthAdjust="spacing" textLength="48" x="13" y="94.1074">+HRM()</text><text fill="#000000" font-family="sans-serif" font-size="14" lengthAdjust="spacing" textLength="257" x="13" y="112.7285">+generateTeamProposal(size, members)</text></g><!--class GenerateTeamProposalController--><g id="elem_GenerateTeamProposalController"><rect codeLine="16" fill="#F1F1F1" height="141.1055" id="GenerateTeamProposalController" rx="2.5" ry="2.5" style="stroke:#181818;stroke-width:0.5;" width="593" x="543" y="7"/><ellipse cx="728.25" cy="23" fill="#ADD1B2" rx="11" ry="11" style="stroke:#181818;stroke-width:1.0;"/><path d="M731.0156,18.875 Q731.1719,18.6563 731.3594,18.5469 Q731.5469,18.4375 731.7656,18.4375 Q732.1406,18.4375 732.375,18.7031 Q732.6094,18.9531 732.6094,19.5625 L732.6094,21.0156 Q732.6094,21.625 732.375,21.8906 Q732.1406,22.1563 731.7656,22.1563 Q731.4219,22.1563 731.2188,21.9531 Q731.0156,21.7656 730.9063,21.25 Q730.8594,20.8906 730.6719,20.7031 Q730.3438,20.3281 729.7344,20.1094 Q729.125,19.8906 728.5,19.8906 Q727.7344,19.8906 727.0938,20.2188 Q726.4688,20.5469 725.9688,21.2969 Q725.4844,22.0469 725.4844,23.0781 L725.4844,24.1719 Q725.4844,25.4063 726.375,26.2344 Q727.2656,27.0469 728.8594,27.0469 Q729.7969,27.0469 730.4531,26.7969 Q730.8438,26.6406 731.2656,26.2031 Q731.5313,25.9375 731.6719,25.8594 Q731.8281,25.7813 732.0313,25.7813 Q732.3594,25.7813 732.6094,26.0469 Q732.875,26.2969 732.875,26.6406 Q732.875,26.9844 732.5313,27.3906 Q732.0313,27.9688 731.2344,28.2969 Q730.1563,28.75 728.8594,28.75 Q727.3438,28.75 726.1406,28.125 Q725.1563,27.625 724.4688,26.5625 Q723.7813,25.4844 723.7813,24.2031 L723.7813,23.0469 Q723.7813,21.7188 724.3906,20.5781 Q725.0156,19.4219 726.1094,18.8125 Q727.2031,18.1875 728.4375,18.1875 Q729.1719,18.1875 729.8125,18.3594 Q730.4688,18.5156 731.0156,18.875 Z " fill="#000000"/><text fill="#000000" font-family="sans-serif" font-size="14" lengthAdjust="spacing" textLength="214" x="748.75" y="28.7969">GenerateTeamProposalController</text><line style="stroke:#181818;stroke-width:0.5;" x1="544" x2="1135" y1="39" y2="39"/><line style="stroke:#181818;stroke-width:0.5;" x1="544" x2="1135" y1="47" y2="47"/><text fill="#000000" font-family="sans-serif" font-size="14" lengthAdjust="spacing" textLength="581" x="549" y="66.1074">+GenerateTeamProposalController(skillRepository, collaboratorRepository, teamRepository)</text><text fill="#000000" font-family="sans-serif" font-size="14" lengthAdjust="spacing" textLength="67" x="549" y="84.7285">+listSkills()</text><text fill="#000000" font-family="sans-serif" font-size="14" lengthAdjust="spacing" textLength="152" x="549" y="103.3496">+chooseMembers(skills)</text><text fill="#000000" font-family="sans-serif" font-size="14" lengthAdjust="spacing" textLength="257" x="549" y="121.9707">+generateTeamProposal(size, members)</text><text fill="#000000" font-family="sans-serif" font-size="14" lengthAdjust="spacing" textLength="181" x="549" y="140.5918">+createTeam(teamProposal)</text></g><!--class GenerateTeamProposalUI--><g id="elem_GenerateTeamProposalUI"><rect codeLine="25" fill="#F1F1F1" height="48" id="GenerateTeamProposalUI" rx="2.5" ry="2.5" style="stroke:#181818;stroke-width:0.5;" width="196" x="311.5" y="53.5"/><ellipse cx="326.5" cy="69.5" fill="#ADD1B2" rx="11" ry="11" style="stroke:#181818;stroke-width:1.0;"/><path d="M329.2656,65.375 Q329.4219,65.1563 329.6094,65.0469 Q329.7969,64.9375 330.0156,64.9375 Q330.3906,64.9375 330.625,65.2031 Q330.8594,65.4531 330.8594,66.0625 L330.8594,67.5156 Q330.8594,68.125 330.625,68.3906 Q330.3906,68.6563 330.0156,68.6563 Q329.6719,68.6563 329.4688,68.4531 Q329.2656,68.2656 329.1563,67.75 Q329.1094,67.3906 328.9219,67.2031 Q328.5938,66.8281 327.9844,66.6094 Q327.375,66.3906 326.75,66.3906 Q325.9844,66.3906 325.3438,66.7188 Q324.7188,67.0469 324.2188,67.7969 Q323.7344,68.5469 323.7344,69.5781 L323.7344,70.6719 Q323.7344,71.9063 324.625,72.7344 Q325.5156,73.5469 327.1094,73.5469 Q328.0469,73.5469 328.7031,73.2969 Q329.0938,73.1406 329.5156,72.7031 Q329.7813,72.4375 329.9219,72.3594 Q330.0781,72.2813 330.2813,72.2813 Q330.6094,72.2813 330.8594,72.5469 Q331.125,72.7969 331.125,73.1406 Q331.125,73.4844 330.7813,73.8906 Q330.2813,74.4688 329.4844,74.7969 Q328.4063,75.25 327.1094,75.25 Q325.5938,75.25 324.3906,74.625 Q323.4063,74.125 322.7188,73.0625 Q322.0313,71.9844 322.0313,70.7031 L322.0313,69.5469 Q322.0313,68.2188 322.6406,67.0781 Q323.2656,65.9219 324.3594,65.3125 Q325.4531,64.6875 326.6875,64.6875 Q327.4219,64.6875 328.0625,64.8594 Q328.7188,65.0156 329.2656,65.375 Z " fill="#000000"/><text fill="#000000" font-family="sans-serif" font-size="14" lengthAdjust="spacing" textLength="164" x="340.5" y="75.2969">GenerateTeamProposalUI</text><line style="stroke:#181818;stroke-width:0.5;" x1="312.5" x2="506.5" y1="85.5" y2="85.5"/><line style="stroke:#181818;stroke-width:0.5;" x1="312.5" x2="506.5" y1="93.5" y2="93.5"/></g><!--class Repositories--><g id="elem_Repositories"><rect codeLine="28" fill="#F1F1F1" height="141.1055" id="Repositories" rx="2.5" ry="2.5" style="stroke:#181818;stroke-width:0.5;" width="196" x="1239.5" y="7"/><ellipse cx="1293.75" cy="23" fill="#ADD1B2" rx="11" ry="11" style="stroke:#181818;stroke-width:1.0;"/><path d="M1296.5156,18.875 Q1296.6719,18.6563 1296.8594,18.5469 Q1297.0469,18.4375 1297.2656,18.4375 Q1297.6406,18.4375 1297.875,18.7031 Q1298.1094,18.9531 1298.1094,19.5625 L1298.1094,21.0156 Q1298.1094,21.625 1297.875,21.8906 Q1297.6406,22.1563 1297.2656,22.1563 Q1296.9219,22.1563 1296.7188,21.9531 Q1296.5156,21.7656 1296.4063,21.25 Q1296.3594,20.8906 1296.1719,20.7031 Q1295.8438,20.3281 1295.2344,20.1094 Q1294.625,19.8906 1294,19.8906 Q1293.2344,19.8906 1292.5938,20.2188 Q1291.9688,20.5469 1291.4688,21.2969 Q1290.9844,22.0469 1290.9844,23.0781 L1290.9844,24.1719 Q1290.9844,25.4063 1291.875,26.2344 Q1292.7656,27.0469 1294.3594,27.0469 Q1295.2969,27.0469 1295.9531,26.7969 Q1296.3438,26.6406 1296.7656,26.2031 Q1297.0313,25.9375 1297.1719,25.8594 Q1297.3281,25.7813 1297.5313,25.7813 Q1297.8594,25.7813 1298.1094,26.0469 Q1298.375,26.2969 1298.375,26.6406 Q1298.375,26.9844 1298.0313,27.3906 Q1297.5313,27.9688 1296.7344,28.2969 Q1295.6563,28.75 1294.3594,28.75 Q1292.8438,28.75 1291.6406,28.125 Q1290.6563,27.625 1289.9688,26.5625 Q1289.2813,25.4844 1289.2813,24.2031 L1289.2813,23.0469 Q1289.2813,21.7188 1289.8906,20.5781 Q1290.5156,19.4219 1291.6094,18.8125 Q1292.7031,18.1875 1293.9375,18.1875 Q1294.6719,18.1875 1295.3125,18.3594 Q1295.9688,18.5156 1296.5156,18.875 Z " fill="#000000"/><text fill="#000000" font-family="sans-serif" font-size="14" lengthAdjust="spacing" textLength="79" x="1314.25" y="28.7969">Repositories</text><line style="stroke:#181818;stroke-width:0.5;" x1="1240.5" x2="1434.5" y1="39" y2="39"/><line style="stroke:#181818;stroke-width:0.5;" x1="1240.5" x2="1434.5" y1="47" y2="47"/><text fill="#000000" font-family="sans-serif" font-size="14" lengthAdjust="spacing" textLength="94" x="1245.5" y="66.1074">-Repositories()</text><text fill="#000000" font-family="sans-serif" font-size="14" lengthAdjust="spacing" textLength="182" x="1245.5" y="84.7285">+getInstance() : Repositories</text><text fill="#000000" font-family="sans-serif" font-size="14" lengthAdjust="spacing" textLength="131" x="1245.5" y="103.3496">+getSkillRepository()</text><text fill="#000000" font-family="sans-serif" font-size="14" lengthAdjust="spacing" textLength="184" x="1245.5" y="121.9707">+getCollaboratorRepository()</text><text fill="#000000" font-family="sans-serif" font-size="14" lengthAdjust="spacing" textLength="142" x="1245.5" y="140.5918">+getTeamRepository()</text></g><!--class skillRepository--><g id="elem_skillRepository"><rect codeLine="37" fill="#F1F1F1" height="48" id="skillRepository" rx="2.5" ry="2.5" style="stroke:#181818;stroke-width:0.5;" width="123" x="1006" y="255"/><ellipse cx="1021" cy="271" fill="#ADD1B2" rx="11" ry="11" style="stroke:#181818;stroke-width:1.0;"/><path d="M1023.7656,266.875 Q1023.9219,266.6563 1024.1094,266.5469 Q1024.2969,266.4375 1024.5156,266.4375 Q1024.8906,266.4375 1025.125,266.7031 Q1025.3594,266.9531 1025.3594,267.5625 L1025.3594,269.0156 Q1025.3594,269.625 1025.125,269.8906 Q1024.8906,270.1563 1024.5156,270.1563 Q1024.1719,270.1563 1023.9688,269.9531 Q1023.7656,269.7656 1023.6563,269.25 Q1023.6094,268.8906 1023.4219,268.7031 Q1023.0938,268.3281 1022.4844,268.1094 Q1021.875,267.8906 1021.25,267.8906 Q1020.4844,267.8906 1019.8438,268.2188 Q1019.2188,268.5469 1018.7188,269.2969 Q1018.2344,270.0469 1018.2344,271.0781 L1018.2344,272.1719 Q1018.2344,273.4063 1019.125,274.2344 Q1020.0156,275.0469 1021.6094,275.0469 Q1022.5469,275.0469 1023.2031,274.7969 Q1023.5938,274.6406 1024.0156,274.2031 Q1024.2813,273.9375 1024.4219,273.8594 Q1024.5781,273.7813 1024.7813,273.7813 Q1025.1094,273.7813 1025.3594,274.0469 Q1025.625,274.2969 1025.625,274.6406 Q1025.625,274.9844 1025.2813,275.3906 Q1024.7813,275.9688 1023.9844,276.2969 Q1022.9063,276.75 1021.6094,276.75 Q1020.0938,276.75 1018.8906,276.125 Q1017.9063,275.625 1017.2188,274.5625 Q1016.5313,273.4844 1016.5313,272.2031 L1016.5313,271.0469 Q1016.5313,269.7188 1017.1406,268.5781 Q1017.7656,267.4219 1018.8594,266.8125 Q1019.9531,266.1875 1021.1875,266.1875 Q1021.9219,266.1875 1022.5625,266.3594 Q1023.2188,266.5156 1023.7656,266.875 Z " fill="#000000"/><text fill="#000000" font-family="sans-serif" font-size="14" lengthAdjust="spacing" textLength="91" x="1035" y="276.7969">skillRepository</text><line style="stroke:#181818;stroke-width:0.5;" x1="1007" x2="1128" y1="287" y2="287"/><line style="stroke:#181818;stroke-width:0.5;" x1="1007" x2="1128" y1="295" y2="295"/></g><!--class collaboratorRepository--><g id="elem_collaboratorRepository"><rect codeLine="41" fill="#F1F1F1" height="48" id="collaboratorRepository" rx="2.5" ry="2.5" style="stroke:#181818;stroke-width:0.5;" width="175" x="1193" y="255"/><ellipse cx="1208" cy="271" fill="#ADD1B2" rx="11" ry="11" style="stroke:#181818;stroke-width:1.0;"/><path d="M1210.7656,266.875 Q1210.9219,266.6563 1211.1094,266.5469 Q1211.2969,266.4375 1211.5156,266.4375 Q1211.8906,266.4375 1212.125,266.7031 Q1212.3594,266.9531 1212.3594,267.5625 L1212.3594,269.0156 Q1212.3594,269.625 1212.125,269.8906 Q1211.8906,270.1563 1211.5156,270.1563 Q1211.1719,270.1563 1210.9688,269.9531 Q1210.7656,269.7656 1210.6563,269.25 Q1210.6094,268.8906 1210.4219,268.7031 Q1210.0938,268.3281 1209.4844,268.1094 Q1208.875,267.8906 1208.25,267.8906 Q1207.4844,267.8906 1206.8438,268.2188 Q1206.2188,268.5469 1205.7188,269.2969 Q1205.2344,270.0469 1205.2344,271.0781 L1205.2344,272.1719 Q1205.2344,273.4063 1206.125,274.2344 Q1207.0156,275.0469 1208.6094,275.0469 Q1209.5469,275.0469 1210.2031,274.7969 Q1210.5938,274.6406 1211.0156,274.2031 Q1211.2813,273.9375 1211.4219,273.8594 Q1211.5781,273.7813 1211.7813,273.7813 Q1212.1094,273.7813 1212.3594,274.0469 Q1212.625,274.2969 1212.625,274.6406 Q1212.625,274.9844 1212.2813,275.3906 Q1211.7813,275.9688 1210.9844,276.2969 Q1209.9063,276.75 1208.6094,276.75 Q1207.0938,276.75 1205.8906,276.125 Q1204.9063,275.625 1204.2188,274.5625 Q1203.5313,273.4844 1203.5313,272.2031 L1203.5313,271.0469 Q1203.5313,269.7188 1204.1406,268.5781 Q1204.7656,267.4219 1205.8594,266.8125 Q1206.9531,266.1875 1208.1875,266.1875 Q1208.9219,266.1875 1209.5625,266.3594 Q1210.2188,266.5156 1210.7656,266.875 Z " fill="#000000"/><text fill="#000000" font-family="sans-serif" font-size="14" lengthAdjust="spacing" textLength="143" x="1222" y="276.7969">collaboratorRepository</text><line style="stroke:#181818;stroke-width:0.5;" x1="1194" x2="1367" y1="287" y2="287"/><line style="stroke:#181818;stroke-width:0.5;" x1="1194" x2="1367" y1="295" y2="295"/></g><!--class teamRepository--><g id="elem_teamRepository"><rect codeLine="45" fill="#F1F1F1" height="103.8633" id="teamRepository" rx="2.5" ry="2.5" style="stroke:#181818;stroke-width:0.5;" width="154" x="816.5" y="227"/><ellipse cx="841.85" cy="243" fill="#ADD1B2" rx="11" ry="11" style="stroke:#181818;stroke-width:1.0;"/><path d="M844.6156,238.875 Q844.7719,238.6563 844.9594,238.5469 Q845.1469,238.4375 845.3656,238.4375 Q845.7406,238.4375 845.975,238.7031 Q846.2094,238.9531 846.2094,239.5625 L846.2094,241.0156 Q846.2094,241.625 845.975,241.8906 Q845.7406,242.1563 845.3656,242.1563 Q845.0219,242.1563 844.8188,241.9531 Q844.6156,241.7656 844.5063,241.25 Q844.4594,240.8906 844.2719,240.7031 Q843.9438,240.3281 843.3344,240.1094 Q842.725,239.8906 842.1,239.8906 Q841.3344,239.8906 840.6938,240.2188 Q840.0688,240.5469 839.5688,241.2969 Q839.0844,242.0469 839.0844,243.0781 L839.0844,244.1719 Q839.0844,245.4063 839.975,246.2344 Q840.8656,247.0469 842.4594,247.0469 Q843.3969,247.0469 844.0531,246.7969 Q844.4438,246.6406 844.8656,246.2031 Q845.1313,245.9375 845.2719,245.8594 Q845.4281,245.7813 845.6313,245.7813 Q845.9594,245.7813 846.2094,246.0469 Q846.475,246.2969 846.475,246.6406 Q846.475,246.9844 846.1313,247.3906 Q845.6313,247.9688 844.8344,248.2969 Q843.7563,248.75 842.4594,248.75 Q840.9438,248.75 839.7406,248.125 Q838.7563,247.625 838.0688,246.5625 Q837.3813,245.4844 837.3813,244.2031 L837.3813,243.0469 Q837.3813,241.7188 837.9906,240.5781 Q838.6156,239.4219 839.7094,238.8125 Q840.8031,238.1875 842.0375,238.1875 Q842.7719,238.1875 843.4125,238.3594 Q844.0688,238.5156 844.6156,238.875 Z " fill="#000000"/><text fill="#000000" font-family="sans-serif" font-size="14" lengthAdjust="spacing" textLength="99" x="858.15" y="248.7969">teamRepository</text><line style="stroke:#181818;stroke-width:0.5;" x1="817.5" x2="969.5" y1="259" y2="259"/><line style="stroke:#181818;stroke-width:0.5;" x1="817.5" x2="969.5" y1="267" y2="267"/><text fill="#000000" font-family="sans-serif" font-size="14" lengthAdjust="spacing" textLength="106" x="822.5" y="286.1074">-addTeam(team)</text><text fill="#000000" font-family="sans-serif" font-size="14" lengthAdjust="spacing" textLength="131" x="822.5" y="304.7285">-validateTeam(team)</text><text fill="#000000" font-family="sans-serif" font-size="14" lengthAdjust="spacing" textLength="142" x="822.5" y="323.3496">-create(teamProposal)</text></g><!--class Team--><g id="elem_Team"><rect codeLine="51" fill="#F1F1F1" height="103.8633" id="Team" rx="2.5" ry="2.5" style="stroke:#181818;stroke-width:0.5;" width="237" x="544" y="227"/><ellipse cx="640.25" cy="243" fill="#ADD1B2" rx="11" ry="11" style="stroke:#181818;stroke-width:1.0;"/><path d="M643.0156,238.875 Q643.1719,238.6563 643.3594,238.5469 Q643.5469,238.4375 643.7656,238.4375 Q644.1406,238.4375 644.375,238.7031 Q644.6094,238.9531 644.6094,239.5625 L644.6094,241.0156 Q644.6094,241.625 644.375,241.8906 Q644.1406,242.1563 643.7656,242.1563 Q643.4219,242.1563 643.2188,241.9531 Q643.0156,241.7656 642.9063,241.25 Q642.8594,240.8906 642.6719,240.7031 Q642.3438,240.3281 641.7344,240.1094 Q641.125,239.8906 640.5,239.8906 Q639.7344,239.8906 639.0938,240.2188 Q638.4688,240.5469 637.9688,241.2969 Q637.4844,242.0469 637.4844,243.0781 L637.4844,244.1719 Q637.4844,245.4063 638.375,246.2344 Q639.2656,247.0469 640.8594,247.0469 Q641.7969,247.0469 642.4531,246.7969 Q642.8438,246.6406 643.2656,246.2031 Q643.5313,245.9375 643.6719,245.8594 Q643.8281,245.7813 644.0313,245.7813 Q644.3594,245.7813 644.6094,246.0469 Q644.875,246.2969 644.875,246.6406 Q644.875,246.9844 644.5313,247.3906 Q644.0313,247.9688 643.2344,248.2969 Q642.1563,248.75 640.8594,248.75 Q639.3438,248.75 638.1406,248.125 Q637.1563,247.625 636.4688,246.5625 Q635.7813,245.4844 635.7813,244.2031 L635.7813,243.0469 Q635.7813,241.7188 636.3906,240.5781 Q637.0156,239.4219 638.1094,238.8125 Q639.2031,238.1875 640.4375,238.1875 Q641.1719,238.1875 641.8125,238.3594 Q642.4688,238.5156 643.0156,238.875 Z " fill="#000000"/><text fill="#000000" font-family="sans-serif" font-size="14" lengthAdjust="spacing" textLength="36" x="660.75" y="248.7969">Team</text><line style="stroke:#181818;stroke-width:0.5;" x1="545" x2="780" y1="259" y2="259"/><text fill="#000000" font-family="sans-serif" font-size="14" lengthAdjust="spacing" textLength="56" x="550" y="278.1074">-size : int</text><text fill="#000000" font-family="sans-serif" font-size="14" lengthAdjust="spacing" textLength="225" x="550" y="296.7285">-members : ArrayList&lt;Collaborator&gt;</text><line style="stroke:#181818;stroke-width:0.5;" x1="545" x2="780" y1="304.2422" y2="304.2422"/><text fill="#000000" font-family="sans-serif" font-size="14" lengthAdjust="spacing" textLength="144" x="550" y="323.3496">+Team(size, members)</text></g><!--class Collaborator--><g id="elem_Collaborator"><rect codeLine="57" fill="#F1F1F1" height="215.5898" id="Collaborator" rx="2.5" ry="2.5" style="stroke:#181818;stroke-width:0.5;" width="370" x="1095.5" y="410"/><ellipse cx="1237.25" cy="426" fill="#ADD1B2" rx="11" ry="11" style="stroke:#181818;stroke-width:1.0;"/><path d="M1240.0156,421.875 Q1240.1719,421.6563 1240.3594,421.5469 Q1240.5469,421.4375 1240.7656,421.4375 Q1241.1406,421.4375 1241.375,421.7031 Q1241.6094,421.9531 1241.6094,422.5625 L1241.6094,424.0156 Q1241.6094,424.625 1241.375,424.8906 Q1241.1406,425.1563 1240.7656,425.1563 Q1240.4219,425.1563 1240.2188,424.9531 Q1240.0156,424.7656 1239.9063,424.25 Q1239.8594,423.8906 1239.6719,423.7031 Q1239.3438,423.3281 1238.7344,423.1094 Q1238.125,422.8906 1237.5,422.8906 Q1236.7344,422.8906 1236.0938,423.2188 Q1235.4688,423.5469 1234.9688,424.2969 Q1234.4844,425.0469 1234.4844,426.0781 L1234.4844,427.1719 Q1234.4844,428.4063 1235.375,429.2344 Q1236.2656,430.0469 1237.8594,430.0469 Q1238.7969,430.0469 1239.4531,429.7969 Q1239.8438,429.6406 1240.2656,429.2031 Q1240.5313,428.9375 1240.6719,428.8594 Q1240.8281,428.7813 1241.0313,428.7813 Q1241.3594,428.7813 1241.6094,429.0469 Q1241.875,429.2969 1241.875,429.6406 Q1241.875,429.9844 1241.5313,430.3906 Q1241.0313,430.9688 1240.2344,431.2969 Q1239.1563,431.75 1237.8594,431.75 Q1236.3438,431.75 1235.1406,431.125 Q1234.1563,430.625 1233.4688,429.5625 Q1232.7813,428.4844 1232.7813,427.2031 L1232.7813,426.0469 Q1232.7813,424.7188 1233.3906,423.5781 Q1234.0156,422.4219 1235.1094,421.8125 Q1236.2031,421.1875 1237.4375,421.1875 Q1238.1719,421.1875 1238.8125,421.3594 Q1239.4688,421.5156 1240.0156,421.875 Z " fill="#000000"/><text fill="#000000" font-family="sans-serif" font-size="14" lengthAdjust="spacing" textLength="78" x="1257.75" y="431.7969">Collaborator</text><line style="stroke:#181818;stroke-width:0.5;" x1="1096.5" x2="1464.5" y1="442" y2="442"/><text fill="#000000" font-family="sans-serif" font-size="14" lengthAdjust="spacing" textLength="89" x="1101.5" y="461.1074">-name : String</text><text fill="#000000" font-family="sans-serif" font-size="14" lengthAdjust="spacing" textLength="110" x="1101.5" y="479.7285">-birthdate : String</text><text fill="#000000" font-family="sans-serif" font-size="14" lengthAdjust="spacing" textLength="147" x="1101.5" y="498.3496">-admissionData : String</text><text fill="#000000" font-family="sans-serif" font-size="14" lengthAdjust="spacing" textLength="105" x="1101.5" y="516.9707">-address : String</text><text fill="#000000" font-family="sans-serif" font-size="14" lengthAdjust="spacing" textLength="101" x="1101.5" y="535.5918">-contactInfo : int</text><text fill="#000000" font-family="sans-serif" font-size="14" lengthAdjust="spacing" textLength="161" x="1101.5" y="554.2129">-idDocumentType : String</text><text fill="#000000" font-family="sans-serif" font-size="14" lengthAdjust="spacing" textLength="156" x="1101.5" y="572.834">-idDocumentNumber : int</text><line style="stroke:#181818;stroke-width:0.5;" x1="1096.5" x2="1464.5" y1="580.3477" y2="580.3477"/><text fill="#000000" font-family="sans-serif" font-size="14" lengthAdjust="spacing" textLength="354" x="1101.5" y="599.4551">+Collaborator(name, birthdate, admissionData, address,</text><text fill="#000000" font-family="sans-serif" font-size="14" lengthAdjust="spacing" textLength="321" x="1101.5" y="618.0762">contactInfo, idDocumentType, idDocumentNumber)</text></g><!--class Skill--><g id="elem_Skill"><rect codeLine="68" fill="#F1F1F1" height="85.2422" id="Skill" rx="2.5" ry="2.5" style="stroke:#181818;stroke-width:0.5;" width="101" x="1016" y="705"/><ellipse cx="1050.8" cy="721" fill="#ADD1B2" rx="11" ry="11" style="stroke:#181818;stroke-width:1.0;"/><path d="M1053.5656,716.875 Q1053.7219,716.6563 1053.9094,716.5469 Q1054.0969,716.4375 1054.3156,716.4375 Q1054.6906,716.4375 1054.925,716.7031 Q1055.1594,716.9531 1055.1594,717.5625 L1055.1594,719.0156 Q1055.1594,719.625 1054.925,719.8906 Q1054.6906,720.1563 1054.3156,720.1563 Q1053.9719,720.1563 1053.7688,719.9531 Q1053.5656,719.7656 1053.4563,719.25 Q1053.4094,718.8906 1053.2219,718.7031 Q1052.8938,718.3281 1052.2844,718.1094 Q1051.675,717.8906 1051.05,717.8906 Q1050.2844,717.8906 1049.6438,718.2188 Q1049.0188,718.5469 1048.5188,719.2969 Q1048.0344,720.0469 1048.0344,721.0781 L1048.0344,722.1719 Q1048.0344,723.4063 1048.925,724.2344 Q1049.8156,725.0469 1051.4094,725.0469 Q1052.3469,725.0469 1053.0031,724.7969 Q1053.3938,724.6406 1053.8156,724.2031 Q1054.0813,723.9375 1054.2219,723.8594 Q1054.3781,723.7813 1054.5813,723.7813 Q1054.9094,723.7813 1055.1594,724.0469 Q1055.425,724.2969 1055.425,724.6406 Q1055.425,724.9844 1055.0813,725.3906 Q1054.5813,725.9688 1053.7844,726.2969 Q1052.7063,726.75 1051.4094,726.75 Q1049.8938,726.75 1048.6906,726.125 Q1047.7063,725.625 1047.0188,724.5625 Q1046.3313,723.4844 1046.3313,722.2031 L1046.3313,721.0469 Q1046.3313,719.7188 1046.9406,718.5781 Q1047.5656,717.4219 1048.6594,716.8125 Q1049.7531,716.1875 1050.9875,716.1875 Q1051.7219,716.1875 1052.3625,716.3594 Q1053.0188,716.5156 1053.5656,716.875 Z " fill="#000000"/><text fill="#000000" font-family="sans-serif" font-size="14" lengthAdjust="spacing" textLength="25" x="1069.2" y="726.7969">Skill</text><line style="stroke:#181818;stroke-width:0.5;" x1="1017" x2="1116" y1="737" y2="737"/><text fill="#000000" font-family="sans-serif" font-size="14" lengthAdjust="spacing" textLength="89" x="1022" y="756.1074">-name : String</text><line style="stroke:#181818;stroke-width:0.5;" x1="1017" x2="1116" y1="763.6211" y2="763.6211"/><text fill="#000000" font-family="sans-serif" font-size="14" lengthAdjust="spacing" textLength="78" x="1022" y="782.7285">+Skill(name)</text></g><!--link GenerateTeamProposalUI to GenerateTeamProposalController--><g id="link_GenerateTeamProposalUI_GenerateTeamProposalController"><path codeLine="73" d="M507.88,77.5 C522.14,77.5 528.76,77.5 536.97,77.5 " fill="none" id="GenerateTeamProposalUI-to-GenerateTeamProposalController" style="stroke:#181818;stroke-width:1.0;stroke-dasharray:7.0,7.0;"/><polygon fill="#181818" points="542.97,77.5,533.97,73.5,537.97,77.5,533.97,81.5,542.97,77.5" style="stroke:#181818;stroke-width:1.0;"/></g><!--link GenerateTeamProposalController to Repositories--><g id="link_GenerateTeamProposalController_Repositories"><path codeLine="74" d="M1136.02,77.5 C1173.05,77.5 1202.61,77.5 1233.29,77.5 " fill="none" id="GenerateTeamProposalController-to-Repositories" style="stroke:#181818;stroke-width:1.0;stroke-dasharray:7.0,7.0;"/><polygon fill="#181818" points="1239.29,77.5,1230.29,73.5,1234.29,77.5,1230.29,81.5,1239.29,77.5" style="stroke:#181818;stroke-width:1.0;"/><text fill="#000000" font-family="sans-serif" font-size="13" lengthAdjust="spacing" textLength="67" x="1154.25" y="70.5283">repositories</text></g><!--link Repositories to Repositories--><g id="link_Repositories_Repositories"><path codeLine="75" d="M1435.52,57.6 C1455.87,59.69 1470.5,66.33 1470.5,77.5 C1470.5,88.67 1461.8386,94.697 1441.4886,96.787 " fill="none" id="Repositories-to-Repositories" style="stroke:#181818;stroke-width:1.0;"/><polygon fill="#181818" points="1435.52,97.4,1444.8816,100.4596,1440.4938,96.8892,1444.0642,92.5014,1435.52,97.4" style="stroke:#181818;stroke-width:1.0;"/><text fill="#000000" font-family="sans-serif" font-size="13" lengthAdjust="spacing" textLength="49" x="1476.5" y="83.0283">instance</text></g><!--link Repositories to skillRepository--><g id="link_Repositories_skillRepository"><path codeLine="77" d="M1299.9,148.12 C1285.97,173.91 1273.5,197 1273.5,197 C1273.5,197 1175.5,227 1175.5,227 C1175.5,227 1150.4452,238.8274 1121.8652,252.3274 " fill="none" id="Repositories-to-skillRepository" style="stroke:#181818;stroke-width:1.0;"/><polygon fill="#181818" points="1116.44,254.89,1126.2862,254.6628,1120.961,252.7545,1122.8694,247.4292,1116.44,254.89" style="stroke:#181818;stroke-width:1.0;"/><text fill="#000000" font-family="sans-serif" font-size="13" lengthAdjust="spacing" textLength="7" x="1121.084" y="243.5993">1</text></g><!--link Repositories to collaboratorRepository--><g id="link_Repositories_collaboratorRepository"><path codeLine="78" d="M1323.99,148.12 C1318.98,173.91 1314.5,197 1314.5,197 C1314.5,197 1302.7041,225.1184 1292.6541,249.0384 " fill="none" id="Repositories-to-collaboratorRepository" style="stroke:#181818;stroke-width:1.0;"/><polygon fill="#181818" points="1290.33,254.57,1297.5039,247.822,1292.2668,249.9603,1290.1284,244.7232,1290.33,254.57" style="stroke:#181818;stroke-width:1.0;"/><text fill="#000000" font-family="sans-serif" font-size="13" lengthAdjust="spacing" textLength="7" x="1284.8729" y="243.6071">1</text></g><!--link Repositories to teamRepository--><g id="link_Repositories_teamRepository"><path codeLine="79" d="M1275.81,148.12 C1252.96,173.91 1232.5,197 1232.5,197 C1232.5,197 988.5,227 988.5,227 C988.5,227 986.4762,228.0817 975.9162,233.7517 " fill="none" id="Repositories-to-teamRepository" style="stroke:#181818;stroke-width:1.0;"/><polygon fill="#181818" points="970.63,236.59,980.4515,235.8566,975.0352,234.2247,976.6671,228.8084,970.63,236.59" style="stroke:#181818;stroke-width:1.0;"/><text fill="#000000" font-family="sans-serif" font-size="13" lengthAdjust="spacing" textLength="7" x="978.567" y="228.6279">1</text></g><!--link GenerateTeamProposalController to skillRepository--><g id="link_GenerateTeamProposalController_skillRepository"><path codeLine="81" d="M916.46,148.12 C944.98,173.91 970.5,197 970.5,197 C970.5,197 1006.4352,227.0035 1035.0952,250.9435 " fill="none" id="GenerateTeamProposalController-to-skillRepository" style="stroke:#181818;stroke-width:1.0;stroke-dasharray:7.0,7.0;"/><polygon fill="#181818" points="1039.7,254.79,1035.357,245.9504,1035.8626,251.5846,1030.2284,252.0902,1039.7,254.79" style="stroke:#181818;stroke-width:1.0;"/><text fill="#000000" font-family="sans-serif" font-size="13" lengthAdjust="spacing" textLength="85" x="971.5" y="193.0283">skillRepository</text></g><!--link GenerateTeamProposalController to collaboratorRepository--><g id="link_GenerateTeamProposalController_collaboratorRepository"><path codeLine="82" d="M994.59,148.01 C1032.04,164.8 1061.5,178 1061.5,178 C1061.5,178 1159.8521,222.9078 1224.5221,252.4378 " fill="none" id="GenerateTeamProposalController-to-collaboratorRepository" style="stroke:#181818;stroke-width:1.0;stroke-dasharray:7.0,7.0;"/><polygon fill="#181818" points="1229.98,254.93,1223.4546,247.5531,1225.4317,252.8531,1220.1316,254.8303,1229.98,254.93" style="stroke:#181818;stroke-width:1.0;"/><text fill="#000000" font-family="sans-serif" font-size="13" lengthAdjust="spacing" textLength="129" x="1098.5" y="193.0283">collaboratorRepository</text></g><!--link GenerateTeamProposalController to teamRepository--><g id="link_GenerateTeamProposalController_teamRepository"><path codeLine="83" d="M838.1,148.15 C837.76,164.87 837.5,178 837.5,178 C837.5,178 837.5,197 837.5,197 C837.5,197 843.5079,205.6946 854.6179,221.7646 " fill="none" id="GenerateTeamProposalController-to-teamRepository" style="stroke:#181818;stroke-width:1.0;stroke-dasharray:7.0,7.0;"/><polygon fill="#181818" points="858.03,226.7,856.2021,217.0222,855.1866,222.5872,849.6217,221.5717,858.03,226.7" style="stroke:#181818;stroke-width:1.0;"/><text fill="#000000" font-family="sans-serif" font-size="13" lengthAdjust="spacing" textLength="91" x="838.5" y="193.0283">teamRepository</text></g><!--link HRM to Team--><g id="link_HRM_Team"><path codeLine="85" d="M232.55,120.13 C264.92,134.93 293.5,148 293.5,148 C293.5,148 430.4109,196.2365 538.3109,234.2465 " fill="none" id="HRM-to-Team" style="stroke:#181818;stroke-width:1.0;"/><polygon fill="#181818" points="543.97,236.24,536.8103,229.4769,539.2541,234.5787,534.1523,237.0224,543.97,236.24" style="stroke:#181818;stroke-width:1.0;"/><text fill="#000000" font-family="sans-serif" font-size="13" lengthAdjust="spacing" textLength="43" x="423.5" y="193.0283">creates</text><text fill="#000000" font-family="sans-serif" font-size="13" lengthAdjust="spacing" textLength="7" x="239.5033" y="142.3111">1</text><text fill="#000000" font-family="sans-serif" font-size="13" lengthAdjust="spacing" textLength="5" x="530.8383" y="229.8387">*</text></g><!--link Team to Collaborator--><g id="link_Team_Collaborator"><path codeLine="86" d="M781.02,324.12 C792.22,328.29 799.5,331 799.5,331 C799.5,331 1068.5,410 1068.5,410 C1068.5,410 1073.654,412.5958 1089.994,420.8458 " fill="none" id="Team-to-Collaborator" style="stroke:#181818;stroke-width:1.0;"/><polygon fill="#181818" points="1095.35,423.55,1089.1188,415.923,1090.8866,421.2965,1085.5131,423.0643,1095.35,423.55" style="stroke:#181818;stroke-width:1.0;"/><text fill="#000000" font-family="sans-serif" font-size="13" lengthAdjust="spacing" textLength="21" x="966.5" y="376.0283">has</text><text fill="#000000" font-family="sans-serif" font-size="13" lengthAdjust="spacing" textLength="7" x="788.8369" y="323.508">1</text><text fill="#000000" font-family="sans-serif" font-size="13" lengthAdjust="spacing" textLength="20" x="1067.727" y="416.5705">1..*</text></g><!--link Collaborator to Skill--><g id="link_Collaborator_Skill"><path codeLine="87" d="M1179.77,626.09 C1153.42,654.09 1130.6811,678.2698 1109.7411,700.5298 " fill="none" id="Collaborator-to-Skill" style="stroke:#181818;stroke-width:1.0;"/><polygon fill="#181818" points="1105.63,704.9,1114.7101,701.0854,1109.0559,701.2581,1108.8831,695.6039,1105.63,704.9" style="stroke:#181818;stroke-width:1.0;"/><text fill="#000000" font-family="sans-serif" font-size="13" lengthAdjust="spacing" textLength="21" x="1148.5" y="671.0283">has</text><text fill="#000000" font-family="sans-serif" font-size="13" lengthAdjust="spacing" textLength="7" x="1166.0928" y="647.6098">1</text><text fill="#000000" font-family="sans-serif" font-size="13" lengthAdjust="spacing" textLength="5" x="1106.4679" y="693.7881">*</text></g><!--link GenerateTeamProposalController to Team--><g id="link_GenerateTeamProposalController_Team"><path codeLine="89" d="M777.59,148.28 C754.67,174.12 733.0914,198.4313 711.9014,222.3213 " fill="none" id="GenerateTeamProposalController-to-Team" style="stroke:#181818;stroke-width:1.0;stroke-dasharray:7.0,7.0;"/><polygon fill="#181818" points="707.92,226.81,716.8846,222.7312,711.2378,223.0694,710.8996,217.4227,707.92,226.81" style="stroke:#181818;stroke-width:1.0;"/><text fill="#000000" font-family="sans-serif" font-size="13" lengthAdjust="spacing" textLength="29" x="751.5" y="193.0283">team</text></g><!--link skillRepository to Skill--><g id="link_skillRepository_Skill"><path codeLine="90" d="M1065.35,303.24 C1061.9,340.63 1055.5,410 1055.5,410 C1055.5,410 1055.5,626 1055.5,626 C1055.5,626 1058.9657,663.9147 1062.1357,698.7147 " fill="none" id="skillRepository-to-Skill" style="stroke:#181818;stroke-width:1.0;"/><polygon fill="#181818" points="1062.68,704.69,1065.8471,695.3642,1062.2264,699.7106,1057.88,696.09,1062.68,704.69" style="stroke:#181818;stroke-width:1.0;"/><text fill="#000000" font-family="sans-serif" font-size="13" lengthAdjust="spacing" textLength="21" x="1056.5" y="523.5283">has</text></g><!--link collaboratorRepository to Collaborator--><g id="link_collaboratorRepository_Collaborator"><path codeLine="91" d="M1280.5,303.16 C1280.5,328.2 1280.5,363.92 1280.5,403.89 " fill="none" id="collaboratorRepository-to-Collaborator" style="stroke:#181818;stroke-width:1.0;"/><polygon fill="#181818" points="1280.5,409.89,1284.5,400.89,1280.5,404.89,1276.5,400.89,1280.5,409.89" style="stroke:#181818;stroke-width:1.0;"/><text fill="#000000" font-family="sans-serif" font-size="13" lengthAdjust="spacing" textLength="21" x="1281.5" y="376.0283">has</text></g><!--SRC=[bLN1Zjem4BtxAomkG0ceUusgbLQxKelKhQg5tdenoP1OwzZ87bhHglzUEp69dGJOvPJCl9bvy-mNfkQLomFJhAALaYehjQg0eZu2wJ87bhso0ZPu4a0rPCXa8KA0ALckVdDPq3qJ9im8BW5F1w079KxkXKn7aagZ8a5L9fWn3uYQxuu8wqp93Vy3z2CXKm5xfAYevaM9DEUE3bUIaBg6Vdbvfdy9jR-5UvxD_NC14ZH3s0AhlcjrK8Q9cR5D4rf1jGDjvkJVkSdd4V2ZagYL4A3R_jTXCxkE42zWmnoLFYKqit6sKxP4wJ2EjhvxFpCMtE36jJ3j4bcfb87dXc_JtxndGTz5WyVDC03N-ryHuCVQBjvArFBbOBmWooWOA8zhQUoLoM0sfsa4wY2RMAom-d5KjX2nZGIqcOvdxn0irIutVXuH93wQTb6Mvwr-Sn_xnGJFGs7FYKRleTRD10Tl-xhpiX9nYJxWZyx67hHcfw_sJdmAzRZt8jH3BrtdiA0T9LdbHcsinsJXOpkkiNGxz1CihxWnrcPF3DamcMimfX-sfaMMsRFVgsWbdZ-fx5Y1nAspVg-gotuxkZs2qaMqoCmja7IKavXaSgQLq9yoe9BqvYU3YO5mzQMyejYYGTHKwh8BlbdTt_XMa1jV7DiWCbnglyA1YwBSSZa0S-y_CaHExYPzZuo3niqoZerTGzwmNT-cwO3KxHuNx9nUedwxOy_zwM0nzs_Z5guN_p1fp9nwnnjIlxRvkzNAGY8pfhHaXaIXi5rp_nhG6-ZwwOuawGlgMeRjBeZbO2CCoNy0]--></g></svg>