<?xml version="1.0" encoding="us-ascii" standalone="no"?><svg xmlns="http://www.w3.org/2000/svg" xmlns:xlink="http://www.w3.org/1999/xlink" contentStyleType="text/css" height="1078px" preserveAspectRatio="none" style="width:1589px;height:1078px;background:#FFFFFF;" version="1.1" viewBox="0 0 1589 1078" width="1589px" zoomAndPan="magnify"><defs/><g><!--class HRM--><g id="elem_HRM"><rect codeLine="11" fill="#F1F1F1" height="85.2422" id="HRM" rx="2.5" ry="2.5" style="stroke:#181818;stroke-width:0.5;" width="418" x="7" y="316.5"/><ellipse cx="196.75" cy="332.5" fill="#ADD1B2" rx="11" ry="11" style="stroke:#181818;stroke-width:1.0;"/><path d="M199.5156,328.375 Q199.6719,328.1563 199.8594,328.0469 Q200.0469,327.9375 200.2656,327.9375 Q200.6406,327.9375 200.875,328.2031 Q201.1094,328.4531 201.1094,329.0625 L201.1094,330.5156 Q201.1094,331.125 200.875,331.3906 Q200.6406,331.6563 200.2656,331.6563 Q199.9219,331.6563 199.7188,331.4531 Q199.5156,331.2656 199.4063,330.75 Q199.3594,330.3906 199.1719,330.2031 Q198.8438,329.8281 198.2344,329.6094 Q197.625,329.3906 197,329.3906 Q196.2344,329.3906 195.5938,329.7188 Q194.9688,330.0469 194.4688,330.7969 Q193.9844,331.5469 193.9844,332.5781 L193.9844,333.6719 Q193.9844,334.9063 194.875,335.7344 Q195.7656,336.5469 197.3594,336.5469 Q198.2969,336.5469 198.9531,336.2969 Q199.3438,336.1406 199.7656,335.7031 Q200.0313,335.4375 200.1719,335.3594 Q200.3281,335.2813 200.5313,335.2813 Q200.8594,335.2813 201.1094,335.5469 Q201.375,335.7969 201.375,336.1406 Q201.375,336.4844 201.0313,336.8906 Q200.5313,337.4688 199.7344,337.7969 Q198.6563,338.25 197.3594,338.25 Q195.8438,338.25 194.6406,337.625 Q193.6563,337.125 192.9688,336.0625 Q192.2813,334.9844 192.2813,333.7031 L192.2813,332.5469 Q192.2813,331.2188 192.8906,330.0781 Q193.5156,328.9219 194.6094,328.3125 Q195.7031,327.6875 196.9375,327.6875 Q197.6719,327.6875 198.3125,327.8594 Q198.9688,328.0156 199.5156,328.375 Z " fill="#000000"/><text fill="#000000" font-family="sans-serif" font-size="14" lengthAdjust="spacing" textLength="30" x="217.25" y="338.2969">HRM</text><line style="stroke:#181818;stroke-width:0.5;" x1="8" x2="424" y1="348.5" y2="348.5"/><line style="stroke:#181818;stroke-width:0.5;" x1="8" x2="424" y1="356.5" y2="356.5"/><text fill="#000000" font-family="sans-serif" font-size="14" lengthAdjust="spacing" textLength="48" x="13" y="375.6074">+HRM()</text><text fill="#000000" font-family="sans-serif" font-size="14" lengthAdjust="spacing" textLength="406" x="13" y="394.2285">+generateTeamProposal(minimumSize, maximumSize, members)</text></g><!--class GenerateTeamProposalController--><g id="elem_GenerateTeamProposalController"><rect codeLine="16" fill="#F1F1F1" height="141.1055" id="GenerateTeamProposalController" rx="2.5" ry="2.5" style="stroke:#181818;stroke-width:0.5;" width="593" x="515.5" y="7"/><ellipse cx="700.75" cy="23" fill="#ADD1B2" rx="11" ry="11" style="stroke:#181818;stroke-width:1.0;"/><path d="M703.5156,18.875 Q703.6719,18.6563 703.8594,18.5469 Q704.0469,18.4375 704.2656,18.4375 Q704.6406,18.4375 704.875,18.7031 Q705.1094,18.9531 705.1094,19.5625 L705.1094,21.0156 Q705.1094,21.625 704.875,21.8906 Q704.6406,22.1563 704.2656,22.1563 Q703.9219,22.1563 703.7188,21.9531 Q703.5156,21.7656 703.4063,21.25 Q703.3594,20.8906 703.1719,20.7031 Q702.8438,20.3281 702.2344,20.1094 Q701.625,19.8906 701,19.8906 Q700.2344,19.8906 699.5938,20.2188 Q698.9688,20.5469 698.4688,21.2969 Q697.9844,22.0469 697.9844,23.0781 L697.9844,24.1719 Q697.9844,25.4063 698.875,26.2344 Q699.7656,27.0469 701.3594,27.0469 Q702.2969,27.0469 702.9531,26.7969 Q703.3438,26.6406 703.7656,26.2031 Q704.0313,25.9375 704.1719,25.8594 Q704.3281,25.7813 704.5313,25.7813 Q704.8594,25.7813 705.1094,26.0469 Q705.375,26.2969 705.375,26.6406 Q705.375,26.9844 705.0313,27.3906 Q704.5313,27.9688 703.7344,28.2969 Q702.6563,28.75 701.3594,28.75 Q699.8438,28.75 698.6406,28.125 Q697.6563,27.625 696.9688,26.5625 Q696.2813,25.4844 696.2813,24.2031 L696.2813,23.0469 Q696.2813,21.7188 696.8906,20.5781 Q697.5156,19.4219 698.6094,18.8125 Q699.7031,18.1875 700.9375,18.1875 Q701.6719,18.1875 702.3125,18.3594 Q702.9688,18.5156 703.5156,18.875 Z " fill="#000000"/><text fill="#000000" font-family="sans-serif" font-size="14" lengthAdjust="spacing" textLength="214" x="721.25" y="28.7969">GenerateTeamProposalController</text><line style="stroke:#181818;stroke-width:0.5;" x1="516.5" x2="1107.5" y1="39" y2="39"/><line style="stroke:#181818;stroke-width:0.5;" x1="516.5" x2="1107.5" y1="47" y2="47"/><text fill="#000000" font-family="sans-serif" font-size="14" lengthAdjust="spacing" textLength="581" x="521.5" y="66.1074">+GenerateTeamProposalController(skillRepository, collaboratorRepository, teamRepository)</text><text fill="#000000" font-family="sans-serif" font-size="14" lengthAdjust="spacing" textLength="67" x="521.5" y="84.7285">+listSkills()</text><text fill="#000000" font-family="sans-serif" font-size="14" lengthAdjust="spacing" textLength="152" x="521.5" y="103.3496">+chooseMembers(skills)</text><text fill="#000000" font-family="sans-serif" font-size="14" lengthAdjust="spacing" textLength="406" x="521.5" y="121.9707">+generateTeamProposal(minimumSize, maximumSize, members)</text><text fill="#000000" font-family="sans-serif" font-size="14" lengthAdjust="spacing" textLength="181" x="521.5" y="140.5918">+createTeam(teamProposal)</text></g><!--class GenerateTeamProposalUI--><g id="elem_GenerateTeamProposalUI"><rect codeLine="25" fill="#F1F1F1" height="48" id="GenerateTeamProposalUI" rx="2.5" ry="2.5" style="stroke:#181818;stroke-width:0.5;" width="196" x="284" y="53.5"/><ellipse cx="299" cy="69.5" fill="#ADD1B2" rx="11" ry="11" style="stroke:#181818;stroke-width:1.0;"/><path d="M301.7656,65.375 Q301.9219,65.1563 302.1094,65.0469 Q302.2969,64.9375 302.5156,64.9375 Q302.8906,64.9375 303.125,65.2031 Q303.3594,65.4531 303.3594,66.0625 L303.3594,67.5156 Q303.3594,68.125 303.125,68.3906 Q302.8906,68.6563 302.5156,68.6563 Q302.1719,68.6563 301.9688,68.4531 Q301.7656,68.2656 301.6563,67.75 Q301.6094,67.3906 301.4219,67.2031 Q301.0938,66.8281 300.4844,66.6094 Q299.875,66.3906 299.25,66.3906 Q298.4844,66.3906 297.8438,66.7188 Q297.2188,67.0469 296.7188,67.7969 Q296.2344,68.5469 296.2344,69.5781 L296.2344,70.6719 Q296.2344,71.9063 297.125,72.7344 Q298.0156,73.5469 299.6094,73.5469 Q300.5469,73.5469 301.2031,73.2969 Q301.5938,73.1406 302.0156,72.7031 Q302.2813,72.4375 302.4219,72.3594 Q302.5781,72.2813 302.7813,72.2813 Q303.1094,72.2813 303.3594,72.5469 Q303.625,72.7969 303.625,73.1406 Q303.625,73.4844 303.2813,73.8906 Q302.7813,74.4688 301.9844,74.7969 Q300.9063,75.25 299.6094,75.25 Q298.0938,75.25 296.8906,74.625 Q295.9063,74.125 295.2188,73.0625 Q294.5313,71.9844 294.5313,70.7031 L294.5313,69.5469 Q294.5313,68.2188 295.1406,67.0781 Q295.7656,65.9219 296.8594,65.3125 Q297.9531,64.6875 299.1875,64.6875 Q299.9219,64.6875 300.5625,64.8594 Q301.2188,65.0156 301.7656,65.375 Z " fill="#000000"/><text fill="#000000" font-family="sans-serif" font-size="14" lengthAdjust="spacing" textLength="164" x="313" y="75.2969">GenerateTeamProposalUI</text><line style="stroke:#181818;stroke-width:0.5;" x1="285" x2="479" y1="85.5" y2="85.5"/><line style="stroke:#181818;stroke-width:0.5;" x1="285" x2="479" y1="93.5" y2="93.5"/></g><!--class Repositories--><g id="elem_Repositories"><rect codeLine="28" fill="#F1F1F1" height="141.1055" id="Repositories" rx="2.5" ry="2.5" style="stroke:#181818;stroke-width:0.5;" width="196" x="1212" y="7"/><ellipse cx="1266.25" cy="23" fill="#ADD1B2" rx="11" ry="11" style="stroke:#181818;stroke-width:1.0;"/><path d="M1269.0156,18.875 Q1269.1719,18.6563 1269.3594,18.5469 Q1269.5469,18.4375 1269.7656,18.4375 Q1270.1406,18.4375 1270.375,18.7031 Q1270.6094,18.9531 1270.6094,19.5625 L1270.6094,21.0156 Q1270.6094,21.625 1270.375,21.8906 Q1270.1406,22.1563 1269.7656,22.1563 Q1269.4219,22.1563 1269.2188,21.9531 Q1269.0156,21.7656 1268.9063,21.25 Q1268.8594,20.8906 1268.6719,20.7031 Q1268.3438,20.3281 1267.7344,20.1094 Q1267.125,19.8906 1266.5,19.8906 Q1265.7344,19.8906 1265.0938,20.2188 Q1264.4688,20.5469 1263.9688,21.2969 Q1263.4844,22.0469 1263.4844,23.0781 L1263.4844,24.1719 Q1263.4844,25.4063 1264.375,26.2344 Q1265.2656,27.0469 1266.8594,27.0469 Q1267.7969,27.0469 1268.4531,26.7969 Q1268.8438,26.6406 1269.2656,26.2031 Q1269.5313,25.9375 1269.6719,25.8594 Q1269.8281,25.7813 1270.0313,25.7813 Q1270.3594,25.7813 1270.6094,26.0469 Q1270.875,26.2969 1270.875,26.6406 Q1270.875,26.9844 1270.5313,27.3906 Q1270.0313,27.9688 1269.2344,28.2969 Q1268.1563,28.75 1266.8594,28.75 Q1265.3438,28.75 1264.1406,28.125 Q1263.1563,27.625 1262.4688,26.5625 Q1261.7813,25.4844 1261.7813,24.2031 L1261.7813,23.0469 Q1261.7813,21.7188 1262.3906,20.5781 Q1263.0156,19.4219 1264.1094,18.8125 Q1265.2031,18.1875 1266.4375,18.1875 Q1267.1719,18.1875 1267.8125,18.3594 Q1268.4688,18.5156 1269.0156,18.875 Z " fill="#000000"/><text fill="#000000" font-family="sans-serif" font-size="14" lengthAdjust="spacing" textLength="79" x="1286.75" y="28.7969">Repositories</text><line style="stroke:#181818;stroke-width:0.5;" x1="1213" x2="1407" y1="39" y2="39"/><line style="stroke:#181818;stroke-width:0.5;" x1="1213" x2="1407" y1="47" y2="47"/><text fill="#000000" font-family="sans-serif" font-size="14" lengthAdjust="spacing" textLength="94" x="1218" y="66.1074">-Repositories()</text><text fill="#000000" font-family="sans-serif" font-size="14" lengthAdjust="spacing" textLength="182" x="1218" y="84.7285">+getInstance() : Repositories</text><text fill="#000000" font-family="sans-serif" font-size="14" lengthAdjust="spacing" textLength="131" x="1218" y="103.3496">+getSkillRepository()</text><text fill="#000000" font-family="sans-serif" font-size="14" lengthAdjust="spacing" textLength="184" x="1218" y="121.9707">+getCollaboratorRepository()</text><text fill="#000000" font-family="sans-serif" font-size="14" lengthAdjust="spacing" textLength="142" x="1218" y="140.5918">+getTeamRepository()</text></g><!--class SkillRepository--><g id="elem_SkillRepository"><rect codeLine="37" fill="#F1F1F1" height="48" id="SkillRepository" rx="2.5" ry="2.5" style="stroke:#181818;stroke-width:0.5;" width="125" x="1457.5" y="335"/><ellipse cx="1472.5" cy="351" fill="#ADD1B2" rx="11" ry="11" style="stroke:#181818;stroke-width:1.0;"/><path d="M1475.2656,346.875 Q1475.4219,346.6563 1475.6094,346.5469 Q1475.7969,346.4375 1476.0156,346.4375 Q1476.3906,346.4375 1476.625,346.7031 Q1476.8594,346.9531 1476.8594,347.5625 L1476.8594,349.0156 Q1476.8594,349.625 1476.625,349.8906 Q1476.3906,350.1563 1476.0156,350.1563 Q1475.6719,350.1563 1475.4688,349.9531 Q1475.2656,349.7656 1475.1563,349.25 Q1475.1094,348.8906 1474.9219,348.7031 Q1474.5938,348.3281 1473.9844,348.1094 Q1473.375,347.8906 1472.75,347.8906 Q1471.9844,347.8906 1471.3438,348.2188 Q1470.7188,348.5469 1470.2188,349.2969 Q1469.7344,350.0469 1469.7344,351.0781 L1469.7344,352.1719 Q1469.7344,353.4063 1470.625,354.2344 Q1471.5156,355.0469 1473.1094,355.0469 Q1474.0469,355.0469 1474.7031,354.7969 Q1475.0938,354.6406 1475.5156,354.2031 Q1475.7813,353.9375 1475.9219,353.8594 Q1476.0781,353.7813 1476.2813,353.7813 Q1476.6094,353.7813 1476.8594,354.0469 Q1477.125,354.2969 1477.125,354.6406 Q1477.125,354.9844 1476.7813,355.3906 Q1476.2813,355.9688 1475.4844,356.2969 Q1474.4063,356.75 1473.1094,356.75 Q1471.5938,356.75 1470.3906,356.125 Q1469.4063,355.625 1468.7188,354.5625 Q1468.0313,353.4844 1468.0313,352.2031 L1468.0313,351.0469 Q1468.0313,349.7188 1468.6406,348.5781 Q1469.2656,347.4219 1470.3594,346.8125 Q1471.4531,346.1875 1472.6875,346.1875 Q1473.4219,346.1875 1474.0625,346.3594 Q1474.7188,346.5156 1475.2656,346.875 Z " fill="#000000"/><text fill="#000000" font-family="sans-serif" font-size="14" lengthAdjust="spacing" textLength="93" x="1486.5" y="356.7969">SkillRepository</text><line style="stroke:#181818;stroke-width:0.5;" x1="1458.5" x2="1581.5" y1="367" y2="367"/><line style="stroke:#181818;stroke-width:0.5;" x1="1458.5" x2="1581.5" y1="375" y2="375"/></g><!--class CollaboratorRepository--><g id="elem_CollaboratorRepository"><rect codeLine="41" fill="#F1F1F1" height="48" id="CollaboratorRepository" rx="2.5" ry="2.5" style="stroke:#181818;stroke-width:0.5;" width="178" x="1242" y="335"/><ellipse cx="1257" cy="351" fill="#ADD1B2" rx="11" ry="11" style="stroke:#181818;stroke-width:1.0;"/><path d="M1259.7656,346.875 Q1259.9219,346.6563 1260.1094,346.5469 Q1260.2969,346.4375 1260.5156,346.4375 Q1260.8906,346.4375 1261.125,346.7031 Q1261.3594,346.9531 1261.3594,347.5625 L1261.3594,349.0156 Q1261.3594,349.625 1261.125,349.8906 Q1260.8906,350.1563 1260.5156,350.1563 Q1260.1719,350.1563 1259.9688,349.9531 Q1259.7656,349.7656 1259.6563,349.25 Q1259.6094,348.8906 1259.4219,348.7031 Q1259.0938,348.3281 1258.4844,348.1094 Q1257.875,347.8906 1257.25,347.8906 Q1256.4844,347.8906 1255.8438,348.2188 Q1255.2188,348.5469 1254.7188,349.2969 Q1254.2344,350.0469 1254.2344,351.0781 L1254.2344,352.1719 Q1254.2344,353.4063 1255.125,354.2344 Q1256.0156,355.0469 1257.6094,355.0469 Q1258.5469,355.0469 1259.2031,354.7969 Q1259.5938,354.6406 1260.0156,354.2031 Q1260.2813,353.9375 1260.4219,353.8594 Q1260.5781,353.7813 1260.7813,353.7813 Q1261.1094,353.7813 1261.3594,354.0469 Q1261.625,354.2969 1261.625,354.6406 Q1261.625,354.9844 1261.2813,355.3906 Q1260.7813,355.9688 1259.9844,356.2969 Q1258.9063,356.75 1257.6094,356.75 Q1256.0938,356.75 1254.8906,356.125 Q1253.9063,355.625 1253.2188,354.5625 Q1252.5313,353.4844 1252.5313,352.2031 L1252.5313,351.0469 Q1252.5313,349.7188 1253.1406,348.5781 Q1253.7656,347.4219 1254.8594,346.8125 Q1255.9531,346.1875 1257.1875,346.1875 Q1257.9219,346.1875 1258.5625,346.3594 Q1259.2188,346.5156 1259.7656,346.875 Z " fill="#000000"/><text fill="#000000" font-family="sans-serif" font-size="14" lengthAdjust="spacing" textLength="146" x="1271" y="356.7969">CollaboratorRepository</text><line style="stroke:#181818;stroke-width:0.5;" x1="1243" x2="1419" y1="367" y2="367"/><line style="stroke:#181818;stroke-width:0.5;" x1="1243" x2="1419" y1="375" y2="375"/></g><!--class TeamProposalRepository--><g id="elem_TeamProposalRepository"><rect codeLine="45" fill="#F1F1F1" height="103.8633" id="TeamProposalRepository" rx="2.5" ry="2.5" style="stroke:#181818;stroke-width:0.5;" width="415" x="791.5" y="307"/><ellipse cx="914.75" cy="323" fill="#ADD1B2" rx="11" ry="11" style="stroke:#181818;stroke-width:1.0;"/><path d="M917.5156,318.875 Q917.6719,318.6563 917.8594,318.5469 Q918.0469,318.4375 918.2656,318.4375 Q918.6406,318.4375 918.875,318.7031 Q919.1094,318.9531 919.1094,319.5625 L919.1094,321.0156 Q919.1094,321.625 918.875,321.8906 Q918.6406,322.1563 918.2656,322.1563 Q917.9219,322.1563 917.7188,321.9531 Q917.5156,321.7656 917.4063,321.25 Q917.3594,320.8906 917.1719,320.7031 Q916.8438,320.3281 916.2344,320.1094 Q915.625,319.8906 915,319.8906 Q914.2344,319.8906 913.5938,320.2188 Q912.9688,320.5469 912.4688,321.2969 Q911.9844,322.0469 911.9844,323.0781 L911.9844,324.1719 Q911.9844,325.4063 912.875,326.2344 Q913.7656,327.0469 915.3594,327.0469 Q916.2969,327.0469 916.9531,326.7969 Q917.3438,326.6406 917.7656,326.2031 Q918.0313,325.9375 918.1719,325.8594 Q918.3281,325.7813 918.5313,325.7813 Q918.8594,325.7813 919.1094,326.0469 Q919.375,326.2969 919.375,326.6406 Q919.375,326.9844 919.0313,327.3906 Q918.5313,327.9688 917.7344,328.2969 Q916.6563,328.75 915.3594,328.75 Q913.8438,328.75 912.6406,328.125 Q911.6563,327.625 910.9688,326.5625 Q910.2813,325.4844 910.2813,324.2031 L910.2813,323.0469 Q910.2813,321.7188 910.8906,320.5781 Q911.5156,319.4219 912.6094,318.8125 Q913.7031,318.1875 914.9375,318.1875 Q915.6719,318.1875 916.3125,318.3594 Q916.9688,318.5156 917.5156,318.875 Z " fill="#000000"/><text fill="#000000" font-family="sans-serif" font-size="14" lengthAdjust="spacing" textLength="160" x="935.25" y="328.7969">TeamProposalRepository</text><line style="stroke:#181818;stroke-width:0.5;" x1="792.5" x2="1205.5" y1="339" y2="339"/><line style="stroke:#181818;stroke-width:0.5;" x1="792.5" x2="1205.5" y1="347" y2="347"/><text fill="#000000" font-family="sans-serif" font-size="14" lengthAdjust="spacing" textLength="403" x="797.5" y="366.1074">-generateTeamProposal(minimumSize, maximumSize, members)</text><text fill="#000000" font-family="sans-serif" font-size="14" lengthAdjust="spacing" textLength="243" x="797.5" y="384.7285">-validateTeamProposal(teamProposal)</text><text fill="#000000" font-family="sans-serif" font-size="14" lengthAdjust="spacing" textLength="218" x="797.5" y="403.3496">-addTeamProposal(teamProposal)</text></g><!--class TeamRepository--><g id="elem_TeamRepository"><rect codeLine="51" fill="#F1F1F1" height="103.8633" id="TeamRepository" rx="2.5" ry="2.5" style="stroke:#181818;stroke-width:0.5;" width="154" x="531" y="307"/><ellipse cx="554.1" cy="323" fill="#ADD1B2" rx="11" ry="11" style="stroke:#181818;stroke-width:1.0;"/><path d="M556.8656,318.875 Q557.0219,318.6563 557.2094,318.5469 Q557.3969,318.4375 557.6156,318.4375 Q557.9906,318.4375 558.225,318.7031 Q558.4594,318.9531 558.4594,319.5625 L558.4594,321.0156 Q558.4594,321.625 558.225,321.8906 Q557.9906,322.1563 557.6156,322.1563 Q557.2719,322.1563 557.0688,321.9531 Q556.8656,321.7656 556.7563,321.25 Q556.7094,320.8906 556.5219,320.7031 Q556.1938,320.3281 555.5844,320.1094 Q554.975,319.8906 554.35,319.8906 Q553.5844,319.8906 552.9438,320.2188 Q552.3188,320.5469 551.8188,321.2969 Q551.3344,322.0469 551.3344,323.0781 L551.3344,324.1719 Q551.3344,325.4063 552.225,326.2344 Q553.1156,327.0469 554.7094,327.0469 Q555.6469,327.0469 556.3031,326.7969 Q556.6938,326.6406 557.1156,326.2031 Q557.3813,325.9375 557.5219,325.8594 Q557.6781,325.7813 557.8813,325.7813 Q558.2094,325.7813 558.4594,326.0469 Q558.725,326.2969 558.725,326.6406 Q558.725,326.9844 558.3813,327.3906 Q557.8813,327.9688 557.0844,328.2969 Q556.0063,328.75 554.7094,328.75 Q553.1938,328.75 551.9906,328.125 Q551.0063,327.625 550.3188,326.5625 Q549.6313,325.4844 549.6313,324.2031 L549.6313,323.0469 Q549.6313,321.7188 550.2406,320.5781 Q550.8656,319.4219 551.9594,318.8125 Q553.0531,318.1875 554.2875,318.1875 Q555.0219,318.1875 555.6625,318.3594 Q556.3188,318.5156 556.8656,318.875 Z " fill="#000000"/><text fill="#000000" font-family="sans-serif" font-size="14" lengthAdjust="spacing" textLength="104" x="569.9" y="328.7969">TeamRepository</text><line style="stroke:#181818;stroke-width:0.5;" x1="532" x2="684" y1="339" y2="339"/><line style="stroke:#181818;stroke-width:0.5;" x1="532" x2="684" y1="347" y2="347"/><text fill="#000000" font-family="sans-serif" font-size="14" lengthAdjust="spacing" textLength="106" x="537" y="366.1074">-addTeam(team)</text><text fill="#000000" font-family="sans-serif" font-size="14" lengthAdjust="spacing" textLength="131" x="537" y="384.7285">-validateTeam(team)</text><text fill="#000000" font-family="sans-serif" font-size="14" lengthAdjust="spacing" textLength="142" x="537" y="403.3496">-create(teamProposal)</text></g><!--class TeamProposal--><g id="elem_TeamProposal"><rect codeLine="57" fill="#F1F1F1" height="122.4844" id="TeamProposal" rx="2.5" ry="2.5" style="stroke:#181818;stroke-width:0.5;" width="361" x="698.5" y="490"/><ellipse cx="828.75" cy="506" fill="#ADD1B2" rx="11" ry="11" style="stroke:#181818;stroke-width:1.0;"/><path d="M831.5156,501.875 Q831.6719,501.6563 831.8594,501.5469 Q832.0469,501.4375 832.2656,501.4375 Q832.6406,501.4375 832.875,501.7031 Q833.1094,501.9531 833.1094,502.5625 L833.1094,504.0156 Q833.1094,504.625 832.875,504.8906 Q832.6406,505.1563 832.2656,505.1563 Q831.9219,505.1563 831.7188,504.9531 Q831.5156,504.7656 831.4063,504.25 Q831.3594,503.8906 831.1719,503.7031 Q830.8438,503.3281 830.2344,503.1094 Q829.625,502.8906 829,502.8906 Q828.2344,502.8906 827.5938,503.2188 Q826.9688,503.5469 826.4688,504.2969 Q825.9844,505.0469 825.9844,506.0781 L825.9844,507.1719 Q825.9844,508.4063 826.875,509.2344 Q827.7656,510.0469 829.3594,510.0469 Q830.2969,510.0469 830.9531,509.7969 Q831.3438,509.6406 831.7656,509.2031 Q832.0313,508.9375 832.1719,508.8594 Q832.3281,508.7813 832.5313,508.7813 Q832.8594,508.7813 833.1094,509.0469 Q833.375,509.2969 833.375,509.6406 Q833.375,509.9844 833.0313,510.3906 Q832.5313,510.9688 831.7344,511.2969 Q830.6563,511.75 829.3594,511.75 Q827.8438,511.75 826.6406,511.125 Q825.6563,510.625 824.9688,509.5625 Q824.2813,508.4844 824.2813,507.2031 L824.2813,506.0469 Q824.2813,504.7188 824.8906,503.5781 Q825.5156,502.4219 826.6094,501.8125 Q827.7031,501.1875 828.9375,501.1875 Q829.6719,501.1875 830.3125,501.3594 Q830.9688,501.5156 831.5156,501.875 Z " fill="#000000"/><text fill="#000000" font-family="sans-serif" font-size="14" lengthAdjust="spacing" textLength="92" x="849.25" y="511.7969">TeamProposal</text><line style="stroke:#181818;stroke-width:0.5;" x1="699.5" x2="1058.5" y1="522" y2="522"/><text fill="#000000" font-family="sans-serif" font-size="14" lengthAdjust="spacing" textLength="113" x="704.5" y="541.1074">-minimumSize : int</text><text fill="#000000" font-family="sans-serif" font-size="14" lengthAdjust="spacing" textLength="116" x="704.5" y="559.7285">-maximumSize : int</text><text fill="#000000" font-family="sans-serif" font-size="14" lengthAdjust="spacing" textLength="225" x="704.5" y="578.3496">-members : ArrayList&lt;Collaborator&gt;</text><line style="stroke:#181818;stroke-width:0.5;" x1="699.5" x2="1058.5" y1="585.8633" y2="585.8633"/><text fill="#000000" font-family="sans-serif" font-size="14" lengthAdjust="spacing" textLength="349" x="704.5" y="604.9707">+TeamProposal(minimumSize, maximumSize, members)</text></g><!--class Team--><g id="elem_Team"><rect codeLine="64" fill="#F1F1F1" height="85.2422" id="Team" rx="2.5" ry="2.5" style="stroke:#181818;stroke-width:0.5;" width="203" x="409.5" y="508.5"/><ellipse cx="488.75" cy="524.5" fill="#ADD1B2" rx="11" ry="11" style="stroke:#181818;stroke-width:1.0;"/><path d="M491.5156,520.375 Q491.6719,520.1563 491.8594,520.0469 Q492.0469,519.9375 492.2656,519.9375 Q492.6406,519.9375 492.875,520.2031 Q493.1094,520.4531 493.1094,521.0625 L493.1094,522.5156 Q493.1094,523.125 492.875,523.3906 Q492.6406,523.6563 492.2656,523.6563 Q491.9219,523.6563 491.7188,523.4531 Q491.5156,523.2656 491.4063,522.75 Q491.3594,522.3906 491.1719,522.2031 Q490.8438,521.8281 490.2344,521.6094 Q489.625,521.3906 489,521.3906 Q488.2344,521.3906 487.5938,521.7188 Q486.9688,522.0469 486.4688,522.7969 Q485.9844,523.5469 485.9844,524.5781 L485.9844,525.6719 Q485.9844,526.9063 486.875,527.7344 Q487.7656,528.5469 489.3594,528.5469 Q490.2969,528.5469 490.9531,528.2969 Q491.3438,528.1406 491.7656,527.7031 Q492.0313,527.4375 492.1719,527.3594 Q492.3281,527.2813 492.5313,527.2813 Q492.8594,527.2813 493.1094,527.5469 Q493.375,527.7969 493.375,528.1406 Q493.375,528.4844 493.0313,528.8906 Q492.5313,529.4688 491.7344,529.7969 Q490.6563,530.25 489.3594,530.25 Q487.8438,530.25 486.6406,529.625 Q485.6563,529.125 484.9688,528.0625 Q484.2813,526.9844 484.2813,525.7031 L484.2813,524.5469 Q484.2813,523.2188 484.8906,522.0781 Q485.5156,520.9219 486.6094,520.3125 Q487.7031,519.6875 488.9375,519.6875 Q489.6719,519.6875 490.3125,519.8594 Q490.9688,520.0156 491.5156,520.375 Z " fill="#000000"/><text fill="#000000" font-family="sans-serif" font-size="14" lengthAdjust="spacing" textLength="36" x="509.25" y="530.2969">Team</text><line style="stroke:#181818;stroke-width:0.5;" x1="410.5" x2="611.5" y1="540.5" y2="540.5"/><text fill="#000000" font-family="sans-serif" font-size="14" lengthAdjust="spacing" textLength="191" x="415.5" y="559.6074">-teamProposal : teamProposal</text><line style="stroke:#181818;stroke-width:0.5;" x1="410.5" x2="611.5" y1="567.1211" y2="567.1211"/><text fill="#000000" font-family="sans-serif" font-size="14" lengthAdjust="spacing" textLength="141" x="415.5" y="586.2285">+Team(teamProposal)</text></g><!--class Collaborator--><g id="elem_Collaborator"><rect codeLine="69" fill="#F1F1F1" height="215.5898" id="Collaborator" rx="2.5" ry="2.5" style="stroke:#181818;stroke-width:0.5;" width="370" x="1097" y="691"/><ellipse cx="1238.75" cy="707" fill="#ADD1B2" rx="11" ry="11" style="stroke:#181818;stroke-width:1.0;"/><path d="M1241.5156,702.875 Q1241.6719,702.6563 1241.8594,702.5469 Q1242.0469,702.4375 1242.2656,702.4375 Q1242.6406,702.4375 1242.875,702.7031 Q1243.1094,702.9531 1243.1094,703.5625 L1243.1094,705.0156 Q1243.1094,705.625 1242.875,705.8906 Q1242.6406,706.1563 1242.2656,706.1563 Q1241.9219,706.1563 1241.7188,705.9531 Q1241.5156,705.7656 1241.4063,705.25 Q1241.3594,704.8906 1241.1719,704.7031 Q1240.8438,704.3281 1240.2344,704.1094 Q1239.625,703.8906 1239,703.8906 Q1238.2344,703.8906 1237.5938,704.2188 Q1236.9688,704.5469 1236.4688,705.2969 Q1235.9844,706.0469 1235.9844,707.0781 L1235.9844,708.1719 Q1235.9844,709.4063 1236.875,710.2344 Q1237.7656,711.0469 1239.3594,711.0469 Q1240.2969,711.0469 1240.9531,710.7969 Q1241.3438,710.6406 1241.7656,710.2031 Q1242.0313,709.9375 1242.1719,709.8594 Q1242.3281,709.7813 1242.5313,709.7813 Q1242.8594,709.7813 1243.1094,710.0469 Q1243.375,710.2969 1243.375,710.6406 Q1243.375,710.9844 1243.0313,711.3906 Q1242.5313,711.9688 1241.7344,712.2969 Q1240.6563,712.75 1239.3594,712.75 Q1237.8438,712.75 1236.6406,712.125 Q1235.6563,711.625 1234.9688,710.5625 Q1234.2813,709.4844 1234.2813,708.2031 L1234.2813,707.0469 Q1234.2813,705.7188 1234.8906,704.5781 Q1235.5156,703.4219 1236.6094,702.8125 Q1237.7031,702.1875 1238.9375,702.1875 Q1239.6719,702.1875 1240.3125,702.3594 Q1240.9688,702.5156 1241.5156,702.875 Z " fill="#000000"/><text fill="#000000" font-family="sans-serif" font-size="14" lengthAdjust="spacing" textLength="78" x="1259.25" y="712.7969">Collaborator</text><line style="stroke:#181818;stroke-width:0.5;" x1="1098" x2="1466" y1="723" y2="723"/><text fill="#000000" font-family="sans-serif" font-size="14" lengthAdjust="spacing" textLength="89" x="1103" y="742.1074">-name : String</text><text fill="#000000" font-family="sans-serif" font-size="14" lengthAdjust="spacing" textLength="110" x="1103" y="760.7285">-birthdate : String</text><text fill="#000000" font-family="sans-serif" font-size="14" lengthAdjust="spacing" textLength="147" x="1103" y="779.3496">-admissionData : String</text><text fill="#000000" font-family="sans-serif" font-size="14" lengthAdjust="spacing" textLength="105" x="1103" y="797.9707">-address : String</text><text fill="#000000" font-family="sans-serif" font-size="14" lengthAdjust="spacing" textLength="101" x="1103" y="816.5918">-contactInfo : int</text><text fill="#000000" font-family="sans-serif" font-size="14" lengthAdjust="spacing" textLength="161" x="1103" y="835.2129">-idDocumentType : String</text><text fill="#000000" font-family="sans-serif" font-size="14" lengthAdjust="spacing" textLength="156" x="1103" y="853.834">-idDocumentNumber : int</text><line style="stroke:#181818;stroke-width:0.5;" x1="1098" x2="1466" y1="861.3477" y2="861.3477"/><text fill="#000000" font-family="sans-serif" font-size="14" lengthAdjust="spacing" textLength="354" x="1103" y="880.4551">+Collaborator(name, birthdate, admissionData, address,</text><text fill="#000000" font-family="sans-serif" font-size="14" lengthAdjust="spacing" textLength="321" x="1103" y="899.0762">contactInfo, idDocumentType, idDocumentNumber)</text></g><!--class Skill--><g id="elem_Skill"><rect codeLine="80" fill="#F1F1F1" height="85.2422" id="Skill" rx="2.5" ry="2.5" style="stroke:#181818;stroke-width:0.5;" width="101" x="1350.5" y="986"/><ellipse cx="1385.3" cy="1002" fill="#ADD1B2" rx="11" ry="11" style="stroke:#181818;stroke-width:1.0;"/><path d="M1388.0656,997.875 Q1388.2219,997.6563 1388.4094,997.5469 Q1388.5969,997.4375 1388.8156,997.4375 Q1389.1906,997.4375 1389.425,997.7031 Q1389.6594,997.9531 1389.6594,998.5625 L1389.6594,1000.0156 Q1389.6594,1000.625 1389.425,1000.8906 Q1389.1906,1001.1563 1388.8156,1001.1563 Q1388.4719,1001.1563 1388.2688,1000.9531 Q1388.0656,1000.7656 1387.9563,1000.25 Q1387.9094,999.8906 1387.7219,999.7031 Q1387.3938,999.3281 1386.7844,999.1094 Q1386.175,998.8906 1385.55,998.8906 Q1384.7844,998.8906 1384.1438,999.2188 Q1383.5188,999.5469 1383.0188,1000.2969 Q1382.5344,1001.0469 1382.5344,1002.0781 L1382.5344,1003.1719 Q1382.5344,1004.4063 1383.425,1005.2344 Q1384.3156,1006.0469 1385.9094,1006.0469 Q1386.8469,1006.0469 1387.5031,1005.7969 Q1387.8938,1005.6406 1388.3156,1005.2031 Q1388.5813,1004.9375 1388.7219,1004.8594 Q1388.8781,1004.7813 1389.0813,1004.7813 Q1389.4094,1004.7813 1389.6594,1005.0469 Q1389.925,1005.2969 1389.925,1005.6406 Q1389.925,1005.9844 1389.5813,1006.3906 Q1389.0813,1006.9688 1388.2844,1007.2969 Q1387.2063,1007.75 1385.9094,1007.75 Q1384.3938,1007.75 1383.1906,1007.125 Q1382.2063,1006.625 1381.5188,1005.5625 Q1380.8313,1004.4844 1380.8313,1003.2031 L1380.8313,1002.0469 Q1380.8313,1000.7188 1381.4406,999.5781 Q1382.0656,998.4219 1383.1594,997.8125 Q1384.2531,997.1875 1385.4875,997.1875 Q1386.2219,997.1875 1386.8625,997.3594 Q1387.5188,997.5156 1388.0656,997.875 Z " fill="#000000"/><text fill="#000000" font-family="sans-serif" font-size="14" lengthAdjust="spacing" textLength="25" x="1403.7" y="1007.7969">Skill</text><line style="stroke:#181818;stroke-width:0.5;" x1="1351.5" x2="1450.5" y1="1018" y2="1018"/><text fill="#000000" font-family="sans-serif" font-size="14" lengthAdjust="spacing" textLength="89" x="1356.5" y="1037.1074">-name : String</text><line style="stroke:#181818;stroke-width:0.5;" x1="1351.5" x2="1450.5" y1="1044.6211" y2="1044.6211"/><text fill="#000000" font-family="sans-serif" font-size="14" lengthAdjust="spacing" textLength="78" x="1356.5" y="1063.7285">+Skill(name)</text></g><!--link GenerateTeamProposalUI to GenerateTeamProposalController--><g id="link_GenerateTeamProposalUI_GenerateTeamProposalController"><path codeLine="85" d="M480.38,77.5 C494.64,77.5 501.26,77.5 509.47,77.5 " fill="none" id="GenerateTeamProposalUI-to-GenerateTeamProposalController" style="stroke:#181818;stroke-width:1.0;stroke-dasharray:7.0,7.0;"/><polygon fill="#181818" points="515.47,77.5,506.47,73.5,510.47,77.5,506.47,81.5,515.47,77.5" style="stroke:#181818;stroke-width:1.0;"/></g><!--link GenerateTeamProposalController to Repositories--><g id="link_GenerateTeamProposalController_Repositories"><path codeLine="86" d="M1108.52,77.5 C1145.55,77.5 1175.11,77.5 1205.79,77.5 " fill="none" id="GenerateTeamProposalController-to-Repositories" style="stroke:#181818;stroke-width:1.0;stroke-dasharray:7.0,7.0;"/><polygon fill="#181818" points="1211.79,77.5,1202.79,73.5,1206.79,77.5,1202.79,81.5,1211.79,77.5" style="stroke:#181818;stroke-width:1.0;"/><text fill="#000000" font-family="sans-serif" font-size="13" lengthAdjust="spacing" textLength="67" x="1126.75" y="70.5283">repositories</text></g><!--link Repositories to Repositories--><g id="link_Repositories_Repositories"><path codeLine="87" d="M1408.02,59.41 C1428.37,61.31 1443,67.34 1443,77.5 C1443,87.66 1434.344,93.1322 1413.994,95.0322 " fill="none" id="Repositories-to-Repositories" style="stroke:#181818;stroke-width:1.0;"/><polygon fill="#181818" points="1408.02,95.59,1417.3529,98.736,1412.9983,95.1252,1416.6092,90.7707,1408.02,95.59" style="stroke:#181818;stroke-width:1.0;"/><text fill="#000000" font-family="sans-serif" font-size="13" lengthAdjust="spacing" textLength="49" x="1449" y="83.0283">instance</text></g><!--link Repositories to SkillRepository--><g id="link_Repositories_SkillRepository"><path codeLine="89" d="M1408.16,141.51 C1438.92,161.26 1465,178 1465,178 C1465,178 1504,209 1504,209 C1504,209 1512.3594,286.8443 1516.8594,328.7543 " fill="none" id="Repositories-to-SkillRepository" style="stroke:#181818;stroke-width:1.0;"/><polygon fill="#181818" points="1517.5,334.72,1520.5163,325.3444,1516.9662,329.7486,1512.562,326.1985,1517.5,334.72" style="stroke:#181818;stroke-width:1.0;"/><text fill="#000000" font-family="sans-serif" font-size="13" lengthAdjust="spacing" textLength="7" x="1509.0375" y="323.7937">1</text></g><!--link Repositories to CollaboratorRepository--><g id="link_Repositories_CollaboratorRepository"><path codeLine="90" d="M1399.9,148.33 C1439.85,179.36 1478,209 1478,209 C1478,209 1478,228 1478,228 C1478,228 1404.0546,293.3952 1361.7746,330.7852 " fill="none" id="Repositories-to-CollaboratorRepository" style="stroke:#181818;stroke-width:1.0;"/><polygon fill="#181818" points="1357.28,334.76,1366.6717,331.7943,1361.0255,331.4477,1361.372,325.8015,1357.28,334.76" style="stroke:#181818;stroke-width:1.0;"/><text fill="#000000" font-family="sans-serif" font-size="13" lengthAdjust="spacing" textLength="7" x="1355.8326" y="323.8434">1</text></g><!--link Repositories to TeamProposalRepository--><g id="link_Repositories_TeamProposalRepository"><path codeLine="91" d="M1281.93,148.44 C1266.32,187.34 1250,228 1250,228 C1250,228 1173.1278,267.8106 1102.8078,304.2306 " fill="none" id="Repositories-to-TeamProposalRepository" style="stroke:#181818;stroke-width:1.0;"/><polygon fill="#181818" points="1097.48,306.99,1107.3113,306.4028,1101.9199,304.6905,1103.6322,299.299,1097.48,306.99" style="stroke:#181818;stroke-width:1.0;"/><text fill="#000000" font-family="sans-serif" font-size="13" lengthAdjust="spacing" textLength="7" x="1103.2429" y="295.916">1</text></g><!--link Repositories to TeamRepository--><g id="link_Repositories_TeamRepository"><path codeLine="92" d="M1211.81,126.01 C1121.33,169.78 1001,228 1001,228 C1001,228 805.3264,292.7256 690.8764,330.5856 " fill="none" id="Repositories-to-TeamRepository" style="stroke:#181818;stroke-width:1.0;"/><polygon fill="#181818" points="685.18,332.47,694.9809,333.4411,689.927,330.8997,692.4684,325.8458,685.18,332.47" style="stroke:#181818;stroke-width:1.0;"/><text fill="#000000" font-family="sans-serif" font-size="13" lengthAdjust="spacing" textLength="7" x="693.1219" y="326.0711">1</text></g><!--link GenerateTeamProposalController to SkillRepository--><g id="link_GenerateTeamProposalController_SkillRepository"><path codeLine="94" d="M1037.97,148.05 C1139.11,179.18 1236,209 1236,209 C1236,209 1438,307 1438,307 C1438,307 1456.0454,318.2206 1477.7454,331.7206 " fill="none" id="GenerateTeamProposalController-to-SkillRepository" style="stroke:#181818;stroke-width:1.0;stroke-dasharray:7.0,7.0;"/><polygon fill="#181818" points="1482.84,334.89,1477.3111,326.7395,1478.5945,332.2488,1473.0852,333.5322,1482.84,334.89" style="stroke:#181818;stroke-width:1.0;"/><text fill="#000000" font-family="sans-serif" font-size="13" lengthAdjust="spacing" textLength="85" x="1275" y="224.0283">skillRepository</text></g><!--link GenerateTeamProposalController to CollaboratorRepository--><g id="link_GenerateTeamProposalController_CollaboratorRepository"><path codeLine="95" d="M946.48,148.14 C1006.53,179.24 1064,209 1064,209 C1064,209 1209.3407,290.1061 1284.3307,331.9561 " fill="none" id="GenerateTeamProposalController-to-CollaboratorRepository" style="stroke:#181818;stroke-width:1.0;stroke-dasharray:7.0,7.0;"/><polygon fill="#181818" points="1289.57,334.88,1283.6603,327.0012,1285.2039,332.4434,1279.7617,333.987,1289.57,334.88" style="stroke:#181818;stroke-width:1.0;"/><text fill="#000000" font-family="sans-serif" font-size="13" lengthAdjust="spacing" textLength="129" x="1098" y="224.0283">collaboratorRepository</text></g><!--link GenerateTeamProposalController to TeamRepository--><g id="link_GenerateTeamProposalController_TeamRepository"><path codeLine="96" d="M709,148.14 C663.01,179.24 619,209 619,209 C619,209 615.4115,257.6363 612.2315,300.7363 " fill="none" id="GenerateTeamProposalController-to-TeamRepository" style="stroke:#181818;stroke-width:1.0;stroke-dasharray:7.0,7.0;"/><polygon fill="#181818" points="611.79,306.72,616.4414,298.0387,612.1579,301.7336,608.4631,297.4501,611.79,306.72" style="stroke:#181818;stroke-width:1.0;"/><text fill="#000000" font-family="sans-serif" font-size="13" lengthAdjust="spacing" textLength="91" x="620" y="224.0283">teamRepository</text></g><!--link GenerateTeamProposalController to TeamProposalRepository--><g id="link_GenerateTeamProposalController_TeamProposalRepository"><path codeLine="97" d="M858.71,148.31 C891.59,197.46 931.554,257.1829 961.294,301.6429 " fill="none" id="GenerateTeamProposalController-to-TeamProposalRepository" style="stroke:#181818;stroke-width:1.0;stroke-dasharray:7.0,7.0;"/><polygon fill="#181818" points="964.63,306.63,962.9508,296.9253,961.85,302.4741,956.3013,301.3733,964.63,306.63" style="stroke:#181818;stroke-width:1.0;"/><text fill="#000000" font-family="sans-serif" font-size="13" lengthAdjust="spacing" textLength="142" x="913" y="224.0283">teamProposalRepository</text></g><!--link HRM to Team--><g id="link_HRM_Team"><path codeLine="99" d="M280.74,401.7 C329.92,433.38 392.2154,473.5016 441.3654,505.1516 " fill="none" id="HRM-to-Team" style="stroke:#181818;stroke-width:1.0;"/><polygon fill="#181818" points="446.41,508.4,441.0088,500.1643,442.2062,505.693,436.6775,506.8904,446.41,508.4" style="stroke:#181818;stroke-width:1.0;"/><text fill="#000000" font-family="sans-serif" font-size="13" lengthAdjust="spacing" textLength="43" x="365" y="456.0283">creates</text><text fill="#000000" font-family="sans-serif" font-size="13" lengthAdjust="spacing" textLength="7" x="283.5001" y="423.8922">1</text><text fill="#000000" font-family="sans-serif" font-size="13" lengthAdjust="spacing" textLength="5" x="430.7175" y="497.2881">*</text></g><!--reverse link Team to Collaborator--><g id="link_Team_Collaborator"><path codeLine="100" d="M624.1459,591.9338 C660.3559,604.7138 681,612 681,612 C681,612 920.19,686.02 1096.78,740.68 " fill="none" id="Team-backto-Collaborator" style="stroke:#181818;stroke-width:1.0;"/><polygon fill="none" points="612.83,587.94,617.1567,593.7089,624.1459,591.9338,619.8192,586.165,612.83,587.94" style="stroke:#181818;stroke-width:1.0;"/><text fill="#000000" font-family="sans-serif" font-size="13" lengthAdjust="spacing" textLength="21" x="828" y="657.0283">has</text><text fill="#000000" font-family="sans-serif" font-size="13" lengthAdjust="spacing" textLength="5" x="1083.8606" y="734.9041">*</text></g><!--reverse link Collaborator to Skill--><g id="link_Collaborator_Skill"><path codeLine="101" d="M1343.5801,917.7241 C1358.2201,945.7241 1367.6,963.64 1379.24,985.9 " fill="none" id="Collaborator-backto-Skill" style="stroke:#181818;stroke-width:1.0;"/><polygon fill="none" points="1338.02,907.09,1337.2554,914.2604,1343.5801,917.7241,1344.3448,910.5537,1338.02,907.09" style="stroke:#181818;stroke-width:1.0;"/><text fill="#000000" font-family="sans-serif" font-size="13" lengthAdjust="spacing" textLength="21" x="1363" y="952.0283">has</text><text fill="#000000" font-family="sans-serif" font-size="13" lengthAdjust="spacing" textLength="5" x="1370.3736" y="974.7881">*</text></g><!--link GenerateTeamProposalController to TeamProposal--><g id="link_GenerateTeamProposalController_TeamProposal"><path codeLine="103" d="M800.39,148.3 C789.22,215.5 774,307 774,307 C774,307 774,411 774,411 C774,411 801.5635,447.4824 829.9435,485.0524 " fill="none" id="GenerateTeamProposalController-to-TeamProposal" style="stroke:#181818;stroke-width:1.0;stroke-dasharray:7.0,7.0;"/><polygon fill="#181818" points="833.56,489.84,831.327,480.2476,830.5463,485.8503,824.9435,485.0696,833.56,489.84" style="stroke:#181818;stroke-width:1.0;"/><text fill="#000000" font-family="sans-serif" font-size="13" lengthAdjust="spacing" textLength="80" x="784" y="273.0283">teamProposal</text></g><!--link GenerateTeamProposalController to Team--><g id="link_GenerateTeamProposalController_Team"><path codeLine="104" d="M702.81,148.15 C676.59,164.87 656,178 656,178 C656,178 610,209 610,209 C610,209 513,307 513,307 C513,307 511.9701,432.7502 511.3901,502.2302 " fill="none" id="GenerateTeamProposalController-to-Team" style="stroke:#181818;stroke-width:1.0;stroke-dasharray:7.0,7.0;"/><polygon fill="#181818" points="511.34,508.23,515.415,499.2637,511.3817,503.2302,507.4153,499.1969,511.34,508.23" style="stroke:#181818;stroke-width:1.0;"/><text fill="#000000" font-family="sans-serif" font-size="13" lengthAdjust="spacing" textLength="29" x="563" y="273.0283">team</text></g><!--link SkillRepository to Skill--><g id="link_SkillRepository_Skill"><path codeLine="105" d="M1518.52,383.15 C1511.86,487.27 1485,907 1485,907 C1485,907 1457.8313,945.968 1433.5713,980.768 " fill="none" id="SkillRepository-to-Skill" style="stroke:#181818;stroke-width:1.0;"/><polygon fill="#181818" points="1430.14,985.69,1438.5683,980.5945,1432.9994,981.5883,1432.0056,976.0194,1430.14,985.69" style="stroke:#181818;stroke-width:1.0;"/><text fill="#000000" font-family="sans-serif" font-size="13" lengthAdjust="spacing" textLength="21" x="1502" y="657.0283">has</text></g><!--link CollaboratorRepository to Collaborator--><g id="link_CollaboratorRepository_Collaborator"><path codeLine="106" d="M1328.4,383.24 C1322.07,439.83 1306.1973,581.7372 1294.6773,684.6772 " fill="none" id="CollaboratorRepository-to-Collaborator" style="stroke:#181818;stroke-width:1.0;"/><polygon fill="#181818" points="1294.01,690.64,1298.9861,682.1407,1294.5661,685.671,1291.0358,681.251,1294.01,690.64" style="stroke:#181818;stroke-width:1.0;"/><text fill="#000000" font-family="sans-serif" font-size="13" lengthAdjust="spacing" textLength="21" x="1317" y="556.5283">has</text></g><!--link TeamRepository to Team--><g id="link_TeamRepository_Team"><path codeLine="107" d="M581.88,411.17 C566.33,441.61 549.588,474.406 534.988,503.006 " fill="none" id="TeamRepository-to-Team" style="stroke:#181818;stroke-width:1.0;"/><polygon fill="#181818" points="532.26,508.35,539.9147,502.1528,534.5334,503.8967,532.7894,498.5154,532.26,508.35" style="stroke:#181818;stroke-width:1.0;"/><text fill="#000000" font-family="sans-serif" font-size="13" lengthAdjust="spacing" textLength="21" x="567" y="456.0283">has</text></g><!--link TeamProposalRepository to TeamProposal--><g id="link_TeamProposalRepository_TeamProposal"><path codeLine="108" d="M966.68,411.17 C951.34,435.46 936.1134,459.5667 920.1134,484.9067 " fill="none" id="TeamProposalRepository-to-TeamProposal" style="stroke:#181818;stroke-width:1.0;"/><polygon fill="#181818" points="916.91,489.98,925.0972,484.5056,919.5795,485.7522,918.3328,480.2345,916.91,489.98" style="stroke:#181818;stroke-width:1.0;"/><text fill="#000000" font-family="sans-serif" font-size="13" lengthAdjust="spacing" textLength="21" x="947" y="456.0283">has</text></g><!--SRC=[fLRBRjim4BppAuXSBDTIqLw58a2G0As1fYZYzDOBBQrb8dmO9DtMBVhl9VKaQKbncfpCtTdbpgmqoa8_KN4WYd3CfP35NaaEsAWZe25p8CKJgM1ZJWomWi8GKJ4VeFUab3-fgF2ECErd61LWJWV01ybExe0M8qcfZ4HULS68rZV6ABez6bWNKcpeRy3l45ems1bi95QqsXjSKZSEbGAXkWP_UhZ7Vn2sVoltErcsloiGe8Y1Ho3ygv87gGbBE1MK7xdhdM9EVda7u5jGUed-Teq_ZZIubS8eoHYe_ivvM68fClO0DaoDLASK5pPEjjAMIEN7ZQqVpXqBHhNPk1Qw9rRifTHmtypRzDUl9TrsLj3M9iPhK6io8ygtjHMZbwtdG46t8cL1qDkGMGjj7wq2aYNE0z00sOG2-jMterBwYCT0L9iPvepwsb67t7ZZ0E8B440QmgzPH8P_44RBk3fSIGCaPJc32OOT6RAjhgl6hWuIpSCnTqCNxljxVErwgJ1TVA0UnXiLREn6ANBwR9_z3_ughjl5_lShxGhxwNmczah_wDqpHTYVgsyf27UCDjR6HDN6jbIPlLCqJf2IKwsjazqHGywJfGAjux3rHKCA-zhiPA0SBUzaSUGWpADprwXgo7uvEacyqbL09744qc7aD1moxSPAyNVXZP96zwTdDowZzsv6iLM3g4UfooOiv-trCzQBdZ5mso3mgjn-w3m32d9PTWQchNMX66cXL- -lOd-PG8qxpGHut7Dcm1xe0ZLYHynnzF6weCU4S-OJdxqBEaRUbKSVoWixZ5Xr-ChxKhb_APo4jPHl6YaTXTe1DQgFM6PPdGoC8CTxeb4Gwe7DWzyWNZXrR4-NLRTLADwhe-KFCx4p1niX5-t3eThBkko8rXtA8rJBy0y0]--></g></svg>