<?xml version="1.0" encoding="us-ascii" standalone="no"?><svg xmlns="http://www.w3.org/2000/svg" xmlns:xlink="http://www.w3.org/1999/xlink" contentStyleType="text/css" height="739px" preserveAspectRatio="none" style="width:1532px;height:739px;background:#FFFFFF;" version="1.1" viewBox="0 0 1532 739" width="1532px" zoomAndPan="magnify"><defs/><g><rect fill="#FFFFFF" height="574.2676" style="stroke:#181818;stroke-width:1.0;" width="10" x="468" y="90.5332"/><rect fill="#FFFFFF" height="31.291" style="stroke:#181818;stroke-width:1.0;" width="10" x="640.5" y="148.1152"/><rect fill="#FFFFFF" height="31.291" style="stroke:#181818;stroke-width:1.0;" width="10" x="745.5" y="210.6973"/><rect fill="#FFFFFF" height="400.5215" style="stroke:#181818;stroke-width:1.0;" width="10" x="957" y="273.2793"/><rect fill="#FFFFFF" height="80.582" style="stroke:#181818;stroke-width:1.0;" width="10" x="962" y="545.9277"/><rect fill="#FFFFFF" height="36.291" style="stroke:#181818;stroke-width:1.0;" width="10" x="967" y="590.2188"/><rect fill="#FFFFFF" height="129.8242" style="stroke:#181818;stroke-width:1.0;" width="10" x="1279" y="314.5703"/><rect fill="#FFFFFF" height="43.291" style="stroke:#181818;stroke-width:1.0;" width="10" x="1284" y="401.1035"/><rect fill="none" height="528.9766" style="stroke:#000000;stroke-width:1.5;" width="1179" x="347" y="105.5332"/><rect fill="none" height="63.582" style="stroke:#000000;stroke-width:1.5;" width="268" x="1226" y="350.5215"/><line style="stroke:#181818;stroke-width:0.5;stroke-dasharray:5.0,5.0;" x1="473" x2="473" y1="57.2422" y2="682.8008"/><line style="stroke:#181818;stroke-width:0.5;stroke-dasharray:5.0,5.0;" x1="645" x2="645" y1="57.2422" y2="682.8008"/><line style="stroke:#181818;stroke-width:0.5;stroke-dasharray:5.0,5.0;" x1="750" x2="750" y1="57.2422" y2="682.8008"/><line style="stroke:#181818;stroke-width:0.5;stroke-dasharray:5.0,5.0;" x1="962" x2="962" y1="57.2422" y2="682.8008"/><line style="stroke:#181818;stroke-width:0.5;stroke-dasharray:5.0,5.0;" x1="1284" x2="1284" y1="322.4004" y2="682.8008"/><line style="stroke:#181818;stroke-width:0.5;stroke-dasharray:5.0,5.0;" x1="1489" x2="1489" y1="493.5156" y2="682.8008"/><rect fill="#E3E3E3" height="32.6211" rx="2.5" ry="2.5" style="stroke:#181818;stroke-width:0.5;" width="232" x="357" y="23.6211"/><text fill="#000000" font-family="sans-serif" font-size="14" lengthAdjust="spacing" textLength="218" x="364" y="45.7285">:GenerateTeamProposalController</text><rect fill="#E3E3E3" height="32.6211" rx="2.5" ry="2.5" style="stroke:#181818;stroke-width:0.5;" width="232" x="357" y="681.8008"/><text fill="#000000" font-family="sans-serif" font-size="14" lengthAdjust="spacing" textLength="218" x="364" y="703.9082">:GenerateTeamProposalController</text><rect fill="#E3E3E3" height="32.6211" rx="2.5" ry="2.5" style="stroke:#181818;stroke-width:0.5;" width="93" x="599" y="23.6211"/><text fill="#000000" font-family="sans-serif" font-size="14" lengthAdjust="spacing" textLength="79" x="606" y="45.7285">Repositories</text><rect fill="#E3E3E3" height="32.6211" rx="2.5" ry="2.5" style="stroke:#181818;stroke-width:0.5;" width="93" x="599" y="681.8008"/><text fill="#000000" font-family="sans-serif" font-size="14" lengthAdjust="spacing" textLength="79" x="606" y="703.9082">Repositories</text><rect fill="#E3E3E3" height="51.2422" rx="2.5" ry="2.5" style="stroke:#181818;stroke-width:0.5;" width="97" x="702" y="5"/><text fill="#000000" font-family="sans-serif" font-size="14" lengthAdjust="spacing" textLength="74" x="713.5" y="27.1074">repositories</text><text fill="#000000" font-family="sans-serif" font-size="14" lengthAdjust="spacing" textLength="83" x="709" y="45.7285">:Repositories</text><rect fill="#E3E3E3" height="51.2422" rx="2.5" ry="2.5" style="stroke:#181818;stroke-width:0.5;" width="97" x="702" y="681.8008"/><text fill="#000000" font-family="sans-serif" font-size="14" lengthAdjust="spacing" textLength="74" x="713.5" y="703.9082">repositories</text><text fill="#000000" font-family="sans-serif" font-size="14" lengthAdjust="spacing" textLength="83" x="709" y="722.5293">:Repositories</text><rect fill="#E3E3E3" height="51.2422" rx="2.5" ry="2.5" style="stroke:#181818;stroke-width:0.5;" width="122" x="901" y="5"/><text fill="#000000" font-family="sans-serif" font-size="14" lengthAdjust="spacing" textLength="99" x="912.5" y="27.1074">teamRepository</text><text fill="#000000" font-family="sans-serif" font-size="14" lengthAdjust="spacing" textLength="108" x="908" y="45.7285">:TeamRepository</text><rect fill="#E3E3E3" height="51.2422" rx="2.5" ry="2.5" style="stroke:#181818;stroke-width:0.5;" width="122" x="901" y="681.8008"/><text fill="#000000" font-family="sans-serif" font-size="14" lengthAdjust="spacing" textLength="99" x="912.5" y="703.9082">teamRepository</text><text fill="#000000" font-family="sans-serif" font-size="14" lengthAdjust="spacing" textLength="108" x="908" y="722.5293">:TeamRepository</text><rect fill="#E3E3E3" height="51.2422" rx="2.5" ry="2.5" style="stroke:#181818;stroke-width:0.5;" width="96" x="1236" y="681.8008"/><text fill="#000000" font-family="sans-serif" font-size="14" lengthAdjust="spacing" textLength="75" x="1246.5" y="703.9082">collaborator</text><text fill="#000000" font-family="sans-serif" font-size="14" lengthAdjust="spacing" textLength="82" x="1243" y="722.5293">:Collaborator</text><rect fill="#E3E3E3" height="51.2422" rx="2.5" ry="2.5" style="stroke:#181818;stroke-width:0.5;" width="54" x="1462" y="681.8008"/><text fill="#000000" font-family="sans-serif" font-size="14" lengthAdjust="spacing" textLength="31" x="1473.5" y="703.9082">team</text><text fill="#000000" font-family="sans-serif" font-size="14" lengthAdjust="spacing" textLength="40" x="1469" y="722.5293">:Team</text><rect fill="#FFFFFF" height="574.2676" style="stroke:#181818;stroke-width:1.0;" width="10" x="468" y="90.5332"/><rect fill="#FFFFFF" height="31.291" style="stroke:#181818;stroke-width:1.0;" width="10" x="640.5" y="148.1152"/><rect fill="#FFFFFF" height="31.291" style="stroke:#181818;stroke-width:1.0;" width="10" x="745.5" y="210.6973"/><rect fill="#FFFFFF" height="400.5215" style="stroke:#181818;stroke-width:1.0;" width="10" x="957" y="273.2793"/><rect fill="#FFFFFF" height="80.582" style="stroke:#181818;stroke-width:1.0;" width="10" x="962" y="545.9277"/><rect fill="#FFFFFF" height="36.291" style="stroke:#181818;stroke-width:1.0;" width="10" x="967" y="590.2188"/><rect fill="#FFFFFF" height="129.8242" style="stroke:#181818;stroke-width:1.0;" width="10" x="1279" y="314.5703"/><rect fill="#FFFFFF" height="43.291" style="stroke:#181818;stroke-width:1.0;" width="10" x="1284" y="401.1035"/><polygon fill="#181818" points="456,86.5332,466,90.5332,456,94.5332,460,90.5332" style="stroke:#181818;stroke-width:1.0;"/><line style="stroke:#181818;stroke-width:1.0;" x1="0" x2="462" y1="90.5332" y2="90.5332"/><text fill="#000000" font-family="sans-serif" font-size="13" font-weight="bold" lengthAdjust="spacing" textLength="14" x="7" y="85.2705">13</text><text fill="#000000" font-family="sans-serif" font-size="13" lengthAdjust="spacing" textLength="431" x="25" y="85.2705">generateTeamProposal(minimumSize, maximumSize, skills, collaborators)</text><path d="M347,105.5332 L551,105.5332 L551,114.8242 L541,124.8242 L347,124.8242 L347,105.5332 " fill="#EEEEEE" style="stroke:#000000;stroke-width:1.5;"/><rect fill="none" height="528.9766" style="stroke:#000000;stroke-width:1.5;" width="1179" x="347" y="105.5332"/><text fill="#000000" font-family="sans-serif" font-size="13" font-weight="bold" lengthAdjust="spacing" textLength="159" x="362" y="120.5615">Generate Team Proposal</text><polygon fill="#181818" points="628.5,144.1152,638.5,148.1152,628.5,152.1152,632.5,148.1152" style="stroke:#181818;stroke-width:1.0;"/><line style="stroke:#181818;stroke-width:1.0;" x1="478" x2="634.5" y1="148.1152" y2="148.1152"/><text fill="#000000" font-family="sans-serif" font-size="13" font-weight="bold" lengthAdjust="spacing" textLength="25" x="485" y="142.8525">13.1</text><text fill="#000000" font-family="sans-serif" font-size="13" lengthAdjust="spacing" textLength="75" x="514" y="142.8525">getInstance()</text><polygon fill="#181818" points="489,175.4063,479,179.4063,489,183.4063,485,179.4063" style="stroke:#181818;stroke-width:1.0;"/><line style="stroke:#181818;stroke-width:1.0;stroke-dasharray:2.0,2.0;" x1="483" x2="644.5" y1="179.4063" y2="179.4063"/><text fill="#000000" font-family="sans-serif" font-size="13" font-weight="bold" lengthAdjust="spacing" textLength="25" x="495" y="174.1436">13.2</text><text fill="#000000" font-family="sans-serif" font-size="13" lengthAdjust="spacing" textLength="67" x="524" y="174.1436">repositories</text><polygon fill="#181818" points="733.5,206.6973,743.5,210.6973,733.5,214.6973,737.5,210.6973" style="stroke:#181818;stroke-width:1.0;"/><line style="stroke:#181818;stroke-width:1.0;" x1="478" x2="739.5" y1="210.6973" y2="210.6973"/><text fill="#000000" font-family="sans-serif" font-size="13" font-weight="bold" lengthAdjust="spacing" textLength="25" x="485" y="205.4346">13.3</text><text fill="#000000" font-family="sans-serif" font-size="13" lengthAdjust="spacing" textLength="171" x="514" y="205.4346">getTeamProposalRepository()</text><polygon fill="#181818" points="489,237.9883,479,241.9883,489,245.9883,485,241.9883" style="stroke:#181818;stroke-width:1.0;"/><line style="stroke:#181818;stroke-width:1.0;stroke-dasharray:2.0,2.0;" x1="483" x2="749.5" y1="241.9883" y2="241.9883"/><text fill="#000000" font-family="sans-serif" font-size="13" font-weight="bold" lengthAdjust="spacing" textLength="25" x="495" y="236.7256">13.4</text><text fill="#000000" font-family="sans-serif" font-size="13" lengthAdjust="spacing" textLength="142" x="524" y="236.7256">teamProposalRepository</text><polygon fill="#181818" points="945,269.2793,955,273.2793,945,277.2793,949,273.2793" style="stroke:#181818;stroke-width:1.0;"/><line style="stroke:#181818;stroke-width:1.0;" x1="478" x2="951" y1="273.2793" y2="273.2793"/><text fill="#000000" font-family="sans-serif" font-size="13" font-weight="bold" lengthAdjust="spacing" textLength="25" x="485" y="268.0166">13.5</text><text fill="#000000" font-family="sans-serif" font-size="13" lengthAdjust="spacing" textLength="431" x="514" y="268.0166">generateTeamProposal(minimumSize, maximumSize, skills, collaborators)</text><polygon fill="#181818" points="1224,300.5703,1234,304.5703,1224,308.5703,1228,304.5703" style="stroke:#181818;stroke-width:1.0;"/><line style="stroke:#181818;stroke-width:1.0;" x1="967" x2="1230" y1="304.5703" y2="304.5703"/><text fill="#000000" font-family="sans-serif" font-size="13" font-weight="bold" lengthAdjust="spacing" textLength="25" x="974" y="299.3076">13.6</text><text fill="#000000" font-family="sans-serif" font-size="13" lengthAdjust="spacing" textLength="216" x="1003" y="299.3076">chooseMembers(collaborators, skills)</text><rect fill="#E3E3E3" height="51.2422" rx="2.5" ry="2.5" style="stroke:#181818;stroke-width:0.5;" width="96" x="1236" y="281.2793"/><text fill="#000000" font-family="sans-serif" font-size="14" lengthAdjust="spacing" textLength="75" x="1246.5" y="303.3867">collaborator</text><text fill="#000000" font-family="sans-serif" font-size="14" lengthAdjust="spacing" textLength="82" x="1243" y="322.0078">:Collaborator</text><path d="M1226,350.5215 L1299,350.5215 L1299,359.8125 L1289,369.8125 L1226,369.8125 L1226,350.5215 " fill="#EEEEEE" style="stroke:#000000;stroke-width:1.5;"/><rect fill="none" height="63.582" style="stroke:#000000;stroke-width:1.5;" width="268" x="1226" y="350.5215"/><text fill="#000000" font-family="sans-serif" font-size="13" font-weight="bold" lengthAdjust="spacing" textLength="28" x="1241" y="365.5498">loop</text><line style="stroke:#181818;stroke-width:1.0;" x1="1289" x2="1336" y1="388.1035" y2="388.1035"/><line style="stroke:#181818;stroke-width:1.0;" x1="1336" x2="1336" y1="388.1035" y2="401.1035"/><line style="stroke:#181818;stroke-width:1.0;" x1="1295" x2="1336" y1="401.1035" y2="401.1035"/><polygon fill="#181818" points="1305,397.1035,1295,401.1035,1305,405.1035,1301,401.1035" style="stroke:#181818;stroke-width:1.0;"/><text fill="#000000" font-family="sans-serif" font-size="13" font-weight="bold" lengthAdjust="spacing" textLength="25" x="1301" y="382.8408">13.7</text><text fill="#000000" font-family="sans-serif" font-size="13" lengthAdjust="spacing" textLength="152" x="1330" y="382.8408">analyseCollaborator(skills)</text><polygon fill="#181818" points="978,440.3945,968,444.3945,978,448.3945,974,444.3945" style="stroke:#181818;stroke-width:1.0;"/><line style="stroke:#181818;stroke-width:1.0;stroke-dasharray:2.0,2.0;" x1="972" x2="1283" y1="444.3945" y2="444.3945"/><text fill="#000000" font-family="sans-serif" font-size="13" font-weight="bold" lengthAdjust="spacing" textLength="25" x="984" y="439.1318">13.8</text><text fill="#000000" font-family="sans-serif" font-size="13" lengthAdjust="spacing" textLength="54" x="1013" y="439.1318">members</text><polygon fill="#181818" points="1450,471.6855,1460,475.6855,1450,479.6855,1454,475.6855" style="stroke:#181818;stroke-width:1.0;"/><line style="stroke:#181818;stroke-width:1.0;" x1="967" x2="1456" y1="475.6855" y2="475.6855"/><text fill="#000000" font-family="sans-serif" font-size="13" font-weight="bold" lengthAdjust="spacing" textLength="25" x="974" y="470.4229">13.9</text><text fill="#000000" font-family="sans-serif" font-size="13" lengthAdjust="spacing" textLength="373" x="1003" y="470.4229">generateTeamProposal(minimumSize, maximumSize, members)</text><rect fill="#E3E3E3" height="51.2422" rx="2.5" ry="2.5" style="stroke:#181818;stroke-width:0.5;" width="54" x="1462" y="452.3945"/><text fill="#000000" font-family="sans-serif" font-size="14" lengthAdjust="spacing" textLength="31" x="1473.5" y="474.502">team</text><text fill="#000000" font-family="sans-serif" font-size="14" lengthAdjust="spacing" textLength="40" x="1469" y="493.123">:Team</text><line style="stroke:#181818;stroke-width:1.0;" x1="967" x2="1014" y1="532.9277" y2="532.9277"/><line style="stroke:#181818;stroke-width:1.0;" x1="1014" x2="1014" y1="532.9277" y2="545.9277"/><line style="stroke:#181818;stroke-width:1.0;" x1="973" x2="1014" y1="545.9277" y2="545.9277"/><polygon fill="#181818" points="983,541.9277,973,545.9277,983,549.9277,979,545.9277" style="stroke:#181818;stroke-width:1.0;"/><text fill="#000000" font-family="sans-serif" font-size="13" font-weight="bold" lengthAdjust="spacing" textLength="32" x="979" y="527.665">13.10</text><text fill="#000000" font-family="sans-serif" font-size="13" lengthAdjust="spacing" textLength="90" x="1015" y="527.665">addTeam(team)</text><line style="stroke:#181818;stroke-width:1.0;" x1="972" x2="1019" y1="577.2188" y2="577.2188"/><line style="stroke:#181818;stroke-width:1.0;" x1="1019" x2="1019" y1="577.2188" y2="590.2188"/><line style="stroke:#181818;stroke-width:1.0;" x1="978" x2="1019" y1="590.2188" y2="590.2188"/><polygon fill="#181818" points="988,586.2188,978,590.2188,988,594.2188,984,590.2188" style="stroke:#181818;stroke-width:1.0;"/><text fill="#000000" font-family="sans-serif" font-size="13" font-weight="bold" lengthAdjust="spacing" textLength="32" x="984" y="571.9561">13.11</text><text fill="#000000" font-family="sans-serif" font-size="13" lengthAdjust="spacing" textLength="112" x="1020" y="571.9561">validateTeam(team)</text><polygon fill="#181818" points="489,622.5098,479,626.5098,489,630.5098,485,626.5098" style="stroke:#181818;stroke-width:1.0;"/><line style="stroke:#181818;stroke-width:1.0;stroke-dasharray:2.0,2.0;" x1="483" x2="956" y1="626.5098" y2="626.5098"/><text fill="#000000" font-family="sans-serif" font-size="13" font-weight="bold" lengthAdjust="spacing" textLength="32" x="495" y="621.2471">13.12</text><text fill="#000000" font-family="sans-serif" font-size="13" lengthAdjust="spacing" textLength="29" x="531" y="621.2471">team</text><polygon fill="#181818" points="11,660.8008,1,664.8008,11,668.8008,7,664.8008" style="stroke:#181818;stroke-width:1.0;"/><line style="stroke:#181818;stroke-width:1.0;stroke-dasharray:2.0,2.0;" x1="5" x2="472" y1="664.8008" y2="664.8008"/><text fill="#000000" font-family="sans-serif" font-size="13" font-weight="bold" lengthAdjust="spacing" textLength="14" x="17" y="659.5381">14</text><text fill="#000000" font-family="sans-serif" font-size="13" lengthAdjust="spacing" textLength="29" x="35" y="659.5381">team</text><!--SRC=[hLJBRjim4BphAnOvoK4S86XFGb4WDOoYW8CQZe-zRAIjJ8GFWQJIkbzVadgOZEGOBSAJkDoT6UwiQ9wPR52Z0A6aAWzQ2GAhMyhCUD9W-OmrFTeZ9z1KMfGrZnFC0IlrYyaQVY8tb6KkR5d96fGMhegl94cZfJsXs6hLA8DyfQJLYdFILu06LllT9gdQaKjZLcb69eNJqSaFMSI90MgttgO5rj6EMKTNiay2eMY_ld-O59PE7puf9rrfLxQAjftexvlD_PSfMKyHSlm-ox2rIhRYYJJSVSYMdyDzeO1wfZEvO9A9LZooFtG30d-VDgxZd9iRY8MPnIluspiNA2rxSRXTNy6jMgksWS49y8GmC6OXmwyWoycBc-fLsc_IEDTBoXTZxiYHM3KU-nMVmBA_TW6nWsD-HHS0HsthRP0Kz-pavgn0PsogQxsDvDXPe5bXCT2Wfn-Tzp9peduOpUG6VT3pTrDuVLr0UL3Aq0FvGJ1vWZlGBHAKqvXqavmSSgMQD19k7J9Fl0MWH7uq5FyT-HpPHKAIrLcwkC-Yk-0aDp9g3lx2STHHFn2-d_zeQAzhCMrQX3rykhvLbGVEFTiRdPgr_ope2t9MzPB_2tb4JNwFxArcdrKuazFxt3r7NKNyU7qCaK_BvV10TkInTVv1o_u2]--></g></svg>