<?xml version="1.0" encoding="us-ascii" standalone="no"?><svg xmlns="http://www.w3.org/2000/svg" xmlns:xlink="http://www.w3.org/1999/xlink" contentStyleType="text/css" height="992px" preserveAspectRatio="none" style="width:1520px;height:992px;background:#FFFFFF;" version="1.1" viewBox="0 0 1520 992" width="1520px" zoomAndPan="magnify"><defs/><g><!--class HRM--><g id="elem_HRM"><rect codeLine="11" fill="#F1F1F1" height="85.2422" id="HRM" rx="2.5" ry="2.5" style="stroke:#181818;stroke-width:0.5;" width="269" x="119.5" y="257.7627"/><ellipse cx="234.75" cy="273.7627" fill="#ADD1B2" rx="11" ry="11" style="stroke:#181818;stroke-width:1.0;"/><path d="M237.5156,269.6377 Q237.6719,269.4189 237.8594,269.3096 Q238.0469,269.2002 238.2656,269.2002 Q238.6406,269.2002 238.875,269.4658 Q239.1094,269.7158 239.1094,270.3252 L239.1094,271.7783 Q239.1094,272.3877 238.875,272.6533 Q238.6406,272.9189 238.2656,272.9189 Q237.9219,272.9189 237.7188,272.7158 Q237.5156,272.5283 237.4063,272.0127 Q237.3594,271.6533 237.1719,271.4658 Q236.8438,271.0908 236.2344,270.8721 Q235.625,270.6533 235,270.6533 Q234.2344,270.6533 233.5938,270.9814 Q232.9688,271.3096 232.4688,272.0596 Q231.9844,272.8096 231.9844,273.8408 L231.9844,274.9346 Q231.9844,276.1689 232.875,276.9971 Q233.7656,277.8096 235.3594,277.8096 Q236.2969,277.8096 236.9531,277.5596 Q237.3438,277.4033 237.7656,276.9658 Q238.0313,276.7002 238.1719,276.6221 Q238.3281,276.5439 238.5313,276.5439 Q238.8594,276.5439 239.1094,276.8096 Q239.375,277.0596 239.375,277.4033 Q239.375,277.7471 239.0313,278.1533 Q238.5313,278.7314 237.7344,279.0596 Q236.6563,279.5127 235.3594,279.5127 Q233.8438,279.5127 232.6406,278.8877 Q231.6563,278.3877 230.9688,277.3252 Q230.2813,276.2471 230.2813,274.9658 L230.2813,273.8096 Q230.2813,272.4814 230.8906,271.3408 Q231.5156,270.1846 232.6094,269.5752 Q233.7031,268.9502 234.9375,268.9502 Q235.6719,268.9502 236.3125,269.1221 Q236.9688,269.2783 237.5156,269.6377 Z " fill="#000000"/><text fill="#000000" font-family="sans-serif" font-size="14" lengthAdjust="spacing" textLength="30" x="255.25" y="279.5596">HRM</text><line style="stroke:#181818;stroke-width:0.5;" x1="120.5" x2="387.5" y1="289.7627" y2="289.7627"/><line style="stroke:#181818;stroke-width:0.5;" x1="120.5" x2="387.5" y1="297.7627" y2="297.7627"/><text fill="#000000" font-family="sans-serif" font-size="14" lengthAdjust="spacing" textLength="48" x="125.5" y="316.8701">+HRM()</text><text fill="#000000" font-family="sans-serif" font-size="14" lengthAdjust="spacing" textLength="257" x="125.5" y="335.4912">+generateTeamProposal(size, members)</text></g><!--class GenerateTeamProposalController--><g id="elem_GenerateTeamProposalController"><rect codeLine="16" fill="#F1F1F1" height="141.1055" id="GenerateTeamProposalController" rx="2.5" ry="2.5" style="stroke:#181818;stroke-width:0.5;" width="593" x="238.5" y="55.7627"/><ellipse cx="423.75" cy="71.7627" fill="#ADD1B2" rx="11" ry="11" style="stroke:#181818;stroke-width:1.0;"/><path d="M426.5156,67.6377 Q426.6719,67.4189 426.8594,67.3096 Q427.0469,67.2002 427.2656,67.2002 Q427.6406,67.2002 427.875,67.4658 Q428.1094,67.7158 428.1094,68.3252 L428.1094,69.7783 Q428.1094,70.3877 427.875,70.6533 Q427.6406,70.9189 427.2656,70.9189 Q426.9219,70.9189 426.7188,70.7158 Q426.5156,70.5283 426.4063,70.0127 Q426.3594,69.6533 426.1719,69.4658 Q425.8438,69.0908 425.2344,68.8721 Q424.625,68.6533 424,68.6533 Q423.2344,68.6533 422.5938,68.9814 Q421.9688,69.3096 421.4688,70.0596 Q420.9844,70.8096 420.9844,71.8408 L420.9844,72.9346 Q420.9844,74.1689 421.875,74.9971 Q422.7656,75.8096 424.3594,75.8096 Q425.2969,75.8096 425.9531,75.5596 Q426.3438,75.4033 426.7656,74.9658 Q427.0313,74.7002 427.1719,74.6221 Q427.3281,74.5439 427.5313,74.5439 Q427.8594,74.5439 428.1094,74.8096 Q428.375,75.0596 428.375,75.4033 Q428.375,75.7471 428.0313,76.1533 Q427.5313,76.7314 426.7344,77.0596 Q425.6563,77.5127 424.3594,77.5127 Q422.8438,77.5127 421.6406,76.8877 Q420.6563,76.3877 419.9688,75.3252 Q419.2813,74.2471 419.2813,72.9658 L419.2813,71.8096 Q419.2813,70.4814 419.8906,69.3408 Q420.5156,68.1846 421.6094,67.5752 Q422.7031,66.9502 423.9375,66.9502 Q424.6719,66.9502 425.3125,67.1221 Q425.9688,67.2783 426.5156,67.6377 Z " fill="#000000"/><text fill="#000000" font-family="sans-serif" font-size="14" lengthAdjust="spacing" textLength="214" x="444.25" y="77.5596">GenerateTeamProposalController</text><line style="stroke:#181818;stroke-width:0.5;" x1="239.5" x2="830.5" y1="87.7627" y2="87.7627"/><line style="stroke:#181818;stroke-width:0.5;" x1="239.5" x2="830.5" y1="95.7627" y2="95.7627"/><text fill="#000000" font-family="sans-serif" font-size="14" lengthAdjust="spacing" textLength="581" x="244.5" y="114.8701">+GenerateTeamProposalController(skillRepository, collaboratorRepository, teamRepository)</text><text fill="#000000" font-family="sans-serif" font-size="14" lengthAdjust="spacing" textLength="67" x="244.5" y="133.4912">+listSkills()</text><text fill="#000000" font-family="sans-serif" font-size="14" lengthAdjust="spacing" textLength="152" x="244.5" y="152.1123">+chooseMembers(skills)</text><text fill="#000000" font-family="sans-serif" font-size="14" lengthAdjust="spacing" textLength="257" x="244.5" y="170.7334">+generateTeamProposal(size, members)</text><text fill="#000000" font-family="sans-serif" font-size="14" lengthAdjust="spacing" textLength="181" x="244.5" y="189.3545">+createTeam(teamProposal)</text></g><!--class GenerateTeamProposalUI--><g id="elem_GenerateTeamProposalUI"><rect codeLine="25" fill="#F1F1F1" height="48" id="GenerateTeamProposalUI" rx="2.5" ry="2.5" style="stroke:#181818;stroke-width:0.5;" width="196" x="7" y="102.2627"/><ellipse cx="22" cy="118.2627" fill="#ADD1B2" rx="11" ry="11" style="stroke:#181818;stroke-width:1.0;"/><path d="M24.7656,114.1377 Q24.9219,113.9189 25.1094,113.8096 Q25.2969,113.7002 25.5156,113.7002 Q25.8906,113.7002 26.125,113.9658 Q26.3594,114.2158 26.3594,114.8252 L26.3594,116.2783 Q26.3594,116.8877 26.125,117.1533 Q25.8906,117.4189 25.5156,117.4189 Q25.1719,117.4189 24.9688,117.2158 Q24.7656,117.0283 24.6563,116.5127 Q24.6094,116.1533 24.4219,115.9658 Q24.0938,115.5908 23.4844,115.3721 Q22.875,115.1533 22.25,115.1533 Q21.4844,115.1533 20.8438,115.4814 Q20.2188,115.8096 19.7188,116.5596 Q19.2344,117.3096 19.2344,118.3408 L19.2344,119.4346 Q19.2344,120.6689 20.125,121.4971 Q21.0156,122.3096 22.6094,122.3096 Q23.5469,122.3096 24.2031,122.0596 Q24.5938,121.9033 25.0156,121.4658 Q25.2813,121.2002 25.4219,121.1221 Q25.5781,121.0439 25.7813,121.0439 Q26.1094,121.0439 26.3594,121.3096 Q26.625,121.5596 26.625,121.9033 Q26.625,122.2471 26.2813,122.6533 Q25.7813,123.2314 24.9844,123.5596 Q23.9063,124.0127 22.6094,124.0127 Q21.0938,124.0127 19.8906,123.3877 Q18.9063,122.8877 18.2188,121.8252 Q17.5313,120.7471 17.5313,119.4658 L17.5313,118.3096 Q17.5313,116.9814 18.1406,115.8408 Q18.7656,114.6846 19.8594,114.0752 Q20.9531,113.4502 22.1875,113.4502 Q22.9219,113.4502 23.5625,113.6221 Q24.2188,113.7783 24.7656,114.1377 Z " fill="#000000"/><text fill="#000000" font-family="sans-serif" font-size="14" lengthAdjust="spacing" textLength="164" x="36" y="124.0596">GenerateTeamProposalUI</text><line style="stroke:#181818;stroke-width:0.5;" x1="8" x2="202" y1="134.2627" y2="134.2627"/><line style="stroke:#181818;stroke-width:0.5;" x1="8" x2="202" y1="142.2627" y2="142.2627"/></g><!--class Repositories--><g id="elem_Repositories"><rect codeLine="28" fill="#F1F1F1" height="141.1055" id="Repositories" rx="2.5" ry="2.5" style="stroke:#181818;stroke-width:0.5;" width="196" x="1221" y="55.7627"/><ellipse cx="1275.25" cy="71.7627" fill="#ADD1B2" rx="11" ry="11" style="stroke:#181818;stroke-width:1.0;"/><path d="M1278.0156,67.6377 Q1278.1719,67.4189 1278.3594,67.3096 Q1278.5469,67.2002 1278.7656,67.2002 Q1279.1406,67.2002 1279.375,67.4658 Q1279.6094,67.7158 1279.6094,68.3252 L1279.6094,69.7783 Q1279.6094,70.3877 1279.375,70.6533 Q1279.1406,70.9189 1278.7656,70.9189 Q1278.4219,70.9189 1278.2188,70.7158 Q1278.0156,70.5283 1277.9063,70.0127 Q1277.8594,69.6533 1277.6719,69.4658 Q1277.3438,69.0908 1276.7344,68.8721 Q1276.125,68.6533 1275.5,68.6533 Q1274.7344,68.6533 1274.0938,68.9814 Q1273.4688,69.3096 1272.9688,70.0596 Q1272.4844,70.8096 1272.4844,71.8408 L1272.4844,72.9346 Q1272.4844,74.1689 1273.375,74.9971 Q1274.2656,75.8096 1275.8594,75.8096 Q1276.7969,75.8096 1277.4531,75.5596 Q1277.8438,75.4033 1278.2656,74.9658 Q1278.5313,74.7002 1278.6719,74.6221 Q1278.8281,74.5439 1279.0313,74.5439 Q1279.3594,74.5439 1279.6094,74.8096 Q1279.875,75.0596 1279.875,75.4033 Q1279.875,75.7471 1279.5313,76.1533 Q1279.0313,76.7314 1278.2344,77.0596 Q1277.1563,77.5127 1275.8594,77.5127 Q1274.3438,77.5127 1273.1406,76.8877 Q1272.1563,76.3877 1271.4688,75.3252 Q1270.7813,74.2471 1270.7813,72.9658 L1270.7813,71.8096 Q1270.7813,70.4814 1271.3906,69.3408 Q1272.0156,68.1846 1273.1094,67.5752 Q1274.2031,66.9502 1275.4375,66.9502 Q1276.1719,66.9502 1276.8125,67.1221 Q1277.4688,67.2783 1278.0156,67.6377 Z " fill="#000000"/><text fill="#000000" font-family="sans-serif" font-size="14" lengthAdjust="spacing" textLength="79" x="1295.75" y="77.5596">Repositories</text><line style="stroke:#181818;stroke-width:0.5;" x1="1222" x2="1416" y1="87.7627" y2="87.7627"/><line style="stroke:#181818;stroke-width:0.5;" x1="1222" x2="1416" y1="95.7627" y2="95.7627"/><text fill="#000000" font-family="sans-serif" font-size="14" lengthAdjust="spacing" textLength="94" x="1227" y="114.8701">-Repositories()</text><text fill="#000000" font-family="sans-serif" font-size="14" lengthAdjust="spacing" textLength="182" x="1227" y="133.4912">+getInstance() : Repositories</text><text fill="#000000" font-family="sans-serif" font-size="14" lengthAdjust="spacing" textLength="131" x="1227" y="152.1123">+getSkillRepository()</text><text fill="#000000" font-family="sans-serif" font-size="14" lengthAdjust="spacing" textLength="184" x="1227" y="170.7334">+getCollaboratorRepository()</text><text fill="#000000" font-family="sans-serif" font-size="14" lengthAdjust="spacing" textLength="142" x="1227" y="189.3545">+getTeamRepository()</text></g><!--class skillRepository--><g id="elem_skillRepository"><rect codeLine="37" fill="#F1F1F1" height="48" id="skillRepository" rx="2.5" ry="2.5" style="stroke:#181818;stroke-width:0.5;" width="123" x="832.5" y="449.7627"/><ellipse cx="847.5" cy="465.7627" fill="#ADD1B2" rx="11" ry="11" style="stroke:#181818;stroke-width:1.0;"/><path d="M850.2656,461.6377 Q850.4219,461.4189 850.6094,461.3096 Q850.7969,461.2002 851.0156,461.2002 Q851.3906,461.2002 851.625,461.4658 Q851.8594,461.7158 851.8594,462.3252 L851.8594,463.7783 Q851.8594,464.3877 851.625,464.6533 Q851.3906,464.9189 851.0156,464.9189 Q850.6719,464.9189 850.4688,464.7158 Q850.2656,464.5283 850.1563,464.0127 Q850.1094,463.6533 849.9219,463.4658 Q849.5938,463.0908 848.9844,462.8721 Q848.375,462.6533 847.75,462.6533 Q846.9844,462.6533 846.3438,462.9814 Q845.7188,463.3096 845.2188,464.0596 Q844.7344,464.8096 844.7344,465.8408 L844.7344,466.9346 Q844.7344,468.1689 845.625,468.9971 Q846.5156,469.8096 848.1094,469.8096 Q849.0469,469.8096 849.7031,469.5596 Q850.0938,469.4033 850.5156,468.9658 Q850.7813,468.7002 850.9219,468.6221 Q851.0781,468.5439 851.2813,468.5439 Q851.6094,468.5439 851.8594,468.8096 Q852.125,469.0596 852.125,469.4033 Q852.125,469.7471 851.7813,470.1533 Q851.2813,470.7314 850.4844,471.0596 Q849.4063,471.5127 848.1094,471.5127 Q846.5938,471.5127 845.3906,470.8877 Q844.4063,470.3877 843.7188,469.3252 Q843.0313,468.2471 843.0313,466.9658 L843.0313,465.8096 Q843.0313,464.4814 843.6406,463.3408 Q844.2656,462.1846 845.3594,461.5752 Q846.4531,460.9502 847.6875,460.9502 Q848.4219,460.9502 849.0625,461.1221 Q849.7188,461.2783 850.2656,461.6377 Z " fill="#000000"/><text fill="#000000" font-family="sans-serif" font-size="14" lengthAdjust="spacing" textLength="91" x="861.5" y="471.5596">skillRepository</text><line style="stroke:#181818;stroke-width:0.5;" x1="833.5" x2="954.5" y1="481.7627" y2="481.7627"/><line style="stroke:#181818;stroke-width:0.5;" x1="833.5" x2="954.5" y1="489.7627" y2="489.7627"/></g><!--class collaboratorRepository--><g id="elem_collaboratorRepository"><rect codeLine="41" fill="#F1F1F1" height="48" id="collaboratorRepository" rx="2.5" ry="2.5" style="stroke:#181818;stroke-width:0.5;" width="175" x="411.5" y="449.7627"/><ellipse cx="426.5" cy="465.7627" fill="#ADD1B2" rx="11" ry="11" style="stroke:#181818;stroke-width:1.0;"/><path d="M429.2656,461.6377 Q429.4219,461.4189 429.6094,461.3096 Q429.7969,461.2002 430.0156,461.2002 Q430.3906,461.2002 430.625,461.4658 Q430.8594,461.7158 430.8594,462.3252 L430.8594,463.7783 Q430.8594,464.3877 430.625,464.6533 Q430.3906,464.9189 430.0156,464.9189 Q429.6719,464.9189 429.4688,464.7158 Q429.2656,464.5283 429.1563,464.0127 Q429.1094,463.6533 428.9219,463.4658 Q428.5938,463.0908 427.9844,462.8721 Q427.375,462.6533 426.75,462.6533 Q425.9844,462.6533 425.3438,462.9814 Q424.7188,463.3096 424.2188,464.0596 Q423.7344,464.8096 423.7344,465.8408 L423.7344,466.9346 Q423.7344,468.1689 424.625,468.9971 Q425.5156,469.8096 427.1094,469.8096 Q428.0469,469.8096 428.7031,469.5596 Q429.0938,469.4033 429.5156,468.9658 Q429.7813,468.7002 429.9219,468.6221 Q430.0781,468.5439 430.2813,468.5439 Q430.6094,468.5439 430.8594,468.8096 Q431.125,469.0596 431.125,469.4033 Q431.125,469.7471 430.7813,470.1533 Q430.2813,470.7314 429.4844,471.0596 Q428.4063,471.5127 427.1094,471.5127 Q425.5938,471.5127 424.3906,470.8877 Q423.4063,470.3877 422.7188,469.3252 Q422.0313,468.2471 422.0313,466.9658 L422.0313,465.8096 Q422.0313,464.4814 422.6406,463.3408 Q423.2656,462.1846 424.3594,461.5752 Q425.4531,460.9502 426.6875,460.9502 Q427.4219,460.9502 428.0625,461.1221 Q428.7188,461.2783 429.2656,461.6377 Z " fill="#000000"/><text fill="#000000" font-family="sans-serif" font-size="14" lengthAdjust="spacing" textLength="143" x="440.5" y="471.5596">collaboratorRepository</text><line style="stroke:#181818;stroke-width:0.5;" x1="412.5" x2="585.5" y1="481.7627" y2="481.7627"/><line style="stroke:#181818;stroke-width:0.5;" x1="412.5" x2="585.5" y1="489.7627" y2="489.7627"/></g><!--class teamProposalRepository--><g id="elem_teamProposalRepository"><rect codeLine="45" fill="#F1F1F1" height="103.8633" id="teamProposalRepository" rx="2.5" ry="2.5" style="stroke:#181818;stroke-width:0.5;" width="266" x="1124" y="421.7627"/><ellipse cx="1175.25" cy="437.7627" fill="#ADD1B2" rx="11" ry="11" style="stroke:#181818;stroke-width:1.0;"/><path d="M1178.0156,433.6377 Q1178.1719,433.4189 1178.3594,433.3096 Q1178.5469,433.2002 1178.7656,433.2002 Q1179.1406,433.2002 1179.375,433.4658 Q1179.6094,433.7158 1179.6094,434.3252 L1179.6094,435.7783 Q1179.6094,436.3877 1179.375,436.6533 Q1179.1406,436.9189 1178.7656,436.9189 Q1178.4219,436.9189 1178.2188,436.7158 Q1178.0156,436.5283 1177.9063,436.0127 Q1177.8594,435.6533 1177.6719,435.4658 Q1177.3438,435.0908 1176.7344,434.8721 Q1176.125,434.6533 1175.5,434.6533 Q1174.7344,434.6533 1174.0938,434.9814 Q1173.4688,435.3096 1172.9688,436.0596 Q1172.4844,436.8096 1172.4844,437.8408 L1172.4844,438.9346 Q1172.4844,440.1689 1173.375,440.9971 Q1174.2656,441.8096 1175.8594,441.8096 Q1176.7969,441.8096 1177.4531,441.5596 Q1177.8438,441.4033 1178.2656,440.9658 Q1178.5313,440.7002 1178.6719,440.6221 Q1178.8281,440.5439 1179.0313,440.5439 Q1179.3594,440.5439 1179.6094,440.8096 Q1179.875,441.0596 1179.875,441.4033 Q1179.875,441.7471 1179.5313,442.1533 Q1179.0313,442.7314 1178.2344,443.0596 Q1177.1563,443.5127 1175.8594,443.5127 Q1174.3438,443.5127 1173.1406,442.8877 Q1172.1563,442.3877 1171.4688,441.3252 Q1170.7813,440.2471 1170.7813,438.9658 L1170.7813,437.8096 Q1170.7813,436.4814 1171.3906,435.3408 Q1172.0156,434.1846 1173.1094,433.5752 Q1174.2031,432.9502 1175.4375,432.9502 Q1176.1719,432.9502 1176.8125,433.1221 Q1177.4688,433.2783 1178.0156,433.6377 Z " fill="#000000"/><text fill="#000000" font-family="sans-serif" font-size="14" lengthAdjust="spacing" textLength="155" x="1195.75" y="443.5596">teamProposalRepository</text><line style="stroke:#181818;stroke-width:0.5;" x1="1125" x2="1389" y1="453.7627" y2="453.7627"/><line style="stroke:#181818;stroke-width:0.5;" x1="1125" x2="1389" y1="461.7627" y2="461.7627"/><text fill="#000000" font-family="sans-serif" font-size="14" lengthAdjust="spacing" textLength="254" x="1130" y="480.8701">-generateTeamProposal(size, members)</text><text fill="#000000" font-family="sans-serif" font-size="14" lengthAdjust="spacing" textLength="243" x="1130" y="499.4912">-validateTeamProposal(teamProposal)</text><text fill="#000000" font-family="sans-serif" font-size="14" lengthAdjust="spacing" textLength="218" x="1130" y="518.1123">-addTeamProposal(teamProposal)</text></g><!--class teamRepository--><g id="elem_teamRepository"><rect codeLine="51" fill="#F1F1F1" height="103.8633" id="teamRepository" rx="2.5" ry="2.5" style="stroke:#181818;stroke-width:0.5;" width="154" x="633" y="421.7627"/><ellipse cx="658.35" cy="437.7627" fill="#ADD1B2" rx="11" ry="11" style="stroke:#181818;stroke-width:1.0;"/><path d="M661.1156,433.6377 Q661.2719,433.4189 661.4594,433.3096 Q661.6469,433.2002 661.8656,433.2002 Q662.2406,433.2002 662.475,433.4658 Q662.7094,433.7158 662.7094,434.3252 L662.7094,435.7783 Q662.7094,436.3877 662.475,436.6533 Q662.2406,436.9189 661.8656,436.9189 Q661.5219,436.9189 661.3188,436.7158 Q661.1156,436.5283 661.0063,436.0127 Q660.9594,435.6533 660.7719,435.4658 Q660.4438,435.0908 659.8344,434.8721 Q659.225,434.6533 658.6,434.6533 Q657.8344,434.6533 657.1938,434.9814 Q656.5688,435.3096 656.0688,436.0596 Q655.5844,436.8096 655.5844,437.8408 L655.5844,438.9346 Q655.5844,440.1689 656.475,440.9971 Q657.3656,441.8096 658.9594,441.8096 Q659.8969,441.8096 660.5531,441.5596 Q660.9438,441.4033 661.3656,440.9658 Q661.6313,440.7002 661.7719,440.6221 Q661.9281,440.5439 662.1313,440.5439 Q662.4594,440.5439 662.7094,440.8096 Q662.975,441.0596 662.975,441.4033 Q662.975,441.7471 662.6313,442.1533 Q662.1313,442.7314 661.3344,443.0596 Q660.2563,443.5127 658.9594,443.5127 Q657.4438,443.5127 656.2406,442.8877 Q655.2563,442.3877 654.5688,441.3252 Q653.8813,440.2471 653.8813,438.9658 L653.8813,437.8096 Q653.8813,436.4814 654.4906,435.3408 Q655.1156,434.1846 656.2094,433.5752 Q657.3031,432.9502 658.5375,432.9502 Q659.2719,432.9502 659.9125,433.1221 Q660.5688,433.2783 661.1156,433.6377 Z " fill="#000000"/><text fill="#000000" font-family="sans-serif" font-size="14" lengthAdjust="spacing" textLength="99" x="674.65" y="443.5596">teamRepository</text><line style="stroke:#181818;stroke-width:0.5;" x1="634" x2="786" y1="453.7627" y2="453.7627"/><line style="stroke:#181818;stroke-width:0.5;" x1="634" x2="786" y1="461.7627" y2="461.7627"/><text fill="#000000" font-family="sans-serif" font-size="14" lengthAdjust="spacing" textLength="106" x="639" y="480.8701">-addTeam(team)</text><text fill="#000000" font-family="sans-serif" font-size="14" lengthAdjust="spacing" textLength="131" x="639" y="499.4912">-validateTeam(team)</text><text fill="#000000" font-family="sans-serif" font-size="14" lengthAdjust="spacing" textLength="142" x="639" y="518.1123">-create(teamProposal)</text></g><!--class TeamProposal--><g id="elem_TeamProposal"><rect codeLine="57" fill="#F1F1F1" height="103.8633" id="TeamProposal" rx="2.5" ry="2.5" style="stroke:#181818;stroke-width:0.5;" width="237" x="948.5" y="74.2627"/><ellipse cx="1016.75" cy="90.2627" fill="#ADD1B2" rx="11" ry="11" style="stroke:#181818;stroke-width:1.0;"/><path d="M1019.5156,86.1377 Q1019.6719,85.9189 1019.8594,85.8096 Q1020.0469,85.7002 1020.2656,85.7002 Q1020.6406,85.7002 1020.875,85.9658 Q1021.1094,86.2158 1021.1094,86.8252 L1021.1094,88.2783 Q1021.1094,88.8877 1020.875,89.1533 Q1020.6406,89.4189 1020.2656,89.4189 Q1019.9219,89.4189 1019.7188,89.2158 Q1019.5156,89.0283 1019.4063,88.5127 Q1019.3594,88.1533 1019.1719,87.9658 Q1018.8438,87.5908 1018.2344,87.3721 Q1017.625,87.1533 1017,87.1533 Q1016.2344,87.1533 1015.5938,87.4814 Q1014.9688,87.8096 1014.4688,88.5596 Q1013.9844,89.3096 1013.9844,90.3408 L1013.9844,91.4346 Q1013.9844,92.6689 1014.875,93.4971 Q1015.7656,94.3096 1017.3594,94.3096 Q1018.2969,94.3096 1018.9531,94.0596 Q1019.3438,93.9033 1019.7656,93.4658 Q1020.0313,93.2002 1020.1719,93.1221 Q1020.3281,93.0439 1020.5313,93.0439 Q1020.8594,93.0439 1021.1094,93.3096 Q1021.375,93.5596 1021.375,93.9033 Q1021.375,94.2471 1021.0313,94.6533 Q1020.5313,95.2314 1019.7344,95.5596 Q1018.6563,96.0127 1017.3594,96.0127 Q1015.8438,96.0127 1014.6406,95.3877 Q1013.6563,94.8877 1012.9688,93.8252 Q1012.2813,92.7471 1012.2813,91.4658 L1012.2813,90.3096 Q1012.2813,88.9814 1012.8906,87.8408 Q1013.5156,86.6846 1014.6094,86.0752 Q1015.7031,85.4502 1016.9375,85.4502 Q1017.6719,85.4502 1018.3125,85.6221 Q1018.9688,85.7783 1019.5156,86.1377 Z " fill="#000000"/><text fill="#000000" font-family="sans-serif" font-size="14" lengthAdjust="spacing" textLength="92" x="1037.25" y="96.0596">TeamProposal</text><line style="stroke:#181818;stroke-width:0.5;" x1="949.5" x2="1184.5" y1="106.2627" y2="106.2627"/><text fill="#000000" font-family="sans-serif" font-size="14" lengthAdjust="spacing" textLength="56" x="954.5" y="125.3701">-size : int</text><text fill="#000000" font-family="sans-serif" font-size="14" lengthAdjust="spacing" textLength="225" x="954.5" y="143.9912">-members : ArrayList&lt;Collaborator&gt;</text><line style="stroke:#181818;stroke-width:0.5;" x1="949.5" x2="1184.5" y1="151.5049" y2="151.5049"/><text fill="#000000" font-family="sans-serif" font-size="14" lengthAdjust="spacing" textLength="200" x="954.5" y="170.6123">+TeamProposal(size, members)</text></g><!--class Team--><g id="elem_Team"><rect codeLine="63" fill="#F1F1F1" height="85.2422" id="Team" rx="2.5" ry="2.5" style="stroke:#181818;stroke-width:0.5;" width="203" x="152.5" y="431.2627"/><ellipse cx="231.75" cy="447.2627" fill="#ADD1B2" rx="11" ry="11" style="stroke:#181818;stroke-width:1.0;"/><path d="M234.5156,443.1377 Q234.6719,442.9189 234.8594,442.8096 Q235.0469,442.7002 235.2656,442.7002 Q235.6406,442.7002 235.875,442.9658 Q236.1094,443.2158 236.1094,443.8252 L236.1094,445.2783 Q236.1094,445.8877 235.875,446.1533 Q235.6406,446.4189 235.2656,446.4189 Q234.9219,446.4189 234.7188,446.2158 Q234.5156,446.0283 234.4063,445.5127 Q234.3594,445.1533 234.1719,444.9658 Q233.8438,444.5908 233.2344,444.3721 Q232.625,444.1533 232,444.1533 Q231.2344,444.1533 230.5938,444.4814 Q229.9688,444.8096 229.4688,445.5596 Q228.9844,446.3096 228.9844,447.3408 L228.9844,448.4346 Q228.9844,449.6689 229.875,450.4971 Q230.7656,451.3096 232.3594,451.3096 Q233.2969,451.3096 233.9531,451.0596 Q234.3438,450.9033 234.7656,450.4658 Q235.0313,450.2002 235.1719,450.1221 Q235.3281,450.0439 235.5313,450.0439 Q235.8594,450.0439 236.1094,450.3096 Q236.375,450.5596 236.375,450.9033 Q236.375,451.2471 236.0313,451.6533 Q235.5313,452.2314 234.7344,452.5596 Q233.6563,453.0127 232.3594,453.0127 Q230.8438,453.0127 229.6406,452.3877 Q228.6563,451.8877 227.9688,450.8252 Q227.2813,449.7471 227.2813,448.4658 L227.2813,447.3096 Q227.2813,445.9814 227.8906,444.8408 Q228.5156,443.6846 229.6094,443.0752 Q230.7031,442.4502 231.9375,442.4502 Q232.6719,442.4502 233.3125,442.6221 Q233.9688,442.7783 234.5156,443.1377 Z " fill="#000000"/><text fill="#000000" font-family="sans-serif" font-size="14" lengthAdjust="spacing" textLength="36" x="252.25" y="453.0596">Team</text><line style="stroke:#181818;stroke-width:0.5;" x1="153.5" x2="354.5" y1="463.2627" y2="463.2627"/><text fill="#000000" font-family="sans-serif" font-size="14" lengthAdjust="spacing" textLength="191" x="158.5" y="482.3701">-teamProposal : teamProposal</text><line style="stroke:#181818;stroke-width:0.5;" x1="153.5" x2="354.5" y1="489.8838" y2="489.8838"/><text fill="#000000" font-family="sans-serif" font-size="14" lengthAdjust="spacing" textLength="141" x="158.5" y="508.9912">+Team(teamProposal)</text></g><!--class Collaborator--><g id="elem_Collaborator"><rect codeLine="68" fill="#F1F1F1" height="215.5898" id="Collaborator" rx="2.5" ry="2.5" style="stroke:#181818;stroke-width:0.5;" width="370" x="314" y="604.7627"/><ellipse cx="455.75" cy="620.7627" fill="#ADD1B2" rx="11" ry="11" style="stroke:#181818;stroke-width:1.0;"/><path d="M458.5156,616.6377 Q458.6719,616.4189 458.8594,616.3096 Q459.0469,616.2002 459.2656,616.2002 Q459.6406,616.2002 459.875,616.4658 Q460.1094,616.7158 460.1094,617.3252 L460.1094,618.7783 Q460.1094,619.3877 459.875,619.6533 Q459.6406,619.9189 459.2656,619.9189 Q458.9219,619.9189 458.7188,619.7158 Q458.5156,619.5283 458.4063,619.0127 Q458.3594,618.6533 458.1719,618.4658 Q457.8438,618.0908 457.2344,617.8721 Q456.625,617.6533 456,617.6533 Q455.2344,617.6533 454.5938,617.9814 Q453.9688,618.3096 453.4688,619.0596 Q452.9844,619.8096 452.9844,620.8408 L452.9844,621.9346 Q452.9844,623.1689 453.875,623.9971 Q454.7656,624.8096 456.3594,624.8096 Q457.2969,624.8096 457.9531,624.5596 Q458.3438,624.4033 458.7656,623.9658 Q459.0313,623.7002 459.1719,623.6221 Q459.3281,623.5439 459.5313,623.5439 Q459.8594,623.5439 460.1094,623.8096 Q460.375,624.0596 460.375,624.4033 Q460.375,624.7471 460.0313,625.1533 Q459.5313,625.7314 458.7344,626.0596 Q457.6563,626.5127 456.3594,626.5127 Q454.8438,626.5127 453.6406,625.8877 Q452.6563,625.3877 451.9688,624.3252 Q451.2813,623.2471 451.2813,621.9658 L451.2813,620.8096 Q451.2813,619.4814 451.8906,618.3408 Q452.5156,617.1846 453.6094,616.5752 Q454.7031,615.9502 455.9375,615.9502 Q456.6719,615.9502 457.3125,616.1221 Q457.9688,616.2783 458.5156,616.6377 Z " fill="#000000"/><text fill="#000000" font-family="sans-serif" font-size="14" lengthAdjust="spacing" textLength="78" x="476.25" y="626.5596">Collaborator</text><line style="stroke:#181818;stroke-width:0.5;" x1="315" x2="683" y1="636.7627" y2="636.7627"/><text fill="#000000" font-family="sans-serif" font-size="14" lengthAdjust="spacing" textLength="89" x="320" y="655.8701">-name : String</text><text fill="#000000" font-family="sans-serif" font-size="14" lengthAdjust="spacing" textLength="110" x="320" y="674.4912">-birthdate : String</text><text fill="#000000" font-family="sans-serif" font-size="14" lengthAdjust="spacing" textLength="147" x="320" y="693.1123">-admissionData : String</text><text fill="#000000" font-family="sans-serif" font-size="14" lengthAdjust="spacing" textLength="105" x="320" y="711.7334">-address : String</text><text fill="#000000" font-family="sans-serif" font-size="14" lengthAdjust="spacing" textLength="101" x="320" y="730.3545">-contactInfo : int</text><text fill="#000000" font-family="sans-serif" font-size="14" lengthAdjust="spacing" textLength="161" x="320" y="748.9756">-idDocumentType : String</text><text fill="#000000" font-family="sans-serif" font-size="14" lengthAdjust="spacing" textLength="156" x="320" y="767.5967">-idDocumentNumber : int</text><line style="stroke:#181818;stroke-width:0.5;" x1="315" x2="683" y1="775.1104" y2="775.1104"/><text fill="#000000" font-family="sans-serif" font-size="14" lengthAdjust="spacing" textLength="354" x="320" y="794.2178">+Collaborator(name, birthdate, admissionData, address,</text><text fill="#000000" font-family="sans-serif" font-size="14" lengthAdjust="spacing" textLength="321" x="320" y="812.8389">contactInfo, idDocumentType, idDocumentNumber)</text></g><!--class Skill--><g id="elem_Skill"><rect codeLine="79" fill="#F1F1F1" height="85.2422" id="Skill" rx="2.5" ry="2.5" style="stroke:#181818;stroke-width:0.5;" width="101" x="656.5" y="899.7627"/><ellipse cx="691.3" cy="915.7627" fill="#ADD1B2" rx="11" ry="11" style="stroke:#181818;stroke-width:1.0;"/><path d="M694.0656,911.6377 Q694.2219,911.4189 694.4094,911.3096 Q694.5969,911.2002 694.8156,911.2002 Q695.1906,911.2002 695.425,911.4658 Q695.6594,911.7158 695.6594,912.3252 L695.6594,913.7783 Q695.6594,914.3877 695.425,914.6533 Q695.1906,914.9189 694.8156,914.9189 Q694.4719,914.9189 694.2688,914.7158 Q694.0656,914.5283 693.9563,914.0127 Q693.9094,913.6533 693.7219,913.4658 Q693.3938,913.0908 692.7844,912.8721 Q692.175,912.6533 691.55,912.6533 Q690.7844,912.6533 690.1438,912.9814 Q689.5188,913.3096 689.0188,914.0596 Q688.5344,914.8096 688.5344,915.8408 L688.5344,916.9346 Q688.5344,918.1689 689.425,918.9971 Q690.3156,919.8096 691.9094,919.8096 Q692.8469,919.8096 693.5031,919.5596 Q693.8938,919.4033 694.3156,918.9658 Q694.5813,918.7002 694.7219,918.6221 Q694.8781,918.5439 695.0813,918.5439 Q695.4094,918.5439 695.6594,918.8096 Q695.925,919.0596 695.925,919.4033 Q695.925,919.7471 695.5813,920.1533 Q695.0813,920.7314 694.2844,921.0596 Q693.2063,921.5127 691.9094,921.5127 Q690.3938,921.5127 689.1906,920.8877 Q688.2063,920.3877 687.5188,919.3252 Q686.8313,918.2471 686.8313,916.9658 L686.8313,915.8096 Q686.8313,914.4814 687.4406,913.3408 Q688.0656,912.1846 689.1594,911.5752 Q690.2531,910.9502 691.4875,910.9502 Q692.2219,910.9502 692.8625,911.1221 Q693.5188,911.2783 694.0656,911.6377 Z " fill="#000000"/><text fill="#000000" font-family="sans-serif" font-size="14" lengthAdjust="spacing" textLength="25" x="709.7" y="921.5596">Skill</text><line style="stroke:#181818;stroke-width:0.5;" x1="657.5" x2="756.5" y1="931.7627" y2="931.7627"/><text fill="#000000" font-family="sans-serif" font-size="14" lengthAdjust="spacing" textLength="89" x="662.5" y="950.8701">-name : String</text><line style="stroke:#181818;stroke-width:0.5;" x1="657.5" x2="756.5" y1="958.3838" y2="958.3838"/><text fill="#000000" font-family="sans-serif" font-size="14" lengthAdjust="spacing" textLength="78" x="662.5" y="977.4912">+Skill(name)</text></g><!--link GenerateTeamProposalUI to GenerateTeamProposalController--><g id="link_GenerateTeamProposalUI_GenerateTeamProposalController"><path codeLine="84" d="M203.38,126.2627 C217.64,126.2627 224.26,126.2627 232.47,126.2627 " fill="none" id="GenerateTeamProposalUI-to-GenerateTeamProposalController" style="stroke:#181818;stroke-width:1.0;stroke-dasharray:7.0,7.0;"/><polygon fill="#181818" points="238.47,126.2627,229.47,122.2627,233.47,126.2627,229.47,130.2627,238.47,126.2627" style="stroke:#181818;stroke-width:1.0;"/></g><!--link GenerateTeamProposalController to Repositories--><g id="link_GenerateTeamProposalController_Repositories"><path codeLine="85" d="M831.52,60.3327 C918.85,40.9127 991.5,24.7627 991.5,24.7627 C991.5,24.7627 1060.5,24.7627 1060.5,24.7627 C1060.5,24.7627 1203,55.7627 1203,55.7627 C1203,55.7627 1205.0124,56.987 1215.7424,63.507 " fill="none" id="GenerateTeamProposalController-to-Repositories" style="stroke:#181818;stroke-width:1.0;stroke-dasharray:7.0,7.0;"/><polygon fill="#181818" points="1220.87,66.6227,1215.2558,58.5307,1216.597,64.0262,1211.1015,65.3675,1220.87,66.6227" style="stroke:#181818;stroke-width:1.0;"/><text fill="#000000" font-family="sans-serif" font-size="13" lengthAdjust="spacing" textLength="67" x="992.5" y="21.791">repositories</text></g><!--link Repositories to Repositories--><g id="link_Repositories_Repositories"><path codeLine="86" d="M1417.02,108.1727 C1437.37,110.0727 1452,116.1027 1452,126.2627 C1452,136.4227 1443.344,141.8949 1422.994,143.7949 " fill="none" id="Repositories-to-Repositories" style="stroke:#181818;stroke-width:1.0;"/><polygon fill="#181818" points="1417.02,144.3527,1426.3529,147.4987,1421.9983,143.8879,1425.6092,139.5334,1417.02,144.3527" style="stroke:#181818;stroke-width:1.0;"/><text fill="#000000" font-family="sans-serif" font-size="13" lengthAdjust="spacing" textLength="49" x="1458" y="131.791">instance</text></g><!--link Repositories to skillRepository--><g id="link_Repositories_skillRepository"><path codeLine="88" d="M1304.45,196.9327 C1291.3,259.8927 1274,342.7627 1274,342.7627 C1274,342.7627 1069.2571,412.8109 961.5771,449.6409 " fill="none" id="Repositories-to-skillRepository" style="stroke:#181818;stroke-width:1.0;"/><polygon fill="#181818" points="955.9,451.5827,965.7102,452.4548,960.6309,449.9646,963.1212,444.8853,955.9,451.5827" style="stroke:#181818;stroke-width:1.0;"/><text fill="#000000" font-family="sans-serif" font-size="13" lengthAdjust="spacing" textLength="7" x="963.4619" y="445.0805">1</text></g><!--link Repositories to collaboratorRepository--><g id="link_Repositories_collaboratorRepository"><path codeLine="89" d="M1220.87,186.0527 C1210.14,192.4827 1203,196.7627 1203,196.7627 C1203,196.7627 828,257.7627 828,257.7627 C828,257.7627 756,342.7627 756,342.7627 C756,342.7627 623.8539,409.6042 550.0039,446.9642 " fill="none" id="Repositories-to-collaboratorRepository" style="stroke:#181818;stroke-width:1.0;"/><polygon fill="#181818" points="544.65,449.6727,554.4865,449.1792,549.1116,447.4156,550.8752,442.0407,544.65,449.6727" style="stroke:#181818;stroke-width:1.0;"/><text fill="#000000" font-family="sans-serif" font-size="13" lengthAdjust="spacing" textLength="7" x="548.4509" y="438.3871">1</text></g><!--link Repositories to teamProposalRepository--><g id="link_Repositories_teamProposalRepository"><path codeLine="90" d="M1337.2,196.9127 C1341.57,213.6327 1345,226.7627 1345,226.7627 C1345,226.7627 1345,391.7627 1345,391.7627 C1345,391.7627 1334.6159,401.3307 1317.1459,417.4007 " fill="none" id="Repositories-to-teamProposalRepository" style="stroke:#181818;stroke-width:1.0;"/><polygon fill="#181818" points="1312.73,421.4627,1322.0618,418.3136,1316.4099,418.0777,1316.6458,412.4258,1312.73,421.4627" style="stroke:#181818;stroke-width:1.0;"/><text fill="#000000" font-family="sans-serif" font-size="13" lengthAdjust="spacing" textLength="7" x="1312.7484" y="410.3498">1</text></g><!--link Repositories to teamRepository--><g id="link_Repositories_teamRepository"><path codeLine="91" d="M1220.87,186.0527 C1210.14,192.4827 1203,196.7627 1203,196.7627 C1203,196.7627 1079,257.7627 1079,257.7627 C1079,257.7627 900.7442,361.6221 792.5342,424.6721 " fill="none" id="Repositories-to-teamRepository" style="stroke:#181818;stroke-width:1.0;"/><polygon fill="#181818" points="787.35,427.6927,797.14,426.6179,791.6702,425.1755,793.1125,419.7056,787.35,427.6927" style="stroke:#181818;stroke-width:1.0;"/><text fill="#000000" font-family="sans-serif" font-size="13" lengthAdjust="spacing" textLength="7" x="795.056" y="419.5402">1</text></g><!--link GenerateTeamProposalController to skillRepository--><g id="link_GenerateTeamProposalController_skillRepository"><path codeLine="93" d="M652.94,196.9027 C705.6,228.0027 756,257.7627 756,257.7627 C756,257.7627 832,372.7627 832,372.7627 C832,372.7627 858.1377,414.9337 876.4577,444.4737 " fill="none" id="GenerateTeamProposalController-to-skillRepository" style="stroke:#181818;stroke-width:1.0;stroke-dasharray:7.0,7.0;"/><polygon fill="#181818" points="879.62,449.5727,878.2759,439.816,876.9848,445.3235,871.4772,444.0324,879.62,449.5727" style="stroke:#181818;stroke-width:1.0;"/><text fill="#000000" font-family="sans-serif" font-size="13" lengthAdjust="spacing" textLength="85" x="812" y="305.791">skillRepository</text></g><!--link GenerateTeamProposalController to collaboratorRepository--><g id="link_GenerateTeamProposalController_collaboratorRepository"><path codeLine="94" d="M508.78,197.0927 C497.13,228.1227 486,257.7627 486,257.7627 C486,257.7627 486,342.7627 486,342.7627 C486,342.7627 492.3428,406.1625 496.0828,443.5525 " fill="none" id="GenerateTeamProposalController-to-collaboratorRepository" style="stroke:#181818;stroke-width:1.0;stroke-dasharray:7.0,7.0;"/><polygon fill="#181818" points="496.68,449.5227,499.7644,440.1693,496.1823,444.5475,491.8041,440.9655,496.68,449.5227" style="stroke:#181818;stroke-width:1.0;"/><text fill="#000000" font-family="sans-serif" font-size="13" lengthAdjust="spacing" textLength="129" x="487" y="305.791">collaboratorRepository</text></g><!--link GenerateTeamProposalController to teamRepository--><g id="link_GenerateTeamProposalController_teamRepository"><path codeLine="95" d="M581.02,197.0927 C601.47,228.1227 621,257.7627 621,257.7627 C621,257.7627 660.1749,352.399 686.5049,415.999 " fill="none" id="GenerateTeamProposalController-to-teamRepository" style="stroke:#181818;stroke-width:1.0;stroke-dasharray:7.0,7.0;"/><polygon fill="#181818" points="688.8,421.5427,689.0532,411.6971,686.8874,416.9229,681.6616,414.7572,688.8,421.5427" style="stroke:#181818;stroke-width:1.0;"/><text fill="#000000" font-family="sans-serif" font-size="13" lengthAdjust="spacing" textLength="91" x="656" y="305.791">teamRepository</text></g><!--link GenerateTeamProposalController to teamProposalRepository--><g id="link_GenerateTeamProposalController_teamProposalRepository"><path codeLine="96" d="M732.72,196.8127 C821.22,227.9427 906,257.7627 906,257.7627 C906,257.7627 1064.4337,354.8085 1168.2537,418.4085 " fill="none" id="GenerateTeamProposalController-to-teamProposalRepository" style="stroke:#181818;stroke-width:1.0;stroke-dasharray:7.0,7.0;"/><polygon fill="#181818" points="1173.37,421.5427,1167.785,413.4305,1169.1064,418.9308,1163.6061,420.2522,1173.37,421.5427" style="stroke:#181818;stroke-width:1.0;"/><text fill="#000000" font-family="sans-serif" font-size="13" lengthAdjust="spacing" textLength="142" x="1041" y="305.791">teamProposalRepository</text></g><!--link HRM to Team--><g id="link_HRM_Team"><path codeLine="98" d="M254,342.7827 C254,369.5427 254,398.2327 254,425.0327 " fill="none" id="HRM-to-Team" style="stroke:#181818;stroke-width:1.0;"/><polygon fill="#181818" points="254,431.0327,258,422.0327,254,426.0327,250,422.0327,254,431.0327" style="stroke:#181818;stroke-width:1.0;"/><text fill="#000000" font-family="sans-serif" font-size="13" lengthAdjust="spacing" textLength="43" x="255" y="387.791">creates</text><text fill="#000000" font-family="sans-serif" font-size="13" lengthAdjust="spacing" textLength="7" x="246.4422" y="364.9462">1</text><text fill="#000000" font-family="sans-serif" font-size="13" lengthAdjust="spacing" textLength="5" x="248.6016" y="419.9001">*</text></g><!--link Team to Collaborator--><g id="link_Team_Collaborator"><path codeLine="99" d="M296.96,516.3127 C322.41,540.9427 351.6374,569.2112 384.0474,600.5612 " fill="none" id="Team-to-Collaborator" style="stroke:#181818;stroke-width:1.0;"/><polygon fill="#181818" points="388.36,604.7327,384.6722,595.6003,384.7662,601.2564,379.1101,601.3505,388.36,604.7327" style="stroke:#181818;stroke-width:1.0;"/><text fill="#000000" font-family="sans-serif" font-size="13" lengthAdjust="spacing" textLength="21" x="355" y="570.791">has</text><text fill="#000000" font-family="sans-serif" font-size="13" lengthAdjust="spacing" textLength="7" x="296.2489" y="538.481">1</text><text fill="#000000" font-family="sans-serif" font-size="13" lengthAdjust="spacing" textLength="20" x="359.8775" y="593.5922">1..*</text></g><!--link Collaborator to Skill--><g id="link_Collaborator_Skill"><path codeLine="100" d="M596.91,820.8527 C622.51,848.8527 644.5605,872.9753 664.9205,895.2353 " fill="none" id="Collaborator-to-Skill" style="stroke:#181818;stroke-width:1.0;"/><polygon fill="#181818" points="668.97,899.6627,665.8474,890.322,665.5954,895.9732,659.9442,895.7213,668.97,899.6627" style="stroke:#181818;stroke-width:1.0;"/><text fill="#000000" font-family="sans-serif" font-size="13" lengthAdjust="spacing" textLength="21" x="640" y="865.791">has</text><text fill="#000000" font-family="sans-serif" font-size="13" lengthAdjust="spacing" textLength="7" x="595.9581" y="842.3725">1</text><text fill="#000000" font-family="sans-serif" font-size="13" lengthAdjust="spacing" textLength="5" x="657.5105" y="888.5508">*</text></g><!--link GenerateTeamProposalController to TeamProposal--><g id="link_GenerateTeamProposalController_TeamProposal"><path codeLine="102" d="M831.72,126.2627 C872.95,126.2627 907.17,126.2627 942.37,126.2627 " fill="none" id="GenerateTeamProposalController-to-TeamProposal" style="stroke:#181818;stroke-width:1.0;stroke-dasharray:7.0,7.0;"/><polygon fill="#181818" points="948.37,126.2627,939.37,122.2627,943.37,126.2627,939.37,130.2627,948.37,126.2627" style="stroke:#181818;stroke-width:1.0;"/><text fill="#000000" font-family="sans-serif" font-size="13" lengthAdjust="spacing" textLength="80" x="850" y="119.291">teamProposal</text></g><!--link GenerateTeamProposalController to Team--><g id="link_GenerateTeamProposalController_Team"><path codeLine="103" d="M287.72,196.8127 C177.03,227.9427 71,257.7627 71,257.7627 C71,257.7627 71,342.7627 71,342.7627 C71,342.7627 136.9286,389.5979 190.4486,427.6179 " fill="none" id="GenerateTeamProposalController-to-Team" style="stroke:#181818;stroke-width:1.0;stroke-dasharray:7.0,7.0;"/><polygon fill="#181818" points="195.34,431.0927,190.3194,422.6196,191.2638,428.197,185.6864,429.1414,195.34,431.0927" style="stroke:#181818;stroke-width:1.0;"/><text fill="#000000" font-family="sans-serif" font-size="13" lengthAdjust="spacing" textLength="29" x="72" y="305.791">team</text></g><!--link skillRepository to Skill--><g id="link_skillRepository_Skill"><path codeLine="104" d="M884.73,497.8927 C855.03,571.9827 764.2021,798.5533 725.9321,894.0433 " fill="none" id="skillRepository-to-Skill" style="stroke:#181818;stroke-width:1.0;"/><polygon fill="#181818" points="723.7,899.6127,730.761,892.7467,725.5601,894.9716,723.3352,889.7706,723.7,899.6127" style="stroke:#181818;stroke-width:1.0;"/><text fill="#000000" font-family="sans-serif" font-size="13" lengthAdjust="spacing" textLength="21" x="840" y="718.291">has</text></g><!--link collaboratorRepository to Collaborator--><g id="link_collaboratorRepository_Collaborator"><path codeLine="105" d="M499,497.9227 C499,522.9627 499,558.6827 499,598.6527 " fill="none" id="collaboratorRepository-to-Collaborator" style="stroke:#181818;stroke-width:1.0;"/><polygon fill="#181818" points="499,604.6527,503,595.6527,499,599.6527,495,595.6527,499,604.6527" style="stroke:#181818;stroke-width:1.0;"/><text fill="#000000" font-family="sans-serif" font-size="13" lengthAdjust="spacing" textLength="21" x="500" y="570.791">has</text></g><!--SRC=[bLN1ZjiW4Btp5MWlSHedwbwjQgNLhjH6wbRL9htrGko9ZHP31AHLMlNV2pQnWTY9roSpysPuyy3FC_L6-O58KkDQS95NKjI0jJm2wZC7ah-H4ZRwn01Bo3NX9VC1gYA5-4rvYVU4AJ_3A0TzEW0-27Qo2pGRI0gf1VAgSaQKUjHQqjrHmpeNV4F_0Fw8q8p1NcCjiAHbfN51BHqgE49D3Vxo-eB_8coUXNrFvkwz10wIQDW2gRzBSH2Ai4IPfYckeTw1L7Fqxzpaym3uIN0j1MCWk_xNOOaPXx5NC66gXJobE3TniXEcH4W_harzlpupPbJfZMsXkY7oIWW5BotVjhzwpu2kYmI7IxG7RkQ_8i2FjHcyawZZIq4vGPP1q5DUhxaoLoQ7P8wp0DH3Dg5OVlNJe6m-OXi8Q38zp-WG3DK-DtmU0SGNA82q0qyLVOb_4KQB61dAtm99KLp11CG62Bdgfcfewo3HNeIn7NmMNNyxcpb3ohKBk35Dx55ASlfgBkqd_y0Ut2bD-kuigDlAfsNQ-qklvnXxdqFNafFQijyON-6bY-ser9ML9qwGegPA6Mjv9ffS9Wi9IiLXOrIQvEQ-xqMW4YsUHNwiWUkjjRkegiz-Erf9lD95C4XY1qXxocb8CZtJIl5Fxb59e_tJYnqzuPeFyOfYYnRHK6dAHhnYzN337z4DbpKD0fF9p9_7SuuWjrnUWAdp71GZ3VJk_YusXX7Ki4MCW8VDuWhO0qrG8xQox6A6spr6B2yR6_HsnyY8idYmQHq6F3ORqnFPVxoLi97omrrh6vcpCuMQPPU_NwqC9B2335T4eI3ajsk_W1OqWVxsYazDgtPLA3vWIyWdCt9u5ZOm7_eF]--></g></svg>