<?xml version="1.0" encoding="us-ascii" standalone="no"?><svg xmlns="http://www.w3.org/2000/svg" xmlns:xlink="http://www.w3.org/1999/xlink" contentStyleType="text/css" height="1114px" preserveAspectRatio="none" style="width:1767px;height:1114px;background:#FFFFFF;" version="1.1" viewBox="0 0 1767 1114" width="1767px" zoomAndPan="magnify"><defs/><g><!--class HRM--><g id="elem_HRM"><rect codeLine="11" fill="#F1F1F1" height="85.2422" id="HRM" rx="2.5" ry="2.5" style="stroke:#181818;stroke-width:0.5;" width="480" x="7" y="325.5"/><ellipse cx="227.75" cy="341.5" fill="#ADD1B2" rx="11" ry="11" style="stroke:#181818;stroke-width:1.0;"/><path d="M230.5156,337.375 Q230.6719,337.1563 230.8594,337.0469 Q231.0469,336.9375 231.2656,336.9375 Q231.6406,336.9375 231.875,337.2031 Q232.1094,337.4531 232.1094,338.0625 L232.1094,339.5156 Q232.1094,340.125 231.875,340.3906 Q231.6406,340.6563 231.2656,340.6563 Q230.9219,340.6563 230.7188,340.4531 Q230.5156,340.2656 230.4063,339.75 Q230.3594,339.3906 230.1719,339.2031 Q229.8438,338.8281 229.2344,338.6094 Q228.625,338.3906 228,338.3906 Q227.2344,338.3906 226.5938,338.7188 Q225.9688,339.0469 225.4688,339.7969 Q224.9844,340.5469 224.9844,341.5781 L224.9844,342.6719 Q224.9844,343.9063 225.875,344.7344 Q226.7656,345.5469 228.3594,345.5469 Q229.2969,345.5469 229.9531,345.2969 Q230.3438,345.1406 230.7656,344.7031 Q231.0313,344.4375 231.1719,344.3594 Q231.3281,344.2813 231.5313,344.2813 Q231.8594,344.2813 232.1094,344.5469 Q232.375,344.7969 232.375,345.1406 Q232.375,345.4844 232.0313,345.8906 Q231.5313,346.4688 230.7344,346.7969 Q229.6563,347.25 228.3594,347.25 Q226.8438,347.25 225.6406,346.625 Q224.6563,346.125 223.9688,345.0625 Q223.2813,343.9844 223.2813,342.7031 L223.2813,341.5469 Q223.2813,340.2188 223.8906,339.0781 Q224.5156,337.9219 225.6094,337.3125 Q226.7031,336.6875 227.9375,336.6875 Q228.6719,336.6875 229.3125,336.8594 Q229.9688,337.0156 230.5156,337.375 Z " fill="#000000"/><text fill="#000000" font-family="sans-serif" font-size="14" lengthAdjust="spacing" textLength="30" x="248.25" y="347.2969">HRM</text><line style="stroke:#181818;stroke-width:0.5;" x1="8" x2="486" y1="357.5" y2="357.5"/><line style="stroke:#181818;stroke-width:0.5;" x1="8" x2="486" y1="365.5" y2="365.5"/><text fill="#000000" font-family="sans-serif" font-size="14" lengthAdjust="spacing" textLength="48" x="13" y="384.6074">+HRM()</text><text fill="#000000" font-family="sans-serif" font-size="14" lengthAdjust="spacing" textLength="468" x="13" y="403.2285">+generateTeamProposal(minimumSize, maximumSize, skills, collaborators)</text></g><!--class GenerateTeamProposalController--><g id="elem_GenerateTeamProposalController"><rect codeLine="16" fill="#F1F1F1" height="141.1055" id="GenerateTeamProposalController" rx="2.5" ry="2.5" style="stroke:#181818;stroke-width:0.5;" width="593" x="771.5" y="7"/><ellipse cx="956.75" cy="23" fill="#ADD1B2" rx="11" ry="11" style="stroke:#181818;stroke-width:1.0;"/><path d="M959.5156,18.875 Q959.6719,18.6563 959.8594,18.5469 Q960.0469,18.4375 960.2656,18.4375 Q960.6406,18.4375 960.875,18.7031 Q961.1094,18.9531 961.1094,19.5625 L961.1094,21.0156 Q961.1094,21.625 960.875,21.8906 Q960.6406,22.1563 960.2656,22.1563 Q959.9219,22.1563 959.7188,21.9531 Q959.5156,21.7656 959.4063,21.25 Q959.3594,20.8906 959.1719,20.7031 Q958.8438,20.3281 958.2344,20.1094 Q957.625,19.8906 957,19.8906 Q956.2344,19.8906 955.5938,20.2188 Q954.9688,20.5469 954.4688,21.2969 Q953.9844,22.0469 953.9844,23.0781 L953.9844,24.1719 Q953.9844,25.4063 954.875,26.2344 Q955.7656,27.0469 957.3594,27.0469 Q958.2969,27.0469 958.9531,26.7969 Q959.3438,26.6406 959.7656,26.2031 Q960.0313,25.9375 960.1719,25.8594 Q960.3281,25.7813 960.5313,25.7813 Q960.8594,25.7813 961.1094,26.0469 Q961.375,26.2969 961.375,26.6406 Q961.375,26.9844 961.0313,27.3906 Q960.5313,27.9688 959.7344,28.2969 Q958.6563,28.75 957.3594,28.75 Q955.8438,28.75 954.6406,28.125 Q953.6563,27.625 952.9688,26.5625 Q952.2813,25.4844 952.2813,24.2031 L952.2813,23.0469 Q952.2813,21.7188 952.8906,20.5781 Q953.5156,19.4219 954.6094,18.8125 Q955.7031,18.1875 956.9375,18.1875 Q957.6719,18.1875 958.3125,18.3594 Q958.9688,18.5156 959.5156,18.875 Z " fill="#000000"/><text fill="#000000" font-family="sans-serif" font-size="14" lengthAdjust="spacing" textLength="214" x="977.25" y="28.7969">GenerateTeamProposalController</text><line style="stroke:#181818;stroke-width:0.5;" x1="772.5" x2="1363.5" y1="39" y2="39"/><line style="stroke:#181818;stroke-width:0.5;" x1="772.5" x2="1363.5" y1="47" y2="47"/><text fill="#000000" font-family="sans-serif" font-size="14" lengthAdjust="spacing" textLength="581" x="777.5" y="66.1074">+GenerateTeamProposalController(skillRepository, collaboratorRepository, teamRepository)</text><text fill="#000000" font-family="sans-serif" font-size="14" lengthAdjust="spacing" textLength="67" x="777.5" y="84.7285">+listSkills()</text><text fill="#000000" font-family="sans-serif" font-size="14" lengthAdjust="spacing" textLength="123" x="777.5" y="103.3496">+getCollaborators()</text><text fill="#000000" font-family="sans-serif" font-size="14" lengthAdjust="spacing" textLength="468" x="777.5" y="121.9707">+generateTeamProposal(minimumSize, maximumSize, skills, collaborators)</text><text fill="#000000" font-family="sans-serif" font-size="14" lengthAdjust="spacing" textLength="152" x="777.5" y="140.5918">+createTeam(members)</text></g><!--class GenerateTeamProposalUI--><g id="elem_GenerateTeamProposalUI"><rect codeLine="25" fill="#F1F1F1" height="48" id="GenerateTeamProposalUI" rx="2.5" ry="2.5" style="stroke:#181818;stroke-width:0.5;" width="196" x="540" y="53.5"/><ellipse cx="555" cy="69.5" fill="#ADD1B2" rx="11" ry="11" style="stroke:#181818;stroke-width:1.0;"/><path d="M557.7656,65.375 Q557.9219,65.1563 558.1094,65.0469 Q558.2969,64.9375 558.5156,64.9375 Q558.8906,64.9375 559.125,65.2031 Q559.3594,65.4531 559.3594,66.0625 L559.3594,67.5156 Q559.3594,68.125 559.125,68.3906 Q558.8906,68.6563 558.5156,68.6563 Q558.1719,68.6563 557.9688,68.4531 Q557.7656,68.2656 557.6563,67.75 Q557.6094,67.3906 557.4219,67.2031 Q557.0938,66.8281 556.4844,66.6094 Q555.875,66.3906 555.25,66.3906 Q554.4844,66.3906 553.8438,66.7188 Q553.2188,67.0469 552.7188,67.7969 Q552.2344,68.5469 552.2344,69.5781 L552.2344,70.6719 Q552.2344,71.9063 553.125,72.7344 Q554.0156,73.5469 555.6094,73.5469 Q556.5469,73.5469 557.2031,73.2969 Q557.5938,73.1406 558.0156,72.7031 Q558.2813,72.4375 558.4219,72.3594 Q558.5781,72.2813 558.7813,72.2813 Q559.1094,72.2813 559.3594,72.5469 Q559.625,72.7969 559.625,73.1406 Q559.625,73.4844 559.2813,73.8906 Q558.7813,74.4688 557.9844,74.7969 Q556.9063,75.25 555.6094,75.25 Q554.0938,75.25 552.8906,74.625 Q551.9063,74.125 551.2188,73.0625 Q550.5313,71.9844 550.5313,70.7031 L550.5313,69.5469 Q550.5313,68.2188 551.1406,67.0781 Q551.7656,65.9219 552.8594,65.3125 Q553.9531,64.6875 555.1875,64.6875 Q555.9219,64.6875 556.5625,64.8594 Q557.2188,65.0156 557.7656,65.375 Z " fill="#000000"/><text fill="#000000" font-family="sans-serif" font-size="14" lengthAdjust="spacing" textLength="164" x="569" y="75.2969">GenerateTeamProposalUI</text><line style="stroke:#181818;stroke-width:0.5;" x1="541" x2="735" y1="85.5" y2="85.5"/><line style="stroke:#181818;stroke-width:0.5;" x1="541" x2="735" y1="93.5" y2="93.5"/></g><!--class Repositories--><g id="elem_Repositories"><rect codeLine="28" fill="#F1F1F1" height="141.1055" id="Repositories" rx="2.5" ry="2.5" style="stroke:#181818;stroke-width:0.5;" width="196" x="1468" y="7"/><ellipse cx="1522.25" cy="23" fill="#ADD1B2" rx="11" ry="11" style="stroke:#181818;stroke-width:1.0;"/><path d="M1525.0156,18.875 Q1525.1719,18.6563 1525.3594,18.5469 Q1525.5469,18.4375 1525.7656,18.4375 Q1526.1406,18.4375 1526.375,18.7031 Q1526.6094,18.9531 1526.6094,19.5625 L1526.6094,21.0156 Q1526.6094,21.625 1526.375,21.8906 Q1526.1406,22.1563 1525.7656,22.1563 Q1525.4219,22.1563 1525.2188,21.9531 Q1525.0156,21.7656 1524.9063,21.25 Q1524.8594,20.8906 1524.6719,20.7031 Q1524.3438,20.3281 1523.7344,20.1094 Q1523.125,19.8906 1522.5,19.8906 Q1521.7344,19.8906 1521.0938,20.2188 Q1520.4688,20.5469 1519.9688,21.2969 Q1519.4844,22.0469 1519.4844,23.0781 L1519.4844,24.1719 Q1519.4844,25.4063 1520.375,26.2344 Q1521.2656,27.0469 1522.8594,27.0469 Q1523.7969,27.0469 1524.4531,26.7969 Q1524.8438,26.6406 1525.2656,26.2031 Q1525.5313,25.9375 1525.6719,25.8594 Q1525.8281,25.7813 1526.0313,25.7813 Q1526.3594,25.7813 1526.6094,26.0469 Q1526.875,26.2969 1526.875,26.6406 Q1526.875,26.9844 1526.5313,27.3906 Q1526.0313,27.9688 1525.2344,28.2969 Q1524.1563,28.75 1522.8594,28.75 Q1521.3438,28.75 1520.1406,28.125 Q1519.1563,27.625 1518.4688,26.5625 Q1517.7813,25.4844 1517.7813,24.2031 L1517.7813,23.0469 Q1517.7813,21.7188 1518.3906,20.5781 Q1519.0156,19.4219 1520.1094,18.8125 Q1521.2031,18.1875 1522.4375,18.1875 Q1523.1719,18.1875 1523.8125,18.3594 Q1524.4688,18.5156 1525.0156,18.875 Z " fill="#000000"/><text fill="#000000" font-family="sans-serif" font-size="14" lengthAdjust="spacing" textLength="79" x="1542.75" y="28.7969">Repositories</text><line style="stroke:#181818;stroke-width:0.5;" x1="1469" x2="1663" y1="39" y2="39"/><line style="stroke:#181818;stroke-width:0.5;" x1="1469" x2="1663" y1="47" y2="47"/><text fill="#000000" font-family="sans-serif" font-size="14" lengthAdjust="spacing" textLength="94" x="1474" y="66.1074">-Repositories()</text><text fill="#000000" font-family="sans-serif" font-size="14" lengthAdjust="spacing" textLength="182" x="1474" y="84.7285">+getInstance() : Repositories</text><text fill="#000000" font-family="sans-serif" font-size="14" lengthAdjust="spacing" textLength="131" x="1474" y="103.3496">+getSkillRepository()</text><text fill="#000000" font-family="sans-serif" font-size="14" lengthAdjust="spacing" textLength="184" x="1474" y="121.9707">+getCollaboratorRepository()</text><text fill="#000000" font-family="sans-serif" font-size="14" lengthAdjust="spacing" textLength="142" x="1474" y="140.5918">+getTeamRepository()</text></g><!--class SkillRepository--><g id="elem_SkillRepository"><rect codeLine="37" fill="#F1F1F1" height="48" id="SkillRepository" rx="2.5" ry="2.5" style="stroke:#181818;stroke-width:0.5;" width="125" x="1363.5" y="344"/><ellipse cx="1378.5" cy="360" fill="#ADD1B2" rx="11" ry="11" style="stroke:#181818;stroke-width:1.0;"/><path d="M1381.2656,355.875 Q1381.4219,355.6563 1381.6094,355.5469 Q1381.7969,355.4375 1382.0156,355.4375 Q1382.3906,355.4375 1382.625,355.7031 Q1382.8594,355.9531 1382.8594,356.5625 L1382.8594,358.0156 Q1382.8594,358.625 1382.625,358.8906 Q1382.3906,359.1563 1382.0156,359.1563 Q1381.6719,359.1563 1381.4688,358.9531 Q1381.2656,358.7656 1381.1563,358.25 Q1381.1094,357.8906 1380.9219,357.7031 Q1380.5938,357.3281 1379.9844,357.1094 Q1379.375,356.8906 1378.75,356.8906 Q1377.9844,356.8906 1377.3438,357.2188 Q1376.7188,357.5469 1376.2188,358.2969 Q1375.7344,359.0469 1375.7344,360.0781 L1375.7344,361.1719 Q1375.7344,362.4063 1376.625,363.2344 Q1377.5156,364.0469 1379.1094,364.0469 Q1380.0469,364.0469 1380.7031,363.7969 Q1381.0938,363.6406 1381.5156,363.2031 Q1381.7813,362.9375 1381.9219,362.8594 Q1382.0781,362.7813 1382.2813,362.7813 Q1382.6094,362.7813 1382.8594,363.0469 Q1383.125,363.2969 1383.125,363.6406 Q1383.125,363.9844 1382.7813,364.3906 Q1382.2813,364.9688 1381.4844,365.2969 Q1380.4063,365.75 1379.1094,365.75 Q1377.5938,365.75 1376.3906,365.125 Q1375.4063,364.625 1374.7188,363.5625 Q1374.0313,362.4844 1374.0313,361.2031 L1374.0313,360.0469 Q1374.0313,358.7188 1374.6406,357.5781 Q1375.2656,356.4219 1376.3594,355.8125 Q1377.4531,355.1875 1378.6875,355.1875 Q1379.4219,355.1875 1380.0625,355.3594 Q1380.7188,355.5156 1381.2656,355.875 Z " fill="#000000"/><text fill="#000000" font-family="sans-serif" font-size="14" lengthAdjust="spacing" textLength="93" x="1392.5" y="365.7969">SkillRepository</text><line style="stroke:#181818;stroke-width:0.5;" x1="1364.5" x2="1487.5" y1="376" y2="376"/><line style="stroke:#181818;stroke-width:0.5;" x1="1364.5" x2="1487.5" y1="384" y2="384"/></g><!--class CollaboratorRepository--><g id="elem_CollaboratorRepository"><rect codeLine="41" fill="#F1F1F1" height="48" id="CollaboratorRepository" rx="2.5" ry="2.5" style="stroke:#181818;stroke-width:0.5;" width="178" x="1108" y="344"/><ellipse cx="1123" cy="360" fill="#ADD1B2" rx="11" ry="11" style="stroke:#181818;stroke-width:1.0;"/><path d="M1125.7656,355.875 Q1125.9219,355.6563 1126.1094,355.5469 Q1126.2969,355.4375 1126.5156,355.4375 Q1126.8906,355.4375 1127.125,355.7031 Q1127.3594,355.9531 1127.3594,356.5625 L1127.3594,358.0156 Q1127.3594,358.625 1127.125,358.8906 Q1126.8906,359.1563 1126.5156,359.1563 Q1126.1719,359.1563 1125.9688,358.9531 Q1125.7656,358.7656 1125.6563,358.25 Q1125.6094,357.8906 1125.4219,357.7031 Q1125.0938,357.3281 1124.4844,357.1094 Q1123.875,356.8906 1123.25,356.8906 Q1122.4844,356.8906 1121.8438,357.2188 Q1121.2188,357.5469 1120.7188,358.2969 Q1120.2344,359.0469 1120.2344,360.0781 L1120.2344,361.1719 Q1120.2344,362.4063 1121.125,363.2344 Q1122.0156,364.0469 1123.6094,364.0469 Q1124.5469,364.0469 1125.2031,363.7969 Q1125.5938,363.6406 1126.0156,363.2031 Q1126.2813,362.9375 1126.4219,362.8594 Q1126.5781,362.7813 1126.7813,362.7813 Q1127.1094,362.7813 1127.3594,363.0469 Q1127.625,363.2969 1127.625,363.6406 Q1127.625,363.9844 1127.2813,364.3906 Q1126.7813,364.9688 1125.9844,365.2969 Q1124.9063,365.75 1123.6094,365.75 Q1122.0938,365.75 1120.8906,365.125 Q1119.9063,364.625 1119.2188,363.5625 Q1118.5313,362.4844 1118.5313,361.2031 L1118.5313,360.0469 Q1118.5313,358.7188 1119.1406,357.5781 Q1119.7656,356.4219 1120.8594,355.8125 Q1121.9531,355.1875 1123.1875,355.1875 Q1123.9219,355.1875 1124.5625,355.3594 Q1125.2188,355.5156 1125.7656,355.875 Z " fill="#000000"/><text fill="#000000" font-family="sans-serif" font-size="14" lengthAdjust="spacing" textLength="146" x="1137" y="365.7969">CollaboratorRepository</text><line style="stroke:#181818;stroke-width:0.5;" x1="1109" x2="1285" y1="376" y2="376"/><line style="stroke:#181818;stroke-width:0.5;" x1="1109" x2="1285" y1="384" y2="384"/></g><!--class TeamRepository--><g id="elem_TeamRepository"><rect codeLine="45" fill="#F1F1F1" height="122.4844" id="TeamRepository" rx="2.5" ry="2.5" style="stroke:#181818;stroke-width:0.5;" width="480" x="593" y="307"/><ellipse cx="776.75" cy="323" fill="#ADD1B2" rx="11" ry="11" style="stroke:#181818;stroke-width:1.0;"/><path d="M779.5156,318.875 Q779.6719,318.6563 779.8594,318.5469 Q780.0469,318.4375 780.2656,318.4375 Q780.6406,318.4375 780.875,318.7031 Q781.1094,318.9531 781.1094,319.5625 L781.1094,321.0156 Q781.1094,321.625 780.875,321.8906 Q780.6406,322.1563 780.2656,322.1563 Q779.9219,322.1563 779.7188,321.9531 Q779.5156,321.7656 779.4063,321.25 Q779.3594,320.8906 779.1719,320.7031 Q778.8438,320.3281 778.2344,320.1094 Q777.625,319.8906 777,319.8906 Q776.2344,319.8906 775.5938,320.2188 Q774.9688,320.5469 774.4688,321.2969 Q773.9844,322.0469 773.9844,323.0781 L773.9844,324.1719 Q773.9844,325.4063 774.875,326.2344 Q775.7656,327.0469 777.3594,327.0469 Q778.2969,327.0469 778.9531,326.7969 Q779.3438,326.6406 779.7656,326.2031 Q780.0313,325.9375 780.1719,325.8594 Q780.3281,325.7813 780.5313,325.7813 Q780.8594,325.7813 781.1094,326.0469 Q781.375,326.2969 781.375,326.6406 Q781.375,326.9844 781.0313,327.3906 Q780.5313,327.9688 779.7344,328.2969 Q778.6563,328.75 777.3594,328.75 Q775.8438,328.75 774.6406,328.125 Q773.6563,327.625 772.9688,326.5625 Q772.2813,325.4844 772.2813,324.2031 L772.2813,323.0469 Q772.2813,321.7188 772.8906,320.5781 Q773.5156,319.4219 774.6094,318.8125 Q775.7031,318.1875 776.9375,318.1875 Q777.6719,318.1875 778.3125,318.3594 Q778.9688,318.5156 779.5156,318.875 Z " fill="#000000"/><text fill="#000000" font-family="sans-serif" font-size="14" lengthAdjust="spacing" textLength="104" x="797.25" y="328.7969">TeamRepository</text><line style="stroke:#181818;stroke-width:0.5;" x1="594" x2="1072" y1="339" y2="339"/><line style="stroke:#181818;stroke-width:0.5;" x1="594" x2="1072" y1="347" y2="347"/><text fill="#000000" font-family="sans-serif" font-size="14" lengthAdjust="spacing" textLength="468" x="599" y="366.1074">+generateTeamProposal(minimumSize, maximumSize, collaborators, skills)</text><text fill="#000000" font-family="sans-serif" font-size="14" lengthAdjust="spacing" textLength="152" x="599" y="384.7285">+createTeam(members)</text><text fill="#000000" font-family="sans-serif" font-size="14" lengthAdjust="spacing" textLength="134" x="599" y="403.3496">+validateTeam(team)</text><text fill="#000000" font-family="sans-serif" font-size="14" lengthAdjust="spacing" textLength="109" x="599" y="421.9707">+addTeam(team)</text></g><!--class Team--><g id="elem_Team"><rect codeLine="52" fill="#F1F1F1" height="85.2422" id="Team" rx="2.5" ry="2.5" style="stroke:#181818;stroke-width:0.5;" width="237" x="509.5" y="508"/><ellipse cx="605.75" cy="524" fill="#ADD1B2" rx="11" ry="11" style="stroke:#181818;stroke-width:1.0;"/><path d="M608.5156,519.875 Q608.6719,519.6563 608.8594,519.5469 Q609.0469,519.4375 609.2656,519.4375 Q609.6406,519.4375 609.875,519.7031 Q610.1094,519.9531 610.1094,520.5625 L610.1094,522.0156 Q610.1094,522.625 609.875,522.8906 Q609.6406,523.1563 609.2656,523.1563 Q608.9219,523.1563 608.7188,522.9531 Q608.5156,522.7656 608.4063,522.25 Q608.3594,521.8906 608.1719,521.7031 Q607.8438,521.3281 607.2344,521.1094 Q606.625,520.8906 606,520.8906 Q605.2344,520.8906 604.5938,521.2188 Q603.9688,521.5469 603.4688,522.2969 Q602.9844,523.0469 602.9844,524.0781 L602.9844,525.1719 Q602.9844,526.4063 603.875,527.2344 Q604.7656,528.0469 606.3594,528.0469 Q607.2969,528.0469 607.9531,527.7969 Q608.3438,527.6406 608.7656,527.2031 Q609.0313,526.9375 609.1719,526.8594 Q609.3281,526.7813 609.5313,526.7813 Q609.8594,526.7813 610.1094,527.0469 Q610.375,527.2969 610.375,527.6406 Q610.375,527.9844 610.0313,528.3906 Q609.5313,528.9688 608.7344,529.2969 Q607.6563,529.75 606.3594,529.75 Q604.8438,529.75 603.6406,529.125 Q602.6563,528.625 601.9688,527.5625 Q601.2813,526.4844 601.2813,525.2031 L601.2813,524.0469 Q601.2813,522.7188 601.8906,521.5781 Q602.5156,520.4219 603.6094,519.8125 Q604.7031,519.1875 605.9375,519.1875 Q606.6719,519.1875 607.3125,519.3594 Q607.9688,519.5156 608.5156,519.875 Z " fill="#000000"/><text fill="#000000" font-family="sans-serif" font-size="14" lengthAdjust="spacing" textLength="36" x="626.25" y="529.7969">Team</text><line style="stroke:#181818;stroke-width:0.5;" x1="510.5" x2="745.5" y1="540" y2="540"/><text fill="#000000" font-family="sans-serif" font-size="14" lengthAdjust="spacing" textLength="225" x="515.5" y="559.1074">-members : ArrayList&lt;Collaborator&gt;</text><line style="stroke:#181818;stroke-width:0.5;" x1="510.5" x2="745.5" y1="566.6211" y2="566.6211"/><text fill="#000000" font-family="sans-serif" font-size="14" lengthAdjust="spacing" textLength="112" x="515.5" y="585.7285">+Team(members)</text></g><!--class Collaborator--><g id="elem_Collaborator"><rect codeLine="57" fill="#F1F1F1" height="271.4531" id="Collaborator" rx="2.5" ry="2.5" style="stroke:#181818;stroke-width:0.5;" width="435" x="937.5" y="672"/><ellipse cx="1111.75" cy="688" fill="#ADD1B2" rx="11" ry="11" style="stroke:#181818;stroke-width:1.0;"/><path d="M1114.5156,683.875 Q1114.6719,683.6563 1114.8594,683.5469 Q1115.0469,683.4375 1115.2656,683.4375 Q1115.6406,683.4375 1115.875,683.7031 Q1116.1094,683.9531 1116.1094,684.5625 L1116.1094,686.0156 Q1116.1094,686.625 1115.875,686.8906 Q1115.6406,687.1563 1115.2656,687.1563 Q1114.9219,687.1563 1114.7188,686.9531 Q1114.5156,686.7656 1114.4063,686.25 Q1114.3594,685.8906 1114.1719,685.7031 Q1113.8438,685.3281 1113.2344,685.1094 Q1112.625,684.8906 1112,684.8906 Q1111.2344,684.8906 1110.5938,685.2188 Q1109.9688,685.5469 1109.4688,686.2969 Q1108.9844,687.0469 1108.9844,688.0781 L1108.9844,689.1719 Q1108.9844,690.4063 1109.875,691.2344 Q1110.7656,692.0469 1112.3594,692.0469 Q1113.2969,692.0469 1113.9531,691.7969 Q1114.3438,691.6406 1114.7656,691.2031 Q1115.0313,690.9375 1115.1719,690.8594 Q1115.3281,690.7813 1115.5313,690.7813 Q1115.8594,690.7813 1116.1094,691.0469 Q1116.375,691.2969 1116.375,691.6406 Q1116.375,691.9844 1116.0313,692.3906 Q1115.5313,692.9688 1114.7344,693.2969 Q1113.6563,693.75 1112.3594,693.75 Q1110.8438,693.75 1109.6406,693.125 Q1108.6563,692.625 1107.9688,691.5625 Q1107.2813,690.4844 1107.2813,689.2031 L1107.2813,688.0469 Q1107.2813,686.7188 1107.8906,685.5781 Q1108.5156,684.4219 1109.6094,683.8125 Q1110.7031,683.1875 1111.9375,683.1875 Q1112.6719,683.1875 1113.3125,683.3594 Q1113.9688,683.5156 1114.5156,683.875 Z " fill="#000000"/><text fill="#000000" font-family="sans-serif" font-size="14" lengthAdjust="spacing" textLength="78" x="1132.25" y="693.7969">Collaborator</text><line style="stroke:#181818;stroke-width:0.5;" x1="938.5" x2="1371.5" y1="704" y2="704"/><text fill="#000000" font-family="sans-serif" font-size="14" lengthAdjust="spacing" textLength="89" x="943.5" y="723.1074">-name : String</text><text fill="#000000" font-family="sans-serif" font-size="14" lengthAdjust="spacing" textLength="110" x="943.5" y="741.7285">-birthdate : String</text><text fill="#000000" font-family="sans-serif" font-size="14" lengthAdjust="spacing" textLength="147" x="943.5" y="760.3496">-admissionData : String</text><text fill="#000000" font-family="sans-serif" font-size="14" lengthAdjust="spacing" textLength="105" x="943.5" y="778.9707">-address : String</text><text fill="#000000" font-family="sans-serif" font-size="14" lengthAdjust="spacing" textLength="122" x="943.5" y="797.5918">-mobileNumber : int</text><text fill="#000000" font-family="sans-serif" font-size="14" lengthAdjust="spacing" textLength="87" x="943.5" y="816.2129">-email : String</text><text fill="#000000" font-family="sans-serif" font-size="14" lengthAdjust="spacing" textLength="161" x="943.5" y="834.834">-idDocumentType : String</text><text fill="#000000" font-family="sans-serif" font-size="14" lengthAdjust="spacing" textLength="156" x="943.5" y="853.4551">-idDocumentNumber : int</text><line style="stroke:#181818;stroke-width:0.5;" x1="938.5" x2="1371.5" y1="860.9688" y2="860.9688"/><text fill="#000000" font-family="sans-serif" font-size="14" lengthAdjust="spacing" textLength="354" x="943.5" y="880.0762">+Collaborator(name, birthdate, admissionData, address,</text><text fill="#000000" font-family="sans-serif" font-size="14" lengthAdjust="spacing" textLength="383" x="943.5" y="898.6973">mobileNumber, email, idDocumentType, idDocumentNumber)</text><text fill="#000000" font-family="sans-serif" font-size="14" lengthAdjust="spacing" textLength="423" x="943.5" y="917.3184">+chooseMembers(minimumSize, maximumSize, collaborators, skills)</text><text fill="#000000" font-family="sans-serif" font-size="14" lengthAdjust="spacing" textLength="175" x="943.5" y="935.9395">+analyseCollaborator(skills)</text></g><!--class Skill--><g id="elem_Skill"><rect codeLine="71" fill="#F1F1F1" height="85.2422" id="Skill" rx="2.5" ry="2.5" style="stroke:#181818;stroke-width:0.5;" width="101" x="1240.5" y="1022"/><ellipse cx="1275.3" cy="1038" fill="#ADD1B2" rx="11" ry="11" style="stroke:#181818;stroke-width:1.0;"/><path d="M1278.0656,1033.875 Q1278.2219,1033.6563 1278.4094,1033.5469 Q1278.5969,1033.4375 1278.8156,1033.4375 Q1279.1906,1033.4375 1279.425,1033.7031 Q1279.6594,1033.9531 1279.6594,1034.5625 L1279.6594,1036.0156 Q1279.6594,1036.625 1279.425,1036.8906 Q1279.1906,1037.1563 1278.8156,1037.1563 Q1278.4719,1037.1563 1278.2688,1036.9531 Q1278.0656,1036.7656 1277.9563,1036.25 Q1277.9094,1035.8906 1277.7219,1035.7031 Q1277.3938,1035.3281 1276.7844,1035.1094 Q1276.175,1034.8906 1275.55,1034.8906 Q1274.7844,1034.8906 1274.1438,1035.2188 Q1273.5188,1035.5469 1273.0188,1036.2969 Q1272.5344,1037.0469 1272.5344,1038.0781 L1272.5344,1039.1719 Q1272.5344,1040.4063 1273.425,1041.2344 Q1274.3156,1042.0469 1275.9094,1042.0469 Q1276.8469,1042.0469 1277.5031,1041.7969 Q1277.8938,1041.6406 1278.3156,1041.2031 Q1278.5813,1040.9375 1278.7219,1040.8594 Q1278.8781,1040.7813 1279.0813,1040.7813 Q1279.4094,1040.7813 1279.6594,1041.0469 Q1279.925,1041.2969 1279.925,1041.6406 Q1279.925,1041.9844 1279.5813,1042.3906 Q1279.0813,1042.9688 1278.2844,1043.2969 Q1277.2063,1043.75 1275.9094,1043.75 Q1274.3938,1043.75 1273.1906,1043.125 Q1272.2063,1042.625 1271.5188,1041.5625 Q1270.8313,1040.4844 1270.8313,1039.2031 L1270.8313,1038.0469 Q1270.8313,1036.7188 1271.4406,1035.5781 Q1272.0656,1034.4219 1273.1594,1033.8125 Q1274.2531,1033.1875 1275.4875,1033.1875 Q1276.2219,1033.1875 1276.8625,1033.3594 Q1277.5188,1033.5156 1278.0656,1033.875 Z " fill="#000000"/><text fill="#000000" font-family="sans-serif" font-size="14" lengthAdjust="spacing" textLength="25" x="1293.7" y="1043.7969">Skill</text><line style="stroke:#181818;stroke-width:0.5;" x1="1241.5" x2="1340.5" y1="1054" y2="1054"/><text fill="#000000" font-family="sans-serif" font-size="14" lengthAdjust="spacing" textLength="89" x="1246.5" y="1073.1074">-name : String</text><line style="stroke:#181818;stroke-width:0.5;" x1="1241.5" x2="1340.5" y1="1080.6211" y2="1080.6211"/><text fill="#000000" font-family="sans-serif" font-size="14" lengthAdjust="spacing" textLength="78" x="1246.5" y="1099.7285">+Skill(name)</text></g><!--link GenerateTeamProposalUI to GenerateTeamProposalController--><g id="link_GenerateTeamProposalUI_GenerateTeamProposalController"><path codeLine="76" d="M736.38,77.5 C750.64,77.5 757.26,77.5 765.47,77.5 " fill="none" id="GenerateTeamProposalUI-to-GenerateTeamProposalController" style="stroke:#181818;stroke-width:1.0;stroke-dasharray:7.0,7.0;"/><polygon fill="#181818" points="771.47,77.5,762.47,73.5,766.47,77.5,762.47,81.5,771.47,77.5" style="stroke:#181818;stroke-width:1.0;"/></g><!--link GenerateTeamProposalController to Repositories--><g id="link_GenerateTeamProposalController_Repositories"><path codeLine="77" d="M1364.52,77.5 C1401.55,77.5 1431.11,77.5 1461.79,77.5 " fill="none" id="GenerateTeamProposalController-to-Repositories" style="stroke:#181818;stroke-width:1.0;stroke-dasharray:7.0,7.0;"/><polygon fill="#181818" points="1467.79,77.5,1458.79,73.5,1462.79,77.5,1458.79,81.5,1467.79,77.5" style="stroke:#181818;stroke-width:1.0;"/><text fill="#000000" font-family="sans-serif" font-size="13" lengthAdjust="spacing" textLength="67" x="1382.75" y="70.5283">repositories</text></g><!--link Repositories to Repositories--><g id="link_Repositories_Repositories"><path codeLine="78" d="M1664.02,59.41 C1684.37,61.31 1699,67.34 1699,77.5 C1699,87.66 1690.344,93.1322 1669.994,95.0322 " fill="none" id="Repositories-to-Repositories" style="stroke:#181818;stroke-width:1.0;"/><polygon fill="#181818" points="1664.02,95.59,1673.3529,98.736,1668.9983,95.1252,1672.6092,90.7707,1664.02,95.59" style="stroke:#181818;stroke-width:1.0;"/><text fill="#000000" font-family="sans-serif" font-size="13" lengthAdjust="spacing" textLength="49" x="1705" y="83.0283">instance</text></g><!--link Repositories to SkillRepository--><g id="link_Repositories_SkillRepository"><path codeLine="80" d="M1584.2,148.15 C1588.57,164.87 1592,178 1592,178 C1592,178 1592,277 1592,277 C1592,277 1523.2048,314.3006 1474.0248,340.9606 " fill="none" id="Repositories-to-SkillRepository" style="stroke:#181818;stroke-width:1.0;"/><polygon fill="#181818" points="1468.75,343.82,1478.5685,343.0474,1473.1457,341.4371,1474.7559,336.0143,1468.75,343.82" style="stroke:#181818;stroke-width:1.0;"/><text fill="#000000" font-family="sans-serif" font-size="13" lengthAdjust="spacing" textLength="7" x="1471.3172" y="332.918">1</text></g><!--link Repositories to CollaboratorRepository--><g id="link_Repositories_CollaboratorRepository"><path codeLine="81" d="M1519.22,148.44 C1493.19,187.34 1466,228 1466,228 C1466,228 1323.5406,301.6159 1247.0506,341.1359 " fill="none" id="Repositories-to-CollaboratorRepository" style="stroke:#181818;stroke-width:1.0;"/><polygon fill="#181818" points="1241.72,343.89,1251.5519,343.3125,1246.1621,341.5949,1247.8797,336.2051,1241.72,343.89" style="stroke:#181818;stroke-width:1.0;"/><text fill="#000000" font-family="sans-serif" font-size="13" lengthAdjust="spacing" textLength="7" x="1245.2826" y="332.5993">1</text></g><!--link Repositories to TeamRepository--><g id="link_Repositories_TeamRepository"><path codeLine="82" d="M1467.7,120.15 C1377.56,158.34 1258,209 1258,209 C1258,209 1214,228 1214,228 C1214,228 1106.2966,267.2937 1003.2566,304.8837 " fill="none" id="Repositories-to-TeamRepository" style="stroke:#181818;stroke-width:1.0;"/><polygon fill="#181818" points="997.62,306.94,1007.4458,307.6133,1002.3172,305.2264,1004.7041,300.0978,997.62,306.94" style="stroke:#181818;stroke-width:1.0;"/><text fill="#000000" font-family="sans-serif" font-size="13" lengthAdjust="spacing" textLength="7" x="1009.2495" y="295.9143">1</text></g><!--link GenerateTeamProposalController to SkillRepository--><g id="link_GenerateTeamProposalController_SkillRepository"><path codeLine="84" d="M1265.01,148.01 C1312.58,164.8 1350,178 1350,178 C1350,178 1364,209 1364,209 C1364,209 1397.419,294.1544 1414.659,338.1044 " fill="none" id="GenerateTeamProposalController-to-SkillRepository" style="stroke:#181818;stroke-width:1.0;stroke-dasharray:7.0,7.0;"/><polygon fill="#181818" points="1416.85,343.69,1417.2872,333.8509,1415.0241,339.0353,1409.8397,336.7722,1416.85,343.69" style="stroke:#181818;stroke-width:1.0;"/><text fill="#000000" font-family="sans-serif" font-size="13" lengthAdjust="spacing" textLength="85" x="1372" y="224.0283">skillRepository</text></g><!--link GenerateTeamProposalController to SkillRepository--><g id="link_GenerateTeamProposalController_SkillRepository"><path codeLine="93" d="M1154.66,148.34 C1233.5,211.87 1340.5886,298.1647 1392.6086,340.0947 " fill="none" id="GenerateTeamProposalController-to-SkillRepository-1" style="stroke:#181818;stroke-width:1.0;stroke-dasharray:7.0,7.0;"/><polygon fill="#181818" points="1397.28,343.86,1392.7831,335.0977,1393.3871,340.7222,1387.7626,341.3263,1397.28,343.86" style="stroke:#181818;stroke-width:1.0;"/><text fill="#000000" font-family="sans-serif" font-size="13" lengthAdjust="spacing" textLength="30" x="1254" y="224.0283">skills</text></g><!--link GenerateTeamProposalController to CollaboratorRepository--><g id="link_GenerateTeamProposalController_CollaboratorRepository"><path codeLine="85" d="M995.76,148.33 C963.66,179.36 933,209 933,209 C933,209 933,228 933,228 C933,228 1090,307 1090,307 C1090,307 1120.5264,324.1158 1150.7064,341.0358 " fill="none" id="GenerateTeamProposalController-to-CollaboratorRepository" style="stroke:#181818;stroke-width:1.0;stroke-dasharray:7.0,7.0;"/><polygon fill="#181818" points="1155.94,343.97,1150.0457,336.0797,1151.5787,341.5249,1146.1335,343.0578,1155.94,343.97" style="stroke:#181818;stroke-width:1.0;"/><text fill="#000000" font-family="sans-serif" font-size="13" lengthAdjust="spacing" textLength="129" x="934" y="224.0283">collaboratorRepository</text></g><!--link GenerateTeamProposalController to CollaboratorRepository--><g id="link_GenerateTeamProposalController_CollaboratorRepository"><path codeLine="94" d="M1099.23,148.34 C1127.64,211.87 1165.4618,296.4522 1184.2018,338.3822 " fill="none" id="GenerateTeamProposalController-to-CollaboratorRepository-1" style="stroke:#181818;stroke-width:1.0;stroke-dasharray:7.0,7.0;"/><polygon fill="#181818" points="1186.65,343.86,1186.6295,334.0112,1184.6098,339.2952,1179.3258,337.2755,1186.65,343.86" style="stroke:#181818;stroke-width:1.0;"/><text fill="#000000" font-family="sans-serif" font-size="13" lengthAdjust="spacing" textLength="74" x="1136" y="224.0283">collaborators</text></g><!--link GenerateTeamProposalController to TeamRepository--><g id="link_GenerateTeamProposalController_TeamRepository"><path codeLine="86" d="M942.05,148.14 C885.82,179.24 832,209 832,209 C832,209 832,228 832,228 C832,228 832.2569,263.2702 832.5269,300.8402 " fill="none" id="GenerateTeamProposalController-to-TeamRepository" style="stroke:#181818;stroke-width:1.0;stroke-dasharray:7.0,7.0;"/><polygon fill="#181818" points="832.57,306.84,836.5052,297.8115,832.5341,301.8401,828.5054,297.869,832.57,306.84" style="stroke:#181818;stroke-width:1.0;"/><text fill="#000000" font-family="sans-serif" font-size="13" lengthAdjust="spacing" textLength="91" x="833" y="224.0283">teamRepository</text></g><!--link HRM to Team--><g id="link_HRM_Team"><path codeLine="88" d="M331.56,410.52 C394.3,441.32 469,478 469,478 C469,478 495.0578,489.7192 530.0378,505.4492 " fill="none" id="HRM-to-Team" style="stroke:#181818;stroke-width:1.0;"/><polygon fill="#181818" points="535.51,507.91,528.9422,500.5707,530.9499,505.8594,525.6612,507.867,535.51,507.91" style="stroke:#181818;stroke-width:1.0;"/><text fill="#000000" font-family="sans-serif" font-size="13" lengthAdjust="spacing" textLength="43" x="470" y="474.0283">creates</text><text fill="#000000" font-family="sans-serif" font-size="13" lengthAdjust="spacing" textLength="7" x="337.4789" y="432.6835">1</text><text fill="#000000" font-family="sans-serif" font-size="13" lengthAdjust="spacing" textLength="5" x="515.371" y="496.7997">*</text></g><!--reverse link Team to Collaborator--><g id="link_Team_Collaborator"><path codeLine="89" d="M724.6424,598.2658 C785.3124,627.6158 858.69,663.13 937.27,701.15 " fill="none" id="Team-backto-Collaborator" style="stroke:#181818;stroke-width:1.0;"/><polygon fill="none" points="713.84,593.04,717.4992,599.2537,724.6424,598.2658,720.9831,592.0521,713.84,593.04" style="stroke:#181818;stroke-width:1.0;"/><text fill="#000000" font-family="sans-serif" font-size="13" lengthAdjust="spacing" textLength="21" x="815" y="638.0283">has</text><text fill="#000000" font-family="sans-serif" font-size="13" lengthAdjust="spacing" textLength="5" x="924.3555" y="694.048">*</text></g><!--reverse link Collaborator to Skill--><g id="link_Collaborator_Skill"><path codeLine="90" d="M1232.4276,953.6779 C1247.7576,982.4179 1257.18,1000.08 1268.86,1021.99 " fill="none" id="Collaborator-backto-Skill" style="stroke:#181818;stroke-width:1.0;"/><polygon fill="none" points="1226.78,943.09,1226.0745,950.2665,1232.4276,953.6779,1233.1331,946.5014,1226.78,943.09" style="stroke:#181818;stroke-width:1.0;"/><text fill="#000000" font-family="sans-serif" font-size="13" lengthAdjust="spacing" textLength="21" x="1252" y="988.0283">has</text><text fill="#000000" font-family="sans-serif" font-size="13" lengthAdjust="spacing" textLength="5" x="1259.933" y="1010.8925">*</text></g><!--link GenerateTeamProposalController to Team--><g id="link_GenerateTeamProposalController_Team"><path codeLine="92" d="M917.74,148.14 C772.73,215.36 575,307 575,307 C575,307 575,429 575,429 C575,429 591.8838,467.398 607.1938,502.198 " fill="none" id="GenerateTeamProposalController-to-Team" style="stroke:#181818;stroke-width:1.0;stroke-dasharray:7.0,7.0;"/><polygon fill="#181818" points="609.61,507.69,609.6471,497.8412,607.5965,503.1133,602.3244,501.0628,609.61,507.69" style="stroke:#181818;stroke-width:1.0;"/><text fill="#000000" font-family="sans-serif" font-size="13" lengthAdjust="spacing" textLength="29" x="681" y="273.0283">team</text></g><!--link SkillRepository to Skill--><g id="link_SkillRepository_Skill"><path codeLine="95" d="M1424.54,392.21 C1417.81,499.6 1390,943 1390,943 C1390,943 1357.7488,982.2539 1329.1588,1017.0539 " fill="none" id="SkillRepository-to-Skill" style="stroke:#181818;stroke-width:1.0;"/><polygon fill="#181818" points="1325.35,1021.69,1334.1539,1017.2751,1328.524,1017.8266,1327.9724,1012.1967,1325.35,1021.69" style="stroke:#181818;stroke-width:1.0;"/><text fill="#000000" font-family="sans-serif" font-size="13" lengthAdjust="spacing" textLength="21" x="1410" y="638.0283">has</text></g><!--link CollaboratorRepository to Collaborator--><g id="link_CollaboratorRepository_Collaborator"><path codeLine="96" d="M1194.77,392.21 C1189.81,443.88 1178.1133,565.7574 1168.5033,665.8774 " fill="none" id="CollaboratorRepository-to-Collaborator" style="stroke:#181818;stroke-width:1.0;"/><polygon fill="#181818" points="1167.93,671.85,1172.7716,663.2734,1168.4077,666.8729,1164.8082,662.509,1167.93,671.85" style="stroke:#181818;stroke-width:1.0;"/><text fill="#000000" font-family="sans-serif" font-size="13" lengthAdjust="spacing" textLength="21" x="1185" y="556.0283">has</text></g><!--link TeamRepository to Team--><g id="link_TeamRepository_Team"><path codeLine="97" d="M764.74,429.1 C735.39,454.95 706.3039,480.5558 679.7639,503.9158 " fill="none" id="TeamRepository-to-Team" style="stroke:#181818;stroke-width:1.0;"/><polygon fill="#181818" points="675.26,507.88,684.6586,504.9362,679.0132,504.5765,679.373,498.9311,675.26,507.88" style="stroke:#181818;stroke-width:1.0;"/><text fill="#000000" font-family="sans-serif" font-size="13" lengthAdjust="spacing" textLength="21" x="732" y="474.0283">has</text></g><!--SRC=[hLNBRjim4BppAuXSBDToqLw58a2G0As1fYZYzDOBBMqi8dmO9DrMBVhl9VKaASbnZFfaSOVBcTdbSg6VgJWGHJZcKiYyL983Dke8Q8WSIFvCzh0r5GEi83T4x9aFq2Kfv4ygzlY9CEr761LWgWFWWsIL-q2BYQ1KHY9lLyw8rZV6ABex6jZaKcpfRy3l45emU3BOIApelZIue8uEbGAXUW_-z72F_o1iVoltFrcs__SWG143Zq3uLoKFKXEMS2eeFtANEyMS_1e-B1N6T8fpoHZPIRjJAhr4VxjZFawakvN2A8i7rJCu3KlgKnx0BbERlmgFyzUDtJzyTveOrMPR4_LacbkVyd_Mt-JA5RIP4Wvy1wqp9wpvjh6MzERrIYZergfriEZBsGXjsos7P8cp03H0jg6DSsPC8nu3Qsrau1dbjLI7s7JY019cxdlYbPK8Aj0LvbGbciWFmcZHnLpxT05I5DvQGBQlHPlB6dwZ5Aa-spxxu0k-RdEDMc3iJPzJ43jNChorTrhisxKTLQPqBEC0AJZLsbxhEsB8E5Weq3fUvd976NmvEZOsHeLf0y09PJ6Q5dSoFt8Gvj4DeDdeADyga9SuMUaW90sffntP57yNFi6qOPL6FDBHoNsbIoart3TUNzekH11MQGW4T8Ymwq-KRTKWQkNrjfaB__RwXV67NXYYDa4mAJBxz7ZNFuYjroCmRGS7Yf4MUlN-AhxTCwZfUpu33cyyEaDWF68o7Bq9P-IO6KNPp6joHiPeScNH-uEGUsMTu5hucqQuEx0UHnhLdrYkrtKm60SPBeb6mL8FR3glGPp9ikLskTFwOeD3VpMA3t3U-8fcokHW4mv59N2eLc_jpZy0]--></g></svg>