<?xml version="1.0" encoding="us-ascii" standalone="no"?><svg xmlns="http://www.w3.org/2000/svg" xmlns:xlink="http://www.w3.org/1999/xlink" contentStyleType="text/css" height="567px" preserveAspectRatio="none" style="width:1403px;height:567px;background:#FFFFFF;" version="1.1" viewBox="0 0 1403 567" width="1403px" zoomAndPan="magnify"><defs/><g><rect fill="#FFFFFF" height="403.1523" style="stroke:#181818;stroke-width:1.0;" width="10" x="410" y="90.5332"/><rect fill="#FFFFFF" height="31.291" style="stroke:#181818;stroke-width:1.0;" width="10" x="582.5" y="148.1152"/><rect fill="#FFFFFF" height="31.291" style="stroke:#181818;stroke-width:1.0;" width="10" x="687.5" y="210.6973"/><rect fill="#FFFFFF" height="182.1152" style="stroke:#181818;stroke-width:1.0;" width="10" x="841" y="273.2793"/><rect fill="#FFFFFF" height="80.582" style="stroke:#181818;stroke-width:1.0;" width="10" x="846" y="374.8125"/><rect fill="#FFFFFF" height="36.291" style="stroke:#181818;stroke-width:1.0;" width="10" x="851" y="419.1035"/><rect fill="none" height="357.8613" style="stroke:#000000;stroke-width:1.5;" width="1108" x="289" y="105.5332"/><line style="stroke:#181818;stroke-width:0.5;stroke-dasharray:5.0,5.0;" x1="415" x2="415" y1="57.2422" y2="511.6855"/><line style="stroke:#181818;stroke-width:0.5;stroke-dasharray:5.0,5.0;" x1="587" x2="587" y1="57.2422" y2="511.6855"/><line style="stroke:#181818;stroke-width:0.5;stroke-dasharray:5.0,5.0;" x1="692" x2="692" y1="57.2422" y2="511.6855"/><line style="stroke:#181818;stroke-width:0.5;stroke-dasharray:5.0,5.0;" x1="846" x2="846" y1="57.2422" y2="511.6855"/><line style="stroke:#181818;stroke-width:0.5;stroke-dasharray:5.0,5.0;" x1="1332" x2="1332" y1="322.4004" y2="511.6855"/><rect fill="#E3E3E3" height="32.6211" rx="2.5" ry="2.5" style="stroke:#181818;stroke-width:0.5;" width="232" x="299" y="23.6211"/><text fill="#000000" font-family="sans-serif" font-size="14" lengthAdjust="spacing" textLength="218" x="306" y="45.7285">:GenerateTeamProposalController</text><rect fill="#E3E3E3" height="32.6211" rx="2.5" ry="2.5" style="stroke:#181818;stroke-width:0.5;" width="232" x="299" y="510.6855"/><text fill="#000000" font-family="sans-serif" font-size="14" lengthAdjust="spacing" textLength="218" x="306" y="532.793">:GenerateTeamProposalController</text><rect fill="#E3E3E3" height="32.6211" rx="2.5" ry="2.5" style="stroke:#181818;stroke-width:0.5;" width="93" x="541" y="23.6211"/><text fill="#000000" font-family="sans-serif" font-size="14" lengthAdjust="spacing" textLength="79" x="548" y="45.7285">Repositories</text><rect fill="#E3E3E3" height="32.6211" rx="2.5" ry="2.5" style="stroke:#181818;stroke-width:0.5;" width="93" x="541" y="510.6855"/><text fill="#000000" font-family="sans-serif" font-size="14" lengthAdjust="spacing" textLength="79" x="548" y="532.793">Repositories</text><rect fill="#E3E3E3" height="51.2422" rx="2.5" ry="2.5" style="stroke:#181818;stroke-width:0.5;" width="97" x="644" y="5"/><text fill="#000000" font-family="sans-serif" font-size="14" lengthAdjust="spacing" textLength="74" x="655.5" y="27.1074">repositories</text><text fill="#000000" font-family="sans-serif" font-size="14" lengthAdjust="spacing" textLength="83" x="651" y="45.7285">:Repositories</text><rect fill="#E3E3E3" height="51.2422" rx="2.5" ry="2.5" style="stroke:#181818;stroke-width:0.5;" width="97" x="644" y="510.6855"/><text fill="#000000" font-family="sans-serif" font-size="14" lengthAdjust="spacing" textLength="74" x="655.5" y="532.793">repositories</text><text fill="#000000" font-family="sans-serif" font-size="14" lengthAdjust="spacing" textLength="83" x="651" y="551.4141">:Repositories</text><rect fill="#E3E3E3" height="51.2422" rx="2.5" ry="2.5" style="stroke:#181818;stroke-width:0.5;" width="178" x="757" y="5"/><text fill="#000000" font-family="sans-serif" font-size="14" lengthAdjust="spacing" textLength="155" x="768.5" y="27.1074">teamProposalRepository</text><text fill="#000000" font-family="sans-serif" font-size="14" lengthAdjust="spacing" textLength="164" x="764" y="45.7285">:TeamProposalRepository</text><rect fill="#E3E3E3" height="51.2422" rx="2.5" ry="2.5" style="stroke:#181818;stroke-width:0.5;" width="178" x="757" y="510.6855"/><text fill="#000000" font-family="sans-serif" font-size="14" lengthAdjust="spacing" textLength="155" x="768.5" y="532.793">teamProposalRepository</text><text fill="#000000" font-family="sans-serif" font-size="14" lengthAdjust="spacing" textLength="164" x="764" y="551.4141">:TeamProposalRepository</text><rect fill="#E3E3E3" height="51.2422" rx="2.5" ry="2.5" style="stroke:#181818;stroke-width:0.5;" width="110" x="1277" y="510.6855"/><text fill="#000000" font-family="sans-serif" font-size="14" lengthAdjust="spacing" textLength="87" x="1288.5" y="532.793">teamProposal</text><text fill="#000000" font-family="sans-serif" font-size="14" lengthAdjust="spacing" textLength="96" x="1284" y="551.4141">:TeamProposal</text><rect fill="#FFFFFF" height="403.1523" style="stroke:#181818;stroke-width:1.0;" width="10" x="410" y="90.5332"/><rect fill="#FFFFFF" height="31.291" style="stroke:#181818;stroke-width:1.0;" width="10" x="582.5" y="148.1152"/><rect fill="#FFFFFF" height="31.291" style="stroke:#181818;stroke-width:1.0;" width="10" x="687.5" y="210.6973"/><rect fill="#FFFFFF" height="182.1152" style="stroke:#181818;stroke-width:1.0;" width="10" x="841" y="273.2793"/><rect fill="#FFFFFF" height="80.582" style="stroke:#181818;stroke-width:1.0;" width="10" x="846" y="374.8125"/><rect fill="#FFFFFF" height="36.291" style="stroke:#181818;stroke-width:1.0;" width="10" x="851" y="419.1035"/><polygon fill="#181818" points="398,86.5332,408,90.5332,398,94.5332,402,90.5332" style="stroke:#181818;stroke-width:1.0;"/><line style="stroke:#181818;stroke-width:1.0;" x1="0" x2="404" y1="90.5332" y2="90.5332"/><text fill="#000000" font-family="sans-serif" font-size="13" font-weight="bold" lengthAdjust="spacing" textLength="14" x="7" y="85.2705">13</text><text fill="#000000" font-family="sans-serif" font-size="13" lengthAdjust="spacing" textLength="373" x="25" y="85.2705">generateTeamProposal(minimumSize, maximumSize, members)</text><path d="M289,105.5332 L493,105.5332 L493,114.8242 L483,124.8242 L289,124.8242 L289,105.5332 " fill="#EEEEEE" style="stroke:#000000;stroke-width:1.5;"/><rect fill="none" height="357.8613" style="stroke:#000000;stroke-width:1.5;" width="1108" x="289" y="105.5332"/><text fill="#000000" font-family="sans-serif" font-size="13" font-weight="bold" lengthAdjust="spacing" textLength="159" x="304" y="120.5615">Generate Team Proposal</text><polygon fill="#181818" points="570.5,144.1152,580.5,148.1152,570.5,152.1152,574.5,148.1152" style="stroke:#181818;stroke-width:1.0;"/><line style="stroke:#181818;stroke-width:1.0;" x1="420" x2="576.5" y1="148.1152" y2="148.1152"/><text fill="#000000" font-family="sans-serif" font-size="13" font-weight="bold" lengthAdjust="spacing" textLength="25" x="427" y="142.8525">13.1</text><text fill="#000000" font-family="sans-serif" font-size="13" lengthAdjust="spacing" textLength="75" x="456" y="142.8525">getInstance()</text><polygon fill="#181818" points="431,175.4063,421,179.4063,431,183.4063,427,179.4063" style="stroke:#181818;stroke-width:1.0;"/><line style="stroke:#181818;stroke-width:1.0;stroke-dasharray:2.0,2.0;" x1="425" x2="586.5" y1="179.4063" y2="179.4063"/><text fill="#000000" font-family="sans-serif" font-size="13" font-weight="bold" lengthAdjust="spacing" textLength="25" x="437" y="174.1436">13.2</text><text fill="#000000" font-family="sans-serif" font-size="13" lengthAdjust="spacing" textLength="67" x="466" y="174.1436">repositories</text><polygon fill="#181818" points="675.5,206.6973,685.5,210.6973,675.5,214.6973,679.5,210.6973" style="stroke:#181818;stroke-width:1.0;"/><line style="stroke:#181818;stroke-width:1.0;" x1="420" x2="681.5" y1="210.6973" y2="210.6973"/><text fill="#000000" font-family="sans-serif" font-size="13" font-weight="bold" lengthAdjust="spacing" textLength="25" x="427" y="205.4346">13.3</text><text fill="#000000" font-family="sans-serif" font-size="13" lengthAdjust="spacing" textLength="171" x="456" y="205.4346">getTeamProposalRepository()</text><polygon fill="#181818" points="431,237.9883,421,241.9883,431,245.9883,427,241.9883" style="stroke:#181818;stroke-width:1.0;"/><line style="stroke:#181818;stroke-width:1.0;stroke-dasharray:2.0,2.0;" x1="425" x2="691.5" y1="241.9883" y2="241.9883"/><text fill="#000000" font-family="sans-serif" font-size="13" font-weight="bold" lengthAdjust="spacing" textLength="25" x="437" y="236.7256">13.4</text><text fill="#000000" font-family="sans-serif" font-size="13" lengthAdjust="spacing" textLength="142" x="466" y="236.7256">teamProposalRepository</text><polygon fill="#181818" points="829,269.2793,839,273.2793,829,277.2793,833,273.2793" style="stroke:#181818;stroke-width:1.0;"/><line style="stroke:#181818;stroke-width:1.0;" x1="420" x2="835" y1="273.2793" y2="273.2793"/><text fill="#000000" font-family="sans-serif" font-size="13" font-weight="bold" lengthAdjust="spacing" textLength="25" x="427" y="268.0166">13.5</text><text fill="#000000" font-family="sans-serif" font-size="13" lengthAdjust="spacing" textLength="373" x="456" y="268.0166">generateTeamProposal(minimumSize, maximumSize, members)</text><polygon fill="#181818" points="1265,300.5703,1275,304.5703,1265,308.5703,1269,304.5703" style="stroke:#181818;stroke-width:1.0;"/><line style="stroke:#181818;stroke-width:1.0;" x1="851" x2="1271" y1="304.5703" y2="304.5703"/><text fill="#000000" font-family="sans-serif" font-size="13" font-weight="bold" lengthAdjust="spacing" textLength="25" x="858" y="299.3076">13.6</text><text fill="#000000" font-family="sans-serif" font-size="13" lengthAdjust="spacing" textLength="373" x="887" y="299.3076">generateTeamProposal(minimumSize, maximumSize, members)</text><rect fill="#E3E3E3" height="51.2422" rx="2.5" ry="2.5" style="stroke:#181818;stroke-width:0.5;" width="110" x="1277" y="281.2793"/><text fill="#000000" font-family="sans-serif" font-size="14" lengthAdjust="spacing" textLength="87" x="1288.5" y="303.3867">teamProposal</text><text fill="#000000" font-family="sans-serif" font-size="14" lengthAdjust="spacing" textLength="96" x="1284" y="322.0078">:TeamProposal</text><line style="stroke:#181818;stroke-width:1.0;" x1="851" x2="898" y1="361.8125" y2="361.8125"/><line style="stroke:#181818;stroke-width:1.0;" x1="898" x2="898" y1="361.8125" y2="374.8125"/><line style="stroke:#181818;stroke-width:1.0;" x1="857" x2="898" y1="374.8125" y2="374.8125"/><polygon fill="#181818" points="867,370.8125,857,374.8125,867,378.8125,863,374.8125" style="stroke:#181818;stroke-width:1.0;"/><text fill="#000000" font-family="sans-serif" font-size="13" font-weight="bold" lengthAdjust="spacing" textLength="25" x="863" y="356.5498">13.7</text><text fill="#000000" font-family="sans-serif" font-size="13" lengthAdjust="spacing" textLength="192" x="892" y="356.5498">addTeamProposal(teamProposal)</text><line style="stroke:#181818;stroke-width:1.0;" x1="856" x2="903" y1="406.1035" y2="406.1035"/><line style="stroke:#181818;stroke-width:1.0;" x1="903" x2="903" y1="406.1035" y2="419.1035"/><line style="stroke:#181818;stroke-width:1.0;" x1="862" x2="903" y1="419.1035" y2="419.1035"/><polygon fill="#181818" points="872,415.1035,862,419.1035,872,423.1035,868,419.1035" style="stroke:#181818;stroke-width:1.0;"/><text fill="#000000" font-family="sans-serif" font-size="13" font-weight="bold" lengthAdjust="spacing" textLength="25" x="868" y="400.8408">13.8</text><text fill="#000000" font-family="sans-serif" font-size="13" lengthAdjust="spacing" textLength="214" x="897" y="400.8408">validateTeamProposal(teamProposal)</text><polygon fill="#181818" points="431,451.3945,421,455.3945,431,459.3945,427,455.3945" style="stroke:#181818;stroke-width:1.0;"/><line style="stroke:#181818;stroke-width:1.0;stroke-dasharray:2.0,2.0;" x1="425" x2="845" y1="455.3945" y2="455.3945"/><text fill="#000000" font-family="sans-serif" font-size="13" font-weight="bold" lengthAdjust="spacing" textLength="25" x="437" y="450.1318">13.9</text><text fill="#000000" font-family="sans-serif" font-size="13" lengthAdjust="spacing" textLength="80" x="466" y="450.1318">teamProposal</text><polygon fill="#181818" points="11,489.6855,1,493.6855,11,497.6855,7,493.6855" style="stroke:#181818;stroke-width:1.0;"/><line style="stroke:#181818;stroke-width:1.0;stroke-dasharray:2.0,2.0;" x1="5" x2="414" y1="493.6855" y2="493.6855"/><text fill="#000000" font-family="sans-serif" font-size="13" font-weight="bold" lengthAdjust="spacing" textLength="14" x="17" y="488.4229">14</text><text fill="#000000" font-family="sans-serif" font-size="13" lengthAdjust="spacing" textLength="80" x="35" y="488.4229">teamProposal</text><!--SRC=[fLHTIyCm57tlhxZuj0qd37qg8iWe8YYMRO- -nFRQXJL9ITBf_FMcsTRTT7K3bxVSZtFE_KZCYikAQIP0AAcofLO2mUeQ8zDwAfQjM85pkoaHD6QMoQAa0MR9SlN5PG6Vh3GOHSviUSOh9YrSnKyeKJEB2sGYrQfIXfLJ9QrMPOdw2fY1wMBs4cJDq8LngpH74y9fudcNCGtqKBCa3HCieMsZDovrqUlm88layJMTlPt4wY3uFEgF8bPR9MlnWHecjz7umPS9CHGz3Ha8BhcenPp_u3K8zaqks42OOGVmPk8CcULhXxHj8BXJQ5LNi6yvD1HmK0IxuuKuGRHxZIxxB8qRRuQ3OHlRSWGpQTtDeHuOxmgDWOwgZS_n362hBKczfFunzGfqumfr9IcHqxy8lS8eq5xFOIV-Fy4ZoMJH0kK7UqDDbOz65omGT4v8Gsuni3mFuAc6uH7GsOBEiArPoVDkHHTIKhhU9GZ3oVp_GZmJSiADCjy-pUsLFkGxRxaVZ_VVGoYHWFf77lq2]--></g></svg>