<?xml version="1.0" encoding="us-ascii" standalone="no"?><svg xmlns="http://www.w3.org/2000/svg" xmlns:xlink="http://www.w3.org/1999/xlink" contentStyleType="text/css" height="427px" preserveAspectRatio="none" style="width:457px;height:427px;background:#FFFFFF;" version="1.1" viewBox="0 0 457 427" width="457px" zoomAndPan="magnify"><defs/><g><text fill="#000000" font-family="sans-serif" font-size="14" font-weight="bold" lengthAdjust="spacing" textLength="363" x="48.5" y="28.5352">System Sequence Diagram (SSD) - Alternative One</text><rect fill="#FFFFFF" height="208.1738" style="stroke:#181818;stroke-width:1.0;" width="10" x="96" y="128.9766"/><rect fill="#FFFFFF" height="53.6211" style="stroke:#181818;stroke-width:1.0;" width="10" x="403" y="150.2871"/><rect fill="#FFFFFF" height="36.3105" style="stroke:#181818;stroke-width:1.0;" width="10" x="403" y="233.2188"/><rect fill="#FFFFFF" height="29.3105" style="stroke:#181818;stroke-width:1.0;" width="10" x="403" y="298.8398"/><rect fill="none" height="75.9316" style="stroke:#000000;stroke-width:1.5;" width="441" x="10" y="165.2871"/><line style="stroke:#181818;stroke-width:0.5;stroke-dasharray:5.0,5.0;" x1="101" x2="101" y1="118.9766" y2="346.1504"/><line style="stroke:#181818;stroke-width:0.5;stroke-dasharray:5.0,5.0;" x1="408" x2="408" y1="118.9766" y2="346.1504"/><text fill="#000000" font-family="sans-serif" font-size="14" lengthAdjust="spacing" textLength="156" x="20" y="116.0234">Green Spaces Manager</text><ellipse cx="101" cy="50.9883" fill="#E3E3E3" rx="8" ry="8" style="stroke:#181818;stroke-width:0.5;"/><path d="M101,58.9883 L101,85.9883 M88,66.9883 L114,66.9883 M101,85.9883 L88,100.9883 M101,85.9883 L114,100.9883 " fill="none" style="stroke:#181818;stroke-width:0.5;"/><text fill="#000000" font-family="sans-serif" font-size="14" lengthAdjust="spacing" textLength="156" x="20" y="358.6855">Green Spaces Manager</text><ellipse cx="101" cy="370.1387" fill="#E3E3E3" rx="8" ry="8" style="stroke:#181818;stroke-width:0.5;"/><path d="M101,378.1387 L101,405.1387 M88,386.1387 L114,386.1387 M101,405.1387 L88,420.1387 M101,405.1387 L114,420.1387 " fill="none" style="stroke:#181818;stroke-width:0.5;"/><rect fill="#E3E3E3" height="30.4883" rx="2.5" ry="2.5" style="stroke:#181818;stroke-width:0.5;" width="66" x="375" y="87.4883"/><text fill="#000000" font-family="sans-serif" font-size="14" lengthAdjust="spacing" textLength="52" x="382" y="108.0234">:System</text><rect fill="#E3E3E3" height="30.4883" rx="2.5" ry="2.5" style="stroke:#181818;stroke-width:0.5;" width="66" x="375" y="345.1504"/><text fill="#000000" font-family="sans-serif" font-size="14" lengthAdjust="spacing" textLength="52" x="382" y="365.6855">:System</text><rect fill="#FFFFFF" height="208.1738" style="stroke:#181818;stroke-width:1.0;" width="10" x="96" y="128.9766"/><rect fill="#FFFFFF" height="53.6211" style="stroke:#181818;stroke-width:1.0;" width="10" x="403" y="150.2871"/><rect fill="#FFFFFF" height="36.3105" style="stroke:#181818;stroke-width:1.0;" width="10" x="403" y="233.2188"/><rect fill="#FFFFFF" height="29.3105" style="stroke:#181818;stroke-width:1.0;" width="10" x="403" y="298.8398"/><polygon fill="#181818" points="391,146.2871,401,150.2871,391,154.2871,395,150.2871" style="stroke:#181818;stroke-width:1.0;"/><line style="stroke:#181818;stroke-width:1.0;" x1="106" x2="397" y1="150.2871" y2="150.2871"/><text fill="#000000" font-family="sans-serif" font-size="13" font-weight="bold" lengthAdjust="spacing" textLength="9" x="113" y="145.5449">1</text><text fill="#000000" font-family="sans-serif" font-size="13" lengthAdjust="spacing" textLength="137" x="126" y="145.5449">asks to cancel a entry</text><path d="M10,165.2871 L84,165.2871 L84,172.5977 L74,182.5977 L10,182.5977 L10,165.2871 " fill="#EEEEEE" style="stroke:#000000;stroke-width:1.5;"/><rect fill="none" height="75.9316" style="stroke:#000000;stroke-width:1.5;" width="441" x="10" y="165.2871"/><text fill="#000000" font-family="sans-serif" font-size="13" font-weight="bold" lengthAdjust="spacing" textLength="29" x="25" y="178.8555">loop</text><polygon fill="#181818" points="117,199.9082,107,203.9082,117,207.9082,113,203.9082" style="stroke:#181818;stroke-width:1.0;"/><line style="stroke:#181818;stroke-width:1.0;stroke-dasharray:2.0,2.0;" x1="111" x2="407" y1="203.9082" y2="203.9082"/><text fill="#000000" font-family="sans-serif" font-size="13" font-weight="bold" lengthAdjust="spacing" textLength="9" x="123" y="199.166">2</text><text fill="#000000" font-family="sans-serif" font-size="13" lengthAdjust="spacing" textLength="154" x="136" y="199.166">shows registered entries</text><polygon fill="#181818" points="391,229.2188,401,233.2188,391,237.2188,395,233.2188" style="stroke:#181818;stroke-width:1.0;"/><line style="stroke:#181818;stroke-width:1.0;" x1="106" x2="397" y1="233.2188" y2="233.2188"/><text fill="#000000" font-family="sans-serif" font-size="13" font-weight="bold" lengthAdjust="spacing" textLength="9" x="113" y="228.4766">3</text><text fill="#000000" font-family="sans-serif" font-size="13" lengthAdjust="spacing" textLength="149" x="126" y="228.4766">chooses entry to cancel</text><polygon fill="#181818" points="117,265.5293,107,269.5293,117,273.5293,113,269.5293" style="stroke:#181818;stroke-width:1.0;"/><line style="stroke:#181818;stroke-width:1.0;stroke-dasharray:2.0,2.0;" x1="111" x2="407" y1="269.5293" y2="269.5293"/><text fill="#000000" font-family="sans-serif" font-size="13" font-weight="bold" lengthAdjust="spacing" textLength="9" x="123" y="264.7871">4</text><text fill="#000000" font-family="sans-serif" font-size="13" lengthAdjust="spacing" textLength="260" x="136" y="264.7871">shows all data and requests confirmation</text><polygon fill="#181818" points="391,294.8398,401,298.8398,391,302.8398,395,298.8398" style="stroke:#181818;stroke-width:1.0;"/><line style="stroke:#181818;stroke-width:1.0;" x1="106" x2="397" y1="298.8398" y2="298.8398"/><text fill="#000000" font-family="sans-serif" font-size="13" font-weight="bold" lengthAdjust="spacing" textLength="9" x="113" y="294.0977">5</text><text fill="#000000" font-family="sans-serif" font-size="13" lengthAdjust="spacing" textLength="87" x="126" y="294.0977">confirms data</text><polygon fill="#181818" points="117,324.1504,107,328.1504,117,332.1504,113,328.1504" style="stroke:#181818;stroke-width:1.0;"/><line style="stroke:#181818;stroke-width:1.0;" x1="111" x2="407" y1="328.1504" y2="328.1504"/><text fill="#000000" font-family="sans-serif" font-size="13" font-weight="bold" lengthAdjust="spacing" textLength="9" x="123" y="323.4082">6</text><text fill="#000000" font-family="sans-serif" font-size="13" lengthAdjust="spacing" textLength="170" x="136" y="323.4082">displays operation success</text><!--SRC=[XP5DRW8n38NtSmgBLRlW0YmgLQBggkfYJc0oPeX8x6di0StjQqA1_Z1gLedytikdPzr77h1WXYmiOLSa4rWPgT7hPC2mnvvQcn91eM38VVekq1rsSepSmnQJKjDOD9UsanfbQEbZ90u4wuZzIVxGjkj7MC9pCYgC5Wy4x-ms74rup1igVWyc1HQlXOYXTGHIU4DsZh80L7Z9GvA9g744Yo4Eo0QBrVdFgZXVQr8yeD7Dqe2VomkMJnVIbTls2YOGq84J811RcQh-6dF9JI93dPpELyBImwx1Aoz6ZkgLzT6dXReQ5qchhQC_aRDSOIUYta35kG7U1oFkcl-OC2Neq12GEmVq3Qaf1E5jBDbN8Zp3E4jujcfDRUvW_Mxg1rGNTKWuASX0fNuFEWRV-MnLdm00]--></g></svg>