<?xml version="1.0" encoding="us-ascii" standalone="no"?><svg xmlns="http://www.w3.org/2000/svg" xmlns:xlink="http://www.w3.org/1999/xlink" contentStyleType="text/css" height="1059px" preserveAspectRatio="none" style="width:1429px;height:1059px;background:#FFFFFF;" version="1.1" viewBox="0 0 1429 1059" width="1429px" zoomAndPan="magnify"><defs/><g><rect fill="#FFFFFF" height="869.3613" style="stroke:#181818;stroke-width:1.0;" width="10" x="96" y="91.4883"/><rect fill="#FFFFFF" height="848.0508" style="stroke:#181818;stroke-width:1.0;" width="10" x="497" y="112.7988"/><rect fill="#FFFFFF" height="205.1738" style="stroke:#181818;stroke-width:1.0;" width="10" x="737" y="142.1094"/><rect fill="#FFFFFF" height="347.7715" style="stroke:#181818;stroke-width:1.0;" width="10" x="737" y="583.7676"/><rect fill="#FFFFFF" height="29.3105" style="stroke:#181818;stroke-width:1.0;" width="10" x="892" y="171.4199"/><rect fill="#FFFFFF" height="29.3105" style="stroke:#181818;stroke-width:1.0;" width="10" x="892" y="613.0781"/><rect fill="#FFFFFF" height="29.3105" style="stroke:#181818;stroke-width:1.0;" width="10" x="1005" y="230.041"/><rect fill="#FFFFFF" height="29.3105" style="stroke:#181818;stroke-width:1.0;" width="10" x="1005" y="671.6992"/><rect fill="#FFFFFF" height="29.3105" style="stroke:#181818;stroke-width:1.0;" width="10" x="1128" y="288.6621"/><rect fill="#FFFFFF" height="171.9082" style="stroke:#181818;stroke-width:1.0;" width="10" x="1128" y="730.3203"/><rect fill="#FFFFFF" height="76.6211" style="stroke:#181818;stroke-width:1.0;" width="10" x="1133" y="825.6074"/><rect fill="#FFFFFF" height="34.3105" style="stroke:#181818;stroke-width:1.0;" width="10" x="1138" y="867.918"/><rect fill="none" height="75.9316" style="stroke:#000000;stroke-width:1.5;" width="567.5" x="10" y="362.2832"/><line style="stroke:#181818;stroke-width:0.5;stroke-dasharray:5.0,5.0;" x1="101" x2="101" y1="81.4883" y2="978.8496"/><line style="stroke:#181818;stroke-width:0.5;stroke-dasharray:5.0,5.0;" x1="501.5" x2="501.5" y1="81.4883" y2="978.8496"/><line style="stroke:#181818;stroke-width:0.5;stroke-dasharray:5.0,5.0;" x1="741.5" x2="741.5" y1="81.4883" y2="978.8496"/><line style="stroke:#181818;stroke-width:0.5;stroke-dasharray:5.0,5.0;" x1="896.5" x2="896.5" y1="81.4883" y2="978.8496"/><line style="stroke:#181818;stroke-width:0.5;stroke-dasharray:5.0,5.0;" x1="1009.5" x2="1009.5" y1="81.4883" y2="978.8496"/><line style="stroke:#181818;stroke-width:0.5;stroke-dasharray:5.0,5.0;" x1="1132.5" x2="1132.5" y1="81.4883" y2="978.8496"/><line style="stroke:#181818;stroke-width:0.5;stroke-dasharray:5.0,5.0;" x1="1398" x2="1398" y1="777.3086" y2="978.8496"/><text fill="#000000" font-family="sans-serif" font-size="14" lengthAdjust="spacing" textLength="156" x="20" y="78.5352">Green Spaces Manager</text><ellipse cx="101" cy="13.5" fill="#E3E3E3" rx="8" ry="8" style="stroke:#181818;stroke-width:0.5;"/><path d="M101,21.5 L101,48.5 M88,29.5 L114,29.5 M101,48.5 L88,63.5 M101,48.5 L114,63.5 " fill="none" style="stroke:#181818;stroke-width:0.5;"/><text fill="#000000" font-family="sans-serif" font-size="14" lengthAdjust="spacing" textLength="156" x="20" y="991.3848">Green Spaces Manager</text><ellipse cx="101" cy="1002.8379" fill="#E3E3E3" rx="8" ry="8" style="stroke:#181818;stroke-width:0.5;"/><path d="M101,1010.8379 L101,1037.8379 M88,1018.8379 L114,1018.8379 M101,1037.8379 L88,1052.8379 M101,1037.8379 L114,1052.8379 " fill="none" style="stroke:#181818;stroke-width:0.5;"/><rect fill="#E3E3E3" height="30.4883" rx="2.5" ry="2.5" style="stroke:#181818;stroke-width:0.5;" width="131" x="436.5" y="50"/><text fill="#000000" font-family="sans-serif" font-size="14" lengthAdjust="spacing" textLength="117" x="443.5" y="70.5352">:PostponeEntryUI</text><rect fill="#E3E3E3" height="30.4883" rx="2.5" ry="2.5" style="stroke:#181818;stroke-width:0.5;" width="131" x="436.5" y="977.8496"/><text fill="#000000" font-family="sans-serif" font-size="14" lengthAdjust="spacing" textLength="117" x="443.5" y="998.3848">:PostponeEntryUI</text><rect fill="#E3E3E3" height="30.4883" rx="2.5" ry="2.5" style="stroke:#181818;stroke-width:0.5;" width="187" x="648.5" y="50"/><text fill="#000000" font-family="sans-serif" font-size="14" lengthAdjust="spacing" textLength="173" x="655.5" y="70.5352">:PostponeEntryController</text><rect fill="#E3E3E3" height="30.4883" rx="2.5" ry="2.5" style="stroke:#181818;stroke-width:0.5;" width="187" x="648.5" y="977.8496"/><text fill="#000000" font-family="sans-serif" font-size="14" lengthAdjust="spacing" textLength="173" x="655.5" y="998.3848">:PostponeEntryController</text><rect fill="#E3E3E3" height="30.4883" rx="2.5" ry="2.5" style="stroke:#181818;stroke-width:0.5;" width="103" x="845.5" y="50"/><text fill="#000000" font-family="sans-serif" font-size="14" lengthAdjust="spacing" textLength="89" x="852.5" y="70.5352">:Repositories</text><rect fill="#E3E3E3" height="30.4883" rx="2.5" ry="2.5" style="stroke:#181818;stroke-width:0.5;" width="103" x="845.5" y="977.8496"/><text fill="#000000" font-family="sans-serif" font-size="14" lengthAdjust="spacing" textLength="89" x="852.5" y="998.3848">:Repositories</text><rect fill="#E3E3E3" height="46.9766" rx="2.5" ry="2.5" style="stroke:#181818;stroke-width:0.5;" width="103" x="958.5" y="33.5117"/><text fill="#000000" font-family="sans-serif" font-size="14" lengthAdjust="spacing" textLength="82" x="969" y="54.0469">repositories</text><text fill="#000000" font-family="sans-serif" font-size="14" lengthAdjust="spacing" textLength="89" x="965.5" y="70.5352">:Repositories</text><rect fill="#E3E3E3" height="46.9766" rx="2.5" ry="2.5" style="stroke:#181818;stroke-width:0.5;" width="103" x="958.5" y="977.8496"/><text fill="#000000" font-family="sans-serif" font-size="14" lengthAdjust="spacing" textLength="82" x="969" y="998.3848">repositories</text><text fill="#000000" font-family="sans-serif" font-size="14" lengthAdjust="spacing" textLength="89" x="965.5" y="1014.873">:Repositories</text><rect fill="#E3E3E3" height="46.9766" rx="2.5" ry="2.5" style="stroke:#181818;stroke-width:0.5;" width="123" x="1071.5" y="33.5117"/><text fill="#000000" font-family="sans-serif" font-size="14" lengthAdjust="spacing" textLength="101" x="1082.5" y="54.0469">taskRepository</text><text fill="#000000" font-family="sans-serif" font-size="14" lengthAdjust="spacing" textLength="109" x="1078.5" y="70.5352">:TaskRepository</text><rect fill="#E3E3E3" height="46.9766" rx="2.5" ry="2.5" style="stroke:#181818;stroke-width:0.5;" width="123" x="1071.5" y="977.8496"/><text fill="#000000" font-family="sans-serif" font-size="14" lengthAdjust="spacing" textLength="101" x="1082.5" y="998.3848">taskRepository</text><text fill="#000000" font-family="sans-serif" font-size="14" lengthAdjust="spacing" textLength="109" x="1078.5" y="1014.873">:TaskRepository</text><rect fill="#E3E3E3" height="46.9766" rx="2.5" ry="2.5" style="stroke:#181818;stroke-width:0.5;" width="50" x="1373" y="977.8496"/><text fill="#000000" font-family="sans-serif" font-size="14" lengthAdjust="spacing" textLength="28" x="1384" y="998.3848">task</text><text fill="#000000" font-family="sans-serif" font-size="14" lengthAdjust="spacing" textLength="36" x="1380" y="1014.873">:Task</text><rect fill="#FFFFFF" height="869.3613" style="stroke:#181818;stroke-width:1.0;" width="10" x="96" y="91.4883"/><rect fill="#FFFFFF" height="848.0508" style="stroke:#181818;stroke-width:1.0;" width="10" x="497" y="112.7988"/><rect fill="#FFFFFF" height="205.1738" style="stroke:#181818;stroke-width:1.0;" width="10" x="737" y="142.1094"/><rect fill="#FFFFFF" height="347.7715" style="stroke:#181818;stroke-width:1.0;" width="10" x="737" y="583.7676"/><rect fill="#FFFFFF" height="29.3105" style="stroke:#181818;stroke-width:1.0;" width="10" x="892" y="171.4199"/><rect fill="#FFFFFF" height="29.3105" style="stroke:#181818;stroke-width:1.0;" width="10" x="892" y="613.0781"/><rect fill="#FFFFFF" height="29.3105" style="stroke:#181818;stroke-width:1.0;" width="10" x="1005" y="230.041"/><rect fill="#FFFFFF" height="29.3105" style="stroke:#181818;stroke-width:1.0;" width="10" x="1005" y="671.6992"/><rect fill="#FFFFFF" height="29.3105" style="stroke:#181818;stroke-width:1.0;" width="10" x="1128" y="288.6621"/><rect fill="#FFFFFF" height="171.9082" style="stroke:#181818;stroke-width:1.0;" width="10" x="1128" y="730.3203"/><rect fill="#FFFFFF" height="76.6211" style="stroke:#181818;stroke-width:1.0;" width="10" x="1133" y="825.6074"/><rect fill="#FFFFFF" height="34.3105" style="stroke:#181818;stroke-width:1.0;" width="10" x="1138" y="867.918"/><polygon fill="#181818" points="485,108.7988,495,112.7988,485,116.7988,489,112.7988" style="stroke:#181818;stroke-width:1.0;"/><line style="stroke:#181818;stroke-width:1.0;" x1="106" x2="491" y1="112.7988" y2="112.7988"/><text fill="#000000" font-family="sans-serif" font-size="13" font-weight="bold" lengthAdjust="spacing" textLength="9" x="113" y="108.0566">1</text><text fill="#000000" font-family="sans-serif" font-size="13" lengthAdjust="spacing" textLength="257" x="126" y="108.0566">asks to postpone a entry to a future date</text><polygon fill="#181818" points="725,138.1094,735,142.1094,725,146.1094,729,142.1094" style="stroke:#181818;stroke-width:1.0;"/><line style="stroke:#181818;stroke-width:1.0;" x1="507" x2="731" y1="142.1094" y2="142.1094"/><text fill="#000000" font-family="sans-serif" font-size="13" font-weight="bold" lengthAdjust="spacing" textLength="9" x="514" y="137.3672">2</text><text fill="#000000" font-family="sans-serif" font-size="13" lengthAdjust="spacing" textLength="83" x="527" y="137.3672">getEntryList()</text><polygon fill="#181818" points="880,167.4199,890,171.4199,880,175.4199,884,171.4199" style="stroke:#181818;stroke-width:1.0;"/><line style="stroke:#181818;stroke-width:1.0;" x1="747" x2="886" y1="171.4199" y2="171.4199"/><text fill="#000000" font-family="sans-serif" font-size="13" font-weight="bold" lengthAdjust="spacing" textLength="9" x="754" y="166.6777">3</text><text fill="#000000" font-family="sans-serif" font-size="13" lengthAdjust="spacing" textLength="81" x="767" y="166.6777">getInstance()</text><polygon fill="#181818" points="758,196.7305,748,200.7305,758,204.7305,754,200.7305" style="stroke:#181818;stroke-width:1.0;"/><line style="stroke:#181818;stroke-width:1.0;" x1="752" x2="896" y1="200.7305" y2="200.7305"/><text fill="#000000" font-family="sans-serif" font-size="13" font-weight="bold" lengthAdjust="spacing" textLength="9" x="764" y="195.9883">4</text><text fill="#000000" font-family="sans-serif" font-size="13" lengthAdjust="spacing" textLength="75" x="777" y="195.9883">repositories</text><polygon fill="#181818" points="993,226.041,1003,230.041,993,234.041,997,230.041" style="stroke:#181818;stroke-width:1.0;"/><line style="stroke:#181818;stroke-width:1.0;" x1="747" x2="999" y1="230.041" y2="230.041"/><text fill="#000000" font-family="sans-serif" font-size="13" font-weight="bold" lengthAdjust="spacing" textLength="9" x="754" y="225.2988">5</text><text fill="#000000" font-family="sans-serif" font-size="13" lengthAdjust="spacing" textLength="125" x="767" y="225.2988">getTaskRepository()</text><polygon fill="#181818" points="758,255.3516,748,259.3516,758,263.3516,754,259.3516" style="stroke:#181818;stroke-width:1.0;"/><line style="stroke:#181818;stroke-width:1.0;" x1="752" x2="1009" y1="259.3516" y2="259.3516"/><text fill="#000000" font-family="sans-serif" font-size="13" font-weight="bold" lengthAdjust="spacing" textLength="9" x="764" y="254.6094">6</text><text fill="#000000" font-family="sans-serif" font-size="13" lengthAdjust="spacing" textLength="94" x="777" y="254.6094">taskRepository</text><polygon fill="#181818" points="1116,284.6621,1126,288.6621,1116,292.6621,1120,288.6621" style="stroke:#181818;stroke-width:1.0;"/><line style="stroke:#181818;stroke-width:1.0;" x1="747" x2="1122" y1="288.6621" y2="288.6621"/><text fill="#000000" font-family="sans-serif" font-size="13" font-weight="bold" lengthAdjust="spacing" textLength="9" x="754" y="283.9199">7</text><text fill="#000000" font-family="sans-serif" font-size="13" lengthAdjust="spacing" textLength="83" x="767" y="283.9199">getEntryList()</text><polygon fill="#181818" points="758,313.9727,748,317.9727,758,321.9727,754,317.9727" style="stroke:#181818;stroke-width:1.0;"/><line style="stroke:#181818;stroke-width:1.0;" x1="752" x2="1132" y1="317.9727" y2="317.9727"/><text fill="#000000" font-family="sans-serif" font-size="13" font-weight="bold" lengthAdjust="spacing" textLength="9" x="764" y="313.2305">8</text><text fill="#000000" font-family="sans-serif" font-size="13" lengthAdjust="spacing" textLength="55" x="777" y="313.2305">entryList</text><polygon fill="#181818" points="518,343.2832,508,347.2832,518,351.2832,514,347.2832" style="stroke:#181818;stroke-width:1.0;"/><line style="stroke:#181818;stroke-width:1.0;" x1="512" x2="741" y1="347.2832" y2="347.2832"/><text fill="#000000" font-family="sans-serif" font-size="13" font-weight="bold" lengthAdjust="spacing" textLength="9" x="524" y="342.541">9</text><text fill="#000000" font-family="sans-serif" font-size="13" lengthAdjust="spacing" textLength="55" x="537" y="342.541">entryList</text><path d="M10,362.2832 L84,362.2832 L84,369.5938 L74,379.5938 L10,379.5938 L10,362.2832 " fill="#EEEEEE" style="stroke:#000000;stroke-width:1.5;"/><rect fill="none" height="75.9316" style="stroke:#000000;stroke-width:1.5;" width="567.5" x="10" y="362.2832"/><text fill="#000000" font-family="sans-serif" font-size="13" font-weight="bold" lengthAdjust="spacing" textLength="29" x="25" y="375.8516">loop</text><polygon fill="#181818" points="117,396.9043,107,400.9043,117,404.9043,113,400.9043" style="stroke:#181818;stroke-width:1.0;"/><line style="stroke:#181818;stroke-width:1.0;stroke-dasharray:2.0,2.0;" x1="111" x2="496" y1="400.9043" y2="400.9043"/><text fill="#000000" font-family="sans-serif" font-size="13" font-weight="bold" lengthAdjust="spacing" textLength="18" x="123" y="396.1621">10</text><text fill="#000000" font-family="sans-serif" font-size="13" lengthAdjust="spacing" textLength="153" x="145" y="396.1621">shows registered entry's</text><polygon fill="#181818" points="485,426.2148,495,430.2148,485,434.2148,489,430.2148" style="stroke:#181818;stroke-width:1.0;"/><line style="stroke:#181818;stroke-width:1.0;" x1="106" x2="491" y1="430.2148" y2="430.2148"/><text fill="#000000" font-family="sans-serif" font-size="13" font-weight="bold" lengthAdjust="spacing" textLength="18" x="113" y="425.4727">11</text><text fill="#000000" font-family="sans-serif" font-size="13" lengthAdjust="spacing" textLength="168" x="135" y="425.4727">chooses entry to postpone</text><polygon fill="#181818" points="117,462.5254,107,466.5254,117,470.5254,113,466.5254" style="stroke:#181818;stroke-width:1.0;"/><line style="stroke:#181818;stroke-width:1.0;stroke-dasharray:2.0,2.0;" x1="111" x2="496" y1="466.5254" y2="466.5254"/><text fill="#000000" font-family="sans-serif" font-size="13" font-weight="bold" lengthAdjust="spacing" textLength="18" x="123" y="461.7832">12</text><text fill="#000000" font-family="sans-serif" font-size="13" lengthAdjust="spacing" textLength="324" x="145" y="461.7832">shows all chosen entry's and requests confirmation</text><polygon fill="#181818" points="485,491.8359,495,495.8359,485,499.8359,489,495.8359" style="stroke:#181818;stroke-width:1.0;"/><line style="stroke:#181818;stroke-width:1.0;" x1="106" x2="491" y1="495.8359" y2="495.8359"/><text fill="#000000" font-family="sans-serif" font-size="13" font-weight="bold" lengthAdjust="spacing" textLength="18" x="113" y="491.0938">13</text><text fill="#000000" font-family="sans-serif" font-size="13" lengthAdjust="spacing" textLength="87" x="135" y="491.0938">confirms data</text><polygon fill="#181818" points="117,521.1465,107,525.1465,117,529.1465,113,525.1465" style="stroke:#181818;stroke-width:1.0;"/><line style="stroke:#181818;stroke-width:1.0;" x1="111" x2="496" y1="525.1465" y2="525.1465"/><text fill="#000000" font-family="sans-serif" font-size="13" font-weight="bold" lengthAdjust="spacing" textLength="18" x="123" y="520.4043">14</text><text fill="#000000" font-family="sans-serif" font-size="13" lengthAdjust="spacing" textLength="345" x="145" y="520.4043">requests the date to which the entry's will be postpone</text><polygon fill="#181818" points="485,550.457,495,554.457,485,558.457,489,554.457" style="stroke:#181818;stroke-width:1.0;"/><line style="stroke:#181818;stroke-width:1.0;" x1="106" x2="491" y1="554.457" y2="554.457"/><text fill="#000000" font-family="sans-serif" font-size="13" font-weight="bold" lengthAdjust="spacing" textLength="18" x="113" y="549.7148">15</text><text fill="#000000" font-family="sans-serif" font-size="13" lengthAdjust="spacing" textLength="118" x="135" y="549.7148">types the new date</text><polygon fill="#181818" points="725,579.7676,735,583.7676,725,587.7676,729,583.7676" style="stroke:#181818;stroke-width:1.0;"/><line style="stroke:#181818;stroke-width:1.0;" x1="507" x2="731" y1="583.7676" y2="583.7676"/><text fill="#000000" font-family="sans-serif" font-size="13" font-weight="bold" lengthAdjust="spacing" textLength="18" x="514" y="579.0254">16</text><text fill="#000000" font-family="sans-serif" font-size="13" lengthAdjust="spacing" textLength="189" x="536" y="579.0254">postponeEntry(entryList, date)</text><polygon fill="#181818" points="880,609.0781,890,613.0781,880,617.0781,884,613.0781" style="stroke:#181818;stroke-width:1.0;"/><line style="stroke:#181818;stroke-width:1.0;" x1="747" x2="886" y1="613.0781" y2="613.0781"/><text fill="#000000" font-family="sans-serif" font-size="13" font-weight="bold" lengthAdjust="spacing" textLength="18" x="754" y="608.3359">17</text><text fill="#000000" font-family="sans-serif" font-size="13" lengthAdjust="spacing" textLength="81" x="776" y="608.3359">getInstance()</text><polygon fill="#181818" points="758,638.3887,748,642.3887,758,646.3887,754,642.3887" style="stroke:#181818;stroke-width:1.0;"/><line style="stroke:#181818;stroke-width:1.0;stroke-dasharray:2.0,2.0;" x1="752" x2="896" y1="642.3887" y2="642.3887"/><text fill="#000000" font-family="sans-serif" font-size="13" font-weight="bold" lengthAdjust="spacing" textLength="18" x="764" y="637.6465">18</text><text fill="#000000" font-family="sans-serif" font-size="13" lengthAdjust="spacing" textLength="75" x="786" y="637.6465">repositories</text><polygon fill="#181818" points="993,667.6992,1003,671.6992,993,675.6992,997,671.6992" style="stroke:#181818;stroke-width:1.0;"/><line style="stroke:#181818;stroke-width:1.0;" x1="747" x2="999" y1="671.6992" y2="671.6992"/><text fill="#000000" font-family="sans-serif" font-size="13" font-weight="bold" lengthAdjust="spacing" textLength="18" x="754" y="666.957">19</text><text fill="#000000" font-family="sans-serif" font-size="13" lengthAdjust="spacing" textLength="125" x="776" y="666.957">getTaskRepository()</text><polygon fill="#181818" points="758,697.0098,748,701.0098,758,705.0098,754,701.0098" style="stroke:#181818;stroke-width:1.0;"/><line style="stroke:#181818;stroke-width:1.0;stroke-dasharray:2.0,2.0;" x1="752" x2="1009" y1="701.0098" y2="701.0098"/><text fill="#000000" font-family="sans-serif" font-size="13" font-weight="bold" lengthAdjust="spacing" textLength="18" x="764" y="696.2676">20</text><text fill="#000000" font-family="sans-serif" font-size="13" lengthAdjust="spacing" textLength="94" x="786" y="696.2676">taskRepository</text><polygon fill="#181818" points="1116,726.3203,1126,730.3203,1116,734.3203,1120,730.3203" style="stroke:#181818;stroke-width:1.0;"/><line style="stroke:#181818;stroke-width:1.0;" x1="747" x2="1122" y1="730.3203" y2="730.3203"/><text fill="#000000" font-family="sans-serif" font-size="13" font-weight="bold" lengthAdjust="spacing" textLength="18" x="754" y="725.5781">21</text><text fill="#000000" font-family="sans-serif" font-size="13" lengthAdjust="spacing" textLength="189" x="776" y="725.5781">postponeEntry(entryList, date)</text><polygon fill="#181818" points="1361,755.6309,1371,759.6309,1361,763.6309,1365,759.6309" style="stroke:#181818;stroke-width:1.0;"/><line style="stroke:#181818;stroke-width:1.0;" x1="1138" x2="1367" y1="759.6309" y2="759.6309"/><text fill="#000000" font-family="sans-serif" font-size="13" font-weight="bold" lengthAdjust="spacing" textLength="18" x="1145" y="754.8887">22</text><text fill="#000000" font-family="sans-serif" font-size="13" lengthAdjust="spacing" textLength="189" x="1167" y="754.8887">postponeEntry(entryList, date)</text><rect fill="#E3E3E3" height="46.9766" rx="2.5" ry="2.5" style="stroke:#181818;stroke-width:0.5;" width="50" x="1373" y="738.3203"/><text fill="#000000" font-family="sans-serif" font-size="14" lengthAdjust="spacing" textLength="28" x="1384" y="758.8555">task</text><text fill="#000000" font-family="sans-serif" font-size="14" lengthAdjust="spacing" textLength="36" x="1380" y="775.3438">:Task</text><line style="stroke:#181818;stroke-width:1.0;" x1="1138" x2="1185" y1="812.6074" y2="812.6074"/><line style="stroke:#181818;stroke-width:1.0;" x1="1185" x2="1185" y1="812.6074" y2="825.6074"/><line style="stroke:#181818;stroke-width:1.0;" x1="1144" x2="1185" y1="825.6074" y2="825.6074"/><polygon fill="#181818" points="1154,821.6074,1144,825.6074,1154,829.6074,1150,825.6074" style="stroke:#181818;stroke-width:1.0;"/><text fill="#000000" font-family="sans-serif" font-size="13" font-weight="bold" lengthAdjust="spacing" textLength="18" x="1150" y="807.8652">23</text><text fill="#000000" font-family="sans-serif" font-size="13" lengthAdjust="spacing" textLength="189" x="1172" y="807.8652">postponeEntry(entryList, date)</text><line style="stroke:#181818;stroke-width:1.0;" x1="1143" x2="1190" y1="854.918" y2="854.918"/><line style="stroke:#181818;stroke-width:1.0;" x1="1190" x2="1190" y1="854.918" y2="867.918"/><line style="stroke:#181818;stroke-width:1.0;" x1="1149" x2="1190" y1="867.918" y2="867.918"/><polygon fill="#181818" points="1159,863.918,1149,867.918,1159,871.918,1155,867.918" style="stroke:#181818;stroke-width:1.0;"/><text fill="#000000" font-family="sans-serif" font-size="13" font-weight="bold" lengthAdjust="spacing" textLength="18" x="1155" y="850.1758">24</text><text fill="#000000" font-family="sans-serif" font-size="13" lengthAdjust="spacing" textLength="142" x="1177" y="850.1758">validatePostpone(date)</text><polygon fill="#181818" points="758,898.2285,748,902.2285,758,906.2285,754,902.2285" style="stroke:#181818;stroke-width:1.0;"/><line style="stroke:#181818;stroke-width:1.0;stroke-dasharray:2.0,2.0;" x1="752" x2="1132" y1="902.2285" y2="902.2285"/><text fill="#000000" font-family="sans-serif" font-size="13" font-weight="bold" lengthAdjust="spacing" textLength="18" x="764" y="897.4863">25</text><text fill="#000000" font-family="sans-serif" font-size="13" lengthAdjust="spacing" textLength="99" x="786" y="897.4863">postponedEntry</text><polygon fill="#181818" points="518,927.5391,508,931.5391,518,935.5391,514,931.5391" style="stroke:#181818;stroke-width:1.0;"/><line style="stroke:#181818;stroke-width:1.0;stroke-dasharray:2.0,2.0;" x1="512" x2="741" y1="931.5391" y2="931.5391"/><text fill="#000000" font-family="sans-serif" font-size="13" font-weight="bold" lengthAdjust="spacing" textLength="18" x="524" y="926.7969">26</text><text fill="#000000" font-family="sans-serif" font-size="13" lengthAdjust="spacing" textLength="99" x="546" y="926.7969">postponedEntry</text><polygon fill="#181818" points="112,956.8496,102,960.8496,112,964.8496,108,960.8496" style="stroke:#181818;stroke-width:1.0;"/><line style="stroke:#181818;stroke-width:1.0;stroke-dasharray:2.0,2.0;" x1="106" x2="501" y1="960.8496" y2="960.8496"/><text fill="#000000" font-family="sans-serif" font-size="13" font-weight="bold" lengthAdjust="spacing" textLength="18" x="118" y="956.1074">27</text><text fill="#000000" font-family="sans-serif" font-size="13" lengthAdjust="spacing" textLength="170" x="140" y="956.1074">displays operation success</text><!--SRC=[fLR9Rjim4BtpAmQvn0tQ7_2XW94MWL4726BdrWijZIt2CgcIL5p_VOVKJYssK1yCY9fvysPxeZa9cN7Dpt1MKaM9LcS4gtDafdwJyUZ4ZxYrrnH1OsIvFAPj0vFmM5s4FCA1fmOPuxbLCZ_lKJFsc8WOuQ2KtQk_Z4TMQNXuqOWIjeIC1bwv97Zz0Dp0wiSh8r0h8f5nQU5X-QQCpPJ4dzBgwyVQMtsifuoU5VshD2qXdtVlcy3y7JDb134HQBnDVN3T2fSSqU-ww9R7Rza7UDkiTbqFoysfWIMVNUV0UtLj-lwbbxVThRQ_cAkV-EGMVQ4Ob3zwW6_VgIom9DCJ0Il8of801tHLSMSS3hdDDK9C48rx3KfrhGy9Z21TyGZqYDQNTYECNNofRG9tN-dWfGSWe84A5xXhQMYW8Xo77MfEO3k4th1lDozmZ74op70khja5-MvFnrFmun6yz2WDoM0MHcaEGLN4kXXtzoq87PW5e0rZh937oKuZLxJztDw1vkUh_IvLAWlCYy4bKBSJIv8cTJ4q04S2Hern4URHi9vRUuUYH2b3obGlJhLC7I-KCRiHcAUf0pCaTcLWu38cFdzoDDP0fEH1w3Et8fpf3ft2ohYrvQmNimfPezgas737_9A8AF4d5O6B859xR78QZMkl6HPe4Y-1PlGa8cjByABkvbVlrnszIS7u7ycO9neJqb6cDIaTDyLZDB6xzUE6WhHrf6OygICtbMH2IsOqU8Qw3EcB-zGzFSsEs0Vgdjm4x9TtB8cXFjmH_vEdmeMghYkBuKJcXvvWqT_GsAS_37ItTi-qdUzMpA6NeadgKz-7Hf6N40kJfVngG6MelU22oIEwVnPxtO9njw3Mexjf_GC0]--></g></svg>