<?xml version="1.0" encoding="us-ascii" standalone="no"?><svg xmlns="http://www.w3.org/2000/svg" xmlns:xlink="http://www.w3.org/1999/xlink" contentStyleType="text/css" height="654px" preserveAspectRatio="none" style="width:917px;height:654px;background:#FFFFFF;" version="1.1" viewBox="0 0 917 654" width="917px" zoomAndPan="magnify"><defs/><g><!--class Repositories--><g id="elem_Repositories"><rect codeLine="11" fill="#F1F1F1" height="97.4648" id="Repositories" rx="2.5" ry="2.5" style="stroke:#181818;stroke-width:0.5;" width="209" x="601" y="7"/><ellipse cx="658.75" cy="23" fill="#ADD1B2" rx="11" ry="11" style="stroke:#181818;stroke-width:1.0;"/><path d="M661.7231,28.6431 Q661.1421,28.9419 660.5029,29.0913 Q659.8638,29.2407 659.1582,29.2407 Q656.6514,29.2407 655.3315,27.5889 Q654.0117,25.937 654.0117,22.8159 Q654.0117,19.6865 655.3315,18.0347 Q656.6514,16.3828 659.1582,16.3828 Q659.8638,16.3828 660.5112,16.5322 Q661.1587,16.6816 661.7231,16.9805 L661.7231,19.7031 Q661.0923,19.1221 660.4988,18.8523 Q659.9053,18.5825 659.2744,18.5825 Q657.9297,18.5825 657.2449,19.6492 Q656.5601,20.7158 656.5601,22.8159 Q656.5601,24.9077 657.2449,25.9744 Q657.9297,27.041 659.2744,27.041 Q659.9053,27.041 660.4988,26.7712 Q661.0923,26.5015 661.7231,25.9204 Z " fill="#000000"/><text fill="#000000" font-family="sans-serif" font-size="14" lengthAdjust="spacing" textLength="85" x="679.25" y="28.291">Repositories</text><line style="stroke:#181818;stroke-width:0.5;" x1="602" x2="809" y1="39" y2="39"/><line style="stroke:#181818;stroke-width:0.5;" x1="602" x2="809" y1="47" y2="47"/><text fill="#000000" font-family="sans-serif" font-size="14" lengthAdjust="spacing" textLength="103" x="607" y="64.5352">-Repositories()</text><text fill="#000000" font-family="sans-serif" font-size="14" lengthAdjust="spacing" textLength="197" x="607" y="81.0234">+getInstance() : Repositories</text><text fill="#000000" font-family="sans-serif" font-size="14" lengthAdjust="spacing" textLength="165" x="607" y="97.5117">+getVehicleRepository()</text></g><!--class PostponeEntryController--><g id="elem_PostponeEntryController"><rect codeLine="17" fill="#F1F1F1" height="80.9766" id="PostponeEntryController" rx="2.5" ry="2.5" style="stroke:#181818;stroke-width:0.5;" width="303" x="187" y="15.24"/><ellipse cx="249.75" cy="31.24" fill="#ADD1B2" rx="11" ry="11" style="stroke:#181818;stroke-width:1.0;"/><path d="M252.7231,36.8831 Q252.1421,37.1819 251.5029,37.3313 Q250.8638,37.4807 250.1582,37.4807 Q247.6514,37.4807 246.3315,35.8289 Q245.0117,34.177 245.0117,31.0559 Q245.0117,27.9265 246.3315,26.2747 Q247.6514,24.6228 250.1582,24.6228 Q250.8638,24.6228 251.5112,24.7722 Q252.1587,24.9216 252.7231,25.2205 L252.7231,27.9431 Q252.0923,27.3621 251.4988,27.0923 Q250.9053,26.8225 250.2744,26.8225 Q248.9297,26.8225 248.2449,27.8892 Q247.5601,28.9558 247.5601,31.0559 Q247.5601,33.1477 248.2449,34.2144 Q248.9297,35.281 250.2744,35.281 Q250.9053,35.281 251.4988,35.0112 Q252.0923,34.7415 252.7231,34.1604 Z " fill="#000000"/><text fill="#000000" font-family="sans-serif" font-size="14" lengthAdjust="spacing" textLength="169" x="270.25" y="36.531">PostponeEntryController</text><line style="stroke:#181818;stroke-width:0.5;" x1="188" x2="489" y1="47.24" y2="47.24"/><line style="stroke:#181818;stroke-width:0.5;" x1="188" x2="489" y1="55.24" y2="55.24"/><text fill="#000000" font-family="sans-serif" font-size="14" lengthAdjust="spacing" textLength="291" x="193" y="72.7752">+PostponeEntryController(taskRepository)</text><text fill="#000000" font-family="sans-serif" font-size="14" lengthAdjust="spacing" textLength="217" x="193" y="89.2634">+postponeEntry(entryList, date)</text></g><!--class Date--><g id="elem_Date"><rect codeLine="22" fill="#F1F1F1" height="113.9531" id="Date" rx="2.5" ry="2.5" style="stroke:#181818;stroke-width:0.5;" width="244" x="216.5" y="181.46"/><ellipse cx="318.75" cy="197.46" fill="#ADD1B2" rx="11" ry="11" style="stroke:#181818;stroke-width:1.0;"/><path d="M321.7231,203.1031 Q321.1421,203.4019 320.5029,203.5513 Q319.8638,203.7007 319.1582,203.7007 Q316.6514,203.7007 315.3315,202.0489 Q314.0117,200.397 314.0117,197.2759 Q314.0117,194.1465 315.3315,192.4947 Q316.6514,190.8428 319.1582,190.8428 Q319.8638,190.8428 320.5112,190.9922 Q321.1587,191.1416 321.7231,191.4405 L321.7231,194.1631 Q321.0923,193.5821 320.4988,193.3123 Q319.9053,193.0425 319.2744,193.0425 Q317.9297,193.0425 317.2449,194.1092 Q316.5601,195.1758 316.5601,197.2759 Q316.5601,199.3677 317.2449,200.4344 Q317.9297,201.501 319.2744,201.501 Q319.9053,201.501 320.4988,201.2312 Q321.0923,200.9615 321.7231,200.3804 Z " fill="#000000"/><text fill="#000000" font-family="sans-serif" font-size="14" lengthAdjust="spacing" textLength="31" x="339.25" y="202.751">Date</text><line style="stroke:#181818;stroke-width:0.5;" x1="217.5" x2="459.5" y1="213.46" y2="213.46"/><text fill="#000000" font-family="sans-serif" font-size="14" lengthAdjust="spacing" textLength="59" x="222.5" y="230.9952">-int year</text><text fill="#000000" font-family="sans-serif" font-size="14" lengthAdjust="spacing" textLength="75" x="222.5" y="247.4834">-int month</text><text fill="#000000" font-family="sans-serif" font-size="14" lengthAdjust="spacing" textLength="54" x="222.5" y="263.9717">-int day</text><line style="stroke:#181818;stroke-width:0.5;" x1="217.5" x2="459.5" y1="270.9248" y2="270.9248"/><text fill="#000000" font-family="sans-serif" font-size="14" lengthAdjust="spacing" textLength="232" x="222.5" y="288.46">+Date(int year, int month, int day)</text></g><!--class taskRepository--><g id="elem_taskRepository"><rect codeLine="29" fill="#F1F1F1" height="113.9531" id="taskRepository" rx="2.5" ry="2.5" style="stroke:#181818;stroke-width:0.5;" width="229" x="543" y="181.46"/><ellipse cx="602.75" cy="197.46" fill="#ADD1B2" rx="11" ry="11" style="stroke:#181818;stroke-width:1.0;"/><path d="M605.7231,203.1031 Q605.1421,203.4019 604.5029,203.5513 Q603.8638,203.7007 603.1582,203.7007 Q600.6514,203.7007 599.3315,202.0489 Q598.0117,200.397 598.0117,197.2759 Q598.0117,194.1465 599.3315,192.4947 Q600.6514,190.8428 603.1582,190.8428 Q603.8638,190.8428 604.5112,190.9922 Q605.1587,191.1416 605.7231,191.4405 L605.7231,194.1631 Q605.0923,193.5821 604.4988,193.3123 Q603.9053,193.0425 603.2744,193.0425 Q601.9297,193.0425 601.2449,194.1092 Q600.5601,195.1758 600.5601,197.2759 Q600.5601,199.3677 601.2449,200.4344 Q601.9297,201.501 603.2744,201.501 Q603.9053,201.501 604.4988,201.2312 Q605.0923,200.9615 605.7231,200.3804 Z " fill="#000000"/><text fill="#000000" font-family="sans-serif" font-size="14" lengthAdjust="spacing" textLength="101" x="623.25" y="202.751">taskRepository</text><line style="stroke:#181818;stroke-width:0.5;" x1="544" x2="771" y1="213.46" y2="213.46"/><line style="stroke:#181818;stroke-width:0.5;" x1="544" x2="771" y1="221.46" y2="221.46"/><text fill="#000000" font-family="sans-serif" font-size="14" lengthAdjust="spacing" textLength="217" x="549" y="238.9952">+postponeEntry(entryList, date)</text><text fill="#000000" font-family="sans-serif" font-size="14" lengthAdjust="spacing" textLength="156" x="549" y="255.4834">+postponeEntry(entry)</text><text fill="#000000" font-family="sans-serif" font-size="14" lengthAdjust="spacing" textLength="168" x="549" y="271.9717">+validatePostpone(date)</text><text fill="#000000" font-family="sans-serif" font-size="14" lengthAdjust="spacing" textLength="101" x="549" y="288.46">+getEntryList()</text></g><!--class PostponeEntryUI--><g id="elem_PostponeEntryUI"><rect codeLine="36" fill="#F1F1F1" height="48" id="PostponeEntryUI" rx="2.5" ry="2.5" style="stroke:#181818;stroke-width:0.5;" width="145" x="7" y="31.73"/><ellipse cx="22" cy="47.73" fill="#ADD1B2" rx="11" ry="11" style="stroke:#181818;stroke-width:1.0;"/><path d="M24.9731,53.3731 Q24.3921,53.6719 23.7529,53.8213 Q23.1138,53.9707 22.4082,53.9707 Q19.9014,53.9707 18.5815,52.3189 Q17.2617,50.667 17.2617,47.5459 Q17.2617,44.4165 18.5815,42.7647 Q19.9014,41.1128 22.4082,41.1128 Q23.1138,41.1128 23.7612,41.2622 Q24.4087,41.4116 24.9731,41.7105 L24.9731,44.4331 Q24.3423,43.8521 23.7488,43.5823 Q23.1553,43.3125 22.5244,43.3125 Q21.1797,43.3125 20.4949,44.3792 Q19.8101,45.4458 19.8101,47.5459 Q19.8101,49.6377 20.4949,50.7044 Q21.1797,51.771 22.5244,51.771 Q23.1553,51.771 23.7488,51.5012 Q24.3423,51.2315 24.9731,50.6504 Z " fill="#000000"/><text fill="#000000" font-family="sans-serif" font-size="14" lengthAdjust="spacing" textLength="113" x="36" y="53.021">PostponeEntryUI</text><line style="stroke:#181818;stroke-width:0.5;" x1="8" x2="151" y1="63.73" y2="63.73"/><line style="stroke:#181818;stroke-width:0.5;" x1="8" x2="151" y1="71.73" y2="71.73"/></g><!--class Task--><g id="elem_Task"><rect codeLine="39" fill="#F1F1F1" height="212.8828" id="Task" rx="2.5" ry="2.5" style="stroke:#181818;stroke-width:0.5;" width="192" x="561.5" y="434.42"/><ellipse cx="637.25" cy="450.42" fill="#ADD1B2" rx="11" ry="11" style="stroke:#181818;stroke-width:1.0;"/><path d="M640.2231,456.0631 Q639.6421,456.3619 639.0029,456.5113 Q638.3638,456.6607 637.6582,456.6607 Q635.1514,456.6607 633.8315,455.0089 Q632.5117,453.357 632.5117,450.2359 Q632.5117,447.1065 633.8315,445.4547 Q635.1514,443.8028 637.6582,443.8028 Q638.3638,443.8028 639.0112,443.9522 Q639.6587,444.1016 640.2231,444.4005 L640.2231,447.1231 Q639.5923,446.5421 638.9988,446.2723 Q638.4053,446.0025 637.7744,446.0025 Q636.4297,446.0025 635.7449,447.0692 Q635.0601,448.1358 635.0601,450.2359 Q635.0601,452.3277 635.7449,453.3944 Q636.4297,454.461 637.7744,454.461 Q638.4053,454.461 638.9988,454.1912 Q639.5923,453.9215 640.2231,453.3404 Z " fill="#000000"/><text fill="#000000" font-family="sans-serif" font-size="14" lengthAdjust="spacing" textLength="32" x="657.75" y="455.711">Task</text><line style="stroke:#181818;stroke-width:0.5;" x1="562.5" x2="752.5" y1="466.42" y2="466.42"/><text fill="#000000" font-family="sans-serif" font-size="14" lengthAdjust="spacing" textLength="91" x="567.5" y="483.9552">-String name</text><text fill="#000000" font-family="sans-serif" font-size="14" lengthAdjust="spacing" textLength="94" x="567.5" y="500.4434">-String status</text><text fill="#000000" font-family="sans-serif" font-size="14" lengthAdjust="spacing" textLength="84" x="567.5" y="516.9317">-Team team</text><text fill="#000000" font-family="sans-serif" font-size="14" lengthAdjust="spacing" textLength="77" x="567.5" y="533.42">-Date dateI</text><text fill="#000000" font-family="sans-serif" font-size="14" lengthAdjust="spacing" textLength="81" x="567.5" y="549.9083">-Date dateF</text><text fill="#000000" font-family="sans-serif" font-size="14" lengthAdjust="spacing" textLength="180" x="567.5" y="566.3966">-List &lt;Vehicle&gt; vehicleList</text><line style="stroke:#181818;stroke-width:0.5;" x1="562.5" x2="752.5" y1="573.3497" y2="573.3497"/><text fill="#000000" font-family="sans-serif" font-size="14" lengthAdjust="spacing" textLength="85" x="567.5" y="590.8848">+getStatus()</text><text fill="#000000" font-family="sans-serif" font-size="14" lengthAdjust="spacing" textLength="111" x="567.5" y="607.3731">+getIdNumber()</text><text fill="#000000" font-family="sans-serif" font-size="14" lengthAdjust="spacing" textLength="78" x="567.5" y="623.8614">+getDateI()</text><text fill="#000000" font-family="sans-serif" font-size="14" lengthAdjust="spacing" textLength="82" x="567.5" y="640.3497">+getDateF()</text></g><!--link Repositories to Repositories--><g id="link_Repositories_Repositories"><path codeLine="53" d="M810.44,40.13 C830.67,41.97 845,47.17 845,55.73 C845,64.29 836.6453,68.9465 816.4153,70.7865 " fill="none" id="Repositories-to-Repositories" style="stroke:#181818;stroke-width:1.0;"/><polygon fill="#181818" points="810.44,71.33,819.7653,74.4983,815.4194,70.8771,819.0407,66.5312,810.44,71.33" style="stroke:#181818;stroke-width:1.0;"/><text fill="#000000" font-family="sans-serif" font-size="13" lengthAdjust="spacing" textLength="53" x="851" y="60.7984">instance</text></g><!--link PostponeEntryUI to PostponeEntryController--><g id="link_PostponeEntryUI_PostponeEntryController"><path codeLine="55" d="M152.34,55.73 C160.44,55.73 165.83,55.73 165.83,55.73 C165.83,55.73 168.69,55.73 180.73,55.73 " fill="none" id="PostponeEntryUI-to-PostponeEntryController" style="stroke:#181818;stroke-width:1.0;stroke-dasharray:7.0,7.0;"/><polygon fill="#181818" points="186.73,55.73,177.73,51.73,181.73,55.73,177.73,59.73,186.73,55.73" style="stroke:#181818;stroke-width:1.0;"/></g><!--link PostponeEntryController to taskRepository--><g id="link_PostponeEntryController_taskRepository"><path codeLine="56" d="M408.9,96.61 C452.66,121.4 504.3797,150.6921 552.7197,178.0821 " fill="none" id="PostponeEntryController-to-taskRepository" style="stroke:#181818;stroke-width:1.0;stroke-dasharray:7.0,7.0;"/><polygon fill="#181818" points="557.94,181.04,552.0815,173.123,553.5898,178.5751,548.1377,180.0834,557.94,181.04" style="stroke:#181818;stroke-width:1.0;"/><text fill="#000000" font-family="sans-serif" font-size="13" lengthAdjust="spacing" textLength="94" x="499.5" y="148.0284">taskRepository</text><text fill="#000000" font-family="sans-serif" font-size="13" lengthAdjust="spacing" textLength="8" x="537.3186" y="170.718">1</text></g><!--link Repositories to taskRepository--><g id="link_Repositories_taskRepository"><path codeLine="59" d="M692.76,104.68 C686.51,128.21 680.4907,150.9012 673.9707,175.4412 " fill="none" id="Repositories-to-taskRepository" style="stroke:#181818;stroke-width:1.0;"/><polygon fill="#181818" points="672.43,181.24,678.6069,173.5689,673.7139,176.4077,670.8751,171.5147,672.43,181.24" style="stroke:#181818;stroke-width:1.0;"/><text fill="#000000" font-family="sans-serif" font-size="13" lengthAdjust="spacing" textLength="8" x="665.8304" y="170.539">1</text></g><!--link PostponeEntryController to Repositories--><g id="link_PostponeEntryController_Repositories"><path codeLine="61" d="M490.42,55.73 C527.49,55.73 560.34,55.73 594.66,55.73 " fill="none" id="PostponeEntryController-to-Repositories" style="stroke:#181818;stroke-width:1.0;stroke-dasharray:7.0,7.0;"/><polygon fill="#181818" points="600.66,55.73,591.66,51.73,595.66,55.73,591.66,59.73,600.66,55.73" style="stroke:#181818;stroke-width:1.0;"/><text fill="#000000" font-family="sans-serif" font-size="13" lengthAdjust="spacing" textLength="75" x="508" y="49.2984">repositories</text></g><!--link PostponeEntryController to Date--><g id="link_PostponeEntryController_Date"><path codeLine="63" d="M338.5,96.39 C338.5,121.22 338.5,147.6 338.5,175.08 " fill="none" id="PostponeEntryController-to-Date" style="stroke:#181818;stroke-width:1.0;"/><polygon fill="#181818" points="338.5,181.08,342.5,172.08,338.5,176.08,334.5,172.08,338.5,181.08" style="stroke:#181818;stroke-width:1.0;"/><text fill="#000000" font-family="sans-serif" font-size="13" lengthAdjust="spacing" textLength="34" x="339.5" y="148.0284">dates</text><text fill="#000000" font-family="sans-serif" font-size="13" lengthAdjust="spacing" textLength="8" x="325.5438" y="116.6589">1</text><text fill="#000000" font-family="sans-serif" font-size="13" lengthAdjust="spacing" textLength="8" x="330.0125" y="170.7629">1</text></g><!--reverse link taskRepository to Task--><g id="link_taskRepository_Task"><path codeLine="65" d="M657.5,307.59 C657.5,346.49 657.5,387.45 657.5,434.12 " fill="none" id="taskRepository-backto-Task" style="stroke:#181818;stroke-width:1.0;"/><polygon fill="none" points="657.5,295.59,653.5,301.59,657.5,307.59,661.5,301.59,657.5,295.59" style="stroke:#181818;stroke-width:1.0;"/><text fill="#000000" font-family="sans-serif" font-size="13" lengthAdjust="spacing" textLength="22" x="658.5" y="369.9884">has</text><text fill="#000000" font-family="sans-serif" font-size="13" lengthAdjust="spacing" textLength="8" x="649.0125" y="316.0569">1</text><text fill="#000000" font-family="sans-serif" font-size="13" lengthAdjust="spacing" textLength="22" x="634.7266" y="423.6667">1..*</text></g><!--SRC=[ZLF1Rjim3BthAmXVugvni5w38S2mje21OXYMRdVLPcqXicH8J0UlsB-FSkrODkfXEGZcutiYHRvi_4cPLZhPG6EDBMfd6mHoPnHJffN5ILPuf4uZE2n8cah715_BqlvIfe9dgNsSqSeWTIr2QtKN0h5v9saTMH6f2Ysz_qparDEPC2-iEQhV21-5s6Xy9Y0BJbKrGQb2EyeQ8NeDVCVMUaNMAVJmAe1_sGnChthm6Ygat7X-Ie7f5Undf8do4sjLQBmaEzR_6OjzivvQQ_3EaEk-M3wjrkY6kjTh-PIaFqqtZWsrCJl5S3ueJrie9M5KzPR3ozEK8UXGkYZaFL8TnQNiXWf1cOwAxKJUZhoeohp7r__hSPKqfbwaLe4wJYQDTJpkk_76rJ7_oFdjbzGZTpcEuiXsOGSQsU0SuINJsG_O8xA_Y8yXxgSPkiYNmFq0X7RWqs240xoyVGHqwllObvXvg_nwRfvusH4MhiwNm3q3uK4pvsQ7kPFtlA4thmgn7CVki6OqiMPGbYGtoMB7N6GEY6LJsNioyQygYqUu-3-sgajk81bhzTlOz_jWnQBXGB1Pbl77RlSX2MPWRYsz-0i0]--></g></svg>