<?xml version="1.0" encoding="us-ascii" standalone="no"?><svg xmlns="http://www.w3.org/2000/svg" xmlns:xlink="http://www.w3.org/1999/xlink" contentStyleType="text/css" height="775px" preserveAspectRatio="none" style="width:1407px;height:775px;background:#FFFFFF;" version="1.1" viewBox="0 0 1407 775" width="1407px" zoomAndPan="magnify"><defs/><g><rect fill="#FFFFFF" height="580.8984" style="stroke:#181818;stroke-width:1.0;" width="10" x="75" y="93.6211"/><rect fill="#FFFFFF" height="557.6074" style="stroke:#181818;stroke-width:1.0;" width="10" x="356" y="116.9121"/><rect fill="#FFFFFF" height="369.8613" style="stroke:#181818;stroke-width:1.0;" width="10" x="617" y="273.3672"/><rect fill="#FFFFFF" height="31.291" style="stroke:#181818;stroke-width:1.0;" width="10" x="782" y="304.6582"/><rect fill="#FFFFFF" height="31.291" style="stroke:#181818;stroke-width:1.0;" width="10" x="889" y="367.2402"/><rect fill="#FFFFFF" height="182.1152" style="stroke:#181818;stroke-width:1.0;" width="10" x="1030.5" y="429.8223"/><rect fill="#FFFFFF" height="80.582" style="stroke:#181818;stroke-width:1.0;" width="10" x="1035.5" y="531.3555"/><rect fill="#FFFFFF" height="36.291" style="stroke:#181818;stroke-width:1.0;" width="10" x="1040.5" y="575.6465"/><line style="stroke:#181818;stroke-width:0.5;stroke-dasharray:5.0,5.0;" x1="80" x2="80" y1="83.6211" y2="692.5195"/><line style="stroke:#181818;stroke-width:0.5;stroke-dasharray:5.0,5.0;" x1="360.5" x2="360.5" y1="83.6211" y2="692.5195"/><line style="stroke:#181818;stroke-width:0.5;stroke-dasharray:5.0,5.0;" x1="621.5" x2="621.5" y1="83.6211" y2="692.5195"/><line style="stroke:#181818;stroke-width:0.5;stroke-dasharray:5.0,5.0;" x1="786.5" x2="786.5" y1="83.6211" y2="692.5195"/><line style="stroke:#181818;stroke-width:0.5;stroke-dasharray:5.0,5.0;" x1="893.5" x2="893.5" y1="83.6211" y2="692.5195"/><line style="stroke:#181818;stroke-width:0.5;stroke-dasharray:5.0,5.0;" x1="1035.5" x2="1035.5" y1="83.6211" y2="692.5195"/><line style="stroke:#181818;stroke-width:0.5;stroke-dasharray:5.0,5.0;" x1="1352.5" x2="1352.5" y1="478.9434" y2="692.5195"/><text fill="#000000" font-family="sans-serif" font-size="14" lengthAdjust="spacing" textLength="144" x="5" y="80.1074">Green Space Manager</text><ellipse cx="80" cy="13.5" fill="#E3E3E3" rx="8" ry="8" style="stroke:#181818;stroke-width:0.5;"/><path d="M80,21.5 L80,48.5 M67,29.5 L93,29.5 M80,48.5 L67,63.5 M80,48.5 L93,63.5 " fill="none" style="stroke:#181818;stroke-width:0.5;"/><text fill="#000000" font-family="sans-serif" font-size="14" lengthAdjust="spacing" textLength="144" x="5" y="706.627">Green Space Manager</text><ellipse cx="80" cy="718.6406" fill="#E3E3E3" rx="8" ry="8" style="stroke:#181818;stroke-width:0.5;"/><path d="M80,726.6406 L80,753.6406 M67,734.6406 L93,734.6406 M80,753.6406 L67,768.6406 M80,753.6406 L93,768.6406 " fill="none" style="stroke:#181818;stroke-width:0.5;"/><rect fill="#E3E3E3" height="32.6211" rx="2.5" ry="2.5" style="stroke:#181818;stroke-width:0.5;" width="163" x="279.5" y="50"/><text fill="#000000" font-family="sans-serif" font-size="14" lengthAdjust="spacing" textLength="149" x="286.5" y="72.1074">:RegisterGreenSpaceUI</text><rect fill="#E3E3E3" height="32.6211" rx="2.5" ry="2.5" style="stroke:#181818;stroke-width:0.5;" width="163" x="279.5" y="691.5195"/><text fill="#000000" font-family="sans-serif" font-size="14" lengthAdjust="spacing" textLength="149" x="286.5" y="713.627">:RegisterGreenSpaceUI</text><rect fill="#E3E3E3" height="32.6211" rx="2.5" ry="2.5" style="stroke:#181818;stroke-width:0.5;" width="213" x="515.5" y="50"/><text fill="#000000" font-family="sans-serif" font-size="14" lengthAdjust="spacing" textLength="199" x="522.5" y="72.1074">:RegisterGreenSpaceController</text><rect fill="#E3E3E3" height="32.6211" rx="2.5" ry="2.5" style="stroke:#181818;stroke-width:0.5;" width="213" x="515.5" y="691.5195"/><text fill="#000000" font-family="sans-serif" font-size="14" lengthAdjust="spacing" textLength="199" x="522.5" y="713.627">:RegisterGreenSpaceController</text><rect fill="#E3E3E3" height="32.6211" rx="2.5" ry="2.5" style="stroke:#181818;stroke-width:0.5;" width="97" x="738.5" y="50"/><text fill="#000000" font-family="sans-serif" font-size="14" lengthAdjust="spacing" textLength="83" x="745.5" y="72.1074">:Repositories</text><rect fill="#E3E3E3" height="32.6211" rx="2.5" ry="2.5" style="stroke:#181818;stroke-width:0.5;" width="97" x="738.5" y="691.5195"/><text fill="#000000" font-family="sans-serif" font-size="14" lengthAdjust="spacing" textLength="83" x="745.5" y="713.627">:Repositories</text><rect fill="#E3E3E3" height="51.2422" rx="2.5" ry="2.5" style="stroke:#181818;stroke-width:0.5;" width="97" x="845.5" y="31.3789"/><text fill="#000000" font-family="sans-serif" font-size="14" lengthAdjust="spacing" textLength="74" x="857" y="53.4863">repositories</text><text fill="#000000" font-family="sans-serif" font-size="14" lengthAdjust="spacing" textLength="83" x="852.5" y="72.1074">:Repositories</text><rect fill="#E3E3E3" height="51.2422" rx="2.5" ry="2.5" style="stroke:#181818;stroke-width:0.5;" width="97" x="845.5" y="691.5195"/><text fill="#000000" font-family="sans-serif" font-size="14" lengthAdjust="spacing" textLength="74" x="857" y="713.627">repositories</text><text fill="#000000" font-family="sans-serif" font-size="14" lengthAdjust="spacing" textLength="83" x="852.5" y="732.248">:Repositories</text><rect fill="#E3E3E3" height="51.2422" rx="2.5" ry="2.5" style="stroke:#181818;stroke-width:0.5;" width="166" x="952.5" y="31.3789"/><text fill="#000000" font-family="sans-serif" font-size="14" lengthAdjust="spacing" textLength="145" x="963" y="53.4863">greenSpaceRepository</text><text fill="#000000" font-family="sans-serif" font-size="14" lengthAdjust="spacing" textLength="152" x="959.5" y="72.1074">:GreenSpaceRepository</text><rect fill="#E3E3E3" height="51.2422" rx="2.5" ry="2.5" style="stroke:#181818;stroke-width:0.5;" width="166" x="952.5" y="691.5195"/><text fill="#000000" font-family="sans-serif" font-size="14" lengthAdjust="spacing" textLength="145" x="963" y="713.627">greenSpaceRepository</text><text fill="#000000" font-family="sans-serif" font-size="14" lengthAdjust="spacing" textLength="152" x="959.5" y="732.248">:GreenSpaceRepository</text><rect fill="#E3E3E3" height="51.2422" rx="2.5" ry="2.5" style="stroke:#181818;stroke-width:0.5;" width="98" x="1303.5" y="691.5195"/><text fill="#000000" font-family="sans-serif" font-size="14" lengthAdjust="spacing" textLength="77" x="1314" y="713.627">greenSpace</text><text fill="#000000" font-family="sans-serif" font-size="14" lengthAdjust="spacing" textLength="84" x="1310.5" y="732.248">:GreenSpace</text><rect fill="#FFFFFF" height="580.8984" style="stroke:#181818;stroke-width:1.0;" width="10" x="75" y="93.6211"/><rect fill="#FFFFFF" height="557.6074" style="stroke:#181818;stroke-width:1.0;" width="10" x="356" y="116.9121"/><rect fill="#FFFFFF" height="369.8613" style="stroke:#181818;stroke-width:1.0;" width="10" x="617" y="273.3672"/><rect fill="#FFFFFF" height="31.291" style="stroke:#181818;stroke-width:1.0;" width="10" x="782" y="304.6582"/><rect fill="#FFFFFF" height="31.291" style="stroke:#181818;stroke-width:1.0;" width="10" x="889" y="367.2402"/><rect fill="#FFFFFF" height="182.1152" style="stroke:#181818;stroke-width:1.0;" width="10" x="1030.5" y="429.8223"/><rect fill="#FFFFFF" height="80.582" style="stroke:#181818;stroke-width:1.0;" width="10" x="1035.5" y="531.3555"/><rect fill="#FFFFFF" height="36.291" style="stroke:#181818;stroke-width:1.0;" width="10" x="1040.5" y="575.6465"/><polygon fill="#181818" points="344,112.9121,354,116.9121,344,120.9121,348,116.9121" style="stroke:#181818;stroke-width:1.0;"/><line style="stroke:#181818;stroke-width:1.0;" x1="85" x2="350" y1="116.9121" y2="116.9121"/><text fill="#000000" font-family="sans-serif" font-size="13" font-weight="bold" lengthAdjust="spacing" textLength="7" x="92" y="111.6494">1</text><text fill="#000000" font-family="sans-serif" font-size="13" lengthAdjust="spacing" textLength="203" x="103" y="111.6494">asks to register a new green space</text><polygon fill="#181818" points="96,144.2031,86,148.2031,96,152.2031,92,148.2031" style="stroke:#181818;stroke-width:1.0;"/><line style="stroke:#181818;stroke-width:1.0;stroke-dasharray:2.0,2.0;" x1="90" x2="355" y1="148.2031" y2="148.2031"/><text fill="#000000" font-family="sans-serif" font-size="13" font-weight="bold" lengthAdjust="spacing" textLength="7" x="102" y="142.9404">2</text><text fill="#000000" font-family="sans-serif" font-size="13" lengthAdjust="spacing" textLength="189" x="113" y="142.9404">requests data (name, type, area)</text><polygon fill="#181818" points="344,175.4941,354,179.4941,344,183.4941,348,179.4941" style="stroke:#181818;stroke-width:1.0;"/><line style="stroke:#181818;stroke-width:1.0;" x1="85" x2="350" y1="179.4941" y2="179.4941"/><text fill="#000000" font-family="sans-serif" font-size="13" font-weight="bold" lengthAdjust="spacing" textLength="7" x="92" y="174.2314">3</text><text fill="#000000" font-family="sans-serif" font-size="13" lengthAdjust="spacing" textLength="122" x="103" y="174.2314">types requested data</text><polygon fill="#181818" points="96,206.7852,86,210.7852,96,214.7852,92,210.7852" style="stroke:#181818;stroke-width:1.0;"/><line style="stroke:#181818;stroke-width:1.0;stroke-dasharray:2.0,2.0;" x1="90" x2="355" y1="210.7852" y2="210.7852"/><text fill="#000000" font-family="sans-serif" font-size="13" font-weight="bold" lengthAdjust="spacing" textLength="7" x="102" y="205.5225">4</text><text fill="#000000" font-family="sans-serif" font-size="13" lengthAdjust="spacing" textLength="236" x="113" y="205.5225">shows all data and requests confirmation</text><polygon fill="#181818" points="344,238.0762,354,242.0762,344,246.0762,348,242.0762" style="stroke:#181818;stroke-width:1.0;"/><line style="stroke:#181818;stroke-width:1.0;" x1="85" x2="350" y1="242.0762" y2="242.0762"/><text fill="#000000" font-family="sans-serif" font-size="13" font-weight="bold" lengthAdjust="spacing" textLength="7" x="92" y="236.8135">5</text><text fill="#000000" font-family="sans-serif" font-size="13" lengthAdjust="spacing" textLength="78" x="103" y="236.8135">confirms data</text><polygon fill="#181818" points="605,269.3672,615,273.3672,605,277.3672,609,273.3672" style="stroke:#181818;stroke-width:1.0;"/><line style="stroke:#181818;stroke-width:1.0;" x1="366" x2="611" y1="273.3672" y2="273.3672"/><text fill="#000000" font-family="sans-serif" font-size="13" font-weight="bold" lengthAdjust="spacing" textLength="7" x="373" y="268.1045">6</text><text fill="#000000" font-family="sans-serif" font-size="13" lengthAdjust="spacing" textLength="221" x="384" y="268.1045">registerGreenSpace(name, type, area)</text><polygon fill="#181818" points="770,300.6582,780,304.6582,770,308.6582,774,304.6582" style="stroke:#181818;stroke-width:1.0;"/><line style="stroke:#181818;stroke-width:1.0;" x1="627" x2="776" y1="304.6582" y2="304.6582"/><text fill="#000000" font-family="sans-serif" font-size="13" font-weight="bold" lengthAdjust="spacing" textLength="7" x="634" y="299.3955">7</text><text fill="#000000" font-family="sans-serif" font-size="13" lengthAdjust="spacing" textLength="75" x="645" y="299.3955">getInstance()</text><polygon fill="#181818" points="638,331.9492,628,335.9492,638,339.9492,634,335.9492" style="stroke:#181818;stroke-width:1.0;"/><line style="stroke:#181818;stroke-width:1.0;stroke-dasharray:2.0,2.0;" x1="632" x2="786" y1="335.9492" y2="335.9492"/><text fill="#000000" font-family="sans-serif" font-size="13" font-weight="bold" lengthAdjust="spacing" textLength="7" x="644" y="330.6865">8</text><text fill="#000000" font-family="sans-serif" font-size="13" lengthAdjust="spacing" textLength="67" x="655" y="330.6865">repositories</text><polygon fill="#181818" points="877,363.2402,887,367.2402,877,371.2402,881,367.2402" style="stroke:#181818;stroke-width:1.0;"/><line style="stroke:#181818;stroke-width:1.0;" x1="627" x2="883" y1="367.2402" y2="367.2402"/><text fill="#000000" font-family="sans-serif" font-size="13" font-weight="bold" lengthAdjust="spacing" textLength="7" x="634" y="361.9775">9</text><text fill="#000000" font-family="sans-serif" font-size="13" lengthAdjust="spacing" textLength="160" x="645" y="361.9775">getGreenSpaceRepository()</text><polygon fill="#181818" points="638,394.5313,628,398.5313,638,402.5313,634,398.5313" style="stroke:#181818;stroke-width:1.0;"/><line style="stroke:#181818;stroke-width:1.0;stroke-dasharray:2.0,2.0;" x1="632" x2="893" y1="398.5313" y2="398.5313"/><text fill="#000000" font-family="sans-serif" font-size="13" font-weight="bold" lengthAdjust="spacing" textLength="14" x="644" y="393.2686">10</text><text fill="#000000" font-family="sans-serif" font-size="13" lengthAdjust="spacing" textLength="131" x="662" y="393.2686">greenSpaceRepository</text><polygon fill="#181818" points="1018.5,425.8223,1028.5,429.8223,1018.5,433.8223,1022.5,429.8223" style="stroke:#181818;stroke-width:1.0;"/><line style="stroke:#181818;stroke-width:1.0;" x1="627" x2="1024.5" y1="429.8223" y2="429.8223"/><text fill="#000000" font-family="sans-serif" font-size="13" font-weight="bold" lengthAdjust="spacing" textLength="14" x="634" y="424.5596">11</text><text fill="#000000" font-family="sans-serif" font-size="13" lengthAdjust="spacing" textLength="221" x="652" y="424.5596">registerGreenSpace(name, type, area)</text><polygon fill="#181818" points="1291.5,457.1133,1301.5,461.1133,1291.5,465.1133,1295.5,461.1133" style="stroke:#181818;stroke-width:1.0;"/><line style="stroke:#181818;stroke-width:1.0;" x1="1040.5" x2="1297.5" y1="461.1133" y2="461.1133"/><text fill="#000000" font-family="sans-serif" font-size="13" font-weight="bold" lengthAdjust="spacing" textLength="14" x="1047.5" y="455.8506">12</text><text fill="#000000" font-family="sans-serif" font-size="13" lengthAdjust="spacing" textLength="221" x="1065.5" y="455.8506">registerGreenSpace(name, type, area)</text><rect fill="#E3E3E3" height="51.2422" rx="2.5" ry="2.5" style="stroke:#181818;stroke-width:0.5;" width="98" x="1303.5" y="437.8223"/><text fill="#000000" font-family="sans-serif" font-size="14" lengthAdjust="spacing" textLength="77" x="1314" y="459.9297">greenSpace</text><text fill="#000000" font-family="sans-serif" font-size="14" lengthAdjust="spacing" textLength="84" x="1310.5" y="478.5508">:GreenSpace</text><line style="stroke:#181818;stroke-width:1.0;" x1="1040.5" x2="1087.5" y1="518.3555" y2="518.3555"/><line style="stroke:#181818;stroke-width:1.0;" x1="1087.5" x2="1087.5" y1="518.3555" y2="531.3555"/><line style="stroke:#181818;stroke-width:1.0;" x1="1046.5" x2="1087.5" y1="531.3555" y2="531.3555"/><polygon fill="#181818" points="1056.5,527.3555,1046.5,531.3555,1056.5,535.3555,1052.5,531.3555" style="stroke:#181818;stroke-width:1.0;"/><text fill="#000000" font-family="sans-serif" font-size="13" font-weight="bold" lengthAdjust="spacing" textLength="14" x="1052.5" y="513.0928">13</text><text fill="#000000" font-family="sans-serif" font-size="13" lengthAdjust="spacing" textLength="170" x="1070.5" y="513.0928">addGreenSpace(greenSpace)</text><line style="stroke:#181818;stroke-width:1.0;" x1="1045.5" x2="1092.5" y1="562.6465" y2="562.6465"/><line style="stroke:#181818;stroke-width:1.0;" x1="1092.5" x2="1092.5" y1="562.6465" y2="575.6465"/><line style="stroke:#181818;stroke-width:1.0;" x1="1051.5" x2="1092.5" y1="575.6465" y2="575.6465"/><polygon fill="#181818" points="1061.5,571.6465,1051.5,575.6465,1061.5,579.6465,1057.5,575.6465" style="stroke:#181818;stroke-width:1.0;"/><text fill="#000000" font-family="sans-serif" font-size="13" font-weight="bold" lengthAdjust="spacing" textLength="14" x="1057.5" y="557.3838">14</text><text fill="#000000" font-family="sans-serif" font-size="13" lengthAdjust="spacing" textLength="192" x="1075.5" y="557.3838">validateGreenSpace(greenSpace)</text><polygon fill="#181818" points="638,607.9375,628,611.9375,638,615.9375,634,611.9375" style="stroke:#181818;stroke-width:1.0;"/><line style="stroke:#181818;stroke-width:1.0;stroke-dasharray:2.0,2.0;" x1="632" x2="1034.5" y1="611.9375" y2="611.9375"/><text fill="#000000" font-family="sans-serif" font-size="13" font-weight="bold" lengthAdjust="spacing" textLength="14" x="644" y="606.6748">15</text><text fill="#000000" font-family="sans-serif" font-size="13" lengthAdjust="spacing" textLength="69" x="662" y="606.6748">greenSpace</text><polygon fill="#181818" points="377,639.2285,367,643.2285,377,647.2285,373,643.2285" style="stroke:#181818;stroke-width:1.0;"/><line style="stroke:#181818;stroke-width:1.0;stroke-dasharray:2.0,2.0;" x1="371" x2="621" y1="643.2285" y2="643.2285"/><text fill="#000000" font-family="sans-serif" font-size="13" font-weight="bold" lengthAdjust="spacing" textLength="14" x="383" y="637.9658">16</text><text fill="#000000" font-family="sans-serif" font-size="13" lengthAdjust="spacing" textLength="69" x="401" y="637.9658">greenSpace</text><polygon fill="#181818" points="91,670.5195,81,674.5195,91,678.5195,87,674.5195" style="stroke:#181818;stroke-width:1.0;"/><line style="stroke:#181818;stroke-width:1.0;stroke-dasharray:2.0,2.0;" x1="85" x2="360" y1="674.5195" y2="674.5195"/><text fill="#000000" font-family="sans-serif" font-size="13" font-weight="bold" lengthAdjust="spacing" textLength="14" x="97" y="669.2568">17</text><text fill="#000000" font-family="sans-serif" font-size="13" lengthAdjust="spacing" textLength="158" x="115" y="669.2568">displays operation success</text><!--SRC=[dPLDR-8m48Rl-HKZBhjKvGzmg5GXX93QLGNjRI_JP0WMYPtrcBBy-nqxa8-DqoyV43ZpFlEECsFue7I55aieZJRftfgImDaZ9TmygJ0zO4vRTou8BAKETLvq0tYFcJafdSCE2wOamQCp-bY-aasI7tkL4UoCSQ_cRuAfCnOcAqkaOIjaWaVKGhSJG8RLzZ4HfbEfgb0xcCmtb2jsP8CY25xM8VHb_M7amcXdJL5Su8ldpSD0KnbMOaaHXvXcuxnLlagfeo-n7SLlFGGyFTm_znLvuwU5Yt8LsGw4MFmOiSUfJt2pNFxQFjqlbea_RFM6ZiAn9Y1Bli3iJiuEvX9yO716tcXzRe2WwLId1_R0MjDGvCJ3Xbz2c0d8y-P2-7CaTWmPEeIV6akw1NUkv1CjuRILTVFx0BvgAGlYaGIyDoS6B8ew0-gipPaQlLEsHAVaLKKJNI8uak4kD4KeuV_cYPHnLJOd4ZggsVOhu0GRwIF9afDRQvRv4VoqfskGiGRiHVeLeyyknVXQsfxiIJFwV9fh8RwVQ-UnXXsh8ap1m7PWjJwZZJxYTmYy6enHllf2UzwZjWQrHDFwXctcx-Rc6oxUGyVsPOoph4DlOwP3p- -N297rDIjlM2YPCHhn4qlmTKlZjjffRfz74Ps- -bJQZ-AJRmNN3HmkgQZZ3gX_pxHNunmonLM1PmPJaGrt8F0nJOdhoUym_EtT-Ud_4lu1]--></g></svg>