<?xml version="1.0" encoding="us-ascii" standalone="no"?><svg xmlns="http://www.w3.org/2000/svg" xmlns:xlink="http://www.w3.org/1999/xlink" contentStyleType="text/css" height="491.4px" preserveAspectRatio="none" style="width:718px;height:491px;background:#FFFFFF;" version="1.1" viewBox="0 0 718 491" width="718.9px" zoomAndPan="magnify"><defs/><g><rect fill="#FFFFFF" height="355.332" style="stroke:#181818;stroke-width:0.6999999999999998;" width="7" x="12.25" y="65.5348"/><rect fill="#FFFFFF" height="339.0283" style="stroke:#181818;stroke-width:0.6999999999999998;" width="7" x="178.85" y="81.8385"/><rect fill="#FFFFFF" height="264.6861" style="stroke:#181818;stroke-width:0.6999999999999998;" width="7" x="361.55" y="134.277"/><rect fill="#FFFFFF" height="21.9037" style="stroke:#181818;stroke-width:0.6999999999999998;" width="7" x="477.05" y="156.1807"/><rect fill="#FFFFFF" height="21.9037" style="stroke:#181818;stroke-width:0.6999999999999998;" width="7" x="551.95" y="199.9881"/><rect fill="#FFFFFF" height="55.6801" style="stroke:#181818;stroke-width:0.6999999999999998;" width="7" x="651" y="243.7955"/><rect fill="#FFFFFF" height="55.6801" style="stroke:#181818;stroke-width:0.6999999999999998;" width="7" x="651" y="321.3793"/><line style="stroke:#181818;stroke-width:0.3499999999999999;stroke-dasharray:5.0,5.0;" x1="15.4" x2="15.4" y1="58.5348" y2="433.4668"/><line style="stroke:#181818;stroke-width:0.3499999999999999;stroke-dasharray:5.0,5.0;" x1="182" x2="182" y1="58.5348" y2="433.4668"/><line style="stroke:#181818;stroke-width:0.3499999999999999;stroke-dasharray:5.0,5.0;" x1="364.7" x2="364.7" y1="109.7059" y2="433.4668"/><line style="stroke:#181818;stroke-width:0.3499999999999999;stroke-dasharray:5.0,5.0;" x1="480.2" x2="480.2" y1="58.5348" y2="433.4668"/><line style="stroke:#181818;stroke-width:0.3499999999999999;stroke-dasharray:5.0,5.0;" x1="555.1" x2="555.1" y1="58.5348" y2="433.4668"/><line style="stroke:#181818;stroke-width:0.3499999999999999;stroke-dasharray:5.0,5.0;" x1="654.5" x2="654.5" y1="58.5348" y2="433.4668"/><text fill="#000000" font-family="sans-serif" font-size="9.8" lengthAdjust="spacing" textLength="20.3" x="3.5" y="56.0752">User</text><ellipse cx="15.75" cy="9.45" fill="#E3E3E3" rx="5.6" ry="5.6" style="stroke:#181818;stroke-width:0.3499999999999999;"/><path d="M15.75,15.05 L15.75,33.95 M6.65,20.65 L24.85,20.65 M15.75,33.95 L6.65,44.45 M15.75,33.95 L24.85,44.45 " fill="none" style="stroke:#181818;stroke-width:0.3499999999999999;"/><text fill="#000000" font-family="sans-serif" font-size="9.8" lengthAdjust="spacing" textLength="20.3" x="3.5" y="443.342">User</text><ellipse cx="15.75" cy="451.7516" fill="#E3E3E3" rx="5.6" ry="5.6" style="stroke:#181818;stroke-width:0.3499999999999999;"/><path d="M15.75,457.3516 L15.75,476.2516 M6.65,462.9516 L24.85,462.9516 M15.75,476.2516 L6.65,486.7516 M15.75,476.2516 L24.85,486.7516 " fill="none" style="stroke:#181818;stroke-width:0.3499999999999999;"/><rect fill="#E3E3E3" height="22.8348" rx="1.75" ry="1.75" style="stroke:#181818;stroke-width:0.3499999999999999;" width="114.1" x="125.3" y="35"/><text fill="#000000" font-family="sans-serif" font-size="9.8" lengthAdjust="spacing" textLength="104.3" x="130.2" y="50.4752">:RegisterGreenSpaceUI</text><rect fill="#E3E3E3" height="22.8348" rx="1.75" ry="1.75" style="stroke:#181818;stroke-width:0.3499999999999999;" width="114.1" x="125.3" y="432.7668"/><text fill="#000000" font-family="sans-serif" font-size="9.8" lengthAdjust="spacing" textLength="104.3" x="130.2" y="448.242">:RegisterGreenSpaceUI</text><rect fill="#E3E3E3" height="22.8348" rx="1.75" ry="1.75" style="stroke:#181818;stroke-width:0.3499999999999999;" width="149.1" x="290.5" y="432.7668"/><text fill="#000000" font-family="sans-serif" font-size="9.8" lengthAdjust="spacing" textLength="139.3" x="295.4" y="448.242">:RegisterGreenSpaceController</text><rect fill="#E3E3E3" height="22.8348" rx="1.75" ry="1.75" style="stroke:#181818;stroke-width:0.3499999999999999;" width="67.9" x="446.6" y="35"/><text fill="#000000" font-family="sans-serif" font-size="9.8" lengthAdjust="spacing" textLength="58.1" x="451.5" y="50.4752">:Repositories</text><rect fill="#E3E3E3" height="22.8348" rx="1.75" ry="1.75" style="stroke:#181818;stroke-width:0.3499999999999999;" width="67.9" x="446.6" y="432.7668"/><text fill="#000000" font-family="sans-serif" font-size="9.8" lengthAdjust="spacing" textLength="58.1" x="451.5" y="448.242">:Repositories</text><rect fill="#E3E3E3" height="35.8695" rx="1.75" ry="1.75" style="stroke:#181818;stroke-width:0.3499999999999999;" width="67.9" x="521.5" y="21.9652"/><text fill="#000000" font-family="sans-serif" font-size="9.8" lengthAdjust="spacing" textLength="51.8" x="529.55" y="37.4404">repositories</text><text fill="#000000" font-family="sans-serif" font-size="9.8" lengthAdjust="spacing" textLength="58.1" x="526.4" y="50.4752">:Repositories</text><rect fill="#E3E3E3" height="35.8695" rx="1.75" ry="1.75" style="stroke:#181818;stroke-width:0.3499999999999999;" width="67.9" x="521.5" y="432.7668"/><text fill="#000000" font-family="sans-serif" font-size="9.8" lengthAdjust="spacing" textLength="51.8" x="529.55" y="448.242">repositories</text><text fill="#000000" font-family="sans-serif" font-size="9.8" lengthAdjust="spacing" textLength="58.1" x="526.4" y="461.2768">:Repositories</text><rect fill="#E3E3E3" height="35.8695" rx="1.75" ry="1.75" style="stroke:#181818;stroke-width:0.3499999999999999;" width="116.2" x="596.4" y="21.9652"/><text fill="#000000" font-family="sans-serif" font-size="9.8" lengthAdjust="spacing" textLength="101.5" x="603.75" y="37.4404">greenSpaceRepository</text><text fill="#000000" font-family="sans-serif" font-size="9.8" lengthAdjust="spacing" textLength="106.4" x="601.3" y="50.4752">:GreenSpaceRepository</text><rect fill="#E3E3E3" height="35.8695" rx="1.75" ry="1.75" style="stroke:#181818;stroke-width:0.3499999999999999;" width="116.2" x="596.4" y="432.7668"/><text fill="#000000" font-family="sans-serif" font-size="9.8" lengthAdjust="spacing" textLength="101.5" x="603.75" y="448.242">greenSpaceRepository</text><text fill="#000000" font-family="sans-serif" font-size="9.8" lengthAdjust="spacing" textLength="106.4" x="601.3" y="461.2768">:GreenSpaceRepository</text><rect fill="#FFFFFF" height="355.332" style="stroke:#181818;stroke-width:0.6999999999999998;" width="7" x="12.25" y="65.5348"/><rect fill="#FFFFFF" height="339.0283" style="stroke:#181818;stroke-width:0.6999999999999998;" width="7" x="178.85" y="81.8385"/><rect fill="#FFFFFF" height="264.6861" style="stroke:#181818;stroke-width:0.6999999999999998;" width="7" x="361.55" y="134.277"/><rect fill="#FFFFFF" height="21.9037" style="stroke:#181818;stroke-width:0.6999999999999998;" width="7" x="477.05" y="156.1807"/><rect fill="#FFFFFF" height="21.9037" style="stroke:#181818;stroke-width:0.6999999999999998;" width="7" x="551.95" y="199.9881"/><rect fill="#FFFFFF" height="55.6801" style="stroke:#181818;stroke-width:0.6999999999999998;" width="7" x="651" y="243.7955"/><rect fill="#FFFFFF" height="55.6801" style="stroke:#181818;stroke-width:0.6999999999999998;" width="7" x="651" y="321.3793"/><polygon fill="#181818" points="170.45,79.0385,177.45,81.8385,170.45,84.6385,173.25,81.8385" style="stroke:#181818;stroke-width:0.6999999999999998;"/><line style="stroke:#181818;stroke-width:0.6999999999999998;" x1="19.25" x2="174.65" y1="81.8385" y2="81.8385"/><text fill="#000000" font-family="sans-serif" font-size="9.1" font-weight="bold" lengthAdjust="spacing" textLength="4.9" x="24.15" y="78.1546">1</text><text fill="#000000" font-family="sans-serif" font-size="9.1" lengthAdjust="spacing" textLength="138.6" x="31.85" y="78.1546">requests to register a green space</text><polygon fill="#181818" points="282.1,100.9422,289.1,103.7422,282.1,106.5422,284.9,103.7422" style="stroke:#181818;stroke-width:0.6999999999999998;"/><line style="stroke:#181818;stroke-width:0.6999999999999998;" x1="185.85" x2="286.3" y1="103.7422" y2="103.7422"/><text fill="#000000" font-family="sans-serif" font-size="9.1" font-weight="bold" lengthAdjust="spacing" textLength="4.9" x="190.75" y="100.0583">2</text><text fill="#000000" font-family="sans-serif" font-size="9.1" lengthAdjust="spacing" textLength="25.2" x="198.45" y="100.0583">create</text><rect fill="#E3E3E3" height="22.8348" rx="1.75" ry="1.75" style="stroke:#181818;stroke-width:0.3499999999999999;" width="149.1" x="290.5" y="87.4385"/><text fill="#000000" font-family="sans-serif" font-size="9.8" lengthAdjust="spacing" textLength="139.3" x="295.4" y="102.9137">:RegisterGreenSpaceController</text><polygon fill="#181818" points="353.15,131.477,360.15,134.277,353.15,137.077,355.95,134.277" style="stroke:#181818;stroke-width:0.6999999999999998;"/><line style="stroke:#181818;stroke-width:0.6999999999999998;" x1="185.85" x2="357.35" y1="134.277" y2="134.277"/><text fill="#000000" font-family="sans-serif" font-size="9.1" font-weight="bold" lengthAdjust="spacing" textLength="4.9" x="190.75" y="130.5931">3</text><text fill="#000000" font-family="sans-serif" font-size="9.1" lengthAdjust="spacing" textLength="154.7" x="198.45" y="130.5931">registerGreenSpace(name, area, type)</text><polygon fill="#181818" points="468.65,153.3807,475.65,156.1807,468.65,158.9807,471.45,156.1807" style="stroke:#181818;stroke-width:0.6999999999999998;"/><line style="stroke:#181818;stroke-width:0.6999999999999998;" x1="368.55" x2="472.85" y1="156.1807" y2="156.1807"/><text fill="#000000" font-family="sans-serif" font-size="9.1" font-weight="bold" lengthAdjust="spacing" textLength="4.9" x="373.45" y="152.4968">4</text><text fill="#000000" font-family="sans-serif" font-size="9.1" lengthAdjust="spacing" textLength="52.5" x="381.15" y="152.4968">getInstance()</text><polygon fill="#181818" points="376.25,175.2844,369.25,178.0844,376.25,180.8844,373.45,178.0844" style="stroke:#181818;stroke-width:0.6999999999999998;"/><line style="stroke:#181818;stroke-width:0.6999999999999998;stroke-dasharray:2.0,2.0;" x1="372.05" x2="479.85" y1="178.0844" y2="178.0844"/><text fill="#000000" font-family="sans-serif" font-size="9.1" font-weight="bold" lengthAdjust="spacing" textLength="4.9" x="380.45" y="174.4005">5</text><text fill="#000000" font-family="sans-serif" font-size="9.1" lengthAdjust="spacing" textLength="46.9" x="388.15" y="174.4005">repositories</text><polygon fill="#181818" points="543.55,197.1881,550.55,199.9881,543.55,202.7881,546.35,199.9881" style="stroke:#181818;stroke-width:0.6999999999999998;"/><line style="stroke:#181818;stroke-width:0.6999999999999998;" x1="368.55" x2="547.75" y1="199.9881" y2="199.9881"/><text fill="#000000" font-family="sans-serif" font-size="9.1" font-weight="bold" lengthAdjust="spacing" textLength="4.9" x="373.45" y="196.3042">6</text><text fill="#000000" font-family="sans-serif" font-size="9.1" lengthAdjust="spacing" textLength="112" x="381.15" y="196.3042">getGreenSpaceRepository()</text><polygon fill="#181818" points="376.25,219.0918,369.25,221.8918,376.25,224.6918,373.45,221.8918" style="stroke:#181818;stroke-width:0.6999999999999998;"/><line style="stroke:#181818;stroke-width:0.6999999999999998;stroke-dasharray:2.0,2.0;" x1="372.05" x2="554.75" y1="221.8918" y2="221.8918"/><text fill="#000000" font-family="sans-serif" font-size="9.1" font-weight="bold" lengthAdjust="spacing" textLength="4.9" x="380.45" y="218.2079">7</text><text fill="#000000" font-family="sans-serif" font-size="9.1" lengthAdjust="spacing" textLength="91.7" x="388.15" y="218.2079">greenSpaceRepository</text><polygon fill="#181818" points="642.6,240.9955,649.6,243.7955,642.6,246.5955,645.4,243.7955" style="stroke:#181818;stroke-width:0.6999999999999998;"/><line style="stroke:#181818;stroke-width:0.6999999999999998;" x1="368.55" x2="646.8" y1="243.7955" y2="243.7955"/><text fill="#000000" font-family="sans-serif" font-size="9.1" font-weight="bold" lengthAdjust="spacing" textLength="4.9" x="373.45" y="240.1116">8</text><text fill="#000000" font-family="sans-serif" font-size="9.1" lengthAdjust="spacing" textLength="154.7" x="381.15" y="240.1116">validateGreenSpace(name, area, type)</text><rect fill="none" height="30.2764" style="stroke:#000000;stroke-width:1.0499999999999998;" width="120.4" x="594.3" y="249.3955"/><path d="M594.3,249.3955 L637.7,249.3955 L637.7,255.6955 L630.7,262.6955 L594.3,262.6955 L594.3,249.3955 " fill="#EEEEEE" style="stroke:#000000;stroke-width:1.3999999999999997;"/><text fill="#000000" font-family="sans-serif" font-size="9.1" font-weight="bold" lengthAdjust="spacing" textLength="11.9" x="603.4" y="260.6153">ref</text><text fill="#000000" font-family="sans-serif" font-size="8.4" lengthAdjust="spacing" textLength="83.3" x="612.85" y="274.56">Validate Green Space</text><polygon fill="#181818" points="376.25,296.6756,369.25,299.4756,376.25,302.2756,373.45,299.4756" style="stroke:#181818;stroke-width:0.6999999999999998;"/><line style="stroke:#181818;stroke-width:0.6999999999999998;stroke-dasharray:2.0,2.0;" x1="372.05" x2="653.8" y1="299.4756" y2="299.4756"/><text fill="#000000" font-family="sans-serif" font-size="9.1" font-weight="bold" lengthAdjust="spacing" textLength="4.9" x="380.45" y="295.7917">9</text><text fill="#000000" font-family="sans-serif" font-size="9.1" lengthAdjust="spacing" textLength="63.7" x="388.15" y="295.7917">validationStatus</text><polygon fill="#181818" points="642.6,318.5793,649.6,321.3793,642.6,324.1793,645.4,321.3793" style="stroke:#181818;stroke-width:0.6999999999999998;"/><line style="stroke:#181818;stroke-width:0.6999999999999998;" x1="368.55" x2="646.8" y1="321.3793" y2="321.3793"/><text fill="#000000" font-family="sans-serif" font-size="9.1" font-weight="bold" lengthAdjust="spacing" textLength="9.8" x="373.45" y="317.6954">10</text><text fill="#000000" font-family="sans-serif" font-size="9.1" lengthAdjust="spacing" textLength="139.3" x="386.05" y="317.6954">addGreenSpace(name, area, type)</text><rect fill="none" height="30.2764" style="stroke:#000000;stroke-width:1.0499999999999998;" width="120.4" x="594.3" y="326.9793"/><path d="M594.3,326.9793 L637.7,326.9793 L637.7,333.2793 L630.7,340.2793 L594.3,340.2793 L594.3,326.9793 " fill="#EEEEEE" style="stroke:#000000;stroke-width:1.3999999999999997;"/><text fill="#000000" font-family="sans-serif" font-size="9.1" font-weight="bold" lengthAdjust="spacing" textLength="11.9" x="603.4" y="338.1991">ref</text><text fill="#000000" font-family="sans-serif" font-size="8.4" lengthAdjust="spacing" textLength="67.2" x="620.9" y="352.1437">Add Green Space</text><polygon fill="#181818" points="376.25,374.2594,369.25,377.0594,376.25,379.8594,373.45,377.0594" style="stroke:#181818;stroke-width:0.6999999999999998;"/><line style="stroke:#181818;stroke-width:0.6999999999999998;stroke-dasharray:2.0,2.0;" x1="372.05" x2="653.8" y1="377.0594" y2="377.0594"/><text fill="#000000" font-family="sans-serif" font-size="9.1" font-weight="bold" lengthAdjust="spacing" textLength="9.8" x="380.45" y="373.3755">11</text><text fill="#000000" font-family="sans-serif" font-size="9.1" lengthAdjust="spacing" textLength="71.4" x="393.05" y="373.3755">successMessage</text><polygon fill="#181818" points="193.55,396.1631,186.55,398.9631,193.55,401.7631,190.75,398.9631" style="stroke:#181818;stroke-width:0.6999999999999998;"/><line style="stroke:#181818;stroke-width:0.6999999999999998;stroke-dasharray:2.0,2.0;" x1="189.35" x2="364.35" y1="398.9631" y2="398.9631"/><text fill="#000000" font-family="sans-serif" font-size="9.1" font-weight="bold" lengthAdjust="spacing" textLength="9.8" x="197.75" y="395.2792">12</text><text fill="#000000" font-family="sans-serif" font-size="9.1" lengthAdjust="spacing" textLength="71.4" x="210.35" y="395.2792">successMessage</text><polygon fill="#181818" points="23.45,418.0668,16.45,420.8668,23.45,423.6668,20.65,420.8668" style="stroke:#181818;stroke-width:0.6999999999999998;"/><line style="stroke:#181818;stroke-width:0.6999999999999998;stroke-dasharray:2.0,2.0;" x1="19.25" x2="181.65" y1="420.8668" y2="420.8668"/><text fill="#000000" font-family="sans-serif" font-size="9.1" font-weight="bold" lengthAdjust="spacing" textLength="9.8" x="27.65" y="417.1829">13</text><text fill="#000000" font-family="sans-serif" font-size="9.1" lengthAdjust="spacing" textLength="110.6" x="40.25" y="417.1829">displays success message</text><!--SRC=[nLH1JiCm4Bpd5QkU0C47Ua122A58824AdBWiyJPOJUpWTOhwUzPEcpfWjOWBbX8vpinaFEiihxJfq64BhJMsUdUs9V2kfuB7DnrMAwnfuJSDWQFAewcR5C3lgEodDZKiiM4g2kozDNtxHaxcbRSEPizCRWR842Q5yBokT8V6msp-IBLcJ-xM4Pc5V8wUom5R7aLUM-ETRPgj-lNJuzqFJcTPYmbD737ZmcQXmqx4wvJY4iQhoGZSF4m9zMXdhot4syno5CZXOr9wZPw6Y8fmXujB2G7c4lj7J-mPl9Nv40BW80GSb19wAUGoK4CQPsT2hnp9csGrIdxFyiHWI-U00Zu7l-dej00Pet0CDov52P7AH2dADVdIi1mJaHma9ZAv_4TKJl4YDRslnSXHT5nxT7ppC3ZC5IVhLegzToVin4ssZZbNEusTYnnHzDROQ2M4eoMPE3pe8Wn7Ix1hEJ17aM6yR4r0T04HFW6HKVj4iZj98jfkILkpyEZxRD7olyClyaAb_ZMgAwKEflJRaBYlAcA-bqiQxLyYslM9Z5AYClp0eGi4VEWlSr2QkmOtlAD2k-KclD1HqaTXVW40]--></g></svg>