<?xml version="1.0" encoding="us-ascii" standalone="no"?><svg xmlns="http://www.w3.org/2000/svg" xmlns:xlink="http://www.w3.org/1999/xlink" contentStyleType="text/css" height="525px" preserveAspectRatio="none" style="width:1278px;height:525px;background:#FFFFFF;" version="1.1" viewBox="0 0 1278 525" width="1278px" zoomAndPan="magnify"><defs/><g><!--class Repositories--><g id="elem_Repositories"><rect codeLine="11" fill="#F1F1F1" height="103.8633" id="Repositories" rx="2.5" ry="2.5" style="stroke:#181818;stroke-width:0.5;" width="198" x="693.5" y="16"/><ellipse cx="748.75" cy="32" fill="#ADD1B2" rx="11" ry="11" style="stroke:#181818;stroke-width:1.0;"/><path d="M751.5156,27.875 Q751.6719,27.6563 751.8594,27.5469 Q752.0469,27.4375 752.2656,27.4375 Q752.6406,27.4375 752.875,27.7031 Q753.1094,27.9531 753.1094,28.5625 L753.1094,30.0156 Q753.1094,30.625 752.875,30.8906 Q752.6406,31.1563 752.2656,31.1563 Q751.9219,31.1563 751.7188,30.9531 Q751.5156,30.7656 751.4063,30.25 Q751.3594,29.8906 751.1719,29.7031 Q750.8438,29.3281 750.2344,29.1094 Q749.625,28.8906 749,28.8906 Q748.2344,28.8906 747.5938,29.2188 Q746.9688,29.5469 746.4688,30.2969 Q745.9844,31.0469 745.9844,32.0781 L745.9844,33.1719 Q745.9844,34.4063 746.875,35.2344 Q747.7656,36.0469 749.3594,36.0469 Q750.2969,36.0469 750.9531,35.7969 Q751.3438,35.6406 751.7656,35.2031 Q752.0313,34.9375 752.1719,34.8594 Q752.3281,34.7813 752.5313,34.7813 Q752.8594,34.7813 753.1094,35.0469 Q753.375,35.2969 753.375,35.6406 Q753.375,35.9844 753.0313,36.3906 Q752.5313,36.9688 751.7344,37.2969 Q750.6563,37.75 749.3594,37.75 Q747.8438,37.75 746.6406,37.125 Q745.6563,36.625 744.9688,35.5625 Q744.2813,34.4844 744.2813,33.2031 L744.2813,32.0469 Q744.2813,30.7188 744.8906,29.5781 Q745.5156,28.4219 746.6094,27.8125 Q747.7031,27.1875 748.9375,27.1875 Q749.6719,27.1875 750.3125,27.3594 Q750.9688,27.5156 751.5156,27.875 Z " fill="#000000"/><text fill="#000000" font-family="sans-serif" font-size="14" lengthAdjust="spacing" textLength="79" x="769.25" y="37.7969">Repositories</text><line style="stroke:#181818;stroke-width:0.5;" x1="694.5" x2="890.5" y1="48" y2="48"/><line style="stroke:#181818;stroke-width:0.5;" x1="694.5" x2="890.5" y1="56" y2="56"/><text fill="#000000" font-family="sans-serif" font-size="14" lengthAdjust="spacing" textLength="94" x="699.5" y="75.1074">-Repositories()</text><text fill="#000000" font-family="sans-serif" font-size="14" lengthAdjust="spacing" textLength="182" x="699.5" y="93.7285">+getInstance() : Repositories</text><text fill="#000000" font-family="sans-serif" font-size="14" lengthAdjust="spacing" textLength="186" x="699.5" y="112.3496">+getGreenSpaceRepository()</text></g><!--class RegisterGreenSpaceController--><g id="elem_RegisterGreenSpaceController"><rect codeLine="17" fill="#F1F1F1" height="85.2422" id="RegisterGreenSpaceController" rx="2.5" ry="2.5" style="stroke:#181818;stroke-width:0.5;" width="370" x="219.5" y="25.5"/><ellipse cx="302.75" cy="41.5" fill="#ADD1B2" rx="11" ry="11" style="stroke:#181818;stroke-width:1.0;"/><path d="M305.5156,37.375 Q305.6719,37.1563 305.8594,37.0469 Q306.0469,36.9375 306.2656,36.9375 Q306.6406,36.9375 306.875,37.2031 Q307.1094,37.4531 307.1094,38.0625 L307.1094,39.5156 Q307.1094,40.125 306.875,40.3906 Q306.6406,40.6563 306.2656,40.6563 Q305.9219,40.6563 305.7188,40.4531 Q305.5156,40.2656 305.4063,39.75 Q305.3594,39.3906 305.1719,39.2031 Q304.8438,38.8281 304.2344,38.6094 Q303.625,38.3906 303,38.3906 Q302.2344,38.3906 301.5938,38.7188 Q300.9688,39.0469 300.4688,39.7969 Q299.9844,40.5469 299.9844,41.5781 L299.9844,42.6719 Q299.9844,43.9063 300.875,44.7344 Q301.7656,45.5469 303.3594,45.5469 Q304.2969,45.5469 304.9531,45.2969 Q305.3438,45.1406 305.7656,44.7031 Q306.0313,44.4375 306.1719,44.3594 Q306.3281,44.2813 306.5313,44.2813 Q306.8594,44.2813 307.1094,44.5469 Q307.375,44.7969 307.375,45.1406 Q307.375,45.4844 307.0313,45.8906 Q306.5313,46.4688 305.7344,46.7969 Q304.6563,47.25 303.3594,47.25 Q301.8438,47.25 300.6406,46.625 Q299.6563,46.125 298.9688,45.0625 Q298.2813,43.9844 298.2813,42.7031 L298.2813,41.5469 Q298.2813,40.2188 298.8906,39.0781 Q299.5156,37.9219 300.6094,37.3125 Q301.7031,36.6875 302.9375,36.6875 Q303.6719,36.6875 304.3125,36.8594 Q304.9688,37.0156 305.5156,37.375 Z " fill="#000000"/><text fill="#000000" font-family="sans-serif" font-size="14" lengthAdjust="spacing" textLength="195" x="323.25" y="47.2969">RegisterGreenSpaceController</text><line style="stroke:#181818;stroke-width:0.5;" x1="220.5" x2="588.5" y1="57.5" y2="57.5"/><line style="stroke:#181818;stroke-width:0.5;" x1="220.5" x2="588.5" y1="65.5" y2="65.5"/><text fill="#000000" font-family="sans-serif" font-size="14" lengthAdjust="spacing" textLength="358" x="225.5" y="84.6074">+RegisterGreenSpaceController(greenSpaceRepository)</text><text fill="#000000" font-family="sans-serif" font-size="14" lengthAdjust="spacing" textLength="253" x="225.5" y="103.2285">+registerGreenSpace(name, type, area)</text></g><!--class GreenSpaceRepository--><g id="elem_GreenSpaceRepository"><rect codeLine="22" fill="#F1F1F1" height="122.4844" id="GreenSpaceRepository" rx="2.5" ry="2.5" style="stroke:#181818;stroke-width:0.5;" width="265" x="1006" y="7"/><ellipse cx="1060.25" cy="23" fill="#ADD1B2" rx="11" ry="11" style="stroke:#181818;stroke-width:1.0;"/><path d="M1063.0156,18.875 Q1063.1719,18.6563 1063.3594,18.5469 Q1063.5469,18.4375 1063.7656,18.4375 Q1064.1406,18.4375 1064.375,18.7031 Q1064.6094,18.9531 1064.6094,19.5625 L1064.6094,21.0156 Q1064.6094,21.625 1064.375,21.8906 Q1064.1406,22.1563 1063.7656,22.1563 Q1063.4219,22.1563 1063.2188,21.9531 Q1063.0156,21.7656 1062.9063,21.25 Q1062.8594,20.8906 1062.6719,20.7031 Q1062.3438,20.3281 1061.7344,20.1094 Q1061.125,19.8906 1060.5,19.8906 Q1059.7344,19.8906 1059.0938,20.2188 Q1058.4688,20.5469 1057.9688,21.2969 Q1057.4844,22.0469 1057.4844,23.0781 L1057.4844,24.1719 Q1057.4844,25.4063 1058.375,26.2344 Q1059.2656,27.0469 1060.8594,27.0469 Q1061.7969,27.0469 1062.4531,26.7969 Q1062.8438,26.6406 1063.2656,26.2031 Q1063.5313,25.9375 1063.6719,25.8594 Q1063.8281,25.7813 1064.0313,25.7813 Q1064.3594,25.7813 1064.6094,26.0469 Q1064.875,26.2969 1064.875,26.6406 Q1064.875,26.9844 1064.5313,27.3906 Q1064.0313,27.9688 1063.2344,28.2969 Q1062.1563,28.75 1060.8594,28.75 Q1059.3438,28.75 1058.1406,28.125 Q1057.1563,27.625 1056.4688,26.5625 Q1055.7813,25.4844 1055.7813,24.2031 L1055.7813,23.0469 Q1055.7813,21.7188 1056.3906,20.5781 Q1057.0156,19.4219 1058.1094,18.8125 Q1059.2031,18.1875 1060.4375,18.1875 Q1061.1719,18.1875 1061.8125,18.3594 Q1062.4688,18.5156 1063.0156,18.875 Z " fill="#000000"/><text fill="#000000" font-family="sans-serif" font-size="14" lengthAdjust="spacing" textLength="148" x="1080.75" y="28.7969">GreenSpaceRepository</text><line style="stroke:#181818;stroke-width:0.5;" x1="1007" x2="1270" y1="39" y2="39"/><line style="stroke:#181818;stroke-width:0.5;" x1="1007" x2="1270" y1="47" y2="47"/><text fill="#000000" font-family="sans-serif" font-size="14" lengthAdjust="spacing" textLength="253" x="1012" y="66.1074">+registerGreenSpace(name, type, area)</text><text fill="#000000" font-family="sans-serif" font-size="14" lengthAdjust="spacing" textLength="199" x="1012" y="84.7285">+addGreenSpace(greenSpace)</text><text fill="#000000" font-family="sans-serif" font-size="14" lengthAdjust="spacing" textLength="224" x="1012" y="103.3496">+validateGreenSpace(greenSpace)</text><text fill="#000000" font-family="sans-serif" font-size="14" lengthAdjust="spacing" textLength="140" x="1012" y="121.9707">+getGreenSpaceList()</text></g><!--class RegisterGreenSpaceUI--><g id="elem_RegisterGreenSpaceUI"><rect codeLine="29" fill="#F1F1F1" height="48" id="RegisterGreenSpaceUI" rx="2.5" ry="2.5" style="stroke:#181818;stroke-width:0.5;" width="177" x="7" y="44"/><ellipse cx="22" cy="60" fill="#ADD1B2" rx="11" ry="11" style="stroke:#181818;stroke-width:1.0;"/><path d="M24.7656,55.875 Q24.9219,55.6563 25.1094,55.5469 Q25.2969,55.4375 25.5156,55.4375 Q25.8906,55.4375 26.125,55.7031 Q26.3594,55.9531 26.3594,56.5625 L26.3594,58.0156 Q26.3594,58.625 26.125,58.8906 Q25.8906,59.1563 25.5156,59.1563 Q25.1719,59.1563 24.9688,58.9531 Q24.7656,58.7656 24.6563,58.25 Q24.6094,57.8906 24.4219,57.7031 Q24.0938,57.3281 23.4844,57.1094 Q22.875,56.8906 22.25,56.8906 Q21.4844,56.8906 20.8438,57.2188 Q20.2188,57.5469 19.7188,58.2969 Q19.2344,59.0469 19.2344,60.0781 L19.2344,61.1719 Q19.2344,62.4063 20.125,63.2344 Q21.0156,64.0469 22.6094,64.0469 Q23.5469,64.0469 24.2031,63.7969 Q24.5938,63.6406 25.0156,63.2031 Q25.2813,62.9375 25.4219,62.8594 Q25.5781,62.7813 25.7813,62.7813 Q26.1094,62.7813 26.3594,63.0469 Q26.625,63.2969 26.625,63.6406 Q26.625,63.9844 26.2813,64.3906 Q25.7813,64.9688 24.9844,65.2969 Q23.9063,65.75 22.6094,65.75 Q21.0938,65.75 19.8906,65.125 Q18.9063,64.625 18.2188,63.5625 Q17.5313,62.4844 17.5313,61.2031 L17.5313,60.0469 Q17.5313,58.7188 18.1406,57.5781 Q18.7656,56.4219 19.8594,55.8125 Q20.9531,55.1875 22.1875,55.1875 Q22.9219,55.1875 23.5625,55.3594 Q24.2188,55.5156 24.7656,55.875 Z " fill="#000000"/><text fill="#000000" font-family="sans-serif" font-size="14" lengthAdjust="spacing" textLength="145" x="36" y="65.7969">RegisterGreenSpaceUI</text><line style="stroke:#181818;stroke-width:0.5;" x1="8" x2="183" y1="76" y2="76"/><line style="stroke:#181818;stroke-width:0.5;" x1="8" x2="183" y1="84" y2="84"/></g><!--class GreenSpace--><g id="elem_GreenSpace"><rect codeLine="32" fill="#F1F1F1" height="103.8633" id="GreenSpace" rx="2.5" ry="2.5" style="stroke:#181818;stroke-width:0.5;" width="112" x="395.5" y="415"/><ellipse cx="410.5" cy="431" fill="#ADD1B2" rx="11" ry="11" style="stroke:#181818;stroke-width:1.0;"/><path d="M413.2656,426.875 Q413.4219,426.6563 413.6094,426.5469 Q413.7969,426.4375 414.0156,426.4375 Q414.3906,426.4375 414.625,426.7031 Q414.8594,426.9531 414.8594,427.5625 L414.8594,429.0156 Q414.8594,429.625 414.625,429.8906 Q414.3906,430.1563 414.0156,430.1563 Q413.6719,430.1563 413.4688,429.9531 Q413.2656,429.7656 413.1563,429.25 Q413.1094,428.8906 412.9219,428.7031 Q412.5938,428.3281 411.9844,428.1094 Q411.375,427.8906 410.75,427.8906 Q409.9844,427.8906 409.3438,428.2188 Q408.7188,428.5469 408.2188,429.2969 Q407.7344,430.0469 407.7344,431.0781 L407.7344,432.1719 Q407.7344,433.4063 408.625,434.2344 Q409.5156,435.0469 411.1094,435.0469 Q412.0469,435.0469 412.7031,434.7969 Q413.0938,434.6406 413.5156,434.2031 Q413.7813,433.9375 413.9219,433.8594 Q414.0781,433.7813 414.2813,433.7813 Q414.6094,433.7813 414.8594,434.0469 Q415.125,434.2969 415.125,434.6406 Q415.125,434.9844 414.7813,435.3906 Q414.2813,435.9688 413.4844,436.2969 Q412.4063,436.75 411.1094,436.75 Q409.5938,436.75 408.3906,436.125 Q407.4063,435.625 406.7188,434.5625 Q406.0313,433.4844 406.0313,432.2031 L406.0313,431.0469 Q406.0313,429.7188 406.6406,428.5781 Q407.2656,427.4219 408.3594,426.8125 Q409.4531,426.1875 410.6875,426.1875 Q411.4219,426.1875 412.0625,426.3594 Q412.7188,426.5156 413.2656,426.875 Z " fill="#000000"/><text fill="#000000" font-family="sans-serif" font-size="14" lengthAdjust="spacing" textLength="80" x="424.5" y="436.7969">GreenSpace</text><line style="stroke:#181818;stroke-width:0.5;" x1="396.5" x2="506.5" y1="447" y2="447"/><text fill="#000000" font-family="sans-serif" font-size="14" lengthAdjust="spacing" textLength="81" x="401.5" y="466.1074">-String name</text><text fill="#000000" font-family="sans-serif" font-size="14" lengthAdjust="spacing" textLength="73" x="401.5" y="484.7285">-String type</text><text fill="#000000" font-family="sans-serif" font-size="14" lengthAdjust="spacing" textLength="83" x="401.5" y="503.3496">-Double area</text><line style="stroke:#181818;stroke-width:0.5;" x1="396.5" x2="506.5" y1="510.8633" y2="510.8633"/></g><!--class greenSpaceRepository--><g id="elem_greenSpaceRepository"><rect fill="#F1F1F1" height="48" id="greenSpaceRepository" rx="2.5" ry="2.5" style="stroke:#181818;stroke-width:0.5;" width="177" x="458" y="208"/><ellipse cx="473" cy="224" fill="#ADD1B2" rx="11" ry="11" style="stroke:#181818;stroke-width:1.0;"/><path d="M475.7656,219.875 Q475.9219,219.6563 476.1094,219.5469 Q476.2969,219.4375 476.5156,219.4375 Q476.8906,219.4375 477.125,219.7031 Q477.3594,219.9531 477.3594,220.5625 L477.3594,222.0156 Q477.3594,222.625 477.125,222.8906 Q476.8906,223.1563 476.5156,223.1563 Q476.1719,223.1563 475.9688,222.9531 Q475.7656,222.7656 475.6563,222.25 Q475.6094,221.8906 475.4219,221.7031 Q475.0938,221.3281 474.4844,221.1094 Q473.875,220.8906 473.25,220.8906 Q472.4844,220.8906 471.8438,221.2188 Q471.2188,221.5469 470.7188,222.2969 Q470.2344,223.0469 470.2344,224.0781 L470.2344,225.1719 Q470.2344,226.4063 471.125,227.2344 Q472.0156,228.0469 473.6094,228.0469 Q474.5469,228.0469 475.2031,227.7969 Q475.5938,227.6406 476.0156,227.2031 Q476.2813,226.9375 476.4219,226.8594 Q476.5781,226.7813 476.7813,226.7813 Q477.1094,226.7813 477.3594,227.0469 Q477.625,227.2969 477.625,227.6406 Q477.625,227.9844 477.2813,228.3906 Q476.7813,228.9688 475.9844,229.2969 Q474.9063,229.75 473.6094,229.75 Q472.0938,229.75 470.8906,229.125 Q469.9063,228.625 469.2188,227.5625 Q468.5313,226.4844 468.5313,225.2031 L468.5313,224.0469 Q468.5313,222.7188 469.1406,221.5781 Q469.7656,220.4219 470.8594,219.8125 Q471.9531,219.1875 473.1875,219.1875 Q473.9219,219.1875 474.5625,219.3594 Q475.2188,219.5156 475.7656,219.875 Z " fill="#000000"/><text fill="#000000" font-family="sans-serif" font-size="14" lengthAdjust="spacing" textLength="145" x="487" y="229.7969">greenSpaceRepository</text><line style="stroke:#181818;stroke-width:0.5;" x1="459" x2="634" y1="240" y2="240"/><line style="stroke:#181818;stroke-width:0.5;" x1="459" x2="634" y1="248" y2="248"/></g><!--link Repositories to Repositories--><g id="link_Repositories_Repositories"><path codeLine="38" d="M891.55,49.94 C911.9,51.87 926.5,57.89 926.5,68 C926.5,78.11 917.8732,83.5635 897.5232,85.4935 " fill="none" id="Repositories-to-Repositories" style="stroke:#181818;stroke-width:1.0;"/><polygon fill="#181818" points="891.55,86.06,900.8875,89.1924,896.5277,85.5879,900.1321,81.2281,891.55,86.06" style="stroke:#181818;stroke-width:1.0;"/><text fill="#000000" font-family="sans-serif" font-size="13" lengthAdjust="spacing" textLength="49" x="932.5" y="73.5283">instance</text></g><!--link RegisterGreenSpaceUI to RegisterGreenSpaceController--><g id="link_RegisterGreenSpaceUI_RegisterGreenSpaceController"><path codeLine="40" d="M184.18,68 C192.84,68 198.5,68 198.5,68 C198.5,68 201.11,68 213.34,68 " fill="none" id="RegisterGreenSpaceUI-to-RegisterGreenSpaceController" style="stroke:#181818;stroke-width:1.0;stroke-dasharray:7.0,7.0;"/><polygon fill="#181818" points="219.34,68,210.34,64,214.34,68,210.34,72,219.34,68" style="stroke:#181818;stroke-width:1.0;"/></g><!--link RegisterGreenSpaceController to greenSpaceRepository--><g id="link_RegisterGreenSpaceController_greenSpaceRepository"><path codeLine="41" d="M441.07,110.72 C468.19,141.66 500.1962,178.167 522.3262,203.427 " fill="none" id="RegisterGreenSpaceController-to-greenSpaceRepository" style="stroke:#181818;stroke-width:1.0;stroke-dasharray:7.0,7.0;"/><polygon fill="#181818" points="526.28,207.94,523.358,198.5346,522.9852,204.1791,517.3406,203.8063,526.28,207.94" style="stroke:#181818;stroke-width:1.0;"/><text fill="#000000" font-family="sans-serif" font-size="13" lengthAdjust="spacing" textLength="131" x="497.5" y="174.0283">greenSpaceRepository</text><text fill="#000000" font-family="sans-serif" font-size="13" lengthAdjust="spacing" textLength="7" x="513.2018" y="196.6621">1</text></g><!--link Repositories to greenSpaceRepository--><g id="link_Repositories_greenSpaceRepository"><path codeLine="43" d="M719.54,120.31 C679.34,148.58 637.5,178 637.5,178 C637.5,178 615.8548,190.6105 591.3348,204.8905 " fill="none" id="Repositories-to-greenSpaceRepository" style="stroke:#181818;stroke-width:1.0;"/><polygon fill="#181818" points="586.15,207.91,595.9403,206.8372,590.4707,205.3937,591.9142,199.9241,586.15,207.91" style="stroke:#181818;stroke-width:1.0;"/><text fill="#000000" font-family="sans-serif" font-size="13" lengthAdjust="spacing" textLength="7" x="588.4134" y="196.6244">1</text></g><!--link RegisterGreenSpaceController to Repositories--><g id="link_RegisterGreenSpaceController_Repositories"><path codeLine="45" d="M589.69,68 C625.48,68 655.66,68 687.36,68 " fill="none" id="RegisterGreenSpaceController-to-Repositories" style="stroke:#181818;stroke-width:1.0;stroke-dasharray:7.0,7.0;"/><polygon fill="#181818" points="693.36,68,684.36,64,688.36,68,684.36,72,693.36,68" style="stroke:#181818;stroke-width:1.0;"/><text fill="#000000" font-family="sans-serif" font-size="13" lengthAdjust="spacing" textLength="67" x="608" y="61.0283">repositories</text></g><!--reverse link greenSpaceRepository to GreenSpace--><g id="link_greenSpaceRepository_GreenSpace"><path codeLine="47" d="M532.5098,267.3021 C517.5398,304.0221 492.55,365.32 472.42,414.69 " fill="none" id="greenSpaceRepository-backto-GreenSpace" style="stroke:#181818;stroke-width:1.0;"/><polygon fill="none" points="537.04,256.19,531.0709,260.236,532.5098,267.3021,538.4789,263.2561,537.04,256.19" style="stroke:#181818;stroke-width:1.0;"/><text fill="#000000" font-family="sans-serif" font-size="13" lengthAdjust="spacing" textLength="21" x="505.5" y="350.0283">has</text><text fill="#000000" font-family="sans-serif" font-size="13" lengthAdjust="spacing" textLength="7" x="526.881" y="278.222">1</text><text fill="#000000" font-family="sans-serif" font-size="13" lengthAdjust="spacing" textLength="20" x="453.8874" y="403.5757">1..*</text></g><!--link RegisterGreenSpaceController to GreenSpace--><g id="link_RegisterGreenSpaceController_GreenSpace"><path codeLine="49" d="M409.44,110.74 C418.11,184 435.3447,329.5216 444.7447,408.9316 " fill="none" id="RegisterGreenSpaceController-to-GreenSpace" style="stroke:#181818;stroke-width:1.0;stroke-dasharray:7.0,7.0;"/><polygon fill="#181818" points="445.45,414.89,448.3643,405.4822,444.8622,409.9247,440.4198,406.4226,445.45,414.89" style="stroke:#181818;stroke-width:1.0;"/><text fill="#000000" font-family="sans-serif" font-size="13" lengthAdjust="spacing" textLength="69" x="433.5" y="301.0283">greenSpace</text></g><!--SRC=[bLB1JiCm3BtdAwnTrh5rWkiEan18Q18dAZuWQxqkMXfNYGSg4_zECZRQZj29dbBxsU_PVcEtKwQMLbPGaQ5yQwb2OBj7qMPgcUzaYHat6i5YpjAKkWjmMrdGkp8bRAHstOnM1hcf4MhIJVWHuqYIB9FeLELQEdVFRDLwpxZAoMJg0-5MYB763GCJM5Lk6GeLv2WoGXnhu0LhSeh9AdHm4E2_j1TC9iVW54habN5-b1oJ2Inwe1RoP15DvXU0F_d6j_Xi-Khb66sBUo33bhH6U-AV3eAICi9mrcX_5IP6LZY3iBKPI8koeoMczV2VJjzGMHGTL2lld7-JMXMISH3KMzspfnvUsklABoiooFc2cRU2TrUGt8y4-QV88-tNtfzXbD2gvuHqsNV60jJfzW4OKJDV3bvD3DxT5u_kHX2xh6UEXI_bfdzt45UvBoQrNMEBgAZ0HMcQ-iTyVZDg6_lohNJNANiLBONu0W00]--></g></svg>