<?xml version="1.0" encoding="us-ascii" standalone="no"?><svg xmlns="http://www.w3.org/2000/svg" xmlns:xlink="http://www.w3.org/1999/xlink" contentStyleType="text/css" height="485px" preserveAspectRatio="none" style="width:379px;height:485px;background:#FFFFFF;" version="1.1" viewBox="0 0 379 485" width="379px" zoomAndPan="magnify"><defs/><g><text fill="#000000" font-family="sans-serif" font-size="14" font-weight="bold" lengthAdjust="spacing" textLength="351" x="10.75" y="30.1074">System Sequence Diagram (SSD) - Alternative One</text><rect fill="#FFFFFF" height="223.3281" style="stroke:#181818;stroke-width:1.0;" width="10" x="50.5" y="151.8633"/><rect fill="#FFFFFF" height="65.873" style="stroke:#181818;stroke-width:1.0;" width="10" x="331.5" y="175.1543"/><rect fill="#FFFFFF" height="31.291" style="stroke:#181818;stroke-width:1.0;" width="10" x="331.5" y="272.3184"/><rect fill="#FFFFFF" height="31.291" style="stroke:#181818;stroke-width:1.0;" width="10" x="331.5" y="334.9004"/><line style="stroke:#181818;stroke-width:0.5;stroke-dasharray:5.0,5.0;" x1="55" x2="55" y1="141.8633" y2="384.1914"/><line style="stroke:#181818;stroke-width:0.5;stroke-dasharray:5.0,5.0;" x1="336.5" x2="336.5" y1="141.8633" y2="384.1914"/><text fill="#000000" font-family="sans-serif" font-size="14" lengthAdjust="spacing" textLength="91" x="5" y="119.7285">Green Spaces</text><text fill="#000000" font-family="sans-serif" font-size="14" lengthAdjust="spacing" textLength="56" x="24.5" y="138.3496">Manager</text><ellipse cx="55.5" cy="53.1211" fill="#E3E3E3" rx="8" ry="8" style="stroke:#181818;stroke-width:0.5;"/><path d="M55.5,61.1211 L55.5,88.1211 M42.5,69.1211 L68.5,69.1211 M55.5,88.1211 L42.5,103.1211 M55.5,88.1211 L68.5,103.1211 " fill="none" style="stroke:#181818;stroke-width:0.5;"/><text fill="#000000" font-family="sans-serif" font-size="14" lengthAdjust="spacing" textLength="91" x="5" y="398.2988">Green Spaces</text><text fill="#000000" font-family="sans-serif" font-size="14" lengthAdjust="spacing" textLength="56" x="24.5" y="416.9199">Manager</text><ellipse cx="55.5" cy="428.9336" fill="#E3E3E3" rx="8" ry="8" style="stroke:#181818;stroke-width:0.5;"/><path d="M55.5,436.9336 L55.5,463.9336 M42.5,444.9336 L68.5,444.9336 M55.5,463.9336 L42.5,478.9336 M55.5,463.9336 L68.5,478.9336 " fill="none" style="stroke:#181818;stroke-width:0.5;"/><rect fill="#E3E3E3" height="32.6211" rx="2.5" ry="2.5" style="stroke:#181818;stroke-width:0.5;" width="64" x="304.5" y="108.2422"/><text fill="#000000" font-family="sans-serif" font-size="14" lengthAdjust="spacing" textLength="50" x="311.5" y="130.3496">:System</text><rect fill="#E3E3E3" height="32.6211" rx="2.5" ry="2.5" style="stroke:#181818;stroke-width:0.5;" width="64" x="304.5" y="383.1914"/><text fill="#000000" font-family="sans-serif" font-size="14" lengthAdjust="spacing" textLength="50" x="311.5" y="405.2988">:System</text><rect fill="#FFFFFF" height="223.3281" style="stroke:#181818;stroke-width:1.0;" width="10" x="50.5" y="151.8633"/><rect fill="#FFFFFF" height="65.873" style="stroke:#181818;stroke-width:1.0;" width="10" x="331.5" y="175.1543"/><rect fill="#FFFFFF" height="31.291" style="stroke:#181818;stroke-width:1.0;" width="10" x="331.5" y="272.3184"/><rect fill="#FFFFFF" height="31.291" style="stroke:#181818;stroke-width:1.0;" width="10" x="331.5" y="334.9004"/><polygon fill="#181818" points="319.5,171.1543,329.5,175.1543,319.5,179.1543,323.5,175.1543" style="stroke:#181818;stroke-width:1.0;"/><line style="stroke:#181818;stroke-width:1.0;" x1="60.5" x2="325.5" y1="175.1543" y2="175.1543"/><text fill="#000000" font-family="sans-serif" font-size="13" font-weight="bold" lengthAdjust="spacing" textLength="7" x="67.5" y="169.8916">1</text><text fill="#000000" font-family="sans-serif" font-size="13" lengthAdjust="spacing" textLength="222" x="78.5" y="169.8916">asks to add a new entry to the agenda</text><polygon fill="#181818" points="71.5,237.0273,61.5,241.0273,71.5,245.0273,67.5,241.0273" style="stroke:#181818;stroke-width:1.0;"/><line style="stroke:#181818;stroke-width:1.0;stroke-dasharray:2.0,2.0;" x1="65.5" x2="335.5" y1="241.0273" y2="241.0273"/><text fill="#000000" font-family="sans-serif" font-size="13" font-weight="bold" lengthAdjust="spacing" textLength="7" x="77.5" y="218.4736">2</text><text fill="#000000" font-family="sans-serif" font-size="13" lengthAdjust="spacing" textLength="209" x="88.5" y="201.1826">shows all the tasks registered in the</text><text fill="#000000" font-family="sans-serif" font-size="13" lengthAdjust="spacing" textLength="217" x="88.5" y="218.4736">To-Do List and asks you to select the</text><text fill="#000000" font-family="sans-serif" font-size="13" lengthAdjust="spacing" textLength="117" x="88.5" y="235.7646">one you want to add</text><polygon fill="#181818" points="319.5,268.3184,329.5,272.3184,319.5,276.3184,323.5,272.3184" style="stroke:#181818;stroke-width:1.0;"/><line style="stroke:#181818;stroke-width:1.0;" x1="60.5" x2="325.5" y1="272.3184" y2="272.3184"/><text fill="#000000" font-family="sans-serif" font-size="13" font-weight="bold" lengthAdjust="spacing" textLength="7" x="67.5" y="267.0557">3</text><text fill="#000000" font-family="sans-serif" font-size="13" lengthAdjust="spacing" textLength="132" x="78.5" y="267.0557">select the desired task</text><polygon fill="#181818" points="71.5,299.6094,61.5,303.6094,71.5,307.6094,67.5,303.6094" style="stroke:#181818;stroke-width:1.0;"/><line style="stroke:#181818;stroke-width:1.0;stroke-dasharray:2.0,2.0;" x1="65.5" x2="335.5" y1="303.6094" y2="303.6094"/><text fill="#000000" font-family="sans-serif" font-size="13" font-weight="bold" lengthAdjust="spacing" textLength="7" x="77.5" y="298.3467">4</text><text fill="#000000" font-family="sans-serif" font-size="13" lengthAdjust="spacing" textLength="236" x="88.5" y="298.3467">shows all data and requests confirmation</text><polygon fill="#181818" points="319.5,330.9004,329.5,334.9004,319.5,338.9004,323.5,334.9004" style="stroke:#181818;stroke-width:1.0;"/><line style="stroke:#181818;stroke-width:1.0;" x1="60.5" x2="325.5" y1="334.9004" y2="334.9004"/><text fill="#000000" font-family="sans-serif" font-size="13" font-weight="bold" lengthAdjust="spacing" textLength="7" x="67.5" y="329.6377">5</text><text fill="#000000" font-family="sans-serif" font-size="13" lengthAdjust="spacing" textLength="78" x="78.5" y="329.6377">confirms data</text><polygon fill="#181818" points="71.5,362.1914,61.5,366.1914,71.5,370.1914,67.5,366.1914" style="stroke:#181818;stroke-width:1.0;"/><line style="stroke:#181818;stroke-width:1.0;stroke-dasharray:2.0,2.0;" x1="65.5" x2="335.5" y1="366.1914" y2="366.1914"/><text fill="#000000" font-family="sans-serif" font-size="13" font-weight="bold" lengthAdjust="spacing" textLength="7" x="77.5" y="360.9287">6</text><text fill="#000000" font-family="sans-serif" font-size="13" lengthAdjust="spacing" textLength="158" x="88.5" y="360.9287">displays operation success</text><!--SRC=[dP8nRiCm34LtduB8r0wvG8O21G9aQT317REm4kC8iIbNf6FuzgLa9mYATaWr4TJN_u-Iv1ounuGTT96ZEwNO4MWQg9BRJe_kZ0tLEhK4YPmYD-szG4xeunYuWIEsGbMbGKrQJwBKGKrV0x4Zs0PiilofhhVFi8RNLYanQhWGlBCTmq4Z3zqd9QkTnWIhNI9Yg0s110wyHpQIj08KsDNxol8rkD0ZAwmsSs3PdCjY4oweLDGLsB82rYzNk8s9pm8Q0Rq71AOHY3LDkQKd0ejZZ-NapUjg3ijQlDPcczqtTY5n5C2sBHPQ8X8rmMI9F0Gk_GD_nFKsmflr0TdFA5CSShPGQpUzw29JwOzvpfcrX7lwbUddY7TUdYHaXCpqxw4yAXRWb9zMLC15FeRKsLj6VeHiEIV5ya4U7wHlSHA8FQMI338u-oVo1y4t]--></g></svg>