<?xml version="1.0" encoding="us-ascii" standalone="no"?><svg xmlns="http://www.w3.org/2000/svg" xmlns:xlink="http://www.w3.org/1999/xlink" contentStyleType="text/css" height="583px" preserveAspectRatio="none" style="width:379px;height:583px;background:#FFFFFF;" version="1.1" viewBox="0 0 379 583" width="379px" zoomAndPan="magnify"><defs/><g><text fill="#000000" font-family="sans-serif" font-size="14" font-weight="bold" lengthAdjust="spacing" textLength="351" x="10.75" y="30.1074">System Sequence Diagram (SSD) - Alternative One</text><rect fill="#FFFFFF" height="320.4922" style="stroke:#181818;stroke-width:1.0;" width="10" x="50.5" y="151.8633"/><rect fill="#FFFFFF" height="48.582" style="stroke:#181818;stroke-width:1.0;" width="10" x="331.5" y="175.1543"/><rect fill="#FFFFFF" height="65.873" style="stroke:#181818;stroke-width:1.0;" width="10" x="331.5" y="255.0273"/><rect fill="#FFFFFF" height="31.291" style="stroke:#181818;stroke-width:1.0;" width="10" x="331.5" y="369.4824"/><rect fill="#FFFFFF" height="31.291" style="stroke:#181818;stroke-width:1.0;" width="10" x="331.5" y="432.0645"/><line style="stroke:#181818;stroke-width:0.5;stroke-dasharray:5.0,5.0;" x1="55" x2="55" y1="141.8633" y2="481.3555"/><line style="stroke:#181818;stroke-width:0.5;stroke-dasharray:5.0,5.0;" x1="336.5" x2="336.5" y1="141.8633" y2="481.3555"/><text fill="#000000" font-family="sans-serif" font-size="14" lengthAdjust="spacing" textLength="91" x="5" y="119.7285">Green Spaces</text><text fill="#000000" font-family="sans-serif" font-size="14" lengthAdjust="spacing" textLength="56" x="24.5" y="138.3496">Manager</text><ellipse cx="55.5" cy="53.1211" fill="#E3E3E3" rx="8" ry="8" style="stroke:#181818;stroke-width:0.5;"/><path d="M55.5,61.1211 L55.5,88.1211 M42.5,69.1211 L68.5,69.1211 M55.5,88.1211 L42.5,103.1211 M55.5,88.1211 L68.5,103.1211 " fill="none" style="stroke:#181818;stroke-width:0.5;"/><text fill="#000000" font-family="sans-serif" font-size="14" lengthAdjust="spacing" textLength="91" x="5" y="495.4629">Green Spaces</text><text fill="#000000" font-family="sans-serif" font-size="14" lengthAdjust="spacing" textLength="56" x="24.5" y="514.084">Manager</text><ellipse cx="55.5" cy="526.0977" fill="#E3E3E3" rx="8" ry="8" style="stroke:#181818;stroke-width:0.5;"/><path d="M55.5,534.0977 L55.5,561.0977 M42.5,542.0977 L68.5,542.0977 M55.5,561.0977 L42.5,576.0977 M55.5,561.0977 L68.5,576.0977 " fill="none" style="stroke:#181818;stroke-width:0.5;"/><rect fill="#E3E3E3" height="32.6211" rx="2.5" ry="2.5" style="stroke:#181818;stroke-width:0.5;" width="64" x="304.5" y="108.2422"/><text fill="#000000" font-family="sans-serif" font-size="14" lengthAdjust="spacing" textLength="50" x="311.5" y="130.3496">:System</text><rect fill="#E3E3E3" height="32.6211" rx="2.5" ry="2.5" style="stroke:#181818;stroke-width:0.5;" width="64" x="304.5" y="480.3555"/><text fill="#000000" font-family="sans-serif" font-size="14" lengthAdjust="spacing" textLength="50" x="311.5" y="502.4629">:System</text><rect fill="#FFFFFF" height="320.4922" style="stroke:#181818;stroke-width:1.0;" width="10" x="50.5" y="151.8633"/><rect fill="#FFFFFF" height="48.582" style="stroke:#181818;stroke-width:1.0;" width="10" x="331.5" y="175.1543"/><rect fill="#FFFFFF" height="65.873" style="stroke:#181818;stroke-width:1.0;" width="10" x="331.5" y="255.0273"/><rect fill="#FFFFFF" height="31.291" style="stroke:#181818;stroke-width:1.0;" width="10" x="331.5" y="369.4824"/><rect fill="#FFFFFF" height="31.291" style="stroke:#181818;stroke-width:1.0;" width="10" x="331.5" y="432.0645"/><polygon fill="#181818" points="319.5,171.1543,329.5,175.1543,319.5,179.1543,323.5,175.1543" style="stroke:#181818;stroke-width:1.0;"/><line style="stroke:#181818;stroke-width:1.0;" x1="60.5" x2="325.5" y1="175.1543" y2="175.1543"/><text fill="#000000" font-family="sans-serif" font-size="13" font-weight="bold" lengthAdjust="spacing" textLength="7" x="67.5" y="169.8916">1</text><text fill="#000000" font-family="sans-serif" font-size="13" lengthAdjust="spacing" textLength="222" x="78.5" y="169.8916">asks to add a new entry to the agenda</text><polygon fill="#181818" points="71.5,219.7363,61.5,223.7363,71.5,227.7363,67.5,223.7363" style="stroke:#181818;stroke-width:1.0;"/><line style="stroke:#181818;stroke-width:1.0;stroke-dasharray:2.0,2.0;" x1="65.5" x2="335.5" y1="223.7363" y2="223.7363"/><text fill="#000000" font-family="sans-serif" font-size="13" font-weight="bold" lengthAdjust="spacing" textLength="7" x="77.5" y="209.8281">2</text><text fill="#000000" font-family="sans-serif" font-size="13" lengthAdjust="spacing" textLength="186" x="88.5" y="201.1826">asks to choose the green space</text><text fill="#000000" font-family="sans-serif" font-size="13" lengthAdjust="spacing" textLength="177" x="88.5" y="218.4736">for which want to add the entry</text><polygon fill="#181818" points="319.5,251.0273,329.5,255.0273,319.5,259.0273,323.5,255.0273" style="stroke:#181818;stroke-width:1.0;"/><line style="stroke:#181818;stroke-width:1.0;" x1="60.5" x2="325.5" y1="255.0273" y2="255.0273"/><text fill="#000000" font-family="sans-serif" font-size="13" font-weight="bold" lengthAdjust="spacing" textLength="7" x="67.5" y="249.7646">3</text><text fill="#000000" font-family="sans-serif" font-size="13" lengthAdjust="spacing" textLength="178" x="78.5" y="249.7646">select the desired green space</text><polygon fill="#181818" points="71.5,316.9004,61.5,320.9004,71.5,324.9004,67.5,320.9004" style="stroke:#181818;stroke-width:1.0;"/><line style="stroke:#181818;stroke-width:1.0;stroke-dasharray:2.0,2.0;" x1="65.5" x2="335.5" y1="320.9004" y2="320.9004"/><text fill="#000000" font-family="sans-serif" font-size="13" font-weight="bold" lengthAdjust="spacing" textLength="7" x="77.5" y="298.3467">4</text><text fill="#000000" font-family="sans-serif" font-size="13" lengthAdjust="spacing" textLength="209" x="88.5" y="281.0557">shows all the tasks registered in the</text><text fill="#000000" font-family="sans-serif" font-size="13" lengthAdjust="spacing" textLength="207" x="88.5" y="298.3467">to-do list of the chosen green space</text><text fill="#000000" font-family="sans-serif" font-size="13" lengthAdjust="spacing" textLength="225" x="88.5" y="315.6377">and asks to select the one want to add</text><polygon fill="#181818" points="319.5,365.4824,329.5,369.4824,319.5,373.4824,323.5,369.4824" style="stroke:#181818;stroke-width:1.0;"/><line style="stroke:#181818;stroke-width:1.0;" x1="60.5" x2="325.5" y1="369.4824" y2="369.4824"/><text fill="#000000" font-family="sans-serif" font-size="13" font-weight="bold" lengthAdjust="spacing" textLength="7" x="67.5" y="355.5742">5</text><text fill="#000000" font-family="sans-serif" font-size="13" lengthAdjust="spacing" textLength="230" x="78.5" y="346.9287">select the desired task and its start and</text><text fill="#000000" font-family="sans-serif" font-size="13" lengthAdjust="spacing" textLength="50" x="82.5" y="364.2197">end date</text><polygon fill="#181818" points="71.5,396.7734,61.5,400.7734,71.5,404.7734,67.5,400.7734" style="stroke:#181818;stroke-width:1.0;"/><line style="stroke:#181818;stroke-width:1.0;stroke-dasharray:2.0,2.0;" x1="65.5" x2="335.5" y1="400.7734" y2="400.7734"/><text fill="#000000" font-family="sans-serif" font-size="13" font-weight="bold" lengthAdjust="spacing" textLength="7" x="77.5" y="395.5107">6</text><text fill="#000000" font-family="sans-serif" font-size="13" lengthAdjust="spacing" textLength="236" x="88.5" y="395.5107">shows all data and requests confirmation</text><polygon fill="#181818" points="319.5,428.0645,329.5,432.0645,319.5,436.0645,323.5,432.0645" style="stroke:#181818;stroke-width:1.0;"/><line style="stroke:#181818;stroke-width:1.0;" x1="60.5" x2="325.5" y1="432.0645" y2="432.0645"/><text fill="#000000" font-family="sans-serif" font-size="13" font-weight="bold" lengthAdjust="spacing" textLength="7" x="67.5" y="426.8018">7</text><text fill="#000000" font-family="sans-serif" font-size="13" lengthAdjust="spacing" textLength="78" x="78.5" y="426.8018">confirms data</text><polygon fill="#181818" points="71.5,459.3555,61.5,463.3555,71.5,467.3555,67.5,463.3555" style="stroke:#181818;stroke-width:1.0;"/><line style="stroke:#181818;stroke-width:1.0;stroke-dasharray:2.0,2.0;" x1="65.5" x2="335.5" y1="463.3555" y2="463.3555"/><text fill="#000000" font-family="sans-serif" font-size="13" font-weight="bold" lengthAdjust="spacing" textLength="7" x="77.5" y="458.0928">8</text><text fill="#000000" font-family="sans-serif" font-size="13" lengthAdjust="spacing" textLength="158" x="88.5" y="458.0928">displays operation success</text><!--SRC=[fPEnRkCm38PtFmMHgJVa1JeSK210fwA3rooinDX2PD8LwHfv-wFK99Sxj4FkFCaK-Vt_ByjwJ3nZmGacOGbZaOd0oaATNdTc34SSgBTJ9YWK37d8jmqwOfGryG07p4fTPycyjJ-fqGGzlI_4WM2NSAZj3ts_-m5RUCf6XT7I1y4h-nWk9hnCRrHy7KmAR9uB4KFl5aXXpo_8xgHi01MU-vVEzIs5D2CRR1u_1Tlcvx9XqWSQjUuE_F45R7zUp3rwyr711316G61QWTZAgPPi970vZjWchwmB7CxFcRLrRAN_PePHHAbnXXP4Qn3FSV1iwvZ226krVfQlVKsyaIDzAVYtVwNidwJDHj9KADvgtMbSHraLCEV6ivQZq92yhO8Jj_gUJRPH87iTvD1g7bLTzC-OoF5w5ZS-XUaszt-chIwXAYLJKFCRKT_sx4SP8Jhmdy_0Xx6HIxt2wlWWV4XbyZihV8_jyvmsv9r-Oj8vuqb1PYfD6NG9_Z_eDmv-0G00]--></g></svg>