<?xml version="1.0" encoding="us-ascii" standalone="no"?><svg xmlns="http://www.w3.org/2000/svg" xmlns:xlink="http://www.w3.org/1999/xlink" contentStyleType="text/css" height="525px" preserveAspectRatio="none" style="width:379px;height:525px;background:#FFFFFF;" version="1.1" viewBox="0 0 379 525" width="379px" zoomAndPan="magnify"><defs/><g><text fill="#000000" font-family="sans-serif" font-size="14" font-weight="bold" lengthAdjust="spacing" textLength="351" x="10" y="30.1074">System Sequence Diagram (SSD) - Alternative One</text><rect fill="#FFFFFF" height="188.7461" style="stroke:#181818;stroke-width:1.0;" width="10" x="43" y="189.1055"/><rect fill="#FFFFFF" height="31.291" style="stroke:#181818;stroke-width:1.0;" width="10" x="324" y="212.3965"/><rect fill="#FFFFFF" height="31.291" style="stroke:#181818;stroke-width:1.0;" width="10" x="324" y="274.9785"/><rect fill="#FFFFFF" height="31.291" style="stroke:#181818;stroke-width:1.0;" width="10" x="324" y="337.5605"/><line style="stroke:#181818;stroke-width:0.5;stroke-dasharray:5.0,5.0;" x1="48" x2="48" y1="179.1055" y2="386.8516"/><line style="stroke:#181818;stroke-width:0.5;stroke-dasharray:5.0,5.0;" x1="329" x2="329" y1="179.1055" y2="386.8516"/><text fill="#000000" font-family="sans-serif" font-size="14" lengthAdjust="spacing" textLength="44" x="23" y="119.7285">Human</text><text fill="#000000" font-family="sans-serif" font-size="14" lengthAdjust="spacing" textLength="68" x="11" y="138.3496">Resources</text><text fill="#000000" font-family="sans-serif" font-size="14" lengthAdjust="spacing" textLength="56" x="17" y="156.9707">Manager</text><text fill="#000000" font-family="sans-serif" font-size="14" lengthAdjust="spacing" textLength="40" x="25" y="175.5918">(HRM)</text><ellipse cx="48" cy="53.1211" fill="#E3E3E3" rx="8" ry="8" style="stroke:#181818;stroke-width:0.5;"/><path d="M48,61.1211 L48,88.1211 M35,69.1211 L61,69.1211 M48,88.1211 L35,103.1211 M48,88.1211 L61,103.1211 " fill="none" style="stroke:#181818;stroke-width:0.5;"/><text fill="#000000" font-family="sans-serif" font-size="14" lengthAdjust="spacing" textLength="44" x="23" y="400.959">Human</text><text fill="#000000" font-family="sans-serif" font-size="14" lengthAdjust="spacing" textLength="68" x="11" y="419.5801">Resources</text><text fill="#000000" font-family="sans-serif" font-size="14" lengthAdjust="spacing" textLength="56" x="17" y="438.2012">Manager</text><text fill="#000000" font-family="sans-serif" font-size="14" lengthAdjust="spacing" textLength="40" x="25" y="456.8223">(HRM)</text><ellipse cx="48" cy="468.8359" fill="#E3E3E3" rx="8" ry="8" style="stroke:#181818;stroke-width:0.5;"/><path d="M48,476.8359 L48,503.8359 M35,484.8359 L61,484.8359 M48,503.8359 L35,518.8359 M48,503.8359 L61,518.8359 " fill="none" style="stroke:#181818;stroke-width:0.5;"/><rect fill="#E3E3E3" height="32.6211" rx="2.5" ry="2.5" style="stroke:#181818;stroke-width:0.5;" width="64" x="297" y="145.4844"/><text fill="#000000" font-family="sans-serif" font-size="14" lengthAdjust="spacing" textLength="50" x="304" y="167.5918">:System</text><rect fill="#E3E3E3" height="32.6211" rx="2.5" ry="2.5" style="stroke:#181818;stroke-width:0.5;" width="64" x="297" y="385.8516"/><text fill="#000000" font-family="sans-serif" font-size="14" lengthAdjust="spacing" textLength="50" x="304" y="407.959">:System</text><rect fill="#FFFFFF" height="188.7461" style="stroke:#181818;stroke-width:1.0;" width="10" x="43" y="189.1055"/><rect fill="#FFFFFF" height="31.291" style="stroke:#181818;stroke-width:1.0;" width="10" x="324" y="212.3965"/><rect fill="#FFFFFF" height="31.291" style="stroke:#181818;stroke-width:1.0;" width="10" x="324" y="274.9785"/><rect fill="#FFFFFF" height="31.291" style="stroke:#181818;stroke-width:1.0;" width="10" x="324" y="337.5605"/><polygon fill="#181818" points="312,208.3965,322,212.3965,312,216.3965,316,212.3965" style="stroke:#181818;stroke-width:1.0;"/><line style="stroke:#181818;stroke-width:1.0;" x1="53" x2="318" y1="212.3965" y2="212.3965"/><text fill="#000000" font-family="sans-serif" font-size="13" font-weight="bold" lengthAdjust="spacing" textLength="7" x="60" y="207.1338">1</text><text fill="#000000" font-family="sans-serif" font-size="13" lengthAdjust="spacing" textLength="140" x="71" y="207.1338">Asks to add some skills</text><polygon fill="#181818" points="64,239.6875,54,243.6875,64,247.6875,60,243.6875" style="stroke:#181818;stroke-width:1.0;"/><line style="stroke:#181818;stroke-width:1.0;stroke-dasharray:2.0,2.0;" x1="58" x2="328" y1="243.6875" y2="243.6875"/><text fill="#000000" font-family="sans-serif" font-size="13" font-weight="bold" lengthAdjust="spacing" textLength="7" x="70" y="238.4248">2</text><text fill="#000000" font-family="sans-serif" font-size="13" lengthAdjust="spacing" textLength="187" x="81" y="238.4248">Asks the HRM to write the skills</text><polygon fill="#181818" points="312,270.9785,322,274.9785,312,278.9785,316,274.9785" style="stroke:#181818;stroke-width:1.0;"/><line style="stroke:#181818;stroke-width:1.0;" x1="53" x2="318" y1="274.9785" y2="274.9785"/><text fill="#000000" font-family="sans-serif" font-size="13" font-weight="bold" lengthAdjust="spacing" textLength="7" x="60" y="269.7158">3</text><text fill="#000000" font-family="sans-serif" font-size="13" lengthAdjust="spacing" textLength="229" x="71" y="269.7158">types requested data (name of the skill)</text><polygon fill="#181818" points="64,302.2695,54,306.2695,64,310.2695,60,306.2695" style="stroke:#181818;stroke-width:1.0;"/><line style="stroke:#181818;stroke-width:1.0;stroke-dasharray:2.0,2.0;" x1="58" x2="328" y1="306.2695" y2="306.2695"/><text fill="#000000" font-family="sans-serif" font-size="13" font-weight="bold" lengthAdjust="spacing" textLength="7" x="70" y="301.0068">4</text><text fill="#000000" font-family="sans-serif" font-size="13" lengthAdjust="spacing" textLength="236" x="81" y="301.0068">shows all data and requests confirmation</text><polygon fill="#181818" points="312,333.5605,322,337.5605,312,341.5605,316,337.5605" style="stroke:#181818;stroke-width:1.0;"/><line style="stroke:#181818;stroke-width:1.0;" x1="53" x2="318" y1="337.5605" y2="337.5605"/><text fill="#000000" font-family="sans-serif" font-size="13" font-weight="bold" lengthAdjust="spacing" textLength="7" x="60" y="332.2979">5</text><text fill="#000000" font-family="sans-serif" font-size="13" lengthAdjust="spacing" textLength="78" x="71" y="332.2979">confirms data</text><polygon fill="#181818" points="64,364.8516,54,368.8516,64,372.8516,60,368.8516" style="stroke:#181818;stroke-width:1.0;"/><line style="stroke:#181818;stroke-width:1.0;stroke-dasharray:2.0,2.0;" x1="58" x2="328" y1="368.8516" y2="368.8516"/><text fill="#000000" font-family="sans-serif" font-size="13" font-weight="bold" lengthAdjust="spacing" textLength="7" x="70" y="363.5889">6</text><text fill="#000000" font-family="sans-serif" font-size="13" lengthAdjust="spacing" textLength="158" x="81" y="363.5889">displays operation success</text><!--SRC=[dPAnZi8m38RtFeN510Clm70I4YUne9Feok9BJ1kHEhtO1VNjpoqK6BZXo9Ia_hzyTIAdm2rcRA19d5oTKqEWkQD2xbzQT2UigDG-4cHoYbp5vmAfqQTBu0gE68MAGeDQQTcBKWCb_NJ4Zc0Ji1hAvsMvMS0Irb4fCseu4tonnR3Jn5tpJTdcJbE6sRPha0-y9qbTTYG7tY6RJ3xmVBlVBMQ00fzD6rDFL9YE1XTQP8NPwdh-M76TZjHmHgL7f00RqmgM7vFr2jPo4j04w3t8q1RxuHXb3Dmv4nXkuvPU6kWEdL0rWIaFo4iEbXqsdfYUNb9VkcdVajXTM6TjnuD7HPWpccKwFi2BTsIbJXS1ZF5AHVRJGG8kyJ7ankuiyR-bRs4PkU-O-I1jn5uWjPH71v3EsQlugu6_]--></g></svg>