<?xml version="1.0" encoding="us-ascii" standalone="no"?><svg xmlns="http://www.w3.org/2000/svg" xmlns:xlink="http://www.w3.org/1999/xlink" contentStyleType="text/css" height="1266px" preserveAspectRatio="none" style="width:896px;height:1266px;background:#FFFFFF;" version="1.1" viewBox="0 0 896 1266" width="896px" zoomAndPan="magnify"><defs/><g><rect fill="#FFFFFF" height="1034.3789" style="stroke:#181818;stroke-width:1.0;" width="10" x="45" y="112.2422"/><rect fill="#FFFFFF" height="218.998" style="stroke:#181818;stroke-width:1.0;" width="10" x="360" y="135.5332"/><rect fill="#FFFFFF" height="175.377" style="stroke:#181818;stroke-width:1.0;" width="10" x="360" y="385.8223"/><rect fill="#FFFFFF" height="31.291" style="stroke:#181818;stroke-width:1.0;" width="10" x="360" y="592.4902"/><rect fill="#FFFFFF" height="302.1719" style="stroke:#181818;stroke-width:1.0;" width="10" x="360" y="655.0723"/><rect fill="#FFFFFF" height="158.0859" style="stroke:#181818;stroke-width:1.0;" width="10" x="360" y="988.5352"/><rect fill="#FFFFFF" height="95.5039" style="stroke:#181818;stroke-width:1.0;" width="10" x="706" y="210.4453"/><rect fill="#FFFFFF" height="95.5039" style="stroke:#181818;stroke-width:1.0;" width="10" x="706" y="417.1133"/><rect fill="#FFFFFF" height="95.5039" style="stroke:#181818;stroke-width:1.0;" width="10" x="706" y="686.3633"/><rect fill="#FFFFFF" height="95.5039" style="stroke:#181818;stroke-width:1.0;" width="10" x="706" y="813.1582"/><rect fill="#FFFFFF" height="135.7949" style="stroke:#181818;stroke-width:1.0;" width="10" x="706" y="1019.8262"/><line style="stroke:#181818;stroke-width:0.5;stroke-dasharray:5.0,5.0;" x1="50" x2="50" y1="102.2422" y2="1164.6211"/><line style="stroke:#181818;stroke-width:0.5;stroke-dasharray:5.0,5.0;" x1="365" x2="365" y1="102.2422" y2="1164.6211"/><line style="stroke:#181818;stroke-width:0.5;stroke-dasharray:5.0,5.0;" x1="711" x2="711" y1="175.3438" y2="1164.6211"/><text fill="#000000" font-family="sans-serif" font-size="14" lengthAdjust="spacing" textLength="84" x="5" y="80.1074">Green Space</text><text fill="#000000" font-family="sans-serif" font-size="14" lengthAdjust="spacing" textLength="56" x="21" y="98.7285">Manager</text><ellipse cx="50" cy="13.5" fill="#E3E3E3" rx="8" ry="8" style="stroke:#181818;stroke-width:0.5;"/><path d="M50,21.5 L50,48.5 M37,29.5 L63,29.5 M50,48.5 L37,63.5 M50,48.5 L63,63.5 " fill="none" style="stroke:#181818;stroke-width:0.5;"/><text fill="#000000" font-family="sans-serif" font-size="14" lengthAdjust="spacing" textLength="84" x="5" y="1178.7285">Green Space</text><text fill="#000000" font-family="sans-serif" font-size="14" lengthAdjust="spacing" textLength="56" x="21" y="1197.3496">Manager</text><ellipse cx="50" cy="1209.3633" fill="#E3E3E3" rx="8" ry="8" style="stroke:#181818;stroke-width:0.5;"/><path d="M50,1217.3633 L50,1244.3633 M37,1225.3633 L63,1225.3633 M50,1244.3633 L37,1259.3633 M50,1244.3633 L63,1259.3633 " fill="none" style="stroke:#181818;stroke-width:0.5;"/><rect fill="#E3E3E3" height="32.6211" rx="2.5" ry="2.5" style="stroke:#181818;stroke-width:0.5;" width="108" x="311" y="68.6211"/><text fill="#000000" font-family="sans-serif" font-size="14" lengthAdjust="spacing" textLength="94" x="318" y="90.7285">:AssignTeamUI</text><rect fill="#E3E3E3" height="32.6211" rx="2.5" ry="2.5" style="stroke:#181818;stroke-width:0.5;" width="108" x="311" y="1163.6211"/><text fill="#000000" font-family="sans-serif" font-size="14" lengthAdjust="spacing" textLength="94" x="318" y="1185.7285">:AssignTeamUI</text><rect fill="#E3E3E3" height="32.6211" rx="2.5" ry="2.5" style="stroke:#181818;stroke-width:0.5;" width="158" x="632" y="1163.6211"/><text fill="#000000" font-family="sans-serif" font-size="14" lengthAdjust="spacing" textLength="144" x="639" y="1185.7285">:AssignTeamController</text><rect fill="#FFFFFF" height="1034.3789" style="stroke:#181818;stroke-width:1.0;" width="10" x="45" y="112.2422"/><rect fill="#FFFFFF" height="218.998" style="stroke:#181818;stroke-width:1.0;" width="10" x="360" y="135.5332"/><rect fill="#FFFFFF" height="175.377" style="stroke:#181818;stroke-width:1.0;" width="10" x="360" y="385.8223"/><rect fill="#FFFFFF" height="31.291" style="stroke:#181818;stroke-width:1.0;" width="10" x="360" y="592.4902"/><rect fill="#FFFFFF" height="302.1719" style="stroke:#181818;stroke-width:1.0;" width="10" x="360" y="655.0723"/><rect fill="#FFFFFF" height="158.0859" style="stroke:#181818;stroke-width:1.0;" width="10" x="360" y="988.5352"/><rect fill="#FFFFFF" height="95.5039" style="stroke:#181818;stroke-width:1.0;" width="10" x="706" y="210.4453"/><rect fill="#FFFFFF" height="95.5039" style="stroke:#181818;stroke-width:1.0;" width="10" x="706" y="417.1133"/><rect fill="#FFFFFF" height="95.5039" style="stroke:#181818;stroke-width:1.0;" width="10" x="706" y="686.3633"/><rect fill="#FFFFFF" height="95.5039" style="stroke:#181818;stroke-width:1.0;" width="10" x="706" y="813.1582"/><rect fill="#FFFFFF" height="135.7949" style="stroke:#181818;stroke-width:1.0;" width="10" x="706" y="1019.8262"/><polygon fill="#181818" points="348,131.5332,358,135.5332,348,139.5332,352,135.5332" style="stroke:#181818;stroke-width:1.0;"/><line style="stroke:#181818;stroke-width:1.0;" x1="55" x2="354" y1="135.5332" y2="135.5332"/><text fill="#000000" font-family="sans-serif" font-size="13" font-weight="bold" lengthAdjust="spacing" textLength="7" x="62" y="130.2705">1</text><text fill="#000000" font-family="sans-serif" font-size="13" lengthAdjust="spacing" textLength="241" x="73" y="130.2705">asks to assign a team to an agenda entry</text><polygon fill="#181818" points="620,162.8242,630,166.8242,620,170.8242,624,166.8242" style="stroke:#181818;stroke-width:1.0;"/><line style="stroke:#181818;stroke-width:1.0;" x1="370" x2="626" y1="166.8242" y2="166.8242"/><text fill="#000000" font-family="sans-serif" font-size="13" font-weight="bold" lengthAdjust="spacing" textLength="7" x="377" y="161.5615">2</text><text fill="#000000" font-family="sans-serif" font-size="13" lengthAdjust="spacing" textLength="36" x="388" y="161.5615">create</text><rect fill="#E3E3E3" height="32.6211" rx="2.5" ry="2.5" style="stroke:#181818;stroke-width:0.5;" width="158" x="632" y="143.5332"/><text fill="#000000" font-family="sans-serif" font-size="14" lengthAdjust="spacing" textLength="144" x="639" y="165.6406">:AssignTeamController</text><polygon fill="#181818" points="694,206.4453,704,210.4453,694,214.4453,698,210.4453" style="stroke:#181818;stroke-width:1.0;"/><line style="stroke:#181818;stroke-width:1.0;" x1="370" x2="700" y1="210.4453" y2="210.4453"/><text fill="#000000" font-family="sans-serif" font-size="13" font-weight="bold" lengthAdjust="spacing" textLength="7" x="377" y="205.1826">3</text><text fill="#000000" font-family="sans-serif" font-size="13" lengthAdjust="spacing" textLength="111" x="388" y="205.1826">getAgendaEntries()</text><rect fill="none" height="59.2129" style="stroke:#000000;stroke-width:1.5;" width="166" x="629" y="218.4453"/><path d="M629,218.4453 L691,218.4453 L691,227.4453 L681,237.4453 L629,237.4453 L629,218.4453 " fill="#EEEEEE" style="stroke:#000000;stroke-width:2.0;"/><text fill="#000000" font-family="sans-serif" font-size="13" font-weight="bold" lengthAdjust="spacing" textLength="17" x="642" y="234.4736">ref</text><text fill="#000000" font-family="sans-serif" font-size="12" lengthAdjust="spacing" textLength="158" x="633" y="254.3945">Get Agenda entries with DTO</text><text fill="#000000" font-family="sans-serif" font-size="12" lengthAdjust="spacing" textLength="3" x="710.5" y="270.3555">&#160;</text><polygon fill="#181818" points="381,301.9492,371,305.9492,381,309.9492,377,305.9492" style="stroke:#181818;stroke-width:1.0;"/><line style="stroke:#181818;stroke-width:1.0;stroke-dasharray:2.0,2.0;" x1="375" x2="710" y1="305.9492" y2="305.9492"/><text fill="#000000" font-family="sans-serif" font-size="13" font-weight="bold" lengthAdjust="spacing" textLength="7" x="387" y="300.6865">4</text><text fill="#000000" font-family="sans-serif" font-size="13" lengthAdjust="spacing" textLength="103" x="398" y="300.6865">agendaEntriesDto</text><polygon fill="#181818" points="66,350.5313,56,354.5313,66,358.5313,62,354.5313" style="stroke:#181818;stroke-width:1.0;"/><line style="stroke:#181818;stroke-width:1.0;stroke-dasharray:2.0,2.0;" x1="60" x2="364" y1="354.5313" y2="354.5313"/><text fill="#000000" font-family="sans-serif" font-size="13" font-weight="bold" lengthAdjust="spacing" textLength="7" x="72" y="340.623">5</text><text fill="#000000" font-family="sans-serif" font-size="13" lengthAdjust="spacing" textLength="237" x="83" y="331.9775">shows all the agenda entries created and</text><text fill="#000000" font-family="sans-serif" font-size="13" lengthAdjust="spacing" textLength="132" x="83" y="349.2686">asks you to select one</text><polygon fill="#181818" points="348,381.8223,358,385.8223,348,389.8223,352,385.8223" style="stroke:#181818;stroke-width:1.0;"/><line style="stroke:#181818;stroke-width:1.0;" x1="55" x2="354" y1="385.8223" y2="385.8223"/><text fill="#000000" font-family="sans-serif" font-size="13" font-weight="bold" lengthAdjust="spacing" textLength="7" x="62" y="380.5596">6</text><text fill="#000000" font-family="sans-serif" font-size="13" lengthAdjust="spacing" textLength="139" x="73" y="380.5596">choose an agenda entry</text><polygon fill="#181818" points="694,413.1133,704,417.1133,694,421.1133,698,417.1133" style="stroke:#181818;stroke-width:1.0;"/><line style="stroke:#181818;stroke-width:1.0;" x1="370" x2="700" y1="417.1133" y2="417.1133"/><text fill="#000000" font-family="sans-serif" font-size="13" font-weight="bold" lengthAdjust="spacing" textLength="7" x="377" y="411.8506">7</text><text fill="#000000" font-family="sans-serif" font-size="13" lengthAdjust="spacing" textLength="187" x="388" y="411.8506">getValidTeams(agendaEntryDto)</text><rect fill="none" height="59.2129" style="stroke:#000000;stroke-width:1.5;" width="261" x="629" y="425.1133"/><path d="M629,425.1133 L691,425.1133 L691,434.1133 L681,444.1133 L629,444.1133 L629,425.1133 " fill="#EEEEEE" style="stroke:#000000;stroke-width:2.0;"/><text fill="#000000" font-family="sans-serif" font-size="13" font-weight="bold" lengthAdjust="spacing" textLength="17" x="642" y="441.1416">ref</text><text fill="#000000" font-family="sans-serif" font-size="12" lengthAdjust="spacing" textLength="253" x="633" y="461.0625">Get valid Teams for the Agenda entry with DTO</text><text fill="#000000" font-family="sans-serif" font-size="12" lengthAdjust="spacing" textLength="3" x="758" y="477.0234">&#160;</text><polygon fill="#181818" points="381,508.6172,371,512.6172,381,516.6172,377,512.6172" style="stroke:#181818;stroke-width:1.0;"/><line style="stroke:#181818;stroke-width:1.0;stroke-dasharray:2.0,2.0;" x1="375" x2="710" y1="512.6172" y2="512.6172"/><text fill="#000000" font-family="sans-serif" font-size="13" font-weight="bold" lengthAdjust="spacing" textLength="7" x="387" y="507.3545">8</text><text fill="#000000" font-family="sans-serif" font-size="13" lengthAdjust="spacing" textLength="56" x="398" y="507.3545">teamsDto</text><polygon fill="#181818" points="66,557.1992,56,561.1992,66,565.1992,62,561.1992" style="stroke:#181818;stroke-width:1.0;"/><line style="stroke:#181818;stroke-width:1.0;stroke-dasharray:2.0,2.0;" x1="60" x2="364" y1="561.1992" y2="561.1992"/><text fill="#000000" font-family="sans-serif" font-size="13" font-weight="bold" lengthAdjust="spacing" textLength="7" x="72" y="547.291">9</text><text fill="#000000" font-family="sans-serif" font-size="13" lengthAdjust="spacing" textLength="239" x="83" y="538.6455">shows all the teams available to carry out</text><text fill="#000000" font-family="sans-serif" font-size="13" lengthAdjust="spacing" textLength="212" x="83" y="555.9365">that task and asks you to select one</text><polygon fill="#181818" points="348,588.4902,358,592.4902,348,596.4902,352,592.4902" style="stroke:#181818;stroke-width:1.0;"/><line style="stroke:#181818;stroke-width:1.0;" x1="55" x2="354" y1="592.4902" y2="592.4902"/><text fill="#000000" font-family="sans-serif" font-size="13" font-weight="bold" lengthAdjust="spacing" textLength="14" x="62" y="587.2275">10</text><text fill="#000000" font-family="sans-serif" font-size="13" lengthAdjust="spacing" textLength="86" x="80" y="587.2275">choose a team</text><polygon fill="#181818" points="66,619.7813,56,623.7813,66,627.7813,62,623.7813" style="stroke:#181818;stroke-width:1.0;"/><line style="stroke:#181818;stroke-width:1.0;stroke-dasharray:2.0,2.0;" x1="60" x2="364" y1="623.7813" y2="623.7813"/><text fill="#000000" font-family="sans-serif" font-size="13" font-weight="bold" lengthAdjust="spacing" textLength="14" x="72" y="618.5186">11</text><text fill="#000000" font-family="sans-serif" font-size="13" lengthAdjust="spacing" textLength="236" x="90" y="618.5186">shows all data and requests confirmation</text><polygon fill="#181818" points="348,651.0723,358,655.0723,348,659.0723,352,655.0723" style="stroke:#181818;stroke-width:1.0;"/><line style="stroke:#181818;stroke-width:1.0;" x1="55" x2="354" y1="655.0723" y2="655.0723"/><text fill="#000000" font-family="sans-serif" font-size="13" font-weight="bold" lengthAdjust="spacing" textLength="14" x="62" y="649.8096">12</text><text fill="#000000" font-family="sans-serif" font-size="13" lengthAdjust="spacing" textLength="78" x="80" y="649.8096">confirms data</text><polygon fill="#181818" points="694,682.3633,704,686.3633,694,690.3633,698,686.3633" style="stroke:#181818;stroke-width:1.0;"/><line style="stroke:#181818;stroke-width:1.0;" x1="370" x2="700" y1="686.3633" y2="686.3633"/><text fill="#000000" font-family="sans-serif" font-size="13" font-weight="bold" lengthAdjust="spacing" textLength="14" x="377" y="681.1006">13</text><text fill="#000000" font-family="sans-serif" font-size="13" lengthAdjust="spacing" textLength="216" x="395" y="681.1006">assignTeamToAgendaEntry(teamDto)</text><rect fill="none" height="59.2129" style="stroke:#000000;stroke-width:1.5;" width="164" x="629" y="694.3633"/><path d="M629,694.3633 L691,694.3633 L691,703.3633 L681,713.3633 L629,713.3633 L629,694.3633 " fill="#EEEEEE" style="stroke:#000000;stroke-width:2.0;"/><text fill="#000000" font-family="sans-serif" font-size="13" font-weight="bold" lengthAdjust="spacing" textLength="17" x="642" y="710.3916">ref</text><text fill="#000000" font-family="sans-serif" font-size="12" lengthAdjust="spacing" textLength="73" x="674.5" y="730.3125">Assign Team</text><text fill="#000000" font-family="sans-serif" font-size="12" lengthAdjust="spacing" textLength="3" x="709.5" y="746.2734">&#160;</text><polygon fill="#181818" points="381,777.8672,371,781.8672,381,785.8672,377,781.8672" style="stroke:#181818;stroke-width:1.0;"/><line style="stroke:#181818;stroke-width:1.0;stroke-dasharray:2.0,2.0;" x1="375" x2="710" y1="781.8672" y2="781.8672"/><text fill="#000000" font-family="sans-serif" font-size="13" font-weight="bold" lengthAdjust="spacing" textLength="14" x="387" y="776.6045">14</text><text fill="#000000" font-family="sans-serif" font-size="13" lengthAdjust="spacing" textLength="106" x="405" y="776.6045">operation success</text><polygon fill="#181818" points="694,809.1582,704,813.1582,694,817.1582,698,813.1582" style="stroke:#181818;stroke-width:1.0;"/><line style="stroke:#181818;stroke-width:1.0;" x1="370" x2="700" y1="813.1582" y2="813.1582"/><text fill="#000000" font-family="sans-serif" font-size="13" font-weight="bold" lengthAdjust="spacing" textLength="14" x="377" y="807.8955">15</text><text fill="#000000" font-family="sans-serif" font-size="13" lengthAdjust="spacing" textLength="120" x="395" y="807.8955">showEmailServices()</text><rect fill="none" height="59.2129" style="stroke:#000000;stroke-width:1.5;" width="164" x="629" y="821.1582"/><path d="M629,821.1582 L691,821.1582 L691,830.1582 L681,840.1582 L629,840.1582 L629,821.1582 " fill="#EEEEEE" style="stroke:#000000;stroke-width:2.0;"/><text fill="#000000" font-family="sans-serif" font-size="13" font-weight="bold" lengthAdjust="spacing" textLength="17" x="642" y="837.1865">ref</text><text fill="#000000" font-family="sans-serif" font-size="12" lengthAdjust="spacing" textLength="104" x="659" y="857.1074">Get Email Services</text><text fill="#000000" font-family="sans-serif" font-size="12" lengthAdjust="spacing" textLength="3" x="709.5" y="873.0684">&#160;</text><polygon fill="#181818" points="381,904.6621,371,908.6621,381,912.6621,377,908.6621" style="stroke:#181818;stroke-width:1.0;"/><line style="stroke:#181818;stroke-width:1.0;stroke-dasharray:2.0,2.0;" x1="375" x2="710" y1="908.6621" y2="908.6621"/><text fill="#000000" font-family="sans-serif" font-size="13" font-weight="bold" lengthAdjust="spacing" textLength="14" x="387" y="903.3994">16</text><text fill="#000000" font-family="sans-serif" font-size="13" lengthAdjust="spacing" textLength="100" x="405" y="903.3994">emailServicesDto</text><polygon fill="#181818" points="66,953.2441,56,957.2441,66,961.2441,62,957.2441" style="stroke:#181818;stroke-width:1.0;"/><line style="stroke:#181818;stroke-width:1.0;stroke-dasharray:2.0,2.0;" x1="60" x2="364" y1="957.2441" y2="957.2441"/><text fill="#000000" font-family="sans-serif" font-size="13" font-weight="bold" lengthAdjust="spacing" textLength="14" x="72" y="943.3359">17</text><text fill="#000000" font-family="sans-serif" font-size="13" lengthAdjust="spacing" textLength="259" x="90" y="934.6904">shows the available e-mail services and asks</text><text fill="#000000" font-family="sans-serif" font-size="13" lengthAdjust="spacing" textLength="82" x="90" y="951.9814">to choose one</text><polygon fill="#181818" points="348,984.5352,358,988.5352,348,992.5352,352,988.5352" style="stroke:#181818;stroke-width:1.0;"/><line style="stroke:#181818;stroke-width:1.0;" x1="55" x2="354" y1="988.5352" y2="988.5352"/><text fill="#000000" font-family="sans-serif" font-size="13" font-weight="bold" lengthAdjust="spacing" textLength="14" x="62" y="983.2725">18</text><text fill="#000000" font-family="sans-serif" font-size="13" lengthAdjust="spacing" textLength="143" x="80" y="983.2725">choose an e-mail service</text><polygon fill="#181818" points="694,1015.8262,704,1019.8262,694,1023.8262,698,1019.8262" style="stroke:#181818;stroke-width:1.0;"/><line style="stroke:#181818;stroke-width:1.0;" x1="370" x2="700" y1="1019.8262" y2="1019.8262"/><text fill="#000000" font-family="sans-serif" font-size="13" font-weight="bold" lengthAdjust="spacing" textLength="14" x="377" y="1014.5635">19</text><text fill="#000000" font-family="sans-serif" font-size="13" lengthAdjust="spacing" textLength="299" x="395" y="1014.5635">sendEmailToTeamMembers(teamDto, emailService)</text><rect fill="none" height="59.2129" style="stroke:#000000;stroke-width:1.5;" width="175" x="629" y="1027.8262"/><path d="M629,1027.8262 L691,1027.8262 L691,1036.8262 L681,1046.8262 L629,1046.8262 L629,1027.8262 " fill="#EEEEEE" style="stroke:#000000;stroke-width:2.0;"/><text fill="#000000" font-family="sans-serif" font-size="13" font-weight="bold" lengthAdjust="spacing" textLength="17" x="642" y="1043.8545">ref</text><text fill="#000000" font-family="sans-serif" font-size="12" lengthAdjust="spacing" textLength="167" x="633" y="1063.7754">Send Email to Team Members</text><text fill="#000000" font-family="sans-serif" font-size="12" lengthAdjust="spacing" textLength="3" x="715" y="1079.7363">&#160;</text><polygon fill="#181818" points="381,1111.3301,371,1115.3301,381,1119.3301,377,1115.3301" style="stroke:#181818;stroke-width:1.0;"/><line style="stroke:#181818;stroke-width:1.0;stroke-dasharray:2.0,2.0;" x1="375" x2="705" y1="1115.3301" y2="1115.3301"/><text fill="#000000" font-family="sans-serif" font-size="13" font-weight="bold" lengthAdjust="spacing" textLength="14" x="387" y="1110.0674">20</text><text fill="#000000" font-family="sans-serif" font-size="13" lengthAdjust="spacing" textLength="106" x="405" y="1110.0674">operation success</text><polygon fill="#181818" points="61,1142.6211,51,1146.6211,61,1150.6211,57,1146.6211" style="stroke:#181818;stroke-width:1.0;"/><line style="stroke:#181818;stroke-width:1.0;stroke-dasharray:2.0,2.0;" x1="55" x2="364" y1="1146.6211" y2="1146.6211"/><text fill="#000000" font-family="sans-serif" font-size="13" font-weight="bold" lengthAdjust="spacing" textLength="14" x="67" y="1141.3584">21</text><text fill="#000000" font-family="sans-serif" font-size="13" lengthAdjust="spacing" textLength="158" x="85" y="1141.3584">displays operation success</text><!--SRC=[fLN1Zjem4Btp5IDET5L-W4CbjBj2AnLLAcnFUvbDXiGYyL1x0ihVT-oG42YW1N99R8_VpBptxFYriHjqM4B9bfFSSKaWhgA1xrOscAmneuNK1O6ZHD1cHJ_0vvZopjWCLbXu6Wom4hPL-KbElnDX1yEP8xAmK2pwi317guXk2EXXjfWF54TCOZPe1OQJgVSciql2ylqjXho_NOnuPYkEYs8Fzhpy_JFcD5iKYjW3q4S_OFn3WM2YOMiFmleE880WYXCdT92HJH58GUkuiOFI6kA4GYXGoFFqf6298rqzNTA5Z6GQmLuLov0VVJl6Qog5_UDe1RmbrqotipCIc1ugKXJO6SdXPVdhi5MN3uEOVDnrsY_WHJY6fNIcXb2wxWeqJLHFtdd0eW39gKz9AA1fE5MoKlYmaSkQgq2VfqBD0MpfD4_BNL-596VsT2ld3R5_i31fKD-F3YtMsk2T76y37aH0MAbRGziztklRM0zskfljk1bmYwR0Jprlock2JalWIfHloL50bFN8_-FintpdIRzIQ8g2iG17VoloegvWkpAkH35ilvI_YVSHwdh-JdZi3lsI3qUh7eKMEkslw7_P0-5fhfHeWkCjHqh_hpPloCMsmLT9GjvtiQVIj_FdkmlilfOg-uBSrYJTXN5tGy7O4H1Qn9lwedujhPilElg2MUBzqNcPnh4SlmSzM5XzpQqbRxu-Zb6_w2MltKTobXmKdrFuMVdMIj-FkdzGXuMcsWkXNOPii4_teC_E4vyQlocmzXUCUK9hRnZ-bVy0]--></g></svg>