<?xml version="1.0" encoding="us-ascii" standalone="no"?><svg xmlns="http://www.w3.org/2000/svg" xmlns:xlink="http://www.w3.org/1999/xlink" contentStyleType="text/css" height="565px" preserveAspectRatio="none" style="width:1126px;height:565px;background:#FFFFFF;" version="1.1" viewBox="0 0 1126 565" width="1126px" zoomAndPan="magnify"><defs/><g><rect fill="#FFFFFF" height="400.9102" style="stroke:#181818;stroke-width:1.0;" width="10" x="253" y="90.5332"/><rect fill="#FFFFFF" height="28" style="stroke:#181818;stroke-width:1.0;" width="10" x="258" y="156.1152"/><rect fill="#FFFFFF" height="230.7461" style="stroke:#181818;stroke-width:1.0;" width="10" x="588" y="222.4063"/><rect fill="#FFFFFF" height="168.1641" style="stroke:#181818;stroke-width:1.0;" width="10" x="757" y="253.6973"/><rect fill="#FFFFFF" height="105.582" style="stroke:#181818;stroke-width:1.0;" width="10" x="936" y="284.9883"/><rect fill="#FFFFFF" height="28" style="stroke:#181818;stroke-width:1.0;" width="10" x="941" y="324.2793"/><rect fill="none" height="355.6191" style="stroke:#000000;stroke-width:1.5;" width="951" x="169" y="105.5332"/><line style="stroke:#181818;stroke-width:0.5;stroke-dasharray:5.0,5.0;" x1="258" x2="258" y1="57.2422" y2="509.4434"/><line style="stroke:#181818;stroke-width:0.5;stroke-dasharray:5.0,5.0;" x1="592.5" x2="592.5" y1="57.2422" y2="509.4434"/><line style="stroke:#181818;stroke-width:0.5;stroke-dasharray:5.0,5.0;" x1="762" x2="762" y1="57.2422" y2="509.4434"/><line style="stroke:#181818;stroke-width:0.5;stroke-dasharray:5.0,5.0;" x1="941" x2="941" y1="57.2422" y2="509.4434"/><rect fill="#E3E3E3" height="32.6211" rx="2.5" ry="2.5" style="stroke:#181818;stroke-width:0.5;" width="158" x="179" y="23.6211"/><text fill="#000000" font-family="sans-serif" font-size="14" lengthAdjust="spacing" textLength="144" x="186" y="45.7285">:AssignTeamController</text><rect fill="#E3E3E3" height="32.6211" rx="2.5" ry="2.5" style="stroke:#181818;stroke-width:0.5;" width="158" x="179" y="508.4434"/><text fill="#000000" font-family="sans-serif" font-size="14" lengthAdjust="spacing" textLength="144" x="186" y="530.5508">:AssignTeamController</text><rect fill="#E3E3E3" height="51.2422" rx="2.5" ry="2.5" style="stroke:#181818;stroke-width:0.5;" width="67" x="559.5" y="5"/><text fill="#000000" font-family="sans-serif" font-size="14" lengthAdjust="spacing" textLength="48" x="569" y="27.1074">agenda</text><text fill="#000000" font-family="sans-serif" font-size="14" lengthAdjust="spacing" textLength="53" x="566.5" y="45.7285">:Agenda</text><rect fill="#E3E3E3" height="51.2422" rx="2.5" ry="2.5" style="stroke:#181818;stroke-width:0.5;" width="67" x="559.5" y="508.4434"/><text fill="#000000" font-family="sans-serif" font-size="14" lengthAdjust="spacing" textLength="48" x="569" y="530.5508">agenda</text><text fill="#000000" font-family="sans-serif" font-size="14" lengthAdjust="spacing" textLength="53" x="566.5" y="549.1719">:Agenda</text><rect fill="#E3E3E3" height="51.2422" rx="2.5" ry="2.5" style="stroke:#181818;stroke-width:0.5;" width="100" x="712" y="5"/><text fill="#000000" font-family="sans-serif" font-size="14" lengthAdjust="spacing" textLength="81" x="721.5" y="27.1074">agendaEntry</text><text fill="#000000" font-family="sans-serif" font-size="14" lengthAdjust="spacing" textLength="86" x="719" y="45.7285">:AgendaEntry</text><rect fill="#E3E3E3" height="51.2422" rx="2.5" ry="2.5" style="stroke:#181818;stroke-width:0.5;" width="100" x="712" y="508.4434"/><text fill="#000000" font-family="sans-serif" font-size="14" lengthAdjust="spacing" textLength="81" x="721.5" y="530.5508">agendaEntry</text><text fill="#000000" font-family="sans-serif" font-size="14" lengthAdjust="spacing" textLength="86" x="719" y="549.1719">:AgendaEntry</text><rect fill="#E3E3E3" height="51.2422" rx="2.5" ry="2.5" style="stroke:#181818;stroke-width:0.5;" width="54" x="914" y="5"/><text fill="#000000" font-family="sans-serif" font-size="14" lengthAdjust="spacing" textLength="31" x="925.5" y="27.1074">team</text><text fill="#000000" font-family="sans-serif" font-size="14" lengthAdjust="spacing" textLength="40" x="921" y="45.7285">:Team</text><rect fill="#E3E3E3" height="51.2422" rx="2.5" ry="2.5" style="stroke:#181818;stroke-width:0.5;" width="54" x="914" y="508.4434"/><text fill="#000000" font-family="sans-serif" font-size="14" lengthAdjust="spacing" textLength="31" x="925.5" y="530.5508">team</text><text fill="#000000" font-family="sans-serif" font-size="14" lengthAdjust="spacing" textLength="40" x="921" y="549.1719">:Team</text><rect fill="#FFFFFF" height="400.9102" style="stroke:#181818;stroke-width:1.0;" width="10" x="253" y="90.5332"/><rect fill="#FFFFFF" height="28" style="stroke:#181818;stroke-width:1.0;" width="10" x="258" y="156.1152"/><rect fill="#FFFFFF" height="230.7461" style="stroke:#181818;stroke-width:1.0;" width="10" x="588" y="222.4063"/><rect fill="#FFFFFF" height="168.1641" style="stroke:#181818;stroke-width:1.0;" width="10" x="757" y="253.6973"/><rect fill="#FFFFFF" height="105.582" style="stroke:#181818;stroke-width:1.0;" width="10" x="936" y="284.9883"/><rect fill="#FFFFFF" height="28" style="stroke:#181818;stroke-width:1.0;" width="10" x="941" y="324.2793"/><polygon fill="#181818" points="241,86.5332,251,90.5332,241,94.5332,245,90.5332" style="stroke:#181818;stroke-width:1.0;"/><line style="stroke:#181818;stroke-width:1.0;" x1="0" x2="247" y1="90.5332" y2="90.5332"/><text fill="#000000" font-family="sans-serif" font-size="13" font-weight="bold" lengthAdjust="spacing" textLength="14" x="7" y="85.2705">13</text><text fill="#000000" font-family="sans-serif" font-size="13" lengthAdjust="spacing" textLength="216" x="25" y="85.2705">assignTeamToAgendaEntry(teamDto)</text><path d="M169,105.5332 L295,105.5332 L295,114.8242 L285,124.8242 L169,124.8242 L169,105.5332 " fill="#EEEEEE" style="stroke:#000000;stroke-width:1.5;"/><rect fill="none" height="355.6191" style="stroke:#000000;stroke-width:1.5;" width="951" x="169" y="105.5332"/><text fill="#000000" font-family="sans-serif" font-size="13" font-weight="bold" lengthAdjust="spacing" textLength="81" x="184" y="120.5615">Assign Team</text><line style="stroke:#181818;stroke-width:1.0;" x1="268" x2="310" y1="148.1152" y2="148.1152"/><line style="stroke:#181818;stroke-width:1.0;" x1="310" x2="310" y1="148.1152" y2="161.1152"/><line style="stroke:#181818;stroke-width:1.0;" x1="269" x2="310" y1="161.1152" y2="161.1152"/><polygon fill="#181818" points="279,157.1152,269,161.1152,279,165.1152,275,161.1152" style="stroke:#181818;stroke-width:1.0;"/><text fill="#000000" font-family="sans-serif" font-size="13" font-weight="bold" lengthAdjust="spacing" textLength="25" x="275" y="142.8525">13.1</text><text fill="#000000" font-family="sans-serif" font-size="13" lengthAdjust="spacing" textLength="157" x="304" y="142.8525">team = toDomain(teamDto)</text><polygon fill="#181818" points="576,218.4063,586,222.4063,576,226.4063,580,222.4063" style="stroke:#181818;stroke-width:1.0;"/><line style="stroke:#181818;stroke-width:1.0;" x1="263" x2="582" y1="222.4063" y2="222.4063"/><text fill="#000000" font-family="sans-serif" font-size="13" font-weight="bold" lengthAdjust="spacing" textLength="25" x="270" y="217.1436">13.2</text><text fill="#000000" font-family="sans-serif" font-size="13" lengthAdjust="spacing" textLength="277" x="299" y="217.1436">assignTeamToAgendaEntry(agendaEntry, team)</text><polygon fill="#181818" points="745,249.6973,755,253.6973,745,257.6973,749,253.6973" style="stroke:#181818;stroke-width:1.0;"/><line style="stroke:#181818;stroke-width:1.0;" x1="598" x2="751" y1="253.6973" y2="253.6973"/><text fill="#000000" font-family="sans-serif" font-size="13" font-weight="bold" lengthAdjust="spacing" textLength="25" x="605" y="248.4346">13.3</text><text fill="#000000" font-family="sans-serif" font-size="13" lengthAdjust="spacing" textLength="107" x="634" y="248.4346">assignTeam(team)</text><polygon fill="#181818" points="924,280.9883,934,284.9883,924,288.9883,928,284.9883" style="stroke:#181818;stroke-width:1.0;"/><line style="stroke:#181818;stroke-width:1.0;" x1="767" x2="930" y1="284.9883" y2="284.9883"/><text fill="#000000" font-family="sans-serif" font-size="13" font-weight="bold" lengthAdjust="spacing" textLength="25" x="774" y="279.7256">13.4</text><text fill="#000000" font-family="sans-serif" font-size="13" lengthAdjust="spacing" textLength="121" x="803" y="279.7256">assignAgendaEntry()</text><line style="stroke:#181818;stroke-width:1.0;" x1="951" x2="993" y1="316.2793" y2="316.2793"/><line style="stroke:#181818;stroke-width:1.0;" x1="993" x2="993" y1="316.2793" y2="329.2793"/><line style="stroke:#181818;stroke-width:1.0;" x1="952" x2="993" y1="329.2793" y2="329.2793"/><polygon fill="#181818" points="962,325.2793,952,329.2793,962,333.2793,958,329.2793" style="stroke:#181818;stroke-width:1.0;"/><text fill="#000000" font-family="sans-serif" font-size="13" font-weight="bold" lengthAdjust="spacing" textLength="25" x="958" y="311.0166">13.5</text><text fill="#000000" font-family="sans-serif" font-size="13" lengthAdjust="spacing" textLength="121" x="987" y="311.0166">blockTeamAtATime()</text><polygon fill="#181818" points="778,386.5703,768,390.5703,778,394.5703,774,390.5703" style="stroke:#181818;stroke-width:1.0;"/><line style="stroke:#181818;stroke-width:1.0;stroke-dasharray:2.0,2.0;" x1="772" x2="940" y1="390.5703" y2="390.5703"/><text fill="#000000" font-family="sans-serif" font-size="13" font-weight="bold" lengthAdjust="spacing" textLength="25" x="784" y="385.3076">13.6</text><text fill="#000000" font-family="sans-serif" font-size="13" lengthAdjust="spacing" textLength="106" x="813" y="385.3076">operation success</text><polygon fill="#181818" points="609,417.8613,599,421.8613,609,425.8613,605,421.8613" style="stroke:#181818;stroke-width:1.0;"/><line style="stroke:#181818;stroke-width:1.0;stroke-dasharray:2.0,2.0;" x1="603" x2="761" y1="421.8613" y2="421.8613"/><text fill="#000000" font-family="sans-serif" font-size="13" font-weight="bold" lengthAdjust="spacing" textLength="25" x="615" y="416.5986">13.7</text><text fill="#000000" font-family="sans-serif" font-size="13" lengthAdjust="spacing" textLength="106" x="644" y="416.5986">operation success</text><polygon fill="#181818" points="274,449.1523,264,453.1523,274,457.1523,270,453.1523" style="stroke:#181818;stroke-width:1.0;"/><line style="stroke:#181818;stroke-width:1.0;stroke-dasharray:2.0,2.0;" x1="268" x2="592" y1="453.1523" y2="453.1523"/><text fill="#000000" font-family="sans-serif" font-size="13" font-weight="bold" lengthAdjust="spacing" textLength="25" x="280" y="447.8896">13.8</text><text fill="#000000" font-family="sans-serif" font-size="13" lengthAdjust="spacing" textLength="106" x="309" y="447.8896">operation success</text><polygon fill="#181818" points="11,487.4434,1,491.4434,11,495.4434,7,491.4434" style="stroke:#181818;stroke-width:1.0;"/><line style="stroke:#181818;stroke-width:1.0;stroke-dasharray:2.0,2.0;" x1="5" x2="257" y1="491.4434" y2="491.4434"/><text fill="#000000" font-family="sans-serif" font-size="13" font-weight="bold" lengthAdjust="spacing" textLength="14" x="17" y="486.1807">14</text><text fill="#000000" font-family="sans-serif" font-size="13" lengthAdjust="spacing" textLength="106" x="35" y="486.1807">operation success</text><!--SRC=[dPEnJiCm48PtFyM9gPKeKWLJ14XH6x50Xv85YUNgcjHgOaUs0-hRuzXDuf2a86voxF_-xtpdw2CN9Ieie912qeEI1GEZAaPqUr8YFMB6NiqfPw0ODIYoF1Je0-xb5nSPV62k6I5sst3AInG6hg9OQvw9b66nai8ecUTCNG5gMANRvxxMOiGUtqKKkuLJnK_9PXsFwHBhTch5xYl8I3RfzgsVPcmDLb-NueHf4hyGWfMHeYfsJC7obYmUNLsHFM_AJcL0cDKcQoFdFn9lbWIfuPzecByOsCYKh4hm3O3QYhZj9ceTd84GGUqC3s3aMXR8HKSASuQG9lQiVpQAyhs1wUi5hRrs5KtWpsFf7TPn1hGeDuOURpPq7N7sunkeEeGtjfnwYYqWlCfyDBlb-Ed3H3ZNpdsNItgiguzDdFA2JPWF0LEgO5f_AMJGJraoXOPB0RgYb6bD_atfzJDy8xyp0l-BOsjUHVVOBtiFV8dtjCFrY_3VktCxzul5jFVWt_W6]--></g></svg>