<?xml version="1.0" encoding="us-ascii" standalone="no"?><svg xmlns="http://www.w3.org/2000/svg" xmlns:xlink="http://www.w3.org/1999/xlink" contentStyleType="text/css" height="586px" preserveAspectRatio="none" style="width:969px;height:586px;background:#FFFFFF;" version="1.1" viewBox="0 0 969 586" width="969px" zoomAndPan="magnify"><defs/><g><rect fill="#FFFFFF" height="421.8125" style="stroke:#181818;stroke-width:1.0;" width="10" x="336" y="90.5332"/><rect fill="#FFFFFF" height="31.291" style="stroke:#181818;stroke-width:1.0;" width="10" x="639" y="148.1152"/><rect fill="#FFFFFF" height="253.3574" style="stroke:#181818;stroke-width:1.0;" width="10" x="725.5" y="220.6973"/><rect fill="#FFFFFF" height="28" style="stroke:#181818;stroke-width:1.0;" width="10" x="730.5" y="400.7637"/><rect fill="#FFFFFF" height="52.2422" style="stroke:#181818;stroke-width:1.0;" width="10" x="890.5" y="309.2305"/><rect fill="none" height="376.5215" style="stroke:#000000;stroke-width:1.5;" width="711.5" x="252" y="105.5332"/><rect fill="none" height="187.1152" style="stroke:#000000;stroke-width:1.5;" width="282.5" x="671" y="256.6484"/><line style="stroke:#181818;stroke-width:0.5;stroke-dasharray:5.0,5.0;" x1="341" x2="341" y1="57.2422" y2="530.3457"/><line style="stroke:#181818;stroke-width:0.5;stroke-dasharray:5.0,5.0;" x1="463" x2="463" y1="57.2422" y2="530.3457"/><line style="stroke:#181818;stroke-width:0.5;stroke-dasharray:5.0,5.0;" x1="557" x2="557" y1="57.2422" y2="530.3457"/><line style="stroke:#181818;stroke-width:0.5;stroke-dasharray:5.0,5.0;" x1="644" x2="644" y1="57.2422" y2="530.3457"/><line style="stroke:#181818;stroke-width:0.5;stroke-dasharray:5.0,5.0;" x1="730" x2="730" y1="228.5273" y2="530.3457"/><line style="stroke:#181818;stroke-width:0.5;stroke-dasharray:5.0,5.0;" x1="895.5" x2="895.5" y1="317.0605" y2="530.3457"/><rect fill="#E3E3E3" height="32.6211" rx="2.5" ry="2.5" style="stroke:#181818;stroke-width:0.5;" width="158" x="262" y="23.6211"/><text fill="#000000" font-family="sans-serif" font-size="14" lengthAdjust="spacing" textLength="144" x="269" y="45.7285">:AssignTeamController</text><rect fill="#E3E3E3" height="32.6211" rx="2.5" ry="2.5" style="stroke:#181818;stroke-width:0.5;" width="158" x="262" y="529.3457"/><text fill="#000000" font-family="sans-serif" font-size="14" lengthAdjust="spacing" textLength="144" x="269" y="551.4531">:AssignTeamController</text><rect fill="#E3E3E3" height="51.2422" rx="2.5" ry="2.5" style="stroke:#181818;stroke-width:0.5;" width="67" x="430" y="5"/><text fill="#000000" font-family="sans-serif" font-size="14" lengthAdjust="spacing" textLength="48" x="439.5" y="27.1074">agenda</text><text fill="#000000" font-family="sans-serif" font-size="14" lengthAdjust="spacing" textLength="53" x="437" y="45.7285">:Agenda</text><rect fill="#E3E3E3" height="51.2422" rx="2.5" ry="2.5" style="stroke:#181818;stroke-width:0.5;" width="67" x="430" y="529.3457"/><text fill="#000000" font-family="sans-serif" font-size="14" lengthAdjust="spacing" textLength="48" x="439.5" y="551.4531">agenda</text><text fill="#000000" font-family="sans-serif" font-size="14" lengthAdjust="spacing" textLength="53" x="437" y="570.0742">:Agenda</text><rect fill="#E3E3E3" height="51.2422" rx="2.5" ry="2.5" style="stroke:#181818;stroke-width:0.5;" width="100" x="507" y="5"/><text fill="#000000" font-family="sans-serif" font-size="14" lengthAdjust="spacing" textLength="81" x="516.5" y="27.1074">agendaEntry</text><text fill="#000000" font-family="sans-serif" font-size="14" lengthAdjust="spacing" textLength="86" x="514" y="45.7285">:AgendaEntry</text><rect fill="#E3E3E3" height="51.2422" rx="2.5" ry="2.5" style="stroke:#181818;stroke-width:0.5;" width="100" x="507" y="529.3457"/><text fill="#000000" font-family="sans-serif" font-size="14" lengthAdjust="spacing" textLength="81" x="516.5" y="551.4531">agendaEntry</text><text fill="#000000" font-family="sans-serif" font-size="14" lengthAdjust="spacing" textLength="86" x="514" y="570.0742">:AgendaEntry</text><rect fill="#E3E3E3" height="51.2422" rx="2.5" ry="2.5" style="stroke:#181818;stroke-width:0.5;" width="54" x="617" y="5"/><text fill="#000000" font-family="sans-serif" font-size="14" lengthAdjust="spacing" textLength="31" x="628.5" y="27.1074">team</text><text fill="#000000" font-family="sans-serif" font-size="14" lengthAdjust="spacing" textLength="40" x="624" y="45.7285">:Team</text><rect fill="#E3E3E3" height="51.2422" rx="2.5" ry="2.5" style="stroke:#181818;stroke-width:0.5;" width="54" x="617" y="529.3457"/><text fill="#000000" font-family="sans-serif" font-size="14" lengthAdjust="spacing" textLength="31" x="628.5" y="551.4531">team</text><text fill="#000000" font-family="sans-serif" font-size="14" lengthAdjust="spacing" textLength="40" x="624" y="570.0742">:Team</text><rect fill="#E3E3E3" height="51.2422" rx="2.5" ry="2.5" style="stroke:#181818;stroke-width:0.5;" width="99" x="681" y="529.3457"/><text fill="#000000" font-family="sans-serif" font-size="14" lengthAdjust="spacing" textLength="80" x="690.5" y="551.4531">emailService</text><text fill="#000000" font-family="sans-serif" font-size="14" lengthAdjust="spacing" textLength="85" x="688" y="570.0742">:EmailService</text><rect fill="#E3E3E3" height="51.2422" rx="2.5" ry="2.5" style="stroke:#181818;stroke-width:0.5;" width="96" x="847.5" y="529.3457"/><text fill="#000000" font-family="sans-serif" font-size="14" lengthAdjust="spacing" textLength="75" x="858" y="551.4531">collaborator</text><text fill="#000000" font-family="sans-serif" font-size="14" lengthAdjust="spacing" textLength="82" x="854.5" y="570.0742">:Collaborator</text><rect fill="#FFFFFF" height="421.8125" style="stroke:#181818;stroke-width:1.0;" width="10" x="336" y="90.5332"/><rect fill="#FFFFFF" height="31.291" style="stroke:#181818;stroke-width:1.0;" width="10" x="639" y="148.1152"/><rect fill="#FFFFFF" height="253.3574" style="stroke:#181818;stroke-width:1.0;" width="10" x="725.5" y="220.6973"/><rect fill="#FFFFFF" height="28" style="stroke:#181818;stroke-width:1.0;" width="10" x="730.5" y="400.7637"/><rect fill="#FFFFFF" height="52.2422" style="stroke:#181818;stroke-width:1.0;" width="10" x="890.5" y="309.2305"/><polygon fill="#181818" points="324,86.5332,334,90.5332,324,94.5332,328,90.5332" style="stroke:#181818;stroke-width:1.0;"/><line style="stroke:#181818;stroke-width:1.0;" x1="0" x2="330" y1="90.5332" y2="90.5332"/><text fill="#000000" font-family="sans-serif" font-size="13" font-weight="bold" lengthAdjust="spacing" textLength="14" x="7" y="85.2705">19</text><text fill="#000000" font-family="sans-serif" font-size="13" lengthAdjust="spacing" textLength="299" x="25" y="85.2705">sendEmailToTeamMembers(teamDto, emailService)</text><path d="M252,105.5332 L488,105.5332 L488,114.8242 L478,124.8242 L252,124.8242 L252,105.5332 " fill="#EEEEEE" style="stroke:#000000;stroke-width:1.5;"/><rect fill="none" height="376.5215" style="stroke:#000000;stroke-width:1.5;" width="711.5" x="252" y="105.5332"/><text fill="#000000" font-family="sans-serif" font-size="13" font-weight="bold" lengthAdjust="spacing" textLength="191" x="267" y="120.5615">Send Email to Team Members</text><polygon fill="#181818" points="627,144.1152,637,148.1152,627,152.1152,631,148.1152" style="stroke:#181818;stroke-width:1.0;"/><line style="stroke:#181818;stroke-width:1.0;" x1="346" x2="633" y1="148.1152" y2="148.1152"/><text fill="#000000" font-family="sans-serif" font-size="13" font-weight="bold" lengthAdjust="spacing" textLength="25" x="353" y="142.8525">19.1</text><text fill="#000000" font-family="sans-serif" font-size="13" lengthAdjust="spacing" textLength="80" x="382" y="142.8525">getMembers()</text><polygon fill="#181818" points="357,175.4063,347,179.4063,357,183.4063,353,179.4063" style="stroke:#181818;stroke-width:1.0;"/><line style="stroke:#181818;stroke-width:1.0;stroke-dasharray:2.0,2.0;" x1="351" x2="643" y1="179.4063" y2="179.4063"/><text fill="#000000" font-family="sans-serif" font-size="13" font-weight="bold" lengthAdjust="spacing" textLength="25" x="363" y="174.1436">19.2</text><text fill="#000000" font-family="sans-serif" font-size="13" lengthAdjust="spacing" textLength="54" x="392" y="174.1436">members</text><polygon fill="#181818" points="669,206.6973,679,210.6973,669,214.6973,673,210.6973" style="stroke:#181818;stroke-width:1.0;"/><line style="stroke:#181818;stroke-width:1.0;" x1="346" x2="675" y1="210.6973" y2="210.6973"/><text fill="#000000" font-family="sans-serif" font-size="13" font-weight="bold" lengthAdjust="spacing" textLength="25" x="353" y="205.4346">19.3</text><text fill="#000000" font-family="sans-serif" font-size="13" lengthAdjust="spacing" textLength="223" x="382" y="205.4346">sendEmailToTeamMembers(members)</text><rect fill="#E3E3E3" height="51.2422" rx="2.5" ry="2.5" style="stroke:#181818;stroke-width:0.5;" width="99" x="681" y="187.4063"/><text fill="#000000" font-family="sans-serif" font-size="14" lengthAdjust="spacing" textLength="80" x="690.5" y="209.5137">emailService</text><text fill="#000000" font-family="sans-serif" font-size="14" lengthAdjust="spacing" textLength="85" x="688" y="228.1348">:EmailService</text><path d="M671,256.6484 L744,256.6484 L744,265.9395 L734,275.9395 L671,275.9395 L671,256.6484 " fill="#EEEEEE" style="stroke:#000000;stroke-width:1.5;"/><rect fill="none" height="187.1152" style="stroke:#000000;stroke-width:1.5;" width="282.5" x="671" y="256.6484"/><text fill="#000000" font-family="sans-serif" font-size="13" font-weight="bold" lengthAdjust="spacing" textLength="28" x="686" y="271.6768">loop</text><text fill="#000000" font-family="sans-serif" font-size="11" font-weight="bold" lengthAdjust="spacing" textLength="104" x="759" y="270.5186">[for each member]</text><polygon fill="#181818" points="835.5,295.2305,845.5,299.2305,835.5,303.2305,839.5,299.2305" style="stroke:#181818;stroke-width:1.0;"/><line style="stroke:#181818;stroke-width:1.0;" x1="735.5" x2="841.5" y1="299.2305" y2="299.2305"/><text fill="#000000" font-family="sans-serif" font-size="13" font-weight="bold" lengthAdjust="spacing" textLength="25" x="742.5" y="293.9678">19.4</text><text fill="#000000" font-family="sans-serif" font-size="13" lengthAdjust="spacing" textLength="59" x="771.5" y="293.9678">getEmail()</text><rect fill="#E3E3E3" height="51.2422" rx="2.5" ry="2.5" style="stroke:#181818;stroke-width:0.5;" width="96" x="847.5" y="275.9395"/><text fill="#000000" font-family="sans-serif" font-size="14" lengthAdjust="spacing" textLength="75" x="858" y="298.0469">collaborator</text><text fill="#000000" font-family="sans-serif" font-size="14" lengthAdjust="spacing" textLength="82" x="854.5" y="316.668">:Collaborator</text><polygon fill="#181818" points="746.5,357.4727,736.5,361.4727,746.5,365.4727,742.5,361.4727" style="stroke:#181818;stroke-width:1.0;"/><line style="stroke:#181818;stroke-width:1.0;stroke-dasharray:2.0,2.0;" x1="740.5" x2="894.5" y1="361.4727" y2="361.4727"/><text fill="#000000" font-family="sans-serif" font-size="13" font-weight="bold" lengthAdjust="spacing" textLength="25" x="752.5" y="356.21">19.5</text><text fill="#000000" font-family="sans-serif" font-size="13" lengthAdjust="spacing" textLength="31" x="781.5" y="356.21">email</text><line style="stroke:#181818;stroke-width:1.0;" x1="740.5" x2="782.5" y1="392.7637" y2="392.7637"/><line style="stroke:#181818;stroke-width:1.0;" x1="782.5" x2="782.5" y1="392.7637" y2="405.7637"/><line style="stroke:#181818;stroke-width:1.0;" x1="741.5" x2="782.5" y1="405.7637" y2="405.7637"/><polygon fill="#181818" points="751.5,401.7637,741.5,405.7637,751.5,409.7637,747.5,405.7637" style="stroke:#181818;stroke-width:1.0;"/><text fill="#000000" font-family="sans-serif" font-size="13" font-weight="bold" lengthAdjust="spacing" textLength="25" x="747.5" y="387.501">19.6</text><text fill="#000000" font-family="sans-serif" font-size="13" lengthAdjust="spacing" textLength="100" x="776.5" y="387.501">sendEmail(email)</text><polygon fill="#181818" points="357,470.0547,347,474.0547,357,478.0547,353,474.0547" style="stroke:#181818;stroke-width:1.0;"/><line style="stroke:#181818;stroke-width:1.0;stroke-dasharray:2.0,2.0;" x1="351" x2="729.5" y1="474.0547" y2="474.0547"/><text fill="#000000" font-family="sans-serif" font-size="13" font-weight="bold" lengthAdjust="spacing" textLength="25" x="363" y="468.792">19.7</text><text fill="#000000" font-family="sans-serif" font-size="13" lengthAdjust="spacing" textLength="134" x="392" y="468.792">email sent confirmation</text><polygon fill="#181818" points="11,508.3457,1,512.3457,11,516.3457,7,512.3457" style="stroke:#181818;stroke-width:1.0;"/><line style="stroke:#181818;stroke-width:1.0;stroke-dasharray:2.0,2.0;" x1="5" x2="340" y1="512.3457" y2="512.3457"/><text fill="#000000" font-family="sans-serif" font-size="13" font-weight="bold" lengthAdjust="spacing" textLength="14" x="17" y="507.083">20</text><text fill="#000000" font-family="sans-serif" font-size="13" lengthAdjust="spacing" textLength="106" x="35" y="507.083">operation success</text><!--SRC=[ZPFHQzim4CRVzLSSVMhBCjQzpOo1bvfHI3f8p62m5rMvEAAspaXoH__xIMSdanEtYPui-RlxVlTPTi_QjDBA1Xeof7QM6WHlEnJkyAQLwbbMkFQlDO95vQMfwbJWTd93VxMfO2jhXqA4Ow-LRgNnS9NbpkdAb2YREHblgQxHNe5qC2zNYx4ss9YD_6Eod1zObVye7k_pALqHkhqUnBnBAeh7SlLxNEO3Gz1751QMHRuSAx2HkbwZVT4AWx98jbnHBFE7nRfO_NgO5-DA5UQIJsIb9nigvycs7_RdOf5_5q9sdapNFA65kozYzerJoC254TYjf8YtnAXmrv7utjC7IC5kZhfyl1DIUVqYFVQPGbYLfQw5TMWBt1SyGUmCGsl1gdJ5KWX0CHN8e4A_fxWvqHxyECAJrt5nczamOEZN3Bx7kWsUQRRdIhE_lOKtCnkCte4UVSL9-9geXIrP272x0NrI65VQBeBsdveHGuXCE17X2TN-Xi0xgzTmh2FNhByWRzOc8P-pEPxcoESG-ZKxNZ3NAEqB0C_g0y4q_XZz_zLZqaZkGP7PQjj8hyc8Io5wjuDjylDz_iGdNsUplHUrQBaxk4ufT4wasSU_K_m3]--></g></svg>