<?xml version="1.0" encoding="us-ascii" standalone="no"?><svg xmlns="http://www.w3.org/2000/svg" xmlns:xlink="http://www.w3.org/1999/xlink" contentStyleType="text/css" height="491px" preserveAspectRatio="none" style="width:1057px;height:491px;background:#FFFFFF;" version="1.1" viewBox="0 0 1057 491" width="1057px" zoomAndPan="magnify"><defs/><g><rect fill="#FFFFFF" height="326.6191" style="stroke:#181818;stroke-width:1.0;" width="10" x="253" y="90.5332"/><rect fill="#FFFFFF" height="28" style="stroke:#181818;stroke-width:1.0;" width="10" x="258" y="156.1152"/><rect fill="#FFFFFF" height="156.4551" style="stroke:#181818;stroke-width:1.0;" width="10" x="588" y="222.4063"/><rect fill="#FFFFFF" height="93.873" style="stroke:#181818;stroke-width:1.0;" width="10" x="757" y="253.6973"/><rect fill="#FFFFFF" height="31.291" style="stroke:#181818;stroke-width:1.0;" width="10" x="1009" y="284.9883"/><rect fill="none" height="281.3281" style="stroke:#000000;stroke-width:1.5;" width="882" x="169" y="105.5332"/><line style="stroke:#181818;stroke-width:0.5;stroke-dasharray:5.0,5.0;" x1="258" x2="258" y1="57.2422" y2="435.1523"/><line style="stroke:#181818;stroke-width:0.5;stroke-dasharray:5.0,5.0;" x1="592.5" x2="592.5" y1="57.2422" y2="435.1523"/><line style="stroke:#181818;stroke-width:0.5;stroke-dasharray:5.0,5.0;" x1="762" x2="762" y1="57.2422" y2="435.1523"/><line style="stroke:#181818;stroke-width:0.5;stroke-dasharray:5.0,5.0;" x1="1014" x2="1014" y1="57.2422" y2="435.1523"/><rect fill="#E3E3E3" height="32.6211" rx="2.5" ry="2.5" style="stroke:#181818;stroke-width:0.5;" width="158" x="179" y="23.6211"/><text fill="#000000" font-family="sans-serif" font-size="14" lengthAdjust="spacing" textLength="144" x="186" y="45.7285">:AssignTeamController</text><rect fill="#E3E3E3" height="32.6211" rx="2.5" ry="2.5" style="stroke:#181818;stroke-width:0.5;" width="158" x="179" y="434.1523"/><text fill="#000000" font-family="sans-serif" font-size="14" lengthAdjust="spacing" textLength="144" x="186" y="456.2598">:AssignTeamController</text><rect fill="#E3E3E3" height="51.2422" rx="2.5" ry="2.5" style="stroke:#181818;stroke-width:0.5;" width="67" x="559.5" y="5"/><text fill="#000000" font-family="sans-serif" font-size="14" lengthAdjust="spacing" textLength="48" x="569" y="27.1074">agenda</text><text fill="#000000" font-family="sans-serif" font-size="14" lengthAdjust="spacing" textLength="53" x="566.5" y="45.7285">:Agenda</text><rect fill="#E3E3E3" height="51.2422" rx="2.5" ry="2.5" style="stroke:#181818;stroke-width:0.5;" width="67" x="559.5" y="434.1523"/><text fill="#000000" font-family="sans-serif" font-size="14" lengthAdjust="spacing" textLength="48" x="569" y="456.2598">agenda</text><text fill="#000000" font-family="sans-serif" font-size="14" lengthAdjust="spacing" textLength="53" x="566.5" y="474.8809">:Agenda</text><rect fill="#E3E3E3" height="51.2422" rx="2.5" ry="2.5" style="stroke:#181818;stroke-width:0.5;" width="100" x="712" y="5"/><text fill="#000000" font-family="sans-serif" font-size="14" lengthAdjust="spacing" textLength="81" x="721.5" y="27.1074">agendaEntry</text><text fill="#000000" font-family="sans-serif" font-size="14" lengthAdjust="spacing" textLength="86" x="719" y="45.7285">:AgendaEntry</text><rect fill="#E3E3E3" height="51.2422" rx="2.5" ry="2.5" style="stroke:#181818;stroke-width:0.5;" width="100" x="712" y="434.1523"/><text fill="#000000" font-family="sans-serif" font-size="14" lengthAdjust="spacing" textLength="81" x="721.5" y="456.2598">agendaEntry</text><text fill="#000000" font-family="sans-serif" font-size="14" lengthAdjust="spacing" textLength="86" x="719" y="474.8809">:AgendaEntry</text><rect fill="#E3E3E3" height="51.2422" rx="2.5" ry="2.5" style="stroke:#181818;stroke-width:0.5;" width="54" x="987" y="5"/><text fill="#000000" font-family="sans-serif" font-size="14" lengthAdjust="spacing" textLength="31" x="998.5" y="27.1074">team</text><text fill="#000000" font-family="sans-serif" font-size="14" lengthAdjust="spacing" textLength="40" x="994" y="45.7285">:Team</text><rect fill="#E3E3E3" height="51.2422" rx="2.5" ry="2.5" style="stroke:#181818;stroke-width:0.5;" width="54" x="987" y="434.1523"/><text fill="#000000" font-family="sans-serif" font-size="14" lengthAdjust="spacing" textLength="31" x="998.5" y="456.2598">team</text><text fill="#000000" font-family="sans-serif" font-size="14" lengthAdjust="spacing" textLength="40" x="994" y="474.8809">:Team</text><rect fill="#FFFFFF" height="326.6191" style="stroke:#181818;stroke-width:1.0;" width="10" x="253" y="90.5332"/><rect fill="#FFFFFF" height="28" style="stroke:#181818;stroke-width:1.0;" width="10" x="258" y="156.1152"/><rect fill="#FFFFFF" height="156.4551" style="stroke:#181818;stroke-width:1.0;" width="10" x="588" y="222.4063"/><rect fill="#FFFFFF" height="93.873" style="stroke:#181818;stroke-width:1.0;" width="10" x="757" y="253.6973"/><rect fill="#FFFFFF" height="31.291" style="stroke:#181818;stroke-width:1.0;" width="10" x="1009" y="284.9883"/><polygon fill="#181818" points="241,86.5332,251,90.5332,241,94.5332,245,90.5332" style="stroke:#181818;stroke-width:1.0;"/><line style="stroke:#181818;stroke-width:1.0;" x1="0" x2="247" y1="90.5332" y2="90.5332"/><text fill="#000000" font-family="sans-serif" font-size="13" font-weight="bold" lengthAdjust="spacing" textLength="14" x="7" y="85.2705">13</text><text fill="#000000" font-family="sans-serif" font-size="13" lengthAdjust="spacing" textLength="216" x="25" y="85.2705">assignTeamToAgendaEntry(teamDto)</text><path d="M169,105.5332 L295,105.5332 L295,114.8242 L285,124.8242 L169,124.8242 L169,105.5332 " fill="#EEEEEE" style="stroke:#000000;stroke-width:1.5;"/><rect fill="none" height="281.3281" style="stroke:#000000;stroke-width:1.5;" width="882" x="169" y="105.5332"/><text fill="#000000" font-family="sans-serif" font-size="13" font-weight="bold" lengthAdjust="spacing" textLength="81" x="184" y="120.5615">Assign Team</text><line style="stroke:#181818;stroke-width:1.0;" x1="268" x2="310" y1="148.1152" y2="148.1152"/><line style="stroke:#181818;stroke-width:1.0;" x1="310" x2="310" y1="148.1152" y2="161.1152"/><line style="stroke:#181818;stroke-width:1.0;" x1="269" x2="310" y1="161.1152" y2="161.1152"/><polygon fill="#181818" points="279,157.1152,269,161.1152,279,165.1152,275,161.1152" style="stroke:#181818;stroke-width:1.0;"/><text fill="#000000" font-family="sans-serif" font-size="13" font-weight="bold" lengthAdjust="spacing" textLength="25" x="275" y="142.8525">13.1</text><text fill="#000000" font-family="sans-serif" font-size="13" lengthAdjust="spacing" textLength="157" x="304" y="142.8525">team = toDomain(teamDto)</text><polygon fill="#181818" points="576,218.4063,586,222.4063,576,226.4063,580,222.4063" style="stroke:#181818;stroke-width:1.0;"/><line style="stroke:#181818;stroke-width:1.0;" x1="263" x2="582" y1="222.4063" y2="222.4063"/><text fill="#000000" font-family="sans-serif" font-size="13" font-weight="bold" lengthAdjust="spacing" textLength="25" x="270" y="217.1436">13.2</text><text fill="#000000" font-family="sans-serif" font-size="13" lengthAdjust="spacing" textLength="277" x="299" y="217.1436">assignTeamToAgendaEntry(agendaEntry, team)</text><polygon fill="#181818" points="745,249.6973,755,253.6973,745,257.6973,749,253.6973" style="stroke:#181818;stroke-width:1.0;"/><line style="stroke:#181818;stroke-width:1.0;" x1="598" x2="751" y1="253.6973" y2="253.6973"/><text fill="#000000" font-family="sans-serif" font-size="13" font-weight="bold" lengthAdjust="spacing" textLength="25" x="605" y="248.4346">13.3</text><text fill="#000000" font-family="sans-serif" font-size="13" lengthAdjust="spacing" textLength="107" x="634" y="248.4346">assignTeam(team)</text><polygon fill="#181818" points="997,280.9883,1007,284.9883,997,288.9883,1001,284.9883" style="stroke:#181818;stroke-width:1.0;"/><line style="stroke:#181818;stroke-width:1.0;" x1="767" x2="1003" y1="284.9883" y2="284.9883"/><text fill="#000000" font-family="sans-serif" font-size="13" font-weight="bold" lengthAdjust="spacing" textLength="25" x="774" y="279.7256">13.4</text><text fill="#000000" font-family="sans-serif" font-size="13" lengthAdjust="spacing" textLength="194" x="803" y="279.7256">assignAgendaEntry(agendaEntry)</text><polygon fill="#181818" points="778,312.2793,768,316.2793,778,320.2793,774,316.2793" style="stroke:#181818;stroke-width:1.0;"/><line style="stroke:#181818;stroke-width:1.0;stroke-dasharray:2.0,2.0;" x1="772" x2="1013" y1="316.2793" y2="316.2793"/><text fill="#000000" font-family="sans-serif" font-size="13" font-weight="bold" lengthAdjust="spacing" textLength="25" x="784" y="311.0166">13.5</text><text fill="#000000" font-family="sans-serif" font-size="13" lengthAdjust="spacing" textLength="106" x="813" y="311.0166">operation success</text><polygon fill="#181818" points="609,343.5703,599,347.5703,609,351.5703,605,347.5703" style="stroke:#181818;stroke-width:1.0;"/><line style="stroke:#181818;stroke-width:1.0;stroke-dasharray:2.0,2.0;" x1="603" x2="761" y1="347.5703" y2="347.5703"/><text fill="#000000" font-family="sans-serif" font-size="13" font-weight="bold" lengthAdjust="spacing" textLength="25" x="615" y="342.3076">13.6</text><text fill="#000000" font-family="sans-serif" font-size="13" lengthAdjust="spacing" textLength="106" x="644" y="342.3076">operation success</text><polygon fill="#181818" points="274,374.8613,264,378.8613,274,382.8613,270,378.8613" style="stroke:#181818;stroke-width:1.0;"/><line style="stroke:#181818;stroke-width:1.0;stroke-dasharray:2.0,2.0;" x1="268" x2="592" y1="378.8613" y2="378.8613"/><text fill="#000000" font-family="sans-serif" font-size="13" font-weight="bold" lengthAdjust="spacing" textLength="25" x="280" y="373.5986">13.7</text><text fill="#000000" font-family="sans-serif" font-size="13" lengthAdjust="spacing" textLength="106" x="309" y="373.5986">operation success</text><polygon fill="#181818" points="11,413.1523,1,417.1523,11,421.1523,7,417.1523" style="stroke:#181818;stroke-width:1.0;"/><line style="stroke:#181818;stroke-width:1.0;stroke-dasharray:2.0,2.0;" x1="5" x2="257" y1="417.1523" y2="417.1523"/><text fill="#000000" font-family="sans-serif" font-size="13" font-weight="bold" lengthAdjust="spacing" textLength="14" x="17" y="411.8896">14</text><text fill="#000000" font-family="sans-serif" font-size="13" lengthAdjust="spacing" textLength="106" x="35" y="411.8896">operation success</text><!--SRC=[XP8zJyCm48Pt_ufJfrOYI1LC4I15RSG27KeM99OZCQdLn8vi1zH_Zp-Qr259kIdnlNwV-x0wCjwWn1fgmKL-aAAce6LBYUep3UP7BEcRFbKK9Cqryh8A1Ug0XVXXl8Glh1Gbn1nhbhC6kOP5d2Z5IfvHh3U2QocgYie5e89DjdyPQWs65_Z1uyHzE5NodEwsoPGkDMwdNkp-WXlfBjk_3wzfKuFHsrASC4kJLqAmrOAtzIULiBuZqPEhApRvhknC18IbDTbgiVfpyNPDCDVi6pNrZO69Kegs0Jy0i5R47NTXTN06GWpM6Hv1YwseaV4BARmpXdHHq65k4kLd0_Fj1QEzSHNDuCzh6IHjd04zogrXm5kENIUS_Vf6gWl26nkEtM8Fc6bbDMdK8_r3W9bmW6ZKaMYeHCq41zNcELLgqY3OoZnbq56ufVyPWV_LmNLxkJotwzuZN-8zpKZzH_Zwxzt9GnJDUuzUvoy0]--></g></svg>