<?xml version="1.0" encoding="us-ascii" standalone="no"?><svg xmlns="http://www.w3.org/2000/svg" xmlns:xlink="http://www.w3.org/1999/xlink" contentStyleType="text/css" height="1224px" preserveAspectRatio="none" style="width:1319px;height:1224px;background:#FFFFFF;" version="1.1" viewBox="0 0 1319 1224" width="1319px" zoomAndPan="magnify"><defs/><g><rect fill="#FFFFFF" height="1060.0215" style="stroke:#181818;stroke-width:1.0;" width="10" x="141" y="90.5332"/><rect fill="#FFFFFF" height="52.2422" style="stroke:#181818;stroke-width:1.0;" width="10" x="315.5" y="158.1152"/><rect fill="#FFFFFF" height="31.291" style="stroke:#181818;stroke-width:1.0;" width="10" x="315.5" y="241.6484"/><rect fill="#FFFFFF" height="335.8906" style="stroke:#181818;stroke-width:1.0;" width="10" x="407.5" y="314.2305"/><rect fill="#FFFFFF" height="420.8516" style="stroke:#181818;stroke-width:1.0;" width="10" x="508.5" y="691.4121"/><rect fill="#FFFFFF" height="28" style="stroke:#181818;stroke-width:1.0;" width="10" x="513.5" y="884.1484"/><rect fill="#FFFFFF" height="242.3574" style="stroke:#181818;stroke-width:1.0;" width="10" x="917.5" y="376.4727"/><rect fill="#FFFFFF" height="30" style="stroke:#181818;stroke-width:1.0;" width="10" x="922.5" y="543.5391"/><rect fill="#FFFFFF" height="31.291" style="stroke:#181818;stroke-width:1.0;" width="10" x="917.5" y="813.5664"/><rect fill="#FFFFFF" height="30" style="stroke:#181818;stroke-width:1.0;" width="10" x="1076.5" y="1043.9727"/><rect fill="#FFFFFF" height="52.2422" style="stroke:#181818;stroke-width:1.0;" width="10" x="1227.5" y="960.4395"/><rect fill="none" height="1014.7305" style="stroke:#000000;stroke-width:1.5;" width="1256.5" x="57" y="105.5332"/><rect fill="none" height="176.1152" style="stroke:#000000;stroke-width:1.5;" width="652.5" x="359" y="412.4238"/><rect fill="none" height="80.582" style="stroke:#000000;stroke-width:1.5;" width="632.5" x="369" y="500.957"/><rect fill="none" height="310.9883" style="stroke:#000000;stroke-width:1.5;" width="857.5" x="446" y="770.9844"/><line style="stroke:#181818;stroke-width:0.5;stroke-dasharray:5.0,5.0;" x1="146" x2="146" y1="57.2422" y2="1168.5547"/><line style="stroke:#181818;stroke-width:0.5;stroke-dasharray:5.0,5.0;" x1="320" x2="320" y1="165.9453" y2="1168.5547"/><line style="stroke:#181818;stroke-width:0.5;stroke-dasharray:5.0,5.0;" x1="412" x2="412" y1="322.0605" y2="1168.5547"/><line style="stroke:#181818;stroke-width:0.5;stroke-dasharray:5.0,5.0;" x1="513" x2="513" y1="689.9316" y2="1168.5547"/><line style="stroke:#181818;stroke-width:0.5;stroke-dasharray:5.0,5.0;" x1="793.5" x2="793.5" y1="472.8359" y2="1168.5547"/><line style="stroke:#181818;stroke-width:0.5;stroke-dasharray:5.0,5.0;" x1="922.5" x2="922.5" y1="384.3027" y2="1168.5547"/><line style="stroke:#181818;stroke-width:0.5;stroke-dasharray:5.0,5.0;" x1="1081.5" x2="1081.5" y1="742.8633" y2="1168.5547"/><line style="stroke:#181818;stroke-width:0.5;stroke-dasharray:5.0,5.0;" x1="1232.5" x2="1232.5" y1="968.2695" y2="1168.5547"/><rect fill="#E3E3E3" height="32.6211" rx="2.5" ry="2.5" style="stroke:#181818;stroke-width:0.5;" width="158" x="67" y="23.6211"/><text fill="#000000" font-family="sans-serif" font-size="14" lengthAdjust="spacing" textLength="144" x="74" y="45.7285">:AssignTeamController</text><rect fill="#E3E3E3" height="32.6211" rx="2.5" ry="2.5" style="stroke:#181818;stroke-width:0.5;" width="158" x="67" y="1167.5547"/><text fill="#000000" font-family="sans-serif" font-size="14" lengthAdjust="spacing" textLength="144" x="74" y="1189.6621">:AssignTeamController</text><rect fill="#E3E3E3" height="51.2422" rx="2.5" ry="2.5" style="stroke:#181818;stroke-width:0.5;" width="97" x="272" y="1167.5547"/><text fill="#000000" font-family="sans-serif" font-size="14" lengthAdjust="spacing" textLength="74" x="283.5" y="1189.6621">repositories</text><text fill="#000000" font-family="sans-serif" font-size="14" lengthAdjust="spacing" textLength="83" x="279" y="1208.2832">:Repositories</text><rect fill="#E3E3E3" height="51.2422" rx="2.5" ry="2.5" style="stroke:#181818;stroke-width:0.5;" width="67" x="379" y="1167.5547"/><text fill="#000000" font-family="sans-serif" font-size="14" lengthAdjust="spacing" textLength="48" x="388.5" y="1189.6621">agenda</text><text fill="#000000" font-family="sans-serif" font-size="14" lengthAdjust="spacing" textLength="53" x="386" y="1208.2832">:Agenda</text><rect fill="#E3E3E3" height="32.6211" rx="2.5" ry="2.5" style="stroke:#181818;stroke-width:0.5;" width="115" x="456" y="1167.5547"/><text fill="#000000" font-family="sans-serif" font-size="14" lengthAdjust="spacing" textLength="101" x="463" y="1189.6621">:AgendaMapper</text><rect fill="#E3E3E3" height="51.2422" rx="2.5" ry="2.5" style="stroke:#181818;stroke-width:0.5;" width="100" x="743.5" y="1167.5547"/><text fill="#000000" font-family="sans-serif" font-size="14" lengthAdjust="spacing" textLength="81" x="753" y="1189.6621">agendaEntry</text><text fill="#000000" font-family="sans-serif" font-size="14" lengthAdjust="spacing" textLength="86" x="750.5" y="1208.2832">:AgendaEntry</text><rect fill="#E3E3E3" height="51.2422" rx="2.5" ry="2.5" style="stroke:#181818;stroke-width:0.5;" width="138" x="853.5" y="1167.5547"/><text fill="#000000" font-family="sans-serif" font-size="14" lengthAdjust="spacing" textLength="61" x="892" y="1189.6621">listEntries</text><text fill="#000000" font-family="sans-serif" font-size="14" lengthAdjust="spacing" textLength="124" x="860.5" y="1208.2832">:List&lt;AgendaEntry&gt;</text><rect fill="#E3E3E3" height="51.2422" rx="2.5" ry="2.5" style="stroke:#181818;stroke-width:0.5;" width="160" x="1001.5" y="1167.5547"/><text fill="#000000" font-family="sans-serif" font-size="14" lengthAdjust="spacing" textLength="114" x="1024.5" y="1189.6621">agendaEntriesDto</text><text fill="#000000" font-family="sans-serif" font-size="14" lengthAdjust="spacing" textLength="146" x="1008.5" y="1208.2832">:List&lt;AgendaEntryDto&gt;</text><rect fill="#E3E3E3" height="51.2422" rx="2.5" ry="2.5" style="stroke:#181818;stroke-width:0.5;" width="122" x="1171.5" y="1167.5547"/><text fill="#000000" font-family="sans-serif" font-size="14" lengthAdjust="spacing" textLength="103" x="1181" y="1189.6621">agendaEntryDto</text><text fill="#000000" font-family="sans-serif" font-size="14" lengthAdjust="spacing" textLength="108" x="1178.5" y="1208.2832">:AgendaEntryDto</text><rect fill="#FFFFFF" height="1060.0215" style="stroke:#181818;stroke-width:1.0;" width="10" x="141" y="90.5332"/><rect fill="#FFFFFF" height="52.2422" style="stroke:#181818;stroke-width:1.0;" width="10" x="315.5" y="158.1152"/><rect fill="#FFFFFF" height="31.291" style="stroke:#181818;stroke-width:1.0;" width="10" x="315.5" y="241.6484"/><rect fill="#FFFFFF" height="335.8906" style="stroke:#181818;stroke-width:1.0;" width="10" x="407.5" y="314.2305"/><rect fill="#FFFFFF" height="420.8516" style="stroke:#181818;stroke-width:1.0;" width="10" x="508.5" y="691.4121"/><rect fill="#FFFFFF" height="28" style="stroke:#181818;stroke-width:1.0;" width="10" x="513.5" y="884.1484"/><rect fill="#FFFFFF" height="242.3574" style="stroke:#181818;stroke-width:1.0;" width="10" x="917.5" y="376.4727"/><rect fill="#FFFFFF" height="30" style="stroke:#181818;stroke-width:1.0;" width="10" x="922.5" y="543.5391"/><rect fill="#FFFFFF" height="31.291" style="stroke:#181818;stroke-width:1.0;" width="10" x="917.5" y="813.5664"/><rect fill="#FFFFFF" height="30" style="stroke:#181818;stroke-width:1.0;" width="10" x="1076.5" y="1043.9727"/><rect fill="#FFFFFF" height="52.2422" style="stroke:#181818;stroke-width:1.0;" width="10" x="1227.5" y="960.4395"/><polygon fill="#181818" points="129,86.5332,139,90.5332,129,94.5332,133,90.5332" style="stroke:#181818;stroke-width:1.0;"/><line style="stroke:#181818;stroke-width:1.0;" x1="0" x2="135" y1="90.5332" y2="90.5332"/><text fill="#000000" font-family="sans-serif" font-size="13" font-weight="bold" lengthAdjust="spacing" textLength="7" x="7" y="85.2705">3</text><text fill="#000000" font-family="sans-serif" font-size="13" lengthAdjust="spacing" textLength="111" x="18" y="85.2705">getAgendaEntries()</text><path d="M57,105.5332 L286,105.5332 L286,114.8242 L276,124.8242 L57,124.8242 L57,105.5332 " fill="#EEEEEE" style="stroke:#000000;stroke-width:1.5;"/><rect fill="none" height="1014.7305" style="stroke:#000000;stroke-width:1.5;" width="1256.5" x="57" y="105.5332"/><text fill="#000000" font-family="sans-serif" font-size="13" font-weight="bold" lengthAdjust="spacing" textLength="184" x="72" y="120.5615">Get Agenda entries with DTO</text><polygon fill="#181818" points="260,144.1152,270,148.1152,260,152.1152,264,148.1152" style="stroke:#181818;stroke-width:1.0;"/><line style="stroke:#181818;stroke-width:1.0;" x1="151" x2="266" y1="148.1152" y2="148.1152"/><text fill="#000000" font-family="sans-serif" font-size="13" font-weight="bold" lengthAdjust="spacing" textLength="18" x="158" y="142.8525">3.1</text><text fill="#000000" font-family="sans-serif" font-size="13" lengthAdjust="spacing" textLength="75" x="180" y="142.8525">getInstance()</text><rect fill="#E3E3E3" height="51.2422" rx="2.5" ry="2.5" style="stroke:#181818;stroke-width:0.5;" width="97" x="272" y="124.8242"/><text fill="#000000" font-family="sans-serif" font-size="14" lengthAdjust="spacing" textLength="74" x="283.5" y="146.9316">repositories</text><text fill="#000000" font-family="sans-serif" font-size="14" lengthAdjust="spacing" textLength="83" x="279" y="165.5527">:Repositories</text><polygon fill="#181818" points="162,206.3574,152,210.3574,162,214.3574,158,210.3574" style="stroke:#181818;stroke-width:1.0;"/><line style="stroke:#181818;stroke-width:1.0;stroke-dasharray:2.0,2.0;" x1="156" x2="319.5" y1="210.3574" y2="210.3574"/><text fill="#000000" font-family="sans-serif" font-size="13" font-weight="bold" lengthAdjust="spacing" textLength="18" x="168" y="205.0947">3.2</text><text fill="#000000" font-family="sans-serif" font-size="13" lengthAdjust="spacing" textLength="67" x="190" y="205.0947">repositories</text><polygon fill="#181818" points="303.5,237.6484,313.5,241.6484,303.5,245.6484,307.5,241.6484" style="stroke:#181818;stroke-width:1.0;"/><line style="stroke:#181818;stroke-width:1.0;" x1="151" x2="309.5" y1="241.6484" y2="241.6484"/><text fill="#000000" font-family="sans-serif" font-size="13" font-weight="bold" lengthAdjust="spacing" textLength="18" x="158" y="236.3857">3.3</text><text fill="#000000" font-family="sans-serif" font-size="13" lengthAdjust="spacing" textLength="70" x="180" y="236.3857">getAgenda()</text><polygon fill="#181818" points="162,268.9395,152,272.9395,162,276.9395,158,272.9395" style="stroke:#181818;stroke-width:1.0;"/><line style="stroke:#181818;stroke-width:1.0;stroke-dasharray:2.0,2.0;" x1="156" x2="319.5" y1="272.9395" y2="272.9395"/><text fill="#000000" font-family="sans-serif" font-size="13" font-weight="bold" lengthAdjust="spacing" textLength="18" x="168" y="267.6768">3.4</text><text fill="#000000" font-family="sans-serif" font-size="13" lengthAdjust="spacing" textLength="42" x="190" y="267.6768">agenda</text><polygon fill="#181818" points="367,300.2305,377,304.2305,367,308.2305,371,304.2305" style="stroke:#181818;stroke-width:1.0;"/><line style="stroke:#181818;stroke-width:1.0;" x1="151" x2="373" y1="304.2305" y2="304.2305"/><text fill="#000000" font-family="sans-serif" font-size="13" font-weight="bold" lengthAdjust="spacing" textLength="18" x="158" y="298.9678">3.5</text><text fill="#000000" font-family="sans-serif" font-size="13" lengthAdjust="spacing" textLength="111" x="180" y="298.9678">getAgendaEntries()</text><rect fill="#E3E3E3" height="51.2422" rx="2.5" ry="2.5" style="stroke:#181818;stroke-width:0.5;" width="67" x="379" y="280.9395"/><text fill="#000000" font-family="sans-serif" font-size="14" lengthAdjust="spacing" textLength="48" x="388.5" y="303.0469">agenda</text><text fill="#000000" font-family="sans-serif" font-size="14" lengthAdjust="spacing" textLength="53" x="386" y="321.668">:Agenda</text><polygon fill="#181818" points="841.5,362.4727,851.5,366.4727,841.5,370.4727,845.5,366.4727" style="stroke:#181818;stroke-width:1.0;"/><line style="stroke:#181818;stroke-width:1.0;stroke-dasharray:2.0,2.0;" x1="417.5" x2="847.5" y1="366.4727" y2="366.4727"/><text fill="#000000" font-family="sans-serif" font-size="13" font-weight="bold" lengthAdjust="spacing" textLength="18" x="424.5" y="361.21">3.6</text><text fill="#000000" font-family="sans-serif" font-size="13" lengthAdjust="spacing" textLength="44" x="446.5" y="361.21">create()</text><rect fill="#E3E3E3" height="51.2422" rx="2.5" ry="2.5" style="stroke:#181818;stroke-width:0.5;" width="138" x="853.5" y="343.1816"/><text fill="#000000" font-family="sans-serif" font-size="14" lengthAdjust="spacing" textLength="61" x="892" y="365.2891">listEntries</text><text fill="#000000" font-family="sans-serif" font-size="14" lengthAdjust="spacing" textLength="124" x="860.5" y="383.9102">:List&lt;AgendaEntry&gt;</text><path d="M359,412.4238 L432,412.4238 L432,421.7148 L422,431.7148 L359,431.7148 L359,412.4238 " fill="#EEEEEE" style="stroke:#000000;stroke-width:1.5;"/><rect fill="none" height="176.1152" style="stroke:#000000;stroke-width:1.5;" width="652.5" x="359" y="412.4238"/><text fill="#000000" font-family="sans-serif" font-size="13" font-weight="bold" lengthAdjust="spacing" textLength="28" x="374" y="427.4521">loop</text><text fill="#000000" font-family="sans-serif" font-size="11" font-weight="bold" lengthAdjust="spacing" textLength="124" x="447" y="426.2939">[for each agendaEntry]</text><polygon fill="#181818" points="731.5,451.0059,741.5,455.0059,731.5,459.0059,735.5,455.0059" style="stroke:#181818;stroke-width:1.0;"/><line style="stroke:#181818;stroke-width:1.0;" x1="417.5" x2="737.5" y1="455.0059" y2="455.0059"/><text fill="#000000" font-family="sans-serif" font-size="13" font-weight="bold" lengthAdjust="spacing" textLength="18" x="424.5" y="449.7432">3.7</text><text fill="#000000" font-family="sans-serif" font-size="13" lengthAdjust="spacing" textLength="235" x="446.5" y="449.7432">b = validateAgendaEntryToAssignTeam()</text><rect fill="#E3E3E3" height="51.2422" rx="2.5" ry="2.5" style="stroke:#181818;stroke-width:0.5;" width="100" x="743.5" y="431.7148"/><text fill="#000000" font-family="sans-serif" font-size="14" lengthAdjust="spacing" textLength="81" x="753" y="453.8223">agendaEntry</text><text fill="#000000" font-family="sans-serif" font-size="14" lengthAdjust="spacing" textLength="86" x="750.5" y="472.4434">:AgendaEntry</text><path d="M369,500.957 L434,500.957 L434,510.248 L424,520.248 L369,520.248 L369,500.957 " fill="#EEEEEE" style="stroke:#000000;stroke-width:1.5;"/><rect fill="none" height="80.582" style="stroke:#000000;stroke-width:1.5;" width="632.5" x="369" y="500.957"/><text fill="#000000" font-family="sans-serif" font-size="13" font-weight="bold" lengthAdjust="spacing" textLength="20" x="384" y="515.9854">opt</text><text fill="#000000" font-family="sans-serif" font-size="11" font-weight="bold" lengthAdjust="spacing" textLength="56" x="449" y="514.8271">[b == true]</text><polygon fill="#181818" points="910.5,539.5391,920.5,543.5391,910.5,547.5391,914.5,543.5391" style="stroke:#181818;stroke-width:1.0;"/><line style="stroke:#181818;stroke-width:1.0;" x1="417.5" x2="916.5" y1="543.5391" y2="543.5391"/><text fill="#000000" font-family="sans-serif" font-size="13" font-weight="bold" lengthAdjust="spacing" textLength="18" x="424.5" y="538.2764">3.8</text><text fill="#000000" font-family="sans-serif" font-size="13" lengthAdjust="spacing" textLength="102" x="446.5" y="538.2764">add(agendaEntry)</text><polygon fill="#181818" points="428.5,614.8301,418.5,618.8301,428.5,622.8301,424.5,618.8301" style="stroke:#181818;stroke-width:1.0;"/><line style="stroke:#181818;stroke-width:1.0;stroke-dasharray:2.0,2.0;" x1="422.5" x2="921.5" y1="618.8301" y2="618.8301"/><text fill="#000000" font-family="sans-serif" font-size="13" font-weight="bold" lengthAdjust="spacing" textLength="18" x="434.5" y="613.5674">3.9</text><text fill="#000000" font-family="sans-serif" font-size="13" lengthAdjust="spacing" textLength="58" x="456.5" y="613.5674">listEntries</text><polygon fill="#181818" points="162,646.1211,152,650.1211,162,654.1211,158,650.1211" style="stroke:#181818;stroke-width:1.0;"/><line style="stroke:#181818;stroke-width:1.0;stroke-dasharray:2.0,2.0;" x1="156" x2="411.5" y1="650.1211" y2="650.1211"/><text fill="#000000" font-family="sans-serif" font-size="13" font-weight="bold" lengthAdjust="spacing" textLength="25" x="168" y="644.8584">3.10</text><text fill="#000000" font-family="sans-serif" font-size="13" lengthAdjust="spacing" textLength="58" x="197" y="644.8584">listEntries</text><polygon fill="#181818" points="444,677.4121,454,681.4121,444,685.4121,448,681.4121" style="stroke:#181818;stroke-width:1.0;"/><line style="stroke:#181818;stroke-width:1.0;" x1="151" x2="450" y1="681.4121" y2="681.4121"/><text fill="#000000" font-family="sans-serif" font-size="13" font-weight="bold" lengthAdjust="spacing" textLength="25" x="158" y="676.1494">3.11</text><text fill="#000000" font-family="sans-serif" font-size="13" lengthAdjust="spacing" textLength="183" x="187" y="676.1494">agendaEntriesToDto(listEntries)</text><rect fill="#E3E3E3" height="32.6211" rx="2.5" ry="2.5" style="stroke:#181818;stroke-width:0.5;" width="115" x="456" y="658.1211"/><text fill="#000000" font-family="sans-serif" font-size="14" lengthAdjust="spacing" textLength="101" x="463" y="680.2285">:AgendaMapper</text><polygon fill="#181818" points="989.5,721.0332,999.5,725.0332,989.5,729.0332,993.5,725.0332" style="stroke:#181818;stroke-width:1.0;"/><line style="stroke:#181818;stroke-width:1.0;stroke-dasharray:2.0,2.0;" x1="518.5" x2="995.5" y1="725.0332" y2="725.0332"/><text fill="#000000" font-family="sans-serif" font-size="13" font-weight="bold" lengthAdjust="spacing" textLength="25" x="525.5" y="719.7705">3.12</text><text fill="#000000" font-family="sans-serif" font-size="13" lengthAdjust="spacing" textLength="44" x="554.5" y="719.7705">create()</text><rect fill="#E3E3E3" height="51.2422" rx="2.5" ry="2.5" style="stroke:#181818;stroke-width:0.5;" width="160" x="1001.5" y="701.7422"/><text fill="#000000" font-family="sans-serif" font-size="14" lengthAdjust="spacing" textLength="114" x="1024.5" y="723.8496">agendaEntriesDto</text><text fill="#000000" font-family="sans-serif" font-size="14" lengthAdjust="spacing" textLength="146" x="1008.5" y="742.4707">:List&lt;AgendaEntryDto&gt;</text><path d="M446,770.9844 L519,770.9844 L519,780.2754 L509,790.2754 L446,790.2754 L446,770.9844 " fill="#EEEEEE" style="stroke:#000000;stroke-width:1.5;"/><rect fill="none" height="310.9883" style="stroke:#000000;stroke-width:1.5;" width="857.5" x="446" y="770.9844"/><text fill="#000000" font-family="sans-serif" font-size="13" font-weight="bold" lengthAdjust="spacing" textLength="28" x="461" y="786.0127">loop</text><text fill="#000000" font-family="sans-serif" font-size="11" font-weight="bold" lengthAdjust="spacing" textLength="124" x="534" y="784.8545">[for each agendaEntry]</text><polygon fill="#181818" points="905.5,809.5664,915.5,813.5664,905.5,817.5664,909.5,813.5664" style="stroke:#181818;stroke-width:1.0;"/><line style="stroke:#181818;stroke-width:1.0;" x1="518.5" x2="911.5" y1="813.5664" y2="813.5664"/><text fill="#000000" font-family="sans-serif" font-size="13" font-weight="bold" lengthAdjust="spacing" textLength="25" x="525.5" y="808.3037">3.13</text><text fill="#000000" font-family="sans-serif" font-size="13" lengthAdjust="spacing" textLength="29" x="554.5" y="808.3037">get(i)</text><polygon fill="#181818" points="529.5,840.8574,519.5,844.8574,529.5,848.8574,525.5,844.8574" style="stroke:#181818;stroke-width:1.0;"/><line style="stroke:#181818;stroke-width:1.0;stroke-dasharray:2.0,2.0;" x1="523.5" x2="921.5" y1="844.8574" y2="844.8574"/><text fill="#000000" font-family="sans-serif" font-size="13" font-weight="bold" lengthAdjust="spacing" textLength="25" x="535.5" y="839.5947">3.14</text><text fill="#000000" font-family="sans-serif" font-size="13" lengthAdjust="spacing" textLength="73" x="564.5" y="839.5947">agendaEntry</text><line style="stroke:#181818;stroke-width:1.0;" x1="523.5" x2="565.5" y1="876.1484" y2="876.1484"/><line style="stroke:#181818;stroke-width:1.0;" x1="565.5" x2="565.5" y1="876.1484" y2="889.1484"/><line style="stroke:#181818;stroke-width:1.0;" x1="524.5" x2="565.5" y1="889.1484" y2="889.1484"/><polygon fill="#181818" points="534.5,885.1484,524.5,889.1484,534.5,893.1484,530.5,889.1484" style="stroke:#181818;stroke-width:1.0;"/><text fill="#000000" font-family="sans-serif" font-size="13" font-weight="bold" lengthAdjust="spacing" textLength="25" x="530.5" y="870.8857">3.15</text><text fill="#000000" font-family="sans-serif" font-size="13" lengthAdjust="spacing" textLength="227" x="559.5" y="870.8857">agendaEntryDto = toDTO(agendaEntry)</text><polygon fill="#181818" points="1159.5,946.4395,1169.5,950.4395,1159.5,954.4395,1163.5,950.4395" style="stroke:#181818;stroke-width:1.0;"/><line style="stroke:#181818;stroke-width:1.0;stroke-dasharray:2.0,2.0;" x1="518.5" x2="1165.5" y1="950.4395" y2="950.4395"/><text fill="#000000" font-family="sans-serif" font-size="13" font-weight="bold" lengthAdjust="spacing" textLength="25" x="525.5" y="945.1768">3.16</text><text fill="#000000" font-family="sans-serif" font-size="13" lengthAdjust="spacing" textLength="44" x="554.5" y="945.1768">create()</text><rect fill="#E3E3E3" height="51.2422" rx="2.5" ry="2.5" style="stroke:#181818;stroke-width:0.5;" width="122" x="1171.5" y="927.1484"/><text fill="#000000" font-family="sans-serif" font-size="14" lengthAdjust="spacing" textLength="103" x="1181" y="949.2559">agendaEntryDto</text><text fill="#000000" font-family="sans-serif" font-size="14" lengthAdjust="spacing" textLength="108" x="1178.5" y="967.877">:AgendaEntryDto</text><polygon fill="#181818" points="529.5,1008.6816,519.5,1012.6816,529.5,1016.6816,525.5,1012.6816" style="stroke:#181818;stroke-width:1.0;"/><line style="stroke:#181818;stroke-width:1.0;stroke-dasharray:2.0,2.0;" x1="523.5" x2="1231.5" y1="1012.6816" y2="1012.6816"/><text fill="#000000" font-family="sans-serif" font-size="13" font-weight="bold" lengthAdjust="spacing" textLength="25" x="535.5" y="1007.4189">3.17</text><text fill="#000000" font-family="sans-serif" font-size="13" lengthAdjust="spacing" textLength="93" x="564.5" y="1007.4189">agendaEntryDto</text><polygon fill="#181818" points="1064.5,1039.9727,1074.5,1043.9727,1064.5,1047.9727,1068.5,1043.9727" style="stroke:#181818;stroke-width:1.0;"/><line style="stroke:#181818;stroke-width:1.0;" x1="518.5" x2="1070.5" y1="1043.9727" y2="1043.9727"/><text fill="#000000" font-family="sans-serif" font-size="13" font-weight="bold" lengthAdjust="spacing" textLength="25" x="525.5" y="1038.71">3.18</text><text fill="#000000" font-family="sans-serif" font-size="13" lengthAdjust="spacing" textLength="122" x="554.5" y="1038.71">add(agendaEntryDto)</text><polygon fill="#181818" points="162,1108.2637,152,1112.2637,162,1116.2637,158,1112.2637" style="stroke:#181818;stroke-width:1.0;"/><line style="stroke:#181818;stroke-width:1.0;stroke-dasharray:2.0,2.0;" x1="156" x2="512.5" y1="1112.2637" y2="1112.2637"/><text fill="#000000" font-family="sans-serif" font-size="13" font-weight="bold" lengthAdjust="spacing" textLength="25" x="168" y="1107.001">3.19</text><text fill="#000000" font-family="sans-serif" font-size="13" lengthAdjust="spacing" textLength="103" x="197" y="1107.001">agendaEntriesDto</text><polygon fill="#181818" points="11,1146.5547,1,1150.5547,11,1154.5547,7,1150.5547" style="stroke:#181818;stroke-width:1.0;"/><line style="stroke:#181818;stroke-width:1.0;stroke-dasharray:2.0,2.0;" x1="5" x2="145" y1="1150.5547" y2="1150.5547"/><text fill="#000000" font-family="sans-serif" font-size="13" font-weight="bold" lengthAdjust="spacing" textLength="7" x="17" y="1145.292">4</text><text fill="#000000" font-family="sans-serif" font-size="13" lengthAdjust="spacing" textLength="103" x="28" y="1145.292">agendaEntriesDto</text><!--SRC=[dLR1RgCm4Btp5QEUaaXPQRKzHMqarA0gKjf62PTAUt719LO9HiPfrR_VmQPa01F8-XJCl7dFCyyJYW-HvKon8nnb9gE3aaSEMfsuLzHlSXPzi8JlzNVAGV58ion9QK1nOB7y4ba2xomjkEVXjXQHo5ccuMRX5uL8if2puuFCj99fojKDi08Umjsc6QjuBWkXfHAy-9ijTkJH87R1jWb0NLdCCDGtFqoG_nWyh_os2FF-YULvHMwZdlpjDjYvSWOezRjER9u8BdWETwzDM2eANOPPwHjykYFOfG5lrlkmXAw3VHydmbTQEZBWxhAb0DEimfTUzJPFCqNx32NUOoSjizFnZIluuysNfZ4BIBZsgQp9j1dvwxV78Yq-cUQsbO0hKVAKmoFNOB70BHY-X3w0OODgbHX0DcpgR6Rerbc1veeuClq4rGnbw-lTSk46p6knr3brMCpTSC9CZlaVhBROe_bitMSpS1QtGruPkS5lzum4OYQJCb8SKIHH8ncrNYEYNAcKERnB1NY00n0BTI9_-9VKH8R-3UxXawKYHZRYkL2Uxt_f870icUiIVcydZolYJ4lEWQGiZYT4xjG9TjR05KZwDnIAbDspE3Ufu7bTDzHE1eOtGaMV3OovHcLp-QbhJpiIJKiRKocKE3ucXAPRx1PJDLmlDDH6aBASfrhJqiuSurthPcsR2U_aH4nxmUEkqd3hA_h5ACLZp73fXFsKs4syiLfYhOUlK7ztHmWVTiE08ruxVXYfyVmNTwbDpTY1Jc7PnfzvcD_Th_CrwCuu573L-QkFXAiqLvZnay_Pm6eojRzjlAkiKjEHJuzRit4td_TIa9JcqyJx1m00]--></g></svg>