<?xml version="1.0" encoding="us-ascii" standalone="no"?><svg xmlns="http://www.w3.org/2000/svg" xmlns:xlink="http://www.w3.org/1999/xlink" contentStyleType="text/css" height="948px" preserveAspectRatio="none" style="width:786px;height:948px;background:#FFFFFF;" version="1.1" viewBox="0 0 786 948" width="786px" zoomAndPan="magnify"><defs/><g><rect fill="#FFFFFF" height="716.877" style="stroke:#181818;stroke-width:1.0;" width="10" x="45" y="112.2422"/><rect fill="#FFFFFF" height="218.998" style="stroke:#181818;stroke-width:1.0;" width="10" x="333" y="135.5332"/><rect fill="#FFFFFF" height="175.377" style="stroke:#181818;stroke-width:1.0;" width="10" x="333" y="385.8223"/><rect fill="#FFFFFF" height="31.291" style="stroke:#181818;stroke-width:1.0;" width="10" x="333" y="592.4902"/><rect fill="#FFFFFF" height="174.0469" style="stroke:#181818;stroke-width:1.0;" width="10" x="333" y="655.0723"/><rect fill="#FFFFFF" height="95.5039" style="stroke:#181818;stroke-width:1.0;" width="10" x="596" y="210.4453"/><rect fill="#FFFFFF" height="95.5039" style="stroke:#181818;stroke-width:1.0;" width="10" x="596" y="417.1133"/><rect fill="#FFFFFF" height="111.4648" style="stroke:#181818;stroke-width:1.0;" width="10" x="596" y="686.3633"/><line style="stroke:#181818;stroke-width:0.5;stroke-dasharray:5.0,5.0;" x1="50" x2="50" y1="102.2422" y2="847.1191"/><line style="stroke:#181818;stroke-width:0.5;stroke-dasharray:5.0,5.0;" x1="338" x2="338" y1="102.2422" y2="847.1191"/><line style="stroke:#181818;stroke-width:0.5;stroke-dasharray:5.0,5.0;" x1="601" x2="601" y1="175.3438" y2="847.1191"/><text fill="#000000" font-family="sans-serif" font-size="14" lengthAdjust="spacing" textLength="84" x="5" y="80.1074">Green Space</text><text fill="#000000" font-family="sans-serif" font-size="14" lengthAdjust="spacing" textLength="56" x="21" y="98.7285">Manager</text><ellipse cx="50" cy="13.5" fill="#E3E3E3" rx="8" ry="8" style="stroke:#181818;stroke-width:0.5;"/><path d="M50,21.5 L50,48.5 M37,29.5 L63,29.5 M50,48.5 L37,63.5 M50,48.5 L63,63.5 " fill="none" style="stroke:#181818;stroke-width:0.5;"/><text fill="#000000" font-family="sans-serif" font-size="14" lengthAdjust="spacing" textLength="84" x="5" y="861.2266">Green Space</text><text fill="#000000" font-family="sans-serif" font-size="14" lengthAdjust="spacing" textLength="56" x="21" y="879.8477">Manager</text><ellipse cx="50" cy="891.8613" fill="#E3E3E3" rx="8" ry="8" style="stroke:#181818;stroke-width:0.5;"/><path d="M50,899.8613 L50,926.8613 M37,907.8613 L63,907.8613 M50,926.8613 L37,941.8613 M50,926.8613 L63,941.8613 " fill="none" style="stroke:#181818;stroke-width:0.5;"/><rect fill="#E3E3E3" height="32.6211" rx="2.5" ry="2.5" style="stroke:#181818;stroke-width:0.5;" width="108" x="284" y="68.6211"/><text fill="#000000" font-family="sans-serif" font-size="14" lengthAdjust="spacing" textLength="94" x="291" y="90.7285">:AssignTeamUI</text><rect fill="#E3E3E3" height="32.6211" rx="2.5" ry="2.5" style="stroke:#181818;stroke-width:0.5;" width="108" x="284" y="846.1191"/><text fill="#000000" font-family="sans-serif" font-size="14" lengthAdjust="spacing" textLength="94" x="291" y="868.2266">:AssignTeamUI</text><rect fill="#E3E3E3" height="32.6211" rx="2.5" ry="2.5" style="stroke:#181818;stroke-width:0.5;" width="158" x="522" y="846.1191"/><text fill="#000000" font-family="sans-serif" font-size="14" lengthAdjust="spacing" textLength="144" x="529" y="868.2266">:AssignTeamController</text><rect fill="#FFFFFF" height="716.877" style="stroke:#181818;stroke-width:1.0;" width="10" x="45" y="112.2422"/><rect fill="#FFFFFF" height="218.998" style="stroke:#181818;stroke-width:1.0;" width="10" x="333" y="135.5332"/><rect fill="#FFFFFF" height="175.377" style="stroke:#181818;stroke-width:1.0;" width="10" x="333" y="385.8223"/><rect fill="#FFFFFF" height="31.291" style="stroke:#181818;stroke-width:1.0;" width="10" x="333" y="592.4902"/><rect fill="#FFFFFF" height="174.0469" style="stroke:#181818;stroke-width:1.0;" width="10" x="333" y="655.0723"/><rect fill="#FFFFFF" height="95.5039" style="stroke:#181818;stroke-width:1.0;" width="10" x="596" y="210.4453"/><rect fill="#FFFFFF" height="95.5039" style="stroke:#181818;stroke-width:1.0;" width="10" x="596" y="417.1133"/><rect fill="#FFFFFF" height="111.4648" style="stroke:#181818;stroke-width:1.0;" width="10" x="596" y="686.3633"/><polygon fill="#181818" points="321,131.5332,331,135.5332,321,139.5332,325,135.5332" style="stroke:#181818;stroke-width:1.0;"/><line style="stroke:#181818;stroke-width:1.0;" x1="55" x2="327" y1="135.5332" y2="135.5332"/><text fill="#000000" font-family="sans-serif" font-size="13" font-weight="bold" lengthAdjust="spacing" textLength="7" x="62" y="130.2705">1</text><text fill="#000000" font-family="sans-serif" font-size="13" lengthAdjust="spacing" textLength="241" x="73" y="130.2705">asks to assign a team to an agenda entry</text><polygon fill="#181818" points="510,162.8242,520,166.8242,510,170.8242,514,166.8242" style="stroke:#181818;stroke-width:1.0;"/><line style="stroke:#181818;stroke-width:1.0;" x1="343" x2="516" y1="166.8242" y2="166.8242"/><text fill="#000000" font-family="sans-serif" font-size="13" font-weight="bold" lengthAdjust="spacing" textLength="7" x="350" y="161.5615">2</text><text fill="#000000" font-family="sans-serif" font-size="13" lengthAdjust="spacing" textLength="36" x="361" y="161.5615">create</text><rect fill="#E3E3E3" height="32.6211" rx="2.5" ry="2.5" style="stroke:#181818;stroke-width:0.5;" width="158" x="522" y="143.5332"/><text fill="#000000" font-family="sans-serif" font-size="14" lengthAdjust="spacing" textLength="144" x="529" y="165.6406">:AssignTeamController</text><polygon fill="#181818" points="584,206.4453,594,210.4453,584,214.4453,588,210.4453" style="stroke:#181818;stroke-width:1.0;"/><line style="stroke:#181818;stroke-width:1.0;" x1="343" x2="590" y1="210.4453" y2="210.4453"/><text fill="#000000" font-family="sans-serif" font-size="13" font-weight="bold" lengthAdjust="spacing" textLength="7" x="350" y="205.1826">3</text><text fill="#000000" font-family="sans-serif" font-size="13" lengthAdjust="spacing" textLength="111" x="361" y="205.1826">getAgendaEntries()</text><rect fill="none" height="59.2129" style="stroke:#000000;stroke-width:1.5;" width="166" x="519" y="218.4453"/><path d="M519,218.4453 L581,218.4453 L581,227.4453 L571,237.4453 L519,237.4453 L519,218.4453 " fill="#EEEEEE" style="stroke:#000000;stroke-width:2.0;"/><text fill="#000000" font-family="sans-serif" font-size="13" font-weight="bold" lengthAdjust="spacing" textLength="17" x="532" y="234.4736">ref</text><text fill="#000000" font-family="sans-serif" font-size="12" lengthAdjust="spacing" textLength="158" x="523" y="254.3945">Get Agenda entries with DTO</text><text fill="#000000" font-family="sans-serif" font-size="12" lengthAdjust="spacing" textLength="3" x="600.5" y="270.3555">&#160;</text><polygon fill="#181818" points="354,301.9492,344,305.9492,354,309.9492,350,305.9492" style="stroke:#181818;stroke-width:1.0;"/><line style="stroke:#181818;stroke-width:1.0;stroke-dasharray:2.0,2.0;" x1="348" x2="600" y1="305.9492" y2="305.9492"/><text fill="#000000" font-family="sans-serif" font-size="13" font-weight="bold" lengthAdjust="spacing" textLength="7" x="360" y="300.6865">4</text><text fill="#000000" font-family="sans-serif" font-size="13" lengthAdjust="spacing" textLength="103" x="371" y="300.6865">agendaEntriesDto</text><polygon fill="#181818" points="66,350.5313,56,354.5313,66,358.5313,62,354.5313" style="stroke:#181818;stroke-width:1.0;"/><line style="stroke:#181818;stroke-width:1.0;stroke-dasharray:2.0,2.0;" x1="60" x2="337" y1="354.5313" y2="354.5313"/><text fill="#000000" font-family="sans-serif" font-size="13" font-weight="bold" lengthAdjust="spacing" textLength="7" x="72" y="340.623">5</text><text fill="#000000" font-family="sans-serif" font-size="13" lengthAdjust="spacing" textLength="237" x="83" y="331.9775">shows all the agenda entries created and</text><text fill="#000000" font-family="sans-serif" font-size="13" lengthAdjust="spacing" textLength="132" x="83" y="349.2686">asks you to select one</text><polygon fill="#181818" points="321,381.8223,331,385.8223,321,389.8223,325,385.8223" style="stroke:#181818;stroke-width:1.0;"/><line style="stroke:#181818;stroke-width:1.0;" x1="55" x2="327" y1="385.8223" y2="385.8223"/><text fill="#000000" font-family="sans-serif" font-size="13" font-weight="bold" lengthAdjust="spacing" textLength="7" x="62" y="380.5596">6</text><text fill="#000000" font-family="sans-serif" font-size="13" lengthAdjust="spacing" textLength="139" x="73" y="380.5596">choose an agenda entry</text><polygon fill="#181818" points="584,413.1133,594,417.1133,584,421.1133,588,417.1133" style="stroke:#181818;stroke-width:1.0;"/><line style="stroke:#181818;stroke-width:1.0;" x1="343" x2="590" y1="417.1133" y2="417.1133"/><text fill="#000000" font-family="sans-serif" font-size="13" font-weight="bold" lengthAdjust="spacing" textLength="7" x="350" y="411.8506">7</text><text fill="#000000" font-family="sans-serif" font-size="13" lengthAdjust="spacing" textLength="187" x="361" y="411.8506">getValidTeams(agendaEntryDto)</text><rect fill="none" height="59.2129" style="stroke:#000000;stroke-width:1.5;" width="261" x="519" y="425.1133"/><path d="M519,425.1133 L581,425.1133 L581,434.1133 L571,444.1133 L519,444.1133 L519,425.1133 " fill="#EEEEEE" style="stroke:#000000;stroke-width:2.0;"/><text fill="#000000" font-family="sans-serif" font-size="13" font-weight="bold" lengthAdjust="spacing" textLength="17" x="532" y="441.1416">ref</text><text fill="#000000" font-family="sans-serif" font-size="12" lengthAdjust="spacing" textLength="253" x="523" y="461.0625">Get valid Teams for the Agenda entry with DTO</text><text fill="#000000" font-family="sans-serif" font-size="12" lengthAdjust="spacing" textLength="3" x="648" y="477.0234">&#160;</text><polygon fill="#181818" points="354,508.6172,344,512.6172,354,516.6172,350,512.6172" style="stroke:#181818;stroke-width:1.0;"/><line style="stroke:#181818;stroke-width:1.0;stroke-dasharray:2.0,2.0;" x1="348" x2="600" y1="512.6172" y2="512.6172"/><text fill="#000000" font-family="sans-serif" font-size="13" font-weight="bold" lengthAdjust="spacing" textLength="7" x="360" y="507.3545">8</text><text fill="#000000" font-family="sans-serif" font-size="13" lengthAdjust="spacing" textLength="56" x="371" y="507.3545">teamsDto</text><polygon fill="#181818" points="66,557.1992,56,561.1992,66,565.1992,62,561.1992" style="stroke:#181818;stroke-width:1.0;"/><line style="stroke:#181818;stroke-width:1.0;stroke-dasharray:2.0,2.0;" x1="60" x2="337" y1="561.1992" y2="561.1992"/><text fill="#000000" font-family="sans-serif" font-size="13" font-weight="bold" lengthAdjust="spacing" textLength="7" x="72" y="547.291">9</text><text fill="#000000" font-family="sans-serif" font-size="13" lengthAdjust="spacing" textLength="239" x="83" y="538.6455">shows all the teams available to carry out</text><text fill="#000000" font-family="sans-serif" font-size="13" lengthAdjust="spacing" textLength="212" x="83" y="555.9365">that task and asks you to select one</text><polygon fill="#181818" points="321,588.4902,331,592.4902,321,596.4902,325,592.4902" style="stroke:#181818;stroke-width:1.0;"/><line style="stroke:#181818;stroke-width:1.0;" x1="55" x2="327" y1="592.4902" y2="592.4902"/><text fill="#000000" font-family="sans-serif" font-size="13" font-weight="bold" lengthAdjust="spacing" textLength="14" x="62" y="587.2275">10</text><text fill="#000000" font-family="sans-serif" font-size="13" lengthAdjust="spacing" textLength="86" x="80" y="587.2275">choose a team</text><polygon fill="#181818" points="66,619.7813,56,623.7813,66,627.7813,62,623.7813" style="stroke:#181818;stroke-width:1.0;"/><line style="stroke:#181818;stroke-width:1.0;stroke-dasharray:2.0,2.0;" x1="60" x2="337" y1="623.7813" y2="623.7813"/><text fill="#000000" font-family="sans-serif" font-size="13" font-weight="bold" lengthAdjust="spacing" textLength="14" x="72" y="618.5186">11</text><text fill="#000000" font-family="sans-serif" font-size="13" lengthAdjust="spacing" textLength="236" x="90" y="618.5186">shows all data and requests confirmation</text><polygon fill="#181818" points="321,651.0723,331,655.0723,321,659.0723,325,655.0723" style="stroke:#181818;stroke-width:1.0;"/><line style="stroke:#181818;stroke-width:1.0;" x1="55" x2="327" y1="655.0723" y2="655.0723"/><text fill="#000000" font-family="sans-serif" font-size="13" font-weight="bold" lengthAdjust="spacing" textLength="14" x="62" y="649.8096">12</text><text fill="#000000" font-family="sans-serif" font-size="13" lengthAdjust="spacing" textLength="78" x="80" y="649.8096">confirms data</text><polygon fill="#181818" points="584,682.3633,594,686.3633,584,690.3633,588,686.3633" style="stroke:#181818;stroke-width:1.0;"/><line style="stroke:#181818;stroke-width:1.0;" x1="343" x2="590" y1="686.3633" y2="686.3633"/><text fill="#000000" font-family="sans-serif" font-size="13" font-weight="bold" lengthAdjust="spacing" textLength="14" x="350" y="681.1006">13</text><text fill="#000000" font-family="sans-serif" font-size="13" lengthAdjust="spacing" textLength="216" x="368" y="681.1006">assignTeamToAgendaEntry(teamDto)</text><rect fill="none" height="75.1738" style="stroke:#000000;stroke-width:1.5;" width="244" x="519" y="694.3633"/><path d="M519,694.3633 L581,694.3633 L581,703.3633 L571,713.3633 L519,713.3633 L519,694.3633 " fill="#EEEEEE" style="stroke:#000000;stroke-width:2.0;"/><text fill="#000000" font-family="sans-serif" font-size="13" font-weight="bold" lengthAdjust="spacing" textLength="17" x="532" y="710.3916">ref</text><text fill="#000000" font-family="sans-serif" font-size="12" lengthAdjust="spacing" textLength="233" x="523" y="730.3125">Assign Team to Agenda Entry and sending</text><text fill="#000000" font-family="sans-serif" font-size="12" lengthAdjust="spacing" textLength="191" x="545.5" y="746.2734">notifying e-mails to team members</text><text fill="#000000" font-family="sans-serif" font-size="12" lengthAdjust="spacing" textLength="3" x="639.5" y="762.2344">&#160;</text><polygon fill="#181818" points="354,793.8281,344,797.8281,354,801.8281,350,797.8281" style="stroke:#181818;stroke-width:1.0;"/><line style="stroke:#181818;stroke-width:1.0;stroke-dasharray:2.0,2.0;" x1="348" x2="600" y1="797.8281" y2="797.8281"/><text fill="#000000" font-family="sans-serif" font-size="13" font-weight="bold" lengthAdjust="spacing" textLength="14" x="360" y="792.5654">14</text><text fill="#000000" font-family="sans-serif" font-size="13" lengthAdjust="spacing" textLength="106" x="378" y="792.5654">operation success</text><polygon fill="#181818" points="61,825.1191,51,829.1191,61,833.1191,57,829.1191" style="stroke:#181818;stroke-width:1.0;"/><line style="stroke:#181818;stroke-width:1.0;stroke-dasharray:2.0,2.0;" x1="55" x2="337" y1="829.1191" y2="829.1191"/><text fill="#000000" font-family="sans-serif" font-size="13" font-weight="bold" lengthAdjust="spacing" textLength="14" x="67" y="823.8564">15</text><text fill="#000000" font-family="sans-serif" font-size="13" lengthAdjust="spacing" textLength="158" x="85" y="823.8564">displays operation success</text><!--SRC=[fLJDRk903Bxp51OdjX8lm64brAvGfQrMMkYUUd4Jaun8nkpO0UNjrpEX8L10RNSkoVZdi_tPOzaulyM0DTJiEIi3rmGQ6Xf9hzbYji62bjfM184oHLzKGmCfCUUzymMiiH8QZR1HzatzIi7-C-K0uqKWyh0qB7hny8JU4CCOK62nV1ePZhhCRT4hZ6Tp4LVu5M7z_9XCdX-lMjopry1LTG2xN_t-cMAw7Iebx17OiH-OVZSWc9dPHa3PlX444DHmai0k1VaSWGoqJOuzbEMG10PXG37EtPs1PO5CUwuoHK4wJs0_3CkHJBwTudMPmk44MWFlA7JYD-c25ER7Z0m5zavBU5ZzEhgQ-dX9mQTzfSC47fIJMKuNSeYfcrUaQMRzvBq0LXLeIKDAOW9TmRcHbSEBJrost4JwX2eR3c1Fvt7Uk1js8IkPXJxBUKVi7wnS7hilasE9hHNuHOvt4GyI8AnjMcFP0zxRpx4Un-dBR2Tdm1sw2b_jlHcl6GPBWHirlhL41JNM4___ptwATvdq6udcg9WI2FIt8L6R2lPh5sfKn_v3yJjxIL2tu_UDn_xHh_ZujDf9BA7l_Ot-Nv-1UBgLaeOWqdbeVugGIXMxnnLtukHPtRgDOfhMrhAqLz8wgIckFpcDVZ8qxmU7jnGIWo1Dbf58RtjnYjurA7UohR2LAq1dBHbSuvhy1m00]--></g></svg>