<?xml version="1.0" encoding="us-ascii" standalone="no"?><svg xmlns="http://www.w3.org/2000/svg" xmlns:xlink="http://www.w3.org/1999/xlink" contentStyleType="text/css" height="1660px" preserveAspectRatio="none" style="width:2531px;height:1660px;background:#FFFFFF;" version="1.1" viewBox="0 0 2531 1660" width="2531px" zoomAndPan="magnify"><defs/><g><!--cluster UI--><g id="cluster_UI"><path d="M436.5,6.0137 L451.5,6.0137 A3.75,3.75 0 0 1 454,8.5137 L461,30.6348 L585.5,30.6348 A2.5,2.5 0 0 1 588,33.1348 L588,104.5137 A2.5,2.5 0 0 1 585.5,107.0137 L436.5,107.0137 A2.5,2.5 0 0 1 434,104.5137 L434,8.5137 A2.5,2.5 0 0 1 436.5,6.0137 " fill="#DDDDDD" style="stroke:#000000;stroke-width:1.5;"/><line style="stroke:#000000;stroke-width:1.5;" x1="434" x2="461" y1="30.6348" y2="30.6348"/><text fill="#000000" font-family="sans-serif" font-size="14" font-weight="bold" lengthAdjust="spacing" textLength="14" x="438" y="23.1211">UI</text></g><!--cluster Controller--><g id="cluster_Controller"><path d="M323.5,140.0137 L395.5,140.0137 A3.75,3.75 0 0 1 398,142.5137 L405,164.6348 L698.5,164.6348 A2.5,2.5 0 0 1 701,167.1348 L701,350.5137 A2.5,2.5 0 0 1 698.5,353.0137 L323.5,353.0137 A2.5,2.5 0 0 1 321,350.5137 L321,142.5137 A2.5,2.5 0 0 1 323.5,140.0137 " fill="#DDDDDD" style="stroke:#000000;stroke-width:1.5;"/><line style="stroke:#000000;stroke-width:1.5;" x1="321" x2="405" y1="164.6348" y2="164.6348"/><text fill="#000000" font-family="sans-serif" font-size="14" font-weight="bold" lengthAdjust="spacing" textLength="71" x="325" y="157.1211">Controller</text></g><!--cluster Domain--><g id="cluster_Domain"><path d="M679.5,404.0137 L732.5,404.0137 A3.75,3.75 0 0 1 735,406.5137 L742,428.6348 L2521.5,428.6348 A2.5,2.5 0 0 1 2524,431.1348 L2524,1650.5137 A2.5,2.5 0 0 1 2521.5,1653.0137 L679.5,1653.0137 A2.5,2.5 0 0 1 677,1650.5137 L677,406.5137 A2.5,2.5 0 0 1 679.5,404.0137 " fill="#DDDDDD" style="stroke:#000000;stroke-width:1.5;"/><line style="stroke:#000000;stroke-width:1.5;" x1="677" x2="742" y1="428.6348" y2="428.6348"/><text fill="#000000" font-family="sans-serif" font-size="14" font-weight="bold" lengthAdjust="spacing" textLength="52" x="681" y="421.1211">Domain</text></g><!--cluster Repository--><g id="cluster_Repository"><path d="M1200.5,449.0137 L1277.5,449.0137 A3.75,3.75 0 0 1 1280,451.5137 L1287,473.6348 L1794.5,473.6348 A2.5,2.5 0 0 1 1797,476.1348 L1797,823.0137 A2.5,2.5 0 0 1 1794.5,825.5137 L1200.5,825.5137 A2.5,2.5 0 0 1 1198,823.0137 L1198,451.5137 A2.5,2.5 0 0 1 1200.5,449.0137 " fill="#DDDDDD" style="stroke:#000000;stroke-width:1.5;"/><line style="stroke:#000000;stroke-width:1.5;" x1="1198" x2="1287" y1="473.6348" y2="473.6348"/><text fill="#000000" font-family="sans-serif" font-size="14" font-weight="bold" lengthAdjust="spacing" textLength="76" x="1202" y="466.1211">Repository</text></g><!--cluster Mapper--><g id="cluster_Mapper"><path d="M703.5,696.5137 L758.5,696.5137 A3.75,3.75 0 0 1 761,699.0137 L768,721.1348 L1171.5,721.1348 A2.5,2.5 0 0 1 1174,723.6348 L1174,814.0137 A2.5,2.5 0 0 1 1171.5,816.5137 L703.5,816.5137 A2.5,2.5 0 0 1 701,814.0137 L701,699.0137 A2.5,2.5 0 0 1 703.5,696.5137 " fill="#DDDDDD" style="stroke:#000000;stroke-width:1.5;"/><line style="stroke:#000000;stroke-width:1.5;" x1="701" x2="768" y1="721.1348" y2="721.1348"/><text fill="#000000" font-family="sans-serif" font-size="14" font-weight="bold" lengthAdjust="spacing" textLength="54" x="705" y="713.6211">Mapper</text></g><!--cluster DTO--><g id="cluster_DTO"><path d="M883.5,486.0137 L913.5,486.0137 A3.75,3.75 0 0 1 916,488.5137 L923,510.6348 L1171.5,510.6348 A2.5,2.5 0 0 1 1174,513.1348 L1174,584.5137 A2.5,2.5 0 0 1 1171.5,587.0137 L883.5,587.0137 A2.5,2.5 0 0 1 881,584.5137 L881,488.5137 A2.5,2.5 0 0 1 883.5,486.0137 " fill="#DDDDDD" style="stroke:#000000;stroke-width:1.5;"/><line style="stroke:#000000;stroke-width:1.5;" x1="881" x2="923" y1="510.6348" y2="510.6348"/><text fill="#000000" font-family="sans-serif" font-size="14" font-weight="bold" lengthAdjust="spacing" textLength="29" x="885" y="503.1211">DTO</text></g><!--class AssignTeamUI--><g id="elem_AssignTeamUI"><rect codeLine="13" fill="#F1F1F1" height="48" id="AssignTeamUI" rx="2.5" ry="2.5" style="stroke:#181818;stroke-width:0.5;" width="122" x="450" y="43.0137"/><ellipse cx="465" cy="59.0137" fill="#ADD1B2" rx="11" ry="11" style="stroke:#181818;stroke-width:1.0;"/><path d="M467.7656,54.8887 Q467.9219,54.6699 468.1094,54.5605 Q468.2969,54.4512 468.5156,54.4512 Q468.8906,54.4512 469.125,54.7168 Q469.3594,54.9668 469.3594,55.5762 L469.3594,57.0293 Q469.3594,57.6387 469.125,57.9043 Q468.8906,58.1699 468.5156,58.1699 Q468.1719,58.1699 467.9688,57.9668 Q467.7656,57.7793 467.6563,57.2637 Q467.6094,56.9043 467.4219,56.7168 Q467.0938,56.3418 466.4844,56.123 Q465.875,55.9043 465.25,55.9043 Q464.4844,55.9043 463.8438,56.2324 Q463.2188,56.5605 462.7188,57.3105 Q462.2344,58.0605 462.2344,59.0918 L462.2344,60.1855 Q462.2344,61.4199 463.125,62.248 Q464.0156,63.0605 465.6094,63.0605 Q466.5469,63.0605 467.2031,62.8105 Q467.5938,62.6543 468.0156,62.2168 Q468.2813,61.9512 468.4219,61.873 Q468.5781,61.7949 468.7813,61.7949 Q469.1094,61.7949 469.3594,62.0605 Q469.625,62.3105 469.625,62.6543 Q469.625,62.998 469.2813,63.4043 Q468.7813,63.9824 467.9844,64.3105 Q466.9063,64.7637 465.6094,64.7637 Q464.0938,64.7637 462.8906,64.1387 Q461.9063,63.6387 461.2188,62.5762 Q460.5313,61.498 460.5313,60.2168 L460.5313,59.0605 Q460.5313,57.7324 461.1406,56.5918 Q461.7656,55.4355 462.8594,54.8262 Q463.9531,54.2012 465.1875,54.2012 Q465.9219,54.2012 466.5625,54.373 Q467.2188,54.5293 467.7656,54.8887 Z " fill="#000000"/><text fill="#000000" font-family="sans-serif" font-size="14" lengthAdjust="spacing" textLength="90" x="479" y="64.8105">AssignTeamUI</text><line style="stroke:#181818;stroke-width:0.5;" x1="451" x2="571" y1="75.0137" y2="75.0137"/><line style="stroke:#181818;stroke-width:0.5;" x1="451" x2="571" y1="83.0137" y2="83.0137"/></g><!--class AssignTeamController--><g id="elem_AssignTeamController"><rect codeLine="20" fill="#F1F1F1" height="159.7266" id="AssignTeamController" rx="2.5" ry="2.5" style="stroke:#181818;stroke-width:0.5;" width="347" x="337.5" y="177.0137"/><ellipse cx="436.75" cy="193.0137" fill="#ADD1B2" rx="11" ry="11" style="stroke:#181818;stroke-width:1.0;"/><path d="M439.5156,188.8887 Q439.6719,188.6699 439.8594,188.5605 Q440.0469,188.4512 440.2656,188.4512 Q440.6406,188.4512 440.875,188.7168 Q441.1094,188.9668 441.1094,189.5762 L441.1094,191.0293 Q441.1094,191.6387 440.875,191.9043 Q440.6406,192.1699 440.2656,192.1699 Q439.9219,192.1699 439.7188,191.9668 Q439.5156,191.7793 439.4063,191.2637 Q439.3594,190.9043 439.1719,190.7168 Q438.8438,190.3418 438.2344,190.123 Q437.625,189.9043 437,189.9043 Q436.2344,189.9043 435.5938,190.2324 Q434.9688,190.5605 434.4688,191.3105 Q433.9844,192.0605 433.9844,193.0918 L433.9844,194.1855 Q433.9844,195.4199 434.875,196.248 Q435.7656,197.0605 437.3594,197.0605 Q438.2969,197.0605 438.9531,196.8105 Q439.3438,196.6543 439.7656,196.2168 Q440.0313,195.9512 440.1719,195.873 Q440.3281,195.7949 440.5313,195.7949 Q440.8594,195.7949 441.1094,196.0605 Q441.375,196.3105 441.375,196.6543 Q441.375,196.998 441.0313,197.4043 Q440.5313,197.9824 439.7344,198.3105 Q438.6563,198.7637 437.3594,198.7637 Q435.8438,198.7637 434.6406,198.1387 Q433.6563,197.6387 432.9688,196.5762 Q432.2813,195.498 432.2813,194.2168 L432.2813,193.0605 Q432.2813,191.7324 432.8906,190.5918 Q433.5156,189.4355 434.6094,188.8262 Q435.7031,188.2012 436.9375,188.2012 Q437.6719,188.2012 438.3125,188.373 Q438.9688,188.5293 439.5156,188.8887 Z " fill="#000000"/><text fill="#000000" font-family="sans-serif" font-size="14" lengthAdjust="spacing" textLength="140" x="457.25" y="198.8105">AssignTeamController</text><line style="stroke:#181818;stroke-width:0.5;" x1="338.5" x2="683.5" y1="209.0137" y2="209.0137"/><line style="stroke:#181818;stroke-width:0.5;" x1="338.5" x2="683.5" y1="217.0137" y2="217.0137"/><text fill="#000000" font-family="sans-serif" font-size="14" lengthAdjust="spacing" textLength="313" x="343.5" y="236.1211">+AssignTeamController(agenda, teamRepository)</text><text fill="#000000" font-family="sans-serif" font-size="14" lengthAdjust="spacing" textLength="131" x="343.5" y="254.7422">+getAgendaEntries()</text><text fill="#000000" font-family="sans-serif" font-size="14" lengthAdjust="spacing" textLength="215" x="343.5" y="273.3633">+getValidTeams(agendaEntryDto)</text><text fill="#000000" font-family="sans-serif" font-size="14" lengthAdjust="spacing" textLength="98" x="343.5" y="291.9844">+toDomain(dto)</text><text fill="#000000" font-family="sans-serif" font-size="14" lengthAdjust="spacing" textLength="247" x="343.5" y="310.6055">+assignTeamToAgendaEntry(teamDto)</text><text fill="#000000" font-family="sans-serif" font-size="14" lengthAdjust="spacing" textLength="335" x="343.5" y="329.2266">+sendEmailToTeamMembers(teamDto, emailService)</text></g><!--class Entry--><g id="elem_Entry"><rect codeLine="75" fill="#F1F1F1" height="85.2422" id="Entry" rx="2.5" ry="2.5" style="stroke:#181818;stroke-width:0.5;" width="186" x="2287" y="504.5137"/><ellipse cx="2359.25" cy="520.5137" fill="#ADD1B2" rx="11" ry="11" style="stroke:#181818;stroke-width:1.0;"/><path d="M2362.0156,516.3887 Q2362.1719,516.1699 2362.3594,516.0605 Q2362.5469,515.9512 2362.7656,515.9512 Q2363.1406,515.9512 2363.375,516.2168 Q2363.6094,516.4668 2363.6094,517.0762 L2363.6094,518.5293 Q2363.6094,519.1387 2363.375,519.4043 Q2363.1406,519.6699 2362.7656,519.6699 Q2362.4219,519.6699 2362.2188,519.4668 Q2362.0156,519.2793 2361.9063,518.7637 Q2361.8594,518.4043 2361.6719,518.2168 Q2361.3438,517.8418 2360.7344,517.623 Q2360.125,517.4043 2359.5,517.4043 Q2358.7344,517.4043 2358.0938,517.7324 Q2357.4688,518.0605 2356.9688,518.8105 Q2356.4844,519.5605 2356.4844,520.5918 L2356.4844,521.6855 Q2356.4844,522.9199 2357.375,523.748 Q2358.2656,524.5605 2359.8594,524.5605 Q2360.7969,524.5605 2361.4531,524.3105 Q2361.8438,524.1543 2362.2656,523.7168 Q2362.5313,523.4512 2362.6719,523.373 Q2362.8281,523.2949 2363.0313,523.2949 Q2363.3594,523.2949 2363.6094,523.5605 Q2363.875,523.8105 2363.875,524.1543 Q2363.875,524.498 2363.5313,524.9043 Q2363.0313,525.4824 2362.2344,525.8105 Q2361.1563,526.2637 2359.8594,526.2637 Q2358.3438,526.2637 2357.1406,525.6387 Q2356.1563,525.1387 2355.4688,524.0762 Q2354.7813,522.998 2354.7813,521.7168 L2354.7813,520.5605 Q2354.7813,519.2324 2355.3906,518.0918 Q2356.0156,516.9355 2357.1094,516.3262 Q2358.2031,515.7012 2359.4375,515.7012 Q2360.1719,515.7012 2360.8125,515.873 Q2361.4688,516.0293 2362.0156,516.3887 Z " fill="#000000"/><text fill="#000000" font-family="sans-serif" font-size="14" lengthAdjust="spacing" textLength="33" x="2379.75" y="526.3105">Entry</text><line style="stroke:#181818;stroke-width:0.5;" x1="2288" x2="2472" y1="536.5137" y2="536.5137"/><text fill="#000000" font-family="sans-serif" font-size="14" lengthAdjust="spacing" textLength="74" x="2293" y="555.6211">-task : Task</text><text fill="#000000" font-family="sans-serif" font-size="14" lengthAdjust="spacing" textLength="174" x="2293" y="574.2422">-greenSpace : GreenSpace</text><line style="stroke:#181818;stroke-width:0.5;" x1="2288" x2="2472" y1="581.7559" y2="581.7559"/></g><!--class AgendaEntry--><g id="elem_AgendaEntry"><rect codeLine="80" fill="#F1F1F1" height="159.7266" id="AgendaEntry" rx="2.5" ry="2.5" style="stroke:#181818;stroke-width:0.5;" width="256" x="2252" y="687.0137"/><ellipse cx="2334.75" cy="703.0137" fill="#ADD1B2" rx="11" ry="11" style="stroke:#181818;stroke-width:1.0;"/><path d="M2337.5156,698.8887 Q2337.6719,698.6699 2337.8594,698.5605 Q2338.0469,698.4512 2338.2656,698.4512 Q2338.6406,698.4512 2338.875,698.7168 Q2339.1094,698.9668 2339.1094,699.5762 L2339.1094,701.0293 Q2339.1094,701.6387 2338.875,701.9043 Q2338.6406,702.1699 2338.2656,702.1699 Q2337.9219,702.1699 2337.7188,701.9668 Q2337.5156,701.7793 2337.4063,701.2637 Q2337.3594,700.9043 2337.1719,700.7168 Q2336.8438,700.3418 2336.2344,700.123 Q2335.625,699.9043 2335,699.9043 Q2334.2344,699.9043 2333.5938,700.2324 Q2332.9688,700.5605 2332.4688,701.3105 Q2331.9844,702.0605 2331.9844,703.0918 L2331.9844,704.1855 Q2331.9844,705.4199 2332.875,706.248 Q2333.7656,707.0605 2335.3594,707.0605 Q2336.2969,707.0605 2336.9531,706.8105 Q2337.3438,706.6543 2337.7656,706.2168 Q2338.0313,705.9512 2338.1719,705.873 Q2338.3281,705.7949 2338.5313,705.7949 Q2338.8594,705.7949 2339.1094,706.0605 Q2339.375,706.3105 2339.375,706.6543 Q2339.375,706.998 2339.0313,707.4043 Q2338.5313,707.9824 2337.7344,708.3105 Q2336.6563,708.7637 2335.3594,708.7637 Q2333.8438,708.7637 2332.6406,708.1387 Q2331.6563,707.6387 2330.9688,706.5762 Q2330.2813,705.498 2330.2813,704.2168 L2330.2813,703.0605 Q2330.2813,701.7324 2330.8906,700.5918 Q2331.5156,699.4355 2332.6094,698.8262 Q2333.7031,698.2012 2334.9375,698.2012 Q2335.6719,698.2012 2336.3125,698.373 Q2336.9688,698.5293 2337.5156,698.8887 Z " fill="#000000"/><text fill="#000000" font-family="sans-serif" font-size="14" lengthAdjust="spacing" textLength="82" x="2355.25" y="708.8105">AgendaEntry</text><line style="stroke:#181818;stroke-width:0.5;" x1="2253" x2="2507" y1="719.0137" y2="719.0137"/><text fill="#000000" font-family="sans-serif" font-size="14" lengthAdjust="spacing" textLength="105" x="2258" y="738.1211">-startDate : Date</text><text fill="#000000" font-family="sans-serif" font-size="14" lengthAdjust="spacing" textLength="101" x="2258" y="756.7422">-endDate : Date</text><text fill="#000000" font-family="sans-serif" font-size="14" lengthAdjust="spacing" textLength="90" x="2258" y="775.3633">-status : enum</text><text fill="#000000" font-family="sans-serif" font-size="14" lengthAdjust="spacing" textLength="84" x="2258" y="793.9844">-team : Team</text><line style="stroke:#181818;stroke-width:0.5;" x1="2253" x2="2507" y1="801.498" y2="801.498"/><text fill="#000000" font-family="sans-serif" font-size="14" lengthAdjust="spacing" textLength="244" x="2258" y="820.6055">+validateAgendaEntryToAssignTeam()</text><text fill="#000000" font-family="sans-serif" font-size="14" lengthAdjust="spacing" textLength="126" x="2258" y="839.2266">+assignTeam(team)</text></g><!--class Team--><g id="elem_Team"><rect codeLine="89" fill="#F1F1F1" height="141.1055" id="Team" rx="2.5" ry="2.5" style="stroke:#181818;stroke-width:0.5;" width="404" x="1385" y="926.0137"/><ellipse cx="1564.75" cy="942.0137" fill="#ADD1B2" rx="11" ry="11" style="stroke:#181818;stroke-width:1.0;"/><path d="M1567.5156,937.8887 Q1567.6719,937.6699 1567.8594,937.5605 Q1568.0469,937.4512 1568.2656,937.4512 Q1568.6406,937.4512 1568.875,937.7168 Q1569.1094,937.9668 1569.1094,938.5762 L1569.1094,940.0293 Q1569.1094,940.6387 1568.875,940.9043 Q1568.6406,941.1699 1568.2656,941.1699 Q1567.9219,941.1699 1567.7188,940.9668 Q1567.5156,940.7793 1567.4063,940.2637 Q1567.3594,939.9043 1567.1719,939.7168 Q1566.8438,939.3418 1566.2344,939.123 Q1565.625,938.9043 1565,938.9043 Q1564.2344,938.9043 1563.5938,939.2324 Q1562.9688,939.5605 1562.4688,940.3105 Q1561.9844,941.0605 1561.9844,942.0918 L1561.9844,943.1855 Q1561.9844,944.4199 1562.875,945.248 Q1563.7656,946.0605 1565.3594,946.0605 Q1566.2969,946.0605 1566.9531,945.8105 Q1567.3438,945.6543 1567.7656,945.2168 Q1568.0313,944.9512 1568.1719,944.873 Q1568.3281,944.7949 1568.5313,944.7949 Q1568.8594,944.7949 1569.1094,945.0605 Q1569.375,945.3105 1569.375,945.6543 Q1569.375,945.998 1569.0313,946.4043 Q1568.5313,946.9824 1567.7344,947.3105 Q1566.6563,947.7637 1565.3594,947.7637 Q1563.8438,947.7637 1562.6406,947.1387 Q1561.6563,946.6387 1560.9688,945.5762 Q1560.2813,944.498 1560.2813,943.2168 L1560.2813,942.0605 Q1560.2813,940.7324 1560.8906,939.5918 Q1561.5156,938.4355 1562.6094,937.8262 Q1563.7031,937.2012 1564.9375,937.2012 Q1565.6719,937.2012 1566.3125,937.373 Q1566.9688,937.5293 1567.5156,937.8887 Z " fill="#000000"/><text fill="#000000" font-family="sans-serif" font-size="14" lengthAdjust="spacing" textLength="36" x="1585.25" y="947.8105">Team</text><line style="stroke:#181818;stroke-width:0.5;" x1="1386" x2="1788" y1="958.0137" y2="958.0137"/><text fill="#000000" font-family="sans-serif" font-size="14" lengthAdjust="spacing" textLength="191" x="1391" y="977.1211">-members : List&lt;Collaborator&gt;</text><line style="stroke:#181818;stroke-width:0.5;" x1="1386" x2="1788" y1="984.6348" y2="984.6348"/><text fill="#000000" font-family="sans-serif" font-size="14" lengthAdjust="spacing" textLength="392" x="1391" y="1003.7422">+validateTeamToBeAssignedToAnAgendaEntry(agendaEntry)</text><text fill="#000000" font-family="sans-serif" font-size="14" lengthAdjust="spacing" textLength="141" x="1391" y="1022.3633">+assignAgendaEntry()</text><text fill="#000000" font-family="sans-serif" font-size="14" lengthAdjust="spacing" textLength="140" x="1391" y="1040.9844">+blockTeamAtATime()</text><text fill="#000000" font-family="sans-serif" font-size="14" lengthAdjust="spacing" textLength="96" x="1391" y="1059.6055">+getMembers()</text></g><!--class Collaborator--><g id="elem_Collaborator"><rect codeLine="97" fill="#F1F1F1" height="327.3164" id="Collaborator" rx="2.5" ry="2.5" style="stroke:#181818;stroke-width:0.5;" width="601" x="1032.5" y="1146.0137"/><ellipse cx="1289.75" cy="1162.0137" fill="#ADD1B2" rx="11" ry="11" style="stroke:#181818;stroke-width:1.0;"/><path d="M1292.5156,1157.8887 Q1292.6719,1157.6699 1292.8594,1157.5605 Q1293.0469,1157.4512 1293.2656,1157.4512 Q1293.6406,1157.4512 1293.875,1157.7168 Q1294.1094,1157.9668 1294.1094,1158.5762 L1294.1094,1160.0293 Q1294.1094,1160.6387 1293.875,1160.9043 Q1293.6406,1161.1699 1293.2656,1161.1699 Q1292.9219,1161.1699 1292.7188,1160.9668 Q1292.5156,1160.7793 1292.4063,1160.2637 Q1292.3594,1159.9043 1292.1719,1159.7168 Q1291.8438,1159.3418 1291.2344,1159.123 Q1290.625,1158.9043 1290,1158.9043 Q1289.2344,1158.9043 1288.5938,1159.2324 Q1287.9688,1159.5605 1287.4688,1160.3105 Q1286.9844,1161.0605 1286.9844,1162.0918 L1286.9844,1163.1855 Q1286.9844,1164.4199 1287.875,1165.248 Q1288.7656,1166.0605 1290.3594,1166.0605 Q1291.2969,1166.0605 1291.9531,1165.8105 Q1292.3438,1165.6543 1292.7656,1165.2168 Q1293.0313,1164.9512 1293.1719,1164.873 Q1293.3281,1164.7949 1293.5313,1164.7949 Q1293.8594,1164.7949 1294.1094,1165.0605 Q1294.375,1165.3105 1294.375,1165.6543 Q1294.375,1165.998 1294.0313,1166.4043 Q1293.5313,1166.9824 1292.7344,1167.3105 Q1291.6563,1167.7637 1290.3594,1167.7637 Q1288.8438,1167.7637 1287.6406,1167.1387 Q1286.6563,1166.6387 1285.9688,1165.5762 Q1285.2813,1164.498 1285.2813,1163.2168 L1285.2813,1162.0605 Q1285.2813,1160.7324 1285.8906,1159.5918 Q1286.5156,1158.4355 1287.6094,1157.8262 Q1288.7031,1157.2012 1289.9375,1157.2012 Q1290.6719,1157.2012 1291.3125,1157.373 Q1291.9688,1157.5293 1292.5156,1157.8887 Z " fill="#000000"/><text fill="#000000" font-family="sans-serif" font-size="14" lengthAdjust="spacing" textLength="78" x="1310.25" y="1167.8105">Collaborator</text><line style="stroke:#181818;stroke-width:0.5;" x1="1033.5" x2="1632.5" y1="1178.0137" y2="1178.0137"/><text fill="#000000" font-family="sans-serif" font-size="14" lengthAdjust="spacing" textLength="89" x="1038.5" y="1197.1211">-name : String</text><text fill="#000000" font-family="sans-serif" font-size="14" lengthAdjust="spacing" textLength="105" x="1038.5" y="1215.7422">-birthDate : Date</text><text fill="#000000" font-family="sans-serif" font-size="14" lengthAdjust="spacing" textLength="140" x="1038.5" y="1234.3633">-admissionDate : Date</text><text fill="#000000" font-family="sans-serif" font-size="14" lengthAdjust="spacing" textLength="105" x="1038.5" y="1252.9844">-address : String</text><text fill="#000000" font-family="sans-serif" font-size="14" lengthAdjust="spacing" textLength="95" x="1038.5" y="1271.6055">-mobile : String</text><text fill="#000000" font-family="sans-serif" font-size="14" lengthAdjust="spacing" textLength="87" x="1038.5" y="1290.2266">-email : String</text><text fill="#000000" font-family="sans-serif" font-size="14" lengthAdjust="spacing" textLength="158" x="1038.5" y="1308.8477">-taxPayerNumber : String</text><text fill="#000000" font-family="sans-serif" font-size="14" lengthAdjust="spacing" textLength="159" x="1038.5" y="1327.4688">-idDocumentType : enum</text><text fill="#000000" font-family="sans-serif" font-size="14" lengthAdjust="spacing" textLength="178" x="1038.5" y="1346.0898">-idDocumentNumber : String</text><text fill="#000000" font-family="sans-serif" font-size="14" lengthAdjust="spacing" textLength="58" x="1038.5" y="1364.7109">-job : Job</text><text fill="#000000" font-family="sans-serif" font-size="14" lengthAdjust="spacing" textLength="124" x="1038.5" y="1383.332">-skillSet : List&lt;Skill&gt;</text><text fill="#000000" font-family="sans-serif" font-size="14" lengthAdjust="spacing" textLength="198" x="1038.5" y="1401.9531">-typeCollaboratorEmails : enum</text><line style="stroke:#181818;stroke-width:0.5;" x1="1033.5" x2="1632.5" y1="1409.4668" y2="1409.4668"/><text fill="#000000" font-family="sans-serif" font-size="14" lengthAdjust="spacing" textLength="446" x="1038.5" y="1428.5742">+Collaborator(name, birthDate, admissionDate, address, mobile, email,</text><text fill="#000000" font-family="sans-serif" font-size="14" lengthAdjust="spacing" textLength="589" x="1038.5" y="1447.1953">taxPayerNumber, idDocumentType, idDocumentNumber, job, skillSet, typeCollaboratorEmails)</text><text fill="#000000" font-family="sans-serif" font-size="14" lengthAdjust="spacing" textLength="72" x="1038.5" y="1465.8164">+getEmail()</text></g><!--class EmailService--><g id="elem_EmailService"><rect codeLine="114" fill="#F1F1F1" height="85.2422" id="EmailService" rx="2.5" ry="2.5" style="stroke:#181818;stroke-width:0.5;" width="264" x="947" y="1552.0137"/><ellipse cx="1034.25" cy="1568.0137" fill="#ADD1B2" rx="11" ry="11" style="stroke:#181818;stroke-width:1.0;"/><path d="M1037.0156,1563.8887 Q1037.1719,1563.6699 1037.3594,1563.5605 Q1037.5469,1563.4512 1037.7656,1563.4512 Q1038.1406,1563.4512 1038.375,1563.7168 Q1038.6094,1563.9668 1038.6094,1564.5762 L1038.6094,1566.0293 Q1038.6094,1566.6387 1038.375,1566.9043 Q1038.1406,1567.1699 1037.7656,1567.1699 Q1037.4219,1567.1699 1037.2188,1566.9668 Q1037.0156,1566.7793 1036.9063,1566.2637 Q1036.8594,1565.9043 1036.6719,1565.7168 Q1036.3438,1565.3418 1035.7344,1565.123 Q1035.125,1564.9043 1034.5,1564.9043 Q1033.7344,1564.9043 1033.0938,1565.2324 Q1032.4688,1565.5605 1031.9688,1566.3105 Q1031.4844,1567.0605 1031.4844,1568.0918 L1031.4844,1569.1855 Q1031.4844,1570.4199 1032.375,1571.248 Q1033.2656,1572.0605 1034.8594,1572.0605 Q1035.7969,1572.0605 1036.4531,1571.8105 Q1036.8438,1571.6543 1037.2656,1571.2168 Q1037.5313,1570.9512 1037.6719,1570.873 Q1037.8281,1570.7949 1038.0313,1570.7949 Q1038.3594,1570.7949 1038.6094,1571.0605 Q1038.875,1571.3105 1038.875,1571.6543 Q1038.875,1571.998 1038.5313,1572.4043 Q1038.0313,1572.9824 1037.2344,1573.3105 Q1036.1563,1573.7637 1034.8594,1573.7637 Q1033.3438,1573.7637 1032.1406,1573.1387 Q1031.1563,1572.6387 1030.4688,1571.5762 Q1029.7813,1570.498 1029.7813,1569.2168 L1029.7813,1568.0605 Q1029.7813,1566.7324 1030.3906,1565.5918 Q1031.0156,1564.4355 1032.1094,1563.8262 Q1033.2031,1563.2012 1034.4375,1563.2012 Q1035.1719,1563.2012 1035.8125,1563.373 Q1036.4688,1563.5293 1037.0156,1563.8887 Z " fill="#000000"/><text fill="#000000" font-family="sans-serif" font-size="14" lengthAdjust="spacing" textLength="81" x="1054.75" y="1573.8105">EmailService</text><line style="stroke:#181818;stroke-width:0.5;" x1="948" x2="1210" y1="1584.0137" y2="1584.0137"/><line style="stroke:#181818;stroke-width:0.5;" x1="948" x2="1210" y1="1592.0137" y2="1592.0137"/><text fill="#000000" font-family="sans-serif" font-size="14" lengthAdjust="spacing" textLength="252" x="953" y="1611.1211">+sendEmailToTeamMembers(members)</text><text fill="#000000" font-family="sans-serif" font-size="14" lengthAdjust="spacing" textLength="116" x="953" y="1629.7422">+sendEmail(email)</text></g><!--class GreenSpace--><g id="elem_GreenSpace"><rect codeLine="119" fill="#F1F1F1" height="141.1055" id="GreenSpace" rx="2.5" ry="2.5" style="stroke:#181818;stroke-width:0.5;" width="276" x="1909" y="926.0137"/><ellipse cx="2002.75" cy="942.0137" fill="#ADD1B2" rx="11" ry="11" style="stroke:#181818;stroke-width:1.0;"/><path d="M2005.5156,937.8887 Q2005.6719,937.6699 2005.8594,937.5605 Q2006.0469,937.4512 2006.2656,937.4512 Q2006.6406,937.4512 2006.875,937.7168 Q2007.1094,937.9668 2007.1094,938.5762 L2007.1094,940.0293 Q2007.1094,940.6387 2006.875,940.9043 Q2006.6406,941.1699 2006.2656,941.1699 Q2005.9219,941.1699 2005.7188,940.9668 Q2005.5156,940.7793 2005.4063,940.2637 Q2005.3594,939.9043 2005.1719,939.7168 Q2004.8438,939.3418 2004.2344,939.123 Q2003.625,938.9043 2003,938.9043 Q2002.2344,938.9043 2001.5938,939.2324 Q2000.9688,939.5605 2000.4688,940.3105 Q1999.9844,941.0605 1999.9844,942.0918 L1999.9844,943.1855 Q1999.9844,944.4199 2000.875,945.248 Q2001.7656,946.0605 2003.3594,946.0605 Q2004.2969,946.0605 2004.9531,945.8105 Q2005.3438,945.6543 2005.7656,945.2168 Q2006.0313,944.9512 2006.1719,944.873 Q2006.3281,944.7949 2006.5313,944.7949 Q2006.8594,944.7949 2007.1094,945.0605 Q2007.375,945.3105 2007.375,945.6543 Q2007.375,945.998 2007.0313,946.4043 Q2006.5313,946.9824 2005.7344,947.3105 Q2004.6563,947.7637 2003.3594,947.7637 Q2001.8438,947.7637 2000.6406,947.1387 Q1999.6563,946.6387 1998.9688,945.5762 Q1998.2813,944.498 1998.2813,943.2168 L1998.2813,942.0605 Q1998.2813,940.7324 1998.8906,939.5918 Q1999.5156,938.4355 2000.6094,937.8262 Q2001.7031,937.2012 2002.9375,937.2012 Q2003.6719,937.2012 2004.3125,937.373 Q2004.9688,937.5293 2005.5156,937.8887 Z " fill="#000000"/><text fill="#000000" font-family="sans-serif" font-size="14" lengthAdjust="spacing" textLength="80" x="2023.25" y="947.8105">GreenSpace</text><line style="stroke:#181818;stroke-width:0.5;" x1="1910" x2="2184" y1="958.0137" y2="958.0137"/><text fill="#000000" font-family="sans-serif" font-size="14" lengthAdjust="spacing" textLength="89" x="1915" y="977.1211">-name : String</text><text fill="#000000" font-family="sans-serif" font-size="14" lengthAdjust="spacing" textLength="79" x="1915" y="995.7422">-type : enum</text><text fill="#000000" font-family="sans-serif" font-size="14" lengthAdjust="spacing" textLength="89" x="1915" y="1014.3633">-area : double</text><text fill="#000000" font-family="sans-serif" font-size="14" lengthAdjust="spacing" textLength="105" x="1915" y="1032.9844">-address : String</text><line style="stroke:#181818;stroke-width:0.5;" x1="1910" x2="2184" y1="1040.498" y2="1040.498"/><text fill="#000000" font-family="sans-serif" font-size="14" lengthAdjust="spacing" textLength="264" x="1915" y="1059.6055">+GreenSpace(name, type, area, address)</text></g><!--class Task--><g id="elem_Task"><rect codeLine="127" fill="#F1F1F1" height="141.1055" id="Task" rx="2.5" ry="2.5" style="stroke:#181818;stroke-width:0.5;" width="288" x="2220" y="926.0137"/><ellipse cx="2344.25" cy="942.0137" fill="#ADD1B2" rx="11" ry="11" style="stroke:#181818;stroke-width:1.0;"/><path d="M2347.0156,937.8887 Q2347.1719,937.6699 2347.3594,937.5605 Q2347.5469,937.4512 2347.7656,937.4512 Q2348.1406,937.4512 2348.375,937.7168 Q2348.6094,937.9668 2348.6094,938.5762 L2348.6094,940.0293 Q2348.6094,940.6387 2348.375,940.9043 Q2348.1406,941.1699 2347.7656,941.1699 Q2347.4219,941.1699 2347.2188,940.9668 Q2347.0156,940.7793 2346.9063,940.2637 Q2346.8594,939.9043 2346.6719,939.7168 Q2346.3438,939.3418 2345.7344,939.123 Q2345.125,938.9043 2344.5,938.9043 Q2343.7344,938.9043 2343.0938,939.2324 Q2342.4688,939.5605 2341.9688,940.3105 Q2341.4844,941.0605 2341.4844,942.0918 L2341.4844,943.1855 Q2341.4844,944.4199 2342.375,945.248 Q2343.2656,946.0605 2344.8594,946.0605 Q2345.7969,946.0605 2346.4531,945.8105 Q2346.8438,945.6543 2347.2656,945.2168 Q2347.5313,944.9512 2347.6719,944.873 Q2347.8281,944.7949 2348.0313,944.7949 Q2348.3594,944.7949 2348.6094,945.0605 Q2348.875,945.3105 2348.875,945.6543 Q2348.875,945.998 2348.5313,946.4043 Q2348.0313,946.9824 2347.2344,947.3105 Q2346.1563,947.7637 2344.8594,947.7637 Q2343.3438,947.7637 2342.1406,947.1387 Q2341.1563,946.6387 2340.4688,945.5762 Q2339.7813,944.498 2339.7813,943.2168 L2339.7813,942.0605 Q2339.7813,940.7324 2340.3906,939.5918 Q2341.0156,938.4355 2342.1094,937.8262 Q2343.2031,937.2012 2344.4375,937.2012 Q2345.1719,937.2012 2345.8125,937.373 Q2346.4688,937.5293 2347.0156,937.8887 Z " fill="#000000"/><text fill="#000000" font-family="sans-serif" font-size="14" lengthAdjust="spacing" textLength="31" x="2364.75" y="947.8105">Task</text><line style="stroke:#181818;stroke-width:0.5;" x1="2221" x2="2507" y1="958.0137" y2="958.0137"/><text fill="#000000" font-family="sans-serif" font-size="14" lengthAdjust="spacing" textLength="123" x="2226" y="977.1211">-description : String</text><text fill="#000000" font-family="sans-serif" font-size="14" lengthAdjust="spacing" textLength="84" x="2226" y="995.7422">-team : Team</text><text fill="#000000" font-family="sans-serif" font-size="14" lengthAdjust="spacing" textLength="152" x="2226" y="1014.3633">-vehicles : List&lt;Vehicle&gt;</text><text fill="#000000" font-family="sans-serif" font-size="14" lengthAdjust="spacing" textLength="99" x="2226" y="1032.9844">-duration : Date</text><line style="stroke:#181818;stroke-width:0.5;" x1="2221" x2="2507" y1="1040.498" y2="1040.498"/><text fill="#000000" font-family="sans-serif" font-size="14" lengthAdjust="spacing" textLength="276" x="2226" y="1059.6055">+Task(description, team, vehicles, duration)</text></g><!--class EmailModule--><g id="elem_EmailModule"><rect codeLine="135" fill="#F1F1F1" height="66.6211" id="EmailModule" rx="2.5" ry="2.5" style="stroke:#181818;stroke-width:0.5;" width="113" x="1850.5" y="513.5137"/><ellipse cx="1865.5" cy="529.5137" fill="#B4A7E5" rx="11" ry="11" style="stroke:#181818;stroke-width:1.0;"/><path d="M1866.4531,526.1543 L1866.4531,532.8105 L1868.1719,532.8105 Q1868.7813,532.8105 1869.0469,533.0449 Q1869.3125,533.2793 1869.3125,533.6699 Q1869.3125,534.0449 1869.0469,534.2793 Q1868.7813,534.5137 1868.1719,534.5137 L1863.0313,534.5137 Q1862.4219,534.5137 1862.1563,534.2793 Q1861.8906,534.0449 1861.8906,533.6543 Q1861.8906,533.2793 1862.1563,533.0449 Q1862.4219,532.8105 1863.0313,532.8105 L1864.75,532.8105 L1864.75,526.1543 L1863.0313,526.1543 Q1862.4219,526.1543 1862.1563,525.9199 Q1861.8906,525.6855 1861.8906,525.2949 Q1861.8906,524.9199 1862.1563,524.6855 Q1862.4219,524.4512 1863.0313,524.4512 L1868.1719,524.4512 Q1868.7813,524.4512 1869.0469,524.6855 Q1869.3125,524.9199 1869.3125,525.2949 Q1869.3125,525.6855 1869.0469,525.9199 Q1868.7813,526.1543 1868.1719,526.1543 L1866.4531,526.1543 Z " fill="#000000"/><text fill="#000000" font-family="sans-serif" font-size="14" font-style="italic" lengthAdjust="spacing" textLength="81" x="1879.5" y="535.3105">EmailModule</text><line style="stroke:#181818;stroke-width:0.5;" x1="1851.5" x2="1962.5" y1="545.5137" y2="545.5137"/><line style="stroke:#181818;stroke-width:0.5;" x1="1851.5" x2="1962.5" y1="553.5137" y2="553.5137"/><text fill="#000000" font-family="sans-serif" font-size="14" lengthAdjust="spacing" textLength="82" x="1856.5" y="572.6211">+send(email)</text></g><!--class EmailModuleAdapter1--><g id="elem_EmailModuleAdapter1"><rect codeLine="139" fill="#F1F1F1" height="66.6211" id="EmailModuleAdapter1" rx="2.5" ry="2.5" style="stroke:#181818;stroke-width:0.5;" width="183" x="1815.5" y="733.5137"/><ellipse cx="1836.35" cy="749.5137" fill="#ADD1B2" rx="11" ry="11" style="stroke:#181818;stroke-width:1.0;"/><path d="M1839.1156,745.3887 Q1839.2719,745.1699 1839.4594,745.0605 Q1839.6469,744.9512 1839.8656,744.9512 Q1840.2406,744.9512 1840.475,745.2168 Q1840.7094,745.4668 1840.7094,746.0762 L1840.7094,747.5293 Q1840.7094,748.1387 1840.475,748.4043 Q1840.2406,748.6699 1839.8656,748.6699 Q1839.5219,748.6699 1839.3188,748.4668 Q1839.1156,748.2793 1839.0063,747.7637 Q1838.9594,747.4043 1838.7719,747.2168 Q1838.4438,746.8418 1837.8344,746.623 Q1837.225,746.4043 1836.6,746.4043 Q1835.8344,746.4043 1835.1938,746.7324 Q1834.5688,747.0605 1834.0688,747.8105 Q1833.5844,748.5605 1833.5844,749.5918 L1833.5844,750.6855 Q1833.5844,751.9199 1834.475,752.748 Q1835.3656,753.5605 1836.9594,753.5605 Q1837.8969,753.5605 1838.5531,753.3105 Q1838.9438,753.1543 1839.3656,752.7168 Q1839.6313,752.4512 1839.7719,752.373 Q1839.9281,752.2949 1840.1313,752.2949 Q1840.4594,752.2949 1840.7094,752.5605 Q1840.975,752.8105 1840.975,753.1543 Q1840.975,753.498 1840.6313,753.9043 Q1840.1313,754.4824 1839.3344,754.8105 Q1838.2563,755.2637 1836.9594,755.2637 Q1835.4438,755.2637 1834.2406,754.6387 Q1833.2563,754.1387 1832.5688,753.0762 Q1831.8813,751.998 1831.8813,750.7168 L1831.8813,749.5605 Q1831.8813,748.2324 1832.4906,747.0918 Q1833.1156,745.9355 1834.2094,745.3262 Q1835.3031,744.7012 1836.5375,744.7012 Q1837.2719,744.7012 1837.9125,744.873 Q1838.5688,745.0293 1839.1156,745.3887 Z " fill="#000000"/><text fill="#000000" font-family="sans-serif" font-size="14" lengthAdjust="spacing" textLength="138" x="1851.65" y="755.3105">EmailModuleAdapter1</text><line style="stroke:#181818;stroke-width:0.5;" x1="1816.5" x2="1997.5" y1="765.5137" y2="765.5137"/><line style="stroke:#181818;stroke-width:0.5;" x1="1816.5" x2="1997.5" y1="773.5137" y2="773.5137"/><text fill="#000000" font-family="sans-serif" font-size="14" lengthAdjust="spacing" textLength="171" x="1821.5" y="792.6211">+sendEmailService1(email)</text></g><!--class EmailModuleAdapter2--><g id="elem_EmailModuleAdapter2"><rect codeLine="143" fill="#F1F1F1" height="66.6211" id="EmailModuleAdapter2" rx="2.5" ry="2.5" style="stroke:#181818;stroke-width:0.5;" width="183" x="2033.5" y="733.5137"/><ellipse cx="2054.35" cy="749.5137" fill="#ADD1B2" rx="11" ry="11" style="stroke:#181818;stroke-width:1.0;"/><path d="M2057.1156,745.3887 Q2057.2719,745.1699 2057.4594,745.0605 Q2057.6469,744.9512 2057.8656,744.9512 Q2058.2406,744.9512 2058.475,745.2168 Q2058.7094,745.4668 2058.7094,746.0762 L2058.7094,747.5293 Q2058.7094,748.1387 2058.475,748.4043 Q2058.2406,748.6699 2057.8656,748.6699 Q2057.5219,748.6699 2057.3188,748.4668 Q2057.1156,748.2793 2057.0063,747.7637 Q2056.9594,747.4043 2056.7719,747.2168 Q2056.4438,746.8418 2055.8344,746.623 Q2055.225,746.4043 2054.6,746.4043 Q2053.8344,746.4043 2053.1938,746.7324 Q2052.5688,747.0605 2052.0688,747.8105 Q2051.5844,748.5605 2051.5844,749.5918 L2051.5844,750.6855 Q2051.5844,751.9199 2052.475,752.748 Q2053.3656,753.5605 2054.9594,753.5605 Q2055.8969,753.5605 2056.5531,753.3105 Q2056.9438,753.1543 2057.3656,752.7168 Q2057.6313,752.4512 2057.7719,752.373 Q2057.9281,752.2949 2058.1313,752.2949 Q2058.4594,752.2949 2058.7094,752.5605 Q2058.975,752.8105 2058.975,753.1543 Q2058.975,753.498 2058.6313,753.9043 Q2058.1313,754.4824 2057.3344,754.8105 Q2056.2563,755.2637 2054.9594,755.2637 Q2053.4438,755.2637 2052.2406,754.6387 Q2051.2563,754.1387 2050.5688,753.0762 Q2049.8813,751.998 2049.8813,750.7168 L2049.8813,749.5605 Q2049.8813,748.2324 2050.4906,747.0918 Q2051.1156,745.9355 2052.2094,745.3262 Q2053.3031,744.7012 2054.5375,744.7012 Q2055.2719,744.7012 2055.9125,744.873 Q2056.5688,745.0293 2057.1156,745.3887 Z " fill="#000000"/><text fill="#000000" font-family="sans-serif" font-size="14" lengthAdjust="spacing" textLength="138" x="2069.65" y="755.3105">EmailModuleAdapter2</text><line style="stroke:#181818;stroke-width:0.5;" x1="2034.5" x2="2215.5" y1="765.5137" y2="765.5137"/><line style="stroke:#181818;stroke-width:0.5;" x1="2034.5" x2="2215.5" y1="773.5137" y2="773.5137"/><text fill="#000000" font-family="sans-serif" font-size="14" lengthAdjust="spacing" textLength="171" x="2039.5" y="792.6211">+sendEmailService2(email)</text></g><!--class Repositories--><g id="elem_Repositories"><rect codeLine="35" fill="#F1F1F1" height="122.4844" id="Repositories" rx="2.5" ry="2.5" style="stroke:#181818;stroke-width:0.5;" width="194" x="1280" y="486.0137"/><ellipse cx="1333.25" cy="502.0137" fill="#ADD1B2" rx="11" ry="11" style="stroke:#181818;stroke-width:1.0;"/><path d="M1336.0156,497.8887 Q1336.1719,497.6699 1336.3594,497.5605 Q1336.5469,497.4512 1336.7656,497.4512 Q1337.1406,497.4512 1337.375,497.7168 Q1337.6094,497.9668 1337.6094,498.5762 L1337.6094,500.0293 Q1337.6094,500.6387 1337.375,500.9043 Q1337.1406,501.1699 1336.7656,501.1699 Q1336.4219,501.1699 1336.2188,500.9668 Q1336.0156,500.7793 1335.9063,500.2637 Q1335.8594,499.9043 1335.6719,499.7168 Q1335.3438,499.3418 1334.7344,499.123 Q1334.125,498.9043 1333.5,498.9043 Q1332.7344,498.9043 1332.0938,499.2324 Q1331.4688,499.5605 1330.9688,500.3105 Q1330.4844,501.0605 1330.4844,502.0918 L1330.4844,503.1855 Q1330.4844,504.4199 1331.375,505.248 Q1332.2656,506.0605 1333.8594,506.0605 Q1334.7969,506.0605 1335.4531,505.8105 Q1335.8438,505.6543 1336.2656,505.2168 Q1336.5313,504.9512 1336.6719,504.873 Q1336.8281,504.7949 1337.0313,504.7949 Q1337.3594,504.7949 1337.6094,505.0605 Q1337.875,505.3105 1337.875,505.6543 Q1337.875,505.998 1337.5313,506.4043 Q1337.0313,506.9824 1336.2344,507.3105 Q1335.1563,507.7637 1333.8594,507.7637 Q1332.3438,507.7637 1331.1406,507.1387 Q1330.1563,506.6387 1329.4688,505.5762 Q1328.7813,504.498 1328.7813,503.2168 L1328.7813,502.0605 Q1328.7813,500.7324 1329.3906,499.5918 Q1330.0156,498.4355 1331.1094,497.8262 Q1332.2031,497.2012 1333.4375,497.2012 Q1334.1719,497.2012 1334.8125,497.373 Q1335.4688,497.5293 1336.0156,497.8887 Z " fill="#000000"/><text fill="#000000" font-family="sans-serif" font-size="14" lengthAdjust="spacing" textLength="79" x="1353.75" y="507.8105">Repositories</text><line style="stroke:#181818;stroke-width:0.5;" x1="1281" x2="1473" y1="518.0137" y2="518.0137"/><line style="stroke:#181818;stroke-width:0.5;" x1="1281" x2="1473" y1="526.0137" y2="526.0137"/><text fill="#000000" font-family="sans-serif" font-size="14" lengthAdjust="spacing" textLength="94" x="1286" y="545.1211">-Repositories()</text><text fill="#000000" font-family="sans-serif" font-size="14" lengthAdjust="spacing" textLength="182" x="1286" y="563.7422">+getInstance() : Repositories</text><text fill="#000000" font-family="sans-serif" font-size="14" lengthAdjust="spacing" textLength="87" x="1286" y="582.3633">+getAgenda()</text><text fill="#000000" font-family="sans-serif" font-size="14" lengthAdjust="spacing" textLength="142" x="1286" y="600.9844">+getTeamRepository()</text></g><!--class Agenda--><g id="elem_Agenda"><rect codeLine="43" fill="#F1F1F1" height="85.2422" id="Agenda" rx="2.5" ry="2.5" style="stroke:#181818;stroke-width:0.5;" width="326" x="1214" y="724.5137"/><ellipse cx="1348.25" cy="740.5137" fill="#ADD1B2" rx="11" ry="11" style="stroke:#181818;stroke-width:1.0;"/><path d="M1351.0156,736.3887 Q1351.1719,736.1699 1351.3594,736.0605 Q1351.5469,735.9512 1351.7656,735.9512 Q1352.1406,735.9512 1352.375,736.2168 Q1352.6094,736.4668 1352.6094,737.0762 L1352.6094,738.5293 Q1352.6094,739.1387 1352.375,739.4043 Q1352.1406,739.6699 1351.7656,739.6699 Q1351.4219,739.6699 1351.2188,739.4668 Q1351.0156,739.2793 1350.9063,738.7637 Q1350.8594,738.4043 1350.6719,738.2168 Q1350.3438,737.8418 1349.7344,737.623 Q1349.125,737.4043 1348.5,737.4043 Q1347.7344,737.4043 1347.0938,737.7324 Q1346.4688,738.0605 1345.9688,738.8105 Q1345.4844,739.5605 1345.4844,740.5918 L1345.4844,741.6855 Q1345.4844,742.9199 1346.375,743.748 Q1347.2656,744.5605 1348.8594,744.5605 Q1349.7969,744.5605 1350.4531,744.3105 Q1350.8438,744.1543 1351.2656,743.7168 Q1351.5313,743.4512 1351.6719,743.373 Q1351.8281,743.2949 1352.0313,743.2949 Q1352.3594,743.2949 1352.6094,743.5605 Q1352.875,743.8105 1352.875,744.1543 Q1352.875,744.498 1352.5313,744.9043 Q1352.0313,745.4824 1351.2344,745.8105 Q1350.1563,746.2637 1348.8594,746.2637 Q1347.3438,746.2637 1346.1406,745.6387 Q1345.1563,745.1387 1344.4688,744.0762 Q1343.7813,742.998 1343.7813,741.7168 L1343.7813,740.5605 Q1343.7813,739.2324 1344.3906,738.0918 Q1345.0156,736.9355 1346.1094,736.3262 Q1347.2031,735.7012 1348.4375,735.7012 Q1349.1719,735.7012 1349.8125,735.873 Q1350.4688,736.0293 1351.0156,736.3887 Z " fill="#000000"/><text fill="#000000" font-family="sans-serif" font-size="14" lengthAdjust="spacing" textLength="49" x="1368.75" y="746.3105">Agenda</text><line style="stroke:#181818;stroke-width:0.5;" x1="1215" x2="1539" y1="756.5137" y2="756.5137"/><line style="stroke:#181818;stroke-width:0.5;" x1="1215" x2="1539" y1="764.5137" y2="764.5137"/><text fill="#000000" font-family="sans-serif" font-size="14" lengthAdjust="spacing" textLength="131" x="1220" y="783.6211">+getAgendaEntries()</text><text fill="#000000" font-family="sans-serif" font-size="14" lengthAdjust="spacing" textLength="314" x="1220" y="802.2422">+assignTeamToAgendaEntry(agendaEntry, team)</text></g><!--class TeamRepository--><g id="elem_TeamRepository"><rect codeLine="48" fill="#F1F1F1" height="66.6211" id="TeamRepository" rx="2.5" ry="2.5" style="stroke:#181818;stroke-width:0.5;" width="205" x="1575.5" y="733.5137"/><ellipse cx="1621.75" cy="749.5137" fill="#ADD1B2" rx="11" ry="11" style="stroke:#181818;stroke-width:1.0;"/><path d="M1624.5156,745.3887 Q1624.6719,745.1699 1624.8594,745.0605 Q1625.0469,744.9512 1625.2656,744.9512 Q1625.6406,744.9512 1625.875,745.2168 Q1626.1094,745.4668 1626.1094,746.0762 L1626.1094,747.5293 Q1626.1094,748.1387 1625.875,748.4043 Q1625.6406,748.6699 1625.2656,748.6699 Q1624.9219,748.6699 1624.7188,748.4668 Q1624.5156,748.2793 1624.4063,747.7637 Q1624.3594,747.4043 1624.1719,747.2168 Q1623.8438,746.8418 1623.2344,746.623 Q1622.625,746.4043 1622,746.4043 Q1621.2344,746.4043 1620.5938,746.7324 Q1619.9688,747.0605 1619.4688,747.8105 Q1618.9844,748.5605 1618.9844,749.5918 L1618.9844,750.6855 Q1618.9844,751.9199 1619.875,752.748 Q1620.7656,753.5605 1622.3594,753.5605 Q1623.2969,753.5605 1623.9531,753.3105 Q1624.3438,753.1543 1624.7656,752.7168 Q1625.0313,752.4512 1625.1719,752.373 Q1625.3281,752.2949 1625.5313,752.2949 Q1625.8594,752.2949 1626.1094,752.5605 Q1626.375,752.8105 1626.375,753.1543 Q1626.375,753.498 1626.0313,753.9043 Q1625.5313,754.4824 1624.7344,754.8105 Q1623.6563,755.2637 1622.3594,755.2637 Q1620.8438,755.2637 1619.6406,754.6387 Q1618.6563,754.1387 1617.9688,753.0762 Q1617.2813,751.998 1617.2813,750.7168 L1617.2813,749.5605 Q1617.2813,748.2324 1617.8906,747.0918 Q1618.5156,745.9355 1619.6094,745.3262 Q1620.7031,744.7012 1621.9375,744.7012 Q1622.6719,744.7012 1623.3125,744.873 Q1623.9688,745.0293 1624.5156,745.3887 Z " fill="#000000"/><text fill="#000000" font-family="sans-serif" font-size="14" lengthAdjust="spacing" textLength="104" x="1642.25" y="755.3105">TeamRepository</text><line style="stroke:#181818;stroke-width:0.5;" x1="1576.5" x2="1779.5" y1="765.5137" y2="765.5137"/><line style="stroke:#181818;stroke-width:0.5;" x1="1576.5" x2="1779.5" y1="773.5137" y2="773.5137"/><text fill="#000000" font-family="sans-serif" font-size="14" lengthAdjust="spacing" textLength="193" x="1581.5" y="792.6211">+getValidTeams(agendaEntry)</text></g><!--class AgendaMapper--><g id="elem_AgendaMapper"><rect codeLine="56" fill="#F1F1F1" height="66.6211" id="AgendaMapper" rx="2.5" ry="2.5" style="stroke:#181818;stroke-width:0.5;" width="222" x="936" y="733.5137"/><ellipse cx="994.25" cy="749.5137" fill="#ADD1B2" rx="11" ry="11" style="stroke:#181818;stroke-width:1.0;"/><path d="M997.0156,745.3887 Q997.1719,745.1699 997.3594,745.0605 Q997.5469,744.9512 997.7656,744.9512 Q998.1406,744.9512 998.375,745.2168 Q998.6094,745.4668 998.6094,746.0762 L998.6094,747.5293 Q998.6094,748.1387 998.375,748.4043 Q998.1406,748.6699 997.7656,748.6699 Q997.4219,748.6699 997.2188,748.4668 Q997.0156,748.2793 996.9063,747.7637 Q996.8594,747.4043 996.6719,747.2168 Q996.3438,746.8418 995.7344,746.623 Q995.125,746.4043 994.5,746.4043 Q993.7344,746.4043 993.0938,746.7324 Q992.4688,747.0605 991.9688,747.8105 Q991.4844,748.5605 991.4844,749.5918 L991.4844,750.6855 Q991.4844,751.9199 992.375,752.748 Q993.2656,753.5605 994.8594,753.5605 Q995.7969,753.5605 996.4531,753.3105 Q996.8438,753.1543 997.2656,752.7168 Q997.5313,752.4512 997.6719,752.373 Q997.8281,752.2949 998.0313,752.2949 Q998.3594,752.2949 998.6094,752.5605 Q998.875,752.8105 998.875,753.1543 Q998.875,753.498 998.5313,753.9043 Q998.0313,754.4824 997.2344,754.8105 Q996.1563,755.2637 994.8594,755.2637 Q993.3438,755.2637 992.1406,754.6387 Q991.1563,754.1387 990.4688,753.0762 Q989.7813,751.998 989.7813,750.7168 L989.7813,749.5605 Q989.7813,748.2324 990.3906,747.0918 Q991.0156,745.9355 992.1094,745.3262 Q993.2031,744.7012 994.4375,744.7012 Q995.1719,744.7012 995.8125,744.873 Q996.4688,745.0293 997.0156,745.3887 Z " fill="#000000"/><text fill="#000000" font-family="sans-serif" font-size="14" lengthAdjust="spacing" textLength="97" x="1014.75" y="755.3105">AgendaMapper</text><line style="stroke:#181818;stroke-width:0.5;" x1="937" x2="1157" y1="765.5137" y2="765.5137"/><line style="stroke:#181818;stroke-width:0.5;" x1="937" x2="1157" y1="773.5137" y2="773.5137"/><text fill="#000000" font-family="sans-serif" font-size="14" lengthAdjust="spacing" textLength="210" x="942" y="792.6211">+agendaEntriesToDto(listEntries)</text></g><!--class TeamRepositoryMapper--><g id="elem_TeamRepositoryMapper"><rect codeLine="60" fill="#F1F1F1" height="66.6211" id="TeamRepositoryMapper" rx="2.5" ry="2.5" style="stroke:#181818;stroke-width:0.5;" width="184" x="717" y="733.5137"/><ellipse cx="732" cy="749.5137" fill="#ADD1B2" rx="11" ry="11" style="stroke:#181818;stroke-width:1.0;"/><path d="M734.7656,745.3887 Q734.9219,745.1699 735.1094,745.0605 Q735.2969,744.9512 735.5156,744.9512 Q735.8906,744.9512 736.125,745.2168 Q736.3594,745.4668 736.3594,746.0762 L736.3594,747.5293 Q736.3594,748.1387 736.125,748.4043 Q735.8906,748.6699 735.5156,748.6699 Q735.1719,748.6699 734.9688,748.4668 Q734.7656,748.2793 734.6563,747.7637 Q734.6094,747.4043 734.4219,747.2168 Q734.0938,746.8418 733.4844,746.623 Q732.875,746.4043 732.25,746.4043 Q731.4844,746.4043 730.8438,746.7324 Q730.2188,747.0605 729.7188,747.8105 Q729.2344,748.5605 729.2344,749.5918 L729.2344,750.6855 Q729.2344,751.9199 730.125,752.748 Q731.0156,753.5605 732.6094,753.5605 Q733.5469,753.5605 734.2031,753.3105 Q734.5938,753.1543 735.0156,752.7168 Q735.2813,752.4512 735.4219,752.373 Q735.5781,752.2949 735.7813,752.2949 Q736.1094,752.2949 736.3594,752.5605 Q736.625,752.8105 736.625,753.1543 Q736.625,753.498 736.2813,753.9043 Q735.7813,754.4824 734.9844,754.8105 Q733.9063,755.2637 732.6094,755.2637 Q731.0938,755.2637 729.8906,754.6387 Q728.9063,754.1387 728.2188,753.0762 Q727.5313,751.998 727.5313,750.7168 L727.5313,749.5605 Q727.5313,748.2324 728.1406,747.0918 Q728.7656,745.9355 729.8594,745.3262 Q730.9531,744.7012 732.1875,744.7012 Q732.9219,744.7012 733.5625,744.873 Q734.2188,745.0293 734.7656,745.3887 Z " fill="#000000"/><text fill="#000000" font-family="sans-serif" font-size="14" lengthAdjust="spacing" textLength="152" x="746" y="755.3105">TeamRepositoryMapper</text><line style="stroke:#181818;stroke-width:0.5;" x1="718" x2="900" y1="765.5137" y2="765.5137"/><line style="stroke:#181818;stroke-width:0.5;" x1="718" x2="900" y1="773.5137" y2="773.5137"/><text fill="#000000" font-family="sans-serif" font-size="14" lengthAdjust="spacing" textLength="155" x="723" y="792.6211">+teamsToDto(listTeams)</text></g><!--class AgendaEntryDto--><g id="elem_AgendaEntryDto"><rect codeLine="67" fill="#F1F1F1" height="48" id="AgendaEntryDto" rx="2.5" ry="2.5" style="stroke:#181818;stroke-width:0.5;" width="136" x="1022" y="523.0137"/><ellipse cx="1037" cy="539.0137" fill="#ADD1B2" rx="11" ry="11" style="stroke:#181818;stroke-width:1.0;"/><path d="M1039.7656,534.8887 Q1039.9219,534.6699 1040.1094,534.5605 Q1040.2969,534.4512 1040.5156,534.4512 Q1040.8906,534.4512 1041.125,534.7168 Q1041.3594,534.9668 1041.3594,535.5762 L1041.3594,537.0293 Q1041.3594,537.6387 1041.125,537.9043 Q1040.8906,538.1699 1040.5156,538.1699 Q1040.1719,538.1699 1039.9688,537.9668 Q1039.7656,537.7793 1039.6563,537.2637 Q1039.6094,536.9043 1039.4219,536.7168 Q1039.0938,536.3418 1038.4844,536.123 Q1037.875,535.9043 1037.25,535.9043 Q1036.4844,535.9043 1035.8438,536.2324 Q1035.2188,536.5605 1034.7188,537.3105 Q1034.2344,538.0605 1034.2344,539.0918 L1034.2344,540.1855 Q1034.2344,541.4199 1035.125,542.248 Q1036.0156,543.0605 1037.6094,543.0605 Q1038.5469,543.0605 1039.2031,542.8105 Q1039.5938,542.6543 1040.0156,542.2168 Q1040.2813,541.9512 1040.4219,541.873 Q1040.5781,541.7949 1040.7813,541.7949 Q1041.1094,541.7949 1041.3594,542.0605 Q1041.625,542.3105 1041.625,542.6543 Q1041.625,542.998 1041.2813,543.4043 Q1040.7813,543.9824 1039.9844,544.3105 Q1038.9063,544.7637 1037.6094,544.7637 Q1036.0938,544.7637 1034.8906,544.1387 Q1033.9063,543.6387 1033.2188,542.5762 Q1032.5313,541.498 1032.5313,540.2168 L1032.5313,539.0605 Q1032.5313,537.7324 1033.1406,536.5918 Q1033.7656,535.4355 1034.8594,534.8262 Q1035.9531,534.2012 1037.1875,534.2012 Q1037.9219,534.2012 1038.5625,534.373 Q1039.2188,534.5293 1039.7656,534.8887 Z " fill="#000000"/><text fill="#000000" font-family="sans-serif" font-size="14" lengthAdjust="spacing" textLength="104" x="1051" y="544.8105">AgendaEntryDto</text><line style="stroke:#181818;stroke-width:0.5;" x1="1023" x2="1157" y1="555.0137" y2="555.0137"/><line style="stroke:#181818;stroke-width:0.5;" x1="1023" x2="1157" y1="563.0137" y2="563.0137"/></g><!--class TeamDto--><g id="elem_TeamDto"><rect codeLine="70" fill="#F1F1F1" height="48" id="TeamDto" rx="2.5" ry="2.5" style="stroke:#181818;stroke-width:0.5;" width="90" x="897" y="523.0137"/><ellipse cx="912" cy="539.0137" fill="#ADD1B2" rx="11" ry="11" style="stroke:#181818;stroke-width:1.0;"/><path d="M914.7656,534.8887 Q914.9219,534.6699 915.1094,534.5605 Q915.2969,534.4512 915.5156,534.4512 Q915.8906,534.4512 916.125,534.7168 Q916.3594,534.9668 916.3594,535.5762 L916.3594,537.0293 Q916.3594,537.6387 916.125,537.9043 Q915.8906,538.1699 915.5156,538.1699 Q915.1719,538.1699 914.9688,537.9668 Q914.7656,537.7793 914.6563,537.2637 Q914.6094,536.9043 914.4219,536.7168 Q914.0938,536.3418 913.4844,536.123 Q912.875,535.9043 912.25,535.9043 Q911.4844,535.9043 910.8438,536.2324 Q910.2188,536.5605 909.7188,537.3105 Q909.2344,538.0605 909.2344,539.0918 L909.2344,540.1855 Q909.2344,541.4199 910.125,542.248 Q911.0156,543.0605 912.6094,543.0605 Q913.5469,543.0605 914.2031,542.8105 Q914.5938,542.6543 915.0156,542.2168 Q915.2813,541.9512 915.4219,541.873 Q915.5781,541.7949 915.7813,541.7949 Q916.1094,541.7949 916.3594,542.0605 Q916.625,542.3105 916.625,542.6543 Q916.625,542.998 916.2813,543.4043 Q915.7813,543.9824 914.9844,544.3105 Q913.9063,544.7637 912.6094,544.7637 Q911.0938,544.7637 909.8906,544.1387 Q908.9063,543.6387 908.2188,542.5762 Q907.5313,541.498 907.5313,540.2168 L907.5313,539.0605 Q907.5313,537.7324 908.1406,536.5918 Q908.7656,535.4355 909.8594,534.8262 Q910.9531,534.2012 912.1875,534.2012 Q912.9219,534.2012 913.5625,534.373 Q914.2188,534.5293 914.7656,534.8887 Z " fill="#000000"/><text fill="#000000" font-family="sans-serif" font-size="14" lengthAdjust="spacing" textLength="58" x="926" y="544.8105">TeamDto</text><line style="stroke:#181818;stroke-width:0.5;" x1="898" x2="986" y1="555.0137" y2="555.0137"/><line style="stroke:#181818;stroke-width:0.5;" x1="898" x2="986" y1="563.0137" y2="563.0137"/></g><!--link AssignTeamUI to AssignTeamController--><g id="link_AssignTeamUI_AssignTeamController"><path codeLine="149" d="M511,91.0637 C511,112.5437 511,139.8237 511,170.8837 " fill="none" id="AssignTeamUI-to-AssignTeamController" style="stroke:#181818;stroke-width:1.0;stroke-dasharray:7.0,7.0;"/><polygon fill="#181818" points="511,176.8837,515,167.8837,511,171.8837,507,167.8837,511,176.8837" style="stroke:#181818;stroke-width:1.0;"/></g><!--link AssignTeamController to Repositories--><g id="link_AssignTeamController_Repositories"><path codeLine="150" d="M684.76,294.1837 C881.2,335.0737 1174,396.0137 1174,396.0137 C1174,396.0137 1234.3046,440.5678 1290.7746,482.2978 " fill="none" id="AssignTeamController-to-Repositories" style="stroke:#181818;stroke-width:1.0;stroke-dasharray:7.0,7.0;"/><polygon fill="#181818" points="1295.6,485.8637,1290.7391,477.2979,1291.5788,482.8921,1285.9846,483.7318,1295.6,485.8637" style="stroke:#181818;stroke-width:1.0;"/><text fill="#000000" font-family="sans-serif" font-size="13" lengthAdjust="spacing" textLength="67" x="1129" y="384.042">repositories</text></g><!--link Repositories to Repositories--><g id="link_Repositories_Repositories"><path codeLine="151" d="M1474.28,528.9237 C1494.48,530.8237 1509,536.8537 1509,547.0137 C1509,557.1737 1500.4536,562.6418 1480.2536,564.5418 " fill="none" id="Repositories-to-Repositories" style="stroke:#181818;stroke-width:1.0;"/><polygon fill="#181818" points="1474.28,565.1037,1483.615,568.2433,1479.258,564.6354,1482.8659,560.2784,1474.28,565.1037" style="stroke:#181818;stroke-width:1.0;"/><text fill="#000000" font-family="sans-serif" font-size="13" lengthAdjust="spacing" textLength="49" x="1515" y="552.542">instance</text></g><!--link AssignTeamController to Agenda--><g id="link_AssignTeamController_Agenda"><path codeLine="152" d="M461.15,337.0937 C441.71,367.9237 424,396.0137 424,396.0137 C424,396.0137 424,608.0137 424,608.0137 C424,608.0137 485,657.0137 485,657.0137 C485,657.0137 1174,687.0137 1174,687.0137 C1174,687.0137 1215.6483,703.2281 1264.5583,722.2581 " fill="none" id="AssignTeamController-to-Agenda" style="stroke:#181818;stroke-width:1.0;stroke-dasharray:7.0,7.0;"/><polygon fill="#181818" points="1270.15,724.4337,1263.2129,717.4425,1265.4903,722.6207,1260.3121,724.898,1270.15,724.4337" style="stroke:#181818;stroke-width:1.0;"/><text fill="#000000" font-family="sans-serif" font-size="13" lengthAdjust="spacing" textLength="42" x="425" y="552.542">agenda</text></g><!--link AssignTeamController to Agenda--><g id="link_AssignTeamController_Agenda"><path codeLine="157" d="M517.13,337.4337 C525.09,440.7037 538,608.0137 538,608.0137 C538,608.0137 615,657.0137 615,657.0137 C615,657.0137 1174,687.0137 1174,687.0137 C1174,687.0137 1215.6483,703.2281 1264.5583,722.2581 " fill="none" id="AssignTeamController-to-Agenda-1" style="stroke:#181818;stroke-width:1.0;stroke-dasharray:7.0,7.0;"/><polygon fill="#181818" points="1270.15,724.4337,1263.2129,717.4425,1265.4903,722.6207,1260.3121,724.898,1270.15,724.4337" style="stroke:#181818;stroke-width:1.0;"/><text fill="#000000" font-family="sans-serif" font-size="13" lengthAdjust="spacing" textLength="58" x="539" y="552.542">listEntries</text></g><!--link AssignTeamController to TeamRepository--><g id="link_AssignTeamController_TeamRepository"><path codeLine="153" d="M563.14,337.0937 C583.48,367.9237 602,396.0137 602,396.0137 C602,396.0137 668,608.0137 668,608.0137 C668,608.0137 778,657.0137 778,657.0137 C778,657.0137 1558,687.0137 1558,687.0137 C1558,687.0137 1590.4282,708.3649 1623.4882,730.1249 " fill="none" id="AssignTeamController-to-TeamRepository" style="stroke:#181818;stroke-width:1.0;stroke-dasharray:7.0,7.0;"/><polygon fill="#181818" points="1628.5,733.4237,1623.1815,725.1343,1624.3235,730.6747,1618.7831,731.8167,1628.5,733.4237" style="stroke:#181818;stroke-width:1.0;"/><text fill="#000000" font-family="sans-serif" font-size="13" lengthAdjust="spacing" textLength="91" x="669" y="552.542">teamRepository</text></g><!--link AssignTeamController to TeamRepository--><g id="link_AssignTeamController_TeamRepository"><path codeLine="158" d="M656.54,337.0937 C713.3,367.9237 765,396.0137 765,396.0137 C765,396.0137 823,608.0137 823,608.0137 C823,608.0137 867,657.0137 867,657.0137 C867,657.0137 1558,687.0137 1558,687.0137 C1558,687.0137 1590.4282,708.3649 1623.4882,730.1249 " fill="none" id="AssignTeamController-to-TeamRepository-1" style="stroke:#181818;stroke-width:1.0;stroke-dasharray:7.0,7.0;"/><polygon fill="#181818" points="1628.5,733.4237,1623.1815,725.1343,1624.3235,730.6747,1618.7831,731.8167,1628.5,733.4237" style="stroke:#181818;stroke-width:1.0;"/><text fill="#000000" font-family="sans-serif" font-size="13" lengthAdjust="spacing" textLength="56" x="824" y="552.542">listTeams</text></g><!--link AssignTeamController to AgendaMapper--><g id="link_AssignTeamController_AgendaMapper"><path codeLine="155" d="M360.87,337.0937 C302.33,367.9237 249,396.0137 249,396.0137 C249,396.0137 249,608.0137 249,608.0137 C249,608.0137 371,657.0137 371,657.0137 C371,657.0137 919,687.0137 919,687.0137 C919,687.0137 953.834,708.5126 989.094,730.2726 " fill="none" id="AssignTeamController-to-AgendaMapper" style="stroke:#181818;stroke-width:1.0;stroke-dasharray:7.0,7.0;"/><polygon fill="#181818" points="994.2,733.4237,988.6417,725.2931,989.945,730.7978,984.4404,732.1011,994.2,733.4237" style="stroke:#181818;stroke-width:1.0;"/><text fill="#000000" font-family="sans-serif" font-size="13" lengthAdjust="spacing" textLength="103" x="250" y="552.542">agendaEntriesDto</text></g><!--link AssignTeamController to TeamRepositoryMapper--><g id="link_AssignTeamController_TeamRepositoryMapper"><path codeLine="156" d="M337.38,319.1937 C264.35,344.9237 196,369.0137 196,369.0137 C196,369.0137 121,396.0137 121,396.0137 C121,396.0137 121,608.0137 121,608.0137 C121,608.0137 196,657.0137 196,657.0137 C196,657.0137 539.8627,718.1532 710.9927,748.5832 " fill="none" id="AssignTeamController-to-TeamRepositoryMapper" style="stroke:#181818;stroke-width:1.0;stroke-dasharray:7.0,7.0;"/><polygon fill="#181818" points="716.9,749.6337,708.7393,744.1198,711.9772,748.7583,707.3387,751.9962,716.9,749.6337" style="stroke:#181818;stroke-width:1.0;"/><text fill="#000000" font-family="sans-serif" font-size="13" lengthAdjust="spacing" textLength="56" x="122" y="552.542">teamsDto</text></g><!--link Repositories to Agenda--><g id="link_Repositories_Agenda"><path codeLine="160" d="M1377,608.1637 C1377,645.0837 1377,685.4437 1377,718.3437 " fill="none" id="Repositories-to-Agenda" style="stroke:#181818;stroke-width:1.0;"/><polygon fill="#181818" points="1377,724.3437,1381,715.3437,1377,719.3437,1373,715.3437,1377,724.3437" style="stroke:#181818;stroke-width:1.0;"/><text fill="#000000" font-family="sans-serif" font-size="13" lengthAdjust="spacing" textLength="7" x="1369.4422" y="713.2207">1</text></g><!--link Repositories to TeamRepository--><g id="link_Repositories_TeamRepository"><path codeLine="161" d="M1460.05,608.1637 C1515.9,648.6137 1582.5304,696.8745 1628.1004,729.8745 " fill="none" id="Repositories-to-TeamRepository" style="stroke:#181818;stroke-width:1.0;"/><polygon fill="#181818" points="1632.96,733.3937,1628.0167,724.8752,1628.9103,730.4611,1623.3245,731.3547,1632.96,733.3937" style="stroke:#181818;stroke-width:1.0;"/><text fill="#000000" font-family="sans-serif" font-size="13" lengthAdjust="spacing" textLength="7" x="1616.4037" y="722.1956">1</text></g><!--link AgendaEntryDto to AgendaMapper--><g id="link_AgendaEntryDto_AgendaMapper"><path codeLine="163" d="M1085.4,571.3437 C1077.71,610.3337 1063.3807,682.957 1054.6107,727.437 " fill="none" id="AgendaEntryDto-to-AgendaMapper" style="stroke:#181818;stroke-width:1.0;stroke-dasharray:7.0,7.0;"/><polygon fill="#181818" points="1053.45,733.3237,1059.1154,725.2674,1054.4172,728.4181,1051.2665,723.7199,1053.45,733.3237" style="stroke:#181818;stroke-width:1.0;"/><text fill="#000000" font-family="sans-serif" font-size="13" lengthAdjust="spacing" textLength="93" x="1072" y="653.042">agendaEntryDto</text></g><!--link TeamDto to TeamRepositoryMapper--><g id="link_TeamDto_TeamRepositoryMapper"><path codeLine="164" d="M927.77,571.3437 C903.98,610.3337 859.2052,683.7218 832.0652,728.2018 " fill="none" id="TeamDto-to-TeamRepositoryMapper" style="stroke:#181818;stroke-width:1.0;stroke-dasharray:7.0,7.0;"/><polygon fill="#181818" points="828.94,733.3237,837.0423,727.7243,831.5443,729.0555,830.2132,723.5575,828.94,733.3237" style="stroke:#181818;stroke-width:1.0;"/><text fill="#000000" font-family="sans-serif" font-size="13" lengthAdjust="spacing" textLength="49" x="884" y="653.042">teamDto</text></g><!--link Entry to AgendaEntry--><g id="link_Entry_AgendaEntry"><path codeLine="166" d="M2380,589.5337 C2380,616.9537 2380,635.7737 2380,668.6937 " fill="none" id="Entry-to-AgendaEntry" style="stroke:#181818;stroke-width:1.0;"/><polygon fill="none" points="2380,686.6937,2386,668.6937,2374,668.6937,2380,686.6937" style="stroke:#181818;stroke-width:1.0;"/><text fill="#000000" font-family="sans-serif" font-size="13" lengthAdjust="spacing" textLength="46" x="2381" y="653.042">extends</text></g><!--link AgendaEntry to Team--><g id="link_AgendaEntry_Team"><path codeLine="167" d="M2251.9,837.3237 C2240.99,843.2337 2234,847.0137 2234,847.0137 C2234,847.0137 1990.5859,902.8794 1800.7459,946.4494 " fill="none" id="AgendaEntry-to-Team" style="stroke:#181818;stroke-width:1.0;"/><polygon fill="none" points="1789.05,949.1337,1795.7927,951.6902,1800.7459,946.4494,1794.0032,943.8929,1789.05,949.1337" style="stroke:#181818;stroke-width:1.0;"/><text fill="#000000" font-family="sans-serif" font-size="13" lengthAdjust="spacing" textLength="21" x="2095" y="892.042">has</text></g><!--link Team to Collaborator--><g id="link_Team_Collaborator"><path codeLine="168" d="M1530,1067.3037 C1510.76,1090.8537 1496.0006,1108.9295 1473.4106,1136.5895 " fill="none" id="Team-to-Collaborator" style="stroke:#181818;stroke-width:1.0;"/><polygon fill="none" points="1465.82,1145.8837,1472.7134,1143.7668,1473.4106,1136.5895,1466.5172,1138.7064,1465.82,1145.8837" style="stroke:#181818;stroke-width:1.0;"/><text fill="#000000" font-family="sans-serif" font-size="13" lengthAdjust="spacing" textLength="21" x="1505" y="1112.042">has</text></g><!--link AgendaEntry to Task--><g id="link_AgendaEntry_Task"><path codeLine="169" d="M2374.43,847.2637 C2372.63,872.7837 2371.505,888.8935 2369.755,913.6835 " fill="none" id="AgendaEntry-to-Task" style="stroke:#181818;stroke-width:1.0;"/><polygon fill="none" points="2368.91,925.6537,2373.3226,919.9502,2369.755,913.6835,2365.3424,919.3869,2368.91,925.6537" style="stroke:#181818;stroke-width:1.0;"/><text fill="#000000" font-family="sans-serif" font-size="13" lengthAdjust="spacing" textLength="21" x="2373" y="892.042">has</text></g><!--link AgendaEntry to GreenSpace--><g id="link_AgendaEntry_GreenSpace"><path codeLine="170" d="M2264,847.2637 C2226.55,872.8437 2195.2489,894.2351 2158.8989,919.0651 " fill="none" id="AgendaEntry-to-GreenSpace" style="stroke:#181818;stroke-width:1.0;"/><polygon fill="none" points="2148.99,925.8337,2156.2006,925.7523,2158.8989,919.0651,2151.6883,919.1464,2148.99,925.8337" style="stroke:#181818;stroke-width:1.0;"/><text fill="#000000" font-family="sans-serif" font-size="13" lengthAdjust="spacing" textLength="21" x="2214" y="892.042">has</text></g><!--link Collaborator to EmailService--><g id="link_Collaborator_EmailService"><path codeLine="172" d="M1187.09,1473.0837 C1160.88,1502.2837 1143.7966,1521.3243 1124.3866,1542.9443 " fill="none" id="Collaborator-to-EmailService" style="stroke:#181818;stroke-width:1.0;"/><polygon fill="none" points="1116.37,1551.8737,1123.3548,1550.0812,1124.3866,1542.9443,1117.4018,1544.7368,1116.37,1551.8737" style="stroke:#181818;stroke-width:1.0;"/><text fill="#000000" font-family="sans-serif" font-size="13" lengthAdjust="spacing" textLength="21" x="1155" y="1518.042">has</text></g><!--link AssignTeamController to EmailService--><g id="link_AssignTeamController_EmailService"><path codeLine="173" d="M337.31,309.2937 C238.79,338.3737 135,369.0137 135,369.0137 C135,369.0137 113,396.0137 113,396.0137 C113,396.0137 6,546.0137 6,546.0137 C6,546.0137 6,546.0137 6,1310.5137 C6,1310.5137 654.2884,1481.4934 941.0884,1557.1434 " fill="none" id="AssignTeamController-to-EmailService" style="stroke:#181818;stroke-width:1.0;stroke-dasharray:7.0,7.0;"/><polygon fill="#181818" points="946.89,1558.6737,939.2078,1552.5105,942.0554,1557.3984,937.1675,1560.2459,946.89,1558.6737" style="stroke:#181818;stroke-width:1.0;"/></g><!--reverse link EmailModule to EmailModuleAdapter1--><g id="link_EmailModule_EmailModuleAdapter1"><path codeLine="175" d="M1907,598.6537 C1907,639.8637 1907,692.3537 1907,733.5137 " fill="none" id="EmailModule-backto-EmailModuleAdapter1" style="stroke:#181818;stroke-width:1.0;stroke-dasharray:7.0,7.0;"/><polygon fill="none" points="1907,580.6537,1901,598.6537,1913,598.6537,1907,580.6537" style="stroke:#181818;stroke-width:1.0;"/></g><!--reverse link EmailModule to EmailModuleAdapter2--><g id="link_EmailModule_EmailModuleAdapter2"><path codeLine="176" d="M1952.3679,593.3816 C1993.5779,634.5916 2051.34,692.3537 2092.5,733.5137 " fill="none" id="EmailModule-backto-EmailModuleAdapter2" style="stroke:#181818;stroke-width:1.0;stroke-dasharray:7.0,7.0;"/><polygon fill="none" points="1939.64,580.6537,1948.1253,597.6242,1956.6106,589.139,1939.64,580.6537" style="stroke:#181818;stroke-width:1.0;"/></g><!--link AssignTeamController to EmailModule--><g id="link_AssignTeamController_EmailModule"><path codeLine="177" d="M684.77,276.6637 C1035.94,314.3437 1797,396.0137 1797,396.0137 C1797,396.0137 1847.2316,464.5154 1879.5816,508.6254 " fill="none" id="AssignTeamController-to-EmailModule" style="stroke:#181818;stroke-width:1.0;stroke-dasharray:7.0,7.0;"/><polygon fill="#181818" points="1883.13,513.4637,1881.033,503.8407,1880.173,509.4318,1874.5819,508.5718,1883.13,513.4637" style="stroke:#181818;stroke-width:1.0;"/><text fill="#000000" font-family="sans-serif" font-size="13" lengthAdjust="spacing" textLength="78" x="1709" y="384.042">makes use of</text></g><!--SRC=[bLTDRziu4BtpLn3f8J8Y1viSZIA0jmwAB9fsiLPxsWibZMtM4ccGL5hljl-zGqcMI8coKy608CxCcwz7SdojzrmSc68bBQMGsKx94gXH5P1USc3PdcrXROu5q8qiSb2ELEzOBhzniQKRLcZNhk02pF40z22Be_qWrm6XL4OInoehcDPBOnHFAmDFcHHh_X_GFmYvBc1Zg95KyUtEq9mho0oNWf0sGdhr-UcAlbdL3_sV48fFZKUNMlEjI82LdvzGOWK_oK_YcBwJmYXP5A0kGlIgBPHzRe8A4MABdCNKuF8_S92Q6wcECyTi2sPPApsY4GST3OHVMC5pYwfRCAjtN1dfwXcvaYNZ8ihzTTR5bCZUop6ouGmWD4eV4QD8fDL_XZ85fK-QCGKhMuDwuHdCsWhQ4dOLR2BmgjV9-jGdgjifO0MSgiuzmR0qJq8R9ZA8PdJXAORAEpHEl8wWz9IJq_BQq6losMvDLTlfMyE4sTYN7yxGPvW4mJOyiyDXciIrSQFY-M1kKed4ZaS5rwPTk1Xl0D7cwI3LmS_wdTVJ9lbqDjWJtRjjEmZ24tdIsj8Zas5wZrH9yEMiRXM0M6D0WBBttSSK7yQmo49bLinOU_joH6WG5g2DgJIkWwXADqHCoOQ8BwUOBxR_2E14W1Jhw3R1mkWCrxm4ocQpezyFsAgtx_3iOgbK35lx48YYOVYVq0G0EOOY9lW-3inLTALf8REzHLwQPS9B6ExNqu4KoCUDryjBiDAMVeqa5bjdFUNAxC9zONd9CKuffiIv0gr3eALCUH5qLn-T8O5Xt_zcHr0VAvjRI8FdAvbL9GYJsDjoH9TUFetnLQQu_9TCNVhjUO6dkJcrV6s_7zpGq9rRr_fg6F7rngjzPEiTzzMD_Mh6f-h5RQtQIoMc_mg_4l4WxtYKPsopYhiquebu1nog5qCCUdGkD-yKcxWLsmqJl3-ZEgc0a_veUHL9JR3XJ073rLnMQV4gOjuuVji6cRga5gbhIUYKi8Ub6sWEEbFyO6UkOBo1asjENs37imAwi-LBy-rIBQ-mOmsejzjkwX0YnsrpUyOTQDpPUl5pOK1jR9thXZpBl2h6RPtiasEqpDa1iUx2d6W9S_SRIFTdaUu7IFZp9jVRsuVWc4c2mwdLzkQg1LNkaEJ9vlEHCc_7gsdqTa1QjEF3jE9WkbaCvc5ooKKxNopyEGMl_jUwx03giUIiOPUKCm3zHcRTi4F61RwwkshXmx9aM1L_0ZfR3wj1JWFHXG9OLTBCCVFvZmTliC4Jvxl1J-rwHpNPZ0qBkcEwzbElULTl8nkPDKDNIFJUdRoi0l7mh8ftChSeKxrmTJ4_P- -__N5x6zhNhr6wl-2mjLxGaksnbvN6FxKRyWi0]--></g></svg>