<?xml version="1.0" encoding="us-ascii" standalone="no"?><svg xmlns="http://www.w3.org/2000/svg" xmlns:xlink="http://www.w3.org/1999/xlink" contentStyleType="text/css" height="488px" preserveAspectRatio="none" style="width:422px;height:488px;background:#FFFFFF;" version="1.1" viewBox="0 0 422 488" width="422px" zoomAndPan="magnify"><defs/><g><text fill="#000000" font-family="sans-serif" font-size="14" font-weight="bold" lengthAdjust="spacing" textLength="351" x="34.5" y="30.1074">System Sequence Diagram (SSD) - Alternative One</text><rect fill="#FFFFFF" height="188.7461" style="stroke:#181818;stroke-width:1.0;" width="10" x="53" y="170.4844"/><rect fill="#FFFFFF" height="31.291" style="stroke:#181818;stroke-width:1.0;" width="10" x="379" y="193.7754"/><rect fill="#FFFFFF" height="31.291" style="stroke:#181818;stroke-width:1.0;" width="10" x="379" y="256.3574"/><rect fill="#FFFFFF" height="31.291" style="stroke:#181818;stroke-width:1.0;" width="10" x="379" y="318.9395"/><line style="stroke:#181818;stroke-width:0.5;stroke-dasharray:5.0,5.0;" x1="58" x2="58" y1="160.4844" y2="368.2305"/><line style="stroke:#181818;stroke-width:0.5;stroke-dasharray:5.0,5.0;" x1="384" x2="384" y1="160.4844" y2="368.2305"/><text fill="#000000" font-family="sans-serif" font-size="14" lengthAdjust="spacing" textLength="40" x="35" y="119.7285">Green</text><text fill="#000000" font-family="sans-serif" font-size="14" lengthAdjust="spacing" textLength="100" x="5" y="138.3496">Space Manager</text><text fill="#000000" font-family="sans-serif" font-size="14" lengthAdjust="spacing" textLength="41" x="34.5" y="156.9707">(GSM)</text><ellipse cx="58" cy="53.1211" fill="#E3E3E3" rx="8" ry="8" style="stroke:#181818;stroke-width:0.5;"/><path d="M58,61.1211 L58,88.1211 M45,69.1211 L71,69.1211 M58,88.1211 L45,103.1211 M58,88.1211 L71,103.1211 " fill="none" style="stroke:#181818;stroke-width:0.5;"/><text fill="#000000" font-family="sans-serif" font-size="14" lengthAdjust="spacing" textLength="40" x="35" y="382.3379">Green</text><text fill="#000000" font-family="sans-serif" font-size="14" lengthAdjust="spacing" textLength="100" x="5" y="400.959">Space Manager</text><text fill="#000000" font-family="sans-serif" font-size="14" lengthAdjust="spacing" textLength="41" x="34.5" y="419.5801">(GSM)</text><ellipse cx="58" cy="431.5938" fill="#E3E3E3" rx="8" ry="8" style="stroke:#181818;stroke-width:0.5;"/><path d="M58,439.5938 L58,466.5938 M45,447.5938 L71,447.5938 M58,466.5938 L45,481.5938 M58,466.5938 L71,481.5938 " fill="none" style="stroke:#181818;stroke-width:0.5;"/><rect fill="#E3E3E3" height="32.6211" rx="2.5" ry="2.5" style="stroke:#181818;stroke-width:0.5;" width="64" x="352" y="126.8633"/><text fill="#000000" font-family="sans-serif" font-size="14" lengthAdjust="spacing" textLength="50" x="359" y="148.9707">:System</text><rect fill="#E3E3E3" height="32.6211" rx="2.5" ry="2.5" style="stroke:#181818;stroke-width:0.5;" width="64" x="352" y="367.2305"/><text fill="#000000" font-family="sans-serif" font-size="14" lengthAdjust="spacing" textLength="50" x="359" y="389.3379">:System</text><rect fill="#FFFFFF" height="188.7461" style="stroke:#181818;stroke-width:1.0;" width="10" x="53" y="170.4844"/><rect fill="#FFFFFF" height="31.291" style="stroke:#181818;stroke-width:1.0;" width="10" x="379" y="193.7754"/><rect fill="#FFFFFF" height="31.291" style="stroke:#181818;stroke-width:1.0;" width="10" x="379" y="256.3574"/><rect fill="#FFFFFF" height="31.291" style="stroke:#181818;stroke-width:1.0;" width="10" x="379" y="318.9395"/><polygon fill="#181818" points="367,189.7754,377,193.7754,367,197.7754,371,193.7754" style="stroke:#181818;stroke-width:1.0;"/><line style="stroke:#181818;stroke-width:1.0;" x1="63" x2="373" y1="193.7754" y2="193.7754"/><text fill="#000000" font-family="sans-serif" font-size="13" font-weight="bold" lengthAdjust="spacing" textLength="7" x="70" y="188.5127">1</text><text fill="#000000" font-family="sans-serif" font-size="13" lengthAdjust="spacing" textLength="286" x="81" y="188.5127">asks to list all the GreenSpaces managed by him</text><polygon fill="#181818" points="74,221.0664,64,225.0664,74,229.0664,70,225.0664" style="stroke:#181818;stroke-width:1.0;"/><line style="stroke:#181818;stroke-width:1.0;stroke-dasharray:2.0,2.0;" x1="68" x2="383" y1="225.0664" y2="225.0664"/><text fill="#000000" font-family="sans-serif" font-size="13" font-weight="bold" lengthAdjust="spacing" textLength="7" x="80" y="219.8037">2</text><text fill="#000000" font-family="sans-serif" font-size="13" lengthAdjust="spacing" textLength="244" x="91" y="219.8037">asks the user to choose the sorting option</text><polygon fill="#181818" points="367,252.3574,377,256.3574,367,260.3574,371,256.3574" style="stroke:#181818;stroke-width:1.0;"/><line style="stroke:#181818;stroke-width:1.0;" x1="63" x2="373" y1="256.3574" y2="256.3574"/><text fill="#000000" font-family="sans-serif" font-size="13" font-weight="bold" lengthAdjust="spacing" textLength="7" x="70" y="251.0947">3</text><text fill="#000000" font-family="sans-serif" font-size="13" lengthAdjust="spacing" textLength="158" x="81" y="251.0947">Chooses one sorting option</text><polygon fill="#181818" points="74,283.6484,64,287.6484,74,291.6484,70,287.6484" style="stroke:#181818;stroke-width:1.0;"/><line style="stroke:#181818;stroke-width:1.0;stroke-dasharray:2.0,2.0;" x1="68" x2="383" y1="287.6484" y2="287.6484"/><text fill="#000000" font-family="sans-serif" font-size="13" font-weight="bold" lengthAdjust="spacing" textLength="7" x="80" y="282.3857">4</text><text fill="#000000" font-family="sans-serif" font-size="13" lengthAdjust="spacing" textLength="124" x="91" y="282.3857">requests confirmation</text><polygon fill="#181818" points="367,314.9395,377,318.9395,367,322.9395,371,318.9395" style="stroke:#181818;stroke-width:1.0;"/><line style="stroke:#181818;stroke-width:1.0;" x1="63" x2="373" y1="318.9395" y2="318.9395"/><text fill="#000000" font-family="sans-serif" font-size="13" font-weight="bold" lengthAdjust="spacing" textLength="7" x="70" y="313.6768">5</text><text fill="#000000" font-family="sans-serif" font-size="13" lengthAdjust="spacing" textLength="231" x="81" y="313.6768">Confirms that he wants to create the list</text><polygon fill="#181818" points="74,346.2305,64,350.2305,74,354.2305,70,350.2305" style="stroke:#181818;stroke-width:1.0;"/><line style="stroke:#181818;stroke-width:1.0;stroke-dasharray:2.0,2.0;" x1="68" x2="383" y1="350.2305" y2="350.2305"/><text fill="#000000" font-family="sans-serif" font-size="13" font-weight="bold" lengthAdjust="spacing" textLength="7" x="80" y="344.9678">6</text><text fill="#000000" font-family="sans-serif" font-size="13" lengthAdjust="spacing" textLength="216" x="91" y="344.9678">shows the list of all the GreenSpaces</text><!--SRC=[dP6nSi8m343tV8ME2GP-e4FlUgN7n7N8oYAC83viARKKkFnz7KFI3c5eFJcEzFGawSLpYmaZH65nJP98OAcZIgS_BReBdgcsFX0aSePy3hy3jC6Zt3oVuOH1gQhCMmwjUpMAKDDNH-m8DXxFG_YohZShMCDRC4gCvgy4dvpJi3FXBXuevRipIR3O9YBUSvqT27R8sIFjURcjTwi5eC97R8FqH5KsCUzyYsomUBcNBX7tQm7wAnhzf5IGp_W5wzTH-2MdNHHC87Wrm1306eAYKaGKOZ4vmg67niS2clXZGNYS1tMT2qp5nX8PsocbePPhH9JAaqhk9KzJMlF21NIaMVwi_NiXAGZFelueceRrgIauuPDF4V_dT4yUMaQ3tECjBwhCs2KQ24FVmxWdcwUQprMraPjE993JtEucpen-LNq3]--></g></svg>