<?xml version="1.0" encoding="us-ascii" standalone="no"?><svg xmlns="http://www.w3.org/2000/svg" xmlns:xlink="http://www.w3.org/1999/xlink" contentStyleType="text/css" height="463px" preserveAspectRatio="none" style="width:541px;height:463px;background:#FFFFFF;" version="1.1" viewBox="0 0 541 463" width="541px" zoomAndPan="magnify"><defs/><g><text fill="#000000" font-family="sans-serif" font-size="14" font-weight="bold" lengthAdjust="spacing" textLength="351" x="94" y="30.1074">System Sequence Diagram (SSD) - Alternative One</text><rect fill="#FFFFFF" height="126.1641" style="stroke:#181818;stroke-width:1.0;" width="10" x="31" y="189.1055"/><rect fill="#FFFFFF" height="31.291" style="stroke:#181818;stroke-width:1.0;" width="10" x="498" y="212.3965"/><rect fill="#FFFFFF" height="31.291" style="stroke:#181818;stroke-width:1.0;" width="10" x="498" y="274.9785"/><line style="stroke:#181818;stroke-width:0.5;stroke-dasharray:5.0,5.0;" x1="36" x2="36" y1="179.1055" y2="324.2695"/><line style="stroke:#181818;stroke-width:0.5;stroke-dasharray:5.0,5.0;" x1="503" x2="503" y1="179.1055" y2="324.2695"/><text fill="#000000" font-family="sans-serif" font-size="14" lengthAdjust="spacing" textLength="40" x="13" y="119.7285">Green</text><text fill="#000000" font-family="sans-serif" font-size="14" lengthAdjust="spacing" textLength="47" x="9.5" y="138.3496">Spaces</text><text fill="#000000" font-family="sans-serif" font-size="14" lengthAdjust="spacing" textLength="56" x="5" y="156.9707">Manager</text><text fill="#000000" font-family="sans-serif" font-size="14" lengthAdjust="spacing" textLength="41" x="12.5" y="175.5918">(GSM)</text><ellipse cx="36" cy="53.1211" fill="#E3E3E3" rx="8" ry="8" style="stroke:#181818;stroke-width:0.5;"/><path d="M36,61.1211 L36,88.1211 M23,69.1211 L49,69.1211 M36,88.1211 L23,103.1211 M36,88.1211 L49,103.1211 " fill="none" style="stroke:#181818;stroke-width:0.5;"/><text fill="#000000" font-family="sans-serif" font-size="14" lengthAdjust="spacing" textLength="40" x="13" y="338.377">Green</text><text fill="#000000" font-family="sans-serif" font-size="14" lengthAdjust="spacing" textLength="47" x="9.5" y="356.998">Spaces</text><text fill="#000000" font-family="sans-serif" font-size="14" lengthAdjust="spacing" textLength="56" x="5" y="375.6191">Manager</text><text fill="#000000" font-family="sans-serif" font-size="14" lengthAdjust="spacing" textLength="41" x="12.5" y="394.2402">(GSM)</text><ellipse cx="36" cy="406.2539" fill="#E3E3E3" rx="8" ry="8" style="stroke:#181818;stroke-width:0.5;"/><path d="M36,414.2539 L36,441.2539 M23,422.2539 L49,422.2539 M36,441.2539 L23,456.2539 M36,441.2539 L49,456.2539 " fill="none" style="stroke:#181818;stroke-width:0.5;"/><rect fill="#E3E3E3" height="32.6211" rx="2.5" ry="2.5" style="stroke:#181818;stroke-width:0.5;" width="64" x="471" y="145.4844"/><text fill="#000000" font-family="sans-serif" font-size="14" lengthAdjust="spacing" textLength="50" x="478" y="167.5918">:System</text><rect fill="#E3E3E3" height="32.6211" rx="2.5" ry="2.5" style="stroke:#181818;stroke-width:0.5;" width="64" x="471" y="323.2695"/><text fill="#000000" font-family="sans-serif" font-size="14" lengthAdjust="spacing" textLength="50" x="478" y="345.377">:System</text><rect fill="#FFFFFF" height="126.1641" style="stroke:#181818;stroke-width:1.0;" width="10" x="31" y="189.1055"/><rect fill="#FFFFFF" height="31.291" style="stroke:#181818;stroke-width:1.0;" width="10" x="498" y="212.3965"/><rect fill="#FFFFFF" height="31.291" style="stroke:#181818;stroke-width:1.0;" width="10" x="498" y="274.9785"/><polygon fill="#181818" points="486,208.3965,496,212.3965,486,216.3965,490,212.3965" style="stroke:#181818;stroke-width:1.0;"/><line style="stroke:#181818;stroke-width:1.0;" x1="41" x2="492" y1="212.3965" y2="212.3965"/><text fill="#000000" font-family="sans-serif" font-size="13" font-weight="bold" lengthAdjust="spacing" textLength="7" x="48" y="207.1338">1</text><text fill="#000000" font-family="sans-serif" font-size="13" lengthAdjust="spacing" textLength="427" x="59" y="207.1338">asks to create a topographic survey, of the pipelines between water points</text><polygon fill="#181818" points="52,239.6875,42,243.6875,52,247.6875,48,243.6875" style="stroke:#181818;stroke-width:1.0;"/><line style="stroke:#181818;stroke-width:1.0;stroke-dasharray:2.0,2.0;" x1="46" x2="502" y1="243.6875" y2="243.6875"/><text fill="#000000" font-family="sans-serif" font-size="13" font-weight="bold" lengthAdjust="spacing" textLength="7" x="58" y="238.4248">2</text><text fill="#000000" font-family="sans-serif" font-size="13" lengthAdjust="spacing" textLength="120" x="69" y="238.4248">asks for confirmation</text><polygon fill="#181818" points="486,270.9785,496,274.9785,486,278.9785,490,274.9785" style="stroke:#181818;stroke-width:1.0;"/><line style="stroke:#181818;stroke-width:1.0;" x1="41" x2="492" y1="274.9785" y2="274.9785"/><text fill="#000000" font-family="sans-serif" font-size="13" font-weight="bold" lengthAdjust="spacing" textLength="7" x="48" y="269.7158">3</text><text fill="#000000" font-family="sans-serif" font-size="13" lengthAdjust="spacing" textLength="322" x="59" y="269.7158">Confirms that he wants to create the topographic survey</text><polygon fill="#181818" points="52,302.2695,42,306.2695,52,310.2695,48,306.2695" style="stroke:#181818;stroke-width:1.0;"/><line style="stroke:#181818;stroke-width:1.0;stroke-dasharray:2.0,2.0;" x1="46" x2="502" y1="306.2695" y2="306.2695"/><text fill="#000000" font-family="sans-serif" font-size="13" font-weight="bold" lengthAdjust="spacing" textLength="7" x="58" y="301.0068">4</text><text fill="#000000" font-family="sans-serif" font-size="13" lengthAdjust="spacing" textLength="381" x="69" y="301.0068">shows a topographic survey, of the pipelines between water points</text><!--SRC=[fP2nRi9038RtF8N5159v0OPALQcOgWwtifZ3IKuazlNE8ShRrn2IeYAcUlBf_Fl_VkTJu8W9MsY5nTT9MW9D7HLv_edeJrYHqw4XIEGLkMhk1tADH-a3Lr1YawaeDAYDkY4hjU3ekoFs1Dk0rMLywTns1MjuQvGIeuOpmHUR33iLxje39UkzIeB5BX7ndfqnKDxp9xAHf3qlT-vpjG3CyD76HWQYmbWq-12H5HQRqVmwCRRNbU6CIh-I0goc5wnV9-IDoKuPLC0dkYZG-YX67-lW8NVfJCCBI0bQ4yGGgGbC6GwalV52Rve4KG9h7arcxma6RdLpN9lv37ApB-q0NhWCgRKZ2LyrH_gxwcc6zr5hEMfKCD3UJdEVwWB_c6j6Uyhyd3lNqkT_NMlQ_vYp-040]--></g></svg>