<?xml version="1.0" encoding="us-ascii" standalone="no"?><svg xmlns="http://www.w3.org/2000/svg" xmlns:xlink="http://www.w3.org/1999/xlink" contentStyleType="text/css" height="680px" preserveAspectRatio="none" style="width:1049px;height:680px;background:#FFFFFF;" version="1.1" viewBox="0 0 1049 680" width="1049px" zoomAndPan="magnify"><defs/><g><rect fill="#FFFFFF" height="411.1133" style="stroke:#181818;stroke-width:1.0;" width="10" x="75.5" y="130.8633"/><rect fill="#FFFFFF" height="387.8223" style="stroke:#181818;stroke-width:1.0;" width="10" x="387.5" y="154.1543"/><rect fill="#FFFFFF" height="219.0371" style="stroke:#181818;stroke-width:1.0;" width="10" x="555.5" y="291.6484"/><rect fill="#FFFFFF" height="31.291" style="stroke:#181818;stroke-width:1.0;" width="10" x="705.5" y="322.9395"/><rect fill="#FFFFFF" height="31.291" style="stroke:#181818;stroke-width:1.0;" width="10" x="812.5" y="385.5215"/><rect fill="#FFFFFF" height="31.291" style="stroke:#181818;stroke-width:1.0;" width="10" x="954.5" y="448.1035"/><line style="stroke:#181818;stroke-width:0.5;stroke-dasharray:5.0,5.0;" x1="80" x2="80" y1="120.8633" y2="559.9766"/><line style="stroke:#181818;stroke-width:0.5;stroke-dasharray:5.0,5.0;" x1="392" x2="392" y1="120.8633" y2="559.9766"/><line style="stroke:#181818;stroke-width:0.5;stroke-dasharray:5.0,5.0;" x1="560" x2="560" y1="256.5469" y2="559.9766"/><line style="stroke:#181818;stroke-width:0.5;stroke-dasharray:5.0,5.0;" x1="710" x2="710" y1="120.8633" y2="559.9766"/><line style="stroke:#181818;stroke-width:0.5;stroke-dasharray:5.0,5.0;" x1="817" x2="817" y1="120.8633" y2="559.9766"/><line style="stroke:#181818;stroke-width:0.5;stroke-dasharray:5.0,5.0;" x1="959" x2="959" y1="120.8633" y2="559.9766"/><text fill="#000000" font-family="sans-serif" font-size="14" lengthAdjust="spacing" textLength="145" x="5" y="80.1074">Vehicle and Equipment</text><text fill="#000000" font-family="sans-serif" font-size="14" lengthAdjust="spacing" textLength="92" x="31.5" y="98.7285">Fleet Manager</text><text fill="#000000" font-family="sans-serif" font-size="14" lengthAdjust="spacing" textLength="39" x="58" y="117.3496">(VFM)</text><ellipse cx="80.5" cy="13.5" fill="#E3E3E3" rx="8" ry="8" style="stroke:#181818;stroke-width:0.5;"/><path d="M80.5,21.5 L80.5,48.5 M67.5,29.5 L93.5,29.5 M80.5,48.5 L67.5,63.5 M80.5,48.5 L93.5,63.5 " fill="none" style="stroke:#181818;stroke-width:0.5;"/><text fill="#000000" font-family="sans-serif" font-size="14" lengthAdjust="spacing" textLength="145" x="5" y="574.084">Vehicle and Equipment</text><text fill="#000000" font-family="sans-serif" font-size="14" lengthAdjust="spacing" textLength="92" x="31.5" y="592.7051">Fleet Manager</text><text fill="#000000" font-family="sans-serif" font-size="14" lengthAdjust="spacing" textLength="39" x="58" y="611.3262">(VFM)</text><ellipse cx="80.5" cy="623.3398" fill="#E3E3E3" rx="8" ry="8" style="stroke:#181818;stroke-width:0.5;"/><path d="M80.5,631.3398 L80.5,658.3398 M67.5,639.3398 L93.5,639.3398 M80.5,658.3398 L67.5,673.3398 M80.5,658.3398 L93.5,673.3398 " fill="none" style="stroke:#181818;stroke-width:0.5;"/><rect fill="#E3E3E3" height="32.6211" rx="2.5" ry="2.5" style="stroke:#181818;stroke-width:0.5;" width="133" x="326" y="87.2422"/><text fill="#000000" font-family="sans-serif" font-size="14" lengthAdjust="spacing" textLength="119" x="333" y="109.3496">:ListMaintenanceUI</text><rect fill="#E3E3E3" height="32.6211" rx="2.5" ry="2.5" style="stroke:#181818;stroke-width:0.5;" width="133" x="326" y="558.9766"/><text fill="#000000" font-family="sans-serif" font-size="14" lengthAdjust="spacing" textLength="119" x="333" y="581.084">:ListMaintenanceUI</text><rect fill="#E3E3E3" height="32.6211" rx="2.5" ry="2.5" style="stroke:#181818;stroke-width:0.5;" width="183" x="469" y="558.9766"/><text fill="#000000" font-family="sans-serif" font-size="14" lengthAdjust="spacing" textLength="169" x="476" y="581.084">:ListMaintenanceController</text><rect fill="#E3E3E3" height="32.6211" rx="2.5" ry="2.5" style="stroke:#181818;stroke-width:0.5;" width="97" x="662" y="87.2422"/><text fill="#000000" font-family="sans-serif" font-size="14" lengthAdjust="spacing" textLength="83" x="669" y="109.3496">:Repositories</text><rect fill="#E3E3E3" height="32.6211" rx="2.5" ry="2.5" style="stroke:#181818;stroke-width:0.5;" width="97" x="662" y="558.9766"/><text fill="#000000" font-family="sans-serif" font-size="14" lengthAdjust="spacing" textLength="83" x="669" y="581.084">:Repositories</text><rect fill="#E3E3E3" height="51.2422" rx="2.5" ry="2.5" style="stroke:#181818;stroke-width:0.5;" width="97" x="769" y="68.6211"/><text fill="#000000" font-family="sans-serif" font-size="14" lengthAdjust="spacing" textLength="74" x="780.5" y="90.7285">repositories</text><text fill="#000000" font-family="sans-serif" font-size="14" lengthAdjust="spacing" textLength="83" x="776" y="109.3496">:Repositories</text><rect fill="#E3E3E3" height="51.2422" rx="2.5" ry="2.5" style="stroke:#181818;stroke-width:0.5;" width="97" x="769" y="558.9766"/><text fill="#000000" font-family="sans-serif" font-size="14" lengthAdjust="spacing" textLength="74" x="780.5" y="581.084">repositories</text><text fill="#000000" font-family="sans-serif" font-size="14" lengthAdjust="spacing" textLength="83" x="776" y="599.7051">:Repositories</text><rect fill="#E3E3E3" height="51.2422" rx="2.5" ry="2.5" style="stroke:#181818;stroke-width:0.5;" width="167" x="876" y="68.6211"/><text fill="#000000" font-family="sans-serif" font-size="14" lengthAdjust="spacing" textLength="149" x="885" y="90.7285">maintenanceRepository</text><text fill="#000000" font-family="sans-serif" font-size="14" lengthAdjust="spacing" textLength="153" x="883" y="109.3496">:MaintenanceRepository</text><rect fill="#E3E3E3" height="51.2422" rx="2.5" ry="2.5" style="stroke:#181818;stroke-width:0.5;" width="167" x="876" y="558.9766"/><text fill="#000000" font-family="sans-serif" font-size="14" lengthAdjust="spacing" textLength="149" x="885" y="581.084">maintenanceRepository</text><text fill="#000000" font-family="sans-serif" font-size="14" lengthAdjust="spacing" textLength="153" x="883" y="599.7051">:MaintenanceRepository</text><rect fill="#FFFFFF" height="411.1133" style="stroke:#181818;stroke-width:1.0;" width="10" x="75.5" y="130.8633"/><rect fill="#FFFFFF" height="387.8223" style="stroke:#181818;stroke-width:1.0;" width="10" x="387.5" y="154.1543"/><rect fill="#FFFFFF" height="219.0371" style="stroke:#181818;stroke-width:1.0;" width="10" x="555.5" y="291.6484"/><rect fill="#FFFFFF" height="31.291" style="stroke:#181818;stroke-width:1.0;" width="10" x="705.5" y="322.9395"/><rect fill="#FFFFFF" height="31.291" style="stroke:#181818;stroke-width:1.0;" width="10" x="812.5" y="385.5215"/><rect fill="#FFFFFF" height="31.291" style="stroke:#181818;stroke-width:1.0;" width="10" x="954.5" y="448.1035"/><polygon fill="#181818" points="375.5,150.1543,385.5,154.1543,375.5,158.1543,379.5,154.1543" style="stroke:#181818;stroke-width:1.0;"/><line style="stroke:#181818;stroke-width:1.0;" x1="85.5" x2="381.5" y1="154.1543" y2="154.1543"/><text fill="#000000" font-family="sans-serif" font-size="13" font-weight="bold" lengthAdjust="spacing" textLength="7" x="92.5" y="148.8916">1</text><text fill="#000000" font-family="sans-serif" font-size="13" lengthAdjust="spacing" textLength="272" x="103.5" y="148.8916">asks to list the vehicles that need maintenance</text><polygon fill="#181818" points="96.5,181.4453,86.5,185.4453,96.5,189.4453,92.5,185.4453" style="stroke:#181818;stroke-width:1.0;"/><line style="stroke:#181818;stroke-width:1.0;stroke-dasharray:2.0,2.0;" x1="90.5" x2="386.5" y1="185.4453" y2="185.4453"/><text fill="#000000" font-family="sans-serif" font-size="13" font-weight="bold" lengthAdjust="spacing" textLength="7" x="102.5" y="180.1826">2</text><text fill="#000000" font-family="sans-serif" font-size="13" lengthAdjust="spacing" textLength="120" x="113.5" y="180.1826">asks for confirmation</text><polygon fill="#181818" points="375.5,212.7363,385.5,216.7363,375.5,220.7363,379.5,216.7363" style="stroke:#181818;stroke-width:1.0;"/><line style="stroke:#181818;stroke-width:1.0;" x1="85.5" x2="381.5" y1="216.7363" y2="216.7363"/><text fill="#000000" font-family="sans-serif" font-size="13" font-weight="bold" lengthAdjust="spacing" textLength="7" x="92.5" y="211.4736">3</text><text fill="#000000" font-family="sans-serif" font-size="13" lengthAdjust="spacing" textLength="229" x="103.5" y="211.4736">confirms that he wants to create the list</text><polygon fill="#181818" points="457,244.0273,467,248.0273,457,252.0273,461,248.0273" style="stroke:#181818;stroke-width:1.0;"/><line style="stroke:#181818;stroke-width:1.0;" x1="397.5" x2="463" y1="248.0273" y2="248.0273"/><text fill="#000000" font-family="sans-serif" font-size="13" font-weight="bold" lengthAdjust="spacing" textLength="7" x="404.5" y="242.7646">4</text><text fill="#000000" font-family="sans-serif" font-size="13" lengthAdjust="spacing" textLength="36" x="415.5" y="242.7646">create</text><rect fill="#E3E3E3" height="32.6211" rx="2.5" ry="2.5" style="stroke:#181818;stroke-width:0.5;" width="183" x="469" y="224.7363"/><text fill="#000000" font-family="sans-serif" font-size="14" lengthAdjust="spacing" textLength="169" x="476" y="246.8438">:ListMaintenanceController</text><polygon fill="#181818" points="543.5,287.6484,553.5,291.6484,543.5,295.6484,547.5,291.6484" style="stroke:#181818;stroke-width:1.0;"/><line style="stroke:#181818;stroke-width:1.0;" x1="397.5" x2="549.5" y1="291.6484" y2="291.6484"/><text fill="#000000" font-family="sans-serif" font-size="13" font-weight="bold" lengthAdjust="spacing" textLength="7" x="404.5" y="286.3857">5</text><text fill="#000000" font-family="sans-serif" font-size="13" lengthAdjust="spacing" textLength="121" x="415.5" y="286.3857">getMaintenanceList()</text><polygon fill="#181818" points="693.5,318.9395,703.5,322.9395,693.5,326.9395,697.5,322.9395" style="stroke:#181818;stroke-width:1.0;"/><line style="stroke:#181818;stroke-width:1.0;" x1="565.5" x2="699.5" y1="322.9395" y2="322.9395"/><text fill="#000000" font-family="sans-serif" font-size="13" font-weight="bold" lengthAdjust="spacing" textLength="7" x="572.5" y="317.6768">6</text><text fill="#000000" font-family="sans-serif" font-size="13" lengthAdjust="spacing" textLength="75" x="583.5" y="317.6768">getInstance()</text><polygon fill="#181818" points="576.5,350.2305,566.5,354.2305,576.5,358.2305,572.5,354.2305" style="stroke:#181818;stroke-width:1.0;"/><line style="stroke:#181818;stroke-width:1.0;stroke-dasharray:2.0,2.0;" x1="570.5" x2="709.5" y1="354.2305" y2="354.2305"/><text fill="#000000" font-family="sans-serif" font-size="13" font-weight="bold" lengthAdjust="spacing" textLength="7" x="582.5" y="348.9678">7</text><text fill="#000000" font-family="sans-serif" font-size="13" lengthAdjust="spacing" textLength="67" x="593.5" y="348.9678">repositories</text><polygon fill="#181818" points="800.5,381.5215,810.5,385.5215,800.5,389.5215,804.5,385.5215" style="stroke:#181818;stroke-width:1.0;"/><line style="stroke:#181818;stroke-width:1.0;" x1="565.5" x2="806.5" y1="385.5215" y2="385.5215"/><text fill="#000000" font-family="sans-serif" font-size="13" font-weight="bold" lengthAdjust="spacing" textLength="7" x="572.5" y="380.2588">8</text><text fill="#000000" font-family="sans-serif" font-size="13" lengthAdjust="spacing" textLength="162" x="583.5" y="380.2588">getMaintenanceRepository()</text><polygon fill="#181818" points="576.5,412.8125,566.5,416.8125,576.5,420.8125,572.5,416.8125" style="stroke:#181818;stroke-width:1.0;"/><line style="stroke:#181818;stroke-width:1.0;stroke-dasharray:2.0,2.0;" x1="570.5" x2="816.5" y1="416.8125" y2="416.8125"/><text fill="#000000" font-family="sans-serif" font-size="13" font-weight="bold" lengthAdjust="spacing" textLength="7" x="582.5" y="411.5498">9</text><text fill="#000000" font-family="sans-serif" font-size="13" lengthAdjust="spacing" textLength="136" x="593.5" y="411.5498">maintenanceRepository</text><polygon fill="#181818" points="942.5,444.1035,952.5,448.1035,942.5,452.1035,946.5,448.1035" style="stroke:#181818;stroke-width:1.0;"/><line style="stroke:#181818;stroke-width:1.0;" x1="565.5" x2="948.5" y1="448.1035" y2="448.1035"/><text fill="#000000" font-family="sans-serif" font-size="13" font-weight="bold" lengthAdjust="spacing" textLength="14" x="572.5" y="442.8408">10</text><text fill="#000000" font-family="sans-serif" font-size="13" lengthAdjust="spacing" textLength="121" x="590.5" y="442.8408">getMaintenanceList()</text><polygon fill="#181818" points="576.5,475.3945,566.5,479.3945,576.5,483.3945,572.5,479.3945" style="stroke:#181818;stroke-width:1.0;"/><line style="stroke:#181818;stroke-width:1.0;stroke-dasharray:2.0,2.0;" x1="570.5" x2="958.5" y1="479.3945" y2="479.3945"/><text fill="#000000" font-family="sans-serif" font-size="13" font-weight="bold" lengthAdjust="spacing" textLength="14" x="582.5" y="474.1318">11</text><text fill="#000000" font-family="sans-serif" font-size="13" lengthAdjust="spacing" textLength="95" x="600.5" y="474.1318">maintenanceList</text><polygon fill="#181818" points="408.5,506.6855,398.5,510.6855,408.5,514.6855,404.5,510.6855" style="stroke:#181818;stroke-width:1.0;"/><line style="stroke:#181818;stroke-width:1.0;stroke-dasharray:2.0,2.0;" x1="402.5" x2="559.5" y1="510.6855" y2="510.6855"/><text fill="#000000" font-family="sans-serif" font-size="13" font-weight="bold" lengthAdjust="spacing" textLength="14" x="414.5" y="505.4229">12</text><text fill="#000000" font-family="sans-serif" font-size="13" lengthAdjust="spacing" textLength="95" x="432.5" y="505.4229">maintenanceList</text><polygon fill="#181818" points="91.5,537.9766,81.5,541.9766,91.5,545.9766,87.5,541.9766" style="stroke:#181818;stroke-width:1.0;"/><line style="stroke:#181818;stroke-width:1.0;stroke-dasharray:2.0,2.0;" x1="85.5" x2="391.5" y1="541.9766" y2="541.9766"/><text fill="#000000" font-family="sans-serif" font-size="13" font-weight="bold" lengthAdjust="spacing" textLength="14" x="97.5" y="536.7139">13</text><text fill="#000000" font-family="sans-serif" font-size="13" lengthAdjust="spacing" textLength="80" x="115.5" y="536.7139">shows the list</text><!--SRC=[bLJ9JiCm4BtxAqQzi4ZzWHwue29LeX9YE_LYacbZDHa7UqhXxncx8Gjr8l0fiT-yzsQn_TvGhPskeB9aiyBP2e7T0PLlJsgTxVKEd_YhH72OiQPTsGVuGkVsQ6W7MrrwL4eVsDAXUaEdr4LXSeIjjVncFvNEs3gOlM9XCc7JbCFo_M3g2eatT5SYCgmrYPpRqENhtVfg1jg3V2ZHOfEPMXF3R75lFA-r8KRIbE7BAk9ULjEmMqliR5cYY_3RvyVxNm6FM5jlnAH17p7jnjUJ2NbBPiCGrulOK89W-J0Cg3e_7Rb4hbFxaI8PeLIefldGZB4-2febFp2_aLh0GeBt7jX2ANK0BX0-JfMNpK8p46BUP-z8McefQRiPbj3EXJs8DFHRwMXcQMjSfTb8UGRulfi6rOYBcwCK9FhB70Qnu31OFLEyYRswlWua4Jg2aFCTzZiU1k3oQe1kKulj7no55Mc4Bj7u4_kAF0VgNxG3wjJKdA73IgdCcsGMq9-ji_0S_oVN9hPyE2jJHp2PbOnoEWkXx5odntNAVehtnswIRQpFuzv7xX2ChBJgl1kpQgWzbTuVfF-7FfKctgff8ptQEEpfYxoG5zmU_V3szKB34z3xZO-D-WO0]--></g></svg>