<?xml version="1.0" encoding="us-ascii" standalone="no"?><svg xmlns="http://www.w3.org/2000/svg" xmlns:xlink="http://www.w3.org/1999/xlink" contentStyleType="text/css" height="337px" preserveAspectRatio="none" style="width:338px;height:337px;background:#FFFFFF;" version="1.1" viewBox="0 0 338 337" width="338px" zoomAndPan="magnify"><defs/><g><!--class GSM--><g id="elem_GSM"><rect codeLine="18" fill="#F1F1F1" height="34.4883" id="GSM" rx="2.5" ry="2.5" style="stroke:#181818;stroke-width:0.5;" width="36" x="88.5" y="15.25"/><text fill="#000000" font-family="sans-serif" font-size="14" lengthAdjust="spacing" textLength="30" x="91.5" y="33.7852">GSM</text><line style="stroke:#181818;stroke-width:0.5;" x1="89.5" x2="123.5" y1="41.7383" y2="41.7383"/></g><!--class GreenSpace--><g id="elem_GreenSpace"><rect codeLine="22" fill="#F1F1F1" height="67.4648" id="GreenSpace" rx="2.5" ry="2.5" style="stroke:#181818;stroke-width:0.5;" width="87" x="7" y="134.98"/><text fill="#000000" font-family="sans-serif" font-size="14" lengthAdjust="spacing" textLength="81" x="10" y="153.5152">GreenSpace</text><line style="stroke:#181818;stroke-width:0.5;" x1="8" x2="93" y1="161.4683" y2="161.4683"/><text fill="#000000" font-family="sans-serif" font-size="14" lengthAdjust="spacing" textLength="38" x="13" y="179.0034">name</text><text fill="#000000" font-family="sans-serif" font-size="14" lengthAdjust="spacing" textLength="30" x="13" y="195.4917">area</text></g><!--class Entry--><g id="elem_Entry"><rect codeLine="27" fill="#F1F1F1" height="67.4648" id="Entry" rx="2.5" ry="2.5" style="stroke:#181818;stroke-width:0.5;" width="92" x="179.5" y="263.45"/><text fill="#000000" font-family="sans-serif" font-size="14" lengthAdjust="spacing" textLength="35" x="208" y="281.9852">Entry</text><line style="stroke:#181818;stroke-width:0.5;" x1="180.5" x2="270.5" y1="289.9383" y2="289.9383"/><text fill="#000000" font-family="sans-serif" font-size="14" lengthAdjust="spacing" textLength="28" x="185.5" y="307.4734">task</text><text fill="#000000" font-family="sans-serif" font-size="14" lengthAdjust="spacing" textLength="80" x="185.5" y="323.9617">greenSpace</text></g><!--class AgendaEntry--><g id="elem_AgendaEntry"><rect codeLine="32" fill="#F1F1F1" height="67.4648" id="AgendaEntry" rx="2.5" ry="2.5" style="stroke:#181818;stroke-width:0.5;" width="94" x="178.5" y="134.98"/><text fill="#000000" font-family="sans-serif" font-size="14" lengthAdjust="spacing" textLength="88" x="181.5" y="153.5152">AgendaEntry</text><line style="stroke:#181818;stroke-width:0.5;" x1="179.5" x2="271.5" y1="161.4683" y2="161.4683"/><text fill="#000000" font-family="sans-serif" font-size="14" lengthAdjust="spacing" textLength="30" x="184.5" y="179.0034">date</text><text fill="#000000" font-family="sans-serif" font-size="14" lengthAdjust="spacing" textLength="41" x="184.5" y="195.4917">status</text></g><!--class Agenda--><g id="elem_Agenda"><rect codeLine="37" fill="#F1F1F1" height="50.9766" id="Agenda" rx="2.5" ry="2.5" style="stroke:#181818;stroke-width:0.5;" width="112" x="219.5" y="7"/><text fill="#000000" font-family="sans-serif" font-size="14" lengthAdjust="spacing" textLength="53" x="249" y="25.5352">Agenda</text><line style="stroke:#181818;stroke-width:0.5;" x1="220.5" x2="330.5" y1="33.4883" y2="33.4883"/><text fill="#000000" font-family="sans-serif" font-size="14" lengthAdjust="spacing" textLength="100" x="225.5" y="51.0234">AgendaEntries</text></g><!--link GSM to GreenSpace--><g id="link_GSM_GreenSpace"><path codeLine="42" d="M88.28,44.31 C74.2,53.82 55.77,69.08 47.5,87.98 C41.17,102.45 41.07,119.84 42.91,134.69 " fill="none" id="GSM-GreenSpace" style="stroke:#181818;stroke-width:1.0;"/><polygon fill="#000000" points="50.2568,101.1038,56.9413,94.3386,51.6882,91.7016,50.2568,101.1038" style="stroke:#000000;stroke-width:1.0;"/><text fill="#000000" font-family="sans-serif" font-size="13" lengthAdjust="spacing" textLength="56" x="61.5" y="101.5484">manages</text><text fill="#000000" font-family="sans-serif" font-size="13" lengthAdjust="spacing" textLength="8" x="72.3641" y="43.4712">1</text><text fill="#000000" font-family="sans-serif" font-size="13" lengthAdjust="spacing" textLength="22" x="17.2501" y="124.1142">0..*</text></g><!--link Agenda to AgendaEntry--><g id="link_Agenda_AgendaEntry"><path codeLine="43" d="M266.21,58.42 C258.19,79.95 246.54,111.22 237.76,134.81 " fill="none" id="Agenda-AgendaEntry" style="stroke:#181818;stroke-width:1.0;"/><polygon fill="#000000" points="258.7549,101.3209,264.6659,93.8703,259.1577,91.8188,258.7549,101.3209" style="stroke:#000000;stroke-width:1.0;"/><text fill="#000000" font-family="sans-serif" font-size="13" lengthAdjust="spacing" textLength="53" x="269.5" y="101.5484">includes</text><text fill="#000000" font-family="sans-serif" font-size="13" lengthAdjust="spacing" textLength="8" x="255.3028" y="78.3355">1</text><text fill="#000000" font-family="sans-serif" font-size="13" lengthAdjust="spacing" textLength="22" x="216.0081" y="124.2578">0..*</text></g><!--link AgendaEntry to Entry--><g id="link_AgendaEntry_Entry"><path codeLine="44" d="M225.5,202.94 C225.5,221.53 225.5,226.62 225.5,245.17 " fill="none" id="AgendaEntry-to-Entry" style="stroke:#181818;stroke-width:1.0;"/><polygon fill="none" points="225.5,263.17,231.5,245.17,219.5,245.17,225.5,263.17" style="stroke:#181818;stroke-width:1.0;"/></g><!--link GSM to AgendaEntry--><g id="link_GSM_AgendaEntry"><path codeLine="45" d="M120.37,50.12 C132.61,64.71 151.03,86.44 167.5,104.98 C176.17,114.74 185.73,125.2 194.55,134.73 " fill="none" id="GSM-AgendaEntry" style="stroke:#181818;stroke-width:1.0;"/><polygon fill="#000000" points="175.7962,100.3949,172.0432,91.6562,167.6234,95.5311,175.7962,100.3949" style="stroke:#000000;stroke-width:1.0;"/><text fill="#000000" font-family="sans-serif" font-size="13" lengthAdjust="spacing" textLength="59" x="181.5" y="101.5484">postpone</text><text fill="#000000" font-family="sans-serif" font-size="13" lengthAdjust="spacing" textLength="8" x="115.3927" y="70.4307">1</text><text fill="#000000" font-family="sans-serif" font-size="13" lengthAdjust="spacing" textLength="22" x="164.2911" y="124.1621">0..*</text></g><!--SRC=[lP0zRiCm38LtdOBmKg20WtJD4213KNJ8v1Em4YCBaIb3f56aFtUlOmUsKdJk95BytkEJv1ounumTT8cJRNFg23GFP6IPz6ZFwAdHIoJ8P1NPnnAG5brw3-pXX578c8T89mLDa8Dl5LougaBYGlClwmgHZIXoKCtXRL1wjOcRy46mDMrm13Pa6qdcfYDjanDZp2I2b-O8dyPyBtqcucQCIUCr06D7uu6PS6MUMVDb6WCeodag_29SmOCdTbZY3fMcGXHraD_eZLfrWIR6N6DMJnNKDLJRpUQnAeFke4CUVrLWRsu-zsoPOmU1RHnSGS-3klxQpq_xOzkzGvz4-yGqEfWV]--></g></svg>