<?xml version="1.0" encoding="us-ascii" standalone="no"?><svg xmlns="http://www.w3.org/2000/svg" xmlns:xlink="http://www.w3.org/1999/xlink" contentStyleType="text/css" height="504px" preserveAspectRatio="none" style="width:681px;height:504px;background:#FFFFFF;" version="1.1" viewBox="0 0 681 504" width="681px" zoomAndPan="magnify"><defs/><g><!--class HRM--><g id="elem_HRM"><rect codeLine="13" fill="#F1F1F1" height="36.6211" id="HRM" rx="2.5" ry="2.5" style="stroke:#181818;stroke-width:0.5;" width="36" x="7" y="187.5"/><text fill="#000000" font-family="sans-serif" font-size="14" lengthAdjust="spacing" textLength="30" x="10" y="207.6074">HRM</text><line style="stroke:#181818;stroke-width:0.5;" x1="8" x2="42" y1="216.1211" y2="216.1211"/></g><!--class Team--><g id="elem_Team"><rect codeLine="17" fill="#F1F1F1" height="73.8633" id="Team" rx="2.5" ry="2.5" style="stroke:#181818;stroke-width:0.5;" width="70" x="136" y="169"/><text fill="#000000" font-family="sans-serif" font-size="14" lengthAdjust="spacing" textLength="36" x="153" y="189.1074">Team</text><line style="stroke:#181818;stroke-width:0.5;" x1="137" x2="205" y1="197.6211" y2="197.6211"/><text fill="#000000" font-family="sans-serif" font-size="14" lengthAdjust="spacing" textLength="24" x="142" y="216.7285">size</text><text fill="#000000" font-family="sans-serif" font-size="14" lengthAdjust="spacing" textLength="58" x="142" y="235.3496">members</text></g><!--class Collaborator--><g id="elem_Collaborator"><rect codeLine="23" fill="#F1F1F1" height="166.9688" id="Collaborator" rx="2.5" ry="2.5" style="stroke:#181818;stroke-width:0.5;" width="136" x="129" y="331"/><text fill="#000000" font-family="sans-serif" font-size="14" lengthAdjust="spacing" textLength="78" x="158" y="351.1074">Collaborator</text><line style="stroke:#181818;stroke-width:0.5;" x1="130" x2="264" y1="359.6211" y2="359.6211"/><text fill="#000000" font-family="sans-serif" font-size="14" lengthAdjust="spacing" textLength="35" x="135" y="378.7285">name</text><text fill="#000000" font-family="sans-serif" font-size="14" lengthAdjust="spacing" textLength="56" x="135" y="397.3496">birthdate</text><text fill="#000000" font-family="sans-serif" font-size="14" lengthAdjust="spacing" textLength="93" x="135" y="415.9707">admissionDate</text><text fill="#000000" font-family="sans-serif" font-size="14" lengthAdjust="spacing" textLength="51" x="135" y="434.5918">address</text><text fill="#000000" font-family="sans-serif" font-size="14" lengthAdjust="spacing" textLength="69" x="135" y="453.2129">contactInfo</text><text fill="#000000" font-family="sans-serif" font-size="14" lengthAdjust="spacing" textLength="107" x="135" y="471.834">idDocumentType</text><text fill="#000000" font-family="sans-serif" font-size="14" lengthAdjust="spacing" textLength="124" x="135" y="490.4551">idDocumentNumber</text></g><!--class GreenSpace--><g id="elem_GreenSpace"><rect codeLine="33" fill="#F1F1F1" height="92.4844" id="GreenSpace" rx="2.5" ry="2.5" style="stroke:#181818;stroke-width:0.5;" width="86" x="378" y="160"/><text fill="#000000" font-family="sans-serif" font-size="14" lengthAdjust="spacing" textLength="80" x="381" y="180.1074">GreenSpace</text><line style="stroke:#181818;stroke-width:0.5;" x1="379" x2="463" y1="188.6211" y2="188.6211"/><text fill="#000000" font-family="sans-serif" font-size="14" lengthAdjust="spacing" textLength="35" x="384" y="207.7285">name</text><text fill="#000000" font-family="sans-serif" font-size="14" lengthAdjust="spacing" textLength="51" x="384" y="226.3496">address</text><text fill="#000000" font-family="sans-serif" font-size="14" lengthAdjust="spacing" textLength="64" x="384" y="244.9707">dimension</text></g><!--class Garden--><g id="elem_Garden"><rect codeLine="39" fill="#F1F1F1" height="36.6211" id="Garden" rx="2.5" ry="2.5" style="stroke:#181818;stroke-width:0.5;" width="54" x="326" y="396"/><text fill="#000000" font-family="sans-serif" font-size="14" lengthAdjust="spacing" textLength="48" x="329" y="416.1074">Garden</text><line style="stroke:#181818;stroke-width:0.5;" x1="327" x2="379" y1="424.6211" y2="424.6211"/></g><!--class MediumSizedPark--><g id="elem_MediumSizedPark"><rect codeLine="42" fill="#F1F1F1" height="36.6211" id="MediumSizedPark" rx="2.5" ry="2.5" style="stroke:#181818;stroke-width:0.5;" width="118" x="415" y="396"/><text fill="#000000" font-family="sans-serif" font-size="14" lengthAdjust="spacing" textLength="112" x="418" y="416.1074">MediumSizedPark</text><line style="stroke:#181818;stroke-width:0.5;" x1="416" x2="532" y1="424.6211" y2="424.6211"/></g><!--class LargeSizedPark--><g id="elem_LargeSizedPark"><rect codeLine="45" fill="#F1F1F1" height="36.6211" id="LargeSizedPark" rx="2.5" ry="2.5" style="stroke:#181818;stroke-width:0.5;" width="106" x="568" y="396"/><text fill="#000000" font-family="sans-serif" font-size="14" lengthAdjust="spacing" textLength="100" x="571" y="416.1074">LargeSizedPark</text><line style="stroke:#181818;stroke-width:0.5;" x1="569" x2="673" y1="424.6211" y2="424.6211"/></g><!--class Organization--><g id="elem_Organization"><rect codeLine="48" fill="#F1F1F1" height="73.8633" id="Organization" rx="2.5" ry="2.5" style="stroke:#181818;stroke-width:0.5;" width="86" x="262" y="7"/><text fill="#000000" font-family="sans-serif" font-size="14" lengthAdjust="spacing" textLength="80" x="265" y="27.1074">Organization</text><line style="stroke:#181818;stroke-width:0.5;" x1="263" x2="347" y1="35.6211" y2="35.6211"/><text fill="#000000" font-family="sans-serif" font-size="14" lengthAdjust="spacing" textLength="35" x="268" y="54.7285">name</text><text fill="#000000" font-family="sans-serif" font-size="14" lengthAdjust="spacing" textLength="51" x="268" y="73.3496">address</text></g><!--link HRM to Team--><g id="link_HRM_Team"><path codeLine="53" d="M43.2,206 C66.28,206 106.6,206 135.79,206 " fill="none" id="HRM-Team" style="stroke:#181818;stroke-width:1.0;"/><polygon fill="#000000" points="70.5,193.6455,61.4549,190.7066,61.4549,196.5844,70.5,193.6455" style="stroke:#000000;stroke-width:1.0;"/><text fill="#000000" font-family="sans-serif" font-size="13" lengthAdjust="spacing" textLength="43" x="74.5" y="199.0283">creates</text><text fill="#000000" font-family="sans-serif" font-size="13" lengthAdjust="spacing" textLength="7" x="50.9306" y="200.1195">1</text><text fill="#000000" font-family="sans-serif" font-size="13" lengthAdjust="spacing" textLength="20" x="108.0195" y="221.526">1..*</text></g><!--reverse link Collaborator to HRM--><g id="link_Collaborator_HRM"><path codeLine="54" d="M117.1705,317.6589 C84.3305,278.2289 59.41,248.31 39.66,224.61 " fill="none" id="Collaborator-backto-HRM" style="stroke:#181818;stroke-width:1.0;"/><polygon fill="none" points="128.69,331.49,121.7809,313.819,112.5601,321.4987,128.69,331.49" style="stroke:#181818;stroke-width:1.0;"/></g><!--link Team to Collaborator--><g id="link_Team_Collaborator"><path codeLine="55" d="M175.59,243.44 C178.64,267.64 182.76,300.42 186.58,330.74 " fill="none" id="Team-Collaborator" style="stroke:#181818;stroke-width:1.0;"/><polygon fill="#000000" points="188.6245,296.6064,190.4107,287.265,184.5788,287.9992,188.6245,296.6064" style="stroke:#000000;stroke-width:1.0;"/><text fill="#000000" font-family="sans-serif" font-size="13" lengthAdjust="spacing" textLength="21" x="197" y="297.0283">has</text><text fill="#000000" font-family="sans-serif" font-size="13" lengthAdjust="spacing" textLength="7" x="168.7637" y="264.8241">1</text><text fill="#000000" font-family="sans-serif" font-size="13" lengthAdjust="spacing" textLength="20" x="164.8252" y="319.8536">1..*</text></g><!--link GreenSpace to Collaborator--><g id="link_GreenSpace_Collaborator"><path codeLine="56" d="M377.81,246.82 C345.9,276.23 301.82,316.87 265.18,350.65 " fill="none" id="GreenSpace-Collaborator" style="stroke:#181818;stroke-width:1.0;"/><polygon fill="#000000" points="336.3238,295.0345,344.9661,291.0646,340.9821,286.7429,336.3238,295.0345" style="stroke:#000000;stroke-width:1.0;"/><text fill="#000000" font-family="sans-serif" font-size="13" lengthAdjust="spacing" textLength="21" x="349" y="297.0283">has</text><text fill="#000000" font-family="sans-serif" font-size="13" lengthAdjust="spacing" textLength="7" x="363.077" y="249.1853">1</text><text fill="#000000" font-family="sans-serif" font-size="13" lengthAdjust="spacing" textLength="20" x="273.2423" y="340.2338">1..*</text></g><!--reverse link GreenSpace to Garden--><g id="link_GreenSpace_Garden"><path codeLine="57" d="M400.5305,269.157 C385.6805,314.257 369.22,364.24 358.82,395.83 " fill="none" id="GreenSpace-backto-Garden" style="stroke:#181818;stroke-width:1.0;"/><polygon fill="none" points="406.16,252.06,394.8315,267.2805,406.2295,271.0335,406.16,252.06" style="stroke:#181818;stroke-width:1.0;"/></g><!--reverse link GreenSpace to MediumSizedPark--><g id="link_GreenSpace_MediumSizedPark"><path codeLine="58" d="M437.0429,269.4954 C448.6129,314.5954 461.36,364.24 469.47,395.83 " fill="none" id="GreenSpace-backto-MediumSizedPark" style="stroke:#181818;stroke-width:1.0;"/><polygon fill="none" points="432.57,252.06,431.2311,270.9864,442.8547,268.0044,432.57,252.06" style="stroke:#181818;stroke-width:1.0;"/></g><!--reverse link GreenSpace to LargeSizedPark--><g id="link_GreenSpace_LargeSizedPark"><path codeLine="59" d="M477.4694,258.3267 C503.3094,282.2067 523.17,301.51 551,331 C571.37,352.59 593.26,378.95 607.03,395.98 " fill="none" id="GreenSpace-backto-LargeSizedPark" style="stroke:#181818;stroke-width:1.0;"/><polygon fill="none" points="464.25,246.11,473.3972,262.7332,481.5416,253.9202,464.25,246.11" style="stroke:#181818;stroke-width:1.0;"/></g><!--link Organization to GreenSpace--><g id="link_Organization_GreenSpace"><path codeLine="60" d="M331.32,81.31 C348.23,104.63 370.33,135.11 388.36,159.97 " fill="none" id="Organization-GreenSpace" style="stroke:#181818;stroke-width:1.0;"/><polygon fill="#000000" points="373.9352,124.6933,371.0046,115.6455,366.2461,119.0961,373.9352,124.6933" style="stroke:#000000;stroke-width:1.0;"/><text fill="#000000" font-family="sans-serif" font-size="13" lengthAdjust="spacing" textLength="30" x="380" y="126.0283">owns</text><text fill="#000000" font-family="sans-serif" font-size="13" lengthAdjust="spacing" textLength="7" x="328.0996" y="102.961">1</text><text fill="#000000" font-family="sans-serif" font-size="13" lengthAdjust="spacing" textLength="20" x="361.8308" y="148.6336">1..*</text></g><!--link Organization to Collaborator--><g id="link_Organization_Collaborator"><path codeLine="61" d="M294.45,81 C277.6,138.5 244.17,252.55 221.21,330.9 " fill="none" id="Organization-Collaborator" style="stroke:#181818;stroke-width:1.0;"/><polygon fill="#000000" points="277.4062,201.3473,272.042,209.2007,277.6826,210.8539,277.4062,201.3473" style="stroke:#000000;stroke-width:1.0;"/><text fill="#000000" font-family="sans-serif" font-size="13" lengthAdjust="spacing" textLength="52" x="285" y="211.5283">works for</text><text fill="#000000" font-family="sans-serif" font-size="13" lengthAdjust="spacing" textLength="7" x="272.0039" y="102.8854">1</text><text fill="#000000" font-family="sans-serif" font-size="13" lengthAdjust="spacing" textLength="20" x="202.4756" y="319.74">1..*</text></g><!--SRC=[bP5HIyCm4CVVyocElGZ2XhuE4SI13foAsnUu9jSsj4d69MLiq-zkqcdNTUx1FfJaxl_F_VcThxHT8wC1uwoJ9Jj34BWXuRlE6cM51It3jYPWaW5jKVS5laJbDjeMa6FjIOYhcl80mG7heWoWT79fPqNF96lq_Y44rbaJQ2wTNUeTmOqGfLO4KhECGzgpeL0wvOKGhGcUFnQm5mA-VWihYW_k1SJFnqVQWo6J4KTJftfqTOsPOmoEVzGMpK6TQGwbmd2ueJBQ-nXuTgme9k_RSumQK8QvpLrxrshcP6F8XjLsJOFIQvDY74CyCP5THgGqZD0VeNJqfW0z8x8Y6qrTPK5ADoPHK-_8LR_rWXmNzbVdZGkqUeTf7HS2H6qYFBeTmJZ-9vFhqO7m52HJ9EBXNfp0lFiSZzDMH2jhZPspBvn2YSdSW_0lSJld0EAiFA1nrZz58leS1Y6EpYcuZKqP1ke8wtBgZUFAGvwmV0C0]--></g></svg>