<?xml version="1.0" encoding="us-ascii" standalone="no"?><svg xmlns="http://www.w3.org/2000/svg" xmlns:xlink="http://www.w3.org/1999/xlink" contentStyleType="text/css" height="806px" preserveAspectRatio="none" style="width:556px;height:806px;background:#FFFFFF;" version="1.1" viewBox="0 0 556 806" width="556px" zoomAndPan="magnify"><defs/><g><!--class Collaborator--><g id="elem_Collaborator"><rect codeLine="11" fill="#F1F1F1" height="166.9688" id="Collaborator" rx="2.5" ry="2.5" style="stroke:#181818;stroke-width:0.5;" width="136" x="7" y="331"/><text fill="#000000" font-family="sans-serif" font-size="14" lengthAdjust="spacing" textLength="78" x="36" y="351.1074">Collaborator</text><line style="stroke:#181818;stroke-width:0.5;" x1="8" x2="142" y1="359.6211" y2="359.6211"/><text fill="#000000" font-family="sans-serif" font-size="14" lengthAdjust="spacing" textLength="35" x="13" y="378.7285">name</text><text fill="#000000" font-family="sans-serif" font-size="14" lengthAdjust="spacing" textLength="56" x="13" y="397.3496">birthdate</text><text fill="#000000" font-family="sans-serif" font-size="14" lengthAdjust="spacing" textLength="93" x="13" y="415.9707">admissionDate</text><text fill="#000000" font-family="sans-serif" font-size="14" lengthAdjust="spacing" textLength="51" x="13" y="434.5918">address</text><text fill="#000000" font-family="sans-serif" font-size="14" lengthAdjust="spacing" textLength="69" x="13" y="453.2129">contactInfo</text><text fill="#000000" font-family="sans-serif" font-size="14" lengthAdjust="spacing" textLength="107" x="13" y="471.834">idDocumentType</text><text fill="#000000" font-family="sans-serif" font-size="14" lengthAdjust="spacing" textLength="124" x="13" y="490.4551">idDocumentNumber</text></g><!--class HRM--><g id="elem_HRM"><rect codeLine="21" fill="#F1F1F1" height="36.6211" id="HRM" rx="2.5" ry="2.5" style="stroke:#181818;stroke-width:0.5;" width="36" x="57" y="763"/><text fill="#000000" font-family="sans-serif" font-size="14" lengthAdjust="spacing" textLength="30" x="60" y="783.1074">HRM</text><line style="stroke:#181818;stroke-width:0.5;" x1="58" x2="92" y1="791.6211" y2="791.6211"/></g><!--class GreenSpace--><g id="elem_GreenSpace"><rect codeLine="24" fill="#F1F1F1" height="92.4844" id="GreenSpace" rx="2.5" ry="2.5" style="stroke:#181818;stroke-width:0.5;" width="86" x="175" y="160"/><text fill="#000000" font-family="sans-serif" font-size="14" lengthAdjust="spacing" textLength="80" x="178" y="180.1074">GreenSpace</text><line style="stroke:#181818;stroke-width:0.5;" x1="176" x2="260" y1="188.6211" y2="188.6211"/><text fill="#000000" font-family="sans-serif" font-size="14" lengthAdjust="spacing" textLength="35" x="181" y="207.7285">name</text><text fill="#000000" font-family="sans-serif" font-size="14" lengthAdjust="spacing" textLength="51" x="181" y="226.3496">address</text><text fill="#000000" font-family="sans-serif" font-size="14" lengthAdjust="spacing" textLength="27" x="181" y="244.9707">type</text></g><!--class Garden--><g id="elem_Garden"><rect codeLine="30" fill="#F1F1F1" height="92.4844" id="Garden" rx="2.5" ry="2.5" style="stroke:#181818;stroke-width:0.5;" width="76" x="179" y="368.5"/><text fill="#000000" font-family="sans-serif" font-size="14" lengthAdjust="spacing" textLength="48" x="193" y="388.6074">Garden</text><line style="stroke:#181818;stroke-width:0.5;" x1="180" x2="254" y1="397.1211" y2="397.1211"/><text fill="#000000" font-family="sans-serif" font-size="14" lengthAdjust="spacing" textLength="35" x="185" y="416.2285">name</text><text fill="#000000" font-family="sans-serif" font-size="14" lengthAdjust="spacing" textLength="51" x="185" y="434.8496">address</text><text fill="#000000" font-family="sans-serif" font-size="14" lengthAdjust="spacing" textLength="64" x="185" y="453.4707">dimension</text></g><!--class MediumSizedPark--><g id="elem_MediumSizedPark"><rect codeLine="36" fill="#F1F1F1" height="92.4844" id="MediumSizedPark" rx="2.5" ry="2.5" style="stroke:#181818;stroke-width:0.5;" width="118" x="290" y="368.5"/><text fill="#000000" font-family="sans-serif" font-size="14" lengthAdjust="spacing" textLength="112" x="293" y="388.6074">MediumSizedPark</text><line style="stroke:#181818;stroke-width:0.5;" x1="291" x2="407" y1="397.1211" y2="397.1211"/><text fill="#000000" font-family="sans-serif" font-size="14" lengthAdjust="spacing" textLength="35" x="296" y="416.2285">name</text><text fill="#000000" font-family="sans-serif" font-size="14" lengthAdjust="spacing" textLength="51" x="296" y="434.8496">address</text><text fill="#000000" font-family="sans-serif" font-size="14" lengthAdjust="spacing" textLength="64" x="296" y="453.4707">dimension</text></g><!--class LargeSizedPark--><g id="elem_LargeSizedPark"><rect codeLine="42" fill="#F1F1F1" height="92.4844" id="LargeSizedPark" rx="2.5" ry="2.5" style="stroke:#181818;stroke-width:0.5;" width="106" x="443" y="368.5"/><text fill="#000000" font-family="sans-serif" font-size="14" lengthAdjust="spacing" textLength="100" x="446" y="388.6074">LargeSizedPark</text><line style="stroke:#181818;stroke-width:0.5;" x1="444" x2="548" y1="397.1211" y2="397.1211"/><text fill="#000000" font-family="sans-serif" font-size="14" lengthAdjust="spacing" textLength="35" x="449" y="416.2285">name</text><text fill="#000000" font-family="sans-serif" font-size="14" lengthAdjust="spacing" textLength="51" x="449" y="434.8496">address</text><text fill="#000000" font-family="sans-serif" font-size="14" lengthAdjust="spacing" textLength="64" x="449" y="453.4707">dimension</text></g><!--class Organization--><g id="elem_Organization"><rect codeLine="47" fill="#F1F1F1" height="73.8633" id="Organization" rx="2.5" ry="2.5" style="stroke:#181818;stroke-width:0.5;" width="86" x="59" y="7"/><text fill="#000000" font-family="sans-serif" font-size="14" lengthAdjust="spacing" textLength="80" x="62" y="27.1074">Organization</text><line style="stroke:#181818;stroke-width:0.5;" x1="60" x2="144" y1="35.6211" y2="35.6211"/><text fill="#000000" font-family="sans-serif" font-size="14" lengthAdjust="spacing" textLength="35" x="65" y="54.7285">name</text><text fill="#000000" font-family="sans-serif" font-size="14" lengthAdjust="spacing" textLength="51" x="65" y="73.3496">address</text></g><!--link Organization to GreenSpace--><g id="link_Organization_GreenSpace"><path codeLine="52" d="M128.32,81.31 C145.23,104.63 167.33,135.11 185.36,159.97 " fill="none" id="Organization-GreenSpace" style="stroke:#181818;stroke-width:1.0;"/><polygon fill="#000000" points="170.9352,124.6933,168.0046,115.6455,163.2461,119.0961,170.9352,124.6933" style="stroke:#000000;stroke-width:1.0;"/><text fill="#000000" font-family="sans-serif" font-size="13" lengthAdjust="spacing" textLength="30" x="177" y="126.0283">owns</text><text fill="#000000" font-family="sans-serif" font-size="13" lengthAdjust="spacing" textLength="7" x="125.0996" y="102.961">1</text><text fill="#000000" font-family="sans-serif" font-size="13" lengthAdjust="spacing" textLength="20" x="158.8308" y="148.6336">1..*</text></g><!--link Organization to Collaborator--><g id="link_Organization_Collaborator"><path codeLine="53" d="M98.23,81.23 C95.95,103.86 93.09,133.61 91,160 C86.47,217.04 82.43,281.38 79.53,330.97 " fill="none" id="Organization-Collaborator" style="stroke:#181818;stroke-width:1.0;"/><polygon fill="#000000" points="96.3733,201.1595,92.7672,209.9599,98.6287,210.3987,96.3733,201.1595" style="stroke:#000000;stroke-width:1.0;"/><text fill="#000000" font-family="sans-serif" font-size="13" lengthAdjust="spacing" textLength="52" x="105" y="211.5283">works for</text><text fill="#000000" font-family="sans-serif" font-size="13" lengthAdjust="spacing" textLength="7" x="77.0322" y="102.8678">1</text><text fill="#000000" font-family="sans-serif" font-size="13" lengthAdjust="spacing" textLength="20" x="59.0428" y="319.8162">1..*</text></g><!--link GreenSpace to Collaborator--><g id="link_GreenSpace_Collaborator"><path codeLine="54" d="M174.85,247.17 C164.43,257.95 153.78,269.97 145,282 C134.02,297.04 123.68,314.02 114.49,330.66 " fill="none" id="GreenSpace-Collaborator" style="stroke:#181818;stroke-width:1.0;"/><polygon fill="#000000" points="147.0706,295.6975,154.7516,290.0893,149.9883,286.6455,147.0706,295.6975" style="stroke:#000000;stroke-width:1.0;"/><text fill="#000000" font-family="sans-serif" font-size="13" lengthAdjust="spacing" textLength="49" x="159" y="297.0283">contains</text><text fill="#000000" font-family="sans-serif" font-size="13" lengthAdjust="spacing" textLength="7" x="160.1236" y="249.5933">1</text><text fill="#000000" font-family="sans-serif" font-size="13" lengthAdjust="spacing" textLength="20" x="97.0243" y="319.7667">1..*</text></g><!--reverse link GreenSpace to Garden--><g id="link_GreenSpace_Garden"><path codeLine="55" d="M217.6963,270.0598 C217.5363,304.4798 217.39,333.7 217.22,368.18 " fill="none" id="GreenSpace-backto-Garden" style="stroke:#181818;stroke-width:1.0;"/><polygon fill="none" points="217.78,252.06,211.6964,270.0319,223.6963,270.0877,217.78,252.06" style="stroke:#181818;stroke-width:1.0;"/></g><!--reverse link GreenSpace to MediumSizedPark--><g id="link_GreenSpace_MediumSizedPark"><path codeLine="56" d="M256.2306,267.2606 C278.0606,301.6806 298.38,333.7 320.25,368.18 " fill="none" id="GreenSpace-backto-MediumSizedPark" style="stroke:#181818;stroke-width:1.0;"/><polygon fill="none" points="246.59,252.06,251.1637,270.4742,261.2975,264.0471,246.59,252.06" style="stroke:#181818;stroke-width:1.0;"/></g><!--reverse link GreenSpace to LargeSizedPark--><g id="link_GreenSpace_LargeSizedPark"><path codeLine="57" d="M277.4326,235.534 C321.4926,257.544 374.33,287.27 426,331 C438.9,341.92 451.39,355.36 462.15,368.2 " fill="none" id="GreenSpace-backto-LargeSizedPark" style="stroke:#181818;stroke-width:1.0;"/><polygon fill="none" points="261.33,227.49,274.7513,240.9015,280.1139,230.1665,261.33,227.49" style="stroke:#181818;stroke-width:1.0;"/></g><!--link HRM to Collaborator--><g id="link_HRM_Collaborator"><path codeLine="58" d="M91.89,762.72 C104.29,747.75 119,725.12 119,702 C119,559 119,559 119,559 C119,538.81 114.97,517.69 109.34,498.05 " fill="none" id="HRM-Collaborator" style="stroke:#181818;stroke-width:1.0;"/><polygon fill="#000000" points="124.3289,625.6563,120.8013,634.4885,126.6664,634.8752,124.3289,625.6563" style="stroke:#000000;stroke-width:1.0;"/><text fill="#000000" font-family="sans-serif" font-size="13" lengthAdjust="spacing" textLength="50" x="133" y="636.0283">registers</text><text fill="#000000" font-family="sans-serif" font-size="13" lengthAdjust="spacing" textLength="7" x="88.8233" y="751.8332">1</text><text fill="#000000" font-family="sans-serif" font-size="13" lengthAdjust="spacing" textLength="5" x="107.0763" y="520.0027">*</text></g><!--reverse link Collaborator to HRM--><g id="link_Collaborator_HRM"><path codeLine="59" d="M35.6999,515.3531 C30.0699,534.9931 31,538.81 31,559 C31,559 31,559 31,702 C31,725.12 45.71,747.75 58.11,762.72 " fill="none" id="Collaborator-backto-HRM" style="stroke:#181818;stroke-width:1.0;"/><polygon fill="none" points="40.66,498.05,29.9322,513.6997,41.4676,517.0065,40.66,498.05" style="stroke:#181818;stroke-width:1.0;"/></g><!--SRC=[bLFRIWCn47tFLmnz4OIAlXOHH445RrX_O9fCTuTkaZAPfNZxTvDkgMb5eVkocSkPS_RC9YquB57GWuyXsbQY9r3foQHjPObsWGrDzQqZ4BAAeUdgXjIYYoiE3SonIsJCKKTp1OqWtBGAZWkAOp0Lo7QOqgMgyAnNkhCnJFcTuDIObXs1PR6PP7tsf6rqoQmXS1Mx3cTHKAF0Xu7o1FGqd6OisZhKJOZESqgP-hfAEQ6KXY3JAbgz2_Cu9DXTHzjx2lhwjgJzt6FlPoJcosoqtBuyP0av7i8R8GhJx1TjX6rrrQHQ1cz7tA0u2l_rEyxKvHj-G0_akFV5CFUCiZWGVO-IrtaeUC0-IOE1tx6iymzWvgcxO7GsWl4ulqvEZaULHnE8gv3WOhyxZwe1zRudi8goI33FgpytbTsx7BkGzOvvpLGXpZzp_s3-h_IUlR_gkmQQyXSC0iP5mvu0cEHBqt1IaY9XfrIcPKWUOBu1]--></g></svg>