<?xml version="1.0" encoding="us-ascii" standalone="no"?><svg xmlns="http://www.w3.org/2000/svg" xmlns:xlink="http://www.w3.org/1999/xlink" contentStyleType="text/css" height="633px" preserveAspectRatio="none" style="width:717px;height:633px;background:#FFFFFF;" version="1.1" viewBox="0 0 717 633" width="717px" zoomAndPan="magnify"><defs/><g><text fill="#000000" font-family="sans-serif" font-size="14" font-weight="bold" lengthAdjust="spacing" textLength="351" x="184.5" y="30.1074">System Sequence Diagram (SSD) - Alternative One</text><rect fill="#FFFFFF" height="222.0371" style="stroke:#181818;stroke-width:1.0;" width="10" x="56" y="226.3477"/><rect fill="#FFFFFF" height="57.582" style="stroke:#181818;stroke-width:1.0;" width="10" x="664" y="249.6387"/><rect fill="#FFFFFF" height="31.291" style="stroke:#181818;stroke-width:1.0;" width="10" x="664" y="338.5117"/><rect fill="#FFFFFF" height="38.291" style="stroke:#181818;stroke-width:1.0;" width="10" x="664" y="401.0938"/><rect fill="none" height="144.4551" style="stroke:#000000;stroke-width:1.5;" width="701" x="10" y="264.6387"/><line style="stroke:#181818;stroke-width:0.5;stroke-dasharray:5.0,5.0;" x1="61" x2="61" y1="216.3477" y2="457.3848"/><line style="stroke:#181818;stroke-width:0.5;stroke-dasharray:5.0,5.0;" x1="669" x2="669" y1="216.3477" y2="457.3848"/><text fill="#000000" font-family="sans-serif" font-size="14" lengthAdjust="spacing" textLength="55" x="30.5" y="119.7285">Software</text><text fill="#000000" font-family="sans-serif" font-size="14" lengthAdjust="spacing" textLength="44" x="36" y="138.3496">Quality</text><text fill="#000000" font-family="sans-serif" font-size="14" lengthAdjust="spacing" textLength="76" x="20" y="156.9707">Assessment</text><text fill="#000000" font-family="sans-serif" font-size="14" lengthAdjust="spacing" textLength="36" x="40" y="175.5918">Team</text><text fill="#000000" font-family="sans-serif" font-size="14" lengthAdjust="spacing" textLength="56" x="30" y="194.2129">Manager</text><text fill="#000000" font-family="sans-serif" font-size="14" lengthAdjust="spacing" textLength="41" x="37.5" y="212.834">(QAM)</text><ellipse cx="61" cy="53.1211" fill="#E3E3E3" rx="8" ry="8" style="stroke:#181818;stroke-width:0.5;"/><path d="M61,61.1211 L61,88.1211 M48,69.1211 L74,69.1211 M61,88.1211 L48,103.1211 M61,88.1211 L74,103.1211 " fill="none" style="stroke:#181818;stroke-width:0.5;"/><text fill="#000000" font-family="sans-serif" font-size="14" lengthAdjust="spacing" textLength="55" x="30.5" y="471.4922">Software</text><text fill="#000000" font-family="sans-serif" font-size="14" lengthAdjust="spacing" textLength="44" x="36" y="490.1133">Quality</text><text fill="#000000" font-family="sans-serif" font-size="14" lengthAdjust="spacing" textLength="76" x="20" y="508.7344">Assessment</text><text fill="#000000" font-family="sans-serif" font-size="14" lengthAdjust="spacing" textLength="36" x="40" y="527.3555">Team</text><text fill="#000000" font-family="sans-serif" font-size="14" lengthAdjust="spacing" textLength="56" x="30" y="545.9766">Manager</text><text fill="#000000" font-family="sans-serif" font-size="14" lengthAdjust="spacing" textLength="41" x="37.5" y="564.5977">(QAM)</text><ellipse cx="61" cy="576.6113" fill="#E3E3E3" rx="8" ry="8" style="stroke:#181818;stroke-width:0.5;"/><path d="M61,584.6113 L61,611.6113 M48,592.6113 L74,592.6113 M61,611.6113 L48,626.6113 M61,611.6113 L74,626.6113 " fill="none" style="stroke:#181818;stroke-width:0.5;"/><rect fill="#E3E3E3" height="32.6211" rx="2.5" ry="2.5" style="stroke:#181818;stroke-width:0.5;" width="64" x="637" y="182.7266"/><text fill="#000000" font-family="sans-serif" font-size="14" lengthAdjust="spacing" textLength="50" x="644" y="204.834">:System</text><rect fill="#E3E3E3" height="32.6211" rx="2.5" ry="2.5" style="stroke:#181818;stroke-width:0.5;" width="64" x="637" y="456.3848"/><text fill="#000000" font-family="sans-serif" font-size="14" lengthAdjust="spacing" textLength="50" x="644" y="478.4922">:System</text><rect fill="#FFFFFF" height="222.0371" style="stroke:#181818;stroke-width:1.0;" width="10" x="56" y="226.3477"/><rect fill="#FFFFFF" height="57.582" style="stroke:#181818;stroke-width:1.0;" width="10" x="664" y="249.6387"/><rect fill="#FFFFFF" height="31.291" style="stroke:#181818;stroke-width:1.0;" width="10" x="664" y="338.5117"/><rect fill="#FFFFFF" height="38.291" style="stroke:#181818;stroke-width:1.0;" width="10" x="664" y="401.0938"/><polygon fill="#181818" points="652,245.6387,662,249.6387,652,253.6387,656,249.6387" style="stroke:#181818;stroke-width:1.0;"/><line style="stroke:#181818;stroke-width:1.0;" x1="66" x2="658" y1="249.6387" y2="249.6387"/><text fill="#000000" font-family="sans-serif" font-size="13" font-weight="bold" lengthAdjust="spacing" textLength="7" x="73" y="244.376">1</text><text fill="#000000" font-family="sans-serif" font-size="13" lengthAdjust="spacing" textLength="568" x="84" y="244.376">asks to create an asymptotic behavior graph about the time taken to create the topographic survey</text><path d="M10,264.6387 L83,264.6387 L83,273.9297 L73,283.9297 L10,283.9297 L10,264.6387 " fill="#EEEEEE" style="stroke:#000000;stroke-width:1.5;"/><rect fill="none" height="144.4551" style="stroke:#000000;stroke-width:1.5;" width="701" x="10" y="264.6387"/><text fill="#000000" font-family="sans-serif" font-size="13" font-weight="bold" lengthAdjust="spacing" textLength="28" x="25" y="279.667">loop</text><polygon fill="#181818" points="77,303.2207,67,307.2207,77,311.2207,73,307.2207" style="stroke:#181818;stroke-width:1.0;"/><line style="stroke:#181818;stroke-width:1.0;stroke-dasharray:2.0,2.0;" x1="71" x2="668" y1="307.2207" y2="307.2207"/><text fill="#000000" font-family="sans-serif" font-size="13" font-weight="bold" lengthAdjust="spacing" textLength="7" x="83" y="301.958">2</text><text fill="#000000" font-family="sans-serif" font-size="13" lengthAdjust="spacing" textLength="377" x="94" y="301.958">asks for the information necessary to create a topographic survey</text><polygon fill="#181818" points="652,334.5117,662,338.5117,652,342.5117,656,338.5117" style="stroke:#181818;stroke-width:1.0;"/><line style="stroke:#181818;stroke-width:1.0;" x1="66" x2="658" y1="338.5117" y2="338.5117"/><text fill="#000000" font-family="sans-serif" font-size="13" font-weight="bold" lengthAdjust="spacing" textLength="7" x="73" y="333.249">3</text><text fill="#000000" font-family="sans-serif" font-size="13" lengthAdjust="spacing" textLength="121" x="84" y="333.249">Gives the information</text><polygon fill="#181818" points="77,365.8027,67,369.8027,77,373.8027,73,369.8027" style="stroke:#181818;stroke-width:1.0;"/><line style="stroke:#181818;stroke-width:1.0;stroke-dasharray:2.0,2.0;" x1="71" x2="668" y1="369.8027" y2="369.8027"/><text fill="#000000" font-family="sans-serif" font-size="13" font-weight="bold" lengthAdjust="spacing" textLength="7" x="83" y="364.54">4</text><text fill="#000000" font-family="sans-serif" font-size="13" lengthAdjust="spacing" textLength="236" x="94" y="364.54">Asks if he wants to add more information</text><polygon fill="#181818" points="652,397.0938,662,401.0938,652,405.0938,656,401.0938" style="stroke:#181818;stroke-width:1.0;"/><line style="stroke:#181818;stroke-width:1.0;" x1="66" x2="658" y1="401.0938" y2="401.0938"/><text fill="#000000" font-family="sans-serif" font-size="13" font-weight="bold" lengthAdjust="spacing" textLength="7" x="73" y="395.8311">5</text><text fill="#000000" font-family="sans-serif" font-size="13" lengthAdjust="spacing" textLength="39" x="84" y="395.8311">yes/no</text><polygon fill="#181818" points="77,435.3848,67,439.3848,77,443.3848,73,439.3848" style="stroke:#181818;stroke-width:1.0;"/><line style="stroke:#181818;stroke-width:1.0;stroke-dasharray:2.0,2.0;" x1="71" x2="668" y1="439.3848" y2="439.3848"/><text fill="#000000" font-family="sans-serif" font-size="13" font-weight="bold" lengthAdjust="spacing" textLength="7" x="83" y="434.1221">6</text><text fill="#000000" font-family="sans-serif" font-size="13" lengthAdjust="spacing" textLength="526" x="94" y="434.1221">shows the asymptotic behavior graph about the time taken to create the topographic survey</text><!--SRC=[hP8zRy9038Rt_0gB2GRKdQ4I4bMdgaBfcCKaJd8YPwTt3YZ_laxuA4M0MgatEUUFztbzYLl7BGRqu8KbhuDu0WqT9V6SQJ7VOaMfzWr1e5oHg-Qo8DPOoDvn1IKsaP94dLffsaSb3obzTiGvmSfXDPHFqtGrWpai6wN0g6v7yCxMXfqATtv3mU9S9S0abLBt62ZZTOUDqpxZPOmKeoVMZ3y8VSPloCONCfwkbs-p2M245zysqXCbHgWkTosomcHnG1eh3k4ev7QezDsIW9tJ5yoVJqOMrhQDe09veA43sMvwtwgO16oenfqpQ3FPre0RwHIqjdMwOQUu9Rxe7HFIobXitR4BE-eFscUa8sCZqew9uHnXviPrPZoIbIO-p7LiaRV52WDJRjl2q5zotr8UPXTqBNr_5w_sRF5QBZbZtXpqsCDoyE1Ai95xUwvnqrWKzcU6doAdCN_1xIa-iTp58ov-GHXhsHyy__UxFx3q1G00]--></g></svg>