<?xml version="1.0" encoding="UTF-8" standalone="no"?>
<!DOCTYPE svg PUBLIC "-//W3C//DTD SVG 1.1//EN"
 "http://www.w3.org/Graphics/SVG/1.1/DTD/svg11.dtd">
<!-- Generated by graphviz version 10.0.1 (20240210.2158)
 -->
<!-- Title: G Pages: 1 -->
<svg width="1810pt" height="2876pt"
 viewBox="0.00 0.00 1810.25 2876.00" xmlns="http://www.w3.org/2000/svg" xmlns:xlink="http://www.w3.org/1999/xlink">
<g id="graph0" class="graph" transform="scale(1 1) rotate(0) translate(4 2872)">
<title>G</title>
<polygon fill="white" stroke="none" points="-4,4 -4,-2872 1806.25,-2872 1806.25,4 -4,4"/>
<!-- 0 -->
<g id="node1" class="node">
<title>0</title>
<ellipse fill="none" stroke="black" cx="1034" cy="-2850" rx="27" ry="18"/>
<text text-anchor="middle" x="1034" y="-2844.95" font-family="Helvetica,Arial,sans-serif" font-size="14.00">0</text>
</g>
<!-- 1 -->
<g id="node2" class="node">
<title>1</title>
<ellipse fill="none" stroke="black" cx="863" cy="-2761.5" rx="27" ry="18"/>
<text text-anchor="middle" x="863" y="-2756.45" font-family="Helvetica,Arial,sans-serif" font-size="14.00">1</text>
</g>
<!-- 0&#45;&#45;1 -->
<g id="edge1" class="edge">
<title>0&#45;&#45;1</title>
<path fill="none" stroke="black" d="M1013.03,-2838.39C980.21,-2821.79 917.06,-2789.85 884.14,-2773.19"/>
<text text-anchor="middle" x="968.12" y="-2800.7" font-family="Helvetica,Arial,sans-serif" font-size="14.00">2</text>
</g>
<!-- 2 -->
<g id="node3" class="node">
<title>2</title>
<ellipse fill="none" stroke="black" cx="977" cy="-2673" rx="27" ry="18"/>
<text text-anchor="middle" x="977" y="-2667.95" font-family="Helvetica,Arial,sans-serif" font-size="14.00">2</text>
</g>
<!-- 0&#45;&#45;2 -->
<g id="edge2" class="edge">
<title>0&#45;&#45;2</title>
<path fill="none" stroke="black" d="M1028.43,-2831.9C1017.51,-2798.36 993.38,-2724.3 982.51,-2690.91"/>
<text text-anchor="middle" x="1016.12" y="-2756.45" font-family="Helvetica,Arial,sans-serif" font-size="14.00">3</text>
</g>
<!-- 7 -->
<g id="node4" class="node">
<title>7</title>
<ellipse fill="none" stroke="black" cx="1151" cy="-2407.5" rx="27" ry="18"/>
<text text-anchor="middle" x="1151" y="-2402.45" font-family="Helvetica,Arial,sans-serif" font-size="14.00">7</text>
</g>
<!-- 0&#45;&#45;7 -->
<g id="edge3" class="edge">
<title>0&#45;&#45;7</title>
<path fill="none" stroke="black" d="M1059.1,-2842.59C1093.48,-2832.13 1151,-2807.84 1151,-2762.5 1151,-2762.5 1151,-2762.5 1151,-2495 1151,-2470.97 1151,-2443.19 1151,-2425.73"/>
<text text-anchor="middle" x="1155.12" y="-2623.7" font-family="Helvetica,Arial,sans-serif" font-size="14.00">3</text>
</g>
<!-- 1&#45;&#45;2 -->
<g id="edge4" class="edge">
<title>1&#45;&#45;2</title>
<path fill="none" stroke="black" d="M880.31,-2747.36C901.74,-2731.1 938.02,-2703.58 959.52,-2687.26"/>
<text text-anchor="middle" x="935.12" y="-2712.2" font-family="Helvetica,Arial,sans-serif" font-size="14.00">2</text>
</g>
<!-- 3 -->
<g id="node5" class="node">
<title>3</title>
<ellipse fill="none" stroke="black" cx="973" cy="-2584.5" rx="27" ry="18"/>
<text text-anchor="middle" x="973" y="-2579.45" font-family="Helvetica,Arial,sans-serif" font-size="14.00">3</text>
</g>
<!-- 1&#45;&#45;3 -->
<g id="edge5" class="edge">
<title>1&#45;&#45;3</title>
<path fill="none" stroke="black" d="M867.69,-2743.46C874.13,-2721.76 887.1,-2683.65 905.75,-2655 919.95,-2633.19 941.6,-2612.31 956.49,-2599.23"/>
<text text-anchor="middle" x="910.12" y="-2667.95" font-family="Helvetica,Arial,sans-serif" font-size="14.00">3</text>
</g>
<!-- 2&#45;&#45;3 -->
<g id="edge6" class="edge">
<title>2&#45;&#45;3</title>
<path fill="none" stroke="black" d="M976.21,-2654.91C975.51,-2639.84 974.5,-2617.99 973.8,-2602.85"/>
<text text-anchor="middle" x="980.12" y="-2623.7" font-family="Helvetica,Arial,sans-serif" font-size="14.00">5</text>
</g>
<!-- 8 -->
<g id="node9" class="node">
<title>8</title>
<ellipse fill="none" stroke="black" cx="955" cy="-2319" rx="27" ry="18"/>
<text text-anchor="middle" x="955" y="-2313.95" font-family="Helvetica,Arial,sans-serif" font-size="14.00">8</text>
</g>
<!-- 7&#45;&#45;8 -->
<g id="edge11" class="edge">
<title>7&#45;&#45;8</title>
<path fill="none" stroke="black" d="M1128.9,-2396.75C1091.15,-2380.09 1014.71,-2346.35 977.02,-2329.72"/>
<text text-anchor="middle" x="1075.12" y="-2358.2" font-family="Helvetica,Arial,sans-serif" font-size="14.00">6</text>
</g>
<!-- 14 -->
<g id="node10" class="node">
<title>14</title>
<ellipse fill="none" stroke="black" cx="1009" cy="-1788" rx="27" ry="18"/>
<text text-anchor="middle" x="1009" y="-1782.95" font-family="Helvetica,Arial,sans-serif" font-size="14.00">14</text>
</g>
<!-- 7&#45;&#45;14 -->
<g id="edge12" class="edge">
<title>7&#45;&#45;14</title>
<path fill="none" stroke="black" d="M1151,-2389.27C1151,-2371.81 1151,-2344.03 1151,-2320 1151,-2320 1151,-2320 1151,-1875.5 1151,-1821.95 1076.44,-1800.59 1035.38,-1792.88"/>
<text text-anchor="middle" x="1155.12" y="-2092.7" font-family="Helvetica,Arial,sans-serif" font-size="14.00">5</text>
</g>
<!-- AP1 -->
<g id="node11" class="node">
<title>AP1</title>
<ellipse fill="none" stroke="black" cx="1296" cy="-1611" rx="29.86" ry="18"/>
<text text-anchor="middle" x="1296" y="-1605.95" font-family="Helvetica,Arial,sans-serif" font-size="14.00">AP1</text>
</g>
<!-- 7&#45;&#45;AP1 -->
<g id="edge13" class="edge">
<title>7&#45;&#45;AP1</title>
<path fill="none" stroke="black" d="M1177.44,-2402.98C1219.51,-2395.74 1297,-2374.95 1297,-2320 1297,-2320 1297,-2320 1297,-1698.5 1297,-1674.47 1296.61,-1646.69 1296.32,-1629.23"/>
<text text-anchor="middle" x="1301.12" y="-2004.2" font-family="Helvetica,Arial,sans-serif" font-size="14.00">6</text>
</g>
<!-- 5 -->
<g id="node6" class="node">
<title>5</title>
<ellipse fill="none" stroke="black" cx="955" cy="-2496" rx="27" ry="18"/>
<text text-anchor="middle" x="955" y="-2490.95" font-family="Helvetica,Arial,sans-serif" font-size="14.00">5</text>
</g>
<!-- 3&#45;&#45;5 -->
<g id="edge7" class="edge">
<title>3&#45;&#45;5</title>
<path fill="none" stroke="black" d="M969.44,-2566.41C966.29,-2551.25 961.7,-2529.21 958.55,-2514.05"/>
<text text-anchor="middle" x="970.12" y="-2535.2" font-family="Helvetica,Arial,sans-serif" font-size="14.00">2</text>
</g>
<!-- 6 -->
<g id="node8" class="node">
<title>6</title>
<ellipse fill="none" stroke="black" cx="955" cy="-2407.5" rx="27" ry="18"/>
<text text-anchor="middle" x="955" y="-2402.45" font-family="Helvetica,Arial,sans-serif" font-size="14.00">6</text>
</g>
<!-- 5&#45;&#45;6 -->
<g id="edge9" class="edge">
<title>5&#45;&#45;6</title>
<path fill="none" stroke="black" d="M955,-2477.91C955,-2462.84 955,-2440.99 955,-2425.85"/>
<text text-anchor="middle" x="959.12" y="-2446.7" font-family="Helvetica,Arial,sans-serif" font-size="14.00">2</text>
</g>
<!-- AP5 -->
<g id="node7" class="node">
<title>AP5</title>
<ellipse fill="none" stroke="black" cx="844" cy="-2584.5" rx="29.86" ry="18"/>
<text text-anchor="middle" x="844" y="-2579.45" font-family="Helvetica,Arial,sans-serif" font-size="14.00">AP5</text>
</g>
<!-- AP5&#45;&#45;5 -->
<g id="edge8" class="edge">
<title>AP5&#45;&#45;5</title>
<path fill="none" stroke="black" d="M861.83,-2569.6C882.79,-2553.27 917.32,-2526.36 937.94,-2510.3"/>
<text text-anchor="middle" x="914.12" y="-2535.2" font-family="Helvetica,Arial,sans-serif" font-size="14.00">3</text>
</g>
<!-- 6&#45;&#45;8 -->
<g id="edge10" class="edge">
<title>6&#45;&#45;8</title>
<path fill="none" stroke="black" d="M955,-2389.41C955,-2374.34 955,-2352.49 955,-2337.35"/>
<text text-anchor="middle" x="959.12" y="-2358.2" font-family="Helvetica,Arial,sans-serif" font-size="14.00">5</text>
</g>
<!-- 9 -->
<g id="node12" class="node">
<title>9</title>
<ellipse fill="none" stroke="black" cx="955" cy="-2230.5" rx="27" ry="18"/>
<text text-anchor="middle" x="955" y="-2225.45" font-family="Helvetica,Arial,sans-serif" font-size="14.00">9</text>
</g>
<!-- 8&#45;&#45;9 -->
<g id="edge14" class="edge">
<title>8&#45;&#45;9</title>
<path fill="none" stroke="black" d="M955,-2300.91C955,-2285.84 955,-2263.99 955,-2248.85"/>
<text text-anchor="middle" x="959.12" y="-2269.7" font-family="Helvetica,Arial,sans-serif" font-size="14.00">2</text>
</g>
<!-- AP4 -->
<g id="node13" class="node">
<title>AP4</title>
<ellipse fill="none" stroke="black" cx="771" cy="-2142" rx="29.86" ry="18"/>
<text text-anchor="middle" x="771" y="-2136.95" font-family="Helvetica,Arial,sans-serif" font-size="14.00">AP4</text>
</g>
<!-- 8&#45;&#45;AP4 -->
<g id="edge15" class="edge">
<title>8&#45;&#45;AP4</title>
<path fill="none" stroke="black" d="M939.94,-2303.68C905.52,-2270.94 821.39,-2190.92 786.53,-2157.77"/>
<text text-anchor="middle" x="886.12" y="-2225.45" font-family="Helvetica,Arial,sans-serif" font-size="14.00">5</text>
</g>
<!-- 14&#45;&#45;AP1 -->
<g id="edge27" class="edge">
<title>14&#45;&#45;AP1</title>
<path fill="none" stroke="black" d="M1028.28,-1775.25C1080.18,-1743.6 1222.55,-1656.79 1275.66,-1624.4"/>
<text text-anchor="middle" x="1185.12" y="-1694.45" font-family="Helvetica,Arial,sans-serif" font-size="14.00">7</text>
</g>
<!-- 15 -->
<g id="node20" class="node">
<title>15</title>
<ellipse fill="none" stroke="black" cx="1009" cy="-1699.5" rx="27" ry="18"/>
<text text-anchor="middle" x="1009" y="-1694.45" font-family="Helvetica,Arial,sans-serif" font-size="14.00">15</text>
</g>
<!-- 14&#45;&#45;15 -->
<g id="edge26" class="edge">
<title>14&#45;&#45;15</title>
<path fill="none" stroke="black" d="M1009,-1769.91C1009,-1754.84 1009,-1732.99 1009,-1717.85"/>
<text text-anchor="middle" x="1013.12" y="-1738.7" font-family="Helvetica,Arial,sans-serif" font-size="14.00">3</text>
</g>
<!-- 17 -->
<g id="node21" class="node">
<title>17</title>
<ellipse fill="none" stroke="black" cx="1409" cy="-1522.5" rx="27" ry="18"/>
<text text-anchor="middle" x="1409" y="-1517.45" font-family="Helvetica,Arial,sans-serif" font-size="14.00">17</text>
</g>
<!-- AP1&#45;&#45;17 -->
<g id="edge29" class="edge">
<title>AP1&#45;&#45;17</title>
<path fill="none" stroke="black" d="M1313.91,-1596.29C1335.31,-1579.91 1370.88,-1552.68 1391.92,-1536.58"/>
<text text-anchor="middle" x="1366.12" y="-1561.7" font-family="Helvetica,Arial,sans-serif" font-size="14.00">8</text>
</g>
<!-- 18 -->
<g id="node22" class="node">
<title>18</title>
<ellipse fill="none" stroke="black" cx="1409" cy="-1434" rx="27" ry="18"/>
<text text-anchor="middle" x="1409" y="-1428.95" font-family="Helvetica,Arial,sans-serif" font-size="14.00">18</text>
</g>
<!-- AP1&#45;&#45;18 -->
<g id="edge30" class="edge">
<title>AP1&#45;&#45;18</title>
<path fill="none" stroke="black" d="M1300.37,-1592.87C1306.44,-1571.07 1318.87,-1532.87 1337.75,-1504.5 1352.69,-1482.06 1375.88,-1461.16 1391.72,-1448.26"/>
<text text-anchor="middle" x="1341.12" y="-1517.45" font-family="Helvetica,Arial,sans-serif" font-size="14.00">7</text>
</g>
<!-- 19 -->
<g id="node23" class="node">
<title>19</title>
<ellipse fill="none" stroke="black" cx="1512" cy="-1345.5" rx="27" ry="18"/>
<text text-anchor="middle" x="1512" y="-1340.45" font-family="Helvetica,Arial,sans-serif" font-size="14.00">19</text>
</g>
<!-- AP1&#45;&#45;19 -->
<g id="edge31" class="edge">
<title>AP1&#45;&#45;19</title>
<path fill="none" stroke="black" d="M1325.33,-1607.02C1364.96,-1601.35 1434.89,-1585.26 1472,-1540.5 1515.46,-1488.08 1515.62,-1400.7 1513.46,-1363.79"/>
<text text-anchor="middle" x="1508.12" y="-1473.2" font-family="Helvetica,Arial,sans-serif" font-size="14.00">8</text>
</g>
<!-- 9&#45;&#45;14 -->
<g id="edge17" class="edge">
<title>9&#45;&#45;14</title>
<path fill="none" stroke="black" d="M969.73,-2215.04C984.48,-2198.95 1005,-2171.45 1005,-2143 1005,-2143 1005,-2143 1005,-1875.5 1005,-1851.45 1006.56,-1823.67 1007.73,-1806.22"/>
<text text-anchor="middle" x="1009.12" y="-2004.2" font-family="Helvetica,Arial,sans-serif" font-size="14.00">3</text>
</g>
<!-- 9&#45;&#45;AP4 -->
<g id="edge16" class="edge">
<title>9&#45;&#45;AP4</title>
<path fill="none" stroke="black" d="M937.63,-2216.52C921.9,-2205.21 897.78,-2188.95 875,-2178 849.93,-2165.94 819.63,-2156.26 798.22,-2150.16"/>
<text text-anchor="middle" x="909.12" y="-2181.2" font-family="Helvetica,Arial,sans-serif" font-size="14.00">2</text>
</g>
<!-- 11 -->
<g id="node14" class="node">
<title>11</title>
<ellipse fill="none" stroke="black" cx="740" cy="-2053.5" rx="27" ry="18"/>
<text text-anchor="middle" x="740" y="-2048.45" font-family="Helvetica,Arial,sans-serif" font-size="14.00">11</text>
</g>
<!-- AP4&#45;&#45;11 -->
<g id="edge18" class="edge">
<title>AP4&#45;&#45;11</title>
<path fill="none" stroke="black" d="M764.88,-2123.91C759.41,-2108.65 751.44,-2086.42 746.01,-2071.26"/>
<text text-anchor="middle" x="763.12" y="-2092.7" font-family="Helvetica,Arial,sans-serif" font-size="14.00">2</text>
</g>
<!-- 36 -->
<g id="node15" class="node">
<title>36</title>
<ellipse fill="none" stroke="black" cx="237" cy="-18" rx="27" ry="18"/>
<text text-anchor="middle" x="237" y="-12.95" font-family="Helvetica,Arial,sans-serif" font-size="14.00">36</text>
</g>
<!-- AP4&#45;&#45;36 -->
<g id="edge19" class="edge">
<title>AP4&#45;&#45;36</title>
<path fill="none" stroke="black" d="M740.78,-2140.84C598.23,-2139.71 0,-2130.43 0,-2054.5 0,-2054.5 0,-2054.5 0,-105.5 0,-61.04 149.03,-32.7 210.73,-22.87"/>
<text text-anchor="middle" x="4.12" y="-1074.95" font-family="Helvetica,Arial,sans-serif" font-size="14.00">3</text>
</g>
<!-- 11&#45;&#45;36 -->
<g id="edge21" class="edge">
<title>11&#45;&#45;36</title>
<path fill="none" stroke="black" d="M712.93,-2051.45C596.73,-2046.62 146,-2024.1 146,-1966 146,-1966 146,-1966 146,-105.5 146,-67.79 187.56,-41.55 214.51,-28.49"/>
<text text-anchor="middle" x="150.12" y="-1030.7" font-family="Helvetica,Arial,sans-serif" font-size="14.00">2</text>
</g>
<!-- 12 -->
<g id="node16" class="node">
<title>12</title>
<ellipse fill="none" stroke="black" cx="740" cy="-1965" rx="27" ry="18"/>
<text text-anchor="middle" x="740" y="-1959.95" font-family="Helvetica,Arial,sans-serif" font-size="14.00">12</text>
</g>
<!-- 11&#45;&#45;12 -->
<g id="edge20" class="edge">
<title>11&#45;&#45;12</title>
<path fill="none" stroke="black" d="M740,-2035.41C740,-2020.34 740,-1998.49 740,-1983.35"/>
<text text-anchor="middle" x="744.12" y="-2004.2" font-family="Helvetica,Arial,sans-serif" font-size="14.00">1</text>
</g>
<!-- 13 -->
<g id="node17" class="node">
<title>13</title>
<ellipse fill="none" stroke="black" cx="723" cy="-1876.5" rx="27" ry="18"/>
<text text-anchor="middle" x="723" y="-1871.45" font-family="Helvetica,Arial,sans-serif" font-size="14.00">13</text>
</g>
<!-- 12&#45;&#45;13 -->
<g id="edge22" class="edge">
<title>12&#45;&#45;13</title>
<path fill="none" stroke="black" d="M736.64,-1946.91C733.68,-1931.84 729.39,-1909.99 726.41,-1894.85"/>
<text text-anchor="middle" x="738.12" y="-1915.7" font-family="Helvetica,Arial,sans-serif" font-size="14.00">1</text>
</g>
<!-- 37 -->
<g id="node18" class="node">
<title>37</title>
<ellipse fill="none" stroke="black" cx="907" cy="-283.5" rx="27" ry="18"/>
<text text-anchor="middle" x="907" y="-278.45" font-family="Helvetica,Arial,sans-serif" font-size="14.00">37</text>
</g>
<!-- 12&#45;&#45;37 -->
<g id="edge23" class="edge">
<title>12&#45;&#45;37</title>
<path fill="none" stroke="black" d="M765.24,-1957.81C800.17,-1947.56 859,-1923.47 859,-1877.5 859,-1877.5 859,-1877.5 859,-857.75 859,-686.99 1013,-676.51 1013,-505.75 1013,-505.75 1013,-505.75 1013,-371 1013,-328.96 962.33,-303.7 931.05,-292.12"/>
<text text-anchor="middle" x="863.12" y="-1119.2" font-family="Helvetica,Arial,sans-serif" font-size="14.00">2</text>
</g>
<!-- 13&#45;&#45;14 -->
<g id="edge24" class="edge">
<title>13&#45;&#45;14</title>
<path fill="none" stroke="black" d="M747.38,-1868.13C801.42,-1851.78 930.7,-1812.68 984.68,-1796.36"/>
<text text-anchor="middle" x="896.12" y="-1827.2" font-family="Helvetica,Arial,sans-serif" font-size="14.00">4</text>
</g>
<!-- 40 -->
<g id="node19" class="node">
<title>40</title>
<ellipse fill="none" stroke="black" cx="1415" cy="-18" rx="27" ry="18"/>
<text text-anchor="middle" x="1415" y="-12.95" font-family="Helvetica,Arial,sans-serif" font-size="14.00">40</text>
</g>
<!-- 13&#45;&#45;40 -->
<g id="edge25" class="edge">
<title>13&#45;&#45;40</title>
<path fill="none" stroke="black" d="M696.09,-1873.16C624.9,-1866.22 437,-1842.82 437,-1789 437,-1789 437,-1789 437,-592.25 437,-486.47 539.53,-508.75 622,-442.5 720.38,-363.47 738.86,-335.28 844,-265.5 981.04,-174.55 1020.2,-158.57 1169,-88.5 1206.26,-70.95 1215.64,-66.11 1255,-54 1301.34,-39.75 1356.92,-28.95 1388.89,-23.33"/>
<text text-anchor="middle" x="441.12" y="-942.2" font-family="Helvetica,Arial,sans-serif" font-size="14.00">5</text>
</g>
<!-- 38 -->
<g id="node41" class="node">
<title>38</title>
<ellipse fill="none" stroke="black" cx="1094" cy="-195" rx="27" ry="18"/>
<text text-anchor="middle" x="1094" y="-189.95" font-family="Helvetica,Arial,sans-serif" font-size="14.00">38</text>
</g>
<!-- 37&#45;&#45;38 -->
<g id="edge69" class="edge">
<title>37&#45;&#45;38</title>
<path fill="none" stroke="black" d="M928.82,-272.41C964.85,-255.74 1036.38,-222.65 1072.32,-206.03"/>
<text text-anchor="middle" x="1022.12" y="-234.2" font-family="Helvetica,Arial,sans-serif" font-size="14.00">3</text>
</g>
<!-- 15&#45;&#45;AP1 -->
<g id="edge28" class="edge">
<title>15&#45;&#45;AP1</title>
<path fill="none" stroke="black" d="M1029.02,-1687.03C1050.18,-1675.37 1084.86,-1657.54 1116.75,-1647 1168.08,-1630.03 1230.55,-1620.14 1266.55,-1615.42"/>
<text text-anchor="middle" x="1121.12" y="-1650.2" font-family="Helvetica,Arial,sans-serif" font-size="14.00">5</text>
</g>
<!-- 17&#45;&#45;40 -->
<g id="edge33" class="edge">
<title>17&#45;&#45;40</title>
<path fill="none" stroke="black" d="M1428.67,-1509.86C1446.96,-1499.16 1475.06,-1483.02 1500,-1470 1633.35,-1400.36 1794,-1452.69 1794,-1302.25 1794,-1302.25 1794,-1302.25 1794,-105.5 1794,-33.29 1529.16,-21.36 1442.26,-19.39"/>
<text text-anchor="middle" x="1798.12" y="-765.2" font-family="Helvetica,Arial,sans-serif" font-size="14.00">6</text>
</g>
<!-- 17&#45;&#45;18 -->
<g id="edge32" class="edge">
<title>17&#45;&#45;18</title>
<path fill="none" stroke="black" d="M1409,-1504.41C1409,-1489.34 1409,-1467.49 1409,-1452.35"/>
<text text-anchor="middle" x="1413.12" y="-1473.2" font-family="Helvetica,Arial,sans-serif" font-size="14.00">3</text>
</g>
<!-- 18&#45;&#45;40 -->
<g id="edge36" class="edge">
<title>18&#45;&#45;40</title>
<path fill="none" stroke="black" d="M1435.49,-1429.17C1497.72,-1419.44 1648,-1391.29 1648,-1346.5 1648,-1346.5 1648,-1346.5 1648,-105.5 1648,-61.81 1502.21,-33.12 1441.28,-23.03"/>
<text text-anchor="middle" x="1652.12" y="-720.95" font-family="Helvetica,Arial,sans-serif" font-size="14.00">9</text>
</g>
<!-- 18&#45;&#45;19 -->
<g id="edge34" class="edge">
<title>18&#45;&#45;19</title>
<path fill="none" stroke="black" d="M1425.09,-1419.48C1444.33,-1403.33 1476.34,-1376.45 1495.68,-1360.21"/>
<text text-anchor="middle" x="1473.12" y="-1384.7" font-family="Helvetica,Arial,sans-serif" font-size="14.00">3</text>
</g>
<!-- 20 -->
<g id="node24" class="node">
<title>20</title>
<ellipse fill="none" stroke="black" cx="1416" cy="-1257" rx="27" ry="18"/>
<text text-anchor="middle" x="1416" y="-1251.95" font-family="Helvetica,Arial,sans-serif" font-size="14.00">20</text>
</g>
<!-- 18&#45;&#45;20 -->
<g id="edge35" class="edge">
<title>18&#45;&#45;20</title>
<path fill="none" stroke="black" d="M1409.7,-1415.58C1411.04,-1382.04 1413.97,-1308.84 1415.31,-1275.35"/>
<text text-anchor="middle" x="1417.12" y="-1340.45" font-family="Helvetica,Arial,sans-serif" font-size="14.00">5</text>
</g>
<!-- 19&#45;&#45;20 -->
<g id="edge37" class="edge">
<title>19&#45;&#45;20</title>
<path fill="none" stroke="black" d="M1496.58,-1330.6C1478.77,-1314.56 1449.63,-1288.3 1431.7,-1272.15"/>
<text text-anchor="middle" x="1476.12" y="-1296.2" font-family="Helvetica,Arial,sans-serif" font-size="14.00">1</text>
</g>
<!-- 21 -->
<g id="node25" class="node">
<title>21</title>
<ellipse fill="none" stroke="black" cx="1270" cy="-1168.5" rx="27" ry="18"/>
<text text-anchor="middle" x="1270" y="-1163.45" font-family="Helvetica,Arial,sans-serif" font-size="14.00">21</text>
</g>
<!-- 20&#45;&#45;21 -->
<g id="edge38" class="edge">
<title>20&#45;&#45;21</title>
<path fill="none" stroke="black" d="M1396.31,-1244.33C1368.44,-1227.83 1317.79,-1197.82 1289.84,-1181.26"/>
<text text-anchor="middle" x="1360.12" y="-1207.7" font-family="Helvetica,Arial,sans-serif" font-size="14.00">4</text>
</g>
<!-- 22 -->
<g id="node26" class="node">
<title>22</title>
<ellipse fill="none" stroke="black" cx="1321" cy="-1080" rx="27" ry="18"/>
<text text-anchor="middle" x="1321" y="-1074.95" font-family="Helvetica,Arial,sans-serif" font-size="14.00">22</text>
</g>
<!-- 20&#45;&#45;22 -->
<g id="edge39" class="edge">
<title>20&#45;&#45;22</title>
<path fill="none" stroke="black" d="M1407.06,-1239.54C1388.91,-1206.1 1347.92,-1130.59 1329.84,-1097.29"/>
<text text-anchor="middle" x="1381.12" y="-1163.45" font-family="Helvetica,Arial,sans-serif" font-size="14.00">4</text>
</g>
<!-- 21&#45;&#45;22 -->
<g id="edge40" class="edge">
<title>21&#45;&#45;22</title>
<path fill="none" stroke="black" d="M1279.59,-1151.23C1288.71,-1135.77 1302.35,-1112.64 1311.45,-1097.2"/>
<text text-anchor="middle" x="1304.12" y="-1119.2" font-family="Helvetica,Arial,sans-serif" font-size="14.00">4</text>
</g>
<!-- 22&#45;&#45;40 -->
<g id="edge43" class="edge">
<title>22&#45;&#45;40</title>
<path fill="none" stroke="black" d="M1347.44,-1075.48C1389.51,-1068.24 1467,-1047.45 1467,-992.5 1467,-992.5 1467,-992.5 1467,-105.5 1467,-76.76 1445.66,-49.35 1430.32,-33.35"/>
<text text-anchor="middle" x="1471.12" y="-543.95" font-family="Helvetica,Arial,sans-serif" font-size="14.00">3</text>
</g>
<!-- 23 -->
<g id="node27" class="node">
<title>23</title>
<ellipse fill="none" stroke="black" cx="1185" cy="-991.5" rx="27" ry="18"/>
<text text-anchor="middle" x="1185" y="-986.45" font-family="Helvetica,Arial,sans-serif" font-size="14.00">23</text>
</g>
<!-- 22&#45;&#45;23 -->
<g id="edge41" class="edge">
<title>22&#45;&#45;23</title>
<path fill="none" stroke="black" d="M1300.16,-1068.22C1287.66,-1061.57 1271.57,-1052.68 1257.75,-1044 1238.22,-1031.74 1216.78,-1016.3 1202.27,-1005.54"/>
<text text-anchor="middle" x="1261.12" y="-1030.7" font-family="Helvetica,Arial,sans-serif" font-size="14.00">2</text>
</g>
<!-- 25 -->
<g id="node28" class="node">
<title>25</title>
<ellipse fill="none" stroke="black" cx="1191" cy="-814.5" rx="27" ry="18"/>
<text text-anchor="middle" x="1191" y="-809.45" font-family="Helvetica,Arial,sans-serif" font-size="14.00">25</text>
</g>
<!-- 22&#45;&#45;25 -->
<g id="edge42" class="edge">
<title>22&#45;&#45;25</title>
<path fill="none" stroke="black" d="M1319.05,-1061.73C1313.7,-1021.04 1295.58,-917.5 1244,-850.5 1235.86,-839.93 1223.58,-831.53 1212.88,-825.61"/>
<text text-anchor="middle" x="1299.12" y="-942.2" font-family="Helvetica,Arial,sans-serif" font-size="14.00">3</text>
</g>
<!-- 23&#45;&#45;25 -->
<g id="edge45" class="edge">
<title>23&#45;&#45;25</title>
<path fill="none" stroke="black" d="M1185.6,-973.08C1186.75,-939.54 1189.26,-866.34 1190.41,-832.85"/>
<text text-anchor="middle" x="1192.12" y="-897.95" font-family="Helvetica,Arial,sans-serif" font-size="14.00">3</text>
</g>
<!-- AP2 -->
<g id="node29" class="node">
<title>AP2</title>
<ellipse fill="none" stroke="black" cx="1030" cy="-903" rx="29.86" ry="18"/>
<text text-anchor="middle" x="1030" y="-897.95" font-family="Helvetica,Arial,sans-serif" font-size="14.00">AP2</text>
</g>
<!-- 23&#45;&#45;AP2 -->
<g id="edge44" class="edge">
<title>23&#45;&#45;AP2</title>
<path fill="none" stroke="black" d="M1164.74,-979.19C1135.44,-962.84 1081.49,-932.74 1051.51,-916.01"/>
<text text-anchor="middle" x="1126.12" y="-942.2" font-family="Helvetica,Arial,sans-serif" font-size="14.00">1</text>
</g>
<!-- 26 -->
<g id="node30" class="node">
<title>26</title>
<ellipse fill="none" stroke="black" cx="1127" cy="-726" rx="27" ry="18"/>
<text text-anchor="middle" x="1127" y="-720.95" font-family="Helvetica,Arial,sans-serif" font-size="14.00">26</text>
</g>
<!-- 25&#45;&#45;26 -->
<g id="edge48" class="edge">
<title>25&#45;&#45;26</title>
<path fill="none" stroke="black" d="M1179.56,-798.04C1167.98,-782.39 1150.18,-758.33 1138.56,-742.62"/>
<text text-anchor="middle" x="1168.12" y="-765.2" font-family="Helvetica,Arial,sans-serif" font-size="14.00">2</text>
</g>
<!-- AP2&#45;&#45;25 -->
<g id="edge46" class="edge">
<title>AP2&#45;&#45;25</title>
<path fill="none" stroke="black" d="M1051.71,-890.33C1082.87,-873.59 1139.86,-842.98 1170.39,-826.57"/>
<text text-anchor="middle" x="1129.12" y="-853.7" font-family="Helvetica,Arial,sans-serif" font-size="14.00">6</text>
</g>
<!-- AP2&#45;&#45;26 -->
<g id="edge47" class="edge">
<title>AP2&#45;&#45;26</title>
<path fill="none" stroke="black" d="M1039.13,-885.54C1057.66,-852.1 1099.51,-776.59 1117.97,-743.29"/>
<text text-anchor="middle" x="1093.12" y="-809.45" font-family="Helvetica,Arial,sans-serif" font-size="14.00">8</text>
</g>
<!-- 27 -->
<g id="node31" class="node">
<title>27</title>
<ellipse fill="none" stroke="black" cx="1159" cy="-460.5" rx="27" ry="18"/>
<text text-anchor="middle" x="1159" y="-455.45" font-family="Helvetica,Arial,sans-serif" font-size="14.00">27</text>
</g>
<!-- 26&#45;&#45;27 -->
<g id="edge49" class="edge">
<title>26&#45;&#45;27</title>
<path fill="none" stroke="black" d="M1129.1,-707.71C1134.9,-659.97 1151.09,-526.67 1156.89,-478.85"/>
<text text-anchor="middle" x="1148.12" y="-588.2" font-family="Helvetica,Arial,sans-serif" font-size="14.00">4</text>
</g>
<!-- 28 -->
<g id="node32" class="node">
<title>28</title>
<ellipse fill="none" stroke="black" cx="821" cy="-637.5" rx="27" ry="18"/>
<text text-anchor="middle" x="821" y="-632.45" font-family="Helvetica,Arial,sans-serif" font-size="14.00">28</text>
</g>
<!-- 26&#45;&#45;28 -->
<g id="edge50" class="edge">
<title>26&#45;&#45;28</title>
<path fill="none" stroke="black" d="M1102.22,-717.99C1044.74,-701.75 902.88,-661.64 845.59,-645.45"/>
<text text-anchor="middle" x="1006.12" y="-676.7" font-family="Helvetica,Arial,sans-serif" font-size="14.00">1</text>
</g>
<!-- 31 -->
<g id="node33" class="node">
<title>31</title>
<ellipse fill="none" stroke="black" cx="1149" cy="-372" rx="27" ry="18"/>
<text text-anchor="middle" x="1149" y="-366.95" font-family="Helvetica,Arial,sans-serif" font-size="14.00">31</text>
</g>
<!-- 27&#45;&#45;31 -->
<g id="edge51" class="edge">
<title>27&#45;&#45;31</title>
<path fill="none" stroke="black" d="M1157.02,-442.41C1155.28,-427.34 1152.76,-405.49 1151.01,-390.35"/>
<text text-anchor="middle" x="1158.12" y="-411.2" font-family="Helvetica,Arial,sans-serif" font-size="14.00">1</text>
</g>
<!-- 33 -->
<g id="node34" class="node">
<title>33</title>
<ellipse fill="none" stroke="black" cx="1220" cy="-195" rx="27" ry="18"/>
<text text-anchor="middle" x="1220" y="-189.95" font-family="Helvetica,Arial,sans-serif" font-size="14.00">33</text>
</g>
<!-- 27&#45;&#45;33 -->
<g id="edge52" class="edge">
<title>27&#45;&#45;33</title>
<path fill="none" stroke="black" d="M1172.87,-444.54C1184.68,-431.14 1201.38,-410.47 1212,-390 1242.59,-331.05 1246.88,-313.14 1257,-247.5 1258.12,-240.25 1259.9,-237.74 1257,-231 1253.15,-222.07 1245.78,-214.35 1238.62,-208.45"/>
<text text-anchor="middle" x="1246.12" y="-322.7" font-family="Helvetica,Arial,sans-serif" font-size="14.00">3</text>
</g>
<!-- 28&#45;&#45;31 -->
<g id="edge55" class="edge">
<title>28&#45;&#45;31</title>
<path fill="none" stroke="black" d="M832.96,-620.92C854.4,-593.63 901.66,-536.28 949.75,-496.5 1009.34,-447.22 1090.23,-403.06 1127.98,-383.57"/>
<text text-anchor="middle" x="954.12" y="-499.7" font-family="Helvetica,Arial,sans-serif" font-size="14.00">1</text>
</g>
<!-- AP3 -->
<g id="node35" class="node">
<title>AP3</title>
<ellipse fill="none" stroke="black" cx="728" cy="-549" rx="29.86" ry="18"/>
<text text-anchor="middle" x="728" y="-543.95" font-family="Helvetica,Arial,sans-serif" font-size="14.00">AP3</text>
</g>
<!-- 28&#45;&#45;AP3 -->
<g id="edge53" class="edge">
<title>28&#45;&#45;AP3</title>
<path fill="none" stroke="black" d="M805.64,-622.22C788.51,-606.29 760.95,-580.65 743.69,-564.59"/>
<text text-anchor="middle" x="787.12" y="-588.2" font-family="Helvetica,Arial,sans-serif" font-size="14.00">2</text>
</g>
<!-- 30 -->
<g id="node36" class="node">
<title>30</title>
<ellipse fill="none" stroke="black" cx="685" cy="-460.5" rx="27" ry="18"/>
<text text-anchor="middle" x="685" y="-455.45" font-family="Helvetica,Arial,sans-serif" font-size="14.00">30</text>
</g>
<!-- 28&#45;&#45;30 -->
<g id="edge54" class="edge">
<title>28&#45;&#45;30</title>
<path fill="none" stroke="black" d="M794.16,-634.25C755.48,-629.4 685.26,-614.21 653.75,-567 634.88,-538.72 657.36,-498.76 672.81,-477.04"/>
<text text-anchor="middle" x="658.12" y="-543.95" font-family="Helvetica,Arial,sans-serif" font-size="14.00">2</text>
</g>
<!-- 31&#45;&#45;33 -->
<g id="edge60" class="edge">
<title>31&#45;&#45;33</title>
<path fill="none" stroke="black" d="M1155.81,-354.22C1169.38,-320.77 1199.66,-246.14 1213.21,-212.73"/>
<text text-anchor="middle" x="1195.12" y="-278.45" font-family="Helvetica,Arial,sans-serif" font-size="14.00">4</text>
</g>
<!-- 32 -->
<g id="node38" class="node">
<title>32</title>
<ellipse fill="none" stroke="black" cx="1033" cy="-283.5" rx="27" ry="18"/>
<text text-anchor="middle" x="1033" y="-278.45" font-family="Helvetica,Arial,sans-serif" font-size="14.00">32</text>
</g>
<!-- 31&#45;&#45;32 -->
<g id="edge59" class="edge">
<title>31&#45;&#45;32</title>
<path fill="none" stroke="black" d="M1131.38,-357.86C1109.45,-341.51 1072.23,-313.76 1050.4,-297.48"/>
<text text-anchor="middle" x="1106.12" y="-322.7" font-family="Helvetica,Arial,sans-serif" font-size="14.00">4</text>
</g>
<!-- 35 -->
<g id="node37" class="node">
<title>35</title>
<ellipse fill="none" stroke="black" cx="631" cy="-106.5" rx="27" ry="18"/>
<text text-anchor="middle" x="631" y="-101.45" font-family="Helvetica,Arial,sans-serif" font-size="14.00">35</text>
</g>
<!-- 33&#45;&#45;35 -->
<g id="edge63" class="edge">
<title>33&#45;&#45;35</title>
<path fill="none" stroke="black" d="M1195.64,-186.62C1184.03,-183.31 1169.89,-179.58 1157,-177 967.77,-139.14 735.99,-116.7 658.03,-109.8"/>
<text text-anchor="middle" x="1062.12" y="-145.7" font-family="Helvetica,Arial,sans-serif" font-size="14.00">3</text>
</g>
<!-- 39 -->
<g id="node39" class="node">
<title>39</title>
<ellipse fill="none" stroke="black" cx="1309" cy="-106.5" rx="27" ry="18"/>
<text text-anchor="middle" x="1309" y="-101.45" font-family="Helvetica,Arial,sans-serif" font-size="14.00">39</text>
</g>
<!-- 33&#45;&#45;39 -->
<g id="edge64" class="edge">
<title>33&#45;&#45;39</title>
<path fill="none" stroke="black" d="M1234.7,-179.72C1251.19,-163.69 1277.78,-137.84 1294.28,-121.8"/>
<text text-anchor="middle" x="1276.12" y="-145.7" font-family="Helvetica,Arial,sans-serif" font-size="14.00">3</text>
</g>
<!-- AP3&#45;&#45;30 -->
<g id="edge56" class="edge">
<title>AP3&#45;&#45;30</title>
<path fill="none" stroke="black" d="M719.71,-531.32C712.09,-516 700.87,-493.43 693.27,-478.13"/>
<text text-anchor="middle" x="715.12" y="-499.7" font-family="Helvetica,Arial,sans-serif" font-size="14.00">1</text>
</g>
<!-- 30&#45;&#45;31 -->
<g id="edge57" class="edge">
<title>30&#45;&#45;31</title>
<path fill="none" stroke="black" d="M705.33,-448.37C728.44,-436.27 767.65,-417.41 803.75,-408 919.18,-377.9 1062.58,-373.42 1121.64,-372.94"/>
<text text-anchor="middle" x="808.12" y="-411.2" font-family="Helvetica,Arial,sans-serif" font-size="14.00">2</text>
</g>
<!-- 30&#45;&#45;35 -->
<g id="edge58" class="edge">
<title>30&#45;&#45;35</title>
<path fill="none" stroke="black" d="M682.4,-442.52C673.27,-383.06 642.82,-184.56 633.64,-124.72"/>
<text text-anchor="middle" x="665.12" y="-278.45" font-family="Helvetica,Arial,sans-serif" font-size="14.00">4</text>
</g>
<!-- 35&#45;&#45;36 -->
<g id="edge68" class="edge">
<title>35&#45;&#45;36</title>
<path fill="none" stroke="black" d="M605.45,-99.89C534.17,-84.24 333.7,-40.23 262.49,-24.6"/>
<text text-anchor="middle" x="474.12" y="-57.2" font-family="Helvetica,Arial,sans-serif" font-size="14.00">1</text>
</g>
<!-- 32&#45;&#45;33 -->
<g id="edge61" class="edge">
<title>32&#45;&#45;33</title>
<path fill="none" stroke="black" d="M1054.63,-272.4C1076.94,-262 1112.76,-245.32 1143.75,-231 1162.13,-222.51 1183.03,-212.92 1198.29,-205.93"/>
<text text-anchor="middle" x="1148.12" y="-234.2" font-family="Helvetica,Arial,sans-serif" font-size="14.00">1</text>
</g>
<!-- 32&#45;&#45;35 -->
<g id="edge62" class="edge">
<title>32&#45;&#45;35</title>
<path fill="none" stroke="black" d="M1010.81,-272.84C940.53,-242.25 723.31,-147.68 653.12,-117.13"/>
<text text-anchor="middle" x="876.12" y="-189.95" font-family="Helvetica,Arial,sans-serif" font-size="14.00">3</text>
</g>
<!-- 39&#45;&#45;40 -->
<g id="edge72" class="edge">
<title>39&#45;&#45;40</title>
<path fill="none" stroke="black" d="M1325.56,-91.98C1345.48,-75.73 1378.69,-48.63 1398.55,-32.42"/>
<text text-anchor="middle" x="1375.12" y="-57.2" font-family="Helvetica,Arial,sans-serif" font-size="14.00">4</text>
</g>
<!-- 34 -->
<g id="node40" class="node">
<title>34</title>
<ellipse fill="none" stroke="black" cx="372" cy="-372" rx="27" ry="18"/>
<text text-anchor="middle" x="372" y="-366.95" font-family="Helvetica,Arial,sans-serif" font-size="14.00">34</text>
</g>
<!-- 34&#45;&#45;36 -->
<g id="edge66" class="edge">
<title>34&#45;&#45;36</title>
<path fill="none" stroke="black" d="M358.5,-355.97C345.24,-339.62 327,-312.09 327,-284.5 327,-284.5 327,-284.5 327,-105.5 327,-68.01 285.9,-41.69 259.25,-28.56"/>
<text text-anchor="middle" x="331.12" y="-189.95" font-family="Helvetica,Arial,sans-serif" font-size="14.00">2</text>
</g>
<!-- 34&#45;&#45;37 -->
<g id="edge67" class="edge">
<title>34&#45;&#45;37</title>
<path fill="none" stroke="black" d="M398.17,-366.77C489,-352.08 790.12,-303.4 880.88,-288.72"/>
<text text-anchor="middle" x="692.12" y="-322.7" font-family="Helvetica,Arial,sans-serif" font-size="14.00">2</text>
</g>
<!-- 34&#45;&#45;35 -->
<g id="edge65" class="edge">
<title>34&#45;&#45;35</title>
<path fill="none" stroke="black" d="M383.6,-355.24C412.87,-316.14 493.33,-212.75 576,-142.5 586.61,-133.49 599.72,-125.05 610.48,-118.73"/>
<text text-anchor="middle" x="489.12" y="-234.2" font-family="Helvetica,Arial,sans-serif" font-size="14.00">1</text>
</g>
<!-- 38&#45;&#45;40 -->
<g id="edge71" class="edge">
<title>38&#45;&#45;40</title>
<path fill="none" stroke="black" d="M1111.54,-181.08C1125.69,-170.66 1146.12,-155.62 1164,-142.5 1196.75,-118.46 1202.15,-108.08 1237.75,-88.5 1289.59,-59.99 1355.59,-37.37 1390.61,-26.34"/>
<text text-anchor="middle" x="1241.12" y="-101.45" font-family="Helvetica,Arial,sans-serif" font-size="14.00">1</text>
</g>
<!-- 38&#45;&#45;39 -->
<g id="edge70" class="edge">
<title>38&#45;&#45;39</title>
<path fill="none" stroke="black" d="M1116.6,-184.91C1157.89,-168.29 1245.07,-133.22 1286.38,-116.6"/>
<text text-anchor="middle" x="1224.12" y="-145.7" font-family="Helvetica,Arial,sans-serif" font-size="14.00">1</text>
</g>
</g>
</svg>
