<?xml version="1.0" encoding="UTF-8" standalone="no"?>
<!DOCTYPE svg PUBLIC "-//W3C//DTD SVG 1.1//EN"
 "http://www.w3.org/Graphics/SVG/1.1/DTD/svg11.dtd">
<!-- Generated by graphviz version 11.0.0 (20240428.1522)
 -->
<!-- Title: G Pages: 1 -->
<svg width="990pt" height="1637pt"
 viewBox="0.00 0.00 990.00 1637.00" xmlns="http://www.w3.org/2000/svg" xmlns:xlink="http://www.w3.org/1999/xlink">
<g id="graph0" class="graph" transform="scale(1 1) rotate(0) translate(4 1633)">
<title>G</title>
<polygon fill="white" stroke="none" points="-4,4 -4,-1633 986,-1633 986,4 -4,4"/>
<!-- 12 -->
<g id="node1" class="node">
<title>12</title>
<ellipse fill="none" stroke="black" cx="146" cy="-1611" rx="27" ry="18"/>
<text text-anchor="middle" x="146" y="-1605.95" font-family="Helvetica,Arial,sans-serif" font-size="14.00">12</text>
</g>
<!-- 10 -->
<g id="node2" class="node">
<title>10</title>
<ellipse fill="none" stroke="black" cx="147" cy="-106.5" rx="27" ry="18"/>
<text text-anchor="middle" x="147" y="-101.45" font-family="Helvetica,Arial,sans-serif" font-size="14.00">10</text>
</g>
<!-- 12&#45;&#45;10 -->
<g id="edge1" class="edge">
<title>12&#45;&#45;10</title>
<path fill="none" stroke="black" d="M146,-1592.77C146,-1575.31 146,-1547.53 146,-1523.5 146,-1523.5 146,-1523.5 146,-194 146,-169.97 146.39,-142.19 146.68,-124.73"/>
<text text-anchor="middle" x="154.25" y="-853.7" font-family="Helvetica,Arial,sans-serif" font-size="14.00">18</text>
</g>
<!-- 11 -->
<g id="node3" class="node">
<title>11</title>
<ellipse fill="none" stroke="black" cx="147" cy="-18" rx="27" ry="18"/>
<text text-anchor="middle" x="147" y="-12.95" font-family="Helvetica,Arial,sans-serif" font-size="14.00">11</text>
</g>
<!-- 12&#45;&#45;11 -->
<g id="edge2" class="edge">
<title>12&#45;&#45;11</title>
<path fill="none" stroke="black" d="M119.56,-1606.48C77.49,-1599.24 0,-1578.45 0,-1523.5 0,-1523.5 0,-1523.5 0,-105.5 0,-50.27 78.02,-29.61 120.38,-22.45"/>
<text text-anchor="middle" x="8.25" y="-809.45" font-family="Helvetica,Arial,sans-serif" font-size="14.00">16</text>
</g>
<!-- 13 -->
<g id="node4" class="node">
<title>13</title>
<ellipse fill="none" stroke="black" cx="400" cy="-1522.5" rx="27" ry="18"/>
<text text-anchor="middle" x="400" y="-1517.45" font-family="Helvetica,Arial,sans-serif" font-size="14.00">13</text>
</g>
<!-- 12&#45;&#45;13 -->
<g id="edge3" class="edge">
<title>12&#45;&#45;13</title>
<path fill="none" stroke="black" d="M169.9,-1601.86C218.43,-1585.33 328.03,-1548.01 376.35,-1531.55"/>
<text text-anchor="middle" x="303.25" y="-1561.7" font-family="Helvetica,Arial,sans-serif" font-size="14.00">11</text>
</g>
<!-- 10&#45;&#45;11 -->
<g id="edge39" class="edge">
<title>10&#45;&#45;11</title>
<path fill="none" stroke="black" d="M147,-88.41C147,-73.34 147,-51.49 147,-36.35"/>
<text text-anchor="middle" x="151.12" y="-57.2" font-family="Helvetica,Arial,sans-serif" font-size="14.00">1</text>
</g>
<!-- 15 -->
<g id="node5" class="node">
<title>15</title>
<ellipse fill="none" stroke="black" cx="451" cy="-1345.5" rx="27" ry="18"/>
<text text-anchor="middle" x="451" y="-1340.45" font-family="Helvetica,Arial,sans-serif" font-size="14.00">15</text>
</g>
<!-- 13&#45;&#45;15 -->
<g id="edge4" class="edge">
<title>13&#45;&#45;15</title>
<path fill="none" stroke="black" d="M404.98,-1504.4C414.73,-1470.95 436.23,-1397.18 446,-1363.67"/>
<text text-anchor="middle" x="438.25" y="-1428.95" font-family="Helvetica,Arial,sans-serif" font-size="14.00">18</text>
</g>
<!-- 14 -->
<g id="node6" class="node">
<title>14</title>
<ellipse fill="none" stroke="black" cx="516" cy="-1434" rx="27" ry="18"/>
<text text-anchor="middle" x="516" y="-1428.95" font-family="Helvetica,Arial,sans-serif" font-size="14.00">14</text>
</g>
<!-- 13&#45;&#45;14 -->
<g id="edge5" class="edge">
<title>13&#45;&#45;14</title>
<path fill="none" stroke="black" d="M417.62,-1508.36C439.55,-1492.01 476.77,-1464.26 498.6,-1447.98"/>
<text text-anchor="middle" x="472.12" y="-1473.2" font-family="Helvetica,Arial,sans-serif" font-size="14.00">9</text>
</g>
<!-- 16 -->
<g id="node7" class="node">
<title>16</title>
<ellipse fill="none" stroke="black" cx="596" cy="-1257" rx="27" ry="18"/>
<text text-anchor="middle" x="596" y="-1251.95" font-family="Helvetica,Arial,sans-serif" font-size="14.00">16</text>
</g>
<!-- 15&#45;&#45;16 -->
<g id="edge8" class="edge">
<title>15&#45;&#45;16</title>
<path fill="none" stroke="black" d="M470.56,-1332.83C498.23,-1316.33 548.53,-1286.32 576.29,-1269.76"/>
<text text-anchor="middle" x="540.12" y="-1296.2" font-family="Helvetica,Arial,sans-serif" font-size="14.00">5</text>
</g>
<!-- 17 -->
<g id="node8" class="node">
<title>17</title>
<ellipse fill="none" stroke="black" cx="596" cy="-1168.5" rx="27" ry="18"/>
<text text-anchor="middle" x="596" y="-1163.45" font-family="Helvetica,Arial,sans-serif" font-size="14.00">17</text>
</g>
<!-- 15&#45;&#45;17 -->
<g id="edge9" class="edge">
<title>15&#45;&#45;17</title>
<path fill="none" stroke="black" d="M460.88,-1328.45C474.27,-1307.17 499.44,-1268.81 524.75,-1239 542.31,-1218.32 565.13,-1196.86 580.15,-1183.36"/>
<text text-anchor="middle" x="528.12" y="-1251.95" font-family="Helvetica,Arial,sans-serif" font-size="14.00">9</text>
</g>
<!-- 14&#45;&#45;15 -->
<g id="edge6" class="edge">
<title>14&#45;&#45;15</title>
<path fill="none" stroke="black" d="M504.38,-1417.54C492.62,-1401.89 474.54,-1377.83 462.74,-1362.12"/>
<text text-anchor="middle" x="493.12" y="-1384.7" font-family="Helvetica,Arial,sans-serif" font-size="14.00">6</text>
</g>
<!-- 14&#45;&#45;16 -->
<g id="edge7" class="edge">
<title>14&#45;&#45;16</title>
<path fill="none" stroke="black" d="M523.53,-1416.54C538.77,-1383.18 573.16,-1307.97 588.44,-1274.55"/>
<text text-anchor="middle" x="567.12" y="-1340.45" font-family="Helvetica,Arial,sans-serif" font-size="14.00">5</text>
</g>
<!-- 16&#45;&#45;17 -->
<g id="edge10" class="edge">
<title>16&#45;&#45;17</title>
<path fill="none" stroke="black" d="M596,-1238.91C596,-1223.84 596,-1201.99 596,-1186.85"/>
<text text-anchor="middle" x="600.12" y="-1207.7" font-family="Helvetica,Arial,sans-serif" font-size="14.00">8</text>
</g>
<!-- 18 -->
<g id="node9" class="node">
<title>18</title>
<ellipse fill="none" stroke="black" cx="634" cy="-1080" rx="27" ry="18"/>
<text text-anchor="middle" x="634" y="-1074.95" font-family="Helvetica,Arial,sans-serif" font-size="14.00">18</text>
</g>
<!-- 17&#45;&#45;18 -->
<g id="edge11" class="edge">
<title>17&#45;&#45;18</title>
<path fill="none" stroke="black" d="M603.33,-1150.82C610.06,-1135.5 619.97,-1112.93 626.7,-1097.63"/>
<text text-anchor="middle" x="622.12" y="-1119.2" font-family="Helvetica,Arial,sans-serif" font-size="14.00">6</text>
</g>
<!-- 19 -->
<g id="node10" class="node">
<title>19</title>
<ellipse fill="none" stroke="black" cx="955" cy="-991.5" rx="27" ry="18"/>
<text text-anchor="middle" x="955" y="-986.45" font-family="Helvetica,Arial,sans-serif" font-size="14.00">19</text>
</g>
<!-- 17&#45;&#45;19 -->
<g id="edge12" class="edge">
<title>17&#45;&#45;19</title>
<path fill="none" stroke="black" d="M622.01,-1162.55C679.77,-1150.55 821.1,-1115.47 916,-1044 928.54,-1034.55 939.03,-1020.04 945.96,-1008.82"/>
<text text-anchor="middle" x="890.12" y="-1074.95" font-family="Helvetica,Arial,sans-serif" font-size="14.00">6</text>
</g>
<!-- 18&#45;&#45;19 -->
<g id="edge13" class="edge">
<title>18&#45;&#45;19</title>
<path fill="none" stroke="black" d="M660.91,-1077.38C702.86,-1074.26 785.96,-1065.7 853,-1044 883.39,-1034.17 915.9,-1016.33 935.84,-1004.45"/>
<text text-anchor="middle" x="894.12" y="-1030.7" font-family="Helvetica,Arial,sans-serif" font-size="14.00">2</text>
</g>
<!-- 20 -->
<g id="node11" class="node">
<title>20</title>
<ellipse fill="none" stroke="black" cx="864" cy="-814.5" rx="27" ry="18"/>
<text text-anchor="middle" x="864" y="-809.45" font-family="Helvetica,Arial,sans-serif" font-size="14.00">20</text>
</g>
<!-- 18&#45;&#45;20 -->
<g id="edge14" class="edge">
<title>18&#45;&#45;20</title>
<path fill="none" stroke="black" d="M640.74,-1062.13C655.82,-1026.05 695.29,-940.18 750,-885 777.09,-857.68 816.98,-836.56 841.68,-825.1"/>
<text text-anchor="middle" x="709.12" y="-942.2" font-family="Helvetica,Arial,sans-serif" font-size="14.00">6</text>
</g>
<!-- 21 -->
<g id="node12" class="node">
<title>21</title>
<ellipse fill="none" stroke="black" cx="813" cy="-903" rx="27" ry="18"/>
<text text-anchor="middle" x="813" y="-897.95" font-family="Helvetica,Arial,sans-serif" font-size="14.00">21</text>
</g>
<!-- 18&#45;&#45;21 -->
<g id="edge15" class="edge">
<title>18&#45;&#45;21</title>
<path fill="none" stroke="black" d="M654.53,-1067.79C665.3,-1061.47 678.41,-1053.04 689,-1044 735.68,-1004.17 781.02,-946.84 801.56,-919.56"/>
<text text-anchor="middle" x="760.12" y="-986.45" font-family="Helvetica,Arial,sans-serif" font-size="14.00">8</text>
</g>
<!-- 19&#45;&#45;20 -->
<g id="edge16" class="edge">
<title>19&#45;&#45;20</title>
<path fill="none" stroke="black" d="M946.44,-974.04C929.1,-940.68 889.98,-865.47 872.6,-832.05"/>
<text text-anchor="middle" x="922.12" y="-897.95" font-family="Helvetica,Arial,sans-serif" font-size="14.00">7</text>
</g>
<!-- 19&#45;&#45;21 -->
<g id="edge17" class="edge">
<title>19&#45;&#45;21</title>
<path fill="none" stroke="black" d="M935.55,-978.65C908.36,-962.09 859.28,-932.19 832.21,-915.7"/>
<text text-anchor="middle" x="900.12" y="-942.2" font-family="Helvetica,Arial,sans-serif" font-size="14.00">7</text>
</g>
<!-- 22 -->
<g id="node13" class="node">
<title>22</title>
<ellipse fill="none" stroke="black" cx="748" cy="-726" rx="27" ry="18"/>
<text text-anchor="middle" x="748" y="-720.95" font-family="Helvetica,Arial,sans-serif" font-size="14.00">22</text>
</g>
<!-- 20&#45;&#45;22 -->
<g id="edge20" class="edge">
<title>20&#45;&#45;22</title>
<path fill="none" stroke="black" d="M846.38,-800.36C824.45,-784.01 787.23,-756.26 765.4,-739.98"/>
<text text-anchor="middle" x="820.12" y="-765.2" font-family="Helvetica,Arial,sans-serif" font-size="14.00">9</text>
</g>
<!-- 23 -->
<g id="node14" class="node">
<title>23</title>
<ellipse fill="none" stroke="black" cx="669" cy="-637.5" rx="27" ry="18"/>
<text text-anchor="middle" x="669" y="-632.45" font-family="Helvetica,Arial,sans-serif" font-size="14.00">23</text>
</g>
<!-- 20&#45;&#45;23 -->
<g id="edge21" class="edge">
<title>20&#45;&#45;23</title>
<path fill="none" stroke="black" d="M859.41,-796.26C852.49,-773.3 837.3,-732.69 811,-708 776.58,-675.69 724.31,-655.42 693.71,-645.6"/>
<text text-anchor="middle" x="841.12" y="-720.95" font-family="Helvetica,Arial,sans-serif" font-size="14.00">9</text>
</g>
<!-- 21&#45;&#45;20 -->
<g id="edge18" class="edge">
<title>21&#45;&#45;20</title>
<path fill="none" stroke="black" d="M822.59,-885.73C831.71,-870.27 845.35,-847.14 854.45,-831.7"/>
<text text-anchor="middle" x="847.12" y="-853.7" font-family="Helvetica,Arial,sans-serif" font-size="14.00">4</text>
</g>
<!-- 21&#45;&#45;22 -->
<g id="edge19" class="edge">
<title>21&#45;&#45;22</title>
<path fill="none" stroke="black" d="M805.82,-885.25C799.89,-871.24 791.37,-850.68 784.5,-832.5 772.79,-801.5 760.44,-764.84 753.53,-743.91"/>
<text text-anchor="middle" x="792.25" y="-809.45" font-family="Helvetica,Arial,sans-serif" font-size="14.00">12</text>
</g>
<!-- 22&#45;&#45;23 -->
<g id="edge22" class="edge">
<title>22&#45;&#45;23</title>
<path fill="none" stroke="black" d="M734.6,-710.33C720.07,-694.42 697.02,-669.18 682.47,-653.25"/>
<text text-anchor="middle" x="719.12" y="-676.7" font-family="Helvetica,Arial,sans-serif" font-size="14.00">1</text>
</g>
<!-- 3 -->
<g id="node15" class="node">
<title>3</title>
<ellipse fill="none" stroke="black" cx="813" cy="-549" rx="27" ry="18"/>
<text text-anchor="middle" x="813" y="-543.95" font-family="Helvetica,Arial,sans-serif" font-size="14.00">3</text>
</g>
<!-- 22&#45;&#45;3 -->
<g id="edge23" class="edge">
<title>22&#45;&#45;3</title>
<path fill="none" stroke="black" d="M754.23,-708.22C766.62,-674.86 794.24,-600.52 806.69,-566.99"/>
<text text-anchor="middle" x="790.12" y="-632.45" font-family="Helvetica,Arial,sans-serif" font-size="14.00">5</text>
</g>
<!-- 23&#45;&#45;3 -->
<g id="edge24" class="edge">
<title>23&#45;&#45;3</title>
<path fill="none" stroke="black" d="M688.72,-624.65C716.3,-608.09 766.07,-578.19 793.52,-561.7"/>
<text text-anchor="middle" x="757.12" y="-588.2" font-family="Helvetica,Arial,sans-serif" font-size="14.00">2</text>
</g>
<!-- 4 -->
<g id="node16" class="node">
<title>4</title>
<ellipse fill="none" stroke="black" cx="667" cy="-460.5" rx="27" ry="18"/>
<text text-anchor="middle" x="667" y="-455.45" font-family="Helvetica,Arial,sans-serif" font-size="14.00">4</text>
</g>
<!-- 23&#45;&#45;4 -->
<g id="edge25" class="edge">
<title>23&#45;&#45;4</title>
<path fill="none" stroke="black" d="M668.8,-619.08C668.42,-585.54 667.58,-512.34 667.2,-478.85"/>
<text text-anchor="middle" x="672.12" y="-543.95" font-family="Helvetica,Arial,sans-serif" font-size="14.00">5</text>
</g>
<!-- 3&#45;&#45;4 -->
<g id="edge26" class="edge">
<title>3&#45;&#45;4</title>
<path fill="none" stroke="black" d="M793.31,-536.33C765.44,-519.83 714.79,-489.82 686.84,-473.26"/>
<text text-anchor="middle" x="757.12" y="-499.7" font-family="Helvetica,Arial,sans-serif" font-size="14.00">6</text>
</g>
<!-- 5 -->
<g id="node17" class="node">
<title>5</title>
<ellipse fill="none" stroke="black" cx="781" cy="-372" rx="27" ry="18"/>
<text text-anchor="middle" x="781" y="-366.95" font-family="Helvetica,Arial,sans-serif" font-size="14.00">5</text>
</g>
<!-- 3&#45;&#45;5 -->
<g id="edge27" class="edge">
<title>3&#45;&#45;5</title>
<path fill="none" stroke="black" d="M809.87,-530.9C803.76,-497.45 790.27,-423.68 784.14,-390.17"/>
<text text-anchor="middle" x="804.12" y="-455.45" font-family="Helvetica,Arial,sans-serif" font-size="14.00">9</text>
</g>
<!-- 4&#45;&#45;5 -->
<g id="edge28" class="edge">
<title>4&#45;&#45;5</title>
<path fill="none" stroke="black" d="M684.31,-446.36C705.74,-430.1 742.02,-402.58 763.52,-386.26"/>
<text text-anchor="middle" x="738.12" y="-411.2" font-family="Helvetica,Arial,sans-serif" font-size="14.00">4</text>
</g>
<!-- 7 -->
<g id="node19" class="node">
<title>7</title>
<ellipse fill="none" stroke="black" cx="490" cy="-372" rx="27" ry="18"/>
<text text-anchor="middle" x="490" y="-366.95" font-family="Helvetica,Arial,sans-serif" font-size="14.00">7</text>
</g>
<!-- 4&#45;&#45;7 -->
<g id="edge31" class="edge">
<title>4&#45;&#45;7</title>
<path fill="none" stroke="black" d="M645.65,-449.07C611.63,-432.44 545.49,-400.12 511.43,-383.47"/>
<text text-anchor="middle" x="602.25" y="-411.2" font-family="Helvetica,Arial,sans-serif" font-size="14.00">22</text>
</g>
<!-- 6 -->
<g id="node18" class="node">
<title>6</title>
<ellipse fill="none" stroke="black" cx="724" cy="-283.5" rx="27" ry="18"/>
<text text-anchor="middle" x="724" y="-278.45" font-family="Helvetica,Arial,sans-serif" font-size="14.00">6</text>
</g>
<!-- 5&#45;&#45;6 -->
<g id="edge29" class="edge">
<title>5&#45;&#45;6</title>
<path fill="none" stroke="black" d="M770.55,-355.13C760.32,-339.62 744.85,-316.13 734.58,-300.56"/>
<text text-anchor="middle" x="761.12" y="-322.7" font-family="Helvetica,Arial,sans-serif" font-size="14.00">2</text>
</g>
<!-- 6&#45;&#45;4 -->
<g id="edge30" class="edge">
<title>6&#45;&#45;4</title>
<path fill="none" stroke="black" d="M718.49,-301.41C707.62,-334.8 683.49,-408.86 672.57,-442.4"/>
<text text-anchor="middle" x="705.12" y="-366.95" font-family="Helvetica,Arial,sans-serif" font-size="14.00">6</text>
</g>
<!-- 7&#45;&#45;18 -->
<g id="edge32" class="edge">
<title>7&#45;&#45;18</title>
<path fill="none" stroke="black" d="M489.37,-390.23C488.78,-407.69 488,-435.47 488,-459.5 488,-992.5 488,-992.5 488,-992.5 488,-1047.45 565.49,-1068.24 607.56,-1075.48"/>
<text text-anchor="middle" x="496.25" y="-720.95" font-family="Helvetica,Arial,sans-serif" font-size="14.00">11</text>
</g>
<!-- 8 -->
<g id="node20" class="node">
<title>8</title>
<ellipse fill="none" stroke="black" cx="320" cy="-283.5" rx="27" ry="18"/>
<text text-anchor="middle" x="320" y="-278.45" font-family="Helvetica,Arial,sans-serif" font-size="14.00">8</text>
</g>
<!-- 7&#45;&#45;8 -->
<g id="edge33" class="edge">
<title>7&#45;&#45;8</title>
<path fill="none" stroke="black" d="M468.81,-360.22C436.15,-343.6 373.85,-311.9 341.19,-295.28"/>
<text text-anchor="middle" x="424.12" y="-322.7" font-family="Helvetica,Arial,sans-serif" font-size="14.00">6</text>
</g>
<!-- 9 -->
<g id="node21" class="node">
<title>9</title>
<ellipse fill="none" stroke="black" cx="319" cy="-195" rx="27" ry="18"/>
<text text-anchor="middle" x="319" y="-189.95" font-family="Helvetica,Arial,sans-serif" font-size="14.00">9</text>
</g>
<!-- 7&#45;&#45;9 -->
<g id="edge34" class="edge">
<title>7&#45;&#45;9</title>
<path fill="none" stroke="black" d="M477.65,-355.81C469.02,-345.38 457.1,-331.34 446,-319.5 407.29,-278.22 358.62,-232.48 334.3,-210.02"/>
<text text-anchor="middle" x="431.12" y="-278.45" font-family="Helvetica,Arial,sans-serif" font-size="14.00">9</text>
</g>
<!-- 8&#45;&#45;17 -->
<g id="edge35" class="edge">
<title>8&#45;&#45;17</title>
<path fill="none" stroke="black" d="M322.21,-301.7C324.27,-319.13 327,-346.89 327,-371 327,-1081 327,-1081 327,-1081 327,-1131.53 501.18,-1156.75 569.22,-1164.67"/>
<text text-anchor="middle" x="335.25" y="-720.95" font-family="Helvetica,Arial,sans-serif" font-size="14.00">13</text>
</g>
<!-- 8&#45;&#45;9 -->
<g id="edge36" class="edge">
<title>8&#45;&#45;9</title>
<path fill="none" stroke="black" d="M319.8,-265.41C319.63,-250.34 319.38,-228.49 319.2,-213.35"/>
<text text-anchor="middle" x="323.12" y="-234.2" font-family="Helvetica,Arial,sans-serif" font-size="14.00">4</text>
</g>
<!-- 9&#45;&#45;10 -->
<g id="edge37" class="edge">
<title>9&#45;&#45;10</title>
<path fill="none" stroke="black" d="M297.91,-183.39C264.9,-166.79 201.38,-134.85 168.26,-118.19"/>
<text text-anchor="middle" x="256.25" y="-145.7" font-family="Helvetica,Arial,sans-serif" font-size="14.00">15</text>
</g>
<!-- 9&#45;&#45;11 -->
<g id="edge38" class="edge">
<title>9&#45;&#45;11</title>
<path fill="none" stroke="black" d="M307.7,-178.66C299.76,-168.17 288.68,-154.11 278,-142.5 239.07,-100.17 188.43,-54.89 163.02,-32.77"/>
<text text-anchor="middle" x="267.25" y="-101.45" font-family="Helvetica,Arial,sans-serif" font-size="14.00">16</text>
</g>
</g>
</svg>
