<?xml version="1.0" encoding="UTF-8" standalone="no"?>
<!DOCTYPE svg PUBLIC "-//W3C//DTD SVG 1.1//EN"
 "http://www.w3.org/Graphics/SVG/1.1/DTD/svg11.dtd">
<!-- Generated by graphviz version 11.0.0 (20240428.1522)
 -->
<!-- Title: G Pages: 1 -->
<svg width="236pt" height="221pt"
 viewBox="0.00 0.00 236.25 221.00" xmlns="http://www.w3.org/2000/svg" xmlns:xlink="http://www.w3.org/1999/xlink">
<g id="graph0" class="graph" transform="scale(1 1) rotate(0) translate(4 217)">
<title>G</title>
<polygon fill="white" stroke="none" points="-4,4 -4,-217 232.25,-217 232.25,4 -4,4"/>
<!-- 1 -->
<g id="node1" class="node">
<title>1</title>
<ellipse fill="none" stroke="black" cx="153" cy="-195" rx="27" ry="18"/>
<text text-anchor="middle" x="153" y="-189.95" font-family="Helvetica,Arial,sans-serif" font-size="14.00">1</text>
</g>
<!-- 2 -->
<g id="node2" class="node">
<title>2</title>
<ellipse fill="none" stroke="black" cx="27" cy="-106.5" rx="27" ry="18"/>
<text text-anchor="middle" x="27" y="-101.45" font-family="Helvetica,Arial,sans-serif" font-size="14.00">2</text>
</g>
<!-- 1&#45;&#45;2 -->
<g id="edge1" class="edge">
<title>1&#45;&#45;2</title>
<path fill="none" stroke="black" d="M134.68,-181.42C110.79,-165.02 69.24,-136.5 45.34,-120.09"/>
<text text-anchor="middle" x="105.12" y="-145.7" font-family="Helvetica,Arial,sans-serif" font-size="14.00">3</text>
</g>
<!-- AP -->
<g id="node3" class="node">
<title>AP</title>
<ellipse fill="none" stroke="black" cx="153" cy="-106.5" rx="27" ry="18"/>
<text text-anchor="middle" x="153" y="-101.45" font-family="Helvetica,Arial,sans-serif" font-size="14.00">AP</text>
</g>
<!-- 1&#45;&#45;AP -->
<g id="edge2" class="edge">
<title>1&#45;&#45;AP</title>
<path fill="none" stroke="black" d="M153,-176.91C153,-161.84 153,-139.99 153,-124.85"/>
<text text-anchor="middle" x="157.12" y="-145.7" font-family="Helvetica,Arial,sans-serif" font-size="14.00">9</text>
</g>
<!-- 3 -->
<g id="node4" class="node">
<title>3</title>
<ellipse fill="none" stroke="black" cx="153" cy="-18" rx="27" ry="18"/>
<text text-anchor="middle" x="153" y="-12.95" font-family="Helvetica,Arial,sans-serif" font-size="14.00">3</text>
</g>
<!-- 1&#45;&#45;3 -->
<g id="edge3" class="edge">
<title>1&#45;&#45;3</title>
<path fill="none" stroke="black" d="M170.44,-181.08C185.74,-168.56 206.91,-148.05 216,-124.5 221.76,-109.57 221.76,-103.43 216,-88.5 206.91,-64.95 185.74,-44.44 170.44,-31.92"/>
<text text-anchor="middle" x="224.12" y="-101.45" font-family="Helvetica,Arial,sans-serif" font-size="14.00">1</text>
</g>
<!-- 2&#45;&#45;3 -->
<g id="edge4" class="edge">
<title>2&#45;&#45;3</title>
<path fill="none" stroke="black" d="M45.32,-92.92C69.21,-76.52 110.76,-48 134.66,-31.59"/>
<text text-anchor="middle" x="105.12" y="-57.2" font-family="Helvetica,Arial,sans-serif" font-size="14.00">2</text>
</g>
<!-- AP&#45;&#45;3 -->
<g id="edge5" class="edge">
<title>AP&#45;&#45;3</title>
<path fill="none" stroke="black" d="M153,-88.41C153,-73.34 153,-51.49 153,-36.35"/>
<text text-anchor="middle" x="157.12" y="-57.2" font-family="Helvetica,Arial,sans-serif" font-size="14.00">5</text>
</g>
</g>
</svg>
