<?xml version="1.0" encoding="us-ascii" standalone="no"?><svg xmlns="http://www.w3.org/2000/svg" xmlns:xlink="http://www.w3.org/1999/xlink" contentStyleType="text/css" height="627px" preserveAspectRatio="none" style="width:443px;height:627px;background:#FFFFFF;" version="1.1" viewBox="0 0 443 627" width="443px" zoomAndPan="magnify"><defs/><g><text fill="#000000" font-family="sans-serif" font-size="14" font-weight="bold" lengthAdjust="spacing" textLength="351" x="47.5" y="30.1074">System Sequence Diagram (SSD) - Alternative One</text><rect fill="#FFFFFF" height="364.4922" style="stroke:#181818;stroke-width:1.0;" width="10" x="76" y="151.8633"/><rect fill="#FFFFFF" height="31.291" style="stroke:#181818;stroke-width:1.0;" width="10" x="390" y="175.1543"/><rect fill="#FFFFFF" height="74.873" style="stroke:#181818;stroke-width:1.0;" width="10" x="390" y="237.7363"/><rect fill="#FFFFFF" height="38.291" style="stroke:#181818;stroke-width:1.0;" width="10" x="390" y="343.9004"/><rect fill="#FFFFFF" height="31.291" style="stroke:#181818;stroke-width:1.0;" width="10" x="390" y="413.4824"/><rect fill="#FFFFFF" height="31.291" style="stroke:#181818;stroke-width:1.0;" width="10" x="390" y="476.0645"/><rect fill="none" height="99.1641" style="stroke:#000000;stroke-width:1.5;" width="427" x="10" y="252.7363"/><line style="stroke:#181818;stroke-width:0.5;stroke-dasharray:5.0,5.0;" x1="81" x2="81" y1="141.8633" y2="525.3555"/><line style="stroke:#181818;stroke-width:0.5;stroke-dasharray:5.0,5.0;" x1="395" x2="395" y1="141.8633" y2="525.3555"/><text fill="#000000" font-family="sans-serif" font-size="14" lengthAdjust="spacing" textLength="116" x="20" y="119.7285">Human Resources</text><text fill="#000000" font-family="sans-serif" font-size="14" lengthAdjust="spacing" textLength="56" x="50" y="138.3496">Manager</text><ellipse cx="81" cy="53.1211" fill="#E3E3E3" rx="8" ry="8" style="stroke:#181818;stroke-width:0.5;"/><path d="M81,61.1211 L81,88.1211 M68,69.1211 L94,69.1211 M81,88.1211 L68,103.1211 M81,88.1211 L94,103.1211 " fill="none" style="stroke:#181818;stroke-width:0.5;"/><text fill="#000000" font-family="sans-serif" font-size="14" lengthAdjust="spacing" textLength="116" x="20" y="539.4629">Human Resources</text><text fill="#000000" font-family="sans-serif" font-size="14" lengthAdjust="spacing" textLength="56" x="50" y="558.084">Manager</text><ellipse cx="81" cy="570.0977" fill="#E3E3E3" rx="8" ry="8" style="stroke:#181818;stroke-width:0.5;"/><path d="M81,578.0977 L81,605.0977 M68,586.0977 L94,586.0977 M81,605.0977 L68,620.0977 M81,605.0977 L94,620.0977 " fill="none" style="stroke:#181818;stroke-width:0.5;"/><rect fill="#E3E3E3" height="32.6211" rx="2.5" ry="2.5" style="stroke:#181818;stroke-width:0.5;" width="64" x="363" y="108.2422"/><text fill="#000000" font-family="sans-serif" font-size="14" lengthAdjust="spacing" textLength="50" x="370" y="130.3496">:System</text><rect fill="#E3E3E3" height="32.6211" rx="2.5" ry="2.5" style="stroke:#181818;stroke-width:0.5;" width="64" x="363" y="524.3555"/><text fill="#000000" font-family="sans-serif" font-size="14" lengthAdjust="spacing" textLength="50" x="370" y="546.4629">:System</text><rect fill="#FFFFFF" height="364.4922" style="stroke:#181818;stroke-width:1.0;" width="10" x="76" y="151.8633"/><rect fill="#FFFFFF" height="31.291" style="stroke:#181818;stroke-width:1.0;" width="10" x="390" y="175.1543"/><rect fill="#FFFFFF" height="74.873" style="stroke:#181818;stroke-width:1.0;" width="10" x="390" y="237.7363"/><rect fill="#FFFFFF" height="38.291" style="stroke:#181818;stroke-width:1.0;" width="10" x="390" y="343.9004"/><rect fill="#FFFFFF" height="31.291" style="stroke:#181818;stroke-width:1.0;" width="10" x="390" y="413.4824"/><rect fill="#FFFFFF" height="31.291" style="stroke:#181818;stroke-width:1.0;" width="10" x="390" y="476.0645"/><polygon fill="#181818" points="378,171.1543,388,175.1543,378,179.1543,382,175.1543" style="stroke:#181818;stroke-width:1.0;"/><line style="stroke:#181818;stroke-width:1.0;" x1="86" x2="384" y1="175.1543" y2="175.1543"/><text fill="#000000" font-family="sans-serif" font-size="13" font-weight="bold" lengthAdjust="spacing" textLength="7" x="93" y="169.8916">1</text><text fill="#000000" font-family="sans-serif" font-size="13" lengthAdjust="spacing" textLength="207" x="104" y="169.8916">asks to create a new team proposal</text><polygon fill="#181818" points="97,202.4453,87,206.4453,97,210.4453,93,206.4453" style="stroke:#181818;stroke-width:1.0;"/><line style="stroke:#181818;stroke-width:1.0;stroke-dasharray:2.0,2.0;" x1="91" x2="394" y1="206.4453" y2="206.4453"/><text fill="#000000" font-family="sans-serif" font-size="13" font-weight="bold" lengthAdjust="spacing" textLength="7" x="103" y="201.1826">2</text><text fill="#000000" font-family="sans-serif" font-size="13" lengthAdjust="spacing" textLength="269" x="114" y="201.1826">request the maximum and minimum team size</text><polygon fill="#181818" points="378,233.7363,388,237.7363,378,241.7363,382,237.7363" style="stroke:#181818;stroke-width:1.0;"/><line style="stroke:#181818;stroke-width:1.0;" x1="86" x2="384" y1="237.7363" y2="237.7363"/><text fill="#000000" font-family="sans-serif" font-size="13" font-weight="bold" lengthAdjust="spacing" textLength="7" x="93" y="232.4736">3</text><text fill="#000000" font-family="sans-serif" font-size="13" lengthAdjust="spacing" textLength="121" x="104" y="232.4736">types requested size</text><path d="M10,252.7363 L83,252.7363 L83,262.0273 L73,272.0273 L10,272.0273 L10,252.7363 " fill="#EEEEEE" style="stroke:#000000;stroke-width:1.5;"/><rect fill="none" height="99.1641" style="stroke:#000000;stroke-width:1.5;" width="427" x="10" y="252.7363"/><text fill="#000000" font-family="sans-serif" font-size="13" font-weight="bold" lengthAdjust="spacing" textLength="28" x="25" y="267.7646">loop</text><polygon fill="#181818" points="97,308.6094,87,312.6094,97,316.6094,93,312.6094" style="stroke:#181818;stroke-width:1.0;"/><line style="stroke:#181818;stroke-width:1.0;stroke-dasharray:2.0,2.0;" x1="91" x2="394" y1="312.6094" y2="312.6094"/><text fill="#000000" font-family="sans-serif" font-size="13" font-weight="bold" lengthAdjust="spacing" textLength="7" x="103" y="298.7012">4</text><text fill="#000000" font-family="sans-serif" font-size="13" lengthAdjust="spacing" textLength="225" x="114" y="290.0557">shows the list of skills and asks you to</text><text fill="#000000" font-family="sans-serif" font-size="13" lengthAdjust="spacing" textLength="216" x="114" y="307.3467">select one that you need for that task</text><polygon fill="#181818" points="378,339.9004,388,343.9004,378,347.9004,382,343.9004" style="stroke:#181818;stroke-width:1.0;"/><line style="stroke:#181818;stroke-width:1.0;" x1="86" x2="384" y1="343.9004" y2="343.9004"/><text fill="#000000" font-family="sans-serif" font-size="13" font-weight="bold" lengthAdjust="spacing" textLength="7" x="93" y="338.6377">5</text><text fill="#000000" font-family="sans-serif" font-size="13" lengthAdjust="spacing" textLength="84" x="104" y="338.6377">select the skill</text><polygon fill="#181818" points="97,378.1914,87,382.1914,97,386.1914,93,382.1914" style="stroke:#181818;stroke-width:1.0;"/><line style="stroke:#181818;stroke-width:1.0;stroke-dasharray:2.0,2.0;" x1="91" x2="394" y1="382.1914" y2="382.1914"/><text fill="#000000" font-family="sans-serif" font-size="13" font-weight="bold" lengthAdjust="spacing" textLength="7" x="103" y="376.9287">6</text><text fill="#000000" font-family="sans-serif" font-size="13" lengthAdjust="spacing" textLength="236" x="114" y="376.9287">shows all data and requests confirmation</text><polygon fill="#181818" points="378,409.4824,388,413.4824,378,417.4824,382,413.4824" style="stroke:#181818;stroke-width:1.0;"/><line style="stroke:#181818;stroke-width:1.0;" x1="86" x2="384" y1="413.4824" y2="413.4824"/><text fill="#000000" font-family="sans-serif" font-size="13" font-weight="bold" lengthAdjust="spacing" textLength="7" x="93" y="408.2197">7</text><text fill="#000000" font-family="sans-serif" font-size="13" lengthAdjust="spacing" textLength="78" x="104" y="408.2197">confirms data</text><polygon fill="#181818" points="97,440.7734,87,444.7734,97,448.7734,93,444.7734" style="stroke:#181818;stroke-width:1.0;"/><line style="stroke:#181818;stroke-width:1.0;stroke-dasharray:2.0,2.0;" x1="91" x2="394" y1="444.7734" y2="444.7734"/><text fill="#000000" font-family="sans-serif" font-size="13" font-weight="bold" lengthAdjust="spacing" textLength="7" x="103" y="439.5107">8</text><text fill="#000000" font-family="sans-serif" font-size="13" lengthAdjust="spacing" textLength="185" x="114" y="439.5107">show the team recommendation</text><polygon fill="#181818" points="378,472.0645,388,476.0645,378,480.0645,382,476.0645" style="stroke:#181818;stroke-width:1.0;"/><line style="stroke:#181818;stroke-width:1.0;" x1="86" x2="384" y1="476.0645" y2="476.0645"/><text fill="#000000" font-family="sans-serif" font-size="13" font-weight="bold" lengthAdjust="spacing" textLength="7" x="93" y="470.8018">9</text><text fill="#000000" font-family="sans-serif" font-size="13" lengthAdjust="spacing" textLength="179" x="104" y="470.8018">accepts team recommendation</text><polygon fill="#181818" points="97,503.3555,87,507.3555,97,511.3555,93,507.3555" style="stroke:#181818;stroke-width:1.0;"/><line style="stroke:#181818;stroke-width:1.0;stroke-dasharray:2.0,2.0;" x1="91" x2="394" y1="507.3555" y2="507.3555"/><text fill="#000000" font-family="sans-serif" font-size="13" font-weight="bold" lengthAdjust="spacing" textLength="14" x="103" y="502.0928">10</text><text fill="#000000" font-family="sans-serif" font-size="13" lengthAdjust="spacing" textLength="158" x="121" y="502.0928">displays operation success</text><!--SRC=[bPEnRkCm341tVmMHgHto0naEAD2XIr6WNhlmP2OM8f4waMxEz_L7gqvxA1fSeqcmoCT7KTPZv88LCsHX2MELJ61reaxVJmg68nwejpaHL0g6V4Z_1kY8WvmY7s2FIQdhB9g7zhCQPUZfrqGS2EuZ7fRmcxw_luKjt2MZocZnbU29FGqd4vxoJwg-3oOLDWzJHePdKfbg87tXHsHtgHj0XOVdnyuDB8POa0qskxUIxV1jsq3n5OrQT0U-V0FR7sUzdGSV5KmWL5hY49XEOBHqNgM8Ocffxw0p6TQrWhREND0xloFlM0ri9CZuE-Of0_80ENBRDxR6FzGG0tr9_cnfSo4zesduoF-SdKJAPJSTvQJDB4LNb3tu75FI9jXkOfPfkOqNLae-R13s5p6YjGCcBxttoRGlvWdNzB0Ib-gjwfV-nCF_z34b6D2mIQzNeX24zx5cVr32rrYjUTgGLuvwyMdzj9dwpo4vUmDNEs08LBo7IvZl6mrHIy9PGGhL1W2TdAvwmUSl]--></g></svg>