<?xml version="1.0" encoding="us-ascii" standalone="no"?><svg xmlns="http://www.w3.org/2000/svg" xmlns:xlink="http://www.w3.org/1999/xlink" contentStyleType="text/css" height="395px" preserveAspectRatio="none" style="width:391px;height:395px;background:#FFFFFF;" version="1.1" viewBox="0 0 391 395" width="391px" zoomAndPan="magnify"><defs/><g><text fill="#000000" font-family="sans-serif" font-size="14" font-weight="bold" lengthAdjust="spacing" textLength="363" x="10" y="28.5352">System Sequence Diagram (SSD) - Alternative One</text><rect fill="#FFFFFF" height="176.8633" style="stroke:#181818;stroke-width:1.0;" width="10" x="51.75" y="128.9766"/><rect fill="#FFFFFF" height="29.3105" style="stroke:#181818;stroke-width:1.0;" width="10" x="337.75" y="150.2871"/><rect fill="#FFFFFF" height="29.3105" style="stroke:#181818;stroke-width:1.0;" width="10" x="337.75" y="208.9082"/><rect fill="#FFFFFF" height="29.3105" style="stroke:#181818;stroke-width:1.0;" width="10" x="337.75" y="267.5293"/><line style="stroke:#181818;stroke-width:0.5;stroke-dasharray:5.0,5.0;" x1="56.25" x2="56.25" y1="118.9766" y2="314.8398"/><line style="stroke:#181818;stroke-width:0.5;stroke-dasharray:5.0,5.0;" x1="342.75" x2="342.75" y1="118.9766" y2="314.8398"/><text fill="#000000" font-family="sans-serif" font-size="14" lengthAdjust="spacing" textLength="91" x="8.25" y="116.0234">Fleet Manage</text><ellipse cx="56.75" cy="50.9883" fill="#E3E3E3" rx="8" ry="8" style="stroke:#181818;stroke-width:0.5;"/><path d="M56.75,58.9883 L56.75,85.9883 M43.75,66.9883 L69.75,66.9883 M56.75,85.9883 L43.75,100.9883 M56.75,85.9883 L69.75,100.9883 " fill="none" style="stroke:#181818;stroke-width:0.5;"/><text fill="#000000" font-family="sans-serif" font-size="14" lengthAdjust="spacing" textLength="91" x="8.25" y="327.375">Fleet Manage</text><ellipse cx="56.75" cy="338.8281" fill="#E3E3E3" rx="8" ry="8" style="stroke:#181818;stroke-width:0.5;"/><path d="M56.75,346.8281 L56.75,373.8281 M43.75,354.8281 L69.75,354.8281 M56.75,373.8281 L43.75,388.8281 M56.75,373.8281 L69.75,388.8281 " fill="none" style="stroke:#181818;stroke-width:0.5;"/><rect fill="#E3E3E3" height="30.4883" rx="2.5" ry="2.5" style="stroke:#181818;stroke-width:0.5;" width="66" x="309.75" y="87.4883"/><text fill="#000000" font-family="sans-serif" font-size="14" lengthAdjust="spacing" textLength="52" x="316.75" y="108.0234">:System</text><rect fill="#E3E3E3" height="30.4883" rx="2.5" ry="2.5" style="stroke:#181818;stroke-width:0.5;" width="66" x="309.75" y="313.8398"/><text fill="#000000" font-family="sans-serif" font-size="14" lengthAdjust="spacing" textLength="52" x="316.75" y="334.375">:System</text><rect fill="#FFFFFF" height="176.8633" style="stroke:#181818;stroke-width:1.0;" width="10" x="51.75" y="128.9766"/><rect fill="#FFFFFF" height="29.3105" style="stroke:#181818;stroke-width:1.0;" width="10" x="337.75" y="150.2871"/><rect fill="#FFFFFF" height="29.3105" style="stroke:#181818;stroke-width:1.0;" width="10" x="337.75" y="208.9082"/><rect fill="#FFFFFF" height="29.3105" style="stroke:#181818;stroke-width:1.0;" width="10" x="337.75" y="267.5293"/><polygon fill="#181818" points="325.75,146.2871,335.75,150.2871,325.75,154.2871,329.75,150.2871" style="stroke:#181818;stroke-width:1.0;"/><line style="stroke:#181818;stroke-width:1.0;" x1="61.75" x2="331.75" y1="150.2871" y2="150.2871"/><text fill="#000000" font-family="sans-serif" font-size="13" font-weight="bold" lengthAdjust="spacing" textLength="9" x="68.75" y="145.5449">1</text><text fill="#000000" font-family="sans-serif" font-size="13" lengthAdjust="spacing" textLength="244" x="81.75" y="145.5449">asks to register a vehicle for check-up</text><polygon fill="#181818" points="72.75,175.5977,62.75,179.5977,72.75,183.5977,68.75,179.5977" style="stroke:#181818;stroke-width:1.0;"/><line style="stroke:#181818;stroke-width:1.0;stroke-dasharray:2.0,2.0;" x1="66.75" x2="341.75" y1="179.5977" y2="179.5977"/><text fill="#000000" font-family="sans-serif" font-size="13" font-weight="bold" lengthAdjust="spacing" textLength="9" x="78.75" y="174.8555">2</text><text fill="#000000" font-family="sans-serif" font-size="13" lengthAdjust="spacing" textLength="203" x="91.75" y="174.8555">shows list of registered vehicles</text><polygon fill="#181818" points="325.75,204.9082,335.75,208.9082,325.75,212.9082,329.75,208.9082" style="stroke:#181818;stroke-width:1.0;"/><line style="stroke:#181818;stroke-width:1.0;" x1="61.75" x2="331.75" y1="208.9082" y2="208.9082"/><text fill="#000000" font-family="sans-serif" font-size="13" font-weight="bold" lengthAdjust="spacing" textLength="9" x="68.75" y="204.166">3</text><text fill="#000000" font-family="sans-serif" font-size="13" lengthAdjust="spacing" textLength="179" x="81.75" y="204.166">choses vehicle for check-up</text><polygon fill="#181818" points="72.75,234.2188,62.75,238.2188,72.75,242.2188,68.75,238.2188" style="stroke:#181818;stroke-width:1.0;"/><line style="stroke:#181818;stroke-width:1.0;stroke-dasharray:2.0,2.0;" x1="66.75" x2="341.75" y1="238.2188" y2="238.2188"/><text fill="#000000" font-family="sans-serif" font-size="13" font-weight="bold" lengthAdjust="spacing" textLength="9" x="78.75" y="233.4766">4</text><text fill="#000000" font-family="sans-serif" font-size="13" lengthAdjust="spacing" textLength="139" x="91.75" y="233.4766">requests confirmation</text><polygon fill="#181818" points="325.75,263.5293,335.75,267.5293,325.75,271.5293,329.75,267.5293" style="stroke:#181818;stroke-width:1.0;"/><line style="stroke:#181818;stroke-width:1.0;" x1="61.75" x2="331.75" y1="267.5293" y2="267.5293"/><text fill="#000000" font-family="sans-serif" font-size="13" font-weight="bold" lengthAdjust="spacing" textLength="9" x="68.75" y="262.7871">5</text><text fill="#000000" font-family="sans-serif" font-size="13" lengthAdjust="spacing" textLength="87" x="81.75" y="262.7871">confirms data</text><polygon fill="#181818" points="72.75,292.8398,62.75,296.8398,72.75,300.8398,68.75,296.8398" style="stroke:#181818;stroke-width:1.0;"/><line style="stroke:#181818;stroke-width:1.0;stroke-dasharray:2.0,2.0;" x1="66.75" x2="341.75" y1="296.8398" y2="296.8398"/><text fill="#000000" font-family="sans-serif" font-size="13" font-weight="bold" lengthAdjust="spacing" textLength="9" x="78.75" y="292.0977">6</text><text fill="#000000" font-family="sans-serif" font-size="13" lengthAdjust="spacing" textLength="170" x="91.75" y="292.0977">displays operation success</text><!--SRC=[hL7DJiCm3BxtAQoTuD0Ns049QN137Fe4NkgsKPCunEwclZrUjnOEum329oVv_XpBw5F6WX4Y9tP3uKYWPQ9AjfUCRiIU6fq3GI6dcFhm7I03jdpsgOSEWr1LgLU3DhCeHMZeOwBa20uU-mlyeMaEZr33Sr0g2TMV2DwJqN1IJbCyKh7UAHVOlGOYXJTC5c07AF0IS-2Pg39hzSvdJ0gx_TLhGLpRHS6VKEcBKe7LUeBwQKsuDzeee6pJzTwk2Y2SQF3EfkWiXXl8ZVMK5u5DTpM2MztKQXFUJFRsENmM22OBt6q6rAu6il1RkYjxDwmRM4Z-BM2vx4TKm77gV8cs44w_3tKb2xIe-9SOhPSSS1RWJ6N9038vH_BJ1tq2]--></g></svg>