<?xml version="1.0" encoding="us-ascii" standalone="no"?><svg xmlns="http://www.w3.org/2000/svg" xmlns:xlink="http://www.w3.org/1999/xlink" contentStyleType="text/css" height="413px" preserveAspectRatio="none" style="width:650px;height:413px;background:#FFFFFF;" version="1.1" viewBox="0 0 650 413" width="650px" zoomAndPan="magnify"><defs/><g><rect fill="#FFFFFF" height="248.6973" style="stroke:#181818;stroke-width:1.0;" width="10" x="265" y="90.5332"/><rect fill="#FFFFFF" height="94.582" style="stroke:#181818;stroke-width:1.0;" width="10" x="270" y="244.6484"/><rect fill="#FFFFFF" height="50.291" style="stroke:#181818;stroke-width:1.0;" width="10" x="275" y="288.9395"/><rect fill="none" height="203.4063" style="stroke:#000000;stroke-width:1.5;" width="477.5" x="166.5" y="105.5332"/><rect fill="none" height="107.873" style="stroke:#000000;stroke-width:1.5;" width="340.5" x="176.5" y="194.0664"/><line style="stroke:#181818;stroke-width:0.5;stroke-dasharray:5.0,5.0;" x1="269.5" x2="269.5" y1="57.2422" y2="357.2305"/><line style="stroke:#181818;stroke-width:0.5;stroke-dasharray:5.0,5.0;" x1="584" x2="584" y1="165.9453" y2="357.2305"/><rect fill="#E3E3E3" height="51.2422" rx="2.5" ry="2.5" style="stroke:#181818;stroke-width:0.5;" width="167" x="186.5" y="5"/><text fill="#000000" font-family="sans-serif" font-size="14" lengthAdjust="spacing" textLength="149" x="195.5" y="27.1074">maintenanceRepository</text><text fill="#000000" font-family="sans-serif" font-size="14" lengthAdjust="spacing" textLength="153" x="193.5" y="45.7285">:MaintenanceRepository</text><rect fill="#E3E3E3" height="51.2422" rx="2.5" ry="2.5" style="stroke:#181818;stroke-width:0.5;" width="167" x="186.5" y="356.2305"/><text fill="#000000" font-family="sans-serif" font-size="14" lengthAdjust="spacing" textLength="149" x="195.5" y="378.3379">maintenanceRepository</text><text fill="#000000" font-family="sans-serif" font-size="14" lengthAdjust="spacing" textLength="153" x="193.5" y="396.959">:MaintenanceRepository</text><rect fill="#E3E3E3" height="51.2422" rx="2.5" ry="2.5" style="stroke:#181818;stroke-width:0.5;" width="99" x="535" y="356.2305"/><text fill="#000000" font-family="sans-serif" font-size="14" lengthAdjust="spacing" textLength="81" x="544" y="378.3379">maintenance</text><text fill="#000000" font-family="sans-serif" font-size="14" lengthAdjust="spacing" textLength="85" x="542" y="396.959">:Maintenance</text><rect fill="#FFFFFF" height="248.6973" style="stroke:#181818;stroke-width:1.0;" width="10" x="265" y="90.5332"/><rect fill="#FFFFFF" height="94.582" style="stroke:#181818;stroke-width:1.0;" width="10" x="270" y="244.6484"/><rect fill="#FFFFFF" height="50.291" style="stroke:#181818;stroke-width:1.0;" width="10" x="275" y="288.9395"/><polygon fill="#181818" points="253,86.5332,263,90.5332,253,94.5332,257,90.5332" style="stroke:#181818;stroke-width:1.0;"/><line style="stroke:#181818;stroke-width:1.0;" x1="0" x2="259" y1="90.5332" y2="90.5332"/><text fill="#000000" font-family="sans-serif" font-size="13" font-weight="bold" lengthAdjust="spacing" textLength="14" x="7" y="85.2705">13</text><text fill="#000000" font-family="sans-serif" font-size="13" lengthAdjust="spacing" textLength="228" x="25" y="85.2705">registerVehicleMaintenance(vehicleList)</text><path d="M166.5,105.5332 L349.5,105.5332 L349.5,114.8242 L339.5,124.8242 L166.5,124.8242 L166.5,105.5332 " fill="#EEEEEE" style="stroke:#000000;stroke-width:1.5;"/><rect fill="none" height="203.4063" style="stroke:#000000;stroke-width:1.5;" width="477.5" x="166.5" y="105.5332"/><text fill="#000000" font-family="sans-serif" font-size="13" font-weight="bold" lengthAdjust="spacing" textLength="138" x="181.5" y="120.5615">Register Maintenance</text><polygon fill="#181818" points="523,144.1152,533,148.1152,523,152.1152,527,148.1152" style="stroke:#181818;stroke-width:1.0;"/><line style="stroke:#181818;stroke-width:1.0;" x1="275" x2="529" y1="148.1152" y2="148.1152"/><text fill="#000000" font-family="sans-serif" font-size="13" font-weight="bold" lengthAdjust="spacing" textLength="25" x="282" y="142.8525">13.1</text><text fill="#000000" font-family="sans-serif" font-size="13" lengthAdjust="spacing" textLength="207" x="311" y="142.8525">registerVehicleMaintenance(vehicle)</text><rect fill="#E3E3E3" height="51.2422" rx="2.5" ry="2.5" style="stroke:#181818;stroke-width:0.5;" width="99" x="535" y="124.8242"/><text fill="#000000" font-family="sans-serif" font-size="14" lengthAdjust="spacing" textLength="81" x="544" y="146.9316">maintenance</text><text fill="#000000" font-family="sans-serif" font-size="14" lengthAdjust="spacing" textLength="85" x="542" y="165.5527">:Maintenance</text><path d="M176.5,194.0664 L249.5,194.0664 L249.5,203.3574 L239.5,213.3574 L176.5,213.3574 L176.5,194.0664 " fill="#EEEEEE" style="stroke:#000000;stroke-width:1.5;"/><rect fill="none" height="107.873" style="stroke:#000000;stroke-width:1.5;" width="340.5" x="176.5" y="194.0664"/><text fill="#000000" font-family="sans-serif" font-size="13" font-weight="bold" lengthAdjust="spacing" textLength="28" x="191.5" y="209.0947">loop</text><line style="stroke:#181818;stroke-width:1.0;" x1="275" x2="322" y1="231.6484" y2="231.6484"/><line style="stroke:#181818;stroke-width:1.0;" x1="322" x2="322" y1="231.6484" y2="244.6484"/><line style="stroke:#181818;stroke-width:1.0;" x1="281" x2="322" y1="244.6484" y2="244.6484"/><polygon fill="#181818" points="291,240.6484,281,244.6484,291,248.6484,287,244.6484" style="stroke:#181818;stroke-width:1.0;"/><text fill="#000000" font-family="sans-serif" font-size="13" font-weight="bold" lengthAdjust="spacing" textLength="25" x="287" y="226.3857">13.2</text><text fill="#000000" font-family="sans-serif" font-size="13" lengthAdjust="spacing" textLength="189" x="316" y="226.3857">addVehicleMaintenance (vehicle)</text><line style="stroke:#181818;stroke-width:1.0;" x1="280" x2="327" y1="275.9395" y2="275.9395"/><line style="stroke:#181818;stroke-width:1.0;" x1="327" x2="327" y1="275.9395" y2="288.9395"/><line style="stroke:#181818;stroke-width:1.0;" x1="286" x2="327" y1="288.9395" y2="288.9395"/><polygon fill="#181818" points="296,284.9395,286,288.9395,296,292.9395,292,288.9395" style="stroke:#181818;stroke-width:1.0;"/><text fill="#000000" font-family="sans-serif" font-size="13" font-weight="bold" lengthAdjust="spacing" textLength="25" x="292" y="270.6768">13.3</text><text fill="#000000" font-family="sans-serif" font-size="13" lengthAdjust="spacing" textLength="164" x="321" y="270.6768">validateMaintenance(vehicle)</text><polygon fill="#181818" points="11,335.2305,1,339.2305,11,343.2305,7,339.2305" style="stroke:#181818;stroke-width:1.0;"/><line style="stroke:#181818;stroke-width:1.0;stroke-dasharray:2.0,2.0;" x1="5" x2="269" y1="339.2305" y2="339.2305"/><text fill="#000000" font-family="sans-serif" font-size="13" font-weight="bold" lengthAdjust="spacing" textLength="14" x="17" y="333.9678">14</text><text fill="#000000" font-family="sans-serif" font-size="13" lengthAdjust="spacing" textLength="74" x="35" y="333.9678">maintenance</text><!--SRC=[ZP51IyGm48Nl-HN3djo52ekUYWYBz22uHQfuyZ8cistOD0b9Mjb_R-tMsBMxnPp2l7dVl4dyNcgB3ckeZJQySgOc2AuXvgDYaU-nf9TmK0IEU41Tgd63hr2OJwbBsA7on5XN3f9BYph0eaQf0sdKd0gonijWtE5TfzjpzGMWX-tcCI-ovukOKtEql6Rv9d_86CCc6DtK7-HWVSEI-nzWsgKlfG_atgYIND68SjKUIq-Tllo3k5upv46s62XcW-wKpZGMYe498nhhzUypzCEGOiYuMlqdop9Ib37s4h9V38MOSk0N5Crd5vaZjwYaw0op-MR9fCNaFdxVsxvoboHnVWgZtpvw1Ktu9zFFw3CIOry0]--></g></svg>