<?xml version="1.0" encoding="us-ascii" standalone="no"?><svg xmlns="http://www.w3.org/2000/svg" xmlns:xlink="http://www.w3.org/1999/xlink" contentStyleType="text/css" height="1172px" preserveAspectRatio="none" style="width:710px;height:1172px;background:#FFFFFF;" version="1.1" viewBox="0 0 710 1172" width="710px" zoomAndPan="magnify"><defs/><g><!--class Organization--><g id="elem_Organization"><rect codeLine="10" fill="#F1F1F1" height="73.8633" id="Organization" rx="2.5" ry="2.5" style="stroke:#181818;stroke-width:0.5;" width="86" x="544.71" y="7"/><text fill="#000000" font-family="sans-serif" font-size="14" lengthAdjust="spacing" textLength="80" x="547.71" y="27.1074">Organization</text><line style="stroke:#181818;stroke-width:0.5;" x1="545.71" x2="629.71" y1="35.6211" y2="35.6211"/><text fill="#000000" font-family="sans-serif" font-size="14" lengthAdjust="spacing" textLength="35" x="550.71" y="54.7285">name</text><text fill="#000000" font-family="sans-serif" font-size="14" lengthAdjust="spacing" textLength="51" x="550.71" y="73.3496">address</text></g><!--class HRM--><g id="elem_HRM"><rect codeLine="15" fill="#F1F1F1" height="36.6211" id="HRM" rx="2.5" ry="2.5" style="stroke:#181818;stroke-width:0.5;" width="36" x="224.71" y="25.5"/><text fill="#000000" font-family="sans-serif" font-size="14" lengthAdjust="spacing" textLength="30" x="227.71" y="45.6074">HRM</text><line style="stroke:#181818;stroke-width:0.5;" x1="225.71" x2="259.71" y1="54.1211" y2="54.1211"/></g><!--class Skill--><g id="elem_Skill"><rect codeLine="19" fill="#F1F1F1" height="55.2422" id="Skill" rx="2.5" ry="2.5" style="stroke:#181818;stroke-width:0.5;" width="47" x="79.21" y="406"/><text fill="#000000" font-family="sans-serif" font-size="14" lengthAdjust="spacing" textLength="25" x="90.21" y="426.1074">Skill</text><line style="stroke:#181818;stroke-width:0.5;" x1="80.21" x2="125.21" y1="434.6211" y2="434.6211"/><text fill="#000000" font-family="sans-serif" font-size="14" lengthAdjust="spacing" textLength="35" x="85.21" y="453.7285">name</text></g><!--class Job--><g id="elem_Job"><rect codeLine="22" fill="#F1F1F1" height="55.2422" id="Job" rx="2.5" ry="2.5" style="stroke:#181818;stroke-width:0.5;" width="47" x="258.21" y="406"/><text fill="#000000" font-family="sans-serif" font-size="14" lengthAdjust="spacing" textLength="22" x="270.71" y="426.1074">Job</text><line style="stroke:#181818;stroke-width:0.5;" x1="259.21" x2="304.21" y1="434.6211" y2="434.6211"/><text fill="#000000" font-family="sans-serif" font-size="14" lengthAdjust="spacing" textLength="35" x="264.21" y="453.7285">name</text></g><!--class Team--><g id="elem_Team"><rect codeLine="27" fill="#F1F1F1" height="73.8633" id="Team" rx="2.5" ry="2.5" style="stroke:#181818;stroke-width:0.5;" width="70" x="375.71" y="7"/><text fill="#000000" font-family="sans-serif" font-size="14" lengthAdjust="spacing" textLength="36" x="392.71" y="27.1074">Team</text><line style="stroke:#181818;stroke-width:0.5;" x1="376.71" x2="444.71" y1="35.6211" y2="35.6211"/><text fill="#000000" font-family="sans-serif" font-size="14" lengthAdjust="spacing" textLength="24" x="381.71" y="54.7285">size</text><text fill="#000000" font-family="sans-serif" font-size="14" lengthAdjust="spacing" textLength="58" x="381.71" y="73.3496">members</text></g><!--class Collaborator--><g id="elem_Collaborator"><rect codeLine="33" fill="#F1F1F1" height="166.9688" id="Collaborator" rx="2.5" ry="2.5" style="stroke:#181818;stroke-width:0.5;" width="136" x="338.71" y="160"/><text fill="#000000" font-family="sans-serif" font-size="14" lengthAdjust="spacing" textLength="78" x="367.71" y="180.1074">Collaborator</text><line style="stroke:#181818;stroke-width:0.5;" x1="339.71" x2="473.71" y1="188.6211" y2="188.6211"/><text fill="#000000" font-family="sans-serif" font-size="14" lengthAdjust="spacing" textLength="35" x="344.71" y="207.7285">name</text><text fill="#000000" font-family="sans-serif" font-size="14" lengthAdjust="spacing" textLength="56" x="344.71" y="226.3496">birthdate</text><text fill="#000000" font-family="sans-serif" font-size="14" lengthAdjust="spacing" textLength="93" x="344.71" y="244.9707">admissionDate</text><text fill="#000000" font-family="sans-serif" font-size="14" lengthAdjust="spacing" textLength="51" x="344.71" y="263.5918">address</text><text fill="#000000" font-family="sans-serif" font-size="14" lengthAdjust="spacing" textLength="69" x="344.71" y="282.2129">contactInfo</text><text fill="#000000" font-family="sans-serif" font-size="14" lengthAdjust="spacing" textLength="107" x="344.71" y="300.834">idDocumentType</text><text fill="#000000" font-family="sans-serif" font-size="14" lengthAdjust="spacing" textLength="124" x="344.71" y="319.4551">idDocumentNumber</text></g><!--class GreenSpace--><g id="elem_GreenSpace"><rect codeLine="45" fill="#F1F1F1" height="92.4844" id="GreenSpace" rx="2.5" ry="2.5" style="stroke:#181818;stroke-width:0.5;" width="86" x="443.71" y="976"/><text fill="#000000" font-family="sans-serif" font-size="14" lengthAdjust="spacing" textLength="80" x="446.71" y="996.1074">GreenSpace</text><line style="stroke:#181818;stroke-width:0.5;" x1="444.71" x2="528.71" y1="1004.6211" y2="1004.6211"/><text fill="#000000" font-family="sans-serif" font-size="14" lengthAdjust="spacing" textLength="35" x="449.71" y="1023.7285">name</text><text fill="#000000" font-family="sans-serif" font-size="14" lengthAdjust="spacing" textLength="51" x="449.71" y="1042.3496">address</text><text fill="#000000" font-family="sans-serif" font-size="14" lengthAdjust="spacing" textLength="64" x="449.71" y="1060.9707">dimension</text></g><!--class Garden--><g id="elem_Garden"><rect codeLine="51" fill="#F1F1F1" height="36.6211" id="Garden" rx="2.5" ry="2.5" style="stroke:#181818;stroke-width:0.5;" width="54" x="338.71" y="1129"/><text fill="#000000" font-family="sans-serif" font-size="14" lengthAdjust="spacing" textLength="48" x="341.71" y="1149.1074">Garden</text><line style="stroke:#181818;stroke-width:0.5;" x1="339.71" x2="391.71" y1="1157.6211" y2="1157.6211"/></g><!--class MediumSizedPark--><g id="elem_MediumSizedPark"><rect codeLine="55" fill="#F1F1F1" height="36.6211" id="MediumSizedPark" rx="2.5" ry="2.5" style="stroke:#181818;stroke-width:0.5;" width="118" x="427.71" y="1129"/><text fill="#000000" font-family="sans-serif" font-size="14" lengthAdjust="spacing" textLength="112" x="430.71" y="1149.1074">MediumSizedPark</text><line style="stroke:#181818;stroke-width:0.5;" x1="428.71" x2="544.71" y1="1157.6211" y2="1157.6211"/></g><!--class LargeSizedPark--><g id="elem_LargeSizedPark"><rect codeLine="59" fill="#F1F1F1" height="36.6211" id="LargeSizedPark" rx="2.5" ry="2.5" style="stroke:#181818;stroke-width:0.5;" width="106" x="580.71" y="1129"/><text fill="#000000" font-family="sans-serif" font-size="14" lengthAdjust="spacing" textLength="100" x="583.71" y="1149.1074">LargeSizedPark</text><line style="stroke:#181818;stroke-width:0.5;" x1="581.71" x2="685.71" y1="1157.6211" y2="1157.6211"/></g><!--class Vehicle--><g id="elem_Vehicle"><rect codeLine="64" fill="#F1F1F1" height="222.832" id="Vehicle" rx="2.5" ry="2.5" style="stroke:#181818;stroke-width:0.5;" width="222" x="115.71" y="540"/><text fill="#000000" font-family="sans-serif" font-size="14" lengthAdjust="spacing" textLength="46" x="203.71" y="560.1074">Vehicle</text><line style="stroke:#181818;stroke-width:0.5;" x1="116.71" x2="336.71" y1="568.6211" y2="568.6211"/><text fill="#000000" font-family="sans-serif" font-size="14" lengthAdjust="spacing" textLength="46" x="121.71" y="587.7285">plate id</text><text fill="#000000" font-family="sans-serif" font-size="14" lengthAdjust="spacing" textLength="37" x="121.71" y="606.3496">brand</text><text fill="#000000" font-family="sans-serif" font-size="14" lengthAdjust="spacing" textLength="38" x="121.71" y="624.9707">model</text><text fill="#000000" font-family="sans-serif" font-size="14" lengthAdjust="spacing" textLength="27" x="121.71" y="643.5918">type</text><text fill="#000000" font-family="sans-serif" font-size="14" lengthAdjust="spacing" textLength="25" x="121.71" y="662.2129">tare</text><text fill="#000000" font-family="sans-serif" font-size="14" lengthAdjust="spacing" textLength="79" x="121.71" y="680.834">gross weight</text><text fill="#000000" font-family="sans-serif" font-size="14" lengthAdjust="spacing" textLength="74" x="121.71" y="699.4551">current kms</text><text fill="#000000" font-family="sans-serif" font-size="14" lengthAdjust="spacing" textLength="103" x="121.71" y="718.0762">registration date</text><text fill="#000000" font-family="sans-serif" font-size="14" lengthAdjust="spacing" textLength="99" x="121.71" y="736.6973">acquisition date</text><text fill="#000000" font-family="sans-serif" font-size="14" lengthAdjust="spacing" textLength="210" x="121.71" y="755.3184">maintenance/check-up frequency</text></g><!--class VFM--><g id="elem_VFM"><rect codeLine="77" fill="#F1F1F1" height="36.6211" id="VFM" rx="2.5" ry="2.5" style="stroke:#181818;stroke-width:0.5;" width="35" x="346.21" y="415"/><text fill="#000000" font-family="sans-serif" font-size="14" lengthAdjust="spacing" textLength="29" x="349.21" y="435.1074">VFM</text><line style="stroke:#181818;stroke-width:0.5;" x1="347.21" x2="380.21" y1="443.6211" y2="443.6211"/></g><!--class VehiclesCheckUp--><g id="elem_VehiclesCheckUp"><rect codeLine="81" fill="#F1F1F1" height="55.2422" id="VehiclesCheckUp" rx="2.5" ry="2.5" style="stroke:#181818;stroke-width:0.5;" width="116" x="347.71" y="842"/><text fill="#000000" font-family="sans-serif" font-size="14" lengthAdjust="spacing" textLength="110" x="350.71" y="862.1074">VehiclesCheckUp</text><line style="stroke:#181818;stroke-width:0.5;" x1="348.71" x2="462.71" y1="870.6211" y2="870.6211"/><text fill="#000000" font-family="sans-serif" font-size="14" lengthAdjust="spacing" textLength="46" x="353.71" y="889.7285">plate id</text></g><!--link Organization to Collaborator--><g id="link_Organization_Collaborator"><path codeLine="85" d="M544.41,70.93 C527.8,82.06 509.34,95.96 494.71,111 C480.53,125.57 467.2,142.7 455.41,159.7 " fill="none" id="Organization-Collaborator" style="stroke:#181818;stroke-width:1.0;"/><polygon fill="#000000" points="503.2501,117.1146,494.7706,121.4213,498.9214,125.5829,503.2501,117.1146" style="stroke:#000000;stroke-width:1.0;"/><text fill="#000000" font-family="sans-serif" font-size="13" lengthAdjust="spacing" textLength="52" x="508.71" y="126.0283">works for</text><text fill="#000000" font-family="sans-serif" font-size="13" lengthAdjust="spacing" textLength="7" x="517.655" y="70.6966">1</text><text fill="#000000" font-family="sans-serif" font-size="13" lengthAdjust="spacing" textLength="20" x="438.7358" y="148.8101">1..*</text></g><!--reverse link Collaborator to HRM--><g id="link_Collaborator_HRM"><path codeLine="86" d="M365.7491,143.804 C356.7791,126.624 354.32,125.35 341.71,111 C318.53,84.62 282.48,64.17 260.87,53.41 " fill="none" id="Collaborator-backto-HRM" style="stroke:#181818;stroke-width:1.0;"/><polygon fill="none" points="374.08,159.76,371.0677,141.027,360.4304,146.5809,374.08,159.76" style="stroke:#181818;stroke-width:1.0;"/></g><!--link HRM to Collaborator--><g id="link_HRM_Collaborator"><path codeLine="100" d="M248.44,62.73 C254.79,80.75 266.22,108.94 281.71,130 C297.71,151.76 313.9556,168.5164 333.9456,186.1064 " fill="none" id="HRM-to-Collaborator" style="stroke:#181818;stroke-width:1.0;"/><polygon fill="#181818" points="338.45,190.07,334.3358,181.1216,334.6963,186.767,329.051,187.1275,338.45,190.07" style="stroke:#181818;stroke-width:1.0;"/><text fill="#000000" font-family="sans-serif" font-size="13" lengthAdjust="spacing" textLength="50" x="282.71" y="126.0283">registers</text><text fill="#000000" font-family="sans-serif" font-size="13" lengthAdjust="spacing" textLength="7" x="242.0393" y="84.1664">1</text><text fill="#000000" font-family="sans-serif" font-size="13" lengthAdjust="spacing" textLength="20" x="310.7463" y="181.0179">1..*</text></g><!--link Organization to GreenSpace--><g id="link_Organization_GreenSpace"><path codeLine="87" d="M609.2,81.1 C630.1,119.67 658.71,183.29 658.71,242.5 C658.71,242.5 658.71,242.5 658.71,870.5 C658.71,938.75 581.06,983.23 530.11,1005.07 " fill="none" id="Organization-GreenSpace" style="stroke:#181818;stroke-width:1.0;"/><polygon fill="#000000" points="663.2836,505.6273,666.9832,496.8658,661.1268,496.3645,663.2836,505.6273" style="stroke:#000000;stroke-width:1.0;"/><text fill="#000000" font-family="sans-serif" font-size="13" lengthAdjust="spacing" textLength="30" x="672.71" y="506.0283">owns</text><text fill="#000000" font-family="sans-serif" font-size="13" lengthAdjust="spacing" textLength="7" x="605.292" y="103.0026">1</text><text fill="#000000" font-family="sans-serif" font-size="13" lengthAdjust="spacing" textLength="20" x="537.6194" y="998.5086">1..*</text></g><!--link GreenSpace to Collaborator--><g id="link_GreenSpace_Collaborator"><path codeLine="88" d="M500.57,975.69 C508.43,946.06 516.71,906.33 516.71,870.5 C516.71,432.5 516.71,432.5 516.71,432.5 C516.71,391.85 497.31,352.19 474.81,319.85 " fill="none" id="GreenSpace-Collaborator" style="stroke:#181818;stroke-width:1.0;"/><polygon fill="#000000" points="521.5138,646.6494,518.9321,655.8028,524.8054,655.5721,521.5138,646.6494" style="stroke:#000000;stroke-width:1.0;"/><text fill="#000000" font-family="sans-serif" font-size="13" lengthAdjust="spacing" textLength="21" x="530.71" y="657.0283">has</text><text fill="#000000" font-family="sans-serif" font-size="13" lengthAdjust="spacing" textLength="7" x="495.0916" y="964.6539">1</text><text fill="#000000" font-family="sans-serif" font-size="13" lengthAdjust="spacing" textLength="20" x="482.8641" y="323.892">1..*</text></g><!--reverse link GreenSpace to Garden--><g id="link_GreenSpace_Garden"><path codeLine="89" d="M431.1122,1079.7467 C410.1922,1101.0967 398.81,1112.71 383.02,1128.83 " fill="none" id="GreenSpace-backto-Garden" style="stroke:#181818;stroke-width:1.0;"/><polygon fill="none" points="443.71,1066.89,426.8266,1075.5475,435.3978,1083.946,443.71,1066.89" style="stroke:#181818;stroke-width:1.0;"/></g><!--reverse link GreenSpace to MediumSizedPark--><g id="link_GreenSpace_MediumSizedPark"><path codeLine="90" d="M486.71,1086.29 C486.71,1107.35 486.71,1113.17 486.71,1128.93 " fill="none" id="GreenSpace-backto-MediumSizedPark" style="stroke:#181818;stroke-width:1.0;"/><polygon fill="none" points="486.71,1068.29,480.71,1086.29,492.71,1086.29,486.71,1068.29" style="stroke:#181818;stroke-width:1.0;"/></g><!--reverse link GreenSpace to LargeSizedPark--><g id="link_GreenSpace_LargeSizedPark"><path codeLine="91" d="M543.8019,1070.9684 C571.0719,1093.8784 591.27,1110.85 612.73,1128.88 " fill="none" id="GreenSpace-backto-LargeSizedPark" style="stroke:#181818;stroke-width:1.0;"/><polygon fill="none" points="530.02,1059.39,539.9424,1075.5624,547.6614,1066.3744,530.02,1059.39" style="stroke:#181818;stroke-width:1.0;"/></g><!--link HRM to Skill--><g id="link_HRM_Skill"><path codeLine="94" d="M228.42,62.61 C211.53,84.28 183.71,122.77 167.71,160 C130.92,245.57 112.8,355.6 106,405.62 " fill="none" id="HRM-Skill" style="stroke:#181818;stroke-width:1.0;"/><polygon fill="#000000" points="171.0293,248.3546,176.8376,240.8237,171.3018,238.8479,171.0293,248.3546" style="stroke:#000000;stroke-width:1.0;"/><text fill="#000000" font-family="sans-serif" font-size="13" lengthAdjust="spacing" textLength="43" x="181.71" y="249.0283">creates</text><text fill="#000000" font-family="sans-serif" font-size="13" lengthAdjust="spacing" textLength="7" x="216.6389" y="84.0142">1</text><text fill="#000000" font-family="sans-serif" font-size="13" lengthAdjust="spacing" textLength="20" x="84.5322" y="394.6955">1..*</text></g><!--link HRM to Skill--><g id="link_HRM_Skill"><path codeLine="103" d="M224.46,49.51 C184.47,60.49 89.7,92.77 51.71,160 C6,240.87 58.2,354.69 86.66,405.81 " fill="none" id="HRM-Skill-1" style="stroke:#181818;stroke-width:1.0;"/><polygon fill="#000000" points="54.9064,248.3089,60.9102,240.9329,55.4281,238.8126,54.9064,248.3089" style="stroke:#000000;stroke-width:1.0;"/><text fill="#000000" font-family="sans-serif" font-size="13" lengthAdjust="spacing" textLength="45" x="65.71" y="249.0283">assigns</text><text fill="#000000" font-family="sans-serif" font-size="13" lengthAdjust="spacing" textLength="7" x="209.7116" y="45.5925">1</text><text fill="#000000" font-family="sans-serif" font-size="13" lengthAdjust="spacing" textLength="20" x="60.9616" y="394.9271">1..*</text></g><!--link HRM to Job--><g id="link_HRM_Job"><path codeLine="97" d="M240.56,62.61 C235.03,112.66 222.72,259.64 252.71,376 C255.35,386.25 260.09,396.76 264.98,405.89 " fill="none" id="HRM-Job" style="stroke:#181818;stroke-width:1.0;"/><polygon fill="#000000" points="248.0648,248.6329,250.3545,239.4021,244.4915,239.8192,248.0648,248.6329" style="stroke:#000000;stroke-width:1.0;"/><text fill="#000000" font-family="sans-serif" font-size="13" lengthAdjust="spacing" textLength="43" x="256.71" y="249.0283">creates</text><text fill="#000000" font-family="sans-serif" font-size="13" lengthAdjust="spacing" textLength="7" x="232.0416" y="84.0142">1</text><text fill="#000000" font-family="sans-serif" font-size="13" lengthAdjust="spacing" textLength="20" x="238.7987" y="394.5735">1..*</text></g><!--link Collaborator to Skill--><g id="link_Collaborator_Skill"><path codeLine="104" d="M338.56,298 C324.95,308.01 310.57,318.1 296.71,327 C237.51,365.01 163.5,402.74 126.33,421.05 " fill="none" id="Collaborator-Skill" style="stroke:#181818;stroke-width:1.0;"/><polygon fill="#000000" points="246.3845,369.1534,255.6836,367.159,252.7353,362.0741,246.3845,369.1534" style="stroke:#000000;stroke-width:1.0;"/><text fill="#000000" font-family="sans-serif" font-size="13" lengthAdjust="spacing" textLength="21" x="259.71" y="372.0283">has</text><text fill="#000000" font-family="sans-serif" font-size="13" lengthAdjust="spacing" textLength="7" x="323.7233" y="300.0772">1</text><text fill="#000000" font-family="sans-serif" font-size="13" lengthAdjust="spacing" textLength="20" x="134.1046" y="413.2393">1..*</text></g><!--link HRM to Team--><g id="link_HRM_Team"><path codeLine="107" d="M261.01,44 C288.39,44 340.54,44 375.47,44 " fill="none" id="HRM-Team" style="stroke:#181818;stroke-width:1.0;"/><polygon fill="#000000" points="299.21,31.6455,290.1649,28.7066,290.1649,34.5844,299.21,31.6455" style="stroke:#000000;stroke-width:1.0;"/><text fill="#000000" font-family="sans-serif" font-size="13" lengthAdjust="spacing" textLength="43" x="303.21" y="37.0283">creates</text><text fill="#000000" font-family="sans-serif" font-size="13" lengthAdjust="spacing" textLength="7" x="268.7763" y="38.1195">1</text><text fill="#000000" font-family="sans-serif" font-size="13" lengthAdjust="spacing" textLength="20" x="347.6944" y="39.6041">1..*</text></g><!--link Collaborator to Job--><g id="link_Collaborator_Job"><path codeLine="108" d="M357.73,327.11 C347.47,343.52 336.49,360.47 325.71,376 C318.76,386.01 310.68,396.63 303.36,405.94 " fill="none" id="Collaborator-Job" style="stroke:#181818;stroke-width:1.0;"/><polygon fill="#000000" points="338.8712,370.7615,346.426,364.9842,341.5874,361.647,338.8712,370.7615" style="stroke:#000000;stroke-width:1.0;"/><text fill="#000000" font-family="sans-serif" font-size="13" lengthAdjust="spacing" textLength="21" x="350.71" y="372.0283">has</text><text fill="#000000" font-family="sans-serif" font-size="13" lengthAdjust="spacing" textLength="7" x="346.22" y="349.0679">1</text><text fill="#000000" font-family="sans-serif" font-size="13" lengthAdjust="spacing" textLength="7" x="300.5572" y="394.6351">1</text></g><!--link Team to Collaborator--><g id="link_Team_Collaborator"><path codeLine="109" d="M409.97,81.22 C409.53,103.27 408.94,132.39 408.38,159.81 " fill="none" id="Team-Collaborator" style="stroke:#181818;stroke-width:1.0;"/><polygon fill="#000000" points="413.6089,125.6445,416.7301,116.6607,410.8535,116.5418,413.6089,125.6445" style="stroke:#000000;stroke-width:1.0;"/><text fill="#000000" font-family="sans-serif" font-size="13" lengthAdjust="spacing" textLength="21" x="422.71" y="126.0283">has</text><text fill="#000000" font-family="sans-serif" font-size="13" lengthAdjust="spacing" textLength="7" x="402.2678" y="102.8561">1</text><text fill="#000000" font-family="sans-serif" font-size="13" lengthAdjust="spacing" textLength="20" x="387.6381" y="148.642">1..*</text></g><!--reverse link Collaborator to VFM--><g id="link_Collaborator_VFM"><path codeLine="111" d="M409.2569,345.0556 C408.0969,361.5456 406.73,360.58 401.71,376 C397.06,390.27 387.67,404.29 379.39,414.79 " fill="none" id="Collaborator-backto-VFM" style="stroke:#181818;stroke-width:1.0;"/><polygon fill="none" points="410.52,327.1,403.2717,344.6346,415.2421,345.4767,410.52,327.1" style="stroke:#181818;stroke-width:1.0;"/></g><!--link VFM to Vehicle--><g id="link_VFM_Vehicle"><path codeLine="114" d="M347.6,452.16 C338.1,462.99 326.13,477.35 316.71,491 C306.06,506.44 295.53,523.24 285.65,539.94 " fill="none" id="VFM-Vehicle" style="stroke:#181818;stroke-width:1.0;"/><polygon fill="#000000" points="318.827,504.7306,326.4436,499.0352,321.6413,495.646,318.827,504.7306" style="stroke:#000000;stroke-width:1.0;"/><text fill="#000000" font-family="sans-serif" font-size="13" lengthAdjust="spacing" textLength="50" x="330.71" y="506.0283">registers</text><text fill="#000000" font-family="sans-serif" font-size="13" lengthAdjust="spacing" textLength="7" x="335.3298" y="473.5776">1</text><text fill="#000000" font-family="sans-serif" font-size="13" lengthAdjust="spacing" textLength="20" x="268.9382" y="528.9172">1..*</text></g><!--link VFM to Vehicle--><g id="link_VFM_Vehicle"><path codeLine="117" d="M345.91,447.4 C338.91,452.09 330.65,457.18 322.71,461 C284.7,479.26 258,457.26 232.71,491 C222.07,505.19 216.38,522.25 213.82,539.87 " fill="none" id="VFM-Vehicle-1" style="stroke:#181818;stroke-width:1.0;"/><polygon fill="#000000" points="233.6139,503.513,242.7092,500.7333,239.3383,495.9181,233.6139,503.513" style="stroke:#000000;stroke-width:1.0;"/><text fill="#000000" font-family="sans-serif" font-size="13" lengthAdjust="spacing" textLength="49" x="246.71" y="506.0283">chooses</text><text fill="#000000" font-family="sans-serif" font-size="13" lengthAdjust="spacing" textLength="7" x="331.3219" y="446.4714">1</text><text fill="#000000" font-family="sans-serif" font-size="13" lengthAdjust="spacing" textLength="20" x="192.2821" y="528.8425">1..*</text></g><!--link Vehicle to GreenSpace--><g id="link_Vehicle_GreenSpace"><path codeLine="118" d="M240,763.2 C249.62,808.02 266.18,858.23 294.71,897 C332.8,948.78 399.57,984.68 443.47,1004.07 " fill="none" id="Vehicle-GreenSpace" style="stroke:#181818;stroke-width:1.0;"/><polygon fill="#000000" points="296.4835,865.8259,300.0752,874.6322,304.5654,870.8391,296.4835,865.8259" style="stroke:#000000;stroke-width:1.0;"/><text fill="#000000" font-family="sans-serif" font-size="13" lengthAdjust="spacing" textLength="21" x="308.71" y="875.0283">has</text><text fill="#000000" font-family="sans-serif" font-size="13" lengthAdjust="spacing" textLength="20" x="220.2108" y="784.9433">1..*</text><text fill="#000000" font-family="sans-serif" font-size="13" lengthAdjust="spacing" textLength="7" x="420.7004" y="997.0364">1</text></g><!--link VFM to VehiclesCheckUp--><g id="link_VFM_VehiclesCheckUp"><path codeLine="121" d="M372.24,452.12 C377.11,463.04 382.8,477.52 385.71,491 C413.48,619.96 409.97,779.13 407.18,841.57 " fill="none" id="VFM-VehiclesCheckUp" style="stroke:#181818;stroke-width:1.0;"/><polygon fill="#000000" points="414.1568,656.6255,416.2757,647.354,410.4214,647.8792,414.1568,656.6255" style="stroke:#000000;stroke-width:1.0;"/><text fill="#000000" font-family="sans-serif" font-size="13" lengthAdjust="spacing" textLength="24" x="422.71" y="657.0283">lists</text><text fill="#000000" font-family="sans-serif" font-size="13" lengthAdjust="spacing" textLength="7" x="366.5918" y="473.5268">1</text><text fill="#000000" font-family="sans-serif" font-size="13" lengthAdjust="spacing" textLength="20" x="385.3141" y="830.6346">1..*</text></g><!--link VehiclesCheckUp to GreenSpace--><g id="link_VehiclesCheckUp_GreenSpace"><path codeLine="122" d="M420,897.06 C431.72,918.83 448.57,950.13 462.4,975.83 " fill="none" id="VehiclesCheckUp-GreenSpace" style="stroke:#181818;stroke-width:1.0;"/><polygon fill="#000000" points="448.3401,932.2428,450.0394,941.6003,455.2151,938.8144,448.3401,932.2428" style="stroke:#000000;stroke-width:1.0;"/><text fill="#000000" font-family="sans-serif" font-size="13" lengthAdjust="spacing" textLength="21" x="459.71" y="942.0283">has</text><text fill="#000000" font-family="sans-serif" font-size="13" lengthAdjust="spacing" textLength="20" x="400.9921" y="919.4328">1..*</text><text fill="#000000" font-family="sans-serif" font-size="13" lengthAdjust="spacing" textLength="7" x="442.7279" y="964.8145">1</text></g><!--link Vehicle to VehiclesCheckUp--><g id="link_Vehicle_VehiclesCheckUp"><path codeLine="123" d="M305.23,763.04 C318.28,779.83 332.03,796.66 345.71,812 C354.85,822.25 365.57,832.76 375.4,841.89 " fill="none" id="Vehicle-VehiclesCheckUp" style="stroke:#181818;stroke-width:1.0;"/><polygon fill="#000000" points="347.386,798.9104,351.2037,807.6211,355.5946,803.7135,347.386,798.9104" style="stroke:#000000;stroke-width:1.0;"/><text fill="#000000" font-family="sans-serif" font-size="13" lengthAdjust="spacing" textLength="21" x="359.71" y="808.0283">has</text><text fill="#000000" font-family="sans-serif" font-size="13" lengthAdjust="spacing" textLength="20" x="289.6196" y="784.7731">1..*</text><text fill="#000000" font-family="sans-serif" font-size="13" lengthAdjust="spacing" textLength="7" x="360.5814" y="830.5735">1</text></g><!--link Organization to Vehicle--><g id="link_Organization_Vehicle"><path codeLine="124" d="M590.73,81.06 C594.4,144.7 594.68,279.33 542.71,376 C517.63,422.64 418.68,505.15 338.1,567.57 " fill="none" id="Organization-Vehicle" style="stroke:#181818;stroke-width:1.0;"/><polygon fill="#000000" points="554.4058,371.0829,561.1824,364.41,555.9659,361.7012,554.4058,371.0829" style="stroke:#000000;stroke-width:1.0;"/><text fill="#000000" font-family="sans-serif" font-size="13" lengthAdjust="spacing" textLength="30" x="565.71" y="372.0283">owns</text><text fill="#000000" font-family="sans-serif" font-size="13" lengthAdjust="spacing" textLength="7" x="583.6475" y="102.9557">1</text><text fill="#000000" font-family="sans-serif" font-size="13" lengthAdjust="spacing" textLength="20" x="345.8765" y="558.6917">1..*</text></g><!--SRC=[XLNRJjmm47ttLunuGQf42xrhXP0gK2bLQQikyEvrPXChYRsC7Qs0ykyTsydcGYZxDEivStncvdZNbTfi9CaQQckiAiZM29uQ56wNsKXLoXoN_gv285HUchmQ0bmXCxlL9eUrh1oA_JvLQOF-ReDWoHTMx5Uuzk0jaCuB3vaETDgQ0Pcgf7DVl2UzQZnUA6kM-XxXK1GwGr2Q5DyTungPCdD2n1BuHRaq-bu6lWS1_36onXZ8B2DqJZnss6z_Bk51zD-NfQug65GzjedlTZK-xYgkaBMcZ6DzCQYnNY6v0U-fhIgviYIz9PY8McaUIIPz9x7Mph7qi_uaYGunJy5BvI_CsiRlEZkpggdH-2iUxkJePnDaHAsjZ7D2D4lU8y8pambnfhawIEZrdqlAq8n6TOcPRkgma-otf7AK-o69VJ99jRaRB3IlBjs_gRXBbfm6GTAagBOPLZ7oNLjUKWfoiioonM2SD9E6YBk5iaxo2NFjFCNzGpzNTTjefyU7jTJ6ev56uHjLe2eFcWsi2MyRDEgkx-VcwzWcRG_kDDHSRs3I3EE69eIz8yxkmS41HwzVlzeRsM41MqkbWpKxurYCZ7BybqlOebEs8LM_qWNOhN5m8WPR7cF7rnPo0exNfKq_EPvi-qb-l74Xzg-NXuT78holiORumXQW27bOGK22lfs1XZVt5FbkW3oPwunhaWNY4umrxvyJmbZUfyxZt4Oay-0qiqJweIVjOF77O2XvdZAsrf75cfVtDECCTcKhvQC83XsJj1uT36Ed_5C7dq6hmbeNjRT77I9YWus7ZWlQZblMpy-Bw1xAWly7d1-GxrxGovVCoPcv887_ys1sdRQlHVm3]--></g></svg>