<?xml version="1.0" encoding="us-ascii" standalone="no"?><svg xmlns="http://www.w3.org/2000/svg" xmlns:xlink="http://www.w3.org/1999/xlink" contentStyleType="text/css" height="759px" preserveAspectRatio="none" style="width:1109px;height:759px;background:#FFFFFF;" version="1.1" viewBox="0 0 1109 759" width="1109px" zoomAndPan="magnify"><defs/><g><!--class Collaborator--><g id="elem_Collaborator"><rect codeLine="5" fill="#F1F1F1" height="66.6211" id="Collaborator" rx="2.5" ry="2.5" style="stroke:#181818;stroke-width:0.5;" width="134" x="7" y="363.5"/><ellipse cx="32.8" cy="379.5" fill="#ADD1B2" rx="11" ry="11" style="stroke:#181818;stroke-width:1.0;"/><path d="M35.5656,375.375 Q35.7219,375.1563 35.9094,375.0469 Q36.0969,374.9375 36.3156,374.9375 Q36.6906,374.9375 36.925,375.2031 Q37.1594,375.4531 37.1594,376.0625 L37.1594,377.5156 Q37.1594,378.125 36.925,378.3906 Q36.6906,378.6563 36.3156,378.6563 Q35.9719,378.6563 35.7688,378.4531 Q35.5656,378.2656 35.4563,377.75 Q35.4094,377.3906 35.2219,377.2031 Q34.8938,376.8281 34.2844,376.6094 Q33.675,376.3906 33.05,376.3906 Q32.2844,376.3906 31.6437,376.7188 Q31.0187,377.0469 30.5187,377.7969 Q30.0344,378.5469 30.0344,379.5781 L30.0344,380.6719 Q30.0344,381.9063 30.925,382.7344 Q31.8156,383.5469 33.4094,383.5469 Q34.3469,383.5469 35.0031,383.2969 Q35.3938,383.1406 35.8156,382.7031 Q36.0813,382.4375 36.2219,382.3594 Q36.3781,382.2813 36.5813,382.2813 Q36.9094,382.2813 37.1594,382.5469 Q37.425,382.7969 37.425,383.1406 Q37.425,383.4844 37.0813,383.8906 Q36.5813,384.4688 35.7844,384.7969 Q34.7063,385.25 33.4094,385.25 Q31.8937,385.25 30.6906,384.625 Q29.7062,384.125 29.0187,383.0625 Q28.3312,381.9844 28.3312,380.7031 L28.3312,379.5469 Q28.3312,378.2188 28.9406,377.0781 Q29.5656,375.9219 30.6594,375.3125 Q31.7531,374.6875 32.9875,374.6875 Q33.7219,374.6875 34.3625,374.8594 Q35.0188,375.0156 35.5656,375.375 Z " fill="#000000"/><text fill="#000000" font-family="sans-serif" font-size="14" lengthAdjust="spacing" textLength="78" x="49.2" y="385.2969">Collaborator</text><line style="stroke:#181818;stroke-width:0.5;" x1="8" x2="140" y1="395.5" y2="395.5"/><line style="stroke:#181818;stroke-width:0.5;" x1="8" x2="140" y1="403.5" y2="403.5"/><ellipse cx="18" cy="418.3105" fill="#84BE84" rx="3" ry="3" style="stroke:#038048;stroke-width:1.0;"/><text fill="#000000" font-family="sans-serif" font-size="14" lengthAdjust="spacing" textLength="108" x="27" y="422.6074">getCollaborator()</text></g><!--class RecordTaskCompletionUI--><g id="elem_RecordTaskCompletionUI"><rect codeLine="9" fill="#F1F1F1" height="66.6211" id="RecordTaskCompletionUI" rx="2.5" ry="2.5" style="stroke:#181818;stroke-width:0.5;" width="247" x="309.5" y="7"/><ellipse cx="349.25" cy="23" fill="#ADD1B2" rx="11" ry="11" style="stroke:#181818;stroke-width:1.0;"/><path d="M352.0156,18.875 Q352.1719,18.6563 352.3594,18.5469 Q352.5469,18.4375 352.7656,18.4375 Q353.1406,18.4375 353.375,18.7031 Q353.6094,18.9531 353.6094,19.5625 L353.6094,21.0156 Q353.6094,21.625 353.375,21.8906 Q353.1406,22.1563 352.7656,22.1563 Q352.4219,22.1563 352.2188,21.9531 Q352.0156,21.7656 351.9063,21.25 Q351.8594,20.8906 351.6719,20.7031 Q351.3438,20.3281 350.7344,20.1094 Q350.125,19.8906 349.5,19.8906 Q348.7344,19.8906 348.0938,20.2188 Q347.4688,20.5469 346.9688,21.2969 Q346.4844,22.0469 346.4844,23.0781 L346.4844,24.1719 Q346.4844,25.4063 347.375,26.2344 Q348.2656,27.0469 349.8594,27.0469 Q350.7969,27.0469 351.4531,26.7969 Q351.8438,26.6406 352.2656,26.2031 Q352.5313,25.9375 352.6719,25.8594 Q352.8281,25.7813 353.0313,25.7813 Q353.3594,25.7813 353.6094,26.0469 Q353.875,26.2969 353.875,26.6406 Q353.875,26.9844 353.5313,27.3906 Q353.0313,27.9688 352.2344,28.2969 Q351.1563,28.75 349.8594,28.75 Q348.3438,28.75 347.1406,28.125 Q346.1563,27.625 345.4688,26.5625 Q344.7813,25.4844 344.7813,24.2031 L344.7813,23.0469 Q344.7813,21.7188 345.3906,20.5781 Q346.0156,19.4219 347.1094,18.8125 Q348.2031,18.1875 349.4375,18.1875 Q350.1719,18.1875 350.8125,18.3594 Q351.4688,18.5156 352.0156,18.875 Z " fill="#000000"/><text fill="#000000" font-family="sans-serif" font-size="14" lengthAdjust="spacing" textLength="160" x="368.75" y="28.7969">RecordTaskCompletionUI</text><line style="stroke:#181818;stroke-width:0.5;" x1="310.5" x2="555.5" y1="39" y2="39"/><line style="stroke:#181818;stroke-width:0.5;" x1="310.5" x2="555.5" y1="47" y2="47"/><ellipse cx="320.5" cy="61.8105" fill="#84BE84" rx="3" ry="3" style="stroke:#038048;stroke-width:1.0;"/><text fill="#000000" font-family="sans-serif" font-size="14" lengthAdjust="spacing" textLength="221" x="329.5" y="66.1074">markTaskAsCompleted(task: Task)</text></g><!--class RecordTaskCompletionController--><g id="elem_RecordTaskCompletionController"><rect codeLine="13" fill="#F1F1F1" height="122.4844" id="RecordTaskCompletionController" rx="2.5" ry="2.5" style="stroke:#181818;stroke-width:0.5;" width="752" x="57" y="135"/><ellipse cx="323.75" cy="151" fill="#ADD1B2" rx="11" ry="11" style="stroke:#181818;stroke-width:1.0;"/><path d="M326.5156,146.875 Q326.6719,146.6563 326.8594,146.5469 Q327.0469,146.4375 327.2656,146.4375 Q327.6406,146.4375 327.875,146.7031 Q328.1094,146.9531 328.1094,147.5625 L328.1094,149.0156 Q328.1094,149.625 327.875,149.8906 Q327.6406,150.1563 327.2656,150.1563 Q326.9219,150.1563 326.7188,149.9531 Q326.5156,149.7656 326.4063,149.25 Q326.3594,148.8906 326.1719,148.7031 Q325.8438,148.3281 325.2344,148.1094 Q324.625,147.8906 324,147.8906 Q323.2344,147.8906 322.5938,148.2188 Q321.9688,148.5469 321.4688,149.2969 Q320.9844,150.0469 320.9844,151.0781 L320.9844,152.1719 Q320.9844,153.4063 321.875,154.2344 Q322.7656,155.0469 324.3594,155.0469 Q325.2969,155.0469 325.9531,154.7969 Q326.3438,154.6406 326.7656,154.2031 Q327.0313,153.9375 327.1719,153.8594 Q327.3281,153.7813 327.5313,153.7813 Q327.8594,153.7813 328.1094,154.0469 Q328.375,154.2969 328.375,154.6406 Q328.375,154.9844 328.0313,155.3906 Q327.5313,155.9688 326.7344,156.2969 Q325.6563,156.75 324.3594,156.75 Q322.8438,156.75 321.6406,156.125 Q320.6563,155.625 319.9688,154.5625 Q319.2813,153.4844 319.2813,152.2031 L319.2813,151.0469 Q319.2813,149.7188 319.8906,148.5781 Q320.5156,147.4219 321.6094,146.8125 Q322.7031,146.1875 323.9375,146.1875 Q324.6719,146.1875 325.3125,146.3594 Q325.9688,146.5156 326.5156,146.875 Z " fill="#000000"/><text fill="#000000" font-family="sans-serif" font-size="14" lengthAdjust="spacing" textLength="210" x="344.25" y="156.7969">RecordTaskCompletionController</text><line style="stroke:#181818;stroke-width:0.5;" x1="58" x2="808" y1="167" y2="167"/><rect fill="none" height="6" style="stroke:#C82930;stroke-width:1.0;" width="6" x="65" y="178.8105"/><text fill="#000000" font-family="sans-serif" font-size="14" lengthAdjust="spacing" textLength="297" x="77" y="186.1074">collaboratorRepository: CollaboratorRepository</text><rect fill="none" height="6" style="stroke:#C82930;stroke-width:1.0;" width="6" x="65" y="197.4316"/><text fill="#000000" font-family="sans-serif" font-size="14" lengthAdjust="spacing" textLength="201" x="77" y="204.7285">taskRepository: TaskRepository</text><line style="stroke:#181818;stroke-width:0.5;" x1="58" x2="808" y1="212.2422" y2="212.2422"/><ellipse cx="68" cy="227.0527" fill="#84BE84" rx="3" ry="3" style="stroke:#038048;stroke-width:1.0;"/><text fill="#000000" font-family="sans-serif" font-size="14" lengthAdjust="spacing" textLength="726" x="77" y="231.3496">RecordTaskCompletionController(collaboratorRepository: CollaboratorRepository, taskRepository: TaskRepository)</text><ellipse cx="68" cy="245.6738" fill="#84BE84" rx="3" ry="3" style="stroke:#038048;stroke-width:1.0;"/><text fill="#000000" font-family="sans-serif" font-size="14" lengthAdjust="spacing" textLength="221" x="77" y="249.9707">markTaskAsCompleted(task: Task)</text></g><!--class Repositories--><g id="elem_Repositories"><rect codeLine="20" fill="#F1F1F1" height="122.4844" id="Repositories" rx="2.5" ry="2.5" style="stroke:#181818;stroke-width:0.5;" width="356" x="176" y="336"/><ellipse cx="310.25" cy="352" fill="#ADD1B2" rx="11" ry="11" style="stroke:#181818;stroke-width:1.0;"/><path d="M313.0156,347.875 Q313.1719,347.6563 313.3594,347.5469 Q313.5469,347.4375 313.7656,347.4375 Q314.1406,347.4375 314.375,347.7031 Q314.6094,347.9531 314.6094,348.5625 L314.6094,350.0156 Q314.6094,350.625 314.375,350.8906 Q314.1406,351.1563 313.7656,351.1563 Q313.4219,351.1563 313.2188,350.9531 Q313.0156,350.7656 312.9063,350.25 Q312.8594,349.8906 312.6719,349.7031 Q312.3438,349.3281 311.7344,349.1094 Q311.125,348.8906 310.5,348.8906 Q309.7344,348.8906 309.0938,349.2188 Q308.4688,349.5469 307.9688,350.2969 Q307.4844,351.0469 307.4844,352.0781 L307.4844,353.1719 Q307.4844,354.4063 308.375,355.2344 Q309.2656,356.0469 310.8594,356.0469 Q311.7969,356.0469 312.4531,355.7969 Q312.8438,355.6406 313.2656,355.2031 Q313.5313,354.9375 313.6719,354.8594 Q313.8281,354.7813 314.0313,354.7813 Q314.3594,354.7813 314.6094,355.0469 Q314.875,355.2969 314.875,355.6406 Q314.875,355.9844 314.5313,356.3906 Q314.0313,356.9688 313.2344,357.2969 Q312.1563,357.75 310.8594,357.75 Q309.3438,357.75 308.1406,357.125 Q307.1563,356.625 306.4688,355.5625 Q305.7813,354.4844 305.7813,353.2031 L305.7813,352.0469 Q305.7813,350.7188 306.3906,349.5781 Q307.0156,348.4219 308.1094,347.8125 Q309.2031,347.1875 310.4375,347.1875 Q311.1719,347.1875 311.8125,347.3594 Q312.4688,347.5156 313.0156,347.875 Z " fill="#000000"/><text fill="#000000" font-family="sans-serif" font-size="14" lengthAdjust="spacing" textLength="79" x="330.75" y="357.7969">Repositories</text><line style="stroke:#181818;stroke-width:0.5;" x1="177" x2="531" y1="368" y2="368"/><line style="stroke:#181818;stroke-width:0.5;" x1="177" x2="531" y1="376" y2="376"/><ellipse cx="187" cy="390.8105" fill="#84BE84" rx="3" ry="3" style="stroke:#038048;stroke-width:1.0;"/><text fill="#000000" font-family="sans-serif" font-size="14" lengthAdjust="spacing" textLength="89" x="196" y="395.1074">Repositories()</text><ellipse cx="187" cy="409.4316" fill="#84BE84" rx="3" ry="3" style="stroke:#038048;stroke-width:1.0;"/><text fill="#000000" font-family="sans-serif" font-size="14" lengthAdjust="spacing" textLength="170" x="196" y="413.7285">getInstance(): Repositories</text><ellipse cx="187" cy="428.0527" fill="#84BE84" rx="3" ry="3" style="stroke:#038048;stroke-width:1.0;"/><text fill="#000000" font-family="sans-serif" font-size="14" lengthAdjust="spacing" textLength="330" x="196" y="432.3496">getCollaboratorRepository(): CollaboratorRepository</text><ellipse cx="187" cy="446.6738" fill="#84BE84" rx="3" ry="3" style="stroke:#038048;stroke-width:1.0;"/><text fill="#000000" font-family="sans-serif" font-size="14" lengthAdjust="spacing" textLength="236" x="196" y="450.9707">getTaskRepository(): TaskRepository</text></g><!--class CollaboratorRepository--><g id="elem_CollaboratorRepository"><rect codeLine="27" fill="#F1F1F1" height="66.6211" id="CollaboratorRepository" rx="2.5" ry="2.5" style="stroke:#181818;stroke-width:0.5;" width="220" x="592" y="7"/><ellipse cx="625.9" cy="23" fill="#ADD1B2" rx="11" ry="11" style="stroke:#181818;stroke-width:1.0;"/><path d="M628.6656,18.875 Q628.8219,18.6563 629.0094,18.5469 Q629.1969,18.4375 629.4156,18.4375 Q629.7906,18.4375 630.025,18.7031 Q630.2594,18.9531 630.2594,19.5625 L630.2594,21.0156 Q630.2594,21.625 630.025,21.8906 Q629.7906,22.1563 629.4156,22.1563 Q629.0719,22.1563 628.8688,21.9531 Q628.6656,21.7656 628.5563,21.25 Q628.5094,20.8906 628.3219,20.7031 Q627.9938,20.3281 627.3844,20.1094 Q626.775,19.8906 626.15,19.8906 Q625.3844,19.8906 624.7438,20.2188 Q624.1188,20.5469 623.6188,21.2969 Q623.1344,22.0469 623.1344,23.0781 L623.1344,24.1719 Q623.1344,25.4063 624.025,26.2344 Q624.9156,27.0469 626.5094,27.0469 Q627.4469,27.0469 628.1031,26.7969 Q628.4938,26.6406 628.9156,26.2031 Q629.1813,25.9375 629.3219,25.8594 Q629.4781,25.7813 629.6813,25.7813 Q630.0094,25.7813 630.2594,26.0469 Q630.525,26.2969 630.525,26.6406 Q630.525,26.9844 630.1813,27.3906 Q629.6813,27.9688 628.8844,28.2969 Q627.8063,28.75 626.5094,28.75 Q624.9938,28.75 623.7906,28.125 Q622.8063,27.625 622.1188,26.5625 Q621.4313,25.4844 621.4313,24.2031 L621.4313,23.0469 Q621.4313,21.7188 622.0406,20.5781 Q622.6656,19.4219 623.7594,18.8125 Q624.8531,18.1875 626.0875,18.1875 Q626.8219,18.1875 627.4625,18.3594 Q628.1188,18.5156 628.6656,18.875 Z " fill="#000000"/><text fill="#000000" font-family="sans-serif" font-size="14" lengthAdjust="spacing" textLength="146" x="644.1" y="28.7969">CollaboratorRepository</text><line style="stroke:#181818;stroke-width:0.5;" x1="593" x2="811" y1="39" y2="39"/><line style="stroke:#181818;stroke-width:0.5;" x1="593" x2="811" y1="47" y2="47"/><ellipse cx="603" cy="61.8105" fill="#84BE84" rx="3" ry="3" style="stroke:#038048;stroke-width:1.0;"/><text fill="#000000" font-family="sans-serif" font-size="14" lengthAdjust="spacing" textLength="194" x="612" y="66.1074">getCollaborator(): Collaborator</text></g><!--class TaskRepository--><g id="elem_TaskRepository"><rect codeLine="31" fill="#F1F1F1" height="66.6211" id="TaskRepository" rx="2.5" ry="2.5" style="stroke:#181818;stroke-width:0.5;" width="292" x="567" y="363.5"/><ellipse cx="659.25" cy="379.5" fill="#ADD1B2" rx="11" ry="11" style="stroke:#181818;stroke-width:1.0;"/><path d="M662.0156,375.375 Q662.1719,375.1563 662.3594,375.0469 Q662.5469,374.9375 662.7656,374.9375 Q663.1406,374.9375 663.375,375.2031 Q663.6094,375.4531 663.6094,376.0625 L663.6094,377.5156 Q663.6094,378.125 663.375,378.3906 Q663.1406,378.6563 662.7656,378.6563 Q662.4219,378.6563 662.2188,378.4531 Q662.0156,378.2656 661.9063,377.75 Q661.8594,377.3906 661.6719,377.2031 Q661.3438,376.8281 660.7344,376.6094 Q660.125,376.3906 659.5,376.3906 Q658.7344,376.3906 658.0938,376.7188 Q657.4688,377.0469 656.9688,377.7969 Q656.4844,378.5469 656.4844,379.5781 L656.4844,380.6719 Q656.4844,381.9063 657.375,382.7344 Q658.2656,383.5469 659.8594,383.5469 Q660.7969,383.5469 661.4531,383.2969 Q661.8438,383.1406 662.2656,382.7031 Q662.5313,382.4375 662.6719,382.3594 Q662.8281,382.2813 663.0313,382.2813 Q663.3594,382.2813 663.6094,382.5469 Q663.875,382.7969 663.875,383.1406 Q663.875,383.4844 663.5313,383.8906 Q663.0313,384.4688 662.2344,384.7969 Q661.1563,385.25 659.8594,385.25 Q658.3438,385.25 657.1406,384.625 Q656.1563,384.125 655.4688,383.0625 Q654.7813,381.9844 654.7813,380.7031 L654.7813,379.5469 Q654.7813,378.2188 655.3906,377.0781 Q656.0156,375.9219 657.1094,375.3125 Q658.2031,374.6875 659.4375,374.6875 Q660.1719,374.6875 660.8125,374.8594 Q661.4688,375.0156 662.0156,375.375 Z " fill="#000000"/><text fill="#000000" font-family="sans-serif" font-size="14" lengthAdjust="spacing" textLength="99" x="679.75" y="385.2969">TaskRepository</text><line style="stroke:#181818;stroke-width:0.5;" x1="568" x2="858" y1="395.5" y2="395.5"/><line style="stroke:#181818;stroke-width:0.5;" x1="568" x2="858" y1="403.5" y2="403.5"/><ellipse cx="578" cy="418.3105" fill="#84BE84" rx="3" ry="3" style="stroke:#038048;stroke-width:1.0;"/><text fill="#000000" font-family="sans-serif" font-size="14" lengthAdjust="spacing" textLength="266" x="587" y="422.6074">markTaskAsCompleted(task: Task): String</text></g><!--class Task--><g id="elem_Task"><rect codeLine="35" fill="#F1F1F1" height="215.5898" id="Task" rx="2.5" ry="2.5" style="stroke:#181818;stroke-width:0.5;" width="477" x="625.5" y="537"/><ellipse cx="844.25" cy="553" fill="#ADD1B2" rx="11" ry="11" style="stroke:#181818;stroke-width:1.0;"/><path d="M847.0156,548.875 Q847.1719,548.6563 847.3594,548.5469 Q847.5469,548.4375 847.7656,548.4375 Q848.1406,548.4375 848.375,548.7031 Q848.6094,548.9531 848.6094,549.5625 L848.6094,551.0156 Q848.6094,551.625 848.375,551.8906 Q848.1406,552.1563 847.7656,552.1563 Q847.4219,552.1563 847.2188,551.9531 Q847.0156,551.7656 846.9063,551.25 Q846.8594,550.8906 846.6719,550.7031 Q846.3438,550.3281 845.7344,550.1094 Q845.125,549.8906 844.5,549.8906 Q843.7344,549.8906 843.0938,550.2188 Q842.4688,550.5469 841.9688,551.2969 Q841.4844,552.0469 841.4844,553.0781 L841.4844,554.1719 Q841.4844,555.4063 842.375,556.2344 Q843.2656,557.0469 844.8594,557.0469 Q845.7969,557.0469 846.4531,556.7969 Q846.8438,556.6406 847.2656,556.2031 Q847.5313,555.9375 847.6719,555.8594 Q847.8281,555.7813 848.0313,555.7813 Q848.3594,555.7813 848.6094,556.0469 Q848.875,556.2969 848.875,556.6406 Q848.875,556.9844 848.5313,557.3906 Q848.0313,557.9688 847.2344,558.2969 Q846.1563,558.75 844.8594,558.75 Q843.3438,558.75 842.1406,558.125 Q841.1563,557.625 840.4688,556.5625 Q839.7813,555.4844 839.7813,554.2031 L839.7813,553.0469 Q839.7813,551.7188 840.3906,550.5781 Q841.0156,549.4219 842.1094,548.8125 Q843.2031,548.1875 844.4375,548.1875 Q845.1719,548.1875 845.8125,548.3594 Q846.4688,548.5156 847.0156,548.875 Z " fill="#000000"/><text fill="#000000" font-family="sans-serif" font-size="14" lengthAdjust="spacing" textLength="31" x="864.75" y="558.7969">Task</text><line style="stroke:#181818;stroke-width:0.5;" x1="626.5" x2="1101.5" y1="569" y2="569"/><rect fill="none" height="6" style="stroke:#C82930;stroke-width:1.0;" width="6" x="633.5" y="580.8105"/><text fill="#000000" font-family="sans-serif" font-size="14" lengthAdjust="spacing" textLength="82" x="645.5" y="588.1074">taskId: String</text><rect fill="none" height="6" style="stroke:#C82930;stroke-width:1.0;" width="6" x="633.5" y="599.4316"/><text fill="#000000" font-family="sans-serif" font-size="14" lengthAdjust="spacing" textLength="107" x="645.5" y="606.7285">taskName: String</text><rect fill="none" height="6" style="stroke:#C82930;stroke-width:1.0;" width="6" x="633.5" y="618.0527"/><text fill="#000000" font-family="sans-serif" font-size="14" lengthAdjust="spacing" textLength="114" x="645.5" y="625.3496">description: String</text><rect fill="none" height="6" style="stroke:#C82930;stroke-width:1.0;" width="6" x="633.5" y="636.6738"/><text fill="#000000" font-family="sans-serif" font-size="14" lengthAdjust="spacing" textLength="83" x="645.5" y="643.9707">status: String</text><line style="stroke:#181818;stroke-width:0.5;" x1="626.5" x2="1101.5" y1="651.4844" y2="651.4844"/><ellipse cx="636.5" cy="666.2949" fill="#84BE84" rx="3" ry="3" style="stroke:#038048;stroke-width:1.0;"/><text fill="#000000" font-family="sans-serif" font-size="14" lengthAdjust="spacing" textLength="451" x="645.5" y="670.5918">Task(taskId: String, taskName: String, description: String, status: String)</text><ellipse cx="636.5" cy="684.916" fill="#84BE84" rx="3" ry="3" style="stroke:#038048;stroke-width:1.0;"/><text fill="#000000" font-family="sans-serif" font-size="14" lengthAdjust="spacing" textLength="117" x="645.5" y="689.2129">getTaskId(): String</text><ellipse cx="636.5" cy="703.5371" fill="#84BE84" rx="3" ry="3" style="stroke:#038048;stroke-width:1.0;"/><text fill="#000000" font-family="sans-serif" font-size="14" lengthAdjust="spacing" textLength="142" x="645.5" y="707.834">getTaskName(): String</text><ellipse cx="636.5" cy="722.1582" fill="#84BE84" rx="3" ry="3" style="stroke:#038048;stroke-width:1.0;"/><text fill="#000000" font-family="sans-serif" font-size="14" lengthAdjust="spacing" textLength="146" x="645.5" y="726.4551">getDescription(): String</text><ellipse cx="636.5" cy="740.7793" fill="#84BE84" rx="3" ry="3" style="stroke:#038048;stroke-width:1.0;"/><text fill="#000000" font-family="sans-serif" font-size="14" lengthAdjust="spacing" textLength="115" x="645.5" y="745.0762">getStatus(): String</text></g><!--link RecordTaskCompletionUI to RecordTaskCompletionController--><g id="link_RecordTaskCompletionUI_RecordTaskCompletionController"><path codeLine="47" d="M433,74.05 C433,91.74 433,108.18 433,128.92 " fill="none" id="RecordTaskCompletionUI-to-RecordTaskCompletionController" style="stroke:#181818;stroke-width:1.0;"/><polygon fill="#181818" points="433,134.92,437,125.92,433,129.92,429,125.92,433,134.92" style="stroke:#181818;stroke-width:1.0;"/></g><!--link RecordTaskCompletionController to Collaborator--><g id="link_RecordTaskCompletionController_Collaborator"><path codeLine="48" d="M156.33,257.04 C132.02,266.21 112.61,276.24 102,287 C82.25,307.03 76.3084,333.0368 74.4984,357.1868 " fill="none" id="RecordTaskCompletionController-to-Collaborator" style="stroke:#181818;stroke-width:1.0;"/><polygon fill="#181818" points="74.05,363.17,78.7115,354.4941,74.4237,358.184,70.7338,353.8962,74.05,363.17" style="stroke:#181818;stroke-width:1.0;"/><text fill="#000000" font-family="sans-serif" font-size="13" lengthAdjust="spacing" textLength="129" x="103" y="302.0283">collaboratorRepository</text></g><!--link RecordTaskCompletionController to TaskRepository--><g id="link_RecordTaskCompletionController_TaskRepository"><path codeLine="49" d="M588.46,257.09 C604.2,266.02 619.38,275.98 633,287 C659.1,308.11 677.9111,334.5062 692.1611,358.2362 " fill="none" id="RecordTaskCompletionController-to-TaskRepository" style="stroke:#181818;stroke-width:1.0;"/><polygon fill="#181818" points="695.25,363.38,694.0459,353.605,692.6759,359.0935,687.1875,357.7235,695.25,363.38" style="stroke:#181818;stroke-width:1.0;"/><text fill="#000000" font-family="sans-serif" font-size="13" lengthAdjust="spacing" textLength="87" x="653" y="302.0283">taskRepository</text></g><!--link RecordTaskCompletionController to Task--><g id="link_RecordTaskCompletionController_Task"><path codeLine="50" d="M714.3,257.05 C788.21,278.78 853.61,305.56 876,336 C917.77,392.8 914.6581,466.8499 900.5481,531.0399 " fill="none" id="RecordTaskCompletionController-to-Task" style="stroke:#181818;stroke-width:1.0;"/><polygon fill="#181818" points="899.26,536.9,905.0989,528.9686,900.3335,532.0166,897.2855,527.2511,899.26,536.9" style="stroke:#181818;stroke-width:1.0;"/><text fill="#000000" font-family="sans-serif" font-size="13" lengthAdjust="spacing" textLength="135" x="910" y="402.5283">markTaskAsCompleted</text></g><!--link RecordTaskCompletionController to Repositories--><g id="link_RecordTaskCompletionController_Repositories"><path codeLine="51" d="M272.16,257.12 C262.04,265.81 253.09,275.71 246,287 C235.16,304.25 236.5426,316.3682 249.2726,331.2682 " fill="none" id="RecordTaskCompletionController-to-Repositories" style="stroke:#181818;stroke-width:1.0;"/><polygon fill="#181818" points="253.17,335.83,250.3651,326.389,249.9221,332.0285,244.2827,331.5856,253.17,335.83" style="stroke:#181818;stroke-width:1.0;"/><text fill="#000000" font-family="sans-serif" font-size="13" lengthAdjust="spacing" textLength="67" x="247" y="302.0283">getInstance</text></g><!--link RecordTaskCompletionController to Repositories--><g id="link_RecordTaskCompletionController_Repositories"><path codeLine="52" d="M371.33,257.17 C364.7,266.51 358.95,276.56 355,287 C349.24,302.22 347.2843,313.5202 347.1643,329.7802 " fill="none" id="RecordTaskCompletionController-to-Repositories-1" style="stroke:#181818;stroke-width:1.0;"/><polygon fill="#181818" points="347.12,335.78,351.1863,326.8098,347.1569,330.7801,343.1865,326.7507,347.12,335.78" style="stroke:#181818;stroke-width:1.0;"/><text fill="#000000" font-family="sans-serif" font-size="13" lengthAdjust="spacing" textLength="108" x="356" y="302.0283">getTaskRepository</text></g><!--link RecordTaskCompletionController to Repositories--><g id="link_RecordTaskCompletionController_Repositories"><path codeLine="53" d="M469.57,257.26 C474.93,273.44 476.46,290.68 469,306 C463.67,316.94 460.4048,322.5638 451.9348,331.5938 " fill="none" id="RecordTaskCompletionController-to-Repositories-2" style="stroke:#181818;stroke-width:1.0;"/><polygon fill="#181818" points="447.83,335.97,456.9046,332.1423,451.2506,332.3232,451.0697,326.6692,447.83,335.97" style="stroke:#181818;stroke-width:1.0;"/><text fill="#000000" font-family="sans-serif" font-size="13" lengthAdjust="spacing" textLength="149" x="475" y="302.0283">getCollaboratorRepository</text></g><!--link TaskRepository to Task--><g id="link_TaskRepository_Task"><path codeLine="54" d="M692.55,430.69 C681.37,453 672,482.79 684,507 C689.23,517.56 692.0013,522.8035 699.3613,532.1635 " fill="none" id="TaskRepository-to-Task" style="stroke:#181818;stroke-width:1.0;"/><polygon fill="#181818" points="703.07,536.88,700.6513,527.3328,699.9794,532.9496,694.3626,532.2777,703.07,536.88" style="stroke:#181818;stroke-width:1.0;"/><text fill="#000000" font-family="sans-serif" font-size="13" lengthAdjust="spacing" textLength="135" x="685" y="503.0283">markTaskAsCompleted</text></g><!--reverse link Task to TaskRepository--><g id="link_Task_TaskRepository"><path codeLine="55" d="M845.2808,531.2293 C839.8508,514.0593 834.48,502.81 825,488 C810.41,465.21 788.07,445.57 767.17,430.5 " fill="none" id="Task-backto-TaskRepository" style="stroke:#181818;stroke-width:1.0;"/><polygon fill="#181818" points="847.09,536.95,848.1901,527.1628,845.5824,532.1827,840.5624,529.575,847.09,536.95" style="stroke:#181818;stroke-width:1.0;"/><text fill="#000000" font-family="sans-serif" font-size="13" lengthAdjust="spacing" textLength="40" x="837" y="503.0283">returns</text></g><!--SRC=[dLH1ReCm4Bpp2jzY5FY0LLMgqWkN7fBq0QxP4WJOo7PKHLN-NXiHZ1q8f9nWPtTcFTvbewgIjrJI1ZM22tQIeW6avHcYZODQoYfQm45VQa0IcAQygBqCTQAv-2bvWRvfhI2AM4sLGZjHr_HBIAg5HByHCiyM5Q37SHn7rrl-7fYG-P6gQYUQjWPT2lwP3PKDbPK5trGFGuwr-IR8HXTuTe9hQNJXracAsAYDFRH2bURbGhosNRmlieBZvAFttNVwk07yd72oe1a_RqzVMe8Qp1q7SUpkAkFAt3S371ClP_esNLSs_u6HNQL_3biHk7cTcYI7py-Kh-ruVFwraqNGGKiptJxFC4SsCyk791Vye0q4uHmKasLh1o90ZCtwhBpWjjF1FdzoHvrCiIO1OUpRdkKu3hHwn39FOUzEOme-T6hOysfcdzFqTM53eeKDjWpUpuNCBFCQec0cIB1kQobCuSGOhQdszf6Cb-v_rSUd-x_dc5dTmAk5itVGIvhUMon1doLNVm00]--></g></svg>