<?xml version="1.0" encoding="us-ascii" standalone="no"?><svg xmlns="http://www.w3.org/2000/svg" xmlns:xlink="http://www.w3.org/1999/xlink" contentStyleType="text/css" height="676px" preserveAspectRatio="none" style="width:853px;height:676px;background:#FFFFFF;" version="1.1" viewBox="0 0 853 676" width="853px" zoomAndPan="magnify"><defs/><g><!--class Organization--><g id="elem_Organization"><rect codeLine="12" fill="#F1F1F1" height="73.8633" id="Organization" rx="2.5" ry="2.5" style="stroke:#181818;stroke-width:0.5;" width="86" x="352.5" y="7"/><text fill="#000000" font-family="sans-serif" font-size="14" lengthAdjust="spacing" textLength="80" x="355.5" y="27.1074">Organization</text><line style="stroke:#181818;stroke-width:0.5;" x1="353.5" x2="437.5" y1="35.6211" y2="35.6211"/><text fill="#000000" font-family="sans-serif" font-size="14" lengthAdjust="spacing" textLength="35" x="358.5" y="54.7285">name</text><text fill="#000000" font-family="sans-serif" font-size="14" lengthAdjust="spacing" textLength="51" x="358.5" y="73.3496">address</text></g><!--class GSM--><g id="elem_GSM"><rect codeLine="17" fill="#F1F1F1" height="36.6211" id="GSM" rx="2.5" ry="2.5" style="stroke:#181818;stroke-width:0.5;" width="37" x="224" y="206.5"/><text fill="#000000" font-family="sans-serif" font-size="14" lengthAdjust="spacing" textLength="31" x="227" y="226.6074">GSM</text><line style="stroke:#181818;stroke-width:0.5;" x1="225" x2="260" y1="235.1211" y2="235.1211"/></g><!--class WaterUsageData--><g id="elem_WaterUsageData"><rect codeLine="21" fill="#F1F1F1" height="129.7266" id="WaterUsageData" rx="2.5" ry="2.5" style="stroke:#181818;stroke-width:0.5;" width="114" x="338.5" y="160"/><text fill="#000000" font-family="sans-serif" font-size="14" lengthAdjust="spacing" textLength="108" x="341.5" y="180.1074">WaterUsageData</text><line style="stroke:#181818;stroke-width:0.5;" x1="339.5" x2="451.5" y1="188.6211" y2="188.6211"/><text fill="#000000" font-family="sans-serif" font-size="14" lengthAdjust="spacing" textLength="41" x="344.5" y="207.7285">parkID</text><text fill="#000000" font-family="sans-serif" font-size="14" lengthAdjust="spacing" textLength="28" x="344.5" y="226.3496">year</text><text fill="#000000" font-family="sans-serif" font-size="14" lengthAdjust="spacing" textLength="39" x="344.5" y="244.9707">month</text><text fill="#000000" font-family="sans-serif" font-size="14" lengthAdjust="spacing" textLength="23" x="344.5" y="263.5918">day</text><text fill="#000000" font-family="sans-serif" font-size="14" lengthAdjust="spacing" textLength="80" x="344.5" y="282.2129">consumption</text></g><!--class BarplotMonthlyWaterConsumption--><g id="elem_BarplotMonthlyWaterConsumption"><rect codeLine="29" fill="#F1F1F1" height="73.8633" id="BarplotMonthlyWaterConsumption" rx="2.5" ry="2.5" style="stroke:#181818;stroke-width:0.5;" width="221" x="7" y="406"/><text fill="#000000" font-family="sans-serif" font-size="14" lengthAdjust="spacing" textLength="215" x="10" y="426.1074">BarplotMonthlyWaterConsumption</text><line style="stroke:#181818;stroke-width:0.5;" x1="8" x2="227" y1="434.6211" y2="434.6211"/><text fill="#000000" font-family="sans-serif" font-size="14" lengthAdjust="spacing" textLength="69" x="13" y="453.7285">StartMonth</text><text fill="#000000" font-family="sans-serif" font-size="14" lengthAdjust="spacing" textLength="64" x="13" y="472.3496">EndMonth</text></g><!--class AverageMonthlyCostsWaterConsumption--><g id="elem_AverageMonthlyCostsWaterConsumption"><rect codeLine="34" fill="#F1F1F1" height="73.8633" id="AverageMonthlyCostsWaterConsumption" rx="2.5" ry="2.5" style="stroke:#181818;stroke-width:0.5;" width="265" x="263" y="406"/><text fill="#000000" font-family="sans-serif" font-size="14" lengthAdjust="spacing" textLength="259" x="266" y="426.1074">AverageMonthlyCostsWaterConsumption</text><line style="stroke:#181818;stroke-width:0.5;" x1="264" x2="527" y1="434.6211" y2="434.6211"/><text fill="#000000" font-family="sans-serif" font-size="14" lengthAdjust="spacing" textLength="99" x="269" y="453.7285">numberOfParks</text><text fill="#000000" font-family="sans-serif" font-size="14" lengthAdjust="spacing" textLength="41" x="269" y="472.3496">parkID</text></g><!--class WaterStatisticsComparison--><g id="elem_WaterStatisticsComparison"><rect codeLine="39" fill="#F1F1F1" height="148.3477" id="WaterStatisticsComparison" rx="2.5" ry="2.5" style="stroke:#181818;stroke-width:0.5;" width="176" x="563.5" y="369"/><text fill="#000000" font-family="sans-serif" font-size="14" lengthAdjust="spacing" textLength="170" x="566.5" y="389.1074">WaterStatisticsComparison</text><line style="stroke:#181818;stroke-width:0.5;" x1="564.5" x2="738.5" y1="397.6211" y2="397.6211"/><text fill="#000000" font-family="sans-serif" font-size="14" lengthAdjust="spacing" textLength="49" x="569.5" y="416.7285">parkID1</text><text fill="#000000" font-family="sans-serif" font-size="14" lengthAdjust="spacing" textLength="49" x="569.5" y="435.3496">parkID2</text><text fill="#000000" font-family="sans-serif" font-size="14" lengthAdjust="spacing" textLength="35" x="569.5" y="453.9707">mean</text><text fill="#000000" font-family="sans-serif" font-size="14" lengthAdjust="spacing" textLength="46" x="569.5" y="472.5918">median</text><text fill="#000000" font-family="sans-serif" font-size="14" lengthAdjust="spacing" textLength="115" x="569.5" y="491.2129">standardDeviation</text><text fill="#000000" font-family="sans-serif" font-size="14" lengthAdjust="spacing" textLength="142" x="569.5" y="509.834">coefficientOfSkewness</text></g><!--class FrequencyTable--><g id="elem_FrequencyTable"><rect codeLine="48" fill="#F1F1F1" height="73.8633" id="FrequencyTable" rx="2.5" ry="2.5" style="stroke:#181818;stroke-width:0.5;" width="126" x="361.5" y="596"/><text fill="#000000" font-family="sans-serif" font-size="14" lengthAdjust="spacing" textLength="104" x="372.5" y="616.1074">FrequencyTable</text><line style="stroke:#181818;stroke-width:0.5;" x1="362.5" x2="486.5" y1="624.6211" y2="624.6211"/><text fill="#000000" font-family="sans-serif" font-size="14" lengthAdjust="spacing" textLength="104" x="367.5" y="643.7285">classBoundaries</text><text fill="#000000" font-family="sans-serif" font-size="14" lengthAdjust="spacing" textLength="114" x="367.5" y="662.3496">relativeFrequency</text></g><!--class AbsoluteTable--><g id="elem_AbsoluteTable"><rect codeLine="53" fill="#F1F1F1" height="73.8633" id="AbsoluteTable" rx="2.5" ry="2.5" style="stroke:#181818;stroke-width:0.5;" width="134" x="522.5" y="596"/><text fill="#000000" font-family="sans-serif" font-size="14" lengthAdjust="spacing" textLength="91" x="544" y="616.1074">AbsoluteTable</text><line style="stroke:#181818;stroke-width:0.5;" x1="523.5" x2="655.5" y1="624.6211" y2="624.6211"/><text fill="#000000" font-family="sans-serif" font-size="14" lengthAdjust="spacing" textLength="104" x="528.5" y="643.7285">classBoundaries</text><text fill="#000000" font-family="sans-serif" font-size="14" lengthAdjust="spacing" textLength="122" x="528.5" y="662.3496">absoluteFrequency</text></g><!--class Outlier--><g id="elem_Outlier"><rect codeLine="58" fill="#F1F1F1" height="55.2422" id="Outlier" rx="2.5" ry="2.5" style="stroke:#181818;stroke-width:0.5;" width="48" x="691.5" y="605.5"/><text fill="#000000" font-family="sans-serif" font-size="14" lengthAdjust="spacing" textLength="42" x="694.5" y="625.6074">Outlier</text><line style="stroke:#181818;stroke-width:0.5;" x1="692.5" x2="738.5" y1="634.1211" y2="634.1211"/><text fill="#000000" font-family="sans-serif" font-size="14" lengthAdjust="spacing" textLength="34" x="697.5" y="653.2285">value</text></g><!--class Histogram--><g id="elem_Histogram"><rect codeLine="62" fill="#F1F1F1" height="55.2422" id="Histogram" rx="2.5" ry="2.5" style="stroke:#181818;stroke-width:0.5;" width="69" x="777" y="605.5"/><text fill="#000000" font-family="sans-serif" font-size="14" lengthAdjust="spacing" textLength="63" x="780" y="625.6074">Histogram</text><line style="stroke:#181818;stroke-width:0.5;" x1="778" x2="845" y1="634.1211" y2="634.1211"/><text fill="#000000" font-family="sans-serif" font-size="14" lengthAdjust="spacing" textLength="28" x="783" y="653.2285">data</text></g><!--link Organization to WaterUsageData--><g id="link_Organization_WaterUsageData"><path codeLine="66" d="M395.5,81.22 C395.5,103.8 395.5,127.49 395.5,153.94 " fill="none" id="Organization-to-WaterUsageData" style="stroke:#181818;stroke-width:1.0;"/><polygon fill="#181818" points="395.5,159.94,399.5,150.94,395.5,154.94,391.5,150.94,395.5,159.94" style="stroke:#181818;stroke-width:1.0;"/><polygon fill="#000000" points="400.5,125.6455,403.4389,116.6004,397.5611,116.6004,400.5,125.6455" style="stroke:#000000;stroke-width:1.0;"/><text fill="#000000" font-family="sans-serif" font-size="13" lengthAdjust="spacing" textLength="30" x="409.5" y="126.0283">owns</text><text fill="#000000" font-family="sans-serif" font-size="13" lengthAdjust="spacing" textLength="7" x="387.9203" y="102.8561">1</text><text fill="#000000" font-family="sans-serif" font-size="13" lengthAdjust="spacing" textLength="5" x="390.2266" y="148.9536">*</text></g><!--link GSM to WaterUsageData--><g id="link_GSM_WaterUsageData"><path codeLine="67" d="M261.26,225 C280.41,225 305.1,225 332.31,225 " fill="none" id="GSM-to-WaterUsageData" style="stroke:#181818;stroke-width:1.0;"/><polygon fill="#181818" points="338.31,225,329.31,221,333.31,225,329.31,229,338.31,225" style="stroke:#181818;stroke-width:1.0;"/><polygon fill="#000000" points="288.25,212.6455,279.2049,209.7066,279.2049,215.5844,288.25,212.6455" style="stroke:#000000;stroke-width:1.0;"/><text fill="#000000" font-family="sans-serif" font-size="13" lengthAdjust="spacing" textLength="28" x="292.25" y="218.0283">uses</text><text fill="#000000" font-family="sans-serif" font-size="13" lengthAdjust="spacing" textLength="7" x="268.9119" y="219.2216">1</text><text fill="#000000" font-family="sans-serif" font-size="13" lengthAdjust="spacing" textLength="5" x="325.6622" y="220.9754">*</text></g><!--link WaterUsageData to BarplotMonthlyWaterConsumption--><g id="link_WaterUsageData_BarplotMonthlyWaterConsumption"><path codeLine="68" d="M338.24,270.49 C286.74,310.51 216.7576,364.8783 168.8376,402.1183 " fill="none" id="WaterUsageData-to-BarplotMonthlyWaterConsumption" style="stroke:#181818;stroke-width:1.0;"/><polygon fill="#181818" points="164.1,405.8,173.6609,403.4358,168.048,402.7319,168.7519,397.119,164.1,405.8" style="stroke:#181818;stroke-width:1.0;"/><polygon fill="#000000" points="274.5518,332.7133,283.4974,329.4843,279.891,324.8429,274.5518,332.7133" style="stroke:#000000;stroke-width:1.0;"/><text fill="#000000" font-family="sans-serif" font-size="13" lengthAdjust="spacing" textLength="57" x="287.5" y="335.0283">generates</text><text fill="#000000" font-family="sans-serif" font-size="13" lengthAdjust="spacing" textLength="7" x="323.4551" y="272.2938">1</text><text fill="#000000" font-family="sans-serif" font-size="13" lengthAdjust="spacing" textLength="5" x="166.9553" y="394.7261">*</text></g><!--link WaterUsageData to AverageMonthlyCostsWaterConsumption--><g id="link_WaterUsageData_AverageMonthlyCostsWaterConsumption"><path codeLine="69" d="M395.5,290.22 C395.5,328.03 395.5,368.45 395.5,399.92 " fill="none" id="WaterUsageData-to-AverageMonthlyCostsWaterConsumption" style="stroke:#181818;stroke-width:1.0;"/><polygon fill="#181818" points="395.5,405.92,399.5,396.92,395.5,400.92,391.5,396.92,395.5,405.92" style="stroke:#181818;stroke-width:1.0;"/><polygon fill="#000000" points="400.5,334.6455,403.4389,325.6004,397.5611,325.6004,400.5,334.6455" style="stroke:#000000;stroke-width:1.0;"/><text fill="#000000" font-family="sans-serif" font-size="13" lengthAdjust="spacing" textLength="59" x="409.5" y="335.0283">calculates</text><text fill="#000000" font-family="sans-serif" font-size="13" lengthAdjust="spacing" textLength="7" x="388.1391" y="311.8798">1</text><text fill="#000000" font-family="sans-serif" font-size="13" lengthAdjust="spacing" textLength="5" x="390.0547" y="394.8675">*</text></g><!--link WaterUsageData to WaterStatisticsComparison--><g id="link_WaterUsageData_WaterStatisticsComparison"><path codeLine="70" d="M452.63,274.21 C485.64,302.06 523.2439,333.7912 560.2639,365.0212 " fill="none" id="WaterUsageData-to-WaterStatisticsComparison" style="stroke:#181818;stroke-width:1.0;"/><polygon fill="#181818" points="564.85,368.89,560.5501,360.0294,561.0283,365.666,555.3916,366.1442,564.85,368.89" style="stroke:#181818;stroke-width:1.0;"/><polygon fill="#000000" points="532.3215,332.8698,527.3035,324.7908,523.5131,329.2833,532.3215,332.8698" style="stroke:#000000;stroke-width:1.0;"/><text fill="#000000" font-family="sans-serif" font-size="13" lengthAdjust="spacing" textLength="81" x="537.5" y="335.0283">analyses data</text><text fill="#000000" font-family="sans-serif" font-size="13" lengthAdjust="spacing" textLength="7" x="460.3982" y="276.4904">1</text><text fill="#000000" font-family="sans-serif" font-size="13" lengthAdjust="spacing" textLength="5" x="551.0743" y="357.7836">*</text></g><!--link WaterStatisticsComparison to FrequencyTable--><g id="link_WaterStatisticsComparison_FrequencyTable"><path codeLine="71" d="M563.39,507.95 C546.88,520.57 529.97,533.95 514.5,547 C496.27,562.38 481.2399,576.2461 465.1799,591.7261 " fill="none" id="WaterStatisticsComparison-to-FrequencyTable" style="stroke:#181818;stroke-width:1.0;"/><polygon fill="#181818" points="460.86,595.89,470.1158,592.5241,464.4599,592.4201,464.5639,586.7642,460.86,595.89" style="stroke:#181818;stroke-width:1.0;"/><polygon fill="#000000" points="515.696,559.8904,524.4848,556.2562,520.6702,551.7844,515.696,559.8904" style="stroke:#000000;stroke-width:1.0;"/><text fill="#000000" font-family="sans-serif" font-size="13" lengthAdjust="spacing" textLength="57" x="528.5" y="562.0283">generates</text><text fill="#000000" font-family="sans-serif" font-size="13" lengthAdjust="spacing" textLength="7" x="548.5173" y="509.8271">1</text><text fill="#000000" font-family="sans-serif" font-size="13" lengthAdjust="spacing" textLength="5" x="461.8913" y="584.8321">*</text></g><!--link WaterStatisticsComparison to AbsoluteTable--><g id="link_WaterStatisticsComparison_AbsoluteTable"><path codeLine="72" d="M609.75,517.17 C605.38,526.98 601.47,537.08 598.5,547 C593.83,562.64 591.9511,574.5462 590.8211,589.8762 " fill="none" id="WaterStatisticsComparison-to-AbsoluteTable" style="stroke:#181818;stroke-width:1.0;"/><polygon fill="#181818" points="590.38,595.86,595.0308,587.1784,590.7476,590.8735,587.0524,586.5903,590.38,595.86" style="stroke:#181818;stroke-width:1.0;"/><polygon fill="#000000" points="602.2403,561.4842,607.3633,553.4714,601.675,551.9905,602.2403,561.4842" style="stroke:#000000;stroke-width:1.0;"/><text fill="#000000" font-family="sans-serif" font-size="13" lengthAdjust="spacing" textLength="57" x="612.5" y="562.0283">generates</text><text fill="#000000" font-family="sans-serif" font-size="13" lengthAdjust="spacing" textLength="7" x="598.2957" y="539.3334">1</text><text fill="#000000" font-family="sans-serif" font-size="13" lengthAdjust="spacing" textLength="5" x="585.0914" y="584.7968">*</text></g><!--link WaterStatisticsComparison to Outlier--><g id="link_WaterStatisticsComparison_Outlier"><path codeLine="73" d="M676.43,517.22 C686.96,548.15 696.6255,576.5604 704.4355,599.4904 " fill="none" id="WaterStatisticsComparison-to-Outlier" style="stroke:#181818;stroke-width:1.0;"/><polygon fill="#181818" points="706.37,605.17,707.2547,595.361,704.7579,600.437,699.6819,597.9403,706.37,605.17" style="stroke:#181818;stroke-width:1.0;"/><polygon fill="#000000" points="700.1112,561.3788,699.9786,551.8691,694.4143,553.7633,700.1112,561.3788" style="stroke:#000000;stroke-width:1.0;"/><text fill="#000000" font-family="sans-serif" font-size="13" lengthAdjust="spacing" textLength="43" x="707.5" y="562.0283">detects</text><text fill="#000000" font-family="sans-serif" font-size="13" lengthAdjust="spacing" textLength="7" x="671.5395" y="539.3883">1</text><text fill="#000000" font-family="sans-serif" font-size="13" lengthAdjust="spacing" textLength="5" x="698.8259" y="594.2565">*</text></g><!--link WaterStatisticsComparison to Histogram--><g id="link_WaterStatisticsComparison_Histogram"><path codeLine="74" d="M732.94,517.16 C742.29,526.85 751.36,536.92 759.5,547 C774.17,565.17 784.9169,582.5746 794.5469,599.9146 " fill="none" id="WaterStatisticsComparison-to-Histogram" style="stroke:#181818;stroke-width:1.0;"/><polygon fill="#181818" points="797.46,605.16,796.5873,595.3499,795.0324,600.7889,789.5935,599.234,797.46,605.16" style="stroke:#181818;stroke-width:1.0;"/><text fill="#000000" font-family="sans-serif" font-size="13" lengthAdjust="spacing" textLength="57" x="773.5" y="562.0283">generates</text><text fill="#000000" font-family="sans-serif" font-size="13" lengthAdjust="spacing" textLength="7" x="733.6122" y="539.3224">1</text><text fill="#000000" font-family="sans-serif" font-size="13" lengthAdjust="spacing" textLength="5" x="788.8419" y="594.2443">*</text></g><!--SRC=[dPHDYzim48Rl-XKYbq9XeTkZ3mkxIJ_siAJWbfudqjWMaQLKCqxmBltlbMN7SKA2b_hYaVNEevdHYsbht0u2rBBspgig-1ebXmO5ZJixK5ieCUVMeWoe65nffmAgGFk3SQKim18AyS5YmPAz3AQiM6hJPHdln2H9MI1wP0vcqp0-A-zoyuhoan2LqIYL2IeUak8QkVAQX4WvSXrASEOLEg9y4p8-3cfC0MWTa4ZyFOg_vIzHSrh_1iRmYs8_As0OqcD5s-TL2bk4a88u3wvIfA5DxrWYDVKkDJBodY3ihEUNJctRH5-UT0C_PmYz92s_EDqlHihZ7aCiQQ0iFJ7TGBcctc1O5pzYoJGj_hp3U28ROgDewUkeC3GIUltz9FxSDupWXa2R8QHurng2Nk7Uf7aFWy2YCCgWutMHR_7WpaR-DU2V1frgVy8cEgO_DMqz-QR36Umh3sWZT8zZmcGW6_8s-c8E0OFk2cBTi3KOXkGzs6ZgSVDx78ulEn- -3NVCqEsUUMjnlv1tTmzoyN5nwPjC-eCZ-I0wVoNT3Lb3sCakla_9CmxAP8akkeFdEE_nK2OLMDNOUTfj5sKI7DYswwkRsX5pLJibNjZYIb-pY7DN_0_XQ8fCQkJuKtf_vianatF5Fm00]--></g></svg>