<?xml version="1.0" encoding="us-ascii" standalone="no"?><svg xmlns="http://www.w3.org/2000/svg" xmlns:xlink="http://www.w3.org/1999/xlink" contentStyleType="text/css" height="700px" preserveAspectRatio="none" style="width:405px;height:700px;background:#FFFFFF;" version="1.1" viewBox="0 0 405 700" width="405px" zoomAndPan="magnify"><defs/><g><!--class GSM--><g id="elem_GSM"><rect codeLine="12" fill="#F1F1F1" height="36.6211" id="GSM" rx="2.5" ry="2.5" style="stroke:#181818;stroke-width:0.5;" width="37" x="94.5" y="7"/><text fill="#000000" font-family="sans-serif" font-size="14" lengthAdjust="spacing" textLength="31" x="97.5" y="27.1074">GSM</text><line style="stroke:#181818;stroke-width:0.5;" x1="95.5" x2="130.5" y1="35.6211" y2="35.6211"/></g><!--class GreenSpace--><g id="elem_GreenSpace"><rect codeLine="16" fill="#F1F1F1" height="73.8633" id="GreenSpace" rx="2.5" ry="2.5" style="stroke:#181818;stroke-width:0.5;" width="86" x="7" y="123"/><text fill="#000000" font-family="sans-serif" font-size="14" lengthAdjust="spacing" textLength="80" x="10" y="143.1074">GreenSpace</text><line style="stroke:#181818;stroke-width:0.5;" x1="8" x2="92" y1="151.6211" y2="151.6211"/><text fill="#000000" font-family="sans-serif" font-size="14" lengthAdjust="spacing" textLength="35" x="13" y="170.7285">name</text><text fill="#000000" font-family="sans-serif" font-size="14" lengthAdjust="spacing" textLength="29" x="13" y="189.3496">area</text></g><!--class Entry--><g id="elem_Entry"><rect codeLine="21" fill="#F1F1F1" height="73.8633" id="Entry" rx="2.5" ry="2.5" style="stroke:#181818;stroke-width:0.5;" width="89" x="174.5" y="276"/><text fill="#000000" font-family="sans-serif" font-size="14" lengthAdjust="spacing" textLength="33" x="202.5" y="296.1074">Entry</text><line style="stroke:#181818;stroke-width:0.5;" x1="175.5" x2="262.5" y1="304.6211" y2="304.6211"/><text fill="#000000" font-family="sans-serif" font-size="14" lengthAdjust="spacing" textLength="26" x="180.5" y="323.7285">task</text><text fill="#000000" font-family="sans-serif" font-size="14" lengthAdjust="spacing" textLength="77" x="180.5" y="342.3496">greenSpace</text></g><!--class Task--><g id="elem_Task"><rect codeLine="26" fill="#F1F1F1" height="129.7266" id="Task" rx="2.5" ry="2.5" style="stroke:#181818;stroke-width:0.5;" width="81" x="178.5" y="429"/><text fill="#000000" font-family="sans-serif" font-size="14" lengthAdjust="spacing" textLength="31" x="203.5" y="449.1074">Task</text><line style="stroke:#181818;stroke-width:0.5;" x1="179.5" x2="258.5" y1="457.6211" y2="457.6211"/><text fill="#000000" font-family="sans-serif" font-size="14" lengthAdjust="spacing" textLength="69" x="184.5" y="476.7285">description</text><text fill="#000000" font-family="sans-serif" font-size="14" lengthAdjust="spacing" textLength="59" x="184.5" y="495.3496">regularity</text><text fill="#000000" font-family="sans-serif" font-size="14" lengthAdjust="spacing" textLength="31" x="184.5" y="513.9707">team</text><text fill="#000000" font-family="sans-serif" font-size="14" lengthAdjust="spacing" textLength="30" x="184.5" y="532.5918">skills</text><text fill="#000000" font-family="sans-serif" font-size="14" lengthAdjust="spacing" textLength="52" x="184.5" y="551.2129">duration</text></g><!--class ToDoList--><g id="elem_ToDoList"><rect codeLine="34" fill="#F1F1F1" height="55.2422" id="ToDoList" rx="2.5" ry="2.5" style="stroke:#181818;stroke-width:0.5;" width="63" x="241.5" y="132.5"/><text fill="#000000" font-family="sans-serif" font-size="14" lengthAdjust="spacing" textLength="57" x="244.5" y="152.6074">ToDoList</text><line style="stroke:#181818;stroke-width:0.5;" x1="242.5" x2="303.5" y1="161.1211" y2="161.1211"/><text fill="#000000" font-family="sans-serif" font-size="14" lengthAdjust="spacing" textLength="43" x="247.5" y="180.2285">entries</text></g><!--class Agenda--><g id="elem_Agenda"><rect codeLine="38" fill="#F1F1F1" height="55.2422" id="Agenda" rx="2.5" ry="2.5" style="stroke:#181818;stroke-width:0.5;" width="55" x="343.5" y="132.5"/><text fill="#000000" font-family="sans-serif" font-size="14" lengthAdjust="spacing" textLength="49" x="346.5" y="152.6074">Agenda</text><line style="stroke:#181818;stroke-width:0.5;" x1="344.5" x2="397.5" y1="161.1211" y2="161.1211"/><text fill="#000000" font-family="sans-serif" font-size="14" lengthAdjust="spacing" textLength="43" x="349.5" y="180.2285">entries</text></g><!--class Team--><g id="elem_Team"><rect codeLine="42" fill="#F1F1F1" height="55.2422" id="Team" rx="2.5" ry="2.5" style="stroke:#181818;stroke-width:0.5;" width="70" x="137" y="638"/><text fill="#000000" font-family="sans-serif" font-size="14" lengthAdjust="spacing" textLength="36" x="154" y="658.1074">Team</text><line style="stroke:#181818;stroke-width:0.5;" x1="138" x2="206" y1="666.6211" y2="666.6211"/><text fill="#000000" font-family="sans-serif" font-size="14" lengthAdjust="spacing" textLength="58" x="143" y="685.7285">members</text></g><!--class Skill--><g id="elem_Skill"><rect codeLine="46" fill="#F1F1F1" height="55.2422" id="Skill" rx="2.5" ry="2.5" style="stroke:#181818;stroke-width:0.5;" width="47" x="242.5" y="638"/><text fill="#000000" font-family="sans-serif" font-size="14" lengthAdjust="spacing" textLength="25" x="253.5" y="658.1074">Skill</text><line style="stroke:#181818;stroke-width:0.5;" x1="243.5" x2="288.5" y1="666.6211" y2="666.6211"/><text fill="#000000" font-family="sans-serif" font-size="14" lengthAdjust="spacing" textLength="35" x="248.5" y="685.7285">name</text></g><!--link GSM to GreenSpace--><g id="link_GSM_GreenSpace"><path codeLine="51" d="M96.55,44.37 C89.43,52.85 81.5,63.43 76,74 C68.1,89.2 62.16,107.2 57.97,122.71 " fill="none" id="GSM-GreenSpace" style="stroke:#181818;stroke-width:1.0;"/><polygon fill="#000000" points="78.791,88.1311,85.4237,81.315,80.1506,78.7182,78.791,88.1311" style="stroke:#000000;stroke-width:1.0;"/><text fill="#000000" font-family="sans-serif" font-size="13" lengthAdjust="spacing" textLength="53" x="90" y="89.0283">manages</text><text fill="#000000" font-family="sans-serif" font-size="13" lengthAdjust="spacing" textLength="7" x="84.4378" y="65.4977">1</text><text fill="#000000" font-family="sans-serif" font-size="13" lengthAdjust="spacing" textLength="20" x="37.6084" y="111.6201">0..*</text></g><!--link GreenSpace to Entry--><g id="link_GreenSpace_Entry"><path codeLine="52" d="M34.75,197.18 C30.43,213.39 29.2,231.97 39,246 C69.3,289.39 131.4,304.34 174.11,309.44 " fill="none" id="GreenSpace-Entry" style="stroke:#181818;stroke-width:1.0;"/><polygon fill="#000000" points="47.8938,239.7821,42.6935,231.8192,39.0062,236.3967,47.8938,239.7821" style="stroke:#000000;stroke-width:1.0;"/><text fill="#000000" font-family="sans-serif" font-size="13" lengthAdjust="spacing" textLength="90" x="53" y="242.0283">associated with</text><text fill="#000000" font-family="sans-serif" font-size="13" lengthAdjust="spacing" textLength="7" x="24.6445" y="218.8095">1</text><text fill="#000000" font-family="sans-serif" font-size="13" lengthAdjust="spacing" textLength="20" x="146.3911" y="304.8025">0..*</text></g><!--link Entry to Task--><g id="link_Entry_Task"><path codeLine="53" d="M219,350.22 C219,372.8 219,402.49 219,428.94 " fill="none" id="Entry-Task" style="stroke:#181818;stroke-width:1.0;"/><polygon fill="#000000" points="224,394.6455,226.9389,385.6004,221.0611,385.6004,224,394.6455" style="stroke:#000000;stroke-width:1.0;"/><text fill="#000000" font-family="sans-serif" font-size="13" lengthAdjust="spacing" textLength="21" x="233" y="395.0283">has</text><text fill="#000000" font-family="sans-serif" font-size="13" lengthAdjust="spacing" textLength="7" x="211.4203" y="371.8561">1</text><text fill="#000000" font-family="sans-serif" font-size="13" lengthAdjust="spacing" textLength="7" x="211.6172" y="417.9536">1</text></g><!--link Task to Team--><g id="link_Task_Team"><path codeLine="54" d="M195.92,559.13 C192.7,569.06 189.61,579.26 187,589 C182.71,605.01 179.05,623.22 176.43,637.75 " fill="none" id="Task-Team" style="stroke:#181818;stroke-width:1.0;"/><polygon fill="#000000" points="190.7969,603.4986,195.8259,595.4264,190.1207,594.0121,190.7969,603.4986" style="stroke:#000000;stroke-width:1.0;"/><text fill="#000000" font-family="sans-serif" font-size="13" lengthAdjust="spacing" textLength="21" x="201" y="604.0283">has</text><text fill="#000000" font-family="sans-serif" font-size="13" lengthAdjust="spacing" textLength="7" x="186.1789" y="580.7805">1</text><text fill="#000000" font-family="sans-serif" font-size="13" lengthAdjust="spacing" textLength="7" x="169.6334" y="626.854">1</text></g><!--link Task to Skill--><g id="link_Task_Skill"><path codeLine="55" d="M236.77,559.08 C244.36,586.46 252.8,616.89 258.65,638 " fill="none" id="Task-Skill" style="stroke:#181818;stroke-width:1.0;"/><polygon fill="#000000" points="255.3358,603.4638,255.7514,593.9623,250.0872,595.5326,255.3358,603.4638" style="stroke:#000000;stroke-width:1.0;"/><text fill="#000000" font-family="sans-serif" font-size="13" lengthAdjust="spacing" textLength="21" x="263" y="604.0283">has</text><text fill="#000000" font-family="sans-serif" font-size="13" lengthAdjust="spacing" textLength="7" x="231.2416" y="580.7254">1</text><text fill="#000000" font-family="sans-serif" font-size="13" lengthAdjust="spacing" textLength="20" x="234.6378" y="626.709">1..*</text></g><!--link ToDoList to Entry--><g id="link_ToDoList_Entry"><path codeLine="56" d="M263.47,187.65 C254.69,212.2 241.59,248.83 231.88,275.99 " fill="none" id="ToDoList-Entry" style="stroke:#181818;stroke-width:1.0;"/><polygon fill="#000000" points="252.3164,241.3535,258.1294,233.8262,252.5947,231.847,252.3164,241.3535" style="stroke:#000000;stroke-width:1.0;"/><text fill="#000000" font-family="sans-serif" font-size="13" lengthAdjust="spacing" textLength="48" x="263" y="242.0283">includes</text><text fill="#000000" font-family="sans-serif" font-size="13" lengthAdjust="spacing" textLength="7" x="253.6197" y="209.5915">1</text><text fill="#000000" font-family="sans-serif" font-size="13" lengthAdjust="spacing" textLength="20" x="212.411" y="264.6668">0..*</text></g><!--link Agenda to Entry--><g id="link_Agenda_Entry"><path codeLine="57" d="M358.98,187.62 C350,205.52 336.47,228.89 320,246 C303.81,262.83 282.56,277.52 263.73,288.74 " fill="none" id="Agenda-Entry" style="stroke:#181818;stroke-width:1.0;"/><polygon fill="#000000" points="336.5717,240.2851,344.9129,235.7161,340.6343,231.6859,336.5717,240.2851" style="stroke:#000000;stroke-width:1.0;"/><text fill="#000000" font-family="sans-serif" font-size="13" lengthAdjust="spacing" textLength="48" x="349" y="242.0283">includes</text><text fill="#000000" font-family="sans-serif" font-size="13" lengthAdjust="spacing" textLength="7" x="348.585" y="209.5549">1</text><text fill="#000000" font-family="sans-serif" font-size="13" lengthAdjust="spacing" textLength="20" x="271.4264" y="281.1915">0..*</text></g><!--link GSM to Entry--><g id="link_GSM_Entry"><path codeLine="58" d="M128.2,44.04 C135.02,52.62 142.7,63.37 148,74 C157.11,92.28 191.64,213.91 208.96,275.87 " fill="none" id="GSM-Entry" style="stroke:#181818;stroke-width:1.0;"/><polygon fill="#000000" points="191.6448,164.8672,191.4446,155.3588,185.8939,157.2924,191.6448,164.8672" style="stroke:#000000;stroke-width:1.0;"/><text fill="#000000" font-family="sans-serif" font-size="13" lengthAdjust="spacing" textLength="21" x="199" y="165.5283">add</text><text fill="#000000" font-family="sans-serif" font-size="13" lengthAdjust="spacing" textLength="7" x="124.4906" y="65.7675">1</text><text fill="#000000" font-family="sans-serif" font-size="13" lengthAdjust="spacing" textLength="20" x="185.3904" y="264.8086">0..*</text></g><!--SRC=[XP7FQiCm3CRlVWgHos3Gqbrx61Gsnc0xfI-WsceYwZ_5LYZTsBlFST8qeuMTOlltIVhq9HtO7p6Y0nTyq6qCZa1YHofDv8ZwW0tLShO4aRIWR-nSa5equSI-WJtQH4ezMDeBI838JIjWkA_YuDMiI5jCQICIUTS9lUlWQ_uYMAcM3O7cg2sbuU98sc2IKgeKmLlz2TzA_KptIEJhR9FoCu17H_c3aV2gUVKIpmK32AP3EJHJuLMupN3K6Kewyh4ux- -HcivYP3aFRGXTEUIbh4r3IHUnwA_zmaluu2Ib9sKNdDUQwAOXRt2STqEtUSB87BaTnHch-w4ZB1jdelfaggSA5WkeLilbOpNFPWqEVVwH2PxLxFclViXf3Nb4q8n21auiRIuPo4MTFtrIQsYnxrTIcxFi_3uhKmRpa-0IqNqhxBNjJB4znlMlxZQ7QIzZCbU_]--></g></svg>