<?xml version="1.0" encoding="us-ascii" standalone="no"?><svg xmlns="http://www.w3.org/2000/svg" xmlns:xlink="http://www.w3.org/1999/xlink" contentStyleType="text/css" height="356px" preserveAspectRatio="none" style="width:293px;height:356px;background:#FFFFFF;" version="1.1" viewBox="0 0 293 356" width="293px" zoomAndPan="magnify"><defs/><g><!--class GSM--><g id="elem_GSM"><rect codeLine="12" fill="#F1F1F1" height="36.6211" id="GSM" rx="2.5" ry="2.5" style="stroke:#181818;stroke-width:0.5;" width="37" x="70.5" y="16"/><text fill="#000000" font-family="sans-serif" font-size="14" lengthAdjust="spacing" textLength="31" x="73.5" y="36.1074">GSM</text><line style="stroke:#181818;stroke-width:0.5;" x1="71.5" x2="106.5" y1="44.6211" y2="44.6211"/></g><!--class GreenSpace--><g id="elem_GreenSpace"><rect codeLine="16" fill="#F1F1F1" height="73.8633" id="GreenSpace" rx="2.5" ry="2.5" style="stroke:#181818;stroke-width:0.5;" width="86" x="7" y="141"/><text fill="#000000" font-family="sans-serif" font-size="14" lengthAdjust="spacing" textLength="80" x="10" y="161.1074">GreenSpace</text><line style="stroke:#181818;stroke-width:0.5;" x1="8" x2="92" y1="169.6211" y2="169.6211"/><text fill="#000000" font-family="sans-serif" font-size="14" lengthAdjust="spacing" textLength="35" x="13" y="188.7285">name</text><text fill="#000000" font-family="sans-serif" font-size="14" lengthAdjust="spacing" textLength="29" x="13" y="207.3496">area</text></g><!--class Entry--><g id="elem_Entry"><rect codeLine="21" fill="#F1F1F1" height="73.8633" id="Entry" rx="2.5" ry="2.5" style="stroke:#181818;stroke-width:0.5;" width="89" x="158.5" y="276"/><text fill="#000000" font-family="sans-serif" font-size="14" lengthAdjust="spacing" textLength="33" x="186.5" y="296.1074">Entry</text><line style="stroke:#181818;stroke-width:0.5;" x1="159.5" x2="246.5" y1="304.6211" y2="304.6211"/><text fill="#000000" font-family="sans-serif" font-size="14" lengthAdjust="spacing" textLength="26" x="164.5" y="323.7285">task</text><text fill="#000000" font-family="sans-serif" font-size="14" lengthAdjust="spacing" textLength="77" x="164.5" y="342.3496">greenSpace</text></g><!--class AgendaEntry--><g id="elem_AgendaEntry"><rect codeLine="26" fill="#F1F1F1" height="73.8633" id="AgendaEntry" rx="2.5" ry="2.5" style="stroke:#181818;stroke-width:0.5;" width="88" x="159" y="141"/><text fill="#000000" font-family="sans-serif" font-size="14" lengthAdjust="spacing" textLength="82" x="162" y="161.1074">AgendaEntry</text><line style="stroke:#181818;stroke-width:0.5;" x1="160" x2="246" y1="169.6211" y2="169.6211"/><text fill="#000000" font-family="sans-serif" font-size="14" lengthAdjust="spacing" textLength="28" x="165" y="188.7285">date</text><text fill="#000000" font-family="sans-serif" font-size="14" lengthAdjust="spacing" textLength="38" x="165" y="207.3496">status</text></g><!--class Agenda--><g id="elem_Agenda"><rect codeLine="31" fill="#F1F1F1" height="55.2422" id="Agenda" rx="2.5" ry="2.5" style="stroke:#181818;stroke-width:0.5;" width="105" x="181.5" y="7"/><text fill="#000000" font-family="sans-serif" font-size="14" lengthAdjust="spacing" textLength="49" x="209.5" y="27.1074">Agenda</text><line style="stroke:#181818;stroke-width:0.5;" x1="182.5" x2="285.5" y1="35.6211" y2="35.6211"/><text fill="#000000" font-family="sans-serif" font-size="14" lengthAdjust="spacing" textLength="93" x="187.5" y="54.7285">AgendaEntries</text></g><!--link GSM to GreenSpace--><g id="link_GSM_GreenSpace"><path codeLine="36" d="M71.25,53.1 C62.09,63.46 51.84,77.38 47,92 C41.9,107.42 41.73,125.28 43.21,140.64 " fill="none" id="GSM-GreenSpace" style="stroke:#181818;stroke-width:1.0;"/><polygon fill="#000000" points="50.4748,106.4072,56.0328,98.6897,50.4351,96.8967,50.4748,106.4072" style="stroke:#000000;stroke-width:1.0;"/><text fill="#000000" font-family="sans-serif" font-size="13" lengthAdjust="spacing" textLength="53" x="61" y="107.0283">manages</text><text fill="#000000" font-family="sans-serif" font-size="13" lengthAdjust="spacing" textLength="7" x="58.5391" y="74.5015">1</text><text fill="#000000" font-family="sans-serif" font-size="13" lengthAdjust="spacing" textLength="20" x="20.3242" y="129.8229">0..*</text></g><!--link Agenda to AgendaEntry--><g id="link_Agenda_AgendaEntry"><path codeLine="37" d="M228.17,62.12 C223.29,84.37 216.29,116.33 210.91,140.89 " fill="none" id="Agenda-AgendaEntry" style="stroke:#181818;stroke-width:1.0;"/><polygon fill="#000000" points="225.9298,106.5296,230.7366,98.3232,224.995,97.0651,225.9298,106.5296" style="stroke:#000000;stroke-width:1.0;"/><text fill="#000000" font-family="sans-serif" font-size="13" lengthAdjust="spacing" textLength="48" x="236" y="107.0283">includes</text><text fill="#000000" font-family="sans-serif" font-size="13" lengthAdjust="spacing" textLength="7" x="219.1291" y="84.0549">1</text><text fill="#000000" font-family="sans-serif" font-size="13" lengthAdjust="spacing" textLength="20" x="190.5377" y="129.8321">0..*</text></g><!--link AgendaEntry to Entry--><g id="link_AgendaEntry_Entry"><path codeLine="38" d="M203,215.34 C203,234.11 203,238.94 203,257.7 " fill="none" id="AgendaEntry-to-Entry" style="stroke:#181818;stroke-width:1.0;"/><polygon fill="none" points="203,275.7,209,257.7,197,257.7,203,275.7" style="stroke:#181818;stroke-width:1.0;"/></g><!--link GSM to AgendaEntry--><g id="link_GSM_AgendaEntry"><path codeLine="39" d="M103.21,53.13 C120.82,74.99 151.26,112.78 173.91,140.89 " fill="none" id="GSM-AgendaEntry" style="stroke:#181818;stroke-width:1.0;"/><polygon fill="#000000" points="158.1368,105.5392,154.7509,96.6517,150.1737,100.3392,158.1368,105.5392" style="stroke:#000000;stroke-width:1.0;"/><text fill="#000000" font-family="sans-serif" font-size="13" lengthAdjust="spacing" textLength="21" x="164" y="107.0283">add</text><text fill="#000000" font-family="sans-serif" font-size="13" lengthAdjust="spacing" textLength="7" x="99.0883" y="74.5395">1</text><text fill="#000000" font-family="sans-serif" font-size="13" lengthAdjust="spacing" textLength="20" x="146.9471" y="129.8321">0..*</text></g><!--SRC=[RP0zRiCm38LtdeBmKg20WtJD4213KNJev1Em4YCBaQX0eb6aFtUlOmUsKdGIgVSzyadbvELCcIB69CdqEKL6pGD3MPGpcHCvxlGI63CR9N6X1afFDdruSNYaK1ZW8V1HKHDcxtf5wwykdmGgambKoa4r-_T1-TKawVmdunPwRncDpoPmcPl8sYTR060ouKltXby0FqkVcQKRO_9uZIWKUJmeCwtCisY-J3AYKZbDXLkCAtXmB9Pgt9BoL1Gb7SfVz4QjFiyJ0zUOpLE3ROlDThDvREgWEumauwyMtCDjpZrRvzYX5nC6Mz6pqBRV-_bf_soxdq3MZcRu1G00]--></g></svg>