<?xml version="1.0" encoding="us-ascii" standalone="no"?><svg xmlns="http://www.w3.org/2000/svg" xmlns:xlink="http://www.w3.org/1999/xlink" contentStyleType="text/css" height="561px" preserveAspectRatio="none" style="width:874px;height:561px;background:#FFFFFF;" version="1.1" viewBox="0 0 874 561" width="874px" zoomAndPan="magnify"><defs/><g><!--class HRM--><g id="elem_HRM"><rect codeLine="11" fill="#F1F1F1" height="36.6211" id="HRM" rx="2.5" ry="2.5" style="stroke:#181818;stroke-width:0.5;" width="36" x="289.34" y="25.5"/><text fill="#000000" font-family="sans-serif" font-size="14" lengthAdjust="spacing" textLength="30" x="292.34" y="45.6074">HRM</text><line style="stroke:#181818;stroke-width:0.5;" x1="290.34" x2="324.34" y1="54.1211" y2="54.1211"/></g><!--class Skill--><g id="elem_Skill"><rect codeLine="15" fill="#F1F1F1" height="55.2422" id="Skill" rx="2.5" ry="2.5" style="stroke:#181818;stroke-width:0.5;" width="47" x="122.84" y="480.5"/><text fill="#000000" font-family="sans-serif" font-size="14" lengthAdjust="spacing" textLength="25" x="133.84" y="500.6074">Skill</text><line style="stroke:#181818;stroke-width:0.5;" x1="123.84" x2="168.84" y1="509.1211" y2="509.1211"/><text fill="#000000" font-family="sans-serif" font-size="14" lengthAdjust="spacing" textLength="35" x="128.84" y="528.2285">name</text></g><!--class Job--><g id="elem_Job"><rect codeLine="18" fill="#F1F1F1" height="55.2422" id="Job" rx="2.5" ry="2.5" style="stroke:#181818;stroke-width:0.5;" width="47" x="386.84" y="480.5"/><text fill="#000000" font-family="sans-serif" font-size="14" lengthAdjust="spacing" textLength="22" x="399.34" y="500.6074">Job</text><line style="stroke:#181818;stroke-width:0.5;" x1="387.84" x2="432.84" y1="509.1211" y2="509.1211"/><text fill="#000000" font-family="sans-serif" font-size="14" lengthAdjust="spacing" textLength="35" x="392.84" y="528.2285">name</text></g><!--class Team--><g id="elem_Team"><rect codeLine="23" fill="#F1F1F1" height="73.8633" id="Team" rx="2.5" ry="2.5" style="stroke:#181818;stroke-width:0.5;" width="70" x="443.34" y="7"/><text fill="#000000" font-family="sans-serif" font-size="14" lengthAdjust="spacing" textLength="36" x="460.34" y="27.1074">Team</text><line style="stroke:#181818;stroke-width:0.5;" x1="444.34" x2="512.34" y1="35.6211" y2="35.6211"/><text fill="#000000" font-family="sans-serif" font-size="14" lengthAdjust="spacing" textLength="24" x="449.34" y="54.7285">size</text><text fill="#000000" font-family="sans-serif" font-size="14" lengthAdjust="spacing" textLength="58" x="449.34" y="73.3496">members</text></g><!--class Collaborator--><g id="elem_Collaborator"><rect codeLine="29" fill="#F1F1F1" height="166.9688" id="Collaborator" rx="2.5" ry="2.5" style="stroke:#181818;stroke-width:0.5;" width="136" x="239.34" y="188"/><text fill="#000000" font-family="sans-serif" font-size="14" lengthAdjust="spacing" textLength="78" x="268.34" y="208.1074">Collaborator</text><line style="stroke:#181818;stroke-width:0.5;" x1="240.34" x2="374.34" y1="216.6211" y2="216.6211"/><text fill="#000000" font-family="sans-serif" font-size="14" lengthAdjust="spacing" textLength="35" x="245.34" y="235.7285">name</text><text fill="#000000" font-family="sans-serif" font-size="14" lengthAdjust="spacing" textLength="56" x="245.34" y="254.3496">birthdate</text><text fill="#000000" font-family="sans-serif" font-size="14" lengthAdjust="spacing" textLength="93" x="245.34" y="272.9707">admissionDate</text><text fill="#000000" font-family="sans-serif" font-size="14" lengthAdjust="spacing" textLength="51" x="245.34" y="291.5918">address</text><text fill="#000000" font-family="sans-serif" font-size="14" lengthAdjust="spacing" textLength="69" x="245.34" y="310.2129">contactInfo</text><text fill="#000000" font-family="sans-serif" font-size="14" lengthAdjust="spacing" textLength="107" x="245.34" y="328.834">idDocumentType</text><text fill="#000000" font-family="sans-serif" font-size="14" lengthAdjust="spacing" textLength="124" x="245.34" y="347.4551">idDocumentNumber</text></g><!--class Vehicle--><g id="elem_Vehicle"><rect codeLine="41" fill="#F1F1F1" height="222.832" id="Vehicle" rx="2.5" ry="2.5" style="stroke:#181818;stroke-width:0.5;" width="222" x="538.34" y="160"/><text fill="#000000" font-family="sans-serif" font-size="14" lengthAdjust="spacing" textLength="46" x="626.34" y="180.1074">Vehicle</text><line style="stroke:#181818;stroke-width:0.5;" x1="539.34" x2="759.34" y1="188.6211" y2="188.6211"/><text fill="#000000" font-family="sans-serif" font-size="14" lengthAdjust="spacing" textLength="46" x="544.34" y="207.7285">plate id</text><text fill="#000000" font-family="sans-serif" font-size="14" lengthAdjust="spacing" textLength="37" x="544.34" y="226.3496">brand</text><text fill="#000000" font-family="sans-serif" font-size="14" lengthAdjust="spacing" textLength="38" x="544.34" y="244.9707">model</text><text fill="#000000" font-family="sans-serif" font-size="14" lengthAdjust="spacing" textLength="27" x="544.34" y="263.5918">type</text><text fill="#000000" font-family="sans-serif" font-size="14" lengthAdjust="spacing" textLength="25" x="544.34" y="282.2129">tare</text><text fill="#000000" font-family="sans-serif" font-size="14" lengthAdjust="spacing" textLength="79" x="544.34" y="300.834">gross weight</text><text fill="#000000" font-family="sans-serif" font-size="14" lengthAdjust="spacing" textLength="74" x="544.34" y="319.4551">current kms</text><text fill="#000000" font-family="sans-serif" font-size="14" lengthAdjust="spacing" textLength="103" x="544.34" y="338.0762">registration date</text><text fill="#000000" font-family="sans-serif" font-size="14" lengthAdjust="spacing" textLength="99" x="544.34" y="356.6973">acquisition date</text><text fill="#000000" font-family="sans-serif" font-size="14" lengthAdjust="spacing" textLength="210" x="544.34" y="375.3184">maintenance/check-up frequency</text></g><!--class VFM--><g id="elem_VFM"><rect codeLine="54" fill="#F1F1F1" height="36.6211" id="VFM" rx="2.5" ry="2.5" style="stroke:#181818;stroke-width:0.5;" width="35" x="725.84" y="25.5"/><text fill="#000000" font-family="sans-serif" font-size="14" lengthAdjust="spacing" textLength="29" x="728.84" y="45.6074">VFM</text><line style="stroke:#181818;stroke-width:0.5;" x1="726.84" x2="759.84" y1="54.1211" y2="54.1211"/></g><!--class Maintenance--><g id="elem_Maintenance"><rect codeLine="58" fill="#F1F1F1" height="92.4844" id="Maintenance" rx="2.5" ry="2.5" style="stroke:#181818;stroke-width:0.5;" width="167" x="700.84" y="462"/><text fill="#000000" font-family="sans-serif" font-size="14" lengthAdjust="spacing" textLength="81" x="743.84" y="482.1074">Maintenance</text><line style="stroke:#181818;stroke-width:0.5;" x1="701.84" x2="866.84" y1="490.6211" y2="490.6211"/><text fill="#000000" font-family="sans-serif" font-size="14" lengthAdjust="spacing" textLength="46" x="706.84" y="509.7285">plate id</text><text fill="#000000" font-family="sans-serif" font-size="14" lengthAdjust="spacing" textLength="155" x="706.84" y="528.3496">date of last maintenance</text><text fill="#000000" font-family="sans-serif" font-size="14" lengthAdjust="spacing" textLength="119" x="706.84" y="546.9707">km at maintenance</text></g><!--link HRM to Skill--><g id="link_HRM_Skill"><path codeLine="66" d="M289.34,53.08 C257.29,68.55 191.11,105.74 163.34,160 C108.26,267.66 129.03,419.53 140.63,480.32 " fill="none" id="HRM-Skill" style="stroke:#181818;stroke-width:1.0;"/><polygon fill="#000000" points="166.6964,276.3676,172.4453,268.7913,166.8941,266.8591,166.6964,276.3676" style="stroke:#000000;stroke-width:1.0;"/><text fill="#000000" font-family="sans-serif" font-size="13" lengthAdjust="spacing" textLength="43" x="177.34" y="277.0283">register</text><text fill="#000000" font-family="sans-serif" font-size="13" lengthAdjust="spacing" textLength="7" x="274.4119" y="73.7145">1</text><text fill="#000000" font-family="sans-serif" font-size="13" lengthAdjust="spacing" textLength="20" x="117.1934" y="469.4393">1..*</text></g><!--link HRM to Skill--><g id="link_HRM_Skill"><path codeLine="75" d="M289.03,46.97 C241.11,53.23 112.09,77.4 59.34,160 C6,243.53 29.5,288.49 59.34,383 C71.7,422.12 101.3,459.61 122.55,482.93 " fill="none" id="HRM-Skill-1" style="stroke:#181818;stroke-width:1.0;"/><polygon fill="#000000" points="62.5563,276.3165,68.5286,268.915,63.0375,266.8181,62.5563,276.3165" style="stroke:#000000;stroke-width:1.0;"/><text fill="#000000" font-family="sans-serif" font-size="13" lengthAdjust="spacing" textLength="45" x="73.34" y="277.0283">assigns</text><text fill="#000000" font-family="sans-serif" font-size="13" lengthAdjust="spacing" textLength="7" x="274.2602" y="42.1476">1</text><text fill="#000000" font-family="sans-serif" font-size="13" lengthAdjust="spacing" textLength="20" x="94.7361" y="493.1322">1..*</text></g><!--link HRM to Job--><g id="link_HRM_Job"><path codeLine="69" d="M325.49,56.64 C342.26,68.36 366.6,87.96 380.34,111 C452.59,232.08 428.55,412.41 415.96,480.07 " fill="none" id="HRM-Job" style="stroke:#181818;stroke-width:1.0;"/><polygon fill="#000000" points="436.3847,276.5351,437.3689,267.0756,431.6207,268.3038,436.3847,276.5351" style="stroke:#000000;stroke-width:1.0;"/><text fill="#000000" font-family="sans-serif" font-size="13" lengthAdjust="spacing" textLength="43" x="444.34" y="277.0283">register</text><text fill="#000000" font-family="sans-serif" font-size="13" lengthAdjust="spacing" textLength="7" x="333.4734" y="78.5872">1</text><text fill="#000000" font-family="sans-serif" font-size="13" lengthAdjust="spacing" textLength="20" x="395.0019" y="469.1346">1..*</text></g><!--link HRM to Collaborator--><g id="link_HRM_Collaborator"><path codeLine="72" d="M307.34,62.69 C307.34,89.53 307.34,142.24 307.34,187.86 " fill="none" id="HRM-Collaborator" style="stroke:#181818;stroke-width:1.0;"/><polygon fill="#000000" points="312.34,125.6455,315.2789,116.6004,309.4011,116.6004,312.34,125.6455" style="stroke:#000000;stroke-width:1.0;"/><text fill="#000000" font-family="sans-serif" font-size="13" lengthAdjust="spacing" textLength="50" x="321.34" y="126.0283">registers</text><text fill="#000000" font-family="sans-serif" font-size="13" lengthAdjust="spacing" textLength="7" x="299.3994" y="84.1157">1</text><text fill="#000000" font-family="sans-serif" font-size="13" lengthAdjust="spacing" textLength="20" x="286.4494" y="176.6965">1..*</text></g><!--link Collaborator to Skill--><g id="link_Collaborator_Skill"><path codeLine="76" d="M250.58,355.18 C220.43,399.09 185.41,450.1 164.6,480.41 " fill="none" id="Collaborator-Skill" style="stroke:#181818;stroke-width:1.0;"/><polygon fill="#000000" points="210.5099,426.7675,218.0524,420.9742,213.2067,417.6473,210.5099,426.7675" style="stroke:#000000;stroke-width:1.0;"/><text fill="#000000" font-family="sans-serif" font-size="13" lengthAdjust="spacing" textLength="21" x="222.34" y="428.0283">has</text><text fill="#000000" font-family="sans-serif" font-size="13" lengthAdjust="spacing" textLength="7" x="238.5897" y="376.8553">1</text><text fill="#000000" font-family="sans-serif" font-size="13" lengthAdjust="spacing" textLength="20" x="146.5101" y="469.0982">1..*</text></g><!--link HRM to Team--><g id="link_HRM_Team"><path codeLine="79" d="M325.64,44 C353.65,44 407.63,44 443.32,44 " fill="none" id="HRM-Team" style="stroke:#181818;stroke-width:1.0;"/><polygon fill="#000000" points="365.34,31.6455,356.2949,28.7066,356.2949,34.5844,365.34,31.6455" style="stroke:#000000;stroke-width:1.0;"/><text fill="#000000" font-family="sans-serif" font-size="13" lengthAdjust="spacing" textLength="43" x="369.34" y="37.0283">creates</text><text fill="#000000" font-family="sans-serif" font-size="13" lengthAdjust="spacing" textLength="7" x="333.4063" y="38.1195">1</text><text fill="#000000" font-family="sans-serif" font-size="13" lengthAdjust="spacing" textLength="20" x="415.3008" y="39.5524">1..*</text></g><!--link Collaborator to Job--><g id="link_Collaborator_Job"><path codeLine="80" d="M343.66,355.18 C362.95,399.09 385.35,450.1 398.66,480.41 " fill="none" id="Collaborator-Job" style="stroke:#181818;stroke-width:1.0;"/><polygon fill="#000000" points="384.3506,427.2234,383.4042,417.7601,378.0226,420.1237,384.3506,427.2234" style="stroke:#000000;stroke-width:1.0;"/><text fill="#000000" font-family="sans-serif" font-size="13" lengthAdjust="spacing" textLength="21" x="391.34" y="428.0283">has</text><text fill="#000000" font-family="sans-serif" font-size="13" lengthAdjust="spacing" textLength="7" x="339.3779" y="376.8553">1</text><text fill="#000000" font-family="sans-serif" font-size="13" lengthAdjust="spacing" textLength="7" x="388.1496" y="469.0982">1</text></g><!--link Team to Collaborator--><g id="link_Team_Collaborator"><path codeLine="81" d="M450.87,81.23 C429.16,109.87 397.99,150.97 370.24,187.56 " fill="none" id="Team-Collaborator" style="stroke:#181818;stroke-width:1.0;"/><polygon fill="#000000" points="430.3189,124.6296,438.1259,119.1981,433.4424,115.6466,430.3189,124.6296" style="stroke:#000000;stroke-width:1.0;"/><text fill="#000000" font-family="sans-serif" font-size="13" lengthAdjust="spacing" textLength="21" x="442.34" y="126.0283">has</text><text fill="#000000" font-family="sans-serif" font-size="13" lengthAdjust="spacing" textLength="7" x="438.7406" y="102.8678">1</text><text fill="#000000" font-family="sans-serif" font-size="13" lengthAdjust="spacing" textLength="20" x="354.7861" y="176.6581">1..*</text></g><!--link VFM to Vehicle--><g id="link_VFM_Vehicle"><path codeLine="85" d="M725.56,49.88 C700.23,57.89 654.69,76.5 635.34,111 C627.05,125.79 623.5,142.59 622.91,159.6 " fill="none" id="VFM-Vehicle" style="stroke:#181818;stroke-width:1.0;"/><polygon fill="#000000" points="636.9241,124.2967,645.2497,119.6995,640.9574,115.6838,636.9241,124.2967" style="stroke:#000000;stroke-width:1.0;"/><text fill="#000000" font-family="sans-serif" font-size="13" lengthAdjust="spacing" textLength="50" x="649.34" y="126.0283">registers</text><text fill="#000000" font-family="sans-serif" font-size="13" lengthAdjust="spacing" textLength="7" x="710.713" y="46.0657">1</text><text fill="#000000" font-family="sans-serif" font-size="13" lengthAdjust="spacing" textLength="20" x="600.4624" y="148.5544">1..*</text></g><!--link VFM to Vehicle--><g id="link_VFM_Vehicle"><path codeLine="88" d="M735.97,62.69 C727.03,84.13 711.21,122.08 695.52,159.74 " fill="none" id="VFM-Vehicle-1" style="stroke:#181818;stroke-width:1.0;"/><polygon fill="#000000" points="718.4164,125.2607,724.6089,118.0424,719.1835,115.7811,718.4164,125.2607" style="stroke:#000000;stroke-width:1.0;"/><text fill="#000000" font-family="sans-serif" font-size="13" lengthAdjust="spacing" textLength="49" x="729.34" y="126.0283">chooses</text><text fill="#000000" font-family="sans-serif" font-size="13" lengthAdjust="spacing" textLength="7" x="726.0487" y="84.1157">1</text><text fill="#000000" font-family="sans-serif" font-size="13" lengthAdjust="spacing" textLength="20" x="677.9508" y="148.7038">1..*</text></g><!--link VFM to Maintenance--><g id="link_VFM_Maintenance"><path codeLine="91" d="M759.26,62.55 C769.48,75.05 781.84,92.81 787.34,111 C789.79,119.08 787.38,121.56 787.34,130 C786.87,249.78 785.54,390.96 784.82,461.74 " fill="none" id="VFM-Maintenance" style="stroke:#181818;stroke-width:1.0;"/><polygon fill="#000000" points="791.6595,276.6353,794.0144,267.4209,788.1486,267.7965,791.6595,276.6353" style="stroke:#000000;stroke-width:1.0;"/><text fill="#000000" font-family="sans-serif" font-size="13" lengthAdjust="spacing" textLength="24" x="800.34" y="277.0283">lists</text><text fill="#000000" font-family="sans-serif" font-size="13" lengthAdjust="spacing" textLength="7" x="755.7531" y="84.2803">1</text><text fill="#000000" font-family="sans-serif" font-size="13" lengthAdjust="spacing" textLength="20" x="763.4218" y="450.7112">1..*</text></g><!--link Vehicle to Maintenance--><g id="link_Vehicle_Maintenance"><path codeLine="92" d="M713.09,383.23 C729.13,411.09 745.46,439.46 758.43,461.99 " fill="none" id="Vehicle-Maintenance" style="stroke:#181818;stroke-width:1.0;"/><polygon fill="#000000" points="742.8455,418.3122,744.8111,427.6175,749.9052,424.6849,742.8455,418.3122" style="stroke:#000000;stroke-width:1.0;"/><text fill="#000000" font-family="sans-serif" font-size="13" lengthAdjust="spacing" textLength="21" x="754.34" y="428.0283">has</text><text fill="#000000" font-family="sans-serif" font-size="13" lengthAdjust="spacing" textLength="20" x="696.5334" y="404.9753">1..*</text><text fill="#000000" font-family="sans-serif" font-size="13" lengthAdjust="spacing" textLength="7" x="746.9266" y="450.6567">1</text></g><!--SRC=[TLHDRzim3BthLn2v11YGBjqtWc70i69O1tI7fUrTaMbRi3vIYKQH3VlleomxjXSlbr3au-Dx4k7OQ7UKGLgmtdbL1syHABGeuhbobAgH5UxfP102AfAkCbD0h6NXdxMhe9GcebYF9QCTqkc8u0FLNgmDbWJa8UYg9YXqejFUJSYKaJ5-9Whwq1BUAk_s-XV2LjIwG50wA9xTnHQPieX2YAu7llsyWzz2_1dE-qORmndWdvCMkP8Bt_rXdXuwxf45v4haeLrWqHumn0dl5s-CFFWWoOSfJmeEcdqMal995bR7oFvknamHCCOkPcia5TswqdTdNTnurLfqTCytza_gHvjaT5fx6OzOQxwBBE1eU0B3iuWWNOwiBz1q4GsK94CEgk2PvHdJIsGzRGWy2HgRzGMiT2IsoGPWzAIUMXtrF6cbTeHEEeKlLOsgsRH7A0C-jUZKQRownw_p9xeR-s31IE87Nm9ZQJgZApOMv3oRBcVziDzkhqNQXTNr2ZOR_hkwUh7Asx3hJM60JptsrOWTe6a_5f2lBv6pLHXRuhddpMLFNiiTi7zTkGITiIoePd0jHywtbvpTukv01UGR-pzbPsqWwthcqwPTvvbvw3kHtcuExpTmoVVx0Rw0LhNt4KViXmNgoMBi-2CIAS5xXW7JMvf1a-QFGlm5]--></g></svg>