<?xml version="1.0" encoding="us-ascii" standalone="no"?><svg xmlns="http://www.w3.org/2000/svg" xmlns:xlink="http://www.w3.org/1999/xlink" contentStyleType="text/css" height="984px" preserveAspectRatio="none" style="width:1596px;height:984px;background:#FFFFFF;" version="1.1" viewBox="0 0 1596 984" width="1596px" zoomAndPan="magnify"><defs/><g><!--class HRM--><g id="elem_HRM"><rect codeLine="11" fill="#F1F1F1" height="36.6211" id="HRM" rx="2.5" ry="2.5" style="stroke:#181818;stroke-width:0.5;" width="36" x="235.19" y="11.7154"/><text fill="#000000" font-family="sans-serif" font-size="14" lengthAdjust="spacing" textLength="30" x="238.19" y="31.8228">HRM</text><line style="stroke:#181818;stroke-width:0.5;" x1="236.19" x2="270.19" y1="40.3365" y2="40.3365"/></g><!--class Skill--><g id="elem_Skill"><rect codeLine="15" fill="#F1F1F1" height="55.2422" id="Skill" rx="2.5" ry="2.5" style="stroke:#181818;stroke-width:0.5;" width="47" x="108.69" y="666.7154"/><text fill="#000000" font-family="sans-serif" font-size="14" lengthAdjust="spacing" textLength="25" x="119.69" y="686.8228">Skill</text><line style="stroke:#181818;stroke-width:0.5;" x1="109.69" x2="154.69" y1="695.3365" y2="695.3365"/><text fill="#000000" font-family="sans-serif" font-size="14" lengthAdjust="spacing" textLength="35" x="114.69" y="714.4439">name</text></g><!--class Job--><g id="elem_Job"><rect codeLine="18" fill="#F1F1F1" height="55.2422" id="Job" rx="2.5" ry="2.5" style="stroke:#181818;stroke-width:0.5;" width="47" x="308.69" y="666.7154"/><text fill="#000000" font-family="sans-serif" font-size="14" lengthAdjust="spacing" textLength="22" x="321.19" y="686.8228">Job</text><line style="stroke:#181818;stroke-width:0.5;" x1="309.69" x2="354.69" y1="695.3365" y2="695.3365"/><text fill="#000000" font-family="sans-serif" font-size="14" lengthAdjust="spacing" textLength="35" x="314.69" y="714.4439">name</text></g><!--class Team--><g id="elem_Team"><rect codeLine="23" fill="#F1F1F1" height="73.8633" id="Team" rx="2.5" ry="2.5" style="stroke:#181818;stroke-width:0.5;" width="70" x="452.19" y="155.7154"/><text fill="#000000" font-family="sans-serif" font-size="14" lengthAdjust="spacing" textLength="36" x="469.19" y="175.8228">Team</text><line style="stroke:#181818;stroke-width:0.5;" x1="453.19" x2="521.19" y1="184.3365" y2="184.3365"/><text fill="#000000" font-family="sans-serif" font-size="14" lengthAdjust="spacing" textLength="24" x="458.19" y="203.4439">size</text><text fill="#000000" font-family="sans-serif" font-size="14" lengthAdjust="spacing" textLength="58" x="458.19" y="222.065">members</text></g><!--class Collaborator--><g id="elem_Collaborator"><rect codeLine="29" fill="#F1F1F1" height="166.9688" id="Collaborator" rx="2.5" ry="2.5" style="stroke:#181818;stroke-width:0.5;" width="136" x="185.19" y="336.7154"/><text fill="#000000" font-family="sans-serif" font-size="14" lengthAdjust="spacing" textLength="78" x="214.19" y="356.8228">Collaborator</text><line style="stroke:#181818;stroke-width:0.5;" x1="186.19" x2="320.19" y1="365.3365" y2="365.3365"/><text fill="#000000" font-family="sans-serif" font-size="14" lengthAdjust="spacing" textLength="35" x="191.19" y="384.4439">name</text><text fill="#000000" font-family="sans-serif" font-size="14" lengthAdjust="spacing" textLength="56" x="191.19" y="403.065">birthdate</text><text fill="#000000" font-family="sans-serif" font-size="14" lengthAdjust="spacing" textLength="93" x="191.19" y="421.6861">admissionDate</text><text fill="#000000" font-family="sans-serif" font-size="14" lengthAdjust="spacing" textLength="51" x="191.19" y="440.3072">address</text><text fill="#000000" font-family="sans-serif" font-size="14" lengthAdjust="spacing" textLength="69" x="191.19" y="458.9282">contactInfo</text><text fill="#000000" font-family="sans-serif" font-size="14" lengthAdjust="spacing" textLength="107" x="191.19" y="477.5493">idDocumentType</text><text fill="#000000" font-family="sans-serif" font-size="14" lengthAdjust="spacing" textLength="124" x="191.19" y="496.1704">idDocumentNumber</text></g><!--class Vehicle--><g id="elem_Vehicle"><rect codeLine="41" fill="#F1F1F1" height="222.832" id="Vehicle" rx="2.5" ry="2.5" style="stroke:#181818;stroke-width:0.5;" width="222" x="1001.19" y="582.7154"/><text fill="#000000" font-family="sans-serif" font-size="14" lengthAdjust="spacing" textLength="46" x="1089.19" y="602.8228">Vehicle</text><line style="stroke:#181818;stroke-width:0.5;" x1="1002.19" x2="1222.19" y1="611.3365" y2="611.3365"/><text fill="#000000" font-family="sans-serif" font-size="14" lengthAdjust="spacing" textLength="46" x="1007.19" y="630.4439">plate id</text><text fill="#000000" font-family="sans-serif" font-size="14" lengthAdjust="spacing" textLength="37" x="1007.19" y="649.065">brand</text><text fill="#000000" font-family="sans-serif" font-size="14" lengthAdjust="spacing" textLength="38" x="1007.19" y="667.6861">model</text><text fill="#000000" font-family="sans-serif" font-size="14" lengthAdjust="spacing" textLength="27" x="1007.19" y="686.3072">type</text><text fill="#000000" font-family="sans-serif" font-size="14" lengthAdjust="spacing" textLength="25" x="1007.19" y="704.9282">tare</text><text fill="#000000" font-family="sans-serif" font-size="14" lengthAdjust="spacing" textLength="79" x="1007.19" y="723.5493">gross weight</text><text fill="#000000" font-family="sans-serif" font-size="14" lengthAdjust="spacing" textLength="74" x="1007.19" y="742.1704">current kms</text><text fill="#000000" font-family="sans-serif" font-size="14" lengthAdjust="spacing" textLength="103" x="1007.19" y="760.7915">registration date</text><text fill="#000000" font-family="sans-serif" font-size="14" lengthAdjust="spacing" textLength="99" x="1007.19" y="779.4126">acquisition date</text><text fill="#000000" font-family="sans-serif" font-size="14" lengthAdjust="spacing" textLength="210" x="1007.19" y="798.0337">maintenance/check-up frequency</text></g><!--class VFM--><g id="elem_VFM"><rect codeLine="54" fill="#F1F1F1" height="36.6211" id="VFM" rx="2.5" ry="2.5" style="stroke:#181818;stroke-width:0.5;" width="35" x="990.69" y="401.7154"/><text fill="#000000" font-family="sans-serif" font-size="14" lengthAdjust="spacing" textLength="29" x="993.69" y="421.8228">VFM</text><line style="stroke:#181818;stroke-width:0.5;" x1="991.69" x2="1024.69" y1="430.3365" y2="430.3365"/></g><!--class Maintenance--><g id="elem_Maintenance"><rect codeLine="58" fill="#F1F1F1" height="92.4844" id="Maintenance" rx="2.5" ry="2.5" style="stroke:#181818;stroke-width:0.5;" width="167" x="872.69" y="884.7154"/><text fill="#000000" font-family="sans-serif" font-size="14" lengthAdjust="spacing" textLength="81" x="915.69" y="904.8228">Maintenance</text><line style="stroke:#181818;stroke-width:0.5;" x1="873.69" x2="1038.69" y1="913.3365" y2="913.3365"/><text fill="#000000" font-family="sans-serif" font-size="14" lengthAdjust="spacing" textLength="46" x="878.69" y="932.4439">plate id</text><text fill="#000000" font-family="sans-serif" font-size="14" lengthAdjust="spacing" textLength="155" x="878.69" y="951.065">date of last maintenance</text><text fill="#000000" font-family="sans-serif" font-size="14" lengthAdjust="spacing" textLength="119" x="878.69" y="969.6861">km at maintenance</text></g><!--class GSM--><g id="elem_GSM"><rect codeLine="64" fill="#F1F1F1" height="36.6211" id="GSM" rx="2.5" ry="2.5" style="stroke:#181818;stroke-width:0.5;" width="37" x="899.69" y="11.7154"/><text fill="#000000" font-family="sans-serif" font-size="14" lengthAdjust="spacing" textLength="31" x="902.69" y="31.8228">GSM</text><line style="stroke:#181818;stroke-width:0.5;" x1="900.69" x2="935.69" y1="40.3365" y2="40.3365"/></g><!--class Col--><g id="elem_Col"><rect codeLine="67" fill="#F1F1F1" height="36.6211" id="Col" rx="2.5" ry="2.5" style="stroke:#181818;stroke-width:0.5;" width="84" x="1299.19" y="401.7154"/><text fill="#000000" font-family="sans-serif" font-size="14" lengthAdjust="spacing" textLength="78" x="1302.19" y="421.8228">Collaborator</text><line style="stroke:#181818;stroke-width:0.5;" x1="1300.19" x2="1382.19" y1="430.3365" y2="430.3365"/></g><!--class GreenSpace--><g id="elem_GreenSpace"><rect codeLine="70" fill="#F1F1F1" height="129.7266" id="GreenSpace" rx="2.5" ry="2.5" style="stroke:#181818;stroke-width:0.5;" width="145" x="1417.69" y="127.7154"/><text fill="#000000" font-family="sans-serif" font-size="14" lengthAdjust="spacing" textLength="80" x="1450.19" y="147.8228">GreenSpace</text><line style="stroke:#181818;stroke-width:0.5;" x1="1418.69" x2="1561.69" y1="156.3365" y2="156.3365"/><text fill="#000000" font-family="sans-serif" font-size="14" lengthAdjust="spacing" textLength="35" x="1423.69" y="175.4439">name</text><text fill="#000000" font-family="sans-serif" font-size="14" lengthAdjust="spacing" textLength="29" x="1423.69" y="194.065">area</text><text fill="#000000" font-family="sans-serif" font-size="14" lengthAdjust="spacing" textLength="64" x="1423.69" y="212.6861">dimension</text><text fill="#000000" font-family="sans-serif" font-size="14" lengthAdjust="spacing" textLength="27" x="1423.69" y="231.3072">type</text><text fill="#000000" font-family="sans-serif" font-size="14" lengthAdjust="spacing" textLength="133" x="1423.69" y="249.9282">greenSpaceManager</text></g><!--class Task--><g id="elem_Task"><rect codeLine="77" fill="#F1F1F1" height="129.7266" id="Task" rx="2.5" ry="2.5" style="stroke:#181818;stroke-width:0.5;" width="78" x="1360.19" y="629.2154"/><text fill="#000000" font-family="sans-serif" font-size="14" lengthAdjust="spacing" textLength="31" x="1383.69" y="649.3228">Task</text><line style="stroke:#181818;stroke-width:0.5;" x1="1361.19" x2="1437.19" y1="657.8365" y2="657.8365"/><text fill="#000000" font-family="sans-serif" font-size="14" lengthAdjust="spacing" textLength="66" x="1366.19" y="676.9439">vehicleList</text><text fill="#000000" font-family="sans-serif" font-size="14" lengthAdjust="spacing" textLength="31" x="1366.19" y="695.565">team</text><text fill="#000000" font-family="sans-serif" font-size="14" lengthAdjust="spacing" textLength="38" x="1366.19" y="714.1861">status</text><text fill="#000000" font-family="sans-serif" font-size="14" lengthAdjust="spacing" textLength="52" x="1366.19" y="732.8072">duration</text><text fill="#000000" font-family="sans-serif" font-size="14" lengthAdjust="spacing" textLength="26" x="1366.19" y="751.4282">task</text></g><!--class ToDoList--><g id="elem_ToDoList"><rect codeLine="84" fill="#F1F1F1" height="55.2422" id="ToDoList" rx="2.5" ry="2.5" style="stroke:#181818;stroke-width:0.5;" width="108" x="1274.19" y="165.2154"/><text fill="#000000" font-family="sans-serif" font-size="14" lengthAdjust="spacing" textLength="57" x="1299.69" y="185.3228">ToDoList</text><line style="stroke:#181818;stroke-width:0.5;" x1="1275.19" x2="1381.19" y1="193.8365" y2="193.8365"/><text fill="#000000" font-family="sans-serif" font-size="14" lengthAdjust="spacing" textLength="96" x="1280.19" y="212.9439">toDoListEntries</text></g><!--class AgendaEntry--><g id="elem_AgendaEntry"><rect codeLine="87" fill="#F1F1F1" height="111.1055" id="AgendaEntry" rx="2.5" ry="2.5" style="stroke:#181818;stroke-width:0.5;" width="108" x="702.19" y="364.7154"/><text fill="#000000" font-family="sans-serif" font-size="14" lengthAdjust="spacing" textLength="82" x="715.19" y="384.8228">AgendaEntry</text><line style="stroke:#181818;stroke-width:0.5;" x1="703.19" x2="809.19" y1="393.3365" y2="393.3365"/><text fill="#000000" font-family="sans-serif" font-size="14" lengthAdjust="spacing" textLength="58" x="708.19" y="412.4439">startDate</text><text fill="#000000" font-family="sans-serif" font-size="14" lengthAdjust="spacing" textLength="54" x="708.19" y="431.065">endDate</text><text fill="#000000" font-family="sans-serif" font-size="14" lengthAdjust="spacing" textLength="38" x="708.19" y="449.6861">status</text><text fill="#000000" font-family="sans-serif" font-size="14" lengthAdjust="spacing" textLength="96" x="708.19" y="468.3072">toDoListEntries</text></g><!--class Entry--><g id="elem_Entry"><rect codeLine="93" fill="#F1F1F1" height="185.5898" id="Entry" rx="2.5" ry="2.5" style="stroke:#181818;stroke-width:0.5;" width="128" x="692.19" y="601.2154"/><text fill="#000000" font-family="sans-serif" font-size="14" lengthAdjust="spacing" textLength="33" x="739.69" y="621.3228">Entry</text><line style="stroke:#181818;stroke-width:0.5;" x1="693.19" x2="819.19" y1="629.8365" y2="629.8365"/><text fill="#000000" font-family="sans-serif" font-size="14" lengthAdjust="spacing" textLength="58" x="698.19" y="648.9439">startDate</text><text fill="#000000" font-family="sans-serif" font-size="14" lengthAdjust="spacing" textLength="54" x="698.19" y="667.565">endDate</text><text fill="#000000" font-family="sans-serif" font-size="14" lengthAdjust="spacing" textLength="38" x="698.19" y="686.1861">status</text><text fill="#000000" font-family="sans-serif" font-size="14" lengthAdjust="spacing" textLength="26" x="698.19" y="704.8072">task</text><text fill="#000000" font-family="sans-serif" font-size="14" lengthAdjust="spacing" textLength="66" x="698.19" y="723.4282">vehicleList</text><text fill="#000000" font-family="sans-serif" font-size="14" lengthAdjust="spacing" textLength="31" x="698.19" y="742.0493">team</text><text fill="#000000" font-family="sans-serif" font-size="14" lengthAdjust="spacing" textLength="77" x="698.19" y="760.6704">greenSpace</text><text fill="#000000" font-family="sans-serif" font-size="14" lengthAdjust="spacing" textLength="116" x="698.19" y="779.2915">degree of urgency</text></g><!--class Agenda--><g id="elem_Agenda"><rect codeLine="103" fill="#F1F1F1" height="55.2422" id="Agenda" rx="2.5" ry="2.5" style="stroke:#181818;stroke-width:0.5;" width="104" x="1064.19" y="165.2154"/><text fill="#000000" font-family="sans-serif" font-size="14" lengthAdjust="spacing" textLength="49" x="1091.69" y="185.3228">Agenda</text><line style="stroke:#181818;stroke-width:0.5;" x1="1065.19" x2="1167.19" y1="193.8365" y2="193.8365"/><text fill="#000000" font-family="sans-serif" font-size="14" lengthAdjust="spacing" textLength="92" x="1070.19" y="212.9439">entriesAgenda</text></g><!--class Green Space--><g id="elem_Green Space"><rect fill="#F1F1F1" height="36.6211" id="Green Space" rx="2.5" ry="2.5" style="stroke:#181818;stroke-width:0.5;" width="90" x="816.19" y="174.2154"/><text fill="#000000" font-family="sans-serif" font-size="14" lengthAdjust="spacing" textLength="84" x="819.19" y="194.3228">Green Space</text><line style="stroke:#181818;stroke-width:0.5;" x1="817.19" x2="905.19" y1="202.8365" y2="202.8365"/></g><!--class ToDoListEntry--><g id="elem_ToDoListEntry"><rect fill="#F1F1F1" height="36.6211" id="ToDoListEntry" rx="2.5" ry="2.5" style="stroke:#181818;stroke-width:0.5;" width="96" x="1430.19" y="401.7154"/><text fill="#000000" font-family="sans-serif" font-size="14" lengthAdjust="spacing" textLength="90" x="1433.19" y="421.8228">ToDoListEntry</text><line style="stroke:#181818;stroke-width:0.5;" x1="1431.19" x2="1525.19" y1="430.3365" y2="430.3365"/></g><!--link HRM to Skill--><g id="link_HRM_Skill"><path codeLine="111" d="M234.76,32.1054 C204.04,34.5654 142.21,43.8254 106.19,78.7154 C35.3,147.3754 48.1,190.4854 31.19,287.7154 C6,432.4554 83.86,601.9354 117.5,666.4554 " fill="none" id="HRM-Skill" style="stroke:#181818;stroke-width:1.0;"/><polygon fill="#000000" points="35.2811,302.2776,39.8152,293.9174,34.0353,292.849,35.2811,302.2776" style="stroke:#000000;stroke-width:1.0;"/><text fill="#000000" font-family="sans-serif" font-size="13" lengthAdjust="spacing" textLength="43" x="45.19" y="302.7437">register</text><text fill="#000000" font-family="sans-serif" font-size="13" lengthAdjust="spacing" textLength="7" x="220.2216" y="26.9766">1</text><text fill="#000000" font-family="sans-serif" font-size="13" lengthAdjust="spacing" textLength="20" x="92.0991" y="655.5571">1..*</text></g><!--link HRM to Skill--><g id="link_HRM_Skill"><path codeLine="120" d="M247.03,48.8554 C231.08,95.3254 188.19,225.1754 167.19,336.7154 C144.23,458.6454 135.8,607.0354 133.19,666.6054 " fill="none" id="HRM-Skill-1" style="stroke:#181818;stroke-width:1.0;"/><polygon fill="#000000" points="182.2838,302.2781,186.8134,293.9154,181.0328,292.8501,182.2838,302.2781" style="stroke:#000000;stroke-width:1.0;"/><text fill="#000000" font-family="sans-serif" font-size="13" lengthAdjust="spacing" textLength="45" x="192.19" y="302.7437">assigns</text><text fill="#000000" font-family="sans-serif" font-size="13" lengthAdjust="spacing" textLength="7" x="237.4339" y="70.2676">1</text><text fill="#000000" font-family="sans-serif" font-size="13" lengthAdjust="spacing" textLength="20" x="135.7338" y="655.2889">1..*</text></g><!--link HRM to Job--><g id="link_HRM_Job"><path codeLine="114" d="M271.39,48.4454 C288.97,66.3654 314.58,96.1754 326.19,127.7154 C398.13,323.2954 354.9,583.2954 338.03,666.4454 " fill="none" id="HRM-Job" style="stroke:#181818;stroke-width:1.0;"/><polygon fill="#000000" points="368.7261,302.332,370.6783,293.024,364.8343,293.6542,368.7261,302.332" style="stroke:#000000;stroke-width:1.0;"/><text fill="#000000" font-family="sans-serif" font-size="13" lengthAdjust="spacing" textLength="43" x="377.19" y="302.7437">register</text><text fill="#000000" font-family="sans-serif" font-size="13" lengthAdjust="spacing" textLength="7" x="268.7081" y="70.424">1</text><text fill="#000000" font-family="sans-serif" font-size="13" lengthAdjust="spacing" textLength="20" x="317.12" y="655.545">1..*</text></g><!--link HRM to Collaborator--><g id="link_HRM_Collaborator"><path codeLine="117" d="M253.19,48.8954 C253.19,98.8554 253.19,243.4854 253.19,336.5154 " fill="none" id="HRM-Collaborator" style="stroke:#181818;stroke-width:1.0;"/><polygon fill="#000000" points="258.19,197.8609,261.1289,188.8158,255.2511,188.8158,258.19,197.8609" style="stroke:#000000;stroke-width:1.0;"/><text fill="#000000" font-family="sans-serif" font-size="13" lengthAdjust="spacing" textLength="50" x="267.19" y="198.2437">registers</text><text fill="#000000" font-family="sans-serif" font-size="13" lengthAdjust="spacing" textLength="7" x="254.1306" y="70.3183">1</text><text fill="#000000" font-family="sans-serif" font-size="13" lengthAdjust="spacing" textLength="20" x="232.2994" y="325.3465">1..*</text></g><!--link Collaborator to Skill--><g id="link_Collaborator_Skill"><path codeLine="121" d="M216.39,503.9354 C191.64,559.5754 160.6,629.3454 143.98,666.7054 " fill="none" id="Collaborator-Skill" style="stroke:#181818;stroke-width:1.0;"/><polygon fill="#000000" points="203.1577,547.9292,209.5194,540.8595,204.1489,538.4704,203.1577,547.9292" style="stroke:#000000;stroke-width:1.0;"/><text fill="#000000" font-family="sans-serif" font-size="13" lengthAdjust="spacing" textLength="21" x="214.19" y="548.7437">has</text><text fill="#000000" font-family="sans-serif" font-size="13" lengthAdjust="spacing" textLength="7" x="206.0527" y="525.614">1</text><text fill="#000000" font-family="sans-serif" font-size="13" lengthAdjust="spacing" textLength="20" x="124.3939" y="655.412">1..*</text></g><!--link HRM to Team--><g id="link_HRM_Team"><path codeLine="124" d="M271.55,34.0554 C299.94,39.1454 355.27,51.8854 394.19,78.7154 C423.47,98.9054 448.54,130.8054 465.25,155.5754 " fill="none" id="HRM-Team" style="stroke:#181818;stroke-width:1.0;"/><polygon fill="#000000" points="425.4255,91.0181,419.3253,83.7216,416.2016,88.7007,425.4255,91.0181" style="stroke:#000000;stroke-width:1.0;"/><text fill="#000000" font-family="sans-serif" font-size="13" lengthAdjust="spacing" textLength="43" x="430.19" y="93.7437">creates</text><text fill="#000000" font-family="sans-serif" font-size="13" lengthAdjust="spacing" textLength="7" x="279.0644" y="29.5969">1</text><text fill="#000000" font-family="sans-serif" font-size="13" lengthAdjust="spacing" textLength="20" x="439.5607" y="144.5121">1..*</text></g><!--link Collaborator to Job--><g id="link_Collaborator_Job"><path codeLine="125" d="M277.21,503.9354 C293.37,559.5754 313.64,629.3454 324.49,666.7054 " fill="none" id="Collaborator-Job" style="stroke:#181818;stroke-width:1.0;"/><polygon fill="#000000" points="297.5847,548.1624,297.8839,538.6565,292.2394,540.2961,297.5847,548.1624" style="stroke:#000000;stroke-width:1.0;"/><text fill="#000000" font-family="sans-serif" font-size="13" lengthAdjust="spacing" textLength="21" x="305.19" y="548.7437">has</text><text fill="#000000" font-family="sans-serif" font-size="13" lengthAdjust="spacing" textLength="7" x="271.9093" y="525.614">1</text><text fill="#000000" font-family="sans-serif" font-size="13" lengthAdjust="spacing" textLength="7" x="314.9" y="655.412">1</text></g><!--link Team to Collaborator--><g id="link_Team_Collaborator"><path codeLine="126" d="M475.89,229.8654 C467.1,253.6954 453.03,284.4954 433.19,306.7154 C402.26,341.3454 358.17,369.1454 321.37,388.4354 " fill="none" id="Team-Collaborator" style="stroke:#181818;stroke-width:1.0;"/><polygon fill="#000000" points="449.7005,300.9418,458.1179,296.5149,453.9082,292.4127,449.7005,300.9418" style="stroke:#000000;stroke-width:1.0;"/><text fill="#000000" font-family="sans-serif" font-size="13" lengthAdjust="spacing" textLength="21" x="462.19" y="302.7437">has</text><text fill="#000000" font-family="sans-serif" font-size="13" lengthAdjust="spacing" textLength="7" x="466.4387" y="251.4899">1</text><text fill="#000000" font-family="sans-serif" font-size="13" lengthAdjust="spacing" textLength="20" x="329.4323" y="381.3264">1..*</text></g><!--link VFM to Vehicle--><g id="link_VFM_Vehicle"><path codeLine="130" d="M1020.43,438.7254 C1034.92,460.1954 1058.9,498.1354 1073.19,533.7154 C1079.4,549.1954 1084.81,565.9254 1089.46,582.5254 " fill="none" id="VFM-Vehicle" style="stroke:#181818;stroke-width:1.0;"/><polygon fill="#000000" points="1086.3538,547.8684,1085.0889,538.4423,1079.79,540.986,1086.3538,547.8684" style="stroke:#000000;stroke-width:1.0;"/><text fill="#000000" font-family="sans-serif" font-size="13" lengthAdjust="spacing" textLength="50" x="1093.19" y="548.7437">registers</text><text fill="#000000" font-family="sans-serif" font-size="13" lengthAdjust="spacing" textLength="7" x="1015.8881" y="460.4444">1</text><text fill="#000000" font-family="sans-serif" font-size="13" lengthAdjust="spacing" textLength="20" x="1067.261" y="571.4938">1..*</text></g><!--link VFM to Vehicle--><g id="link_VFM_Vehicle"><path codeLine="133" d="M1003.13,438.8254 C996.63,464.6254 987.68,513.8454 1001.19,552.7154 C1004.71,562.8454 1009.29,572.7954 1014.6,582.4354 " fill="none" id="VFM-Vehicle-1" style="stroke:#181818;stroke-width:1.0;"/><polygon fill="#000000" points="1006.5881,548.345,1008.7975,539.0946,1002.9384,539.5626,1006.5881,548.345" style="stroke:#000000;stroke-width:1.0;"/><text fill="#000000" font-family="sans-serif" font-size="13" lengthAdjust="spacing" textLength="49" x="1015.19" y="548.7437">chooses</text><text fill="#000000" font-family="sans-serif" font-size="13" lengthAdjust="spacing" textLength="7" x="1002.7108" y="460.2295">1</text><text fill="#000000" font-family="sans-serif" font-size="13" lengthAdjust="spacing" textLength="20" x="987.3713" y="571.3978">1..*</text></g><!--link VFM to Maintenance--><g id="link_VFM_Maintenance"><path codeLine="136" d="M998.71,438.9654 C983.8,468.0254 955.48,527.9954 945.19,582.7154 C925.1,689.4854 938.75,817.9254 948.59,884.5954 " fill="none" id="VFM-Maintenance" style="stroke:#181818;stroke-width:1.0;"/><polygon fill="#000000" points="949.6312,699.3295,953.5626,690.6696,947.7216,690.0127,949.6312,699.3295" style="stroke:#000000;stroke-width:1.0;"/><text fill="#000000" font-family="sans-serif" font-size="13" lengthAdjust="spacing" textLength="24" x="959.19" y="699.7437">lists</text><text fill="#000000" font-family="sans-serif" font-size="13" lengthAdjust="spacing" textLength="7" x="988.2216" y="460.4071">1</text><text fill="#000000" font-family="sans-serif" font-size="13" lengthAdjust="spacing" textLength="20" x="926.005" y="873.5872">1..*</text></g><!--link Vehicle to Maintenance--><g id="link_Vehicle_Maintenance"><path codeLine="137" d="M1038.53,805.9454 C1019.99,833.8054 1001.12,862.1754 986.13,884.7054 " fill="none" id="Vehicle-Maintenance" style="stroke:#181818;stroke-width:1.0;"/><polygon fill="#000000" points="1022.9596,841.198,1015.5025,847.1008,1020.3962,850.3566,1022.9596,841.198" style="stroke:#000000;stroke-width:1.0;"/><text fill="#000000" font-family="sans-serif" font-size="13" lengthAdjust="spacing" textLength="21" x="1029.19" y="850.7437">has</text><text fill="#000000" font-family="sans-serif" font-size="13" lengthAdjust="spacing" textLength="20" x="1013.1705" y="827.6906">1..*</text><text fill="#000000" font-family="sans-serif" font-size="13" lengthAdjust="spacing" textLength="7" x="983.1786" y="873.372">1</text></g><!--link GSM to Green Space--><g id="link_GSM_Green Space"><path codeLine="140" d="M907.29,48.7754 C902.2,57.5354 896.35,68.4354 892.19,78.7154 C878.99,111.3454 869.47,151.4754 864.69,174.0754 " fill="none" id="GSM-Green Space" style="stroke:#181818;stroke-width:1.0;"/><polygon fill="#000000" points="895.5806,93.0948,901.2746,85.4771,895.7096,83.5851,895.5806,93.0948" style="stroke:#000000;stroke-width:1.0;"/><text fill="#000000" font-family="sans-serif" font-size="13" lengthAdjust="spacing" textLength="43" x="906.19" y="93.7437">register</text><text fill="#000000" font-family="sans-serif" font-size="13" lengthAdjust="spacing" textLength="7" x="896.24" y="70.5085">1</text><text fill="#000000" font-family="sans-serif" font-size="13" lengthAdjust="spacing" textLength="5" x="859.9963" y="162.8946">*</text></g><!--link GSM to GreenSpace--><g id="link_GSM_GreenSpace"><path codeLine="143" d="M936.74,31.2754 C1014.08,31.7754 1310.68,36.4754 1392.19,78.7154 C1414.21,90.1254 1433.43,108.7454 1448.89,127.6154 " fill="none" id="GSM-GreenSpace" style="stroke:#181818;stroke-width:1.0;"/><polygon fill="#000000" points="1428.1038,89.2852,1419.7579,84.7248,1418.6713,90.5013,1428.1038,89.2852" style="stroke:#000000;stroke-width:1.0;"/><text fill="#000000" font-family="sans-serif" font-size="13" lengthAdjust="spacing" textLength="53" x="1432.19" y="93.7437">manages</text><text fill="#000000" font-family="sans-serif" font-size="13" lengthAdjust="spacing" textLength="7" x="944.5953" y="48.8288">1</text><text fill="#000000" font-family="sans-serif" font-size="13" lengthAdjust="spacing" textLength="20" x="1423.2791" y="116.6245">0..*</text></g><!--link GSM to GreenSpace--><g id="link_GSM_GreenSpace"><path codeLine="167" d="M936.81,31.4854 C1003.4,33.1254 1234.58,44.8354 1400.19,127.7154 C1406.02,130.6354 1411.89,133.9054 1417.68,137.3854 " fill="none" id="GSM-GreenSpace-1" style="stroke:#181818;stroke-width:1.0;"/><polygon fill="#000000" points="1336.073,89.4362,1327.8717,84.6207,1326.6075,90.361,1336.073,89.4362" style="stroke:#000000;stroke-width:1.0;"/><text fill="#000000" font-family="sans-serif" font-size="13" lengthAdjust="spacing" textLength="24" x="1340.19" y="93.7437">lists</text><text fill="#000000" font-family="sans-serif" font-size="13" lengthAdjust="spacing" textLength="7" x="944.552" y="21.791">1</text><text fill="#000000" font-family="sans-serif" font-size="13" lengthAdjust="spacing" textLength="20" x="1389.8158" y="128.3568">1..*</text></g><!--link GreenSpace to ToDoListEntry--><g id="link_GreenSpace_ToDoListEntry"><path codeLine="144" d="M1486.78,257.7354 C1484.18,306.6954 1480.76,370.8254 1479.13,401.4454 " fill="none" id="GreenSpace-ToDoListEntry" style="stroke:#181818;stroke-width:1.0;"/><polygon fill="#000000" points="1488.9242,302.3538,1492.3398,293.4777,1486.4703,293.1653,1488.9242,302.3538" style="stroke:#000000;stroke-width:1.0;"/><text fill="#000000" font-family="sans-serif" font-size="13" lengthAdjust="spacing" textLength="90" x="1498.19" y="302.7437">associated with</text><text fill="#000000" font-family="sans-serif" font-size="13" lengthAdjust="spacing" textLength="7" x="1479.0674" y="279.3745">1</text><text fill="#000000" font-family="sans-serif" font-size="13" lengthAdjust="spacing" textLength="20" x="1456.4686" y="390.5615">0..*</text></g><!--link ToDoListEntry to Task--><g id="link_ToDoListEntry_Task"><path codeLine="145" d="M1473,439.0654 C1462,476.9454 1435.85,566.9854 1417.82,629.0454 " fill="none" id="ToDoListEntry-Task" style="stroke:#181818;stroke-width:1.0;"/><polygon fill="#000000" points="1446.7954,548.1624,1452.1406,540.2961,1446.496,538.6566,1446.7954,548.1624" style="stroke:#000000;stroke-width:1.0;"/><text fill="#000000" font-family="sans-serif" font-size="13" lengthAdjust="spacing" textLength="21" x="1457.19" y="548.7437">has</text><text fill="#000000" font-family="sans-serif" font-size="13" lengthAdjust="spacing" textLength="7" x="1463.6646" y="460.534">1</text><text fill="#000000" font-family="sans-serif" font-size="13" lengthAdjust="spacing" textLength="7" x="1412.4748" y="618.0469">1</text></g><!--link ToDoList to ToDoListEntry--><g id="link_ToDoList_ToDoListEntry"><path codeLine="146" d="M1345.98,220.4654 C1377.03,267.1354 1440.25,362.1954 1466.43,401.5454 " fill="none" id="ToDoList-ToDoListEntry" style="stroke:#181818;stroke-width:1.0;"/><polygon fill="#000000" points="1410.9592,301.524,1408.3967,292.3651,1403.5027,295.6205,1410.9592,301.524" style="stroke:#000000;stroke-width:1.0;"/><text fill="#000000" font-family="sans-serif" font-size="13" lengthAdjust="spacing" textLength="48" x="1417.19" y="302.7437">includes</text><text fill="#000000" font-family="sans-serif" font-size="13" lengthAdjust="spacing" textLength="7" x="1342.1059" y="242.4287">1</text><text fill="#000000" font-family="sans-serif" font-size="13" lengthAdjust="spacing" textLength="20" x="1439.766" y="390.3554">0..*</text></g><!--link Agenda to AgendaEntry--><g id="link_Agenda_AgendaEntry"><path codeLine="148" d="M1093.96,220.6554 C1072.46,245.4354 1037.94,281.9954 1002.19,306.7154 C941.35,348.7854 862.26,381.6654 810.4,400.7454 " fill="none" id="Agenda-AgendaEntry" style="stroke:#181818;stroke-width:1.0;"/><polygon fill="#000000" points="1026.9693,300.0415,1036.1802,297.6731,1033.029,292.7113,1026.9693,300.0415" style="stroke:#000000;stroke-width:1.0;"/><text fill="#000000" font-family="sans-serif" font-size="13" lengthAdjust="spacing" textLength="48" x="1040.19" y="302.7437">includes</text><text fill="#000000" font-family="sans-serif" font-size="13" lengthAdjust="spacing" textLength="7" x="1081.3316" y="242.6603">1</text><text fill="#000000" font-family="sans-serif" font-size="13" lengthAdjust="spacing" textLength="20" x="818.2256" y="394.3761">0..*</text></g><!--link GSM to AgendaEntry--><g id="link_GSM_AgendaEntry"><path codeLine="149" d="M899.5,36.3354 C865.09,46.8854 792.5,74.6154 762.19,127.7154 C720.28,201.1254 730.5,302.8054 742.66,364.6354 " fill="none" id="GSM-AgendaEntry" style="stroke:#181818;stroke-width:1.0;"/><polygon fill="#000000" points="765.0347,197.3725,771.5856,190.4778,766.2819,187.944,765.0347,197.3725" style="stroke:#000000;stroke-width:1.0;"/><text fill="#000000" font-family="sans-serif" font-size="13" lengthAdjust="spacing" textLength="21" x="776.19" y="198.2437">add</text><text fill="#000000" font-family="sans-serif" font-size="13" lengthAdjust="spacing" textLength="7" x="884.5948" y="55.6914">1</text><text fill="#000000" font-family="sans-serif" font-size="13" lengthAdjust="spacing" textLength="20" x="719.6452" y="353.4653">1..*</text></g><!--link GSM to AgendaEntry--><g id="link_GSM_AgendaEntry"><path codeLine="157" d="M899.63,31.3354 C849.75,32.8054 712.75,44.5454 656.19,127.7154 C606.02,201.4854 663.63,302.8354 709.9,364.5254 " fill="none" id="GSM-AgendaEntry-1" style="stroke:#181818;stroke-width:1.0;"/><polygon fill="#000000" points="658.7158,197.2058,665.7455,190.8,660.6377,187.8915,658.7158,197.2058" style="stroke:#000000;stroke-width:1.0;"/><text fill="#000000" font-family="sans-serif" font-size="13" lengthAdjust="spacing" textLength="53" x="670.19" y="198.2437">postpone</text><text fill="#000000" font-family="sans-serif" font-size="13" lengthAdjust="spacing" textLength="7" x="884.7711" y="48.9101">1</text><text fill="#000000" font-family="sans-serif" font-size="13" lengthAdjust="spacing" textLength="20" x="682.6878" y="353.3412">0..*</text></g><!--link GSM to AgendaEntry--><g id="link_GSM_AgendaEntry"><path codeLine="160" d="M936.04,48.9654 C943.14,57.2654 950.49,67.7254 954.19,78.7154 C970.93,128.5154 1026.06,69.1154 924.19,257.7154 C896.88,308.2654 848.18,352.4254 810.22,381.7354 " fill="none" id="GSM-AgendaEntry-2" style="stroke:#181818;stroke-width:1.0;"/><polygon fill="#000000" points="986.4217,197.5377,992.3696,190.1166,986.8716,188.0378,986.4217,197.5377" style="stroke:#000000;stroke-width:1.0;"/><text fill="#000000" font-family="sans-serif" font-size="13" lengthAdjust="spacing" textLength="38" x="997.19" y="198.2437">cancel</text><text fill="#000000" font-family="sans-serif" font-size="13" lengthAdjust="spacing" textLength="7" x="932.8966" y="70.4071">1</text><text fill="#000000" font-family="sans-serif" font-size="13" lengthAdjust="spacing" textLength="20" x="818.0237" y="373.0493">0..*</text></g><!--link GSM to Team--><g id="link_GSM_Team"><path codeLine="152" d="M899.29,30.9854 C829.38,30.5254 586.5,32.3254 528.19,78.7154 C504.91,97.2254 494.85,130.1454 490.49,155.6954 " fill="none" id="GSM-Team" style="stroke:#181818;stroke-width:1.0;"/><polygon fill="#000000" points="528.4076,89.8198,537.9166,89.9916,536.2015,84.3695,528.4076,89.8198" style="stroke:#000000;stroke-width:1.0;"/><text fill="#000000" font-family="sans-serif" font-size="13" lengthAdjust="spacing" textLength="38" x="542.19" y="93.7437">assign</text><text fill="#000000" font-family="sans-serif" font-size="13" lengthAdjust="spacing" textLength="7" x="884.59" y="25.4716">1</text><text fill="#000000" font-family="sans-serif" font-size="13" lengthAdjust="spacing" textLength="20" x="469.2547" y="144.3704">1..*</text></g><!--link Team to AgendaEntry--><g id="link_Team_AgendaEntry"><path codeLine="153" d="M499.19,229.7854 C508.65,253.8854 523.84,285.0254 545.19,306.7154 C589.46,351.6854 655.54,382.9154 701.93,400.8654 " fill="none" id="Team-AgendaEntry" style="stroke:#181818;stroke-width:1.0;"/><polygon fill="#000000" points="554.0113,300.5854,548.9939,292.506,545.2032,296.9982,554.0113,300.5854" style="stroke:#000000;stroke-width:1.0;"/><text fill="#000000" font-family="sans-serif" font-size="13" lengthAdjust="spacing" textLength="21" x="559.19" y="302.7437">has</text><text fill="#000000" font-family="sans-serif" font-size="13" lengthAdjust="spacing" textLength="7" x="493.6509" y="251.6828">1</text><text fill="#000000" font-family="sans-serif" font-size="13" lengthAdjust="spacing" textLength="20" x="674.0983" y="394.5108">0..*</text></g><!--link AgendaEntry to Entry--><g id="link_AgendaEntry_Entry"><path codeLine="156" d="M756.19,475.9354 C756.19,511.7654 756.19,541.4954 756.19,583.0954 " fill="none" id="AgendaEntry-to-Entry" style="stroke:#181818;stroke-width:1.0;"/><polygon fill="none" points="756.19,601.0954,762.19,583.0954,750.19,583.0954,756.19,601.0954" style="stroke:#181818;stroke-width:1.0;"/></g><!--link GSM to Vehicle--><g id="link_GSM_Vehicle"><path codeLine="163" d="M937.05,31.2554 C987.76,32.5054 1127.19,43.7654 1186.19,127.7154 C1280.69,262.1954 1221.52,460.0454 1168.24,582.5454 " fill="none" id="GSM-Vehicle" style="stroke:#181818;stroke-width:1.0;"/><polygon fill="#000000" points="1242.1237,301.9718,1241.3359,292.4939,1235.9154,294.7671,1242.1237,301.9718" style="stroke:#000000;stroke-width:1.0;"/><text fill="#000000" font-family="sans-serif" font-size="13" lengthAdjust="spacing" textLength="38" x="1249.19" y="302.7437">assign</text><text fill="#000000" font-family="sans-serif" font-size="13" lengthAdjust="spacing" textLength="7" x="944.7363" y="25.8344">1</text><text fill="#000000" font-family="sans-serif" font-size="13" lengthAdjust="spacing" textLength="20" x="1151.334" y="571.5152">1..*</text></g><!--link AgendaEntry to Vehicle--><g id="link_AgendaEntry_Vehicle"><path codeLine="164" d="M810.36,460.4754 C854.73,492.8454 918.96,540.1754 974.19,582.7154 C982.94,589.4554 991.96,596.4854 1001,603.5954 " fill="none" id="AgendaEntry-Vehicle" style="stroke:#181818;stroke-width:1.0;"/><polygon fill="#000000" points="941.1886,546.3627,935.7195,538.582,932.1906,543.2826,941.1886,546.3627" style="stroke:#000000;stroke-width:1.0;"/><text fill="#000000" font-family="sans-serif" font-size="13" lengthAdjust="spacing" textLength="21" x="946.19" y="548.7437">has</text><text fill="#000000" font-family="sans-serif" font-size="13" lengthAdjust="spacing" textLength="7" x="818.1094" y="461.7839">1</text><text fill="#000000" font-family="sans-serif" font-size="13" lengthAdjust="spacing" textLength="20" x="973.2363" y="594.2885">0..*</text></g><!--link Col to Task--><g id="link_Col_Task"><path codeLine="170" d="M1344.99,439.0654 C1353.07,476.9454 1372.27,566.9854 1385.5,629.0454 " fill="none" id="Col-Task" style="stroke:#181818;stroke-width:1.0;"/><polygon fill="#000000" points="1374.2327,548.2509,1375.2207,538.7918,1369.4721,540.0176,1374.2327,548.2509" style="stroke:#000000;stroke-width:1.0;"/><text fill="#000000" font-family="sans-serif" font-size="13" lengthAdjust="spacing" textLength="24" x="1382.19" y="548.7437">lists</text><text fill="#000000" font-family="sans-serif" font-size="13" lengthAdjust="spacing" textLength="7" x="1338.0706" y="460.534">1</text><text fill="#000000" font-family="sans-serif" font-size="13" lengthAdjust="spacing" textLength="20" x="1362.9089" y="618.0469">1..*</text></g><!--link Col to Task--><g id="link_Col_Task"><path codeLine="173" d="M1325.94,438.9154 C1306.24,464.0154 1276.07,511.4754 1290.19,552.7154 C1304.04,593.1654 1334.81,630.9754 1360.13,657.1554 " fill="none" id="Col-Task-1" style="stroke:#181818;stroke-width:1.0;"/><polygon fill="#000000" points="1295.9639,548.3006,1297.4674,538.9097,1291.6604,539.8194,1295.9639,548.3006" style="stroke:#000000;stroke-width:1.0;"/><text fill="#000000" font-family="sans-serif" font-size="13" lengthAdjust="spacing" textLength="53" x="1304.19" y="548.7437">complete</text><text fill="#000000" font-family="sans-serif" font-size="13" lengthAdjust="spacing" textLength="7" x="1313.9009" y="460.3437">1</text><text fill="#000000" font-family="sans-serif" font-size="13" lengthAdjust="spacing" textLength="20" x="1332.0431" y="647.5335">1..*</text></g><!--SRC=[bLN9Rjim4BtpAmXT0XHmQZjhWo90qBHfYgQ7sisTfiOI8ObKIAg1c_RVEoIrK8RSeBc46hvvCsyMsXH2raopYbPAAfvhLG6rkW5Y-fkQyO9biBAx4gW6RfdCoXXWSfQgPo4pkcMb0N8qN9L2WjtLG9MskI979MmjjOfgaUMMfiBH2IKZCbuoOswirMBJMBZdIgx4Bw1paeiKA1UQOsn_hW0fKqC8yJxqy_S7-aB8d-vxLOYoH0l5Fyagm9jmyKLjnkREOmsOGBWn6DGVAgWse4t4-q6L9TiepQpICOyxR0JgJ9aDNoojX36extQmf1gCyMUKPXctztAh_BT8RnLlAf1sZHNRCtrhN1e-rpQDHyW5rY8aK9SO0U4X2SraE5KgXTAVR4TfcGw7J2jaUGRNYP1FepL6eaKLyjEG2MDH9WgWWoR-r0WZniQA2Mb1CidXBS-15xEcfbiDJmr8lXjAz_XftAA7mOzE277yL6qfOcqSmryM5MLZQqzxjthmKS9N4ZSieSnta4Q0EmqWLpZciDTDB1KBYGZiWMlak9PPx_Z09Aw8xYdNp1I1x6TeqrSiPN366GiJPfbjGgNJ9bIvRP0f1XvrgvnhuBBjrqU9wm6cHzra85FchBkNZblRVkZmiZz7KG-nUHxwFqGkutzg7GeLz88pkCusEcid95RoqaRpUGLJc7noz6Crdo-8M_LaaT3P3FyT7xz9mh9VjJCBcbwtsEK4rkt_1FHa0ZhQzS77z4wdXt91D0eIcNJO4SqqE6S3wTa4gN-RhYZ7aRHmcDEhwzYyps51VT0GzPouzHp3sqTcIlb51vz0yrmf0mFsSe8wslqh_9qmri5RXWxJIXf1NSxl0-zoJXBSzQHdHfV4RpFrmvPCj7cv8EZIUynzdE45G8_AxxBB9ZAFyUjeTNQXqueBR4nAduNDNUb7YAWzxcNe-zE2Nc4NafTDwZFo2fOaxCIUM_GAZ9rYlOi9AFuezTKvcK2tenV6UN-ifc97ixmy9V7TRFRxEZmm4rqOazJAs5f9w9dENdNXRaBAtk5yGaitO96Sc6FCFe1ZHHSJjCEa3BCSq9TkKVSBwcTWZ7lNuHmCNxyOoLLLbs1TAVu2]--></g></svg>