<?xml version="1.0" encoding="us-ascii" standalone="no"?><svg xmlns="http://www.w3.org/2000/svg" xmlns:xlink="http://www.w3.org/1999/xlink" contentStyleType="text/css" height="428px" preserveAspectRatio="none" style="width:1067px;height:428px;background:#FFFFFF;" version="1.1" viewBox="0 0 1067 428" width="1067px" zoomAndPan="magnify"><defs/><g><!--class Collaborator--><g id="elem_Collaborator"><rect codeLine="11" fill="#F1F1F1" height="85.2422" id="Collaborator" rx="2.5" ry="2.5" style="stroke:#181818;stroke-width:0.5;" width="149" x="350" y="336"/><ellipse cx="382.55" cy="352" fill="#ADD1B2" rx="11" ry="11" style="stroke:#181818;stroke-width:1.0;"/><path d="M385.3156,347.875 Q385.4719,347.6563 385.6594,347.5469 Q385.8469,347.4375 386.0656,347.4375 Q386.4406,347.4375 386.675,347.7031 Q386.9094,347.9531 386.9094,348.5625 L386.9094,350.0156 Q386.9094,350.625 386.675,350.8906 Q386.4406,351.1563 386.0656,351.1563 Q385.7219,351.1563 385.5188,350.9531 Q385.3156,350.7656 385.2063,350.25 Q385.1594,349.8906 384.9719,349.7031 Q384.6438,349.3281 384.0344,349.1094 Q383.425,348.8906 382.8,348.8906 Q382.0344,348.8906 381.3938,349.2188 Q380.7688,349.5469 380.2688,350.2969 Q379.7844,351.0469 379.7844,352.0781 L379.7844,353.1719 Q379.7844,354.4063 380.675,355.2344 Q381.5656,356.0469 383.1594,356.0469 Q384.0969,356.0469 384.7531,355.7969 Q385.1438,355.6406 385.5656,355.2031 Q385.8313,354.9375 385.9719,354.8594 Q386.1281,354.7813 386.3313,354.7813 Q386.6594,354.7813 386.9094,355.0469 Q387.175,355.2969 387.175,355.6406 Q387.175,355.9844 386.8313,356.3906 Q386.3313,356.9688 385.5344,357.2969 Q384.4563,357.75 383.1594,357.75 Q381.6438,357.75 380.4406,357.125 Q379.4563,356.625 378.7688,355.5625 Q378.0813,354.4844 378.0813,353.2031 L378.0813,352.0469 Q378.0813,350.7188 378.6906,349.5781 Q379.3156,348.4219 380.4094,347.8125 Q381.5031,347.1875 382.7375,347.1875 Q383.4719,347.1875 384.1125,347.3594 Q384.7688,347.5156 385.3156,347.875 Z " fill="#000000"/><text fill="#000000" font-family="sans-serif" font-size="14" lengthAdjust="spacing" textLength="78" x="400.45" y="357.7969">Collaborator</text><line style="stroke:#181818;stroke-width:0.5;" x1="351" x2="498" y1="368" y2="368"/><text fill="#000000" font-family="sans-serif" font-size="14" lengthAdjust="spacing" textLength="91" x="356" y="387.1074">-details: String</text><line style="stroke:#181818;stroke-width:0.5;" x1="351" x2="498" y1="394.6211" y2="394.6211"/><text fill="#000000" font-family="sans-serif" font-size="14" lengthAdjust="spacing" textLength="137" x="356" y="413.7285">+Collaborator(details)</text></g><!--class RegisterCollaboratorUI--><g id="elem_RegisterCollaboratorUI"><rect codeLine="18" fill="#F1F1F1" height="48" id="RegisterCollaboratorUI" rx="2.5" ry="2.5" style="stroke:#181818;stroke-width:0.5;" width="175" x="7" y="35"/><ellipse cx="22" cy="51" fill="#ADD1B2" rx="11" ry="11" style="stroke:#181818;stroke-width:1.0;"/><path d="M24.7656,46.875 Q24.9219,46.6563 25.1094,46.5469 Q25.2969,46.4375 25.5156,46.4375 Q25.8906,46.4375 26.125,46.7031 Q26.3594,46.9531 26.3594,47.5625 L26.3594,49.0156 Q26.3594,49.625 26.125,49.8906 Q25.8906,50.1563 25.5156,50.1563 Q25.1719,50.1563 24.9688,49.9531 Q24.7656,49.7656 24.6563,49.25 Q24.6094,48.8906 24.4219,48.7031 Q24.0938,48.3281 23.4844,48.1094 Q22.875,47.8906 22.25,47.8906 Q21.4844,47.8906 20.8438,48.2188 Q20.2188,48.5469 19.7188,49.2969 Q19.2344,50.0469 19.2344,51.0781 L19.2344,52.1719 Q19.2344,53.4063 20.125,54.2344 Q21.0156,55.0469 22.6094,55.0469 Q23.5469,55.0469 24.2031,54.7969 Q24.5938,54.6406 25.0156,54.2031 Q25.2813,53.9375 25.4219,53.8594 Q25.5781,53.7813 25.7813,53.7813 Q26.1094,53.7813 26.3594,54.0469 Q26.625,54.2969 26.625,54.6406 Q26.625,54.9844 26.2813,55.3906 Q25.7813,55.9688 24.9844,56.2969 Q23.9063,56.75 22.6094,56.75 Q21.0938,56.75 19.8906,56.125 Q18.9063,55.625 18.2188,54.5625 Q17.5313,53.4844 17.5313,52.2031 L17.5313,51.0469 Q17.5313,49.7188 18.1406,48.5781 Q18.7656,47.4219 19.8594,46.8125 Q20.9531,46.1875 22.1875,46.1875 Q22.9219,46.1875 23.5625,46.3594 Q24.2188,46.5156 24.7656,46.875 Z " fill="#000000"/><text fill="#000000" font-family="sans-serif" font-size="14" lengthAdjust="spacing" textLength="143" x="36" y="56.7969">RegisterCollaboratorUI</text><line style="stroke:#181818;stroke-width:0.5;" x1="8" x2="181" y1="67" y2="67"/><line style="stroke:#181818;stroke-width:0.5;" x1="8" x2="181" y1="75" y2="75"/></g><!--class RegisterCollaboratorController--><g id="elem_RegisterCollaboratorController"><rect codeLine="22" fill="#F1F1F1" height="85.2422" id="RegisterCollaboratorController" rx="2.5" ry="2.5" style="stroke:#181818;stroke-width:0.5;" width="356" x="217.5" y="16.5"/><ellipse cx="294.75" cy="32.5" fill="#ADD1B2" rx="11" ry="11" style="stroke:#181818;stroke-width:1.0;"/><path d="M297.5156,28.375 Q297.6719,28.1563 297.8594,28.0469 Q298.0469,27.9375 298.2656,27.9375 Q298.6406,27.9375 298.875,28.2031 Q299.1094,28.4531 299.1094,29.0625 L299.1094,30.5156 Q299.1094,31.125 298.875,31.3906 Q298.6406,31.6563 298.2656,31.6563 Q297.9219,31.6563 297.7188,31.4531 Q297.5156,31.2656 297.4063,30.75 Q297.3594,30.3906 297.1719,30.2031 Q296.8438,29.8281 296.2344,29.6094 Q295.625,29.3906 295,29.3906 Q294.2344,29.3906 293.5938,29.7188 Q292.9688,30.0469 292.4688,30.7969 Q291.9844,31.5469 291.9844,32.5781 L291.9844,33.6719 Q291.9844,34.9063 292.875,35.7344 Q293.7656,36.5469 295.3594,36.5469 Q296.2969,36.5469 296.9531,36.2969 Q297.3438,36.1406 297.7656,35.7031 Q298.0313,35.4375 298.1719,35.3594 Q298.3281,35.2813 298.5313,35.2813 Q298.8594,35.2813 299.1094,35.5469 Q299.375,35.7969 299.375,36.1406 Q299.375,36.4844 299.0313,36.8906 Q298.5313,37.4688 297.7344,37.7969 Q296.6563,38.25 295.3594,38.25 Q293.8438,38.25 292.6406,37.625 Q291.6563,37.125 290.9688,36.0625 Q290.2813,34.9844 290.2813,33.7031 L290.2813,32.5469 Q290.2813,31.2188 290.8906,30.0781 Q291.5156,28.9219 292.6094,28.3125 Q293.7031,27.6875 294.9375,27.6875 Q295.6719,27.6875 296.3125,27.8594 Q296.9688,28.0156 297.5156,28.375 Z " fill="#000000"/><text fill="#000000" font-family="sans-serif" font-size="14" lengthAdjust="spacing" textLength="193" x="315.25" y="38.2969">RegisterCollaboratorController</text><line style="stroke:#181818;stroke-width:0.5;" x1="218.5" x2="572.5" y1="48.5" y2="48.5"/><line style="stroke:#181818;stroke-width:0.5;" x1="218.5" x2="572.5" y1="56.5" y2="56.5"/><text fill="#000000" font-family="sans-serif" font-size="14" lengthAdjust="spacing" textLength="344" x="223.5" y="75.6074">+CreateCollaboratorController(collaboratorRepository)</text><text fill="#000000" font-family="sans-serif" font-size="14" lengthAdjust="spacing" textLength="185" x="223.5" y="94.2285">+registerCollaborator(details)</text></g><!--class Repositories--><g id="elem_Repositories"><rect codeLine="27" fill="#F1F1F1" height="103.8633" id="Repositories" rx="2.5" ry="2.5" style="stroke:#181818;stroke-width:0.5;" width="287" x="677" y="7"/><ellipse cx="776.75" cy="23" fill="#ADD1B2" rx="11" ry="11" style="stroke:#181818;stroke-width:1.0;"/><path d="M779.5156,18.875 Q779.6719,18.6563 779.8594,18.5469 Q780.0469,18.4375 780.2656,18.4375 Q780.6406,18.4375 780.875,18.7031 Q781.1094,18.9531 781.1094,19.5625 L781.1094,21.0156 Q781.1094,21.625 780.875,21.8906 Q780.6406,22.1563 780.2656,22.1563 Q779.9219,22.1563 779.7188,21.9531 Q779.5156,21.7656 779.4063,21.25 Q779.3594,20.8906 779.1719,20.7031 Q778.8438,20.3281 778.2344,20.1094 Q777.625,19.8906 777,19.8906 Q776.2344,19.8906 775.5938,20.2188 Q774.9688,20.5469 774.4688,21.2969 Q773.9844,22.0469 773.9844,23.0781 L773.9844,24.1719 Q773.9844,25.4063 774.875,26.2344 Q775.7656,27.0469 777.3594,27.0469 Q778.2969,27.0469 778.9531,26.7969 Q779.3438,26.6406 779.7656,26.2031 Q780.0313,25.9375 780.1719,25.8594 Q780.3281,25.7813 780.5313,25.7813 Q780.8594,25.7813 781.1094,26.0469 Q781.375,26.2969 781.375,26.6406 Q781.375,26.9844 781.0313,27.3906 Q780.5313,27.9688 779.7344,28.2969 Q778.6563,28.75 777.3594,28.75 Q775.8438,28.75 774.6406,28.125 Q773.6563,27.625 772.9688,26.5625 Q772.2813,25.4844 772.2813,24.2031 L772.2813,23.0469 Q772.2813,21.7188 772.8906,20.5781 Q773.5156,19.4219 774.6094,18.8125 Q775.7031,18.1875 776.9375,18.1875 Q777.6719,18.1875 778.3125,18.3594 Q778.9688,18.5156 779.5156,18.875 Z " fill="#000000"/><text fill="#000000" font-family="sans-serif" font-size="14" lengthAdjust="spacing" textLength="79" x="797.25" y="28.7969">Repositories</text><line style="stroke:#181818;stroke-width:0.5;" x1="678" x2="963" y1="39" y2="39"/><line style="stroke:#181818;stroke-width:0.5;" x1="678" x2="963" y1="47" y2="47"/><text fill="#000000" font-family="sans-serif" font-size="14" lengthAdjust="spacing" textLength="94" x="683" y="66.1074">-Repositories()</text><text fill="#000000" font-family="sans-serif" font-size="14" lengthAdjust="spacing" textLength="182" x="683" y="84.7285">+getInstance() : Repositories</text><text fill="#000000" font-family="sans-serif" font-size="14" lengthAdjust="spacing" textLength="275" x="683" y="103.3496">+getCollaboratorRepository() : Repositories</text></g><!--class CollaboratorRepository--><g id="elem_CollaboratorRepository"><rect codeLine="33" fill="#F1F1F1" height="66.6211" id="CollaboratorRepository" rx="2.5" ry="2.5" style="stroke:#181818;stroke-width:0.5;" width="178" x="499.5" y="190"/><ellipse cx="514.5" cy="206" fill="#ADD1B2" rx="11" ry="11" style="stroke:#181818;stroke-width:1.0;"/><path d="M517.2656,201.875 Q517.4219,201.6563 517.6094,201.5469 Q517.7969,201.4375 518.0156,201.4375 Q518.3906,201.4375 518.625,201.7031 Q518.8594,201.9531 518.8594,202.5625 L518.8594,204.0156 Q518.8594,204.625 518.625,204.8906 Q518.3906,205.1563 518.0156,205.1563 Q517.6719,205.1563 517.4688,204.9531 Q517.2656,204.7656 517.1563,204.25 Q517.1094,203.8906 516.9219,203.7031 Q516.5938,203.3281 515.9844,203.1094 Q515.375,202.8906 514.75,202.8906 Q513.9844,202.8906 513.3438,203.2188 Q512.7188,203.5469 512.2188,204.2969 Q511.7344,205.0469 511.7344,206.0781 L511.7344,207.1719 Q511.7344,208.4063 512.625,209.2344 Q513.5156,210.0469 515.1094,210.0469 Q516.0469,210.0469 516.7031,209.7969 Q517.0938,209.6406 517.5156,209.2031 Q517.7813,208.9375 517.9219,208.8594 Q518.0781,208.7813 518.2813,208.7813 Q518.6094,208.7813 518.8594,209.0469 Q519.125,209.2969 519.125,209.6406 Q519.125,209.9844 518.7813,210.3906 Q518.2813,210.9688 517.4844,211.2969 Q516.4063,211.75 515.1094,211.75 Q513.5938,211.75 512.3906,211.125 Q511.4063,210.625 510.7188,209.5625 Q510.0313,208.4844 510.0313,207.2031 L510.0313,206.0469 Q510.0313,204.7188 510.6406,203.5781 Q511.2656,202.4219 512.3594,201.8125 Q513.4531,201.1875 514.6875,201.1875 Q515.4219,201.1875 516.0625,201.3594 Q516.7188,201.5156 517.2656,201.875 Z " fill="#000000"/><text fill="#000000" font-family="sans-serif" font-size="14" lengthAdjust="spacing" textLength="146" x="528.5" y="211.7969">CollaboratorRepository</text><line style="stroke:#181818;stroke-width:0.5;" x1="500.5" x2="676.5" y1="222" y2="222"/><line style="stroke:#181818;stroke-width:0.5;" x1="500.5" x2="676.5" y1="230" y2="230"/><text fill="#000000" font-family="sans-serif" font-size="14" lengthAdjust="spacing" textLength="66" x="505.5" y="249.1074">+register()</text></g><!--link RegisterCollaboratorUI to RegisterCollaboratorController--><g id="link_RegisterCollaboratorUI_RegisterCollaboratorController"><path codeLine="38" d="M182.13,59 C189.86,59 194.83,59 194.83,59 C194.83,59 198.15,59 211.1,59 " fill="none" id="RegisterCollaboratorUI-to-RegisterCollaboratorController" style="stroke:#181818;stroke-width:1.0;stroke-dasharray:7.0,7.0;"/><polygon fill="#181818" points="217.1,59,208.1,55,212.1,59,208.1,63,217.1,59" style="stroke:#181818;stroke-width:1.0;"/></g><!--link RegisterCollaboratorController to Repositories--><g id="link_RegisterCollaboratorController_Repositories"><path codeLine="39" d="M573.58,59 C608.02,59 637.7,59 670.86,59 " fill="none" id="RegisterCollaboratorController-to-Repositories" style="stroke:#181818;stroke-width:1.0;stroke-dasharray:7.0,7.0;"/><polygon fill="#181818" points="676.86,59,667.86,55,671.86,59,667.86,63,676.86,59" style="stroke:#181818;stroke-width:1.0;"/><text fill="#000000" font-family="sans-serif" font-size="13" lengthAdjust="spacing" textLength="67" x="591.75" y="52.0283">repositories</text></g><!--link Repositories to Repositories--><g id="link_Repositories_Repositories"><path codeLine="40" d="M964.07,43.77 C984.94,46.19 999,51.27 999,59 C999,66.73 990.9001,71.1189 970.0301,73.5389 " fill="none" id="Repositories-to-Repositories" style="stroke:#181818;stroke-width:1.0;"/><polygon fill="#181818" points="964.07,74.23,973.4708,77.1667,969.0367,73.6541,972.5494,69.22,964.07,74.23" style="stroke:#181818;stroke-width:1.0;"/><text fill="#000000" font-family="sans-serif" font-size="13" lengthAdjust="spacing" textLength="49" x="1005" y="64.5283">instance</text></g><!--link Repositories to CollaboratorRepository--><g id="link_Repositories_CollaboratorRepository"><path codeLine="41" d="M747.41,111.19 C710.62,136.96 672.0444,163.9878 639.8644,186.5278 " fill="none" id="Repositories-to-CollaboratorRepository" style="stroke:#181818;stroke-width:1.0;"/><polygon fill="#181818" points="634.95,189.97,644.6164,188.0829,639.0453,187.1015,640.0268,181.5304,634.95,189.97" style="stroke:#181818;stroke-width:1.0;"/><text fill="#000000" font-family="sans-serif" font-size="13" lengthAdjust="spacing" textLength="7" x="730.5969" y="133.0216">1</text><text fill="#000000" font-family="sans-serif" font-size="13" lengthAdjust="spacing" textLength="7" x="636.4058" y="178.7896">1</text></g><!--reverse link CollaboratorRepository to Collaborator--><g id="link_CollaboratorRepository_Collaborator"><path codeLine="42" d="M544.5463,265.5067 C519.8863,288.5167 495.51,311.26 469.01,335.98 " fill="none" id="CollaboratorRepository-backto-Collaborator" style="stroke:#181818;stroke-width:1.0;"/><polygon fill="none" points="553.32,257.32,546.2042,258.4888,544.5463,265.5067,551.662,264.3379,553.32,257.32" style="stroke:#181818;stroke-width:1.0;"/><text fill="#000000" font-family="sans-serif" font-size="13" lengthAdjust="spacing" textLength="21" x="522.5" y="302.0283">has</text><text fill="#000000" font-family="sans-serif" font-size="13" lengthAdjust="spacing" textLength="5" x="470.7053" y="324.8809">*</text></g><!--link RegisterCollaboratorController to CollaboratorRepository--><g id="link_RegisterCollaboratorController_CollaboratorRepository"><path codeLine="43" d="M444.95,101.64 C477.56,129.1 515.0799,160.6859 545.2399,186.0759 " fill="none" id="RegisterCollaboratorController-to-CollaboratorRepository" style="stroke:#181818;stroke-width:1.0;stroke-dasharray:7.0,7.0;"/><polygon fill="#181818" points="549.83,189.94,545.521,181.0838,546.005,186.7199,540.3688,187.2039,549.83,189.94" style="stroke:#181818;stroke-width:1.0;"/><text fill="#000000" font-family="sans-serif" font-size="13" lengthAdjust="spacing" textLength="129" x="510.5" y="156.0283">collaboratorRepository</text></g><!--link RegisterCollaboratorController to Collaborator--><g id="link_RegisterCollaboratorController_Collaborator"><path codeLine="44" d="M399.11,101.78 C404.1,159.61 412.5,257 412.5,257 C412.5,257 416.2747,294.9196 419.7447,329.7196 " fill="none" id="RegisterCollaboratorController-to-Collaborator" style="stroke:#181818;stroke-width:1.0;stroke-dasharray:7.0,7.0;"/><polygon fill="#181818" points="420.34,335.69,423.4273,326.3375,419.8439,330.7147,415.4668,327.1313,420.34,335.69" style="stroke:#181818;stroke-width:1.0;"/><text fill="#000000" font-family="sans-serif" font-size="13" lengthAdjust="spacing" textLength="67" x="413.5" y="229.0283">collaborator</text></g><!--SRC=[bL91Ri8m4Bpx5IikX5QfsciEbIfEN45zW35BOc6yaRseIYl-NYTDm2cEQ7Dnl3ipEpl9t1-qhQMJHpYI9LKvEYAmEw6uTcgf3hB43JS6mQ5YQKiJ0tmbT_IXRGbxQNpSCTeYDpL2JQPfBsAUQ99Z4X5B6Udz6xFJsnFZIf7Tw4-4Po7c1lSCJE1qMJ7iT6j7anMYuy2IZ95RSfB9mPU0yEImGvRQ-08sGT6MeYi_Zh1PZrc8inYqrbXgp-XYtFiggBQOQSYIBBjmny50cEHGCgP1cOhAQwp9w_3IB7ggIqmOcHsCz4ID_h9tNCm6mH9vPNtuX0gp1HGZq1MoJ9gw9PnJmLy9bmI6DRAVW2UYVNgzawYu4tWd42LHXC6Hsr4lps_0kWzc39ozp3fmUwRN51FRKvx3x67C2cCgwV-mo8Hc0UaVvf-AltJ4Dm00]--></g></svg>