<?xml version="1.0" encoding="us-ascii" standalone="no"?><svg xmlns="http://www.w3.org/2000/svg" xmlns:xlink="http://www.w3.org/1999/xlink" contentStyleType="text/css" height="311px" preserveAspectRatio="none" style="width:507px;height:311px;background:#FFFFFF;" version="1.1" viewBox="0 0 507 311" width="507px" zoomAndPan="magnify"><defs/><g><rect fill="#FFFFFF" height="184.4551" style="stroke:#181818;stroke-width:1.0;" width="10" x="195" y="71.9121"/><rect fill="#FFFFFF" height="87.582" style="stroke:#181818;stroke-width:1.0;" width="10" x="200" y="168.7852"/><rect fill="#FFFFFF" height="43.291" style="stroke:#181818;stroke-width:1.0;" width="10" x="205" y="213.0762"/><rect fill="none" height="139.1641" style="stroke:#000000;stroke-width:1.5;" width="391" x="110" y="86.9121"/><line style="stroke:#181818;stroke-width:0.5;stroke-dasharray:5.0,5.0;" x1="200" x2="200" y1="38.6211" y2="274.3672"/><line style="stroke:#181818;stroke-width:0.5;stroke-dasharray:5.0,5.0;" x1="445" x2="445" y1="38.6211" y2="274.3672"/><rect fill="#E3E3E3" height="32.6211" rx="2.5" ry="2.5" style="stroke:#181818;stroke-width:0.5;" width="160" x="120" y="5"/><text fill="#000000" font-family="sans-serif" font-size="14" lengthAdjust="spacing" textLength="146" x="127" y="27.1074">CollaboratorRepository</text><rect fill="#E3E3E3" height="32.6211" rx="2.5" ry="2.5" style="stroke:#181818;stroke-width:0.5;" width="160" x="120" y="273.3672"/><text fill="#000000" font-family="sans-serif" font-size="14" lengthAdjust="spacing" textLength="146" x="127" y="295.4746">CollaboratorRepository</text><rect fill="#E3E3E3" height="32.6211" rx="2.5" ry="2.5" style="stroke:#181818;stroke-width:0.5;" width="92" x="399" y="5"/><text fill="#000000" font-family="sans-serif" font-size="14" lengthAdjust="spacing" textLength="78" x="406" y="27.1074">Collaborator</text><rect fill="#E3E3E3" height="32.6211" rx="2.5" ry="2.5" style="stroke:#181818;stroke-width:0.5;" width="92" x="399" y="273.3672"/><text fill="#000000" font-family="sans-serif" font-size="14" lengthAdjust="spacing" textLength="78" x="406" y="295.4746">Collaborator</text><rect fill="#FFFFFF" height="184.4551" style="stroke:#181818;stroke-width:1.0;" width="10" x="195" y="71.9121"/><rect fill="#FFFFFF" height="87.582" style="stroke:#181818;stroke-width:1.0;" width="10" x="200" y="168.7852"/><rect fill="#FFFFFF" height="43.291" style="stroke:#181818;stroke-width:1.0;" width="10" x="205" y="213.0762"/><polygon fill="#181818" points="183,67.9121,193,71.9121,183,75.9121,187,71.9121" style="stroke:#181818;stroke-width:1.0;"/><line style="stroke:#181818;stroke-width:1.0;" x1="0" x2="189" y1="71.9121" y2="71.9121"/><text fill="#000000" font-family="sans-serif" font-size="13" font-weight="bold" lengthAdjust="spacing" textLength="14" x="7" y="66.6494">11</text><text fill="#000000" font-family="sans-serif" font-size="13" lengthAdjust="spacing" textLength="158" x="25" y="66.6494">registerCollaborator(details)</text><path d="M110,86.9121 L290,86.9121 L290,96.2031 L280,106.2031 L110,106.2031 L110,86.9121 " fill="#EEEEEE" style="stroke:#000000;stroke-width:1.5;"/><rect fill="none" height="139.1641" style="stroke:#000000;stroke-width:1.5;" width="391" x="110" y="86.9121"/><text fill="#000000" font-family="sans-serif" font-size="13" font-weight="bold" lengthAdjust="spacing" textLength="135" x="125" y="101.9404">Register Collaborator</text><polygon fill="#181818" points="433,125.4941,443,129.4941,433,133.4941,437,129.4941" style="stroke:#181818;stroke-width:1.0;"/><line style="stroke:#181818;stroke-width:1.0;" x1="205" x2="439" y1="129.4941" y2="129.4941"/><text fill="#000000" font-family="sans-serif" font-size="13" font-weight="bold" lengthAdjust="spacing" textLength="25" x="212" y="124.2314">11.1</text><text fill="#000000" font-family="sans-serif" font-size="13" lengthAdjust="spacing" textLength="82" x="241" y="124.2314">create(details)</text><line style="stroke:#181818;stroke-width:1.0;" x1="205" x2="252" y1="155.7852" y2="155.7852"/><line style="stroke:#181818;stroke-width:1.0;" x1="252" x2="252" y1="155.7852" y2="168.7852"/><line style="stroke:#181818;stroke-width:1.0;" x1="211" x2="252" y1="168.7852" y2="168.7852"/><polygon fill="#181818" points="221,164.7852,211,168.7852,221,172.7852,217,168.7852" style="stroke:#181818;stroke-width:1.0;"/><text fill="#000000" font-family="sans-serif" font-size="13" font-weight="bold" lengthAdjust="spacing" textLength="25" x="217" y="150.5225">11.2</text><text fill="#000000" font-family="sans-serif" font-size="13" lengthAdjust="spacing" textLength="165" x="246" y="150.5225">addCollaborator(collaborator)</text><line style="stroke:#181818;stroke-width:1.0;" x1="210" x2="257" y1="200.0762" y2="200.0762"/><line style="stroke:#181818;stroke-width:1.0;" x1="257" x2="257" y1="200.0762" y2="213.0762"/><line style="stroke:#181818;stroke-width:1.0;" x1="216" x2="257" y1="213.0762" y2="213.0762"/><polygon fill="#181818" points="226,209.0762,216,213.0762,226,217.0762,222,213.0762" style="stroke:#181818;stroke-width:1.0;"/><text fill="#000000" font-family="sans-serif" font-size="13" font-weight="bold" lengthAdjust="spacing" textLength="25" x="222" y="194.8135">11.3</text><text fill="#000000" font-family="sans-serif" font-size="13" lengthAdjust="spacing" textLength="187" x="251" y="194.8135">validateCollaborator(collaborator)</text><polygon fill="#181818" points="11,252.3672,1,256.3672,11,260.3672,7,256.3672" style="stroke:#181818;stroke-width:1.0;"/><line style="stroke:#181818;stroke-width:1.0;stroke-dasharray:2.0,2.0;" x1="5" x2="199" y1="256.3672" y2="256.3672"/><text fill="#000000" font-family="sans-serif" font-size="13" font-weight="bold" lengthAdjust="spacing" textLength="14" x="17" y="251.1045">12</text><text fill="#000000" font-family="sans-serif" font-size="13" lengthAdjust="spacing" textLength="67" x="35" y="251.1045">collaborator</text><!--SRC=[hP51JWCn34NtFeMNi1YaOLaXDjoWdC1DJ1er4qUEfwYt9ukAPYf6j0YlajZ-_tsb7c8kf3JX95dSNcLYD9qPwdUda3jGu7Sx9KPbPvH3wWVgdhnynXpmWr9bWFPiqSL2sV1DKgATA9debelKs0wdrH40catoFErOSHnXU5rHs3IK4Aknzlq7pqOnrSShdQSHo5ayal4Q4ROAAdF1xLbu2ORd-daThq0tw9IRsmNellq-A7c_oEYwoqNtbdn_PpXIYhwftm1o3n1d3yklUeQNOLZ5w1t1ysyM_p3n1G00]--></g></svg>