<?xml version="1.0" encoding="us-ascii" standalone="no"?><svg xmlns="http://www.w3.org/2000/svg" xmlns:xlink="http://www.w3.org/1999/xlink" contentStyleType="text/css" height="775px" preserveAspectRatio="none" style="width:1088px;height:775px;background:#FFFFFF;" version="1.1" viewBox="0 0 1088 775" width="1088px" zoomAndPan="magnify"><defs/><g><rect fill="#FFFFFF" height="580.8984" style="stroke:#181818;stroke-width:1.0;" width="10" x="18" y="93.6211"/><rect fill="#FFFFFF" height="31.291" style="stroke:#181818;stroke-width:1.0;" width="10" x="297" y="116.9121"/><rect fill="#FFFFFF" height="31.291" style="stroke:#181818;stroke-width:1.0;" width="10" x="297" y="179.4941"/><rect fill="#FFFFFF" height="432.4434" style="stroke:#181818;stroke-width:1.0;" width="10" x="297" y="242.0762"/><rect fill="#FFFFFF" height="369.8613" style="stroke:#181818;stroke-width:1.0;" width="10" x="500" y="273.3672"/><rect fill="#FFFFFF" height="31.291" style="stroke:#181818;stroke-width:1.0;" width="10" x="660" y="304.6582"/><rect fill="#FFFFFF" height="31.291" style="stroke:#181818;stroke-width:1.0;" width="10" x="796.5" y="367.2402"/><rect fill="#FFFFFF" height="182.1152" style="stroke:#181818;stroke-width:1.0;" width="10" x="796.5" y="429.8223"/><rect fill="#FFFFFF" height="80.582" style="stroke:#181818;stroke-width:1.0;" width="10" x="801.5" y="531.3555"/><rect fill="#FFFFFF" height="36.291" style="stroke:#181818;stroke-width:1.0;" width="10" x="806.5" y="575.6465"/><line style="stroke:#181818;stroke-width:0.5;stroke-dasharray:5.0,5.0;" x1="23" x2="23" y1="83.6211" y2="692.5195"/><line style="stroke:#181818;stroke-width:0.5;stroke-dasharray:5.0,5.0;" x1="301.5" x2="301.5" y1="83.6211" y2="692.5195"/><line style="stroke:#181818;stroke-width:0.5;stroke-dasharray:5.0,5.0;" x1="504.5" x2="504.5" y1="83.6211" y2="692.5195"/><line style="stroke:#181818;stroke-width:0.5;stroke-dasharray:5.0,5.0;" x1="664.5" x2="664.5" y1="83.6211" y2="692.5195"/><line style="stroke:#181818;stroke-width:0.5;stroke-dasharray:5.0,5.0;" x1="801.5" x2="801.5" y1="83.6211" y2="692.5195"/><line style="stroke:#181818;stroke-width:0.5;stroke-dasharray:5.0,5.0;" x1="1035" x2="1035" y1="478.9434" y2="692.5195"/><text fill="#000000" font-family="sans-serif" font-size="14" lengthAdjust="spacing" textLength="30" x="5" y="80.1074">HRM</text><ellipse cx="23" cy="13.5" fill="#E3E3E3" rx="8" ry="8" style="stroke:#181818;stroke-width:0.5;"/><path d="M23,21.5 L23,48.5 M10,29.5 L36,29.5 M23,48.5 L10,63.5 M23,48.5 L36,63.5 " fill="none" style="stroke:#181818;stroke-width:0.5;"/><text fill="#000000" font-family="sans-serif" font-size="14" lengthAdjust="spacing" textLength="30" x="5" y="706.627">HRM</text><ellipse cx="23" cy="718.6406" fill="#E3E3E3" rx="8" ry="8" style="stroke:#181818;stroke-width:0.5;"/><path d="M23,726.6406 L23,753.6406 M10,734.6406 L36,734.6406 M23,753.6406 L10,768.6406 M23,753.6406 L36,768.6406 " fill="none" style="stroke:#181818;stroke-width:0.5;"/><rect fill="#E3E3E3" height="32.6211" rx="2.5" ry="2.5" style="stroke:#181818;stroke-width:0.5;" width="157" x="223.5" y="50"/><text fill="#000000" font-family="sans-serif" font-size="14" lengthAdjust="spacing" textLength="143" x="230.5" y="72.1074">RegisterCollaboratorUI</text><rect fill="#E3E3E3" height="32.6211" rx="2.5" ry="2.5" style="stroke:#181818;stroke-width:0.5;" width="157" x="223.5" y="691.5195"/><text fill="#000000" font-family="sans-serif" font-size="14" lengthAdjust="spacing" textLength="143" x="230.5" y="713.627">RegisterCollaboratorUI</text><rect fill="#E3E3E3" height="32.6211" rx="2.5" ry="2.5" style="stroke:#181818;stroke-width:0.5;" width="207" x="401.5" y="50"/><text fill="#000000" font-family="sans-serif" font-size="14" lengthAdjust="spacing" textLength="193" x="408.5" y="72.1074">RegisterCollaboratorController</text><rect fill="#E3E3E3" height="32.6211" rx="2.5" ry="2.5" style="stroke:#181818;stroke-width:0.5;" width="207" x="401.5" y="691.5195"/><text fill="#000000" font-family="sans-serif" font-size="14" lengthAdjust="spacing" textLength="193" x="408.5" y="713.627">RegisterCollaboratorController</text><rect fill="#E3E3E3" height="32.6211" rx="2.5" ry="2.5" style="stroke:#181818;stroke-width:0.5;" width="93" x="618.5" y="50"/><text fill="#000000" font-family="sans-serif" font-size="14" lengthAdjust="spacing" textLength="79" x="625.5" y="72.1074">Repositories</text><rect fill="#E3E3E3" height="32.6211" rx="2.5" ry="2.5" style="stroke:#181818;stroke-width:0.5;" width="93" x="618.5" y="691.5195"/><text fill="#000000" font-family="sans-serif" font-size="14" lengthAdjust="spacing" textLength="79" x="625.5" y="713.627">Repositories</text><rect fill="#E3E3E3" height="32.6211" rx="2.5" ry="2.5" style="stroke:#181818;stroke-width:0.5;" width="160" x="721.5" y="50"/><text fill="#000000" font-family="sans-serif" font-size="14" lengthAdjust="spacing" textLength="146" x="728.5" y="72.1074">CollaboratorRepository</text><rect fill="#E3E3E3" height="32.6211" rx="2.5" ry="2.5" style="stroke:#181818;stroke-width:0.5;" width="160" x="721.5" y="691.5195"/><text fill="#000000" font-family="sans-serif" font-size="14" lengthAdjust="spacing" textLength="146" x="728.5" y="713.627">CollaboratorRepository</text><rect fill="#E3E3E3" height="51.2422" rx="2.5" ry="2.5" style="stroke:#181818;stroke-width:0.5;" width="93" x="989" y="691.5195"/><text fill="#000000" font-family="sans-serif" font-size="14" lengthAdjust="spacing" textLength="79" x="996" y="713.627">collaborator:</text><text fill="#000000" font-family="sans-serif" font-size="14" lengthAdjust="spacing" textLength="78" x="996.5" y="732.248">Collaborator</text><rect fill="#FFFFFF" height="580.8984" style="stroke:#181818;stroke-width:1.0;" width="10" x="18" y="93.6211"/><rect fill="#FFFFFF" height="31.291" style="stroke:#181818;stroke-width:1.0;" width="10" x="297" y="116.9121"/><rect fill="#FFFFFF" height="31.291" style="stroke:#181818;stroke-width:1.0;" width="10" x="297" y="179.4941"/><rect fill="#FFFFFF" height="432.4434" style="stroke:#181818;stroke-width:1.0;" width="10" x="297" y="242.0762"/><rect fill="#FFFFFF" height="369.8613" style="stroke:#181818;stroke-width:1.0;" width="10" x="500" y="273.3672"/><rect fill="#FFFFFF" height="31.291" style="stroke:#181818;stroke-width:1.0;" width="10" x="660" y="304.6582"/><rect fill="#FFFFFF" height="31.291" style="stroke:#181818;stroke-width:1.0;" width="10" x="796.5" y="367.2402"/><rect fill="#FFFFFF" height="182.1152" style="stroke:#181818;stroke-width:1.0;" width="10" x="796.5" y="429.8223"/><rect fill="#FFFFFF" height="80.582" style="stroke:#181818;stroke-width:1.0;" width="10" x="801.5" y="531.3555"/><rect fill="#FFFFFF" height="36.291" style="stroke:#181818;stroke-width:1.0;" width="10" x="806.5" y="575.6465"/><polygon fill="#181818" points="285,112.9121,295,116.9121,285,120.9121,289,116.9121" style="stroke:#181818;stroke-width:1.0;"/><line style="stroke:#181818;stroke-width:1.0;" x1="28" x2="291" y1="116.9121" y2="116.9121"/><text fill="#000000" font-family="sans-serif" font-size="13" font-weight="bold" lengthAdjust="spacing" textLength="7" x="35" y="111.6494">1</text><text fill="#000000" font-family="sans-serif" font-size="13" lengthAdjust="spacing" textLength="192" x="46" y="111.6494">Request to register a collaborator</text><polygon fill="#181818" points="39,144.2031,29,148.2031,39,152.2031,35,148.2031" style="stroke:#181818;stroke-width:1.0;"/><line style="stroke:#181818;stroke-width:1.0;" x1="33" x2="301" y1="148.2031" y2="148.2031"/><text fill="#000000" font-family="sans-serif" font-size="13" font-weight="bold" lengthAdjust="spacing" textLength="7" x="45" y="142.9404">2</text><text fill="#000000" font-family="sans-serif" font-size="13" lengthAdjust="spacing" textLength="168" x="56" y="142.9404">Requests collaborator details</text><polygon fill="#181818" points="285,175.4941,295,179.4941,285,183.4941,289,179.4941" style="stroke:#181818;stroke-width:1.0;"/><line style="stroke:#181818;stroke-width:1.0;" x1="28" x2="291" y1="179.4941" y2="179.4941"/><text fill="#000000" font-family="sans-serif" font-size="13" font-weight="bold" lengthAdjust="spacing" textLength="7" x="35" y="174.2314">3</text><text fill="#000000" font-family="sans-serif" font-size="13" lengthAdjust="spacing" textLength="162" x="46" y="174.2314">Provides collaborator details</text><polygon fill="#181818" points="39,206.7852,29,210.7852,39,214.7852,35,210.7852" style="stroke:#181818;stroke-width:1.0;"/><line style="stroke:#181818;stroke-width:1.0;" x1="33" x2="301" y1="210.7852" y2="210.7852"/><text fill="#000000" font-family="sans-serif" font-size="13" font-weight="bold" lengthAdjust="spacing" textLength="7" x="45" y="205.5225">4</text><text fill="#000000" font-family="sans-serif" font-size="13" lengthAdjust="spacing" textLength="234" x="56" y="205.5225">Shows details and requests confirmation</text><polygon fill="#181818" points="285,238.0762,295,242.0762,285,246.0762,289,242.0762" style="stroke:#181818;stroke-width:1.0;"/><line style="stroke:#181818;stroke-width:1.0;" x1="28" x2="291" y1="242.0762" y2="242.0762"/><text fill="#000000" font-family="sans-serif" font-size="13" font-weight="bold" lengthAdjust="spacing" textLength="7" x="35" y="236.8135">5</text><text fill="#000000" font-family="sans-serif" font-size="13" lengthAdjust="spacing" textLength="93" x="46" y="236.8135">Confirms details</text><polygon fill="#181818" points="488,269.3672,498,273.3672,488,277.3672,492,273.3672" style="stroke:#181818;stroke-width:1.0;"/><line style="stroke:#181818;stroke-width:1.0;" x1="307" x2="494" y1="273.3672" y2="273.3672"/><text fill="#000000" font-family="sans-serif" font-size="13" font-weight="bold" lengthAdjust="spacing" textLength="7" x="314" y="268.1045">6</text><text fill="#000000" font-family="sans-serif" font-size="13" lengthAdjust="spacing" textLength="163" x="325" y="268.1045">RegisterCollaborator(details)</text><polygon fill="#181818" points="648,300.6582,658,304.6582,648,308.6582,652,304.6582" style="stroke:#181818;stroke-width:1.0;"/><line style="stroke:#181818;stroke-width:1.0;" x1="510" x2="654" y1="304.6582" y2="304.6582"/><text fill="#000000" font-family="sans-serif" font-size="13" font-weight="bold" lengthAdjust="spacing" textLength="7" x="517" y="299.3955">7</text><text fill="#000000" font-family="sans-serif" font-size="13" lengthAdjust="spacing" textLength="75" x="528" y="299.3955">getInstance()</text><polygon fill="#181818" points="521,331.9492,511,335.9492,521,339.9492,517,335.9492" style="stroke:#181818;stroke-width:1.0;"/><line style="stroke:#181818;stroke-width:1.0;" x1="515" x2="664" y1="335.9492" y2="335.9492"/><text fill="#000000" font-family="sans-serif" font-size="13" font-weight="bold" lengthAdjust="spacing" textLength="7" x="527" y="330.6865">8</text><text fill="#000000" font-family="sans-serif" font-size="13" lengthAdjust="spacing" textLength="67" x="538" y="330.6865">repositories</text><polygon fill="#181818" points="784.5,363.2402,794.5,367.2402,784.5,371.2402,788.5,367.2402" style="stroke:#181818;stroke-width:1.0;"/><line style="stroke:#181818;stroke-width:1.0;" x1="510" x2="790.5" y1="367.2402" y2="367.2402"/><text fill="#000000" font-family="sans-serif" font-size="13" font-weight="bold" lengthAdjust="spacing" textLength="7" x="517" y="361.9775">9</text><text fill="#000000" font-family="sans-serif" font-size="13" lengthAdjust="spacing" textLength="157" x="528" y="361.9775">getCollaboratorRepository()</text><polygon fill="#181818" points="521,394.5313,511,398.5313,521,402.5313,517,398.5313" style="stroke:#181818;stroke-width:1.0;"/><line style="stroke:#181818;stroke-width:1.0;" x1="515" x2="800.5" y1="398.5313" y2="398.5313"/><text fill="#000000" font-family="sans-serif" font-size="13" font-weight="bold" lengthAdjust="spacing" textLength="14" x="527" y="393.2686">10</text><text fill="#000000" font-family="sans-serif" font-size="13" lengthAdjust="spacing" textLength="129" x="545" y="393.2686">collaboratorRepository</text><polygon fill="#181818" points="784.5,425.8223,794.5,429.8223,784.5,433.8223,788.5,429.8223" style="stroke:#181818;stroke-width:1.0;"/><line style="stroke:#181818;stroke-width:1.0;" x1="510" x2="790.5" y1="429.8223" y2="429.8223"/><text fill="#000000" font-family="sans-serif" font-size="13" font-weight="bold" lengthAdjust="spacing" textLength="14" x="517" y="424.5596">11</text><text fill="#000000" font-family="sans-serif" font-size="13" lengthAdjust="spacing" textLength="158" x="535" y="424.5596">registerCollaborator(details)</text><polygon fill="#181818" points="977,457.1133,987,461.1133,977,465.1133,981,461.1133" style="stroke:#181818;stroke-width:1.0;"/><line style="stroke:#181818;stroke-width:1.0;" x1="806.5" x2="983" y1="461.1133" y2="461.1133"/><text fill="#000000" font-family="sans-serif" font-size="13" font-weight="bold" lengthAdjust="spacing" textLength="14" x="813.5" y="455.8506">12</text><text fill="#000000" font-family="sans-serif" font-size="13" lengthAdjust="spacing" textLength="82" x="831.5" y="455.8506">create(details)</text><rect fill="#E3E3E3" height="51.2422" rx="2.5" ry="2.5" style="stroke:#181818;stroke-width:0.5;" width="93" x="989" y="437.8223"/><text fill="#000000" font-family="sans-serif" font-size="14" lengthAdjust="spacing" textLength="79" x="996" y="459.9297">collaborator:</text><text fill="#000000" font-family="sans-serif" font-size="14" lengthAdjust="spacing" textLength="78" x="996.5" y="478.5508">Collaborator</text><line style="stroke:#181818;stroke-width:1.0;" x1="806.5" x2="853.5" y1="518.3555" y2="518.3555"/><line style="stroke:#181818;stroke-width:1.0;" x1="853.5" x2="853.5" y1="518.3555" y2="531.3555"/><line style="stroke:#181818;stroke-width:1.0;" x1="812.5" x2="853.5" y1="531.3555" y2="531.3555"/><polygon fill="#181818" points="822.5,527.3555,812.5,531.3555,822.5,535.3555,818.5,531.3555" style="stroke:#181818;stroke-width:1.0;"/><text fill="#000000" font-family="sans-serif" font-size="13" font-weight="bold" lengthAdjust="spacing" textLength="14" x="818.5" y="513.0928">13</text><text fill="#000000" font-family="sans-serif" font-size="13" lengthAdjust="spacing" textLength="165" x="836.5" y="513.0928">addCollaborator(collaborator)</text><line style="stroke:#181818;stroke-width:1.0;" x1="811.5" x2="858.5" y1="562.6465" y2="562.6465"/><line style="stroke:#181818;stroke-width:1.0;" x1="858.5" x2="858.5" y1="562.6465" y2="575.6465"/><line style="stroke:#181818;stroke-width:1.0;" x1="817.5" x2="858.5" y1="575.6465" y2="575.6465"/><polygon fill="#181818" points="827.5,571.6465,817.5,575.6465,827.5,579.6465,823.5,575.6465" style="stroke:#181818;stroke-width:1.0;"/><text fill="#000000" font-family="sans-serif" font-size="13" font-weight="bold" lengthAdjust="spacing" textLength="14" x="823.5" y="557.3838">14</text><text fill="#000000" font-family="sans-serif" font-size="13" lengthAdjust="spacing" textLength="187" x="841.5" y="557.3838">validateCollaborator(collaborator)</text><polygon fill="#181818" points="521,607.9375,511,611.9375,521,615.9375,517,611.9375" style="stroke:#181818;stroke-width:1.0;"/><line style="stroke:#181818;stroke-width:1.0;stroke-dasharray:2.0,2.0;" x1="515" x2="800.5" y1="611.9375" y2="611.9375"/><text fill="#000000" font-family="sans-serif" font-size="13" font-weight="bold" lengthAdjust="spacing" textLength="14" x="527" y="606.6748">15</text><text fill="#000000" font-family="sans-serif" font-size="13" lengthAdjust="spacing" textLength="67" x="545" y="606.6748">collaborator</text><polygon fill="#181818" points="318,639.2285,308,643.2285,318,647.2285,314,643.2285" style="stroke:#181818;stroke-width:1.0;"/><line style="stroke:#181818;stroke-width:1.0;stroke-dasharray:2.0,2.0;" x1="312" x2="504" y1="643.2285" y2="643.2285"/><text fill="#000000" font-family="sans-serif" font-size="13" font-weight="bold" lengthAdjust="spacing" textLength="14" x="324" y="637.9658">16</text><text fill="#000000" font-family="sans-serif" font-size="13" lengthAdjust="spacing" textLength="67" x="342" y="637.9658">collaborator</text><polygon fill="#181818" points="34,670.5195,24,674.5195,34,678.5195,30,674.5195" style="stroke:#181818;stroke-width:1.0;"/><line style="stroke:#181818;stroke-width:1.0;stroke-dasharray:2.0,2.0;" x1="28" x2="301" y1="674.5195" y2="674.5195"/><text fill="#000000" font-family="sans-serif" font-size="13" font-weight="bold" lengthAdjust="spacing" textLength="14" x="40" y="669.2568">17</text><text fill="#000000" font-family="sans-serif" font-size="13" lengthAdjust="spacing" textLength="151" x="58" y="669.2568">display operation success</text><!--SRC=[hLMzRi8m4Dxp52ScGEeBPEZ2KePA5QXRbyC-WeLZfxO3ukrhe0HRYfD0YCGGt-VlnpaVTYzKXGPBABNIR6TqIU1CJPbjAXMoFHQqTYT9O8WvL8KC0NQ7N1-5Ac2BqbAMOUsqgiiDcGoPqmO-Lf-Pnph1H8NAmOeAOHsPXPOIDzgW1tqlUo4BhPpnxvutXbRQ2byNPAD2kBS1dIB8X0MO_4U5MoQ05i9wTeuZ3kZeaiZ_uEqz4IRtwxyrMGTE-rExGW1ZleOkSI3josTHhzqen2Q1aqCXRSQfZxudm9VH1y4fGJ_I-tgdZ_P61gYuFwGcZTeAKw8JMerFiRYosHSOx-x9lBK-_PUTTUi6hTrTllguDtmE1RcbilvMCff6Ai6j25-6937XvkWJHAHzHjiluCLoUoaCaBYzxSj3Gh5smY1UGlBve6POHpmSDOmod_jeXZpFdJczC-KKEOzCXWgpR8JLbE01fU2USOogVrB23_R3W2vu1QAlaphcMChj4zFaFCrkSvWBMqayWQx8N2Oks9eniaF-FmA4v_e3]--></g></svg>