<?xml version="1.0" encoding="us-ascii" standalone="no"?><svg xmlns="http://www.w3.org/2000/svg" xmlns:xlink="http://www.w3.org/1999/xlink" contentStyleType="text/css" height="775px" preserveAspectRatio="none" style="width:1048px;height:775px;background:#FFFFFF;" version="1.1" viewBox="0 0 1048 775" width="1048px" zoomAndPan="magnify"><defs/><g><rect fill="#FFFFFF" height="580.8984" style="stroke:#181818;stroke-width:1.0;" width="10" x="18" y="93.6211"/><rect fill="#FFFFFF" height="31.291" style="stroke:#181818;stroke-width:1.0;" width="10" x="286" y="116.9121"/><rect fill="#FFFFFF" height="31.291" style="stroke:#181818;stroke-width:1.0;" width="10" x="286" y="179.4941"/><rect fill="#FFFFFF" height="432.4434" style="stroke:#181818;stroke-width:1.0;" width="10" x="286" y="242.0762"/><rect fill="#FFFFFF" height="369.8613" style="stroke:#181818;stroke-width:1.0;" width="10" x="478" y="273.3672"/><rect fill="#FFFFFF" height="31.291" style="stroke:#181818;stroke-width:1.0;" width="10" x="638" y="304.6582"/><rect fill="#FFFFFF" height="31.291" style="stroke:#181818;stroke-width:1.0;" width="10" x="774.5" y="367.2402"/><rect fill="#FFFFFF" height="182.1152" style="stroke:#181818;stroke-width:1.0;" width="10" x="774.5" y="429.8223"/><rect fill="#FFFFFF" height="80.582" style="stroke:#181818;stroke-width:1.0;" width="10" x="779.5" y="531.3555"/><rect fill="#FFFFFF" height="36.291" style="stroke:#181818;stroke-width:1.0;" width="10" x="784.5" y="575.6465"/><line style="stroke:#181818;stroke-width:0.5;stroke-dasharray:5.0,5.0;" x1="23" x2="23" y1="83.6211" y2="692.5195"/><line style="stroke:#181818;stroke-width:0.5;stroke-dasharray:5.0,5.0;" x1="290.5" x2="290.5" y1="83.6211" y2="692.5195"/><line style="stroke:#181818;stroke-width:0.5;stroke-dasharray:5.0,5.0;" x1="482.5" x2="482.5" y1="83.6211" y2="692.5195"/><line style="stroke:#181818;stroke-width:0.5;stroke-dasharray:5.0,5.0;" x1="642.5" x2="642.5" y1="83.6211" y2="692.5195"/><line style="stroke:#181818;stroke-width:0.5;stroke-dasharray:5.0,5.0;" x1="779.5" x2="779.5" y1="83.6211" y2="692.5195"/><line style="stroke:#181818;stroke-width:0.5;stroke-dasharray:5.0,5.0;" x1="995" x2="995" y1="478.9434" y2="692.5195"/><text fill="#000000" font-family="sans-serif" font-size="14" lengthAdjust="spacing" textLength="30" x="5" y="80.1074">HRM</text><ellipse cx="23" cy="13.5" fill="#E3E3E3" rx="8" ry="8" style="stroke:#181818;stroke-width:0.5;"/><path d="M23,21.5 L23,48.5 M10,29.5 L36,29.5 M23,48.5 L10,63.5 M23,48.5 L36,63.5 " fill="none" style="stroke:#181818;stroke-width:0.5;"/><text fill="#000000" font-family="sans-serif" font-size="14" lengthAdjust="spacing" textLength="30" x="5" y="706.627">HRM</text><ellipse cx="23" cy="718.6406" fill="#E3E3E3" rx="8" ry="8" style="stroke:#181818;stroke-width:0.5;"/><path d="M23,726.6406 L23,753.6406 M10,734.6406 L36,734.6406 M23,753.6406 L10,768.6406 M23,753.6406 L36,768.6406 " fill="none" style="stroke:#181818;stroke-width:0.5;"/><rect fill="#E3E3E3" height="32.6211" rx="2.5" ry="2.5" style="stroke:#181818;stroke-width:0.5;" width="157" x="212.5" y="50"/><text fill="#000000" font-family="sans-serif" font-size="14" lengthAdjust="spacing" textLength="143" x="219.5" y="72.1074">RegisterCollaboratorUI</text><rect fill="#E3E3E3" height="32.6211" rx="2.5" ry="2.5" style="stroke:#181818;stroke-width:0.5;" width="157" x="212.5" y="691.5195"/><text fill="#000000" font-family="sans-serif" font-size="14" lengthAdjust="spacing" textLength="143" x="219.5" y="713.627">RegisterCollaboratorUI</text><rect fill="#E3E3E3" height="32.6211" rx="2.5" ry="2.5" style="stroke:#181818;stroke-width:0.5;" width="207" x="379.5" y="50"/><text fill="#000000" font-family="sans-serif" font-size="14" lengthAdjust="spacing" textLength="193" x="386.5" y="72.1074">RegisterCollaboratorController</text><rect fill="#E3E3E3" height="32.6211" rx="2.5" ry="2.5" style="stroke:#181818;stroke-width:0.5;" width="207" x="379.5" y="691.5195"/><text fill="#000000" font-family="sans-serif" font-size="14" lengthAdjust="spacing" textLength="193" x="386.5" y="713.627">RegisterCollaboratorController</text><rect fill="#E3E3E3" height="32.6211" rx="2.5" ry="2.5" style="stroke:#181818;stroke-width:0.5;" width="93" x="596.5" y="50"/><text fill="#000000" font-family="sans-serif" font-size="14" lengthAdjust="spacing" textLength="79" x="603.5" y="72.1074">Repositories</text><rect fill="#E3E3E3" height="32.6211" rx="2.5" ry="2.5" style="stroke:#181818;stroke-width:0.5;" width="93" x="596.5" y="691.5195"/><text fill="#000000" font-family="sans-serif" font-size="14" lengthAdjust="spacing" textLength="79" x="603.5" y="713.627">Repositories</text><rect fill="#E3E3E3" height="32.6211" rx="2.5" ry="2.5" style="stroke:#181818;stroke-width:0.5;" width="160" x="699.5" y="50"/><text fill="#000000" font-family="sans-serif" font-size="14" lengthAdjust="spacing" textLength="146" x="706.5" y="72.1074">CollaboratorRepository</text><rect fill="#E3E3E3" height="32.6211" rx="2.5" ry="2.5" style="stroke:#181818;stroke-width:0.5;" width="160" x="699.5" y="691.5195"/><text fill="#000000" font-family="sans-serif" font-size="14" lengthAdjust="spacing" textLength="146" x="706.5" y="713.627">CollaboratorRepository</text><rect fill="#E3E3E3" height="51.2422" rx="2.5" ry="2.5" style="stroke:#181818;stroke-width:0.5;" width="93" x="949" y="691.5195"/><text fill="#000000" font-family="sans-serif" font-size="14" lengthAdjust="spacing" textLength="79" x="956" y="713.627">collaborator:</text><text fill="#000000" font-family="sans-serif" font-size="14" lengthAdjust="spacing" textLength="78" x="956.5" y="732.248">Collaborator</text><rect fill="#FFFFFF" height="580.8984" style="stroke:#181818;stroke-width:1.0;" width="10" x="18" y="93.6211"/><rect fill="#FFFFFF" height="31.291" style="stroke:#181818;stroke-width:1.0;" width="10" x="286" y="116.9121"/><rect fill="#FFFFFF" height="31.291" style="stroke:#181818;stroke-width:1.0;" width="10" x="286" y="179.4941"/><rect fill="#FFFFFF" height="432.4434" style="stroke:#181818;stroke-width:1.0;" width="10" x="286" y="242.0762"/><rect fill="#FFFFFF" height="369.8613" style="stroke:#181818;stroke-width:1.0;" width="10" x="478" y="273.3672"/><rect fill="#FFFFFF" height="31.291" style="stroke:#181818;stroke-width:1.0;" width="10" x="638" y="304.6582"/><rect fill="#FFFFFF" height="31.291" style="stroke:#181818;stroke-width:1.0;" width="10" x="774.5" y="367.2402"/><rect fill="#FFFFFF" height="182.1152" style="stroke:#181818;stroke-width:1.0;" width="10" x="774.5" y="429.8223"/><rect fill="#FFFFFF" height="80.582" style="stroke:#181818;stroke-width:1.0;" width="10" x="779.5" y="531.3555"/><rect fill="#FFFFFF" height="36.291" style="stroke:#181818;stroke-width:1.0;" width="10" x="784.5" y="575.6465"/><polygon fill="#181818" points="274,112.9121,284,116.9121,274,120.9121,278,116.9121" style="stroke:#181818;stroke-width:1.0;"/><line style="stroke:#181818;stroke-width:1.0;" x1="28" x2="280" y1="116.9121" y2="116.9121"/><text fill="#000000" font-family="sans-serif" font-size="13" lengthAdjust="spacing" textLength="192" x="35" y="111.6494">Request to register a collaborator</text><polygon fill="#181818" points="39,144.2031,29,148.2031,39,152.2031,35,148.2031" style="stroke:#181818;stroke-width:1.0;"/><line style="stroke:#181818;stroke-width:1.0;" x1="33" x2="290" y1="148.2031" y2="148.2031"/><text fill="#000000" font-family="sans-serif" font-size="13" lengthAdjust="spacing" textLength="168" x="45" y="142.9404">Requests collaborator details</text><polygon fill="#181818" points="274,175.4941,284,179.4941,274,183.4941,278,179.4941" style="stroke:#181818;stroke-width:1.0;"/><line style="stroke:#181818;stroke-width:1.0;" x1="28" x2="280" y1="179.4941" y2="179.4941"/><text fill="#000000" font-family="sans-serif" font-size="13" lengthAdjust="spacing" textLength="162" x="35" y="174.2314">Provides collaborator details</text><polygon fill="#181818" points="39,206.7852,29,210.7852,39,214.7852,35,210.7852" style="stroke:#181818;stroke-width:1.0;"/><line style="stroke:#181818;stroke-width:1.0;" x1="33" x2="290" y1="210.7852" y2="210.7852"/><text fill="#000000" font-family="sans-serif" font-size="13" lengthAdjust="spacing" textLength="234" x="45" y="205.5225">Shows details and requests confirmation</text><polygon fill="#181818" points="274,238.0762,284,242.0762,274,246.0762,278,242.0762" style="stroke:#181818;stroke-width:1.0;"/><line style="stroke:#181818;stroke-width:1.0;" x1="28" x2="280" y1="242.0762" y2="242.0762"/><text fill="#000000" font-family="sans-serif" font-size="13" lengthAdjust="spacing" textLength="93" x="35" y="236.8135">Confirms details</text><polygon fill="#181818" points="466,269.3672,476,273.3672,466,277.3672,470,273.3672" style="stroke:#181818;stroke-width:1.0;"/><line style="stroke:#181818;stroke-width:1.0;" x1="296" x2="472" y1="273.3672" y2="273.3672"/><text fill="#000000" font-family="sans-serif" font-size="13" lengthAdjust="spacing" textLength="163" x="303" y="268.1045">RegisterCollaborator(details)</text><polygon fill="#181818" points="626,300.6582,636,304.6582,626,308.6582,630,304.6582" style="stroke:#181818;stroke-width:1.0;"/><line style="stroke:#181818;stroke-width:1.0;" x1="488" x2="632" y1="304.6582" y2="304.6582"/><text fill="#000000" font-family="sans-serif" font-size="13" lengthAdjust="spacing" textLength="75" x="495" y="299.3955">getInstance()</text><polygon fill="#181818" points="499,331.9492,489,335.9492,499,339.9492,495,335.9492" style="stroke:#181818;stroke-width:1.0;"/><line style="stroke:#181818;stroke-width:1.0;" x1="493" x2="642" y1="335.9492" y2="335.9492"/><text fill="#000000" font-family="sans-serif" font-size="13" lengthAdjust="spacing" textLength="67" x="505" y="330.6865">repositories</text><polygon fill="#181818" points="762.5,363.2402,772.5,367.2402,762.5,371.2402,766.5,367.2402" style="stroke:#181818;stroke-width:1.0;"/><line style="stroke:#181818;stroke-width:1.0;" x1="488" x2="768.5" y1="367.2402" y2="367.2402"/><text fill="#000000" font-family="sans-serif" font-size="13" lengthAdjust="spacing" textLength="157" x="495" y="361.9775">getCollaboratorRepository()</text><polygon fill="#181818" points="499,394.5313,489,398.5313,499,402.5313,495,398.5313" style="stroke:#181818;stroke-width:1.0;"/><line style="stroke:#181818;stroke-width:1.0;" x1="493" x2="778.5" y1="398.5313" y2="398.5313"/><text fill="#000000" font-family="sans-serif" font-size="13" lengthAdjust="spacing" textLength="129" x="505" y="393.2686">collaboratorRepository</text><polygon fill="#181818" points="762.5,425.8223,772.5,429.8223,762.5,433.8223,766.5,429.8223" style="stroke:#181818;stroke-width:1.0;"/><line style="stroke:#181818;stroke-width:1.0;" x1="488" x2="768.5" y1="429.8223" y2="429.8223"/><text fill="#000000" font-family="sans-serif" font-size="13" lengthAdjust="spacing" textLength="158" x="495" y="424.5596">registerCollaborator(details)</text><polygon fill="#181818" points="937,457.1133,947,461.1133,937,465.1133,941,461.1133" style="stroke:#181818;stroke-width:1.0;"/><line style="stroke:#181818;stroke-width:1.0;" x1="784.5" x2="943" y1="461.1133" y2="461.1133"/><text fill="#000000" font-family="sans-serif" font-size="13" lengthAdjust="spacing" textLength="82" x="791.5" y="455.8506">create(details)</text><rect fill="#E3E3E3" height="51.2422" rx="2.5" ry="2.5" style="stroke:#181818;stroke-width:0.5;" width="93" x="949" y="437.8223"/><text fill="#000000" font-family="sans-serif" font-size="14" lengthAdjust="spacing" textLength="79" x="956" y="459.9297">collaborator:</text><text fill="#000000" font-family="sans-serif" font-size="14" lengthAdjust="spacing" textLength="78" x="956.5" y="478.5508">Collaborator</text><line style="stroke:#181818;stroke-width:1.0;" x1="784.5" x2="831.5" y1="518.3555" y2="518.3555"/><line style="stroke:#181818;stroke-width:1.0;" x1="831.5" x2="831.5" y1="518.3555" y2="531.3555"/><line style="stroke:#181818;stroke-width:1.0;" x1="790.5" x2="831.5" y1="531.3555" y2="531.3555"/><polygon fill="#181818" points="800.5,527.3555,790.5,531.3555,800.5,535.3555,796.5,531.3555" style="stroke:#181818;stroke-width:1.0;"/><text fill="#000000" font-family="sans-serif" font-size="13" lengthAdjust="spacing" textLength="165" x="796.5" y="513.0928">addCollaborator(collaborator)</text><line style="stroke:#181818;stroke-width:1.0;" x1="789.5" x2="836.5" y1="562.6465" y2="562.6465"/><line style="stroke:#181818;stroke-width:1.0;" x1="836.5" x2="836.5" y1="562.6465" y2="575.6465"/><line style="stroke:#181818;stroke-width:1.0;" x1="795.5" x2="836.5" y1="575.6465" y2="575.6465"/><polygon fill="#181818" points="805.5,571.6465,795.5,575.6465,805.5,579.6465,801.5,575.6465" style="stroke:#181818;stroke-width:1.0;"/><text fill="#000000" font-family="sans-serif" font-size="13" lengthAdjust="spacing" textLength="187" x="801.5" y="557.3838">validateCollaborator(collaborator)</text><polygon fill="#181818" points="499,607.9375,489,611.9375,499,615.9375,495,611.9375" style="stroke:#181818;stroke-width:1.0;"/><line style="stroke:#181818;stroke-width:1.0;stroke-dasharray:2.0,2.0;" x1="493" x2="778.5" y1="611.9375" y2="611.9375"/><text fill="#000000" font-family="sans-serif" font-size="13" lengthAdjust="spacing" textLength="67" x="505" y="606.6748">collaborator</text><polygon fill="#181818" points="307,639.2285,297,643.2285,307,647.2285,303,643.2285" style="stroke:#181818;stroke-width:1.0;"/><line style="stroke:#181818;stroke-width:1.0;stroke-dasharray:2.0,2.0;" x1="301" x2="482" y1="643.2285" y2="643.2285"/><text fill="#000000" font-family="sans-serif" font-size="13" lengthAdjust="spacing" textLength="67" x="313" y="637.9658">collaborator</text><polygon fill="#181818" points="34,670.5195,24,674.5195,34,678.5195,30,674.5195" style="stroke:#181818;stroke-width:1.0;"/><line style="stroke:#181818;stroke-width:1.0;stroke-dasharray:2.0,2.0;" x1="28" x2="290" y1="674.5195" y2="674.5195"/><text fill="#000000" font-family="sans-serif" font-size="13" lengthAdjust="spacing" textLength="151" x="40" y="669.2568">display operation success</text><!--SRC=[hLMzRi8m4Dxp51OJ8FK5CdHXAKEb2jIjozK-WeLZfpu3ukrhGWbs5IU148aXli_VZtC-Q2Tr1HPALXfj-DQQ4fcpUyoegLJ0Tr3WsfqKCelSWIvK2A0j27EKkc0RK8HP1jmPozvMxva7ECbb1Tgn5HQI7Dg5KGg-ZGKF-bpsGXP6E-lVqVw3LeQahqkag13kRK2d23BX0IR_qk6M2GDYORsE8m_Wi4xaV-pbDH4cz-i_UoJ7dF57TO4mYFaQkiI1j2-VHRrsen2RP08TI4MPm3xwdW0VrXoam0JzIE_hhJdIbOo15lwGcZHw8sq9JXezFiNYmaPFCDxTatbhVVedE-lM3LgxktpnSMlud1NebfhyLUGuZLI2Mn6-34bYmytH9uX8-uosNy3QSdif392ulUtBGqBnTi8WNaBoyQ1sM4VS7JMCCf_xQ1OzpuqvlJFb58I8J8OAiso4rPJW0PGKdd6CgdzImdVsmu0kU0QYhvCwvbZAxGFJv3pDhdDOIAeKd9YfqDOJbz6USwGX_ny1mdFz0W00]--></g></svg>