<?xml version="1.0" encoding="us-ascii" standalone="no"?><svg xmlns="http://www.w3.org/2000/svg" xmlns:xlink="http://www.w3.org/1999/xlink" contentStyleType="text/css" height="769px" preserveAspectRatio="none" style="width:708px;height:769px;background:#FFFFFF;" version="1.1" viewBox="0 0 708 769" width="708px" zoomAndPan="magnify"><defs/><g><!--class Collaborator--><g id="elem_Collaborator"><rect codeLine="12" fill="#F1F1F1" height="166.9688" id="Collaborator" rx="2.5" ry="2.5" style="stroke:#181818;stroke-width:0.5;" width="136" x="405" y="160"/><text fill="#000000" font-family="sans-serif" font-size="14" lengthAdjust="spacing" textLength="78" x="434" y="180.1074">Collaborator</text><line style="stroke:#181818;stroke-width:0.5;" x1="406" x2="540" y1="188.6211" y2="188.6211"/><text fill="#000000" font-family="sans-serif" font-size="14" lengthAdjust="spacing" textLength="35" x="411" y="207.7285">name</text><text fill="#000000" font-family="sans-serif" font-size="14" lengthAdjust="spacing" textLength="56" x="411" y="226.3496">birthdate</text><text fill="#000000" font-family="sans-serif" font-size="14" lengthAdjust="spacing" textLength="93" x="411" y="244.9707">admissionDate</text><text fill="#000000" font-family="sans-serif" font-size="14" lengthAdjust="spacing" textLength="51" x="411" y="263.5918">address</text><text fill="#000000" font-family="sans-serif" font-size="14" lengthAdjust="spacing" textLength="69" x="411" y="282.2129">contactInfo</text><text fill="#000000" font-family="sans-serif" font-size="14" lengthAdjust="spacing" textLength="107" x="411" y="300.834">idDocumentType</text><text fill="#000000" font-family="sans-serif" font-size="14" lengthAdjust="spacing" textLength="124" x="411" y="319.4551">idDocumentNumber</text></g><!--class Organization--><g id="elem_Organization"><rect codeLine="21" fill="#F1F1F1" height="73.8633" id="Organization" rx="2.5" ry="2.5" style="stroke:#181818;stroke-width:0.5;" width="86" x="430" y="7"/><text fill="#000000" font-family="sans-serif" font-size="14" lengthAdjust="spacing" textLength="80" x="433" y="27.1074">Organization</text><line style="stroke:#181818;stroke-width:0.5;" x1="431" x2="515" y1="35.6211" y2="35.6211"/><text fill="#000000" font-family="sans-serif" font-size="14" lengthAdjust="spacing" textLength="35" x="436" y="54.7285">name</text><text fill="#000000" font-family="sans-serif" font-size="14" lengthAdjust="spacing" textLength="51" x="436" y="73.3496">address</text></g><!--class VFM--><g id="elem_VFM"><rect codeLine="26" fill="#F1F1F1" height="36.6211" id="VFM" rx="2.5" ry="2.5" style="stroke:#181818;stroke-width:0.5;" width="35" x="576.5" y="225"/><text fill="#000000" font-family="sans-serif" font-size="14" lengthAdjust="spacing" textLength="29" x="579.5" y="245.1074">VFM</text><line style="stroke:#181818;stroke-width:0.5;" x1="577.5" x2="610.5" y1="253.6211" y2="253.6211"/></g><!--class GreenSpace--><g id="elem_GreenSpace"><rect codeLine="31" fill="#F1F1F1" height="92.4844" id="GreenSpace" rx="2.5" ry="2.5" style="stroke:#181818;stroke-width:0.5;" width="86" x="248" y="197.5"/><text fill="#000000" font-family="sans-serif" font-size="14" lengthAdjust="spacing" textLength="80" x="251" y="217.6074">GreenSpace</text><line style="stroke:#181818;stroke-width:0.5;" x1="249" x2="333" y1="226.1211" y2="226.1211"/><text fill="#000000" font-family="sans-serif" font-size="14" lengthAdjust="spacing" textLength="35" x="254" y="245.2285">name</text><text fill="#000000" font-family="sans-serif" font-size="14" lengthAdjust="spacing" textLength="51" x="254" y="263.8496">address</text><text fill="#000000" font-family="sans-serif" font-size="14" lengthAdjust="spacing" textLength="64" x="254" y="282.4707">dimension</text></g><!--class Garden--><g id="elem_Garden"><rect codeLine="37" fill="#F1F1F1" height="36.6211" id="Garden" rx="2.5" ry="2.5" style="stroke:#181818;stroke-width:0.5;" width="54" x="7" y="415"/><text fill="#000000" font-family="sans-serif" font-size="14" lengthAdjust="spacing" textLength="48" x="10" y="435.1074">Garden</text><line style="stroke:#181818;stroke-width:0.5;" x1="8" x2="60" y1="443.6211" y2="443.6211"/></g><!--class MediumSizedPark--><g id="elem_MediumSizedPark"><rect codeLine="41" fill="#F1F1F1" height="36.6211" id="MediumSizedPark" rx="2.5" ry="2.5" style="stroke:#181818;stroke-width:0.5;" width="118" x="96" y="415"/><text fill="#000000" font-family="sans-serif" font-size="14" lengthAdjust="spacing" textLength="112" x="99" y="435.1074">MediumSizedPark</text><line style="stroke:#181818;stroke-width:0.5;" x1="97" x2="213" y1="443.6211" y2="443.6211"/></g><!--class LargeSizedPark--><g id="elem_LargeSizedPark"><rect codeLine="45" fill="#F1F1F1" height="36.6211" id="LargeSizedPark" rx="2.5" ry="2.5" style="stroke:#181818;stroke-width:0.5;" width="106" x="249" y="415"/><text fill="#000000" font-family="sans-serif" font-size="14" lengthAdjust="spacing" textLength="100" x="252" y="435.1074">LargeSizedPark</text><line style="stroke:#181818;stroke-width:0.5;" x1="250" x2="354" y1="443.6211" y2="443.6211"/></g><!--class Vehicle--><g id="elem_Vehicle"><rect codeLine="48" fill="#F1F1F1" height="222.832" id="Vehicle" rx="2.5" ry="2.5" style="stroke:#181818;stroke-width:0.5;" width="222" x="443" y="540"/><text fill="#000000" font-family="sans-serif" font-size="14" lengthAdjust="spacing" textLength="46" x="531" y="560.1074">Vehicle</text><line style="stroke:#181818;stroke-width:0.5;" x1="444" x2="664" y1="568.6211" y2="568.6211"/><text fill="#000000" font-family="sans-serif" font-size="14" lengthAdjust="spacing" textLength="46" x="449" y="587.7285">plate id</text><text fill="#000000" font-family="sans-serif" font-size="14" lengthAdjust="spacing" textLength="37" x="449" y="606.3496">brand</text><text fill="#000000" font-family="sans-serif" font-size="14" lengthAdjust="spacing" textLength="38" x="449" y="624.9707">model</text><text fill="#000000" font-family="sans-serif" font-size="14" lengthAdjust="spacing" textLength="27" x="449" y="643.5918">type</text><text fill="#000000" font-family="sans-serif" font-size="14" lengthAdjust="spacing" textLength="25" x="449" y="662.2129">tare</text><text fill="#000000" font-family="sans-serif" font-size="14" lengthAdjust="spacing" textLength="79" x="449" y="680.834">gross weight</text><text fill="#000000" font-family="sans-serif" font-size="14" lengthAdjust="spacing" textLength="74" x="449" y="699.4551">current kms</text><text fill="#000000" font-family="sans-serif" font-size="14" lengthAdjust="spacing" textLength="103" x="449" y="718.0762">registration date</text><text fill="#000000" font-family="sans-serif" font-size="14" lengthAdjust="spacing" textLength="99" x="449" y="736.6973">acquisition date</text><text fill="#000000" font-family="sans-serif" font-size="14" lengthAdjust="spacing" textLength="210" x="449" y="755.3184">maintenance/check-up frequency</text></g><!--class VehiclesCheckUp--><g id="elem_VehiclesCheckUp"><rect codeLine="61" fill="#F1F1F1" height="55.2422" id="VehiclesCheckUp" rx="2.5" ry="2.5" style="stroke:#181818;stroke-width:0.5;" width="116" x="496" y="406"/><text fill="#000000" font-family="sans-serif" font-size="14" lengthAdjust="spacing" textLength="110" x="499" y="426.1074">VehiclesCheckUp</text><line style="stroke:#181818;stroke-width:0.5;" x1="497" x2="611" y1="434.6211" y2="434.6211"/><text fill="#000000" font-family="sans-serif" font-size="14" lengthAdjust="spacing" textLength="46" x="502" y="453.7285">plate id</text></g><!--reverse link Collaborator to VFM--><g id="link_Collaborator_VFM"><path codeLine="65" d="M559.06,243.5 C570.78,243.5 564.5,243.5 576.22,243.5 " fill="none" id="Collaborator-backto-VFM" style="stroke:#181818;stroke-width:1.0;"/><polygon fill="none" points="541.06,243.5,559.06,249.5,559.06,237.5,541.06,243.5" style="stroke:#181818;stroke-width:1.0;"/></g><!--link VFM to VehiclesCheckUp--><g id="link_VFM_VehiclesCheckUp"><path codeLine="66" d="M590.24,262.19 C583.2,295.28 568,366.71 559.7,405.73 " fill="none" id="VFM-VehiclesCheckUp" style="stroke:#181818;stroke-width:1.0;"/><polygon fill="#000000" points="572.9595,371.536,577.7164,363.3006,571.9672,362.0774,572.9595,371.536" style="stroke:#000000;stroke-width:1.0;"/><text fill="#000000" font-family="sans-serif" font-size="13" lengthAdjust="spacing" textLength="24" x="583" y="372.0283">lists</text><text fill="#000000" font-family="sans-serif" font-size="13" lengthAdjust="spacing" textLength="7" x="581.2889" y="283.6157">1</text><text fill="#000000" font-family="sans-serif" font-size="13" lengthAdjust="spacing" textLength="20" x="538.7594" y="394.8296">1..*</text></g><!--reverse link GreenSpace to Garden--><g id="link_GreenSpace_Garden"><path codeLine="67" d="M233.4517,286.5967 C179.0117,326.4167 101.63,383.03 58.16,414.82 " fill="none" id="GreenSpace-backto-Garden" style="stroke:#181818;stroke-width:1.0;"/><polygon fill="none" points="247.98,275.97,229.9094,281.7539,236.9939,291.4395,247.98,275.97" style="stroke:#181818;stroke-width:1.0;"/></g><!--reverse link GreenSpace to MediumSizedPark--><g id="link_GreenSpace_MediumSizedPark"><path codeLine="68" d="M247.8707,304.1147 C218.8007,344.3047 188.29,386.49 167.74,414.88 " fill="none" id="GreenSpace-backto-MediumSizedPark" style="stroke:#181818;stroke-width:1.0;"/><polygon fill="none" points="258.42,289.53,243.0092,300.5982,252.7323,307.6311,258.42,289.53" style="stroke:#181818;stroke-width:1.0;"/></g><!--reverse link GreenSpace to LargeSizedPark--><g id="link_GreenSpace_LargeSizedPark"><path codeLine="69" d="M294.6852,307.499 C297.0452,347.689 299.31,386.49 300.97,414.88 " fill="none" id="GreenSpace-backto-LargeSizedPark" style="stroke:#181818;stroke-width:1.0;"/><polygon fill="none" points="293.63,289.53,288.6955,307.8508,300.6748,307.1473,293.63,289.53" style="stroke:#181818;stroke-width:1.0;"/></g><!--link GreenSpace to Collaborator--><g id="link_GreenSpace_Collaborator"><path codeLine="70" d="M334.13,243.5 C355.26,243.5 381.2,243.5 404.92,243.5 " fill="none" id="GreenSpace-Collaborator" style="stroke:#181818;stroke-width:1.0;"/><polygon fill="#000000" points="361.5,231.1455,352.4549,228.2066,352.4549,234.0844,361.5,231.1455" style="stroke:#000000;stroke-width:1.0;"/><text fill="#000000" font-family="sans-serif" font-size="13" lengthAdjust="spacing" textLength="21" x="365.5" y="236.5283">has</text><text fill="#000000" font-family="sans-serif" font-size="13" lengthAdjust="spacing" textLength="7" x="342.1445" y="239.0508">1</text><text fill="#000000" font-family="sans-serif" font-size="13" lengthAdjust="spacing" textLength="20" x="376.868" y="258.4215">1..*</text></g><!--link VehiclesCheckUp to Vehicle--><g id="link_VehiclesCheckUp_Vehicle"><path codeLine="71" d="M554,461.42 C554,481.55 554,510.54 554,539.79 " fill="none" id="VehiclesCheckUp-Vehicle" style="stroke:#181818;stroke-width:1.0;"/><polygon fill="#000000" points="559,505.6455,561.9389,496.6004,556.0611,496.6004,559,505.6455" style="stroke:#000000;stroke-width:1.0;"/><text fill="#000000" font-family="sans-serif" font-size="13" lengthAdjust="spacing" textLength="21" x="568" y="506.0283">has</text><text fill="#000000" font-family="sans-serif" font-size="13" lengthAdjust="spacing" textLength="7" x="546.2344" y="483.4205">1</text><text fill="#000000" font-family="sans-serif" font-size="13" lengthAdjust="spacing" textLength="20" x="533.3281" y="528.7571">1..*</text></g><!--link GreenSpace to Vehicle--><g id="link_GreenSpace_Vehicle"><path codeLine="72" d="M320.15,289.5 C359,349.48 429.05,457.61 482.38,539.94 " fill="none" id="GreenSpace-Vehicle" style="stroke:#181818;stroke-width:1.0;"/><polygon fill="#000000" points="433.7184,437.842,431.2674,428.6527,426.3342,431.8483,433.7184,437.842" style="stroke:#000000;stroke-width:1.0;"/><text fill="#000000" font-family="sans-serif" font-size="13" lengthAdjust="spacing" textLength="21" x="440" y="439.0283">has</text><text fill="#000000" font-family="sans-serif" font-size="13" lengthAdjust="spacing" textLength="7" x="317.0777" y="311.8588">1</text><text fill="#000000" font-family="sans-serif" font-size="13" lengthAdjust="spacing" textLength="20" x="456.8962" y="528.9172">1..*</text></g><!--link Organization to GreenSpace--><g id="link_Organization_GreenSpace"><path codeLine="73" d="M439.62,81.22 C409.45,113.96 364.92,162.28 332.48,197.49 " fill="none" id="Organization-GreenSpace" style="stroke:#181818;stroke-width:1.0;"/><polygon fill="#000000" points="409.6118,124.3225,417.9024,119.6623,413.5799,115.6792,409.6118,124.3225" style="stroke:#000000;stroke-width:1.0;"/><text fill="#000000" font-family="sans-serif" font-size="13" lengthAdjust="spacing" textLength="30" x="422" y="126.0283">owns</text><text fill="#000000" font-family="sans-serif" font-size="13" lengthAdjust="spacing" textLength="7" x="426.5118" y="102.8561">1</text><text fill="#000000" font-family="sans-serif" font-size="13" lengthAdjust="spacing" textLength="20" x="317.3004" y="186.1567">1..*</text></g><!--link Organization to Collaborator--><g id="link_Organization_Collaborator"><path codeLine="74" d="M473,81.22 C473,103.27 473,132.39 473,159.81 " fill="none" id="Organization-Collaborator" style="stroke:#181818;stroke-width:1.0;"/><polygon fill="#000000" points="478,115.6455,475.0611,124.6906,480.9389,124.6906,478,115.6455" style="stroke:#000000;stroke-width:1.0;"/><text fill="#000000" font-family="sans-serif" font-size="13" lengthAdjust="spacing" textLength="52" x="487" y="126.0283">works for</text><text fill="#000000" font-family="sans-serif" font-size="13" lengthAdjust="spacing" textLength="7" x="465.4203" y="102.8561">1</text><text fill="#000000" font-family="sans-serif" font-size="13" lengthAdjust="spacing" textLength="20" x="452.1094" y="148.642">1..*</text></g><!--link GreenSpace to VehiclesCheckUp--><g id="link_GreenSpace_VehiclesCheckUp"><path codeLine="75" d="M334.01,285.26 C350.21,299.46 369.26,314.86 388,327 C414.03,343.86 424.38,341.1 451,357 C475.36,371.55 501.11,390.43 520.77,405.67 " fill="none" id="GreenSpace-VehiclesCheckUp" style="stroke:#181818;stroke-width:1.0;"/><polygon fill="#000000" points="486.2023,369.3549,480.1928,361.9835,477.0077,366.9236,486.2023,369.3549" style="stroke:#000000;stroke-width:1.0;"/><text fill="#000000" font-family="sans-serif" font-size="13" lengthAdjust="spacing" textLength="21" x="491" y="372.0283">has</text><text fill="#000000" font-family="sans-serif" font-size="13" lengthAdjust="spacing" textLength="7" x="342.0039" y="287.9883">1</text><text fill="#000000" font-family="sans-serif" font-size="13" lengthAdjust="spacing" textLength="7" x="505.7353" y="394.7565">1</text></g><!--link Organization to Vehicle--><g id="link_Organization_Vehicle"><path codeLine="76" d="M516.02,63.04 C553.52,81.36 605.47,113.65 629,160 C689.94,280.02 648.55,436.26 607.04,539.79 " fill="none" id="Organization-Vehicle" style="stroke:#181818;stroke-width:1.0;"/><polygon fill="#000000" points="661.9377,371.5568,663.1282,362.121,657.3546,363.2233,661.9377,371.5568" style="stroke:#000000;stroke-width:1.0;"/><text fill="#000000" font-family="sans-serif" font-size="13" lengthAdjust="spacing" textLength="30" x="670" y="372.0283">owns</text><text fill="#000000" font-family="sans-serif" font-size="13" lengthAdjust="spacing" textLength="7" x="524.0156" y="61.9166">1</text><text fill="#000000" font-family="sans-serif" font-size="13" lengthAdjust="spacing" textLength="20" x="589.9318" y="528.7571">1..*</text></g><!--SRC=[XP9BQzmm4CVl-XJ3NW85f-rrAOMIq118siAslSzAOrjO3sSaispQVFTAVcHjPvVwuj4yV_gFGgDTYumMh7TUrkmjGUIEH7YDj2WRh6WNZuQ0IKPqbPadX1gLFsXNGOaca11NXie8qGFhgewWTAxItebPaJGOmfSOMU-xIFVIkvr-9lWWHAqLWTGiqv3UjXHhhu8GVGtSU6DmxncZP_WZ87qEBVN6NdEi5SRXXChg4DBWsvD7CONGssbaH1dlNUdxirQtNdQMNFnvR6db-jRPFR5u6Hc-SuLEFsE-rGfX6l4oyVx- -fWmytbqt36HsoLP2IxKPblfD3V3dphT8IjoOxF1zKXATpPBftuWDulO0t9Qsp8q8b6jaxp3zDOaTT9L1m4PtM1PhyZqLfpaYCY3KR5FNGwKrpjesJ4dbQ2n0pnJfKFaNXyuxKC-TJhefTEYTf4SEadlPKsoAReMIgQdZfmypcGScCDDpldLmWe-vIqUngU_HLPUPFKt7pTG5EbtVVrkiswq1PDG0tmMixsawcAK-urx9VcR-5BsURZdc33cj5keCHEixtWMV4g-r7YLDd-goyHJWotuWpkVV87tuBa9K6QXpu6SKVb_DA_O0ye_]--></g></svg>