<?xml version="1.0" encoding="us-ascii" standalone="no"?><svg xmlns="http://www.w3.org/2000/svg" xmlns:xlink="http://www.w3.org/1999/xlink" contentStyleType="text/css" height="1135px" preserveAspectRatio="none" style="width:814px;height:1135px;background:#FFFFFF;" version="1.1" viewBox="0 0 814 1135" width="814px" zoomAndPan="magnify"><defs/><g><!--class Collaborator--><g id="elem_Collaborator"><rect codeLine="12" fill="#F1F1F1" height="166.9688" id="Collaborator" rx="2.5" ry="2.5" style="stroke:#181818;stroke-width:0.5;" width="136" x="7" y="294"/><text fill="#000000" font-family="sans-serif" font-size="14" lengthAdjust="spacing" textLength="78" x="36" y="314.1074">Collaborator</text><line style="stroke:#181818;stroke-width:0.5;" x1="8" x2="142" y1="322.6211" y2="322.6211"/><text fill="#000000" font-family="sans-serif" font-size="14" lengthAdjust="spacing" textLength="35" x="13" y="341.7285">name</text><text fill="#000000" font-family="sans-serif" font-size="14" lengthAdjust="spacing" textLength="56" x="13" y="360.3496">birthdate</text><text fill="#000000" font-family="sans-serif" font-size="14" lengthAdjust="spacing" textLength="93" x="13" y="378.9707">admissionDate</text><text fill="#000000" font-family="sans-serif" font-size="14" lengthAdjust="spacing" textLength="51" x="13" y="397.5918">address</text><text fill="#000000" font-family="sans-serif" font-size="14" lengthAdjust="spacing" textLength="69" x="13" y="416.2129">contactInfo</text><text fill="#000000" font-family="sans-serif" font-size="14" lengthAdjust="spacing" textLength="107" x="13" y="434.834">idDocumentType</text><text fill="#000000" font-family="sans-serif" font-size="14" lengthAdjust="spacing" textLength="124" x="13" y="453.4551">idDocumentNumber</text></g><!--class Organization--><g id="elem_Organization"><rect codeLine="21" fill="#F1F1F1" height="73.8633" id="Organization" rx="2.5" ry="2.5" style="stroke:#181818;stroke-width:0.5;" width="86" x="77" y="7"/><text fill="#000000" font-family="sans-serif" font-size="14" lengthAdjust="spacing" textLength="80" x="80" y="27.1074">Organization</text><line style="stroke:#181818;stroke-width:0.5;" x1="78" x2="162" y1="35.6211" y2="35.6211"/><text fill="#000000" font-family="sans-serif" font-size="14" lengthAdjust="spacing" textLength="35" x="83" y="54.7285">name</text><text fill="#000000" font-family="sans-serif" font-size="14" lengthAdjust="spacing" textLength="51" x="83" y="73.3496">address</text></g><!--class VFM--><g id="elem_VFM"><rect codeLine="26" fill="#F1F1F1" height="36.6211" id="VFM" rx="2.5" ry="2.5" style="stroke:#181818;stroke-width:0.5;" width="35" x="178.5" y="359"/><text fill="#000000" font-family="sans-serif" font-size="14" lengthAdjust="spacing" textLength="29" x="181.5" y="379.1074">VFM</text><line style="stroke:#181818;stroke-width:0.5;" x1="179.5" x2="212.5" y1="387.6211" y2="387.6211"/></g><!--class GreenSpace--><g id="elem_GreenSpace"><rect codeLine="31" fill="#F1F1F1" height="55.2422" id="GreenSpace" rx="2.5" ry="2.5" style="stroke:#181818;stroke-width:0.5;" width="86" x="339" y="160"/><text fill="#000000" font-family="sans-serif" font-size="14" lengthAdjust="spacing" textLength="80" x="342" y="180.1074">GreenSpace</text><line style="stroke:#181818;stroke-width:0.5;" x1="340" x2="424" y1="188.6211" y2="188.6211"/><text fill="#000000" font-family="sans-serif" font-size="14" lengthAdjust="spacing" textLength="64" x="345" y="207.7285">dimension</text></g><!--class Garden--><g id="elem_Garden"><rect codeLine="35" fill="#F1F1F1" height="36.6211" id="Garden" rx="2.5" ry="2.5" style="stroke:#181818;stroke-width:0.5;" width="54" x="355" y="359"/><text fill="#000000" font-family="sans-serif" font-size="14" lengthAdjust="spacing" textLength="48" x="358" y="379.1074">Garden</text><line style="stroke:#181818;stroke-width:0.5;" x1="356" x2="408" y1="387.6211" y2="387.6211"/></g><!--class MediumSizedPark--><g id="elem_MediumSizedPark"><rect codeLine="39" fill="#F1F1F1" height="36.6211" id="MediumSizedPark" rx="2.5" ry="2.5" style="stroke:#181818;stroke-width:0.5;" width="118" x="444" y="359"/><text fill="#000000" font-family="sans-serif" font-size="14" lengthAdjust="spacing" textLength="112" x="447" y="379.1074">MediumSizedPark</text><line style="stroke:#181818;stroke-width:0.5;" x1="445" x2="561" y1="387.6211" y2="387.6211"/></g><!--class LargeSizedPark--><g id="elem_LargeSizedPark"><rect codeLine="43" fill="#F1F1F1" height="36.6211" id="LargeSizedPark" rx="2.5" ry="2.5" style="stroke:#181818;stroke-width:0.5;" width="106" x="597" y="359"/><text fill="#000000" font-family="sans-serif" font-size="14" lengthAdjust="spacing" textLength="100" x="600" y="379.1074">LargeSizedPark</text><line style="stroke:#181818;stroke-width:0.5;" x1="598" x2="702" y1="387.6211" y2="387.6211"/></g><!--class Vehicle--><g id="elem_Vehicle"><rect codeLine="46" fill="#F1F1F1" height="185.5898" id="Vehicle" rx="2.5" ry="2.5" style="stroke:#181818;stroke-width:0.5;" width="222" x="409" y="674"/><text fill="#000000" font-family="sans-serif" font-size="14" lengthAdjust="spacing" textLength="46" x="497" y="694.1074">Vehicle</text><line style="stroke:#181818;stroke-width:0.5;" x1="410" x2="630" y1="702.6211" y2="702.6211"/><text fill="#000000" font-family="sans-serif" font-size="14" lengthAdjust="spacing" textLength="46" x="415" y="721.7285">plate id</text><text fill="#000000" font-family="sans-serif" font-size="14" lengthAdjust="spacing" textLength="27" x="415" y="740.3496">type</text><text fill="#000000" font-family="sans-serif" font-size="14" lengthAdjust="spacing" textLength="25" x="415" y="758.9707">tare</text><text fill="#000000" font-family="sans-serif" font-size="14" lengthAdjust="spacing" textLength="79" x="415" y="777.5918">gross weight</text><text fill="#000000" font-family="sans-serif" font-size="14" lengthAdjust="spacing" textLength="74" x="415" y="796.2129">current kms</text><text fill="#000000" font-family="sans-serif" font-size="14" lengthAdjust="spacing" textLength="103" x="415" y="814.834">registration date</text><text fill="#000000" font-family="sans-serif" font-size="14" lengthAdjust="spacing" textLength="99" x="415" y="833.4551">acquisition date</text><text fill="#000000" font-family="sans-serif" font-size="14" lengthAdjust="spacing" textLength="210" x="415" y="852.0762">maintenance/check-up frequency</text></g><!--class VehiclesCheckUp--><g id="elem_VehiclesCheckUp"><rect codeLine="57" fill="#F1F1F1" height="55.2422" id="VehiclesCheckUp" rx="2.5" ry="2.5" style="stroke:#181818;stroke-width:0.5;" width="116" x="226" y="540"/><text fill="#000000" font-family="sans-serif" font-size="14" lengthAdjust="spacing" textLength="110" x="229" y="560.1074">VehiclesCheckUp</text><line style="stroke:#181818;stroke-width:0.5;" x1="227" x2="341" y1="568.6211" y2="568.6211"/><text fill="#000000" font-family="sans-serif" font-size="14" lengthAdjust="spacing" textLength="46" x="232" y="587.7285">plate id</text></g><!--class Brand--><g id="elem_Brand"><rect codeLine="61" fill="#F1F1F1" height="55.2422" id="Brand" rx="2.5" ry="2.5" style="stroke:#181818;stroke-width:0.5;" width="47" x="496.5" y="939"/><text fill="#000000" font-family="sans-serif" font-size="14" lengthAdjust="spacing" textLength="38" x="501" y="959.1074">Brand</text><line style="stroke:#181818;stroke-width:0.5;" x1="497.5" x2="542.5" y1="967.6211" y2="967.6211"/><text fill="#000000" font-family="sans-serif" font-size="14" lengthAdjust="spacing" textLength="35" x="502.5" y="986.7285">name</text></g><!--class Model--><g id="elem_Model"><rect codeLine="65" fill="#F1F1F1" height="55.2422" id="Model" rx="2.5" ry="2.5" style="stroke:#181818;stroke-width:0.5;" width="47" x="496.5" y="1073"/><text fill="#000000" font-family="sans-serif" font-size="14" lengthAdjust="spacing" textLength="38" x="501" y="1093.1074">Model</text><line style="stroke:#181818;stroke-width:0.5;" x1="497.5" x2="542.5" y1="1101.6211" y2="1101.6211"/><text fill="#000000" font-family="sans-serif" font-size="14" lengthAdjust="spacing" textLength="35" x="502.5" y="1120.7285">name</text></g><!--reverse link Collaborator to VFM--><g id="link_Collaborator_VFM"><path codeLine="69" d="M161.06,377.5 C172.78,377.5 166.5,377.5 178.22,377.5 " fill="none" id="Collaborator-backto-VFM" style="stroke:#181818;stroke-width:1.0;"/><polygon fill="none" points="143.06,377.5,161.06,383.5,161.06,371.5,143.06,377.5" style="stroke:#181818;stroke-width:1.0;"/></g><!--link VFM to VehiclesCheckUp--><g id="link_VFM_VehiclesCheckUp"><path codeLine="70" d="M195.45,396.34 C195.41,422.86 198.37,473.48 219,510 C225.4,521.33 234.95,531.48 244.78,539.95 " fill="none" id="VFM-VehiclesCheckUp" style="stroke:#181818;stroke-width:1.0;"/><polygon fill="#000000" points="225.6243,505.3743,225.4654,495.8651,219.9064,497.7746,225.6243,505.3743" style="stroke:#000000;stroke-width:1.0;"/><text fill="#000000" font-family="sans-serif" font-size="13" lengthAdjust="spacing" textLength="24" x="233" y="506.0283">lists</text><text fill="#000000" font-family="sans-serif" font-size="13" lengthAdjust="spacing" textLength="7" x="187.3616" y="417.806">1</text><text fill="#000000" font-family="sans-serif" font-size="13" lengthAdjust="spacing" textLength="20" x="213.3979" y="528.6474">1..*</text></g><!--reverse link GreenSpace to Garden--><g id="link_GreenSpace_Garden"><path codeLine="71" d="M382,233.04 C382,272.01 382,325.67 382,358.82 " fill="none" id="GreenSpace-backto-Garden" style="stroke:#181818;stroke-width:1.0;"/><polygon fill="none" points="382,215.04,376,233.04,388,233.04,382,215.04" style="stroke:#181818;stroke-width:1.0;"/></g><!--reverse link GreenSpace to MediumSizedPark--><g id="link_GreenSpace_MediumSizedPark"><path codeLine="72" d="M408.8213,230.1763 C433.9013,269.1463 470.28,325.67 491.62,358.82 " fill="none" id="GreenSpace-backto-MediumSizedPark" style="stroke:#181818;stroke-width:1.0;"/><polygon fill="none" points="399.08,215.04,403.7759,233.4234,413.8667,226.9292,399.08,215.04" style="stroke:#181818;stroke-width:1.0;"/></g><!--reverse link GreenSpace to LargeSizedPark--><g id="link_GreenSpace_LargeSizedPark"><path codeLine="73" d="M441.8991,213.0165 C484.0191,231.1765 531.93,255.26 580,294 C603.55,312.98 625.16,340.72 637.96,358.69 " fill="none" id="GreenSpace-backto-LargeSizedPark" style="stroke:#181818;stroke-width:1.0;"/><polygon fill="none" points="425.37,205.89,439.5236,218.5262,444.2747,207.5068,425.37,205.89" style="stroke:#181818;stroke-width:1.0;"/></g><!--link GreenSpace to Collaborator--><g id="link_GreenSpace_Collaborator"><path codeLine="74" d="M338.93,194.63 C298.92,201.83 238.94,216.6 194,245 C173.31,258.08 153.99,275.71 137.19,293.82 " fill="none" id="GreenSpace-Collaborator" style="stroke:#181818;stroke-width:1.0;"/><polygon fill="#000000" points="194.513,256.8516,203.9268,255.4981,201.3333,250.2233,194.513,256.8516" style="stroke:#000000;stroke-width:1.0;"/><text fill="#000000" font-family="sans-serif" font-size="13" lengthAdjust="spacing" textLength="49" x="208" y="260.0283">contains</text><text fill="#000000" font-family="sans-serif" font-size="13" lengthAdjust="spacing" textLength="7" x="323.9258" y="191.427">1</text><text fill="#000000" font-family="sans-serif" font-size="13" lengthAdjust="spacing" textLength="20" x="121.8382" y="282.6529">1..*</text></g><!--link VehiclesCheckUp to Vehicle--><g id="link_VehiclesCheckUp_Vehicle"><path codeLine="75" d="M315.83,595.14 C340.3,615.61 375.64,645.19 410.07,674 " fill="none" id="VehiclesCheckUp-Vehicle" style="stroke:#181818;stroke-width:1.0;"/><polygon fill="#000000" points="381.8346,637.8543,376.7838,629.7957,373.0117,634.3035,381.8346,637.8543" style="stroke:#000000;stroke-width:1.0;"/><text fill="#000000" font-family="sans-serif" font-size="13" lengthAdjust="spacing" textLength="49" x="387" y="640.0283">contains</text><text fill="#000000" font-family="sans-serif" font-size="13" lengthAdjust="spacing" textLength="7" x="315.0272" y="617.0793">1</text><text fill="#000000" font-family="sans-serif" font-size="13" lengthAdjust="spacing" textLength="20" x="380.8879" y="663.2841">1..*</text></g><!--link GreenSpace to Vehicle--><g id="link_GreenSpace_Vehicle"><path codeLine="76" d="M425.14,195.48 C508.24,209.91 685.46,245.73 721,294 C807.99,412.17 699.76,573.73 611.56,673.89 " fill="none" id="GreenSpace-Vehicle" style="stroke:#181818;stroke-width:1.0;"/><polygon fill="#000000" points="737.8154,505.3043,737.2697,495.8094,731.793,497.9435,737.8154,505.3043" style="stroke:#000000;stroke-width:1.0;"/><text fill="#000000" font-family="sans-serif" font-size="13" lengthAdjust="spacing" textLength="21" x="745" y="506.0283">has</text><text fill="#000000" font-family="sans-serif" font-size="13" lengthAdjust="spacing" textLength="7" x="432.8943" y="192.4324">1</text><text fill="#000000" font-family="sans-serif" font-size="13" lengthAdjust="spacing" textLength="20" x="598.0593" y="662.8492">1..*</text></g><!--link Organization to GreenSpace--><g id="link_Organization_GreenSpace"><path codeLine="77" d="M163.26,68.37 C211.81,94.58 290.1,136.87 338.67,163.1 " fill="none" id="Organization-GreenSpace" style="stroke:#181818;stroke-width:1.0;"/><polygon fill="#000000" points="283.3994,123.0214,276.8373,116.1374,274.0443,121.3093,283.3994,123.0214" style="stroke:#000000;stroke-width:1.0;"/><text fill="#000000" font-family="sans-serif" font-size="13" lengthAdjust="spacing" textLength="30" x="288" y="126.0283">owns</text><text fill="#000000" font-family="sans-serif" font-size="13" lengthAdjust="spacing" textLength="7" x="171.0046" y="68.0622">1</text><text fill="#000000" font-family="sans-serif" font-size="13" lengthAdjust="spacing" textLength="20" x="310.8372" y="155.2997">1..*</text></g><!--link Organization to Collaborator--><g id="link_Organization_Collaborator"><path codeLine="78" d="M115.1,81.11 C108.22,131.79 95.5,225.45 86.23,293.76 " fill="none" id="Organization-Collaborator" style="stroke:#181818;stroke-width:1.0;"/><polygon fill="#000000" points="110.6726,182.691,106.5436,191.2585,112.368,192.0492,110.6726,182.691" style="stroke:#000000;stroke-width:1.0;"/><text fill="#000000" font-family="sans-serif" font-size="13" lengthAdjust="spacing" textLength="52" x="119" y="193.0283">works for</text><text fill="#000000" font-family="sans-serif" font-size="13" lengthAdjust="spacing" textLength="7" x="106.6563" y="103.0143">1</text><text fill="#000000" font-family="sans-serif" font-size="13" lengthAdjust="spacing" textLength="20" x="66.3357" y="282.8753">1..*</text></g><!--link GreenSpace to VehiclesCheckUp--><g id="link_GreenSpace_VehiclesCheckUp"><path codeLine="79" d="M354.54,215.28 C336.13,235.13 313.26,263.85 302,294 C270.16,379.28 275.95,489.92 280.84,539.91 " fill="none" id="GreenSpace-VehiclesCheckUp" style="stroke:#181818;stroke-width:1.0;"/><polygon fill="#000000" points="305.893,382.5214,310.7616,374.3515,305.0296,373.0501,305.893,382.5214" style="stroke:#000000;stroke-width:1.0;"/><text fill="#000000" font-family="sans-serif" font-size="13" lengthAdjust="spacing" textLength="21" x="316" y="383.0283">has</text><text fill="#000000" font-family="sans-serif" font-size="13" lengthAdjust="spacing" textLength="7" x="340.7675" y="237.2499">1</text><text fill="#000000" font-family="sans-serif" font-size="13" lengthAdjust="spacing" textLength="7" x="272.2999" y="528.5982">1</text></g><!--link Vehicle to Brand--><g id="link_Vehicle_Brand"><path codeLine="80" d="M520,860.1 C520,888.86 520,918.38 520,938.83 " fill="none" id="Vehicle-Brand" style="stroke:#181818;stroke-width:1.0;"/><polygon fill="#000000" points="525,904.6455,527.9389,895.6004,522.0611,895.6004,525,904.6455" style="stroke:#000000;stroke-width:1.0;"/><text fill="#000000" font-family="sans-serif" font-size="13" lengthAdjust="spacing" textLength="21" x="534" y="905.0283">has</text><text fill="#000000" font-family="sans-serif" font-size="13" lengthAdjust="spacing" textLength="7" x="512.743" y="881.6153">1</text><text fill="#000000" font-family="sans-serif" font-size="13" lengthAdjust="spacing" textLength="7" x="512.2344" y="927.9515">1</text></g><!--link Brand to Model--><g id="link_Brand_Model"><path codeLine="81" d="M520,994.21 C520,1017.11 520,1049.94 520,1072.83 " fill="none" id="Brand-Model" style="stroke:#181818;stroke-width:1.0;"/><polygon fill="#000000" points="525,1038.6455,527.9389,1029.6004,522.0611,1029.6004,525,1038.6455" style="stroke:#000000;stroke-width:1.0;"/><text fill="#000000" font-family="sans-serif" font-size="13" lengthAdjust="spacing" textLength="21" x="534" y="1039.0283">has</text><text fill="#000000" font-family="sans-serif" font-size="13" lengthAdjust="spacing" textLength="7" x="512.2344" y="1016.1646">1</text><text fill="#000000" font-family="sans-serif" font-size="13" lengthAdjust="spacing" textLength="20" x="497.8125" y="1061.9515">1..*</text></g><!--SRC=[XL9DQzmm4BthLmnx2HISjjUb5Dg4Xa3I5hRjVLOQsyAMv8nabasQ_rv9ziOVkr1Vh9bve_VcZNoZROUC1eopJjRi347WdeH_gtGe6wne5uuj0PCCQAjs3l0rAdVGje8IMqz2NBLK1WWEM5Tr0ALJbtPMp9faYzv_2O7rlWzqBvtTwMU23qBKMX58pJAIvBEXK3lbXSWzSEFQ5lUECJY65m7nisWe7_QQGwqm314gexsFnBTJHZ5vdy-HCg0CzxPqETRgridUa0s_ZXsjKjzxioSMhwE67roXrS-Ofbf9E56ydlJ- -VOOPQPuJDmnaTr5MscKhtIaI3gdfZjaHNRi6rAFf7Hlaalg9tApg3qWnmqjIoCxrJewEH1rRJGYJfM3S9eo80-7YbtiE53Qsc1Hpno7XyOCbZ5LsWVEOyDaitpgjTVBf45j0rcqajxBccHJz1sKJ4yzMNcSkJFeypS9yxk3bT0tt5T6grv4jdcon2bgf-JYPNpwMoJhHR9_yt43HH5_rzVlDclABRHnA0-VnMmniRiObt2MNYtYhBvSnhoyr36NknsUexP9nzgJY_8N7GiEW0W_GzUOWFE7kxftkcCBxc3_WrwAFpXkF9J9zelpNZ1zq3EcvyYywLCz1olglFKHy0y0]--></g></svg>