<?xml version="1.0" encoding="us-ascii" standalone="no"?><svg xmlns="http://www.w3.org/2000/svg" xmlns:xlink="http://www.w3.org/1999/xlink" contentStyleType="text/css" height="732px" preserveAspectRatio="none" style="width:907px;height:732px;background:#FFFFFF;" version="1.1" viewBox="0 0 907 732" width="907px" zoomAndPan="magnify"><defs/><g><!--class Collaborator--><g id="elem_Collaborator"><rect codeLine="12" fill="#F1F1F1" height="166.9688" id="Collaborator" rx="2.5" ry="2.5" style="stroke:#181818;stroke-width:0.5;" width="136" x="405" y="160"/><text fill="#000000" font-family="sans-serif" font-size="14" lengthAdjust="spacing" textLength="78" x="434" y="180.1074">Collaborator</text><line style="stroke:#181818;stroke-width:0.5;" x1="406" x2="540" y1="188.6211" y2="188.6211"/><text fill="#000000" font-family="sans-serif" font-size="14" lengthAdjust="spacing" textLength="35" x="411" y="207.7285">name</text><text fill="#000000" font-family="sans-serif" font-size="14" lengthAdjust="spacing" textLength="56" x="411" y="226.3496">birthdate</text><text fill="#000000" font-family="sans-serif" font-size="14" lengthAdjust="spacing" textLength="93" x="411" y="244.9707">admissionDate</text><text fill="#000000" font-family="sans-serif" font-size="14" lengthAdjust="spacing" textLength="51" x="411" y="263.5918">address</text><text fill="#000000" font-family="sans-serif" font-size="14" lengthAdjust="spacing" textLength="69" x="411" y="282.2129">contactInfo</text><text fill="#000000" font-family="sans-serif" font-size="14" lengthAdjust="spacing" textLength="107" x="411" y="300.834">idDocumentType</text><text fill="#000000" font-family="sans-serif" font-size="14" lengthAdjust="spacing" textLength="124" x="411" y="319.4551">idDocumentNumber</text></g><!--class Organization--><g id="elem_Organization"><rect codeLine="21" fill="#F1F1F1" height="73.8633" id="Organization" rx="2.5" ry="2.5" style="stroke:#181818;stroke-width:0.5;" width="86" x="430" y="7"/><text fill="#000000" font-family="sans-serif" font-size="14" lengthAdjust="spacing" textLength="80" x="433" y="27.1074">Organization</text><line style="stroke:#181818;stroke-width:0.5;" x1="431" x2="515" y1="35.6211" y2="35.6211"/><text fill="#000000" font-family="sans-serif" font-size="14" lengthAdjust="spacing" textLength="35" x="436" y="54.7285">name</text><text fill="#000000" font-family="sans-serif" font-size="14" lengthAdjust="spacing" textLength="51" x="436" y="73.3496">address</text></g><!--class VFM--><g id="elem_VFM"><rect codeLine="26" fill="#F1F1F1" height="36.6211" id="VFM" rx="2.5" ry="2.5" style="stroke:#181818;stroke-width:0.5;" width="35" x="576.5" y="225"/><text fill="#000000" font-family="sans-serif" font-size="14" lengthAdjust="spacing" textLength="29" x="579.5" y="245.1074">VFM</text><line style="stroke:#181818;stroke-width:0.5;" x1="577.5" x2="610.5" y1="253.6211" y2="253.6211"/></g><!--class GreenSpace--><g id="elem_GreenSpace"><rect codeLine="31" fill="#F1F1F1" height="92.4844" id="GreenSpace" rx="2.5" ry="2.5" style="stroke:#181818;stroke-width:0.5;" width="86" x="220" y="197.5"/><text fill="#000000" font-family="sans-serif" font-size="14" lengthAdjust="spacing" textLength="80" x="223" y="217.6074">GreenSpace</text><line style="stroke:#181818;stroke-width:0.5;" x1="221" x2="305" y1="226.1211" y2="226.1211"/><text fill="#000000" font-family="sans-serif" font-size="14" lengthAdjust="spacing" textLength="35" x="226" y="245.2285">name</text><text fill="#000000" font-family="sans-serif" font-size="14" lengthAdjust="spacing" textLength="51" x="226" y="263.8496">address</text><text fill="#000000" font-family="sans-serif" font-size="14" lengthAdjust="spacing" textLength="64" x="226" y="282.4707">dimension</text></g><!--class Garden--><g id="elem_Garden"><rect codeLine="37" fill="#F1F1F1" height="36.6211" id="Garden" rx="2.5" ry="2.5" style="stroke:#181818;stroke-width:0.5;" width="54" x="7" y="415"/><text fill="#000000" font-family="sans-serif" font-size="14" lengthAdjust="spacing" textLength="48" x="10" y="435.1074">Garden</text><line style="stroke:#181818;stroke-width:0.5;" x1="8" x2="60" y1="443.6211" y2="443.6211"/></g><!--class MediumSizedPark--><g id="elem_MediumSizedPark"><rect codeLine="41" fill="#F1F1F1" height="36.6211" id="MediumSizedPark" rx="2.5" ry="2.5" style="stroke:#181818;stroke-width:0.5;" width="118" x="96" y="415"/><text fill="#000000" font-family="sans-serif" font-size="14" lengthAdjust="spacing" textLength="112" x="99" y="435.1074">MediumSizedPark</text><line style="stroke:#181818;stroke-width:0.5;" x1="97" x2="213" y1="443.6211" y2="443.6211"/></g><!--class LargeSizedPark--><g id="elem_LargeSizedPark"><rect codeLine="45" fill="#F1F1F1" height="36.6211" id="LargeSizedPark" rx="2.5" ry="2.5" style="stroke:#181818;stroke-width:0.5;" width="106" x="249" y="415"/><text fill="#000000" font-family="sans-serif" font-size="14" lengthAdjust="spacing" textLength="100" x="252" y="435.1074">LargeSizedPark</text><line style="stroke:#181818;stroke-width:0.5;" x1="250" x2="354" y1="443.6211" y2="443.6211"/></g><!--class Vehicle--><g id="elem_Vehicle"><rect codeLine="48" fill="#F1F1F1" height="185.5898" id="Vehicle" rx="2.5" ry="2.5" style="stroke:#181818;stroke-width:0.5;" width="222" x="443" y="540"/><text fill="#000000" font-family="sans-serif" font-size="14" lengthAdjust="spacing" textLength="46" x="531" y="560.1074">Vehicle</text><line style="stroke:#181818;stroke-width:0.5;" x1="444" x2="664" y1="568.6211" y2="568.6211"/><text fill="#000000" font-family="sans-serif" font-size="14" lengthAdjust="spacing" textLength="46" x="449" y="587.7285">plate id</text><text fill="#000000" font-family="sans-serif" font-size="14" lengthAdjust="spacing" textLength="27" x="449" y="606.3496">type</text><text fill="#000000" font-family="sans-serif" font-size="14" lengthAdjust="spacing" textLength="25" x="449" y="624.9707">tare</text><text fill="#000000" font-family="sans-serif" font-size="14" lengthAdjust="spacing" textLength="79" x="449" y="643.5918">gross weight</text><text fill="#000000" font-family="sans-serif" font-size="14" lengthAdjust="spacing" textLength="74" x="449" y="662.2129">current kms</text><text fill="#000000" font-family="sans-serif" font-size="14" lengthAdjust="spacing" textLength="103" x="449" y="680.834">registration date</text><text fill="#000000" font-family="sans-serif" font-size="14" lengthAdjust="spacing" textLength="99" x="449" y="699.4551">acquisition date</text><text fill="#000000" font-family="sans-serif" font-size="14" lengthAdjust="spacing" textLength="210" x="449" y="718.0762">maintenance/check-up frequency</text></g><!--class VehiclesCheckUp--><g id="elem_VehiclesCheckUp"><rect codeLine="59" fill="#F1F1F1" height="55.2422" id="VehiclesCheckUp" rx="2.5" ry="2.5" style="stroke:#181818;stroke-width:0.5;" width="116" x="496" y="406"/><text fill="#000000" font-family="sans-serif" font-size="14" lengthAdjust="spacing" textLength="110" x="499" y="426.1074">VehiclesCheckUp</text><line style="stroke:#181818;stroke-width:0.5;" x1="497" x2="611" y1="434.6211" y2="434.6211"/><text fill="#000000" font-family="sans-serif" font-size="14" lengthAdjust="spacing" textLength="46" x="502" y="453.7285">plate id</text></g><!--class Brand--><g id="elem_Brand"><rect codeLine="63" fill="#F1F1F1" height="55.2422" id="Brand" rx="2.5" ry="2.5" style="stroke:#181818;stroke-width:0.5;" width="47" x="735.5" y="605.5"/><text fill="#000000" font-family="sans-serif" font-size="14" lengthAdjust="spacing" textLength="38" x="740" y="625.6074">Brand</text><line style="stroke:#181818;stroke-width:0.5;" x1="736.5" x2="781.5" y1="634.1211" y2="634.1211"/><text fill="#000000" font-family="sans-serif" font-size="14" lengthAdjust="spacing" textLength="35" x="741.5" y="653.2285">name</text></g><!--class Model--><g id="elem_Model"><rect codeLine="67" fill="#F1F1F1" height="55.2422" id="Model" rx="2.5" ry="2.5" style="stroke:#181818;stroke-width:0.5;" width="47" x="853.5" y="605.5"/><text fill="#000000" font-family="sans-serif" font-size="14" lengthAdjust="spacing" textLength="38" x="858" y="625.6074">Model</text><line style="stroke:#181818;stroke-width:0.5;" x1="854.5" x2="899.5" y1="634.1211" y2="634.1211"/><text fill="#000000" font-family="sans-serif" font-size="14" lengthAdjust="spacing" textLength="35" x="859.5" y="653.2285">name</text></g><!--reverse link Collaborator to VFM--><g id="link_Collaborator_VFM"><path codeLine="71" d="M559.06,243.5 C570.78,243.5 564.5,243.5 576.22,243.5 " fill="none" id="Collaborator-backto-VFM" style="stroke:#181818;stroke-width:1.0;"/><polygon fill="none" points="541.06,243.5,559.06,249.5,559.06,237.5,541.06,243.5" style="stroke:#181818;stroke-width:1.0;"/></g><!--link VFM to VehiclesCheckUp--><g id="link_VFM_VehiclesCheckUp"><path codeLine="72" d="M590.24,262.19 C583.2,295.28 568,366.71 559.7,405.73 " fill="none" id="VFM-VehiclesCheckUp" style="stroke:#181818;stroke-width:1.0;"/><polygon fill="#000000" points="572.9595,371.536,577.7164,363.3006,571.9672,362.0774,572.9595,371.536" style="stroke:#000000;stroke-width:1.0;"/><text fill="#000000" font-family="sans-serif" font-size="13" lengthAdjust="spacing" textLength="24" x="583" y="372.0283">lists</text><text fill="#000000" font-family="sans-serif" font-size="13" lengthAdjust="spacing" textLength="7" x="581.2889" y="283.6157">1</text><text fill="#000000" font-family="sans-serif" font-size="13" lengthAdjust="spacing" textLength="20" x="538.7594" y="394.8296">1..*</text></g><!--reverse link GreenSpace to Garden--><g id="link_GreenSpace_Garden"><path codeLine="73" d="M206.0176,291.2813 C157.0376,331.4913 92.95,384.1 55.48,414.87 " fill="none" id="GreenSpace-backto-Garden" style="stroke:#181818;stroke-width:1.0;"/><polygon fill="none" points="219.93,279.86,202.2105,286.6439,209.8247,295.9188,219.93,279.86" style="stroke:#181818;stroke-width:1.0;"/></g><!--reverse link GreenSpace to MediumSizedPark--><g id="link_GreenSpace_MediumSizedPark"><path codeLine="74" d="M228.1631,305.1375 C205.0731,345.3275 181.43,386.49 165.12,414.88 " fill="none" id="GreenSpace-backto-MediumSizedPark" style="stroke:#181818;stroke-width:1.0;"/><polygon fill="none" points="237.13,289.53,222.9606,302.1486,233.3657,308.1265,237.13,289.53" style="stroke:#181818;stroke-width:1.0;"/></g><!--reverse link GreenSpace to LargeSizedPark--><g id="link_GreenSpace_LargeSizedPark"><path codeLine="75" d="M275.9973,307.1545 C284.3373,347.3445 292.46,386.49 298.35,414.88 " fill="none" id="GreenSpace-backto-LargeSizedPark" style="stroke:#181818;stroke-width:1.0;"/><polygon fill="none" points="272.34,289.53,270.1225,308.3736,281.8722,305.9354,272.34,289.53" style="stroke:#181818;stroke-width:1.0;"/></g><!--link GreenSpace to Collaborator--><g id="link_GreenSpace_Collaborator"><path codeLine="76" d="M306,243.5 C334.44,243.5 372.34,243.5 404.84,243.5 " fill="none" id="GreenSpace-Collaborator" style="stroke:#181818;stroke-width:1.0;"/><polygon fill="#000000" points="333.5,231.1455,324.4549,228.2066,324.4549,234.0844,333.5,231.1455" style="stroke:#000000;stroke-width:1.0;"/><text fill="#000000" font-family="sans-serif" font-size="13" lengthAdjust="spacing" textLength="49" x="337.5" y="236.5283">contains</text><text fill="#000000" font-family="sans-serif" font-size="13" lengthAdjust="spacing" textLength="7" x="313.9922" y="239.0508">1</text><text fill="#000000" font-family="sans-serif" font-size="13" lengthAdjust="spacing" textLength="20" x="376.7798" y="258.4215">1..*</text></g><!--link VehiclesCheckUp to Vehicle--><g id="link_VehiclesCheckUp_Vehicle"><path codeLine="77" d="M554,461.14 C554,481.56 554,511.04 554,539.78 " fill="none" id="VehiclesCheckUp-Vehicle" style="stroke:#181818;stroke-width:1.0;"/><polygon fill="#000000" points="559,505.6455,561.9389,496.6004,556.0611,496.6004,559,505.6455" style="stroke:#000000;stroke-width:1.0;"/><text fill="#000000" font-family="sans-serif" font-size="13" lengthAdjust="spacing" textLength="49" x="568" y="506.0283">contains</text><text fill="#000000" font-family="sans-serif" font-size="13" lengthAdjust="spacing" textLength="7" x="546.2344" y="483.0793">1</text><text fill="#000000" font-family="sans-serif" font-size="13" lengthAdjust="spacing" textLength="20" x="533.2031" y="528.7304">1..*</text></g><!--link GreenSpace to Vehicle--><g id="link_GreenSpace_Vehicle"><path codeLine="78" d="M296.95,289.71 C342.75,350.7 425.41,460.77 484.64,539.64 " fill="none" id="GreenSpace-Vehicle" style="stroke:#181818;stroke-width:1.0;"/><polygon fill="#000000" points="431.0025,437.6436,427.921,428.6461,423.2209,432.1758,431.0025,437.6436" style="stroke:#000000;stroke-width:1.0;"/><text fill="#000000" font-family="sans-serif" font-size="13" lengthAdjust="spacing" textLength="21" x="437" y="439.0283">has</text><text fill="#000000" font-family="sans-serif" font-size="13" lengthAdjust="spacing" textLength="7" x="294.6127" y="312.101">1</text><text fill="#000000" font-family="sans-serif" font-size="13" lengthAdjust="spacing" textLength="20" x="458.316" y="528.5793">1..*</text></g><!--link Organization to GreenSpace--><g id="link_Organization_GreenSpace"><path codeLine="79" d="M434.48,81.22 C398.25,115.3 344.07,166.25 306.34,201.74 " fill="none" id="Organization-GreenSpace" style="stroke:#181818;stroke-width:1.0;"/><polygon fill="#000000" points="400.3578,124.0711,408.9601,120.015,404.9331,115.7333,400.3578,124.0711" style="stroke:#000000;stroke-width:1.0;"/><text fill="#000000" font-family="sans-serif" font-size="13" lengthAdjust="spacing" textLength="30" x="413" y="126.0283">owns</text><text fill="#000000" font-family="sans-serif" font-size="13" lengthAdjust="spacing" textLength="7" x="420.5204" y="102.8561">1</text><text fill="#000000" font-family="sans-serif" font-size="13" lengthAdjust="spacing" textLength="20" x="313.8409" y="191.6869">1..*</text></g><!--link Organization to Collaborator--><g id="link_Organization_Collaborator"><path codeLine="80" d="M473,81.22 C473,103.27 473,132.39 473,159.81 " fill="none" id="Organization-Collaborator" style="stroke:#181818;stroke-width:1.0;"/><polygon fill="#000000" points="478,115.6455,475.0611,124.6906,480.9389,124.6906,478,115.6455" style="stroke:#000000;stroke-width:1.0;"/><text fill="#000000" font-family="sans-serif" font-size="13" lengthAdjust="spacing" textLength="52" x="487" y="126.0283">works for</text><text fill="#000000" font-family="sans-serif" font-size="13" lengthAdjust="spacing" textLength="7" x="465.4203" y="102.8561">1</text><text fill="#000000" font-family="sans-serif" font-size="13" lengthAdjust="spacing" textLength="20" x="452.1094" y="148.642">1..*</text></g><!--link GreenSpace to VehiclesCheckUp--><g id="link_GreenSpace_VehiclesCheckUp"><path codeLine="81" d="M306.03,275.04 C329.72,291.3 359.92,311.15 388,327 C415.01,342.24 424.38,341.1 451,357 C475.36,371.55 501.11,390.43 520.77,405.67 " fill="none" id="GreenSpace-VehiclesCheckUp" style="stroke:#181818;stroke-width:1.0;"/><polygon fill="#000000" points="486.2717,369.2441,480.0715,362.0324,477.0167,367.0541,486.2717,369.2441" style="stroke:#000000;stroke-width:1.0;"/><text fill="#000000" font-family="sans-serif" font-size="13" lengthAdjust="spacing" textLength="21" x="491" y="372.0283">has</text><text fill="#000000" font-family="sans-serif" font-size="13" lengthAdjust="spacing" textLength="7" x="314.0273" y="276.0117">1</text><text fill="#000000" font-family="sans-serif" font-size="13" lengthAdjust="spacing" textLength="7" x="505.7353" y="394.7565">1</text></g><!--link Vehicle to Brand--><g id="link_Vehicle_Brand"><path codeLine="82" d="M665.2,633 C691.74,633 717.5,633 735.29,633 " fill="none" id="Vehicle-Brand" style="stroke:#181818;stroke-width:1.0;"/><polygon fill="#000000" points="692.25,620.6455,683.2049,617.7066,683.2049,623.5844,692.25,620.6455" style="stroke:#000000;stroke-width:1.0;"/><text fill="#000000" font-family="sans-serif" font-size="13" lengthAdjust="spacing" textLength="21" x="696.25" y="626.0283">has</text><text fill="#000000" font-family="sans-serif" font-size="13" lengthAdjust="spacing" textLength="7" x="672.9064" y="629.4808">1</text><text fill="#000000" font-family="sans-serif" font-size="13" lengthAdjust="spacing" textLength="7" x="720.6372" y="627.6446">1</text></g><!--link Brand to Model--><g id="link_Brand_Model"><path codeLine="83" d="M782.6,633 C803.18,633 832.88,633 853.45,633 " fill="none" id="Brand-Model" style="stroke:#181818;stroke-width:1.0;"/><polygon fill="#000000" points="810,620.6455,800.9549,617.7066,800.9549,623.5844,810,620.6455" style="stroke:#000000;stroke-width:1.0;"/><text fill="#000000" font-family="sans-serif" font-size="13" lengthAdjust="spacing" textLength="21" x="814" y="626.0283">has</text><text fill="#000000" font-family="sans-serif" font-size="13" lengthAdjust="spacing" textLength="7" x="790.5606" y="627.5386">1</text><text fill="#000000" font-family="sans-serif" font-size="13" lengthAdjust="spacing" textLength="20" x="825.6916" y="648.9996">1..*</text></g><!--link Organization to Vehicle--><g id="link_Organization_Vehicle"><path codeLine="84" d="M516.02,63.04 C553.52,81.36 605.47,113.65 629,160 C699.42,298.71 673.06,361.73 626,510 C622.84,519.96 618.74,529.98 614.11,539.76 " fill="none" id="Organization-Vehicle" style="stroke:#181818;stroke-width:1.0;"/><polygon fill="#000000" points="674.0077,371.5429,675.0634,362.0911,669.3061,363.2757,674.0077,371.5429" style="stroke:#000000;stroke-width:1.0;"/><text fill="#000000" font-family="sans-serif" font-size="13" lengthAdjust="spacing" textLength="30" x="682" y="372.0283">owns</text><text fill="#000000" font-family="sans-serif" font-size="13" lengthAdjust="spacing" textLength="7" x="524.0156" y="61.9166">1</text><text fill="#000000" font-family="sans-serif" font-size="13" lengthAdjust="spacing" textLength="20" x="598.1031" y="528.7089">1..*</text></g><!--SRC=[XL9DQzmm4BthLmnx2HGsRQzBARG93O6aBMpR-wmqQmjRaZEIMJPf_dibsLv_P9VwulcUD-_9Lzeso6Z0EEjaoSuG16v9-5EcGLbXGTjmh0cOP41RrDC2Nw9o1sqBs6FjIOYhclO1WWFMHHb0wTIbdHMJ9bcZzrz2OBrh0zrBPxVwcU234ALM15ApZ4koRIYKJdaXSW_SkBh6dMCCZk55GFmi6ih6JdCe5OREGsMqzt7nxHXHJDvdEwuCACEztRliQtNhP6l8Xb_7XXQXxwtP4OlN7iCFBj3gPqnNBI0CAru7l7- -FKQOoUy3Tqnajv5MWWkzoLOwxatWnqbto8fiFwmBFPBIhKdKgP_8rIptW1nbcwTwI5JgI6-tlQaZE_7Kx8JXz83S6GMxs76W96N7MyiS6O7AT42P2kq3PovWv5u-jThhUT2Wje4iMadlPKcoMhSDx9cUMhBoEA6im-TlKitl1XP0JtLV6Qrw4Pc_aHAdg1w3i-VowUywwI6I9gkFArYlu-_w-jrgkN83TJpAmsSnKIjshtiHteGNGhp9pyMOfZEE0SOKxQPxejec64jApgAVTLnQSQejCPLDd_AyS1om0NUmvuil83yuhZpi4-NdW9pXkqFJXoU5MUCXdPqvoYpt_uyvNTrTyWy0]--></g></svg>