<?xml version="1.0" encoding="us-ascii" standalone="no"?><svg xmlns="http://www.w3.org/2000/svg" xmlns:xlink="http://www.w3.org/1999/xlink" contentStyleType="text/css" height="468px" preserveAspectRatio="none" style="width:868px;height:468px;background:#FFFFFF;" version="1.1" viewBox="0 0 868 468" width="868px" zoomAndPan="magnify"><defs/><g><rect fill="#FFFFFF" height="303.541" style="stroke:#181818;stroke-width:1.0;" width="10" x="372" y="90.5332"/><rect fill="#FFFFFF" height="52.291" style="stroke:#181818;stroke-width:1.0;" width="10" x="548.5" y="303.4922"/><rect fill="none" height="258.25" style="stroke:#000000;stroke-width:1.5;" width="559" x="303.5" y="105.5332"/><rect fill="none" height="131.4258" style="stroke:#000000;stroke-width:1.5;" width="539" x="313.5" y="194.0664"/><rect fill="none" height="98.1348" style="stroke:#000000;stroke-width:1.5;" width="519" x="323.5" y="220.3574"/><rect fill="none" height="64.8438" style="stroke:#000000;stroke-width:1.5;" width="499" x="333.5" y="246.6484"/><line style="stroke:#181818;stroke-width:0.5;stroke-dasharray:5.0,5.0;" x1="376.5" x2="376.5" y1="57.2422" y2="412.0742"/><line style="stroke:#181818;stroke-width:0.5;stroke-dasharray:5.0,5.0;" x1="553" x2="553" y1="165.9453" y2="412.0742"/><rect fill="#E3E3E3" height="51.2422" rx="2.5" ry="2.5" style="stroke:#181818;stroke-width:0.5;" width="67" x="343.5" y="5"/><text fill="#000000" font-family="sans-serif" font-size="14" lengthAdjust="spacing" textLength="48" x="353" y="27.1074">agenda</text><text fill="#000000" font-family="sans-serif" font-size="14" lengthAdjust="spacing" textLength="53" x="350.5" y="45.7285">:Agenda</text><rect fill="#E3E3E3" height="51.2422" rx="2.5" ry="2.5" style="stroke:#181818;stroke-width:0.5;" width="67" x="343.5" y="411.0742"/><text fill="#000000" font-family="sans-serif" font-size="14" lengthAdjust="spacing" textLength="48" x="353" y="433.1816">agenda</text><text fill="#000000" font-family="sans-serif" font-size="14" lengthAdjust="spacing" textLength="53" x="350.5" y="451.8027">:Agenda</text><rect fill="#E3E3E3" height="51.2422" rx="2.5" ry="2.5" style="stroke:#181818;stroke-width:0.5;" width="149" x="479" y="411.0742"/><text fill="#000000" font-family="sans-serif" font-size="14" lengthAdjust="spacing" textLength="92" x="507.5" y="433.1816">agendaEntries</text><text fill="#000000" font-family="sans-serif" font-size="14" lengthAdjust="spacing" textLength="135" x="486" y="451.8027">:List&lt;AgendaEntries&gt;</text><rect fill="#FFFFFF" height="303.541" style="stroke:#181818;stroke-width:1.0;" width="10" x="372" y="90.5332"/><rect fill="#FFFFFF" height="52.291" style="stroke:#181818;stroke-width:1.0;" width="10" x="548.5" y="303.4922"/><polygon fill="#181818" points="360,86.5332,370,90.5332,360,94.5332,364,90.5332" style="stroke:#181818;stroke-width:1.0;"/><line style="stroke:#181818;stroke-width:1.0;" x1="0" x2="366" y1="90.5332" y2="90.5332"/><text fill="#000000" font-family="sans-serif" font-size="13" font-weight="bold" lengthAdjust="spacing" textLength="14" x="7" y="85.2705">30</text><text fill="#000000" font-family="sans-serif" font-size="13" lengthAdjust="spacing" textLength="335" x="25" y="85.2705">getCollaboratorAgendaEntries(taskList,startDate,endDate)</text><path d="M303.5,105.5332 L429.5,105.5332 L429.5,114.8242 L419.5,124.8242 L303.5,124.8242 L303.5,105.5332 " fill="#EEEEEE" style="stroke:#000000;stroke-width:1.5;"/><rect fill="none" height="258.25" style="stroke:#000000;stroke-width:1.5;" width="559" x="303.5" y="105.5332"/><text fill="#000000" font-family="sans-serif" font-size="13" font-weight="bold" lengthAdjust="spacing" textLength="81" x="318.5" y="120.5615">Get Task List</text><polygon fill="#181818" points="467,144.1152,477,148.1152,467,152.1152,471,148.1152" style="stroke:#181818;stroke-width:1.0;"/><line style="stroke:#181818;stroke-width:1.0;stroke-dasharray:2.0,2.0;" x1="382" x2="473" y1="148.1152" y2="148.1152"/><text fill="#000000" font-family="sans-serif" font-size="13" font-weight="bold" lengthAdjust="spacing" textLength="25" x="389" y="142.8525">30.1</text><text fill="#000000" font-family="sans-serif" font-size="13" lengthAdjust="spacing" textLength="44" x="418" y="142.8525">create()</text><rect fill="#E3E3E3" height="51.2422" rx="2.5" ry="2.5" style="stroke:#181818;stroke-width:0.5;" width="149" x="479" y="124.8242"/><text fill="#000000" font-family="sans-serif" font-size="14" lengthAdjust="spacing" textLength="92" x="507.5" y="146.9316">agendaEntries</text><text fill="#000000" font-family="sans-serif" font-size="14" lengthAdjust="spacing" textLength="135" x="486" y="165.5527">:List&lt;AgendaEntries&gt;</text><path d="M313.5,194.0664 L386.5,194.0664 L386.5,203.3574 L376.5,213.3574 L313.5,213.3574 L313.5,194.0664 " fill="#EEEEEE" style="stroke:#000000;stroke-width:1.5;"/><rect fill="none" height="131.4258" style="stroke:#000000;stroke-width:1.5;" width="539" x="313.5" y="194.0664"/><text fill="#000000" font-family="sans-serif" font-size="13" font-weight="bold" lengthAdjust="spacing" textLength="28" x="328.5" y="209.0947">loop</text><text fill="#000000" font-family="sans-serif" font-size="11" font-weight="bold" lengthAdjust="spacing" textLength="80" x="401.5" y="207.9365">[for each task]</text><path d="M323.5,220.3574 L396.5,220.3574 L396.5,229.6484 L386.5,239.6484 L323.5,239.6484 L323.5,220.3574 " fill="#EEEEEE" style="stroke:#000000;stroke-width:1.5;"/><rect fill="none" height="98.1348" style="stroke:#000000;stroke-width:1.5;" width="519" x="323.5" y="220.3574"/><text fill="#000000" font-family="sans-serif" font-size="13" font-weight="bold" lengthAdjust="spacing" textLength="28" x="338.5" y="235.3857">loop</text><text fill="#000000" font-family="sans-serif" font-size="11" font-weight="bold" lengthAdjust="spacing" textLength="124" x="411.5" y="234.2275">[for each agendaEntry]</text><path d="M333.5,246.6484 L398.5,246.6484 L398.5,255.9395 L388.5,265.9395 L333.5,265.9395 L333.5,246.6484 " fill="#EEEEEE" style="stroke:#000000;stroke-width:1.5;"/><rect fill="none" height="64.8438" style="stroke:#000000;stroke-width:1.5;" width="499" x="333.5" y="246.6484"/><text fill="#000000" font-family="sans-serif" font-size="13" font-weight="bold" lengthAdjust="spacing" textLength="20" x="348.5" y="261.6768">opt</text><text fill="#000000" font-family="sans-serif" font-size="11" font-weight="bold" lengthAdjust="spacing" textLength="411" x="413.5" y="260.5186">[(agendaEntry.getTask() == task &amp;&amp; agendaEntry.getStartDate() &gt;= startDate</text><text fill="#000000" font-family="sans-serif" font-size="11" font-weight="bold" lengthAdjust="spacing" textLength="231" x="416.5" y="275.1494">&amp;&amp; agendaEntry.getEndDate() &lt;= endDate)]</text><polygon fill="#181818" points="536.5,299.4922,546.5,303.4922,536.5,307.4922,540.5,303.4922" style="stroke:#181818;stroke-width:1.0;"/><line style="stroke:#181818;stroke-width:1.0;" x1="382" x2="542.5" y1="303.4922" y2="303.4922"/><text fill="#000000" font-family="sans-serif" font-size="13" font-weight="bold" lengthAdjust="spacing" textLength="25" x="389" y="298.2295">30.2</text><text fill="#000000" font-family="sans-serif" font-size="13" lengthAdjust="spacing" textLength="102" x="418" y="298.2295">add(agendaEntry)</text><polygon fill="#181818" points="393,351.7832,383,355.7832,393,359.7832,389,355.7832" style="stroke:#181818;stroke-width:1.0;"/><line style="stroke:#181818;stroke-width:1.0;stroke-dasharray:2.0,2.0;" x1="387" x2="552.5" y1="355.7832" y2="355.7832"/><text fill="#000000" font-family="sans-serif" font-size="13" font-weight="bold" lengthAdjust="spacing" textLength="25" x="399" y="350.5205">30.3</text><text fill="#000000" font-family="sans-serif" font-size="13" lengthAdjust="spacing" textLength="94" x="428" y="350.5205">agendaEntryList</text><polygon fill="#181818" points="11,390.0742,1,394.0742,11,398.0742,7,394.0742" style="stroke:#181818;stroke-width:1.0;"/><line style="stroke:#181818;stroke-width:1.0;stroke-dasharray:2.0,2.0;" x1="5" x2="376" y1="394.0742" y2="394.0742"/><text fill="#000000" font-family="sans-serif" font-size="13" font-weight="bold" lengthAdjust="spacing" textLength="14" x="17" y="388.8115">31</text><text fill="#000000" font-family="sans-serif" font-size="13" lengthAdjust="spacing" textLength="94" x="35" y="388.8115">agendaEntryList</text><!--SRC=[ZP9FRy8m3CNl-HGM1mQ8eg7T44L2eqAJ9Ww38nVJXbBH9bLYjl7jvp3Aql97yoLLylpyqwljFbCb6YoWq4h7EwCB2MGEKjZBIudn7bEvf6CkmSYOKAMvBx0xJFHNfbBOOcwb47WWhGx5HXeXddPP8c6hDMtqjn3SGLcSbQW8Mkog4bohqVJqqGAqC9r7YzdqbYvIP39fMVwUMHfF_Sk9rnijLXzlqLBu7F3oB0G4axC4Hf1AUjLvZXjjaBIfkNK8xTuDwLjYZXcIxFEpExjrqy5GO4pP9xzKvC2L6dqeOIu9Lkm4pefnmAipHt11EbFtUimM6yc6dMwjmrMkTSbP6f0Oxy1HNackPN_f7M-gNUcIeEC91noFG-zq8GnFWw3TXePWMON3gaa8bwnWhMweezy0MJiEuP8cFAWgeqP4710cYK_xsCPLuoTLAt9FpixYl_VDkpfhuE-SXtnQ2RyjaGyOtGn_xuPY70JtVQ-yVW00]--></g></svg>