<?xml version="1.0" encoding="us-ascii" standalone="no"?><svg xmlns="http://www.w3.org/2000/svg" xmlns:xlink="http://www.w3.org/1999/xlink" contentStyleType="text/css" height="804px" preserveAspectRatio="none" style="width:1195px;height:804px;background:#FFFFFF;" version="1.1" viewBox="0 0 1195 804" width="1195.2px" zoomAndPan="magnify"><defs/><g><!--cluster UI--><g id="cluster_UI"><path d="M472.5,3.6082 L481.5,3.6082 A2.25,2.25 0 0 1 483,5.1082 L487.2,18.3809 L571.5,18.3809 A1.5,1.5 0 0 1 573,19.8809 L573,62.7082 A1.5,1.5 0 0 1 571.5,64.2082 L472.5,64.2082 A1.5,1.5 0 0 1 471,62.7082 L471,5.1082 A1.5,1.5 0 0 1 472.5,3.6082 " fill="none" style="stroke:#000000;stroke-width:0.8999999999999999;"/><line style="stroke:#000000;stroke-width:0.8999999999999999;" x1="471" x2="487.2" y1="18.3809" y2="18.3809"/><text fill="#000000" font-family="sans-serif" font-size="8.4" font-weight="bold" lengthAdjust="spacing" textLength="8.4" x="473.4" y="13.8727">UI</text></g><!--cluster Controller--><g id="cluster_Controller"><path d="M396.9,84.0082 L440.1,84.0082 A2.25,2.25 0 0 1 441.6,85.5082 L445.8,98.7809 L647.1,98.7809 A1.5,1.5 0 0 1 648.6,100.2809 L648.6,198.9082 A1.5,1.5 0 0 1 647.1,200.4082 L396.9,200.4082 A1.5,1.5 0 0 1 395.4,198.9082 L395.4,85.5082 A1.5,1.5 0 0 1 396.9,84.0082 " fill="none" style="stroke:#000000;stroke-width:0.8999999999999999;"/><line style="stroke:#000000;stroke-width:0.8999999999999999;" x1="395.4" x2="445.8" y1="98.7809" y2="98.7809"/><text fill="#000000" font-family="sans-serif" font-size="8.4" font-weight="bold" lengthAdjust="spacing" textLength="42.6" x="397.8" y="94.2727">Controller</text></g><!--cluster Domain--><g id="cluster_Domain"><path d="M68.1,279.0082 L99.9,279.0082 A2.25,2.25 0 0 1 101.4,280.5082 L105.6,293.7809 L1189.5,293.7809 A1.5,1.5 0 0 1 1191,295.2809 L1191,798.3082 A1.5,1.5 0 0 1 1189.5,799.8082 L68.1,799.8082 A1.5,1.5 0 0 1 66.6,798.3082 L66.6,280.5082 A1.5,1.5 0 0 1 68.1,279.0082 " fill="none" style="stroke:#000000;stroke-width:0.8999999999999999;"/><line style="stroke:#000000;stroke-width:0.8999999999999999;" x1="66.6" x2="105.6" y1="293.7809" y2="293.7809"/><text fill="#000000" font-family="sans-serif" font-size="8.4" font-weight="bold" lengthAdjust="spacing" textLength="31.2" x="69" y="289.2727">Domain</text></g><!--cluster Model--><g id="cluster_Model"><path d="M775.5,680.4082 L802.5,680.4082 A2.25,2.25 0 0 1 804,681.9082 L808.2,695.1809 L1018.5,695.1809 A1.5,1.5 0 0 1 1020,696.6809 L1020,783.9082 A1.5,1.5 0 0 1 1018.5,785.4082 L775.5,785.4082 A1.5,1.5 0 0 1 774,783.9082 L774,681.9082 A1.5,1.5 0 0 1 775.5,680.4082 " fill="none" style="stroke:#000000;stroke-width:0.8999999999999999;"/><line style="stroke:#000000;stroke-width:0.8999999999999999;" x1="774" x2="808.2" y1="695.1809" y2="695.1809"/><text fill="#000000" font-family="sans-serif" font-size="8.4" font-weight="bold" lengthAdjust="spacing" textLength="26.4" x="776.4" y="690.6727">Model</text></g><!--cluster Repository--><g id="cluster_Repository"><path d="M269.7,306.0082 L315.9,306.0082 A2.25,2.25 0 0 1 317.4,307.5082 L321.6,320.7809 L1175.1,320.7809 A1.5,1.5 0 0 1 1176.6,322.2809 L1176.6,606.0082 A1.5,1.5 0 0 1 1175.1,607.5082 L269.7,607.5082 A1.5,1.5 0 0 1 268.2,606.0082 L268.2,307.5082 A1.5,1.5 0 0 1 269.7,306.0082 " fill="none" style="stroke:#000000;stroke-width:0.8999999999999999;"/><line style="stroke:#000000;stroke-width:0.8999999999999999;" x1="268.2" x2="321.6" y1="320.7809" y2="320.7809"/><text fill="#000000" font-family="sans-serif" font-size="8.4" font-weight="bold" lengthAdjust="spacing" textLength="45.6" x="270.6" y="316.2727">Repository</text></g><!--cluster Mapper--><g id="cluster_Mapper"><path d="M82.5,328.5082 L115.5,328.5082 A2.25,2.25 0 0 1 117,330.0082 L121.2,343.2809 L252.3,343.2809 A1.5,1.5 0 0 1 253.8,344.7809 L253.8,648.3082 A1.5,1.5 0 0 1 252.3,649.8082 L82.5,649.8082 A1.5,1.5 0 0 1 81,648.3082 L81,330.0082 A1.5,1.5 0 0 1 82.5,328.5082 " fill="none" style="stroke:#000000;stroke-width:0.8999999999999999;"/><line style="stroke:#000000;stroke-width:0.8999999999999999;" x1="81" x2="121.2" y1="343.2809" y2="343.2809"/><text fill="#000000" font-family="sans-serif" font-size="8.4" font-weight="bold" lengthAdjust="spacing" textLength="32.4" x="83.4" y="338.7727">Mapper</text></g><!--cluster DTO--><g id="cluster_DTO"><path d="M105.3,463.2082 L123.3,463.2082 A2.25,2.25 0 0 1 124.8,464.7082 L129,477.9809 L229.5,477.9809 A1.5,1.5 0 0 1 231,479.4809 L231,633.9082 A1.5,1.5 0 0 1 229.5,635.4082 L105.3,635.4082 A1.5,1.5 0 0 1 103.8,633.9082 L103.8,464.7082 A1.5,1.5 0 0 1 105.3,463.2082 " fill="none" style="stroke:#000000;stroke-width:0.8999999999999999;"/><line style="stroke:#000000;stroke-width:0.8999999999999999;" x1="103.8" x2="129" y1="477.9809" y2="477.9809"/><text fill="#000000" font-family="sans-serif" font-size="8.4" font-weight="bold" lengthAdjust="spacing" textLength="17.4" x="106.2" y="473.4727">DTO</text></g><!--class UserInterface--><g id="elem_UserInterface"><rect codeLine="7" fill="#F1F1F1" height="28.8" id="UserInterface" rx="1.5" ry="1.5" style="stroke:#181818;stroke-width:0.3;" width="82.2" x="480.9" y="25.8082"/><ellipse cx="489.9" cy="35.4082" fill="#ADD1B2" rx="6.6" ry="6.6" style="stroke:#181818;stroke-width:0.6;"/><path d="M491.5594,32.9332 Q491.6531,32.802 491.7656,32.7363 Q491.8781,32.6707 492.0094,32.6707 Q492.2344,32.6707 492.375,32.8301 Q492.5156,32.9801 492.5156,33.3457 L492.5156,34.2176 Q492.5156,34.5832 492.375,34.7426 Q492.2344,34.902 492.0094,34.902 Q491.8031,34.902 491.6813,34.7801 Q491.5594,34.6676 491.4938,34.3582 Q491.4656,34.1426 491.3531,34.0301 Q491.1563,33.8051 490.7906,33.6738 Q490.425,33.5426 490.05,33.5426 Q489.5906,33.5426 489.2062,33.7395 Q488.8312,33.9363 488.5313,34.3863 Q488.2406,34.8363 488.2406,35.4551 L488.2406,36.1113 Q488.2406,36.852 488.775,37.3488 Q489.3094,37.8363 490.2656,37.8363 Q490.8281,37.8363 491.2219,37.6863 Q491.4562,37.5926 491.7094,37.3301 Q491.8688,37.1707 491.9531,37.1238 Q492.0469,37.077 492.1688,37.077 Q492.3656,37.077 492.5156,37.2363 Q492.675,37.3863 492.675,37.5926 Q492.675,37.7988 492.4688,38.0426 Q492.1688,38.3895 491.6906,38.5863 Q491.0438,38.8582 490.2656,38.8582 Q489.3563,38.8582 488.6344,38.4832 Q488.0438,38.1832 487.6312,37.5457 Q487.2188,36.8988 487.2188,36.1301 L487.2188,35.4363 Q487.2188,34.6395 487.5844,33.9551 Q487.9594,33.2613 488.6156,32.8957 Q489.2719,32.5207 490.0125,32.5207 Q490.4531,32.5207 490.8375,32.6238 Q491.2313,32.7176 491.5594,32.9332 Z " fill="#000000"/><text fill="#000000" font-family="sans-serif" font-size="8.4" lengthAdjust="spacing" textLength="63" x="498.3" y="38.8863">ListTaskSpaceUI</text><line style="stroke:#181818;stroke-width:0.3;" x1="481.5" x2="562.5" y1="45.0082" y2="45.0082"/><line style="stroke:#181818;stroke-width:0.3;" x1="481.5" x2="562.5" y1="49.8082" y2="49.8082"/></g><!--class CTRL--><g id="elem_CTRL"><rect codeLine="11" fill="#F1F1F1" height="84.6633" id="CTRL" rx="1.5" ry="1.5" style="stroke:#181818;stroke-width:0.3;" width="233.4" x="405.3" y="106.2082"/><ellipse cx="484.95" cy="115.8082" fill="#ADD1B2" rx="6.6" ry="6.6" style="stroke:#181818;stroke-width:0.6;"/><path d="M486.6094,113.3332 Q486.7031,113.202 486.8156,113.1363 Q486.9281,113.0707 487.0594,113.0707 Q487.2844,113.0707 487.425,113.2301 Q487.5656,113.3801 487.5656,113.7457 L487.5656,114.6176 Q487.5656,114.9832 487.425,115.1426 Q487.2844,115.302 487.0594,115.302 Q486.8531,115.302 486.7313,115.1801 Q486.6094,115.0676 486.5438,114.7582 Q486.5156,114.5426 486.4031,114.4301 Q486.2062,114.2051 485.8406,114.0738 Q485.475,113.9426 485.1,113.9426 Q484.6406,113.9426 484.2562,114.1395 Q483.8812,114.3363 483.5812,114.7863 Q483.2906,115.2363 483.2906,115.8551 L483.2906,116.5113 Q483.2906,117.252 483.825,117.7488 Q484.3594,118.2363 485.3156,118.2363 Q485.8781,118.2363 486.2719,118.0863 Q486.5062,117.9926 486.7594,117.7301 Q486.9188,117.5707 487.0031,117.5238 Q487.0969,117.477 487.2188,117.477 Q487.4156,117.477 487.5656,117.6363 Q487.725,117.7863 487.725,117.9926 Q487.725,118.1988 487.5187,118.4426 Q487.2188,118.7895 486.7406,118.9863 Q486.0938,119.2582 485.3156,119.2582 Q484.4063,119.2582 483.6844,118.8832 Q483.0938,118.5832 482.6813,117.9457 Q482.2687,117.2988 482.2687,116.5301 L482.2687,115.8363 Q482.2687,115.0395 482.6344,114.3551 Q483.0094,113.6613 483.6656,113.2957 Q484.3219,112.9207 485.0625,112.9207 Q485.5031,112.9207 485.8875,113.0238 Q486.2813,113.1176 486.6094,113.3332 Z " fill="#000000"/><text fill="#000000" font-family="sans-serif" font-size="8.4" lengthAdjust="spacing" textLength="69" x="497.25" y="119.2863">ListTaskController</text><line style="stroke:#181818;stroke-width:0.3;" x1="405.9" x2="638.1" y1="125.4082" y2="125.4082"/><line style="stroke:#181818;stroke-width:0.3;" x1="405.9" x2="638.1" y1="130.2082" y2="130.2082"/><text fill="#000000" font-family="sans-serif" font-size="8.4" lengthAdjust="spacing" textLength="34.8" x="408.9" y="141.6727">+create()</text><text fill="#000000" font-family="sans-serif" font-size="8.4" lengthAdjust="spacing" textLength="119.4" x="408.9" y="152.8453">+getCollaboratorByEmail(email)</text><text fill="#000000" font-family="sans-serif" font-size="8.4" lengthAdjust="spacing" textLength="60" x="408.9" y="164.018">+getStatusList()</text><text fill="#000000" font-family="sans-serif" font-size="8.4" lengthAdjust="spacing" textLength="144.6" x="408.9" y="175.1906">+getTaskList(collaborator, typeStatus)</text><text fill="#000000" font-family="sans-serif" font-size="8.4" lengthAdjust="spacing" textLength="226.2" x="408.9" y="186.3633">+getCollaboratorAgendaEntries(taskList,startDate,endDate)</text></g><!--class Team--><g id="elem_Team"><rect codeLine="22" fill="#F1F1F1" height="51.1453" id="Team" rx="1.5" ry="1.5" style="stroke:#181818;stroke-width:0.3;" width="117" x="783.9" y="713.7082"/><ellipse cx="829.05" cy="723.3082" fill="#ADD1B2" rx="6.6" ry="6.6" style="stroke:#181818;stroke-width:0.6;"/><path d="M830.7094,720.8332 Q830.8031,720.702 830.9156,720.6363 Q831.0281,720.5707 831.1594,720.5707 Q831.3844,720.5707 831.525,720.7301 Q831.6656,720.8801 831.6656,721.2457 L831.6656,722.1176 Q831.6656,722.4832 831.525,722.6426 Q831.3844,722.802 831.1594,722.802 Q830.9531,722.802 830.8313,722.6801 Q830.7094,722.5676 830.6438,722.2582 Q830.6156,722.0426 830.5031,721.9301 Q830.3063,721.7051 829.9406,721.5738 Q829.575,721.4426 829.2,721.4426 Q828.7406,721.4426 828.3562,721.6395 Q827.9812,721.8363 827.6813,722.2863 Q827.3906,722.7363 827.3906,723.3551 L827.3906,724.0113 Q827.3906,724.752 827.925,725.2488 Q828.4594,725.7363 829.4156,725.7363 Q829.9781,725.7363 830.3719,725.5863 Q830.6062,725.4926 830.8594,725.2301 Q831.0188,725.0707 831.1031,725.0238 Q831.1969,724.977 831.3188,724.977 Q831.5156,724.977 831.6656,725.1363 Q831.825,725.2863 831.825,725.4926 Q831.825,725.6988 831.6188,725.9426 Q831.3188,726.2895 830.8406,726.4863 Q830.1938,726.7582 829.4156,726.7582 Q828.5063,726.7582 827.7844,726.3832 Q827.1938,726.0832 826.7813,725.4457 Q826.3688,724.7988 826.3688,724.0301 L826.3688,723.3363 Q826.3688,722.5395 826.7344,721.8551 Q827.1094,721.1613 827.7656,720.7957 Q828.4219,720.4207 829.1625,720.4207 Q829.6031,720.4207 829.9875,720.5238 Q830.3813,720.6176 830.7094,720.8332 Z " fill="#000000"/><text fill="#000000" font-family="sans-serif" font-size="8.4" lengthAdjust="spacing" textLength="21.6" x="841.35" y="726.7863">Team</text><line style="stroke:#181818;stroke-width:0.3;" x1="784.5" x2="900.3" y1="732.9082" y2="732.9082"/><text fill="#000000" font-family="sans-serif" font-size="8.4" lengthAdjust="spacing" textLength="109.8" x="787.5" y="744.3727">-List&lt;Collaborator&gt; members</text><line style="stroke:#181818;stroke-width:0.3;" x1="784.5" x2="900.3" y1="748.8809" y2="748.8809"/><text fill="#000000" font-family="sans-serif" font-size="8.4" lengthAdjust="spacing" textLength="84" x="787.5" y="760.3453">+inTeam(collaborator)</text></g><!--class AgendaEntry--><g id="elem_AgendaEntry"><rect codeLine="27" fill="#F1F1F1" height="73.4906" id="AgendaEntry" rx="1.5" ry="1.5" style="stroke:#181818;stroke-width:0.3;" width="88.2" x="921.9" y="702.6082"/><ellipse cx="939.81" cy="712.2082" fill="#ADD1B2" rx="6.6" ry="6.6" style="stroke:#181818;stroke-width:0.6;"/><path d="M941.4694,709.7332 Q941.5631,709.602 941.6756,709.5363 Q941.7881,709.4707 941.9194,709.4707 Q942.1444,709.4707 942.285,709.6301 Q942.4256,709.7801 942.4256,710.1457 L942.4256,711.0176 Q942.4256,711.3832 942.285,711.5426 Q942.1444,711.702 941.9194,711.702 Q941.7131,711.702 941.5913,711.5801 Q941.4694,711.4676 941.4038,711.1582 Q941.3756,710.9426 941.2631,710.8301 Q941.0662,710.6051 940.7006,710.4738 Q940.335,710.3426 939.96,710.3426 Q939.5006,710.3426 939.1162,710.5395 Q938.7412,710.7363 938.4412,711.1863 Q938.1506,711.6363 938.1506,712.2551 L938.1506,712.9113 Q938.1506,713.652 938.685,714.1488 Q939.2194,714.6363 940.1756,714.6363 Q940.7381,714.6363 941.1319,714.4863 Q941.3662,714.3926 941.6194,714.1301 Q941.7788,713.9707 941.8631,713.9238 Q941.9569,713.877 942.0787,713.877 Q942.2756,713.877 942.4256,714.0363 Q942.585,714.1863 942.585,714.3926 Q942.585,714.5988 942.3787,714.8426 Q942.0787,715.1895 941.6006,715.3863 Q940.9537,715.6582 940.1756,715.6582 Q939.2662,715.6582 938.5444,715.2832 Q937.9537,714.9832 937.5412,714.3457 Q937.1287,713.6988 937.1287,712.9301 L937.1287,712.2363 Q937.1287,711.4395 937.4944,710.7551 Q937.8694,710.0613 938.5256,709.6957 Q939.1819,709.3207 939.9225,709.3207 Q940.3631,709.3207 940.7475,709.4238 Q941.1412,709.5176 941.4694,709.7332 Z " fill="#000000"/><text fill="#000000" font-family="sans-serif" font-size="8.4" lengthAdjust="spacing" textLength="49.2" x="950.19" y="715.6863">AgendaEntry</text><line style="stroke:#181818;stroke-width:0.3;" x1="922.5" x2="1009.5" y1="721.8082" y2="721.8082"/><text fill="#000000" font-family="sans-serif" font-size="8.4" lengthAdjust="spacing" textLength="42" x="925.5" y="733.2727">-Date dateI</text><text fill="#000000" font-family="sans-serif" font-size="8.4" lengthAdjust="spacing" textLength="45.6" x="925.5" y="744.4453">-Date dateF</text><text fill="#000000" font-family="sans-serif" font-size="8.4" lengthAdjust="spacing" textLength="81" x="925.5" y="755.618">-StatusOfEntry status</text><line style="stroke:#181818;stroke-width:0.3;" x1="922.5" x2="1009.5" y1="760.1262" y2="760.1262"/><text fill="#000000" font-family="sans-serif" font-size="8.4" lengthAdjust="spacing" textLength="60" x="925.5" y="771.5906">+getStatusList()</text></g><!--class RepositorySingleton--><g id="elem_RepositorySingleton"><rect codeLine="36" fill="#F1F1F1" height="95.8359" id="RepositorySingleton" rx="1.5" ry="1.5" style="stroke:#181818;stroke-width:0.3;" width="210" x="417" y="328.2082"/><ellipse cx="495.75" cy="337.8082" fill="#ADD1B2" rx="6.6" ry="6.6" style="stroke:#181818;stroke-width:0.6;"/><path d="M497.4094,335.3332 Q497.5031,335.202 497.6156,335.1363 Q497.7281,335.0707 497.8594,335.0707 Q498.0844,335.0707 498.225,335.2301 Q498.3656,335.3801 498.3656,335.7457 L498.3656,336.6176 Q498.3656,336.9832 498.225,337.1426 Q498.0844,337.302 497.8594,337.302 Q497.6531,337.302 497.5313,337.1801 Q497.4094,337.0676 497.3438,336.7582 Q497.3156,336.5426 497.2031,336.4301 Q497.0062,336.2051 496.6406,336.0738 Q496.275,335.9426 495.9,335.9426 Q495.4406,335.9426 495.0563,336.1395 Q494.6813,336.3363 494.3812,336.7863 Q494.0906,337.2363 494.0906,337.8551 L494.0906,338.5113 Q494.0906,339.252 494.625,339.7488 Q495.1594,340.2363 496.1156,340.2363 Q496.6781,340.2363 497.0719,340.0863 Q497.3063,339.9926 497.5594,339.7301 Q497.7188,339.5707 497.8031,339.5238 Q497.8969,339.477 498.0187,339.477 Q498.2156,339.477 498.3656,339.6363 Q498.525,339.7863 498.525,339.9926 Q498.525,340.1988 498.3187,340.4426 Q498.0187,340.7895 497.5406,340.9863 Q496.8937,341.2582 496.1156,341.2582 Q495.2062,341.2582 494.4844,340.8832 Q493.8937,340.5832 493.4813,339.9457 Q493.0687,339.2988 493.0687,338.5301 L493.0687,337.8363 Q493.0687,337.0395 493.4344,336.3551 Q493.8094,335.6613 494.4656,335.2957 Q495.1219,334.9207 495.8625,334.9207 Q496.3031,334.9207 496.6875,335.0238 Q497.0812,335.1176 497.4094,335.3332 Z " fill="#000000"/><text fill="#000000" font-family="sans-serif" font-size="8.4" lengthAdjust="spacing" textLength="47.4" x="508.05" y="341.2863">Repositories</text><line style="stroke:#181818;stroke-width:0.3;" x1="417.6" x2="626.4" y1="347.4082" y2="347.4082"/><line style="stroke:#181818;stroke-width:0.3;" x1="417.6" x2="626.4" y1="352.2082" y2="352.2082"/><text fill="#000000" font-family="sans-serif" font-size="8.4" lengthAdjust="spacing" textLength="56.4" x="420.6" y="363.6727">-Repositories()</text><text fill="#000000" font-family="sans-serif" font-size="8.4" lengthAdjust="spacing" textLength="106.8" x="420.6" y="374.8453">+getInstance(): Repositories</text><text fill="#000000" font-family="sans-serif" font-size="8.4" lengthAdjust="spacing" textLength="202.8" x="420.6" y="386.018">+getCollaboratorRepository(): CollaboratorRepository</text><text fill="#000000" font-family="sans-serif" font-size="8.4" lengthAdjust="spacing" textLength="146.4" x="420.6" y="397.1906">+getTaskRepository(): TaskRepository</text><text fill="#000000" font-family="sans-serif" font-size="8.4" lengthAdjust="spacing" textLength="152.4" x="420.6" y="408.3633">+getTeamRepository(): TeamRepository</text><text fill="#000000" font-family="sans-serif" font-size="8.4" lengthAdjust="spacing" textLength="86.4" x="420.6" y="419.5359">+getAgenda(): Agenda</text></g><!--class collaboratorRepository--><g id="elem_collaboratorRepository"><rect codeLine="45" fill="#F1F1F1" height="39.9727" id="collaboratorRepository" rx="1.5" ry="1.5" style="stroke:#181818;stroke-width:0.3;" width="146.4" x="277.8" y="535.5082"/><ellipse cx="304.65" cy="545.1082" fill="#ADD1B2" rx="6.6" ry="6.6" style="stroke:#181818;stroke-width:0.6;"/><path d="M306.3094,542.6332 Q306.4031,542.502 306.5156,542.4363 Q306.6281,542.3707 306.7594,542.3707 Q306.9844,542.3707 307.125,542.5301 Q307.2656,542.6801 307.2656,543.0457 L307.2656,543.9176 Q307.2656,544.2832 307.125,544.4426 Q306.9844,544.602 306.7594,544.602 Q306.5531,544.602 306.4313,544.4801 Q306.3094,544.3676 306.2438,544.0582 Q306.2156,543.8426 306.1031,543.7301 Q305.9063,543.5051 305.5406,543.3738 Q305.175,543.2426 304.8,543.2426 Q304.3406,543.2426 303.9563,543.4395 Q303.5813,543.6363 303.2813,544.0863 Q302.9906,544.5363 302.9906,545.1551 L302.9906,545.8113 Q302.9906,546.552 303.525,547.0488 Q304.0594,547.5363 305.0156,547.5363 Q305.5781,547.5363 305.9719,547.3863 Q306.2063,547.2926 306.4594,547.0301 Q306.6188,546.8707 306.7031,546.8238 Q306.7969,546.777 306.9188,546.777 Q307.1156,546.777 307.2656,546.9363 Q307.425,547.0863 307.425,547.2926 Q307.425,547.4988 307.2188,547.7426 Q306.9188,548.0895 306.4406,548.2863 Q305.7938,548.5582 305.0156,548.5582 Q304.1063,548.5582 303.3844,548.1832 Q302.7938,547.8832 302.3812,547.2457 Q301.9688,546.5988 301.9688,545.8301 L301.9688,545.1363 Q301.9688,544.3395 302.3344,543.6551 Q302.7094,542.9613 303.3656,542.5957 Q304.0219,542.2207 304.7625,542.2207 Q305.2031,542.2207 305.5875,542.3238 Q305.9813,542.4176 306.3094,542.6332 Z " fill="#000000"/><text fill="#000000" font-family="sans-serif" font-size="8.4" lengthAdjust="spacing" textLength="87.6" x="316.95" y="548.5863">CollaboratorRepository</text><line style="stroke:#181818;stroke-width:0.3;" x1="278.4" x2="423.6" y1="554.7082" y2="554.7082"/><line style="stroke:#181818;stroke-width:0.3;" x1="278.4" x2="423.6" y1="559.5082" y2="559.5082"/><text fill="#000000" font-family="sans-serif" font-size="8.4" lengthAdjust="spacing" textLength="139.2" x="281.4" y="570.9727">+getCollaboratorThoughEmail(email)</text></g><!--class taskRepository--><g id="elem_taskRepository"><rect codeLine="49" fill="#F1F1F1" height="84.6633" id="taskRepository" rx="1.5" ry="1.5" style="stroke:#181818;stroke-width:0.3;" width="136.2" x="445.5" y="513.3082"/><ellipse cx="481.35" cy="522.9082" fill="#ADD1B2" rx="6.6" ry="6.6" style="stroke:#181818;stroke-width:0.6;"/><path d="M483.0094,520.4332 Q483.1031,520.302 483.2156,520.2363 Q483.3281,520.1707 483.4594,520.1707 Q483.6844,520.1707 483.825,520.3301 Q483.9656,520.4801 483.9656,520.8457 L483.9656,521.7176 Q483.9656,522.0832 483.825,522.2426 Q483.6844,522.402 483.4594,522.402 Q483.2531,522.402 483.1312,522.2801 Q483.0094,522.1676 482.9437,521.8582 Q482.9156,521.6426 482.8031,521.5301 Q482.6063,521.3051 482.2406,521.1738 Q481.875,521.0426 481.5,521.0426 Q481.0406,521.0426 480.6563,521.2395 Q480.2813,521.4363 479.9813,521.8863 Q479.6906,522.3363 479.6906,522.9551 L479.6906,523.6113 Q479.6906,524.352 480.225,524.8488 Q480.7594,525.3363 481.7156,525.3363 Q482.2781,525.3363 482.6719,525.1863 Q482.9063,525.0926 483.1594,524.8301 Q483.3187,524.6707 483.4031,524.6238 Q483.4969,524.577 483.6188,524.577 Q483.8156,524.577 483.9656,524.7363 Q484.125,524.8863 484.125,525.0926 Q484.125,525.2988 483.9188,525.5426 Q483.6188,525.8895 483.1406,526.0863 Q482.4938,526.3582 481.7156,526.3582 Q480.8063,526.3582 480.0844,525.9832 Q479.4938,525.6832 479.0812,525.0457 Q478.6688,524.3988 478.6688,523.6301 L478.6688,522.9363 Q478.6688,522.1395 479.0344,521.4551 Q479.4094,520.7613 480.0656,520.3957 Q480.7219,520.0207 481.4625,520.0207 Q481.9031,520.0207 482.2875,520.1238 Q482.6813,520.2176 483.0094,520.4332 Z " fill="#000000"/><text fill="#000000" font-family="sans-serif" font-size="8.4" lengthAdjust="spacing" textLength="59.4" x="493.65" y="526.3863">TaskRepository</text><line style="stroke:#181818;stroke-width:0.3;" x1="446.1" x2="581.1" y1="532.5082" y2="532.5082"/><text fill="#000000" font-family="sans-serif" font-size="8.4" lengthAdjust="spacing" textLength="75.6" x="449.1" y="543.9727">-List&lt;Task&gt; taskList</text><text fill="#000000" font-family="sans-serif" font-size="8.4" lengthAdjust="spacing" textLength="86.4" x="449.1" y="555.1453">-List&lt;String&gt; statusList</text><line style="stroke:#181818;stroke-width:0.3;" x1="446.1" x2="581.1" y1="559.6535" y2="559.6535"/><text fill="#000000" font-family="sans-serif" font-size="8.4" lengthAdjust="spacing" textLength="60" x="449.1" y="571.118">+getStatusList()</text><text fill="#000000" font-family="sans-serif" font-size="8.4" lengthAdjust="spacing" textLength="129" x="449.1" y="582.2906">+getTaskList(teamList,typeStatus)</text><text fill="#000000" font-family="sans-serif" font-size="8.4" lengthAdjust="spacing" textLength="115.2" x="449.1" y="593.4633">+addTaskOfCollaborator(task)</text></g><!--class teamRepository--><g id="elem_teamRepository"><rect codeLine="57" fill="#F1F1F1" height="39.9727" id="teamRepository" rx="1.5" ry="1.5" style="stroke:#181818;stroke-width:0.3;" width="226.2" x="602.7" y="535.5082"/><ellipse cx="682.05" cy="545.1082" fill="#ADD1B2" rx="6.6" ry="6.6" style="stroke:#181818;stroke-width:0.6;"/><path d="M683.7094,542.6332 Q683.8031,542.502 683.9156,542.4363 Q684.0281,542.3707 684.1594,542.3707 Q684.3844,542.3707 684.525,542.5301 Q684.6656,542.6801 684.6656,543.0457 L684.6656,543.9176 Q684.6656,544.2832 684.525,544.4426 Q684.3844,544.602 684.1594,544.602 Q683.9531,544.602 683.8313,544.4801 Q683.7094,544.3676 683.6438,544.0582 Q683.6156,543.8426 683.5031,543.7301 Q683.3063,543.5051 682.9406,543.3738 Q682.575,543.2426 682.2,543.2426 Q681.7406,543.2426 681.3562,543.4395 Q680.9812,543.6363 680.6813,544.0863 Q680.3906,544.5363 680.3906,545.1551 L680.3906,545.8113 Q680.3906,546.552 680.925,547.0488 Q681.4594,547.5363 682.4156,547.5363 Q682.9781,547.5363 683.3719,547.3863 Q683.6062,547.2926 683.8594,547.0301 Q684.0188,546.8707 684.1031,546.8238 Q684.1969,546.777 684.3188,546.777 Q684.5156,546.777 684.6656,546.9363 Q684.825,547.0863 684.825,547.2926 Q684.825,547.4988 684.6188,547.7426 Q684.3188,548.0895 683.8406,548.2863 Q683.1938,548.5582 682.4156,548.5582 Q681.5063,548.5582 680.7844,548.1832 Q680.1938,547.8832 679.7813,547.2457 Q679.3688,546.5988 679.3688,545.8301 L679.3688,545.1363 Q679.3688,544.3395 679.7344,543.6551 Q680.1094,542.9613 680.7656,542.5957 Q681.4219,542.2207 682.1625,542.2207 Q682.6031,542.2207 682.9875,542.3238 Q683.3813,542.4176 683.7094,542.6332 Z " fill="#000000"/><text fill="#000000" font-family="sans-serif" font-size="8.4" lengthAdjust="spacing" textLength="62.4" x="694.35" y="548.5863">TeamRepository</text><line style="stroke:#181818;stroke-width:0.3;" x1="603.3" x2="828.3" y1="554.7082" y2="554.7082"/><line style="stroke:#181818;stroke-width:0.3;" x1="603.3" x2="828.3" y1="559.5082" y2="559.5082"/><text fill="#000000" font-family="sans-serif" font-size="8.4" lengthAdjust="spacing" textLength="219" x="606.3" y="570.9727">+getTeamsThoughCollaborator(collaborator): List&lt;Team&gt;</text></g><!--class agenda--><g id="elem_agenda"><rect codeLine="61" fill="#F1F1F1" height="62.318" id="agenda" rx="1.5" ry="1.5" style="stroke:#181818;stroke-width:0.3;" width="316.8" x="850.2" y="524.4082"/><ellipse cx="991.35" cy="534.0082" fill="#ADD1B2" rx="6.6" ry="6.6" style="stroke:#181818;stroke-width:0.6;"/><path d="M993.0094,531.5332 Q993.1031,531.402 993.2156,531.3363 Q993.3281,531.2707 993.4594,531.2707 Q993.6844,531.2707 993.825,531.4301 Q993.9656,531.5801 993.9656,531.9457 L993.9656,532.8176 Q993.9656,533.1832 993.825,533.3426 Q993.6844,533.502 993.4594,533.502 Q993.2531,533.502 993.1312,533.3801 Q993.0094,533.2676 992.9437,532.9582 Q992.9156,532.7426 992.8031,532.6301 Q992.6062,532.4051 992.2406,532.2738 Q991.875,532.1426 991.5,532.1426 Q991.0406,532.1426 990.6563,532.3395 Q990.2813,532.5363 989.9812,532.9863 Q989.6906,533.4363 989.6906,534.0551 L989.6906,534.7113 Q989.6906,535.452 990.225,535.9488 Q990.7594,536.4363 991.7156,536.4363 Q992.2781,536.4363 992.6719,536.2863 Q992.9063,536.1926 993.1594,535.9301 Q993.3187,535.7707 993.4031,535.7238 Q993.4969,535.677 993.6188,535.677 Q993.8156,535.677 993.9656,535.8363 Q994.125,535.9863 994.125,536.1926 Q994.125,536.3988 993.9187,536.6426 Q993.6188,536.9895 993.1406,537.1863 Q992.4938,537.4582 991.7156,537.4582 Q990.8063,537.4582 990.0844,537.0832 Q989.4938,536.7832 989.0813,536.1457 Q988.6687,535.4988 988.6687,534.7301 L988.6687,534.0363 Q988.6687,533.2395 989.0344,532.5551 Q989.4094,531.8613 990.0656,531.4957 Q990.7219,531.1207 991.4625,531.1207 Q991.9031,531.1207 992.2875,531.2238 Q992.6813,531.3176 993.0094,531.5332 Z " fill="#000000"/><text fill="#000000" font-family="sans-serif" font-size="8.4" lengthAdjust="spacing" textLength="29.4" x="1003.65" y="537.4863">Agenda</text><line style="stroke:#181818;stroke-width:0.3;" x1="850.8" x2="1166.4" y1="543.6082" y2="543.6082"/><text fill="#000000" font-family="sans-serif" font-size="8.4" lengthAdjust="spacing" textLength="113.4" x="853.8" y="555.0727">-List&lt;AgendaEntry&gt; statusList</text><line style="stroke:#181818;stroke-width:0.3;" x1="850.8" x2="1166.4" y1="559.5809" y2="559.5809"/><text fill="#000000" font-family="sans-serif" font-size="8.4" lengthAdjust="spacing" textLength="309.6" x="853.8" y="571.0453">+getCollaboratorAgendaEntries(taskList,startDate,endDate): List&lt;AgendaEntries&gt;</text><text fill="#000000" font-family="sans-serif" font-size="8.4" lengthAdjust="spacing" textLength="60" x="853.8" y="582.218">+getStatusList()</text></g><!--class MapperDto--><g id="elem_MapperDto"><rect codeLine="69" fill="#F1F1F1" height="51.1453" id="MapperDto" rx="1.5" ry="1.5" style="stroke:#181818;stroke-width:0.3;" width="153.6" x="90.6" y="350.7082"/><ellipse cx="140.55" cy="360.3082" fill="#ADD1B2" rx="6.6" ry="6.6" style="stroke:#181818;stroke-width:0.6;"/><path d="M142.2094,357.8332 Q142.3031,357.702 142.4156,357.6363 Q142.5281,357.5707 142.6594,357.5707 Q142.8844,357.5707 143.025,357.7301 Q143.1656,357.8801 143.1656,358.2457 L143.1656,359.1176 Q143.1656,359.4832 143.025,359.6426 Q142.8844,359.802 142.6594,359.802 Q142.4531,359.802 142.3312,359.6801 Q142.2094,359.5676 142.1437,359.2582 Q142.1156,359.0426 142.0031,358.9301 Q141.8063,358.7051 141.4406,358.5738 Q141.075,358.4426 140.7,358.4426 Q140.2406,358.4426 139.8563,358.6395 Q139.4813,358.8363 139.1813,359.2863 Q138.8906,359.7363 138.8906,360.3551 L138.8906,361.0113 Q138.8906,361.752 139.425,362.2488 Q139.9594,362.7363 140.9156,362.7363 Q141.4781,362.7363 141.8719,362.5863 Q142.1063,362.4926 142.3594,362.2301 Q142.5187,362.0707 142.6031,362.0238 Q142.6969,361.977 142.8188,361.977 Q143.0156,361.977 143.1656,362.1363 Q143.325,362.2863 143.325,362.4926 Q143.325,362.6988 143.1188,362.9426 Q142.8188,363.2895 142.3406,363.4863 Q141.6938,363.7582 140.9156,363.7582 Q140.0063,363.7582 139.2844,363.3832 Q138.6938,363.0832 138.2813,362.4457 Q137.8688,361.7988 137.8688,361.0301 L137.8688,360.3363 Q137.8688,359.5395 138.2344,358.8551 Q138.6094,358.1613 139.2656,357.7957 Q139.9219,357.4207 140.6625,357.4207 Q141.1031,357.4207 141.4875,357.5238 Q141.8813,357.6176 142.2094,357.8332 Z " fill="#000000"/><text fill="#000000" font-family="sans-serif" font-size="8.4" lengthAdjust="spacing" textLength="48.6" x="152.85" y="363.7863">EntryMapper</text><line style="stroke:#181818;stroke-width:0.3;" x1="91.2" x2="243.6" y1="369.9082" y2="369.9082"/><line style="stroke:#181818;stroke-width:0.3;" x1="91.2" x2="243.6" y1="374.7082" y2="374.7082"/><text fill="#000000" font-family="sans-serif" font-size="8.4" lengthAdjust="spacing" textLength="146.4" x="94.2" y="386.1727">+toDTOList(listEntries): List&lt;EntryDto&gt;</text><text fill="#000000" font-family="sans-serif" font-size="8.4" lengthAdjust="spacing" textLength="112.8" x="94.2" y="397.3453">+toDTOEntry(entry): EntryDto</text></g><!--class DataTransferObject--><g id="elem_DataTransferObject"><rect codeLine="74" fill="#F1F1F1" height="140.5266" id="DataTransferObject" rx="1.5" ry="1.5" style="stroke:#181818;stroke-width:0.3;" width="108" x="113.4" y="485.4082"/><ellipse cx="148.35" cy="495.0082" fill="#ADD1B2" rx="6.6" ry="6.6" style="stroke:#181818;stroke-width:0.6;"/><path d="M150.0094,492.5332 Q150.1031,492.402 150.2156,492.3363 Q150.3281,492.2707 150.4594,492.2707 Q150.6844,492.2707 150.825,492.4301 Q150.9656,492.5801 150.9656,492.9457 L150.9656,493.8176 Q150.9656,494.1832 150.825,494.3426 Q150.6844,494.502 150.4594,494.502 Q150.2531,494.502 150.1313,494.3801 Q150.0094,494.2676 149.9438,493.9582 Q149.9156,493.7426 149.8031,493.6301 Q149.6063,493.4051 149.2406,493.2738 Q148.875,493.1426 148.5,493.1426 Q148.0406,493.1426 147.6563,493.3395 Q147.2813,493.5363 146.9813,493.9863 Q146.6906,494.4363 146.6906,495.0551 L146.6906,495.7113 Q146.6906,496.452 147.225,496.9488 Q147.7594,497.4363 148.7156,497.4363 Q149.2781,497.4363 149.6719,497.2863 Q149.9063,497.1926 150.1594,496.9301 Q150.3188,496.7707 150.4031,496.7238 Q150.4969,496.677 150.6188,496.677 Q150.8156,496.677 150.9656,496.8363 Q151.125,496.9863 151.125,497.1926 Q151.125,497.3988 150.9188,497.6426 Q150.6188,497.9895 150.1406,498.1863 Q149.4938,498.4582 148.7156,498.4582 Q147.8063,498.4582 147.0844,498.0832 Q146.4938,497.7832 146.0812,497.1457 Q145.6688,496.4988 145.6688,495.7301 L145.6688,495.0363 Q145.6688,494.2395 146.0344,493.5551 Q146.4094,492.8613 147.0656,492.4957 Q147.7219,492.1207 148.4625,492.1207 Q148.9031,492.1207 149.2875,492.2238 Q149.6813,492.3176 150.0094,492.5332 Z " fill="#000000"/><text fill="#000000" font-family="sans-serif" font-size="8.4" lengthAdjust="spacing" textLength="33" x="160.65" y="498.4863">EntryDto</text><line style="stroke:#181818;stroke-width:0.3;" x1="114" x2="220.8" y1="504.6082" y2="504.6082"/><text fill="#000000" font-family="sans-serif" font-size="8.4" lengthAdjust="spacing" textLength="45.6" x="117" y="516.0727">-Team team</text><text fill="#000000" font-family="sans-serif" font-size="8.4" lengthAdjust="spacing" textLength="86.4" x="117" y="527.2453">-List&lt;Vehicle&gt; vehicles</text><text fill="#000000" font-family="sans-serif" font-size="8.4" lengthAdjust="spacing" textLength="42" x="117" y="538.418">-Date dateI</text><text fill="#000000" font-family="sans-serif" font-size="8.4" lengthAdjust="spacing" textLength="45.6" x="117" y="549.5906">-Date dateF</text><text fill="#000000" font-family="sans-serif" font-size="8.4" lengthAdjust="spacing" textLength="81" x="117" y="560.7633">-StatusOfEntry status</text><text fill="#000000" font-family="sans-serif" font-size="8.4" lengthAdjust="spacing" textLength="99.6" x="117" y="571.9359">-GreenSpace greenSpace</text><text fill="#000000" font-family="sans-serif" font-size="8.4" lengthAdjust="spacing" textLength="95.4" x="117" y="583.1086">-List&lt;Vehicle&gt; vehicleList</text><text fill="#000000" font-family="sans-serif" font-size="8.4" lengthAdjust="spacing" textLength="100.8" x="117" y="594.2813">-DegreeOfUrgency degree</text><text fill="#000000" font-family="sans-serif" font-size="8.4" lengthAdjust="spacing" textLength="39.6" x="117" y="605.4539">-Task task</text><line style="stroke:#181818;stroke-width:0.3;" x1="114" x2="220.8" y1="609.9621" y2="609.9621"/><text fill="#000000" font-family="sans-serif" font-size="8.4" lengthAdjust="spacing" textLength="63" x="117" y="621.4266">+EntryDto(entry)</text></g><!--link UserInterface to CTRL--><g id="link_UserInterface_CTRL"><path codeLine="90" d="M522,54.8122 C522,67.8502 522,84.3622 522,102.5602 " fill="none" id="UserInterface-to-CTRL" style="stroke:#181818;stroke-width:0.6;stroke-dasharray:7.0,7.0;"/><polygon fill="#181818" points="522,106.1602,524.4,100.7602,522,103.1602,519.6,100.7602,522,106.1602" style="stroke:#181818;stroke-width:0.6;"/></g><!--link CTRL to RepositorySingleton--><g id="link_CTRL_RepositorySingleton"><path codeLine="91" d="M522,190.9162 C522,229.7722 522,284.0002 522,324.5722 " fill="none" id="CTRL-to-RepositorySingleton" style="stroke:#181818;stroke-width:0.6;stroke-dasharray:7.0,7.0;"/><polygon fill="#181818" points="522,328.1722,524.4,322.7722,522,325.1722,519.6,322.7722,522,328.1722" style="stroke:#181818;stroke-width:0.6;"/><text fill="#000000" font-family="sans-serif" font-size="7.8" lengthAdjust="spacing" textLength="40.2" x="522.6" y="237.6252">repositories</text></g><!--link RepositorySingleton to RepositorySingleton--><g id="link_RepositorySingleton_RepositorySingleton"><path codeLine="92" d="M627.234,364.8022 C639.798,366.8722 648,370.6762 648,376.2082 C648,381.7402 643.3501,384.959 630.7861,387.029 " fill="none" id="RepositorySingleton-to-RepositorySingleton" style="stroke:#181818;stroke-width:0.6;"/><polygon fill="#181818" points="627.234,387.6142,632.9523,389.1044,630.1941,387.1265,632.172,384.3683,627.234,387.6142" style="stroke:#181818;stroke-width:0.6;"/><text fill="#000000" font-family="sans-serif" font-size="7.8" lengthAdjust="spacing" textLength="29.4" x="651.6" y="379.5252">instance</text></g><!--link CTRL to collaboratorRepository--><g id="link_CTRL_collaboratorRepository"><path codeLine="93" d="M405.174,173.6482 C252.294,205.7662 3.6,258.0082 3.6,258.0082 C3.6,258.0082 3.6,269.4082 3.6,269.4082 C3.6,269.4082 76.2,453.6082 76.2,453.6082 C76.2,453.6082 231,458.4082 231,458.4082 C231,458.4082 288.8499,504.9726 323.9139,533.2026 " fill="none" id="CTRL-to-collaboratorRepository" style="stroke:#181818;stroke-width:0.6;stroke-dasharray:7.0,7.0;"/><polygon fill="#181818" points="326.718,535.4602,324.0169,530.2044,324.3812,533.5789,321.0067,533.9432,326.718,535.4602" style="stroke:#181818;stroke-width:0.6;"/><text fill="#000000" font-family="sans-serif" font-size="7.8" lengthAdjust="spacing" textLength="89.4" x="4.2" y="267.0252">getCollaboratorRepository</text></g><!--link CTRL to taskRepository--><g id="link_CTRL_taskRepository"><path codeLine="94" d="M405.264,182.2222 C274.614,219.2842 81,274.2082 81,274.2082 C81,274.2082 81,453.6082 81,453.6082 C81,453.6082 435,458.4082 435,458.4082 C435,458.4082 456.068,484.3017 477.308,510.4077 " fill="none" id="CTRL-to-taskRepository" style="stroke:#181818;stroke-width:0.6;stroke-dasharray:7.0,7.0;"/><polygon fill="#181818" points="479.58,513.2002,478.0337,507.4968,477.6867,510.8731,474.3103,510.5261,479.58,513.2002" style="stroke:#181818;stroke-width:0.6;"/><text fill="#000000" font-family="sans-serif" font-size="7.8" lengthAdjust="spacing" textLength="64.8" x="137.4" y="267.0252">getTaskRepository</text></g><!--link CTRL to teamRepository--><g id="link_CTRL_teamRepository"><path codeLine="95" d="M576.57,190.9402 C624.012,227.3062 685.2,274.2082 685.2,274.2082 C685.2,274.2082 706.3442,468.2274 713.2802,531.9054 " fill="none" id="CTRL-to-teamRepository" style="stroke:#181818;stroke-width:0.6;stroke-dasharray:7.0,7.0;"/><polygon fill="#181818" points="713.67,535.4842,715.4712,529.8561,713.3452,532.5018,710.6994,530.3758,713.67,535.4842" style="stroke:#181818;stroke-width:0.6;"/><text fill="#000000" font-family="sans-serif" font-size="7.8" lengthAdjust="spacing" textLength="67.2" x="678.6" y="267.0252">getTeamRepository</text></g><!--link CTRL to agenda--><g id="link_CTRL_agenda"><path codeLine="96" d="M609.798,190.8202 C674.466,221.5522 751.2,258.0082 751.2,258.0082 C751.2,258.0082 913.9022,445.7398 979.6682,521.6218 " fill="none" id="CTRL-to-agenda" style="stroke:#181818;stroke-width:0.6;stroke-dasharray:7.0,7.0;"/><polygon fill="#181818" points="982.026,524.3422,980.303,518.6897,980.0612,522.0752,976.6757,521.8334,982.026,524.3422" style="stroke:#181818;stroke-width:0.6;"/><text fill="#000000" font-family="sans-serif" font-size="7.8" lengthAdjust="spacing" textLength="37.2" x="760.8" y="267.0252">getAgenda</text></g><!--link CTRL to agenda--><g id="link_CTRL_agenda"><path codeLine="105" d="M629.91,190.8502 C723.96,227.2342 845.4,274.2082 845.4,274.2082 C845.4,274.2082 946.4611,448.0957 988.8571,521.0437 " fill="none" id="CTRL-to-agenda-1" style="stroke:#181818;stroke-width:0.6;stroke-dasharray:7.0,7.0;"/><polygon fill="#181818" points="990.666,524.1562,990.0276,518.2815,989.1586,521.5624,985.8776,520.6934,990.666,524.1562" style="stroke:#181818;stroke-width:0.6;"/><text fill="#000000" font-family="sans-serif" font-size="7.8" lengthAdjust="spacing" textLength="46.2" x="832.2" y="267.0252">getStatusList</text></g><!--link CTRL to MapperDto--><g id="link_CTRL_MapperDto"><path codeLine="97" d="M437.31,190.8502 C363.504,227.2342 268.2,274.2082 268.2,274.2082 C268.2,274.2082 224.7062,317.9632 194.8562,347.9872 " fill="none" id="CTRL-to-MapperDto" style="stroke:#181818;stroke-width:0.6;stroke-dasharray:7.0,7.0;"/><polygon fill="#181818" points="192.318,350.5402,197.8272,348.4029,194.4331,348.4127,194.4233,345.0186,192.318,350.5402" style="stroke:#181818;stroke-width:0.6;"/><text fill="#000000" font-family="sans-serif" font-size="7.8" lengthAdjust="spacing" textLength="34.8" x="360.6" y="237.6252">toDTOList</text></g><!--link MapperDto to DataTransferObject--><g id="link_MapperDto_DataTransferObject"><path codeLine="98" d="M167.4,401.7742 C167.4,423.4222 167.4,452.2162 167.4,481.6462 " fill="none" id="MapperDto-to-DataTransferObject" style="stroke:#181818;stroke-width:0.6;"/><polygon fill="#181818" points="167.4,485.2462,169.8,479.8462,167.4,482.2462,165,479.8462,167.4,485.2462" style="stroke:#181818;stroke-width:0.6;"/><text fill="#000000" font-family="sans-serif" font-size="7.8" lengthAdjust="spacing" textLength="23.4" x="168" y="451.2252">entries</text><text fill="#000000" font-family="sans-serif" font-size="7.8" lengthAdjust="spacing" textLength="4.2" x="162.8653" y="415.0809">1</text><text fill="#000000" font-family="sans-serif" font-size="7.8" lengthAdjust="spacing" textLength="3" x="164.3039" y="478.6304">*</text></g><!--link RepositorySingleton to collaboratorRepository--><g id="link_RepositorySingleton_collaboratorRepository"><path codeLine="99" d="M455.286,424.3402 C441.048,434.4802 430.2,442.2082 430.2,442.2082 C430.2,442.2082 389.5548,500.096 366.8628,532.412 " fill="none" id="RepositorySingleton-to-collaboratorRepository" style="stroke:#181818;stroke-width:0.6;stroke-dasharray:7.0,7.0;"/><polygon fill="#181818" points="364.794,535.3582,369.8613,532.3181,366.518,532.903,365.9331,529.5597,364.794,535.3582" style="stroke:#181818;stroke-width:0.6;"/><text fill="#000000" font-family="sans-serif" font-size="7.8" lengthAdjust="spacing" textLength="77.4" x="430.8" y="451.2252">collaboratorRepository</text><text fill="#000000" font-family="sans-serif" font-size="7.8" lengthAdjust="spacing" textLength="4.2" x="445.3873" y="437.1795">1</text><text fill="#000000" font-family="sans-serif" font-size="7.8" lengthAdjust="spacing" textLength="4.2" x="362.8232" y="528.7812">1</text></g><!--link RepositorySingleton to taskRepository--><g id="link_RepositorySingleton_taskRepository"><path codeLine="100" d="M516.33,424.3402 C515.124,434.4802 514.2,442.2082 514.2,442.2082 C514.2,442.2082 514.0155,477.4643 513.8415,509.5643 " fill="none" id="RepositorySingleton-to-taskRepository" style="stroke:#181818;stroke-width:0.6;"/><polygon fill="#181818" points="513.822,513.1642,516.2512,507.7773,513.8383,510.1642,511.4513,507.7513,513.822,513.1642" style="stroke:#181818;stroke-width:0.6;"/><text fill="#000000" font-family="sans-serif" font-size="7.8" lengthAdjust="spacing" textLength="52.2" x="514.8" y="451.2252">taskRepository</text><text fill="#000000" font-family="sans-serif" font-size="7.8" lengthAdjust="spacing" textLength="4.2" x="511.4865" y="437.1795">1</text><text fill="#000000" font-family="sans-serif" font-size="7.8" lengthAdjust="spacing" textLength="4.2" x="509.4283" y="506.484">1</text></g><!--link RepositorySingleton to teamRepository--><g id="link_RepositorySingleton_teamRepository"><path codeLine="101" d="M565.83,424.3522 C580.314,440.0662 592.8,453.6082 592.8,453.6082 C592.8,453.6082 653.5622,503.7042 689.3042,533.1702 " fill="none" id="RepositorySingleton-to-teamRepository" style="stroke:#181818;stroke-width:0.6;"/><polygon fill="#181818" points="692.082,535.4602,689.442,530.1734,689.7672,533.5519,686.3887,533.877,692.082,535.4602" style="stroke:#181818;stroke-width:0.6;"/><text fill="#000000" font-family="sans-serif" font-size="7.8" lengthAdjust="spacing" textLength="54.6" x="593.4" y="451.2252">teamRepository</text><text fill="#000000" font-family="sans-serif" font-size="7.8" lengthAdjust="spacing" textLength="4.2" x="565.0858" y="437.1925">1</text><text fill="#000000" font-family="sans-serif" font-size="7.8" lengthAdjust="spacing" textLength="4.2" x="682.7991" y="528.7461">1</text></g><!--link RepositorySingleton to agenda--><g id="link_RepositorySingleton_agenda"><path codeLine="102" d="M627.03,403.8082 C719.448,427.5682 839.4,458.4082 839.4,458.4082 C839.4,458.4082 902.1597,494.2372 951.7077,522.5272 " fill="none" id="RepositorySingleton-to-agenda" style="stroke:#181818;stroke-width:0.6;"/><polygon fill="#181818" points="954.834,524.3122,951.3345,519.5505,952.2287,522.8247,948.9545,523.7189,954.834,524.3122" style="stroke:#181818;stroke-width:0.6;"/><text fill="#000000" font-family="sans-serif" font-size="7.8" lengthAdjust="spacing" textLength="25.2" x="817.8" y="451.2252">agenda</text><text fill="#000000" font-family="sans-serif" font-size="7.8" lengthAdjust="spacing" textLength="4.2" x="631.8843" y="403.0524">1</text><text fill="#000000" font-family="sans-serif" font-size="7.8" lengthAdjust="spacing" textLength="4.2" x="943.127" y="517.6557">1</text></g><!--link teamRepository to Team--><g id="link_teamRepository_Team"><path codeLine="103" d="M729.348,575.7262 C752.472,609.0442 797.4712,673.8749 822.9772,710.6189 " fill="none" id="teamRepository-to-Team" style="stroke:#181818;stroke-width:0.6;"/><polygon fill="#181818" points="825.03,713.5762,823.9223,707.7716,823.3193,711.1118,819.9792,710.5088,825.03,713.5762" style="stroke:#181818;stroke-width:0.6;"/><text fill="#000000" font-family="sans-serif" font-size="7.8" lengthAdjust="spacing" textLength="40.2" x="794.4" y="668.4252">collaborator</text><text fill="#000000" font-family="sans-serif" font-size="7.8" lengthAdjust="spacing" textLength="4.2" x="727.1872" y="588.671">1</text><text fill="#000000" font-family="sans-serif" font-size="7.8" lengthAdjust="spacing" textLength="3" x="819.0226" y="706.8976">*</text></g><!--link AgendaEntry to agenda--><g id="link_AgendaEntry_agenda"><path codeLine="104" d="M974.418,702.5722 C982.302,668.8042 993.1471,622.3778 1000.6051,590.4518 " fill="none" id="AgendaEntry-to-agenda" style="stroke:#181818;stroke-width:0.6;"/><polygon fill="#181818" points="1001.424,586.9462,997.8585,591.6587,1000.7416,589.8676,1002.5327,592.7506,1001.424,586.9462" style="stroke:#181818;stroke-width:0.6;"/><text fill="#000000" font-family="sans-serif" font-size="7.8" lengthAdjust="spacing" textLength="34.2" x="984" y="668.4252">statusList</text><text fill="#000000" font-family="sans-serif" font-size="7.8" lengthAdjust="spacing" textLength="4.2" x="970.9485" y="695.9568">1</text><text fill="#000000" font-family="sans-serif" font-size="7.8" lengthAdjust="spacing" textLength="3" x="997.3124" y="600.0483">*</text></g><!--SRC=[fLLBRzim3BxxLmW-fLjJR5TZCD0rtH2WHO0bsLsnQSUh8ncIki4Rzjz7qGz9ZhCMQ0wEHNvyVQHe_LI9XYj-OWtFddW9MzFMm0fPvw0YFMhraUVoLoLALl1QWwUfAm6cRO0ricxjmTDbDTVwrXXL7PuDh3CfjjLlO1-Yg8_6zcls9o8OYnygRNPSFsrH2VjrpBXcUmrgBGoe0cNHNsTu9uLHigv1dJjmEl9nj_lsW226l_SiKy0DBAxwOmdc3f7y81KtKdrkxq-ygXTWdnvcQxXvrjQ_RsbZaIppN5mpoqPdS27ARGaYv_UOP0LwONelrzfmPLQOtJMgxVyL5koLl9AObS1A1i6ZpA4Uozy1CjwLkMJMuIS_PifES3g0qdrAbR3u87CRhlVbCcm7ZpOXbkDZFHLywGLTpPk2p9YcqmKARLr35T-WaRh2-2rcFxHo5293r4I7sk8Krc2a68lrmNv_rWAJ41bsEmamyrrn4In-NXFsFhG89HuIUPuW0ub3TgnRHFVc-X7FfqFCPBEgSU0dLUwEyhay1bFkeeGba7SJYCBvil2K3VFhQxOusg9C-o4OjQ-vImR9eUjmVerudblOfl0BeliJ516msnKHY7ngB5Xtd0HEWtkHzEKYDlK2TKsY09nUGtQyEtH6n1ltGZADWFZq5LVjaJUDlp0fkKv8PNIlAoD7YenSxJRagSP77sg8J-Q8Jdqm2HTWduWR85uIY9baW7eAZxNndU925w0sXn-GcP5HMcwsZJx3t-5OPJMax6Vtej- -gfRigm8Gz0bYvVZwlwZUxA_0ccoAlSBEP2tBwJoKWFsaozApDPJUSqMDedqVVFFOpKrANx28FcFsDBSA4wRy1JS7MIulcLRzddGXvdTASdbbEjDmOIJdkzA31jSoEL-M3jfTiCHjIQSQXpPnqngvIOu_nbHw_2wU6R24GJVJivHPMnl2_b-YP5v-qHsbWlzJciBpo-OJwiBpY-O3dTr_DDcFFcMs8M6HaRVO0kZWrDjrVPCc7NJxwHy0]--></g></svg>