<?xml version="1.0" encoding="us-ascii" standalone="no"?><svg xmlns="http://www.w3.org/2000/svg" xmlns:xlink="http://www.w3.org/1999/xlink" contentStyleType="text/css" height="435px" preserveAspectRatio="none" style="width:686px;height:435px;background:#FFFFFF;" version="1.1" viewBox="0 0 686 435" width="686px" zoomAndPan="magnify"><defs/><g><rect fill="#FFFFFF" height="279.25" style="stroke:#181818;stroke-width:1.0;" width="10" x="298" y="90.5332"/><rect fill="#FFFFFF" height="45.291" style="stroke:#181818;stroke-width:1.0;" width="10" x="520" y="277.2012"/><rect fill="none" height="224.959" style="stroke:#000000;stroke-width:1.5;" width="466" x="214.5" y="105.5332"/><rect fill="none" height="98.1348" style="stroke:#000000;stroke-width:1.5;" width="446" x="224.5" y="194.0664"/><rect fill="none" height="64.8438" style="stroke:#000000;stroke-width:1.5;" width="426" x="234.5" y="220.3574"/><line style="stroke:#181818;stroke-width:0.5;stroke-dasharray:5.0,5.0;" x1="302.5" x2="302.5" y1="57.2422" y2="378.7832"/><line style="stroke:#181818;stroke-width:0.5;stroke-dasharray:5.0,5.0;" x1="524.5" x2="524.5" y1="165.9453" y2="378.7832"/><rect fill="#E3E3E3" height="51.2422" rx="2.5" ry="2.5" style="stroke:#181818;stroke-width:0.5;" width="117" x="244.5" y="5"/><text fill="#000000" font-family="sans-serif" font-size="14" lengthAdjust="spacing" textLength="94" x="256" y="27.1074">taskRepository</text><text fill="#000000" font-family="sans-serif" font-size="14" lengthAdjust="spacing" textLength="103" x="251.5" y="45.7285">:TaskRepository</text><rect fill="#E3E3E3" height="51.2422" rx="2.5" ry="2.5" style="stroke:#181818;stroke-width:0.5;" width="117" x="244.5" y="377.7832"/><text fill="#000000" font-family="sans-serif" font-size="14" lengthAdjust="spacing" textLength="94" x="256" y="399.8906">taskRepository</text><text fill="#000000" font-family="sans-serif" font-size="14" lengthAdjust="spacing" textLength="103" x="251.5" y="418.5117">:TaskRepository</text><rect fill="#E3E3E3" height="51.2422" rx="2.5" ry="2.5" style="stroke:#181818;stroke-width:0.5;" width="87" x="481.5" y="377.7832"/><text fill="#000000" font-family="sans-serif" font-size="14" lengthAdjust="spacing" textLength="48" x="501" y="399.8906">taskList</text><text fill="#000000" font-family="sans-serif" font-size="14" lengthAdjust="spacing" textLength="73" x="488.5" y="418.5117">:List&lt;Task&gt;</text><rect fill="#FFFFFF" height="279.25" style="stroke:#181818;stroke-width:1.0;" width="10" x="298" y="90.5332"/><rect fill="#FFFFFF" height="45.291" style="stroke:#181818;stroke-width:1.0;" width="10" x="520" y="277.2012"/><polygon fill="#181818" points="286,86.5332,296,90.5332,286,94.5332,290,90.5332" style="stroke:#181818;stroke-width:1.0;"/><line style="stroke:#181818;stroke-width:1.0;" x1="0" x2="292" y1="90.5332" y2="90.5332"/><text fill="#000000" font-family="sans-serif" font-size="13" font-weight="bold" lengthAdjust="spacing" textLength="14" x="7" y="85.2705">24</text><text fill="#000000" font-family="sans-serif" font-size="13" lengthAdjust="spacing" textLength="261" x="25" y="85.2705">getTaskList(teamList,dateI,dateF,typeStatus)</text><path d="M214.5,105.5332 L340.5,105.5332 L340.5,114.8242 L330.5,124.8242 L214.5,124.8242 L214.5,105.5332 " fill="#EEEEEE" style="stroke:#000000;stroke-width:1.5;"/><rect fill="none" height="224.959" style="stroke:#000000;stroke-width:1.5;" width="466" x="214.5" y="105.5332"/><text fill="#000000" font-family="sans-serif" font-size="13" font-weight="bold" lengthAdjust="spacing" textLength="81" x="229.5" y="120.5615">Get Task List</text><polygon fill="#181818" points="469.5,144.1152,479.5,148.1152,469.5,152.1152,473.5,148.1152" style="stroke:#181818;stroke-width:1.0;"/><line style="stroke:#181818;stroke-width:1.0;" x1="308" x2="475.5" y1="148.1152" y2="148.1152"/><text fill="#000000" font-family="sans-serif" font-size="13" font-weight="bold" lengthAdjust="spacing" textLength="25" x="315" y="142.8525">24.1</text><text fill="#000000" font-family="sans-serif" font-size="13" lengthAdjust="spacing" textLength="44" x="344" y="142.8525">create()</text><rect fill="#E3E3E3" height="51.2422" rx="2.5" ry="2.5" style="stroke:#181818;stroke-width:0.5;" width="87" x="481.5" y="124.8242"/><text fill="#000000" font-family="sans-serif" font-size="14" lengthAdjust="spacing" textLength="48" x="501" y="146.9316">taskList</text><text fill="#000000" font-family="sans-serif" font-size="14" lengthAdjust="spacing" textLength="73" x="488.5" y="165.5527">:List&lt;Task&gt;</text><path d="M224.5,194.0664 L297.5,194.0664 L297.5,203.3574 L287.5,213.3574 L224.5,213.3574 L224.5,194.0664 " fill="#EEEEEE" style="stroke:#000000;stroke-width:1.5;"/><rect fill="none" height="98.1348" style="stroke:#000000;stroke-width:1.5;" width="446" x="224.5" y="194.0664"/><text fill="#000000" font-family="sans-serif" font-size="13" font-weight="bold" lengthAdjust="spacing" textLength="28" x="239.5" y="209.0947">loop</text><text fill="#000000" font-family="sans-serif" font-size="11" font-weight="bold" lengthAdjust="spacing" textLength="159" x="312.5" y="207.9365">[for each task in the system]</text><path d="M234.5,220.3574 L299.5,220.3574 L299.5,229.6484 L289.5,239.6484 L234.5,239.6484 L234.5,220.3574 " fill="#EEEEEE" style="stroke:#000000;stroke-width:1.5;"/><rect fill="none" height="64.8438" style="stroke:#000000;stroke-width:1.5;" width="426" x="234.5" y="220.3574"/><text fill="#000000" font-family="sans-serif" font-size="13" font-weight="bold" lengthAdjust="spacing" textLength="20" x="249.5" y="235.3857">opt</text><text fill="#000000" font-family="sans-serif" font-size="11" font-weight="bold" lengthAdjust="spacing" textLength="341" x="314.5" y="234.2275">[((typeStatus() == task.getStatus() &amp;&amp; (team == task.getTeam))</text><text fill="#000000" font-family="sans-serif" font-size="11" font-weight="bold" lengthAdjust="spacing" textLength="321" x="317.5" y="248.8584">&amp;&amp; (dateI &lt;= task.getDateI()) &amp;&amp; (dateF &gt;= task.getDateF()))]</text><polygon fill="#181818" points="508,273.2012,518,277.2012,508,281.2012,512,277.2012" style="stroke:#181818;stroke-width:1.0;"/><line style="stroke:#181818;stroke-width:1.0;" x1="308" x2="514" y1="277.2012" y2="277.2012"/><text fill="#000000" font-family="sans-serif" font-size="13" font-weight="bold" lengthAdjust="spacing" textLength="25" x="315" y="271.9385">24.2</text><text fill="#000000" font-family="sans-serif" font-size="13" lengthAdjust="spacing" textLength="164" x="344" y="271.9385">addTaskOfCollaborator(task)</text><polygon fill="#181818" points="319,318.4922,309,322.4922,319,326.4922,315,322.4922" style="stroke:#181818;stroke-width:1.0;"/><line style="stroke:#181818;stroke-width:1.0;stroke-dasharray:2.0,2.0;" x1="313" x2="524" y1="322.4922" y2="322.4922"/><text fill="#000000" font-family="sans-serif" font-size="13" font-weight="bold" lengthAdjust="spacing" textLength="25" x="325" y="317.2295">24.3</text><text fill="#000000" font-family="sans-serif" font-size="13" lengthAdjust="spacing" textLength="46" x="354" y="317.2295">taskList</text><polygon fill="#181818" points="11,356.7832,1,360.7832,11,364.7832,7,360.7832" style="stroke:#181818;stroke-width:1.0;"/><line style="stroke:#181818;stroke-width:1.0;stroke-dasharray:2.0,2.0;" x1="5" x2="297" y1="360.7832" y2="360.7832"/><text fill="#000000" font-family="sans-serif" font-size="13" font-weight="bold" lengthAdjust="spacing" textLength="14" x="17" y="355.5205">25</text><text fill="#000000" font-family="sans-serif" font-size="13" lengthAdjust="spacing" textLength="46" x="35" y="355.5205">taskList</text><!--SRC=[VLB1JiCm3BtdAwmTe4Lq4WWkqvY4G4CJav1OZxjuhTT6QvCgSO7zFKd5kdRhyA5D_FnUNXpRdLGL6YoXr4edkT4b0PkQX6sH2fCTPhJYVK5WA65KMT4ji3cc-bkg3BPOM182QzQgBZTaXBZEPKgmrPet-aS8uIWi4rcXOXWnsjqdLTfArcQ_LfEubnW1MkZNdFENqh9Z-j_KqsSDQxbOnV7pwhrh1kuVX81eTY894yY8up-fW0bBlxXDaMdHVEUtlAzS0v1h6_O5ntS24vPVhkhKARZ8ZAuhU2C6hmzULuYJuvsXWzkR6sScCUJKWh0Hw4QXTUKwQO0moPlJG2hWdC3kBLDvHl2XAuOWEFeFGdXwQiXZT-isTtK5pSsxOEpsORXM3TXq0wP7zDKdWZ1iqJdC-kZSeU6WAH-Nk-1wW6dg6_QnVT55WHjjq1K5dd9Pq4Vx5ktx3rMHIeKOIdRthPjeQ68EazUZf3HylfVkJisZc4RHFvg_]--></g></svg>