<?xml version="1.0" encoding="us-ascii" standalone="no"?><svg xmlns="http://www.w3.org/2000/svg" xmlns:xlink="http://www.w3.org/1999/xlink" contentStyleType="text/css" height="669px" preserveAspectRatio="none" style="width:1309px;height:669px;background:#FFFFFF;" version="1.1" viewBox="0 0 1309 669" width="1309px" zoomAndPan="magnify"><defs/><g><!--class ListTaskSpaceUI--><g id="elem_ListTaskSpaceUI"><rect codeLine="6" fill="#F1F1F1" height="48" id="ListTaskSpaceUI" rx="2.5" ry="2.5" style="stroke:#181818;stroke-width:0.5;" width="137" x="348.5" y="63"/><ellipse cx="363.5" cy="79" fill="#ADD1B2" rx="11" ry="11" style="stroke:#181818;stroke-width:1.0;"/><path d="M366.2656,74.875 Q366.4219,74.6563 366.6094,74.5469 Q366.7969,74.4375 367.0156,74.4375 Q367.3906,74.4375 367.625,74.7031 Q367.8594,74.9531 367.8594,75.5625 L367.8594,77.0156 Q367.8594,77.625 367.625,77.8906 Q367.3906,78.1563 367.0156,78.1563 Q366.6719,78.1563 366.4688,77.9531 Q366.2656,77.7656 366.1563,77.25 Q366.1094,76.8906 365.9219,76.7031 Q365.5938,76.3281 364.9844,76.1094 Q364.375,75.8906 363.75,75.8906 Q362.9844,75.8906 362.3438,76.2188 Q361.7188,76.5469 361.2188,77.2969 Q360.7344,78.0469 360.7344,79.0781 L360.7344,80.1719 Q360.7344,81.4063 361.625,82.2344 Q362.5156,83.0469 364.1094,83.0469 Q365.0469,83.0469 365.7031,82.7969 Q366.0938,82.6406 366.5156,82.2031 Q366.7813,81.9375 366.9219,81.8594 Q367.0781,81.7813 367.2813,81.7813 Q367.6094,81.7813 367.8594,82.0469 Q368.125,82.2969 368.125,82.6406 Q368.125,82.9844 367.7813,83.3906 Q367.2813,83.9688 366.4844,84.2969 Q365.4063,84.75 364.1094,84.75 Q362.5938,84.75 361.3906,84.125 Q360.4063,83.625 359.7188,82.5625 Q359.0313,81.4844 359.0313,80.2031 L359.0313,79.0469 Q359.0313,77.7188 359.6406,76.5781 Q360.2656,75.4219 361.3594,74.8125 Q362.4531,74.1875 363.6875,74.1875 Q364.4219,74.1875 365.0625,74.3594 Q365.7188,74.5156 366.2656,74.875 Z " fill="#000000"/><text fill="#000000" font-family="sans-serif" font-size="14" lengthAdjust="spacing" textLength="105" x="377.5" y="84.7969">ListTaskSpaceUI</text><line style="stroke:#181818;stroke-width:0.5;" x1="349.5" x2="484.5" y1="95" y2="95"/><line style="stroke:#181818;stroke-width:0.5;" x1="349.5" x2="484.5" y1="103" y2="103"/></g><!--class TaskMapper--><g id="elem_TaskMapper"><rect codeLine="9" fill="#F1F1F1" height="103.8633" id="TaskMapper" rx="2.5" ry="2.5" style="stroke:#181818;stroke-width:0.5;" width="138" x="926" y="35"/><ellipse cx="953.15" cy="51" fill="#ADD1B2" rx="11" ry="11" style="stroke:#181818;stroke-width:1.0;"/><path d="M955.9156,46.875 Q956.0719,46.6563 956.2594,46.5469 Q956.4469,46.4375 956.6656,46.4375 Q957.0406,46.4375 957.275,46.7031 Q957.5094,46.9531 957.5094,47.5625 L957.5094,49.0156 Q957.5094,49.625 957.275,49.8906 Q957.0406,50.1563 956.6656,50.1563 Q956.3219,50.1563 956.1188,49.9531 Q955.9156,49.7656 955.8063,49.25 Q955.7594,48.8906 955.5719,48.7031 Q955.2438,48.3281 954.6344,48.1094 Q954.025,47.8906 953.4,47.8906 Q952.6344,47.8906 951.9938,48.2188 Q951.3688,48.5469 950.8688,49.2969 Q950.3844,50.0469 950.3844,51.0781 L950.3844,52.1719 Q950.3844,53.4063 951.275,54.2344 Q952.1656,55.0469 953.7594,55.0469 Q954.6969,55.0469 955.3531,54.7969 Q955.7438,54.6406 956.1656,54.2031 Q956.4313,53.9375 956.5719,53.8594 Q956.7281,53.7813 956.9313,53.7813 Q957.2594,53.7813 957.5094,54.0469 Q957.775,54.2969 957.775,54.6406 Q957.775,54.9844 957.4313,55.3906 Q956.9313,55.9688 956.1344,56.2969 Q955.0563,56.75 953.7594,56.75 Q952.2438,56.75 951.0406,56.125 Q950.0563,55.625 949.3688,54.5625 Q948.6813,53.4844 948.6813,52.2031 L948.6813,51.0469 Q948.6813,49.7188 949.2906,48.5781 Q949.9156,47.4219 951.0094,46.8125 Q952.1031,46.1875 953.3375,46.1875 Q954.0719,46.1875 954.7125,46.3594 Q955.3688,46.5156 955.9156,46.875 Z " fill="#000000"/><text fill="#000000" font-family="sans-serif" font-size="14" lengthAdjust="spacing" textLength="79" x="969.85" y="56.7969">TaskMapper</text><line style="stroke:#181818;stroke-width:0.5;" x1="927" x2="1063" y1="67" y2="67"/><text fill="#000000" font-family="sans-serif" font-size="14" lengthAdjust="spacing" textLength="126" x="932" y="86.1074">-List&lt;Task&gt; taskList</text><line style="stroke:#181818;stroke-width:0.5;" x1="927" x2="1063" y1="93.6211" y2="93.6211"/><text fill="#000000" font-family="sans-serif" font-size="14" lengthAdjust="spacing" textLength="100" x="932" y="112.7285">+toDto(taskList)</text><text fill="#000000" font-family="sans-serif" font-size="14" lengthAdjust="spacing" textLength="99" x="932" y="131.3496">+addTask(task)</text></g><!--class TaskDto--><g id="elem_TaskDto"><rect codeLine="15" fill="#F1F1F1" height="159.7266" id="TaskDto" rx="2.5" ry="2.5" style="stroke:#181818;stroke-width:0.5;" width="176" x="1126" y="7"/><ellipse cx="1183.25" cy="23" fill="#ADD1B2" rx="11" ry="11" style="stroke:#181818;stroke-width:1.0;"/><path d="M1186.0156,18.875 Q1186.1719,18.6563 1186.3594,18.5469 Q1186.5469,18.4375 1186.7656,18.4375 Q1187.1406,18.4375 1187.375,18.7031 Q1187.6094,18.9531 1187.6094,19.5625 L1187.6094,21.0156 Q1187.6094,21.625 1187.375,21.8906 Q1187.1406,22.1563 1186.7656,22.1563 Q1186.4219,22.1563 1186.2188,21.9531 Q1186.0156,21.7656 1185.9063,21.25 Q1185.8594,20.8906 1185.6719,20.7031 Q1185.3438,20.3281 1184.7344,20.1094 Q1184.125,19.8906 1183.5,19.8906 Q1182.7344,19.8906 1182.0938,20.2188 Q1181.4688,20.5469 1180.9688,21.2969 Q1180.4844,22.0469 1180.4844,23.0781 L1180.4844,24.1719 Q1180.4844,25.4063 1181.375,26.2344 Q1182.2656,27.0469 1183.8594,27.0469 Q1184.7969,27.0469 1185.4531,26.7969 Q1185.8438,26.6406 1186.2656,26.2031 Q1186.5313,25.9375 1186.6719,25.8594 Q1186.8281,25.7813 1187.0313,25.7813 Q1187.3594,25.7813 1187.6094,26.0469 Q1187.875,26.2969 1187.875,26.6406 Q1187.875,26.9844 1187.5313,27.3906 Q1187.0313,27.9688 1186.2344,28.2969 Q1185.1563,28.75 1183.8594,28.75 Q1182.3438,28.75 1181.1406,28.125 Q1180.1563,27.625 1179.4688,26.5625 Q1178.7813,25.4844 1178.7813,24.2031 L1178.7813,23.0469 Q1178.7813,21.7188 1179.3906,20.5781 Q1180.0156,19.4219 1181.1094,18.8125 Q1182.2031,18.1875 1183.4375,18.1875 Q1184.1719,18.1875 1184.8125,18.3594 Q1185.4688,18.5156 1186.0156,18.875 Z " fill="#000000"/><text fill="#000000" font-family="sans-serif" font-size="14" lengthAdjust="spacing" textLength="53" x="1203.75" y="28.7969">TaskDto</text><line style="stroke:#181818;stroke-width:0.5;" x1="1127" x2="1301" y1="39" y2="39"/><text fill="#000000" font-family="sans-serif" font-size="14" lengthAdjust="spacing" textLength="76" x="1132" y="58.1074">-Team team</text><text fill="#000000" font-family="sans-serif" font-size="14" lengthAdjust="spacing" textLength="164" x="1132" y="76.7285">-List&lt;vehicleList&gt; vehicles</text><text fill="#000000" font-family="sans-serif" font-size="14" lengthAdjust="spacing" textLength="70" x="1132" y="95.3496">-Date dateI</text><text fill="#000000" font-family="sans-serif" font-size="14" lengthAdjust="spacing" textLength="76" x="1132" y="113.9707">-Date dateF</text><text fill="#000000" font-family="sans-serif" font-size="14" lengthAdjust="spacing" textLength="84" x="1132" y="132.5918">-String status</text><line style="stroke:#181818;stroke-width:0.5;" x1="1127" x2="1301" y1="140.1055" y2="140.1055"/><text fill="#000000" font-family="sans-serif" font-size="14" lengthAdjust="spacing" textLength="89" x="1132" y="159.2129">TaskDto(task)</text></g><!--class ListTaskController--><g id="elem_ListTaskController"><rect codeLine="24" fill="#F1F1F1" height="141.1055" id="ListTaskController" rx="2.5" ry="2.5" style="stroke:#181818;stroke-width:0.5;" width="322" x="521" y="16.5"/><ellipse cx="620.25" cy="32.5" fill="#ADD1B2" rx="11" ry="11" style="stroke:#181818;stroke-width:1.0;"/><path d="M623.0156,28.375 Q623.1719,28.1563 623.3594,28.0469 Q623.5469,27.9375 623.7656,27.9375 Q624.1406,27.9375 624.375,28.2031 Q624.6094,28.4531 624.6094,29.0625 L624.6094,30.5156 Q624.6094,31.125 624.375,31.3906 Q624.1406,31.6563 623.7656,31.6563 Q623.4219,31.6563 623.2188,31.4531 Q623.0156,31.2656 622.9063,30.75 Q622.8594,30.3906 622.6719,30.2031 Q622.3438,29.8281 621.7344,29.6094 Q621.125,29.3906 620.5,29.3906 Q619.7344,29.3906 619.0938,29.7188 Q618.4688,30.0469 617.9688,30.7969 Q617.4844,31.5469 617.4844,32.5781 L617.4844,33.6719 Q617.4844,34.9063 618.375,35.7344 Q619.2656,36.5469 620.8594,36.5469 Q621.7969,36.5469 622.4531,36.2969 Q622.8438,36.1406 623.2656,35.7031 Q623.5313,35.4375 623.6719,35.3594 Q623.8281,35.2813 624.0313,35.2813 Q624.3594,35.2813 624.6094,35.5469 Q624.875,35.7969 624.875,36.1406 Q624.875,36.4844 624.5313,36.8906 Q624.0313,37.4688 623.2344,37.7969 Q622.1563,38.25 620.8594,38.25 Q619.3438,38.25 618.1406,37.625 Q617.1563,37.125 616.4688,36.0625 Q615.7813,34.9844 615.7813,33.7031 L615.7813,32.5469 Q615.7813,31.2188 616.3906,30.0781 Q617.0156,28.9219 618.1094,28.3125 Q619.2031,27.6875 620.4375,27.6875 Q621.1719,27.6875 621.8125,27.8594 Q622.4688,28.0156 623.0156,28.375 Z " fill="#000000"/><text fill="#000000" font-family="sans-serif" font-size="14" lengthAdjust="spacing" textLength="115" x="640.75" y="38.2969">ListTaskController</text><line style="stroke:#181818;stroke-width:0.5;" x1="522" x2="842" y1="48.5" y2="48.5"/><line style="stroke:#181818;stroke-width:0.5;" x1="522" x2="842" y1="56.5" y2="56.5"/><text fill="#000000" font-family="sans-serif" font-size="14" lengthAdjust="spacing" textLength="237" x="527" y="75.6074">+getCollaboratorThroughEmail(email)</text><text fill="#000000" font-family="sans-serif" font-size="14" lengthAdjust="spacing" textLength="216" x="527" y="94.2285">+saveDatesSelected(dateI, dateF)</text><text fill="#000000" font-family="sans-serif" font-size="14" lengthAdjust="spacing" textLength="100" x="527" y="112.8496">+getStatusList()</text><text fill="#000000" font-family="sans-serif" font-size="14" lengthAdjust="spacing" textLength="310" x="527" y="131.4707">+getTaskList(idNumber, dateI, dateF, typeStatus)</text><text fill="#000000" font-family="sans-serif" font-size="14" lengthAdjust="spacing" textLength="100" x="527" y="150.0918">+toDto(taskList)</text></g><!--class TaskRepository--><g id="elem_TaskRepository"><rect codeLine="32" fill="#F1F1F1" height="122.4844" id="TaskRepository" rx="2.5" ry="2.5" style="stroke:#181818;stroke-width:0.5;" width="322" x="7" y="494"/><ellipse cx="114.25" cy="510" fill="#ADD1B2" rx="11" ry="11" style="stroke:#181818;stroke-width:1.0;"/><path d="M117.0156,505.875 Q117.1719,505.6563 117.3594,505.5469 Q117.5469,505.4375 117.7656,505.4375 Q118.1406,505.4375 118.375,505.7031 Q118.6094,505.9531 118.6094,506.5625 L118.6094,508.0156 Q118.6094,508.625 118.375,508.8906 Q118.1406,509.1563 117.7656,509.1563 Q117.4219,509.1563 117.2188,508.9531 Q117.0156,508.7656 116.9063,508.25 Q116.8594,507.8906 116.6719,507.7031 Q116.3438,507.3281 115.7344,507.1094 Q115.125,506.8906 114.5,506.8906 Q113.7344,506.8906 113.0938,507.2188 Q112.4688,507.5469 111.9688,508.2969 Q111.4844,509.0469 111.4844,510.0781 L111.4844,511.1719 Q111.4844,512.4063 112.375,513.2344 Q113.2656,514.0469 114.8594,514.0469 Q115.7969,514.0469 116.4531,513.7969 Q116.8438,513.6406 117.2656,513.2031 Q117.5313,512.9375 117.6719,512.8594 Q117.8281,512.7813 118.0313,512.7813 Q118.3594,512.7813 118.6094,513.0469 Q118.875,513.2969 118.875,513.6406 Q118.875,513.9844 118.5313,514.3906 Q118.0313,514.9688 117.2344,515.2969 Q116.1563,515.75 114.8594,515.75 Q113.3438,515.75 112.1406,515.125 Q111.1563,514.625 110.4688,513.5625 Q109.7813,512.4844 109.7813,511.2031 L109.7813,510.0469 Q109.7813,508.7188 110.3906,507.5781 Q111.0156,506.4219 112.1094,505.8125 Q113.2031,505.1875 114.4375,505.1875 Q115.1719,505.1875 115.8125,505.3594 Q116.4688,505.5156 117.0156,505.875 Z " fill="#000000"/><text fill="#000000" font-family="sans-serif" font-size="14" lengthAdjust="spacing" textLength="99" x="134.75" y="515.7969">TaskRepository</text><line style="stroke:#181818;stroke-width:0.5;" x1="8" x2="328" y1="526" y2="526"/><text fill="#000000" font-family="sans-serif" font-size="14" lengthAdjust="spacing" textLength="126" x="13" y="545.1074">-List&lt;Task&gt; taskList</text><line style="stroke:#181818;stroke-width:0.5;" x1="8" x2="328" y1="552.6211" y2="552.6211"/><text fill="#000000" font-family="sans-serif" font-size="14" lengthAdjust="spacing" textLength="100" x="13" y="571.7285">+getStatusList()</text><text fill="#000000" font-family="sans-serif" font-size="14" lengthAdjust="spacing" textLength="310" x="13" y="590.3496">+getTaskList(idNumber, dateI, dateF, typeStatus)</text><text fill="#000000" font-family="sans-serif" font-size="14" lengthAdjust="spacing" textLength="192" x="13" y="608.9707">+addTaskOfCollaborator(task)</text></g><!--class Task--><g id="elem_Task"><rect codeLine="39" fill="#F1F1F1" height="215.5898" id="Task" rx="2.5" ry="2.5" style="stroke:#181818;stroke-width:0.5;" width="171" x="386.5" y="447"/><ellipse cx="452.25" cy="463" fill="#ADD1B2" rx="11" ry="11" style="stroke:#181818;stroke-width:1.0;"/><path d="M455.0156,458.875 Q455.1719,458.6563 455.3594,458.5469 Q455.5469,458.4375 455.7656,458.4375 Q456.1406,458.4375 456.375,458.7031 Q456.6094,458.9531 456.6094,459.5625 L456.6094,461.0156 Q456.6094,461.625 456.375,461.8906 Q456.1406,462.1563 455.7656,462.1563 Q455.4219,462.1563 455.2188,461.9531 Q455.0156,461.7656 454.9063,461.25 Q454.8594,460.8906 454.6719,460.7031 Q454.3438,460.3281 453.7344,460.1094 Q453.125,459.8906 452.5,459.8906 Q451.7344,459.8906 451.0938,460.2188 Q450.4688,460.5469 449.9688,461.2969 Q449.4844,462.0469 449.4844,463.0781 L449.4844,464.1719 Q449.4844,465.4063 450.375,466.2344 Q451.2656,467.0469 452.8594,467.0469 Q453.7969,467.0469 454.4531,466.7969 Q454.8438,466.6406 455.2656,466.2031 Q455.5313,465.9375 455.6719,465.8594 Q455.8281,465.7813 456.0313,465.7813 Q456.3594,465.7813 456.6094,466.0469 Q456.875,466.2969 456.875,466.6406 Q456.875,466.9844 456.5313,467.3906 Q456.0313,467.9688 455.2344,468.2969 Q454.1563,468.75 452.8594,468.75 Q451.3438,468.75 450.1406,468.125 Q449.1563,467.625 448.4688,466.5625 Q447.7813,465.4844 447.7813,464.2031 L447.7813,463.0469 Q447.7813,461.7188 448.3906,460.5781 Q449.0156,459.4219 450.1094,458.8125 Q451.2031,458.1875 452.4375,458.1875 Q453.1719,458.1875 453.8125,458.3594 Q454.4688,458.5156 455.0156,458.875 Z " fill="#000000"/><text fill="#000000" font-family="sans-serif" font-size="14" lengthAdjust="spacing" textLength="31" x="472.75" y="468.7969">Task</text><line style="stroke:#181818;stroke-width:0.5;" x1="387.5" x2="556.5" y1="479" y2="479"/><text fill="#000000" font-family="sans-serif" font-size="14" lengthAdjust="spacing" textLength="76" x="392.5" y="498.1074">-Team team</text><text fill="#000000" font-family="sans-serif" font-size="14" lengthAdjust="spacing" textLength="159" x="392.5" y="516.7285">-List&lt;Vehicle&gt; vehicleList</text><text fill="#000000" font-family="sans-serif" font-size="14" lengthAdjust="spacing" textLength="70" x="392.5" y="535.3496">-Date dateI</text><text fill="#000000" font-family="sans-serif" font-size="14" lengthAdjust="spacing" textLength="76" x="392.5" y="553.9707">-Date dateF</text><text fill="#000000" font-family="sans-serif" font-size="14" lengthAdjust="spacing" textLength="84" x="392.5" y="572.5918">-String status</text><line style="stroke:#181818;stroke-width:0.5;" x1="387.5" x2="556.5" y1="580.1055" y2="580.1055"/><text fill="#000000" font-family="sans-serif" font-size="14" lengthAdjust="spacing" textLength="78" x="392.5" y="599.2129">+getStatus()</text><text fill="#000000" font-family="sans-serif" font-size="14" lengthAdjust="spacing" textLength="98" x="392.5" y="617.834">+getIdNumber()</text><text fill="#000000" font-family="sans-serif" font-size="14" lengthAdjust="spacing" textLength="71" x="392.5" y="636.4551">+getDateI()</text><text fill="#000000" font-family="sans-serif" font-size="14" lengthAdjust="spacing" textLength="77" x="392.5" y="655.0762">+getDateF()</text></g><!--class CollaboratorRepository--><g id="elem_CollaboratorRepository"><rect codeLine="51" fill="#F1F1F1" height="66.6211" id="CollaboratorRepository" rx="2.5" ry="2.5" style="stroke:#181818;stroke-width:0.5;" width="249" x="620.5" y="521.5"/><ellipse cx="667.75" cy="537.5" fill="#ADD1B2" rx="11" ry="11" style="stroke:#181818;stroke-width:1.0;"/><path d="M670.5156,533.375 Q670.6719,533.1563 670.8594,533.0469 Q671.0469,532.9375 671.2656,532.9375 Q671.6406,532.9375 671.875,533.2031 Q672.1094,533.4531 672.1094,534.0625 L672.1094,535.5156 Q672.1094,536.125 671.875,536.3906 Q671.6406,536.6563 671.2656,536.6563 Q670.9219,536.6563 670.7188,536.4531 Q670.5156,536.2656 670.4063,535.75 Q670.3594,535.3906 670.1719,535.2031 Q669.8438,534.8281 669.2344,534.6094 Q668.625,534.3906 668,534.3906 Q667.2344,534.3906 666.5938,534.7188 Q665.9688,535.0469 665.4688,535.7969 Q664.9844,536.5469 664.9844,537.5781 L664.9844,538.6719 Q664.9844,539.9063 665.875,540.7344 Q666.7656,541.5469 668.3594,541.5469 Q669.2969,541.5469 669.9531,541.2969 Q670.3438,541.1406 670.7656,540.7031 Q671.0313,540.4375 671.1719,540.3594 Q671.3281,540.2813 671.5313,540.2813 Q671.8594,540.2813 672.1094,540.5469 Q672.375,540.7969 672.375,541.1406 Q672.375,541.4844 672.0313,541.8906 Q671.5313,542.4688 670.7344,542.7969 Q669.6563,543.25 668.3594,543.25 Q666.8438,543.25 665.6406,542.625 Q664.6563,542.125 663.9688,541.0625 Q663.2813,539.9844 663.2813,538.7031 L663.2813,537.5469 Q663.2813,536.2188 663.8906,535.0781 Q664.5156,533.9219 665.6094,533.3125 Q666.7031,532.6875 667.9375,532.6875 Q668.6719,532.6875 669.3125,532.8594 Q669.9688,533.0156 670.5156,533.375 Z " fill="#000000"/><text fill="#000000" font-family="sans-serif" font-size="14" lengthAdjust="spacing" textLength="146" x="688.25" y="543.2969">CollaboratorRepository</text><line style="stroke:#181818;stroke-width:0.5;" x1="621.5" x2="868.5" y1="553.5" y2="553.5"/><line style="stroke:#181818;stroke-width:0.5;" x1="621.5" x2="868.5" y1="561.5" y2="561.5"/><text fill="#000000" font-family="sans-serif" font-size="14" lengthAdjust="spacing" textLength="237" x="626.5" y="580.6074">+getCollaboratorThroughEmail(email)</text></g><!--class Repositories--><g id="elem_Repositories"><rect codeLine="55" fill="#F1F1F1" height="122.4844" id="Repositories" rx="2.5" ry="2.5" style="stroke:#181818;stroke-width:0.5;" width="350" x="277" y="246"/><ellipse cx="408.25" cy="262" fill="#ADD1B2" rx="11" ry="11" style="stroke:#181818;stroke-width:1.0;"/><path d="M411.0156,257.875 Q411.1719,257.6563 411.3594,257.5469 Q411.5469,257.4375 411.7656,257.4375 Q412.1406,257.4375 412.375,257.7031 Q412.6094,257.9531 412.6094,258.5625 L412.6094,260.0156 Q412.6094,260.625 412.375,260.8906 Q412.1406,261.1563 411.7656,261.1563 Q411.4219,261.1563 411.2188,260.9531 Q411.0156,260.7656 410.9063,260.25 Q410.8594,259.8906 410.6719,259.7031 Q410.3438,259.3281 409.7344,259.1094 Q409.125,258.8906 408.5,258.8906 Q407.7344,258.8906 407.0938,259.2188 Q406.4688,259.5469 405.9688,260.2969 Q405.4844,261.0469 405.4844,262.0781 L405.4844,263.1719 Q405.4844,264.4063 406.375,265.2344 Q407.2656,266.0469 408.8594,266.0469 Q409.7969,266.0469 410.4531,265.7969 Q410.8438,265.6406 411.2656,265.2031 Q411.5313,264.9375 411.6719,264.8594 Q411.8281,264.7813 412.0313,264.7813 Q412.3594,264.7813 412.6094,265.0469 Q412.875,265.2969 412.875,265.6406 Q412.875,265.9844 412.5313,266.3906 Q412.0313,266.9688 411.2344,267.2969 Q410.1563,267.75 408.8594,267.75 Q407.3438,267.75 406.1406,267.125 Q405.1563,266.625 404.4688,265.5625 Q403.7813,264.4844 403.7813,263.2031 L403.7813,262.0469 Q403.7813,260.7188 404.3906,259.5781 Q405.0156,258.4219 406.1094,257.8125 Q407.2031,257.1875 408.4375,257.1875 Q409.1719,257.1875 409.8125,257.3594 Q410.4688,257.5156 411.0156,257.875 Z " fill="#000000"/><text fill="#000000" font-family="sans-serif" font-size="14" lengthAdjust="spacing" textLength="79" x="428.75" y="267.7969">Repositories</text><line style="stroke:#181818;stroke-width:0.5;" x1="278" x2="626" y1="278" y2="278"/><line style="stroke:#181818;stroke-width:0.5;" x1="278" x2="626" y1="286" y2="286"/><text fill="#000000" font-family="sans-serif" font-size="14" lengthAdjust="spacing" textLength="94" x="283" y="305.1074">-Repositories()</text><text fill="#000000" font-family="sans-serif" font-size="14" lengthAdjust="spacing" textLength="178" x="283" y="323.7285">+getInstance(): Repositories</text><text fill="#000000" font-family="sans-serif" font-size="14" lengthAdjust="spacing" textLength="338" x="283" y="342.3496">+getCollaboratorRepository(): CollaboratorRepository</text><text fill="#000000" font-family="sans-serif" font-size="14" lengthAdjust="spacing" textLength="244" x="283" y="360.9707">+getTaskRepository(): TaskRepository</text></g><!--class Date--><g id="elem_Date"><rect codeLine="62" fill="#F1F1F1" height="122.4844" id="Date" rx="2.5" ry="2.5" style="stroke:#181818;stroke-width:0.5;" width="223" x="812.5" y="246"/><ellipse cx="904.75" cy="262" fill="#ADD1B2" rx="11" ry="11" style="stroke:#181818;stroke-width:1.0;"/><path d="M907.5156,257.875 Q907.6719,257.6563 907.8594,257.5469 Q908.0469,257.4375 908.2656,257.4375 Q908.6406,257.4375 908.875,257.7031 Q909.1094,257.9531 909.1094,258.5625 L909.1094,260.0156 Q909.1094,260.625 908.875,260.8906 Q908.6406,261.1563 908.2656,261.1563 Q907.9219,261.1563 907.7188,260.9531 Q907.5156,260.7656 907.4063,260.25 Q907.3594,259.8906 907.1719,259.7031 Q906.8438,259.3281 906.2344,259.1094 Q905.625,258.8906 905,258.8906 Q904.2344,258.8906 903.5938,259.2188 Q902.9688,259.5469 902.4688,260.2969 Q901.9844,261.0469 901.9844,262.0781 L901.9844,263.1719 Q901.9844,264.4063 902.875,265.2344 Q903.7656,266.0469 905.3594,266.0469 Q906.2969,266.0469 906.9531,265.7969 Q907.3438,265.6406 907.7656,265.2031 Q908.0313,264.9375 908.1719,264.8594 Q908.3281,264.7813 908.5313,264.7813 Q908.8594,264.7813 909.1094,265.0469 Q909.375,265.2969 909.375,265.6406 Q909.375,265.9844 909.0313,266.3906 Q908.5313,266.9688 907.7344,267.2969 Q906.6563,267.75 905.3594,267.75 Q903.8438,267.75 902.6406,267.125 Q901.6563,266.625 900.9688,265.5625 Q900.2813,264.4844 900.2813,263.2031 L900.2813,262.0469 Q900.2813,260.7188 900.8906,259.5781 Q901.5156,258.4219 902.6094,257.8125 Q903.7031,257.1875 904.9375,257.1875 Q905.6719,257.1875 906.3125,257.3594 Q906.9688,257.5156 907.5156,257.875 Z " fill="#000000"/><text fill="#000000" font-family="sans-serif" font-size="14" lengthAdjust="spacing" textLength="30" x="925.25" y="267.7969">Date</text><line style="stroke:#181818;stroke-width:0.5;" x1="813.5" x2="1034.5" y1="278" y2="278"/><text fill="#000000" font-family="sans-serif" font-size="14" lengthAdjust="spacing" textLength="52" x="818.5" y="297.1074">-int year</text><text fill="#000000" font-family="sans-serif" font-size="14" lengthAdjust="spacing" textLength="63" x="818.5" y="315.7285">-int month</text><text fill="#000000" font-family="sans-serif" font-size="14" lengthAdjust="spacing" textLength="47" x="818.5" y="334.3496">-int day</text><line style="stroke:#181818;stroke-width:0.5;" x1="813.5" x2="1034.5" y1="341.8633" y2="341.8633"/><text fill="#000000" font-family="sans-serif" font-size="14" lengthAdjust="spacing" textLength="211" x="818.5" y="360.9707">+Date(int year, int month, int day)</text></g><!--link ListTaskSpaceUI to ListTaskController--><g id="link_ListTaskSpaceUI_ListTaskController"><path codeLine="69" d="M485.73,87 C497.13,87 505.33,87 505.33,87 C505.33,87 505.57,87 514.72,87 " fill="none" id="ListTaskSpaceUI-to-ListTaskController" style="stroke:#181818;stroke-width:1.0;stroke-dasharray:7.0,7.0;"/><polygon fill="#181818" points="520.72,87,511.72,83,515.72,87,511.72,91,520.72,87" style="stroke:#181818;stroke-width:1.0;"/></g><!--link ListTaskController to Repositories--><g id="link_ListTaskController_Repositories"><path codeLine="70" d="M608.59,157.58 C578.62,185.99 548.645,214.4028 519.775,241.7628 " fill="none" id="ListTaskController-to-Repositories" style="stroke:#181818;stroke-width:1.0;stroke-dasharray:7.0,7.0;"/><polygon fill="#181818" points="515.42,245.89,524.704,242.6025,519.0492,242.4506,519.201,236.7958,515.42,245.89" style="stroke:#181818;stroke-width:1.0;"/><text fill="#000000" font-family="sans-serif" font-size="13" lengthAdjust="spacing" textLength="67" x="568" y="212.0283">repositories</text></g><!--link Repositories to Repositories--><g id="link_Repositories_Repositories"><path codeLine="71" d="M627.39,290.89 C648.33,293.82 662,299.19 662,307 C662,314.81 654.2721,319.3486 633.3321,322.2786 " fill="none" id="Repositories-to-Repositories" style="stroke:#181818;stroke-width:1.0;"/><polygon fill="#181818" points="627.39,323.11,636.8575,325.8242,632.3418,322.4171,635.7489,317.9014,627.39,323.11" style="stroke:#181818;stroke-width:1.0;"/><text fill="#000000" font-family="sans-serif" font-size="13" lengthAdjust="spacing" textLength="49" x="668" y="312.5283">instance</text></g><!--link ListTaskController to TaskRepository--><g id="link_ListTaskController_TaskRepository"><path codeLine="72" d="M524.24,157.63 C511.26,163.35 503,167 503,167 C503,167 170,246 170,246 C170,246 169.0088,398.2501 168.4288,487.8801 " fill="none" id="ListTaskController-to-TaskRepository" style="stroke:#181818;stroke-width:1.0;stroke-dasharray:7.0,7.0;"/><polygon fill="#181818" points="168.39,493.88,172.4482,484.9061,168.4224,488.8801,164.4483,484.8543,168.39,493.88" style="stroke:#181818;stroke-width:1.0;"/><text fill="#000000" font-family="sans-serif" font-size="13" lengthAdjust="spacing" textLength="87" x="171" y="312.5283">taskRepository</text></g><!--link Repositories to TaskRepository--><g id="link_Repositories_TaskRepository"><path codeLine="73" d="M382.53,368.18 C338.52,406.3 286.3354,451.5019 242.2754,489.6619 " fill="none" id="Repositories-to-TaskRepository" style="stroke:#181818;stroke-width:1.0;"/><polygon fill="#181818" points="237.74,493.59,247.1619,490.7215,241.5195,490.3166,241.9244,484.6742,237.74,493.59" style="stroke:#181818;stroke-width:1.0;"/><text fill="#000000" font-family="sans-serif" font-size="13" lengthAdjust="spacing" textLength="7" x="366.6368" y="390.6888">1</text><text fill="#000000" font-family="sans-serif" font-size="13" lengthAdjust="spacing" textLength="7" x="238.399" y="482.5238">1</text></g><!--link Repositories to CollaboratorRepository--><g id="link_Repositories_CollaboratorRepository"><path codeLine="74" d="M523.68,368.18 C581.11,416.4 654.9147,478.3721 701.3447,517.3521 " fill="none" id="Repositories-to-CollaboratorRepository" style="stroke:#181818;stroke-width:1.0;stroke-dasharray:7.0,7.0;"/><polygon fill="#181818" points="705.94,521.21,701.6191,512.3596,702.1106,517.9951,696.4752,518.4866,705.94,521.21" style="stroke:#181818;stroke-width:1.0;"/><text fill="#000000" font-family="sans-serif" font-size="13" lengthAdjust="spacing" textLength="129" x="582" y="413.0283">collaboratorRepository</text><text fill="#000000" font-family="sans-serif" font-size="13" lengthAdjust="spacing" textLength="7" x="524.9894" y="390.6888">1</text><text fill="#000000" font-family="sans-serif" font-size="13" lengthAdjust="spacing" textLength="7" x="690.827" y="510.2406">1</text></g><!--link ListTaskController to CollaboratorRepository--><g id="link_ListTaskController_CollaboratorRepository"><path codeLine="75" d="M700.1,157.76 C711.09,200.09 723,246 723,246 C723,246 736.5719,436.0753 742.2419,515.3453 " fill="none" id="ListTaskController-to-CollaboratorRepository" style="stroke:#181818;stroke-width:1.0;"/><polygon fill="#181818" points="742.67,521.33,746.0177,512.0676,742.3133,516.3427,738.0381,512.6383,742.67,521.33" style="stroke:#181818;stroke-width:1.0;"/><text fill="#000000" font-family="sans-serif" font-size="13" lengthAdjust="spacing" textLength="7" x="694.5372" y="179.5996">1</text><text fill="#000000" font-family="sans-serif" font-size="13" lengthAdjust="spacing" textLength="7" x="734.5222" y="510.122">1</text></g><!--reverse link TaskRepository to Task--><g id="link_TaskRepository_Task"><path codeLine="76" d="M341.35,555 C360.96,555 368.36,555 386.24,555 " fill="none" id="TaskRepository-backto-Task" style="stroke:#181818;stroke-width:1.0;"/><polygon fill="none" points="329.35,555,335.35,559,341.35,555,335.35,551,329.35,555" style="stroke:#181818;stroke-width:1.0;"/><text fill="#000000" font-family="sans-serif" font-size="13" lengthAdjust="spacing" textLength="21" x="347.25" y="548.0283">has</text><text fill="#000000" font-family="sans-serif" font-size="13" lengthAdjust="spacing" textLength="5" x="373.3793" y="551.3025">*</text></g><!--link ListTaskController to TaskMapper--><g id="link_ListTaskController_TaskMapper"><path codeLine="77" d="M843.08,87 C872.29,87 895.29,87 920,87 " fill="none" id="ListTaskController-to-TaskMapper" style="stroke:#181818;stroke-width:1.0;"/><polygon fill="#181818" points="926,87,917,83,921,87,917,91,926,87" style="stroke:#181818;stroke-width:1.0;"/><text fill="#000000" font-family="sans-serif" font-size="13" lengthAdjust="spacing" textLength="46" x="861.5" y="80.0283">taskList</text><text fill="#000000" font-family="sans-serif" font-size="13" lengthAdjust="spacing" textLength="7" x="851.0518" y="83.6211">1</text><text fill="#000000" font-family="sans-serif" font-size="13" lengthAdjust="spacing" textLength="7" x="911.0703" y="83.122">1</text></g><!--link TaskMapper to TaskDto--><g id="link_TaskMapper_TaskDto"><path codeLine="78" d="M1064.29,87 C1083.84,87 1099.38,87 1119.87,87 " fill="none" id="TaskMapper-to-TaskDto" style="stroke:#181818;stroke-width:1.0;"/><polygon fill="#181818" points="1125.87,87,1116.87,83,1120.87,87,1116.87,91,1125.87,87" style="stroke:#181818;stroke-width:1.0;"/><text fill="#000000" font-family="sans-serif" font-size="13" lengthAdjust="spacing" textLength="25" x="1082.5" y="80.0283">task</text><text fill="#000000" font-family="sans-serif" font-size="13" lengthAdjust="spacing" textLength="7" x="1071.7965" y="83.1738">1</text><text fill="#000000" font-family="sans-serif" font-size="13" lengthAdjust="spacing" textLength="7" x="1110.9955" y="83.3221">1</text></g><!--link ListTaskController to Date--><g id="link_ListTaskController_Date"><path codeLine="79" d="M759.24,157.58 C790.77,185.99 822.4422,214.514 852.8122,241.874 " fill="none" id="ListTaskController-to-Date" style="stroke:#181818;stroke-width:1.0;"/><polygon fill="#181818" points="857.27,245.89,853.2606,236.8942,853.5552,242.5434,847.906,242.8379,857.27,245.89" style="stroke:#181818;stroke-width:1.0;"/><text fill="#000000" font-family="sans-serif" font-size="13" lengthAdjust="spacing" textLength="32" x="819" y="212.0283">dates</text><text fill="#000000" font-family="sans-serif" font-size="13" lengthAdjust="spacing" textLength="7" x="759.8444" y="179.773">1</text><text fill="#000000" font-family="sans-serif" font-size="13" lengthAdjust="spacing" textLength="7" x="842.1497" y="234.8585">2</text></g><!--SRC=[hLNRZfim47tdAwmyGJTPjNr4LQJLNYIaRIiLslS9p88L1oFRsOfM_VUEpSsmx4LLys3YcJCpPyvWeu-yRa31YJMG7w74rBG2cSBSG5qA3FG8q1KKyYUlI_O0GliUmMiqROEiaQAr6y-N2z3woXZ53sU3IIxhbFz2zZu8d8VTSsqoqCUKwkFtXFqE_WmkQ_uCJOEAh8n-EuV-PErxPcYrM-UvO4RU61aEngYtGb5OjBD7yym47zDcI4mDBNwPHwnuBj3-txD-etl03HXa1It9qd3N6rBgcAJI1iovY-gBBhaC0bpBsYWfnDZj1IlHN9C53bA1aIghb3oNrUq9k0ZHhaER6XxHCj0f2feS5g7ZjkqOHLEwrD6n9KFFclMgXRpuSZuTK7M1G_oMsU5seT4pSi-a_OQDr9mOjsyOtFzarO_xwuClszhmNvxyZsxOuzH7jlysUAz7lx-aRyktsMp9qd0NUkpzpfxe_APNPamrXdFKeo2-SSQsfexg7CCedc7MwqxCB7xTCv_qF69kcIWxjGUgl3QiHL3UzaI7gFBs1GnbR6GuH6mdy7R0EM6Mjz7bVkLy1Yj7zfAGCprZkaCzbMQ-tHCixzLTJRrVo16x8-J9Cqks-R1XEwfWdzahEClQFjS75BDyVN0h95tLbv85Yuj1xjZcNSUG-gz0lv9r-XZ4qmtYVI4MKBgTEjopQItuuyQz5x4xmFel]--></g></svg>