<?xml version="1.0" encoding="us-ascii" standalone="no"?><svg xmlns="http://www.w3.org/2000/svg" xmlns:xlink="http://www.w3.org/1999/xlink" contentStyleType="text/css" height="769px" preserveAspectRatio="none" style="width:987px;height:769px;background:#FFFFFF;" version="1.1" viewBox="0 0 987 769" width="987px" zoomAndPan="magnify"><defs/><g><!--cluster UI--><g id="cluster_UI"><path d="M418.5,43.0137 L433.5,43.0137 A3.75,3.75 0 0 1 436,45.5137 L443,67.6348 L583.5,67.6348 A2.5,2.5 0 0 1 586,70.1348 L586,141.5137 A2.5,2.5 0 0 1 583.5,144.0137 L418.5,144.0137 A2.5,2.5 0 0 1 416,141.5137 L416,45.5137 A2.5,2.5 0 0 1 418.5,43.0137 " fill="none" style="stroke:#000000;stroke-width:1.5;"/><line style="stroke:#000000;stroke-width:1.5;" x1="416" x2="443" y1="67.6348" y2="67.6348"/><text fill="#000000" font-family="sans-serif" font-size="14" font-weight="bold" lengthAdjust="spacing" textLength="14" x="420" y="60.1211">UI</text></g><!--cluster Controller--><g id="cluster_Controller"><path d="M612.5,6.0137 L684.5,6.0137 A3.75,3.75 0 0 1 687,8.5137 L694,30.6348 L977.5,30.6348 A2.5,2.5 0 0 1 980,33.1348 L980,178.5137 A2.5,2.5 0 0 1 977.5,181.0137 L612.5,181.0137 A2.5,2.5 0 0 1 610,178.5137 L610,8.5137 A2.5,2.5 0 0 1 612.5,6.0137 " fill="none" style="stroke:#000000;stroke-width:1.5;"/><line style="stroke:#000000;stroke-width:1.5;" x1="610" x2="694" y1="30.6348" y2="30.6348"/><text fill="#000000" font-family="sans-serif" font-size="14" font-weight="bold" lengthAdjust="spacing" textLength="71" x="614" y="23.1211">Controller</text></g><!--cluster Domain--><g id="cluster_Domain"><path d="M8.5,232.0137 L61.5,232.0137 A3.75,3.75 0 0 1 64,234.5137 L71,256.6348 L964.5,256.6348 A2.5,2.5 0 0 1 967,259.1348 L967,759.5137 A2.5,2.5 0 0 1 964.5,762.0137 L8.5,762.0137 A2.5,2.5 0 0 1 6,759.5137 L6,234.5137 A2.5,2.5 0 0 1 8.5,232.0137 " fill="none" style="stroke:#000000;stroke-width:1.5;"/><line style="stroke:#000000;stroke-width:1.5;" x1="6" x2="71" y1="256.6348" y2="256.6348"/><text fill="#000000" font-family="sans-serif" font-size="14" font-weight="bold" lengthAdjust="spacing" textLength="52" x="10" y="249.1211">Domain</text></g><!--cluster Repository--><g id="cluster_Repository"><path d="M312.5,277.0137 L389.5,277.0137 A3.75,3.75 0 0 1 392,279.5137 L399,301.6348 L940.5,301.6348 A2.5,2.5 0 0 1 943,304.1348 L943,702.0137 A2.5,2.5 0 0 1 940.5,704.5137 L312.5,704.5137 A2.5,2.5 0 0 1 310,702.0137 L310,279.5137 A2.5,2.5 0 0 1 312.5,277.0137 " fill="none" style="stroke:#000000;stroke-width:1.5;"/><line style="stroke:#000000;stroke-width:1.5;" x1="310" x2="399" y1="301.6348" y2="301.6348"/><text fill="#000000" font-family="sans-serif" font-size="14" font-weight="bold" lengthAdjust="spacing" textLength="76" x="314" y="294.1211">Repository</text></g><!--cluster Mapper--><g id="cluster_Mapper"><path d="M32.5,286.0137 L87.5,286.0137 A3.75,3.75 0 0 1 90,288.5137 L97,310.6348 L283.5,310.6348 A2.5,2.5 0 0 1 286,313.1348 L286,735.5137 A2.5,2.5 0 0 1 283.5,738.0137 L32.5,738.0137 A2.5,2.5 0 0 1 30,735.5137 L30,288.5137 A2.5,2.5 0 0 1 32.5,286.0137 " fill="none" style="stroke:#000000;stroke-width:1.5;"/><line style="stroke:#000000;stroke-width:1.5;" x1="30" x2="97" y1="310.6348" y2="310.6348"/><text fill="#000000" font-family="sans-serif" font-size="14" font-weight="bold" lengthAdjust="spacing" textLength="54" x="34" y="303.1211">Mapper</text></g><!--cluster DTO--><g id="cluster_DTO"><path d="M56.5,501.0137 L86.5,501.0137 A3.75,3.75 0 0 1 89,503.5137 L96,525.6348 L259.5,525.6348 A2.5,2.5 0 0 1 262,528.1348 L262,711.5137 A2.5,2.5 0 0 1 259.5,714.0137 L56.5,714.0137 A2.5,2.5 0 0 1 54,711.5137 L54,503.5137 A2.5,2.5 0 0 1 56.5,501.0137 " fill="none" style="stroke:#000000;stroke-width:1.5;"/><line style="stroke:#000000;stroke-width:1.5;" x1="54" x2="96" y1="525.6348" y2="525.6348"/><text fill="#000000" font-family="sans-serif" font-size="14" font-weight="bold" lengthAdjust="spacing" textLength="29" x="58" y="518.1211">DTO</text></g><!--class UserInterface--><g id="elem_UserInterface"><rect codeLine="8" fill="#F1F1F1" height="48" id="UserInterface" rx="2.5" ry="2.5" style="stroke:#181818;stroke-width:0.5;" width="137" x="432.5" y="80.0137"/><ellipse cx="447.5" cy="96.0137" fill="#ADD1B2" rx="11" ry="11" style="stroke:#181818;stroke-width:1.0;"/><path d="M450.2656,91.8887 Q450.4219,91.6699 450.6094,91.5605 Q450.7969,91.4512 451.0156,91.4512 Q451.3906,91.4512 451.625,91.7168 Q451.8594,91.9668 451.8594,92.5762 L451.8594,94.0293 Q451.8594,94.6387 451.625,94.9043 Q451.3906,95.1699 451.0156,95.1699 Q450.6719,95.1699 450.4688,94.9668 Q450.2656,94.7793 450.1563,94.2637 Q450.1094,93.9043 449.9219,93.7168 Q449.5938,93.3418 448.9844,93.123 Q448.375,92.9043 447.75,92.9043 Q446.9844,92.9043 446.3438,93.2324 Q445.7188,93.5605 445.2188,94.3105 Q444.7344,95.0605 444.7344,96.0918 L444.7344,97.1855 Q444.7344,98.4199 445.625,99.248 Q446.5156,100.0605 448.1094,100.0605 Q449.0469,100.0605 449.7031,99.8105 Q450.0938,99.6543 450.5156,99.2168 Q450.7813,98.9512 450.9219,98.873 Q451.0781,98.7949 451.2813,98.7949 Q451.6094,98.7949 451.8594,99.0605 Q452.125,99.3105 452.125,99.6543 Q452.125,99.998 451.7813,100.4043 Q451.2813,100.9824 450.4844,101.3105 Q449.4063,101.7637 448.1094,101.7637 Q446.5938,101.7637 445.3906,101.1387 Q444.4063,100.6387 443.7188,99.5762 Q443.0313,98.498 443.0313,97.2168 L443.0313,96.0605 Q443.0313,94.7324 443.6406,93.5918 Q444.2656,92.4355 445.3594,91.8262 Q446.4531,91.2012 447.6875,91.2012 Q448.4219,91.2012 449.0625,91.373 Q449.7188,91.5293 450.2656,91.8887 Z " fill="#000000"/><text fill="#000000" font-family="sans-serif" font-size="14" lengthAdjust="spacing" textLength="105" x="461.5" y="101.8105">ListTaskSpaceUI</text><line style="stroke:#181818;stroke-width:0.5;" x1="433.5" x2="568.5" y1="112.0137" y2="112.0137"/><line style="stroke:#181818;stroke-width:0.5;" x1="433.5" x2="568.5" y1="120.0137" y2="120.0137"/></g><!--class CTRL--><g id="elem_CTRL"><rect codeLine="12" fill="#F1F1F1" height="122.4844" id="CTRL" rx="2.5" ry="2.5" style="stroke:#181818;stroke-width:0.5;" width="337" x="626.5" y="43.0137"/><ellipse cx="733.25" cy="59.0137" fill="#ADD1B2" rx="11" ry="11" style="stroke:#181818;stroke-width:1.0;"/><path d="M736.0156,54.8887 Q736.1719,54.6699 736.3594,54.5605 Q736.5469,54.4512 736.7656,54.4512 Q737.1406,54.4512 737.375,54.7168 Q737.6094,54.9668 737.6094,55.5762 L737.6094,57.0293 Q737.6094,57.6387 737.375,57.9043 Q737.1406,58.1699 736.7656,58.1699 Q736.4219,58.1699 736.2188,57.9668 Q736.0156,57.7793 735.9063,57.2637 Q735.8594,56.9043 735.6719,56.7168 Q735.3438,56.3418 734.7344,56.123 Q734.125,55.9043 733.5,55.9043 Q732.7344,55.9043 732.0938,56.2324 Q731.4688,56.5605 730.9688,57.3105 Q730.4844,58.0605 730.4844,59.0918 L730.4844,60.1855 Q730.4844,61.4199 731.375,62.248 Q732.2656,63.0605 733.8594,63.0605 Q734.7969,63.0605 735.4531,62.8105 Q735.8438,62.6543 736.2656,62.2168 Q736.5313,61.9512 736.6719,61.873 Q736.8281,61.7949 737.0313,61.7949 Q737.3594,61.7949 737.6094,62.0605 Q737.875,62.3105 737.875,62.6543 Q737.875,62.998 737.5313,63.4043 Q737.0313,63.9824 736.2344,64.3105 Q735.1563,64.7637 733.8594,64.7637 Q732.3438,64.7637 731.1406,64.1387 Q730.1563,63.6387 729.4688,62.5762 Q728.7813,61.498 728.7813,60.2168 L728.7813,59.0605 Q728.7813,57.7324 729.3906,56.5918 Q730.0156,55.4355 731.1094,54.8262 Q732.2031,54.2012 733.4375,54.2012 Q734.1719,54.2012 734.8125,54.373 Q735.4688,54.5293 736.0156,54.8887 Z " fill="#000000"/><text fill="#000000" font-family="sans-serif" font-size="14" lengthAdjust="spacing" textLength="115" x="753.75" y="64.8105">ListTaskController</text><line style="stroke:#181818;stroke-width:0.5;" x1="627.5" x2="962.5" y1="75.0137" y2="75.0137"/><line style="stroke:#181818;stroke-width:0.5;" x1="627.5" x2="962.5" y1="83.0137" y2="83.0137"/><text fill="#000000" font-family="sans-serif" font-size="14" lengthAdjust="spacing" textLength="58" x="632.5" y="102.1211">+create()</text><text fill="#000000" font-family="sans-serif" font-size="14" lengthAdjust="spacing" textLength="232" x="632.5" y="120.7422">+getCollaboratorThoughEmail(email)</text><text fill="#000000" font-family="sans-serif" font-size="14" lengthAdjust="spacing" textLength="100" x="632.5" y="139.3633">+getStatusList()</text><text fill="#000000" font-family="sans-serif" font-size="14" lengthAdjust="spacing" textLength="325" x="632.5" y="157.9844">+getTaskList(collaborator, dateI, dateF, typeStatus)</text></g><!--class RepositorySingleton--><g id="elem_RepositorySingleton"><rect codeLine="21" fill="#F1F1F1" height="122.4844" id="RepositorySingleton" rx="2.5" ry="2.5" style="stroke:#181818;stroke-width:0.5;" width="350" x="326" y="314.0137"/><ellipse cx="457.25" cy="330.0137" fill="#ADD1B2" rx="11" ry="11" style="stroke:#181818;stroke-width:1.0;"/><path d="M460.0156,325.8887 Q460.1719,325.6699 460.3594,325.5605 Q460.5469,325.4512 460.7656,325.4512 Q461.1406,325.4512 461.375,325.7168 Q461.6094,325.9668 461.6094,326.5762 L461.6094,328.0293 Q461.6094,328.6387 461.375,328.9043 Q461.1406,329.1699 460.7656,329.1699 Q460.4219,329.1699 460.2188,328.9668 Q460.0156,328.7793 459.9063,328.2637 Q459.8594,327.9043 459.6719,327.7168 Q459.3438,327.3418 458.7344,327.123 Q458.125,326.9043 457.5,326.9043 Q456.7344,326.9043 456.0938,327.2324 Q455.4688,327.5605 454.9688,328.3105 Q454.4844,329.0605 454.4844,330.0918 L454.4844,331.1855 Q454.4844,332.4199 455.375,333.248 Q456.2656,334.0605 457.8594,334.0605 Q458.7969,334.0605 459.4531,333.8105 Q459.8438,333.6543 460.2656,333.2168 Q460.5313,332.9512 460.6719,332.873 Q460.8281,332.7949 461.0313,332.7949 Q461.3594,332.7949 461.6094,333.0605 Q461.875,333.3105 461.875,333.6543 Q461.875,333.998 461.5313,334.4043 Q461.0313,334.9824 460.2344,335.3105 Q459.1563,335.7637 457.8594,335.7637 Q456.3438,335.7637 455.1406,335.1387 Q454.1563,334.6387 453.4688,333.5762 Q452.7813,332.498 452.7813,331.2168 L452.7813,330.0605 Q452.7813,328.7324 453.3906,327.5918 Q454.0156,326.4355 455.1094,325.8262 Q456.2031,325.2012 457.4375,325.2012 Q458.1719,325.2012 458.8125,325.373 Q459.4688,325.5293 460.0156,325.8887 Z " fill="#000000"/><text fill="#000000" font-family="sans-serif" font-size="14" lengthAdjust="spacing" textLength="79" x="477.75" y="335.8105">Repositories</text><line style="stroke:#181818;stroke-width:0.5;" x1="327" x2="675" y1="346.0137" y2="346.0137"/><line style="stroke:#181818;stroke-width:0.5;" x1="327" x2="675" y1="354.0137" y2="354.0137"/><text fill="#000000" font-family="sans-serif" font-size="14" lengthAdjust="spacing" textLength="94" x="332" y="373.1211">-Repositories()</text><text fill="#000000" font-family="sans-serif" font-size="14" lengthAdjust="spacing" textLength="178" x="332" y="391.7422">+getInstance(): Repositories</text><text fill="#000000" font-family="sans-serif" font-size="14" lengthAdjust="spacing" textLength="338" x="332" y="410.3633">+getCollaboratorRepository(): CollaboratorRepository</text><text fill="#000000" font-family="sans-serif" font-size="14" lengthAdjust="spacing" textLength="244" x="332" y="428.9844">+getTaskRepository(): TaskRepository</text></g><!--class collaboratorRepository--><g id="elem_collaboratorRepository"><rect codeLine="28" fill="#F1F1F1" height="66.6211" id="collaboratorRepository" rx="2.5" ry="2.5" style="stroke:#181818;stroke-width:0.5;" width="244" x="326" y="584.5137"/><ellipse cx="370.75" cy="600.5137" fill="#ADD1B2" rx="11" ry="11" style="stroke:#181818;stroke-width:1.0;"/><path d="M373.5156,596.3887 Q373.6719,596.1699 373.8594,596.0605 Q374.0469,595.9512 374.2656,595.9512 Q374.6406,595.9512 374.875,596.2168 Q375.1094,596.4668 375.1094,597.0762 L375.1094,598.5293 Q375.1094,599.1387 374.875,599.4043 Q374.6406,599.6699 374.2656,599.6699 Q373.9219,599.6699 373.7188,599.4668 Q373.5156,599.2793 373.4063,598.7637 Q373.3594,598.4043 373.1719,598.2168 Q372.8438,597.8418 372.2344,597.623 Q371.625,597.4043 371,597.4043 Q370.2344,597.4043 369.5938,597.7324 Q368.9688,598.0605 368.4688,598.8105 Q367.9844,599.5605 367.9844,600.5918 L367.9844,601.6855 Q367.9844,602.9199 368.875,603.748 Q369.7656,604.5605 371.3594,604.5605 Q372.2969,604.5605 372.9531,604.3105 Q373.3438,604.1543 373.7656,603.7168 Q374.0313,603.4512 374.1719,603.373 Q374.3281,603.2949 374.5313,603.2949 Q374.8594,603.2949 375.1094,603.5605 Q375.375,603.8105 375.375,604.1543 Q375.375,604.498 375.0313,604.9043 Q374.5313,605.4824 373.7344,605.8105 Q372.6563,606.2637 371.3594,606.2637 Q369.8438,606.2637 368.6406,605.6387 Q367.6563,605.1387 366.9688,604.0762 Q366.2813,602.998 366.2813,601.7168 L366.2813,600.5605 Q366.2813,599.2324 366.8906,598.0918 Q367.5156,596.9355 368.6094,596.3262 Q369.7031,595.7012 370.9375,595.7012 Q371.6719,595.7012 372.3125,595.873 Q372.9688,596.0293 373.5156,596.3887 Z " fill="#000000"/><text fill="#000000" font-family="sans-serif" font-size="14" lengthAdjust="spacing" textLength="146" x="391.25" y="606.3105">CollaboratorRepository</text><line style="stroke:#181818;stroke-width:0.5;" x1="327" x2="569" y1="616.5137" y2="616.5137"/><line style="stroke:#181818;stroke-width:0.5;" x1="327" x2="569" y1="624.5137" y2="624.5137"/><text fill="#000000" font-family="sans-serif" font-size="14" lengthAdjust="spacing" textLength="232" x="332" y="643.6211">+getCollaboratorThoughEmail(email)</text></g><!--class taskRepository--><g id="elem_taskRepository"><rect codeLine="32" fill="#F1F1F1" height="141.1055" id="taskRepository" rx="2.5" ry="2.5" style="stroke:#181818;stroke-width:0.5;" width="322" x="605" y="547.5137"/><ellipse cx="712.25" cy="563.5137" fill="#ADD1B2" rx="11" ry="11" style="stroke:#181818;stroke-width:1.0;"/><path d="M715.0156,559.3887 Q715.1719,559.1699 715.3594,559.0605 Q715.5469,558.9512 715.7656,558.9512 Q716.1406,558.9512 716.375,559.2168 Q716.6094,559.4668 716.6094,560.0762 L716.6094,561.5293 Q716.6094,562.1387 716.375,562.4043 Q716.1406,562.6699 715.7656,562.6699 Q715.4219,562.6699 715.2188,562.4668 Q715.0156,562.2793 714.9063,561.7637 Q714.8594,561.4043 714.6719,561.2168 Q714.3438,560.8418 713.7344,560.623 Q713.125,560.4043 712.5,560.4043 Q711.7344,560.4043 711.0938,560.7324 Q710.4688,561.0605 709.9688,561.8105 Q709.4844,562.5605 709.4844,563.5918 L709.4844,564.6855 Q709.4844,565.9199 710.375,566.748 Q711.2656,567.5605 712.8594,567.5605 Q713.7969,567.5605 714.4531,567.3105 Q714.8438,567.1543 715.2656,566.7168 Q715.5313,566.4512 715.6719,566.373 Q715.8281,566.2949 716.0313,566.2949 Q716.3594,566.2949 716.6094,566.5605 Q716.875,566.8105 716.875,567.1543 Q716.875,567.498 716.5313,567.9043 Q716.0313,568.4824 715.2344,568.8105 Q714.1563,569.2637 712.8594,569.2637 Q711.3438,569.2637 710.1406,568.6387 Q709.1563,568.1387 708.4688,567.0762 Q707.7813,565.998 707.7813,564.7168 L707.7813,563.5605 Q707.7813,562.2324 708.3906,561.0918 Q709.0156,559.9355 710.1094,559.3262 Q711.2031,558.7012 712.4375,558.7012 Q713.1719,558.7012 713.8125,558.873 Q714.4688,559.0293 715.0156,559.3887 Z " fill="#000000"/><text fill="#000000" font-family="sans-serif" font-size="14" lengthAdjust="spacing" textLength="99" x="732.75" y="569.3105">TaskRepository</text><line style="stroke:#181818;stroke-width:0.5;" x1="606" x2="926" y1="579.5137" y2="579.5137"/><text fill="#000000" font-family="sans-serif" font-size="14" lengthAdjust="spacing" textLength="126" x="611" y="598.6211">-List&lt;Task&gt; taskList</text><text fill="#000000" font-family="sans-serif" font-size="14" lengthAdjust="spacing" textLength="144" x="611" y="617.2422">-List&lt;String&gt; statusList</text><line style="stroke:#181818;stroke-width:0.5;" x1="606" x2="926" y1="624.7559" y2="624.7559"/><text fill="#000000" font-family="sans-serif" font-size="14" lengthAdjust="spacing" textLength="100" x="611" y="643.8633">+getStatusList()</text><text fill="#000000" font-family="sans-serif" font-size="14" lengthAdjust="spacing" textLength="310" x="611" y="662.4844">+getTaskList(idNumber, dateI, dateF, typeStatus)</text><text fill="#000000" font-family="sans-serif" font-size="14" lengthAdjust="spacing" textLength="192" x="611" y="681.1055">+addTaskOfCollaborator(task)</text></g><!--class MapperDto--><g id="elem_MapperDto"><rect codeLine="41" fill="#F1F1F1" height="103.8633" id="MapperDto" rx="2.5" ry="2.5" style="stroke:#181818;stroke-width:0.5;" width="138" x="111" y="323.0137"/><ellipse cx="138.15" cy="339.0137" fill="#ADD1B2" rx="11" ry="11" style="stroke:#181818;stroke-width:1.0;"/><path d="M140.9156,334.8887 Q141.0719,334.6699 141.2594,334.5605 Q141.4469,334.4512 141.6656,334.4512 Q142.0406,334.4512 142.275,334.7168 Q142.5094,334.9668 142.5094,335.5762 L142.5094,337.0293 Q142.5094,337.6387 142.275,337.9043 Q142.0406,338.1699 141.6656,338.1699 Q141.3219,338.1699 141.1188,337.9668 Q140.9156,337.7793 140.8063,337.2637 Q140.7594,336.9043 140.5719,336.7168 Q140.2438,336.3418 139.6344,336.123 Q139.025,335.9043 138.4,335.9043 Q137.6344,335.9043 136.9938,336.2324 Q136.3688,336.5605 135.8688,337.3105 Q135.3844,338.0605 135.3844,339.0918 L135.3844,340.1855 Q135.3844,341.4199 136.275,342.248 Q137.1656,343.0605 138.7594,343.0605 Q139.6969,343.0605 140.3531,342.8105 Q140.7438,342.6543 141.1656,342.2168 Q141.4313,341.9512 141.5719,341.873 Q141.7281,341.7949 141.9313,341.7949 Q142.2594,341.7949 142.5094,342.0605 Q142.775,342.3105 142.775,342.6543 Q142.775,342.998 142.4313,343.4043 Q141.9313,343.9824 141.1344,344.3105 Q140.0563,344.7637 138.7594,344.7637 Q137.2438,344.7637 136.0406,344.1387 Q135.0563,343.6387 134.3688,342.5762 Q133.6813,341.498 133.6813,340.2168 L133.6813,339.0605 Q133.6813,337.7324 134.2906,336.5918 Q134.9156,335.4355 136.0094,334.8262 Q137.1031,334.2012 138.3375,334.2012 Q139.0719,334.2012 139.7125,334.373 Q140.3688,334.5293 140.9156,334.8887 Z " fill="#000000"/><text fill="#000000" font-family="sans-serif" font-size="14" lengthAdjust="spacing" textLength="79" x="154.85" y="344.8105">TaskMapper</text><line style="stroke:#181818;stroke-width:0.5;" x1="112" x2="248" y1="355.0137" y2="355.0137"/><text fill="#000000" font-family="sans-serif" font-size="14" lengthAdjust="spacing" textLength="126" x="117" y="374.1211">-List&lt;Task&gt; taskList</text><line style="stroke:#181818;stroke-width:0.5;" x1="112" x2="248" y1="381.6348" y2="381.6348"/><text fill="#000000" font-family="sans-serif" font-size="14" lengthAdjust="spacing" textLength="100" x="117" y="400.7422">+toDto(taskList)</text><text fill="#000000" font-family="sans-serif" font-size="14" lengthAdjust="spacing" textLength="99" x="117" y="419.3633">+addTask(task)</text></g><!--class DataTransferObject--><g id="elem_DataTransferObject"><rect codeLine="47" fill="#F1F1F1" height="159.7266" id="DataTransferObject" rx="2.5" ry="2.5" style="stroke:#181818;stroke-width:0.5;" width="176" x="70" y="538.0137"/><ellipse cx="127.25" cy="554.0137" fill="#ADD1B2" rx="11" ry="11" style="stroke:#181818;stroke-width:1.0;"/><path d="M130.0156,549.8887 Q130.1719,549.6699 130.3594,549.5605 Q130.5469,549.4512 130.7656,549.4512 Q131.1406,549.4512 131.375,549.7168 Q131.6094,549.9668 131.6094,550.5762 L131.6094,552.0293 Q131.6094,552.6387 131.375,552.9043 Q131.1406,553.1699 130.7656,553.1699 Q130.4219,553.1699 130.2188,552.9668 Q130.0156,552.7793 129.9063,552.2637 Q129.8594,551.9043 129.6719,551.7168 Q129.3438,551.3418 128.7344,551.123 Q128.125,550.9043 127.5,550.9043 Q126.7344,550.9043 126.0938,551.2324 Q125.4688,551.5605 124.9688,552.3105 Q124.4844,553.0605 124.4844,554.0918 L124.4844,555.1855 Q124.4844,556.4199 125.375,557.248 Q126.2656,558.0605 127.8594,558.0605 Q128.7969,558.0605 129.4531,557.8105 Q129.8438,557.6543 130.2656,557.2168 Q130.5313,556.9512 130.6719,556.873 Q130.8281,556.7949 131.0313,556.7949 Q131.3594,556.7949 131.6094,557.0605 Q131.875,557.3105 131.875,557.6543 Q131.875,557.998 131.5313,558.4043 Q131.0313,558.9824 130.2344,559.3105 Q129.1563,559.7637 127.8594,559.7637 Q126.3438,559.7637 125.1406,559.1387 Q124.1563,558.6387 123.4688,557.5762 Q122.7813,556.498 122.7813,555.2168 L122.7813,554.0605 Q122.7813,552.7324 123.3906,551.5918 Q124.0156,550.4355 125.1094,549.8262 Q126.2031,549.2012 127.4375,549.2012 Q128.1719,549.2012 128.8125,549.373 Q129.4688,549.5293 130.0156,549.8887 Z " fill="#000000"/><text fill="#000000" font-family="sans-serif" font-size="14" lengthAdjust="spacing" textLength="53" x="147.75" y="559.8105">TaskDto</text><line style="stroke:#181818;stroke-width:0.5;" x1="71" x2="245" y1="570.0137" y2="570.0137"/><text fill="#000000" font-family="sans-serif" font-size="14" lengthAdjust="spacing" textLength="76" x="76" y="589.1211">-Team team</text><text fill="#000000" font-family="sans-serif" font-size="14" lengthAdjust="spacing" textLength="164" x="76" y="607.7422">-List&lt;vehicleList&gt; vehicles</text><text fill="#000000" font-family="sans-serif" font-size="14" lengthAdjust="spacing" textLength="70" x="76" y="626.3633">-Date dateI</text><text fill="#000000" font-family="sans-serif" font-size="14" lengthAdjust="spacing" textLength="76" x="76" y="644.9844">-Date dateF</text><text fill="#000000" font-family="sans-serif" font-size="14" lengthAdjust="spacing" textLength="84" x="76" y="663.6055">-String status</text><line style="stroke:#181818;stroke-width:0.5;" x1="71" x2="245" y1="671.1191" y2="671.1191"/><text fill="#000000" font-family="sans-serif" font-size="14" lengthAdjust="spacing" textLength="89" x="76" y="690.2266">TaskDto(task)</text></g><!--link UserInterface to CTRL--><g id="link_UserInterface_CTRL"><path codeLine="59" d="M569.6,104.0137 C586.07,104.0137 599,104.0137 599,104.0137 C599,104.0137 604.84,104.0137 620.3,104.0137 " fill="none" id="UserInterface-to-CTRL" style="stroke:#181818;stroke-width:1.0;stroke-dasharray:7.0,7.0;"/><polygon fill="#181818" points="626.3,104.0137,617.3,100.0137,621.3,104.0137,617.3,108.0137,626.3,104.0137" style="stroke:#181818;stroke-width:1.0;"/></g><!--link CTRL to RepositorySingleton--><g id="link_CTRL_RepositorySingleton"><path codeLine="60" d="M729.39,165.0437 C680.9,209.4137 619.5965,265.5032 571.0965,309.8832 " fill="none" id="CTRL-to-RepositorySingleton" style="stroke:#181818;stroke-width:1.0;stroke-dasharray:7.0,7.0;"/><polygon fill="#181818" points="566.67,313.9337,576.01,310.809,570.3587,310.5583,570.6094,304.907,566.67,313.9337" style="stroke:#181818;stroke-width:1.0;"/><text fill="#000000" font-family="sans-serif" font-size="13" lengthAdjust="spacing" textLength="67" x="692" y="212.042">repositories</text></g><!--link RepositorySingleton to RepositorySingleton--><g id="link_RepositorySingleton_RepositorySingleton"><path codeLine="61" d="M676.39,358.9037 C697.33,361.8337 711,367.2037 711,375.0137 C711,382.8237 703.2721,387.3622 682.3321,390.2922 " fill="none" id="RepositorySingleton-to-RepositorySingleton" style="stroke:#181818;stroke-width:1.0;"/><polygon fill="#181818" points="676.39,391.1237,685.8575,393.8379,681.3418,390.4308,684.7489,385.9151,676.39,391.1237" style="stroke:#181818;stroke-width:1.0;"/><text fill="#000000" font-family="sans-serif" font-size="13" lengthAdjust="spacing" textLength="49" x="717" y="380.542">instance</text></g><!--link CTRL to taskRepository--><g id="link_CTRL_taskRepository"><path codeLine="62" d="M820.47,165.0937 C827.87,182.5537 834,197.0137 834,197.0137 C834,197.0137 834,485.0137 834,485.0137 C834,485.0137 821.0478,510.1498 804.7378,541.8098 " fill="none" id="CTRL-to-taskRepository" style="stroke:#181818;stroke-width:1.0;stroke-dasharray:7.0,7.0;"/><polygon fill="#181818" points="801.99,547.1437,809.6676,540.9748,804.2798,542.6988,802.5558,537.3111,801.99,547.1437" style="stroke:#181818;stroke-width:1.0;"/><text fill="#000000" font-family="sans-serif" font-size="13" lengthAdjust="spacing" textLength="87" x="835" y="380.542">taskRepository</text></g><!--link RepositorySingleton to taskRepository--><g id="link_RepositorySingleton_taskRepository"><path codeLine="63" d="M579.71,436.0437 C601.35,452.5537 619,466.0137 619,466.0137 C619,466.0137 655.3953,503.3938 693.9053,542.9638 " fill="none" id="RepositorySingleton-to-taskRepository" style="stroke:#181818;stroke-width:1.0;"/><polygon fill="#181818" points="698.09,547.2637,694.6796,538.0241,694.6028,543.6805,688.9465,543.6037,698.09,547.2637" style="stroke:#181818;stroke-width:1.0;"/><text fill="#000000" font-family="sans-serif" font-size="13" lengthAdjust="spacing" textLength="7" x="581.8762" y="458.5342">1</text><text fill="#000000" font-family="sans-serif" font-size="13" lengthAdjust="spacing" textLength="7" x="683.7258" y="536.1289">1</text></g><!--link RepositorySingleton to collaboratorRepository--><g id="link_RepositorySingleton_collaboratorRepository"><path codeLine="64" d="M487.76,436.2037 C477.46,483.0537 464.85,540.424 456.5,578.354 " fill="none" id="RepositorySingleton-to-collaboratorRepository" style="stroke:#181818;stroke-width:1.0;stroke-dasharray:7.0,7.0;"/><polygon fill="#181818" points="455.21,584.2137,461.0514,576.2841,456.285,579.3306,453.2385,574.5642,455.21,584.2137" style="stroke:#181818;stroke-width:1.0;"/><text fill="#000000" font-family="sans-serif" font-size="13" lengthAdjust="spacing" textLength="129" x="481" y="481.042">collaboratorRepository</text><text fill="#000000" font-family="sans-serif" font-size="13" lengthAdjust="spacing" textLength="7" x="478.7198" y="458.7137">1</text><text fill="#000000" font-family="sans-serif" font-size="13" lengthAdjust="spacing" textLength="7" x="448.9172" y="573.2424">1</text></g><!--link CTRL to collaboratorRepository--><g id="link_CTRL_collaboratorRepository"><path codeLine="65" d="M790.99,165.3437 C784.64,260.8137 773,436.0137 773,436.0137 C773,436.0137 619,485.0137 619,485.0137 C619,485.0137 588,493.0137 588,493.0137 C588,493.0137 530.7515,543.7154 489.2715,580.4554 " fill="none" id="CTRL-to-collaboratorRepository" style="stroke:#181818;stroke-width:1.0;"/><polygon fill="#181818" points="484.78,584.4337,494.1694,581.4606,488.5229,581.1185,488.8651,575.472,484.78,584.4337" style="stroke:#181818;stroke-width:1.0;"/><text fill="#000000" font-family="sans-serif" font-size="13" lengthAdjust="spacing" textLength="7" x="783.1217" y="187.4349">1</text><text fill="#000000" font-family="sans-serif" font-size="13" lengthAdjust="spacing" textLength="7" x="484.332" y="573.2434">1</text></g><!--link CTRL to MapperDto--><g id="link_CTRL_MapperDto"><path codeLine="66" d="M645.61,165.0537 C611.98,178.5737 586,189.0137 586,189.0137 C586,189.0137 310,224.0137 310,224.0137 C310,224.0137 265.9693,274.8193 228.3093,318.2793 " fill="none" id="CTRL-to-MapperDto" style="stroke:#181818;stroke-width:1.0;"/><polygon fill="#181818" points="224.38,322.8137,233.2968,318.6316,227.6544,319.035,227.251,313.3925,224.38,322.8137" style="stroke:#181818;stroke-width:1.0;"/><text fill="#000000" font-family="sans-serif" font-size="13" lengthAdjust="spacing" textLength="46" x="520" y="212.042">taskList</text><text fill="#000000" font-family="sans-serif" font-size="13" lengthAdjust="spacing" textLength="7" x="619.9765" y="187.5454">1</text><text fill="#000000" font-family="sans-serif" font-size="13" lengthAdjust="spacing" textLength="7" x="222.8732" y="311.7142">1</text></g><!--link MapperDto to DataTransferObject--><g id="link_MapperDto_DataTransferObject"><path codeLine="67" d="M175.33,427.1237 C172.4,459.3137 169.0859,495.5586 165.7559,532.0086 " fill="none" id="MapperDto-to-DataTransferObject" style="stroke:#181818;stroke-width:1.0;"/><polygon fill="#181818" points="165.21,537.9837,170.0122,529.3849,165.6649,533.0044,162.0454,528.6571,165.21,537.9837" style="stroke:#181818;stroke-width:1.0;"/><text fill="#000000" font-family="sans-serif" font-size="13" lengthAdjust="spacing" textLength="25" x="172" y="481.042">task</text><text fill="#000000" font-family="sans-serif" font-size="13" lengthAdjust="spacing" textLength="7" x="167.2832" y="448.9451">1</text><text fill="#000000" font-family="sans-serif" font-size="13" lengthAdjust="spacing" textLength="7" x="158.552" y="526.8767">1</text></g><!--SRC=[ZLHjRzem4FwUNt7Y4rKBshwY2Mc2LOhK3Qa9Fy0a5_0mTcGVczYq_xwpaoOEJKj1Id9tpxqyTsUxezIriE84jIYEOeyPNHH2PLI9Dd6TrHr4QNvBlOTAA8UHHKcDTAaHQgCkNeXiXHBEVIMoSdScJ0kZC_a7uLEI96qwsARmDmauc3n9HxbmnuoDk4qd81ni7TfK4zgATKdohtDS6KtMA8NsTO3U5cAiykSd1W7_xg6mA0YdTwsuHrenKkoC5MHiVZ3d_U7RIKWrHV-CS1a9EZkV8_Rs-OAkYC8yGCb9qkRr-02-GOtx7LFeIQmDvz1Ssr0nVyRQECc1BZsvJYVH1LezAEF1A2IZMvOpYC5njQbs97J1_1S3p7Wt-WmUFsuPTcBeCTGmxnSkuw42gsBKr8tlzhpwBCFq8JeDL5sx_02_UFWo8BmOMpBUOBrVWkisuCDR8SiVvzCEtzs8nakKfVVQL36_gIzdR6VctqLTnxllVHjT8DfyhidSv7WFP1WtVL5UrTDLC9f_liutmneuL2XWBKZaLcXNeTtiVc91NIKvyjr0_8Wh-uK7MIZqtqje1TS2E1Os_RjMFBQAPaBjW8AkhILgeFydW_i4vijmEIJXXfYpD7Qc5c3Zap86cRtbATlprcPONYtWuaeU3JxvF84PP_3l3y8z5VyUFqoBD_HDaN6wcxW6rYtReb-jVW7ZWA-ted7v3m00]--></g></svg>