<?xml version="1.0" encoding="us-ascii" standalone="no"?><svg xmlns="http://www.w3.org/2000/svg" xmlns:xlink="http://www.w3.org/1999/xlink" contentStyleType="text/css" height="938px" preserveAspectRatio="none" style="width:1171px;height:937px;background:#FFFFFF;" version="1.1" viewBox="0 0 1171 937" width="1171.8px" zoomAndPan="magnify"><defs/><g><!--cluster UI--><g id="cluster_UI"><path d="M771.75,4.2096 L782.25,4.2096 A2.625,2.625 0 0 1 784,5.9596 L788.9,21.4443 L887.25,21.4443 A1.75,1.75 0 0 1 889,23.1943 L889,73.1596 A1.75,1.75 0 0 1 887.25,74.9096 L771.75,74.9096 A1.75,1.75 0 0 1 770,73.1596 L770,5.9596 A1.75,1.75 0 0 1 771.75,4.2096 " fill="none" style="stroke:#000000;stroke-width:1.0499999999999998;"/><line style="stroke:#000000;stroke-width:1.0499999999999998;" x1="770" x2="788.9" y1="21.4443" y2="21.4443"/><text fill="#000000" font-family="sans-serif" font-size="9.8" font-weight="bold" lengthAdjust="spacing" textLength="9.8" x="772.8" y="16.1848">UI</text></g><!--cluster Controller--><g id="cluster_Controller"><path d="M656.95,98.0096 L707.35,98.0096 A2.625,2.625 0 0 1 709.1,99.7596 L714,115.2443 L1002.05,115.2443 A1.75,1.75 0 0 1 1003.8,116.9943 L1003.8,232.0596 A1.75,1.75 0 0 1 1002.05,233.8096 L656.95,233.8096 A1.75,1.75 0 0 1 655.2,232.0596 L655.2,99.7596 A1.75,1.75 0 0 1 656.95,98.0096 " fill="none" style="stroke:#000000;stroke-width:1.0499999999999998;"/><line style="stroke:#000000;stroke-width:1.0499999999999998;" x1="655.2" x2="714" y1="115.2443" y2="115.2443"/><text fill="#000000" font-family="sans-serif" font-size="9.8" font-weight="bold" lengthAdjust="spacing" textLength="49.7" x="658" y="109.9848">Controller</text></g><!--cluster Domain--><g id="cluster_Domain"><path d="M5.95,325.5096 L43.05,325.5096 A2.625,2.625 0 0 1 44.8,327.2596 L49.7,342.7443 L1086.75,342.7443 A1.75,1.75 0 0 1 1088.5,344.4943 L1088.5,931.3596 A1.75,1.75 0 0 1 1086.75,933.1096 L5.95,933.1096 A1.75,1.75 0 0 1 4.2,931.3596 L4.2,327.2596 A1.75,1.75 0 0 1 5.95,325.5096 " fill="none" style="stroke:#000000;stroke-width:1.0499999999999998;"/><line style="stroke:#000000;stroke-width:1.0499999999999998;" x1="4.2" x2="49.7" y1="342.7443" y2="342.7443"/><text fill="#000000" font-family="sans-serif" font-size="9.8" font-weight="bold" lengthAdjust="spacing" textLength="36.4" x="7" y="337.4848">Domain</text></g><!--cluster Model--><g id="cluster_Model"><path d="M412.65,793.8096 L444.15,793.8096 A2.625,2.625 0 0 1 445.9,795.5596 L450.8,811.0443 L696.15,811.0443 A1.75,1.75 0 0 1 697.9,812.7943 L697.9,914.5596 A1.75,1.75 0 0 1 696.15,916.3096 L412.65,916.3096 A1.75,1.75 0 0 1 410.9,914.5596 L410.9,795.5596 A1.75,1.75 0 0 1 412.65,793.8096 " fill="none" style="stroke:#000000;stroke-width:1.0499999999999998;"/><line style="stroke:#000000;stroke-width:1.0499999999999998;" x1="410.9" x2="450.8" y1="811.0443" y2="811.0443"/><text fill="#000000" font-family="sans-serif" font-size="9.8" font-weight="bold" lengthAdjust="spacing" textLength="30.8" x="413.7" y="805.7848">Model</text></g><!--cluster Repository--><g id="cluster_Repository"><path d="M22.75,357.0096 L76.65,357.0096 A2.625,2.625 0 0 1 78.4,358.7596 L83.3,374.2443 L851.55,374.2443 A1.75,1.75 0 0 1 853.3,375.9943 L853.3,700.3596 A1.75,1.75 0 0 1 851.55,702.1096 L22.75,702.1096 A1.75,1.75 0 0 1 21,700.3596 L21,358.7596 A1.75,1.75 0 0 1 22.75,357.0096 " fill="none" style="stroke:#000000;stroke-width:1.0499999999999998;"/><line style="stroke:#000000;stroke-width:1.0499999999999998;" x1="21" x2="83.3" y1="374.2443" y2="374.2443"/><text fill="#000000" font-family="sans-serif" font-size="9.8" font-weight="bold" lengthAdjust="spacing" textLength="53.2" x="23.8" y="368.9848">Repository</text></g><!--cluster Mapper--><g id="cluster_Mapper"><path d="M871.85,383.2596 L910.35,383.2596 A2.625,2.625 0 0 1 912.1,385.0096 L917,400.4943 L1069.95,400.4943 A1.75,1.75 0 0 1 1071.7,402.2443 L1071.7,756.3596 A1.75,1.75 0 0 1 1069.95,758.1096 L871.85,758.1096 A1.75,1.75 0 0 1 870.1,756.3596 L870.1,385.0096 A1.75,1.75 0 0 1 871.85,383.2596 " fill="none" style="stroke:#000000;stroke-width:1.0499999999999998;"/><line style="stroke:#000000;stroke-width:1.0499999999999998;" x1="870.1" x2="917" y1="400.4943" y2="400.4943"/><text fill="#000000" font-family="sans-serif" font-size="9.8" font-weight="bold" lengthAdjust="spacing" textLength="37.8" x="872.9" y="395.2348">Mapper</text></g><!--cluster DTO--><g id="cluster_DTO"><path d="M898.45,540.4096 L919.45,540.4096 A2.625,2.625 0 0 1 921.2,542.1596 L926.1,557.6443 L1043.35,557.6443 A1.75,1.75 0 0 1 1045.1,559.3943 L1045.1,739.5596 A1.75,1.75 0 0 1 1043.35,741.3096 L898.45,741.3096 A1.75,1.75 0 0 1 896.7,739.5596 L896.7,542.1596 A1.75,1.75 0 0 1 898.45,540.4096 " fill="none" style="stroke:#000000;stroke-width:1.0499999999999998;"/><line style="stroke:#000000;stroke-width:1.0499999999999998;" x1="896.7" x2="926.1" y1="557.6443" y2="557.6443"/><text fill="#000000" font-family="sans-serif" font-size="9.8" font-weight="bold" lengthAdjust="spacing" textLength="20.3" x="899.5" y="552.3848">DTO</text></g><!--class UserInterface--><g id="elem_UserInterface"><rect codeLine="7" fill="#F1F1F1" height="33.6" id="UserInterface" rx="1.75" ry="1.75" style="stroke:#181818;stroke-width:0.3499999999999999;" width="95.9" x="781.55" y="30.1096"/><ellipse cx="792.05" cy="41.3096" fill="#ADD1B2" rx="7.7" ry="7.7" style="stroke:#181818;stroke-width:0.6999999999999998;"/><path d="M793.9859,38.4221 Q794.0953,38.2689 794.2266,38.1924 Q794.3578,38.1158 794.5109,38.1158 Q794.7734,38.1158 794.9375,38.3018 Q795.1016,38.4768 795.1016,38.9033 L795.1016,39.9205 Q795.1016,40.3471 794.9375,40.533 Q794.7734,40.7189 794.5109,40.7189 Q794.2703,40.7189 794.1281,40.5768 Q793.9859,40.4455 793.9094,40.0846 Q793.8766,39.833 793.7453,39.7018 Q793.5156,39.4393 793.0891,39.2861 Q792.6625,39.133 792.225,39.133 Q791.6891,39.133 791.2406,39.3627 Q790.8031,39.5924 790.4531,40.1174 Q790.1141,40.6424 790.1141,41.3643 L790.1141,42.1299 Q790.1141,42.9939 790.7375,43.5736 Q791.3609,44.1424 792.4766,44.1424 Q793.1328,44.1424 793.5922,43.9674 Q793.8656,43.858 794.1609,43.5518 Q794.3469,43.3658 794.4453,43.3111 Q794.5547,43.2564 794.6969,43.2564 Q794.9266,43.2564 795.1016,43.4424 Q795.2875,43.6174 795.2875,43.858 Q795.2875,44.0986 795.0469,44.383 Q794.6969,44.7877 794.1391,45.0174 Q793.3844,45.3346 792.4766,45.3346 Q791.4156,45.3346 790.5734,44.8971 Q789.8844,44.5471 789.4031,43.8033 Q788.9219,43.0486 788.9219,42.1518 L788.9219,41.3424 Q788.9219,40.4127 789.3484,39.6143 Q789.7859,38.8049 790.5516,38.3783 Q791.3172,37.9408 792.1812,37.9408 Q792.6953,37.9408 793.1437,38.0611 Q793.6031,38.1705 793.9859,38.4221 Z " fill="#000000"/><text fill="#000000" font-family="sans-serif" font-size="9.8" lengthAdjust="spacing" textLength="73.5" x="801.85" y="45.3674">ListTaskSpaceUI</text><line style="stroke:#181818;stroke-width:0.3499999999999999;" x1="782.25" x2="876.75" y1="52.5096" y2="52.5096"/><line style="stroke:#181818;stroke-width:0.3499999999999999;" x1="782.25" x2="876.75" y1="58.1096" y2="58.1096"/></g><!--class CTRL--><g id="elem_CTRL"><rect codeLine="11" fill="#F1F1F1" height="98.7738" id="CTRL" rx="1.75" ry="1.75" style="stroke:#181818;stroke-width:0.3499999999999999;" width="325.5" x="666.75" y="123.9096"/><ellipse cx="786.275" cy="135.1096" fill="#ADD1B2" rx="7.7" ry="7.7" style="stroke:#181818;stroke-width:0.6999999999999998;"/><path d="M788.2109,132.2221 Q788.3203,132.0689 788.4516,131.9924 Q788.5828,131.9158 788.7359,131.9158 Q788.9984,131.9158 789.1625,132.1018 Q789.3266,132.2768 789.3266,132.7033 L789.3266,133.7205 Q789.3266,134.1471 789.1625,134.333 Q788.9984,134.5189 788.7359,134.5189 Q788.4953,134.5189 788.3531,134.3768 Q788.2109,134.2455 788.1344,133.8846 Q788.1016,133.633 787.9703,133.5018 Q787.7406,133.2393 787.3141,133.0861 Q786.8875,132.933 786.45,132.933 Q785.9141,132.933 785.4656,133.1627 Q785.0281,133.3924 784.6781,133.9174 Q784.3391,134.4424 784.3391,135.1643 L784.3391,135.9299 Q784.3391,136.7939 784.9625,137.3736 Q785.5859,137.9424 786.7016,137.9424 Q787.3578,137.9424 787.8172,137.7674 Q788.0906,137.658 788.3859,137.3518 Q788.5719,137.1658 788.6703,137.1111 Q788.7797,137.0564 788.9219,137.0564 Q789.1516,137.0564 789.3266,137.2424 Q789.5125,137.4174 789.5125,137.658 Q789.5125,137.8986 789.2719,138.183 Q788.9219,138.5877 788.3641,138.8174 Q787.6094,139.1346 786.7016,139.1346 Q785.6406,139.1346 784.7984,138.6971 Q784.1094,138.3471 783.6281,137.6033 Q783.1469,136.8486 783.1469,135.9518 L783.1469,135.1424 Q783.1469,134.2127 783.5734,133.4143 Q784.0109,132.6049 784.7766,132.1783 Q785.5422,131.7408 786.4062,131.7408 Q786.9203,131.7408 787.3687,131.8611 Q787.8281,131.9705 788.2109,132.2221 Z " fill="#000000"/><text fill="#000000" font-family="sans-serif" font-size="9.8" lengthAdjust="spacing" textLength="80.5" x="800.625" y="139.1674">ListTaskController</text><line style="stroke:#181818;stroke-width:0.3499999999999999;" x1="667.45" x2="991.55" y1="146.3096" y2="146.3096"/><line style="stroke:#181818;stroke-width:0.3499999999999999;" x1="667.45" x2="991.55" y1="151.9096" y2="151.9096"/><text fill="#000000" font-family="sans-serif" font-size="9.8" lengthAdjust="spacing" textLength="40.6" x="670.95" y="165.2848">+create()</text><text fill="#000000" font-family="sans-serif" font-size="9.8" lengthAdjust="spacing" textLength="139.3" x="670.95" y="178.3195">+getCollaboratorByEmail(email)</text><text fill="#000000" font-family="sans-serif" font-size="9.8" lengthAdjust="spacing" textLength="70" x="670.95" y="191.3543">+getStatusList()</text><text fill="#000000" font-family="sans-serif" font-size="9.8" lengthAdjust="spacing" textLength="198.1" x="670.95" y="204.3891">+getTeamsThoughCollaborator(collaborator)</text><text fill="#000000" font-family="sans-serif" font-size="9.8" lengthAdjust="spacing" textLength="317.1" x="670.95" y="217.4238">+getCollaboratorAgendaEntries(teamList,startDate,endDate,typeStatus)</text></g><!--class Team--><g id="elem_Team"><rect codeLine="22" fill="#F1F1F1" height="59.6695" id="Team" rx="1.75" ry="1.75" style="stroke:#181818;stroke-width:0.3499999999999999;" width="136.5" x="422.45" y="832.6596"/><ellipse cx="475.125" cy="843.8596" fill="#ADD1B2" rx="7.7" ry="7.7" style="stroke:#181818;stroke-width:0.6999999999999998;"/><path d="M477.0609,840.9721 Q477.1703,840.8189 477.3016,840.7424 Q477.4328,840.6658 477.5859,840.6658 Q477.8484,840.6658 478.0125,840.8518 Q478.1766,841.0268 478.1766,841.4533 L478.1766,842.4705 Q478.1766,842.8971 478.0125,843.083 Q477.8484,843.2689 477.5859,843.2689 Q477.3453,843.2689 477.2031,843.1268 Q477.0609,842.9955 476.9844,842.6346 Q476.9516,842.383 476.8203,842.2518 Q476.5906,841.9893 476.1641,841.8361 Q475.7375,841.683 475.3,841.683 Q474.7641,841.683 474.3156,841.9127 Q473.8781,842.1424 473.5281,842.6674 Q473.1891,843.1924 473.1891,843.9143 L473.1891,844.6799 Q473.1891,845.5439 473.8125,846.1236 Q474.4359,846.6924 475.5516,846.6924 Q476.2078,846.6924 476.6672,846.5174 Q476.9406,846.408 477.2359,846.1018 Q477.4219,845.9158 477.5203,845.8611 Q477.6297,845.8064 477.7719,845.8064 Q478.0016,845.8064 478.1766,845.9924 Q478.3625,846.1674 478.3625,846.408 Q478.3625,846.6486 478.1219,846.933 Q477.7719,847.3377 477.2141,847.5674 Q476.4594,847.8846 475.5516,847.8846 Q474.4906,847.8846 473.6484,847.4471 Q472.9594,847.0971 472.4781,846.3533 Q471.9969,845.5986 471.9969,844.7018 L471.9969,843.8924 Q471.9969,842.9627 472.4234,842.1643 Q472.8609,841.3549 473.6266,840.9283 Q474.3922,840.4908 475.2562,840.4908 Q475.7703,840.4908 476.2187,840.6111 Q476.6781,840.7205 477.0609,840.9721 Z " fill="#000000"/><text fill="#000000" font-family="sans-serif" font-size="9.8" lengthAdjust="spacing" textLength="25.2" x="489.475" y="847.9174">Team</text><line style="stroke:#181818;stroke-width:0.3499999999999999;" x1="423.15" x2="558.25" y1="855.0596" y2="855.0596"/><text fill="#000000" font-family="sans-serif" font-size="9.8" lengthAdjust="spacing" textLength="128.1" x="426.65" y="868.4348">-List&lt;Collaborator&gt; members</text><line style="stroke:#181818;stroke-width:0.3499999999999999;" x1="423.15" x2="558.25" y1="873.6943" y2="873.6943"/><text fill="#000000" font-family="sans-serif" font-size="9.8" lengthAdjust="spacing" textLength="98" x="426.65" y="887.0695">+inTeam(collaborator)</text></g><!--class AgendaEntry--><g id="elem_AgendaEntry"><rect codeLine="27" fill="#F1F1F1" height="85.7391" id="AgendaEntry" rx="1.75" ry="1.75" style="stroke:#181818;stroke-width:0.3499999999999999;" width="102.9" x="583.45" y="819.7096"/><ellipse cx="604.345" cy="830.9096" fill="#ADD1B2" rx="7.7" ry="7.7" style="stroke:#181818;stroke-width:0.6999999999999998;"/><path d="M606.2809,828.0221 Q606.3903,827.8689 606.5216,827.7924 Q606.6528,827.7158 606.8059,827.7158 Q607.0684,827.7158 607.2325,827.9018 Q607.3966,828.0768 607.3966,828.5033 L607.3966,829.5205 Q607.3966,829.9471 607.2325,830.133 Q607.0684,830.3189 606.8059,830.3189 Q606.5653,830.3189 606.4231,830.1768 Q606.2809,830.0455 606.2044,829.6846 Q606.1716,829.433 606.0403,829.3018 Q605.8106,829.0393 605.3841,828.8861 Q604.9575,828.733 604.52,828.733 Q603.9841,828.733 603.5356,828.9627 Q603.0981,829.1924 602.7481,829.7174 Q602.4091,830.2424 602.4091,830.9643 L602.4091,831.7299 Q602.4091,832.5939 603.0325,833.1736 Q603.6559,833.7424 604.7716,833.7424 Q605.4278,833.7424 605.8872,833.5674 Q606.1606,833.458 606.4559,833.1518 Q606.6419,832.9658 606.7403,832.9111 Q606.8497,832.8564 606.9919,832.8564 Q607.2216,832.8564 607.3966,833.0424 Q607.5825,833.2174 607.5825,833.458 Q607.5825,833.6986 607.3419,833.983 Q606.9919,834.3877 606.4341,834.6174 Q605.6794,834.9346 604.7716,834.9346 Q603.7106,834.9346 602.8684,834.4971 Q602.1794,834.1471 601.6981,833.4033 Q601.2169,832.6486 601.2169,831.7518 L601.2169,830.9424 Q601.2169,830.0127 601.6434,829.2143 Q602.0809,828.4049 602.8466,827.9783 Q603.6122,827.5408 604.4762,827.5408 Q604.9903,827.5408 605.4387,827.6611 Q605.8981,827.7705 606.2809,828.0221 Z " fill="#000000"/><text fill="#000000" font-family="sans-serif" font-size="9.8" lengthAdjust="spacing" textLength="57.4" x="616.455" y="834.9674">AgendaEntry</text><line style="stroke:#181818;stroke-width:0.3499999999999999;" x1="584.15" x2="685.65" y1="842.1096" y2="842.1096"/><text fill="#000000" font-family="sans-serif" font-size="9.8" lengthAdjust="spacing" textLength="49" x="587.65" y="855.4848">-Date dateI</text><text fill="#000000" font-family="sans-serif" font-size="9.8" lengthAdjust="spacing" textLength="53.2" x="587.65" y="868.5195">-Date dateF</text><text fill="#000000" font-family="sans-serif" font-size="9.8" lengthAdjust="spacing" textLength="94.5" x="587.65" y="881.5543">-StatusOfEntry status</text><line style="stroke:#181818;stroke-width:0.3499999999999999;" x1="584.15" x2="685.65" y1="886.8139" y2="886.8139"/><text fill="#000000" font-family="sans-serif" font-size="9.8" lengthAdjust="spacing" textLength="70" x="587.65" y="900.1891">+getStatusList()</text></g><!--class RepositorySingleton--><g id="elem_RepositorySingleton"><rect codeLine="36" fill="#F1F1F1" height="111.8086" id="RepositorySingleton" rx="1.75" ry="1.75" style="stroke:#181818;stroke-width:0.3499999999999999;" width="245" x="497" y="382.9096"/><ellipse cx="588.875" cy="394.1096" fill="#ADD1B2" rx="7.7" ry="7.7" style="stroke:#181818;stroke-width:0.6999999999999998;"/><path d="M590.8109,391.2221 Q590.9203,391.0689 591.0516,390.9924 Q591.1828,390.9158 591.3359,390.9158 Q591.5984,390.9158 591.7625,391.1018 Q591.9266,391.2768 591.9266,391.7033 L591.9266,392.7205 Q591.9266,393.1471 591.7625,393.333 Q591.5984,393.5189 591.3359,393.5189 Q591.0953,393.5189 590.9531,393.3768 Q590.8109,393.2455 590.7344,392.8846 Q590.7016,392.633 590.5703,392.5018 Q590.3406,392.2393 589.9141,392.0861 Q589.4875,391.933 589.05,391.933 Q588.5141,391.933 588.0656,392.1627 Q587.6281,392.3924 587.2781,392.9174 Q586.9391,393.4424 586.9391,394.1643 L586.9391,394.9299 Q586.9391,395.7939 587.5625,396.3736 Q588.1859,396.9424 589.3016,396.9424 Q589.9578,396.9424 590.4172,396.7674 Q590.6906,396.658 590.9859,396.3518 Q591.1719,396.1658 591.2703,396.1111 Q591.3797,396.0564 591.5219,396.0564 Q591.7516,396.0564 591.9266,396.2424 Q592.1125,396.4174 592.1125,396.658 Q592.1125,396.8986 591.8719,397.183 Q591.5219,397.5877 590.9641,397.8174 Q590.2094,398.1346 589.3016,398.1346 Q588.2406,398.1346 587.3984,397.6971 Q586.7094,397.3471 586.2281,396.6033 Q585.7469,395.8486 585.7469,394.9518 L585.7469,394.1424 Q585.7469,393.2127 586.1734,392.4143 Q586.6109,391.6049 587.3766,391.1783 Q588.1422,390.7408 589.0062,390.7408 Q589.5203,390.7408 589.9687,390.8611 Q590.4281,390.9705 590.8109,391.2221 Z " fill="#000000"/><text fill="#000000" font-family="sans-serif" font-size="9.8" lengthAdjust="spacing" textLength="55.3" x="603.225" y="398.1674">Repositories</text><line style="stroke:#181818;stroke-width:0.3499999999999999;" x1="497.7" x2="741.3" y1="405.3096" y2="405.3096"/><line style="stroke:#181818;stroke-width:0.3499999999999999;" x1="497.7" x2="741.3" y1="410.9096" y2="410.9096"/><text fill="#000000" font-family="sans-serif" font-size="9.8" lengthAdjust="spacing" textLength="65.8" x="501.2" y="424.2848">-Repositories()</text><text fill="#000000" font-family="sans-serif" font-size="9.8" lengthAdjust="spacing" textLength="124.6" x="501.2" y="437.3195">+getInstance(): Repositories</text><text fill="#000000" font-family="sans-serif" font-size="9.8" lengthAdjust="spacing" textLength="236.6" x="501.2" y="450.3543">+getCollaboratorRepository(): CollaboratorRepository</text><text fill="#000000" font-family="sans-serif" font-size="9.8" lengthAdjust="spacing" textLength="170.8" x="501.2" y="463.3891">+getTaskRepository(): TaskRepository</text><text fill="#000000" font-family="sans-serif" font-size="9.8" lengthAdjust="spacing" textLength="177.8" x="501.2" y="476.4238">+getTeamRepository(): TeamRepository</text><text fill="#000000" font-family="sans-serif" font-size="9.8" lengthAdjust="spacing" textLength="100.8" x="501.2" y="489.4586">+getAgenda(): Agenda</text></g><!--class collaboratorRepository--><g id="elem_collaboratorRepository"><rect codeLine="45" fill="#F1F1F1" height="46.6348" id="collaboratorRepository" rx="1.75" ry="1.75" style="stroke:#181818;stroke-width:0.3499999999999999;" width="170.8" x="32.2" y="624.7596"/><ellipse cx="63.525" cy="635.9596" fill="#ADD1B2" rx="7.7" ry="7.7" style="stroke:#181818;stroke-width:0.6999999999999998;"/><path d="M65.4609,633.0721 Q65.5703,632.9189 65.7016,632.8424 Q65.8328,632.7658 65.9859,632.7658 Q66.2484,632.7658 66.4125,632.9518 Q66.5766,633.1268 66.5766,633.5533 L66.5766,634.5705 Q66.5766,634.9971 66.4125,635.183 Q66.2484,635.3689 65.9859,635.3689 Q65.7453,635.3689 65.6031,635.2268 Q65.4609,635.0955 65.3844,634.7346 Q65.3516,634.483 65.2203,634.3518 Q64.9906,634.0893 64.5641,633.9361 Q64.1375,633.783 63.7,633.783 Q63.1641,633.783 62.7156,634.0127 Q62.2781,634.2424 61.9281,634.7674 Q61.5891,635.2924 61.5891,636.0143 L61.5891,636.7799 Q61.5891,637.6439 62.2125,638.2236 Q62.8359,638.7924 63.9516,638.7924 Q64.6078,638.7924 65.0672,638.6174 Q65.3406,638.508 65.6359,638.2018 Q65.8219,638.0158 65.9203,637.9611 Q66.0297,637.9064 66.1719,637.9064 Q66.4016,637.9064 66.5766,638.0924 Q66.7625,638.2674 66.7625,638.508 Q66.7625,638.7486 66.5219,639.033 Q66.1719,639.4377 65.6141,639.6674 Q64.8594,639.9846 63.9516,639.9846 Q62.8906,639.9846 62.0484,639.5471 Q61.3594,639.1971 60.8781,638.4533 Q60.3969,637.6986 60.3969,636.8018 L60.3969,635.9924 Q60.3969,635.0627 60.8234,634.2643 Q61.2609,633.4549 62.0266,633.0283 Q62.7922,632.5908 63.6562,632.5908 Q64.1703,632.5908 64.6187,632.7111 Q65.0781,632.8205 65.4609,633.0721 Z " fill="#000000"/><text fill="#000000" font-family="sans-serif" font-size="9.8" lengthAdjust="spacing" textLength="102.2" x="77.875" y="640.0174">CollaboratorRepository</text><line style="stroke:#181818;stroke-width:0.3499999999999999;" x1="32.9" x2="202.3" y1="647.1596" y2="647.1596"/><line style="stroke:#181818;stroke-width:0.3499999999999999;" x1="32.9" x2="202.3" y1="652.7596" y2="652.7596"/><text fill="#000000" font-family="sans-serif" font-size="9.8" lengthAdjust="spacing" textLength="162.4" x="36.4" y="666.1348">+getCollaboratorThoughEmail(email)</text></g><!--class teamRepository--><g id="elem_teamRepository"><rect codeLine="51" fill="#F1F1F1" height="46.6348" id="teamRepository" rx="1.75" ry="1.75" style="stroke:#181818;stroke-width:0.3499999999999999;" width="263.9" x="227.85" y="624.7596"/><ellipse cx="320.425" cy="635.9596" fill="#ADD1B2" rx="7.7" ry="7.7" style="stroke:#181818;stroke-width:0.6999999999999998;"/><path d="M322.3609,633.0721 Q322.4703,632.9189 322.6016,632.8424 Q322.7328,632.7658 322.8859,632.7658 Q323.1484,632.7658 323.3125,632.9518 Q323.4766,633.1268 323.4766,633.5533 L323.4766,634.5705 Q323.4766,634.9971 323.3125,635.183 Q323.1484,635.3689 322.8859,635.3689 Q322.6453,635.3689 322.5031,635.2268 Q322.3609,635.0955 322.2844,634.7346 Q322.2516,634.483 322.1203,634.3518 Q321.8906,634.0893 321.4641,633.9361 Q321.0375,633.783 320.6,633.783 Q320.0641,633.783 319.6156,634.0127 Q319.1781,634.2424 318.8281,634.7674 Q318.4891,635.2924 318.4891,636.0143 L318.4891,636.7799 Q318.4891,637.6439 319.1125,638.2236 Q319.7359,638.7924 320.8516,638.7924 Q321.5078,638.7924 321.9672,638.6174 Q322.2406,638.508 322.5359,638.2018 Q322.7219,638.0158 322.8203,637.9611 Q322.9297,637.9064 323.0719,637.9064 Q323.3016,637.9064 323.4766,638.0924 Q323.6625,638.2674 323.6625,638.508 Q323.6625,638.7486 323.4219,639.033 Q323.0719,639.4377 322.5141,639.6674 Q321.7594,639.9846 320.8516,639.9846 Q319.7906,639.9846 318.9484,639.5471 Q318.2594,639.1971 317.7781,638.4533 Q317.2969,637.6986 317.2969,636.8018 L317.2969,635.9924 Q317.2969,635.0627 317.7234,634.2643 Q318.1609,633.4549 318.9266,633.0283 Q319.6922,632.5908 320.5562,632.5908 Q321.0703,632.5908 321.5187,632.7111 Q321.9781,632.8205 322.3609,633.0721 Z " fill="#000000"/><text fill="#000000" font-family="sans-serif" font-size="9.8" lengthAdjust="spacing" textLength="72.8" x="334.775" y="640.0174">TeamRepository</text><line style="stroke:#181818;stroke-width:0.3499999999999999;" x1="228.55" x2="491.05" y1="647.1596" y2="647.1596"/><line style="stroke:#181818;stroke-width:0.3499999999999999;" x1="228.55" x2="491.05" y1="652.7596" y2="652.7596"/><text fill="#000000" font-family="sans-serif" font-size="9.8" lengthAdjust="spacing" textLength="255.5" x="232.05" y="666.1348">+getTeamsThoughCollaborator(collaborator): List&lt;Team&gt;</text></g><!--class agenda--><g id="elem_agenda"><rect codeLine="55" fill="#F1F1F1" height="85.7391" id="agenda" rx="1.75" ry="1.75" style="stroke:#181818;stroke-width:0.3499999999999999;" width="325.5" x="516.25" y="605.5096"/><ellipse cx="658.875" cy="616.7096" fill="#ADD1B2" rx="7.7" ry="7.7" style="stroke:#181818;stroke-width:0.6999999999999998;"/><path d="M660.8109,613.8221 Q660.9203,613.6689 661.0516,613.5924 Q661.1828,613.5158 661.3359,613.5158 Q661.5984,613.5158 661.7625,613.7018 Q661.9266,613.8768 661.9266,614.3033 L661.9266,615.3205 Q661.9266,615.7471 661.7625,615.933 Q661.5984,616.1189 661.3359,616.1189 Q661.0953,616.1189 660.9531,615.9768 Q660.8109,615.8455 660.7344,615.4846 Q660.7016,615.233 660.5703,615.1018 Q660.3406,614.8393 659.9141,614.6861 Q659.4875,614.533 659.05,614.533 Q658.5141,614.533 658.0656,614.7627 Q657.6281,614.9924 657.2781,615.5174 Q656.9391,616.0424 656.9391,616.7643 L656.9391,617.5299 Q656.9391,618.3939 657.5625,618.9736 Q658.1859,619.5424 659.3016,619.5424 Q659.9578,619.5424 660.4172,619.3674 Q660.6906,619.258 660.9859,618.9518 Q661.1719,618.7658 661.2703,618.7111 Q661.3797,618.6564 661.5219,618.6564 Q661.7516,618.6564 661.9266,618.8424 Q662.1125,619.0174 662.1125,619.258 Q662.1125,619.4986 661.8719,619.783 Q661.5219,620.1877 660.9641,620.4174 Q660.2094,620.7346 659.3016,620.7346 Q658.2406,620.7346 657.3984,620.2971 Q656.7094,619.9471 656.2281,619.2033 Q655.7469,618.4486 655.7469,617.5518 L655.7469,616.7424 Q655.7469,615.8127 656.1734,615.0143 Q656.6109,614.2049 657.3766,613.7783 Q658.1422,613.3408 659.0062,613.3408 Q659.5203,613.3408 659.9687,613.4611 Q660.4281,613.5705 660.8109,613.8221 Z " fill="#000000"/><text fill="#000000" font-family="sans-serif" font-size="9.8" lengthAdjust="spacing" textLength="34.3" x="673.225" y="620.7674">Agenda</text><line style="stroke:#181818;stroke-width:0.3499999999999999;" x1="516.95" x2="841.05" y1="627.9096" y2="627.9096"/><text fill="#000000" font-family="sans-serif" font-size="9.8" lengthAdjust="spacing" textLength="100.8" x="520.45" y="641.2848">-List&lt;String&gt; statusList</text><text fill="#000000" font-family="sans-serif" font-size="9.8" lengthAdjust="spacing" textLength="87.5" x="520.45" y="654.3195">-List&lt;AgendaEntry&gt;</text><line style="stroke:#181818;stroke-width:0.3499999999999999;" x1="516.95" x2="841.05" y1="659.5791" y2="659.5791"/><text fill="#000000" font-family="sans-serif" font-size="9.8" lengthAdjust="spacing" textLength="317.1" x="520.45" y="672.9543">+getCollaboratorAgendaEntries(teamList,startDate,endDate,typeStatus)</text><text fill="#000000" font-family="sans-serif" font-size="9.8" lengthAdjust="spacing" textLength="70" x="520.45" y="685.9891">+getStatusList()</text></g><!--class MapperDto--><g id="elem_MapperDto"><rect codeLine="63" fill="#F1F1F1" height="59.6695" id="MapperDto" rx="1.75" ry="1.75" style="stroke:#181818;stroke-width:0.3499999999999999;" width="179.2" x="881.3" y="409.1596"/><ellipse cx="939.575" cy="420.3596" fill="#ADD1B2" rx="7.7" ry="7.7" style="stroke:#181818;stroke-width:0.6999999999999998;"/><path d="M941.5109,417.4721 Q941.6203,417.3189 941.7516,417.2424 Q941.8828,417.1658 942.0359,417.1658 Q942.2984,417.1658 942.4625,417.3518 Q942.6266,417.5268 942.6266,417.9533 L942.6266,418.9705 Q942.6266,419.3971 942.4625,419.583 Q942.2984,419.7689 942.0359,419.7689 Q941.7953,419.7689 941.6531,419.6268 Q941.5109,419.4955 941.4344,419.1346 Q941.4016,418.883 941.2703,418.7518 Q941.0406,418.4893 940.6141,418.3361 Q940.1875,418.183 939.75,418.183 Q939.2141,418.183 938.7656,418.4127 Q938.3281,418.6424 937.9781,419.1674 Q937.6391,419.6924 937.6391,420.4143 L937.6391,421.1799 Q937.6391,422.0439 938.2625,422.6236 Q938.8859,423.1924 940.0016,423.1924 Q940.6578,423.1924 941.1172,423.0174 Q941.3906,422.908 941.6859,422.6018 Q941.8719,422.4158 941.9703,422.3611 Q942.0797,422.3064 942.2219,422.3064 Q942.4516,422.3064 942.6266,422.4924 Q942.8125,422.6674 942.8125,422.908 Q942.8125,423.1486 942.5719,423.433 Q942.2219,423.8377 941.6641,424.0674 Q940.9094,424.3846 940.0016,424.3846 Q938.9406,424.3846 938.0984,423.9471 Q937.4094,423.5971 936.9281,422.8533 Q936.4469,422.0986 936.4469,421.2018 L936.4469,420.3924 Q936.4469,419.4627 936.8734,418.6643 Q937.3109,417.8549 938.0766,417.4283 Q938.8422,416.9908 939.7062,416.9908 Q940.2203,416.9908 940.6687,417.1111 Q941.1281,417.2205 941.5109,417.4721 Z " fill="#000000"/><text fill="#000000" font-family="sans-serif" font-size="9.8" lengthAdjust="spacing" textLength="56.7" x="953.925" y="424.4174">EntryMapper</text><line style="stroke:#181818;stroke-width:0.3499999999999999;" x1="882" x2="1059.8" y1="431.5596" y2="431.5596"/><line style="stroke:#181818;stroke-width:0.3499999999999999;" x1="882" x2="1059.8" y1="437.1596" y2="437.1596"/><text fill="#000000" font-family="sans-serif" font-size="9.8" lengthAdjust="spacing" textLength="170.8" x="885.5" y="450.5348">+toDTOList(listEntries): List&lt;EntryDto&gt;</text><text fill="#000000" font-family="sans-serif" font-size="9.8" lengthAdjust="spacing" textLength="131.6" x="885.5" y="463.5695">+toDTOEntry(entry): EntryDto</text></g><!--class DataTransferObject--><g id="elem_DataTransferObject"><rect codeLine="68" fill="#F1F1F1" height="163.9477" id="DataTransferObject" rx="1.75" ry="1.75" style="stroke:#181818;stroke-width:0.3499999999999999;" width="126" x="907.9" y="566.3096"/><ellipse cx="948.675" cy="577.5096" fill="#ADD1B2" rx="7.7" ry="7.7" style="stroke:#181818;stroke-width:0.6999999999999998;"/><path d="M950.6109,574.6221 Q950.7203,574.4689 950.8516,574.3924 Q950.9828,574.3158 951.1359,574.3158 Q951.3984,574.3158 951.5625,574.5018 Q951.7266,574.6768 951.7266,575.1033 L951.7266,576.1205 Q951.7266,576.5471 951.5625,576.733 Q951.3984,576.9189 951.1359,576.9189 Q950.8953,576.9189 950.7531,576.7768 Q950.6109,576.6455 950.5344,576.2846 Q950.5016,576.033 950.3703,575.9018 Q950.1406,575.6393 949.7141,575.4861 Q949.2875,575.333 948.85,575.333 Q948.3141,575.333 947.8656,575.5627 Q947.4281,575.7924 947.0781,576.3174 Q946.7391,576.8424 946.7391,577.5643 L946.7391,578.3299 Q946.7391,579.1939 947.3625,579.7736 Q947.9859,580.3424 949.1016,580.3424 Q949.7578,580.3424 950.2172,580.1674 Q950.4906,580.058 950.7859,579.7518 Q950.9719,579.5658 951.0703,579.5111 Q951.1797,579.4564 951.3219,579.4564 Q951.5516,579.4564 951.7266,579.6424 Q951.9125,579.8174 951.9125,580.058 Q951.9125,580.2986 951.6719,580.583 Q951.3219,580.9877 950.7641,581.2174 Q950.0094,581.5346 949.1016,581.5346 Q948.0406,581.5346 947.1984,581.0971 Q946.5094,580.7471 946.0281,580.0033 Q945.5469,579.2486 945.5469,578.3518 L945.5469,577.5424 Q945.5469,576.6127 945.9734,575.8143 Q946.4109,575.0049 947.1766,574.5783 Q947.9422,574.1408 948.8062,574.1408 Q949.3203,574.1408 949.7687,574.2611 Q950.2281,574.3705 950.6109,574.6221 Z " fill="#000000"/><text fill="#000000" font-family="sans-serif" font-size="9.8" lengthAdjust="spacing" textLength="38.5" x="963.025" y="581.5674">EntryDto</text><line style="stroke:#181818;stroke-width:0.3499999999999999;" x1="908.6" x2="1033.2" y1="588.7096" y2="588.7096"/><text fill="#000000" font-family="sans-serif" font-size="9.8" lengthAdjust="spacing" textLength="53.2" x="912.1" y="602.0848">-Team team</text><text fill="#000000" font-family="sans-serif" font-size="9.8" lengthAdjust="spacing" textLength="100.8" x="912.1" y="615.1195">-List&lt;Vehicle&gt; vehicles</text><text fill="#000000" font-family="sans-serif" font-size="9.8" lengthAdjust="spacing" textLength="49" x="912.1" y="628.1543">-Date dateI</text><text fill="#000000" font-family="sans-serif" font-size="9.8" lengthAdjust="spacing" textLength="53.2" x="912.1" y="641.1891">-Date dateF</text><text fill="#000000" font-family="sans-serif" font-size="9.8" lengthAdjust="spacing" textLength="94.5" x="912.1" y="654.2238">-StatusOfEntry status</text><text fill="#000000" font-family="sans-serif" font-size="9.8" lengthAdjust="spacing" textLength="116.2" x="912.1" y="667.2586">-GreenSpace greenSpace</text><text fill="#000000" font-family="sans-serif" font-size="9.8" lengthAdjust="spacing" textLength="111.3" x="912.1" y="680.2934">-List&lt;Vehicle&gt; vehicleList</text><text fill="#000000" font-family="sans-serif" font-size="9.8" lengthAdjust="spacing" textLength="117.6" x="912.1" y="693.3281">-DegreeOfUrgency degree</text><text fill="#000000" font-family="sans-serif" font-size="9.8" lengthAdjust="spacing" textLength="46.2" x="912.1" y="706.3629">-Task task</text><line style="stroke:#181818;stroke-width:0.3499999999999999;" x1="908.6" x2="1033.2" y1="711.6225" y2="711.6225"/><text fill="#000000" font-family="sans-serif" font-size="9.8" lengthAdjust="spacing" textLength="73.5" x="912.1" y="724.9977">+EntryDto(entry)</text></g><!--link UserInterface to CTRL--><g id="link_UserInterface_CTRL"><path codeLine="84" d="M829.5,63.9476 C829.5,79.1586 829.5,98.4226 829.5,119.6536 " fill="none" id="UserInterface-to-CTRL" style="stroke:#181818;stroke-width:0.6999999999999998;stroke-dasharray:7.0,7.0;"/><polygon fill="#181818" points="829.5,123.8536,832.3,117.5536,829.5,120.3536,826.7,117.5536,829.5,123.8536" style="stroke:#181818;stroke-width:0.6999999999999998;"/></g><!--link CTRL to RepositorySingleton--><g id="link_CTRL_RepositorySingleton"><path codeLine="85" d="M790.741,222.7356 C754.712,268.0676 703.7122,332.2455 666.0942,379.5795 " fill="none" id="CTRL-to-RepositorySingleton" style="stroke:#181818;stroke-width:0.6999999999999998;stroke-dasharray:7.0,7.0;"/><polygon fill="#181818" points="663.481,382.8676,669.5928,379.6776,665.6586,380.1275,665.2087,376.1934,663.481,382.8676" style="stroke:#181818;stroke-width:0.6999999999999998;"/><text fill="#000000" font-family="sans-serif" font-size="9.1" lengthAdjust="spacing" textLength="46.9" x="756" y="277.2294">repositories</text></g><!--link RepositorySingleton to RepositorySingleton--><g id="link_RepositorySingleton_RepositorySingleton"><path codeLine="86" d="M742.273,425.6026 C756.931,428.0176 766.5,432.4556 766.5,438.9096 C766.5,445.3636 761.0751,449.1188 746.4171,451.5338 " fill="none" id="RepositorySingleton-to-RepositorySingleton" style="stroke:#181818;stroke-width:0.6999999999999998;"/><polygon fill="#181818" points="742.273,452.2166,748.9444,453.9552,745.7264,451.6476,748.034,448.4297,742.273,452.2166" style="stroke:#181818;stroke-width:0.6999999999999998;"/><text fill="#000000" font-family="sans-serif" font-size="9.1" lengthAdjust="spacing" textLength="34.3" x="770.7" y="442.7794">instance</text></g><!--link CTRL to collaboratorRepository--><g id="link_CTRL_collaboratorRepository"><path codeLine="87" d="M666.596,220.8176 C540.715,257.0286 387.8,301.0096 387.8,301.0096 C387.8,301.0096 198.4706,543.8035 138.1236,621.1955 " fill="none" id="CTRL-to-collaboratorRepository" style="stroke:#181818;stroke-width:0.6999999999999998;stroke-dasharray:7.0,7.0;"/><polygon fill="#181818" points="135.541,624.5076,141.623,621.2612,137.6932,621.7475,137.2069,617.8177,135.541,624.5076" style="stroke:#181818;stroke-width:0.6999999999999998;"/><text fill="#000000" font-family="sans-serif" font-size="9.1" lengthAdjust="spacing" textLength="104.3" x="388.5" y="311.5294">getCollaboratorRepository</text></g><!--link CTRL to teamRepository--><g id="link_CTRL_teamRepository"><path codeLine="88" d="M714.581,222.6586 C614.425,265.1066 485.1,319.9096 485.1,319.9096 C485.1,319.9096 379.4,515.9096 379.4,515.9096 C379.4,515.9096 369.4486,582.7284 363.8346,620.4304 " fill="none" id="CTRL-to-teamRepository" style="stroke:#181818;stroke-width:0.6999999999999998;stroke-dasharray:7.0,7.0;"/><polygon fill="#181818" points="363.216,624.5846,366.9133,618.7657,363.7315,621.1227,361.3744,617.9409,363.216,624.5846" style="stroke:#181818;stroke-width:0.6999999999999998;"/><text fill="#000000" font-family="sans-serif" font-size="9.1" lengthAdjust="spacing" textLength="78.4" x="529.2" y="311.5294">getTeamRepository</text></g><!--link CTRL to agenda--><g id="link_CTRL_agenda"><path codeLine="89" d="M910.483,222.7636 C980.896,265.1906 1071.7,319.9096 1071.7,319.9096 C1071.7,319.9096 1071.7,529.2096 1071.7,529.2096 C1071.7,529.2096 896.7,534.8096 896.7,534.8096 C896.7,534.8096 825.9358,571.4416 764.1048,603.4526 " fill="none" id="CTRL-to-agenda" style="stroke:#181818;stroke-width:0.6999999999999998;stroke-dasharray:7.0,7.0;"/><polygon fill="#181818" points="760.375,605.3836,767.257,604.9736,763.4832,603.7744,764.6824,600.0006,760.375,605.3836" style="stroke:#181818;stroke-width:0.6999999999999998;"/><text fill="#000000" font-family="sans-serif" font-size="9.1" lengthAdjust="spacing" textLength="43.4" x="1061.9" y="311.5294">getAgenda</text></g><!--link CTRL to agenda--><g id="link_CTRL_agenda"><path codeLine="97" d="M937.559,222.6236 C1017.156,258.4776 1111.6,301.0096 1111.6,301.0096 C1111.6,301.0096 1111.6,314.3096 1111.6,314.3096 C1111.6,314.3096 1089.9,529.2096 1089.9,529.2096 C1089.9,529.2096 896.7,534.8096 896.7,534.8096 C896.7,534.8096 825.9358,571.4416 764.1048,603.4526 " fill="none" id="CTRL-to-agenda-1" style="stroke:#181818;stroke-width:0.6999999999999998;stroke-dasharray:7.0,7.0;"/><polygon fill="#181818" points="760.375,605.3836,767.257,604.9736,763.4832,603.7744,764.6824,600.0006,760.375,605.3836" style="stroke:#181818;stroke-width:0.6999999999999998;"/><text fill="#000000" font-family="sans-serif" font-size="9.1" lengthAdjust="spacing" textLength="53.9" x="1112.3" y="311.5294">getStatusList</text></g><!--link CTRL to MapperDto--><g id="link_CTRL_MapperDto"><path codeLine="90" d="M855.603,222.7356 C884.849,277.3916 929.3194,360.5025 953.3644,405.4355 " fill="none" id="CTRL-to-MapperDto" style="stroke:#181818;stroke-width:0.6999999999999998;stroke-dasharray:7.0,7.0;"/><polygon fill="#181818" points="955.346,409.1386,954.8423,402.2628,953.6946,406.0526,949.9048,404.905,955.346,409.1386" style="stroke:#181818;stroke-width:0.6999999999999998;"/><text fill="#000000" font-family="sans-serif" font-size="9.1" lengthAdjust="spacing" textLength="40.6" x="886.2" y="277.2294">toDTOList</text></g><!--link MapperDto to DataTransferObject--><g id="link_MapperDto_DataTransferObject"><path codeLine="91" d="M970.9,468.7366 C970.9,493.9926 970.9,527.5856 970.9,561.9206 " fill="none" id="MapperDto-to-DataTransferObject" style="stroke:#181818;stroke-width:0.6999999999999998;"/><polygon fill="#181818" points="970.9,566.1206,973.7,559.8206,970.9,562.6206,968.1,559.8206,970.9,566.1206" style="stroke:#181818;stroke-width:0.6999999999999998;"/><text fill="#000000" font-family="sans-serif" font-size="9.1" lengthAdjust="spacing" textLength="27.3" x="971.6" y="526.4294">entries</text><text fill="#000000" font-family="sans-serif" font-size="9.1" lengthAdjust="spacing" textLength="4.9" x="965.6095" y="484.2611">1</text><text fill="#000000" font-family="sans-serif" font-size="9.1" lengthAdjust="spacing" textLength="3.5" x="967.2879" y="558.4022">*</text></g><!--link RepositorySingleton to collaboratorRepository--><g id="link_RepositorySingleton_collaboratorRepository"><path codeLine="92" d="M496.944,468.4986 C378.091,496.5126 215.6,534.8096 215.6,534.8096 C215.6,534.8096 168.8238,588.5991 140.1868,621.5341 " fill="none" id="RepositorySingleton-to-collaboratorRepository" style="stroke:#181818;stroke-width:0.6999999999999998;stroke-dasharray:7.0,7.0;"/><polygon fill="#181818" points="137.431,624.7036,143.6777,621.7866,139.7275,622.0624,139.4518,618.1122,137.431,624.7036" style="stroke:#181818;stroke-width:0.6999999999999998;"/><text fill="#000000" font-family="sans-serif" font-size="9.1" lengthAdjust="spacing" textLength="90.3" x="293.3" y="526.4294">collaboratorRepository</text><text fill="#000000" font-family="sans-serif" font-size="9.1" lengthAdjust="spacing" textLength="4.9" x="486.3797" y="467.4985">1</text><text fill="#000000" font-family="sans-serif" font-size="9.1" lengthAdjust="spacing" textLength="4.9" x="135.9529" y="616.8704">1</text></g><!--link RepositorySingleton to teamRepository--><g id="link_RepositorySingleton_teamRepository"><path codeLine="93" d="M567.063,495.0776 C549.738,513.4106 534.8,529.2096 534.8,529.2096 C534.8,529.2096 504,534.8096 504,534.8096 C504,534.8096 434.425,589.182 392.292,622.117 " fill="none" id="RepositorySingleton-to-teamRepository" style="stroke:#181818;stroke-width:0.6999999999999998;"/><polygon fill="#181818" points="388.983,624.7036,395.6709,623.0296,391.7405,622.5481,392.2221,618.6177,388.983,624.7036" style="stroke:#181818;stroke-width:0.6999999999999998;"/><text fill="#000000" font-family="sans-serif" font-size="9.1" lengthAdjust="spacing" textLength="63.7" x="547.4" y="526.4294">teamRepository</text><text fill="#000000" font-family="sans-serif" font-size="9.1" lengthAdjust="spacing" textLength="4.9" x="557.6177" y="510.0579">1</text><text fill="#000000" font-family="sans-serif" font-size="9.1" lengthAdjust="spacing" textLength="4.9" x="389.3461" y="616.8704">1</text></g><!--link RepositorySingleton to agenda--><g id="link_RepositorySingleton_agenda"><path codeLine="94" d="M637.308,495.0636 C641.102,506.8936 644,515.9096 644,515.9096 C644,515.9096 656.5077,562.9366 666.7487,601.4506 " fill="none" id="RepositorySingleton-to-agenda" style="stroke:#181818;stroke-width:0.6999999999999998;"/><polygon fill="#181818" points="667.828,605.5096,668.915,598.7016,666.9286,602.1271,663.5031,600.1407,667.828,605.5096" style="stroke:#181818;stroke-width:0.6999999999999998;"/><text fill="#000000" font-family="sans-serif" font-size="9.1" lengthAdjust="spacing" textLength="29.4" x="647.5" y="526.4294">agenda</text><text fill="#000000" font-family="sans-serif" font-size="9.1" lengthAdjust="spacing" textLength="4.9" x="633.6798" y="510.0427">1</text><text fill="#000000" font-family="sans-serif" font-size="9.1" lengthAdjust="spacing" textLength="4.9" x="661.2678" y="597.4919">1</text></g><!--link teamRepository to Team--><g id="link_teamRepository_Team"><path codeLine="95" d="M373.807,671.6806 C397.719,710.5516 444.1685,786.0602 470.5375,828.9282 " fill="none" id="teamRepository-to-Team" style="stroke:#181818;stroke-width:0.6999999999999998;"/><polygon fill="#181818" points="472.738,832.5056,471.8221,825.6725,470.9042,829.5244,467.0523,828.6065,472.738,832.5056" style="stroke:#181818;stroke-width:0.6999999999999998;"/><text fill="#000000" font-family="sans-serif" font-size="9.1" lengthAdjust="spacing" textLength="46.9" x="441" y="779.8294">collaborator</text><text fill="#000000" font-family="sans-serif" font-size="9.1" lengthAdjust="spacing" textLength="4.9" x="370.9656" y="686.7828">1</text><text fill="#000000" font-family="sans-serif" font-size="9.1" lengthAdjust="spacing" textLength="3.5" x="466.0964" y="824.7139">*</text></g><!--link AgendaEntry to agenda--><g id="link_AgendaEntry_agenda"><path codeLine="96" d="M643.629,819.5696 C651.357,782.3016 661.7192,732.3113 669.4332,695.0643 " fill="none" id="AgendaEntry-to-agenda" style="stroke:#181818;stroke-width:0.6999999999999998;"/><polygon fill="#181818" points="670.285,690.9516,666.2655,696.5528,669.5752,694.3788,671.7492,697.6885,670.285,690.9516" style="stroke:#181818;stroke-width:0.6999999999999998;"/><text fill="#000000" font-family="sans-serif" font-size="9.1" lengthAdjust="spacing" textLength="39.9" x="653.1" y="779.8294">statusList</text><text fill="#000000" font-family="sans-serif" font-size="9.1" lengthAdjust="spacing" textLength="4.9" x="639.455" y="811.8402">1</text><text fill="#000000" font-family="sans-serif" font-size="9.1" lengthAdjust="spacing" textLength="3.5" x="665.5096" y="706.6975">*</text></g><!--SRC=[hLLHZzCm37xlhuZwj8FR2LuhLEdO3ZJfJfDk6-zPwtLbML8b6QWW_ZjEqZP9h-EGO0zfOd-sFpkEfqurRwYaPzBGuaGhsEYM0Ja8Le9CrA1LHrgAxpMlo84o1O66rHnqsm1f16lD8T0LZ2frhxMiznSDgqBmJVq3oBiawQAHtOhyJ2oCf8-rqbkgJXjKmcwL4gh8Je5SSGtoWBBabpTS2AwbO0paImTUPtqiji-F22BuUqiA2LJ3xAOxLg0NYAHx8QaMycFxSAOrcu5P0yn6KtrHndzekGLwLjkZk5J7qCci20vN0jrNm4lwW3nhK3EDZeppMwMfr4iaU8jg-pMbTT5lCFsW04k173dcrGkUH0biA8RXrYKz9yRtXp1yJivmteDK7RkQ6_o8E0PplZpPjlTek94IbzLOyAaJEDBhWpKZofwk5DJarMVn38rGDSPlaNr_iOCGYsMlrACss9CCjE13iY4ulAqLHnAymBlF8ipq1Va81Z-j2Je1kowsY2LnpuoGaSGZNTKDmktyVQJJT6nbYadLqFwZB5tpHZsFKOOuCJNhNqUYqEzVlORCzQB1va52BaCRWDfjtBeRV2QyohikCg9G6xHdJlxZStkzMPzequG3o79mGfkBsowr6EganNAxjfuOBXsXlYhM7D5v2BR26PWLSJqa886O4GFKs_2O4TrAojK1v7h_5GezbDME1rE7i91Vu5WN37BopMtKlp_sEVai0RWTwQGQjd-A6bpl4ep9-h2JU7z5IqfxxbF05qOqBbsr-jIxMjcBiXCp-WyXTtUv_KT8xD-2EKqDaup8S4HCGURpQwPrDsbyYEbNcLqVEjuqVd3PondYeUxfP7vuUDNGYPblmSItP_e-jVcaRzA9hia8k4QTh8EnDI7CzrgUq_AhxYmL_8vpZy-lclVrSDzaDBh2d4r5OvP9C5KYQEyqc4LTbKTNuAV6Rm00]--></g></svg>