<?xml version="1.0" encoding="us-ascii" standalone="no"?><svg xmlns="http://www.w3.org/2000/svg" xmlns:xlink="http://www.w3.org/1999/xlink" contentStyleType="text/css" height="461px" preserveAspectRatio="none" style="width:815px;height:461px;background:#FFFFFF;" version="1.1" viewBox="0 0 815 461" width="815px" zoomAndPan="magnify"><defs/><g><rect fill="#FFFFFF" height="296.6191" style="stroke:#181818;stroke-width:1.0;" width="10" x="205" y="90.5332"/><rect fill="#FFFFFF" height="31.291" style="stroke:#181818;stroke-width:1.0;" width="10" x="331" y="148.1152"/><rect fill="#FFFFFF" height="31.291" style="stroke:#181818;stroke-width:1.0;" width="10" x="438" y="210.6973"/><rect fill="#FFFFFF" height="75.582" style="stroke:#181818;stroke-width:1.0;" width="10" x="578.5" y="273.2793"/><rect fill="#FFFFFF" height="36.291" style="stroke:#181818;stroke-width:1.0;" width="10" x="583.5" y="312.5703"/><rect fill="none" height="251.3281" style="stroke:#000000;stroke-width:1.5;" width="676" x="133.5" y="105.5332"/><line style="stroke:#181818;stroke-width:0.5;stroke-dasharray:5.0,5.0;" x1="209.5" x2="209.5" y1="57.2422" y2="405.1523"/><line style="stroke:#181818;stroke-width:0.5;stroke-dasharray:5.0,5.0;" x1="335.5" x2="335.5" y1="57.2422" y2="405.1523"/><line style="stroke:#181818;stroke-width:0.5;stroke-dasharray:5.0,5.0;" x1="442.5" x2="442.5" y1="57.2422" y2="405.1523"/><line style="stroke:#181818;stroke-width:0.5;stroke-dasharray:5.0,5.0;" x1="583.5" x2="583.5" y1="57.2422" y2="405.1523"/><rect fill="#E3E3E3" height="32.6211" rx="2.5" ry="2.5" style="stroke:#181818;stroke-width:0.5;" width="133" x="143.5" y="23.6211"/><text fill="#000000" font-family="sans-serif" font-size="14" lengthAdjust="spacing" textLength="119" x="150.5" y="45.7285">:ListTaskController</text><rect fill="#E3E3E3" height="32.6211" rx="2.5" ry="2.5" style="stroke:#181818;stroke-width:0.5;" width="133" x="143.5" y="404.1523"/><text fill="#000000" font-family="sans-serif" font-size="14" lengthAdjust="spacing" textLength="119" x="150.5" y="426.2598">:ListTaskController</text><rect fill="#E3E3E3" height="32.6211" rx="2.5" ry="2.5" style="stroke:#181818;stroke-width:0.5;" width="97" x="287.5" y="23.6211"/><text fill="#000000" font-family="sans-serif" font-size="14" lengthAdjust="spacing" textLength="83" x="294.5" y="45.7285">:Repositories</text><rect fill="#E3E3E3" height="32.6211" rx="2.5" ry="2.5" style="stroke:#181818;stroke-width:0.5;" width="97" x="287.5" y="404.1523"/><text fill="#000000" font-family="sans-serif" font-size="14" lengthAdjust="spacing" textLength="83" x="294.5" y="426.2598">:Repositories</text><rect fill="#E3E3E3" height="51.2422" rx="2.5" ry="2.5" style="stroke:#181818;stroke-width:0.5;" width="97" x="394.5" y="5"/><text fill="#000000" font-family="sans-serif" font-size="14" lengthAdjust="spacing" textLength="74" x="406" y="27.1074">repositories</text><text fill="#000000" font-family="sans-serif" font-size="14" lengthAdjust="spacing" textLength="83" x="401.5" y="45.7285">:Repositories</text><rect fill="#E3E3E3" height="51.2422" rx="2.5" ry="2.5" style="stroke:#181818;stroke-width:0.5;" width="97" x="394.5" y="404.1523"/><text fill="#000000" font-family="sans-serif" font-size="14" lengthAdjust="spacing" textLength="74" x="406" y="426.2598">repositories</text><text fill="#000000" font-family="sans-serif" font-size="14" lengthAdjust="spacing" textLength="83" x="401.5" y="444.8809">:Repositories</text><rect fill="#E3E3E3" height="51.2422" rx="2.5" ry="2.5" style="stroke:#181818;stroke-width:0.5;" width="164" x="501.5" y="5"/><text fill="#000000" font-family="sans-serif" font-size="14" lengthAdjust="spacing" textLength="143" x="512" y="27.1074">collaboratorRepository</text><text fill="#000000" font-family="sans-serif" font-size="14" lengthAdjust="spacing" textLength="150" x="508.5" y="45.7285">:CollaboratorRepository</text><rect fill="#E3E3E3" height="51.2422" rx="2.5" ry="2.5" style="stroke:#181818;stroke-width:0.5;" width="164" x="501.5" y="404.1523"/><text fill="#000000" font-family="sans-serif" font-size="14" lengthAdjust="spacing" textLength="143" x="512" y="426.2598">collaboratorRepository</text><text fill="#000000" font-family="sans-serif" font-size="14" lengthAdjust="spacing" textLength="150" x="508.5" y="444.8809">:CollaboratorRepository</text><rect fill="#FFFFFF" height="296.6191" style="stroke:#181818;stroke-width:1.0;" width="10" x="205" y="90.5332"/><rect fill="#FFFFFF" height="31.291" style="stroke:#181818;stroke-width:1.0;" width="10" x="331" y="148.1152"/><rect fill="#FFFFFF" height="31.291" style="stroke:#181818;stroke-width:1.0;" width="10" x="438" y="210.6973"/><rect fill="#FFFFFF" height="75.582" style="stroke:#181818;stroke-width:1.0;" width="10" x="578.5" y="273.2793"/><rect fill="#FFFFFF" height="36.291" style="stroke:#181818;stroke-width:1.0;" width="10" x="583.5" y="312.5703"/><polygon fill="#181818" points="193,86.5332,203,90.5332,193,94.5332,197,90.5332" style="stroke:#181818;stroke-width:1.0;"/><line style="stroke:#181818;stroke-width:1.0;" x1="0" x2="199" y1="90.5332" y2="90.5332"/><text fill="#000000" font-family="sans-serif" font-size="13" font-weight="bold" lengthAdjust="spacing" textLength="7" x="7" y="85.2705">3</text><text fill="#000000" font-family="sans-serif" font-size="13" lengthAdjust="spacing" textLength="175" x="18" y="85.2705">getCollaboratorByEmail(email)</text><path d="M133.5,105.5332 L342.5,105.5332 L342.5,114.8242 L332.5,124.8242 L133.5,124.8242 L133.5,105.5332 " fill="#EEEEEE" style="stroke:#000000;stroke-width:1.5;"/><rect fill="none" height="251.3281" style="stroke:#000000;stroke-width:1.5;" width="676" x="133.5" y="105.5332"/><text fill="#000000" font-family="sans-serif" font-size="13" font-weight="bold" lengthAdjust="spacing" textLength="164" x="148.5" y="120.5615">Get Collaborator by Email</text><polygon fill="#181818" points="319,144.1152,329,148.1152,319,152.1152,323,148.1152" style="stroke:#181818;stroke-width:1.0;"/><line style="stroke:#181818;stroke-width:1.0;" x1="215" x2="325" y1="148.1152" y2="148.1152"/><text fill="#000000" font-family="sans-serif" font-size="13" font-weight="bold" lengthAdjust="spacing" textLength="18" x="222" y="142.8525">3.1</text><text fill="#000000" font-family="sans-serif" font-size="13" lengthAdjust="spacing" textLength="75" x="244" y="142.8525">getInstance()</text><polygon fill="#181818" points="226,175.4063,216,179.4063,226,183.4063,222,179.4063" style="stroke:#181818;stroke-width:1.0;"/><line style="stroke:#181818;stroke-width:1.0;stroke-dasharray:2.0,2.0;" x1="220" x2="335" y1="179.4063" y2="179.4063"/><text fill="#000000" font-family="sans-serif" font-size="13" font-weight="bold" lengthAdjust="spacing" textLength="18" x="232" y="174.1436">3.2</text><text fill="#000000" font-family="sans-serif" font-size="13" lengthAdjust="spacing" textLength="67" x="254" y="174.1436">repositories</text><polygon fill="#181818" points="426,206.6973,436,210.6973,426,214.6973,430,210.6973" style="stroke:#181818;stroke-width:1.0;"/><line style="stroke:#181818;stroke-width:1.0;" x1="215" x2="432" y1="210.6973" y2="210.6973"/><text fill="#000000" font-family="sans-serif" font-size="13" font-weight="bold" lengthAdjust="spacing" textLength="18" x="222" y="205.4346">3.3</text><text fill="#000000" font-family="sans-serif" font-size="13" lengthAdjust="spacing" textLength="149" x="244" y="205.4346">getCollaboratorRepository</text><polygon fill="#181818" points="226,237.9883,216,241.9883,226,245.9883,222,241.9883" style="stroke:#181818;stroke-width:1.0;"/><line style="stroke:#181818;stroke-width:1.0;stroke-dasharray:2.0,2.0;" x1="220" x2="442" y1="241.9883" y2="241.9883"/><text fill="#000000" font-family="sans-serif" font-size="13" font-weight="bold" lengthAdjust="spacing" textLength="18" x="232" y="236.7256">3.4</text><text fill="#000000" font-family="sans-serif" font-size="13" lengthAdjust="spacing" textLength="129" x="254" y="236.7256">collaboratorRepository</text><polygon fill="#181818" points="566.5,269.2793,576.5,273.2793,566.5,277.2793,570.5,273.2793" style="stroke:#181818;stroke-width:1.0;"/><line style="stroke:#181818;stroke-width:1.0;" x1="215" x2="572.5" y1="273.2793" y2="273.2793"/><text fill="#000000" font-family="sans-serif" font-size="13" font-weight="bold" lengthAdjust="spacing" textLength="18" x="222" y="268.0166">3.5</text><text fill="#000000" font-family="sans-serif" font-size="13" lengthAdjust="spacing" textLength="175" x="244" y="268.0166">getCollaboratorByEmail(email)</text><line style="stroke:#181818;stroke-width:1.0;" x1="588.5" x2="635.5" y1="299.5703" y2="299.5703"/><line style="stroke:#181818;stroke-width:1.0;" x1="635.5" x2="635.5" y1="299.5703" y2="312.5703"/><line style="stroke:#181818;stroke-width:1.0;" x1="594.5" x2="635.5" y1="312.5703" y2="312.5703"/><polygon fill="#181818" points="604.5,308.5703,594.5,312.5703,604.5,316.5703,600.5,312.5703" style="stroke:#181818;stroke-width:1.0;"/><text fill="#000000" font-family="sans-serif" font-size="13" font-weight="bold" lengthAdjust="spacing" textLength="18" x="600.5" y="294.3076">3.6</text><text fill="#000000" font-family="sans-serif" font-size="13" lengthAdjust="spacing" textLength="175" x="622.5" y="294.3076">getCollaboratorByEmail(email)</text><polygon fill="#181818" points="226,344.8613,216,348.8613,226,352.8613,222,348.8613" style="stroke:#181818;stroke-width:1.0;"/><line style="stroke:#181818;stroke-width:1.0;stroke-dasharray:2.0,2.0;" x1="220" x2="582.5" y1="348.8613" y2="348.8613"/><text fill="#000000" font-family="sans-serif" font-size="13" font-weight="bold" lengthAdjust="spacing" textLength="18" x="232" y="343.5986">3.7</text><text fill="#000000" font-family="sans-serif" font-size="13" lengthAdjust="spacing" textLength="67" x="254" y="343.5986">collaborator</text><polygon fill="#181818" points="11,383.1523,1,387.1523,11,391.1523,7,387.1523" style="stroke:#181818;stroke-width:1.0;"/><line style="stroke:#181818;stroke-width:1.0;stroke-dasharray:2.0,2.0;" x1="5" x2="209" y1="387.1523" y2="387.1523"/><text fill="#000000" font-family="sans-serif" font-size="13" font-weight="bold" lengthAdjust="spacing" textLength="7" x="17" y="381.8896">4</text><text fill="#000000" font-family="sans-serif" font-size="13" lengthAdjust="spacing" textLength="67" x="28" y="381.8896">collaborator</text><!--SRC=[fPCnJyCm48Lt_ueJ2-qG90HJXHYe8eJKeMexibpSQseriIFR0VBlSLmmJclQ8ZmaKlBUky_FYTa9sQ366ceb5TzgLHDOtH8puKs3V8SbBMrN4MZY5cLPnGApnRLw5xA43LQ66CFMAjdM1Md6hhTYJR1HoXRgWp7di8AB1gM5gybC6Bj2ivigQRMgAj9NW0QcgyNiGBcWHXbXbHPal2Oyw9QYvt4JXnOTELvb8Y2V3mtS0M2XD3hHJxgpJfClV4ZQ4pS0Tun1zkZt11CeoSPnJrrUewX6r5_70zlDBKDknHjQsXS2RfLQjGqyauKu1OeEV0xpedxvSMvieYOFyIADEqTEet6mX6cfQeEgNma1P5zxd41SVB2jwRBum9tFZygA2ZvcTgSvPCpd4HC_7HFJnK7VD6dxkTCyWlpjQucvqvh_G_mPv1HCijU1EshqtB0BfIJN_Xxz8_SXuo7BzeS51qnHkF-9FW40]--></g></svg>