<?xml version="1.0" encoding="us-ascii" standalone="no"?><svg xmlns="http://www.w3.org/2000/svg" xmlns:xlink="http://www.w3.org/1999/xlink" contentStyleType="text/css" height="402.5px" preserveAspectRatio="none" style="width:478px;height:402px;background:#FFFFFF;" version="1.1" viewBox="0 0 478 402" width="478.8px" zoomAndPan="magnify"><defs/><g><rect fill="#FFFFFF" height="287.3104" style="stroke:#181818;stroke-width:0.6999999999999998;" width="7" x="80.5" y="63.3732"/><rect fill="#FFFFFF" height="21.9037" style="stroke:#181818;stroke-width:0.6999999999999998;" width="7" x="168.7" y="103.6807"/><rect fill="#FFFFFF" height="21.9037" style="stroke:#181818;stroke-width:0.6999999999999998;" width="7" x="243.6" y="147.4881"/><rect fill="#FFFFFF" height="132.5844" style="stroke:#181818;stroke-width:0.6999999999999998;" width="7" x="325.5" y="191.2955"/><rect fill="#FFFFFF" height="26.8037" style="stroke:#181818;stroke-width:0.6999999999999998;" width="7" x="424.55" y="275.1725"/><rect fill="none" height="255.6066" style="stroke:#000000;stroke-width:1.0499999999999998;" width="444.15" x="30.45" y="73.8732"/><rect fill="none" height="35.4074" style="stroke:#000000;stroke-width:1.0499999999999998;" width="186.55" x="281.05" y="245.365"/><line style="stroke:#181818;stroke-width:0.3499999999999999;stroke-dasharray:5.0,5.0;" x1="83.65" x2="83.65" y1="40.0695" y2="363.2836"/><line style="stroke:#181818;stroke-width:0.3499999999999999;stroke-dasharray:5.0,5.0;" x1="171.85" x2="171.85" y1="40.0695" y2="363.2836"/><line style="stroke:#181818;stroke-width:0.3499999999999999;stroke-dasharray:5.0,5.0;" x1="246.75" x2="246.75" y1="40.0695" y2="363.2836"/><line style="stroke:#181818;stroke-width:0.3499999999999999;stroke-dasharray:5.0,5.0;" x1="328.65" x2="328.65" y1="40.0695" y2="363.2836"/><line style="stroke:#181818;stroke-width:0.3499999999999999;stroke-dasharray:5.0,5.0;" x1="427.7" x2="427.7" y1="225.6803" y2="363.2836"/><rect fill="#E3E3E3" height="22.8348" rx="1.75" ry="1.75" style="stroke:#181818;stroke-width:0.3499999999999999;" width="93.1" x="37.45" y="16.5348"/><text fill="#000000" font-family="sans-serif" font-size="9.8" lengthAdjust="spacing" textLength="83.3" x="42.35" y="32.01">:ListTaskController</text><rect fill="#E3E3E3" height="22.8348" rx="1.75" ry="1.75" style="stroke:#181818;stroke-width:0.3499999999999999;" width="93.1" x="37.45" y="362.5836"/><text fill="#000000" font-family="sans-serif" font-size="9.8" lengthAdjust="spacing" textLength="83.3" x="42.35" y="378.0588">:ListTaskController</text><rect fill="#E3E3E3" height="22.8348" rx="1.75" ry="1.75" style="stroke:#181818;stroke-width:0.3499999999999999;" width="67.9" x="138.25" y="16.5348"/><text fill="#000000" font-family="sans-serif" font-size="9.8" lengthAdjust="spacing" textLength="58.1" x="143.15" y="32.01">:Repositories</text><rect fill="#E3E3E3" height="22.8348" rx="1.75" ry="1.75" style="stroke:#181818;stroke-width:0.3499999999999999;" width="67.9" x="138.25" y="362.5836"/><text fill="#000000" font-family="sans-serif" font-size="9.8" lengthAdjust="spacing" textLength="58.1" x="143.15" y="378.0588">:Repositories</text><rect fill="#E3E3E3" height="35.8695" rx="1.75" ry="1.75" style="stroke:#181818;stroke-width:0.3499999999999999;" width="67.9" x="213.15" y="3.5"/><text fill="#000000" font-family="sans-serif" font-size="9.8" lengthAdjust="spacing" textLength="51.8" x="221.2" y="18.9752">repositories</text><text fill="#000000" font-family="sans-serif" font-size="9.8" lengthAdjust="spacing" textLength="58.1" x="218.05" y="32.01">:Repositories</text><rect fill="#E3E3E3" height="35.8695" rx="1.75" ry="1.75" style="stroke:#181818;stroke-width:0.3499999999999999;" width="67.9" x="213.15" y="362.5836"/><text fill="#000000" font-family="sans-serif" font-size="9.8" lengthAdjust="spacing" textLength="51.8" x="221.2" y="378.0588">repositories</text><text fill="#000000" font-family="sans-serif" font-size="9.8" lengthAdjust="spacing" textLength="58.1" x="218.05" y="391.0936">:Repositories</text><rect fill="#E3E3E3" height="35.8695" rx="1.75" ry="1.75" style="stroke:#181818;stroke-width:0.3499999999999999;" width="81.9" x="288.05" y="3.5"/><text fill="#000000" font-family="sans-serif" font-size="9.8" lengthAdjust="spacing" textLength="65.8" x="296.1" y="18.9752">taskRepository</text><text fill="#000000" font-family="sans-serif" font-size="9.8" lengthAdjust="spacing" textLength="72.1" x="292.95" y="32.01">:TaskRepository</text><rect fill="#E3E3E3" height="35.8695" rx="1.75" ry="1.75" style="stroke:#181818;stroke-width:0.3499999999999999;" width="81.9" x="288.05" y="362.5836"/><text fill="#000000" font-family="sans-serif" font-size="9.8" lengthAdjust="spacing" textLength="65.8" x="296.1" y="378.0588">taskRepository</text><text fill="#000000" font-family="sans-serif" font-size="9.8" lengthAdjust="spacing" textLength="72.1" x="292.95" y="391.0936">:TaskRepository</text><rect fill="#E3E3E3" height="35.8695" rx="1.75" ry="1.75" style="stroke:#181818;stroke-width:0.3499999999999999;" width="65.1" x="395.5" y="362.5836"/><text fill="#000000" font-family="sans-serif" font-size="9.8" lengthAdjust="spacing" textLength="42" x="407.05" y="378.0588">statusList</text><text fill="#000000" font-family="sans-serif" font-size="9.8" lengthAdjust="spacing" textLength="55.3" x="400.4" y="391.0936">:List&lt;String&gt;</text><rect fill="#FFFFFF" height="287.3104" style="stroke:#181818;stroke-width:0.6999999999999998;" width="7" x="80.5" y="63.3732"/><rect fill="#FFFFFF" height="21.9037" style="stroke:#181818;stroke-width:0.6999999999999998;" width="7" x="168.7" y="103.6807"/><rect fill="#FFFFFF" height="21.9037" style="stroke:#181818;stroke-width:0.6999999999999998;" width="7" x="243.6" y="147.4881"/><rect fill="#FFFFFF" height="132.5844" style="stroke:#181818;stroke-width:0.6999999999999998;" width="7" x="325.5" y="191.2955"/><rect fill="#FFFFFF" height="26.8037" style="stroke:#181818;stroke-width:0.6999999999999998;" width="7" x="424.55" y="275.1725"/><polygon fill="#181818" points="72.1,60.5732,79.1,63.3732,72.1,66.1732,74.9,63.3732" style="stroke:#181818;stroke-width:0.6999999999999998;"/><line style="stroke:#181818;stroke-width:0.6999999999999998;" x1="0" x2="76.3" y1="63.3732" y2="63.3732"/><text fill="#000000" font-family="sans-serif" font-size="9.1" font-weight="bold" lengthAdjust="spacing" textLength="4.9" x="4.9" y="59.6894">7</text><text fill="#000000" font-family="sans-serif" font-size="9.1" lengthAdjust="spacing" textLength="59.5" x="12.6" y="59.6894">getStatusList()</text><path d="M30.45,73.8732 L134.75,73.8732 L134.75,80.377 L127.75,87.377 L30.45,87.377 L30.45,73.8732 " fill="#EEEEEE" style="stroke:#000000;stroke-width:1.0499999999999998;"/><rect fill="none" height="255.6066" style="stroke:#000000;stroke-width:1.0499999999999998;" width="444.15" x="30.45" y="73.8732"/><text fill="#000000" font-family="sans-serif" font-size="9.1" font-weight="bold" lengthAdjust="spacing" textLength="72.8" x="40.95" y="84.3931">Register Vehicle</text><polygon fill="#181818" points="160.3,100.8807,167.3,103.6807,160.3,106.4807,163.1,103.6807" style="stroke:#181818;stroke-width:0.6999999999999998;"/><line style="stroke:#181818;stroke-width:0.6999999999999998;" x1="87.5" x2="164.5" y1="103.6807" y2="103.6807"/><text fill="#000000" font-family="sans-serif" font-size="9.1" font-weight="bold" lengthAdjust="spacing" textLength="12.6" x="92.4" y="99.9968">7.1</text><text fill="#000000" font-family="sans-serif" font-size="9.1" lengthAdjust="spacing" textLength="52.5" x="107.8" y="99.9968">getInstance()</text><polygon fill="#181818" points="95.2,122.7844,88.2,125.5844,95.2,128.3844,92.4,125.5844" style="stroke:#181818;stroke-width:0.6999999999999998;"/><line style="stroke:#181818;stroke-width:0.6999999999999998;stroke-dasharray:2.0,2.0;" x1="91" x2="171.5" y1="125.5844" y2="125.5844"/><text fill="#000000" font-family="sans-serif" font-size="9.1" font-weight="bold" lengthAdjust="spacing" textLength="12.6" x="99.4" y="121.9005">7.2</text><text fill="#000000" font-family="sans-serif" font-size="9.1" lengthAdjust="spacing" textLength="46.9" x="114.8" y="121.9005">repositories</text><polygon fill="#181818" points="235.2,144.6881,242.2,147.4881,235.2,150.2881,238,147.4881" style="stroke:#181818;stroke-width:0.6999999999999998;"/><line style="stroke:#181818;stroke-width:0.6999999999999998;" x1="87.5" x2="239.4" y1="147.4881" y2="147.4881"/><text fill="#000000" font-family="sans-serif" font-size="9.1" font-weight="bold" lengthAdjust="spacing" textLength="12.6" x="92.4" y="143.8042">7.3</text><text fill="#000000" font-family="sans-serif" font-size="9.1" lengthAdjust="spacing" textLength="81.2" x="107.8" y="143.8042">getTaskRepository()</text><polygon fill="#181818" points="95.2,166.5918,88.2,169.3918,95.2,172.1918,92.4,169.3918" style="stroke:#181818;stroke-width:0.6999999999999998;"/><line style="stroke:#181818;stroke-width:0.6999999999999998;stroke-dasharray:2.0,2.0;" x1="91" x2="246.4" y1="169.3918" y2="169.3918"/><text fill="#000000" font-family="sans-serif" font-size="9.1" font-weight="bold" lengthAdjust="spacing" textLength="12.6" x="99.4" y="165.7079">7.4</text><text fill="#000000" font-family="sans-serif" font-size="9.1" lengthAdjust="spacing" textLength="60.9" x="114.8" y="165.7079">taskRepository</text><polygon fill="#181818" points="317.1,188.4955,324.1,191.2955,317.1,194.0955,319.9,191.2955" style="stroke:#181818;stroke-width:0.6999999999999998;"/><line style="stroke:#181818;stroke-width:0.6999999999999998;" x1="87.5" x2="321.3" y1="191.2955" y2="191.2955"/><text fill="#000000" font-family="sans-serif" font-size="9.1" font-weight="bold" lengthAdjust="spacing" textLength="12.6" x="92.4" y="187.6116">7.5</text><text fill="#000000" font-family="sans-serif" font-size="9.1" lengthAdjust="spacing" textLength="59.5" x="107.8" y="187.6116">getStatusList()</text><polygon fill="#181818" points="387.1,210.3992,394.1,213.1992,387.1,215.9992,389.9,213.1992" style="stroke:#181818;stroke-width:0.6999999999999998;"/><line style="stroke:#181818;stroke-width:0.6999999999999998;stroke-dasharray:2.0,2.0;" x1="332.5" x2="391.3" y1="213.1992" y2="213.1992"/><text fill="#000000" font-family="sans-serif" font-size="9.1" font-weight="bold" lengthAdjust="spacing" textLength="12.6" x="337.4" y="209.5153">7.6</text><text fill="#000000" font-family="sans-serif" font-size="9.1" lengthAdjust="spacing" textLength="30.8" x="352.8" y="209.5153">create()</text><rect fill="#E3E3E3" height="35.8695" rx="1.75" ry="1.75" style="stroke:#181818;stroke-width:0.3499999999999999;" width="65.1" x="395.5" y="196.8955"/><text fill="#000000" font-family="sans-serif" font-size="9.8" lengthAdjust="spacing" textLength="42" x="407.05" y="212.3707">statusList</text><text fill="#000000" font-family="sans-serif" font-size="9.8" lengthAdjust="spacing" textLength="55.3" x="400.4" y="225.4055">:List&lt;String&gt;</text><path d="M281.05,245.365 L332.15,245.365 L332.15,251.8687 L325.15,258.8687 L281.05,258.8687 L281.05,245.365 " fill="#EEEEEE" style="stroke:#000000;stroke-width:1.0499999999999998;"/><rect fill="none" height="35.4074" style="stroke:#000000;stroke-width:1.0499999999999998;" width="186.55" x="281.05" y="245.365"/><text fill="#000000" font-family="sans-serif" font-size="9.1" font-weight="bold" lengthAdjust="spacing" textLength="19.6" x="291.55" y="255.8849">loop</text><text fill="#000000" font-family="sans-serif" font-size="7.7" font-weight="bold" lengthAdjust="spacing" textLength="119" x="342.65" y="255.0741">[for each status in the system]</text><polygon fill="#181818" points="416.15,272.3725,423.15,275.1725,416.15,277.9725,418.95,275.1725" style="stroke:#181818;stroke-width:0.6999999999999998;"/><line style="stroke:#181818;stroke-width:0.6999999999999998;" x1="332.5" x2="420.35" y1="275.1725" y2="275.1725"/><text fill="#000000" font-family="sans-serif" font-size="9.1" font-weight="bold" lengthAdjust="spacing" textLength="12.6" x="337.4" y="271.4886">7.7</text><text fill="#000000" font-family="sans-serif" font-size="9.1" lengthAdjust="spacing" textLength="45.5" x="352.8" y="271.4886">add(status)</text><polygon fill="#181818" points="340.2,299.1762,333.2,301.9762,340.2,304.7762,337.4,301.9762" style="stroke:#181818;stroke-width:0.6999999999999998;"/><line style="stroke:#181818;stroke-width:0.6999999999999998;stroke-dasharray:2.0,2.0;" x1="336" x2="427.35" y1="301.9762" y2="301.9762"/><text fill="#000000" font-family="sans-serif" font-size="9.1" font-weight="bold" lengthAdjust="spacing" textLength="12.6" x="344.4" y="298.2923">7.8</text><text fill="#000000" font-family="sans-serif" font-size="9.1" lengthAdjust="spacing" textLength="39.9" x="359.8" y="298.2923">statusList</text><polygon fill="#181818" points="95.2,321.0799,88.2,323.8799,95.2,326.6799,92.4,323.8799" style="stroke:#181818;stroke-width:0.6999999999999998;"/><line style="stroke:#181818;stroke-width:0.6999999999999998;stroke-dasharray:2.0,2.0;" x1="91" x2="328.3" y1="323.8799" y2="323.8799"/><text fill="#000000" font-family="sans-serif" font-size="9.1" font-weight="bold" lengthAdjust="spacing" textLength="12.6" x="99.4" y="320.196">7.9</text><text fill="#000000" font-family="sans-serif" font-size="9.1" lengthAdjust="spacing" textLength="39.9" x="114.8" y="320.196">statusList</text><polygon fill="#181818" points="7.7,347.8836,0.7,350.6836,7.7,353.4836,4.9,350.6836" style="stroke:#181818;stroke-width:0.6999999999999998;"/><line style="stroke:#181818;stroke-width:0.6999999999999998;stroke-dasharray:2.0,2.0;" x1="3.5" x2="83.3" y1="350.6836" y2="350.6836"/><text fill="#000000" font-family="sans-serif" font-size="9.1" font-weight="bold" lengthAdjust="spacing" textLength="4.9" x="11.9" y="346.9997">8</text><text fill="#000000" font-family="sans-serif" font-size="9.1" lengthAdjust="spacing" textLength="39.9" x="19.6" y="346.9997">statusList</text><!--SRC=[ZLEzJiCm4Dxz52UcWXGa9b1L8Q6A0Qb3HG8JYqckYTN4ZkmBg6_FnONK3Yx2IwlBztTtjjihtKihE-YCDcLZJOT0Ta3XfY-zBFUonfmEBOB5agIksn3W6bcPJwLhsCdMeH1S9bMgNcg2Y-L6EIgasw-D9clQ5kq5I0VhudapGpvZRvmYOnKwZvaAXroDfcHqJB41uqqd11wtCO4uo4cLAKLKyAGO4_CTIHhSs19pnvzLJfQptNlcvYalykAXUCc5a0Ed7Rftj70hidlVxn9gf7oIM5p6iEiR8KjI7vBmE1xWKripz3o9cWaCUiL6bJn-uJ-EPqG26oI61TxmINDgNIBRGN0cgzIK8sHAEVjkYIt29KIy2l_dCNNmk3qcZfToDZSlDyx9_23NR8_daeKgFqbYAlpUMpBGp302pHJ7cAVRSdN55gL55fbfZwSrfeUTiS2X6pZUG50Qg45m1xuLtIzAoZ4qP3jPLOkZrcMI7dKMNEmv1dKLrGAJB3N9qmiwjv7m5Vqnlkyj9_G2hTHAniJ-J_3sxdnXbMK9sK3Elqhn1G00]--></g></svg>