<?xml version="1.0" encoding="us-ascii" standalone="no"?><svg xmlns="http://www.w3.org/2000/svg" xmlns:xlink="http://www.w3.org/1999/xlink" contentStyleType="text/css" height="564.9px" preserveAspectRatio="none" style="width:1298px;height:564px;background:#FFFFFF;" version="1.1" viewBox="0 0 1298 564" width="1298.5px" zoomAndPan="magnify"><defs/><g><!--cluster UI--><g id="cluster_UI"><path d="M500.15,30.1096 L510.65,30.1096 A2.625,2.625 0 0 1 512.4,31.8596 L517.3,47.3443 L615.65,47.3443 A1.75,1.75 0 0 1 617.4,49.0943 L617.4,99.0596 A1.75,1.75 0 0 1 615.65,100.8096 L500.15,100.8096 A1.75,1.75 0 0 1 498.4,99.0596 L498.4,31.8596 A1.75,1.75 0 0 1 500.15,30.1096 " fill="none" style="stroke:#000000;stroke-width:1.0499999999999998;"/><line style="stroke:#000000;stroke-width:1.0499999999999998;" x1="498.4" x2="517.3" y1="47.3443" y2="47.3443"/><text fill="#000000" font-family="sans-serif" font-size="9.8" font-weight="bold" lengthAdjust="spacing" textLength="9.8" x="501.2" y="42.0848">UI</text></g><!--cluster Controller--><g id="cluster_Controller"><path d="M635.95,4.2096 L686.35,4.2096 A2.625,2.625 0 0 1 688.1,5.9596 L693,21.4443 L891.45,21.4443 A1.75,1.75 0 0 1 893.2,23.1943 L893.2,124.9596 A1.75,1.75 0 0 1 891.45,126.7096 L635.95,126.7096 A1.75,1.75 0 0 1 634.2,124.9596 L634.2,5.9596 A1.75,1.75 0 0 1 635.95,4.2096 " fill="none" style="stroke:#000000;stroke-width:1.0499999999999998;"/><line style="stroke:#000000;stroke-width:1.0499999999999998;" x1="634.2" x2="693" y1="21.4443" y2="21.4443"/><text fill="#000000" font-family="sans-serif" font-size="9.8" font-weight="bold" lengthAdjust="spacing" textLength="49.7" x="637" y="16.1848">Controller</text></g><!--cluster Domain--><g id="cluster_Domain"><path d="M5.95,162.4096 L43.05,162.4096 A2.625,2.625 0 0 1 44.8,164.1596 L49.7,179.6443 L1291.85,179.6443 A1.75,1.75 0 0 1 1293.6,181.3943 L1293.6,558.2596 A1.75,1.75 0 0 1 1291.85,560.0096 L5.95,560.0096 A1.75,1.75 0 0 1 4.2,558.2596 L4.2,164.1596 A1.75,1.75 0 0 1 5.95,162.4096 " fill="none" style="stroke:#000000;stroke-width:1.0499999999999998;"/><line style="stroke:#000000;stroke-width:1.0499999999999998;" x1="4.2" x2="49.7" y1="179.6443" y2="179.6443"/><text fill="#000000" font-family="sans-serif" font-size="9.8" font-weight="bold" lengthAdjust="spacing" textLength="36.4" x="7" y="174.3848">Domain</text></g><!--cluster Repository--><g id="cluster_Repository"><path d="M241.15,193.9096 L295.05,193.9096 A2.625,2.625 0 0 1 296.8,195.6596 L301.7,211.1443 L1275.05,211.1443 A1.75,1.75 0 0 1 1276.8,212.8943 L1276.8,518.0096 A1.75,1.75 0 0 1 1275.05,519.7596 L241.15,519.7596 A1.75,1.75 0 0 1 239.4,518.0096 L239.4,195.6596 A1.75,1.75 0 0 1 241.15,193.9096 " fill="none" style="stroke:#000000;stroke-width:1.0499999999999998;"/><line style="stroke:#000000;stroke-width:1.0499999999999998;" x1="239.4" x2="301.7" y1="211.1443" y2="211.1443"/><text fill="#000000" font-family="sans-serif" font-size="9.8" font-weight="bold" lengthAdjust="spacing" textLength="53.2" x="242.2" y="205.8848">Repository</text></g><!--cluster Mapper--><g id="cluster_Mapper"><path d="M22.75,220.1596 L61.25,220.1596 A2.625,2.625 0 0 1 63,221.9096 L67.9,237.3943 L220.85,237.3943 A1.75,1.75 0 0 1 222.6,239.1443 L222.6,541.4596 A1.75,1.75 0 0 1 220.85,543.2096 L22.75,543.2096 A1.75,1.75 0 0 1 21,541.4596 L21,221.9096 A1.75,1.75 0 0 1 22.75,220.1596 " fill="none" style="stroke:#000000;stroke-width:1.0499999999999998;"/><line style="stroke:#000000;stroke-width:1.0499999999999998;" x1="21" x2="67.9" y1="237.3943" y2="237.3943"/><text fill="#000000" font-family="sans-serif" font-size="9.8" font-weight="bold" lengthAdjust="spacing" textLength="37.8" x="23.8" y="232.1348">Mapper</text></g><!--cluster DTO--><g id="cluster_DTO"><path d="M57.75,377.3096 L78.75,377.3096 A2.625,2.625 0 0 1 80.5,379.0596 L85.4,394.5443 L185.85,394.5443 A1.75,1.75 0 0 1 187.6,396.2943 L187.6,524.6596 A1.75,1.75 0 0 1 185.85,526.4096 L57.75,526.4096 A1.75,1.75 0 0 1 56,524.6596 L56,379.0596 A1.75,1.75 0 0 1 57.75,377.3096 " fill="none" style="stroke:#000000;stroke-width:1.0499999999999998;"/><line style="stroke:#000000;stroke-width:1.0499999999999998;" x1="56" x2="85.4" y1="394.5443" y2="394.5443"/><text fill="#000000" font-family="sans-serif" font-size="9.8" font-weight="bold" lengthAdjust="spacing" textLength="20.3" x="58.8" y="389.2848">DTO</text></g><!--class UserInterface--><g id="elem_UserInterface"><rect codeLine="7" fill="#F1F1F1" height="33.6" id="UserInterface" rx="1.75" ry="1.75" style="stroke:#181818;stroke-width:0.3499999999999999;" width="95.9" x="509.95" y="56.0096"/><ellipse cx="520.45" cy="67.2096" fill="#ADD1B2" rx="7.7" ry="7.7" style="stroke:#181818;stroke-width:0.6999999999999998;"/><path d="M522.3859,64.3221 Q522.4953,64.1689 522.6266,64.0924 Q522.7578,64.0158 522.9109,64.0158 Q523.1734,64.0158 523.3375,64.2018 Q523.5016,64.3768 523.5016,64.8033 L523.5016,65.8205 Q523.5016,66.2471 523.3375,66.433 Q523.1734,66.6189 522.9109,66.6189 Q522.6703,66.6189 522.5281,66.4768 Q522.3859,66.3455 522.3094,65.9846 Q522.2766,65.733 522.1453,65.6018 Q521.9156,65.3393 521.4891,65.1861 Q521.0625,65.033 520.625,65.033 Q520.0891,65.033 519.6406,65.2627 Q519.2031,65.4924 518.8531,66.0174 Q518.5141,66.5424 518.5141,67.2643 L518.5141,68.0299 Q518.5141,68.8939 519.1375,69.4736 Q519.7609,70.0424 520.8766,70.0424 Q521.5328,70.0424 521.9922,69.8674 Q522.2656,69.758 522.5609,69.4518 Q522.7469,69.2658 522.8453,69.2111 Q522.9547,69.1564 523.0969,69.1564 Q523.3266,69.1564 523.5016,69.3424 Q523.6875,69.5174 523.6875,69.758 Q523.6875,69.9986 523.4469,70.283 Q523.0969,70.6877 522.5391,70.9174 Q521.7844,71.2346 520.8766,71.2346 Q519.8156,71.2346 518.9734,70.7971 Q518.2844,70.4471 517.8031,69.7033 Q517.3219,68.9486 517.3219,68.0518 L517.3219,67.2424 Q517.3219,66.3127 517.7484,65.5143 Q518.1859,64.7049 518.9516,64.2783 Q519.7172,63.8408 520.5812,63.8408 Q521.0953,63.8408 521.5437,63.9611 Q522.0031,64.0705 522.3859,64.3221 Z " fill="#000000"/><text fill="#000000" font-family="sans-serif" font-size="9.8" lengthAdjust="spacing" textLength="73.5" x="530.25" y="71.2674">ListTaskSpaceUI</text><line style="stroke:#181818;stroke-width:0.3499999999999999;" x1="510.65" x2="605.15" y1="78.4096" y2="78.4096"/><line style="stroke:#181818;stroke-width:0.3499999999999999;" x1="510.65" x2="605.15" y1="84.0096" y2="84.0096"/></g><!--class CTRL--><g id="elem_CTRL"><rect codeLine="11" fill="#F1F1F1" height="85.7391" id="CTRL" rx="1.75" ry="1.75" style="stroke:#181818;stroke-width:0.3499999999999999;" width="235.9" x="645.75" y="30.1096"/><ellipse cx="720.475" cy="41.3096" fill="#ADD1B2" rx="7.7" ry="7.7" style="stroke:#181818;stroke-width:0.6999999999999998;"/><path d="M722.4109,38.4221 Q722.5203,38.2689 722.6516,38.1924 Q722.7828,38.1158 722.9359,38.1158 Q723.1984,38.1158 723.3625,38.3018 Q723.5266,38.4768 723.5266,38.9033 L723.5266,39.9205 Q723.5266,40.3471 723.3625,40.533 Q723.1984,40.7189 722.9359,40.7189 Q722.6953,40.7189 722.5531,40.5768 Q722.4109,40.4455 722.3344,40.0846 Q722.3016,39.833 722.1703,39.7018 Q721.9406,39.4393 721.5141,39.2861 Q721.0875,39.133 720.65,39.133 Q720.1141,39.133 719.6656,39.3627 Q719.2281,39.5924 718.8781,40.1174 Q718.5391,40.6424 718.5391,41.3643 L718.5391,42.1299 Q718.5391,42.9939 719.1625,43.5736 Q719.7859,44.1424 720.9016,44.1424 Q721.5578,44.1424 722.0172,43.9674 Q722.2906,43.858 722.5859,43.5518 Q722.7719,43.3658 722.8703,43.3111 Q722.9797,43.2564 723.1219,43.2564 Q723.3516,43.2564 723.5266,43.4424 Q723.7125,43.6174 723.7125,43.858 Q723.7125,44.0986 723.4719,44.383 Q723.1219,44.7877 722.5641,45.0174 Q721.8094,45.3346 720.9016,45.3346 Q719.8406,45.3346 718.9984,44.8971 Q718.3094,44.5471 717.8281,43.8033 Q717.3469,43.0486 717.3469,42.1518 L717.3469,41.3424 Q717.3469,40.4127 717.7734,39.6143 Q718.2109,38.8049 718.9766,38.3783 Q719.7422,37.9408 720.6062,37.9408 Q721.1203,37.9408 721.5687,38.0611 Q722.0281,38.1705 722.4109,38.4221 Z " fill="#000000"/><text fill="#000000" font-family="sans-serif" font-size="9.8" lengthAdjust="spacing" textLength="80.5" x="734.825" y="45.3674">ListTaskController</text><line style="stroke:#181818;stroke-width:0.3499999999999999;" x1="646.45" x2="880.95" y1="52.5096" y2="52.5096"/><line style="stroke:#181818;stroke-width:0.3499999999999999;" x1="646.45" x2="880.95" y1="58.1096" y2="58.1096"/><text fill="#000000" font-family="sans-serif" font-size="9.8" lengthAdjust="spacing" textLength="40.6" x="649.95" y="71.4848">+create()</text><text fill="#000000" font-family="sans-serif" font-size="9.8" lengthAdjust="spacing" textLength="162.4" x="649.95" y="84.5195">+getCollaboratorThoughEmail(email)</text><text fill="#000000" font-family="sans-serif" font-size="9.8" lengthAdjust="spacing" textLength="70" x="649.95" y="97.5543">+getStatusList()</text><text fill="#000000" font-family="sans-serif" font-size="9.8" lengthAdjust="spacing" textLength="227.5" x="649.95" y="110.5891">+getTaskList(collaborator, dateI, dateF, typeStatus)</text></g><!--class RepositorySingleton--><g id="elem_RepositorySingleton"><rect codeLine="21" fill="#F1F1F1" height="111.8086" id="RepositorySingleton" rx="1.75" ry="1.75" style="stroke:#181818;stroke-width:0.3499999999999999;" width="245" x="336.7" y="219.8096"/><ellipse cx="428.575" cy="231.0096" fill="#ADD1B2" rx="7.7" ry="7.7" style="stroke:#181818;stroke-width:0.6999999999999998;"/><path d="M430.5109,228.1221 Q430.6203,227.9689 430.7516,227.8924 Q430.8828,227.8158 431.0359,227.8158 Q431.2984,227.8158 431.4625,228.0018 Q431.6266,228.1768 431.6266,228.6033 L431.6266,229.6205 Q431.6266,230.0471 431.4625,230.233 Q431.2984,230.4189 431.0359,230.4189 Q430.7953,230.4189 430.6531,230.2768 Q430.5109,230.1455 430.4344,229.7846 Q430.4016,229.533 430.2703,229.4018 Q430.0406,229.1393 429.6141,228.9861 Q429.1875,228.833 428.75,228.833 Q428.2141,228.833 427.7656,229.0627 Q427.3281,229.2924 426.9781,229.8174 Q426.6391,230.3424 426.6391,231.0643 L426.6391,231.8299 Q426.6391,232.6939 427.2625,233.2736 Q427.8859,233.8424 429.0016,233.8424 Q429.6578,233.8424 430.1172,233.6674 Q430.3906,233.558 430.6859,233.2518 Q430.8719,233.0658 430.9703,233.0111 Q431.0797,232.9564 431.2219,232.9564 Q431.4516,232.9564 431.6266,233.1424 Q431.8125,233.3174 431.8125,233.558 Q431.8125,233.7986 431.5719,234.083 Q431.2219,234.4877 430.6641,234.7174 Q429.9094,235.0346 429.0016,235.0346 Q427.9406,235.0346 427.0984,234.5971 Q426.4094,234.2471 425.9281,233.5033 Q425.4469,232.7486 425.4469,231.8518 L425.4469,231.0424 Q425.4469,230.1127 425.8734,229.3143 Q426.3109,228.5049 427.0766,228.0783 Q427.8422,227.6408 428.7062,227.6408 Q429.2203,227.6408 429.6687,227.7611 Q430.1281,227.8705 430.5109,228.1221 Z " fill="#000000"/><text fill="#000000" font-family="sans-serif" font-size="9.8" lengthAdjust="spacing" textLength="55.3" x="442.925" y="235.0674">Repositories</text><line style="stroke:#181818;stroke-width:0.3499999999999999;" x1="337.4" x2="581" y1="242.2096" y2="242.2096"/><line style="stroke:#181818;stroke-width:0.3499999999999999;" x1="337.4" x2="581" y1="247.8096" y2="247.8096"/><text fill="#000000" font-family="sans-serif" font-size="9.8" lengthAdjust="spacing" textLength="65.8" x="340.9" y="261.1848">-Repositories()</text><text fill="#000000" font-family="sans-serif" font-size="9.8" lengthAdjust="spacing" textLength="124.6" x="340.9" y="274.2195">+getInstance(): Repositories</text><text fill="#000000" font-family="sans-serif" font-size="9.8" lengthAdjust="spacing" textLength="236.6" x="340.9" y="287.2543">+getCollaboratorRepository(): CollaboratorRepository</text><text fill="#000000" font-family="sans-serif" font-size="9.8" lengthAdjust="spacing" textLength="170.8" x="340.9" y="300.2891">+getTaskRepository(): TaskRepository</text><text fill="#000000" font-family="sans-serif" font-size="9.8" lengthAdjust="spacing" textLength="177.8" x="340.9" y="313.3238">+getTeamRepository(): TeamRepository</text><text fill="#000000" font-family="sans-serif" font-size="9.8" lengthAdjust="spacing" textLength="100.8" x="340.9" y="326.3586">+getAgenda(): Agenda</text></g><!--class collaboratorRepository--><g id="elem_collaboratorRepository"><rect codeLine="30" fill="#F1F1F1" height="46.6348" id="collaboratorRepository" rx="1.75" ry="1.75" style="stroke:#181818;stroke-width:0.3499999999999999;" width="170.8" x="250.6" y="435.7596"/><ellipse cx="281.925" cy="446.9596" fill="#ADD1B2" rx="7.7" ry="7.7" style="stroke:#181818;stroke-width:0.6999999999999998;"/><path d="M283.8609,444.0721 Q283.9703,443.9189 284.1016,443.8424 Q284.2328,443.7658 284.3859,443.7658 Q284.6484,443.7658 284.8125,443.9518 Q284.9766,444.1268 284.9766,444.5533 L284.9766,445.5705 Q284.9766,445.9971 284.8125,446.183 Q284.6484,446.3689 284.3859,446.3689 Q284.1453,446.3689 284.0031,446.2268 Q283.8609,446.0955 283.7844,445.7346 Q283.7516,445.483 283.6203,445.3518 Q283.3906,445.0893 282.9641,444.9361 Q282.5375,444.783 282.1,444.783 Q281.5641,444.783 281.1156,445.0127 Q280.6781,445.2424 280.3281,445.7674 Q279.9891,446.2924 279.9891,447.0143 L279.9891,447.7799 Q279.9891,448.6439 280.6125,449.2236 Q281.2359,449.7924 282.3516,449.7924 Q283.0078,449.7924 283.4672,449.6174 Q283.7406,449.508 284.0359,449.2018 Q284.2219,449.0158 284.3203,448.9611 Q284.4297,448.9064 284.5719,448.9064 Q284.8016,448.9064 284.9766,449.0924 Q285.1625,449.2674 285.1625,449.508 Q285.1625,449.7486 284.9219,450.033 Q284.5719,450.4377 284.0141,450.6674 Q283.2594,450.9846 282.3516,450.9846 Q281.2906,450.9846 280.4484,450.5471 Q279.7594,450.1971 279.2781,449.4533 Q278.7969,448.6986 278.7969,447.8018 L278.7969,446.9924 Q278.7969,446.0627 279.2234,445.2643 Q279.6609,444.4549 280.4266,444.0283 Q281.1922,443.5908 282.0562,443.5908 Q282.5703,443.5908 283.0187,443.7111 Q283.4781,443.8205 283.8609,444.0721 Z " fill="#000000"/><text fill="#000000" font-family="sans-serif" font-size="9.8" lengthAdjust="spacing" textLength="102.2" x="296.275" y="451.0174">CollaboratorRepository</text><line style="stroke:#181818;stroke-width:0.3499999999999999;" x1="251.3" x2="420.7" y1="458.1596" y2="458.1596"/><line style="stroke:#181818;stroke-width:0.3499999999999999;" x1="251.3" x2="420.7" y1="463.7596" y2="463.7596"/><text fill="#000000" font-family="sans-serif" font-size="9.8" lengthAdjust="spacing" textLength="162.4" x="254.8" y="477.1348">+getCollaboratorThoughEmail(email)</text></g><!--class taskRepository--><g id="elem_taskRepository"><rect codeLine="34" fill="#F1F1F1" height="98.7738" id="taskRepository" rx="1.75" ry="1.75" style="stroke:#181818;stroke-width:0.3499999999999999;" width="220.5" x="446.25" y="409.8596"/><ellipse cx="518.875" cy="421.0596" fill="#ADD1B2" rx="7.7" ry="7.7" style="stroke:#181818;stroke-width:0.6999999999999998;"/><path d="M520.8109,418.1721 Q520.9203,418.0189 521.0516,417.9424 Q521.1828,417.8658 521.3359,417.8658 Q521.5984,417.8658 521.7625,418.0518 Q521.9266,418.2268 521.9266,418.6533 L521.9266,419.6705 Q521.9266,420.0971 521.7625,420.283 Q521.5984,420.4689 521.3359,420.4689 Q521.0953,420.4689 520.9531,420.3268 Q520.8109,420.1955 520.7344,419.8346 Q520.7016,419.583 520.5703,419.4518 Q520.3406,419.1893 519.9141,419.0361 Q519.4875,418.883 519.05,418.883 Q518.5141,418.883 518.0656,419.1127 Q517.6281,419.3424 517.2781,419.8674 Q516.9391,420.3924 516.9391,421.1143 L516.9391,421.8799 Q516.9391,422.7439 517.5625,423.3236 Q518.1859,423.8924 519.3016,423.8924 Q519.9578,423.8924 520.4172,423.7174 Q520.6906,423.608 520.9859,423.3018 Q521.1719,423.1158 521.2703,423.0611 Q521.3797,423.0064 521.5219,423.0064 Q521.7516,423.0064 521.9266,423.1924 Q522.1125,423.3674 522.1125,423.608 Q522.1125,423.8486 521.8719,424.133 Q521.5219,424.5377 520.9641,424.7674 Q520.2094,425.0846 519.3016,425.0846 Q518.2406,425.0846 517.3984,424.6471 Q516.7094,424.2971 516.2281,423.5533 Q515.7469,422.7986 515.7469,421.9018 L515.7469,421.0924 Q515.7469,420.1627 516.1734,419.3643 Q516.6109,418.5549 517.3766,418.1283 Q518.1422,417.6908 519.0062,417.6908 Q519.5203,417.6908 519.9687,417.8111 Q520.4281,417.9205 520.8109,418.1721 Z " fill="#000000"/><text fill="#000000" font-family="sans-serif" font-size="9.8" lengthAdjust="spacing" textLength="69.3" x="533.225" y="425.1174">TaskRepository</text><line style="stroke:#181818;stroke-width:0.3499999999999999;" x1="446.95" x2="666.05" y1="432.2596" y2="432.2596"/><text fill="#000000" font-family="sans-serif" font-size="9.8" lengthAdjust="spacing" textLength="88.2" x="450.45" y="445.6348">-List&lt;Task&gt; taskList</text><text fill="#000000" font-family="sans-serif" font-size="9.8" lengthAdjust="spacing" textLength="100.8" x="450.45" y="458.6695">-List&lt;String&gt; statusList</text><line style="stroke:#181818;stroke-width:0.3499999999999999;" x1="446.95" x2="666.05" y1="463.9291" y2="463.9291"/><text fill="#000000" font-family="sans-serif" font-size="9.8" lengthAdjust="spacing" textLength="70" x="450.45" y="477.3043">+getStatusList()</text><text fill="#000000" font-family="sans-serif" font-size="9.8" lengthAdjust="spacing" textLength="212.1" x="450.45" y="490.3391">+getTaskList(teamList, dateI, dateF, typeStatus)</text><text fill="#000000" font-family="sans-serif" font-size="9.8" lengthAdjust="spacing" textLength="134.4" x="450.45" y="503.3738">+addTaskOfCollaborator(task)</text></g><!--class teamRepository--><g id="elem_teamRepository"><rect codeLine="42" fill="#F1F1F1" height="46.6348" id="teamRepository" rx="1.75" ry="1.75" style="stroke:#181818;stroke-width:0.3499999999999999;" width="263.9" x="691.25" y="435.7596"/><ellipse cx="783.825" cy="446.9596" fill="#ADD1B2" rx="7.7" ry="7.7" style="stroke:#181818;stroke-width:0.6999999999999998;"/><path d="M785.7609,444.0721 Q785.8703,443.9189 786.0016,443.8424 Q786.1328,443.7658 786.2859,443.7658 Q786.5484,443.7658 786.7125,443.9518 Q786.8766,444.1268 786.8766,444.5533 L786.8766,445.5705 Q786.8766,445.9971 786.7125,446.183 Q786.5484,446.3689 786.2859,446.3689 Q786.0453,446.3689 785.9031,446.2268 Q785.7609,446.0955 785.6844,445.7346 Q785.6516,445.483 785.5203,445.3518 Q785.2906,445.0893 784.8641,444.9361 Q784.4375,444.783 784,444.783 Q783.4641,444.783 783.0156,445.0127 Q782.5781,445.2424 782.2281,445.7674 Q781.8891,446.2924 781.8891,447.0143 L781.8891,447.7799 Q781.8891,448.6439 782.5125,449.2236 Q783.1359,449.7924 784.2516,449.7924 Q784.9078,449.7924 785.3672,449.6174 Q785.6406,449.508 785.9359,449.2018 Q786.1219,449.0158 786.2203,448.9611 Q786.3297,448.9064 786.4719,448.9064 Q786.7016,448.9064 786.8766,449.0924 Q787.0625,449.2674 787.0625,449.508 Q787.0625,449.7486 786.8219,450.033 Q786.4719,450.4377 785.9141,450.6674 Q785.1594,450.9846 784.2516,450.9846 Q783.1906,450.9846 782.3484,450.5471 Q781.6594,450.1971 781.1781,449.4533 Q780.6969,448.6986 780.6969,447.8018 L780.6969,446.9924 Q780.6969,446.0627 781.1234,445.2643 Q781.5609,444.4549 782.3266,444.0283 Q783.0922,443.5908 783.9562,443.5908 Q784.4703,443.5908 784.9187,443.7111 Q785.3781,443.8205 785.7609,444.0721 Z " fill="#000000"/><text fill="#000000" font-family="sans-serif" font-size="9.8" lengthAdjust="spacing" textLength="72.8" x="798.175" y="451.0174">TeamRepository</text><line style="stroke:#181818;stroke-width:0.3499999999999999;" x1="691.95" x2="954.45" y1="458.1596" y2="458.1596"/><line style="stroke:#181818;stroke-width:0.3499999999999999;" x1="691.95" x2="954.45" y1="463.7596" y2="463.7596"/><text fill="#000000" font-family="sans-serif" font-size="9.8" lengthAdjust="spacing" textLength="255.5" x="695.45" y="477.1348">+getTeamsThoughCollaborator(collaborator): List&lt;Team&gt;</text></g><!--class agenda--><g id="elem_agenda"><rect codeLine="46" fill="#F1F1F1" height="46.6348" id="agenda" rx="1.75" ry="1.75" style="stroke:#181818;stroke-width:0.3499999999999999;" width="285.6" x="980" y="435.7596"/><ellipse cx="1102.675" cy="446.9596" fill="#ADD1B2" rx="7.7" ry="7.7" style="stroke:#181818;stroke-width:0.6999999999999998;"/><path d="M1104.6109,444.0721 Q1104.7203,443.9189 1104.8516,443.8424 Q1104.9828,443.7658 1105.1359,443.7658 Q1105.3984,443.7658 1105.5625,443.9518 Q1105.7266,444.1268 1105.7266,444.5533 L1105.7266,445.5705 Q1105.7266,445.9971 1105.5625,446.183 Q1105.3984,446.3689 1105.1359,446.3689 Q1104.8953,446.3689 1104.7531,446.2268 Q1104.6109,446.0955 1104.5344,445.7346 Q1104.5016,445.483 1104.3703,445.3518 Q1104.1406,445.0893 1103.7141,444.9361 Q1103.2875,444.783 1102.85,444.783 Q1102.3141,444.783 1101.8656,445.0127 Q1101.4281,445.2424 1101.0781,445.7674 Q1100.7391,446.2924 1100.7391,447.0143 L1100.7391,447.7799 Q1100.7391,448.6439 1101.3625,449.2236 Q1101.9859,449.7924 1103.1016,449.7924 Q1103.7578,449.7924 1104.2172,449.6174 Q1104.4906,449.508 1104.7859,449.2018 Q1104.9719,449.0158 1105.0703,448.9611 Q1105.1797,448.9064 1105.3219,448.9064 Q1105.5516,448.9064 1105.7266,449.0924 Q1105.9125,449.2674 1105.9125,449.508 Q1105.9125,449.7486 1105.6719,450.033 Q1105.3219,450.4377 1104.7641,450.6674 Q1104.0094,450.9846 1103.1016,450.9846 Q1102.0406,450.9846 1101.1984,450.5471 Q1100.5094,450.1971 1100.0281,449.4533 Q1099.5469,448.6986 1099.5469,447.8018 L1099.5469,446.9924 Q1099.5469,446.0627 1099.9734,445.2643 Q1100.4109,444.4549 1101.1766,444.0283 Q1101.9422,443.5908 1102.8062,443.5908 Q1103.3203,443.5908 1103.7687,443.7111 Q1104.2281,443.8205 1104.6109,444.0721 Z " fill="#000000"/><text fill="#000000" font-family="sans-serif" font-size="9.8" lengthAdjust="spacing" textLength="34.3" x="1117.025" y="451.0174">Agenda</text><line style="stroke:#181818;stroke-width:0.3499999999999999;" x1="980.7" x2="1264.9" y1="458.1596" y2="458.1596"/><line style="stroke:#181818;stroke-width:0.3499999999999999;" x1="980.7" x2="1264.9" y1="463.7596" y2="463.7596"/><text fill="#000000" font-family="sans-serif" font-size="9.8" lengthAdjust="spacing" textLength="277.2" x="984.2" y="477.1348">+getCollaboratorAgendaEntries(taskList): List&lt;AgendaEntries&gt;</text></g><!--class MapperDto--><g id="elem_MapperDto"><rect codeLine="51" fill="#F1F1F1" height="59.6695" id="MapperDto" rx="1.75" ry="1.75" style="stroke:#181818;stroke-width:0.3499999999999999;" width="179.2" x="32.2" y="246.0596"/><ellipse cx="90.475" cy="257.2596" fill="#ADD1B2" rx="7.7" ry="7.7" style="stroke:#181818;stroke-width:0.6999999999999998;"/><path d="M92.4109,254.3721 Q92.5203,254.2189 92.6516,254.1424 Q92.7828,254.0658 92.9359,254.0658 Q93.1984,254.0658 93.3625,254.2518 Q93.5266,254.4268 93.5266,254.8533 L93.5266,255.8705 Q93.5266,256.2971 93.3625,256.483 Q93.1984,256.6689 92.9359,256.6689 Q92.6953,256.6689 92.5531,256.5268 Q92.4109,256.3955 92.3344,256.0346 Q92.3016,255.783 92.1703,255.6518 Q91.9406,255.3893 91.5141,255.2361 Q91.0875,255.083 90.65,255.083 Q90.1141,255.083 89.6656,255.3127 Q89.2281,255.5424 88.8781,256.0674 Q88.5391,256.5924 88.5391,257.3143 L88.5391,258.0799 Q88.5391,258.9439 89.1625,259.5236 Q89.7859,260.0924 90.9016,260.0924 Q91.5578,260.0924 92.0172,259.9174 Q92.2906,259.808 92.5859,259.5018 Q92.7719,259.3158 92.8703,259.2611 Q92.9797,259.2064 93.1219,259.2064 Q93.3516,259.2064 93.5266,259.3924 Q93.7125,259.5674 93.7125,259.808 Q93.7125,260.0486 93.4719,260.333 Q93.1219,260.7377 92.5641,260.9674 Q91.8094,261.2846 90.9016,261.2846 Q89.8406,261.2846 88.9984,260.8471 Q88.3094,260.4971 87.8281,259.7533 Q87.3469,258.9986 87.3469,258.1018 L87.3469,257.2924 Q87.3469,256.3627 87.7734,255.5643 Q88.2109,254.7549 88.9766,254.3283 Q89.7422,253.8908 90.6062,253.8908 Q91.1203,253.8908 91.5687,254.0111 Q92.0281,254.1205 92.4109,254.3721 Z " fill="#000000"/><text fill="#000000" font-family="sans-serif" font-size="9.8" lengthAdjust="spacing" textLength="56.7" x="104.825" y="261.3174">EntryMapper</text><line style="stroke:#181818;stroke-width:0.3499999999999999;" x1="32.9" x2="210.7" y1="268.4596" y2="268.4596"/><line style="stroke:#181818;stroke-width:0.3499999999999999;" x1="32.9" x2="210.7" y1="274.0596" y2="274.0596"/><text fill="#000000" font-family="sans-serif" font-size="9.8" lengthAdjust="spacing" textLength="170.8" x="36.4" y="287.4348">+toDTOList(listEntries): List&lt;EntryDto&gt;</text><text fill="#000000" font-family="sans-serif" font-size="9.8" lengthAdjust="spacing" textLength="131.6" x="36.4" y="300.4695">+toDTOEntry(entry): EntryDto</text></g><!--class DataTransferObject--><g id="elem_DataTransferObject"><rect codeLine="56" fill="#F1F1F1" height="111.8086" id="DataTransferObject" rx="1.75" ry="1.75" style="stroke:#181818;stroke-width:0.3499999999999999;" width="109.2" x="67.2" y="403.2096"/><ellipse cx="99.575" cy="414.4096" fill="#ADD1B2" rx="7.7" ry="7.7" style="stroke:#181818;stroke-width:0.6999999999999998;"/><path d="M101.5109,411.5221 Q101.6203,411.3689 101.7516,411.2924 Q101.8828,411.2158 102.0359,411.2158 Q102.2984,411.2158 102.4625,411.4018 Q102.6266,411.5768 102.6266,412.0033 L102.6266,413.0205 Q102.6266,413.4471 102.4625,413.633 Q102.2984,413.8189 102.0359,413.8189 Q101.7953,413.8189 101.6531,413.6768 Q101.5109,413.5455 101.4344,413.1846 Q101.4016,412.933 101.2703,412.8018 Q101.0406,412.5393 100.6141,412.3861 Q100.1875,412.233 99.75,412.233 Q99.2141,412.233 98.7656,412.4627 Q98.3281,412.6924 97.9781,413.2174 Q97.6391,413.7424 97.6391,414.4643 L97.6391,415.2299 Q97.6391,416.0939 98.2625,416.6736 Q98.8859,417.2424 100.0016,417.2424 Q100.6578,417.2424 101.1172,417.0674 Q101.3906,416.958 101.6859,416.6518 Q101.8719,416.4658 101.9703,416.4111 Q102.0797,416.3564 102.2219,416.3564 Q102.4516,416.3564 102.6266,416.5424 Q102.8125,416.7174 102.8125,416.958 Q102.8125,417.1986 102.5719,417.483 Q102.2219,417.8877 101.6641,418.1174 Q100.9094,418.4346 100.0016,418.4346 Q98.9406,418.4346 98.0984,417.9971 Q97.4094,417.6471 96.9281,416.9033 Q96.4469,416.1486 96.4469,415.2518 L96.4469,414.4424 Q96.4469,413.5127 96.8734,412.7143 Q97.3109,411.9049 98.0766,411.4783 Q98.8422,411.0408 99.7062,411.0408 Q100.2203,411.0408 100.6687,411.1611 Q101.1281,411.2705 101.5109,411.5221 Z " fill="#000000"/><text fill="#000000" font-family="sans-serif" font-size="9.8" lengthAdjust="spacing" textLength="38.5" x="113.925" y="418.4674">EntryDto</text><line style="stroke:#181818;stroke-width:0.3499999999999999;" x1="67.9" x2="175.7" y1="425.6096" y2="425.6096"/><text fill="#000000" font-family="sans-serif" font-size="9.8" lengthAdjust="spacing" textLength="53.2" x="71.4" y="438.9848">-Team team</text><text fill="#000000" font-family="sans-serif" font-size="9.8" lengthAdjust="spacing" textLength="100.8" x="71.4" y="452.0195">-List&lt;Vehicle&gt; vehicles</text><text fill="#000000" font-family="sans-serif" font-size="9.8" lengthAdjust="spacing" textLength="49" x="71.4" y="465.0543">-Date dateI</text><text fill="#000000" font-family="sans-serif" font-size="9.8" lengthAdjust="spacing" textLength="53.2" x="71.4" y="478.0891">-Date dateF</text><text fill="#000000" font-family="sans-serif" font-size="9.8" lengthAdjust="spacing" textLength="58.8" x="71.4" y="491.1238">-String status</text><line style="stroke:#181818;stroke-width:0.3499999999999999;" x1="67.9" x2="175.7" y1="496.3834" y2="496.3834"/><text fill="#000000" font-family="sans-serif" font-size="9.8" lengthAdjust="spacing" textLength="73.5" x="71.4" y="509.7586">+EntryDto(entry)</text></g><!--link UserInterface to CTRL--><g id="link_UserInterface_CTRL"><path codeLine="68" d="M605.92,72.8096 C617.449,72.8096 626.5,72.8096 626.5,72.8096 C626.5,72.8096 630.588,72.8096 641.41,72.8096 " fill="none" id="UserInterface-to-CTRL" style="stroke:#181818;stroke-width:0.6999999999999998;stroke-dasharray:7.0,7.0;"/><polygon fill="#181818" points="645.61,72.8096,639.31,70.0096,642.11,72.8096,639.31,75.6096,645.61,72.8096" style="stroke:#181818;stroke-width:0.6999999999999998;"/></g><!--link CTRL to RepositorySingleton--><g id="link_CTRL_RepositorySingleton"><path codeLine="69" d="M669.529,115.5656 C642.166,127.7876 619.5,137.9096 619.5,137.9096 C619.5,137.9096 571.6191,178.8939 527.1271,216.9669 " fill="none" id="CTRL-to-RepositorySingleton" style="stroke:#181818;stroke-width:0.6999999999999998;stroke-dasharray:7.0,7.0;"/><polygon fill="#181818" points="523.936,219.6976,530.5431,217.7289,526.5953,217.422,526.9022,213.4741,523.936,219.6976" style="stroke:#181818;stroke-width:0.6999999999999998;"/><text fill="#000000" font-family="sans-serif" font-size="9.1" lengthAdjust="spacing" textLength="46.9" x="620.2" y="148.4294">repositories</text></g><!--link RepositorySingleton to RepositorySingleton--><g id="link_RepositorySingleton_RepositorySingleton"><path codeLine="70" d="M581.973,262.5026 C596.631,264.9176 606.2,269.3556 606.2,275.8096 C606.2,282.2636 600.7751,286.0188 586.1171,288.4338 " fill="none" id="RepositorySingleton-to-RepositorySingleton" style="stroke:#181818;stroke-width:0.6999999999999998;"/><polygon fill="#181818" points="581.973,289.1166,588.6444,290.8552,585.4264,288.5476,587.734,285.3297,581.973,289.1166" style="stroke:#181818;stroke-width:0.6999999999999998;"/><text fill="#000000" font-family="sans-serif" font-size="9.1" lengthAdjust="spacing" textLength="34.3" x="610.4" y="279.6794">instance</text></g><!--link CTRL to collaboratorRepository--><g id="link_CTRL_collaboratorRepository"><path codeLine="71" d="M724.395,115.6496 C705.124,136.3066 686,156.8096 686,156.8096 C686,156.8096 670.6,366.1096 670.6,366.1096 C670.6,366.1096 434,371.7096 434,371.7096 C434,371.7096 393.926,407.2008 364.89,432.9188 " fill="none" id="CTRL-to-collaboratorRepository" style="stroke:#181818;stroke-width:0.6999999999999998;stroke-dasharray:7.0,7.0;"/><polygon fill="#181818" points="361.746,435.7036,368.3186,433.6224,364.366,433.3829,364.6056,429.4304,361.746,435.7036" style="stroke:#181818;stroke-width:0.6999999999999998;"/><text fill="#000000" font-family="sans-serif" font-size="9.1" lengthAdjust="spacing" textLength="104.3" x="686.7" y="279.6794">getCollaboratorRepository</text></g><!--link CTRL to taskRepository--><g id="link_CTRL_taskRepository"><path codeLine="72" d="M780.696,115.6496 C789.033,136.3066 797.3,156.8096 797.3,156.8096 C797.3,156.8096 797.3,331.8096 797.3,331.8096 C797.3,331.8096 704.2,366.1096 704.2,366.1096 C704.2,366.1096 679,371.7096 679,371.7096 C679,371.7096 656.6177,387.5651 628.6947,407.3541 " fill="none" id="CTRL-to-taskRepository" style="stroke:#181818;stroke-width:0.6999999999999998;stroke-dasharray:7.0,7.0;"/><polygon fill="#181818" points="625.268,409.7826,632.0271,408.4243,628.1236,407.7588,628.7891,403.8553,625.268,409.7826" style="stroke:#181818;stroke-width:0.6999999999999998;"/><text fill="#000000" font-family="sans-serif" font-size="9.1" lengthAdjust="spacing" textLength="75.6" x="798" y="279.6794">getTaskRepository</text></g><!--link CTRL to teamRepository--><g id="link_CTRL_teamRepository"><path codeLine="73" d="M844.2,115.5236 C883.869,136.2296 923.3,156.8096 923.3,156.8096 C923.3,156.8096 923.3,331.8096 923.3,331.8096 C923.3,331.8096 872.7733,395.7557 843.9333,432.2677 " fill="none" id="CTRL-to-teamRepository" style="stroke:#181818;stroke-width:0.6999999999999998;stroke-dasharray:7.0,7.0;"/><polygon fill="#181818" points="841.33,435.5636,847.4322,432.3553,843.4994,432.817,843.0377,428.8842,841.33,435.5636" style="stroke:#181818;stroke-width:0.6999999999999998;"/><text fill="#000000" font-family="sans-serif" font-size="9.1" lengthAdjust="spacing" textLength="78.4" x="924" y="279.6794">getTeamRepository</text></g><!--link CTRL to agenda--><g id="link_CTRL_agenda"><path codeLine="74" d="M881.713,113.6336 C944.426,134.9556 1008.7,156.8096 1008.7,156.8096 C1008.7,156.8096 1086.0206,361.25 1112.6416,431.656 " fill="none" id="CTRL-to-agenda" style="stroke:#181818;stroke-width:0.6999999999999998;stroke-dasharray:7.0,7.0;"/><polygon fill="#181818" points="1114.127,435.5846,1114.5179,428.7015,1112.8892,432.3108,1109.2798,430.682,1114.127,435.5846" style="stroke:#181818;stroke-width:0.6999999999999998;"/><text fill="#000000" font-family="sans-serif" font-size="9.1" lengthAdjust="spacing" textLength="43.4" x="1073.8" y="279.6794">getAgenda</text></g><!--link CTRL to MapperDto--><g id="link_CTRL_MapperDto"><path codeLine="75" d="M659.127,115.5376 C635.586,125.0016 617.4,132.3096 617.4,132.3096 C617.4,132.3096 239.4,156.8096 239.4,156.8096 C239.4,156.8096 188.6572,207.8571 153.8322,242.8851 " fill="none" id="CTRL-to-MapperDto" style="stroke:#181818;stroke-width:0.6999999999999998;stroke-dasharray:7.0,7.0;"/><polygon fill="#181818" points="150.871,245.8636,157.2985,243.37,153.3387,243.3815,153.3272,239.4217,150.871,245.8636" style="stroke:#181818;stroke-width:0.6999999999999998;"/><text fill="#000000" font-family="sans-serif" font-size="9.1" lengthAdjust="spacing" textLength="40.6" x="526.4" y="148.4294">toDTOList</text></g><!--link MapperDto to DataTransferObject--><g id="link_MapperDto_DataTransferObject"><path codeLine="76" d="M121.8,305.7486 C121.8,331.9286 121.8,366.8096 121.8,398.8906 " fill="none" id="MapperDto-to-DataTransferObject" style="stroke:#181818;stroke-width:0.6999999999999998;"/><polygon fill="#181818" points="121.8,403.0906,124.6,396.7906,121.8,399.5906,119,396.7906,121.8,403.0906" style="stroke:#181818;stroke-width:0.6999999999999998;"/><text fill="#000000" font-family="sans-serif" font-size="9.1" lengthAdjust="spacing" textLength="27.3" x="122.5" y="363.3294">entries</text><text fill="#000000" font-family="sans-serif" font-size="9.1" lengthAdjust="spacing" textLength="4.9" x="116.5248" y="321.0665">1</text><text fill="#000000" font-family="sans-serif" font-size="9.1" lengthAdjust="spacing" textLength="3.5" x="118.1387" y="395.3066">*</text></g><!--link RepositorySingleton to collaboratorRepository--><g id="link_RepositorySingleton_collaboratorRepository"><path codeLine="77" d="M384.419,331.9636 C368.459,343.7936 356.3,352.8096 356.3,352.8096 C356.3,352.8096 347.1661,400.3589 341.1951,431.4529 " fill="none" id="RepositorySingleton-to-collaboratorRepository" style="stroke:#181818;stroke-width:0.6999999999999998;stroke-dasharray:7.0,7.0;"/><polygon fill="#181818" points="340.403,435.5776,344.3408,429.9186,341.063,432.1404,338.8413,428.8626,340.403,435.5776" style="stroke:#181818;stroke-width:0.6999999999999998;"/><text fill="#000000" font-family="sans-serif" font-size="9.1" lengthAdjust="spacing" textLength="90.3" x="357" y="363.3294">collaboratorRepository</text><text fill="#000000" font-family="sans-serif" font-size="9.1" lengthAdjust="spacing" textLength="4.9" x="373.1233" y="346.9427">1</text><text fill="#000000" font-family="sans-serif" font-size="9.1" lengthAdjust="spacing" textLength="4.9" x="335.8753" y="427.903">1</text></g><!--link RepositorySingleton to taskRepository--><g id="link_RepositorySingleton_taskRepository"><path codeLine="78" d="M455.133,331.9636 C454.265,343.7936 453.6,352.8096 453.6,352.8096 C453.6,352.8096 453.6,366.1096 453.6,366.1096 C453.6,366.1096 474.2255,384.633 498.9145,406.795 " fill="none" id="RepositorySingleton-to-taskRepository" style="stroke:#181818;stroke-width:0.6999999999999998;"/><polygon fill="#181818" points="502.04,409.6006,499.2222,403.3085,499.4354,407.2626,495.4814,407.4759,502.04,409.6006" style="stroke:#181818;stroke-width:0.6999999999999998;"/><text fill="#000000" font-family="sans-serif" font-size="9.1" lengthAdjust="spacing" textLength="60.9" x="454.3" y="363.3294">taskRepository</text><text fill="#000000" font-family="sans-serif" font-size="9.1" lengthAdjust="spacing" textLength="4.9" x="449.6933" y="346.9427">1</text><text fill="#000000" font-family="sans-serif" font-size="9.1" lengthAdjust="spacing" textLength="4.9" x="491.5379" y="402.0577">1</text></g><!--link RepositorySingleton to teamRepository--><g id="link_RepositorySingleton_teamRepository"><path codeLine="79" d="M511.637,331.9776 C528.962,350.3106 543.9,366.1096 543.9,366.1096 C543.9,366.1096 679,371.7096 679,371.7096 C679,371.7096 738.9896,407.8197 781.7176,433.5377 " fill="none" id="RepositorySingleton-to-teamRepository" style="stroke:#181818;stroke-width:0.6999999999999998;"/><polygon fill="#181818" points="785.316,435.7036,781.3623,430.0557,782.3173,433.8986,778.4744,434.8537,785.316,435.7036" style="stroke:#181818;stroke-width:0.6999999999999998;"/><text fill="#000000" font-family="sans-serif" font-size="9.1" lengthAdjust="spacing" textLength="63.7" x="544.6" y="363.3294">teamRepository</text><text fill="#000000" font-family="sans-serif" font-size="9.1" lengthAdjust="spacing" textLength="4.9" x="510.8765" y="346.9579">1</text><text fill="#000000" font-family="sans-serif" font-size="9.1" lengthAdjust="spacing" textLength="4.9" x="772.4752" y="427.8704">1</text></g><!--link RepositorySingleton to agenda--><g id="link_RepositorySingleton_agenda"><path codeLine="80" d="M581.819,310.9846 C621.698,322.1916 655.9,331.8096 655.9,331.8096 C655.9,331.8096 967.4,371.7096 967.4,371.7096 C967.4,371.7096 1032.2633,407.9373 1078.3023,433.6553 " fill="none" id="RepositorySingleton-to-agenda" style="stroke:#181818;stroke-width:0.6999999999999998;"/><polygon fill="#181818" points="1081.969,435.7036,1077.8345,430.1867,1078.9134,433.9967,1075.1035,435.0756,1081.969,435.7036" style="stroke:#181818;stroke-width:0.6999999999999998;"/><text fill="#000000" font-family="sans-serif" font-size="9.1" lengthAdjust="spacing" textLength="29.4" x="922.6" y="363.3294">agenda</text><text fill="#000000" font-family="sans-serif" font-size="9.1" lengthAdjust="spacing" textLength="4.9" x="587.4862" y="310.2376">1</text><text fill="#000000" font-family="sans-serif" font-size="9.1" lengthAdjust="spacing" textLength="4.9" x="1068.5481" y="427.8704">1</text></g><!--SRC=[ZLHBZzem4BxdLrYSs7PPjTUeYhI2NIdILaWRwDqaGqWnTcIRLhJgV-_uaSI6f9G3iMU-UNqp7dLiU4ibFP6MbaTQGw4l3CXUi0faedgjEj1A_6nuJVQKAGWqhE6WBosGLh2BkGIwab6bdhMMpUwi8Iy5BvfVG3ubYOz6jZdvdLWOcRqrIc-eEXQeX6q-8rIHhGAPSmroZxBaps2u55nBmHZ8MmU3plfORjxV44Jmzv6K4gY6-OE_rg2NYAGx8QaMSdCGv_hmSg8DcuFv3t25flgiJ8pGsiIpiZ9myqWg39Axp-iZCVmuymUi8QXY9J08n-GwmJkqGZNeuZAKrSiQKBQW0LHWHnXemNrz2nA2mpnphZJb9LQUHfXn7eO81Z-kYJc8BM99W0Hwka96aW7vN0Elg46uas7Dyp6UZcMc75NrpR_VxI5AN8BrhYDHJxbf_nS3pop2N4DDWUFFwuoeVdx-UwOqacCE_vedPqMhobYjzs5zSvDEL5D4jgif4eLC6R1o54LEGuwnFQvwn6P18DSp6u3QurGB7F05twkPruw-pcsapUpJwHxALzgsuTite8iJsh3kkDAYZwp5QhEsj3ByyqwxIDOSqLa8ji8vc7_4TP0W2SHSPO1w6tv5DTr8ojKUv7ht7KhTZulXoj8U3iatE3GbWupyS0VbbUW7NFEl1QzUuCRBJvVFlal5vsw9itidMgVaARExCR4ByWblOuib9J9S5sEGnPHbuvUEZv1DlCzqUltqbl7RIs_Npe2C9ZgzNJizqercEgoRNjDFJpgCJJACrEppZ2omwjc7sKYdKm9kk4R9ChQ6Q_ETecDSFkdEfeBVQuxY-ttpA-BY-rtpZattJVu2]--></g></svg>