<?xml version="1.0" encoding="us-ascii" standalone="no"?><svg xmlns="http://www.w3.org/2000/svg" xmlns:xlink="http://www.w3.org/1999/xlink" contentStyleType="text/css" height="791px" preserveAspectRatio="none" style="width:1298px;height:790px;background:#FFFFFF;" version="1.1" viewBox="0 0 1298 790" width="1298.5px" zoomAndPan="magnify"><defs/><g><!--cluster UI--><g id="cluster_UI"><path d="M705.25,4.2096 L715.75,4.2096 A2.625,2.625 0 0 1 717.5,5.9596 L722.4,21.4443 L820.75,21.4443 A1.75,1.75 0 0 1 822.5,23.1943 L822.5,73.1596 A1.75,1.75 0 0 1 820.75,74.9096 L705.25,74.9096 A1.75,1.75 0 0 1 703.5,73.1596 L703.5,5.9596 A1.75,1.75 0 0 1 705.25,4.2096 " fill="none" style="stroke:#000000;stroke-width:1.0499999999999998;"/><line style="stroke:#000000;stroke-width:1.0499999999999998;" x1="703.5" x2="722.4" y1="21.4443" y2="21.4443"/><text fill="#000000" font-family="sans-serif" font-size="9.8" font-weight="bold" lengthAdjust="spacing" textLength="9.8" x="706.3" y="16.1848">UI</text></g><!--cluster Controller--><g id="cluster_Controller"><path d="M635.25,98.0096 L685.65,98.0096 A2.625,2.625 0 0 1 687.4,99.7596 L692.3,115.2443 L890.75,115.2443 A1.75,1.75 0 0 1 892.5,116.9943 L892.5,218.7596 A1.75,1.75 0 0 1 890.75,220.5096 L635.25,220.5096 A1.75,1.75 0 0 1 633.5,218.7596 L633.5,99.7596 A1.75,1.75 0 0 1 635.25,98.0096 " fill="none" style="stroke:#000000;stroke-width:1.0499999999999998;"/><line style="stroke:#000000;stroke-width:1.0499999999999998;" x1="633.5" x2="692.3" y1="115.2443" y2="115.2443"/><text fill="#000000" font-family="sans-serif" font-size="9.8" font-weight="bold" lengthAdjust="spacing" textLength="49.7" x="636.3" y="109.9848">Controller</text></g><!--cluster Domain--><g id="cluster_Domain"><path d="M5.95,256.2096 L43.05,256.2096 A2.625,2.625 0 0 1 44.8,257.9596 L49.7,273.4443 L1291.85,273.4443 A1.75,1.75 0 0 1 1293.6,275.1943 L1293.6,784.3596 A1.75,1.75 0 0 1 1291.85,786.1096 L5.95,786.1096 A1.75,1.75 0 0 1 4.2,784.3596 L4.2,257.9596 A1.75,1.75 0 0 1 5.95,256.2096 " fill="none" style="stroke:#000000;stroke-width:1.0499999999999998;"/><line style="stroke:#000000;stroke-width:1.0499999999999998;" x1="4.2" x2="49.7" y1="273.4443" y2="273.4443"/><text fill="#000000" font-family="sans-serif" font-size="9.8" font-weight="bold" lengthAdjust="spacing" textLength="36.4" x="7" y="268.1848">Domain</text></g><!--cluster Model--><g id="cluster_Model"><path d="M745.15,672.7096 L776.65,672.7096 A2.625,2.625 0 0 1 778.4,674.4596 L783.3,689.9443 L901.25,689.9443 A1.75,1.75 0 0 1 903,691.6943 L903,767.5596 A1.75,1.75 0 0 1 901.25,769.3096 L745.15,769.3096 A1.75,1.75 0 0 1 743.4,767.5596 L743.4,674.4596 A1.75,1.75 0 0 1 745.15,672.7096 " fill="none" style="stroke:#000000;stroke-width:1.0499999999999998;"/><line style="stroke:#000000;stroke-width:1.0499999999999998;" x1="743.4" x2="783.3" y1="689.9443" y2="689.9443"/><text fill="#000000" font-family="sans-serif" font-size="9.8" font-weight="bold" lengthAdjust="spacing" textLength="30.8" x="746.2" y="684.6848">Model</text></g><!--cluster Repository--><g id="cluster_Repository"><path d="M241.15,287.7096 L295.05,287.7096 A2.625,2.625 0 0 1 296.8,289.4596 L301.7,304.9443 L1275.05,304.9443 A1.75,1.75 0 0 1 1276.8,306.6943 L1276.8,611.8096 A1.75,1.75 0 0 1 1275.05,613.5596 L241.15,613.5596 A1.75,1.75 0 0 1 239.4,611.8096 L239.4,289.4596 A1.75,1.75 0 0 1 241.15,287.7096 " fill="none" style="stroke:#000000;stroke-width:1.0499999999999998;"/><line style="stroke:#000000;stroke-width:1.0499999999999998;" x1="239.4" x2="301.7" y1="304.9443" y2="304.9443"/><text fill="#000000" font-family="sans-serif" font-size="9.8" font-weight="bold" lengthAdjust="spacing" textLength="53.2" x="242.2" y="299.6848">Repository</text></g><!--cluster Mapper--><g id="cluster_Mapper"><path d="M22.75,313.9596 L61.25,313.9596 A2.625,2.625 0 0 1 63,315.7096 L67.9,331.1943 L220.85,331.1943 A1.75,1.75 0 0 1 222.6,332.9443 L222.6,635.2596 A1.75,1.75 0 0 1 220.85,637.0096 L22.75,637.0096 A1.75,1.75 0 0 1 21,635.2596 L21,315.7096 A1.75,1.75 0 0 1 22.75,313.9596 " fill="none" style="stroke:#000000;stroke-width:1.0499999999999998;"/><line style="stroke:#000000;stroke-width:1.0499999999999998;" x1="21" x2="67.9" y1="331.1943" y2="331.1943"/><text fill="#000000" font-family="sans-serif" font-size="9.8" font-weight="bold" lengthAdjust="spacing" textLength="37.8" x="23.8" y="325.9348">Mapper</text></g><!--cluster DTO--><g id="cluster_DTO"><path d="M57.75,471.1096 L78.75,471.1096 A2.625,2.625 0 0 1 80.5,472.8596 L85.4,488.3443 L185.85,488.3443 A1.75,1.75 0 0 1 187.6,490.0943 L187.6,618.4596 A1.75,1.75 0 0 1 185.85,620.2096 L57.75,620.2096 A1.75,1.75 0 0 1 56,618.4596 L56,472.8596 A1.75,1.75 0 0 1 57.75,471.1096 " fill="none" style="stroke:#000000;stroke-width:1.0499999999999998;"/><line style="stroke:#000000;stroke-width:1.0499999999999998;" x1="56" x2="85.4" y1="488.3443" y2="488.3443"/><text fill="#000000" font-family="sans-serif" font-size="9.8" font-weight="bold" lengthAdjust="spacing" textLength="20.3" x="58.8" y="483.0848">DTO</text></g><!--class UserInterface--><g id="elem_UserInterface"><rect codeLine="7" fill="#F1F1F1" height="33.6" id="UserInterface" rx="1.75" ry="1.75" style="stroke:#181818;stroke-width:0.3499999999999999;" width="95.9" x="715.05" y="30.1096"/><ellipse cx="725.55" cy="41.3096" fill="#ADD1B2" rx="7.7" ry="7.7" style="stroke:#181818;stroke-width:0.6999999999999998;"/><path d="M727.4859,38.4221 Q727.5953,38.2689 727.7266,38.1924 Q727.8578,38.1158 728.0109,38.1158 Q728.2734,38.1158 728.4375,38.3018 Q728.6016,38.4768 728.6016,38.9033 L728.6016,39.9205 Q728.6016,40.3471 728.4375,40.533 Q728.2734,40.7189 728.0109,40.7189 Q727.7703,40.7189 727.6281,40.5768 Q727.4859,40.4455 727.4094,40.0846 Q727.3766,39.833 727.2453,39.7018 Q727.0156,39.4393 726.5891,39.2861 Q726.1625,39.133 725.725,39.133 Q725.1891,39.133 724.7406,39.3627 Q724.3031,39.5924 723.9531,40.1174 Q723.6141,40.6424 723.6141,41.3643 L723.6141,42.1299 Q723.6141,42.9939 724.2375,43.5736 Q724.8609,44.1424 725.9766,44.1424 Q726.6328,44.1424 727.0922,43.9674 Q727.3656,43.858 727.6609,43.5518 Q727.8469,43.3658 727.9453,43.3111 Q728.0547,43.2564 728.1969,43.2564 Q728.4266,43.2564 728.6016,43.4424 Q728.7875,43.6174 728.7875,43.858 Q728.7875,44.0986 728.5469,44.383 Q728.1969,44.7877 727.6391,45.0174 Q726.8844,45.3346 725.9766,45.3346 Q724.9156,45.3346 724.0734,44.8971 Q723.3844,44.5471 722.9031,43.8033 Q722.4219,43.0486 722.4219,42.1518 L722.4219,41.3424 Q722.4219,40.4127 722.8484,39.6143 Q723.2859,38.8049 724.0516,38.3783 Q724.8172,37.9408 725.6812,37.9408 Q726.1953,37.9408 726.6437,38.0611 Q727.1031,38.1705 727.4859,38.4221 Z " fill="#000000"/><text fill="#000000" font-family="sans-serif" font-size="9.8" lengthAdjust="spacing" textLength="73.5" x="735.35" y="45.3674">ListTaskSpaceUI</text><line style="stroke:#181818;stroke-width:0.3499999999999999;" x1="715.75" x2="810.25" y1="52.5096" y2="52.5096"/><line style="stroke:#181818;stroke-width:0.3499999999999999;" x1="715.75" x2="810.25" y1="58.1096" y2="58.1096"/></g><!--class CTRL--><g id="elem_CTRL"><rect codeLine="11" fill="#F1F1F1" height="85.7391" id="CTRL" rx="1.75" ry="1.75" style="stroke:#181818;stroke-width:0.3499999999999999;" width="235.9" x="645.05" y="123.9096"/><ellipse cx="719.775" cy="135.1096" fill="#ADD1B2" rx="7.7" ry="7.7" style="stroke:#181818;stroke-width:0.6999999999999998;"/><path d="M721.7109,132.2221 Q721.8203,132.0689 721.9516,131.9924 Q722.0828,131.9158 722.2359,131.9158 Q722.4984,131.9158 722.6625,132.1018 Q722.8266,132.2768 722.8266,132.7033 L722.8266,133.7205 Q722.8266,134.1471 722.6625,134.333 Q722.4984,134.5189 722.2359,134.5189 Q721.9953,134.5189 721.8531,134.3768 Q721.7109,134.2455 721.6344,133.8846 Q721.6016,133.633 721.4703,133.5018 Q721.2406,133.2393 720.8141,133.0861 Q720.3875,132.933 719.95,132.933 Q719.4141,132.933 718.9656,133.1627 Q718.5281,133.3924 718.1781,133.9174 Q717.8391,134.4424 717.8391,135.1643 L717.8391,135.9299 Q717.8391,136.7939 718.4625,137.3736 Q719.0859,137.9424 720.2016,137.9424 Q720.8578,137.9424 721.3172,137.7674 Q721.5906,137.658 721.8859,137.3518 Q722.0719,137.1658 722.1703,137.1111 Q722.2797,137.0564 722.4219,137.0564 Q722.6516,137.0564 722.8266,137.2424 Q723.0125,137.4174 723.0125,137.658 Q723.0125,137.8986 722.7719,138.183 Q722.4219,138.5877 721.8641,138.8174 Q721.1094,139.1346 720.2016,139.1346 Q719.1406,139.1346 718.2984,138.6971 Q717.6094,138.3471 717.1281,137.6033 Q716.6469,136.8486 716.6469,135.9518 L716.6469,135.1424 Q716.6469,134.2127 717.0734,133.4143 Q717.5109,132.6049 718.2766,132.1783 Q719.0422,131.7408 719.9062,131.7408 Q720.4203,131.7408 720.8687,131.8611 Q721.3281,131.9705 721.7109,132.2221 Z " fill="#000000"/><text fill="#000000" font-family="sans-serif" font-size="9.8" lengthAdjust="spacing" textLength="80.5" x="734.125" y="139.1674">ListTaskController</text><line style="stroke:#181818;stroke-width:0.3499999999999999;" x1="645.75" x2="880.25" y1="146.3096" y2="146.3096"/><line style="stroke:#181818;stroke-width:0.3499999999999999;" x1="645.75" x2="880.25" y1="151.9096" y2="151.9096"/><text fill="#000000" font-family="sans-serif" font-size="9.8" lengthAdjust="spacing" textLength="40.6" x="649.25" y="165.2848">+create()</text><text fill="#000000" font-family="sans-serif" font-size="9.8" lengthAdjust="spacing" textLength="162.4" x="649.25" y="178.3195">+getCollaboratorThoughEmail(email)</text><text fill="#000000" font-family="sans-serif" font-size="9.8" lengthAdjust="spacing" textLength="70" x="649.25" y="191.3543">+getStatusList()</text><text fill="#000000" font-family="sans-serif" font-size="9.8" lengthAdjust="spacing" textLength="227.5" x="649.25" y="204.3891">+getTaskList(collaborator, dateI, dateF, typeStatus)</text></g><!--class Team--><g id="elem_Team"><rect codeLine="21" fill="#F1F1F1" height="59.6695" id="Team" rx="1.75" ry="1.75" style="stroke:#181818;stroke-width:0.3499999999999999;" width="136.5" x="754.95" y="698.6096"/><ellipse cx="807.625" cy="709.8096" fill="#ADD1B2" rx="7.7" ry="7.7" style="stroke:#181818;stroke-width:0.6999999999999998;"/><path d="M809.5609,706.9221 Q809.6703,706.7689 809.8016,706.6924 Q809.9328,706.6158 810.0859,706.6158 Q810.3484,706.6158 810.5125,706.8018 Q810.6766,706.9768 810.6766,707.4033 L810.6766,708.4205 Q810.6766,708.8471 810.5125,709.033 Q810.3484,709.2189 810.0859,709.2189 Q809.8453,709.2189 809.7031,709.0768 Q809.5609,708.9455 809.4844,708.5846 Q809.4516,708.333 809.3203,708.2018 Q809.0906,707.9393 808.6641,707.7861 Q808.2375,707.633 807.8,707.633 Q807.2641,707.633 806.8156,707.8627 Q806.3781,708.0924 806.0281,708.6174 Q805.6891,709.1424 805.6891,709.8643 L805.6891,710.6299 Q805.6891,711.4939 806.3125,712.0736 Q806.9359,712.6424 808.0516,712.6424 Q808.7078,712.6424 809.1672,712.4674 Q809.4406,712.358 809.7359,712.0518 Q809.9219,711.8658 810.0203,711.8111 Q810.1297,711.7564 810.2719,711.7564 Q810.5016,711.7564 810.6766,711.9424 Q810.8625,712.1174 810.8625,712.358 Q810.8625,712.5986 810.6219,712.883 Q810.2719,713.2877 809.7141,713.5174 Q808.9594,713.8346 808.0516,713.8346 Q806.9906,713.8346 806.1484,713.3971 Q805.4594,713.0471 804.9781,712.3033 Q804.4969,711.5486 804.4969,710.6518 L804.4969,709.8424 Q804.4969,708.9127 804.9234,708.1143 Q805.3609,707.3049 806.1266,706.8783 Q806.8922,706.4408 807.7562,706.4408 Q808.2703,706.4408 808.7187,706.5611 Q809.1781,706.6705 809.5609,706.9221 Z " fill="#000000"/><text fill="#000000" font-family="sans-serif" font-size="9.8" lengthAdjust="spacing" textLength="25.2" x="821.975" y="713.8674">Team</text><line style="stroke:#181818;stroke-width:0.3499999999999999;" x1="755.65" x2="890.75" y1="721.0096" y2="721.0096"/><text fill="#000000" font-family="sans-serif" font-size="9.8" lengthAdjust="spacing" textLength="128.1" x="759.15" y="734.3848">-List&lt;Collaborator&gt; members</text><line style="stroke:#181818;stroke-width:0.3499999999999999;" x1="755.65" x2="890.75" y1="739.6443" y2="739.6443"/><text fill="#000000" font-family="sans-serif" font-size="9.8" lengthAdjust="spacing" textLength="98" x="759.15" y="753.0195">+inTeam(collaborator)</text></g><!--class RepositorySingleton--><g id="elem_RepositorySingleton"><rect codeLine="28" fill="#F1F1F1" height="111.8086" id="RepositorySingleton" rx="1.75" ry="1.75" style="stroke:#181818;stroke-width:0.3499999999999999;" width="245" x="336.7" y="313.6096"/><ellipse cx="428.575" cy="324.8096" fill="#ADD1B2" rx="7.7" ry="7.7" style="stroke:#181818;stroke-width:0.6999999999999998;"/><path d="M430.5109,321.9221 Q430.6203,321.7689 430.7516,321.6924 Q430.8828,321.6158 431.0359,321.6158 Q431.2984,321.6158 431.4625,321.8018 Q431.6266,321.9768 431.6266,322.4033 L431.6266,323.4205 Q431.6266,323.8471 431.4625,324.033 Q431.2984,324.2189 431.0359,324.2189 Q430.7953,324.2189 430.6531,324.0768 Q430.5109,323.9455 430.4344,323.5846 Q430.4016,323.333 430.2703,323.2018 Q430.0406,322.9393 429.6141,322.7861 Q429.1875,322.633 428.75,322.633 Q428.2141,322.633 427.7656,322.8627 Q427.3281,323.0924 426.9781,323.6174 Q426.6391,324.1424 426.6391,324.8643 L426.6391,325.6299 Q426.6391,326.4939 427.2625,327.0736 Q427.8859,327.6424 429.0016,327.6424 Q429.6578,327.6424 430.1172,327.4674 Q430.3906,327.358 430.6859,327.0518 Q430.8719,326.8658 430.9703,326.8111 Q431.0797,326.7564 431.2219,326.7564 Q431.4516,326.7564 431.6266,326.9424 Q431.8125,327.1174 431.8125,327.358 Q431.8125,327.5986 431.5719,327.883 Q431.2219,328.2877 430.6641,328.5174 Q429.9094,328.8346 429.0016,328.8346 Q427.9406,328.8346 427.0984,328.3971 Q426.4094,328.0471 425.9281,327.3033 Q425.4469,326.5486 425.4469,325.6518 L425.4469,324.8424 Q425.4469,323.9127 425.8734,323.1143 Q426.3109,322.3049 427.0766,321.8783 Q427.8422,321.4408 428.7062,321.4408 Q429.2203,321.4408 429.6687,321.5611 Q430.1281,321.6705 430.5109,321.9221 Z " fill="#000000"/><text fill="#000000" font-family="sans-serif" font-size="9.8" lengthAdjust="spacing" textLength="55.3" x="442.925" y="328.8674">Repositories</text><line style="stroke:#181818;stroke-width:0.3499999999999999;" x1="337.4" x2="581" y1="336.0096" y2="336.0096"/><line style="stroke:#181818;stroke-width:0.3499999999999999;" x1="337.4" x2="581" y1="341.6096" y2="341.6096"/><text fill="#000000" font-family="sans-serif" font-size="9.8" lengthAdjust="spacing" textLength="65.8" x="340.9" y="354.9848">-Repositories()</text><text fill="#000000" font-family="sans-serif" font-size="9.8" lengthAdjust="spacing" textLength="124.6" x="340.9" y="368.0195">+getInstance(): Repositories</text><text fill="#000000" font-family="sans-serif" font-size="9.8" lengthAdjust="spacing" textLength="236.6" x="340.9" y="381.0543">+getCollaboratorRepository(): CollaboratorRepository</text><text fill="#000000" font-family="sans-serif" font-size="9.8" lengthAdjust="spacing" textLength="170.8" x="340.9" y="394.0891">+getTaskRepository(): TaskRepository</text><text fill="#000000" font-family="sans-serif" font-size="9.8" lengthAdjust="spacing" textLength="177.8" x="340.9" y="407.1238">+getTeamRepository(): TeamRepository</text><text fill="#000000" font-family="sans-serif" font-size="9.8" lengthAdjust="spacing" textLength="100.8" x="340.9" y="420.1586">+getAgenda(): Agenda</text></g><!--class collaboratorRepository--><g id="elem_collaboratorRepository"><rect codeLine="37" fill="#F1F1F1" height="46.6348" id="collaboratorRepository" rx="1.75" ry="1.75" style="stroke:#181818;stroke-width:0.3499999999999999;" width="170.8" x="250.6" y="529.5596"/><ellipse cx="281.925" cy="540.7596" fill="#ADD1B2" rx="7.7" ry="7.7" style="stroke:#181818;stroke-width:0.6999999999999998;"/><path d="M283.8609,537.8721 Q283.9703,537.7189 284.1016,537.6424 Q284.2328,537.5658 284.3859,537.5658 Q284.6484,537.5658 284.8125,537.7518 Q284.9766,537.9268 284.9766,538.3533 L284.9766,539.3705 Q284.9766,539.7971 284.8125,539.983 Q284.6484,540.1689 284.3859,540.1689 Q284.1453,540.1689 284.0031,540.0268 Q283.8609,539.8955 283.7844,539.5346 Q283.7516,539.283 283.6203,539.1518 Q283.3906,538.8893 282.9641,538.7361 Q282.5375,538.583 282.1,538.583 Q281.5641,538.583 281.1156,538.8127 Q280.6781,539.0424 280.3281,539.5674 Q279.9891,540.0924 279.9891,540.8143 L279.9891,541.5799 Q279.9891,542.4439 280.6125,543.0236 Q281.2359,543.5924 282.3516,543.5924 Q283.0078,543.5924 283.4672,543.4174 Q283.7406,543.308 284.0359,543.0018 Q284.2219,542.8158 284.3203,542.7611 Q284.4297,542.7064 284.5719,542.7064 Q284.8016,542.7064 284.9766,542.8924 Q285.1625,543.0674 285.1625,543.308 Q285.1625,543.5486 284.9219,543.833 Q284.5719,544.2377 284.0141,544.4674 Q283.2594,544.7846 282.3516,544.7846 Q281.2906,544.7846 280.4484,544.3471 Q279.7594,543.9971 279.2781,543.2533 Q278.7969,542.4986 278.7969,541.6018 L278.7969,540.7924 Q278.7969,539.8627 279.2234,539.0643 Q279.6609,538.2549 280.4266,537.8283 Q281.1922,537.3908 282.0562,537.3908 Q282.5703,537.3908 283.0187,537.5111 Q283.4781,537.6205 283.8609,537.8721 Z " fill="#000000"/><text fill="#000000" font-family="sans-serif" font-size="9.8" lengthAdjust="spacing" textLength="102.2" x="296.275" y="544.8174">CollaboratorRepository</text><line style="stroke:#181818;stroke-width:0.3499999999999999;" x1="251.3" x2="420.7" y1="551.9596" y2="551.9596"/><line style="stroke:#181818;stroke-width:0.3499999999999999;" x1="251.3" x2="420.7" y1="557.5596" y2="557.5596"/><text fill="#000000" font-family="sans-serif" font-size="9.8" lengthAdjust="spacing" textLength="162.4" x="254.8" y="570.9348">+getCollaboratorThoughEmail(email)</text></g><!--class taskRepository--><g id="elem_taskRepository"><rect codeLine="41" fill="#F1F1F1" height="98.7738" id="taskRepository" rx="1.75" ry="1.75" style="stroke:#181818;stroke-width:0.3499999999999999;" width="220.5" x="446.25" y="503.6596"/><ellipse cx="518.875" cy="514.8596" fill="#ADD1B2" rx="7.7" ry="7.7" style="stroke:#181818;stroke-width:0.6999999999999998;"/><path d="M520.8109,511.9721 Q520.9203,511.8189 521.0516,511.7424 Q521.1828,511.6658 521.3359,511.6658 Q521.5984,511.6658 521.7625,511.8518 Q521.9266,512.0268 521.9266,512.4533 L521.9266,513.4705 Q521.9266,513.8971 521.7625,514.083 Q521.5984,514.2689 521.3359,514.2689 Q521.0953,514.2689 520.9531,514.1268 Q520.8109,513.9955 520.7344,513.6346 Q520.7016,513.383 520.5703,513.2518 Q520.3406,512.9893 519.9141,512.8361 Q519.4875,512.683 519.05,512.683 Q518.5141,512.683 518.0656,512.9127 Q517.6281,513.1424 517.2781,513.6674 Q516.9391,514.1924 516.9391,514.9143 L516.9391,515.6799 Q516.9391,516.5439 517.5625,517.1236 Q518.1859,517.6924 519.3016,517.6924 Q519.9578,517.6924 520.4172,517.5174 Q520.6906,517.408 520.9859,517.1018 Q521.1719,516.9158 521.2703,516.8611 Q521.3797,516.8064 521.5219,516.8064 Q521.7516,516.8064 521.9266,516.9924 Q522.1125,517.1674 522.1125,517.408 Q522.1125,517.6486 521.8719,517.933 Q521.5219,518.3377 520.9641,518.5674 Q520.2094,518.8846 519.3016,518.8846 Q518.2406,518.8846 517.3984,518.4471 Q516.7094,518.0971 516.2281,517.3533 Q515.7469,516.5986 515.7469,515.7018 L515.7469,514.8924 Q515.7469,513.9627 516.1734,513.1643 Q516.6109,512.3549 517.3766,511.9283 Q518.1422,511.4908 519.0062,511.4908 Q519.5203,511.4908 519.9687,511.6111 Q520.4281,511.7205 520.8109,511.9721 Z " fill="#000000"/><text fill="#000000" font-family="sans-serif" font-size="9.8" lengthAdjust="spacing" textLength="69.3" x="533.225" y="518.9174">TaskRepository</text><line style="stroke:#181818;stroke-width:0.3499999999999999;" x1="446.95" x2="666.05" y1="526.0596" y2="526.0596"/><text fill="#000000" font-family="sans-serif" font-size="9.8" lengthAdjust="spacing" textLength="88.2" x="450.45" y="539.4348">-List&lt;Task&gt; taskList</text><text fill="#000000" font-family="sans-serif" font-size="9.8" lengthAdjust="spacing" textLength="100.8" x="450.45" y="552.4695">-List&lt;String&gt; statusList</text><line style="stroke:#181818;stroke-width:0.3499999999999999;" x1="446.95" x2="666.05" y1="557.7291" y2="557.7291"/><text fill="#000000" font-family="sans-serif" font-size="9.8" lengthAdjust="spacing" textLength="70" x="450.45" y="571.1043">+getStatusList()</text><text fill="#000000" font-family="sans-serif" font-size="9.8" lengthAdjust="spacing" textLength="212.1" x="450.45" y="584.1391">+getTaskList(teamList, dateI, dateF, typeStatus)</text><text fill="#000000" font-family="sans-serif" font-size="9.8" lengthAdjust="spacing" textLength="134.4" x="450.45" y="597.1738">+addTaskOfCollaborator(task)</text></g><!--class teamRepository--><g id="elem_teamRepository"><rect codeLine="49" fill="#F1F1F1" height="46.6348" id="teamRepository" rx="1.75" ry="1.75" style="stroke:#181818;stroke-width:0.3499999999999999;" width="263.9" x="691.25" y="529.5596"/><ellipse cx="783.825" cy="540.7596" fill="#ADD1B2" rx="7.7" ry="7.7" style="stroke:#181818;stroke-width:0.6999999999999998;"/><path d="M785.7609,537.8721 Q785.8703,537.7189 786.0016,537.6424 Q786.1328,537.5658 786.2859,537.5658 Q786.5484,537.5658 786.7125,537.7518 Q786.8766,537.9268 786.8766,538.3533 L786.8766,539.3705 Q786.8766,539.7971 786.7125,539.983 Q786.5484,540.1689 786.2859,540.1689 Q786.0453,540.1689 785.9031,540.0268 Q785.7609,539.8955 785.6844,539.5346 Q785.6516,539.283 785.5203,539.1518 Q785.2906,538.8893 784.8641,538.7361 Q784.4375,538.583 784,538.583 Q783.4641,538.583 783.0156,538.8127 Q782.5781,539.0424 782.2281,539.5674 Q781.8891,540.0924 781.8891,540.8143 L781.8891,541.5799 Q781.8891,542.4439 782.5125,543.0236 Q783.1359,543.5924 784.2516,543.5924 Q784.9078,543.5924 785.3672,543.4174 Q785.6406,543.308 785.9359,543.0018 Q786.1219,542.8158 786.2203,542.7611 Q786.3297,542.7064 786.4719,542.7064 Q786.7016,542.7064 786.8766,542.8924 Q787.0625,543.0674 787.0625,543.308 Q787.0625,543.5486 786.8219,543.833 Q786.4719,544.2377 785.9141,544.4674 Q785.1594,544.7846 784.2516,544.7846 Q783.1906,544.7846 782.3484,544.3471 Q781.6594,543.9971 781.1781,543.2533 Q780.6969,542.4986 780.6969,541.6018 L780.6969,540.7924 Q780.6969,539.8627 781.1234,539.0643 Q781.5609,538.2549 782.3266,537.8283 Q783.0922,537.3908 783.9562,537.3908 Q784.4703,537.3908 784.9187,537.5111 Q785.3781,537.6205 785.7609,537.8721 Z " fill="#000000"/><text fill="#000000" font-family="sans-serif" font-size="9.8" lengthAdjust="spacing" textLength="72.8" x="798.175" y="544.8174">TeamRepository</text><line style="stroke:#181818;stroke-width:0.3499999999999999;" x1="691.95" x2="954.45" y1="551.9596" y2="551.9596"/><line style="stroke:#181818;stroke-width:0.3499999999999999;" x1="691.95" x2="954.45" y1="557.5596" y2="557.5596"/><text fill="#000000" font-family="sans-serif" font-size="9.8" lengthAdjust="spacing" textLength="255.5" x="695.45" y="570.9348">+getTeamsThoughCollaborator(collaborator): List&lt;Team&gt;</text></g><!--class agenda--><g id="elem_agenda"><rect codeLine="53" fill="#F1F1F1" height="46.6348" id="agenda" rx="1.75" ry="1.75" style="stroke:#181818;stroke-width:0.3499999999999999;" width="285.6" x="980" y="529.5596"/><ellipse cx="1102.675" cy="540.7596" fill="#ADD1B2" rx="7.7" ry="7.7" style="stroke:#181818;stroke-width:0.6999999999999998;"/><path d="M1104.6109,537.8721 Q1104.7203,537.7189 1104.8516,537.6424 Q1104.9828,537.5658 1105.1359,537.5658 Q1105.3984,537.5658 1105.5625,537.7518 Q1105.7266,537.9268 1105.7266,538.3533 L1105.7266,539.3705 Q1105.7266,539.7971 1105.5625,539.983 Q1105.3984,540.1689 1105.1359,540.1689 Q1104.8953,540.1689 1104.7531,540.0268 Q1104.6109,539.8955 1104.5344,539.5346 Q1104.5016,539.283 1104.3703,539.1518 Q1104.1406,538.8893 1103.7141,538.7361 Q1103.2875,538.583 1102.85,538.583 Q1102.3141,538.583 1101.8656,538.8127 Q1101.4281,539.0424 1101.0781,539.5674 Q1100.7391,540.0924 1100.7391,540.8143 L1100.7391,541.5799 Q1100.7391,542.4439 1101.3625,543.0236 Q1101.9859,543.5924 1103.1016,543.5924 Q1103.7578,543.5924 1104.2172,543.4174 Q1104.4906,543.308 1104.7859,543.0018 Q1104.9719,542.8158 1105.0703,542.7611 Q1105.1797,542.7064 1105.3219,542.7064 Q1105.5516,542.7064 1105.7266,542.8924 Q1105.9125,543.0674 1105.9125,543.308 Q1105.9125,543.5486 1105.6719,543.833 Q1105.3219,544.2377 1104.7641,544.4674 Q1104.0094,544.7846 1103.1016,544.7846 Q1102.0406,544.7846 1101.1984,544.3471 Q1100.5094,543.9971 1100.0281,543.2533 Q1099.5469,542.4986 1099.5469,541.6018 L1099.5469,540.7924 Q1099.5469,539.8627 1099.9734,539.0643 Q1100.4109,538.2549 1101.1766,537.8283 Q1101.9422,537.3908 1102.8062,537.3908 Q1103.3203,537.3908 1103.7687,537.5111 Q1104.2281,537.6205 1104.6109,537.8721 Z " fill="#000000"/><text fill="#000000" font-family="sans-serif" font-size="9.8" lengthAdjust="spacing" textLength="34.3" x="1117.025" y="544.8174">Agenda</text><line style="stroke:#181818;stroke-width:0.3499999999999999;" x1="980.7" x2="1264.9" y1="551.9596" y2="551.9596"/><line style="stroke:#181818;stroke-width:0.3499999999999999;" x1="980.7" x2="1264.9" y1="557.5596" y2="557.5596"/><text fill="#000000" font-family="sans-serif" font-size="9.8" lengthAdjust="spacing" textLength="277.2" x="984.2" y="570.9348">+getCollaboratorAgendaEntries(taskList): List&lt;AgendaEntries&gt;</text></g><!--class MapperDto--><g id="elem_MapperDto"><rect codeLine="58" fill="#F1F1F1" height="59.6695" id="MapperDto" rx="1.75" ry="1.75" style="stroke:#181818;stroke-width:0.3499999999999999;" width="179.2" x="32.2" y="339.8596"/><ellipse cx="90.475" cy="351.0596" fill="#ADD1B2" rx="7.7" ry="7.7" style="stroke:#181818;stroke-width:0.6999999999999998;"/><path d="M92.4109,348.1721 Q92.5203,348.0189 92.6516,347.9424 Q92.7828,347.8658 92.9359,347.8658 Q93.1984,347.8658 93.3625,348.0518 Q93.5266,348.2268 93.5266,348.6533 L93.5266,349.6705 Q93.5266,350.0971 93.3625,350.283 Q93.1984,350.4689 92.9359,350.4689 Q92.6953,350.4689 92.5531,350.3268 Q92.4109,350.1955 92.3344,349.8346 Q92.3016,349.583 92.1703,349.4518 Q91.9406,349.1893 91.5141,349.0361 Q91.0875,348.883 90.65,348.883 Q90.1141,348.883 89.6656,349.1127 Q89.2281,349.3424 88.8781,349.8674 Q88.5391,350.3924 88.5391,351.1143 L88.5391,351.8799 Q88.5391,352.7439 89.1625,353.3236 Q89.7859,353.8924 90.9016,353.8924 Q91.5578,353.8924 92.0172,353.7174 Q92.2906,353.608 92.5859,353.3018 Q92.7719,353.1158 92.8703,353.0611 Q92.9797,353.0064 93.1219,353.0064 Q93.3516,353.0064 93.5266,353.1924 Q93.7125,353.3674 93.7125,353.608 Q93.7125,353.8486 93.4719,354.133 Q93.1219,354.5377 92.5641,354.7674 Q91.8094,355.0846 90.9016,355.0846 Q89.8406,355.0846 88.9984,354.6471 Q88.3094,354.2971 87.8281,353.5533 Q87.3469,352.7986 87.3469,351.9018 L87.3469,351.0924 Q87.3469,350.1627 87.7734,349.3643 Q88.2109,348.5549 88.9766,348.1283 Q89.7422,347.6908 90.6062,347.6908 Q91.1203,347.6908 91.5687,347.8111 Q92.0281,347.9205 92.4109,348.1721 Z " fill="#000000"/><text fill="#000000" font-family="sans-serif" font-size="9.8" lengthAdjust="spacing" textLength="56.7" x="104.825" y="355.1174">EntryMapper</text><line style="stroke:#181818;stroke-width:0.3499999999999999;" x1="32.9" x2="210.7" y1="362.2596" y2="362.2596"/><line style="stroke:#181818;stroke-width:0.3499999999999999;" x1="32.9" x2="210.7" y1="367.8596" y2="367.8596"/><text fill="#000000" font-family="sans-serif" font-size="9.8" lengthAdjust="spacing" textLength="170.8" x="36.4" y="381.2348">+toDTOList(listEntries): List&lt;EntryDto&gt;</text><text fill="#000000" font-family="sans-serif" font-size="9.8" lengthAdjust="spacing" textLength="131.6" x="36.4" y="394.2695">+toDTOEntry(entry): EntryDto</text></g><!--class DataTransferObject--><g id="elem_DataTransferObject"><rect codeLine="63" fill="#F1F1F1" height="111.8086" id="DataTransferObject" rx="1.75" ry="1.75" style="stroke:#181818;stroke-width:0.3499999999999999;" width="109.2" x="67.2" y="497.0096"/><ellipse cx="99.575" cy="508.2096" fill="#ADD1B2" rx="7.7" ry="7.7" style="stroke:#181818;stroke-width:0.6999999999999998;"/><path d="M101.5109,505.3221 Q101.6203,505.1689 101.7516,505.0924 Q101.8828,505.0158 102.0359,505.0158 Q102.2984,505.0158 102.4625,505.2018 Q102.6266,505.3768 102.6266,505.8033 L102.6266,506.8205 Q102.6266,507.2471 102.4625,507.433 Q102.2984,507.6189 102.0359,507.6189 Q101.7953,507.6189 101.6531,507.4768 Q101.5109,507.3455 101.4344,506.9846 Q101.4016,506.733 101.2703,506.6018 Q101.0406,506.3393 100.6141,506.1861 Q100.1875,506.033 99.75,506.033 Q99.2141,506.033 98.7656,506.2627 Q98.3281,506.4924 97.9781,507.0174 Q97.6391,507.5424 97.6391,508.2643 L97.6391,509.0299 Q97.6391,509.8939 98.2625,510.4736 Q98.8859,511.0424 100.0016,511.0424 Q100.6578,511.0424 101.1172,510.8674 Q101.3906,510.758 101.6859,510.4518 Q101.8719,510.2658 101.9703,510.2111 Q102.0797,510.1564 102.2219,510.1564 Q102.4516,510.1564 102.6266,510.3424 Q102.8125,510.5174 102.8125,510.758 Q102.8125,510.9986 102.5719,511.283 Q102.2219,511.6877 101.6641,511.9174 Q100.9094,512.2346 100.0016,512.2346 Q98.9406,512.2346 98.0984,511.7971 Q97.4094,511.4471 96.9281,510.7033 Q96.4469,509.9486 96.4469,509.0518 L96.4469,508.2424 Q96.4469,507.3127 96.8734,506.5143 Q97.3109,505.7049 98.0766,505.2783 Q98.8422,504.8408 99.7062,504.8408 Q100.2203,504.8408 100.6687,504.9611 Q101.1281,505.0705 101.5109,505.3221 Z " fill="#000000"/><text fill="#000000" font-family="sans-serif" font-size="9.8" lengthAdjust="spacing" textLength="38.5" x="113.925" y="512.2674">EntryDto</text><line style="stroke:#181818;stroke-width:0.3499999999999999;" x1="67.9" x2="175.7" y1="519.4096" y2="519.4096"/><text fill="#000000" font-family="sans-serif" font-size="9.8" lengthAdjust="spacing" textLength="53.2" x="71.4" y="532.7848">-Team team</text><text fill="#000000" font-family="sans-serif" font-size="9.8" lengthAdjust="spacing" textLength="100.8" x="71.4" y="545.8195">-List&lt;Vehicle&gt; vehicles</text><text fill="#000000" font-family="sans-serif" font-size="9.8" lengthAdjust="spacing" textLength="49" x="71.4" y="558.8543">-Date dateI</text><text fill="#000000" font-family="sans-serif" font-size="9.8" lengthAdjust="spacing" textLength="53.2" x="71.4" y="571.8891">-Date dateF</text><text fill="#000000" font-family="sans-serif" font-size="9.8" lengthAdjust="spacing" textLength="58.8" x="71.4" y="584.9238">-String status</text><line style="stroke:#181818;stroke-width:0.3499999999999999;" x1="67.9" x2="175.7" y1="590.1834" y2="590.1834"/><text fill="#000000" font-family="sans-serif" font-size="9.8" lengthAdjust="spacing" textLength="73.5" x="71.4" y="603.5586">+EntryDto(entry)</text></g><!--link UserInterface to CTRL--><g id="link_UserInterface_CTRL"><path codeLine="75" d="M763,63.8076 C763,79.1866 763,98.7656 763,119.5066 " fill="none" id="UserInterface-to-CTRL" style="stroke:#181818;stroke-width:0.6999999999999998;stroke-dasharray:7.0,7.0;"/><polygon fill="#181818" points="763,123.7066,765.8,117.4066,763,120.2066,760.2,117.4066,763,123.7066" style="stroke:#181818;stroke-width:0.6999999999999998;"/></g><!--link CTRL to RepositorySingleton--><g id="link_CTRL_RepositorySingleton"><path codeLine="76" d="M669.284,209.3656 C642.061,221.5876 619.5,231.7096 619.5,231.7096 C619.5,231.7096 571.6191,272.6939 527.1271,310.7669 " fill="none" id="CTRL-to-RepositorySingleton" style="stroke:#181818;stroke-width:0.6999999999999998;stroke-dasharray:7.0,7.0;"/><polygon fill="#181818" points="523.936,313.4976,530.5431,311.5289,526.5953,311.222,526.9022,307.2741,523.936,313.4976" style="stroke:#181818;stroke-width:0.6999999999999998;"/><text fill="#000000" font-family="sans-serif" font-size="9.1" lengthAdjust="spacing" textLength="46.9" x="620.2" y="242.2294">repositories</text></g><!--link RepositorySingleton to RepositorySingleton--><g id="link_RepositorySingleton_RepositorySingleton"><path codeLine="77" d="M581.973,356.3026 C596.631,358.7176 606.2,363.1556 606.2,369.6096 C606.2,376.0636 600.7751,379.8188 586.1171,382.2338 " fill="none" id="RepositorySingleton-to-RepositorySingleton" style="stroke:#181818;stroke-width:0.6999999999999998;"/><polygon fill="#181818" points="581.973,382.9166,588.6444,384.6552,585.4264,382.3476,587.734,379.1297,581.973,382.9166" style="stroke:#181818;stroke-width:0.6999999999999998;"/><text fill="#000000" font-family="sans-serif" font-size="9.1" lengthAdjust="spacing" textLength="34.3" x="610.4" y="373.4794">instance</text></g><!--link CTRL to collaboratorRepository--><g id="link_CTRL_collaboratorRepository"><path codeLine="78" d="M724.052,209.4496 C704.949,230.1066 686,250.6096 686,250.6096 C686,250.6096 670.6,459.9096 670.6,459.9096 C670.6,459.9096 434,465.5096 434,465.5096 C434,465.5096 393.926,501.0008 364.89,526.7188 " fill="none" id="CTRL-to-collaboratorRepository" style="stroke:#181818;stroke-width:0.6999999999999998;stroke-dasharray:7.0,7.0;"/><polygon fill="#181818" points="361.746,529.5036,368.3186,527.4224,364.366,527.1829,364.6056,523.2304,361.746,529.5036" style="stroke:#181818;stroke-width:0.6999999999999998;"/><text fill="#000000" font-family="sans-serif" font-size="9.1" lengthAdjust="spacing" textLength="104.3" x="686.7" y="373.4794">getCollaboratorRepository</text></g><!--link CTRL to taskRepository--><g id="link_CTRL_taskRepository"><path codeLine="79" d="M780.353,209.4496 C788.858,230.1066 797.3,250.6096 797.3,250.6096 C797.3,250.6096 797.3,425.6096 797.3,425.6096 C797.3,425.6096 704.2,459.9096 704.2,459.9096 C704.2,459.9096 679,465.5096 679,465.5096 C679,465.5096 656.6177,481.3651 628.6947,501.1541 " fill="none" id="CTRL-to-taskRepository" style="stroke:#181818;stroke-width:0.6999999999999998;stroke-dasharray:7.0,7.0;"/><polygon fill="#181818" points="625.268,503.5826,632.0271,502.2243,628.1236,501.5588,628.7891,497.6553,625.268,503.5826" style="stroke:#181818;stroke-width:0.6999999999999998;"/><text fill="#000000" font-family="sans-serif" font-size="9.1" lengthAdjust="spacing" textLength="75.6" x="798" y="373.4794">getTaskRepository</text></g><!--link CTRL to teamRepository--><g id="link_CTRL_teamRepository"><path codeLine="80" d="M843.857,209.3236 C883.694,230.0296 923.3,250.6096 923.3,250.6096 C923.3,250.6096 923.3,425.6096 923.3,425.6096 C923.3,425.6096 872.7733,489.5557 843.9333,526.0677 " fill="none" id="CTRL-to-teamRepository" style="stroke:#181818;stroke-width:0.6999999999999998;stroke-dasharray:7.0,7.0;"/><polygon fill="#181818" points="841.33,529.3636,847.4322,526.1553,843.4994,526.617,843.0377,522.6842,841.33,529.3636" style="stroke:#181818;stroke-width:0.6999999999999998;"/><text fill="#000000" font-family="sans-serif" font-size="9.1" lengthAdjust="spacing" textLength="78.4" x="924" y="373.4794">getTeamRepository</text></g><!--link CTRL to agenda--><g id="link_CTRL_agenda"><path codeLine="81" d="M880.992,207.3146 C943.992,228.6716 1008.7,250.6096 1008.7,250.6096 C1008.7,250.6096 1086.0206,455.05 1112.6416,525.456 " fill="none" id="CTRL-to-agenda" style="stroke:#181818;stroke-width:0.6999999999999998;stroke-dasharray:7.0,7.0;"/><polygon fill="#181818" points="1114.127,529.3846,1114.5179,522.5015,1112.8892,526.1108,1109.2798,524.482,1114.127,529.3846" style="stroke:#181818;stroke-width:0.6999999999999998;"/><text fill="#000000" font-family="sans-serif" font-size="9.1" lengthAdjust="spacing" textLength="43.4" x="1073.8" y="373.4794">getAgenda</text></g><!--link CTRL to MapperDto--><g id="link_CTRL_MapperDto"><path codeLine="82" d="M644.84,186.1046 C490.413,210.6746 239.4,250.6096 239.4,250.6096 C239.4,250.6096 188.6572,301.6571 153.8322,336.6851 " fill="none" id="CTRL-to-MapperDto" style="stroke:#181818;stroke-width:0.6999999999999998;stroke-dasharray:7.0,7.0;"/><polygon fill="#181818" points="150.871,339.6636,157.2985,337.17,153.3387,337.1815,153.3272,333.2217,150.871,339.6636" style="stroke:#181818;stroke-width:0.6999999999999998;"/><text fill="#000000" font-family="sans-serif" font-size="9.1" lengthAdjust="spacing" textLength="40.6" x="352.8" y="242.2294">toDTOList</text></g><!--link MapperDto to DataTransferObject--><g id="link_MapperDto_DataTransferObject"><path codeLine="83" d="M121.8,399.5486 C121.8,425.7286 121.8,460.6096 121.8,492.6906 " fill="none" id="MapperDto-to-DataTransferObject" style="stroke:#181818;stroke-width:0.6999999999999998;"/><polygon fill="#181818" points="121.8,496.8906,124.6,490.5906,121.8,493.3906,119,490.5906,121.8,496.8906" style="stroke:#181818;stroke-width:0.6999999999999998;"/><text fill="#000000" font-family="sans-serif" font-size="9.1" lengthAdjust="spacing" textLength="27.3" x="122.5" y="457.1294">entries</text><text fill="#000000" font-family="sans-serif" font-size="9.1" lengthAdjust="spacing" textLength="4.9" x="116.5248" y="414.8665">1</text><text fill="#000000" font-family="sans-serif" font-size="9.1" lengthAdjust="spacing" textLength="3.5" x="118.1387" y="489.1066">*</text></g><!--link RepositorySingleton to collaboratorRepository--><g id="link_RepositorySingleton_collaboratorRepository"><path codeLine="84" d="M384.419,425.7636 C368.459,437.5936 356.3,446.6096 356.3,446.6096 C356.3,446.6096 347.1661,494.1589 341.1951,525.2529 " fill="none" id="RepositorySingleton-to-collaboratorRepository" style="stroke:#181818;stroke-width:0.6999999999999998;stroke-dasharray:7.0,7.0;"/><polygon fill="#181818" points="340.403,529.3776,344.3408,523.7186,341.063,525.9404,338.8413,522.6626,340.403,529.3776" style="stroke:#181818;stroke-width:0.6999999999999998;"/><text fill="#000000" font-family="sans-serif" font-size="9.1" lengthAdjust="spacing" textLength="90.3" x="357" y="457.1294">collaboratorRepository</text><text fill="#000000" font-family="sans-serif" font-size="9.1" lengthAdjust="spacing" textLength="4.9" x="373.1233" y="440.7427">1</text><text fill="#000000" font-family="sans-serif" font-size="9.1" lengthAdjust="spacing" textLength="4.9" x="335.8753" y="521.703">1</text></g><!--link RepositorySingleton to taskRepository--><g id="link_RepositorySingleton_taskRepository"><path codeLine="85" d="M455.133,425.7636 C454.265,437.5936 453.6,446.6096 453.6,446.6096 C453.6,446.6096 453.6,459.9096 453.6,459.9096 C453.6,459.9096 474.2255,478.433 498.9145,500.595 " fill="none" id="RepositorySingleton-to-taskRepository" style="stroke:#181818;stroke-width:0.6999999999999998;"/><polygon fill="#181818" points="502.04,503.4006,499.2222,497.1085,499.4354,501.0626,495.4814,501.2759,502.04,503.4006" style="stroke:#181818;stroke-width:0.6999999999999998;"/><text fill="#000000" font-family="sans-serif" font-size="9.1" lengthAdjust="spacing" textLength="60.9" x="454.3" y="457.1294">taskRepository</text><text fill="#000000" font-family="sans-serif" font-size="9.1" lengthAdjust="spacing" textLength="4.9" x="449.6933" y="440.7427">1</text><text fill="#000000" font-family="sans-serif" font-size="9.1" lengthAdjust="spacing" textLength="4.9" x="491.5379" y="495.8577">1</text></g><!--link RepositorySingleton to teamRepository--><g id="link_RepositorySingleton_teamRepository"><path codeLine="86" d="M511.637,425.7776 C528.962,444.1106 543.9,459.9096 543.9,459.9096 C543.9,459.9096 679,465.5096 679,465.5096 C679,465.5096 738.9896,501.6197 781.7176,527.3377 " fill="none" id="RepositorySingleton-to-teamRepository" style="stroke:#181818;stroke-width:0.6999999999999998;"/><polygon fill="#181818" points="785.316,529.5036,781.3623,523.8557,782.3173,527.6986,778.4744,528.6537,785.316,529.5036" style="stroke:#181818;stroke-width:0.6999999999999998;"/><text fill="#000000" font-family="sans-serif" font-size="9.1" lengthAdjust="spacing" textLength="63.7" x="544.6" y="457.1294">teamRepository</text><text fill="#000000" font-family="sans-serif" font-size="9.1" lengthAdjust="spacing" textLength="4.9" x="510.8765" y="440.7579">1</text><text fill="#000000" font-family="sans-serif" font-size="9.1" lengthAdjust="spacing" textLength="4.9" x="772.4752" y="521.6704">1</text></g><!--link RepositorySingleton to agenda--><g id="link_RepositorySingleton_agenda"><path codeLine="87" d="M581.819,404.7846 C621.698,415.9916 655.9,425.6096 655.9,425.6096 C655.9,425.6096 967.4,465.5096 967.4,465.5096 C967.4,465.5096 1032.2633,501.7373 1078.3023,527.4553 " fill="none" id="RepositorySingleton-to-agenda" style="stroke:#181818;stroke-width:0.6999999999999998;"/><polygon fill="#181818" points="1081.969,529.5036,1077.8345,523.9867,1078.9134,527.7967,1075.1035,528.8756,1081.969,529.5036" style="stroke:#181818;stroke-width:0.6999999999999998;"/><text fill="#000000" font-family="sans-serif" font-size="9.1" lengthAdjust="spacing" textLength="29.4" x="922.6" y="457.1294">agenda</text><text fill="#000000" font-family="sans-serif" font-size="9.1" lengthAdjust="spacing" textLength="4.9" x="587.4862" y="404.0376">1</text><text fill="#000000" font-family="sans-serif" font-size="9.1" lengthAdjust="spacing" textLength="4.9" x="1068.5481" y="521.6704">1</text></g><!--link teamRepository to Team--><g id="link_teamRepository_Team"><path codeLine="88" d="M823.2,576.6276 C823.2,607.9946 823.2,660.1026 823.2,694.3956 " fill="none" id="teamRepository-to-Team" style="stroke:#181818;stroke-width:0.6999999999999998;"/><polygon fill="#181818" points="823.2,698.5956,826,692.2956,823.2,695.0956,820.4,692.2956,823.2,698.5956" style="stroke:#181818;stroke-width:0.6999999999999998;"/><text fill="#000000" font-family="sans-serif" font-size="9.1" lengthAdjust="spacing" textLength="46.9" x="823.9" y="658.7294">collaborator</text><text fill="#000000" font-family="sans-serif" font-size="9.1" lengthAdjust="spacing" textLength="4.9" x="817.8789" y="591.5697">1</text><text fill="#000000" font-family="sans-serif" font-size="9.1" lengthAdjust="spacing" textLength="3.5" x="819.4211" y="690.8262">*</text></g><!--SRC=[ZLJVRzem47xFNs7nHBTIRQ_H5Ac2La9gXLJetaroG8Qn8zjiOjF-zztPIMn3ACj3RDzzz-lp-So-bWtN_C0QNkxv5fRs981jbAX0PwRNcXslrAzQRjc62mEHHjGIxAa1rYXneaEaAmKtvj5QNQ-F5kQbailwDx0lMTP6O-zpzYTpC3PwgOrTSRDVeXBUvoF63NiteEVIWjwWBFiR3ATAMgs407tf8EYSZ-dgxGL13B_FhDJ0BOplskCMx1IHVAqqjqglTkgutJqTU2t6GFy8jxJS7Wt5YAqfdfELaPjxLc6GkL-Uxndnuytli8QeYfd281AJwmIlgWBHLxG29D5dFc4KvLkSRC4ES5Y3DcqsjIHyaeWFrpb_WqQP6iKdTDgHrWjhC8wkW5hYVGkmIlOvnE2OXRaqbiiIUSqJp33B8GBXXpKfmwb5AecGMFuPCf44vECMPCK9uNTq9oqVm-auPif1LTzQjtifH4bBSDvj8agldU25Gz0nrYpnSSbjmKpVdV_TiHR9eSr7tUgjU5MHrM8JrpUcT9AQ4h9zJOaePeh0nbEKE4swDs-hHsmH1V9tvW9mjxrs1HxuXDE0-hMZhtERQ8lafRpofead2u5ENkZ2-ktCgZwoLRFLmj4gyDSwxI8vSqGNCTW9nq1_n7MGA0d4d6M0UXT-nYrVQIxD1lHY_GDAsxUB6nb4Uzmats5Nbm8AzjDlJAj4F-0l_rpmt0fyUxNTrMRVfTBcxeXpKoqPrkpXeN2ZDtFpbqv3aoLdEfuNGv39v9fftOwT46BuYURN9r0mJTzVVZbw8cZIrldbx0bGtw1v63f1rJTH7hed2vqr-ZfofOy-ZGOkF6VWUsoGChAb4BHUesHOVjMTImNNSvhIystpC-hIyqtpZaw_PcVp9QQCBYGjyXy0]--></g></svg>