<?xml version="1.0" encoding="us-ascii" standalone="no"?><svg xmlns="http://www.w3.org/2000/svg" xmlns:xlink="http://www.w3.org/1999/xlink" contentStyleType="text/css" height="1427px" preserveAspectRatio="none" style="width:1512px;height:1427px;background:#FFFFFF;" version="1.1" viewBox="0 0 1512 1427" width="1512px" zoomAndPan="magnify"><defs/><g><rect fill="#FFFFFF" height="1232.834" style="stroke:#181818;stroke-width:1.0;" width="10" x="42" y="93.6211"/><rect fill="#FFFFFF" height="201.707" style="stroke:#181818;stroke-width:1.0;" width="10" x="408" y="116.9121"/><rect fill="#FFFFFF" height="158.0859" style="stroke:#181818;stroke-width:1.0;" width="10" x="408" y="349.9102"/><rect fill="#FFFFFF" height="31.291" style="stroke:#181818;stroke-width:1.0;" width="10" x="408" y="539.2871"/><rect fill="#FFFFFF" height="724.5859" style="stroke:#181818;stroke-width:1.0;" width="10" x="408" y="601.8691"/><rect fill="#FFFFFF" height="95.5039" style="stroke:#181818;stroke-width:1.0;" width="10" x="773" y="191.8242"/><rect fill="#FFFFFF" height="95.5039" style="stroke:#181818;stroke-width:1.0;" width="10" x="773" y="381.2012"/><rect fill="#FFFFFF" height="662.0039" style="stroke:#181818;stroke-width:1.0;" width="10" x="773" y="633.1602"/><rect fill="#FFFFFF" height="31.291" style="stroke:#181818;stroke-width:1.0;" width="10" x="898" y="664.4512"/><rect fill="#FFFFFF" height="31.291" style="stroke:#181818;stroke-width:1.0;" width="10" x="898" y="900.4492"/><rect fill="#FFFFFF" height="31.291" style="stroke:#181818;stroke-width:1.0;" width="10" x="1005" y="727.0332"/><rect fill="#FFFFFF" height="31.291" style="stroke:#181818;stroke-width:1.0;" width="10" x="1005" y="963.0313"/><rect fill="#FFFFFF" height="79.543" style="stroke:#181818;stroke-width:1.0;" width="10" x="1124.5" y="789.6152"/><rect fill="#FFFFFF" height="95.5039" style="stroke:#181818;stroke-width:1.0;" width="10" x="1356" y="1025.6133"/><rect fill="#FFFFFF" height="111.4648" style="stroke:#181818;stroke-width:1.0;" width="10" x="1449" y="1152.4082"/><line style="stroke:#181818;stroke-width:0.5;stroke-dasharray:5.0,5.0;" x1="47" x2="47" y1="83.6211" y2="1344.4551"/><line style="stroke:#181818;stroke-width:0.5;stroke-dasharray:5.0,5.0;" x1="412.5" x2="412.5" y1="83.6211" y2="1344.4551"/><line style="stroke:#181818;stroke-width:0.5;stroke-dasharray:5.0,5.0;" x1="777.5" x2="777.5" y1="156.7227" y2="1344.4551"/><line style="stroke:#181818;stroke-width:0.5;stroke-dasharray:5.0,5.0;" x1="902.5" x2="902.5" y1="83.6211" y2="1344.4551"/><line style="stroke:#181818;stroke-width:0.5;stroke-dasharray:5.0,5.0;" x1="1009.5" x2="1009.5" y1="83.6211" y2="1344.4551"/><line style="stroke:#181818;stroke-width:0.5;stroke-dasharray:5.0,5.0;" x1="1129.5" x2="1129.5" y1="83.6211" y2="1344.4551"/><line style="stroke:#181818;stroke-width:0.5;stroke-dasharray:5.0,5.0;" x1="1258.5" x2="1258.5" y1="83.6211" y2="1344.4551"/><line style="stroke:#181818;stroke-width:0.5;stroke-dasharray:5.0,5.0;" x1="1360.5" x2="1360.5" y1="83.6211" y2="1344.4551"/><line style="stroke:#181818;stroke-width:0.5;stroke-dasharray:5.0,5.0;" x1="1453.5" x2="1453.5" y1="83.6211" y2="1344.4551"/><text fill="#000000" font-family="sans-serif" font-size="14" lengthAdjust="spacing" textLength="78" x="5" y="80.1074">Collaborator</text><ellipse cx="47" cy="13.5" fill="#E3E3E3" rx="8" ry="8" style="stroke:#181818;stroke-width:0.5;"/><path d="M47,21.5 L47,48.5 M34,29.5 L60,29.5 M47,48.5 L34,63.5 M47,48.5 L60,63.5 " fill="none" style="stroke:#181818;stroke-width:0.5;"/><text fill="#000000" font-family="sans-serif" font-size="14" lengthAdjust="spacing" textLength="78" x="5" y="1358.5625">Collaborator</text><ellipse cx="47" cy="1370.5762" fill="#E3E3E3" rx="8" ry="8" style="stroke:#181818;stroke-width:0.5;"/><path d="M47,1378.5762 L47,1405.5762 M34,1386.5762 L60,1386.5762 M47,1405.5762 L34,1420.5762 M47,1405.5762 L60,1420.5762 " fill="none" style="stroke:#181818;stroke-width:0.5;"/><rect fill="#E3E3E3" height="32.6211" rx="2.5" ry="2.5" style="stroke:#181818;stroke-width:0.5;" width="123" x="351.5" y="50"/><text fill="#000000" font-family="sans-serif" font-size="14" lengthAdjust="spacing" textLength="109" x="358.5" y="72.1074">:ListTaskSpaceUI</text><rect fill="#E3E3E3" height="32.6211" rx="2.5" ry="2.5" style="stroke:#181818;stroke-width:0.5;" width="123" x="351.5" y="1343.4551"/><text fill="#000000" font-family="sans-serif" font-size="14" lengthAdjust="spacing" textLength="109" x="358.5" y="1365.5625">:ListTaskSpaceUI</text><rect fill="#E3E3E3" height="32.6211" rx="2.5" ry="2.5" style="stroke:#181818;stroke-width:0.5;" width="133" x="711.5" y="1343.4551"/><text fill="#000000" font-family="sans-serif" font-size="14" lengthAdjust="spacing" textLength="119" x="718.5" y="1365.5625">:ListTaskController</text><rect fill="#E3E3E3" height="32.6211" rx="2.5" ry="2.5" style="stroke:#181818;stroke-width:0.5;" width="97" x="854.5" y="50"/><text fill="#000000" font-family="sans-serif" font-size="14" lengthAdjust="spacing" textLength="83" x="861.5" y="72.1074">:Repositories</text><rect fill="#E3E3E3" height="32.6211" rx="2.5" ry="2.5" style="stroke:#181818;stroke-width:0.5;" width="97" x="854.5" y="1343.4551"/><text fill="#000000" font-family="sans-serif" font-size="14" lengthAdjust="spacing" textLength="83" x="861.5" y="1365.5625">:Repositories</text><rect fill="#E3E3E3" height="51.2422" rx="2.5" ry="2.5" style="stroke:#181818;stroke-width:0.5;" width="97" x="961.5" y="31.3789"/><text fill="#000000" font-family="sans-serif" font-size="14" lengthAdjust="spacing" textLength="74" x="973" y="53.4863">repositories</text><text fill="#000000" font-family="sans-serif" font-size="14" lengthAdjust="spacing" textLength="83" x="968.5" y="72.1074">:Repositories</text><rect fill="#E3E3E3" height="51.2422" rx="2.5" ry="2.5" style="stroke:#181818;stroke-width:0.5;" width="97" x="961.5" y="1343.4551"/><text fill="#000000" font-family="sans-serif" font-size="14" lengthAdjust="spacing" textLength="74" x="973" y="1365.5625">repositories</text><text fill="#000000" font-family="sans-serif" font-size="14" lengthAdjust="spacing" textLength="83" x="968.5" y="1384.1836">:Repositories</text><rect fill="#E3E3E3" height="51.2422" rx="2.5" ry="2.5" style="stroke:#181818;stroke-width:0.5;" width="122" x="1068.5" y="31.3789"/><text fill="#000000" font-family="sans-serif" font-size="14" lengthAdjust="spacing" textLength="99" x="1080" y="53.4863">teamRepository</text><text fill="#000000" font-family="sans-serif" font-size="14" lengthAdjust="spacing" textLength="108" x="1075.5" y="72.1074">:TeamRepository</text><rect fill="#E3E3E3" height="51.2422" rx="2.5" ry="2.5" style="stroke:#181818;stroke-width:0.5;" width="122" x="1068.5" y="1343.4551"/><text fill="#000000" font-family="sans-serif" font-size="14" lengthAdjust="spacing" textLength="99" x="1080" y="1365.5625">teamRepository</text><text fill="#000000" font-family="sans-serif" font-size="14" lengthAdjust="spacing" textLength="108" x="1075.5" y="1384.1836">:TeamRepository</text><rect fill="#E3E3E3" height="51.2422" rx="2.5" ry="2.5" style="stroke:#181818;stroke-width:0.5;" width="117" x="1200.5" y="31.3789"/><text fill="#000000" font-family="sans-serif" font-size="14" lengthAdjust="spacing" textLength="94" x="1212" y="53.4863">taskRepository</text><text fill="#000000" font-family="sans-serif" font-size="14" lengthAdjust="spacing" textLength="103" x="1207.5" y="72.1074">:TaskRepository</text><rect fill="#E3E3E3" height="51.2422" rx="2.5" ry="2.5" style="stroke:#181818;stroke-width:0.5;" width="117" x="1200.5" y="1343.4551"/><text fill="#000000" font-family="sans-serif" font-size="14" lengthAdjust="spacing" textLength="94" x="1212" y="1365.5625">taskRepository</text><text fill="#000000" font-family="sans-serif" font-size="14" lengthAdjust="spacing" textLength="103" x="1207.5" y="1384.1836">:TaskRepository</text><rect fill="#E3E3E3" height="51.2422" rx="2.5" ry="2.5" style="stroke:#181818;stroke-width:0.5;" width="67" x="1327.5" y="31.3789"/><text fill="#000000" font-family="sans-serif" font-size="14" lengthAdjust="spacing" textLength="48" x="1337" y="53.4863">agenda</text><text fill="#000000" font-family="sans-serif" font-size="14" lengthAdjust="spacing" textLength="53" x="1334.5" y="72.1074">:Agenda</text><rect fill="#E3E3E3" height="51.2422" rx="2.5" ry="2.5" style="stroke:#181818;stroke-width:0.5;" width="67" x="1327.5" y="1343.4551"/><text fill="#000000" font-family="sans-serif" font-size="14" lengthAdjust="spacing" textLength="48" x="1337" y="1365.5625">agenda</text><text fill="#000000" font-family="sans-serif" font-size="14" lengthAdjust="spacing" textLength="53" x="1334.5" y="1384.1836">:Agenda</text><rect fill="#E3E3E3" height="32.6211" rx="2.5" ry="2.5" style="stroke:#181818;stroke-width:0.5;" width="99" x="1404.5" y="50"/><text fill="#000000" font-family="sans-serif" font-size="14" lengthAdjust="spacing" textLength="85" x="1411.5" y="72.1074">:EntryMapper</text><rect fill="#E3E3E3" height="32.6211" rx="2.5" ry="2.5" style="stroke:#181818;stroke-width:0.5;" width="99" x="1404.5" y="1343.4551"/><text fill="#000000" font-family="sans-serif" font-size="14" lengthAdjust="spacing" textLength="85" x="1411.5" y="1365.5625">:EntryMapper</text><rect fill="#FFFFFF" height="1232.834" style="stroke:#181818;stroke-width:1.0;" width="10" x="42" y="93.6211"/><rect fill="#FFFFFF" height="201.707" style="stroke:#181818;stroke-width:1.0;" width="10" x="408" y="116.9121"/><rect fill="#FFFFFF" height="158.0859" style="stroke:#181818;stroke-width:1.0;" width="10" x="408" y="349.9102"/><rect fill="#FFFFFF" height="31.291" style="stroke:#181818;stroke-width:1.0;" width="10" x="408" y="539.2871"/><rect fill="#FFFFFF" height="724.5859" style="stroke:#181818;stroke-width:1.0;" width="10" x="408" y="601.8691"/><rect fill="#FFFFFF" height="95.5039" style="stroke:#181818;stroke-width:1.0;" width="10" x="773" y="191.8242"/><rect fill="#FFFFFF" height="95.5039" style="stroke:#181818;stroke-width:1.0;" width="10" x="773" y="381.2012"/><rect fill="#FFFFFF" height="662.0039" style="stroke:#181818;stroke-width:1.0;" width="10" x="773" y="633.1602"/><rect fill="#FFFFFF" height="31.291" style="stroke:#181818;stroke-width:1.0;" width="10" x="898" y="664.4512"/><rect fill="#FFFFFF" height="31.291" style="stroke:#181818;stroke-width:1.0;" width="10" x="898" y="900.4492"/><rect fill="#FFFFFF" height="31.291" style="stroke:#181818;stroke-width:1.0;" width="10" x="1005" y="727.0332"/><rect fill="#FFFFFF" height="31.291" style="stroke:#181818;stroke-width:1.0;" width="10" x="1005" y="963.0313"/><rect fill="#FFFFFF" height="79.543" style="stroke:#181818;stroke-width:1.0;" width="10" x="1124.5" y="789.6152"/><rect fill="#FFFFFF" height="95.5039" style="stroke:#181818;stroke-width:1.0;" width="10" x="1356" y="1025.6133"/><rect fill="#FFFFFF" height="111.4648" style="stroke:#181818;stroke-width:1.0;" width="10" x="1449" y="1152.4082"/><polygon fill="#181818" points="396,112.9121,406,116.9121,396,120.9121,400,116.9121" style="stroke:#181818;stroke-width:1.0;"/><line style="stroke:#181818;stroke-width:1.0;" x1="52" x2="402" y1="116.9121" y2="116.9121"/><text fill="#000000" font-family="sans-serif" font-size="13" font-weight="bold" lengthAdjust="spacing" textLength="7" x="59" y="111.6494">1</text><text fill="#000000" font-family="sans-serif" font-size="13" lengthAdjust="spacing" textLength="243" x="70" y="111.6494">requests to consult tasks assigned to him</text><polygon fill="#181818" points="699.5,144.2031,709.5,148.2031,699.5,152.2031,703.5,148.2031" style="stroke:#181818;stroke-width:1.0;"/><line style="stroke:#181818;stroke-width:1.0;" x1="418" x2="705.5" y1="148.2031" y2="148.2031"/><text fill="#000000" font-family="sans-serif" font-size="13" font-weight="bold" lengthAdjust="spacing" textLength="7" x="425" y="142.9404">2</text><text fill="#000000" font-family="sans-serif" font-size="13" lengthAdjust="spacing" textLength="36" x="436" y="142.9404">create</text><rect fill="#E3E3E3" height="32.6211" rx="2.5" ry="2.5" style="stroke:#181818;stroke-width:0.5;" width="133" x="711.5" y="124.9121"/><text fill="#000000" font-family="sans-serif" font-size="14" lengthAdjust="spacing" textLength="119" x="718.5" y="147.0195">:ListTaskController</text><polygon fill="#181818" points="761,187.8242,771,191.8242,761,195.8242,765,191.8242" style="stroke:#181818;stroke-width:1.0;"/><line style="stroke:#181818;stroke-width:1.0;" x1="418" x2="767" y1="191.8242" y2="191.8242"/><text fill="#000000" font-family="sans-serif" font-size="13" font-weight="bold" lengthAdjust="spacing" textLength="7" x="425" y="186.5615">3</text><text fill="#000000" font-family="sans-serif" font-size="13" lengthAdjust="spacing" textLength="175" x="436" y="186.5615">getCollaboratorByEmail(email)</text><rect fill="none" height="59.2129" style="stroke:#000000;stroke-width:1.5;" width="178" x="708.5" y="199.8242"/><path d="M708.5,199.8242 L770.5,199.8242 L770.5,208.8242 L760.5,218.8242 L708.5,218.8242 L708.5,199.8242 " fill="#EEEEEE" style="stroke:#000000;stroke-width:2.0;"/><text fill="#000000" font-family="sans-serif" font-size="13" font-weight="bold" lengthAdjust="spacing" textLength="17" x="721.5" y="215.8525">ref</text><text fill="#000000" font-family="sans-serif" font-size="12" lengthAdjust="spacing" textLength="170" x="712.5" y="235.7734">Get Collaborator Though Email</text><text fill="#000000" font-family="sans-serif" font-size="12" lengthAdjust="spacing" textLength="3" x="796" y="251.7344">&#160;</text><polygon fill="#181818" points="429,283.3281,419,287.3281,429,291.3281,425,287.3281" style="stroke:#181818;stroke-width:1.0;"/><line style="stroke:#181818;stroke-width:1.0;stroke-dasharray:2.0,2.0;" x1="423" x2="777" y1="287.3281" y2="287.3281"/><text fill="#000000" font-family="sans-serif" font-size="13" font-weight="bold" lengthAdjust="spacing" textLength="7" x="435" y="282.0654">4</text><text fill="#000000" font-family="sans-serif" font-size="13" lengthAdjust="spacing" textLength="67" x="446" y="282.0654">collaborator</text><polygon fill="#181818" points="63,314.6191,53,318.6191,63,322.6191,59,318.6191" style="stroke:#181818;stroke-width:1.0;"/><line style="stroke:#181818;stroke-width:1.0;stroke-dasharray:2.0,2.0;" x1="57" x2="412" y1="318.6191" y2="318.6191"/><text fill="#000000" font-family="sans-serif" font-size="13" font-weight="bold" lengthAdjust="spacing" textLength="7" x="69" y="313.3564">5</text><text fill="#000000" font-family="sans-serif" font-size="13" lengthAdjust="spacing" textLength="321" x="80" y="313.3564">asks to select the beginning and end date of the search</text><polygon fill="#181818" points="396,345.9102,406,349.9102,396,353.9102,400,349.9102" style="stroke:#181818;stroke-width:1.0;"/><line style="stroke:#181818;stroke-width:1.0;" x1="52" x2="402" y1="349.9102" y2="349.9102"/><text fill="#000000" font-family="sans-serif" font-size="13" font-weight="bold" lengthAdjust="spacing" textLength="7" x="59" y="344.6475">6</text><text fill="#000000" font-family="sans-serif" font-size="13" lengthAdjust="spacing" textLength="202" x="70" y="344.6475">selects the beginning and end date</text><polygon fill="#181818" points="761,377.2012,771,381.2012,761,385.2012,765,381.2012" style="stroke:#181818;stroke-width:1.0;"/><line style="stroke:#181818;stroke-width:1.0;" x1="418" x2="767" y1="381.2012" y2="381.2012"/><text fill="#000000" font-family="sans-serif" font-size="13" font-weight="bold" lengthAdjust="spacing" textLength="7" x="425" y="375.9385">7</text><text fill="#000000" font-family="sans-serif" font-size="13" lengthAdjust="spacing" textLength="85" x="436" y="375.9385">getStatusList()</text><rect fill="none" height="59.2129" style="stroke:#000000;stroke-width:1.5;" width="139" x="708.5" y="389.2012"/><path d="M708.5,389.2012 L770.5,389.2012 L770.5,398.2012 L760.5,408.2012 L708.5,408.2012 L708.5,389.2012 " fill="#EEEEEE" style="stroke:#000000;stroke-width:2.0;"/><text fill="#000000" font-family="sans-serif" font-size="13" font-weight="bold" lengthAdjust="spacing" textLength="17" x="721.5" y="405.2295">ref</text><text fill="#000000" font-family="sans-serif" font-size="12" lengthAdjust="spacing" textLength="80" x="738" y="425.1504">Get Status List</text><text fill="#000000" font-family="sans-serif" font-size="12" lengthAdjust="spacing" textLength="3" x="776.5" y="441.1113">&#160;</text><polygon fill="#181818" points="429,472.7051,419,476.7051,429,480.7051,425,476.7051" style="stroke:#181818;stroke-width:1.0;"/><line style="stroke:#181818;stroke-width:1.0;stroke-dasharray:2.0,2.0;" x1="423" x2="777" y1="476.7051" y2="476.7051"/><text fill="#000000" font-family="sans-serif" font-size="13" font-weight="bold" lengthAdjust="spacing" textLength="7" x="435" y="471.4424">8</text><text fill="#000000" font-family="sans-serif" font-size="13" lengthAdjust="spacing" textLength="57" x="446" y="471.4424">statusList</text><polygon fill="#181818" points="63,503.9961,53,507.9961,63,511.9961,59,507.9961" style="stroke:#181818;stroke-width:1.0;"/><line style="stroke:#181818;stroke-width:1.0;stroke-dasharray:2.0,2.0;" x1="57" x2="412" y1="507.9961" y2="507.9961"/><text fill="#000000" font-family="sans-serif" font-size="13" font-weight="bold" lengthAdjust="spacing" textLength="7" x="69" y="502.7334">9</text><text fill="#000000" font-family="sans-serif" font-size="13" lengthAdjust="spacing" textLength="304" x="80" y="502.7334">asks to select the type of status he wants to consult</text><polygon fill="#181818" points="396,535.2871,406,539.2871,396,543.2871,400,539.2871" style="stroke:#181818;stroke-width:1.0;"/><line style="stroke:#181818;stroke-width:1.0;" x1="52" x2="402" y1="539.2871" y2="539.2871"/><text fill="#000000" font-family="sans-serif" font-size="13" font-weight="bold" lengthAdjust="spacing" textLength="14" x="59" y="534.0244">10</text><text fill="#000000" font-family="sans-serif" font-size="13" lengthAdjust="spacing" textLength="212" x="77" y="534.0244">Selects the type he wants to consult</text><polygon fill="#181818" points="63,566.5781,53,570.5781,63,574.5781,59,570.5781" style="stroke:#181818;stroke-width:1.0;"/><line style="stroke:#181818;stroke-width:1.0;stroke-dasharray:2.0,2.0;" x1="57" x2="412" y1="570.5781" y2="570.5781"/><text fill="#000000" font-family="sans-serif" font-size="13" font-weight="bold" lengthAdjust="spacing" textLength="14" x="69" y="565.3154">11</text><text fill="#000000" font-family="sans-serif" font-size="13" lengthAdjust="spacing" textLength="120" x="87" y="565.3154">asks for confirmation</text><polygon fill="#181818" points="396,597.8691,406,601.8691,396,605.8691,400,601.8691" style="stroke:#181818;stroke-width:1.0;"/><line style="stroke:#181818;stroke-width:1.0;" x1="52" x2="402" y1="601.8691" y2="601.8691"/><text fill="#000000" font-family="sans-serif" font-size="13" font-weight="bold" lengthAdjust="spacing" textLength="14" x="59" y="596.6064">12</text><text fill="#000000" font-family="sans-serif" font-size="13" lengthAdjust="spacing" textLength="229" x="77" y="596.6064">confirms that he wants to create the list</text><polygon fill="#181818" points="761,629.1602,771,633.1602,761,637.1602,765,633.1602" style="stroke:#181818;stroke-width:1.0;"/><line style="stroke:#181818;stroke-width:1.0;" x1="418" x2="767" y1="633.1602" y2="633.1602"/><text fill="#000000" font-family="sans-serif" font-size="13" font-weight="bold" lengthAdjust="spacing" textLength="14" x="425" y="627.8975">13</text><text fill="#000000" font-family="sans-serif" font-size="13" lengthAdjust="spacing" textLength="318" x="443" y="627.8975">getTaskList(collaborator,startDate,endDate,typeStatus)</text><polygon fill="#181818" points="886,660.4512,896,664.4512,886,668.4512,890,664.4512" style="stroke:#181818;stroke-width:1.0;"/><line style="stroke:#181818;stroke-width:1.0;" x1="783" x2="892" y1="664.4512" y2="664.4512"/><text fill="#000000" font-family="sans-serif" font-size="13" font-weight="bold" lengthAdjust="spacing" textLength="14" x="790" y="659.1885">14</text><text fill="#000000" font-family="sans-serif" font-size="13" lengthAdjust="spacing" textLength="75" x="808" y="659.1885">getInstance()</text><polygon fill="#181818" points="794,691.7422,784,695.7422,794,699.7422,790,695.7422" style="stroke:#181818;stroke-width:1.0;"/><line style="stroke:#181818;stroke-width:1.0;stroke-dasharray:2.0,2.0;" x1="788" x2="902" y1="695.7422" y2="695.7422"/><text fill="#000000" font-family="sans-serif" font-size="13" font-weight="bold" lengthAdjust="spacing" textLength="14" x="800" y="690.4795">15</text><text fill="#000000" font-family="sans-serif" font-size="13" lengthAdjust="spacing" textLength="67" x="818" y="690.4795">repositories</text><polygon fill="#181818" points="993,723.0332,1003,727.0332,993,731.0332,997,727.0332" style="stroke:#181818;stroke-width:1.0;"/><line style="stroke:#181818;stroke-width:1.0;" x1="783" x2="999" y1="727.0332" y2="727.0332"/><text fill="#000000" font-family="sans-serif" font-size="13" font-weight="bold" lengthAdjust="spacing" textLength="14" x="790" y="721.7705">16</text><text fill="#000000" font-family="sans-serif" font-size="13" lengthAdjust="spacing" textLength="120" x="808" y="721.7705">getTeamRepository()</text><polygon fill="#181818" points="794,754.3242,784,758.3242,794,762.3242,790,758.3242" style="stroke:#181818;stroke-width:1.0;"/><line style="stroke:#181818;stroke-width:1.0;stroke-dasharray:2.0,2.0;" x1="788" x2="1009" y1="758.3242" y2="758.3242"/><text fill="#000000" font-family="sans-serif" font-size="13" font-weight="bold" lengthAdjust="spacing" textLength="14" x="800" y="753.0615">17</text><text fill="#000000" font-family="sans-serif" font-size="13" lengthAdjust="spacing" textLength="91" x="818" y="753.0615">teamRepository</text><polygon fill="#181818" points="1112.5,785.6152,1122.5,789.6152,1112.5,793.6152,1116.5,789.6152" style="stroke:#181818;stroke-width:1.0;"/><line style="stroke:#181818;stroke-width:1.0;" x1="783" x2="1118.5" y1="789.6152" y2="789.6152"/><text fill="#000000" font-family="sans-serif" font-size="13" font-weight="bold" lengthAdjust="spacing" textLength="14" x="790" y="784.3525">18</text><text fill="#000000" font-family="sans-serif" font-size="13" lengthAdjust="spacing" textLength="243" x="808" y="784.3525">getTeamsThoughCollaborator(collaborator)</text><rect fill="none" height="43.252" style="stroke:#000000;stroke-width:1.5;" width="128" x="1065.5" y="797.6152"/><path d="M1065.5,797.6152 L1127.5,797.6152 L1127.5,806.6152 L1117.5,816.6152 L1065.5,816.6152 L1065.5,797.6152 " fill="#EEEEEE" style="stroke:#000000;stroke-width:2.0;"/><text fill="#000000" font-family="sans-serif" font-size="13" font-weight="bold" lengthAdjust="spacing" textLength="17" x="1078.5" y="813.6436">ref</text><text fill="#000000" font-family="sans-serif" font-size="12" lengthAdjust="spacing" textLength="77" x="1091" y="833.5645">Get Team List</text><polygon fill="#181818" points="794,865.1582,784,869.1582,794,873.1582,790,869.1582" style="stroke:#181818;stroke-width:1.0;"/><line style="stroke:#181818;stroke-width:1.0;stroke-dasharray:2.0,2.0;" x1="788" x2="1128.5" y1="869.1582" y2="869.1582"/><text fill="#000000" font-family="sans-serif" font-size="13" font-weight="bold" lengthAdjust="spacing" textLength="14" x="800" y="863.8955">19</text><text fill="#000000" font-family="sans-serif" font-size="13" lengthAdjust="spacing" textLength="50" x="818" y="863.8955">teamList</text><polygon fill="#181818" points="886,896.4492,896,900.4492,886,904.4492,890,900.4492" style="stroke:#181818;stroke-width:1.0;"/><line style="stroke:#181818;stroke-width:1.0;" x1="783" x2="892" y1="900.4492" y2="900.4492"/><text fill="#000000" font-family="sans-serif" font-size="13" font-weight="bold" lengthAdjust="spacing" textLength="14" x="790" y="895.1865">20</text><text fill="#000000" font-family="sans-serif" font-size="13" lengthAdjust="spacing" textLength="75" x="808" y="895.1865">getInstance()</text><polygon fill="#181818" points="794,927.7402,784,931.7402,794,935.7402,790,931.7402" style="stroke:#181818;stroke-width:1.0;"/><line style="stroke:#181818;stroke-width:1.0;stroke-dasharray:2.0,2.0;" x1="788" x2="902" y1="931.7402" y2="931.7402"/><text fill="#000000" font-family="sans-serif" font-size="13" font-weight="bold" lengthAdjust="spacing" textLength="14" x="800" y="926.4775">21</text><text fill="#000000" font-family="sans-serif" font-size="13" lengthAdjust="spacing" textLength="67" x="818" y="926.4775">repositories</text><polygon fill="#181818" points="993,959.0313,1003,963.0313,993,967.0313,997,963.0313" style="stroke:#181818;stroke-width:1.0;"/><line style="stroke:#181818;stroke-width:1.0;" x1="783" x2="999" y1="963.0313" y2="963.0313"/><text fill="#000000" font-family="sans-serif" font-size="13" font-weight="bold" lengthAdjust="spacing" textLength="14" x="790" y="957.7686">22</text><text fill="#000000" font-family="sans-serif" font-size="13" lengthAdjust="spacing" textLength="70" x="808" y="957.7686">getAgenda()</text><polygon fill="#181818" points="794,990.3223,784,994.3223,794,998.3223,790,994.3223" style="stroke:#181818;stroke-width:1.0;"/><line style="stroke:#181818;stroke-width:1.0;stroke-dasharray:2.0,2.0;" x1="788" x2="1009" y1="994.3223" y2="994.3223"/><text fill="#000000" font-family="sans-serif" font-size="13" font-weight="bold" lengthAdjust="spacing" textLength="14" x="800" y="989.0596">23</text><text fill="#000000" font-family="sans-serif" font-size="13" lengthAdjust="spacing" textLength="44" x="818" y="989.0596">Agenda</text><polygon fill="#181818" points="1344,1021.6133,1354,1025.6133,1344,1029.6133,1348,1025.6133" style="stroke:#181818;stroke-width:1.0;"/><line style="stroke:#181818;stroke-width:1.0;" x1="783" x2="1350" y1="1025.6133" y2="1025.6133"/><text fill="#000000" font-family="sans-serif" font-size="13" font-weight="bold" lengthAdjust="spacing" textLength="14" x="790" y="1020.3506">24</text><text fill="#000000" font-family="sans-serif" font-size="13" lengthAdjust="spacing" textLength="406" x="808" y="1020.3506">getCollaboratorAgendaEntries(teamList,dateStart,dateEnd,typeStatus)</text><rect fill="none" height="59.2129" style="stroke:#000000;stroke-width:1.5;" width="80" x="1324.5" y="1033.6133"/><path d="M1324.5,1033.6133 L1386.5,1033.6133 L1386.5,1042.6133 L1376.5,1052.6133 L1324.5,1052.6133 L1324.5,1033.6133 " fill="#EEEEEE" style="stroke:#000000;stroke-width:2.0;"/><text fill="#000000" font-family="sans-serif" font-size="13" font-weight="bold" lengthAdjust="spacing" textLength="17" x="1337.5" y="1049.6416">ref</text><text fill="#000000" font-family="sans-serif" font-size="12" lengthAdjust="spacing" textLength="72" x="1328.5" y="1069.5625">Get Entry List</text><text fill="#000000" font-family="sans-serif" font-size="12" lengthAdjust="spacing" textLength="3" x="1363" y="1085.5234">&#160;</text><polygon fill="#181818" points="794,1117.1172,784,1121.1172,794,1125.1172,790,1121.1172" style="stroke:#181818;stroke-width:1.0;"/><line style="stroke:#181818;stroke-width:1.0;stroke-dasharray:2.0,2.0;" x1="788" x2="1360" y1="1121.1172" y2="1121.1172"/><text fill="#000000" font-family="sans-serif" font-size="13" font-weight="bold" lengthAdjust="spacing" textLength="14" x="800" y="1115.8545">25</text><text fill="#000000" font-family="sans-serif" font-size="13" lengthAdjust="spacing" textLength="94" x="818" y="1115.8545">agendaEntryList</text><polygon fill="#181818" points="1437,1148.4082,1447,1152.4082,1437,1156.4082,1441,1152.4082" style="stroke:#181818;stroke-width:1.0;"/><line style="stroke:#181818;stroke-width:1.0;" x1="783" x2="1443" y1="1152.4082" y2="1152.4082"/><text fill="#000000" font-family="sans-serif" font-size="13" font-weight="bold" lengthAdjust="spacing" textLength="14" x="790" y="1147.1455">26</text><text fill="#000000" font-family="sans-serif" font-size="13" lengthAdjust="spacing" textLength="160" x="808" y="1147.1455">toDTOList(agendaEntryList)</text><rect fill="none" height="75.1738" style="stroke:#000000;stroke-width:1.5;" width="105" x="1401.5" y="1160.4082"/><path d="M1401.5,1160.4082 L1463.5,1160.4082 L1463.5,1169.4082 L1453.5,1179.4082 L1401.5,1179.4082 L1401.5,1160.4082 " fill="#EEEEEE" style="stroke:#000000;stroke-width:2.0;"/><text fill="#000000" font-family="sans-serif" font-size="13" font-weight="bold" lengthAdjust="spacing" textLength="17" x="1414.5" y="1176.4365">ref</text><text fill="#000000" font-family="sans-serif" font-size="12" lengthAdjust="spacing" textLength="75" x="1416.5" y="1196.3574">Create a copy</text><text fill="#000000" font-family="sans-serif" font-size="12" lengthAdjust="spacing" textLength="63" x="1422.5" y="1212.3184">of Entry List</text><text fill="#000000" font-family="sans-serif" font-size="12" lengthAdjust="spacing" textLength="3" x="1452.5" y="1228.2793">&#160;</text><polygon fill="#181818" points="794,1259.873,784,1263.873,794,1267.873,790,1263.873" style="stroke:#181818;stroke-width:1.0;"/><line style="stroke:#181818;stroke-width:1.0;stroke-dasharray:2.0,2.0;" x1="788" x2="1453" y1="1263.873" y2="1263.873"/><text fill="#000000" font-family="sans-serif" font-size="13" font-weight="bold" lengthAdjust="spacing" textLength="14" x="800" y="1258.6104">27</text><text fill="#000000" font-family="sans-serif" font-size="13" lengthAdjust="spacing" textLength="114" x="818" y="1258.6104">agendaEntryListDto</text><polygon fill="#181818" points="429,1291.1641,419,1295.1641,429,1299.1641,425,1295.1641" style="stroke:#181818;stroke-width:1.0;"/><line style="stroke:#181818;stroke-width:1.0;stroke-dasharray:2.0,2.0;" x1="423" x2="777" y1="1295.1641" y2="1295.1641"/><text fill="#000000" font-family="sans-serif" font-size="13" font-weight="bold" lengthAdjust="spacing" textLength="14" x="435" y="1289.9014">28</text><text fill="#000000" font-family="sans-serif" font-size="13" lengthAdjust="spacing" textLength="114" x="453" y="1289.9014">agendaEntryListDto</text><polygon fill="#181818" points="58,1322.4551,48,1326.4551,58,1330.4551,54,1326.4551" style="stroke:#181818;stroke-width:1.0;"/><line style="stroke:#181818;stroke-width:1.0;stroke-dasharray:2.0,2.0;" x1="52" x2="412" y1="1326.4551" y2="1326.4551"/><text fill="#000000" font-family="sans-serif" font-size="13" font-weight="bold" lengthAdjust="spacing" textLength="14" x="64" y="1321.1924">29</text><text fill="#000000" font-family="sans-serif" font-size="13" lengthAdjust="spacing" textLength="123" x="82" y="1321.1924">shows the LISTTASK</text><!--SRC=[tLR1Rjim3BtxAuIUkg7zWHuAP4rG1EksedPlkwWsOmkr9K-IM-JlHqcs8wbMZ6st-P2g5Fb4FbAar2lZFPMq8vtWecoaw81eEK2cvfsUbg-qXbmVMo0IIarvtVeAgg6LU6Uy9WVQAiWoEcZ1X-u59AvBBIIvk1DjIr-4fFZV1Q6Ae213SyrArbEkoSND0rEweEernmFXUM-rdlS9fJl1jKHC6D6AfuT8ymbweHWUnq1PdLbmp9c907qCJQHdyPCl0EmUGmCDj3kXeaaH2AnHg9D501X92108740WYW0mBxoYQBYn2skmkTzztsuYDdP8r_4RxVkHCBVCR7xO6zLW4vBX3xc-HTh93QRwrm1AemU2b8AheTNM6ONsYjKSAhFJi2uZ-Cquc38hG0n4Cedv_1dHIWcu6-sWl0RjryQNuwwZhBq4y_l9gWVeDj6pMCA1Y3UGJaoyxnuqyN59qOYXReX5Fm4WQVFQEdGzHLzwnhDA1GkEc71CF4ZT3R7y82qAMhmfH3T0Ng1cd9lhGNbbJYIL0H07kwk0ohB98dH3efyB1wVEuAqbmL6TQwe7PIxHvIgvvmcEoNR8n42748RY1CTgzkRV6DR7tlBfy0XAth7g_S9TupVt-BLeAOn5XaFV3bXjQ79WigEQOPDPENlKDOTJ7Hvixunrgfr8MasnQI4smNu5No4rKc_HxWhpOV-QC5tIafKGfUrsgOMwG_SS3-0bU5KLu2trta1p2Vdw59VVcWCxZzUpPymHx1v7ceA-dFGRMtxe9zfxVaNTFUMPZp9v4fgUd5AkK_dDAqXbmjCpdWGNUKLlkix64nBSpAMMQRueZeYS3n0UBV5e_ByBpateloqqP_r71URU0Hz7h8Co3mACxN9AqfKP8hdf4dQruzLYXmYS7byQwM8R5L95PXyb2oCZBhCn4eyEEiTmJ8sFsBc95lVoCUKfjiKFsoaZj4IquvCf6MnYtvxj6Zd5NjyltpcSNcjiXC8nZ3GdMorIvJ8z_fQdyXcSzUci6l7knkZ3FY-AJVvrQVpvEABz3G00]--></g></svg>