<?xml version="1.0" encoding="us-ascii" standalone="no"?><svg xmlns="http://www.w3.org/2000/svg" xmlns:xlink="http://www.w3.org/1999/xlink" contentStyleType="text/css" height="1663px" preserveAspectRatio="none" style="width:1472px;height:1663px;background:#FFFFFF;" version="1.1" viewBox="0 0 1472 1663" width="1472px" zoomAndPan="magnify"><defs/><g><rect fill="#FFFFFF" height="1468.832" style="stroke:#181818;stroke-width:1.0;" width="10" x="42" y="93.6211"/><rect fill="#FFFFFF" height="201.707" style="stroke:#181818;stroke-width:1.0;" width="10" x="408" y="116.9121"/><rect fill="#FFFFFF" height="158.0859" style="stroke:#181818;stroke-width:1.0;" width="10" x="408" y="349.9102"/><rect fill="#FFFFFF" height="31.291" style="stroke:#181818;stroke-width:1.0;" width="10" x="408" y="539.2871"/><rect fill="#FFFFFF" height="960.584" style="stroke:#181818;stroke-width:1.0;" width="10" x="408" y="601.8691"/><rect fill="#FFFFFF" height="95.5039" style="stroke:#181818;stroke-width:1.0;" width="10" x="733" y="191.8242"/><rect fill="#FFFFFF" height="95.5039" style="stroke:#181818;stroke-width:1.0;" width="10" x="733" y="381.2012"/><rect fill="#FFFFFF" height="898.002" style="stroke:#181818;stroke-width:1.0;" width="10" x="733" y="633.1602"/><rect fill="#FFFFFF" height="31.291" style="stroke:#181818;stroke-width:1.0;" width="10" x="858" y="664.4512"/><rect fill="#FFFFFF" height="31.291" style="stroke:#181818;stroke-width:1.0;" width="10" x="858" y="900.4492"/><rect fill="#FFFFFF" height="31.291" style="stroke:#181818;stroke-width:1.0;" width="10" x="858" y="1136.4473"/><rect fill="#FFFFFF" height="31.291" style="stroke:#181818;stroke-width:1.0;" width="10" x="965" y="727.0332"/><rect fill="#FFFFFF" height="31.291" style="stroke:#181818;stroke-width:1.0;" width="10" x="965" y="963.0313"/><rect fill="#FFFFFF" height="31.291" style="stroke:#181818;stroke-width:1.0;" width="10" x="965" y="1199.0293"/><rect fill="#FFFFFF" height="79.543" style="stroke:#181818;stroke-width:1.0;" width="10" x="1084.5" y="789.6152"/><rect fill="#FFFFFF" height="79.543" style="stroke:#181818;stroke-width:1.0;" width="10" x="1214" y="1025.6133"/><rect fill="#FFFFFF" height="95.5039" style="stroke:#181818;stroke-width:1.0;" width="10" x="1316" y="1261.6113"/><rect fill="#FFFFFF" height="111.4648" style="stroke:#181818;stroke-width:1.0;" width="10" x="1409" y="1388.4063"/><line style="stroke:#181818;stroke-width:0.5;stroke-dasharray:5.0,5.0;" x1="47" x2="47" y1="83.6211" y2="1580.4531"/><line style="stroke:#181818;stroke-width:0.5;stroke-dasharray:5.0,5.0;" x1="412.5" x2="412.5" y1="83.6211" y2="1580.4531"/><line style="stroke:#181818;stroke-width:0.5;stroke-dasharray:5.0,5.0;" x1="737.5" x2="737.5" y1="156.7227" y2="1580.4531"/><line style="stroke:#181818;stroke-width:0.5;stroke-dasharray:5.0,5.0;" x1="862.5" x2="862.5" y1="83.6211" y2="1580.4531"/><line style="stroke:#181818;stroke-width:0.5;stroke-dasharray:5.0,5.0;" x1="969.5" x2="969.5" y1="83.6211" y2="1580.4531"/><line style="stroke:#181818;stroke-width:0.5;stroke-dasharray:5.0,5.0;" x1="1089.5" x2="1089.5" y1="83.6211" y2="1580.4531"/><line style="stroke:#181818;stroke-width:0.5;stroke-dasharray:5.0,5.0;" x1="1218.5" x2="1218.5" y1="83.6211" y2="1580.4531"/><line style="stroke:#181818;stroke-width:0.5;stroke-dasharray:5.0,5.0;" x1="1320.5" x2="1320.5" y1="83.6211" y2="1580.4531"/><line style="stroke:#181818;stroke-width:0.5;stroke-dasharray:5.0,5.0;" x1="1413.5" x2="1413.5" y1="83.6211" y2="1580.4531"/><text fill="#000000" font-family="sans-serif" font-size="14" lengthAdjust="spacing" textLength="78" x="5" y="80.1074">Collaborator</text><ellipse cx="47" cy="13.5" fill="#E3E3E3" rx="8" ry="8" style="stroke:#181818;stroke-width:0.5;"/><path d="M47,21.5 L47,48.5 M34,29.5 L60,29.5 M47,48.5 L34,63.5 M47,48.5 L60,63.5 " fill="none" style="stroke:#181818;stroke-width:0.5;"/><text fill="#000000" font-family="sans-serif" font-size="14" lengthAdjust="spacing" textLength="78" x="5" y="1594.5605">Collaborator</text><ellipse cx="47" cy="1606.5742" fill="#E3E3E3" rx="8" ry="8" style="stroke:#181818;stroke-width:0.5;"/><path d="M47,1614.5742 L47,1641.5742 M34,1622.5742 L60,1622.5742 M47,1641.5742 L34,1656.5742 M47,1641.5742 L60,1656.5742 " fill="none" style="stroke:#181818;stroke-width:0.5;"/><rect fill="#E3E3E3" height="32.6211" rx="2.5" ry="2.5" style="stroke:#181818;stroke-width:0.5;" width="123" x="351.5" y="50"/><text fill="#000000" font-family="sans-serif" font-size="14" lengthAdjust="spacing" textLength="109" x="358.5" y="72.1074">:ListTaskSpaceUI</text><rect fill="#E3E3E3" height="32.6211" rx="2.5" ry="2.5" style="stroke:#181818;stroke-width:0.5;" width="123" x="351.5" y="1579.4531"/><text fill="#000000" font-family="sans-serif" font-size="14" lengthAdjust="spacing" textLength="109" x="358.5" y="1601.5605">:ListTaskSpaceUI</text><rect fill="#E3E3E3" height="32.6211" rx="2.5" ry="2.5" style="stroke:#181818;stroke-width:0.5;" width="133" x="671.5" y="1579.4531"/><text fill="#000000" font-family="sans-serif" font-size="14" lengthAdjust="spacing" textLength="119" x="678.5" y="1601.5605">:ListTaskController</text><rect fill="#E3E3E3" height="32.6211" rx="2.5" ry="2.5" style="stroke:#181818;stroke-width:0.5;" width="97" x="814.5" y="50"/><text fill="#000000" font-family="sans-serif" font-size="14" lengthAdjust="spacing" textLength="83" x="821.5" y="72.1074">:Repositories</text><rect fill="#E3E3E3" height="32.6211" rx="2.5" ry="2.5" style="stroke:#181818;stroke-width:0.5;" width="97" x="814.5" y="1579.4531"/><text fill="#000000" font-family="sans-serif" font-size="14" lengthAdjust="spacing" textLength="83" x="821.5" y="1601.5605">:Repositories</text><rect fill="#E3E3E3" height="51.2422" rx="2.5" ry="2.5" style="stroke:#181818;stroke-width:0.5;" width="97" x="921.5" y="31.3789"/><text fill="#000000" font-family="sans-serif" font-size="14" lengthAdjust="spacing" textLength="74" x="933" y="53.4863">repositories</text><text fill="#000000" font-family="sans-serif" font-size="14" lengthAdjust="spacing" textLength="83" x="928.5" y="72.1074">:Repositories</text><rect fill="#E3E3E3" height="51.2422" rx="2.5" ry="2.5" style="stroke:#181818;stroke-width:0.5;" width="97" x="921.5" y="1579.4531"/><text fill="#000000" font-family="sans-serif" font-size="14" lengthAdjust="spacing" textLength="74" x="933" y="1601.5605">repositories</text><text fill="#000000" font-family="sans-serif" font-size="14" lengthAdjust="spacing" textLength="83" x="928.5" y="1620.1816">:Repositories</text><rect fill="#E3E3E3" height="51.2422" rx="2.5" ry="2.5" style="stroke:#181818;stroke-width:0.5;" width="122" x="1028.5" y="31.3789"/><text fill="#000000" font-family="sans-serif" font-size="14" lengthAdjust="spacing" textLength="99" x="1040" y="53.4863">teamRepository</text><text fill="#000000" font-family="sans-serif" font-size="14" lengthAdjust="spacing" textLength="108" x="1035.5" y="72.1074">:TeamRepository</text><rect fill="#E3E3E3" height="51.2422" rx="2.5" ry="2.5" style="stroke:#181818;stroke-width:0.5;" width="122" x="1028.5" y="1579.4531"/><text fill="#000000" font-family="sans-serif" font-size="14" lengthAdjust="spacing" textLength="99" x="1040" y="1601.5605">teamRepository</text><text fill="#000000" font-family="sans-serif" font-size="14" lengthAdjust="spacing" textLength="108" x="1035.5" y="1620.1816">:TeamRepository</text><rect fill="#E3E3E3" height="51.2422" rx="2.5" ry="2.5" style="stroke:#181818;stroke-width:0.5;" width="117" x="1160.5" y="31.3789"/><text fill="#000000" font-family="sans-serif" font-size="14" lengthAdjust="spacing" textLength="94" x="1172" y="53.4863">taskRepository</text><text fill="#000000" font-family="sans-serif" font-size="14" lengthAdjust="spacing" textLength="103" x="1167.5" y="72.1074">:TaskRepository</text><rect fill="#E3E3E3" height="51.2422" rx="2.5" ry="2.5" style="stroke:#181818;stroke-width:0.5;" width="117" x="1160.5" y="1579.4531"/><text fill="#000000" font-family="sans-serif" font-size="14" lengthAdjust="spacing" textLength="94" x="1172" y="1601.5605">taskRepository</text><text fill="#000000" font-family="sans-serif" font-size="14" lengthAdjust="spacing" textLength="103" x="1167.5" y="1620.1816">:TaskRepository</text><rect fill="#E3E3E3" height="51.2422" rx="2.5" ry="2.5" style="stroke:#181818;stroke-width:0.5;" width="67" x="1287.5" y="31.3789"/><text fill="#000000" font-family="sans-serif" font-size="14" lengthAdjust="spacing" textLength="48" x="1297" y="53.4863">agenda</text><text fill="#000000" font-family="sans-serif" font-size="14" lengthAdjust="spacing" textLength="53" x="1294.5" y="72.1074">:Agenda</text><rect fill="#E3E3E3" height="51.2422" rx="2.5" ry="2.5" style="stroke:#181818;stroke-width:0.5;" width="67" x="1287.5" y="1579.4531"/><text fill="#000000" font-family="sans-serif" font-size="14" lengthAdjust="spacing" textLength="48" x="1297" y="1601.5605">agenda</text><text fill="#000000" font-family="sans-serif" font-size="14" lengthAdjust="spacing" textLength="53" x="1294.5" y="1620.1816">:Agenda</text><rect fill="#E3E3E3" height="32.6211" rx="2.5" ry="2.5" style="stroke:#181818;stroke-width:0.5;" width="99" x="1364.5" y="50"/><text fill="#000000" font-family="sans-serif" font-size="14" lengthAdjust="spacing" textLength="85" x="1371.5" y="72.1074">:EntryMapper</text><rect fill="#E3E3E3" height="32.6211" rx="2.5" ry="2.5" style="stroke:#181818;stroke-width:0.5;" width="99" x="1364.5" y="1579.4531"/><text fill="#000000" font-family="sans-serif" font-size="14" lengthAdjust="spacing" textLength="85" x="1371.5" y="1601.5605">:EntryMapper</text><rect fill="#FFFFFF" height="1468.832" style="stroke:#181818;stroke-width:1.0;" width="10" x="42" y="93.6211"/><rect fill="#FFFFFF" height="201.707" style="stroke:#181818;stroke-width:1.0;" width="10" x="408" y="116.9121"/><rect fill="#FFFFFF" height="158.0859" style="stroke:#181818;stroke-width:1.0;" width="10" x="408" y="349.9102"/><rect fill="#FFFFFF" height="31.291" style="stroke:#181818;stroke-width:1.0;" width="10" x="408" y="539.2871"/><rect fill="#FFFFFF" height="960.584" style="stroke:#181818;stroke-width:1.0;" width="10" x="408" y="601.8691"/><rect fill="#FFFFFF" height="95.5039" style="stroke:#181818;stroke-width:1.0;" width="10" x="733" y="191.8242"/><rect fill="#FFFFFF" height="95.5039" style="stroke:#181818;stroke-width:1.0;" width="10" x="733" y="381.2012"/><rect fill="#FFFFFF" height="898.002" style="stroke:#181818;stroke-width:1.0;" width="10" x="733" y="633.1602"/><rect fill="#FFFFFF" height="31.291" style="stroke:#181818;stroke-width:1.0;" width="10" x="858" y="664.4512"/><rect fill="#FFFFFF" height="31.291" style="stroke:#181818;stroke-width:1.0;" width="10" x="858" y="900.4492"/><rect fill="#FFFFFF" height="31.291" style="stroke:#181818;stroke-width:1.0;" width="10" x="858" y="1136.4473"/><rect fill="#FFFFFF" height="31.291" style="stroke:#181818;stroke-width:1.0;" width="10" x="965" y="727.0332"/><rect fill="#FFFFFF" height="31.291" style="stroke:#181818;stroke-width:1.0;" width="10" x="965" y="963.0313"/><rect fill="#FFFFFF" height="31.291" style="stroke:#181818;stroke-width:1.0;" width="10" x="965" y="1199.0293"/><rect fill="#FFFFFF" height="79.543" style="stroke:#181818;stroke-width:1.0;" width="10" x="1084.5" y="789.6152"/><rect fill="#FFFFFF" height="79.543" style="stroke:#181818;stroke-width:1.0;" width="10" x="1214" y="1025.6133"/><rect fill="#FFFFFF" height="95.5039" style="stroke:#181818;stroke-width:1.0;" width="10" x="1316" y="1261.6113"/><rect fill="#FFFFFF" height="111.4648" style="stroke:#181818;stroke-width:1.0;" width="10" x="1409" y="1388.4063"/><polygon fill="#181818" points="396,112.9121,406,116.9121,396,120.9121,400,116.9121" style="stroke:#181818;stroke-width:1.0;"/><line style="stroke:#181818;stroke-width:1.0;" x1="52" x2="402" y1="116.9121" y2="116.9121"/><text fill="#000000" font-family="sans-serif" font-size="13" font-weight="bold" lengthAdjust="spacing" textLength="7" x="59" y="111.6494">1</text><text fill="#000000" font-family="sans-serif" font-size="13" lengthAdjust="spacing" textLength="243" x="70" y="111.6494">requests to consult tasks assigned to him</text><polygon fill="#181818" points="659.5,144.2031,669.5,148.2031,659.5,152.2031,663.5,148.2031" style="stroke:#181818;stroke-width:1.0;"/><line style="stroke:#181818;stroke-width:1.0;" x1="418" x2="665.5" y1="148.2031" y2="148.2031"/><text fill="#000000" font-family="sans-serif" font-size="13" font-weight="bold" lengthAdjust="spacing" textLength="7" x="425" y="142.9404">2</text><text fill="#000000" font-family="sans-serif" font-size="13" lengthAdjust="spacing" textLength="36" x="436" y="142.9404">create</text><rect fill="#E3E3E3" height="32.6211" rx="2.5" ry="2.5" style="stroke:#181818;stroke-width:0.5;" width="133" x="671.5" y="124.9121"/><text fill="#000000" font-family="sans-serif" font-size="14" lengthAdjust="spacing" textLength="119" x="678.5" y="147.0195">:ListTaskController</text><polygon fill="#181818" points="721,187.8242,731,191.8242,721,195.8242,725,191.8242" style="stroke:#181818;stroke-width:1.0;"/><line style="stroke:#181818;stroke-width:1.0;" x1="418" x2="727" y1="191.8242" y2="191.8242"/><text fill="#000000" font-family="sans-serif" font-size="13" font-weight="bold" lengthAdjust="spacing" textLength="7" x="425" y="186.5615">3</text><text fill="#000000" font-family="sans-serif" font-size="13" lengthAdjust="spacing" textLength="175" x="436" y="186.5615">getCollaboratorByEmail(email)</text><rect fill="none" height="59.2129" style="stroke:#000000;stroke-width:1.5;" width="178" x="668.5" y="199.8242"/><path d="M668.5,199.8242 L730.5,199.8242 L730.5,208.8242 L720.5,218.8242 L668.5,218.8242 L668.5,199.8242 " fill="#EEEEEE" style="stroke:#000000;stroke-width:2.0;"/><text fill="#000000" font-family="sans-serif" font-size="13" font-weight="bold" lengthAdjust="spacing" textLength="17" x="681.5" y="215.8525">ref</text><text fill="#000000" font-family="sans-serif" font-size="12" lengthAdjust="spacing" textLength="170" x="672.5" y="235.7734">Get Collaborator Though Email</text><text fill="#000000" font-family="sans-serif" font-size="12" lengthAdjust="spacing" textLength="3" x="756" y="251.7344">&#160;</text><polygon fill="#181818" points="429,283.3281,419,287.3281,429,291.3281,425,287.3281" style="stroke:#181818;stroke-width:1.0;"/><line style="stroke:#181818;stroke-width:1.0;stroke-dasharray:2.0,2.0;" x1="423" x2="737" y1="287.3281" y2="287.3281"/><text fill="#000000" font-family="sans-serif" font-size="13" font-weight="bold" lengthAdjust="spacing" textLength="7" x="435" y="282.0654">4</text><text fill="#000000" font-family="sans-serif" font-size="13" lengthAdjust="spacing" textLength="67" x="446" y="282.0654">collaborator</text><polygon fill="#181818" points="63,314.6191,53,318.6191,63,322.6191,59,318.6191" style="stroke:#181818;stroke-width:1.0;"/><line style="stroke:#181818;stroke-width:1.0;stroke-dasharray:2.0,2.0;" x1="57" x2="412" y1="318.6191" y2="318.6191"/><text fill="#000000" font-family="sans-serif" font-size="13" font-weight="bold" lengthAdjust="spacing" textLength="7" x="69" y="313.3564">5</text><text fill="#000000" font-family="sans-serif" font-size="13" lengthAdjust="spacing" textLength="321" x="80" y="313.3564">asks to select the beginning and end date of the search</text><polygon fill="#181818" points="396,345.9102,406,349.9102,396,353.9102,400,349.9102" style="stroke:#181818;stroke-width:1.0;"/><line style="stroke:#181818;stroke-width:1.0;" x1="52" x2="402" y1="349.9102" y2="349.9102"/><text fill="#000000" font-family="sans-serif" font-size="13" font-weight="bold" lengthAdjust="spacing" textLength="7" x="59" y="344.6475">6</text><text fill="#000000" font-family="sans-serif" font-size="13" lengthAdjust="spacing" textLength="202" x="70" y="344.6475">selects the beginning and end date</text><polygon fill="#181818" points="721,377.2012,731,381.2012,721,385.2012,725,381.2012" style="stroke:#181818;stroke-width:1.0;"/><line style="stroke:#181818;stroke-width:1.0;" x1="418" x2="727" y1="381.2012" y2="381.2012"/><text fill="#000000" font-family="sans-serif" font-size="13" font-weight="bold" lengthAdjust="spacing" textLength="7" x="425" y="375.9385">7</text><text fill="#000000" font-family="sans-serif" font-size="13" lengthAdjust="spacing" textLength="85" x="436" y="375.9385">getStatusList()</text><rect fill="none" height="59.2129" style="stroke:#000000;stroke-width:1.5;" width="139" x="668.5" y="389.2012"/><path d="M668.5,389.2012 L730.5,389.2012 L730.5,398.2012 L720.5,408.2012 L668.5,408.2012 L668.5,389.2012 " fill="#EEEEEE" style="stroke:#000000;stroke-width:2.0;"/><text fill="#000000" font-family="sans-serif" font-size="13" font-weight="bold" lengthAdjust="spacing" textLength="17" x="681.5" y="405.2295">ref</text><text fill="#000000" font-family="sans-serif" font-size="12" lengthAdjust="spacing" textLength="80" x="698" y="425.1504">Get Status List</text><text fill="#000000" font-family="sans-serif" font-size="12" lengthAdjust="spacing" textLength="3" x="736.5" y="441.1113">&#160;</text><polygon fill="#181818" points="429,472.7051,419,476.7051,429,480.7051,425,476.7051" style="stroke:#181818;stroke-width:1.0;"/><line style="stroke:#181818;stroke-width:1.0;stroke-dasharray:2.0,2.0;" x1="423" x2="737" y1="476.7051" y2="476.7051"/><text fill="#000000" font-family="sans-serif" font-size="13" font-weight="bold" lengthAdjust="spacing" textLength="7" x="435" y="471.4424">8</text><text fill="#000000" font-family="sans-serif" font-size="13" lengthAdjust="spacing" textLength="57" x="446" y="471.4424">statusList</text><polygon fill="#181818" points="63,503.9961,53,507.9961,63,511.9961,59,507.9961" style="stroke:#181818;stroke-width:1.0;"/><line style="stroke:#181818;stroke-width:1.0;stroke-dasharray:2.0,2.0;" x1="57" x2="412" y1="507.9961" y2="507.9961"/><text fill="#000000" font-family="sans-serif" font-size="13" font-weight="bold" lengthAdjust="spacing" textLength="7" x="69" y="502.7334">9</text><text fill="#000000" font-family="sans-serif" font-size="13" lengthAdjust="spacing" textLength="304" x="80" y="502.7334">asks to select the type of status he wants to consult</text><polygon fill="#181818" points="396,535.2871,406,539.2871,396,543.2871,400,539.2871" style="stroke:#181818;stroke-width:1.0;"/><line style="stroke:#181818;stroke-width:1.0;" x1="52" x2="402" y1="539.2871" y2="539.2871"/><text fill="#000000" font-family="sans-serif" font-size="13" font-weight="bold" lengthAdjust="spacing" textLength="14" x="59" y="534.0244">10</text><text fill="#000000" font-family="sans-serif" font-size="13" lengthAdjust="spacing" textLength="212" x="77" y="534.0244">Selects the type he wants to consult</text><polygon fill="#181818" points="63,566.5781,53,570.5781,63,574.5781,59,570.5781" style="stroke:#181818;stroke-width:1.0;"/><line style="stroke:#181818;stroke-width:1.0;stroke-dasharray:2.0,2.0;" x1="57" x2="412" y1="570.5781" y2="570.5781"/><text fill="#000000" font-family="sans-serif" font-size="13" font-weight="bold" lengthAdjust="spacing" textLength="14" x="69" y="565.3154">11</text><text fill="#000000" font-family="sans-serif" font-size="13" lengthAdjust="spacing" textLength="120" x="87" y="565.3154">asks for confirmation</text><polygon fill="#181818" points="396,597.8691,406,601.8691,396,605.8691,400,601.8691" style="stroke:#181818;stroke-width:1.0;"/><line style="stroke:#181818;stroke-width:1.0;" x1="52" x2="402" y1="601.8691" y2="601.8691"/><text fill="#000000" font-family="sans-serif" font-size="13" font-weight="bold" lengthAdjust="spacing" textLength="14" x="59" y="596.6064">12</text><text fill="#000000" font-family="sans-serif" font-size="13" lengthAdjust="spacing" textLength="229" x="77" y="596.6064">confirms that he wants to create the list</text><polygon fill="#181818" points="721,629.1602,731,633.1602,721,637.1602,725,633.1602" style="stroke:#181818;stroke-width:1.0;"/><line style="stroke:#181818;stroke-width:1.0;" x1="418" x2="727" y1="633.1602" y2="633.1602"/><text fill="#000000" font-family="sans-serif" font-size="13" font-weight="bold" lengthAdjust="spacing" textLength="14" x="425" y="627.8975">13</text><text fill="#000000" font-family="sans-serif" font-size="13" lengthAdjust="spacing" textLength="278" x="443" y="627.8975">getTaskList(collaborator,dateI,dateF,typeStatus)</text><polygon fill="#181818" points="846,660.4512,856,664.4512,846,668.4512,850,664.4512" style="stroke:#181818;stroke-width:1.0;"/><line style="stroke:#181818;stroke-width:1.0;" x1="743" x2="852" y1="664.4512" y2="664.4512"/><text fill="#000000" font-family="sans-serif" font-size="13" font-weight="bold" lengthAdjust="spacing" textLength="14" x="750" y="659.1885">14</text><text fill="#000000" font-family="sans-serif" font-size="13" lengthAdjust="spacing" textLength="75" x="768" y="659.1885">getInstance()</text><polygon fill="#181818" points="754,691.7422,744,695.7422,754,699.7422,750,695.7422" style="stroke:#181818;stroke-width:1.0;"/><line style="stroke:#181818;stroke-width:1.0;stroke-dasharray:2.0,2.0;" x1="748" x2="862" y1="695.7422" y2="695.7422"/><text fill="#000000" font-family="sans-serif" font-size="13" font-weight="bold" lengthAdjust="spacing" textLength="14" x="760" y="690.4795">15</text><text fill="#000000" font-family="sans-serif" font-size="13" lengthAdjust="spacing" textLength="67" x="778" y="690.4795">repositories</text><polygon fill="#181818" points="953,723.0332,963,727.0332,953,731.0332,957,727.0332" style="stroke:#181818;stroke-width:1.0;"/><line style="stroke:#181818;stroke-width:1.0;" x1="743" x2="959" y1="727.0332" y2="727.0332"/><text fill="#000000" font-family="sans-serif" font-size="13" font-weight="bold" lengthAdjust="spacing" textLength="14" x="750" y="721.7705">16</text><text fill="#000000" font-family="sans-serif" font-size="13" lengthAdjust="spacing" textLength="120" x="768" y="721.7705">getTeamRepository()</text><polygon fill="#181818" points="754,754.3242,744,758.3242,754,762.3242,750,758.3242" style="stroke:#181818;stroke-width:1.0;"/><line style="stroke:#181818;stroke-width:1.0;stroke-dasharray:2.0,2.0;" x1="748" x2="969" y1="758.3242" y2="758.3242"/><text fill="#000000" font-family="sans-serif" font-size="13" font-weight="bold" lengthAdjust="spacing" textLength="14" x="760" y="753.0615">17</text><text fill="#000000" font-family="sans-serif" font-size="13" lengthAdjust="spacing" textLength="91" x="778" y="753.0615">teamRepository</text><polygon fill="#181818" points="1072.5,785.6152,1082.5,789.6152,1072.5,793.6152,1076.5,789.6152" style="stroke:#181818;stroke-width:1.0;"/><line style="stroke:#181818;stroke-width:1.0;" x1="743" x2="1078.5" y1="789.6152" y2="789.6152"/><text fill="#000000" font-family="sans-serif" font-size="13" font-weight="bold" lengthAdjust="spacing" textLength="14" x="750" y="784.3525">18</text><text fill="#000000" font-family="sans-serif" font-size="13" lengthAdjust="spacing" textLength="243" x="768" y="784.3525">getTeamsThoughCollaborator(collaborator)</text><rect fill="none" height="43.252" style="stroke:#000000;stroke-width:1.5;" width="128" x="1025.5" y="797.6152"/><path d="M1025.5,797.6152 L1087.5,797.6152 L1087.5,806.6152 L1077.5,816.6152 L1025.5,816.6152 L1025.5,797.6152 " fill="#EEEEEE" style="stroke:#000000;stroke-width:2.0;"/><text fill="#000000" font-family="sans-serif" font-size="13" font-weight="bold" lengthAdjust="spacing" textLength="17" x="1038.5" y="813.6436">ref</text><text fill="#000000" font-family="sans-serif" font-size="12" lengthAdjust="spacing" textLength="77" x="1051" y="833.5645">Get Team List</text><polygon fill="#181818" points="754,865.1582,744,869.1582,754,873.1582,750,869.1582" style="stroke:#181818;stroke-width:1.0;"/><line style="stroke:#181818;stroke-width:1.0;stroke-dasharray:2.0,2.0;" x1="748" x2="1088.5" y1="869.1582" y2="869.1582"/><text fill="#000000" font-family="sans-serif" font-size="13" font-weight="bold" lengthAdjust="spacing" textLength="14" x="760" y="863.8955">19</text><text fill="#000000" font-family="sans-serif" font-size="13" lengthAdjust="spacing" textLength="50" x="778" y="863.8955">teamList</text><polygon fill="#181818" points="846,896.4492,856,900.4492,846,904.4492,850,900.4492" style="stroke:#181818;stroke-width:1.0;"/><line style="stroke:#181818;stroke-width:1.0;" x1="743" x2="852" y1="900.4492" y2="900.4492"/><text fill="#000000" font-family="sans-serif" font-size="13" font-weight="bold" lengthAdjust="spacing" textLength="14" x="750" y="895.1865">20</text><text fill="#000000" font-family="sans-serif" font-size="13" lengthAdjust="spacing" textLength="75" x="768" y="895.1865">getInstance()</text><polygon fill="#181818" points="754,927.7402,744,931.7402,754,935.7402,750,931.7402" style="stroke:#181818;stroke-width:1.0;"/><line style="stroke:#181818;stroke-width:1.0;stroke-dasharray:2.0,2.0;" x1="748" x2="862" y1="931.7402" y2="931.7402"/><text fill="#000000" font-family="sans-serif" font-size="13" font-weight="bold" lengthAdjust="spacing" textLength="14" x="760" y="926.4775">21</text><text fill="#000000" font-family="sans-serif" font-size="13" lengthAdjust="spacing" textLength="67" x="778" y="926.4775">repositories</text><polygon fill="#181818" points="953,959.0313,963,963.0313,953,967.0313,957,963.0313" style="stroke:#181818;stroke-width:1.0;"/><line style="stroke:#181818;stroke-width:1.0;" x1="743" x2="959" y1="963.0313" y2="963.0313"/><text fill="#000000" font-family="sans-serif" font-size="13" font-weight="bold" lengthAdjust="spacing" textLength="14" x="750" y="957.7686">22</text><text fill="#000000" font-family="sans-serif" font-size="13" lengthAdjust="spacing" textLength="116" x="768" y="957.7686">getTaskRepository()</text><polygon fill="#181818" points="754,990.3223,744,994.3223,754,998.3223,750,994.3223" style="stroke:#181818;stroke-width:1.0;"/><line style="stroke:#181818;stroke-width:1.0;stroke-dasharray:2.0,2.0;" x1="748" x2="969" y1="994.3223" y2="994.3223"/><text fill="#000000" font-family="sans-serif" font-size="13" font-weight="bold" lengthAdjust="spacing" textLength="14" x="760" y="989.0596">23</text><text fill="#000000" font-family="sans-serif" font-size="13" lengthAdjust="spacing" textLength="87" x="778" y="989.0596">taskRepository</text><polygon fill="#181818" points="1202,1021.6133,1212,1025.6133,1202,1029.6133,1206,1025.6133" style="stroke:#181818;stroke-width:1.0;"/><line style="stroke:#181818;stroke-width:1.0;" x1="743" x2="1208" y1="1025.6133" y2="1025.6133"/><text fill="#000000" font-family="sans-serif" font-size="13" font-weight="bold" lengthAdjust="spacing" textLength="14" x="750" y="1020.3506">24</text><text fill="#000000" font-family="sans-serif" font-size="13" lengthAdjust="spacing" textLength="261" x="768" y="1020.3506">getTaskList(teamList,dateI,dateF,typeStatus)</text><rect fill="none" height="43.252" style="stroke:#000000;stroke-width:1.5;" width="123" x="1157.5" y="1033.6133"/><path d="M1157.5,1033.6133 L1219.5,1033.6133 L1219.5,1042.6133 L1209.5,1052.6133 L1157.5,1052.6133 L1157.5,1033.6133 " fill="#EEEEEE" style="stroke:#000000;stroke-width:2.0;"/><text fill="#000000" font-family="sans-serif" font-size="13" font-weight="bold" lengthAdjust="spacing" textLength="17" x="1170.5" y="1049.6416">ref</text><text fill="#000000" font-family="sans-serif" font-size="12" lengthAdjust="spacing" textLength="72" x="1183" y="1069.5625">Get Task List</text><polygon fill="#181818" points="754,1101.1563,744,1105.1563,754,1109.1563,750,1105.1563" style="stroke:#181818;stroke-width:1.0;"/><line style="stroke:#181818;stroke-width:1.0;stroke-dasharray:2.0,2.0;" x1="748" x2="1218" y1="1105.1563" y2="1105.1563"/><text fill="#000000" font-family="sans-serif" font-size="13" font-weight="bold" lengthAdjust="spacing" textLength="14" x="760" y="1099.8936">25</text><text fill="#000000" font-family="sans-serif" font-size="13" lengthAdjust="spacing" textLength="46" x="778" y="1099.8936">taskList</text><polygon fill="#181818" points="846,1132.4473,856,1136.4473,846,1140.4473,850,1136.4473" style="stroke:#181818;stroke-width:1.0;"/><line style="stroke:#181818;stroke-width:1.0;" x1="743" x2="852" y1="1136.4473" y2="1136.4473"/><text fill="#000000" font-family="sans-serif" font-size="13" font-weight="bold" lengthAdjust="spacing" textLength="14" x="750" y="1131.1846">26</text><text fill="#000000" font-family="sans-serif" font-size="13" lengthAdjust="spacing" textLength="75" x="768" y="1131.1846">getInstance()</text><polygon fill="#181818" points="754,1163.7383,744,1167.7383,754,1171.7383,750,1167.7383" style="stroke:#181818;stroke-width:1.0;"/><line style="stroke:#181818;stroke-width:1.0;stroke-dasharray:2.0,2.0;" x1="748" x2="862" y1="1167.7383" y2="1167.7383"/><text fill="#000000" font-family="sans-serif" font-size="13" font-weight="bold" lengthAdjust="spacing" textLength="14" x="760" y="1162.4756">27</text><text fill="#000000" font-family="sans-serif" font-size="13" lengthAdjust="spacing" textLength="67" x="778" y="1162.4756">repositories</text><polygon fill="#181818" points="953,1195.0293,963,1199.0293,953,1203.0293,957,1199.0293" style="stroke:#181818;stroke-width:1.0;"/><line style="stroke:#181818;stroke-width:1.0;" x1="743" x2="959" y1="1199.0293" y2="1199.0293"/><text fill="#000000" font-family="sans-serif" font-size="13" font-weight="bold" lengthAdjust="spacing" textLength="14" x="750" y="1193.7666">28</text><text fill="#000000" font-family="sans-serif" font-size="13" lengthAdjust="spacing" textLength="70" x="768" y="1193.7666">getAgenda()</text><polygon fill="#181818" points="754,1226.3203,744,1230.3203,754,1234.3203,750,1230.3203" style="stroke:#181818;stroke-width:1.0;"/><line style="stroke:#181818;stroke-width:1.0;stroke-dasharray:2.0,2.0;" x1="748" x2="969" y1="1230.3203" y2="1230.3203"/><text fill="#000000" font-family="sans-serif" font-size="13" font-weight="bold" lengthAdjust="spacing" textLength="14" x="760" y="1225.0576">29</text><text fill="#000000" font-family="sans-serif" font-size="13" lengthAdjust="spacing" textLength="44" x="778" y="1225.0576">Agenda</text><polygon fill="#181818" points="1304,1257.6113,1314,1261.6113,1304,1265.6113,1308,1261.6113" style="stroke:#181818;stroke-width:1.0;"/><line style="stroke:#181818;stroke-width:1.0;" x1="743" x2="1310" y1="1261.6113" y2="1261.6113"/><text fill="#000000" font-family="sans-serif" font-size="13" font-weight="bold" lengthAdjust="spacing" textLength="14" x="750" y="1256.3486">30</text><text fill="#000000" font-family="sans-serif" font-size="13" lengthAdjust="spacing" textLength="226" x="768" y="1256.3486">getCollaboratorAgendaEntries(taskList)</text><rect fill="none" height="59.2129" style="stroke:#000000;stroke-width:1.5;" width="80" x="1284.5" y="1269.6113"/><path d="M1284.5,1269.6113 L1346.5,1269.6113 L1346.5,1278.6113 L1336.5,1288.6113 L1284.5,1288.6113 L1284.5,1269.6113 " fill="#EEEEEE" style="stroke:#000000;stroke-width:2.0;"/><text fill="#000000" font-family="sans-serif" font-size="13" font-weight="bold" lengthAdjust="spacing" textLength="17" x="1297.5" y="1285.6396">ref</text><text fill="#000000" font-family="sans-serif" font-size="12" lengthAdjust="spacing" textLength="72" x="1288.5" y="1305.5605">Get Entry List</text><text fill="#000000" font-family="sans-serif" font-size="12" lengthAdjust="spacing" textLength="3" x="1323" y="1321.5215">&#160;</text><polygon fill="#181818" points="754,1353.1152,744,1357.1152,754,1361.1152,750,1357.1152" style="stroke:#181818;stroke-width:1.0;"/><line style="stroke:#181818;stroke-width:1.0;stroke-dasharray:2.0,2.0;" x1="748" x2="1320" y1="1357.1152" y2="1357.1152"/><text fill="#000000" font-family="sans-serif" font-size="13" font-weight="bold" lengthAdjust="spacing" textLength="14" x="760" y="1351.8525">31</text><text fill="#000000" font-family="sans-serif" font-size="13" lengthAdjust="spacing" textLength="58" x="778" y="1351.8525">listEntries</text><polygon fill="#181818" points="1397,1384.4063,1407,1388.4063,1397,1392.4063,1401,1388.4063" style="stroke:#181818;stroke-width:1.0;"/><line style="stroke:#181818;stroke-width:1.0;" x1="743" x2="1403" y1="1388.4063" y2="1388.4063"/><text fill="#000000" font-family="sans-serif" font-size="13" font-weight="bold" lengthAdjust="spacing" textLength="14" x="750" y="1383.1436">32</text><text fill="#000000" font-family="sans-serif" font-size="13" lengthAdjust="spacing" textLength="124" x="768" y="1383.1436">toDTOList(listEntries)</text><rect fill="none" height="75.1738" style="stroke:#000000;stroke-width:1.5;" width="105" x="1361.5" y="1396.4063"/><path d="M1361.5,1396.4063 L1423.5,1396.4063 L1423.5,1405.4063 L1413.5,1415.4063 L1361.5,1415.4063 L1361.5,1396.4063 " fill="#EEEEEE" style="stroke:#000000;stroke-width:2.0;"/><text fill="#000000" font-family="sans-serif" font-size="13" font-weight="bold" lengthAdjust="spacing" textLength="17" x="1374.5" y="1412.4346">ref</text><text fill="#000000" font-family="sans-serif" font-size="12" lengthAdjust="spacing" textLength="75" x="1376.5" y="1432.3555">Create a copy</text><text fill="#000000" font-family="sans-serif" font-size="12" lengthAdjust="spacing" textLength="63" x="1382.5" y="1448.3164">of Entry List</text><text fill="#000000" font-family="sans-serif" font-size="12" lengthAdjust="spacing" textLength="3" x="1412.5" y="1464.2773">&#160;</text><polygon fill="#181818" points="754,1495.8711,744,1499.8711,754,1503.8711,750,1499.8711" style="stroke:#181818;stroke-width:1.0;"/><line style="stroke:#181818;stroke-width:1.0;stroke-dasharray:2.0,2.0;" x1="748" x2="1413" y1="1499.8711" y2="1499.8711"/><text fill="#000000" font-family="sans-serif" font-size="13" font-weight="bold" lengthAdjust="spacing" textLength="14" x="760" y="1494.6084">33</text><text fill="#000000" font-family="sans-serif" font-size="13" lengthAdjust="spacing" textLength="78" x="778" y="1494.6084">listEntriesDto</text><polygon fill="#181818" points="429,1527.1621,419,1531.1621,429,1535.1621,425,1531.1621" style="stroke:#181818;stroke-width:1.0;"/><line style="stroke:#181818;stroke-width:1.0;stroke-dasharray:2.0,2.0;" x1="423" x2="737" y1="1531.1621" y2="1531.1621"/><text fill="#000000" font-family="sans-serif" font-size="13" font-weight="bold" lengthAdjust="spacing" textLength="14" x="435" y="1525.8994">34</text><text fill="#000000" font-family="sans-serif" font-size="13" lengthAdjust="spacing" textLength="78" x="453" y="1525.8994">listEntriesDto</text><polygon fill="#181818" points="58,1558.4531,48,1562.4531,58,1566.4531,54,1562.4531" style="stroke:#181818;stroke-width:1.0;"/><line style="stroke:#181818;stroke-width:1.0;stroke-dasharray:2.0,2.0;" x1="52" x2="412" y1="1562.4531" y2="1562.4531"/><text fill="#000000" font-family="sans-serif" font-size="13" font-weight="bold" lengthAdjust="spacing" textLength="14" x="64" y="1557.1904">35</text><text fill="#000000" font-family="sans-serif" font-size="13" lengthAdjust="spacing" textLength="123" x="82" y="1557.1904">shows the LISTTASK</text><!--SRC=[tLV1Jjmm4BtdAonE5C4FS43QmXQjIbj4mgqNa_Kc5ecTsWve_xvZEybwJBmfz4OEgs3FFC-yUPuC-fcBZYhQabOAMTPAjemOrRDCJpiTBPzfnNApRnXHh3HKL4ree6kwbQzSL6H76ysoZFP6YhvzOWhUIoCLERcMJKEVfABmrmcXci121kw6bxoZmf2JopkkJK7rSmu7iiUDithS98okfJ0ACDc0LZpSHPOFh9EQmt6SQMSpBUnpRZE06B6B2Zn-Ync0zJrsC8os1rHmAT22Sy8sMGG0cM00jE01q58407KHMmgEA_VY75QtwvytguYDDT2r_q6xRY3ClsQkFlo56kOAai4FkRW2siabbFfFpxI122GffT1zOrmm6lmrhmJRsfsQjnc1PyA1aha5m00aMvYpCq0h5OFTQ0VMAsP2RNpThrlAcrDcVxyuSuJk2ZqjAxOZyeKflqo2vvOP4kAIefPzLHE7VW00qgPt5z35c7qPE4ycMpOJY4t7vWFKNHB73z2YMGCtXPYQaITMSI7izQ1YQqyaMmiWTsvNCwhAEelGBObXBJoSFeAtL0HFTMwewRMzHAUBv1udE2RR8nCBZI4inGcEzHJD_p5izftZq-CHM7a5rOV2NU8t3_XrQ2cCMOPnR3jG6xZik6gfuT1a5iuUREtXrE23tPrnGJKZIOibjYt45JXKyBcLoCRzVZkt2Vfo9JKG5UnghddwupO2M1Sb2_I4yEQwBhASGxuuP1GsPUGNC7hqZ2c3zVr04Eh8oRYXsUCumJ-8A-hhgSX2b34Ix7e8IliU5ROjLCH4f4SYGLTumMwyo3OIWkxaNBEqJvH7HCuRY82M-AFucTM6FjyVLXiU0jwbDkGQzOYnK8lz0Iik7GrMt76xIN5Wze-Amxb41AK-9F44zPdbvkV0ZyhCUxzBNdxQV3l8UIWxTa9kfsDv4d4D8sjQIOD1Ia5kkfsPFM8D3S466TllwX3ad7JYmCQi_VXiTITlYb_kAWL8YIo7cJkPP6BVdUid0Gh3GZT_aM3yMM81Bmufp7DnOsHA1UD_3lCZNG9ZUQpJjNpryzVT9Y-ALVvzRcuASMJp5m00]--></g></svg>