<?xml version="1.0" encoding="us-ascii" standalone="no"?><svg xmlns="http://www.w3.org/2000/svg" xmlns:xlink="http://www.w3.org/1999/xlink" contentStyleType="text/css" height="358.4px" preserveAspectRatio="none" style="width:433px;height:358px;background:#FFFFFF;" version="1.1" viewBox="0 0 433 358" width="434px" zoomAndPan="magnify"><defs/><g><rect fill="#FFFFFF" height="243.5029" style="stroke:#181818;stroke-width:0.6999999999999998;" width="7" x="93.8" y="63.3732"/><rect fill="#FFFFFF" height="26.8037" style="stroke:#181818;stroke-width:0.6999999999999998;" width="7" x="204.05" y="253.2687"/><rect fill="#FFFFFF" height="21.9037" style="stroke:#181818;stroke-width:0.6999999999999998;" width="7" x="275.45" y="209.4613"/><rect fill="#FFFFFF" height="21.9037" style="stroke:#181818;stroke-width:0.6999999999999998;" width="7" x="360.15" y="165.6539"/><rect fill="none" height="211.7992" style="stroke:#000000;stroke-width:1.0499999999999998;" width="381.15" x="48.65" y="73.8732"/><rect fill="none" height="123.0223" style="stroke:#000000;stroke-width:1.0499999999999998;" width="367.15" x="55.65" y="135.8465"/><line style="stroke:#181818;stroke-width:0.3499999999999999;stroke-dasharray:5.0,5.0;" x1="96.95" x2="96.95" y1="40.0695" y2="319.4762"/><line style="stroke:#181818;stroke-width:0.3499999999999999;stroke-dasharray:5.0,5.0;" x1="207.2" x2="207.2" y1="116.1617" y2="319.4762"/><line style="stroke:#181818;stroke-width:0.3499999999999999;stroke-dasharray:5.0,5.0;" x1="278.6" x2="278.6" y1="40.0695" y2="319.4762"/><line style="stroke:#181818;stroke-width:0.3499999999999999;stroke-dasharray:5.0,5.0;" x1="363.3" x2="363.3" y1="40.0695" y2="319.4762"/><rect fill="#E3E3E3" height="22.8348" rx="1.75" ry="1.75" style="stroke:#181818;stroke-width:0.3499999999999999;" width="69.3" x="62.65" y="16.5348"/><text fill="#000000" font-family="sans-serif" font-size="9.8" lengthAdjust="spacing" textLength="59.5" x="67.55" y="32.01">:EntryMapper</text><rect fill="#E3E3E3" height="22.8348" rx="1.75" ry="1.75" style="stroke:#181818;stroke-width:0.3499999999999999;" width="69.3" x="62.65" y="318.7762"/><text fill="#000000" font-family="sans-serif" font-size="9.8" lengthAdjust="spacing" textLength="59.5" x="67.55" y="334.2514">:EntryMapper</text><rect fill="#E3E3E3" height="35.8695" rx="1.75" ry="1.75" style="stroke:#181818;stroke-width:0.3499999999999999;" width="77.7" x="168.7" y="318.7762"/><text fill="#000000" font-family="sans-serif" font-size="9.8" lengthAdjust="spacing" textLength="58.1" x="178.5" y="334.2514">listEntriesDto</text><text fill="#000000" font-family="sans-serif" font-size="9.8" lengthAdjust="spacing" textLength="67.9" x="173.6" y="347.2861">:List&lt;EntryDto&gt;</text><rect fill="#E3E3E3" height="35.8695" rx="1.75" ry="1.75" style="stroke:#181818;stroke-width:0.3499999999999999;" width="51.1" x="253.4" y="3.5"/><text fill="#000000" font-family="sans-serif" font-size="9.8" lengthAdjust="spacing" textLength="37.8" x="260.05" y="18.9752">entryDto</text><text fill="#000000" font-family="sans-serif" font-size="9.8" lengthAdjust="spacing" textLength="41.3" x="258.3" y="32.01">:EntryDto</text><rect fill="#E3E3E3" height="35.8695" rx="1.75" ry="1.75" style="stroke:#181818;stroke-width:0.3499999999999999;" width="51.1" x="253.4" y="318.7762"/><text fill="#000000" font-family="sans-serif" font-size="9.8" lengthAdjust="spacing" textLength="37.8" x="260.05" y="334.2514">entryDto</text><text fill="#000000" font-family="sans-serif" font-size="9.8" lengthAdjust="spacing" textLength="41.3" x="258.3" y="347.2861">:EntryDto</text><rect fill="#E3E3E3" height="35.8695" rx="1.75" ry="1.75" style="stroke:#181818;stroke-width:0.3499999999999999;" width="104.3" x="311.5" y="3.5"/><text fill="#000000" font-family="sans-serif" font-size="9.8" lengthAdjust="spacing" textLength="64.4" x="331.45" y="18.9752">agendaEntries</text><text fill="#000000" font-family="sans-serif" font-size="9.8" lengthAdjust="spacing" textLength="94.5" x="316.4" y="32.01">:List&lt;AgendaEntries&gt;</text><rect fill="#E3E3E3" height="35.8695" rx="1.75" ry="1.75" style="stroke:#181818;stroke-width:0.3499999999999999;" width="104.3" x="311.5" y="318.7762"/><text fill="#000000" font-family="sans-serif" font-size="9.8" lengthAdjust="spacing" textLength="64.4" x="331.45" y="334.2514">agendaEntries</text><text fill="#000000" font-family="sans-serif" font-size="9.8" lengthAdjust="spacing" textLength="94.5" x="316.4" y="347.2861">:List&lt;AgendaEntries&gt;</text><rect fill="#FFFFFF" height="243.5029" style="stroke:#181818;stroke-width:0.6999999999999998;" width="7" x="93.8" y="63.3732"/><rect fill="#FFFFFF" height="26.8037" style="stroke:#181818;stroke-width:0.6999999999999998;" width="7" x="204.05" y="253.2687"/><rect fill="#FFFFFF" height="21.9037" style="stroke:#181818;stroke-width:0.6999999999999998;" width="7" x="275.45" y="209.4613"/><rect fill="#FFFFFF" height="21.9037" style="stroke:#181818;stroke-width:0.6999999999999998;" width="7" x="360.15" y="165.6539"/><polygon fill="#181818" points="85.4,60.5732,92.4,63.3732,85.4,66.1732,88.2,63.3732" style="stroke:#181818;stroke-width:0.6999999999999998;"/><line style="stroke:#181818;stroke-width:0.6999999999999998;" x1="0" x2="89.6" y1="63.3732" y2="63.3732"/><text fill="#000000" font-family="sans-serif" font-size="9.1" font-weight="bold" lengthAdjust="spacing" textLength="9.8" x="4.9" y="59.6894">32</text><text fill="#000000" font-family="sans-serif" font-size="9.1" lengthAdjust="spacing" textLength="67.9" x="17.5" y="59.6894">toDto(listEntries)</text><path d="M48.65,73.8732 L136.85,73.8732 L136.85,80.377 L129.85,87.377 L48.65,87.377 L48.65,73.8732 " fill="#EEEEEE" style="stroke:#000000;stroke-width:1.0499999999999998;"/><rect fill="none" height="211.7992" style="stroke:#000000;stroke-width:1.0499999999999998;" width="381.15" x="48.65" y="73.8732"/><text fill="#000000" font-family="sans-serif" font-size="9.1" font-weight="bold" lengthAdjust="spacing" textLength="56.7" x="59.15" y="84.3931">Get Task List</text><polygon fill="#181818" points="160.3,100.8807,167.3,103.6807,160.3,106.4807,163.1,103.6807" style="stroke:#181818;stroke-width:0.6999999999999998;"/><line style="stroke:#181818;stroke-width:0.6999999999999998;stroke-dasharray:2.0,2.0;" x1="100.8" x2="164.5" y1="103.6807" y2="103.6807"/><text fill="#000000" font-family="sans-serif" font-size="9.1" font-weight="bold" lengthAdjust="spacing" textLength="17.5" x="105.7" y="99.9968">32.1</text><text fill="#000000" font-family="sans-serif" font-size="9.1" lengthAdjust="spacing" textLength="30.8" x="126" y="99.9968">create()</text><rect fill="#E3E3E3" height="35.8695" rx="1.75" ry="1.75" style="stroke:#181818;stroke-width:0.3499999999999999;" width="77.7" x="168.7" y="87.377"/><text fill="#000000" font-family="sans-serif" font-size="9.8" lengthAdjust="spacing" textLength="58.1" x="178.5" y="102.8521">listEntriesDto</text><text fill="#000000" font-family="sans-serif" font-size="9.8" lengthAdjust="spacing" textLength="67.9" x="173.6" y="115.8869">:List&lt;EntryDto&gt;</text><path d="M55.65,135.8465 L106.75,135.8465 L106.75,142.3502 L99.75,149.3502 L55.65,149.3502 L55.65,135.8465 " fill="#EEEEEE" style="stroke:#000000;stroke-width:1.0499999999999998;"/><rect fill="none" height="123.0223" style="stroke:#000000;stroke-width:1.0499999999999998;" width="367.15" x="55.65" y="135.8465"/><text fill="#000000" font-family="sans-serif" font-size="9.1" font-weight="bold" lengthAdjust="spacing" textLength="19.6" x="66.15" y="146.3663">loop</text><text fill="#000000" font-family="sans-serif" font-size="7.7" font-weight="bold" lengthAdjust="spacing" textLength="105.7" x="117.25" y="145.5556">[for each entry in entryList]</text><polygon fill="#181818" points="351.75,162.8539,358.75,165.6539,351.75,168.4539,354.55,165.6539" style="stroke:#181818;stroke-width:0.6999999999999998;"/><line style="stroke:#181818;stroke-width:0.6999999999999998;" x1="100.8" x2="355.95" y1="165.6539" y2="165.6539"/><text fill="#000000" font-family="sans-serif" font-size="9.1" font-weight="bold" lengthAdjust="spacing" textLength="17.5" x="105.7" y="161.97">32.2</text><text fill="#000000" font-family="sans-serif" font-size="9.1" lengthAdjust="spacing" textLength="20.3" x="126" y="161.97">get(i)</text><polygon fill="#181818" points="108.5,184.7576,101.5,187.5576,108.5,190.3576,105.7,187.5576" style="stroke:#181818;stroke-width:0.6999999999999998;"/><line style="stroke:#181818;stroke-width:0.6999999999999998;stroke-dasharray:2.0,2.0;" x1="104.3" x2="362.95" y1="187.5576" y2="187.5576"/><text fill="#000000" font-family="sans-serif" font-size="9.1" font-weight="bold" lengthAdjust="spacing" textLength="17.5" x="112.7" y="183.8737">32.3</text><text fill="#000000" font-family="sans-serif" font-size="9.1" lengthAdjust="spacing" textLength="20.3" x="133" y="183.8737">entry</text><polygon fill="#181818" points="267.05,206.6613,274.05,209.4613,267.05,212.2613,269.85,209.4613" style="stroke:#181818;stroke-width:0.6999999999999998;"/><line style="stroke:#181818;stroke-width:0.6999999999999998;" x1="100.8" x2="271.25" y1="209.4613" y2="209.4613"/><text fill="#000000" font-family="sans-serif" font-size="9.1" font-weight="bold" lengthAdjust="spacing" textLength="17.5" x="105.7" y="205.7774">32.4</text><text fill="#000000" font-family="sans-serif" font-size="9.1" lengthAdjust="spacing" textLength="73.5" x="126" y="205.7774">toDTOEntry(entry)</text><polygon fill="#181818" points="108.5,228.565,101.5,231.365,108.5,234.165,105.7,231.365" style="stroke:#181818;stroke-width:0.6999999999999998;"/><line style="stroke:#181818;stroke-width:0.6999999999999998;stroke-dasharray:2.0,2.0;" x1="104.3" x2="278.25" y1="231.365" y2="231.365"/><text fill="#000000" font-family="sans-serif" font-size="9.1" font-weight="bold" lengthAdjust="spacing" textLength="17.5" x="112.7" y="227.6812">32.5</text><text fill="#000000" font-family="sans-serif" font-size="9.1" lengthAdjust="spacing" textLength="34.3" x="133" y="227.6812">entryDto</text><polygon fill="#181818" points="195.65,250.4687,202.65,253.2687,195.65,256.0687,198.45,253.2687" style="stroke:#181818;stroke-width:0.6999999999999998;"/><line style="stroke:#181818;stroke-width:0.6999999999999998;" x1="100.8" x2="199.85" y1="253.2687" y2="253.2687"/><text fill="#000000" font-family="sans-serif" font-size="9.1" font-weight="bold" lengthAdjust="spacing" textLength="17.5" x="105.7" y="249.5849">32.6</text><text fill="#000000" font-family="sans-serif" font-size="9.1" lengthAdjust="spacing" textLength="54.6" x="126" y="249.5849">add(entryDto)</text><polygon fill="#181818" points="108.5,277.2725,101.5,280.0725,108.5,282.8725,105.7,280.0725" style="stroke:#181818;stroke-width:0.6999999999999998;"/><line style="stroke:#181818;stroke-width:0.6999999999999998;stroke-dasharray:2.0,2.0;" x1="104.3" x2="206.85" y1="280.0725" y2="280.0725"/><text fill="#000000" font-family="sans-serif" font-size="9.1" font-weight="bold" lengthAdjust="spacing" textLength="17.5" x="112.7" y="276.3886">32.7</text><text fill="#000000" font-family="sans-serif" font-size="9.1" lengthAdjust="spacing" textLength="54.6" x="133" y="276.3886">listEntriesDto</text><polygon fill="#181818" points="7.7,304.0762,0.7,306.8762,7.7,309.6762,4.9,306.8762" style="stroke:#181818;stroke-width:0.6999999999999998;"/><line style="stroke:#181818;stroke-width:0.6999999999999998;stroke-dasharray:2.0,2.0;" x1="3.5" x2="96.6" y1="306.8762" y2="306.8762"/><text fill="#000000" font-family="sans-serif" font-size="9.1" font-weight="bold" lengthAdjust="spacing" textLength="9.8" x="11.9" y="303.1923">33</text><text fill="#000000" font-family="sans-serif" font-size="9.1" lengthAdjust="spacing" textLength="54.6" x="24.5" y="303.1923">listEntriesDto</text><!--SRC=[ZPDHRu8m4CVV-oakUncQi6JppHWJ4uanSPfC7lTomWcDq99IjldjLoeOYcAy9sZlVx_xjzVon4M12dF8fP1HgcHEe5L5hBpk51YTCA6zFcS4YYAD8icw2MMAiVpb8e4ZPYKnXfMMeieFf1XxJNbCS9HI7-GVOqQXUSGB51fUfe7Gwlo9HK7g1R24owURbF5IrtcSogMMtsAwCGipgpJ_SwlRhFTXi0s_ri5-6UvSFJMPHjcAhEOcqNWKCJQebhFeBbvWYrMmNIuQNDSiJ3uO0t_Us80fQ6beNiV1o4r_UsSOQVw3cbhlO29HiYfWHHf2B4zGDyAOtMcZ8VW6vdeVZmqsKcGgUYD7KaScPM7kGW5Xb88z6U3Yyc4fS2TQrjnrRZW9QO-Fxehgk5hhdTXGlblUxnwaxN1G6DC0wh4TSroNEmftTZ8yItd2JpqwWrbrrTlUpHmyqtvT-N7JxdMRyXZ7NejuelVUK-ddcMdlZLeFw5XptoORSjLZiXPa6-kyXubTcVd-8A5Jj7al_m00]--></g></svg>