<?xml version="1.0" encoding="us-ascii" standalone="no"?><svg xmlns="http://www.w3.org/2000/svg" xmlns:xlink="http://www.w3.org/1999/xlink" contentStyleType="text/css" height="322.7px" preserveAspectRatio="none" style="width:606px;height:322px;background:#FFFFFF;" version="1.1" viewBox="0 0 606 322" width="606.9px" zoomAndPan="magnify"><defs/><g><rect fill="#FFFFFF" height="207.6334" style="stroke:#181818;stroke-width:0.6999999999999998;" width="7" x="161.7" y="63.3732"/><rect fill="#FFFFFF" height="21.9037" style="stroke:#181818;stroke-width:0.6999999999999998;" width="7" x="249.9" y="103.6807"/><rect fill="#FFFFFF" height="21.9037" style="stroke:#181818;stroke-width:0.6999999999999998;" width="7" x="324.8" y="147.4881"/><rect fill="#FFFFFF" height="52.9074" style="stroke:#181818;stroke-width:0.6999999999999998;" width="7" x="423.15" y="191.2955"/><rect fill="#FFFFFF" height="25.4037" style="stroke:#181818;stroke-width:0.6999999999999998;" width="7" x="426.65" y="218.7992"/><rect fill="none" height="175.9297" style="stroke:#000000;stroke-width:1.0499999999999998;" width="491.4" x="111.65" y="73.8732"/><line style="stroke:#181818;stroke-width:0.3499999999999999;stroke-dasharray:5.0,5.0;" x1="164.85" x2="164.85" y1="40.0695" y2="283.6066"/><line style="stroke:#181818;stroke-width:0.3499999999999999;stroke-dasharray:5.0,5.0;" x1="253.05" x2="253.05" y1="40.0695" y2="283.6066"/><line style="stroke:#181818;stroke-width:0.3499999999999999;stroke-dasharray:5.0,5.0;" x1="327.95" x2="327.95" y1="40.0695" y2="283.6066"/><line style="stroke:#181818;stroke-width:0.3499999999999999;stroke-dasharray:5.0,5.0;" x1="426.65" x2="426.65" y1="40.0695" y2="283.6066"/><rect fill="#E3E3E3" height="22.8348" rx="1.75" ry="1.75" style="stroke:#181818;stroke-width:0.3499999999999999;" width="93.1" x="118.65" y="16.5348"/><text fill="#000000" font-family="sans-serif" font-size="9.8" lengthAdjust="spacing" textLength="83.3" x="123.55" y="32.01">:ListTaskController</text><rect fill="#E3E3E3" height="22.8348" rx="1.75" ry="1.75" style="stroke:#181818;stroke-width:0.3499999999999999;" width="93.1" x="118.65" y="282.9066"/><text fill="#000000" font-family="sans-serif" font-size="9.8" lengthAdjust="spacing" textLength="83.3" x="123.55" y="298.3818">:ListTaskController</text><rect fill="#E3E3E3" height="22.8348" rx="1.75" ry="1.75" style="stroke:#181818;stroke-width:0.3499999999999999;" width="67.9" x="219.45" y="16.5348"/><text fill="#000000" font-family="sans-serif" font-size="9.8" lengthAdjust="spacing" textLength="58.1" x="224.35" y="32.01">:Repositories</text><rect fill="#E3E3E3" height="22.8348" rx="1.75" ry="1.75" style="stroke:#181818;stroke-width:0.3499999999999999;" width="67.9" x="219.45" y="282.9066"/><text fill="#000000" font-family="sans-serif" font-size="9.8" lengthAdjust="spacing" textLength="58.1" x="224.35" y="298.3818">:Repositories</text><rect fill="#E3E3E3" height="35.8695" rx="1.75" ry="1.75" style="stroke:#181818;stroke-width:0.3499999999999999;" width="67.9" x="294.35" y="3.5"/><text fill="#000000" font-family="sans-serif" font-size="9.8" lengthAdjust="spacing" textLength="51.8" x="302.4" y="18.9752">repositories</text><text fill="#000000" font-family="sans-serif" font-size="9.8" lengthAdjust="spacing" textLength="58.1" x="299.25" y="32.01">:Repositories</text><rect fill="#E3E3E3" height="35.8695" rx="1.75" ry="1.75" style="stroke:#181818;stroke-width:0.3499999999999999;" width="67.9" x="294.35" y="282.9066"/><text fill="#000000" font-family="sans-serif" font-size="9.8" lengthAdjust="spacing" textLength="51.8" x="302.4" y="298.3818">repositories</text><text fill="#000000" font-family="sans-serif" font-size="9.8" lengthAdjust="spacing" textLength="58.1" x="299.25" y="311.4166">:Repositories</text><rect fill="#E3E3E3" height="35.8695" rx="1.75" ry="1.75" style="stroke:#181818;stroke-width:0.3499999999999999;" width="114.8" x="369.25" y="3.5"/><text fill="#000000" font-family="sans-serif" font-size="9.8" lengthAdjust="spacing" textLength="100.1" x="376.6" y="18.9752">collaboratorRepository</text><text fill="#000000" font-family="sans-serif" font-size="9.8" lengthAdjust="spacing" textLength="105" x="374.15" y="32.01">:CollaboratorRepository</text><rect fill="#E3E3E3" height="35.8695" rx="1.75" ry="1.75" style="stroke:#181818;stroke-width:0.3499999999999999;" width="114.8" x="369.25" y="282.9066"/><text fill="#000000" font-family="sans-serif" font-size="9.8" lengthAdjust="spacing" textLength="100.1" x="376.6" y="298.3818">collaboratorRepository</text><text fill="#000000" font-family="sans-serif" font-size="9.8" lengthAdjust="spacing" textLength="105" x="374.15" y="311.4166">:CollaboratorRepository</text><rect fill="#FFFFFF" height="207.6334" style="stroke:#181818;stroke-width:0.6999999999999998;" width="7" x="161.7" y="63.3732"/><rect fill="#FFFFFF" height="21.9037" style="stroke:#181818;stroke-width:0.6999999999999998;" width="7" x="249.9" y="103.6807"/><rect fill="#FFFFFF" height="21.9037" style="stroke:#181818;stroke-width:0.6999999999999998;" width="7" x="324.8" y="147.4881"/><rect fill="#FFFFFF" height="52.9074" style="stroke:#181818;stroke-width:0.6999999999999998;" width="7" x="423.15" y="191.2955"/><rect fill="#FFFFFF" height="25.4037" style="stroke:#181818;stroke-width:0.6999999999999998;" width="7" x="426.65" y="218.7992"/><polygon fill="#181818" points="153.3,60.5732,160.3,63.3732,153.3,66.1732,156.1,63.3732" style="stroke:#181818;stroke-width:0.6999999999999998;"/><line style="stroke:#181818;stroke-width:0.6999999999999998;" x1="0" x2="157.5" y1="63.3732" y2="63.3732"/><text fill="#000000" font-family="sans-serif" font-size="9.1" font-weight="bold" lengthAdjust="spacing" textLength="4.9" x="4.9" y="59.6894">3</text><text fill="#000000" font-family="sans-serif" font-size="9.1" lengthAdjust="spacing" textLength="140.7" x="12.6" y="59.6894">getCollaboratorThoughEmail(email)</text><path d="M111.65,73.8732 L216.65,73.8732 L216.65,80.377 L209.65,87.377 L111.65,87.377 L111.65,73.8732 " fill="#EEEEEE" style="stroke:#000000;stroke-width:1.0499999999999998;"/><rect fill="none" height="175.9297" style="stroke:#000000;stroke-width:1.0499999999999998;" width="491.4" x="111.65" y="73.8732"/><text fill="#000000" font-family="sans-serif" font-size="9.1" font-weight="bold" lengthAdjust="spacing" textLength="73.5" x="122.15" y="84.3931">Get Collaborator</text><polygon fill="#181818" points="241.5,100.8807,248.5,103.6807,241.5,106.4807,244.3,103.6807" style="stroke:#181818;stroke-width:0.6999999999999998;"/><line style="stroke:#181818;stroke-width:0.6999999999999998;" x1="168.7" x2="245.7" y1="103.6807" y2="103.6807"/><text fill="#000000" font-family="sans-serif" font-size="9.1" font-weight="bold" lengthAdjust="spacing" textLength="12.6" x="173.6" y="99.9968">3.1</text><text fill="#000000" font-family="sans-serif" font-size="9.1" lengthAdjust="spacing" textLength="52.5" x="189" y="99.9968">getInstance()</text><polygon fill="#181818" points="176.4,122.7844,169.4,125.5844,176.4,128.3844,173.6,125.5844" style="stroke:#181818;stroke-width:0.6999999999999998;"/><line style="stroke:#181818;stroke-width:0.6999999999999998;stroke-dasharray:2.0,2.0;" x1="172.2" x2="252.7" y1="125.5844" y2="125.5844"/><text fill="#000000" font-family="sans-serif" font-size="9.1" font-weight="bold" lengthAdjust="spacing" textLength="12.6" x="180.6" y="121.9005">3.2</text><text fill="#000000" font-family="sans-serif" font-size="9.1" lengthAdjust="spacing" textLength="46.9" x="196" y="121.9005">repositories</text><polygon fill="#181818" points="316.4,144.6881,323.4,147.4881,316.4,150.2881,319.2,147.4881" style="stroke:#181818;stroke-width:0.6999999999999998;"/><line style="stroke:#181818;stroke-width:0.6999999999999998;" x1="168.7" x2="320.6" y1="147.4881" y2="147.4881"/><text fill="#000000" font-family="sans-serif" font-size="9.1" font-weight="bold" lengthAdjust="spacing" textLength="12.6" x="173.6" y="143.8042">3.3</text><text fill="#000000" font-family="sans-serif" font-size="9.1" lengthAdjust="spacing" textLength="104.3" x="189" y="143.8042">getCollaboratorRepository</text><polygon fill="#181818" points="176.4,166.5918,169.4,169.3918,176.4,172.1918,173.6,169.3918" style="stroke:#181818;stroke-width:0.6999999999999998;"/><line style="stroke:#181818;stroke-width:0.6999999999999998;stroke-dasharray:2.0,2.0;" x1="172.2" x2="327.6" y1="169.3918" y2="169.3918"/><text fill="#000000" font-family="sans-serif" font-size="9.1" font-weight="bold" lengthAdjust="spacing" textLength="12.6" x="180.6" y="165.7079">3.4</text><text fill="#000000" font-family="sans-serif" font-size="9.1" lengthAdjust="spacing" textLength="90.3" x="196" y="165.7079">collaboratorRepository</text><polygon fill="#181818" points="414.75,188.4955,421.75,191.2955,414.75,194.0955,417.55,191.2955" style="stroke:#181818;stroke-width:0.6999999999999998;"/><line style="stroke:#181818;stroke-width:0.6999999999999998;" x1="168.7" x2="418.95" y1="191.2955" y2="191.2955"/><text fill="#000000" font-family="sans-serif" font-size="9.1" font-weight="bold" lengthAdjust="spacing" textLength="12.6" x="173.6" y="187.6116">3.5</text><text fill="#000000" font-family="sans-serif" font-size="9.1" lengthAdjust="spacing" textLength="140.7" x="189" y="187.6116">getCollaboratorThoughEmail(email)</text><line style="stroke:#181818;stroke-width:0.6999999999999998;" x1="430.15" x2="463.05" y1="209.6992" y2="209.6992"/><line style="stroke:#181818;stroke-width:0.6999999999999998;" x1="463.05" x2="463.05" y1="209.6992" y2="218.7992"/><line style="stroke:#181818;stroke-width:0.6999999999999998;" x1="434.35" x2="463.05" y1="218.7992" y2="218.7992"/><polygon fill="#181818" points="441.35,215.9992,434.35,218.7992,441.35,221.5992,438.55,218.7992" style="stroke:#181818;stroke-width:0.6999999999999998;"/><text fill="#000000" font-family="sans-serif" font-size="9.1" font-weight="bold" lengthAdjust="spacing" textLength="12.6" x="438.55" y="206.0153">3.6</text><text fill="#000000" font-family="sans-serif" font-size="9.1" lengthAdjust="spacing" textLength="140.7" x="453.95" y="206.0153">getCollaboratorThoughEmail(email)</text><polygon fill="#181818" points="176.4,241.4029,169.4,244.2029,176.4,247.0029,173.6,244.2029" style="stroke:#181818;stroke-width:0.6999999999999998;"/><line style="stroke:#181818;stroke-width:0.6999999999999998;stroke-dasharray:2.0,2.0;" x1="172.2" x2="425.95" y1="244.2029" y2="244.2029"/><text fill="#000000" font-family="sans-serif" font-size="9.1" font-weight="bold" lengthAdjust="spacing" textLength="12.6" x="180.6" y="240.519">3.7</text><text fill="#000000" font-family="sans-serif" font-size="9.1" lengthAdjust="spacing" textLength="46.9" x="196" y="240.519">collaborator</text><polygon fill="#181818" points="7.7,268.2066,0.7,271.0066,7.7,273.8066,4.9,271.0066" style="stroke:#181818;stroke-width:0.6999999999999998;"/><line style="stroke:#181818;stroke-width:0.6999999999999998;stroke-dasharray:2.0,2.0;" x1="3.5" x2="164.5" y1="271.0066" y2="271.0066"/><text fill="#000000" font-family="sans-serif" font-size="9.1" font-weight="bold" lengthAdjust="spacing" textLength="4.9" x="11.9" y="267.3228">4</text><text fill="#000000" font-family="sans-serif" font-size="9.1" lengthAdjust="spacing" textLength="46.9" x="19.6" y="267.3228">collaborator</text><!--SRC=[hLEnRi8m4Dtz5IUMmf1ALJkXgWkAgaeC21Yx7CwHM2HsP3jj-ViwfdKTS85AlI6HSk-zUtuNcvsGBMfie55IyKghXi3gZfW9dHRv3ajQsNrDe8bRb6KT0qo5XNeNieGjreOOmyugsJKRqepTLA8Ws2fbD-g3CSUmWeiMfONHT2wCNQFPpPIqMjKrwH6WWTbwEJz2BgbLHbYb1HcF2H_sAz7xSHE751qnNcL285yC2TmPm8tIw40_weuwIpQyI9eJ9m3tZ47svCy4KoZ9ndBhIdLbbJSewZ7rpyc0Udl7a5lnXfOEeO2hKgkkXMUo42int-lBJt8J4mdv-I_Ik1Lo6ay29Gn9fHfGVIK0a7qTRmfnve5Mq7NomNU-ECafolRKirlaq6E-Y3pnypAnkrZesqsQViqYJup-zhF4tjEO_p7oPpFd32Np7R2ZP2yDkn9Ail3lw8ey18t7B3ii3OuyHUB-3dq2]--></g></svg>