<?xml version="1.0" encoding="us-ascii" standalone="no"?><svg xmlns="http://www.w3.org/2000/svg" xmlns:xlink="http://www.w3.org/1999/xlink" contentStyleType="text/css" height="368.9px" preserveAspectRatio="none" style="width:697px;height:368px;background:#FFFFFF;" version="1.1" viewBox="0 0 697 368" width="697.9px" zoomAndPan="magnify"><defs/><g><rect fill="#FFFFFF" height="260.3029" style="stroke:#181818;stroke-width:0.6999999999999998;" width="7" x="196" y="63.3732"/><rect fill="#FFFFFF" height="31.7037" style="stroke:#181818;stroke-width:0.6999999999999998;" width="7" x="357" y="258.8687"/><rect fill="#FFFFFF" height="52.9074" style="stroke:#181818;stroke-width:0.6999999999999998;" width="7" x="425.95" y="165.6539"/><rect fill="#FFFFFF" height="25.4037" style="stroke:#181818;stroke-width:0.6999999999999998;" width="7" x="429.45" y="193.1576"/><rect fill="none" height="222.2992" style="stroke:#000000;stroke-width:1.0499999999999998;" width="558.25" x="135.8" y="73.8732"/><rect fill="none" height="133.5223" style="stroke:#000000;stroke-width:1.0499999999999998;" width="544.25" x="142.8" y="135.8465"/><rect fill="none" height="35.4074" style="stroke:#000000;stroke-width:1.0499999999999998;" width="249.9" x="149.8" y="229.0613"/><line style="stroke:#181818;stroke-width:0.3499999999999999;stroke-dasharray:5.0,5.0;" x1="199.5" x2="199.5" y1="40.0695" y2="329.9762"/><line style="stroke:#181818;stroke-width:0.3499999999999999;stroke-dasharray:5.0,5.0;" x1="360.5" x2="360.5" y1="116.1617" y2="329.9762"/><line style="stroke:#181818;stroke-width:0.3499999999999999;stroke-dasharray:5.0,5.0;" x1="429.1" x2="429.1" y1="40.0695" y2="329.9762"/><rect fill="#E3E3E3" height="35.8695" rx="1.75" ry="1.75" style="stroke:#181818;stroke-width:0.3499999999999999;" width="85.4" x="156.8" y="3.5"/><text fill="#000000" font-family="sans-serif" font-size="9.8" lengthAdjust="spacing" textLength="69.3" x="164.85" y="18.9752">teamRepository</text><text fill="#000000" font-family="sans-serif" font-size="9.8" lengthAdjust="spacing" textLength="75.6" x="161.7" y="32.01">:TeamRepository</text><rect fill="#E3E3E3" height="35.8695" rx="1.75" ry="1.75" style="stroke:#181818;stroke-width:0.3499999999999999;" width="85.4" x="156.8" y="329.2762"/><text fill="#000000" font-family="sans-serif" font-size="9.8" lengthAdjust="spacing" textLength="69.3" x="164.85" y="344.7514">teamRepository</text><text fill="#000000" font-family="sans-serif" font-size="9.8" lengthAdjust="spacing" textLength="75.6" x="161.7" y="357.7861">:TeamRepository</text><rect fill="#E3E3E3" height="35.8695" rx="1.75" ry="1.75" style="stroke:#181818;stroke-width:0.3499999999999999;" width="64.4" x="328.3" y="329.2762"/><text fill="#000000" font-family="sans-serif" font-size="9.8" lengthAdjust="spacing" textLength="37.1" x="341.95" y="344.7514">teamList</text><text fill="#000000" font-family="sans-serif" font-size="9.8" lengthAdjust="spacing" textLength="54.6" x="333.2" y="357.7861">:List&lt;Team&gt;</text><rect fill="#E3E3E3" height="22.8348" rx="1.75" ry="1.75" style="stroke:#181818;stroke-width:0.3499999999999999;" width="59.5" x="399.7" y="16.5348"/><text fill="#000000" font-family="sans-serif" font-size="9.8" lengthAdjust="spacing" textLength="49.7" x="404.6" y="32.01">team:Team</text><rect fill="#E3E3E3" height="22.8348" rx="1.75" ry="1.75" style="stroke:#181818;stroke-width:0.3499999999999999;" width="59.5" x="399.7" y="329.2762"/><text fill="#000000" font-family="sans-serif" font-size="9.8" lengthAdjust="spacing" textLength="49.7" x="404.6" y="344.7514">team:Team</text><rect fill="#FFFFFF" height="260.3029" style="stroke:#181818;stroke-width:0.6999999999999998;" width="7" x="196" y="63.3732"/><rect fill="#FFFFFF" height="31.7037" style="stroke:#181818;stroke-width:0.6999999999999998;" width="7" x="357" y="258.8687"/><rect fill="#FFFFFF" height="52.9074" style="stroke:#181818;stroke-width:0.6999999999999998;" width="7" x="425.95" y="165.6539"/><rect fill="#FFFFFF" height="25.4037" style="stroke:#181818;stroke-width:0.6999999999999998;" width="7" x="429.45" y="193.1576"/><polygon fill="#181818" points="187.6,60.5732,194.6,63.3732,187.6,66.1732,190.4,63.3732" style="stroke:#181818;stroke-width:0.6999999999999998;"/><line style="stroke:#181818;stroke-width:0.6999999999999998;" x1="0" x2="191.8" y1="63.3732" y2="63.3732"/><text fill="#000000" font-family="sans-serif" font-size="9.1" font-weight="bold" lengthAdjust="spacing" textLength="9.8" x="4.9" y="59.6894">18</text><text fill="#000000" font-family="sans-serif" font-size="9.1" lengthAdjust="spacing" textLength="170.1" x="17.5" y="59.6894">getTeamsThoughCollaborator(collaborator)</text><path d="M135.8,73.8732 L226.1,73.8732 L226.1,80.377 L219.1,87.377 L135.8,87.377 L135.8,73.8732 " fill="#EEEEEE" style="stroke:#000000;stroke-width:1.0499999999999998;"/><rect fill="none" height="222.2992" style="stroke:#000000;stroke-width:1.0499999999999998;" width="558.25" x="135.8" y="73.8732"/><text fill="#000000" font-family="sans-serif" font-size="9.1" font-weight="bold" lengthAdjust="spacing" textLength="58.8" x="146.3" y="84.3931">Get Entry List</text><polygon fill="#181818" points="319.9,100.8807,326.9,103.6807,319.9,106.4807,322.7,103.6807" style="stroke:#181818;stroke-width:0.6999999999999998;"/><line style="stroke:#181818;stroke-width:0.6999999999999998;" x1="203" x2="324.1" y1="103.6807" y2="103.6807"/><text fill="#000000" font-family="sans-serif" font-size="9.1" font-weight="bold" lengthAdjust="spacing" textLength="17.5" x="207.9" y="99.9968">18.1</text><text fill="#000000" font-family="sans-serif" font-size="9.1" lengthAdjust="spacing" textLength="30.8" x="228.2" y="99.9968">create()</text><rect fill="#E3E3E3" height="35.8695" rx="1.75" ry="1.75" style="stroke:#181818;stroke-width:0.3499999999999999;" width="64.4" x="328.3" y="87.377"/><text fill="#000000" font-family="sans-serif" font-size="9.8" lengthAdjust="spacing" textLength="37.1" x="341.95" y="102.8521">teamList</text><text fill="#000000" font-family="sans-serif" font-size="9.8" lengthAdjust="spacing" textLength="54.6" x="333.2" y="115.8869">:List&lt;Team&gt;</text><path d="M142.8,135.8465 L193.9,135.8465 L193.9,142.3502 L186.9,149.3502 L142.8,149.3502 L142.8,135.8465 " fill="#EEEEEE" style="stroke:#000000;stroke-width:1.0499999999999998;"/><rect fill="none" height="133.5223" style="stroke:#000000;stroke-width:1.0499999999999998;" width="544.25" x="142.8" y="135.8465"/><text fill="#000000" font-family="sans-serif" font-size="9.1" font-weight="bold" lengthAdjust="spacing" textLength="19.6" x="153.3" y="146.3663">loop</text><text fill="#000000" font-family="sans-serif" font-size="7.7" font-weight="bold" lengthAdjust="spacing" textLength="114.1" x="204.4" y="145.5556">[for each team in the system]</text><polygon fill="#181818" points="417.55,162.8539,424.55,165.6539,417.55,168.4539,420.35,165.6539" style="stroke:#181818;stroke-width:0.6999999999999998;"/><line style="stroke:#181818;stroke-width:0.6999999999999998;" x1="203" x2="421.75" y1="165.6539" y2="165.6539"/><text fill="#000000" font-family="sans-serif" font-size="9.1" font-weight="bold" lengthAdjust="spacing" textLength="17.5" x="207.9" y="161.97">18.2</text><text fill="#000000" font-family="sans-serif" font-size="9.1" lengthAdjust="spacing" textLength="176.4" x="228.2" y="161.97">validateCollaboratorTeam(collaborator,team)</text><line style="stroke:#181818;stroke-width:0.6999999999999998;" x1="432.95" x2="465.85" y1="184.0576" y2="184.0576"/><line style="stroke:#181818;stroke-width:0.6999999999999998;" x1="465.85" x2="465.85" y1="184.0576" y2="193.1576"/><line style="stroke:#181818;stroke-width:0.6999999999999998;" x1="437.15" x2="465.85" y1="193.1576" y2="193.1576"/><polygon fill="#181818" points="444.15,190.3576,437.15,193.1576,444.15,195.9576,441.35,193.1576" style="stroke:#181818;stroke-width:0.6999999999999998;"/><text fill="#000000" font-family="sans-serif" font-size="9.1" font-weight="bold" lengthAdjust="spacing" textLength="17.5" x="441.35" y="180.3737">18.3</text><text fill="#000000" font-family="sans-serif" font-size="9.1" lengthAdjust="spacing" textLength="217" x="461.65" y="180.3737">inTeam = validateCollaboratorTeam(collaborator,team)</text><polygon fill="#181818" points="210.7,215.7613,203.7,218.5613,210.7,221.3613,207.9,218.5613" style="stroke:#181818;stroke-width:0.6999999999999998;"/><line style="stroke:#181818;stroke-width:0.6999999999999998;stroke-dasharray:2.0,2.0;" x1="206.5" x2="428.75" y1="218.5613" y2="218.5613"/><text fill="#000000" font-family="sans-serif" font-size="9.1" font-weight="bold" lengthAdjust="spacing" textLength="17.5" x="214.9" y="214.8774">18.4</text><text fill="#000000" font-family="sans-serif" font-size="9.1" lengthAdjust="spacing" textLength="29.4" x="235.2" y="214.8774">inTeam</text><path d="M149.8,229.0613 L195.3,229.0613 L195.3,235.565 L188.3,242.565 L149.8,242.565 L149.8,229.0613 " fill="#EEEEEE" style="stroke:#000000;stroke-width:1.0499999999999998;"/><rect fill="none" height="35.4074" style="stroke:#000000;stroke-width:1.0499999999999998;" width="249.9" x="149.8" y="229.0613"/><text fill="#000000" font-family="sans-serif" font-size="9.1" font-weight="bold" lengthAdjust="spacing" textLength="14" x="160.3" y="239.5812">opt</text><text fill="#000000" font-family="sans-serif" font-size="7.7" font-weight="bold" lengthAdjust="spacing" textLength="63" x="205.8" y="238.7704">[inTeam == true]</text><polygon fill="#181818" points="348.6,256.0687,355.6,258.8687,348.6,261.6687,351.4,258.8687" style="stroke:#181818;stroke-width:0.6999999999999998;"/><line style="stroke:#181818;stroke-width:0.6999999999999998;" x1="203" x2="352.8" y1="258.8687" y2="258.8687"/><text fill="#000000" font-family="sans-serif" font-size="9.1" font-weight="bold" lengthAdjust="spacing" textLength="17.5" x="207.9" y="255.1849">18.5</text><text fill="#000000" font-family="sans-serif" font-size="9.1" lengthAdjust="spacing" textLength="120.4" x="228.2" y="255.1849">addTeamOfCollaborator(team)</text><polygon fill="#181818" points="210.7,287.7725,203.7,290.5725,210.7,293.3725,207.9,290.5725" style="stroke:#181818;stroke-width:0.6999999999999998;"/><line style="stroke:#181818;stroke-width:0.6999999999999998;stroke-dasharray:2.0,2.0;" x1="206.5" x2="359.8" y1="290.5725" y2="290.5725"/><text fill="#000000" font-family="sans-serif" font-size="9.1" font-weight="bold" lengthAdjust="spacing" textLength="17.5" x="214.9" y="286.8886">18.6</text><text fill="#000000" font-family="sans-serif" font-size="9.1" lengthAdjust="spacing" textLength="35" x="235.2" y="286.8886">teamList</text><polygon fill="#181818" points="7.7,314.5762,0.7,317.3762,7.7,320.1762,4.9,317.3762" style="stroke:#181818;stroke-width:0.6999999999999998;"/><line style="stroke:#181818;stroke-width:0.6999999999999998;stroke-dasharray:2.0,2.0;" x1="3.5" x2="195.3" y1="317.3762" y2="317.3762"/><text fill="#000000" font-family="sans-serif" font-size="9.1" font-weight="bold" lengthAdjust="spacing" textLength="9.8" x="11.9" y="313.6923">19</text><text fill="#000000" font-family="sans-serif" font-size="9.1" lengthAdjust="spacing" textLength="35" x="24.5" y="313.6923">teamList</text><!--SRC=[jLDDQyCm3BtxLuYUsh8EUjjALnYZZ477OCrn5pLH4zF43hRIaNy_EwDPt2HZb-aIOhyFwM7ParGb6YoWq4h7cT450PkAX6rlIenFcDAUwvp0KCoeqhmBi1ac-bEg58wOMn92k7EMiInHCKoOi7YdKbl9sjGVQXK51nD02o6cpzz9ouxfFsjFtpIitSi-YhQFhtryuz5WcdkiMAkgE921vPrORAxyLf0IUuQDCbsbsPFESpneW-vo6dT-PYAKkbqAZ5cUaUbw172L6bsLy4mCMyMc1j- -y0MT2ddWchkCDP_32c93Jdqw2pY-SgrBE6e3X77Mg81Km1c1hIrJqICCctaZPtF6N2REg3kwJoGO_yRJPuF2ljeecip7K8tXZx5KtWOU_g63KLZGIUyrj4sDyXFwez4rS0YZIsv3UFZUlJ6vyQVYUiOayI9ln-3r_fvNa5cxJKCeKab_J7_O_M-x6GpriiTY9A70l_NhxjkzM2yMlTrjTSKN]--></g></svg>