<?xml version="1.0" encoding="us-ascii" standalone="no"?><svg xmlns="http://www.w3.org/2000/svg" xmlns:xlink="http://www.w3.org/1999/xlink" contentStyleType="text/css" height="1164.1px" preserveAspectRatio="none" style="width:1058px;height:1164px;background:#FFFFFF;" version="1.1" viewBox="0 0 1058 1164" width="1058.4px" zoomAndPan="magnify"><defs/><g><rect fill="#FFFFFF" height="1028.1824" style="stroke:#181818;stroke-width:0.6999999999999998;" width="7" x="29.4" y="65.5348"/><rect fill="#FFFFFF" height="141.1949" style="stroke:#181818;stroke-width:0.6999999999999998;" width="7" x="285.6" y="81.8385"/><rect fill="#FFFFFF" height="110.6602" style="stroke:#181818;stroke-width:0.6999999999999998;" width="7" x="285.6" y="244.9371"/><rect fill="#FFFFFF" height="21.9037" style="stroke:#181818;stroke-width:0.6999999999999998;" width="7" x="285.6" y="377.501"/><rect fill="#FFFFFF" height="672.4088" style="stroke:#181818;stroke-width:0.6999999999999998;" width="7" x="285.6" y="421.3084"/><rect fill="#FFFFFF" height="66.8527" style="stroke:#181818;stroke-width:0.6999999999999998;" width="7" x="541.1" y="134.277"/><rect fill="#FFFFFF" height="66.8527" style="stroke:#181818;stroke-width:0.6999999999999998;" width="7" x="541.1" y="266.8408"/><rect fill="#FFFFFF" height="628.6014" style="stroke:#181818;stroke-width:0.6999999999999998;" width="7" x="541.1" y="443.2121"/><rect fill="#FFFFFF" height="21.9037" style="stroke:#181818;stroke-width:0.6999999999999998;" width="7" x="628.6" y="465.1158"/><rect fill="#FFFFFF" height="21.9037" style="stroke:#181818;stroke-width:0.6999999999999998;" width="7" x="628.6" y="630.3145"/><rect fill="#FFFFFF" height="21.9037" style="stroke:#181818;stroke-width:0.6999999999999998;" width="7" x="628.6" y="795.5131"/><rect fill="#FFFFFF" height="21.9037" style="stroke:#181818;stroke-width:0.6999999999999998;" width="7" x="703.5" y="508.9232"/><rect fill="#FFFFFF" height="21.9037" style="stroke:#181818;stroke-width:0.6999999999999998;" width="7" x="703.5" y="674.1219"/><rect fill="#FFFFFF" height="21.9037" style="stroke:#181818;stroke-width:0.6999999999999998;" width="7" x="703.5" y="839.3205"/><rect fill="#FFFFFF" height="55.6801" style="stroke:#181818;stroke-width:0.6999999999999998;" width="7" x="787.15" y="552.7307"/><rect fill="#FFFFFF" height="55.6801" style="stroke:#181818;stroke-width:0.6999999999999998;" width="7" x="877.8" y="717.9293"/><rect fill="#FFFFFF" height="66.8527" style="stroke:#181818;stroke-width:0.6999999999999998;" width="7" x="949.2" y="883.1279"/><rect fill="#FFFFFF" height="78.0254" style="stroke:#181818;stroke-width:0.6999999999999998;" width="7" x="1014.3" y="971.8844"/><line style="stroke:#181818;stroke-width:0.3499999999999999;stroke-dasharray:5.0,5.0;" x1="32.9" x2="32.9" y1="58.5348" y2="1106.3172"/><line style="stroke:#181818;stroke-width:0.3499999999999999;stroke-dasharray:5.0,5.0;" x1="288.75" x2="288.75" y1="58.5348" y2="1106.3172"/><line style="stroke:#181818;stroke-width:0.3499999999999999;stroke-dasharray:5.0,5.0;" x1="544.25" x2="544.25" y1="109.7059" y2="1106.3172"/><line style="stroke:#181818;stroke-width:0.3499999999999999;stroke-dasharray:5.0,5.0;" x1="631.75" x2="631.75" y1="58.5348" y2="1106.3172"/><line style="stroke:#181818;stroke-width:0.3499999999999999;stroke-dasharray:5.0,5.0;" x1="706.65" x2="706.65" y1="58.5348" y2="1106.3172"/><line style="stroke:#181818;stroke-width:0.3499999999999999;stroke-dasharray:5.0,5.0;" x1="790.65" x2="790.65" y1="58.5348" y2="1106.3172"/><line style="stroke:#181818;stroke-width:0.3499999999999999;stroke-dasharray:5.0,5.0;" x1="880.95" x2="880.95" y1="58.5348" y2="1106.3172"/><line style="stroke:#181818;stroke-width:0.3499999999999999;stroke-dasharray:5.0,5.0;" x1="952.35" x2="952.35" y1="58.5348" y2="1106.3172"/><line style="stroke:#181818;stroke-width:0.3499999999999999;stroke-dasharray:5.0,5.0;" x1="1017.45" x2="1017.45" y1="58.5348" y2="1106.3172"/><text fill="#000000" font-family="sans-serif" font-size="9.8" lengthAdjust="spacing" textLength="54.6" x="3.5" y="56.0752">Collaborator</text><ellipse cx="32.9" cy="9.45" fill="#E3E3E3" rx="5.6" ry="5.6" style="stroke:#181818;stroke-width:0.3499999999999999;"/><path d="M32.9,15.05 L32.9,33.95 M23.8,20.65 L42,20.65 M32.9,33.95 L23.8,44.45 M32.9,33.95 L42,44.45 " fill="none" style="stroke:#181818;stroke-width:0.3499999999999999;"/><text fill="#000000" font-family="sans-serif" font-size="9.8" lengthAdjust="spacing" textLength="54.6" x="3.5" y="1116.1924">Collaborator</text><ellipse cx="32.9" cy="1124.602" fill="#E3E3E3" rx="5.6" ry="5.6" style="stroke:#181818;stroke-width:0.3499999999999999;"/><path d="M32.9,1130.202 L32.9,1149.102 M23.8,1135.802 L42,1135.802 M32.9,1149.102 L23.8,1159.602 M32.9,1149.102 L42,1159.602 " fill="none" style="stroke:#181818;stroke-width:0.3499999999999999;"/><rect fill="#E3E3E3" height="22.8348" rx="1.75" ry="1.75" style="stroke:#181818;stroke-width:0.3499999999999999;" width="86.1" x="246.05" y="35"/><text fill="#000000" font-family="sans-serif" font-size="9.8" lengthAdjust="spacing" textLength="76.3" x="250.95" y="50.4752">:ListTaskSpaceUI</text><rect fill="#E3E3E3" height="22.8348" rx="1.75" ry="1.75" style="stroke:#181818;stroke-width:0.3499999999999999;" width="86.1" x="246.05" y="1105.6172"/><text fill="#000000" font-family="sans-serif" font-size="9.8" lengthAdjust="spacing" textLength="76.3" x="250.95" y="1121.0924">:ListTaskSpaceUI</text><rect fill="#E3E3E3" height="22.8348" rx="1.75" ry="1.75" style="stroke:#181818;stroke-width:0.3499999999999999;" width="93.1" x="498.05" y="1105.6172"/><text fill="#000000" font-family="sans-serif" font-size="9.8" lengthAdjust="spacing" textLength="83.3" x="502.95" y="1121.0924">:ListTaskController</text><rect fill="#E3E3E3" height="22.8348" rx="1.75" ry="1.75" style="stroke:#181818;stroke-width:0.3499999999999999;" width="67.9" x="598.15" y="35"/><text fill="#000000" font-family="sans-serif" font-size="9.8" lengthAdjust="spacing" textLength="58.1" x="603.05" y="50.4752">:Repositories</text><rect fill="#E3E3E3" height="22.8348" rx="1.75" ry="1.75" style="stroke:#181818;stroke-width:0.3499999999999999;" width="67.9" x="598.15" y="1105.6172"/><text fill="#000000" font-family="sans-serif" font-size="9.8" lengthAdjust="spacing" textLength="58.1" x="603.05" y="1121.0924">:Repositories</text><rect fill="#E3E3E3" height="35.8695" rx="1.75" ry="1.75" style="stroke:#181818;stroke-width:0.3499999999999999;" width="67.9" x="673.05" y="21.9652"/><text fill="#000000" font-family="sans-serif" font-size="9.8" lengthAdjust="spacing" textLength="51.8" x="681.1" y="37.4404">repositories</text><text fill="#000000" font-family="sans-serif" font-size="9.8" lengthAdjust="spacing" textLength="58.1" x="677.95" y="50.4752">:Repositories</text><rect fill="#E3E3E3" height="35.8695" rx="1.75" ry="1.75" style="stroke:#181818;stroke-width:0.3499999999999999;" width="67.9" x="673.05" y="1105.6172"/><text fill="#000000" font-family="sans-serif" font-size="9.8" lengthAdjust="spacing" textLength="51.8" x="681.1" y="1121.0924">repositories</text><text fill="#000000" font-family="sans-serif" font-size="9.8" lengthAdjust="spacing" textLength="58.1" x="677.95" y="1134.1271">:Repositories</text><rect fill="#E3E3E3" height="35.8695" rx="1.75" ry="1.75" style="stroke:#181818;stroke-width:0.3499999999999999;" width="85.4" x="747.95" y="21.9652"/><text fill="#000000" font-family="sans-serif" font-size="9.8" lengthAdjust="spacing" textLength="69.3" x="756" y="37.4404">teamRepository</text><text fill="#000000" font-family="sans-serif" font-size="9.8" lengthAdjust="spacing" textLength="75.6" x="752.85" y="50.4752">:TeamRepository</text><rect fill="#E3E3E3" height="35.8695" rx="1.75" ry="1.75" style="stroke:#181818;stroke-width:0.3499999999999999;" width="85.4" x="747.95" y="1105.6172"/><text fill="#000000" font-family="sans-serif" font-size="9.8" lengthAdjust="spacing" textLength="69.3" x="756" y="1121.0924">teamRepository</text><text fill="#000000" font-family="sans-serif" font-size="9.8" lengthAdjust="spacing" textLength="75.6" x="752.85" y="1134.1271">:TeamRepository</text><rect fill="#E3E3E3" height="35.8695" rx="1.75" ry="1.75" style="stroke:#181818;stroke-width:0.3499999999999999;" width="81.9" x="840.35" y="21.9652"/><text fill="#000000" font-family="sans-serif" font-size="9.8" lengthAdjust="spacing" textLength="65.8" x="848.4" y="37.4404">taskRepository</text><text fill="#000000" font-family="sans-serif" font-size="9.8" lengthAdjust="spacing" textLength="72.1" x="845.25" y="50.4752">:TaskRepository</text><rect fill="#E3E3E3" height="35.8695" rx="1.75" ry="1.75" style="stroke:#181818;stroke-width:0.3499999999999999;" width="81.9" x="840.35" y="1105.6172"/><text fill="#000000" font-family="sans-serif" font-size="9.8" lengthAdjust="spacing" textLength="65.8" x="848.4" y="1121.0924">taskRepository</text><text fill="#000000" font-family="sans-serif" font-size="9.8" lengthAdjust="spacing" textLength="72.1" x="845.25" y="1134.1271">:TaskRepository</text><rect fill="#E3E3E3" height="35.8695" rx="1.75" ry="1.75" style="stroke:#181818;stroke-width:0.3499999999999999;" width="46.9" x="929.25" y="21.9652"/><text fill="#000000" font-family="sans-serif" font-size="9.8" lengthAdjust="spacing" textLength="33.6" x="935.9" y="37.4404">agenda</text><text fill="#000000" font-family="sans-serif" font-size="9.8" lengthAdjust="spacing" textLength="37.1" x="934.15" y="50.4752">:Agenda</text><rect fill="#E3E3E3" height="35.8695" rx="1.75" ry="1.75" style="stroke:#181818;stroke-width:0.3499999999999999;" width="46.9" x="929.25" y="1105.6172"/><text fill="#000000" font-family="sans-serif" font-size="9.8" lengthAdjust="spacing" textLength="33.6" x="935.9" y="1121.0924">agenda</text><text fill="#000000" font-family="sans-serif" font-size="9.8" lengthAdjust="spacing" textLength="37.1" x="934.15" y="1134.1271">:Agenda</text><rect fill="#E3E3E3" height="22.8348" rx="1.75" ry="1.75" style="stroke:#181818;stroke-width:0.3499999999999999;" width="69.3" x="983.15" y="35"/><text fill="#000000" font-family="sans-serif" font-size="9.8" lengthAdjust="spacing" textLength="59.5" x="988.05" y="50.4752">:EntryMapper</text><rect fill="#E3E3E3" height="22.8348" rx="1.75" ry="1.75" style="stroke:#181818;stroke-width:0.3499999999999999;" width="69.3" x="983.15" y="1105.6172"/><text fill="#000000" font-family="sans-serif" font-size="9.8" lengthAdjust="spacing" textLength="59.5" x="988.05" y="1121.0924">:EntryMapper</text><rect fill="#FFFFFF" height="1028.1824" style="stroke:#181818;stroke-width:0.6999999999999998;" width="7" x="29.4" y="65.5348"/><rect fill="#FFFFFF" height="141.1949" style="stroke:#181818;stroke-width:0.6999999999999998;" width="7" x="285.6" y="81.8385"/><rect fill="#FFFFFF" height="110.6602" style="stroke:#181818;stroke-width:0.6999999999999998;" width="7" x="285.6" y="244.9371"/><rect fill="#FFFFFF" height="21.9037" style="stroke:#181818;stroke-width:0.6999999999999998;" width="7" x="285.6" y="377.501"/><rect fill="#FFFFFF" height="672.4088" style="stroke:#181818;stroke-width:0.6999999999999998;" width="7" x="285.6" y="421.3084"/><rect fill="#FFFFFF" height="66.8527" style="stroke:#181818;stroke-width:0.6999999999999998;" width="7" x="541.1" y="134.277"/><rect fill="#FFFFFF" height="66.8527" style="stroke:#181818;stroke-width:0.6999999999999998;" width="7" x="541.1" y="266.8408"/><rect fill="#FFFFFF" height="628.6014" style="stroke:#181818;stroke-width:0.6999999999999998;" width="7" x="541.1" y="443.2121"/><rect fill="#FFFFFF" height="21.9037" style="stroke:#181818;stroke-width:0.6999999999999998;" width="7" x="628.6" y="465.1158"/><rect fill="#FFFFFF" height="21.9037" style="stroke:#181818;stroke-width:0.6999999999999998;" width="7" x="628.6" y="630.3145"/><rect fill="#FFFFFF" height="21.9037" style="stroke:#181818;stroke-width:0.6999999999999998;" width="7" x="628.6" y="795.5131"/><rect fill="#FFFFFF" height="21.9037" style="stroke:#181818;stroke-width:0.6999999999999998;" width="7" x="703.5" y="508.9232"/><rect fill="#FFFFFF" height="21.9037" style="stroke:#181818;stroke-width:0.6999999999999998;" width="7" x="703.5" y="674.1219"/><rect fill="#FFFFFF" height="21.9037" style="stroke:#181818;stroke-width:0.6999999999999998;" width="7" x="703.5" y="839.3205"/><rect fill="#FFFFFF" height="55.6801" style="stroke:#181818;stroke-width:0.6999999999999998;" width="7" x="787.15" y="552.7307"/><rect fill="#FFFFFF" height="55.6801" style="stroke:#181818;stroke-width:0.6999999999999998;" width="7" x="877.8" y="717.9293"/><rect fill="#FFFFFF" height="66.8527" style="stroke:#181818;stroke-width:0.6999999999999998;" width="7" x="949.2" y="883.1279"/><rect fill="#FFFFFF" height="78.0254" style="stroke:#181818;stroke-width:0.6999999999999998;" width="7" x="1014.3" y="971.8844"/><polygon fill="#181818" points="277.2,79.0385,284.2,81.8385,277.2,84.6385,280,81.8385" style="stroke:#181818;stroke-width:0.6999999999999998;"/><line style="stroke:#181818;stroke-width:0.6999999999999998;" x1="36.4" x2="281.4" y1="81.8385" y2="81.8385"/><text fill="#000000" font-family="sans-serif" font-size="9.1" font-weight="bold" lengthAdjust="spacing" textLength="4.9" x="41.3" y="78.1546">1</text><text fill="#000000" font-family="sans-serif" font-size="9.1" lengthAdjust="spacing" textLength="170.1" x="49" y="78.1546">requests to consult tasks assigned to him</text><polygon fill="#181818" points="489.65,100.9422,496.65,103.7422,489.65,106.5422,492.45,103.7422" style="stroke:#181818;stroke-width:0.6999999999999998;"/><line style="stroke:#181818;stroke-width:0.6999999999999998;" x1="292.6" x2="493.85" y1="103.7422" y2="103.7422"/><text fill="#000000" font-family="sans-serif" font-size="9.1" font-weight="bold" lengthAdjust="spacing" textLength="4.9" x="297.5" y="100.0583">2</text><text fill="#000000" font-family="sans-serif" font-size="9.1" lengthAdjust="spacing" textLength="25.2" x="305.2" y="100.0583">create</text><rect fill="#E3E3E3" height="22.8348" rx="1.75" ry="1.75" style="stroke:#181818;stroke-width:0.3499999999999999;" width="93.1" x="498.05" y="87.4385"/><text fill="#000000" font-family="sans-serif" font-size="9.8" lengthAdjust="spacing" textLength="83.3" x="502.95" y="102.9137">:ListTaskController</text><polygon fill="#181818" points="532.7,131.477,539.7,134.277,532.7,137.077,535.5,134.277" style="stroke:#181818;stroke-width:0.6999999999999998;"/><line style="stroke:#181818;stroke-width:0.6999999999999998;" x1="292.6" x2="536.9" y1="134.277" y2="134.277"/><text fill="#000000" font-family="sans-serif" font-size="9.1" font-weight="bold" lengthAdjust="spacing" textLength="4.9" x="297.5" y="130.5931">3</text><text fill="#000000" font-family="sans-serif" font-size="9.1" lengthAdjust="spacing" textLength="122.5" x="305.2" y="130.5931">getCollaboratorByEmail(email)</text><rect fill="none" height="41.449" style="stroke:#000000;stroke-width:1.0499999999999998;" width="124.6" x="495.95" y="139.877"/><path d="M495.95,139.877 L539.35,139.877 L539.35,146.177 L532.35,153.177 L495.95,153.177 L495.95,139.877 " fill="#EEEEEE" style="stroke:#000000;stroke-width:1.3999999999999997;"/><text fill="#000000" font-family="sans-serif" font-size="9.1" font-weight="bold" lengthAdjust="spacing" textLength="11.9" x="505.05" y="151.0968">ref</text><text fill="#000000" font-family="sans-serif" font-size="8.4" lengthAdjust="spacing" textLength="119" x="498.75" y="165.0414">Get Collaborator Though Email</text><text fill="#000000" font-family="sans-serif" font-size="8.4" lengthAdjust="spacing" textLength="2.1" x="557.2" y="176.2141">&#160;</text><polygon fill="#181818" points="300.3,198.3297,293.3,201.1297,300.3,203.9297,297.5,201.1297" style="stroke:#181818;stroke-width:0.6999999999999998;"/><line style="stroke:#181818;stroke-width:0.6999999999999998;stroke-dasharray:2.0,2.0;" x1="296.1" x2="543.9" y1="201.1297" y2="201.1297"/><text fill="#000000" font-family="sans-serif" font-size="9.1" font-weight="bold" lengthAdjust="spacing" textLength="4.9" x="304.5" y="197.4458">4</text><text fill="#000000" font-family="sans-serif" font-size="9.1" lengthAdjust="spacing" textLength="46.9" x="312.2" y="197.4458">collaborator</text><polygon fill="#181818" points="44.1,220.2334,37.1,223.0334,44.1,225.8334,41.3,223.0334" style="stroke:#181818;stroke-width:0.6999999999999998;"/><line style="stroke:#181818;stroke-width:0.6999999999999998;stroke-dasharray:2.0,2.0;" x1="39.9" x2="288.4" y1="223.0334" y2="223.0334"/><text fill="#000000" font-family="sans-serif" font-size="9.1" font-weight="bold" lengthAdjust="spacing" textLength="4.9" x="48.3" y="219.3495">5</text><text fill="#000000" font-family="sans-serif" font-size="9.1" lengthAdjust="spacing" textLength="224.7" x="56" y="219.3495">asks to select the beginning and end date of the search</text><polygon fill="#181818" points="277.2,242.1371,284.2,244.9371,277.2,247.7371,280,244.9371" style="stroke:#181818;stroke-width:0.6999999999999998;"/><line style="stroke:#181818;stroke-width:0.6999999999999998;" x1="36.4" x2="281.4" y1="244.9371" y2="244.9371"/><text fill="#000000" font-family="sans-serif" font-size="9.1" font-weight="bold" lengthAdjust="spacing" textLength="4.9" x="41.3" y="241.2532">6</text><text fill="#000000" font-family="sans-serif" font-size="9.1" lengthAdjust="spacing" textLength="141.4" x="49" y="241.2532">selects the beginning and end date</text><polygon fill="#181818" points="532.7,264.0408,539.7,266.8408,532.7,269.6408,535.5,266.8408" style="stroke:#181818;stroke-width:0.6999999999999998;"/><line style="stroke:#181818;stroke-width:0.6999999999999998;" x1="292.6" x2="536.9" y1="266.8408" y2="266.8408"/><text fill="#000000" font-family="sans-serif" font-size="9.1" font-weight="bold" lengthAdjust="spacing" textLength="4.9" x="297.5" y="263.1569">7</text><text fill="#000000" font-family="sans-serif" font-size="9.1" lengthAdjust="spacing" textLength="59.5" x="305.2" y="263.1569">getStatusList()</text><rect fill="none" height="41.449" style="stroke:#000000;stroke-width:1.0499999999999998;" width="97.3" x="495.95" y="272.4408"/><path d="M495.95,272.4408 L539.35,272.4408 L539.35,278.7408 L532.35,285.7408 L495.95,285.7408 L495.95,272.4408 " fill="#EEEEEE" style="stroke:#000000;stroke-width:1.3999999999999997;"/><text fill="#000000" font-family="sans-serif" font-size="9.1" font-weight="bold" lengthAdjust="spacing" textLength="11.9" x="505.05" y="283.6606">ref</text><text fill="#000000" font-family="sans-serif" font-size="8.4" lengthAdjust="spacing" textLength="56" x="516.6" y="297.6053">Get Status List</text><text fill="#000000" font-family="sans-serif" font-size="8.4" lengthAdjust="spacing" textLength="2.1" x="543.55" y="308.7779">&#160;</text><polygon fill="#181818" points="300.3,330.8936,293.3,333.6936,300.3,336.4936,297.5,333.6936" style="stroke:#181818;stroke-width:0.6999999999999998;"/><line style="stroke:#181818;stroke-width:0.6999999999999998;stroke-dasharray:2.0,2.0;" x1="296.1" x2="543.9" y1="333.6936" y2="333.6936"/><text fill="#000000" font-family="sans-serif" font-size="9.1" font-weight="bold" lengthAdjust="spacing" textLength="4.9" x="304.5" y="330.0097">8</text><text fill="#000000" font-family="sans-serif" font-size="9.1" lengthAdjust="spacing" textLength="39.9" x="312.2" y="330.0097">statusList</text><polygon fill="#181818" points="44.1,352.7973,37.1,355.5973,44.1,358.3973,41.3,355.5973" style="stroke:#181818;stroke-width:0.6999999999999998;"/><line style="stroke:#181818;stroke-width:0.6999999999999998;stroke-dasharray:2.0,2.0;" x1="39.9" x2="288.4" y1="355.5973" y2="355.5973"/><text fill="#000000" font-family="sans-serif" font-size="9.1" font-weight="bold" lengthAdjust="spacing" textLength="4.9" x="48.3" y="351.9134">9</text><text fill="#000000" font-family="sans-serif" font-size="9.1" lengthAdjust="spacing" textLength="212.8" x="56" y="351.9134">asks to select the type of status he wants to consult</text><polygon fill="#181818" points="277.2,374.701,284.2,377.501,277.2,380.301,280,377.501" style="stroke:#181818;stroke-width:0.6999999999999998;"/><line style="stroke:#181818;stroke-width:0.6999999999999998;" x1="36.4" x2="281.4" y1="377.501" y2="377.501"/><text fill="#000000" font-family="sans-serif" font-size="9.1" font-weight="bold" lengthAdjust="spacing" textLength="9.8" x="41.3" y="373.8171">10</text><text fill="#000000" font-family="sans-serif" font-size="9.1" lengthAdjust="spacing" textLength="148.4" x="53.9" y="373.8171">Selects the type he wants to consult</text><polygon fill="#181818" points="44.1,396.6047,37.1,399.4047,44.1,402.2047,41.3,399.4047" style="stroke:#181818;stroke-width:0.6999999999999998;"/><line style="stroke:#181818;stroke-width:0.6999999999999998;stroke-dasharray:2.0,2.0;" x1="39.9" x2="288.4" y1="399.4047" y2="399.4047"/><text fill="#000000" font-family="sans-serif" font-size="9.1" font-weight="bold" lengthAdjust="spacing" textLength="9.8" x="48.3" y="395.7208">11</text><text fill="#000000" font-family="sans-serif" font-size="9.1" lengthAdjust="spacing" textLength="84" x="60.9" y="395.7208">asks for confirmation</text><polygon fill="#181818" points="277.2,418.5084,284.2,421.3084,277.2,424.1084,280,421.3084" style="stroke:#181818;stroke-width:0.6999999999999998;"/><line style="stroke:#181818;stroke-width:0.6999999999999998;" x1="36.4" x2="281.4" y1="421.3084" y2="421.3084"/><text fill="#000000" font-family="sans-serif" font-size="9.1" font-weight="bold" lengthAdjust="spacing" textLength="9.8" x="41.3" y="417.6245">12</text><text fill="#000000" font-family="sans-serif" font-size="9.1" lengthAdjust="spacing" textLength="160.3" x="53.9" y="417.6245">confirms that he wants to create the list</text><polygon fill="#181818" points="532.7,440.4121,539.7,443.2121,532.7,446.0121,535.5,443.2121" style="stroke:#181818;stroke-width:0.6999999999999998;"/><line style="stroke:#181818;stroke-width:0.6999999999999998;" x1="292.6" x2="536.9" y1="443.2121" y2="443.2121"/><text fill="#000000" font-family="sans-serif" font-size="9.1" font-weight="bold" lengthAdjust="spacing" textLength="9.8" x="297.5" y="439.5282">13</text><text fill="#000000" font-family="sans-serif" font-size="9.1" lengthAdjust="spacing" textLength="222.6" x="310.1" y="439.5282">getTaskList(collaborator,startDate,endDate,typeStatus)</text><polygon fill="#181818" points="620.2,462.3158,627.2,465.1158,620.2,467.9158,623,465.1158" style="stroke:#181818;stroke-width:0.6999999999999998;"/><line style="stroke:#181818;stroke-width:0.6999999999999998;" x1="548.1" x2="624.4" y1="465.1158" y2="465.1158"/><text fill="#000000" font-family="sans-serif" font-size="9.1" font-weight="bold" lengthAdjust="spacing" textLength="9.8" x="553" y="461.4319">14</text><text fill="#000000" font-family="sans-serif" font-size="9.1" lengthAdjust="spacing" textLength="52.5" x="565.6" y="461.4319">getInstance()</text><polygon fill="#181818" points="555.8,484.2195,548.8,487.0195,555.8,489.8195,553,487.0195" style="stroke:#181818;stroke-width:0.6999999999999998;"/><line style="stroke:#181818;stroke-width:0.6999999999999998;stroke-dasharray:2.0,2.0;" x1="551.6" x2="631.4" y1="487.0195" y2="487.0195"/><text fill="#000000" font-family="sans-serif" font-size="9.1" font-weight="bold" lengthAdjust="spacing" textLength="9.8" x="560" y="483.3356">15</text><text fill="#000000" font-family="sans-serif" font-size="9.1" lengthAdjust="spacing" textLength="46.9" x="572.6" y="483.3356">repositories</text><polygon fill="#181818" points="695.1,506.1232,702.1,508.9232,695.1,511.7232,697.9,508.9232" style="stroke:#181818;stroke-width:0.6999999999999998;"/><line style="stroke:#181818;stroke-width:0.6999999999999998;" x1="548.1" x2="699.3" y1="508.9232" y2="508.9232"/><text fill="#000000" font-family="sans-serif" font-size="9.1" font-weight="bold" lengthAdjust="spacing" textLength="9.8" x="553" y="505.2394">16</text><text fill="#000000" font-family="sans-serif" font-size="9.1" lengthAdjust="spacing" textLength="84" x="565.6" y="505.2394">getTeamRepository()</text><polygon fill="#181818" points="555.8,528.027,548.8,530.827,555.8,533.627,553,530.827" style="stroke:#181818;stroke-width:0.6999999999999998;"/><line style="stroke:#181818;stroke-width:0.6999999999999998;stroke-dasharray:2.0,2.0;" x1="551.6" x2="706.3" y1="530.827" y2="530.827"/><text fill="#000000" font-family="sans-serif" font-size="9.1" font-weight="bold" lengthAdjust="spacing" textLength="9.8" x="560" y="527.1431">17</text><text fill="#000000" font-family="sans-serif" font-size="9.1" lengthAdjust="spacing" textLength="63.7" x="572.6" y="527.1431">teamRepository</text><polygon fill="#181818" points="778.75,549.9307,785.75,552.7307,778.75,555.5307,781.55,552.7307" style="stroke:#181818;stroke-width:0.6999999999999998;"/><line style="stroke:#181818;stroke-width:0.6999999999999998;" x1="548.1" x2="782.95" y1="552.7307" y2="552.7307"/><text fill="#000000" font-family="sans-serif" font-size="9.1" font-weight="bold" lengthAdjust="spacing" textLength="9.8" x="553" y="549.0468">18</text><text fill="#000000" font-family="sans-serif" font-size="9.1" lengthAdjust="spacing" textLength="170.1" x="565.6" y="549.0468">getTeamsThoughCollaborator(collaborator)</text><rect fill="none" height="30.2764" style="stroke:#000000;stroke-width:1.0499999999999998;" width="89.6" x="745.85" y="558.3307"/><path d="M745.85,558.3307 L789.25,558.3307 L789.25,564.6307 L782.25,571.6307 L745.85,571.6307 L745.85,558.3307 " fill="#EEEEEE" style="stroke:#000000;stroke-width:1.3999999999999997;"/><text fill="#000000" font-family="sans-serif" font-size="9.1" font-weight="bold" lengthAdjust="spacing" textLength="11.9" x="754.95" y="569.5505">ref</text><text fill="#000000" font-family="sans-serif" font-size="8.4" lengthAdjust="spacing" textLength="53.9" x="763.7" y="583.4951">Get Team List</text><polygon fill="#181818" points="555.8,605.6107,548.8,608.4107,555.8,611.2107,553,608.4107" style="stroke:#181818;stroke-width:0.6999999999999998;"/><line style="stroke:#181818;stroke-width:0.6999999999999998;stroke-dasharray:2.0,2.0;" x1="551.6" x2="789.95" y1="608.4107" y2="608.4107"/><text fill="#000000" font-family="sans-serif" font-size="9.1" font-weight="bold" lengthAdjust="spacing" textLength="9.8" x="560" y="604.7269">19</text><text fill="#000000" font-family="sans-serif" font-size="9.1" lengthAdjust="spacing" textLength="35" x="572.6" y="604.7269">teamList</text><polygon fill="#181818" points="620.2,627.5145,627.2,630.3145,620.2,633.1145,623,630.3145" style="stroke:#181818;stroke-width:0.6999999999999998;"/><line style="stroke:#181818;stroke-width:0.6999999999999998;" x1="548.1" x2="624.4" y1="630.3145" y2="630.3145"/><text fill="#000000" font-family="sans-serif" font-size="9.1" font-weight="bold" lengthAdjust="spacing" textLength="9.8" x="553" y="626.6306">20</text><text fill="#000000" font-family="sans-serif" font-size="9.1" lengthAdjust="spacing" textLength="52.5" x="565.6" y="626.6306">getInstance()</text><polygon fill="#181818" points="555.8,649.4182,548.8,652.2182,555.8,655.0182,553,652.2182" style="stroke:#181818;stroke-width:0.6999999999999998;"/><line style="stroke:#181818;stroke-width:0.6999999999999998;stroke-dasharray:2.0,2.0;" x1="551.6" x2="631.4" y1="652.2182" y2="652.2182"/><text fill="#000000" font-family="sans-serif" font-size="9.1" font-weight="bold" lengthAdjust="spacing" textLength="9.8" x="560" y="648.5343">21</text><text fill="#000000" font-family="sans-serif" font-size="9.1" lengthAdjust="spacing" textLength="46.9" x="572.6" y="648.5343">repositories</text><polygon fill="#181818" points="695.1,671.3219,702.1,674.1219,695.1,676.9219,697.9,674.1219" style="stroke:#181818;stroke-width:0.6999999999999998;"/><line style="stroke:#181818;stroke-width:0.6999999999999998;" x1="548.1" x2="699.3" y1="674.1219" y2="674.1219"/><text fill="#000000" font-family="sans-serif" font-size="9.1" font-weight="bold" lengthAdjust="spacing" textLength="9.8" x="553" y="670.438">22</text><text fill="#000000" font-family="sans-serif" font-size="9.1" lengthAdjust="spacing" textLength="81.2" x="565.6" y="670.438">getTaskRepository()</text><polygon fill="#181818" points="555.8,693.2256,548.8,696.0256,555.8,698.8256,553,696.0256" style="stroke:#181818;stroke-width:0.6999999999999998;"/><line style="stroke:#181818;stroke-width:0.6999999999999998;stroke-dasharray:2.0,2.0;" x1="551.6" x2="706.3" y1="696.0256" y2="696.0256"/><text fill="#000000" font-family="sans-serif" font-size="9.1" font-weight="bold" lengthAdjust="spacing" textLength="9.8" x="560" y="692.3417">23</text><text fill="#000000" font-family="sans-serif" font-size="9.1" lengthAdjust="spacing" textLength="60.9" x="572.6" y="692.3417">taskRepository</text><polygon fill="#181818" points="869.4,715.1293,876.4,717.9293,869.4,720.7293,872.2,717.9293" style="stroke:#181818;stroke-width:0.6999999999999998;"/><line style="stroke:#181818;stroke-width:0.6999999999999998;" x1="548.1" x2="873.6" y1="717.9293" y2="717.9293"/><text fill="#000000" font-family="sans-serif" font-size="9.1" font-weight="bold" lengthAdjust="spacing" textLength="9.8" x="553" y="714.2454">24</text><text fill="#000000" font-family="sans-serif" font-size="9.1" lengthAdjust="spacing" textLength="134.4" x="565.6" y="714.2454">getTaskList(teamList,typeStatus)</text><rect fill="none" height="30.2764" style="stroke:#000000;stroke-width:1.0499999999999998;" width="86.1" x="838.25" y="723.5293"/><path d="M838.25,723.5293 L881.65,723.5293 L881.65,729.8293 L874.65,736.8293 L838.25,736.8293 L838.25,723.5293 " fill="#EEEEEE" style="stroke:#000000;stroke-width:1.3999999999999997;"/><text fill="#000000" font-family="sans-serif" font-size="9.1" font-weight="bold" lengthAdjust="spacing" textLength="11.9" x="847.35" y="734.7491">ref</text><text fill="#000000" font-family="sans-serif" font-size="8.4" lengthAdjust="spacing" textLength="50.4" x="856.1" y="748.6937">Get Task List</text><polygon fill="#181818" points="555.8,770.8094,548.8,773.6094,555.8,776.4094,553,773.6094" style="stroke:#181818;stroke-width:0.6999999999999998;"/><line style="stroke:#181818;stroke-width:0.6999999999999998;stroke-dasharray:2.0,2.0;" x1="551.6" x2="880.6" y1="773.6094" y2="773.6094"/><text fill="#000000" font-family="sans-serif" font-size="9.1" font-weight="bold" lengthAdjust="spacing" textLength="9.8" x="560" y="769.9255">25</text><text fill="#000000" font-family="sans-serif" font-size="9.1" lengthAdjust="spacing" textLength="32.2" x="572.6" y="769.9255">taskList</text><polygon fill="#181818" points="620.2,792.7131,627.2,795.5131,620.2,798.3131,623,795.5131" style="stroke:#181818;stroke-width:0.6999999999999998;"/><line style="stroke:#181818;stroke-width:0.6999999999999998;" x1="548.1" x2="624.4" y1="795.5131" y2="795.5131"/><text fill="#000000" font-family="sans-serif" font-size="9.1" font-weight="bold" lengthAdjust="spacing" textLength="9.8" x="553" y="791.8292">26</text><text fill="#000000" font-family="sans-serif" font-size="9.1" lengthAdjust="spacing" textLength="52.5" x="565.6" y="791.8292">getInstance()</text><polygon fill="#181818" points="555.8,814.6168,548.8,817.4168,555.8,820.2168,553,817.4168" style="stroke:#181818;stroke-width:0.6999999999999998;"/><line style="stroke:#181818;stroke-width:0.6999999999999998;stroke-dasharray:2.0,2.0;" x1="551.6" x2="631.4" y1="817.4168" y2="817.4168"/><text fill="#000000" font-family="sans-serif" font-size="9.1" font-weight="bold" lengthAdjust="spacing" textLength="9.8" x="560" y="813.7329">27</text><text fill="#000000" font-family="sans-serif" font-size="9.1" lengthAdjust="spacing" textLength="46.9" x="572.6" y="813.7329">repositories</text><polygon fill="#181818" points="695.1,836.5205,702.1,839.3205,695.1,842.1205,697.9,839.3205" style="stroke:#181818;stroke-width:0.6999999999999998;"/><line style="stroke:#181818;stroke-width:0.6999999999999998;" x1="548.1" x2="699.3" y1="839.3205" y2="839.3205"/><text fill="#000000" font-family="sans-serif" font-size="9.1" font-weight="bold" lengthAdjust="spacing" textLength="9.8" x="553" y="835.6366">28</text><text fill="#000000" font-family="sans-serif" font-size="9.1" lengthAdjust="spacing" textLength="49" x="565.6" y="835.6366">getAgenda()</text><polygon fill="#181818" points="555.8,858.4242,548.8,861.2242,555.8,864.0242,553,861.2242" style="stroke:#181818;stroke-width:0.6999999999999998;"/><line style="stroke:#181818;stroke-width:0.6999999999999998;stroke-dasharray:2.0,2.0;" x1="551.6" x2="706.3" y1="861.2242" y2="861.2242"/><text fill="#000000" font-family="sans-serif" font-size="9.1" font-weight="bold" lengthAdjust="spacing" textLength="9.8" x="560" y="857.5403">29</text><text fill="#000000" font-family="sans-serif" font-size="9.1" lengthAdjust="spacing" textLength="30.8" x="572.6" y="857.5403">Agenda</text><polygon fill="#181818" points="940.8,880.3279,947.8,883.1279,940.8,885.9279,943.6,883.1279" style="stroke:#181818;stroke-width:0.6999999999999998;"/><line style="stroke:#181818;stroke-width:0.6999999999999998;" x1="548.1" x2="945" y1="883.1279" y2="883.1279"/><text fill="#000000" font-family="sans-serif" font-size="9.1" font-weight="bold" lengthAdjust="spacing" textLength="9.8" x="553" y="879.444">30</text><text fill="#000000" font-family="sans-serif" font-size="9.1" lengthAdjust="spacing" textLength="234.5" x="565.6" y="879.444">getCollaboratorAgendaEntries(taskList,dateStart,dateEnd)</text><rect fill="none" height="41.449" style="stroke:#000000;stroke-width:1.0499999999999998;" width="56" x="927.15" y="888.7279"/><path d="M927.15,888.7279 L970.55,888.7279 L970.55,895.0279 L963.55,902.0279 L927.15,902.0279 L927.15,888.7279 " fill="#EEEEEE" style="stroke:#000000;stroke-width:1.3999999999999997;"/><text fill="#000000" font-family="sans-serif" font-size="9.1" font-weight="bold" lengthAdjust="spacing" textLength="11.9" x="936.25" y="899.9478">ref</text><text fill="#000000" font-family="sans-serif" font-size="8.4" lengthAdjust="spacing" textLength="50.4" x="929.95" y="913.8924">Get Entry List</text><text fill="#000000" font-family="sans-serif" font-size="8.4" lengthAdjust="spacing" textLength="2.1" x="954.1" y="925.065">&#160;</text><polygon fill="#181818" points="555.8,947.1807,548.8,949.9807,555.8,952.7807,553,949.9807" style="stroke:#181818;stroke-width:0.6999999999999998;"/><line style="stroke:#181818;stroke-width:0.6999999999999998;stroke-dasharray:2.0,2.0;" x1="551.6" x2="952" y1="949.9807" y2="949.9807"/><text fill="#000000" font-family="sans-serif" font-size="9.1" font-weight="bold" lengthAdjust="spacing" textLength="9.8" x="560" y="946.2968">31</text><text fill="#000000" font-family="sans-serif" font-size="9.1" lengthAdjust="spacing" textLength="40.6" x="572.6" y="946.2968">listEntries</text><polygon fill="#181818" points="1005.9,969.0844,1012.9,971.8844,1005.9,974.6844,1008.7,971.8844" style="stroke:#181818;stroke-width:0.6999999999999998;"/><line style="stroke:#181818;stroke-width:0.6999999999999998;" x1="548.1" x2="1010.1" y1="971.8844" y2="971.8844"/><text fill="#000000" font-family="sans-serif" font-size="9.1" font-weight="bold" lengthAdjust="spacing" textLength="9.8" x="553" y="968.2005">32</text><text fill="#000000" font-family="sans-serif" font-size="9.1" lengthAdjust="spacing" textLength="86.8" x="565.6" y="968.2005">toDTOList(listEntries)</text><rect fill="none" height="52.6217" style="stroke:#000000;stroke-width:1.0499999999999998;" width="73.5" x="981.05" y="977.4844"/><path d="M981.05,977.4844 L1024.45,977.4844 L1024.45,983.7844 L1017.45,990.7844 L981.05,990.7844 L981.05,977.4844 " fill="#EEEEEE" style="stroke:#000000;stroke-width:1.3999999999999997;"/><text fill="#000000" font-family="sans-serif" font-size="9.1" font-weight="bold" lengthAdjust="spacing" textLength="11.9" x="990.15" y="988.7042">ref</text><text fill="#000000" font-family="sans-serif" font-size="8.4" lengthAdjust="spacing" textLength="52.5" x="991.55" y="1002.6488">Create a copy</text><text fill="#000000" font-family="sans-serif" font-size="8.4" lengthAdjust="spacing" textLength="44.1" x="995.75" y="1013.8215">of Entry List</text><text fill="#000000" font-family="sans-serif" font-size="8.4" lengthAdjust="spacing" textLength="2.1" x="1016.75" y="1024.9941">&#160;</text><polygon fill="#181818" points="555.8,1047.1098,548.8,1049.9098,555.8,1052.7098,553,1049.9098" style="stroke:#181818;stroke-width:0.6999999999999998;"/><line style="stroke:#181818;stroke-width:0.6999999999999998;stroke-dasharray:2.0,2.0;" x1="551.6" x2="1017.1" y1="1049.9098" y2="1049.9098"/><text fill="#000000" font-family="sans-serif" font-size="9.1" font-weight="bold" lengthAdjust="spacing" textLength="9.8" x="560" y="1046.2259">33</text><text fill="#000000" font-family="sans-serif" font-size="9.1" lengthAdjust="spacing" textLength="54.6" x="572.6" y="1046.2259">listEntriesDto</text><polygon fill="#181818" points="300.3,1069.0135,293.3,1071.8135,300.3,1074.6135,297.5,1071.8135" style="stroke:#181818;stroke-width:0.6999999999999998;"/><line style="stroke:#181818;stroke-width:0.6999999999999998;stroke-dasharray:2.0,2.0;" x1="296.1" x2="543.9" y1="1071.8135" y2="1071.8135"/><text fill="#000000" font-family="sans-serif" font-size="9.1" font-weight="bold" lengthAdjust="spacing" textLength="9.8" x="304.5" y="1068.1296">34</text><text fill="#000000" font-family="sans-serif" font-size="9.1" lengthAdjust="spacing" textLength="54.6" x="317.1" y="1068.1296">listEntriesDto</text><polygon fill="#181818" points="40.6,1090.9172,33.6,1093.7172,40.6,1096.5172,37.8,1093.7172" style="stroke:#181818;stroke-width:0.6999999999999998;"/><line style="stroke:#181818;stroke-width:0.6999999999999998;stroke-dasharray:2.0,2.0;" x1="36.4" x2="288.4" y1="1093.7172" y2="1093.7172"/><text fill="#000000" font-family="sans-serif" font-size="9.1" font-weight="bold" lengthAdjust="spacing" textLength="9.8" x="44.8" y="1090.0333">35</text><text fill="#000000" font-family="sans-serif" font-size="9.1" lengthAdjust="spacing" textLength="86.1" x="57.4" y="1090.0333">shows the LISTTASK</text><!--SRC=[tLV1Kjim4BtxApISKWP-W0CpASamcTAMmURMYx0LMuCjkP8Cax_lIh8TIKWnq1iv12FjFks-VLflv3DbFHQuGnrdl6m4xmXIOY2Pd7TwN3xZckJgq18aIAamgrlNG3Quug-KrMYFMqco30-Aiw5x8WAUIyK5EhlXROkVkC3mtnd24i521kwAbhJ7JA6pgpigLO7bSmu7aiUTiNhS9OnkE5C2CCc8LZpS1POFfEUImd6KI6CpBnnogZE067qNuNZyOH60xRtle0ZkZgZWKdWBnictoG80oCG7y1OiWBSK041TM8N1SMqUZCFwTljhimxOs09TXv-uxqV2x6DcwaDVi2Ac81byeSjhe1rTGQd_3aGgY82ZaZCvjCe48y5VqfgHIkyqjCiGV6OSA9bP00n0qeKvFmUqKX3O3NPWlIRArSRtmxR3j5qH_VtDc7lefj3piY1xn5-8iCl8-TmIXLnSL3Hyg1jaq8y0GDhyR0AwdB8l7UVPf2AHG7GwEX-WxWePVe0MILguAKWr13sHcZAchmTcbJuHLHg0xysk95YKJHQWQnBTMbWuUG9lgGYMwbnXDKXzYLQBv9ucE2JR8YCDxKDeYXCSopcQ_sDO7Nh3fyL3iF8AgdU5kyHlxl1hq58OKORzsFQWDd3PKz5XHQ79B9mzskh3iV8FDdV61DLE92sMMBSGKs1NmHT0ZL0RyBk0UfY_EarRjAGIWh9TnrgeFNJ7u01M4aTL7bwiztgMCUJBOrvkQ_Ry75vFdZ5diBqVQVBwSZ9kQFb-dE3ln1LqzrHaBieKYUzw34hQJkKsBw-KYKXFHE9Tv0MxwJhhI91tCsCjKt-2F09ota0uj8Ilng-iDkyb_ccr-QF0XzJckGQTOYfKj2VuAaj7uAlijDsiCZ1xfyhy-0DIKg-GS7RwoXAp4-1dfMMzFoGfEsU-7U4ib1uu8RVLL9uBFQJa-YradhQiIaGwZgzfROq6AKsPIJSoXuIg6iDtED3ls37ic9Z2m2OUx2YjbSWtnMzpeHoaH9RZ_9rCCh5lphLJ0OR1eOzVBHY5bbZm5ySKubni54_fOleL4H_l4XZB8vvi-AkTnUvsUL6iyn-n6Sh5uUq_]--></g></svg>