<?xml version="1.0" encoding="us-ascii" standalone="no"?><svg xmlns="http://www.w3.org/2000/svg" xmlns:xlink="http://www.w3.org/1999/xlink" contentStyleType="text/css" height="317.8px" preserveAspectRatio="none" style="width:395px;height:317px;background:#FFFFFF;" version="1.1" viewBox="0 0 395 317" width="395.5px" zoomAndPan="magnify"><defs/><g><rect fill="#FFFFFF" height="202.4955" style="stroke:#181818;stroke-width:0.6999999999999998;" width="7" x="184.1" y="63.3732"/><rect fill="#FFFFFF" height="36.6037" style="stroke:#181818;stroke-width:0.6999999999999998;" width="7" x="307.65" y="202.4613"/><rect fill="none" height="170.7918" style="stroke:#000000;stroke-width:1.0499999999999998;" width="255.15" x="136.15" y="73.8732"/><rect fill="none" height="82.0148" style="stroke:#000000;stroke-width:1.0499999999999998;" width="241.15" x="143.15" y="135.8465"/><rect fill="none" height="58.7111" style="stroke:#000000;stroke-width:1.0499999999999998;" width="227.15" x="150.15" y="154.2502"/><rect fill="none" height="35.4074" style="stroke:#000000;stroke-width:1.0499999999999998;" width="213.15" x="157.15" y="172.6539"/><line style="stroke:#181818;stroke-width:0.3499999999999999;stroke-dasharray:5.0,5.0;" x1="187.25" x2="187.25" y1="40.0695" y2="278.4687"/><line style="stroke:#181818;stroke-width:0.3499999999999999;stroke-dasharray:5.0,5.0;" x1="310.8" x2="310.8" y1="116.1617" y2="278.4687"/><rect fill="#E3E3E3" height="35.8695" rx="1.75" ry="1.75" style="stroke:#181818;stroke-width:0.3499999999999999;" width="46.9" x="164.15" y="3.5"/><text fill="#000000" font-family="sans-serif" font-size="9.8" lengthAdjust="spacing" textLength="33.6" x="170.8" y="18.9752">agenda</text><text fill="#000000" font-family="sans-serif" font-size="9.8" lengthAdjust="spacing" textLength="37.1" x="169.05" y="32.01">:Agenda</text><rect fill="#E3E3E3" height="35.8695" rx="1.75" ry="1.75" style="stroke:#181818;stroke-width:0.3499999999999999;" width="46.9" x="164.15" y="277.7687"/><text fill="#000000" font-family="sans-serif" font-size="9.8" lengthAdjust="spacing" textLength="33.6" x="170.8" y="293.2439">agenda</text><text fill="#000000" font-family="sans-serif" font-size="9.8" lengthAdjust="spacing" textLength="37.1" x="169.05" y="306.2787">:Agenda</text><rect fill="#E3E3E3" height="35.8695" rx="1.75" ry="1.75" style="stroke:#181818;stroke-width:0.3499999999999999;" width="104.3" x="259" y="277.7687"/><text fill="#000000" font-family="sans-serif" font-size="9.8" lengthAdjust="spacing" textLength="64.4" x="278.95" y="293.2439">agendaEntries</text><text fill="#000000" font-family="sans-serif" font-size="9.8" lengthAdjust="spacing" textLength="94.5" x="263.9" y="306.2787">:List&lt;AgendaEntries&gt;</text><rect fill="#FFFFFF" height="202.4955" style="stroke:#181818;stroke-width:0.6999999999999998;" width="7" x="184.1" y="63.3732"/><rect fill="#FFFFFF" height="36.6037" style="stroke:#181818;stroke-width:0.6999999999999998;" width="7" x="307.65" y="202.4613"/><polygon fill="#181818" points="175.7,60.5732,182.7,63.3732,175.7,66.1732,178.5,63.3732" style="stroke:#181818;stroke-width:0.6999999999999998;"/><line style="stroke:#181818;stroke-width:0.6999999999999998;" x1="0" x2="179.9" y1="63.3732" y2="63.3732"/><text fill="#000000" font-family="sans-serif" font-size="9.1" font-weight="bold" lengthAdjust="spacing" textLength="9.8" x="4.9" y="59.6894">30</text><text fill="#000000" font-family="sans-serif" font-size="9.1" lengthAdjust="spacing" textLength="158.2" x="17.5" y="59.6894">getCollaboratorAgendaEntries(taskList)</text><path d="M136.15,73.8732 L224.35,73.8732 L224.35,80.377 L217.35,87.377 L136.15,87.377 L136.15,73.8732 " fill="#EEEEEE" style="stroke:#000000;stroke-width:1.0499999999999998;"/><rect fill="none" height="170.7918" style="stroke:#000000;stroke-width:1.0499999999999998;" width="255.15" x="136.15" y="73.8732"/><text fill="#000000" font-family="sans-serif" font-size="9.1" font-weight="bold" lengthAdjust="spacing" textLength="56.7" x="146.65" y="84.3931">Get Task List</text><polygon fill="#181818" points="250.6,100.8807,257.6,103.6807,250.6,106.4807,253.4,103.6807" style="stroke:#181818;stroke-width:0.6999999999999998;"/><line style="stroke:#181818;stroke-width:0.6999999999999998;stroke-dasharray:2.0,2.0;" x1="191.1" x2="254.8" y1="103.6807" y2="103.6807"/><text fill="#000000" font-family="sans-serif" font-size="9.1" font-weight="bold" lengthAdjust="spacing" textLength="17.5" x="196" y="99.9968">30.1</text><text fill="#000000" font-family="sans-serif" font-size="9.1" lengthAdjust="spacing" textLength="30.8" x="216.3" y="99.9968">create()</text><rect fill="#E3E3E3" height="35.8695" rx="1.75" ry="1.75" style="stroke:#181818;stroke-width:0.3499999999999999;" width="104.3" x="259" y="87.377"/><text fill="#000000" font-family="sans-serif" font-size="9.8" lengthAdjust="spacing" textLength="64.4" x="278.95" y="102.8521">agendaEntries</text><text fill="#000000" font-family="sans-serif" font-size="9.8" lengthAdjust="spacing" textLength="94.5" x="263.9" y="115.8869">:List&lt;AgendaEntries&gt;</text><path d="M143.15,135.8465 L194.25,135.8465 L194.25,142.3502 L187.25,149.3502 L143.15,149.3502 L143.15,135.8465 " fill="#EEEEEE" style="stroke:#000000;stroke-width:1.0499999999999998;"/><rect fill="none" height="82.0148" style="stroke:#000000;stroke-width:1.0499999999999998;" width="241.15" x="143.15" y="135.8465"/><text fill="#000000" font-family="sans-serif" font-size="9.1" font-weight="bold" lengthAdjust="spacing" textLength="19.6" x="153.65" y="146.3663">loop</text><text fill="#000000" font-family="sans-serif" font-size="7.7" font-weight="bold" lengthAdjust="spacing" textLength="56" x="204.75" y="145.5556">[for each task]</text><path d="M150.15,154.2502 L201.25,154.2502 L201.25,160.7539 L194.25,167.7539 L150.15,167.7539 L150.15,154.2502 " fill="#EEEEEE" style="stroke:#000000;stroke-width:1.0499999999999998;"/><rect fill="none" height="58.7111" style="stroke:#000000;stroke-width:1.0499999999999998;" width="227.15" x="150.15" y="154.2502"/><text fill="#000000" font-family="sans-serif" font-size="9.1" font-weight="bold" lengthAdjust="spacing" textLength="19.6" x="160.65" y="164.77">loop</text><text fill="#000000" font-family="sans-serif" font-size="7.7" font-weight="bold" lengthAdjust="spacing" textLength="86.8" x="211.75" y="163.9593">[for each agendaEntry]</text><path d="M157.15,172.6539 L202.65,172.6539 L202.65,179.1576 L195.65,186.1576 L157.15,186.1576 L157.15,172.6539 " fill="#EEEEEE" style="stroke:#000000;stroke-width:1.0499999999999998;"/><rect fill="none" height="35.4074" style="stroke:#000000;stroke-width:1.0499999999999998;" width="213.15" x="157.15" y="172.6539"/><text fill="#000000" font-family="sans-serif" font-size="9.1" font-weight="bold" lengthAdjust="spacing" textLength="14" x="167.65" y="183.1737">opt</text><text fill="#000000" font-family="sans-serif" font-size="7.7" font-weight="bold" lengthAdjust="spacing" textLength="127.4" x="213.15" y="182.363">[(agendaEntry.getTask() == task)]</text><polygon fill="#181818" points="299.25,199.6613,306.25,202.4613,299.25,205.2613,302.05,202.4613" style="stroke:#181818;stroke-width:0.6999999999999998;"/><line style="stroke:#181818;stroke-width:0.6999999999999998;" x1="191.1" x2="303.45" y1="202.4613" y2="202.4613"/><text fill="#000000" font-family="sans-serif" font-size="9.1" font-weight="bold" lengthAdjust="spacing" textLength="17.5" x="196" y="198.7774">30.2</text><text fill="#000000" font-family="sans-serif" font-size="9.1" lengthAdjust="spacing" textLength="71.4" x="216.3" y="198.7774">add(agendaEntry)</text><polygon fill="#181818" points="198.8,236.265,191.8,239.065,198.8,241.865,196,239.065" style="stroke:#181818;stroke-width:0.6999999999999998;"/><line style="stroke:#181818;stroke-width:0.6999999999999998;stroke-dasharray:2.0,2.0;" x1="194.6" x2="310.45" y1="239.065" y2="239.065"/><text fill="#000000" font-family="sans-serif" font-size="9.1" font-weight="bold" lengthAdjust="spacing" textLength="17.5" x="203" y="235.3812">30.3</text><text fill="#000000" font-family="sans-serif" font-size="9.1" lengthAdjust="spacing" textLength="40.6" x="223.3" y="235.3812">listEntries</text><polygon fill="#181818" points="7.7,263.0687,0.7,265.8687,7.7,268.6687,4.9,265.8687" style="stroke:#181818;stroke-width:0.6999999999999998;"/><line style="stroke:#181818;stroke-width:0.6999999999999998;stroke-dasharray:2.0,2.0;" x1="3.5" x2="186.9" y1="265.8687" y2="265.8687"/><text fill="#000000" font-family="sans-serif" font-size="9.1" font-weight="bold" lengthAdjust="spacing" textLength="9.8" x="11.9" y="262.1849">31</text><text fill="#000000" font-family="sans-serif" font-size="9.1" lengthAdjust="spacing" textLength="40.6" x="24.5" y="262.1849">listEntries</text><!--SRC=[ZL9DRy8m3BtdLrXSLf2AXdP33AdQAZHfuZ0uxcBQq4QqSPMus_ZtIr1XAL_QErNkUy_FTknEwGODrb2JfgmqL4jWqqfXJtyQp7POo1NlAmb6Peowg4A2BJ6dRwKBs69bfH3OCkcstaWZn4EfSWbR8jxGZn1EmIfJ3Mg6WNFLENxgQNBu601QI1RfyZMvnair6oMjexyhoxCaBCu3RRfSVxobAn7cWAT78I2UTnIOGY7vXQeADsIGoVJS8aQxyqs6VOlnH636wWjP7dE2Gs6eRM0X6TPE1rxecaE0hcjy2j1b78rSain8PnWDUmgFYgXncpCWCIl1PxgWNDB-ThM_olQWXY4AY6Et31yz6iBpyw7HyAOs7ETi6ZSBvdbeVD_6usoVnzlTeZjdyT_wUQsVDGuVG-LErjs-9ydbdNpUFtmU4p6Bu-kU5pw_]--></g></svg>