<?xml version="1.0" encoding="us-ascii" standalone="no"?><svg xmlns="http://www.w3.org/2000/svg" xmlns:xlink="http://www.w3.org/1999/xlink" contentStyleType="text/css" height="468px" preserveAspectRatio="none" style="width:1017px;height:468px;background:#FFFFFF;" version="1.1" viewBox="0 0 1017 468" width="1017px" zoomAndPan="magnify"><defs/><g><rect fill="#FFFFFF" height="303.541" style="stroke:#181818;stroke-width:1.0;" width="10" x="443" y="90.5332"/><rect fill="#FFFFFF" height="52.291" style="stroke:#181818;stroke-width:1.0;" width="10" x="619.5" y="303.4922"/><rect fill="none" height="258.25" style="stroke:#000000;stroke-width:1.5;" width="637" x="374.5" y="105.5332"/><rect fill="none" height="131.4258" style="stroke:#000000;stroke-width:1.5;" width="617" x="384.5" y="194.0664"/><rect fill="none" height="98.1348" style="stroke:#000000;stroke-width:1.5;" width="597" x="394.5" y="220.3574"/><rect fill="none" height="64.8438" style="stroke:#000000;stroke-width:1.5;" width="577" x="404.5" y="246.6484"/><line style="stroke:#181818;stroke-width:0.5;stroke-dasharray:5.0,5.0;" x1="447.5" x2="447.5" y1="57.2422" y2="412.0742"/><line style="stroke:#181818;stroke-width:0.5;stroke-dasharray:5.0,5.0;" x1="624" x2="624" y1="165.9453" y2="412.0742"/><rect fill="#E3E3E3" height="51.2422" rx="2.5" ry="2.5" style="stroke:#181818;stroke-width:0.5;" width="67" x="414.5" y="5"/><text fill="#000000" font-family="sans-serif" font-size="14" lengthAdjust="spacing" textLength="48" x="424" y="27.1074">agenda</text><text fill="#000000" font-family="sans-serif" font-size="14" lengthAdjust="spacing" textLength="53" x="421.5" y="45.7285">:Agenda</text><rect fill="#E3E3E3" height="51.2422" rx="2.5" ry="2.5" style="stroke:#181818;stroke-width:0.5;" width="67" x="414.5" y="411.0742"/><text fill="#000000" font-family="sans-serif" font-size="14" lengthAdjust="spacing" textLength="48" x="424" y="433.1816">agenda</text><text fill="#000000" font-family="sans-serif" font-size="14" lengthAdjust="spacing" textLength="53" x="421.5" y="451.8027">:Agenda</text><rect fill="#E3E3E3" height="51.2422" rx="2.5" ry="2.5" style="stroke:#181818;stroke-width:0.5;" width="149" x="550" y="411.0742"/><text fill="#000000" font-family="sans-serif" font-size="14" lengthAdjust="spacing" textLength="92" x="578.5" y="433.1816">agendaEntries</text><text fill="#000000" font-family="sans-serif" font-size="14" lengthAdjust="spacing" textLength="135" x="557" y="451.8027">:List&lt;AgendaEntries&gt;</text><rect fill="#FFFFFF" height="303.541" style="stroke:#181818;stroke-width:1.0;" width="10" x="443" y="90.5332"/><rect fill="#FFFFFF" height="52.291" style="stroke:#181818;stroke-width:1.0;" width="10" x="619.5" y="303.4922"/><polygon fill="#181818" points="431,86.5332,441,90.5332,431,94.5332,435,90.5332" style="stroke:#181818;stroke-width:1.0;"/><line style="stroke:#181818;stroke-width:1.0;" x1="0" x2="437" y1="90.5332" y2="90.5332"/><text fill="#000000" font-family="sans-serif" font-size="13" font-weight="bold" lengthAdjust="spacing" textLength="14" x="7" y="85.2705">30</text><text fill="#000000" font-family="sans-serif" font-size="13" lengthAdjust="spacing" textLength="406" x="25" y="85.2705">getCollaboratorAgendaEntries(teamList,startDate,endDate,typeStatus)</text><path d="M374.5,105.5332 L503.5,105.5332 L503.5,114.8242 L493.5,124.8242 L374.5,124.8242 L374.5,105.5332 " fill="#EEEEEE" style="stroke:#000000;stroke-width:1.5;"/><rect fill="none" height="258.25" style="stroke:#000000;stroke-width:1.5;" width="637" x="374.5" y="105.5332"/><text fill="#000000" font-family="sans-serif" font-size="13" font-weight="bold" lengthAdjust="spacing" textLength="84" x="389.5" y="120.5615">Get Entry List</text><polygon fill="#181818" points="538,144.1152,548,148.1152,538,152.1152,542,148.1152" style="stroke:#181818;stroke-width:1.0;"/><line style="stroke:#181818;stroke-width:1.0;stroke-dasharray:2.0,2.0;" x1="453" x2="544" y1="148.1152" y2="148.1152"/><text fill="#000000" font-family="sans-serif" font-size="13" font-weight="bold" lengthAdjust="spacing" textLength="25" x="460" y="142.8525">30.1</text><text fill="#000000" font-family="sans-serif" font-size="13" lengthAdjust="spacing" textLength="44" x="489" y="142.8525">create()</text><rect fill="#E3E3E3" height="51.2422" rx="2.5" ry="2.5" style="stroke:#181818;stroke-width:0.5;" width="149" x="550" y="124.8242"/><text fill="#000000" font-family="sans-serif" font-size="14" lengthAdjust="spacing" textLength="92" x="578.5" y="146.9316">agendaEntries</text><text fill="#000000" font-family="sans-serif" font-size="14" lengthAdjust="spacing" textLength="135" x="557" y="165.5527">:List&lt;AgendaEntries&gt;</text><path d="M384.5,194.0664 L457.5,194.0664 L457.5,203.3574 L447.5,213.3574 L384.5,213.3574 L384.5,194.0664 " fill="#EEEEEE" style="stroke:#000000;stroke-width:1.5;"/><rect fill="none" height="131.4258" style="stroke:#000000;stroke-width:1.5;" width="617" x="384.5" y="194.0664"/><text fill="#000000" font-family="sans-serif" font-size="13" font-weight="bold" lengthAdjust="spacing" textLength="28" x="399.5" y="209.0947">loop</text><text fill="#000000" font-family="sans-serif" font-size="11" font-weight="bold" lengthAdjust="spacing" textLength="149" x="472.5" y="207.9365">[for each team in teamList]</text><path d="M394.5,220.3574 L467.5,220.3574 L467.5,229.6484 L457.5,239.6484 L394.5,239.6484 L394.5,220.3574 " fill="#EEEEEE" style="stroke:#000000;stroke-width:1.5;"/><rect fill="none" height="98.1348" style="stroke:#000000;stroke-width:1.5;" width="597" x="394.5" y="220.3574"/><text fill="#000000" font-family="sans-serif" font-size="13" font-weight="bold" lengthAdjust="spacing" textLength="28" x="409.5" y="235.3857">loop</text><text fill="#000000" font-family="sans-serif" font-size="11" font-weight="bold" lengthAdjust="spacing" textLength="124" x="482.5" y="234.2275">[for each agendaEntry]</text><path d="M404.5,246.6484 L469.5,246.6484 L469.5,255.9395 L459.5,265.9395 L404.5,265.9395 L404.5,246.6484 " fill="#EEEEEE" style="stroke:#000000;stroke-width:1.5;"/><rect fill="none" height="64.8438" style="stroke:#000000;stroke-width:1.5;" width="577" x="404.5" y="246.6484"/><text fill="#000000" font-family="sans-serif" font-size="13" font-weight="bold" lengthAdjust="spacing" textLength="20" x="419.5" y="261.6768">opt</text><text fill="#000000" font-family="sans-serif" font-size="11" font-weight="bold" lengthAdjust="spacing" textLength="419" x="484.5" y="260.5186">[(agendaEntry.getTeam() == team &amp;&amp; agendaEntry.getStartDate() &gt;= startDate</text><text fill="#000000" font-family="sans-serif" font-size="11" font-weight="bold" lengthAdjust="spacing" textLength="489" x="487.5" y="275.1494">&amp;&amp; agendaEntry.getEndDate() &lt;= endDate &amp;&amp; agendaEntry.getTypeStatus() == typeStatus)]</text><polygon fill="#181818" points="607.5,299.4922,617.5,303.4922,607.5,307.4922,611.5,303.4922" style="stroke:#181818;stroke-width:1.0;"/><line style="stroke:#181818;stroke-width:1.0;" x1="453" x2="613.5" y1="303.4922" y2="303.4922"/><text fill="#000000" font-family="sans-serif" font-size="13" font-weight="bold" lengthAdjust="spacing" textLength="25" x="460" y="298.2295">30.2</text><text fill="#000000" font-family="sans-serif" font-size="13" lengthAdjust="spacing" textLength="102" x="489" y="298.2295">add(agendaEntry)</text><polygon fill="#181818" points="464,351.7832,454,355.7832,464,359.7832,460,355.7832" style="stroke:#181818;stroke-width:1.0;"/><line style="stroke:#181818;stroke-width:1.0;stroke-dasharray:2.0,2.0;" x1="458" x2="623.5" y1="355.7832" y2="355.7832"/><text fill="#000000" font-family="sans-serif" font-size="13" font-weight="bold" lengthAdjust="spacing" textLength="25" x="470" y="350.5205">30.3</text><text fill="#000000" font-family="sans-serif" font-size="13" lengthAdjust="spacing" textLength="94" x="499" y="350.5205">agendaEntryList</text><polygon fill="#181818" points="11,390.0742,1,394.0742,11,398.0742,7,394.0742" style="stroke:#181818;stroke-width:1.0;"/><line style="stroke:#181818;stroke-width:1.0;stroke-dasharray:2.0,2.0;" x1="5" x2="447" y1="394.0742" y2="394.0742"/><text fill="#000000" font-family="sans-serif" font-size="13" font-weight="bold" lengthAdjust="spacing" textLength="14" x="17" y="388.8115">31</text><text fill="#000000" font-family="sans-serif" font-size="13" lengthAdjust="spacing" textLength="94" x="35" y="388.8115">agendaEntryList</text><!--SRC=[ZP8nRy8m48Lt_ueJ0mL4K56t2f1GYL2bYg4miXo92HQ97TcNjlpxNY2X1WBgBOdixzuzFzljbSxHOWQPqIRQMPD985j8uSuxEKPxJEII3ga4AoD2dQG-u7OOcs-b4zXYwgGGM93HHRQHLeYddOebR8sXZVaHWZj8HIf7JT1YLHtZMhzEZpyjG0VJURYOJPkuK9DLqZ7-eHoDflxYnEiD5wlFzt0fV1_myYm419CAWLT89BsPDCMDiKZ6NgXrI69M3kaxOXyp9DddxUEN3Zb7WLIuxgN-O2Wm8lN5K7q8u4giANAOIu9I_02bB5i3hofFmTbUTO9UZtr6Lh9YftlHKLPgJCwvMf0OxQ1q34f3xVm6lstvI_NGI9TbSeAE1muujXMFw7HXF3uDRRVX2bZMeJ4r6SCvGrZh1Zey1SliQ0nLoWtOwfnxDTkx1tXGTRXNsNAo6CV-qHxBb7LrlVKxkuUpilZl-lNQfTV0VxYUvPkBZkK3Z-KC_yKEnIW8xklUQFq2]--></g></svg>