<?xml version="1.0" encoding="us-ascii" standalone="no"?><svg xmlns="http://www.w3.org/2000/svg" xmlns:xlink="http://www.w3.org/1999/xlink" contentStyleType="text/css" height="669px" preserveAspectRatio="none" style="width:1302px;height:669px;background:#FFFFFF;" version="1.1" viewBox="0 0 1302 669" width="1302px" zoomAndPan="magnify"><defs/><g><!--class ListTaskSpaceUI--><g id="elem_ListTaskSpaceUI"><rect codeLine="6" fill="#F1F1F1" height="48" id="ListTaskSpaceUI" rx="2.5" ry="2.5" style="stroke:#181818;stroke-width:0.5;" width="137" x="341.5" y="63"/><ellipse cx="356.5" cy="79" fill="#ADD1B2" rx="11" ry="11" style="stroke:#181818;stroke-width:1.0;"/><path d="M359.2656,74.875 Q359.4219,74.6563 359.6094,74.5469 Q359.7969,74.4375 360.0156,74.4375 Q360.3906,74.4375 360.625,74.7031 Q360.8594,74.9531 360.8594,75.5625 L360.8594,77.0156 Q360.8594,77.625 360.625,77.8906 Q360.3906,78.1563 360.0156,78.1563 Q359.6719,78.1563 359.4688,77.9531 Q359.2656,77.7656 359.1563,77.25 Q359.1094,76.8906 358.9219,76.7031 Q358.5938,76.3281 357.9844,76.1094 Q357.375,75.8906 356.75,75.8906 Q355.9844,75.8906 355.3438,76.2188 Q354.7188,76.5469 354.2188,77.2969 Q353.7344,78.0469 353.7344,79.0781 L353.7344,80.1719 Q353.7344,81.4063 354.625,82.2344 Q355.5156,83.0469 357.1094,83.0469 Q358.0469,83.0469 358.7031,82.7969 Q359.0938,82.6406 359.5156,82.2031 Q359.7813,81.9375 359.9219,81.8594 Q360.0781,81.7813 360.2813,81.7813 Q360.6094,81.7813 360.8594,82.0469 Q361.125,82.2969 361.125,82.6406 Q361.125,82.9844 360.7813,83.3906 Q360.2813,83.9688 359.4844,84.2969 Q358.4063,84.75 357.1094,84.75 Q355.5938,84.75 354.3906,84.125 Q353.4063,83.625 352.7188,82.5625 Q352.0313,81.4844 352.0313,80.2031 L352.0313,79.0469 Q352.0313,77.7188 352.6406,76.5781 Q353.2656,75.4219 354.3594,74.8125 Q355.4531,74.1875 356.6875,74.1875 Q357.4219,74.1875 358.0625,74.3594 Q358.7188,74.5156 359.2656,74.875 Z " fill="#000000"/><text fill="#000000" font-family="sans-serif" font-size="14" lengthAdjust="spacing" textLength="105" x="370.5" y="84.7969">ListTaskSpaceUI</text><line style="stroke:#181818;stroke-width:0.5;" x1="342.5" x2="477.5" y1="95" y2="95"/><line style="stroke:#181818;stroke-width:0.5;" x1="342.5" x2="477.5" y1="103" y2="103"/></g><!--class TaskMapper--><g id="elem_TaskMapper"><rect codeLine="9" fill="#F1F1F1" height="103.8633" id="TaskMapper" rx="2.5" ry="2.5" style="stroke:#181818;stroke-width:0.5;" width="138" x="919" y="35"/><ellipse cx="946.15" cy="51" fill="#ADD1B2" rx="11" ry="11" style="stroke:#181818;stroke-width:1.0;"/><path d="M948.9156,46.875 Q949.0719,46.6563 949.2594,46.5469 Q949.4469,46.4375 949.6656,46.4375 Q950.0406,46.4375 950.275,46.7031 Q950.5094,46.9531 950.5094,47.5625 L950.5094,49.0156 Q950.5094,49.625 950.275,49.8906 Q950.0406,50.1563 949.6656,50.1563 Q949.3219,50.1563 949.1188,49.9531 Q948.9156,49.7656 948.8063,49.25 Q948.7594,48.8906 948.5719,48.7031 Q948.2438,48.3281 947.6344,48.1094 Q947.025,47.8906 946.4,47.8906 Q945.6344,47.8906 944.9938,48.2188 Q944.3688,48.5469 943.8688,49.2969 Q943.3844,50.0469 943.3844,51.0781 L943.3844,52.1719 Q943.3844,53.4063 944.275,54.2344 Q945.1656,55.0469 946.7594,55.0469 Q947.6969,55.0469 948.3531,54.7969 Q948.7438,54.6406 949.1656,54.2031 Q949.4313,53.9375 949.5719,53.8594 Q949.7281,53.7813 949.9313,53.7813 Q950.2594,53.7813 950.5094,54.0469 Q950.775,54.2969 950.775,54.6406 Q950.775,54.9844 950.4313,55.3906 Q949.9313,55.9688 949.1344,56.2969 Q948.0563,56.75 946.7594,56.75 Q945.2438,56.75 944.0406,56.125 Q943.0563,55.625 942.3688,54.5625 Q941.6813,53.4844 941.6813,52.2031 L941.6813,51.0469 Q941.6813,49.7188 942.2906,48.5781 Q942.9156,47.4219 944.0094,46.8125 Q945.1031,46.1875 946.3375,46.1875 Q947.0719,46.1875 947.7125,46.3594 Q948.3688,46.5156 948.9156,46.875 Z " fill="#000000"/><text fill="#000000" font-family="sans-serif" font-size="14" lengthAdjust="spacing" textLength="79" x="962.85" y="56.7969">TaskMapper</text><line style="stroke:#181818;stroke-width:0.5;" x1="920" x2="1056" y1="67" y2="67"/><text fill="#000000" font-family="sans-serif" font-size="14" lengthAdjust="spacing" textLength="126" x="925" y="86.1074">-List&lt;Task&gt; taskList</text><line style="stroke:#181818;stroke-width:0.5;" x1="920" x2="1056" y1="93.6211" y2="93.6211"/><text fill="#000000" font-family="sans-serif" font-size="14" lengthAdjust="spacing" textLength="100" x="925" y="112.7285">+toDto(taskList)</text><text fill="#000000" font-family="sans-serif" font-size="14" lengthAdjust="spacing" textLength="99" x="925" y="131.3496">+addTask(task)</text></g><!--class TaskDto--><g id="elem_TaskDto"><rect codeLine="15" fill="#F1F1F1" height="159.7266" id="TaskDto" rx="2.5" ry="2.5" style="stroke:#181818;stroke-width:0.5;" width="176" x="1119" y="7"/><ellipse cx="1176.25" cy="23" fill="#ADD1B2" rx="11" ry="11" style="stroke:#181818;stroke-width:1.0;"/><path d="M1179.0156,18.875 Q1179.1719,18.6563 1179.3594,18.5469 Q1179.5469,18.4375 1179.7656,18.4375 Q1180.1406,18.4375 1180.375,18.7031 Q1180.6094,18.9531 1180.6094,19.5625 L1180.6094,21.0156 Q1180.6094,21.625 1180.375,21.8906 Q1180.1406,22.1563 1179.7656,22.1563 Q1179.4219,22.1563 1179.2188,21.9531 Q1179.0156,21.7656 1178.9063,21.25 Q1178.8594,20.8906 1178.6719,20.7031 Q1178.3438,20.3281 1177.7344,20.1094 Q1177.125,19.8906 1176.5,19.8906 Q1175.7344,19.8906 1175.0938,20.2188 Q1174.4688,20.5469 1173.9688,21.2969 Q1173.4844,22.0469 1173.4844,23.0781 L1173.4844,24.1719 Q1173.4844,25.4063 1174.375,26.2344 Q1175.2656,27.0469 1176.8594,27.0469 Q1177.7969,27.0469 1178.4531,26.7969 Q1178.8438,26.6406 1179.2656,26.2031 Q1179.5313,25.9375 1179.6719,25.8594 Q1179.8281,25.7813 1180.0313,25.7813 Q1180.3594,25.7813 1180.6094,26.0469 Q1180.875,26.2969 1180.875,26.6406 Q1180.875,26.9844 1180.5313,27.3906 Q1180.0313,27.9688 1179.2344,28.2969 Q1178.1563,28.75 1176.8594,28.75 Q1175.3438,28.75 1174.1406,28.125 Q1173.1563,27.625 1172.4688,26.5625 Q1171.7813,25.4844 1171.7813,24.2031 L1171.7813,23.0469 Q1171.7813,21.7188 1172.3906,20.5781 Q1173.0156,19.4219 1174.1094,18.8125 Q1175.2031,18.1875 1176.4375,18.1875 Q1177.1719,18.1875 1177.8125,18.3594 Q1178.4688,18.5156 1179.0156,18.875 Z " fill="#000000"/><text fill="#000000" font-family="sans-serif" font-size="14" lengthAdjust="spacing" textLength="53" x="1196.75" y="28.7969">TaskDto</text><line style="stroke:#181818;stroke-width:0.5;" x1="1120" x2="1294" y1="39" y2="39"/><text fill="#000000" font-family="sans-serif" font-size="14" lengthAdjust="spacing" textLength="76" x="1125" y="58.1074">-Team team</text><text fill="#000000" font-family="sans-serif" font-size="14" lengthAdjust="spacing" textLength="164" x="1125" y="76.7285">-List&lt;vehicleList&gt; vehicles</text><text fill="#000000" font-family="sans-serif" font-size="14" lengthAdjust="spacing" textLength="70" x="1125" y="95.3496">-Date dateI</text><text fill="#000000" font-family="sans-serif" font-size="14" lengthAdjust="spacing" textLength="76" x="1125" y="113.9707">-Date dateF</text><text fill="#000000" font-family="sans-serif" font-size="14" lengthAdjust="spacing" textLength="84" x="1125" y="132.5918">-String status</text><line style="stroke:#181818;stroke-width:0.5;" x1="1120" x2="1294" y1="140.1055" y2="140.1055"/><text fill="#000000" font-family="sans-serif" font-size="14" lengthAdjust="spacing" textLength="89" x="1125" y="159.2129">TaskDto(task)</text></g><!--class ListTaskController--><g id="elem_ListTaskController"><rect codeLine="24" fill="#F1F1F1" height="141.1055" id="ListTaskController" rx="2.5" ry="2.5" style="stroke:#181818;stroke-width:0.5;" width="322" x="514" y="16.5"/><ellipse cx="613.25" cy="32.5" fill="#ADD1B2" rx="11" ry="11" style="stroke:#181818;stroke-width:1.0;"/><path d="M616.0156,28.375 Q616.1719,28.1563 616.3594,28.0469 Q616.5469,27.9375 616.7656,27.9375 Q617.1406,27.9375 617.375,28.2031 Q617.6094,28.4531 617.6094,29.0625 L617.6094,30.5156 Q617.6094,31.125 617.375,31.3906 Q617.1406,31.6563 616.7656,31.6563 Q616.4219,31.6563 616.2188,31.4531 Q616.0156,31.2656 615.9063,30.75 Q615.8594,30.3906 615.6719,30.2031 Q615.3438,29.8281 614.7344,29.6094 Q614.125,29.3906 613.5,29.3906 Q612.7344,29.3906 612.0938,29.7188 Q611.4688,30.0469 610.9688,30.7969 Q610.4844,31.5469 610.4844,32.5781 L610.4844,33.6719 Q610.4844,34.9063 611.375,35.7344 Q612.2656,36.5469 613.8594,36.5469 Q614.7969,36.5469 615.4531,36.2969 Q615.8438,36.1406 616.2656,35.7031 Q616.5313,35.4375 616.6719,35.3594 Q616.8281,35.2813 617.0313,35.2813 Q617.3594,35.2813 617.6094,35.5469 Q617.875,35.7969 617.875,36.1406 Q617.875,36.4844 617.5313,36.8906 Q617.0313,37.4688 616.2344,37.7969 Q615.1563,38.25 613.8594,38.25 Q612.3438,38.25 611.1406,37.625 Q610.1563,37.125 609.4688,36.0625 Q608.7813,34.9844 608.7813,33.7031 L608.7813,32.5469 Q608.7813,31.2188 609.3906,30.0781 Q610.0156,28.9219 611.1094,28.3125 Q612.2031,27.6875 613.4375,27.6875 Q614.1719,27.6875 614.8125,27.8594 Q615.4688,28.0156 616.0156,28.375 Z " fill="#000000"/><text fill="#000000" font-family="sans-serif" font-size="14" lengthAdjust="spacing" textLength="115" x="633.75" y="38.2969">ListTaskController</text><line style="stroke:#181818;stroke-width:0.5;" x1="515" x2="835" y1="48.5" y2="48.5"/><line style="stroke:#181818;stroke-width:0.5;" x1="515" x2="835" y1="56.5" y2="56.5"/><text fill="#000000" font-family="sans-serif" font-size="14" lengthAdjust="spacing" textLength="176" x="520" y="75.6074">+checkIfIDIsValid(idNumber)</text><text fill="#000000" font-family="sans-serif" font-size="14" lengthAdjust="spacing" textLength="216" x="520" y="94.2285">+saveDatesSelected(dateI, dateF)</text><text fill="#000000" font-family="sans-serif" font-size="14" lengthAdjust="spacing" textLength="100" x="520" y="112.8496">+getStatusList()</text><text fill="#000000" font-family="sans-serif" font-size="14" lengthAdjust="spacing" textLength="310" x="520" y="131.4707">+getTaskList(idNumber, dateI, dateF, typeStatus)</text><text fill="#000000" font-family="sans-serif" font-size="14" lengthAdjust="spacing" textLength="100" x="520" y="150.0918">+toDto(taskList)</text></g><!--class TaskRepository--><g id="elem_TaskRepository"><rect codeLine="32" fill="#F1F1F1" height="122.4844" id="TaskRepository" rx="2.5" ry="2.5" style="stroke:#181818;stroke-width:0.5;" width="322" x="7" y="494"/><ellipse cx="114.25" cy="510" fill="#ADD1B2" rx="11" ry="11" style="stroke:#181818;stroke-width:1.0;"/><path d="M117.0156,505.875 Q117.1719,505.6563 117.3594,505.5469 Q117.5469,505.4375 117.7656,505.4375 Q118.1406,505.4375 118.375,505.7031 Q118.6094,505.9531 118.6094,506.5625 L118.6094,508.0156 Q118.6094,508.625 118.375,508.8906 Q118.1406,509.1563 117.7656,509.1563 Q117.4219,509.1563 117.2188,508.9531 Q117.0156,508.7656 116.9063,508.25 Q116.8594,507.8906 116.6719,507.7031 Q116.3438,507.3281 115.7344,507.1094 Q115.125,506.8906 114.5,506.8906 Q113.7344,506.8906 113.0938,507.2188 Q112.4688,507.5469 111.9688,508.2969 Q111.4844,509.0469 111.4844,510.0781 L111.4844,511.1719 Q111.4844,512.4063 112.375,513.2344 Q113.2656,514.0469 114.8594,514.0469 Q115.7969,514.0469 116.4531,513.7969 Q116.8438,513.6406 117.2656,513.2031 Q117.5313,512.9375 117.6719,512.8594 Q117.8281,512.7813 118.0313,512.7813 Q118.3594,512.7813 118.6094,513.0469 Q118.875,513.2969 118.875,513.6406 Q118.875,513.9844 118.5313,514.3906 Q118.0313,514.9688 117.2344,515.2969 Q116.1563,515.75 114.8594,515.75 Q113.3438,515.75 112.1406,515.125 Q111.1563,514.625 110.4688,513.5625 Q109.7813,512.4844 109.7813,511.2031 L109.7813,510.0469 Q109.7813,508.7188 110.3906,507.5781 Q111.0156,506.4219 112.1094,505.8125 Q113.2031,505.1875 114.4375,505.1875 Q115.1719,505.1875 115.8125,505.3594 Q116.4688,505.5156 117.0156,505.875 Z " fill="#000000"/><text fill="#000000" font-family="sans-serif" font-size="14" lengthAdjust="spacing" textLength="99" x="134.75" y="515.7969">TaskRepository</text><line style="stroke:#181818;stroke-width:0.5;" x1="8" x2="328" y1="526" y2="526"/><text fill="#000000" font-family="sans-serif" font-size="14" lengthAdjust="spacing" textLength="126" x="13" y="545.1074">-List&lt;Task&gt; taskList</text><line style="stroke:#181818;stroke-width:0.5;" x1="8" x2="328" y1="552.6211" y2="552.6211"/><text fill="#000000" font-family="sans-serif" font-size="14" lengthAdjust="spacing" textLength="100" x="13" y="571.7285">+getStatusList()</text><text fill="#000000" font-family="sans-serif" font-size="14" lengthAdjust="spacing" textLength="310" x="13" y="590.3496">+getTaskList(idNumber, dateI, dateF, typeStatus)</text><text fill="#000000" font-family="sans-serif" font-size="14" lengthAdjust="spacing" textLength="192" x="13" y="608.9707">+addTaskOfCollaborator(task)</text></g><!--class Task--><g id="elem_Task"><rect codeLine="39" fill="#F1F1F1" height="215.5898" id="Task" rx="2.5" ry="2.5" style="stroke:#181818;stroke-width:0.5;" width="171" x="386.5" y="447"/><ellipse cx="452.25" cy="463" fill="#ADD1B2" rx="11" ry="11" style="stroke:#181818;stroke-width:1.0;"/><path d="M455.0156,458.875 Q455.1719,458.6563 455.3594,458.5469 Q455.5469,458.4375 455.7656,458.4375 Q456.1406,458.4375 456.375,458.7031 Q456.6094,458.9531 456.6094,459.5625 L456.6094,461.0156 Q456.6094,461.625 456.375,461.8906 Q456.1406,462.1563 455.7656,462.1563 Q455.4219,462.1563 455.2188,461.9531 Q455.0156,461.7656 454.9063,461.25 Q454.8594,460.8906 454.6719,460.7031 Q454.3438,460.3281 453.7344,460.1094 Q453.125,459.8906 452.5,459.8906 Q451.7344,459.8906 451.0938,460.2188 Q450.4688,460.5469 449.9688,461.2969 Q449.4844,462.0469 449.4844,463.0781 L449.4844,464.1719 Q449.4844,465.4063 450.375,466.2344 Q451.2656,467.0469 452.8594,467.0469 Q453.7969,467.0469 454.4531,466.7969 Q454.8438,466.6406 455.2656,466.2031 Q455.5313,465.9375 455.6719,465.8594 Q455.8281,465.7813 456.0313,465.7813 Q456.3594,465.7813 456.6094,466.0469 Q456.875,466.2969 456.875,466.6406 Q456.875,466.9844 456.5313,467.3906 Q456.0313,467.9688 455.2344,468.2969 Q454.1563,468.75 452.8594,468.75 Q451.3438,468.75 450.1406,468.125 Q449.1563,467.625 448.4688,466.5625 Q447.7813,465.4844 447.7813,464.2031 L447.7813,463.0469 Q447.7813,461.7188 448.3906,460.5781 Q449.0156,459.4219 450.1094,458.8125 Q451.2031,458.1875 452.4375,458.1875 Q453.1719,458.1875 453.8125,458.3594 Q454.4688,458.5156 455.0156,458.875 Z " fill="#000000"/><text fill="#000000" font-family="sans-serif" font-size="14" lengthAdjust="spacing" textLength="31" x="472.75" y="468.7969">Task</text><line style="stroke:#181818;stroke-width:0.5;" x1="387.5" x2="556.5" y1="479" y2="479"/><text fill="#000000" font-family="sans-serif" font-size="14" lengthAdjust="spacing" textLength="76" x="392.5" y="498.1074">-Team team</text><text fill="#000000" font-family="sans-serif" font-size="14" lengthAdjust="spacing" textLength="159" x="392.5" y="516.7285">-List&lt;Vehicle&gt; vehicleList</text><text fill="#000000" font-family="sans-serif" font-size="14" lengthAdjust="spacing" textLength="70" x="392.5" y="535.3496">-Date dateI</text><text fill="#000000" font-family="sans-serif" font-size="14" lengthAdjust="spacing" textLength="76" x="392.5" y="553.9707">-Date dateF</text><text fill="#000000" font-family="sans-serif" font-size="14" lengthAdjust="spacing" textLength="84" x="392.5" y="572.5918">-String status</text><line style="stroke:#181818;stroke-width:0.5;" x1="387.5" x2="556.5" y1="580.1055" y2="580.1055"/><text fill="#000000" font-family="sans-serif" font-size="14" lengthAdjust="spacing" textLength="78" x="392.5" y="599.2129">+getStatus()</text><text fill="#000000" font-family="sans-serif" font-size="14" lengthAdjust="spacing" textLength="98" x="392.5" y="617.834">+getIdNumber()</text><text fill="#000000" font-family="sans-serif" font-size="14" lengthAdjust="spacing" textLength="71" x="392.5" y="636.4551">+getDateI()</text><text fill="#000000" font-family="sans-serif" font-size="14" lengthAdjust="spacing" textLength="77" x="392.5" y="655.0762">+getDateF()</text></g><!--class CollaboratorRepository--><g id="elem_CollaboratorRepository"><rect codeLine="51" fill="#F1F1F1" height="66.6211" id="CollaboratorRepository" rx="2.5" ry="2.5" style="stroke:#181818;stroke-width:0.5;" width="188" x="636" y="521.5"/><ellipse cx="655.5" cy="537.5" fill="#ADD1B2" rx="11" ry="11" style="stroke:#181818;stroke-width:1.0;"/><path d="M658.2656,533.375 Q658.4219,533.1563 658.6094,533.0469 Q658.7969,532.9375 659.0156,532.9375 Q659.3906,532.9375 659.625,533.2031 Q659.8594,533.4531 659.8594,534.0625 L659.8594,535.5156 Q659.8594,536.125 659.625,536.3906 Q659.3906,536.6563 659.0156,536.6563 Q658.6719,536.6563 658.4688,536.4531 Q658.2656,536.2656 658.1563,535.75 Q658.1094,535.3906 657.9219,535.2031 Q657.5938,534.8281 656.9844,534.6094 Q656.375,534.3906 655.75,534.3906 Q654.9844,534.3906 654.3438,534.7188 Q653.7188,535.0469 653.2188,535.7969 Q652.7344,536.5469 652.7344,537.5781 L652.7344,538.6719 Q652.7344,539.9063 653.625,540.7344 Q654.5156,541.5469 656.1094,541.5469 Q657.0469,541.5469 657.7031,541.2969 Q658.0938,541.1406 658.5156,540.7031 Q658.7813,540.4375 658.9219,540.3594 Q659.0781,540.2813 659.2813,540.2813 Q659.6094,540.2813 659.8594,540.5469 Q660.125,540.7969 660.125,541.1406 Q660.125,541.4844 659.7813,541.8906 Q659.2813,542.4688 658.4844,542.7969 Q657.4063,543.25 656.1094,543.25 Q654.5938,543.25 653.3906,542.625 Q652.4063,542.125 651.7188,541.0625 Q651.0313,539.9844 651.0313,538.7031 L651.0313,537.5469 Q651.0313,536.2188 651.6406,535.0781 Q652.2656,533.9219 653.3594,533.3125 Q654.4531,532.6875 655.6875,532.6875 Q656.4219,532.6875 657.0625,532.8594 Q657.7188,533.0156 658.2656,533.375 Z " fill="#000000"/><text fill="#000000" font-family="sans-serif" font-size="14" lengthAdjust="spacing" textLength="146" x="670.5" y="543.2969">CollaboratorRepository</text><line style="stroke:#181818;stroke-width:0.5;" x1="637" x2="823" y1="553.5" y2="553.5"/><line style="stroke:#181818;stroke-width:0.5;" x1="637" x2="823" y1="561.5" y2="561.5"/><text fill="#000000" font-family="sans-serif" font-size="14" lengthAdjust="spacing" textLength="176" x="642" y="580.6074">+checkIfIDIsValid(idNumber)</text></g><!--class Repositories--><g id="elem_Repositories"><rect codeLine="55" fill="#F1F1F1" height="122.4844" id="Repositories" rx="2.5" ry="2.5" style="stroke:#181818;stroke-width:0.5;" width="350" x="270" y="246"/><ellipse cx="401.25" cy="262" fill="#ADD1B2" rx="11" ry="11" style="stroke:#181818;stroke-width:1.0;"/><path d="M404.0156,257.875 Q404.1719,257.6563 404.3594,257.5469 Q404.5469,257.4375 404.7656,257.4375 Q405.1406,257.4375 405.375,257.7031 Q405.6094,257.9531 405.6094,258.5625 L405.6094,260.0156 Q405.6094,260.625 405.375,260.8906 Q405.1406,261.1563 404.7656,261.1563 Q404.4219,261.1563 404.2188,260.9531 Q404.0156,260.7656 403.9063,260.25 Q403.8594,259.8906 403.6719,259.7031 Q403.3438,259.3281 402.7344,259.1094 Q402.125,258.8906 401.5,258.8906 Q400.7344,258.8906 400.0938,259.2188 Q399.4688,259.5469 398.9688,260.2969 Q398.4844,261.0469 398.4844,262.0781 L398.4844,263.1719 Q398.4844,264.4063 399.375,265.2344 Q400.2656,266.0469 401.8594,266.0469 Q402.7969,266.0469 403.4531,265.7969 Q403.8438,265.6406 404.2656,265.2031 Q404.5313,264.9375 404.6719,264.8594 Q404.8281,264.7813 405.0313,264.7813 Q405.3594,264.7813 405.6094,265.0469 Q405.875,265.2969 405.875,265.6406 Q405.875,265.9844 405.5313,266.3906 Q405.0313,266.9688 404.2344,267.2969 Q403.1563,267.75 401.8594,267.75 Q400.3438,267.75 399.1406,267.125 Q398.1563,266.625 397.4688,265.5625 Q396.7813,264.4844 396.7813,263.2031 L396.7813,262.0469 Q396.7813,260.7188 397.3906,259.5781 Q398.0156,258.4219 399.1094,257.8125 Q400.2031,257.1875 401.4375,257.1875 Q402.1719,257.1875 402.8125,257.3594 Q403.4688,257.5156 404.0156,257.875 Z " fill="#000000"/><text fill="#000000" font-family="sans-serif" font-size="14" lengthAdjust="spacing" textLength="79" x="421.75" y="267.7969">Repositories</text><line style="stroke:#181818;stroke-width:0.5;" x1="271" x2="619" y1="278" y2="278"/><line style="stroke:#181818;stroke-width:0.5;" x1="271" x2="619" y1="286" y2="286"/><text fill="#000000" font-family="sans-serif" font-size="14" lengthAdjust="spacing" textLength="94" x="276" y="305.1074">-Repositories()</text><text fill="#000000" font-family="sans-serif" font-size="14" lengthAdjust="spacing" textLength="178" x="276" y="323.7285">+getInstance(): Repositories</text><text fill="#000000" font-family="sans-serif" font-size="14" lengthAdjust="spacing" textLength="338" x="276" y="342.3496">+getCollaboratorRepository(): CollaboratorRepository</text><text fill="#000000" font-family="sans-serif" font-size="14" lengthAdjust="spacing" textLength="244" x="276" y="360.9707">+getTaskRepository(): TaskRepository</text></g><!--class Date--><g id="elem_Date"><rect codeLine="62" fill="#F1F1F1" height="122.4844" id="Date" rx="2.5" ry="2.5" style="stroke:#181818;stroke-width:0.5;" width="223" x="805.5" y="246"/><ellipse cx="897.75" cy="262" fill="#ADD1B2" rx="11" ry="11" style="stroke:#181818;stroke-width:1.0;"/><path d="M900.5156,257.875 Q900.6719,257.6563 900.8594,257.5469 Q901.0469,257.4375 901.2656,257.4375 Q901.6406,257.4375 901.875,257.7031 Q902.1094,257.9531 902.1094,258.5625 L902.1094,260.0156 Q902.1094,260.625 901.875,260.8906 Q901.6406,261.1563 901.2656,261.1563 Q900.9219,261.1563 900.7188,260.9531 Q900.5156,260.7656 900.4063,260.25 Q900.3594,259.8906 900.1719,259.7031 Q899.8438,259.3281 899.2344,259.1094 Q898.625,258.8906 898,258.8906 Q897.2344,258.8906 896.5938,259.2188 Q895.9688,259.5469 895.4688,260.2969 Q894.9844,261.0469 894.9844,262.0781 L894.9844,263.1719 Q894.9844,264.4063 895.875,265.2344 Q896.7656,266.0469 898.3594,266.0469 Q899.2969,266.0469 899.9531,265.7969 Q900.3438,265.6406 900.7656,265.2031 Q901.0313,264.9375 901.1719,264.8594 Q901.3281,264.7813 901.5313,264.7813 Q901.8594,264.7813 902.1094,265.0469 Q902.375,265.2969 902.375,265.6406 Q902.375,265.9844 902.0313,266.3906 Q901.5313,266.9688 900.7344,267.2969 Q899.6563,267.75 898.3594,267.75 Q896.8438,267.75 895.6406,267.125 Q894.6563,266.625 893.9688,265.5625 Q893.2813,264.4844 893.2813,263.2031 L893.2813,262.0469 Q893.2813,260.7188 893.8906,259.5781 Q894.5156,258.4219 895.6094,257.8125 Q896.7031,257.1875 897.9375,257.1875 Q898.6719,257.1875 899.3125,257.3594 Q899.9688,257.5156 900.5156,257.875 Z " fill="#000000"/><text fill="#000000" font-family="sans-serif" font-size="14" lengthAdjust="spacing" textLength="30" x="918.25" y="267.7969">Date</text><line style="stroke:#181818;stroke-width:0.5;" x1="806.5" x2="1027.5" y1="278" y2="278"/><text fill="#000000" font-family="sans-serif" font-size="14" lengthAdjust="spacing" textLength="52" x="811.5" y="297.1074">-int year</text><text fill="#000000" font-family="sans-serif" font-size="14" lengthAdjust="spacing" textLength="63" x="811.5" y="315.7285">-int month</text><text fill="#000000" font-family="sans-serif" font-size="14" lengthAdjust="spacing" textLength="47" x="811.5" y="334.3496">-int day</text><line style="stroke:#181818;stroke-width:0.5;" x1="806.5" x2="1027.5" y1="341.8633" y2="341.8633"/><text fill="#000000" font-family="sans-serif" font-size="14" lengthAdjust="spacing" textLength="211" x="811.5" y="360.9707">+Date(int year, int month, int day)</text></g><!--link ListTaskSpaceUI to ListTaskController--><g id="link_ListTaskSpaceUI_ListTaskController"><path codeLine="69" d="M478.73,87 C490.13,87 498.33,87 498.33,87 C498.33,87 498.57,87 507.72,87 " fill="none" id="ListTaskSpaceUI-to-ListTaskController" style="stroke:#181818;stroke-width:1.0;stroke-dasharray:7.0,7.0;"/><polygon fill="#181818" points="513.72,87,504.72,83,508.72,87,504.72,91,513.72,87" style="stroke:#181818;stroke-width:1.0;"/></g><!--link ListTaskController to Repositories--><g id="link_ListTaskController_Repositories"><path codeLine="70" d="M601.59,157.58 C571.62,185.99 541.645,214.4028 512.775,241.7628 " fill="none" id="ListTaskController-to-Repositories" style="stroke:#181818;stroke-width:1.0;stroke-dasharray:7.0,7.0;"/><polygon fill="#181818" points="508.42,245.89,517.704,242.6025,512.0492,242.4506,512.201,236.7958,508.42,245.89" style="stroke:#181818;stroke-width:1.0;"/><text fill="#000000" font-family="sans-serif" font-size="13" lengthAdjust="spacing" textLength="67" x="561" y="212.0283">repositories</text></g><!--link Repositories to Repositories--><g id="link_Repositories_Repositories"><path codeLine="71" d="M620.39,290.89 C641.33,293.82 655,299.19 655,307 C655,314.81 647.2721,319.3486 626.3321,322.2786 " fill="none" id="Repositories-to-Repositories" style="stroke:#181818;stroke-width:1.0;"/><polygon fill="#181818" points="620.39,323.11,629.8575,325.8242,625.3418,322.4171,628.7489,317.9014,620.39,323.11" style="stroke:#181818;stroke-width:1.0;"/><text fill="#000000" font-family="sans-serif" font-size="13" lengthAdjust="spacing" textLength="49" x="661" y="312.5283">instance</text></g><!--link ListTaskController to TaskRepository--><g id="link_ListTaskController_TaskRepository"><path codeLine="72" d="M517.24,157.63 C504.26,163.35 496,167 496,167 C496,167 163,246 163,246 C163,246 163,368 163,368 C163,368 164.7589,433.5322 166.2189,487.8722 " fill="none" id="ListTaskController-to-TaskRepository" style="stroke:#181818;stroke-width:1.0;stroke-dasharray:7.0,7.0;"/><polygon fill="#181818" points="166.38,493.87,170.1368,484.7658,166.2457,488.8718,162.1397,484.9807,166.38,493.87" style="stroke:#181818;stroke-width:1.0;"/><text fill="#000000" font-family="sans-serif" font-size="13" lengthAdjust="spacing" textLength="87" x="164" y="312.5283">taskRepository</text></g><!--link Repositories to TaskRepository--><g id="link_Repositories_TaskRepository"><path codeLine="73" d="M377.24,368.18 C334.31,406.3 283.4868,451.4464 240.5068,489.6064 " fill="none" id="Repositories-to-TaskRepository" style="stroke:#181818;stroke-width:1.0;"/><polygon fill="#181818" points="236.02,493.59,245.4059,490.6058,239.759,490.2703,240.0944,484.6234,236.02,493.59" style="stroke:#181818;stroke-width:1.0;"/><text fill="#000000" font-family="sans-serif" font-size="13" lengthAdjust="spacing" textLength="7" x="361.5552" y="390.6888">1</text><text fill="#000000" font-family="sans-serif" font-size="13" lengthAdjust="spacing" textLength="7" x="236.4801" y="482.5238">1</text></g><!--link Repositories to CollaboratorRepository--><g id="link_Repositories_CollaboratorRepository"><path codeLine="74" d="M514.72,368.18 C570.58,416.4 642.308,478.3095 687.468,517.2895 " fill="none" id="Repositories-to-CollaboratorRepository" style="stroke:#181818;stroke-width:1.0;stroke-dasharray:7.0,7.0;"/><polygon fill="#181818" points="692.01,521.21,687.8106,512.3013,688.225,517.9429,682.5833,518.3573,692.01,521.21" style="stroke:#181818;stroke-width:1.0;"/><text fill="#000000" font-family="sans-serif" font-size="13" lengthAdjust="spacing" textLength="129" x="572" y="413.0283">collaboratorRepository</text><text fill="#000000" font-family="sans-serif" font-size="13" lengthAdjust="spacing" textLength="7" x="515.7906" y="390.6888">1</text><text fill="#000000" font-family="sans-serif" font-size="13" lengthAdjust="spacing" textLength="7" x="677.101" y="510.2406">1</text></g><!--link ListTaskController to CollaboratorRepository--><g id="link_ListTaskController_CollaboratorRepository"><path codeLine="75" d="M693.1,157.76 C704.09,200.09 716,246 716,246 C716,246 724.637,436.0662 728.247,515.3362 " fill="none" id="ListTaskController-to-CollaboratorRepository" style="stroke:#181818;stroke-width:1.0;"/><polygon fill="#181818" points="728.52,521.33,732.1064,512.1573,728.2925,516.3352,724.1147,512.5213,728.52,521.33" style="stroke:#181818;stroke-width:1.0;"/><text fill="#000000" font-family="sans-serif" font-size="13" lengthAdjust="spacing" textLength="7" x="687.5372" y="179.5996">1</text><text fill="#000000" font-family="sans-serif" font-size="13" lengthAdjust="spacing" textLength="7" x="720.5396" y="510.122">1</text></g><!--reverse link TaskRepository to Task--><g id="link_TaskRepository_Task"><path codeLine="76" d="M341.35,555 C360.96,555 368.36,555 386.24,555 " fill="none" id="TaskRepository-backto-Task" style="stroke:#181818;stroke-width:1.0;"/><polygon fill="none" points="329.35,555,335.35,559,341.35,555,335.35,551,329.35,555" style="stroke:#181818;stroke-width:1.0;"/><text fill="#000000" font-family="sans-serif" font-size="13" lengthAdjust="spacing" textLength="21" x="347.25" y="548.0283">has</text><text fill="#000000" font-family="sans-serif" font-size="13" lengthAdjust="spacing" textLength="5" x="373.3793" y="551.3025">*</text></g><!--link ListTaskController to TaskMapper--><g id="link_ListTaskController_TaskMapper"><path codeLine="77" d="M836.08,87 C865.29,87 888.29,87 913,87 " fill="none" id="ListTaskController-to-TaskMapper" style="stroke:#181818;stroke-width:1.0;"/><polygon fill="#181818" points="919,87,910,83,914,87,910,91,919,87" style="stroke:#181818;stroke-width:1.0;"/><text fill="#000000" font-family="sans-serif" font-size="13" lengthAdjust="spacing" textLength="46" x="854.5" y="80.0283">taskList</text><text fill="#000000" font-family="sans-serif" font-size="13" lengthAdjust="spacing" textLength="7" x="844.0518" y="83.6211">1</text><text fill="#000000" font-family="sans-serif" font-size="13" lengthAdjust="spacing" textLength="7" x="904.0703" y="83.122">1</text></g><!--link TaskMapper to TaskDto--><g id="link_TaskMapper_TaskDto"><path codeLine="78" d="M1057.29,87 C1076.84,87 1092.38,87 1112.87,87 " fill="none" id="TaskMapper-to-TaskDto" style="stroke:#181818;stroke-width:1.0;"/><polygon fill="#181818" points="1118.87,87,1109.87,83,1113.87,87,1109.87,91,1118.87,87" style="stroke:#181818;stroke-width:1.0;"/><text fill="#000000" font-family="sans-serif" font-size="13" lengthAdjust="spacing" textLength="25" x="1075.5" y="80.0283">task</text><text fill="#000000" font-family="sans-serif" font-size="13" lengthAdjust="spacing" textLength="7" x="1064.7965" y="83.1738">1</text><text fill="#000000" font-family="sans-serif" font-size="13" lengthAdjust="spacing" textLength="7" x="1103.9955" y="83.3221">1</text></g><!--link ListTaskController to Date--><g id="link_ListTaskController_Date"><path codeLine="79" d="M752.24,157.58 C783.77,185.99 815.4422,214.514 845.8122,241.874 " fill="none" id="ListTaskController-to-Date" style="stroke:#181818;stroke-width:1.0;"/><polygon fill="#181818" points="850.27,245.89,846.2606,236.8942,846.5552,242.5434,840.906,242.8379,850.27,245.89" style="stroke:#181818;stroke-width:1.0;"/><text fill="#000000" font-family="sans-serif" font-size="13" lengthAdjust="spacing" textLength="32" x="812" y="212.0283">dates</text><text fill="#000000" font-family="sans-serif" font-size="13" lengthAdjust="spacing" textLength="7" x="752.8444" y="179.773">1</text><text fill="#000000" font-family="sans-serif" font-size="13" lengthAdjust="spacing" textLength="7" x="835.1497" y="234.8585">2</text></g><!--SRC=[hLLHRvim47xdLrXv8cjIRNj4KwIfKIMaTfD6rlSBN88L1oFiT6BJ_llE1eDDQJfDouE9xxwx- -uxRDI9LpKqS6Orv2SuOgPRWQp1N4Dr51Yf0Q1AAEGFNXtP0OJoFO9NgDiQMIr5QpQUBnUWr6Uj6xw_Q4npMMNy9xBtKMGzx84hlGDrogW-Va_Ph-YtSndp8zGrDcHbz5jRz2TZtp1DgzbQpmtJSgjbx8pBtWf5OT3MlWmp4tn8kqDYgcdnopnZoNE1vl-6zHlL0xQWaHMqf5F3VM_8g6EIIcdGbowgBphbuWIuavLkf113jpSiBp4_fOTqcwed4Bo8UV7bSjvZuzfJy8ociifGqCImY2sdLSV4eOweCql3b8ezwwvNQyZR1Rhu5JD3xKANhyWSIFeDQwcubatx5mFxdwpwCNyzt960i9SD48cveL-V-5Ctv67Q0zj_6xZNezzVshVbsqosT6guZptsVcSlTBxwgWmfXZ2EQX32DmOiA-gaoZ5U9W5cHCmpClXvJpZXC2AqZ9IjoeughpHh4HflUwP3Kthx0bmP4ncxYDK8NZcS5MPw-znkPivZD7D4RmaPw9dGdUcf5FZMBx2yLtSszMOYHsAFZYTFa6pnOS7MLC4yTs_W36lpd1zGmlBvmSsGj5Ml9Oic5u9SiyMxZY7rNu9w8-ju-IVZpU5z4IPGkfKwtAjf3VZZmhuNYJsuwWy0]--></g></svg>