<?xml version="1.0" encoding="us-ascii" standalone="no"?><svg xmlns="http://www.w3.org/2000/svg" xmlns:xlink="http://www.w3.org/1999/xlink" contentStyleType="text/css" height="454px" preserveAspectRatio="none" style="width:635px;height:454px;background:#FFFFFF;" version="1.1" viewBox="0 0 635 454" width="635px" zoomAndPan="magnify"><defs/><g><rect fill="#FFFFFF" height="298.2793" style="stroke:#181818;stroke-width:1.0;" width="10" x="229" y="90.5332"/><rect fill="#FFFFFF" height="52.291" style="stroke:#181818;stroke-width:1.0;" width="10" x="451" y="289.2305"/><rect fill="none" height="243.9883" style="stroke:#000000;stroke-width:1.5;" width="494" x="135.5" y="105.5332"/><rect fill="none" height="117.1641" style="stroke:#000000;stroke-width:1.5;" width="474" x="145.5" y="194.0664"/><rect fill="none" height="83.873" style="stroke:#000000;stroke-width:1.5;" width="454" x="155.5" y="220.3574"/><rect fill="none" height="50.582" style="stroke:#000000;stroke-width:1.5;" width="434" x="165.5" y="246.6484"/><line style="stroke:#181818;stroke-width:0.5;stroke-dasharray:5.0,5.0;" x1="233.5" x2="233.5" y1="57.2422" y2="397.8125"/><line style="stroke:#181818;stroke-width:0.5;stroke-dasharray:5.0,5.0;" x1="455.5" x2="455.5" y1="165.9453" y2="397.8125"/><rect fill="#E3E3E3" height="51.2422" rx="2.5" ry="2.5" style="stroke:#181818;stroke-width:0.5;" width="117" x="175.5" y="5"/><text fill="#000000" font-family="sans-serif" font-size="14" lengthAdjust="spacing" textLength="94" x="187" y="27.1074">taskRepository</text><text fill="#000000" font-family="sans-serif" font-size="14" lengthAdjust="spacing" textLength="103" x="182.5" y="45.7285">:TaskRepository</text><rect fill="#E3E3E3" height="51.2422" rx="2.5" ry="2.5" style="stroke:#181818;stroke-width:0.5;" width="117" x="175.5" y="396.8125"/><text fill="#000000" font-family="sans-serif" font-size="14" lengthAdjust="spacing" textLength="94" x="187" y="418.9199">taskRepository</text><text fill="#000000" font-family="sans-serif" font-size="14" lengthAdjust="spacing" textLength="103" x="182.5" y="437.541">:TaskRepository</text><rect fill="#E3E3E3" height="51.2422" rx="2.5" ry="2.5" style="stroke:#181818;stroke-width:0.5;" width="87" x="412.5" y="396.8125"/><text fill="#000000" font-family="sans-serif" font-size="14" lengthAdjust="spacing" textLength="48" x="432" y="418.9199">taskList</text><text fill="#000000" font-family="sans-serif" font-size="14" lengthAdjust="spacing" textLength="73" x="419.5" y="437.541">:List&lt;Task&gt;</text><rect fill="#FFFFFF" height="298.2793" style="stroke:#181818;stroke-width:1.0;" width="10" x="229" y="90.5332"/><rect fill="#FFFFFF" height="52.291" style="stroke:#181818;stroke-width:1.0;" width="10" x="451" y="289.2305"/><polygon fill="#181818" points="217,86.5332,227,90.5332,217,94.5332,221,90.5332" style="stroke:#181818;stroke-width:1.0;"/><line style="stroke:#181818;stroke-width:1.0;" x1="0" x2="223" y1="90.5332" y2="90.5332"/><text fill="#000000" font-family="sans-serif" font-size="13" font-weight="bold" lengthAdjust="spacing" textLength="14" x="7" y="85.2705">24</text><text fill="#000000" font-family="sans-serif" font-size="13" lengthAdjust="spacing" textLength="192" x="25" y="85.2705">getTaskList(teamList,typeStatus)</text><path d="M135.5,105.5332 L261.5,105.5332 L261.5,114.8242 L251.5,124.8242 L135.5,124.8242 L135.5,105.5332 " fill="#EEEEEE" style="stroke:#000000;stroke-width:1.5;"/><rect fill="none" height="243.9883" style="stroke:#000000;stroke-width:1.5;" width="494" x="135.5" y="105.5332"/><text fill="#000000" font-family="sans-serif" font-size="13" font-weight="bold" lengthAdjust="spacing" textLength="81" x="150.5" y="120.5615">Get Task List</text><polygon fill="#181818" points="400.5,144.1152,410.5,148.1152,400.5,152.1152,404.5,148.1152" style="stroke:#181818;stroke-width:1.0;"/><line style="stroke:#181818;stroke-width:1.0;" x1="239" x2="406.5" y1="148.1152" y2="148.1152"/><text fill="#000000" font-family="sans-serif" font-size="13" font-weight="bold" lengthAdjust="spacing" textLength="25" x="246" y="142.8525">24.1</text><text fill="#000000" font-family="sans-serif" font-size="13" lengthAdjust="spacing" textLength="44" x="275" y="142.8525">create()</text><rect fill="#E3E3E3" height="51.2422" rx="2.5" ry="2.5" style="stroke:#181818;stroke-width:0.5;" width="87" x="412.5" y="124.8242"/><text fill="#000000" font-family="sans-serif" font-size="14" lengthAdjust="spacing" textLength="48" x="432" y="146.9316">taskList</text><text fill="#000000" font-family="sans-serif" font-size="14" lengthAdjust="spacing" textLength="73" x="419.5" y="165.5527">:List&lt;Task&gt;</text><path d="M145.5,194.0664 L218.5,194.0664 L218.5,203.3574 L208.5,213.3574 L145.5,213.3574 L145.5,194.0664 " fill="#EEEEEE" style="stroke:#000000;stroke-width:1.5;"/><rect fill="none" height="117.1641" style="stroke:#000000;stroke-width:1.5;" width="474" x="145.5" y="194.0664"/><text fill="#000000" font-family="sans-serif" font-size="13" font-weight="bold" lengthAdjust="spacing" textLength="28" x="160.5" y="209.0947">loop</text><text fill="#000000" font-family="sans-serif" font-size="11" font-weight="bold" lengthAdjust="spacing" textLength="159" x="233.5" y="207.9365">[for each task in the system]</text><path d="M155.5,220.3574 L228.5,220.3574 L228.5,229.6484 L218.5,239.6484 L155.5,239.6484 L155.5,220.3574 " fill="#EEEEEE" style="stroke:#000000;stroke-width:1.5;"/><rect fill="none" height="83.873" style="stroke:#000000;stroke-width:1.5;" width="454" x="155.5" y="220.3574"/><text fill="#000000" font-family="sans-serif" font-size="13" font-weight="bold" lengthAdjust="spacing" textLength="28" x="170.5" y="235.3857">loop</text><text fill="#000000" font-family="sans-serif" font-size="11" font-weight="bold" lengthAdjust="spacing" textLength="149" x="243.5" y="234.2275">[for each team in teamList]</text><path d="M165.5,246.6484 L230.5,246.6484 L230.5,255.9395 L220.5,265.9395 L165.5,265.9395 L165.5,246.6484 " fill="#EEEEEE" style="stroke:#000000;stroke-width:1.5;"/><rect fill="none" height="50.582" style="stroke:#000000;stroke-width:1.5;" width="434" x="165.5" y="246.6484"/><text fill="#000000" font-family="sans-serif" font-size="13" font-weight="bold" lengthAdjust="spacing" textLength="20" x="180.5" y="261.6768">opt</text><text fill="#000000" font-family="sans-serif" font-size="11" font-weight="bold" lengthAdjust="spacing" textLength="349" x="245.5" y="260.5186">[(typeStatus() == task.getStatus()) &amp;&amp; (team == task.getTeam())]</text><polygon fill="#181818" points="439,285.2305,449,289.2305,439,293.2305,443,289.2305" style="stroke:#181818;stroke-width:1.0;"/><line style="stroke:#181818;stroke-width:1.0;" x1="239" x2="445" y1="289.2305" y2="289.2305"/><text fill="#000000" font-family="sans-serif" font-size="13" font-weight="bold" lengthAdjust="spacing" textLength="25" x="246" y="283.9678">24.2</text><text fill="#000000" font-family="sans-serif" font-size="13" lengthAdjust="spacing" textLength="164" x="275" y="283.9678">addTaskOfCollaborator(task)</text><polygon fill="#181818" points="250,337.5215,240,341.5215,250,345.5215,246,341.5215" style="stroke:#181818;stroke-width:1.0;"/><line style="stroke:#181818;stroke-width:1.0;stroke-dasharray:2.0,2.0;" x1="244" x2="455" y1="341.5215" y2="341.5215"/><text fill="#000000" font-family="sans-serif" font-size="13" font-weight="bold" lengthAdjust="spacing" textLength="25" x="256" y="336.2588">24.3</text><text fill="#000000" font-family="sans-serif" font-size="13" lengthAdjust="spacing" textLength="46" x="285" y="336.2588">taskList</text><polygon fill="#181818" points="11,375.8125,1,379.8125,11,383.8125,7,379.8125" style="stroke:#181818;stroke-width:1.0;"/><line style="stroke:#181818;stroke-width:1.0;stroke-dasharray:2.0,2.0;" x1="5" x2="228" y1="379.8125" y2="379.8125"/><text fill="#000000" font-family="sans-serif" font-size="13" font-weight="bold" lengthAdjust="spacing" textLength="14" x="17" y="374.5498">25</text><text fill="#000000" font-family="sans-serif" font-size="13" lengthAdjust="spacing" textLength="46" x="35" y="374.5498">taskList</text><!--SRC=[ZLB1JiCm3BtdAomEevte911SfcqIue0Gav1OZroyrckZjKcLk43_dgJQIjTr25_Qs7xFxpcnUwagD5X2gPLESgDB0ZOr2TjLAapscD66cuB0KCAeigBVO7DCzPTK6Uomi2G4rgnLNMx9276TovHWfpLlzRSGma5O9h92nN35QFVlL6ahMPlcGytZayGLe8NJddFyMbfsIFzPUFYgHQrVDd7yk7djYu6xUo4WMWqeOGuPSNoW2fYmz3ytt5JED79jmrEIsQt0XEKdCWtLWOlCwBg2PsBmdE2vX1YCT2AE2gTJ9o0nvDY2i2NeHw5rvRPdW339ssaW5N1EO1lBL9u1Ha3EK0iw61k5w8eX-7KSXB1SjkDcRZV7N0YJ2RGBwbTZTtQrKLeVbwqxuvYcVajlkoTT5BZL1brJu26N2Nrq5z1Tz5WNgVJV-M6k4ncDlPZZopk1f3GkorFtNz23M4JH7vm_]--></g></svg>