<?xml version="1.0" encoding="us-ascii" standalone="no"?><svg xmlns="http://www.w3.org/2000/svg" xmlns:xlink="http://www.w3.org/1999/xlink" contentStyleType="text/css" height="693px" preserveAspectRatio="none" style="width:1380px;height:693px;background:#FFFFFF;" version="1.1" viewBox="0 0 1380 693" width="1380px" zoomAndPan="magnify"><defs/><g><rect fill="#FFFFFF" height="528.6855" style="stroke:#181818;stroke-width:1.0;" width="10" x="375" y="90.5332"/><rect fill="#FFFFFF" height="31.291" style="stroke:#181818;stroke-width:1.0;" width="10" x="525" y="148.1152"/><rect fill="#FFFFFF" height="31.291" style="stroke:#181818;stroke-width:1.0;" width="10" x="630" y="210.6973"/><rect fill="#FFFFFF" height="297.6484" style="stroke:#181818;stroke-width:1.0;" width="10" x="804.5" y="283.2793"/><rect fill="#FFFFFF" height="197.1152" style="stroke:#181818;stroke-width:1.0;" width="10" x="1206.5" y="345.5215"/><rect fill="#FFFFFF" height="28" style="stroke:#181818;stroke-width:1.0;" width="10" x="1211.5" y="405.7637"/><rect fill="#FFFFFF" height="36.291" style="stroke:#181818;stroke-width:1.0;" width="10" x="1211.5" y="506.3457"/><rect fill="none" height="483.3945" style="stroke:#000000;stroke-width:1.5;" width="1098" x="276.5" y="105.5332"/><rect fill="none" height="94.873" style="stroke:#000000;stroke-width:1.5;" width="590.5" x="766" y="455.7637"/><line style="stroke:#181818;stroke-width:0.5;stroke-dasharray:5.0,5.0;" x1="379.5" x2="379.5" y1="57.2422" y2="637.2188"/><line style="stroke:#181818;stroke-width:0.5;stroke-dasharray:5.0,5.0;" x1="529.5" x2="529.5" y1="57.2422" y2="637.2188"/><line style="stroke:#181818;stroke-width:0.5;stroke-dasharray:5.0,5.0;" x1="634.5" x2="634.5" y1="57.2422" y2="637.2188"/><line style="stroke:#181818;stroke-width:0.5;stroke-dasharray:5.0,5.0;" x1="809" x2="809" y1="291.1094" y2="637.2188"/><line style="stroke:#181818;stroke-width:0.5;stroke-dasharray:5.0,5.0;" x1="1211.5" x2="1211.5" y1="353.3516" y2="637.2188"/><rect fill="#E3E3E3" height="32.6211" rx="2.5" ry="2.5" style="stroke:#181818;stroke-width:0.5;" width="187" x="286.5" y="23.6211"/><text fill="#000000" font-family="sans-serif" font-size="14" lengthAdjust="spacing" textLength="173" x="293.5" y="45.7285">:AddAgendaEntryController</text><rect fill="#E3E3E3" height="32.6211" rx="2.5" ry="2.5" style="stroke:#181818;stroke-width:0.5;" width="187" x="286.5" y="636.2188"/><text fill="#000000" font-family="sans-serif" font-size="14" lengthAdjust="spacing" textLength="173" x="293.5" y="658.3262">:AddAgendaEntryController</text><rect fill="#E3E3E3" height="32.6211" rx="2.5" ry="2.5" style="stroke:#181818;stroke-width:0.5;" width="93" x="483.5" y="23.6211"/><text fill="#000000" font-family="sans-serif" font-size="14" lengthAdjust="spacing" textLength="79" x="490.5" y="45.7285">Repositories</text><rect fill="#E3E3E3" height="32.6211" rx="2.5" ry="2.5" style="stroke:#181818;stroke-width:0.5;" width="93" x="483.5" y="636.2188"/><text fill="#000000" font-family="sans-serif" font-size="14" lengthAdjust="spacing" textLength="79" x="490.5" y="658.3262">Repositories</text><rect fill="#E3E3E3" height="51.2422" rx="2.5" ry="2.5" style="stroke:#181818;stroke-width:0.5;" width="97" x="586.5" y="5"/><text fill="#000000" font-family="sans-serif" font-size="14" lengthAdjust="spacing" textLength="74" x="598" y="27.1074">repositories</text><text fill="#000000" font-family="sans-serif" font-size="14" lengthAdjust="spacing" textLength="83" x="593.5" y="45.7285">:Repositories</text><rect fill="#E3E3E3" height="51.2422" rx="2.5" ry="2.5" style="stroke:#181818;stroke-width:0.5;" width="97" x="586.5" y="636.2188"/><text fill="#000000" font-family="sans-serif" font-size="14" lengthAdjust="spacing" textLength="74" x="598" y="658.3262">repositories</text><text fill="#000000" font-family="sans-serif" font-size="14" lengthAdjust="spacing" textLength="83" x="593.5" y="676.9473">:Repositories</text><rect fill="#E3E3E3" height="51.2422" rx="2.5" ry="2.5" style="stroke:#181818;stroke-width:0.5;" width="67" x="776" y="636.2188"/><text fill="#000000" font-family="sans-serif" font-size="14" lengthAdjust="spacing" textLength="48" x="785.5" y="658.3262">agenda</text><text fill="#000000" font-family="sans-serif" font-size="14" lengthAdjust="spacing" textLength="53" x="783" y="676.9473">:Agenda</text><rect fill="#E3E3E3" height="51.2422" rx="2.5" ry="2.5" style="stroke:#181818;stroke-width:0.5;" width="100" x="1161.5" y="636.2188"/><text fill="#000000" font-family="sans-serif" font-size="14" lengthAdjust="spacing" textLength="81" x="1171" y="658.3262">agendaEntry</text><text fill="#000000" font-family="sans-serif" font-size="14" lengthAdjust="spacing" textLength="86" x="1168.5" y="676.9473">:AgendaEntry</text><rect fill="#FFFFFF" height="528.6855" style="stroke:#181818;stroke-width:1.0;" width="10" x="375" y="90.5332"/><rect fill="#FFFFFF" height="31.291" style="stroke:#181818;stroke-width:1.0;" width="10" x="525" y="148.1152"/><rect fill="#FFFFFF" height="31.291" style="stroke:#181818;stroke-width:1.0;" width="10" x="630" y="210.6973"/><rect fill="#FFFFFF" height="297.6484" style="stroke:#181818;stroke-width:1.0;" width="10" x="804.5" y="283.2793"/><rect fill="#FFFFFF" height="197.1152" style="stroke:#181818;stroke-width:1.0;" width="10" x="1206.5" y="345.5215"/><rect fill="#FFFFFF" height="28" style="stroke:#181818;stroke-width:1.0;" width="10" x="1211.5" y="405.7637"/><rect fill="#FFFFFF" height="36.291" style="stroke:#181818;stroke-width:1.0;" width="10" x="1211.5" y="506.3457"/><polygon fill="#181818" points="363,86.5332,373,90.5332,363,94.5332,367,90.5332" style="stroke:#181818;stroke-width:1.0;"/><line style="stroke:#181818;stroke-width:1.0;" x1="0" x2="369" y1="90.5332" y2="90.5332"/><text fill="#000000" font-family="sans-serif" font-size="13" font-weight="bold" lengthAdjust="spacing" textLength="14" x="7" y="85.2705">15</text><text fill="#000000" font-family="sans-serif" font-size="13" lengthAdjust="spacing" textLength="338" x="25" y="85.2705">createAgendaEntry(task, greenSpace, startDate, endDate)</text><path d="M276.5,105.5332 L452.5,105.5332 L452.5,114.8242 L442.5,124.8242 L276.5,124.8242 L276.5,105.5332 " fill="#EEEEEE" style="stroke:#000000;stroke-width:1.5;"/><rect fill="none" height="483.3945" style="stroke:#000000;stroke-width:1.5;" width="1098" x="276.5" y="105.5332"/><text fill="#000000" font-family="sans-serif" font-size="13" font-weight="bold" lengthAdjust="spacing" textLength="131" x="291.5" y="120.5615">Create Agenda Entry</text><polygon fill="#181818" points="513,144.1152,523,148.1152,513,152.1152,517,148.1152" style="stroke:#181818;stroke-width:1.0;"/><line style="stroke:#181818;stroke-width:1.0;" x1="385" x2="519" y1="148.1152" y2="148.1152"/><text fill="#000000" font-family="sans-serif" font-size="13" font-weight="bold" lengthAdjust="spacing" textLength="25" x="392" y="142.8525">15.1</text><text fill="#000000" font-family="sans-serif" font-size="13" lengthAdjust="spacing" textLength="75" x="421" y="142.8525">getInstance()</text><polygon fill="#181818" points="396,175.4063,386,179.4063,396,183.4063,392,179.4063" style="stroke:#181818;stroke-width:1.0;"/><line style="stroke:#181818;stroke-width:1.0;stroke-dasharray:2.0,2.0;" x1="390" x2="529" y1="179.4063" y2="179.4063"/><text fill="#000000" font-family="sans-serif" font-size="13" font-weight="bold" lengthAdjust="spacing" textLength="25" x="402" y="174.1436">15.2</text><text fill="#000000" font-family="sans-serif" font-size="13" lengthAdjust="spacing" textLength="67" x="431" y="174.1436">repositories</text><polygon fill="#181818" points="618,206.6973,628,210.6973,618,214.6973,622,210.6973" style="stroke:#181818;stroke-width:1.0;"/><line style="stroke:#181818;stroke-width:1.0;" x1="385" x2="624" y1="210.6973" y2="210.6973"/><text fill="#000000" font-family="sans-serif" font-size="13" font-weight="bold" lengthAdjust="spacing" textLength="25" x="392" y="205.4346">15.3</text><text fill="#000000" font-family="sans-serif" font-size="13" lengthAdjust="spacing" textLength="70" x="421" y="205.4346">getAgenda()</text><polygon fill="#181818" points="396,237.9883,386,241.9883,396,245.9883,392,241.9883" style="stroke:#181818;stroke-width:1.0;"/><line style="stroke:#181818;stroke-width:1.0;stroke-dasharray:2.0,2.0;" x1="390" x2="634" y1="241.9883" y2="241.9883"/><text fill="#000000" font-family="sans-serif" font-size="13" font-weight="bold" lengthAdjust="spacing" textLength="25" x="402" y="236.7256">15.4</text><text fill="#000000" font-family="sans-serif" font-size="13" lengthAdjust="spacing" textLength="42" x="431" y="236.7256">agenda</text><polygon fill="#181818" points="764,269.2793,774,273.2793,764,277.2793,768,273.2793" style="stroke:#181818;stroke-width:1.0;"/><line style="stroke:#181818;stroke-width:1.0;" x1="385" x2="770" y1="273.2793" y2="273.2793"/><text fill="#000000" font-family="sans-serif" font-size="13" font-weight="bold" lengthAdjust="spacing" textLength="25" x="392" y="268.0166">15.5</text><text fill="#000000" font-family="sans-serif" font-size="13" lengthAdjust="spacing" textLength="338" x="421" y="268.0166">createAgendaEntry(task, greenSpace, startDate, endDate)</text><rect fill="#E3E3E3" height="51.2422" rx="2.5" ry="2.5" style="stroke:#181818;stroke-width:0.5;" width="67" x="776" y="249.9883"/><text fill="#000000" font-family="sans-serif" font-size="14" lengthAdjust="spacing" textLength="48" x="785.5" y="272.0957">agenda</text><text fill="#000000" font-family="sans-serif" font-size="14" lengthAdjust="spacing" textLength="53" x="783" y="290.7168">:Agenda</text><polygon fill="#181818" points="1149.5,331.5215,1159.5,335.5215,1149.5,339.5215,1153.5,335.5215" style="stroke:#181818;stroke-width:1.0;"/><line style="stroke:#181818;stroke-width:1.0;" x1="814.5" x2="1155.5" y1="335.5215" y2="335.5215"/><text fill="#000000" font-family="sans-serif" font-size="13" font-weight="bold" lengthAdjust="spacing" textLength="25" x="821.5" y="330.2588">15.6</text><text fill="#000000" font-family="sans-serif" font-size="13" lengthAdjust="spacing" textLength="294" x="850.5" y="330.2588">createEntry(task, greenSpace, startDate, endDate)</text><rect fill="#E3E3E3" height="51.2422" rx="2.5" ry="2.5" style="stroke:#181818;stroke-width:0.5;" width="100" x="1161.5" y="312.2305"/><text fill="#000000" font-family="sans-serif" font-size="14" lengthAdjust="spacing" textLength="81" x="1171" y="334.3379">agendaEntry</text><text fill="#000000" font-family="sans-serif" font-size="14" lengthAdjust="spacing" textLength="86" x="1168.5" y="352.959">:AgendaEntry</text><line style="stroke:#181818;stroke-width:1.0;" x1="1221.5" x2="1263.5" y1="397.7637" y2="397.7637"/><line style="stroke:#181818;stroke-width:1.0;" x1="1263.5" x2="1263.5" y1="397.7637" y2="410.7637"/><line style="stroke:#181818;stroke-width:1.0;" x1="1222.5" x2="1263.5" y1="410.7637" y2="410.7637"/><polygon fill="#181818" points="1232.5,406.7637,1222.5,410.7637,1232.5,414.7637,1228.5,410.7637" style="stroke:#181818;stroke-width:1.0;"/><text fill="#000000" font-family="sans-serif" font-size="13" font-weight="bold" lengthAdjust="spacing" textLength="25" x="1228.5" y="392.501">15.7</text><text fill="#000000" font-family="sans-serif" font-size="13" lengthAdjust="spacing" textLength="105" x="1257.5" y="392.501">b = validateEntry()</text><path d="M766,455.7637 L831,455.7637 L831,465.0547 L821,475.0547 L766,475.0547 L766,455.7637 " fill="#EEEEEE" style="stroke:#000000;stroke-width:1.5;"/><rect fill="none" height="94.873" style="stroke:#000000;stroke-width:1.5;" width="590.5" x="766" y="455.7637"/><text fill="#000000" font-family="sans-serif" font-size="13" font-weight="bold" lengthAdjust="spacing" textLength="20" x="781" y="470.792">opt</text><text fill="#000000" font-family="sans-serif" font-size="11" font-weight="bold" lengthAdjust="spacing" textLength="56" x="846" y="469.6338">[b == true]</text><line style="stroke:#181818;stroke-width:1.0;" x1="1216.5" x2="1263.5" y1="493.3457" y2="493.3457"/><line style="stroke:#181818;stroke-width:1.0;" x1="1263.5" x2="1263.5" y1="493.3457" y2="506.3457"/><line style="stroke:#181818;stroke-width:1.0;" x1="1222.5" x2="1263.5" y1="506.3457" y2="506.3457"/><polygon fill="#181818" points="1232.5,502.3457,1222.5,506.3457,1232.5,510.3457,1228.5,506.3457" style="stroke:#181818;stroke-width:1.0;"/><text fill="#000000" font-family="sans-serif" font-size="13" font-weight="bold" lengthAdjust="spacing" textLength="25" x="1228.5" y="488.083">15.8</text><text fill="#000000" font-family="sans-serif" font-size="13" lengthAdjust="spacing" textLength="87" x="1257.5" y="488.083">taskSchedule()</text><polygon fill="#181818" points="825.5,538.6367,815.5,542.6367,825.5,546.6367,821.5,542.6367" style="stroke:#181818;stroke-width:1.0;"/><line style="stroke:#181818;stroke-width:1.0;stroke-dasharray:2.0,2.0;" x1="819.5" x2="1210.5" y1="542.6367" y2="542.6367"/><text fill="#000000" font-family="sans-serif" font-size="13" font-weight="bold" lengthAdjust="spacing" textLength="25" x="831.5" y="537.374">15.9</text><text fill="#000000" font-family="sans-serif" font-size="13" lengthAdjust="spacing" textLength="14" x="860.5" y="537.374">ok</text><polygon fill="#181818" points="396,576.9277,386,580.9277,396,584.9277,392,580.9277" style="stroke:#181818;stroke-width:1.0;"/><line style="stroke:#181818;stroke-width:1.0;stroke-dasharray:2.0,2.0;" x1="390" x2="808.5" y1="580.9277" y2="580.9277"/><text fill="#000000" font-family="sans-serif" font-size="13" font-weight="bold" lengthAdjust="spacing" textLength="32" x="402" y="575.665">15.10</text><text fill="#000000" font-family="sans-serif" font-size="13" lengthAdjust="spacing" textLength="73" x="438" y="575.665">agendaEntry</text><polygon fill="#181818" points="11,615.2188,1,619.2188,11,623.2188,7,619.2188" style="stroke:#181818;stroke-width:1.0;"/><line style="stroke:#181818;stroke-width:1.0;stroke-dasharray:2.0,2.0;" x1="5" x2="379" y1="619.2188" y2="619.2188"/><text fill="#000000" font-family="sans-serif" font-size="13" font-weight="bold" lengthAdjust="spacing" textLength="14" x="17" y="613.9561">16</text><text fill="#000000" font-family="sans-serif" font-size="13" lengthAdjust="spacing" textLength="73" x="35" y="613.9561">agendaEntry</text><!--SRC=[dPHHQy8m4CVVyocEFQdem8VjGUQWQ1c38L9z6UmbjhTQh4b9KeVVVccYMLhRpPa7qTm_z_ldxepSPQoWWkvXpncFjuBl4PGeaKWNAMYyeockr35741WhojBS5yWjJVXNnbBufBb4GlIsokAie4p1tIH8aY15bj2GAN6SSVt9ynp57L09itNqLjD7M72PAIuobFL4mejyi8alDAcYS5a_G0rLIotUY8ANS34FsdJ6dHERNzw9SB6EtWcXfUAit6zGmFY1Z9wD_md40gb2xsHFKRaRGYeGsKeN48SWbMREjMm8MbPzwJVotOy9ZLLsq25R5z0h5RmiO6O0O0bW48IO-7bL1q0RyiioWHJLAzDa5cElNzCxKgtWDKcr_2YCt8NzNjJE97X5OkSrN1gBzbgT1dLVBts5Iy-ExM2daMQ2Cz-sTZ20splOwlWqP1UcxVuFsGoLXxyLt08_pMkx0nDisD0cDZ250yspn5cv4jCKURN_rGqlL0MTsXVdNrwh8gtYBIPbZhrRgt51SHXDuBkRxzMXQyfqBxjdv3JRS1vk-v__asGJkip- -_9eTfv6exR4NYBpz91l]--></g></svg>