<?xml version="1.0" encoding="us-ascii" standalone="no"?><svg xmlns="http://www.w3.org/2000/svg" xmlns:xlink="http://www.w3.org/1999/xlink" contentStyleType="text/css" height="553px" preserveAspectRatio="none" style="width:820px;height:553px;background:#FFFFFF;" version="1.1" viewBox="0 0 820 553" width="820px" zoomAndPan="magnify"><defs/><g><rect fill="#FFFFFF" height="388.5215" style="stroke:#181818;stroke-width:1.0;" width="10" x="183" y="90.5332"/><rect fill="#FFFFFF" height="28" style="stroke:#181818;stroke-width:1.0;" width="10" x="188" y="156.1152"/><rect fill="#FFFFFF" height="218.3574" style="stroke:#181818;stroke-width:1.0;" width="10" x="486" y="222.4063"/><rect fill="#FFFFFF" height="145.7754" style="stroke:#181818;stroke-width:1.0;" width="10" x="645" y="263.6973"/><rect fill="#FFFFFF" height="52.2422" style="stroke:#181818;stroke-width:1.0;" width="10" x="774.5" y="325.9395"/><rect fill="none" height="343.2305" style="stroke:#000000;stroke-width:1.5;" width="729.5" x="84.5" y="105.5332"/><line style="stroke:#181818;stroke-width:0.5;stroke-dasharray:5.0,5.0;" x1="187.5" x2="187.5" y1="57.2422" y2="497.0547"/><line style="stroke:#181818;stroke-width:0.5;stroke-dasharray:5.0,5.0;" x1="491" x2="491" y1="57.2422" y2="497.0547"/><line style="stroke:#181818;stroke-width:0.5;stroke-dasharray:5.0,5.0;" x1="650" x2="650" y1="271.5273" y2="497.0547"/><line style="stroke:#181818;stroke-width:0.5;stroke-dasharray:5.0,5.0;" x1="779" x2="779" y1="333.7695" y2="497.0547"/><rect fill="#E3E3E3" height="32.6211" rx="2.5" ry="2.5" style="stroke:#181818;stroke-width:0.5;" width="187" x="94.5" y="23.6211"/><text fill="#000000" font-family="sans-serif" font-size="14" lengthAdjust="spacing" textLength="173" x="101.5" y="45.7285">:AddAgendaEntryController</text><rect fill="#E3E3E3" height="32.6211" rx="2.5" ry="2.5" style="stroke:#181818;stroke-width:0.5;" width="187" x="94.5" y="496.0547"/><text fill="#000000" font-family="sans-serif" font-size="14" lengthAdjust="spacing" textLength="173" x="101.5" y="518.1621">:AddAgendaEntryController</text><rect fill="#E3E3E3" height="51.2422" rx="2.5" ry="2.5" style="stroke:#181818;stroke-width:0.5;" width="70" x="456" y="5"/><text fill="#000000" font-family="sans-serif" font-size="14" lengthAdjust="spacing" textLength="52" x="465" y="27.1074">toDoList</text><text fill="#000000" font-family="sans-serif" font-size="14" lengthAdjust="spacing" textLength="56" x="463" y="45.7285">:toDoList</text><rect fill="#E3E3E3" height="51.2422" rx="2.5" ry="2.5" style="stroke:#181818;stroke-width:0.5;" width="70" x="456" y="496.0547"/><text fill="#000000" font-family="sans-serif" font-size="14" lengthAdjust="spacing" textLength="52" x="465" y="518.1621">toDoList</text><text fill="#000000" font-family="sans-serif" font-size="14" lengthAdjust="spacing" textLength="56" x="463" y="536.7832">:toDoList</text><rect fill="#E3E3E3" height="51.2422" rx="2.5" ry="2.5" style="stroke:#181818;stroke-width:0.5;" width="108" x="596" y="496.0547"/><text fill="#000000" font-family="sans-serif" font-size="14" lengthAdjust="spacing" textLength="85" x="607.5" y="518.1621">toDoListEntry</text><text fill="#000000" font-family="sans-serif" font-size="14" lengthAdjust="spacing" textLength="94" x="603" y="536.7832">:ToDoListEntry</text><rect fill="#E3E3E3" height="51.2422" rx="2.5" ry="2.5" style="stroke:#181818;stroke-width:0.5;" width="49" x="755" y="496.0547"/><text fill="#000000" font-family="sans-serif" font-size="14" lengthAdjust="spacing" textLength="26" x="766.5" y="518.1621">task</text><text fill="#000000" font-family="sans-serif" font-size="14" lengthAdjust="spacing" textLength="35" x="762" y="536.7832">:Task</text><rect fill="#FFFFFF" height="388.5215" style="stroke:#181818;stroke-width:1.0;" width="10" x="183" y="90.5332"/><rect fill="#FFFFFF" height="28" style="stroke:#181818;stroke-width:1.0;" width="10" x="188" y="156.1152"/><rect fill="#FFFFFF" height="218.3574" style="stroke:#181818;stroke-width:1.0;" width="10" x="486" y="222.4063"/><rect fill="#FFFFFF" height="145.7754" style="stroke:#181818;stroke-width:1.0;" width="10" x="645" y="263.6973"/><rect fill="#FFFFFF" height="52.2422" style="stroke:#181818;stroke-width:1.0;" width="10" x="774.5" y="325.9395"/><polygon fill="#181818" points="171,86.5332,181,90.5332,171,94.5332,175,90.5332" style="stroke:#181818;stroke-width:1.0;"/><line style="stroke:#181818;stroke-width:1.0;" x1="0" x2="177" y1="90.5332" y2="90.5332"/><text fill="#000000" font-family="sans-serif" font-size="13" font-weight="bold" lengthAdjust="spacing" textLength="7" x="7" y="85.2705">7</text><text fill="#000000" font-family="sans-serif" font-size="13" lengthAdjust="spacing" textLength="153" x="18" y="85.2705">getTask(toDoListEntryDto)</text><path d="M84.5,105.5332 L184.5,105.5332 L184.5,114.8242 L174.5,124.8242 L84.5,124.8242 L84.5,105.5332 " fill="#EEEEEE" style="stroke:#000000;stroke-width:1.5;"/><rect fill="none" height="343.2305" style="stroke:#000000;stroke-width:1.5;" width="729.5" x="84.5" y="105.5332"/><text fill="#000000" font-family="sans-serif" font-size="13" font-weight="bold" lengthAdjust="spacing" textLength="55" x="99.5" y="120.5615">Get Task</text><line style="stroke:#181818;stroke-width:1.0;" x1="198" x2="240" y1="148.1152" y2="148.1152"/><line style="stroke:#181818;stroke-width:1.0;" x1="240" x2="240" y1="148.1152" y2="161.1152"/><line style="stroke:#181818;stroke-width:1.0;" x1="199" x2="240" y1="161.1152" y2="161.1152"/><polygon fill="#181818" points="209,157.1152,199,161.1152,209,165.1152,205,161.1152" style="stroke:#181818;stroke-width:1.0;"/><text fill="#000000" font-family="sans-serif" font-size="13" font-weight="bold" lengthAdjust="spacing" textLength="18" x="205" y="142.8525">7.1</text><text fill="#000000" font-family="sans-serif" font-size="13" lengthAdjust="spacing" textLength="257" x="227" y="142.8525">toDoListEntry = toDomain(toDoListEntryDto)</text><polygon fill="#181818" points="474,218.4063,484,222.4063,474,226.4063,478,222.4063" style="stroke:#181818;stroke-width:1.0;"/><line style="stroke:#181818;stroke-width:1.0;" x1="193" x2="480" y1="222.4063" y2="222.4063"/><text fill="#000000" font-family="sans-serif" font-size="13" font-weight="bold" lengthAdjust="spacing" textLength="18" x="200" y="217.1436">7.2</text><text fill="#000000" font-family="sans-serif" font-size="13" lengthAdjust="spacing" textLength="133" x="222" y="217.1436">getTask(toDoListEntry)</text><polygon fill="#181818" points="584,249.6973,594,253.6973,584,257.6973,588,253.6973" style="stroke:#181818;stroke-width:1.0;"/><line style="stroke:#181818;stroke-width:1.0;" x1="496" x2="590" y1="253.6973" y2="253.6973"/><text fill="#000000" font-family="sans-serif" font-size="13" font-weight="bold" lengthAdjust="spacing" textLength="18" x="503" y="248.4346">7.3</text><text fill="#000000" font-family="sans-serif" font-size="13" lengthAdjust="spacing" textLength="54" x="525" y="248.4346">getTask()</text><rect fill="#E3E3E3" height="51.2422" rx="2.5" ry="2.5" style="stroke:#181818;stroke-width:0.5;" width="108" x="596" y="230.4063"/><text fill="#000000" font-family="sans-serif" font-size="14" lengthAdjust="spacing" textLength="85" x="607.5" y="252.5137">toDoListEntry</text><text fill="#000000" font-family="sans-serif" font-size="14" lengthAdjust="spacing" textLength="94" x="603" y="271.1348">:ToDoListEntry</text><polygon fill="#181818" points="743,311.9395,753,315.9395,743,319.9395,747,315.9395" style="stroke:#181818;stroke-width:1.0;"/><line style="stroke:#181818;stroke-width:1.0;" x1="655" x2="749" y1="315.9395" y2="315.9395"/><text fill="#000000" font-family="sans-serif" font-size="13" font-weight="bold" lengthAdjust="spacing" textLength="18" x="662" y="310.6768">7.4</text><text fill="#000000" font-family="sans-serif" font-size="13" lengthAdjust="spacing" textLength="54" x="684" y="310.6768">getTask()</text><rect fill="#E3E3E3" height="51.2422" rx="2.5" ry="2.5" style="stroke:#181818;stroke-width:0.5;" width="49" x="755" y="292.6484"/><text fill="#000000" font-family="sans-serif" font-size="14" lengthAdjust="spacing" textLength="26" x="766.5" y="314.7559">task</text><text fill="#000000" font-family="sans-serif" font-size="14" lengthAdjust="spacing" textLength="35" x="762" y="333.377">:Task</text><polygon fill="#181818" points="666,374.1816,656,378.1816,666,382.1816,662,378.1816" style="stroke:#181818;stroke-width:1.0;"/><line style="stroke:#181818;stroke-width:1.0;stroke-dasharray:2.0,2.0;" x1="660" x2="778.5" y1="378.1816" y2="378.1816"/><text fill="#000000" font-family="sans-serif" font-size="13" font-weight="bold" lengthAdjust="spacing" textLength="18" x="672" y="372.9189">7.5</text><text fill="#000000" font-family="sans-serif" font-size="13" lengthAdjust="spacing" textLength="25" x="694" y="372.9189">task</text><polygon fill="#181818" points="507,405.4727,497,409.4727,507,413.4727,503,409.4727" style="stroke:#181818;stroke-width:1.0;"/><line style="stroke:#181818;stroke-width:1.0;stroke-dasharray:2.0,2.0;" x1="501" x2="649" y1="409.4727" y2="409.4727"/><text fill="#000000" font-family="sans-serif" font-size="13" font-weight="bold" lengthAdjust="spacing" textLength="18" x="513" y="404.21">7.6</text><text fill="#000000" font-family="sans-serif" font-size="13" lengthAdjust="spacing" textLength="25" x="535" y="404.21">task</text><polygon fill="#181818" points="204,436.7637,194,440.7637,204,444.7637,200,440.7637" style="stroke:#181818;stroke-width:1.0;"/><line style="stroke:#181818;stroke-width:1.0;stroke-dasharray:2.0,2.0;" x1="198" x2="490" y1="440.7637" y2="440.7637"/><text fill="#000000" font-family="sans-serif" font-size="13" font-weight="bold" lengthAdjust="spacing" textLength="18" x="210" y="435.501">7.7</text><text fill="#000000" font-family="sans-serif" font-size="13" lengthAdjust="spacing" textLength="25" x="232" y="435.501">task</text><polygon fill="#181818" points="11,475.0547,1,479.0547,11,483.0547,7,479.0547" style="stroke:#181818;stroke-width:1.0;"/><line style="stroke:#181818;stroke-width:1.0;stroke-dasharray:2.0,2.0;" x1="5" x2="187" y1="479.0547" y2="479.0547"/><text fill="#000000" font-family="sans-serif" font-size="13" font-weight="bold" lengthAdjust="spacing" textLength="7" x="17" y="473.792">8</text><text fill="#000000" font-family="sans-serif" font-size="13" lengthAdjust="spacing" textLength="25" x="28" y="473.792">task</text><!--SRC=[XPFVIyCm4CVVyrSSUtA32ZufHOMn3H67WwqlWY-tDdPXRLAIgxB_tZHrDMaxlOSsFxxt-QPtgJaAMQ764aebLNhGgkH0kkRCT3iLfaVC-OvE1GVDKqAP5xx0731JNqBcy865uOpPPHAfg50IJE9vbirpBZDSITAdXR9FLHHSJm0DB9BjEjIJMggrCFGku_FGAPFDShD-tYNZQiUsAOa_3_9MhydshPUCvjZas5ShdUzU6CEQbApBFTTmow97TyGOSawDxYemN9AQXWdNDmnJ4fz8lFqsi95hLLVmn0aQ17DhNJGg-B61608-FBXvYKAE60UOeMiN6GytsPZzkKnmuLD3kmxOTIMqjD41FRZhmMpcUKm7UGDqsxY1plTm4cTaE_WFF_Hm7OSBqUn2r3z_qwIcZMCPNgaletkd3ei_YlQnVrVbj-hUbUeZHt0joVwbxS2xqdTkuJwA0jpWJdq3]--></g></svg>