<?xml version="1.0" encoding="us-ascii" standalone="no"?><svg xmlns="http://www.w3.org/2000/svg" xmlns:xlink="http://www.w3.org/1999/xlink" contentStyleType="text/css" height="996px" preserveAspectRatio="none" style="width:1054px;height:996px;background:#FFFFFF;" version="1.1" viewBox="0 0 1054 996" width="1054.5px" zoomAndPan="magnify"><defs/><g><rect fill="#FFFFFF" height="880.2559" style="stroke:#181818;stroke-width:0.5;" width="5" x="24.25" y="56.1211"/><rect fill="#FFFFFF" height="488.749" style="stroke:#181818;stroke-width:0.5;" width="5" x="168.25" y="67.7666"/><rect fill="#FFFFFF" height="224.5518" style="stroke:#181818;stroke-width:0.5;" width="5" x="168.25" y="580.8066"/><rect fill="#FFFFFF" height="115.373" style="stroke:#181818;stroke-width:0.5;" width="5" x="168.25" y="821.0039"/><rect fill="#FFFFFF" height="418.3564" style="stroke:#181818;stroke-width:0.5;" width="5" x="327.25" y="105.2227"/><rect fill="#FFFFFF" height="344.4248" style="stroke:#181818;stroke-width:0.5;" width="5" x="327.25" y="596.4521"/><rect fill="#FFFFFF" height="84.082" style="stroke:#181818;stroke-width:0.5;" width="5" x="329.75" y="836.6494"/><rect fill="#FFFFFF" height="15.6455" style="stroke:#181818;stroke-width:0.5;" width="5" x="402.25" y="120.8682"/><rect fill="#FFFFFF" height="15.6455" style="stroke:#181818;stroke-width:0.5;" width="5" x="402.25" y="612.0977"/><rect fill="#FFFFFF" height="15.6455" style="stroke:#181818;stroke-width:0.5;" width="5" x="454.75" y="152.1592"/><rect fill="#FFFFFF" height="15.6455" style="stroke:#181818;stroke-width:0.5;" width="5" x="454.75" y="643.3887"/><rect fill="#FFFFFF" height="109.7031" style="stroke:#181818;stroke-width:0.5;" width="5" x="501.5" y="183.4502"/><rect fill="#FFFFFF" height="94.3877" style="stroke:#181818;stroke-width:0.5;" width="5" x="540.75" y="679.6797"/><rect fill="#FFFFFF" height="52.791" style="stroke:#181818;stroke-width:0.5;" width="5" x="540.75" y="852.2949"/><rect fill="#FFFFFF" height="14" style="stroke:#181818;stroke-width:0.5;" width="5" x="543.25" y="871.9404"/><rect fill="#FFFFFF" height="44.1211" style="stroke:#181818;stroke-width:0.5;" width="5" x="724.75" y="710.8008"/><rect fill="#FFFFFF" height="14" style="stroke:#181818;stroke-width:0.5;" width="5" x="727.25" y="740.9219"/><rect fill="#FFFFFF" height="194.1348" style="stroke:#181818;stroke-width:0.5;" width="5" x="789.25" y="313.7988"/><rect fill="#FFFFFF" height="14" style="stroke:#181818;stroke-width:0.5;" width="5" x="791.75" y="409.5215"/><rect fill="#FFFFFF" height="73.4121" style="stroke:#181818;stroke-width:0.5;" width="5" x="867.75" y="204.0957"/><rect fill="#FFFFFF" height="15" style="stroke:#181818;stroke-width:0.5;" width="5" x="870.25" y="243.3623"/><rect fill="#FFFFFF" height="15" style="stroke:#181818;stroke-width:0.5;" width="5" x="867.75" y="374.876"/><rect fill="#FFFFFF" height="15" style="stroke:#181818;stroke-width:0.5;" width="5" x="941.75" y="473.7881"/><rect fill="none" height="40.291" style="stroke:#000000;stroke-width:0.75;" width="430.25" x="481.5" y="222.0713"/><rect fill="none" height="139.2031" style="stroke:#000000;stroke-width:0.75;" width="295.75" x="756" y="353.585"/><line style="stroke:#181818;stroke-width:0.25;stroke-dasharray:5.0,5.0;" x1="26.5" x2="26.5" y1="51.1211" y2="945.377"/><line style="stroke:#181818;stroke-width:0.25;stroke-dasharray:5.0,5.0;" x1="170.5" x2="170.5" y1="51.1211" y2="945.377"/><line style="stroke:#181818;stroke-width:0.25;stroke-dasharray:5.0,5.0;" x1="329.5" x2="329.5" y1="87.6719" y2="945.377"/><line style="stroke:#181818;stroke-width:0.25;stroke-dasharray:5.0,5.0;" x1="404.5" x2="404.5" y1="51.1211" y2="945.377"/><line style="stroke:#181818;stroke-width:0.25;stroke-dasharray:5.0,5.0;" x1="457" x2="457" y1="51.1211" y2="945.377"/><line style="stroke:#181818;stroke-width:0.25;stroke-dasharray:5.0,5.0;" x1="504" x2="504" y1="51.1211" y2="945.377"/><line style="stroke:#181818;stroke-width:0.25;stroke-dasharray:5.0,5.0;" x1="543" x2="543" y1="683.5947" y2="945.377"/><line style="stroke:#181818;stroke-width:0.25;stroke-dasharray:5.0,5.0;" x1="727.25" x2="727.25" y1="714.7158" y2="945.377"/><line style="stroke:#181818;stroke-width:0.25;stroke-dasharray:5.0,5.0;" x1="791.5" x2="791.5" y1="313.0586" y2="945.377"/><line style="stroke:#181818;stroke-width:0.25;stroke-dasharray:5.0,5.0;" x1="870.25" x2="870.25" y1="208.0107" y2="945.377"/><line style="stroke:#181818;stroke-width:0.25;stroke-dasharray:5.0,5.0;" x1="944.25" x2="944.25" y1="339.5244" y2="945.377"/><line style="stroke:#181818;stroke-width:0.25;stroke-dasharray:5.0,5.0;" x1="1014.25" x2="1014.25" y1="451.582" y2="945.377"/><text fill="#000000" font-family="sans-serif" font-size="7" lengthAdjust="spacing" textLength="45.5" x="2.5" y="40.0537">Green Spaces</text><text fill="#000000" font-family="sans-serif" font-size="7" lengthAdjust="spacing" textLength="28" x="12.25" y="49.3643">Manager</text><ellipse cx="26.75" cy="6.75" fill="#E3E3E3" rx="4" ry="4" style="stroke:#181818;stroke-width:0.25;"/><path d="M26.75,10.75 L26.75,24.25 M20.25,14.75 L33.25,14.75 M26.75,24.25 L20.25,31.75 M26.75,24.25 L33.25,31.75 " fill="none" style="stroke:#181818;stroke-width:0.25;"/><text fill="#000000" font-family="sans-serif" font-size="7" lengthAdjust="spacing" textLength="45.5" x="2.5" y="952.4307">Green Spaces</text><text fill="#000000" font-family="sans-serif" font-size="7" lengthAdjust="spacing" textLength="28" x="12.25" y="961.7412">Manager</text><ellipse cx="26.75" cy="967.748" fill="#E3E3E3" rx="4" ry="4" style="stroke:#181818;stroke-width:0.25;"/><path d="M26.75,971.748 L26.75,985.248 M20.25,975.748 L33.25,975.748 M26.75,985.248 L20.25,992.748 M26.75,985.248 L33.25,992.748 " fill="none" style="stroke:#181818;stroke-width:0.25;"/><rect fill="#E3E3E3" height="16.3105" rx="1.25" ry="1.25" style="stroke:#181818;stroke-width:0.25;" width="68.5" x="136.5" y="34.3105"/><text fill="#000000" font-family="sans-serif" font-size="7" lengthAdjust="spacing" textLength="61.5" x="140" y="45.3643">:AddAgendaEntryUI</text><rect fill="#E3E3E3" height="16.3105" rx="1.25" ry="1.25" style="stroke:#181818;stroke-width:0.25;" width="68.5" x="136.5" y="944.877"/><text fill="#000000" font-family="sans-serif" font-size="7" lengthAdjust="spacing" textLength="61.5" x="140" y="955.9307">:AddAgendaEntryUI</text><rect fill="#E3E3E3" height="16.3105" rx="1.25" ry="1.25" style="stroke:#181818;stroke-width:0.25;" width="93.5" x="283" y="944.877"/><text fill="#000000" font-family="sans-serif" font-size="7" lengthAdjust="spacing" textLength="86.5" x="286.5" y="955.9307">:AddAgendaEntryController</text><rect fill="#E3E3E3" height="16.3105" rx="1.25" ry="1.25" style="stroke:#181818;stroke-width:0.25;" width="46.5" x="381.5" y="34.3105"/><text fill="#000000" font-family="sans-serif" font-size="7" lengthAdjust="spacing" textLength="39.5" x="385" y="45.3643">Repositories</text><rect fill="#E3E3E3" height="16.3105" rx="1.25" ry="1.25" style="stroke:#181818;stroke-width:0.25;" width="46.5" x="381.5" y="944.877"/><text fill="#000000" font-family="sans-serif" font-size="7" lengthAdjust="spacing" textLength="39.5" x="385" y="955.9307">Repositories</text><rect fill="#E3E3E3" height="25.6211" rx="1.25" ry="1.25" style="stroke:#181818;stroke-width:0.25;" width="48.5" x="433" y="25"/><text fill="#000000" font-family="sans-serif" font-size="7" lengthAdjust="spacing" textLength="37" x="438.75" y="36.0537">repositories</text><text fill="#000000" font-family="sans-serif" font-size="7" lengthAdjust="spacing" textLength="41.5" x="436.5" y="45.3643">:Repositories</text><rect fill="#E3E3E3" height="25.6211" rx="1.25" ry="1.25" style="stroke:#181818;stroke-width:0.25;" width="48.5" x="433" y="944.877"/><text fill="#000000" font-family="sans-serif" font-size="7" lengthAdjust="spacing" textLength="37" x="438.75" y="955.9307">repositories</text><text fill="#000000" font-family="sans-serif" font-size="7" lengthAdjust="spacing" textLength="41.5" x="436.5" y="965.2412">:Repositories</text><rect fill="#E3E3E3" height="25.6211" rx="1.25" ry="1.25" style="stroke:#181818;stroke-width:0.25;" width="35" x="486.5" y="25"/><text fill="#000000" font-family="sans-serif" font-size="7" lengthAdjust="spacing" textLength="26" x="491" y="36.0537">toDoList</text><text fill="#000000" font-family="sans-serif" font-size="7" lengthAdjust="spacing" textLength="28" x="490" y="45.3643">:toDoList</text><rect fill="#E3E3E3" height="25.6211" rx="1.25" ry="1.25" style="stroke:#181818;stroke-width:0.25;" width="35" x="486.5" y="944.877"/><text fill="#000000" font-family="sans-serif" font-size="7" lengthAdjust="spacing" textLength="26" x="491" y="955.9307">toDoList</text><text fill="#000000" font-family="sans-serif" font-size="7" lengthAdjust="spacing" textLength="28" x="490" y="965.2412">:toDoList</text><rect fill="#E3E3E3" height="25.6211" rx="1.25" ry="1.25" style="stroke:#181818;stroke-width:0.25;" width="33.5" x="526.5" y="944.877"/><text fill="#000000" font-family="sans-serif" font-size="7" lengthAdjust="spacing" textLength="24" x="531.25" y="955.9307">agenda</text><text fill="#000000" font-family="sans-serif" font-size="7" lengthAdjust="spacing" textLength="26.5" x="530" y="965.2412">:Agenda</text><rect fill="#E3E3E3" height="25.6211" rx="1.25" ry="1.25" style="stroke:#181818;stroke-width:0.25;" width="50" x="702.25" y="944.877"/><text fill="#000000" font-family="sans-serif" font-size="7" lengthAdjust="spacing" textLength="40.5" x="707" y="955.9307">agendaEntry</text><text fill="#000000" font-family="sans-serif" font-size="7" lengthAdjust="spacing" textLength="43" x="705.75" y="965.2412">:AgendaEntry</text><rect fill="#E3E3E3" height="16.3105" rx="1.25" ry="1.25" style="stroke:#181818;stroke-width:0.25;" width="61.5" x="761" y="944.877"/><text fill="#000000" font-family="sans-serif" font-size="7" lengthAdjust="spacing" textLength="54.5" x="764.5" y="955.9307">:ToDoListMapper</text><rect fill="#E3E3E3" height="25.6211" rx="1.25" ry="1.25" style="stroke:#181818;stroke-width:0.25;" width="73" x="833.75" y="944.877"/><text fill="#000000" font-family="sans-serif" font-size="7" lengthAdjust="spacing" textLength="30.5" x="855" y="955.9307">listEntries</text><text fill="#000000" font-family="sans-serif" font-size="7" lengthAdjust="spacing" textLength="66" x="837.25" y="965.2412">:List&lt;ToDoListEntry&gt;</text><rect fill="#E3E3E3" height="25.6211" rx="1.25" ry="1.25" style="stroke:#181818;stroke-width:0.25;" width="65" x="911.75" y="944.877"/><text fill="#000000" font-family="sans-serif" font-size="7" lengthAdjust="spacing" textLength="37" x="925.75" y="955.9307">toDoListDto</text><text fill="#000000" font-family="sans-serif" font-size="7" lengthAdjust="spacing" textLength="58" x="915.25" y="965.2412">:List&lt;toDoListDto&gt;</text><rect fill="#E3E3E3" height="25.6211" rx="1.25" ry="1.25" style="stroke:#181818;stroke-width:0.25;" width="65" x="981.75" y="944.877"/><text fill="#000000" font-family="sans-serif" font-size="7" lengthAdjust="spacing" textLength="20.5" x="1004" y="955.9307">objDto</text><text fill="#000000" font-family="sans-serif" font-size="7" lengthAdjust="spacing" textLength="58" x="985.25" y="965.2412">:ToDoListEntryDto</text><rect fill="#FFFFFF" height="880.2559" style="stroke:#181818;stroke-width:0.5;" width="5" x="24.25" y="56.1211"/><rect fill="#FFFFFF" height="488.749" style="stroke:#181818;stroke-width:0.5;" width="5" x="168.25" y="67.7666"/><rect fill="#FFFFFF" height="224.5518" style="stroke:#181818;stroke-width:0.5;" width="5" x="168.25" y="580.8066"/><rect fill="#FFFFFF" height="115.373" style="stroke:#181818;stroke-width:0.5;" width="5" x="168.25" y="821.0039"/><rect fill="#FFFFFF" height="418.3564" style="stroke:#181818;stroke-width:0.5;" width="5" x="327.25" y="105.2227"/><rect fill="#FFFFFF" height="344.4248" style="stroke:#181818;stroke-width:0.5;" width="5" x="327.25" y="596.4521"/><rect fill="#FFFFFF" height="84.082" style="stroke:#181818;stroke-width:0.5;" width="5" x="329.75" y="836.6494"/><rect fill="#FFFFFF" height="15.6455" style="stroke:#181818;stroke-width:0.5;" width="5" x="402.25" y="120.8682"/><rect fill="#FFFFFF" height="15.6455" style="stroke:#181818;stroke-width:0.5;" width="5" x="402.25" y="612.0977"/><rect fill="#FFFFFF" height="15.6455" style="stroke:#181818;stroke-width:0.5;" width="5" x="454.75" y="152.1592"/><rect fill="#FFFFFF" height="15.6455" style="stroke:#181818;stroke-width:0.5;" width="5" x="454.75" y="643.3887"/><rect fill="#FFFFFF" height="109.7031" style="stroke:#181818;stroke-width:0.5;" width="5" x="501.5" y="183.4502"/><rect fill="#FFFFFF" height="94.3877" style="stroke:#181818;stroke-width:0.5;" width="5" x="540.75" y="679.6797"/><rect fill="#FFFFFF" height="52.791" style="stroke:#181818;stroke-width:0.5;" width="5" x="540.75" y="852.2949"/><rect fill="#FFFFFF" height="14" style="stroke:#181818;stroke-width:0.5;" width="5" x="543.25" y="871.9404"/><rect fill="#FFFFFF" height="44.1211" style="stroke:#181818;stroke-width:0.5;" width="5" x="724.75" y="710.8008"/><rect fill="#FFFFFF" height="14" style="stroke:#181818;stroke-width:0.5;" width="5" x="727.25" y="740.9219"/><rect fill="#FFFFFF" height="194.1348" style="stroke:#181818;stroke-width:0.5;" width="5" x="789.25" y="313.7988"/><rect fill="#FFFFFF" height="14" style="stroke:#181818;stroke-width:0.5;" width="5" x="791.75" y="409.5215"/><rect fill="#FFFFFF" height="73.4121" style="stroke:#181818;stroke-width:0.5;" width="5" x="867.75" y="204.0957"/><rect fill="#FFFFFF" height="15" style="stroke:#181818;stroke-width:0.5;" width="5" x="870.25" y="243.3623"/><rect fill="#FFFFFF" height="15" style="stroke:#181818;stroke-width:0.5;" width="5" x="867.75" y="374.876"/><rect fill="#FFFFFF" height="15" style="stroke:#181818;stroke-width:0.5;" width="5" x="941.75" y="473.7881"/><polygon fill="#181818" points="162.25,65.7666,167.25,67.7666,162.25,69.7666,164.25,67.7666" style="stroke:#181818;stroke-width:0.5;"/><line style="stroke:#181818;stroke-width:0.5;" x1="29.25" x2="165.25" y1="67.7666" y2="67.7666"/><text fill="#000000" font-family="sans-serif" font-size="6.5" font-weight="bold" lengthAdjust="spacing" textLength="3.5" x="32.75" y="65.1353">1</text><text fill="#000000" font-family="sans-serif" font-size="6.5" lengthAdjust="spacing" textLength="111" x="38.25" y="65.1353">asks to add a new entry to the agenda</text><polygon fill="#181818" points="277,81.4121,282,83.4121,277,85.4121,279,83.4121" style="stroke:#181818;stroke-width:0.5;"/><line style="stroke:#181818;stroke-width:0.5;" x1="173.25" x2="280" y1="83.4121" y2="83.4121"/><text fill="#000000" font-family="sans-serif" font-size="6.5" font-weight="bold" lengthAdjust="spacing" textLength="3.5" x="176.75" y="80.7808">2</text><text fill="#000000" font-family="sans-serif" font-size="6.5" lengthAdjust="spacing" textLength="10.5" x="182.25" y="80.7808">add</text><rect fill="#E3E3E3" height="16.3105" rx="1.25" ry="1.25" style="stroke:#181818;stroke-width:0.25;" width="93.5" x="283" y="71.7666"/><text fill="#000000" font-family="sans-serif" font-size="7" lengthAdjust="spacing" textLength="86.5" x="286.5" y="82.8203">:AddAgendaEntryController</text><polygon fill="#181818" points="321.25,103.2227,326.25,105.2227,321.25,107.2227,323.25,105.2227" style="stroke:#181818;stroke-width:0.5;"/><line style="stroke:#181818;stroke-width:0.5;" x1="173.25" x2="324.25" y1="105.2227" y2="105.2227"/><text fill="#000000" font-family="sans-serif" font-size="6.5" font-weight="bold" lengthAdjust="spacing" textLength="3.5" x="176.75" y="102.5913">3</text><text fill="#000000" font-family="sans-serif" font-size="6.5" lengthAdjust="spacing" textLength="59" x="182.25" y="102.5913">getToDoListEntries()</text><polygon fill="#181818" points="396.25,118.8682,401.25,120.8682,396.25,122.8682,398.25,120.8682" style="stroke:#181818;stroke-width:0.5;"/><line style="stroke:#181818;stroke-width:0.5;" x1="332.25" x2="399.25" y1="120.8682" y2="120.8682"/><text fill="#000000" font-family="sans-serif" font-size="6.5" font-weight="bold" lengthAdjust="spacing" textLength="3.5" x="335.75" y="118.2368">4</text><text fill="#000000" font-family="sans-serif" font-size="6.5" lengthAdjust="spacing" textLength="37.5" x="341.25" y="118.2368">getInstance()</text><polygon fill="#181818" points="337.75,134.5137,332.75,136.5137,337.75,138.5137,335.75,136.5137" style="stroke:#181818;stroke-width:0.5;"/><line style="stroke:#181818;stroke-width:0.5;stroke-dasharray:2.0,2.0;" x1="334.75" x2="404.25" y1="136.5137" y2="136.5137"/><text fill="#000000" font-family="sans-serif" font-size="6.5" font-weight="bold" lengthAdjust="spacing" textLength="3.5" x="340.75" y="133.8823">5</text><text fill="#000000" font-family="sans-serif" font-size="6.5" lengthAdjust="spacing" textLength="33.5" x="346.25" y="133.8823">repositories</text><polygon fill="#181818" points="448.75,150.1592,453.75,152.1592,448.75,154.1592,450.75,152.1592" style="stroke:#181818;stroke-width:0.5;"/><line style="stroke:#181818;stroke-width:0.5;" x1="332.25" x2="451.75" y1="152.1592" y2="152.1592"/><text fill="#000000" font-family="sans-serif" font-size="6.5" font-weight="bold" lengthAdjust="spacing" textLength="3.5" x="335.75" y="149.5278">6</text><text fill="#000000" font-family="sans-serif" font-size="6.5" lengthAdjust="spacing" textLength="38.5" x="341.25" y="149.5278">getToDoList()</text><polygon fill="#181818" points="337.75,165.8047,332.75,167.8047,337.75,169.8047,335.75,167.8047" style="stroke:#181818;stroke-width:0.5;"/><line style="stroke:#181818;stroke-width:0.5;stroke-dasharray:2.0,2.0;" x1="334.75" x2="456.75" y1="167.8047" y2="167.8047"/><text fill="#000000" font-family="sans-serif" font-size="6.5" font-weight="bold" lengthAdjust="spacing" textLength="3.5" x="340.75" y="165.1733">7</text><text fill="#000000" font-family="sans-serif" font-size="6.5" lengthAdjust="spacing" textLength="24" x="346.25" y="165.1733">toDoList</text><polygon fill="#181818" points="495.5,181.4502,500.5,183.4502,495.5,185.4502,497.5,183.4502" style="stroke:#181818;stroke-width:0.5;"/><line style="stroke:#181818;stroke-width:0.5;" x1="332.25" x2="498.5" y1="183.4502" y2="183.4502"/><text fill="#000000" font-family="sans-serif" font-size="6.5" font-weight="bold" lengthAdjust="spacing" textLength="3.5" x="335.75" y="180.8188">8</text><text fill="#000000" font-family="sans-serif" font-size="6.5" lengthAdjust="spacing" textLength="59" x="341.25" y="180.8188">getToDoListEntries()</text><polygon fill="#181818" points="827.75,197.0957,832.75,199.0957,827.75,201.0957,829.75,199.0957" style="stroke:#181818;stroke-width:0.5;"/><line style="stroke:#181818;stroke-width:0.5;stroke-dasharray:2.0,2.0;" x1="506.5" x2="830.75" y1="199.0957" y2="199.0957"/><text fill="#000000" font-family="sans-serif" font-size="6.5" font-weight="bold" lengthAdjust="spacing" textLength="3.5" x="510" y="196.4644">9</text><text fill="#000000" font-family="sans-serif" font-size="6.5" lengthAdjust="spacing" textLength="22" x="515.5" y="196.4644">create()</text><rect fill="#E3E3E3" height="25.6211" rx="1.25" ry="1.25" style="stroke:#181818;stroke-width:0.25;" width="73" x="833.75" y="187.4502"/><text fill="#000000" font-family="sans-serif" font-size="7" lengthAdjust="spacing" textLength="30.5" x="855" y="198.5039">listEntries</text><text fill="#000000" font-family="sans-serif" font-size="7" lengthAdjust="spacing" textLength="66" x="837.25" y="207.8145">:List&lt;ToDoListEntry&gt;</text><path d="M481.5,222.0713 L518,222.0713 L518,226.7168 L513,231.7168 L481.5,231.7168 L481.5,222.0713 " fill="#EEEEEE" style="stroke:#000000;stroke-width:0.75;"/><rect fill="none" height="40.291" style="stroke:#000000;stroke-width:0.75;" width="430.25" x="481.5" y="222.0713"/><text fill="#000000" font-family="sans-serif" font-size="6.5" font-weight="bold" lengthAdjust="spacing" textLength="14" x="489" y="229.5854">loop</text><text fill="#000000" font-family="sans-serif" font-size="5.5" font-weight="bold" lengthAdjust="spacing" textLength="65" x="525.5" y="229.0063">[for each toDoListEntry]</text><polygon fill="#181818" points="864.25,241.3623,869.25,243.3623,864.25,245.3623,866.25,243.3623" style="stroke:#181818;stroke-width:0.5;"/><line style="stroke:#181818;stroke-width:0.5;" x1="506.5" x2="867.25" y1="243.3623" y2="243.3623"/><text fill="#000000" font-family="sans-serif" font-size="6.5" font-weight="bold" lengthAdjust="spacing" textLength="7" x="510" y="240.731">10</text><text fill="#000000" font-family="sans-serif" font-size="6.5" lengthAdjust="spacing" textLength="54" x="519" y="240.731">add(toDoListEntry)</text><polygon fill="#181818" points="512,275.5078,507,277.5078,512,279.5078,510,277.5078" style="stroke:#181818;stroke-width:0.5;"/><line style="stroke:#181818;stroke-width:0.5;stroke-dasharray:2.0,2.0;" x1="509" x2="869.75" y1="277.5078" y2="277.5078"/><text fill="#000000" font-family="sans-serif" font-size="6.5" font-weight="bold" lengthAdjust="spacing" textLength="7" x="515" y="274.8765">11</text><text fill="#000000" font-family="sans-serif" font-size="6.5" lengthAdjust="spacing" textLength="29" x="524" y="274.8765">listEntries</text><polygon fill="#181818" points="337.75,291.1533,332.75,293.1533,337.75,295.1533,335.75,293.1533" style="stroke:#181818;stroke-width:0.5;"/><line style="stroke:#181818;stroke-width:0.5;stroke-dasharray:2.0,2.0;" x1="334.75" x2="503.5" y1="293.1533" y2="293.1533"/><text fill="#000000" font-family="sans-serif" font-size="6.5" font-weight="bold" lengthAdjust="spacing" textLength="7" x="340.75" y="290.522">12</text><text fill="#000000" font-family="sans-serif" font-size="6.5" lengthAdjust="spacing" textLength="29" x="349.75" y="290.522">listEntries</text><polygon fill="#181818" points="755,306.7988,760,308.7988,755,310.7988,757,308.7988" style="stroke:#181818;stroke-width:0.5;"/><line style="stroke:#181818;stroke-width:0.5;" x1="332.25" x2="758" y1="308.7988" y2="308.7988"/><text fill="#000000" font-family="sans-serif" font-size="6.5" font-weight="bold" lengthAdjust="spacing" textLength="7" x="335.75" y="306.1675">13</text><text fill="#000000" font-family="sans-serif" font-size="6.5" lengthAdjust="spacing" textLength="94.5" x="344.75" y="306.1675">toDoListEntriesToDto(listEntries)</text><rect fill="#E3E3E3" height="16.3105" rx="1.25" ry="1.25" style="stroke:#181818;stroke-width:0.25;" width="61.5" x="761" y="297.1533"/><text fill="#000000" font-family="sans-serif" font-size="7" lengthAdjust="spacing" textLength="54.5" x="764.5" y="308.207">:ToDoListMapper</text><polygon fill="#181818" points="905.75,328.6094,910.75,330.6094,905.75,332.6094,907.75,330.6094" style="stroke:#181818;stroke-width:0.5;"/><line style="stroke:#181818;stroke-width:0.5;stroke-dasharray:2.0,2.0;" x1="794.25" x2="908.75" y1="330.6094" y2="330.6094"/><text fill="#000000" font-family="sans-serif" font-size="6.5" font-weight="bold" lengthAdjust="spacing" textLength="7" x="797.75" y="327.978">14</text><text fill="#000000" font-family="sans-serif" font-size="6.5" lengthAdjust="spacing" textLength="22" x="806.75" y="327.978">create()</text><rect fill="#E3E3E3" height="25.6211" rx="1.25" ry="1.25" style="stroke:#181818;stroke-width:0.25;" width="65" x="911.75" y="318.9639"/><text fill="#000000" font-family="sans-serif" font-size="7" lengthAdjust="spacing" textLength="37" x="925.75" y="330.0176">toDoListDto</text><text fill="#000000" font-family="sans-serif" font-size="7" lengthAdjust="spacing" textLength="58" x="915.25" y="339.3281">:List&lt;toDoListDto&gt;</text><path d="M756,353.585 L792.5,353.585 L792.5,358.2305 L787.5,363.2305 L756,363.2305 L756,353.585 " fill="#EEEEEE" style="stroke:#000000;stroke-width:0.75;"/><rect fill="none" height="139.2031" style="stroke:#000000;stroke-width:0.75;" width="295.75" x="756" y="353.585"/><text fill="#000000" font-family="sans-serif" font-size="6.5" font-weight="bold" lengthAdjust="spacing" textLength="14" x="763.5" y="361.0991">loop</text><text fill="#000000" font-family="sans-serif" font-size="5.5" font-weight="bold" lengthAdjust="spacing" textLength="65" x="800" y="360.52">[for each toDoListEntry]</text><polygon fill="#181818" points="861.75,372.876,866.75,374.876,861.75,376.876,863.75,374.876" style="stroke:#181818;stroke-width:0.5;"/><line style="stroke:#181818;stroke-width:0.5;" x1="794.25" x2="864.75" y1="374.876" y2="374.876"/><text fill="#000000" font-family="sans-serif" font-size="6.5" font-weight="bold" lengthAdjust="spacing" textLength="7" x="797.75" y="372.2446">15</text><text fill="#000000" font-family="sans-serif" font-size="6.5" lengthAdjust="spacing" textLength="31" x="806.75" y="372.2446">obj = get(i)</text><line style="stroke:#181818;stroke-width:0.5;" x1="796.75" x2="817.75" y1="405.5215" y2="405.5215"/><line style="stroke:#181818;stroke-width:0.5;" x1="817.75" x2="817.75" y1="405.5215" y2="412.0215"/><line style="stroke:#181818;stroke-width:0.5;" x1="797.25" x2="817.75" y1="412.0215" y2="412.0215"/><polygon fill="#181818" points="802.25,410.0215,797.25,412.0215,802.25,414.0215,800.25,412.0215" style="stroke:#181818;stroke-width:0.5;"/><text fill="#000000" font-family="sans-serif" font-size="6.5" font-weight="bold" lengthAdjust="spacing" textLength="7" x="800.25" y="402.8901">16</text><text fill="#000000" font-family="sans-serif" font-size="6.5" lengthAdjust="spacing" textLength="57.5" x="809.25" y="402.8901">objDto = toDTO(obj)</text><polygon fill="#181818" points="975.75,440.667,980.75,442.667,975.75,444.667,977.75,442.667" style="stroke:#181818;stroke-width:0.5;"/><line style="stroke:#181818;stroke-width:0.5;stroke-dasharray:2.0,2.0;" x1="794.25" x2="978.75" y1="442.667" y2="442.667"/><text fill="#000000" font-family="sans-serif" font-size="6.5" font-weight="bold" lengthAdjust="spacing" textLength="7" x="797.75" y="440.0356">17</text><text fill="#000000" font-family="sans-serif" font-size="6.5" lengthAdjust="spacing" textLength="22" x="806.75" y="440.0356">create()</text><rect fill="#E3E3E3" height="25.6211" rx="1.25" ry="1.25" style="stroke:#181818;stroke-width:0.25;" width="65" x="981.75" y="431.0215"/><text fill="#000000" font-family="sans-serif" font-size="7" lengthAdjust="spacing" textLength="20.5" x="1004" y="442.0752">objDto</text><text fill="#000000" font-family="sans-serif" font-size="7" lengthAdjust="spacing" textLength="58" x="985.25" y="451.3857">:ToDoListEntryDto</text><polygon fill="#181818" points="935.75,471.7881,940.75,473.7881,935.75,475.7881,937.75,473.7881" style="stroke:#181818;stroke-width:0.5;"/><line style="stroke:#181818;stroke-width:0.5;" x1="794.25" x2="938.75" y1="473.7881" y2="473.7881"/><text fill="#000000" font-family="sans-serif" font-size="6.5" font-weight="bold" lengthAdjust="spacing" textLength="7" x="797.75" y="471.1567">18</text><text fill="#000000" font-family="sans-serif" font-size="6.5" lengthAdjust="spacing" textLength="33" x="806.75" y="471.1567">add(objDto)</text><polygon fill="#181818" points="337.75,505.9336,332.75,507.9336,337.75,509.9336,335.75,507.9336" style="stroke:#181818;stroke-width:0.5;"/><line style="stroke:#181818;stroke-width:0.5;stroke-dasharray:2.0,2.0;" x1="334.75" x2="791.25" y1="507.9336" y2="507.9336"/><text fill="#000000" font-family="sans-serif" font-size="6.5" font-weight="bold" lengthAdjust="spacing" textLength="7" x="340.75" y="505.3022">19</text><text fill="#000000" font-family="sans-serif" font-size="6.5" lengthAdjust="spacing" textLength="34" x="349.75" y="505.3022">toDoListDto</text><polygon fill="#181818" points="178.75,521.5791,173.75,523.5791,178.75,525.5791,176.75,523.5791" style="stroke:#181818;stroke-width:0.5;"/><line style="stroke:#181818;stroke-width:0.5;stroke-dasharray:2.0,2.0;" x1="175.75" x2="329.25" y1="523.5791" y2="523.5791"/><text fill="#000000" font-family="sans-serif" font-size="6.5" font-weight="bold" lengthAdjust="spacing" textLength="7" x="181.75" y="520.9478">20</text><text fill="#000000" font-family="sans-serif" font-size="6.5" lengthAdjust="spacing" textLength="34" x="190.75" y="520.9478">toDoListDto</text><polygon fill="#181818" points="34.75,554.5156,29.75,556.5156,34.75,558.5156,32.75,556.5156" style="stroke:#181818;stroke-width:0.5;"/><line style="stroke:#181818;stroke-width:0.5;stroke-dasharray:2.0,2.0;" x1="31.75" x2="170.25" y1="556.5156" y2="556.5156"/><text fill="#000000" font-family="sans-serif" font-size="6.5" font-weight="bold" lengthAdjust="spacing" textLength="7" x="37.75" y="545.2388">21</text><text fill="#000000" font-family="sans-serif" font-size="6.5" lengthAdjust="spacing" textLength="104.5" x="46.75" y="536.5933">shows all the tasks registered in the</text><text fill="#000000" font-family="sans-serif" font-size="6.5" lengthAdjust="spacing" textLength="108.5" x="46.75" y="545.2388">To-Do List and asks you to select the</text><text fill="#000000" font-family="sans-serif" font-size="6.5" lengthAdjust="spacing" textLength="58.5" x="46.75" y="553.8843">one you want to add</text><polygon fill="#181818" points="162.25,578.8066,167.25,580.8066,162.25,582.8066,164.25,580.8066" style="stroke:#181818;stroke-width:0.5;"/><line style="stroke:#181818;stroke-width:0.5;" x1="29.25" x2="165.25" y1="580.8066" y2="580.8066"/><text fill="#000000" font-family="sans-serif" font-size="6.5" font-weight="bold" lengthAdjust="spacing" textLength="7" x="32.75" y="573.8525">22</text><text fill="#000000" font-family="sans-serif" font-size="6.5" lengthAdjust="spacing" textLength="115" x="41.75" y="569.5298">select the desired task and its start and</text><text fill="#000000" font-family="sans-serif" font-size="6.5" lengthAdjust="spacing" textLength="25" x="43.75" y="578.1753">end date</text><polygon fill="#181818" points="321.25,594.4521,326.25,596.4521,321.25,598.4521,323.25,596.4521" style="stroke:#181818;stroke-width:0.5;"/><line style="stroke:#181818;stroke-width:0.5;" x1="173.25" x2="324.25" y1="596.4521" y2="596.4521"/><text fill="#000000" font-family="sans-serif" font-size="6.5" font-weight="bold" lengthAdjust="spacing" textLength="7" x="176.75" y="593.8208">23</text><text fill="#000000" font-family="sans-serif" font-size="6.5" lengthAdjust="spacing" textLength="135.5" x="185.75" y="593.8208">createEntry(toDoListEntry, startDate, endDate)</text><polygon fill="#181818" points="396.25,610.0977,401.25,612.0977,396.25,614.0977,398.25,612.0977" style="stroke:#181818;stroke-width:0.5;"/><line style="stroke:#181818;stroke-width:0.5;" x1="332.25" x2="399.25" y1="612.0977" y2="612.0977"/><text fill="#000000" font-family="sans-serif" font-size="6.5" font-weight="bold" lengthAdjust="spacing" textLength="7" x="335.75" y="609.4663">24</text><text fill="#000000" font-family="sans-serif" font-size="6.5" lengthAdjust="spacing" textLength="37.5" x="344.75" y="609.4663">getInstance()</text><polygon fill="#181818" points="337.75,625.7432,332.75,627.7432,337.75,629.7432,335.75,627.7432" style="stroke:#181818;stroke-width:0.5;"/><line style="stroke:#181818;stroke-width:0.5;stroke-dasharray:2.0,2.0;" x1="334.75" x2="404.25" y1="627.7432" y2="627.7432"/><text fill="#000000" font-family="sans-serif" font-size="6.5" font-weight="bold" lengthAdjust="spacing" textLength="7" x="340.75" y="625.1118">25</text><text fill="#000000" font-family="sans-serif" font-size="6.5" lengthAdjust="spacing" textLength="33.5" x="349.75" y="625.1118">repositories</text><polygon fill="#181818" points="448.75,641.3887,453.75,643.3887,448.75,645.3887,450.75,643.3887" style="stroke:#181818;stroke-width:0.5;"/><line style="stroke:#181818;stroke-width:0.5;" x1="332.25" x2="451.75" y1="643.3887" y2="643.3887"/><text fill="#000000" font-family="sans-serif" font-size="6.5" font-weight="bold" lengthAdjust="spacing" textLength="7" x="335.75" y="640.7573">26</text><text fill="#000000" font-family="sans-serif" font-size="6.5" lengthAdjust="spacing" textLength="35" x="344.75" y="640.7573">getAgenda()</text><polygon fill="#181818" points="337.75,657.0342,332.75,659.0342,337.75,661.0342,335.75,659.0342" style="stroke:#181818;stroke-width:0.5;"/><line style="stroke:#181818;stroke-width:0.5;stroke-dasharray:2.0,2.0;" x1="334.75" x2="456.75" y1="659.0342" y2="659.0342"/><text fill="#000000" font-family="sans-serif" font-size="6.5" font-weight="bold" lengthAdjust="spacing" textLength="7" x="340.75" y="656.4028">27</text><text fill="#000000" font-family="sans-serif" font-size="6.5" lengthAdjust="spacing" textLength="21" x="349.75" y="656.4028">agenda</text><polygon fill="#181818" points="520.5,672.6797,525.5,674.6797,520.5,676.6797,522.5,674.6797" style="stroke:#181818;stroke-width:0.5;"/><line style="stroke:#181818;stroke-width:0.5;" x1="332.25" x2="523.5" y1="674.6797" y2="674.6797"/><text fill="#000000" font-family="sans-serif" font-size="6.5" font-weight="bold" lengthAdjust="spacing" textLength="7" x="335.75" y="672.0483">28</text><text fill="#000000" font-family="sans-serif" font-size="6.5" lengthAdjust="spacing" textLength="135.5" x="344.75" y="672.0483">createEntry(toDoListEntry, startDate, endDate)</text><rect fill="#E3E3E3" height="25.6211" rx="1.25" ry="1.25" style="stroke:#181818;stroke-width:0.25;" width="33.5" x="526.5" y="663.0342"/><text fill="#000000" font-family="sans-serif" font-size="7" lengthAdjust="spacing" textLength="24" x="531.25" y="674.0879">agenda</text><text fill="#000000" font-family="sans-serif" font-size="7" lengthAdjust="spacing" textLength="26.5" x="530" y="683.3984">:Agenda</text><polygon fill="#181818" points="696.25,703.8008,701.25,705.8008,696.25,707.8008,698.25,705.8008" style="stroke:#181818;stroke-width:0.5;"/><line style="stroke:#181818;stroke-width:0.5;" x1="545.75" x2="699.25" y1="705.8008" y2="705.8008"/><text fill="#000000" font-family="sans-serif" font-size="6.5" font-weight="bold" lengthAdjust="spacing" textLength="7" x="549.25" y="703.1694">29</text><text fill="#000000" font-family="sans-serif" font-size="6.5" lengthAdjust="spacing" textLength="135.5" x="558.25" y="703.1694">createEntry(toDoListEntry, startDate, endDate)</text><rect fill="#E3E3E3" height="25.6211" rx="1.25" ry="1.25" style="stroke:#181818;stroke-width:0.25;" width="50" x="702.25" y="694.1553"/><text fill="#000000" font-family="sans-serif" font-size="7" lengthAdjust="spacing" textLength="40.5" x="707" y="705.209">agendaEntry</text><text fill="#000000" font-family="sans-serif" font-size="7" lengthAdjust="spacing" textLength="43" x="705.75" y="714.5195">:AgendaEntry</text><line style="stroke:#181818;stroke-width:0.5;" x1="732.25" x2="753.25" y1="736.9219" y2="736.9219"/><line style="stroke:#181818;stroke-width:0.5;" x1="753.25" x2="753.25" y1="736.9219" y2="743.4219"/><line style="stroke:#181818;stroke-width:0.5;" x1="732.75" x2="753.25" y1="743.4219" y2="743.4219"/><polygon fill="#181818" points="737.75,741.4219,732.75,743.4219,737.75,745.4219,735.75,743.4219" style="stroke:#181818;stroke-width:0.5;"/><text fill="#000000" font-family="sans-serif" font-size="6.5" font-weight="bold" lengthAdjust="spacing" textLength="7" x="735.75" y="734.2905">30</text><text fill="#000000" font-family="sans-serif" font-size="6.5" lengthAdjust="spacing" textLength="43.5" x="744.75" y="734.2905">taskSchedule()</text><polygon fill="#181818" points="337.75,772.0674,332.75,774.0674,337.75,776.0674,335.75,774.0674" style="stroke:#181818;stroke-width:0.5;"/><line style="stroke:#181818;stroke-width:0.5;stroke-dasharray:2.0,2.0;" x1="334.75" x2="542.75" y1="774.0674" y2="774.0674"/><text fill="#000000" font-family="sans-serif" font-size="6.5" font-weight="bold" lengthAdjust="spacing" textLength="7" x="340.75" y="771.436">31</text><text fill="#000000" font-family="sans-serif" font-size="6.5" lengthAdjust="spacing" textLength="36.5" x="349.75" y="771.436">agendaEntry</text><polygon fill="#181818" points="178.75,787.7129,173.75,789.7129,178.75,791.7129,176.75,789.7129" style="stroke:#181818;stroke-width:0.5;"/><line style="stroke:#181818;stroke-width:0.5;stroke-dasharray:2.0,2.0;" x1="175.75" x2="326.75" y1="789.7129" y2="789.7129"/><text fill="#000000" font-family="sans-serif" font-size="6.5" font-weight="bold" lengthAdjust="spacing" textLength="7" x="181.75" y="787.0815">32</text><text fill="#000000" font-family="sans-serif" font-size="6.5" lengthAdjust="spacing" textLength="36.5" x="190.75" y="787.0815">agendaEntry</text><polygon fill="#181818" points="34.75,803.3584,29.75,805.3584,34.75,807.3584,32.75,805.3584" style="stroke:#181818;stroke-width:0.5;"/><line style="stroke:#181818;stroke-width:0.5;stroke-dasharray:2.0,2.0;" x1="31.75" x2="170.25" y1="805.3584" y2="805.3584"/><text fill="#000000" font-family="sans-serif" font-size="6.5" font-weight="bold" lengthAdjust="spacing" textLength="7" x="37.75" y="802.7271">33</text><text fill="#000000" font-family="sans-serif" font-size="6.5" lengthAdjust="spacing" textLength="118" x="46.75" y="802.7271">shows all data and requests confirmation</text><polygon fill="#181818" points="162.25,819.0039,167.25,821.0039,162.25,823.0039,164.25,821.0039" style="stroke:#181818;stroke-width:0.5;"/><line style="stroke:#181818;stroke-width:0.5;" x1="29.25" x2="165.25" y1="821.0039" y2="821.0039"/><text fill="#000000" font-family="sans-serif" font-size="6.5" font-weight="bold" lengthAdjust="spacing" textLength="7" x="32.75" y="818.3726">34</text><text fill="#000000" font-family="sans-serif" font-size="6.5" lengthAdjust="spacing" textLength="39" x="41.75" y="818.3726">confirms data</text><polygon fill="#181818" points="323.75,834.6494,328.75,836.6494,323.75,838.6494,325.75,836.6494" style="stroke:#181818;stroke-width:0.5;"/><line style="stroke:#181818;stroke-width:0.5;" x1="173.25" x2="326.75" y1="836.6494" y2="836.6494"/><text fill="#000000" font-family="sans-serif" font-size="6.5" font-weight="bold" lengthAdjust="spacing" textLength="7" x="176.75" y="834.0181">35</text><text fill="#000000" font-family="sans-serif" font-size="6.5" lengthAdjust="spacing" textLength="52" x="185.75" y="834.0181">addAgendaEntry()</text><polygon fill="#181818" points="534.75,850.2949,539.75,852.2949,534.75,854.2949,536.75,852.2949" style="stroke:#181818;stroke-width:0.5;"/><line style="stroke:#181818;stroke-width:0.5;" x1="334.75" x2="537.75" y1="852.2949" y2="852.2949"/><text fill="#000000" font-family="sans-serif" font-size="6.5" font-weight="bold" lengthAdjust="spacing" textLength="7" x="338.25" y="849.6636">36</text><text fill="#000000" font-family="sans-serif" font-size="6.5" lengthAdjust="spacing" textLength="88.5" x="347.25" y="849.6636">addAgendaEntry(agendaEntry)</text><line style="stroke:#181818;stroke-width:0.5;" x1="548.25" x2="569.25" y1="867.9404" y2="867.9404"/><line style="stroke:#181818;stroke-width:0.5;" x1="569.25" x2="569.25" y1="867.9404" y2="874.4404"/><line style="stroke:#181818;stroke-width:0.5;" x1="548.75" x2="569.25" y1="874.4404" y2="874.4404"/><polygon fill="#181818" points="553.75,872.4404,548.75,874.4404,553.75,876.4404,551.75,874.4404" style="stroke:#181818;stroke-width:0.5;"/><text fill="#000000" font-family="sans-serif" font-size="6.5" font-weight="bold" lengthAdjust="spacing" textLength="7" x="551.75" y="865.3091">37</text><text fill="#000000" font-family="sans-serif" font-size="6.5" lengthAdjust="spacing" textLength="41" x="560.75" y="865.3091">validateEntry()</text><polygon fill="#181818" points="340.25,903.0859,335.25,905.0859,340.25,907.0859,338.25,905.0859" style="stroke:#181818;stroke-width:0.5;"/><line style="stroke:#181818;stroke-width:0.5;stroke-dasharray:2.0,2.0;" x1="337.25" x2="542.75" y1="905.0859" y2="905.0859"/><text fill="#000000" font-family="sans-serif" font-size="6.5" font-weight="bold" lengthAdjust="spacing" textLength="7" x="343.25" y="902.4546">38</text><text fill="#000000" font-family="sans-serif" font-size="6.5" lengthAdjust="spacing" textLength="53" x="352.25" y="902.4546">operation success</text><polygon fill="#181818" points="178.75,918.7314,173.75,920.7314,178.75,922.7314,176.75,920.7314" style="stroke:#181818;stroke-width:0.5;"/><line style="stroke:#181818;stroke-width:0.5;stroke-dasharray:2.0,2.0;" x1="175.75" x2="326.75" y1="920.7314" y2="920.7314"/><text fill="#000000" font-family="sans-serif" font-size="6.5" font-weight="bold" lengthAdjust="spacing" textLength="7" x="181.75" y="918.1001">39</text><text fill="#000000" font-family="sans-serif" font-size="6.5" lengthAdjust="spacing" textLength="53" x="190.75" y="918.1001">operation success</text><polygon fill="#181818" points="32.25,934.377,27.25,936.377,32.25,938.377,30.25,936.377" style="stroke:#181818;stroke-width:0.5;"/><line style="stroke:#181818;stroke-width:0.5;stroke-dasharray:2.0,2.0;" x1="29.25" x2="170.25" y1="936.377" y2="936.377"/><text fill="#000000" font-family="sans-serif" font-size="6.5" font-weight="bold" lengthAdjust="spacing" textLength="7" x="35.25" y="933.7456">40</text><text fill="#000000" font-family="sans-serif" font-size="6.5" lengthAdjust="spacing" textLength="79" x="44.25" y="933.7456">displays operation success</text><!--SRC=[jLVRRk8m47tFLrXzMLgL7q2xbT22AgHI4D27bVhYnYvu6spMDcNv-nrFBhLp8KchpGCYzioPC_OPUsBUX3nGJVTahwIATrhjER7wo2DJp1ne_4QtV6tF2IUQnvRARU8Rc1rbwYJabhpInF0eeaUhv77_mdKKVTi9nichKlP5_OreR9KcL_UQSqdMWCpDioHpAY60lYBKaFlrF09OAs9neDAIgz6OiV6MIqQdqkhpqmpDdcONhNug-5L9ae7-tAmU0liLFoWZW8lW9WJItiop7Fc62BMQBaC7goRgGHWBnlbVDDmi9ek7sNeJMbFa2BOfMRGStqyV9-CwEyobCCOtpsFwk5dzAYt39gCmfuT3bdnEP3vUBgUhq3u1KmUR9kiSl-S86EqE4Pot2pQRhkjpdrYLktj3Tq7uoMOHEgkNtwbV41660ZTCqlawxOXtQZbA92Bmm1yol0Cja16ul1bY5Q6C4KeaFn7kuDoGtN6IhYTw5JYW8Hnm3s00ajF9pOr3Ownk3cQstFfyOU46ruLb0Os2AuRXGMz0yVM4O3DfeA1Yxg7uG85GVGjy_5aop4YEYAzXtuVnTjo2w7GP9Dl43ygXIckwzDZaYcXYKaR86UGAQ5lqW4zHTHLIxYaW7JjFrRZdiUQ0K0Ak1F1heTRIFObI1pZpD84qTyK2eBuRVK9-0RrKa8C0v_eYK2tTImxUXdHnWM9gpjvdFWmtqZjleXuqgh62dSnAimdS0wsNHrbnwKc9eh2Xx425LWsyG2qopCxSHlhfVB1ASDQ5Seo-ggvoiBAsu20cFroD3KGFyVVPlcwiIYD839ORk46EcyK0NblubPQzXMBR9hLiL7upjUpMvLp1FwlkDDcE2ReBiMDsU7Tsgj-QNBFAyYxrw1EBcTPNVbFNWNb0uTNfxbvmX9j-17scEXb2amHlT8itlkPRWEAQCo8aZZ_BZHfE574X29KixGpEwkXQ0SCJQ60pEoKvZfzSEvAs3b69JDuY59t6o8TWt0WNsL71KC8Q0jUvni3GsC8o4mOuNVgEGaHOoE5XVvkYJc3sre6wFrswZhvjnt_gEper7fNE8srw6mcsDnvUpzUdxqYRQw-gUsz8G3JhxYjSq_6FW7YSV3LgJUJqAw4XF4wMEBWI1K6lunrdnwIk8QgDSE4ekaYagrs-NX_budqZjQDUEf5ye9QJ1wgPOgbh_kV83THxhEIhq7jgXP8TZe_Ct21IntE11j-sWrwLdorR1SJBkOTmow85t7UQ25RejGTMonPLzrl15oqkCp77EER6H9_UyMQeJZSH4-QGqBDfm2afm7jrdwx_0000]--></g></svg>