<?xml version="1.0" encoding="us-ascii" standalone="no"?><svg xmlns="http://www.w3.org/2000/svg" xmlns:xlink="http://www.w3.org/1999/xlink" contentStyleType="text/css" height="896.4px" preserveAspectRatio="none" style="width:2137px;height:896px;background:#FFFFFF;" version="1.1" viewBox="0 0 2137 896" width="2137.8px" zoomAndPan="magnify"><defs/><g><!--cluster UI--><g id="cluster_UI"><path d="M1671.9,3.6082 L1680.9,3.6082 A2.25,2.25 0 0 1 1682.4,5.1082 L1686.6,18.3809 L1779.3,18.3809 A1.5,1.5 0 0 1 1780.8,19.8809 L1780.8,62.7082 A1.5,1.5 0 0 1 1779.3,64.2082 L1671.9,64.2082 A1.5,1.5 0 0 1 1670.4,62.7082 L1670.4,5.1082 A1.5,1.5 0 0 1 1671.9,3.6082 " fill="#DDDDDD" style="stroke:#000000;stroke-width:0.8999999999999999;"/><line style="stroke:#000000;stroke-width:0.8999999999999999;" x1="1670.4" x2="1686.6" y1="18.3809" y2="18.3809"/><text fill="#000000" font-family="sans-serif" font-size="8.4" font-weight="bold" lengthAdjust="spacing" textLength="8.4" x="1672.8" y="13.8727">UI</text></g><!--cluster Controller--><g id="cluster_Controller"><path d="M1533.9,84.0082 L1577.1,84.0082 A2.25,2.25 0 0 1 1578.6,85.5082 L1582.8,98.7809 L1917.3,98.7809 A1.5,1.5 0 0 1 1918.8,100.2809 L1918.8,210.3082 A1.5,1.5 0 0 1 1917.3,211.8082 L1533.9,211.8082 A1.5,1.5 0 0 1 1532.4,210.3082 L1532.4,85.5082 A1.5,1.5 0 0 1 1533.9,84.0082 " fill="#DDDDDD" style="stroke:#000000;stroke-width:0.8999999999999999;"/><line style="stroke:#000000;stroke-width:0.8999999999999999;" x1="1532.4" x2="1582.8" y1="98.7809" y2="98.7809"/><text fill="#000000" font-family="sans-serif" font-size="8.4" font-weight="bold" lengthAdjust="spacing" textLength="42.6" x="1534.8" y="94.2727">Controller</text></g><!--cluster Domain--><g id="cluster_Domain"><path d="M5.1,242.4082 L36.9,242.4082 A2.25,2.25 0 0 1 38.4,243.9082 L42.6,257.1809 L1494.9,257.1809 A1.5,1.5 0 0 1 1496.4,258.6809 L1496.4,891.0082 A1.5,1.5 0 0 1 1494.9,892.5082 L5.1,892.5082 A1.5,1.5 0 0 1 3.6,891.0082 L3.6,243.9082 A1.5,1.5 0 0 1 5.1,242.4082 " fill="#DDDDDD" style="stroke:#000000;stroke-width:0.8999999999999999;"/><line style="stroke:#000000;stroke-width:0.8999999999999999;" x1="3.6" x2="42.6" y1="257.1809" y2="257.1809"/><text fill="#000000" font-family="sans-serif" font-size="8.4" font-weight="bold" lengthAdjust="spacing" textLength="31.2" x="6" y="252.6727">Domain</text></g><!--cluster Repository--><g id="cluster_Repository"><path d="M726.3,269.4082 L772.5,269.4082 A2.25,2.25 0 0 1 774,270.9082 L778.2,284.1809 L1480.5,284.1809 A1.5,1.5 0 0 1 1482,285.6809 L1482,513.6082 A1.5,1.5 0 0 1 1480.5,515.1082 L726.3,515.1082 A1.5,1.5 0 0 1 724.8,513.6082 L724.8,270.9082 A1.5,1.5 0 0 1 726.3,269.4082 " fill="#DDDDDD" style="stroke:#000000;stroke-width:0.8999999999999999;"/><line style="stroke:#000000;stroke-width:0.8999999999999999;" x1="724.8" x2="778.2" y1="284.1809" y2="284.1809"/><text fill="#000000" font-family="sans-serif" font-size="8.4" font-weight="bold" lengthAdjust="spacing" textLength="45.6" x="727.2" y="279.6727">Repository</text></g><!--cluster Mapper--><g id="cluster_Mapper"><path d="M19.5,426.6082 L52.5,426.6082 A2.25,2.25 0 0 1 54,428.1082 L58.2,441.3809 L536.7,441.3809 A1.5,1.5 0 0 1 538.2,442.8809 L538.2,507.9082 A1.5,1.5 0 0 1 536.7,509.4082 L19.5,509.4082 A1.5,1.5 0 0 1 18,507.9082 L18,428.1082 A1.5,1.5 0 0 1 19.5,426.6082 " fill="#DDDDDD" style="stroke:#000000;stroke-width:0.8999999999999999;"/><line style="stroke:#000000;stroke-width:0.8999999999999999;" x1="18" x2="58.2" y1="441.3809" y2="441.3809"/><text fill="#000000" font-family="sans-serif" font-size="8.4" font-weight="bold" lengthAdjust="spacing" textLength="32.4" x="20.4" y="436.8727">Mapper</text></g><!--cluster Session--><g id="cluster_Session"><path d="M554.1,291.9082 L588.3,291.9082 A2.25,2.25 0 0 1 589.8,293.4082 L594,306.6809 L708.9,306.6809 A1.5,1.5 0 0 1 710.4,308.1809 L710.4,502.5082 A1.5,1.5 0 0 1 708.9,504.0082 L554.1,504.0082 A1.5,1.5 0 0 1 552.6,502.5082 L552.6,293.4082 A1.5,1.5 0 0 1 554.1,291.9082 " fill="#DDDDDD" style="stroke:#000000;stroke-width:0.8999999999999999;"/><line style="stroke:#000000;stroke-width:0.8999999999999999;" x1="552.6" x2="594" y1="306.6809" y2="306.6809"/><text fill="#000000" font-family="sans-serif" font-size="8.4" font-weight="bold" lengthAdjust="spacing" textLength="33.6" x="555" y="302.1727">Session</text></g><!--cluster DTO--><g id="cluster_DTO"><path d="M185.1,303.0082 L203.1,303.0082 A2.25,2.25 0 0 1 204.6,304.5082 L208.8,317.7809 L389.1,317.7809 A1.5,1.5 0 0 1 390.6,319.2809 L390.6,362.1082 A1.5,1.5 0 0 1 389.1,363.6082 L185.1,363.6082 A1.5,1.5 0 0 1 183.6,362.1082 L183.6,304.5082 A1.5,1.5 0 0 1 185.1,303.0082 " fill="#DDDDDD" style="stroke:#000000;stroke-width:0.8999999999999999;"/><line style="stroke:#000000;stroke-width:0.8999999999999999;" x1="183.6" x2="208.8" y1="317.7809" y2="317.7809"/><text fill="#000000" font-family="sans-serif" font-size="8.4" font-weight="bold" lengthAdjust="spacing" textLength="17.4" x="186" y="313.2727">DTO</text></g><!--class AddAgendaEntryUI--><g id="elem_AddAgendaEntryUI"><rect codeLine="7" fill="#F1F1F1" height="28.8" id="AddAgendaEntryUI" rx="1.5" ry="1.5" style="stroke:#181818;stroke-width:0.3;" width="90.6" x="1680.3" y="25.8082"/><ellipse cx="1689.3" cy="35.4082" fill="#ADD1B2" rx="6.6" ry="6.6" style="stroke:#181818;stroke-width:0.6;"/><path d="M1690.9594,32.9332 Q1691.0531,32.802 1691.1656,32.7363 Q1691.2781,32.6707 1691.4094,32.6707 Q1691.6344,32.6707 1691.775,32.8301 Q1691.9156,32.9801 1691.9156,33.3457 L1691.9156,34.2176 Q1691.9156,34.5832 1691.775,34.7426 Q1691.6344,34.902 1691.4094,34.902 Q1691.2031,34.902 1691.0813,34.7801 Q1690.9594,34.6676 1690.8938,34.3582 Q1690.8656,34.1426 1690.7531,34.0301 Q1690.5562,33.8051 1690.1906,33.6738 Q1689.825,33.5426 1689.45,33.5426 Q1688.9906,33.5426 1688.6063,33.7395 Q1688.2313,33.9363 1687.9312,34.3863 Q1687.6406,34.8363 1687.6406,35.4551 L1687.6406,36.1113 Q1687.6406,36.852 1688.175,37.3488 Q1688.7094,37.8363 1689.6656,37.8363 Q1690.2281,37.8363 1690.6219,37.6863 Q1690.8563,37.5926 1691.1094,37.3301 Q1691.2688,37.1707 1691.3531,37.1238 Q1691.4469,37.077 1691.5688,37.077 Q1691.7656,37.077 1691.9156,37.2363 Q1692.075,37.3863 1692.075,37.5926 Q1692.075,37.7988 1691.8687,38.0426 Q1691.5688,38.3895 1691.0906,38.5863 Q1690.4438,38.8582 1689.6656,38.8582 Q1688.7563,38.8582 1688.0344,38.4832 Q1687.4438,38.1832 1687.0313,37.5457 Q1686.6187,36.8988 1686.6187,36.1301 L1686.6187,35.4363 Q1686.6187,34.6395 1686.9844,33.9551 Q1687.3594,33.2613 1688.0156,32.8957 Q1688.6719,32.5207 1689.4125,32.5207 Q1689.8531,32.5207 1690.2375,32.6238 Q1690.6313,32.7176 1690.9594,32.9332 Z " fill="#000000"/><text fill="#000000" font-family="sans-serif" font-size="8.4" lengthAdjust="spacing" textLength="71.4" x="1697.7" y="38.8863">AddAgendaEntryUI</text><line style="stroke:#181818;stroke-width:0.3;" x1="1680.9" x2="1770.3" y1="45.0082" y2="45.0082"/><line style="stroke:#181818;stroke-width:0.3;" x1="1680.9" x2="1770.3" y1="49.8082" y2="49.8082"/></g><!--class AddAgendaEntryController--><g id="elem_AddAgendaEntryController"><rect codeLine="12" fill="#F1F1F1" height="95.8359" id="AddAgendaEntryController" rx="1.5" ry="1.5" style="stroke:#181818;stroke-width:0.3;" width="366.6" x="1542.3" y="106.2082"/><ellipse cx="1672.35" cy="115.8082" fill="#ADD1B2" rx="6.6" ry="6.6" style="stroke:#181818;stroke-width:0.6;"/><path d="M1674.0094,113.3332 Q1674.1031,113.202 1674.2156,113.1363 Q1674.3281,113.0707 1674.4594,113.0707 Q1674.6844,113.0707 1674.825,113.2301 Q1674.9656,113.3801 1674.9656,113.7457 L1674.9656,114.6176 Q1674.9656,114.9832 1674.825,115.1426 Q1674.6844,115.302 1674.4594,115.302 Q1674.2531,115.302 1674.1313,115.1801 Q1674.0094,115.0676 1673.9438,114.7582 Q1673.9156,114.5426 1673.8031,114.4301 Q1673.6063,114.2051 1673.2406,114.0738 Q1672.875,113.9426 1672.5,113.9426 Q1672.0406,113.9426 1671.6563,114.1395 Q1671.2813,114.3363 1670.9813,114.7863 Q1670.6906,115.2363 1670.6906,115.8551 L1670.6906,116.5113 Q1670.6906,117.252 1671.225,117.7488 Q1671.7594,118.2363 1672.7156,118.2363 Q1673.2781,118.2363 1673.6719,118.0863 Q1673.9063,117.9926 1674.1594,117.7301 Q1674.3188,117.5707 1674.4031,117.5238 Q1674.4969,117.477 1674.6187,117.477 Q1674.8156,117.477 1674.9656,117.6363 Q1675.125,117.7863 1675.125,117.9926 Q1675.125,118.1988 1674.9188,118.4426 Q1674.6187,118.7895 1674.1406,118.9863 Q1673.4937,119.2582 1672.7156,119.2582 Q1671.8062,119.2582 1671.0844,118.8832 Q1670.4937,118.5832 1670.0813,117.9457 Q1669.6688,117.2988 1669.6688,116.5301 L1669.6688,115.8363 Q1669.6688,115.0395 1670.0344,114.3551 Q1670.4094,113.6613 1671.0656,113.2957 Q1671.7219,112.9207 1672.4625,112.9207 Q1672.9031,112.9207 1673.2875,113.0238 Q1673.6812,113.1176 1674.0094,113.3332 Z " fill="#000000"/><text fill="#000000" font-family="sans-serif" font-size="8.4" lengthAdjust="spacing" textLength="101.4" x="1684.65" y="119.2863">AddAgendaEntryController</text><line style="stroke:#181818;stroke-width:0.3;" x1="1542.9" x2="1908.3" y1="125.4082" y2="125.4082"/><line style="stroke:#181818;stroke-width:0.3;" x1="1542.9" x2="1908.3" y1="130.2082" y2="130.2082"/><text fill="#000000" font-family="sans-serif" font-size="8.4" lengthAdjust="spacing" textLength="359.4" x="1545.9" y="141.6727">+AddAgendaEntryController(collaboratorRepository, greenSpaceRepository, toDoList, agenda)</text><text fill="#000000" font-family="sans-serif" font-size="8.4" lengthAdjust="spacing" textLength="119.4" x="1545.9" y="152.8453">+getCollaboratorFromSession()</text><text fill="#000000" font-family="sans-serif" font-size="8.4" lengthAdjust="spacing" textLength="83.4" x="1545.9" y="164.018">+getToDoListEntries()</text><text fill="#000000" font-family="sans-serif" font-size="8.4" lengthAdjust="spacing" textLength="60" x="1545.9" y="175.1906">+toDomain(Dto)</text><text fill="#000000" font-family="sans-serif" font-size="8.4" lengthAdjust="spacing" textLength="211.8" x="1545.9" y="186.3633">+createAgendaEntry(toDoListEntry, startDate, endDate)</text><text fill="#000000" font-family="sans-serif" font-size="8.4" lengthAdjust="spacing" textLength="123" x="1545.9" y="197.5359">+addAgendaEntry(agendaEntry)</text></g><!--class Entry--><g id="elem_Entry"><rect codeLine="52" fill="#F1F1F1" height="51.1453" id="Entry" rx="1.5" ry="1.5" style="stroke:#181818;stroke-width:0.3;" width="111.6" x="556.8" y="621.3082"/><ellipse cx="600.15" cy="630.9082" fill="#ADD1B2" rx="6.6" ry="6.6" style="stroke:#181818;stroke-width:0.6;"/><path d="M601.8094,628.4332 Q601.9031,628.302 602.0156,628.2363 Q602.1281,628.1707 602.2594,628.1707 Q602.4844,628.1707 602.625,628.3301 Q602.7656,628.4801 602.7656,628.8457 L602.7656,629.7176 Q602.7656,630.0832 602.625,630.2426 Q602.4844,630.402 602.2594,630.402 Q602.0531,630.402 601.9313,630.2801 Q601.8094,630.1676 601.7438,629.8582 Q601.7156,629.6426 601.6031,629.5301 Q601.4063,629.3051 601.0406,629.1738 Q600.675,629.0426 600.3,629.0426 Q599.8406,629.0426 599.4563,629.2395 Q599.0813,629.4363 598.7813,629.8863 Q598.4906,630.3363 598.4906,630.9551 L598.4906,631.6113 Q598.4906,632.352 599.025,632.8488 Q599.5594,633.3363 600.5156,633.3363 Q601.0781,633.3363 601.4719,633.1863 Q601.7063,633.0926 601.9594,632.8301 Q602.1188,632.6707 602.2031,632.6238 Q602.2969,632.577 602.4187,632.577 Q602.6156,632.577 602.7656,632.7363 Q602.925,632.8863 602.925,633.0926 Q602.925,633.2988 602.7188,633.5426 Q602.4187,633.8895 601.9406,634.0863 Q601.2937,634.3582 600.5156,634.3582 Q599.6062,634.3582 598.8844,633.9832 Q598.2937,633.6832 597.8813,633.0457 Q597.4688,632.3988 597.4688,631.6301 L597.4688,630.9363 Q597.4688,630.1395 597.8344,629.4551 Q598.2094,628.7613 598.8656,628.3957 Q599.5219,628.0207 600.2625,628.0207 Q600.7031,628.0207 601.0875,628.1238 Q601.4812,628.2176 601.8094,628.4332 Z " fill="#000000"/><text fill="#000000" font-family="sans-serif" font-size="8.4" lengthAdjust="spacing" textLength="19.8" x="612.45" y="634.3863">Entry</text><line style="stroke:#181818;stroke-width:0.3;" x1="557.4" x2="667.8" y1="640.5082" y2="640.5082"/><text fill="#000000" font-family="sans-serif" font-size="8.4" lengthAdjust="spacing" textLength="44.4" x="560.4" y="651.9727">-task : Task</text><text fill="#000000" font-family="sans-serif" font-size="8.4" lengthAdjust="spacing" textLength="104.4" x="560.4" y="663.1453">-greenSpace : GreenSpace</text><line style="stroke:#181818;stroke-width:0.3;" x1="557.4" x2="667.8" y1="667.6535" y2="667.6535"/></g><!--class AgendaEntry--><g id="elem_AgendaEntry"><rect codeLine="57" fill="#F1F1F1" height="95.8359" id="AgendaEntry" rx="1.5" ry="1.5" style="stroke:#181818;stroke-width:0.3;" width="261.6" x="508.8" y="786.9082"/><ellipse cx="612.45" cy="796.5082" fill="#ADD1B2" rx="6.6" ry="6.6" style="stroke:#181818;stroke-width:0.6;"/><path d="M614.1094,794.0332 Q614.2031,793.902 614.3156,793.8363 Q614.4281,793.7707 614.5594,793.7707 Q614.7844,793.7707 614.925,793.9301 Q615.0656,794.0801 615.0656,794.4457 L615.0656,795.3176 Q615.0656,795.6832 614.925,795.8426 Q614.7844,796.002 614.5594,796.002 Q614.3531,796.002 614.2312,795.8801 Q614.1094,795.7676 614.0437,795.4582 Q614.0156,795.2426 613.9031,795.1301 Q613.7063,794.9051 613.3406,794.7738 Q612.975,794.6426 612.6,794.6426 Q612.1406,794.6426 611.7563,794.8395 Q611.3813,795.0363 611.0813,795.4863 Q610.7906,795.9363 610.7906,796.5551 L610.7906,797.2113 Q610.7906,797.952 611.325,798.4488 Q611.8594,798.9363 612.8156,798.9363 Q613.3781,798.9363 613.7719,798.7863 Q614.0063,798.6926 614.2594,798.4301 Q614.4187,798.2707 614.5031,798.2238 Q614.5969,798.177 614.7188,798.177 Q614.9156,798.177 615.0656,798.3363 Q615.225,798.4863 615.225,798.6926 Q615.225,798.8988 615.0188,799.1426 Q614.7188,799.4895 614.2406,799.6863 Q613.5938,799.9582 612.8156,799.9582 Q611.9063,799.9582 611.1844,799.5832 Q610.5938,799.2832 610.1813,798.6457 Q609.7688,797.9988 609.7688,797.2301 L609.7688,796.5363 Q609.7688,795.7395 610.1344,795.0551 Q610.5094,794.3613 611.1656,793.9957 Q611.8219,793.6207 612.5625,793.6207 Q613.0031,793.6207 613.3875,793.7238 Q613.7813,793.8176 614.1094,794.0332 Z " fill="#000000"/><text fill="#000000" font-family="sans-serif" font-size="8.4" lengthAdjust="spacing" textLength="49.2" x="624.75" y="799.9863">AgendaEntry</text><line style="stroke:#181818;stroke-width:0.3;" x1="509.4" x2="769.8" y1="806.1082" y2="806.1082"/><text fill="#000000" font-family="sans-serif" font-size="8.4" lengthAdjust="spacing" textLength="63" x="512.4" y="817.5727">-startDate : Date</text><text fill="#000000" font-family="sans-serif" font-size="8.4" lengthAdjust="spacing" textLength="60.6" x="512.4" y="828.7453">-endDate : Date</text><text fill="#000000" font-family="sans-serif" font-size="8.4" lengthAdjust="spacing" textLength="54" x="512.4" y="839.918">-status : enum</text><line style="stroke:#181818;stroke-width:0.3;" x1="509.4" x2="769.8" y1="844.4262" y2="844.4262"/><text fill="#000000" font-family="sans-serif" font-size="8.4" lengthAdjust="spacing" textLength="254.4" x="512.4" y="855.8906">+createEntry(task, greenSpace, startDate, endDate) : AgendaEntry</text><text fill="#000000" font-family="sans-serif" font-size="8.4" lengthAdjust="spacing" textLength="97.8" x="512.4" y="867.0633">+validateEntry() : boolean</text><text fill="#000000" font-family="sans-serif" font-size="8.4" lengthAdjust="spacing" textLength="84.6" x="512.4" y="878.2359">+taskSchedule() : void</text></g><!--class GreenSpace--><g id="elem_GreenSpace"><rect codeLine="66" fill="#F1F1F1" height="84.6633" id="GreenSpace" rx="1.5" ry="1.5" style="stroke:#181818;stroke-width:0.3;" width="165.6" x="883.2" y="604.5082"/><ellipse cx="939.45" cy="614.1082" fill="#ADD1B2" rx="6.6" ry="6.6" style="stroke:#181818;stroke-width:0.6;"/><path d="M941.1094,611.6332 Q941.2031,611.502 941.3156,611.4363 Q941.4281,611.3707 941.5594,611.3707 Q941.7844,611.3707 941.925,611.5301 Q942.0656,611.6801 942.0656,612.0457 L942.0656,612.9176 Q942.0656,613.2832 941.925,613.4426 Q941.7844,613.602 941.5594,613.602 Q941.3531,613.602 941.2312,613.4801 Q941.1094,613.3676 941.0437,613.0582 Q941.0156,612.8426 940.9031,612.7301 Q940.7063,612.5051 940.3406,612.3738 Q939.975,612.2426 939.6,612.2426 Q939.1406,612.2426 938.7562,612.4395 Q938.3812,612.6363 938.0813,613.0863 Q937.7906,613.5363 937.7906,614.1551 L937.7906,614.8113 Q937.7906,615.552 938.325,616.0488 Q938.8594,616.5363 939.8156,616.5363 Q940.3781,616.5363 940.7719,616.3863 Q941.0062,616.2926 941.2594,616.0301 Q941.4187,615.8707 941.5031,615.8238 Q941.5969,615.777 941.7188,615.777 Q941.9156,615.777 942.0656,615.9363 Q942.225,616.0863 942.225,616.2926 Q942.225,616.4988 942.0188,616.7426 Q941.7188,617.0895 941.2406,617.2863 Q940.5938,617.5582 939.8156,617.5582 Q938.9063,617.5582 938.1844,617.1832 Q937.5938,616.8832 937.1813,616.2457 Q936.7688,615.5988 936.7688,614.8301 L936.7688,614.1363 Q936.7688,613.3395 937.1344,612.6551 Q937.5094,611.9613 938.1656,611.5957 Q938.8219,611.2207 939.5625,611.2207 Q940.0031,611.2207 940.3875,611.3238 Q940.7813,611.4176 941.1094,611.6332 Z " fill="#000000"/><text fill="#000000" font-family="sans-serif" font-size="8.4" lengthAdjust="spacing" textLength="48" x="951.75" y="617.5863">GreenSpace</text><line style="stroke:#181818;stroke-width:0.3;" x1="883.8" x2="1048.2" y1="623.7082" y2="623.7082"/><text fill="#000000" font-family="sans-serif" font-size="8.4" lengthAdjust="spacing" textLength="53.4" x="886.8" y="635.1727">-name : String</text><text fill="#000000" font-family="sans-serif" font-size="8.4" lengthAdjust="spacing" textLength="47.4" x="886.8" y="646.3453">-type : enum</text><text fill="#000000" font-family="sans-serif" font-size="8.4" lengthAdjust="spacing" textLength="53.4" x="886.8" y="657.518">-area : double</text><text fill="#000000" font-family="sans-serif" font-size="8.4" lengthAdjust="spacing" textLength="63" x="886.8" y="668.6906">-address : String</text><line style="stroke:#181818;stroke-width:0.3;" x1="883.8" x2="1048.2" y1="673.1988" y2="673.1988"/><text fill="#000000" font-family="sans-serif" font-size="8.4" lengthAdjust="spacing" textLength="158.4" x="886.8" y="684.6633">+GreenSpace(name, type, area, address)</text></g><!--class Task--><g id="elem_Task"><rect codeLine="74" fill="#F1F1F1" height="84.6633" id="Task" rx="1.5" ry="1.5" style="stroke:#181818;stroke-width:0.3;" width="172.8" x="689.4" y="604.5082"/><ellipse cx="763.95" cy="614.1082" fill="#ADD1B2" rx="6.6" ry="6.6" style="stroke:#181818;stroke-width:0.6;"/><path d="M765.6094,611.6332 Q765.7031,611.502 765.8156,611.4363 Q765.9281,611.3707 766.0594,611.3707 Q766.2844,611.3707 766.425,611.5301 Q766.5656,611.6801 766.5656,612.0457 L766.5656,612.9176 Q766.5656,613.2832 766.425,613.4426 Q766.2844,613.602 766.0594,613.602 Q765.8531,613.602 765.7312,613.4801 Q765.6094,613.3676 765.5437,613.0582 Q765.5156,612.8426 765.4031,612.7301 Q765.2063,612.5051 764.8406,612.3738 Q764.475,612.2426 764.1,612.2426 Q763.6406,612.2426 763.2563,612.4395 Q762.8813,612.6363 762.5813,613.0863 Q762.2906,613.5363 762.2906,614.1551 L762.2906,614.8113 Q762.2906,615.552 762.825,616.0488 Q763.3594,616.5363 764.3156,616.5363 Q764.8781,616.5363 765.2719,616.3863 Q765.5063,616.2926 765.7594,616.0301 Q765.9187,615.8707 766.0031,615.8238 Q766.0969,615.777 766.2188,615.777 Q766.4156,615.777 766.5656,615.9363 Q766.725,616.0863 766.725,616.2926 Q766.725,616.4988 766.5188,616.7426 Q766.2188,617.0895 765.7406,617.2863 Q765.0938,617.5582 764.3156,617.5582 Q763.4063,617.5582 762.6844,617.1832 Q762.0938,616.8832 761.6813,616.2457 Q761.2688,615.5988 761.2688,614.8301 L761.2688,614.1363 Q761.2688,613.3395 761.6344,612.6551 Q762.0094,611.9613 762.6656,611.5957 Q763.3219,611.2207 764.0625,611.2207 Q764.5031,611.2207 764.8875,611.3238 Q765.2813,611.4176 765.6094,611.6332 Z " fill="#000000"/><text fill="#000000" font-family="sans-serif" font-size="8.4" lengthAdjust="spacing" textLength="18.6" x="776.25" y="617.5863">Task</text><line style="stroke:#181818;stroke-width:0.3;" x1="690" x2="861.6" y1="623.7082" y2="623.7082"/><text fill="#000000" font-family="sans-serif" font-size="8.4" lengthAdjust="spacing" textLength="73.8" x="693" y="635.1727">-description : String</text><text fill="#000000" font-family="sans-serif" font-size="8.4" lengthAdjust="spacing" textLength="50.4" x="693" y="646.3453">-team : Team</text><text fill="#000000" font-family="sans-serif" font-size="8.4" lengthAdjust="spacing" textLength="91.2" x="693" y="657.518">-vehicles : List&lt;Vehicle&gt;</text><text fill="#000000" font-family="sans-serif" font-size="8.4" lengthAdjust="spacing" textLength="59.4" x="693" y="668.6906">-duration : Date</text><line style="stroke:#181818;stroke-width:0.3;" x1="690" x2="861.6" y1="673.1988" y2="673.1988"/><text fill="#000000" font-family="sans-serif" font-size="8.4" lengthAdjust="spacing" textLength="165.6" x="693" y="684.6633">+Task(description, team, vehicles, duration)</text></g><!--class ToDoListEntry--><g id="elem_ToDoListEntry"><rect codeLine="82" fill="#F1F1F1" height="73.4906" id="ToDoListEntry" rx="1.5" ry="1.5" style="stroke:#181818;stroke-width:0.3;" width="138.6" x="846.3" y="798.3082"/><ellipse cx="886.05" cy="807.9082" fill="#ADD1B2" rx="6.6" ry="6.6" style="stroke:#181818;stroke-width:0.6;"/><path d="M887.7094,805.4332 Q887.8031,805.302 887.9156,805.2363 Q888.0281,805.1707 888.1594,805.1707 Q888.3844,805.1707 888.525,805.3301 Q888.6656,805.4801 888.6656,805.8457 L888.6656,806.7176 Q888.6656,807.0832 888.525,807.2426 Q888.3844,807.402 888.1594,807.402 Q887.9531,807.402 887.8313,807.2801 Q887.7094,807.1676 887.6438,806.8582 Q887.6156,806.6426 887.5031,806.5301 Q887.3063,806.3051 886.9406,806.1738 Q886.575,806.0426 886.2,806.0426 Q885.7406,806.0426 885.3562,806.2395 Q884.9812,806.4363 884.6813,806.8863 Q884.3906,807.3363 884.3906,807.9551 L884.3906,808.6113 Q884.3906,809.352 884.925,809.8488 Q885.4594,810.3363 886.4156,810.3363 Q886.9781,810.3363 887.3719,810.1863 Q887.6062,810.0926 887.8594,809.8301 Q888.0188,809.6707 888.1031,809.6238 Q888.1969,809.577 888.3188,809.577 Q888.5156,809.577 888.6656,809.7363 Q888.825,809.8863 888.825,810.0926 Q888.825,810.2988 888.6188,810.5426 Q888.3188,810.8895 887.8406,811.0863 Q887.1938,811.3582 886.4156,811.3582 Q885.5063,811.3582 884.7844,810.9832 Q884.1938,810.6832 883.7813,810.0457 Q883.3688,809.3988 883.3688,808.6301 L883.3688,807.9363 Q883.3688,807.1395 883.7344,806.4551 Q884.1094,805.7613 884.7656,805.3957 Q885.4219,805.0207 886.1625,805.0207 Q886.6031,805.0207 886.9875,805.1238 Q887.3813,805.2176 887.7094,805.4332 Z " fill="#000000"/><text fill="#000000" font-family="sans-serif" font-size="8.4" lengthAdjust="spacing" textLength="54" x="898.35" y="811.3863">ToDoListEntry</text><line style="stroke:#181818;stroke-width:0.3;" x1="846.9" x2="984.3" y1="817.5082" y2="817.5082"/><text fill="#000000" font-family="sans-serif" font-size="8.4" lengthAdjust="spacing" textLength="44.4" x="849.9" y="828.9727">-task : Task</text><text fill="#000000" font-family="sans-serif" font-size="8.4" lengthAdjust="spacing" textLength="104.4" x="849.9" y="840.1453">-greenSpace : GreenSpace</text><text fill="#000000" font-family="sans-serif" font-size="8.4" lengthAdjust="spacing" textLength="57" x="849.9" y="851.318">-priority : enum</text><line style="stroke:#181818;stroke-width:0.3;" x1="846.9" x2="984.3" y1="855.8262" y2="855.8262"/><text fill="#000000" font-family="sans-serif" font-size="8.4" lengthAdjust="spacing" textLength="131.4" x="849.9" y="867.2906">+ToDoListEntry(task, greenSpace)</text></g><!--class Collaborator--><g id="elem_Collaborator"><rect codeLine="89" fill="#F1F1F1" height="185.2172" id="Collaborator" rx="1.5" ry="1.5" style="stroke:#181818;stroke-width:0.3;" width="360.6" x="1070.1" y="554.1082"/><ellipse cx="1224.45" cy="563.7082" fill="#ADD1B2" rx="6.6" ry="6.6" style="stroke:#181818;stroke-width:0.6;"/><path d="M1226.1094,561.2332 Q1226.2031,561.102 1226.3156,561.0363 Q1226.4281,560.9707 1226.5594,560.9707 Q1226.7844,560.9707 1226.925,561.1301 Q1227.0656,561.2801 1227.0656,561.6457 L1227.0656,562.5176 Q1227.0656,562.8832 1226.925,563.0426 Q1226.7844,563.202 1226.5594,563.202 Q1226.3531,563.202 1226.2313,563.0801 Q1226.1094,562.9676 1226.0438,562.6582 Q1226.0156,562.4426 1225.9031,562.3301 Q1225.7063,562.1051 1225.3406,561.9738 Q1224.975,561.8426 1224.6,561.8426 Q1224.1406,561.8426 1223.7563,562.0395 Q1223.3813,562.2363 1223.0813,562.6863 Q1222.7906,563.1363 1222.7906,563.7551 L1222.7906,564.4113 Q1222.7906,565.152 1223.325,565.6488 Q1223.8594,566.1363 1224.8156,566.1363 Q1225.3781,566.1363 1225.7719,565.9863 Q1226.0063,565.8926 1226.2594,565.6301 Q1226.4188,565.4707 1226.5031,565.4238 Q1226.5969,565.377 1226.7188,565.377 Q1226.9156,565.377 1227.0656,565.5363 Q1227.225,565.6863 1227.225,565.8926 Q1227.225,566.0988 1227.0188,566.3426 Q1226.7188,566.6895 1226.2406,566.8863 Q1225.5938,567.1582 1224.8156,567.1582 Q1223.9063,567.1582 1223.1844,566.7832 Q1222.5938,566.4832 1222.1812,565.8457 Q1221.7688,565.1988 1221.7688,564.4301 L1221.7688,563.7363 Q1221.7688,562.9395 1222.1344,562.2551 Q1222.5094,561.5613 1223.1656,561.1957 Q1223.8219,560.8207 1224.5625,560.8207 Q1225.0031,560.8207 1225.3875,560.9238 Q1225.7813,561.0176 1226.1094,561.2332 Z " fill="#000000"/><text fill="#000000" font-family="sans-serif" font-size="8.4" lengthAdjust="spacing" textLength="46.8" x="1236.75" y="567.1863">Collaborator</text><line style="stroke:#181818;stroke-width:0.3;" x1="1070.7" x2="1430.1" y1="573.3082" y2="573.3082"/><text fill="#000000" font-family="sans-serif" font-size="8.4" lengthAdjust="spacing" textLength="53.4" x="1073.7" y="584.7727">-name : String</text><text fill="#000000" font-family="sans-serif" font-size="8.4" lengthAdjust="spacing" textLength="63" x="1073.7" y="595.9453">-birthDate : Date</text><text fill="#000000" font-family="sans-serif" font-size="8.4" lengthAdjust="spacing" textLength="84" x="1073.7" y="607.118">-admissionDate : Date</text><text fill="#000000" font-family="sans-serif" font-size="8.4" lengthAdjust="spacing" textLength="63" x="1073.7" y="618.2906">-address : String</text><text fill="#000000" font-family="sans-serif" font-size="8.4" lengthAdjust="spacing" textLength="57" x="1073.7" y="629.4633">-mobile : String</text><text fill="#000000" font-family="sans-serif" font-size="8.4" lengthAdjust="spacing" textLength="52.2" x="1073.7" y="640.6359">-email : String</text><text fill="#000000" font-family="sans-serif" font-size="8.4" lengthAdjust="spacing" textLength="94.8" x="1073.7" y="651.8086">-taxPayerNumber : String</text><text fill="#000000" font-family="sans-serif" font-size="8.4" lengthAdjust="spacing" textLength="95.4" x="1073.7" y="662.9812">-idDocumentType : enum</text><text fill="#000000" font-family="sans-serif" font-size="8.4" lengthAdjust="spacing" textLength="106.8" x="1073.7" y="674.1539">-idDocumentNumber : String</text><text fill="#000000" font-family="sans-serif" font-size="8.4" lengthAdjust="spacing" textLength="34.8" x="1073.7" y="685.3266">-job : Job</text><text fill="#000000" font-family="sans-serif" font-size="8.4" lengthAdjust="spacing" textLength="74.4" x="1073.7" y="696.4992">-skillSet : List&lt;Skill&gt;</text><text fill="#000000" font-family="sans-serif" font-size="8.4" lengthAdjust="spacing" textLength="118.8" x="1073.7" y="707.6719">-typeCollaboratorEmails : enum</text><line style="stroke:#181818;stroke-width:0.3;" x1="1070.7" x2="1430.1" y1="712.1801" y2="712.1801"/><text fill="#000000" font-family="sans-serif" font-size="8.4" lengthAdjust="spacing" textLength="267.6" x="1073.7" y="723.6445">+Collaborator(name, birthDate, admissionDate, address, mobile, email,</text><text fill="#000000" font-family="sans-serif" font-size="8.4" lengthAdjust="spacing" textLength="353.4" x="1073.7" y="734.8172">taxPayerNumber, idDocumentType, idDocumentNumber, job, skillSet, typeCollaboratorEmails)</text></g><!--class Repositories--><g id="elem_Repositories"><rect codeLine="24" fill="#F1F1F1" height="95.8359" id="Repositories" rx="1.5" ry="1.5" style="stroke:#181818;stroke-width:0.3;" width="118.8" x="1237.8" y="291.6082"/><ellipse cx="1270.95" cy="301.2082" fill="#ADD1B2" rx="6.6" ry="6.6" style="stroke:#181818;stroke-width:0.6;"/><path d="M1272.6094,298.7332 Q1272.7031,298.602 1272.8156,298.5363 Q1272.9281,298.4707 1273.0594,298.4707 Q1273.2844,298.4707 1273.425,298.6301 Q1273.5656,298.7801 1273.5656,299.1457 L1273.5656,300.0176 Q1273.5656,300.3832 1273.425,300.5426 Q1273.2844,300.702 1273.0594,300.702 Q1272.8531,300.702 1272.7313,300.5801 Q1272.6094,300.4676 1272.5438,300.1582 Q1272.5156,299.9426 1272.4031,299.8301 Q1272.2063,299.6051 1271.8406,299.4738 Q1271.475,299.3426 1271.1,299.3426 Q1270.6406,299.3426 1270.2563,299.5395 Q1269.8813,299.7363 1269.5813,300.1863 Q1269.2906,300.6363 1269.2906,301.2551 L1269.2906,301.9113 Q1269.2906,302.652 1269.825,303.1488 Q1270.3594,303.6363 1271.3156,303.6363 Q1271.8781,303.6363 1272.2719,303.4863 Q1272.5063,303.3926 1272.7594,303.1301 Q1272.9188,302.9707 1273.0031,302.9238 Q1273.0969,302.877 1273.2188,302.877 Q1273.4156,302.877 1273.5656,303.0363 Q1273.725,303.1863 1273.725,303.3926 Q1273.725,303.5988 1273.5188,303.8426 Q1273.2188,304.1895 1272.7406,304.3863 Q1272.0938,304.6582 1271.3156,304.6582 Q1270.4063,304.6582 1269.6844,304.2832 Q1269.0938,303.9832 1268.6812,303.3457 Q1268.2688,302.6988 1268.2688,301.9301 L1268.2688,301.2363 Q1268.2688,300.4395 1268.6344,299.7551 Q1269.0094,299.0613 1269.6656,298.6957 Q1270.3219,298.3207 1271.0625,298.3207 Q1271.5031,298.3207 1271.8875,298.4238 Q1272.2813,298.5176 1272.6094,298.7332 Z " fill="#000000"/><text fill="#000000" font-family="sans-serif" font-size="8.4" lengthAdjust="spacing" textLength="47.4" x="1283.25" y="304.6863">Repositories</text><line style="stroke:#181818;stroke-width:0.3;" x1="1238.4" x2="1356" y1="310.8082" y2="310.8082"/><line style="stroke:#181818;stroke-width:0.3;" x1="1238.4" x2="1356" y1="315.6082" y2="315.6082"/><text fill="#000000" font-family="sans-serif" font-size="8.4" lengthAdjust="spacing" textLength="56.4" x="1241.4" y="327.0727">-Repositories()</text><text fill="#000000" font-family="sans-serif" font-size="8.4" lengthAdjust="spacing" textLength="109.2" x="1241.4" y="338.2453">+getInstance() : Repositories</text><text fill="#000000" font-family="sans-serif" font-size="8.4" lengthAdjust="spacing" textLength="110.4" x="1241.4" y="349.418">+getCollaboratorRepository()</text><text fill="#000000" font-family="sans-serif" font-size="8.4" lengthAdjust="spacing" textLength="111.6" x="1241.4" y="360.5906">+getGreenSpaceRepository()</text><text fill="#000000" font-family="sans-serif" font-size="8.4" lengthAdjust="spacing" textLength="57" x="1241.4" y="371.7633">+getToDoList()</text><text fill="#000000" font-family="sans-serif" font-size="8.4" lengthAdjust="spacing" textLength="52.2" x="1241.4" y="382.9359">+getAgenda()</text></g><!--class ToDoList--><g id="elem_ToDoList"><rect codeLine="33" fill="#F1F1F1" height="39.9727" id="ToDoList" rx="1.5" ry="1.5" style="stroke:#181818;stroke-width:0.3;" width="90.6" x="1381.5" y="454.2082"/><ellipse cx="1407.24" cy="463.8082" fill="#ADD1B2" rx="6.6" ry="6.6" style="stroke:#181818;stroke-width:0.6;"/><path d="M1408.8994,461.3332 Q1408.9931,461.202 1409.1056,461.1363 Q1409.2181,461.0707 1409.3494,461.0707 Q1409.5744,461.0707 1409.715,461.2301 Q1409.8556,461.3801 1409.8556,461.7457 L1409.8556,462.6176 Q1409.8556,462.9832 1409.715,463.1426 Q1409.5744,463.302 1409.3494,463.302 Q1409.1431,463.302 1409.0213,463.1801 Q1408.8994,463.0676 1408.8338,462.7582 Q1408.8056,462.5426 1408.6931,462.4301 Q1408.4963,462.2051 1408.1306,462.0738 Q1407.765,461.9426 1407.39,461.9426 Q1406.9306,461.9426 1406.5463,462.1395 Q1406.1713,462.3363 1405.8713,462.7863 Q1405.5806,463.2363 1405.5806,463.8551 L1405.5806,464.5113 Q1405.5806,465.252 1406.115,465.7488 Q1406.6494,466.2363 1407.6056,466.2363 Q1408.1681,466.2363 1408.5619,466.0863 Q1408.7963,465.9926 1409.0494,465.7301 Q1409.2088,465.5707 1409.2931,465.5238 Q1409.3869,465.477 1409.5088,465.477 Q1409.7056,465.477 1409.8556,465.6363 Q1410.015,465.7863 1410.015,465.9926 Q1410.015,466.1988 1409.8088,466.4426 Q1409.5088,466.7895 1409.0306,466.9863 Q1408.3838,467.2582 1407.6056,467.2582 Q1406.6963,467.2582 1405.9744,466.8832 Q1405.3838,466.5832 1404.9713,465.9457 Q1404.5588,465.2988 1404.5588,464.5301 L1404.5588,463.8363 Q1404.5588,463.0395 1404.9244,462.3551 Q1405.2994,461.6613 1405.9556,461.2957 Q1406.6119,460.9207 1407.3525,460.9207 Q1407.7931,460.9207 1408.1775,461.0238 Q1408.5713,461.1176 1408.8994,461.3332 Z " fill="#000000"/><text fill="#000000" font-family="sans-serif" font-size="8.4" lengthAdjust="spacing" textLength="34.2" x="1419.36" y="467.2863">ToDoList</text><line style="stroke:#181818;stroke-width:0.3;" x1="1382.1" x2="1471.5" y1="473.4082" y2="473.4082"/><line style="stroke:#181818;stroke-width:0.3;" x1="1382.1" x2="1471.5" y1="478.2082" y2="478.2082"/><text fill="#000000" font-family="sans-serif" font-size="8.4" lengthAdjust="spacing" textLength="83.4" x="1385.1" y="489.6727">+getToDoListEntries()</text></g><!--class Agenda--><g id="elem_Agenda"><rect codeLine="37" fill="#F1F1F1" height="62.318" id="Agenda" rx="1.5" ry="1.5" style="stroke:#181818;stroke-width:0.3;" width="219" x="734.7" y="443.1082"/><ellipse cx="826.95" cy="452.7082" fill="#ADD1B2" rx="6.6" ry="6.6" style="stroke:#181818;stroke-width:0.6;"/><path d="M828.6094,450.2332 Q828.7031,450.102 828.8156,450.0363 Q828.9281,449.9707 829.0594,449.9707 Q829.2844,449.9707 829.425,450.1301 Q829.5656,450.2801 829.5656,450.6457 L829.5656,451.5176 Q829.5656,451.8832 829.425,452.0426 Q829.2844,452.202 829.0594,452.202 Q828.8531,452.202 828.7312,452.0801 Q828.6094,451.9676 828.5437,451.6582 Q828.5156,451.4426 828.4031,451.3301 Q828.2063,451.1051 827.8406,450.9738 Q827.475,450.8426 827.1,450.8426 Q826.6406,450.8426 826.2563,451.0395 Q825.8813,451.2363 825.5813,451.6863 Q825.2906,452.1363 825.2906,452.7551 L825.2906,453.4113 Q825.2906,454.152 825.825,454.6488 Q826.3594,455.1363 827.3156,455.1363 Q827.8781,455.1363 828.2719,454.9863 Q828.5063,454.8926 828.7594,454.6301 Q828.9187,454.4707 829.0031,454.4238 Q829.0969,454.377 829.2188,454.377 Q829.4156,454.377 829.5656,454.5363 Q829.725,454.6863 829.725,454.8926 Q829.725,455.0988 829.5188,455.3426 Q829.2188,455.6895 828.7406,455.8863 Q828.0938,456.1582 827.3156,456.1582 Q826.4063,456.1582 825.6844,455.7832 Q825.0938,455.4832 824.6813,454.8457 Q824.2688,454.1988 824.2688,453.4301 L824.2688,452.7363 Q824.2688,451.9395 824.6344,451.2551 Q825.0094,450.5613 825.6656,450.1957 Q826.3219,449.8207 827.0625,449.8207 Q827.5031,449.8207 827.8875,449.9238 Q828.2813,450.0176 828.6094,450.2332 Z " fill="#000000"/><text fill="#000000" font-family="sans-serif" font-size="8.4" lengthAdjust="spacing" textLength="29.4" x="839.25" y="456.1863">Agenda</text><line style="stroke:#181818;stroke-width:0.3;" x1="735.3" x2="953.1" y1="462.3082" y2="462.3082"/><line style="stroke:#181818;stroke-width:0.3;" x1="735.3" x2="953.1" y1="467.1082" y2="467.1082"/><text fill="#000000" font-family="sans-serif" font-size="8.4" lengthAdjust="spacing" textLength="211.8" x="738.3" y="478.5727">+createAgendaEntry(toDoListEntry, startDate, endDate)</text><text fill="#000000" font-family="sans-serif" font-size="8.4" lengthAdjust="spacing" textLength="123" x="738.3" y="489.7453">+addAgendaEntry(agendaEntry)</text><text fill="#000000" font-family="sans-serif" font-size="8.4" lengthAdjust="spacing" textLength="108.6" x="738.3" y="500.918">+validateEntry(agendaEntry)</text></g><!--class CollaboratorRepository--><g id="elem_CollaboratorRepository"><rect codeLine="43" fill="#F1F1F1" height="39.9727" id="CollaboratorRepository" rx="1.5" ry="1.5" style="stroke:#181818;stroke-width:0.3;" width="126.6" x="1233.9" y="454.2082"/><ellipse cx="1251.81" cy="463.8082" fill="#ADD1B2" rx="6.6" ry="6.6" style="stroke:#181818;stroke-width:0.6;"/><path d="M1253.4694,461.3332 Q1253.5631,461.202 1253.6756,461.1363 Q1253.7881,461.0707 1253.9194,461.0707 Q1254.1444,461.0707 1254.285,461.2301 Q1254.4256,461.3801 1254.4256,461.7457 L1254.4256,462.6176 Q1254.4256,462.9832 1254.285,463.1426 Q1254.1444,463.302 1253.9194,463.302 Q1253.7131,463.302 1253.5913,463.1801 Q1253.4694,463.0676 1253.4038,462.7582 Q1253.3756,462.5426 1253.2631,462.4301 Q1253.0662,462.2051 1252.7006,462.0738 Q1252.335,461.9426 1251.96,461.9426 Q1251.5006,461.9426 1251.1162,462.1395 Q1250.7412,462.3363 1250.4412,462.7863 Q1250.1506,463.2363 1250.1506,463.8551 L1250.1506,464.5113 Q1250.1506,465.252 1250.685,465.7488 Q1251.2194,466.2363 1252.1756,466.2363 Q1252.7381,466.2363 1253.1319,466.0863 Q1253.3662,465.9926 1253.6194,465.7301 Q1253.7788,465.5707 1253.8631,465.5238 Q1253.9569,465.477 1254.0788,465.477 Q1254.2756,465.477 1254.4256,465.6363 Q1254.585,465.7863 1254.585,465.9926 Q1254.585,466.1988 1254.3787,466.4426 Q1254.0788,466.7895 1253.6006,466.9863 Q1252.9538,467.2582 1252.1756,467.2582 Q1251.2663,467.2582 1250.5444,466.8832 Q1249.9538,466.5832 1249.5413,465.9457 Q1249.1287,465.2988 1249.1287,464.5301 L1249.1287,463.8363 Q1249.1287,463.0395 1249.4944,462.3551 Q1249.8694,461.6613 1250.5256,461.2957 Q1251.1819,460.9207 1251.9225,460.9207 Q1252.3631,460.9207 1252.7475,461.0238 Q1253.1413,461.1176 1253.4694,461.3332 Z " fill="#000000"/><text fill="#000000" font-family="sans-serif" font-size="8.4" lengthAdjust="spacing" textLength="87.6" x="1262.19" y="467.2863">CollaboratorRepository</text><line style="stroke:#181818;stroke-width:0.3;" x1="1234.5" x2="1359.9" y1="473.4082" y2="473.4082"/><line style="stroke:#181818;stroke-width:0.3;" x1="1234.5" x2="1359.9" y1="478.2082" y2="478.2082"/><text fill="#000000" font-family="sans-serif" font-size="8.4" lengthAdjust="spacing" textLength="119.4" x="1237.5" y="489.6727">+getCollaboratorByEmail(email)</text></g><!--class GreenSpaceRepository--><g id="elem_GreenSpaceRepository"><rect codeLine="47" fill="#F1F1F1" height="39.9727" id="GreenSpaceRepository" rx="1.5" ry="1.5" style="stroke:#181818;stroke-width:0.3;" width="237.6" x="975" y="454.2082"/><ellipse cx="1046.85" cy="463.8082" fill="#ADD1B2" rx="6.6" ry="6.6" style="stroke:#181818;stroke-width:0.6;"/><path d="M1048.5094,461.3332 Q1048.6031,461.202 1048.7156,461.1363 Q1048.8281,461.0707 1048.9594,461.0707 Q1049.1844,461.0707 1049.325,461.2301 Q1049.4656,461.3801 1049.4656,461.7457 L1049.4656,462.6176 Q1049.4656,462.9832 1049.325,463.1426 Q1049.1844,463.302 1048.9594,463.302 Q1048.7531,463.302 1048.6313,463.1801 Q1048.5094,463.0676 1048.4438,462.7582 Q1048.4156,462.5426 1048.3031,462.4301 Q1048.1063,462.2051 1047.7406,462.0738 Q1047.375,461.9426 1047,461.9426 Q1046.5406,461.9426 1046.1563,462.1395 Q1045.7813,462.3363 1045.4813,462.7863 Q1045.1906,463.2363 1045.1906,463.8551 L1045.1906,464.5113 Q1045.1906,465.252 1045.725,465.7488 Q1046.2594,466.2363 1047.2156,466.2363 Q1047.7781,466.2363 1048.1719,466.0863 Q1048.4063,465.9926 1048.6594,465.7301 Q1048.8188,465.5707 1048.9031,465.5238 Q1048.9969,465.477 1049.1187,465.477 Q1049.3156,465.477 1049.4656,465.6363 Q1049.625,465.7863 1049.625,465.9926 Q1049.625,466.1988 1049.4188,466.4426 Q1049.1187,466.7895 1048.6406,466.9863 Q1047.9937,467.2582 1047.2156,467.2582 Q1046.3062,467.2582 1045.5844,466.8832 Q1044.9937,466.5832 1044.5813,465.9457 Q1044.1688,465.2988 1044.1688,464.5301 L1044.1688,463.8363 Q1044.1688,463.0395 1044.5344,462.3551 Q1044.9094,461.6613 1045.5656,461.2957 Q1046.2219,460.9207 1046.9625,460.9207 Q1047.4031,460.9207 1047.7875,461.0238 Q1048.1812,461.1176 1048.5094,461.3332 Z " fill="#000000"/><text fill="#000000" font-family="sans-serif" font-size="8.4" lengthAdjust="spacing" textLength="88.8" x="1059.15" y="467.2863">GreenSpaceRepository</text><line style="stroke:#181818;stroke-width:0.3;" x1="975.6" x2="1212" y1="473.4082" y2="473.4082"/><line style="stroke:#181818;stroke-width:0.3;" x1="975.6" x2="1212" y1="478.2082" y2="478.2082"/><text fill="#000000" font-family="sans-serif" font-size="8.4" lengthAdjust="spacing" textLength="230.4" x="978.6" y="489.6727">+getListGreenSpacesManagedByGsm(greenSpaceManager)</text></g><!--class ToDoListMapper--><g id="elem_ToDoListMapper"><rect codeLine="108" fill="#F1F1F1" height="51.1453" id="ToDoListMapper" rx="1.5" ry="1.5" style="stroke:#181818;stroke-width:0.3;" width="222" x="27.6" y="448.8082"/><ellipse cx="104.55" cy="458.4082" fill="#ADD1B2" rx="6.6" ry="6.6" style="stroke:#181818;stroke-width:0.6;"/><path d="M106.2094,455.9332 Q106.3031,455.802 106.4156,455.7363 Q106.5281,455.6707 106.6594,455.6707 Q106.8844,455.6707 107.025,455.8301 Q107.1656,455.9801 107.1656,456.3457 L107.1656,457.2176 Q107.1656,457.5832 107.025,457.7426 Q106.8844,457.902 106.6594,457.902 Q106.4531,457.902 106.3313,457.7801 Q106.2094,457.6676 106.1438,457.3582 Q106.1156,457.1426 106.0031,457.0301 Q105.8062,456.8051 105.4406,456.6738 Q105.075,456.5426 104.7,456.5426 Q104.2406,456.5426 103.8563,456.7395 Q103.4813,456.9363 103.1812,457.3863 Q102.8906,457.8363 102.8906,458.4551 L102.8906,459.1113 Q102.8906,459.852 103.425,460.3488 Q103.9594,460.8363 104.9156,460.8363 Q105.4781,460.8363 105.8719,460.6863 Q106.1063,460.5926 106.3594,460.3301 Q106.5188,460.1707 106.6031,460.1238 Q106.6969,460.077 106.8188,460.077 Q107.0156,460.077 107.1656,460.2363 Q107.325,460.3863 107.325,460.5926 Q107.325,460.7988 107.1187,461.0426 Q106.8188,461.3895 106.3406,461.5863 Q105.6938,461.8582 104.9156,461.8582 Q104.0063,461.8582 103.2844,461.4832 Q102.6938,461.1832 102.2813,460.5457 Q101.8687,459.8988 101.8687,459.1301 L101.8687,458.4363 Q101.8687,457.6395 102.2344,456.9551 Q102.6094,456.2613 103.2656,455.8957 Q103.9219,455.5207 104.6625,455.5207 Q105.1031,455.5207 105.4875,455.6238 Q105.8813,455.7176 106.2094,455.9332 Z " fill="#000000"/><text fill="#000000" font-family="sans-serif" font-size="8.4" lengthAdjust="spacing" textLength="63" x="116.85" y="461.8863">ToDoListMapper</text><line style="stroke:#181818;stroke-width:0.3;" x1="28.2" x2="249" y1="468.0082" y2="468.0082"/><line style="stroke:#181818;stroke-width:0.3;" x1="28.2" x2="249" y1="472.8082" y2="472.8082"/><text fill="#000000" font-family="sans-serif" font-size="8.4" lengthAdjust="spacing" textLength="214.8" x="31.2" y="484.2727">+toDoListEntriesToDto(entries) : List&lt;ToDoListEntryDto&gt;</text><text fill="#000000" font-family="sans-serif" font-size="8.4" lengthAdjust="spacing" textLength="161.4" x="31.2" y="495.4453">+toDTO(toDoListEntry) : ToDoListEntryDto</text></g><!--class GreenSpaceRepositoryMapper--><g id="elem_GreenSpaceRepositoryMapper"><rect codeLine="113" fill="#F1F1F1" height="51.1453" id="GreenSpaceRepositoryMapper" rx="1.5" ry="1.5" style="stroke:#181818;stroke-width:0.3;" width="257.4" x="270.9" y="448.8082"/><ellipse cx="338.25" cy="458.4082" fill="#ADD1B2" rx="6.6" ry="6.6" style="stroke:#181818;stroke-width:0.6;"/><path d="M339.9094,455.9332 Q340.0031,455.802 340.1156,455.7363 Q340.2281,455.6707 340.3594,455.6707 Q340.5844,455.6707 340.725,455.8301 Q340.8656,455.9801 340.8656,456.3457 L340.8656,457.2176 Q340.8656,457.5832 340.725,457.7426 Q340.5844,457.902 340.3594,457.902 Q340.1531,457.902 340.0313,457.7801 Q339.9094,457.6676 339.8438,457.3582 Q339.8156,457.1426 339.7031,457.0301 Q339.5062,456.8051 339.1406,456.6738 Q338.775,456.5426 338.4,456.5426 Q337.9406,456.5426 337.5563,456.7395 Q337.1813,456.9363 336.8812,457.3863 Q336.5906,457.8363 336.5906,458.4551 L336.5906,459.1113 Q336.5906,459.852 337.125,460.3488 Q337.6594,460.8363 338.6156,460.8363 Q339.1781,460.8363 339.5719,460.6863 Q339.8063,460.5926 340.0594,460.3301 Q340.2188,460.1707 340.3031,460.1238 Q340.3969,460.077 340.5188,460.077 Q340.7156,460.077 340.8656,460.2363 Q341.025,460.3863 341.025,460.5926 Q341.025,460.7988 340.8187,461.0426 Q340.5188,461.3895 340.0406,461.5863 Q339.3938,461.8582 338.6156,461.8582 Q337.7063,461.8582 336.9844,461.4832 Q336.3938,461.1832 335.9813,460.5457 Q335.5687,459.8988 335.5687,459.1301 L335.5687,458.4363 Q335.5687,457.6395 335.9344,456.9551 Q336.3094,456.2613 336.9656,455.8957 Q337.6219,455.5207 338.3625,455.5207 Q338.8031,455.5207 339.1875,455.6238 Q339.5813,455.7176 339.9094,455.9332 Z " fill="#000000"/><text fill="#000000" font-family="sans-serif" font-size="8.4" lengthAdjust="spacing" textLength="117.6" x="350.55" y="461.8863">GreenSpaceRepositoryMapper</text><line style="stroke:#181818;stroke-width:0.3;" x1="271.5" x2="527.7" y1="468.0082" y2="468.0082"/><line style="stroke:#181818;stroke-width:0.3;" x1="271.5" x2="527.7" y1="472.8082" y2="472.8082"/><text fill="#000000" font-family="sans-serif" font-size="8.4" lengthAdjust="spacing" textLength="250.2" x="274.5" y="484.2727">+listGreenSpacesToDto(listGreenSpaces) : List&lt;GreenSpaceDto&gt;</text><text fill="#000000" font-family="sans-serif" font-size="8.4" lengthAdjust="spacing" textLength="150.6" x="274.5" y="495.4453">+toDTO(greenSpace) : GreenSpaceDto</text></g><!--class ApplicationSession--><g id="elem_ApplicationSession"><rect codeLine="120" fill="#F1F1F1" height="51.1453" id="ApplicationSession" rx="1.5" ry="1.5" style="stroke:#181818;stroke-width:0.3;" width="90.6" x="562.5" y="314.1082"/><ellipse cx="571.5" cy="323.7082" fill="#ADD1B2" rx="6.6" ry="6.6" style="stroke:#181818;stroke-width:0.6;"/><path d="M573.1594,321.2332 Q573.2531,321.102 573.3656,321.0363 Q573.4781,320.9707 573.6094,320.9707 Q573.8344,320.9707 573.975,321.1301 Q574.1156,321.2801 574.1156,321.6457 L574.1156,322.5176 Q574.1156,322.8832 573.975,323.0426 Q573.8344,323.202 573.6094,323.202 Q573.4031,323.202 573.2813,323.0801 Q573.1594,322.9676 573.0938,322.6582 Q573.0656,322.4426 572.9531,322.3301 Q572.7563,322.1051 572.3906,321.9738 Q572.025,321.8426 571.65,321.8426 Q571.1906,321.8426 570.8063,322.0395 Q570.4313,322.2363 570.1313,322.6863 Q569.8406,323.1363 569.8406,323.7551 L569.8406,324.4113 Q569.8406,325.152 570.375,325.6488 Q570.9094,326.1363 571.8656,326.1363 Q572.4281,326.1363 572.8219,325.9863 Q573.0563,325.8926 573.3094,325.6301 Q573.4688,325.4707 573.5531,325.4238 Q573.6469,325.377 573.7688,325.377 Q573.9656,325.377 574.1156,325.5363 Q574.275,325.6863 574.275,325.8926 Q574.275,326.0988 574.0688,326.3426 Q573.7688,326.6895 573.2906,326.8863 Q572.6438,327.1582 571.8656,327.1582 Q570.9563,327.1582 570.2344,326.7832 Q569.6438,326.4832 569.2312,325.8457 Q568.8188,325.1988 568.8188,324.4301 L568.8188,323.7363 Q568.8188,322.9395 569.1844,322.2551 Q569.5594,321.5613 570.2156,321.1957 Q570.8719,320.8207 571.6125,320.8207 Q572.0531,320.8207 572.4375,320.9238 Q572.8313,321.0176 573.1594,321.2332 Z " fill="#000000"/><text fill="#000000" font-family="sans-serif" font-size="8.4" lengthAdjust="spacing" textLength="71.4" x="579.9" y="327.1863">ApplicationSession</text><line style="stroke:#181818;stroke-width:0.3;" x1="563.1" x2="652.5" y1="333.3082" y2="333.3082"/><line style="stroke:#181818;stroke-width:0.3;" x1="563.1" x2="652.5" y1="338.1082" y2="338.1082"/><text fill="#000000" font-family="sans-serif" font-size="8.4" lengthAdjust="spacing" textLength="76.8" x="566.1" y="349.5727">+static getInstance()</text><text fill="#000000" font-family="sans-serif" font-size="8.4" lengthAdjust="spacing" textLength="81.6" x="566.1" y="360.7453">+getCurrentSession()</text></g><!--class UserSession--><g id="elem_UserSession"><rect codeLine="125" fill="#F1F1F1" height="39.9727" id="UserSession" rx="1.5" ry="1.5" style="stroke:#181818;stroke-width:0.3;" width="67.8" x="617.7" y="454.2082"/><ellipse cx="627.24" cy="463.8082" fill="#ADD1B2" rx="6.6" ry="6.6" style="stroke:#181818;stroke-width:0.6;"/><path d="M628.8994,461.3332 Q628.9931,461.202 629.1056,461.1363 Q629.2181,461.0707 629.3494,461.0707 Q629.5744,461.0707 629.715,461.2301 Q629.8556,461.3801 629.8556,461.7457 L629.8556,462.6176 Q629.8556,462.9832 629.715,463.1426 Q629.5744,463.302 629.3494,463.302 Q629.1431,463.302 629.0213,463.1801 Q628.8994,463.0676 628.8338,462.7582 Q628.8056,462.5426 628.6931,462.4301 Q628.4963,462.2051 628.1306,462.0738 Q627.765,461.9426 627.39,461.9426 Q626.9306,461.9426 626.5463,462.1395 Q626.1713,462.3363 625.8713,462.7863 Q625.5806,463.2363 625.5806,463.8551 L625.5806,464.5113 Q625.5806,465.252 626.115,465.7488 Q626.6494,466.2363 627.6056,466.2363 Q628.1681,466.2363 628.5619,466.0863 Q628.7963,465.9926 629.0494,465.7301 Q629.2088,465.5707 629.2931,465.5238 Q629.3869,465.477 629.5088,465.477 Q629.7056,465.477 629.8556,465.6363 Q630.015,465.7863 630.015,465.9926 Q630.015,466.1988 629.8088,466.4426 Q629.5088,466.7895 629.0306,466.9863 Q628.3838,467.2582 627.6056,467.2582 Q626.6963,467.2582 625.9744,466.8832 Q625.3838,466.5832 624.9713,465.9457 Q624.5588,465.2988 624.5588,464.5301 L624.5588,463.8363 Q624.5588,463.0395 624.9244,462.3551 Q625.2994,461.6613 625.9556,461.2957 Q626.6119,460.9207 627.3525,460.9207 Q627.7931,460.9207 628.1775,461.0238 Q628.5713,461.1176 628.8994,461.3332 Z " fill="#000000"/><text fill="#000000" font-family="sans-serif" font-size="8.4" lengthAdjust="spacing" textLength="47.4" x="635.76" y="467.2863">UserSession</text><line style="stroke:#181818;stroke-width:0.3;" x1="618.3" x2="684.9" y1="473.4082" y2="473.4082"/><line style="stroke:#181818;stroke-width:0.3;" x1="618.3" x2="684.9" y1="478.2082" y2="478.2082"/><text fill="#000000" font-family="sans-serif" font-size="8.4" lengthAdjust="spacing" textLength="60.6" x="621.3" y="489.6727">+getUserEmail()</text></g><!--class ToDoListEntryDto--><g id="elem_ToDoListEntryDto"><rect codeLine="131" fill="#F1F1F1" height="28.8" id="ToDoListEntryDto" rx="1.5" ry="1.5" style="stroke:#181818;stroke-width:0.3;" width="86.4" x="193.2" y="325.2082"/><ellipse cx="202.2" cy="334.8082" fill="#ADD1B2" rx="6.6" ry="6.6" style="stroke:#181818;stroke-width:0.6;"/><path d="M203.8594,332.3332 Q203.9531,332.202 204.0656,332.1363 Q204.1781,332.0707 204.3094,332.0707 Q204.5344,332.0707 204.675,332.2301 Q204.8156,332.3801 204.8156,332.7457 L204.8156,333.6176 Q204.8156,333.9832 204.675,334.1426 Q204.5344,334.302 204.3094,334.302 Q204.1031,334.302 203.9813,334.1801 Q203.8594,334.0676 203.7938,333.7582 Q203.7656,333.5426 203.6531,333.4301 Q203.4562,333.2051 203.0906,333.0738 Q202.725,332.9426 202.35,332.9426 Q201.8906,332.9426 201.5063,333.1395 Q201.1313,333.3363 200.8312,333.7863 Q200.5406,334.2363 200.5406,334.8551 L200.5406,335.5113 Q200.5406,336.252 201.075,336.7488 Q201.6094,337.2363 202.5656,337.2363 Q203.1281,337.2363 203.5219,337.0863 Q203.7563,336.9926 204.0094,336.7301 Q204.1688,336.5707 204.2531,336.5238 Q204.3469,336.477 204.4688,336.477 Q204.6656,336.477 204.8156,336.6363 Q204.975,336.7863 204.975,336.9926 Q204.975,337.1988 204.7687,337.4426 Q204.4688,337.7895 203.9906,337.9863 Q203.3438,338.2582 202.5656,338.2582 Q201.6563,338.2582 200.9344,337.8832 Q200.3438,337.5832 199.9313,336.9457 Q199.5187,336.2988 199.5187,335.5301 L199.5187,334.8363 Q199.5187,334.0395 199.8844,333.3551 Q200.2594,332.6613 200.9156,332.2957 Q201.5719,331.9207 202.3125,331.9207 Q202.7531,331.9207 203.1375,332.0238 Q203.5313,332.1176 203.8594,332.3332 Z " fill="#000000"/><text fill="#000000" font-family="sans-serif" font-size="8.4" lengthAdjust="spacing" textLength="67.2" x="210.6" y="338.2863">ToDoListEntryDto</text><line style="stroke:#181818;stroke-width:0.3;" x1="193.8" x2="279" y1="344.4082" y2="344.4082"/><line style="stroke:#181818;stroke-width:0.3;" x1="193.8" x2="279" y1="349.2082" y2="349.2082"/></g><!--class GreenSpaceDto--><g id="elem_GreenSpaceDto"><rect codeLine="134" fill="#F1F1F1" height="28.8" id="GreenSpaceDto" rx="1.5" ry="1.5" style="stroke:#181818;stroke-width:0.3;" width="80.4" x="300.6" y="325.2082"/><ellipse cx="309.6" cy="334.8082" fill="#ADD1B2" rx="6.6" ry="6.6" style="stroke:#181818;stroke-width:0.6;"/><path d="M311.2594,332.3332 Q311.3531,332.202 311.4656,332.1363 Q311.5781,332.0707 311.7094,332.0707 Q311.9344,332.0707 312.075,332.2301 Q312.2156,332.3801 312.2156,332.7457 L312.2156,333.6176 Q312.2156,333.9832 312.075,334.1426 Q311.9344,334.302 311.7094,334.302 Q311.5031,334.302 311.3812,334.1801 Q311.2594,334.0676 311.1937,333.7582 Q311.1656,333.5426 311.0531,333.4301 Q310.8563,333.2051 310.4906,333.0738 Q310.125,332.9426 309.75,332.9426 Q309.2906,332.9426 308.9063,333.1395 Q308.5313,333.3363 308.2313,333.7863 Q307.9406,334.2363 307.9406,334.8551 L307.9406,335.5113 Q307.9406,336.252 308.475,336.7488 Q309.0094,337.2363 309.9656,337.2363 Q310.5281,337.2363 310.9219,337.0863 Q311.1563,336.9926 311.4094,336.7301 Q311.5687,336.5707 311.6531,336.5238 Q311.7469,336.477 311.8688,336.477 Q312.0656,336.477 312.2156,336.6363 Q312.375,336.7863 312.375,336.9926 Q312.375,337.1988 312.1688,337.4426 Q311.8688,337.7895 311.3906,337.9863 Q310.7438,338.2582 309.9656,338.2582 Q309.0563,338.2582 308.3344,337.8832 Q307.7438,337.5832 307.3313,336.9457 Q306.9188,336.2988 306.9188,335.5301 L306.9188,334.8363 Q306.9188,334.0395 307.2844,333.3551 Q307.6594,332.6613 308.3156,332.2957 Q308.9719,331.9207 309.7125,331.9207 Q310.1531,331.9207 310.5375,332.0238 Q310.9313,332.1176 311.2594,332.3332 Z " fill="#000000"/><text fill="#000000" font-family="sans-serif" font-size="8.4" lengthAdjust="spacing" textLength="61.2" x="318" y="338.2863">GreenSpaceDto</text><line style="stroke:#181818;stroke-width:0.3;" x1="301.2" x2="380.4" y1="344.4082" y2="344.4082"/><line style="stroke:#181818;stroke-width:0.3;" x1="301.2" x2="380.4" y1="349.2082" y2="349.2082"/></g><!--link AddAgendaEntryUI to AddAgendaEntryController--><g id="link_AddAgendaEntryUI_AddAgendaEntryController"><path codeLine="139" d="M1725.6,54.6382 C1725.6,67.5262 1725.6,83.8942 1725.6,102.5302 " fill="none" id="AddAgendaEntryUI-to-AddAgendaEntryController" style="stroke:#181818;stroke-width:0.6;stroke-dasharray:7.0,7.0;"/><polygon fill="#181818" points="1725.6,106.1302,1728,100.7302,1725.6,103.1302,1723.2,100.7302,1725.6,106.1302" style="stroke:#181818;stroke-width:0.6;"/></g><!--link Repositories to Repositories--><g id="link_Repositories_Repositories"><path codeLine="141" d="M1356.63,326.8222 C1368.84,328.1902 1377.6,332.4502 1377.6,339.6082 C1377.6,346.7662 1372.4176,350.6254 1360.2076,351.9934 " fill="none" id="Repositories-to-Repositories" style="stroke:#181818;stroke-width:0.6;"/><polygon fill="#181818" points="1356.63,352.3942,1362.2636,354.178,1359.6113,352.0602,1361.7292,349.4079,1356.63,352.3942" style="stroke:#181818;stroke-width:0.6;"/><text fill="#000000" font-family="sans-serif" font-size="7.8" lengthAdjust="spacing" textLength="29.4" x="1381.2" y="342.9252">instance</text></g><!--link AddAgendaEntryController to Repositories--><g id="link_AddAgendaEntryController_Repositories"><path codeLine="142" d="M1542.144,200.0602 C1494.162,211.8982 1455.6,221.4082 1455.6,221.4082 C1455.6,221.4082 1404.4725,259.3663 1359.5205,292.7383 " fill="none" id="AddAgendaEntryController-to-Repositories" style="stroke:#181818;stroke-width:0.6;stroke-dasharray:7.0,7.0;"/><polygon fill="#181818" points="1356.63,294.8842,1362.3964,293.5924,1359.0388,293.096,1359.5352,289.7383,1356.63,294.8842" style="stroke:#181818;stroke-width:0.6;"/><text fill="#000000" font-family="sans-serif" font-size="7.8" lengthAdjust="spacing" textLength="40.2" x="1456.2" y="230.4252">repositories</text></g><!--link Repositories to ToDoList--><g id="link_Repositories_ToDoList"><path codeLine="143" d="M1343.256,387.6502 C1365.45,410.5102 1388.341,434.0867 1405.249,451.5107 " fill="none" id="Repositories-to-ToDoList" style="stroke:#181818;stroke-width:0.6;"/><polygon fill="#181818" points="1407.756,454.0942,1405.7178,448.5475,1405.6668,451.9412,1402.2731,451.8902,1407.756,454.0942" style="stroke:#181818;stroke-width:0.6;"/><text fill="#000000" font-family="sans-serif" font-size="7.8" lengthAdjust="spacing" textLength="4.2" x="1399.5254" y="447.524">1</text></g><!--link Repositories to CollaboratorRepository--><g id="link_Repositories_CollaboratorRepository"><path codeLine="144" d="M1297.2,387.6502 C1297.2,410.5102 1297.2,433.0702 1297.2,450.4942 " fill="none" id="Repositories-to-CollaboratorRepository" style="stroke:#181818;stroke-width:0.6;"/><polygon fill="#181818" points="1297.2,454.0942,1299.6,448.6942,1297.2,451.0942,1294.8,448.6942,1297.2,454.0942" style="stroke:#181818;stroke-width:0.6;"/><text fill="#000000" font-family="sans-serif" font-size="7.8" lengthAdjust="spacing" textLength="4.2" x="1292.5997" y="447.524">1</text></g><!--link Repositories to GreenSpaceRepository--><g id="link_Repositories_GreenSpaceRepository"><path codeLine="145" d="M1237.548,379.3582 C1200.156,403.9042 1156.5635,432.5106 1126.7495,452.0826 " fill="none" id="Repositories-to-GreenSpaceRepository" style="stroke:#181818;stroke-width:0.6;"/><polygon fill="#181818" points="1123.74,454.0582,1129.5713,453.1011,1126.2479,452.4118,1126.9371,449.0885,1123.74,454.0582" style="stroke:#181818;stroke-width:0.6;"/><text fill="#000000" font-family="sans-serif" font-size="7.8" lengthAdjust="spacing" textLength="4.2" x="1124.847" y="447.4812">1</text></g><!--link AddAgendaEntryController to ToDoList--><g id="link_AddAgendaEntryController_ToDoList"><path codeLine="147" d="M1908.978,189.4222 C1994.79,205.6222 2078.4,221.4082 2078.4,221.4082 C2078.4,221.4082 2103.6,237.6082 2103.6,237.6082 C2103.6,237.6082 2103.6,387.6082 2103.6,387.6082 C2103.6,387.6082 2078.4,417.0082 2078.4,417.0082 C2078.4,417.0082 1623.4544,456.5961 1475.6864,469.4541 " fill="none" id="AddAgendaEntryController-to-ToDoList" style="stroke:#181818;stroke-width:0.6;stroke-dasharray:7.0,7.0;"/><polygon fill="#181818" points="1472.1,469.7662,1477.6877,471.6891,1475.0887,469.5061,1477.2716,466.9071,1472.1,469.7662" style="stroke:#181818;stroke-width:0.6;"/><text fill="#000000" font-family="sans-serif" font-size="7.8" lengthAdjust="spacing" textLength="28.8" x="2104.2" y="342.9252">toDoList</text></g><!--link AddAgendaEntryController to ToDoList--><g id="link_AddAgendaEntryController_ToDoList"><path codeLine="148" d="M1897.5,202.2562 C1964.532,220.7542 2025.6,237.6082 2025.6,237.6082 C2025.6,237.6082 2025.6,387.6082 2025.6,387.6082 C2025.6,387.6082 1957.8,417.0082 1957.8,417.0082 C1957.8,417.0082 1604.4876,454.7319 1475.8836,468.4659 " fill="none" id="AddAgendaEntryController-to-ToDoList-1" style="stroke:#181818;stroke-width:0.6;stroke-dasharray:7.0,7.0;"/><polygon fill="#181818" points="1472.304,468.8482,1477.9283,470.6612,1475.287,468.5296,1477.4186,465.8884,1472.304,468.8482" style="stroke:#181818;stroke-width:0.6;"/><text fill="#000000" font-family="sans-serif" font-size="7.8" lengthAdjust="spacing" textLength="34.8" x="2026.2" y="342.9252">listEntries</text></g><!--link AddAgendaEntryController to CollaboratorRepository--><g id="link_AddAgendaEntryController_CollaboratorRepository"><path codeLine="149" d="M1828.398,202.2562 C1868.484,220.7542 1905,237.6082 1905,237.6082 C1905,237.6082 1905,387.6082 1905,387.6082 C1905,387.6082 1836,417.0082 1836,417.0082 C1836,417.0082 1371,421.8082 1371,421.8082 C1371,421.8082 1348.9425,437.317 1328.0445,452.017 " fill="none" id="AddAgendaEntryController-to-CollaboratorRepository" style="stroke:#181818;stroke-width:0.6;stroke-dasharray:7.0,7.0;"/><polygon fill="#181818" points="1325.1,454.0882,1330.8976,452.9444,1327.5538,452.3622,1328.1359,449.0184,1325.1,454.0882" style="stroke:#181818;stroke-width:0.6;"/><text fill="#000000" font-family="sans-serif" font-size="7.8" lengthAdjust="spacing" textLength="77.4" x="1905.6" y="342.9252">collaboratorRepository</text></g><!--link AddAgendaEntryController to GreenSpaceRepository--><g id="link_AddAgendaEntryController_GreenSpaceRepository"><path codeLine="150" d="M1758.606,202.2562 C1771.476,220.7542 1783.2,237.6082 1783.2,237.6082 C1783.2,237.6082 1783.2,387.6082 1783.2,387.6082 C1783.2,387.6082 1767.6,417.0082 1767.6,417.0082 C1767.6,417.0082 1223.4,421.8082 1223.4,421.8082 C1223.4,421.8082 1182.69,438.1099 1145.952,452.8219 " fill="none" id="AddAgendaEntryController-to-GreenSpaceRepository" style="stroke:#181818;stroke-width:0.6;stroke-dasharray:7.0,7.0;"/><polygon fill="#181818" points="1142.61,454.1602,1148.5152,454.3807,1145.395,453.0449,1146.7308,449.9247,1142.61,454.1602" style="stroke:#181818;stroke-width:0.6;"/><text fill="#000000" font-family="sans-serif" font-size="7.8" lengthAdjust="spacing" textLength="78.6" x="1783.8" y="342.9252">greenSpaceRepository</text></g><!--link ToDoList to ToDoListEntry--><g id="link_ToDoList_ToDoListEntry"><path codeLine="152" d="M1430.358,494.4862 C1434.624,517.9402 1441.2,554.1082 1441.2,554.1082 C1441.2,554.1082 1441.2,739.5082 1441.2,739.5082 C1441.2,739.5082 1131.5128,795.3652 988.6648,821.1292 " fill="none" id="ToDoList-to-ToDoListEntry" style="stroke:#181818;stroke-width:0.6;"/><polygon fill="#181818" points="985.122,821.7682,990.8622,823.1716,988.0744,821.2357,990.0103,818.4478,985.122,821.7682" style="stroke:#181818;stroke-width:0.6;"/><text fill="#000000" font-family="sans-serif" font-size="7.8" lengthAdjust="spacing" textLength="12.6" x="1441.8" y="650.1252">has</text></g><!--link GreenSpace to ToDoListEntry--><g id="link_GreenSpace_ToDoListEntry"><path codeLine="153" d="M954.75,689.1202 C945.918,721.8802 935.6189,760.0726 927.2009,791.2846 " fill="none" id="GreenSpace-to-ToDoListEntry" style="stroke:#181818;stroke-width:0.6;"/><polygon fill="none" points="925.326,798.2362,928.5806,795.3854,927.2009,791.2846,923.9462,794.1354,925.326,798.2362" style="stroke:#181818;stroke-width:0.6;"/><text fill="#000000" font-family="sans-serif" font-size="7.8" lengthAdjust="spacing" textLength="12.6" x="936.6" y="766.5252">has</text></g><!--link Task to ToDoListEntry--><g id="link_Task_ToDoListEntry"><path codeLine="154" d="M812.688,689.1922 C840.18,720.3382 873,757.5082 873,757.5082 C873,757.5082 881.0029,771.9423 892.0549,791.8623 " fill="none" id="Task-to-ToDoListEntry" style="stroke:#181818;stroke-width:0.6;"/><polygon fill="none" points="895.548,798.1582,895.9001,793.8459,892.0549,791.8623,891.7028,796.1746,895.548,798.1582" style="stroke:#181818;stroke-width:0.6;"/><text fill="#000000" font-family="sans-serif" font-size="7.8" lengthAdjust="spacing" textLength="12.6" x="879.6" y="766.5252">has</text></g><!--link GreenSpaceRepository to GreenSpace--><g id="link_GreenSpaceRepository_GreenSpace"><path codeLine="155" d="M1079.142,494.5582 C1059.276,521.1862 1025.4465,566.5226 999.3885,601.4546 " fill="none" id="GreenSpaceRepository-to-GreenSpace" style="stroke:#181818;stroke-width:0.6;"/><polygon fill="#181818" points="997.236,604.3402,1002.3885,601.4469,999.0298,601.9356,998.5411,598.5768,997.236,604.3402" style="stroke:#181818;stroke-width:0.6;"/><text fill="#000000" font-family="sans-serif" font-size="7.8" lengthAdjust="spacing" textLength="12.6" x="1056.6" y="533.7252">has</text></g><!--link CollaboratorRepository to Collaborator--><g id="link_CollaboratorRepository_Collaborator"><path codeLine="156" d="M1291.83,494.5582 C1287.726,509.5882 1282.6936,528.0217 1276.5376,550.5337 " fill="none" id="CollaboratorRepository-to-Collaborator" style="stroke:#181818;stroke-width:0.6;"/><polygon fill="#181818" points="1275.588,554.0062,1279.3274,549.4305,1276.3793,551.1124,1274.6974,548.1644,1275.588,554.0062" style="stroke:#181818;stroke-width:0.6;"/><text fill="#000000" font-family="sans-serif" font-size="7.8" lengthAdjust="spacing" textLength="12.6" x="1283.4" y="533.7252">has</text><text fill="#000000" font-family="sans-serif" font-size="7.8" lengthAdjust="spacing" textLength="3" x="1273.7354" y="547.4897">*</text></g><!--link ToDoListEntryDto to ToDoListMapper--><g id="link_ToDoListEntryDto_ToDoListMapper"><path codeLine="158" d="M226.116,354.2422 C209.688,376.6702 179.4213,417.986 158.9853,445.886 " fill="none" id="ToDoListEntryDto-to-ToDoListMapper" style="stroke:#181818;stroke-width:0.6;stroke-dasharray:7.0,7.0;"/><polygon fill="#181818" points="156.858,448.7902,161.9851,445.852,158.6307,446.37,158.1128,443.0156,156.858,448.7902" style="stroke:#181818;stroke-width:0.6;"/><text fill="#000000" font-family="sans-serif" font-size="7.8" lengthAdjust="spacing" textLength="59.4" x="188.4" y="414.6252">toDoListEntryDto</text></g><!--link AddAgendaEntryController to ToDoListMapper--><g id="link_AddAgendaEntryController_ToDoListMapper"><path codeLine="159" d="M1603.548,202.2562 C1555.956,220.7542 1512.6,237.6082 1512.6,237.6082 C1512.6,237.6082 1482,387.6082 1482,387.6082 C1482,387.6082 710.4,417.0082 710.4,417.0082 C710.4,417.0082 260.4,421.8082 260.4,421.8082 C260.4,421.8082 231.6958,434.0409 200.4958,447.3369 " fill="none" id="AddAgendaEntryController-to-ToDoListMapper" style="stroke:#181818;stroke-width:0.6;stroke-dasharray:7.0,7.0;"/><polygon fill="#181818" points="197.184,448.7482,203.0926,448.8391,199.9438,447.5721,201.2108,444.4233,197.184,448.7482" style="stroke:#181818;stroke-width:0.6;"/><text fill="#000000" font-family="sans-serif" font-size="7.8" lengthAdjust="spacing" textLength="40.8" x="1513.2" y="342.9252">toDoListDto</text></g><!--link GreenSpaceDto to GreenSpaceRepositoryMapper--><g id="link_GreenSpaceDto_GreenSpaceRepositoryMapper"><path codeLine="161" d="M346.98,354.2422 C356.862,376.6702 374.887,417.5956 387.175,445.4956 " fill="none" id="GreenSpaceDto-to-GreenSpaceRepositoryMapper" style="stroke:#181818;stroke-width:0.6;stroke-dasharray:7.0,7.0;"/><polygon fill="#181818" points="388.626,448.7902,388.6458,442.8809,387.4168,446.0447,384.253,444.8156,388.626,448.7902" style="stroke:#181818;stroke-width:0.6;"/><text fill="#000000" font-family="sans-serif" font-size="7.8" lengthAdjust="spacing" textLength="53.4" x="374.4" y="414.6252">greenSpaceDto</text></g><!--link AddAgendaEntryController to GreenSpaceRepositoryMapper--><g id="link_AddAgendaEntryController_GreenSpaceRepositoryMapper"><path codeLine="162" d="M1651.68,202.2562 C1622.856,220.7542 1596.6,237.6082 1596.6,237.6082 C1596.6,237.6082 1559.4,387.6082 1559.4,387.6082 C1559.4,387.6082 1528.2,417.0082 1528.2,417.0082 C1528.2,417.0082 552.6,421.8082 552.6,421.8082 C552.6,421.8082 515.7912,434.2956 476.5992,447.5916 " fill="none" id="AddAgendaEntryController-to-GreenSpaceRepositoryMapper" style="stroke:#181818;stroke-width:0.6;stroke-dasharray:7.0,7.0;"/><polygon fill="#181818" points="473.19,448.7482,479.0748,449.2861,476.031,447.7844,477.5327,444.7406,473.19,448.7482" style="stroke:#181818;stroke-width:0.6;"/><text fill="#000000" font-family="sans-serif" font-size="7.8" lengthAdjust="spacing" textLength="69.6" x="1597.2" y="342.9252">listGreenSpacesDto</text></g><!--link Repositories to Agenda--><g id="link_Repositories_Agenda"><path codeLine="164" d="M1237.776,354.7942 C1142.166,378.2662 964.8,421.8082 964.8,421.8082 C964.8,421.8082 944.8146,430.4048 918.7086,441.6428 " fill="none" id="Repositories-to-Agenda" style="stroke:#181818;stroke-width:0.6;"/><polygon fill="#181818" points="915.402,443.0662,921.3109,443.1355,918.1575,441.88,919.413,438.7266,915.402,443.0662" style="stroke:#181818;stroke-width:0.6;"/><text fill="#000000" font-family="sans-serif" font-size="7.8" lengthAdjust="spacing" textLength="4.2" x="920.4876" y="436.417">1</text></g><!--link AddAgendaEntryController to Agenda--><g id="link_AddAgendaEntryController_Agenda"><path codeLine="165" d="M1723.644,202.2922 C1720.53,277.8502 1714.8,417.0082 1714.8,417.0082 C1714.8,417.0082 964.8,421.8082 964.8,421.8082 C964.8,421.8082 944.8146,430.4048 918.7086,441.6428 " fill="none" id="AddAgendaEntryController-to-Agenda" style="stroke:#181818;stroke-width:0.6;stroke-dasharray:7.0,7.0;"/><polygon fill="#181818" points="915.402,443.0662,921.3109,443.1355,918.1575,441.88,919.413,438.7266,915.402,443.0662" style="stroke:#181818;stroke-width:0.6;"/><text fill="#000000" font-family="sans-serif" font-size="7.8" lengthAdjust="spacing" textLength="25.2" x="1722.6" y="342.9252">agenda</text></g><!--link Agenda to AgendaEntry--><g id="link_Agenda_AgendaEntry"><path codeLine="167" d="M753.102,505.5442 C729.414,513.5122 710.4,519.9082 710.4,519.9082 C710.4,519.9082 532.8,554.1082 532.8,554.1082 C532.8,554.1082 532.8,739.5082 532.8,739.5082 C532.8,739.5082 556.7057,760.7284 583.3517,784.3804 " fill="none" id="Agenda-to-AgendaEntry" style="stroke:#181818;stroke-width:0.6;"/><polygon fill="#181818" points="586.044,786.7702,583.5987,781.3906,583.8004,784.7787,580.4123,784.9804,586.044,786.7702" style="stroke:#181818;stroke-width:0.6;"/><text fill="#000000" font-family="sans-serif" font-size="7.8" lengthAdjust="spacing" textLength="12.6" x="533.4" y="650.1252">has</text></g><!--link GreenSpace to AgendaEntry--><g id="link_GreenSpace_AgendaEntry"><path codeLine="168" d="M923.856,689.1442 C899.25,713.5162 873,739.5082 873,739.5082 C873,739.5082 821.4348,760.451 763.1388,784.127 " fill="none" id="GreenSpace-to-AgendaEntry" style="stroke:#181818;stroke-width:0.6;"/><polygon fill="none" points="756.468,786.8362,760.7065,787.7052,763.1388,784.127,758.9003,783.258,756.468,786.8362" style="stroke:#181818;stroke-width:0.6;"/><text fill="#000000" font-family="sans-serif" font-size="7.8" lengthAdjust="spacing" textLength="12.6" x="828.6" y="766.5252">has</text></g><!--link Task to AgendaEntry--><g id="link_Task_AgendaEntry"><path codeLine="169" d="M745.404,689.1202 C724.314,718.0582 700.4204,750.8494 678.4664,780.9754 " fill="none" id="Task-to-AgendaEntry" style="stroke:#181818;stroke-width:0.6;"/><polygon fill="none" points="674.226,786.7942,678.2858,785.2983,678.4664,780.9754,674.4066,782.4713,674.226,786.7942" style="stroke:#181818;stroke-width:0.6;"/><text fill="#000000" font-family="sans-serif" font-size="7.8" lengthAdjust="spacing" textLength="12.6" x="696" y="766.5252">has</text></g><!--link Entry to AgendaEntry--><g id="link_Entry_AgendaEntry"><path codeLine="171" d="M616.212,672.4222 C620.424,701.5642 625.9296,739.6792 631.1916,776.0992 " fill="none" id="Entry-to-AgendaEntry" style="stroke:#181818;stroke-width:0.6;"/><polygon fill="none" points="632.736,786.7882,634.7546,775.5844,627.6286,776.614,632.736,786.7882" style="stroke:#181818;stroke-width:0.6;"/><text fill="#000000" font-family="sans-serif" font-size="7.8" lengthAdjust="spacing" textLength="27.6" x="630.6" y="766.5252">extends</text></g><!--link Entry to ToDoListEntry--><g id="link_Entry_ToDoListEntry"><path codeLine="172" d="M630.624,672.3322 C650.346,699.6082 679.2,739.5082 679.2,739.5082 C679.2,739.5082 766.4899,774.5126 836.2459,802.4846 " fill="none" id="Entry-to-ToDoListEntry" style="stroke:#181818;stroke-width:0.6;"/><polygon fill="none" points="846.27,806.5042,837.5858,799.1432,834.906,805.8259,846.27,806.5042" style="stroke:#181818;stroke-width:0.6;"/><text fill="#000000" font-family="sans-serif" font-size="7.8" lengthAdjust="spacing" textLength="27.6" x="749.4" y="766.5252">extends</text></g><!--link AddAgendaEntryController to ApplicationSession--><g id="link_AddAgendaEntryController_ApplicationSession"><path codeLine="174" d="M1542.036,169.9942 C1253.118,193.8982 724.8,237.6082 724.8,237.6082 C724.8,237.6082 674.0907,281.5587 639.4407,311.5827 " fill="none" id="AddAgendaEntryController-to-ApplicationSession" style="stroke:#181818;stroke-width:0.6;stroke-dasharray:7.0,7.0;"/><polygon fill="#181818" points="636.72,313.9402,642.3727,312.2178,638.9873,311.9756,639.2294,308.5902,636.72,313.9402" style="stroke:#181818;stroke-width:0.6;"/></g><!--link AddAgendaEntryController to UserSession--><g id="link_AddAgendaEntryController_UserSession"><path codeLine="175" d="M1714.662,202.4782 C1699.044,270.5902 1672.2,387.6082 1672.2,387.6082 C1672.2,387.6082 1612.2,417.0082 1612.2,417.0082 C1612.2,417.0082 724.8,421.8082 724.8,421.8082 C724.8,421.8082 702.9386,437.3058 682.2086,452.0058 " fill="none" id="AddAgendaEntryController-to-UserSession" style="stroke:#181818;stroke-width:0.6;stroke-dasharray:7.0,7.0;"/><polygon fill="#181818" points="679.272,454.0882,685.0652,452.9223,681.7192,452.3529,682.2886,449.0069,679.272,454.0882" style="stroke:#181818;stroke-width:0.6;"/></g><!--link ApplicationSession to ApplicationSession--><g id="link_ApplicationSession_ApplicationSession"><path codeLine="177" d="M653.196,326.4622 C665.1,327.2422 674.1,331.6222 674.1,339.6082 C674.1,347.5942 668.6923,351.7388 656.7883,352.5188 " fill="none" id="ApplicationSession-to-ApplicationSession" style="stroke:#181818;stroke-width:0.6;"/><polygon fill="#181818" points="653.196,352.7542,658.7414,354.796,656.1896,352.5581,658.4275,350.0063,653.196,352.7542" style="stroke:#181818;stroke-width:0.6;"/><text fill="#000000" font-family="sans-serif" font-size="7.8" lengthAdjust="spacing" textLength="29.4" x="677.7" y="342.9252">instance</text></g><!--link ApplicationSession to UserSession--><g id="link_ApplicationSession_UserSession"><path codeLine="178" d="M615.99,365.1622 C624.432,390.8962 636.2993,427.0818 644.0393,450.6618 " fill="none" id="ApplicationSession-to-UserSession" style="stroke:#181818;stroke-width:0.6;"/><polygon fill="#181818" points="645.162,454.0822,645.7582,448.203,644.2264,451.2318,641.1976,449.7,645.162,454.0822" style="stroke:#181818;stroke-width:0.6;"/><text fill="#000000" font-family="sans-serif" font-size="7.8" lengthAdjust="spacing" textLength="43.2" x="632.4" y="414.6252">userSession</text><text fill="#000000" font-family="sans-serif" font-size="7.8" lengthAdjust="spacing" textLength="4.2" x="639.3344" y="447.5097">1</text></g><!--SRC=[fLZDRzis5B_hho3SYxn8nNer0WDft0OfrcwOavrweINMPaE90abbzRR-xtkKPEfHf1mNzI6s-7xl-uDFqK-yRgYY5MbeyKJtR6kEWf4lKfHC9TfHzO6MyczUxyaNAZH35C5hPeuD8uqKH_k0Q8MWMjyOe_YkDUo-aFMM_yF8hqaoQ2EBn_i5URNfFkJVXC2dOo8tPNcpPtL9tzL67H_l1-Btv3jYlfL0b48mTOcG4Js0xETg5fGMy4LtKb4ZrP-iaPh3ZsD6zegnUWj6C7ngv4R-nhN92EsaBP6AFJEtIDXx9QijqvhBEft07WOfrXREj4Us6YhAwtHZ93ul5AE68HzIWwI0QTfGPJQ0oGXWx0_CJZt_Kph-NaP2tfim3RSZZn5PaElhzrqPhTSJz9WW1mTV4T5-Se-80k5YTL-3OtN1qYLPUU0GUXjDPKpeNIIvCTmfKJ5Q7qv4WG3wVf-u9pw_K0A1c5vH8EId2kAoeXYHprJm4YIS0GPsnzCH2mP6lZs-WzeJARD_pqYFfJ0csmPanEgFj0RhoxV7ErsbOu_tnmhhGrfxZPs_I4LE3DLFK9KFy8LEHwb06rM70b7iFR4kSS1lln1fI6H801xJQZXdTLi5OsEe3x0J3xPeYO08P5SoLm8MjvDIC5hZuGKQjiM1bQte6_PPyZ9qV0oAvtTDA-lP5ZgYtkCmsujdubbEA7W6fwLiTm970efQmTWD1LqXlQdLbNMIiqvITk9RXkRQ_7g6bamNYZS6HdlKNWQt8fG5VA7JPtRWXM3MC5kJrt_rpsiijuKMw8LwwRtgJ4YHsgnJaZcXcUEDsO_dmayMS8ze58SPR8vXlNcwWeex6MV_9l59SL55xBWoXtWZqBBYtQKxHvwfZfnKSiT5L5qtYwAPfj_-e4UcFhNL3XQE28AN6rcq5QlDGxIAH_gyZAzo1ySVv0xt-nCNOilCgPgszdazQHeSrswgHWO4nWnTuQAR-T5qFP8DiShwo6JaS-r78fludGL-PjQhpBcHpTZhgZdnDv2Fj6d2VJ0i-HuNt0l6ltq1RMJA-eVbAQHUAGDW7Gfv-Ds_T2tlbEt7hh0PWuL_Y_K6JmwTuUFPhDMe9RqUz-r5Lhl83oljVEXlcaRmefj50pRmnbvMlF2tkyXMq2e5EGbtw22GZvgfELqWo9BxfMBvWdCGcfThwfHO13YJsYdGBTl1ky_hr-lPrvGayPReF5_xM_MAy26IoUpha9K_OL9udmuqBDuidDDnQdp5YsDZrPwSjzOjq2lNiHSpYB6zp_FChAah4dypF2yikfMkeY-JIUAijI7oB-aLEL2Te3qfpsKKqkqcSyIeDLRP7RxXBN8c25tkVl7pF70aGJlW10nZRELDscuQNfI_WDro9dvJpONRyUwzgVR3QNDo9cEsCoLQuRtyyvg6bxdLyFy3Q83-mCh0xmFH0WW1BlqXAUaVylo_gMJspS2Zne1fzPmWBpWJZFhpU3IdGN9uJtH128_nS8ipsUZZIs15MgJgVm00]--></g></svg>