<?xml version="1.0" encoding="us-ascii" standalone="no"?><svg xmlns="http://www.w3.org/2000/svg" xmlns:xlink="http://www.w3.org/1999/xlink" contentStyleType="text/css" height="490px" preserveAspectRatio="none" style="width:682px;height:490px;background:#FFFFFF;" version="1.1" viewBox="0 0 682 490" width="682px" zoomAndPan="magnify"><defs/><g><rect fill="#FFFFFF" height="325.9395" style="stroke:#181818;stroke-width:1.0;" width="10" x="190" y="90.5332"/><rect fill="#FFFFFF" height="28" style="stroke:#181818;stroke-width:1.0;" width="10" x="195" y="156.1152"/><rect fill="#FFFFFF" height="145.7754" style="stroke:#181818;stroke-width:1.0;" width="10" x="500" y="232.4063"/><rect fill="#FFFFFF" height="52.2422" style="stroke:#181818;stroke-width:1.0;" width="10" x="636.5" y="294.6484"/><rect fill="none" height="280.6484" style="stroke:#000000;stroke-width:1.5;" width="584.5" x="91.5" y="105.5332"/><line style="stroke:#181818;stroke-width:0.5;stroke-dasharray:5.0,5.0;" x1="194.5" x2="194.5" y1="57.2422" y2="434.4727"/><line style="stroke:#181818;stroke-width:0.5;stroke-dasharray:5.0,5.0;" x1="505" x2="505" y1="240.2363" y2="434.4727"/><line style="stroke:#181818;stroke-width:0.5;stroke-dasharray:5.0,5.0;" x1="641" x2="641" y1="302.4785" y2="434.4727"/><rect fill="#E3E3E3" height="32.6211" rx="2.5" ry="2.5" style="stroke:#181818;stroke-width:0.5;" width="187" x="101.5" y="23.6211"/><text fill="#000000" font-family="sans-serif" font-size="14" lengthAdjust="spacing" textLength="173" x="108.5" y="45.7285">:AddAgendaEntryController</text><rect fill="#E3E3E3" height="32.6211" rx="2.5" ry="2.5" style="stroke:#181818;stroke-width:0.5;" width="187" x="101.5" y="433.4727"/><text fill="#000000" font-family="sans-serif" font-size="14" lengthAdjust="spacing" textLength="173" x="108.5" y="455.5801">:AddAgendaEntryController</text><rect fill="#E3E3E3" height="51.2422" rx="2.5" ry="2.5" style="stroke:#181818;stroke-width:0.5;" width="108" x="451" y="433.4727"/><text fill="#000000" font-family="sans-serif" font-size="14" lengthAdjust="spacing" textLength="85" x="462.5" y="455.5801">toDoListEntry</text><text fill="#000000" font-family="sans-serif" font-size="14" lengthAdjust="spacing" textLength="94" x="458" y="474.2012">:ToDoListEntry</text><rect fill="#E3E3E3" height="51.2422" rx="2.5" ry="2.5" style="stroke:#181818;stroke-width:0.5;" width="49" x="617" y="433.4727"/><text fill="#000000" font-family="sans-serif" font-size="14" lengthAdjust="spacing" textLength="26" x="628.5" y="455.5801">task</text><text fill="#000000" font-family="sans-serif" font-size="14" lengthAdjust="spacing" textLength="35" x="624" y="474.2012">:Task</text><rect fill="#FFFFFF" height="325.9395" style="stroke:#181818;stroke-width:1.0;" width="10" x="190" y="90.5332"/><rect fill="#FFFFFF" height="28" style="stroke:#181818;stroke-width:1.0;" width="10" x="195" y="156.1152"/><rect fill="#FFFFFF" height="145.7754" style="stroke:#181818;stroke-width:1.0;" width="10" x="500" y="232.4063"/><rect fill="#FFFFFF" height="52.2422" style="stroke:#181818;stroke-width:1.0;" width="10" x="636.5" y="294.6484"/><polygon fill="#181818" points="178,86.5332,188,90.5332,178,94.5332,182,90.5332" style="stroke:#181818;stroke-width:1.0;"/><line style="stroke:#181818;stroke-width:1.0;" x1="0" x2="184" y1="90.5332" y2="90.5332"/><text fill="#000000" font-family="sans-serif" font-size="13" font-weight="bold" lengthAdjust="spacing" textLength="14" x="7" y="85.2705">13</text><text fill="#000000" font-family="sans-serif" font-size="13" lengthAdjust="spacing" textLength="153" x="25" y="85.2705">getTask(toDoListEntryDto)</text><path d="M91.5,105.5332 L191.5,105.5332 L191.5,114.8242 L181.5,124.8242 L91.5,124.8242 L91.5,105.5332 " fill="#EEEEEE" style="stroke:#000000;stroke-width:1.5;"/><rect fill="none" height="280.6484" style="stroke:#000000;stroke-width:1.5;" width="584.5" x="91.5" y="105.5332"/><text fill="#000000" font-family="sans-serif" font-size="13" font-weight="bold" lengthAdjust="spacing" textLength="55" x="106.5" y="120.5615">Get Task</text><line style="stroke:#181818;stroke-width:1.0;" x1="205" x2="247" y1="148.1152" y2="148.1152"/><line style="stroke:#181818;stroke-width:1.0;" x1="247" x2="247" y1="148.1152" y2="161.1152"/><line style="stroke:#181818;stroke-width:1.0;" x1="206" x2="247" y1="161.1152" y2="161.1152"/><polygon fill="#181818" points="216,157.1152,206,161.1152,216,165.1152,212,161.1152" style="stroke:#181818;stroke-width:1.0;"/><text fill="#000000" font-family="sans-serif" font-size="13" font-weight="bold" lengthAdjust="spacing" textLength="25" x="212" y="142.8525">13.1</text><text fill="#000000" font-family="sans-serif" font-size="13" lengthAdjust="spacing" textLength="257" x="241" y="142.8525">toDoListEntry = toDomain(toDoListEntryDto)</text><polygon fill="#181818" points="439,218.4063,449,222.4063,439,226.4063,443,222.4063" style="stroke:#181818;stroke-width:1.0;"/><line style="stroke:#181818;stroke-width:1.0;" x1="200" x2="445" y1="222.4063" y2="222.4063"/><text fill="#000000" font-family="sans-serif" font-size="13" font-weight="bold" lengthAdjust="spacing" textLength="25" x="207" y="217.1436">13.2</text><text fill="#000000" font-family="sans-serif" font-size="13" lengthAdjust="spacing" textLength="133" x="236" y="217.1436">getTask(toDoListEntry)</text><rect fill="#E3E3E3" height="51.2422" rx="2.5" ry="2.5" style="stroke:#181818;stroke-width:0.5;" width="108" x="451" y="199.1152"/><text fill="#000000" font-family="sans-serif" font-size="14" lengthAdjust="spacing" textLength="85" x="462.5" y="221.2227">toDoListEntry</text><text fill="#000000" font-family="sans-serif" font-size="14" lengthAdjust="spacing" textLength="94" x="458" y="239.8438">:ToDoListEntry</text><polygon fill="#181818" points="605,280.6484,615,284.6484,605,288.6484,609,284.6484" style="stroke:#181818;stroke-width:1.0;"/><line style="stroke:#181818;stroke-width:1.0;" x1="510" x2="611" y1="284.6484" y2="284.6484"/><text fill="#000000" font-family="sans-serif" font-size="13" font-weight="bold" lengthAdjust="spacing" textLength="25" x="517" y="279.3857">13.3</text><text fill="#000000" font-family="sans-serif" font-size="13" lengthAdjust="spacing" textLength="54" x="546" y="279.3857">getTask()</text><rect fill="#E3E3E3" height="51.2422" rx="2.5" ry="2.5" style="stroke:#181818;stroke-width:0.5;" width="49" x="617" y="261.3574"/><text fill="#000000" font-family="sans-serif" font-size="14" lengthAdjust="spacing" textLength="26" x="628.5" y="283.4648">task</text><text fill="#000000" font-family="sans-serif" font-size="14" lengthAdjust="spacing" textLength="35" x="624" y="302.0859">:Task</text><polygon fill="#181818" points="521,342.8906,511,346.8906,521,350.8906,517,346.8906" style="stroke:#181818;stroke-width:1.0;"/><line style="stroke:#181818;stroke-width:1.0;stroke-dasharray:2.0,2.0;" x1="515" x2="640.5" y1="346.8906" y2="346.8906"/><text fill="#000000" font-family="sans-serif" font-size="13" font-weight="bold" lengthAdjust="spacing" textLength="25" x="527" y="341.6279">13.4</text><text fill="#000000" font-family="sans-serif" font-size="13" lengthAdjust="spacing" textLength="25" x="556" y="341.6279">task</text><polygon fill="#181818" points="211,374.1816,201,378.1816,211,382.1816,207,378.1816" style="stroke:#181818;stroke-width:1.0;"/><line style="stroke:#181818;stroke-width:1.0;stroke-dasharray:2.0,2.0;" x1="205" x2="504" y1="378.1816" y2="378.1816"/><text fill="#000000" font-family="sans-serif" font-size="13" font-weight="bold" lengthAdjust="spacing" textLength="25" x="217" y="372.9189">13.5</text><text fill="#000000" font-family="sans-serif" font-size="13" lengthAdjust="spacing" textLength="25" x="246" y="372.9189">task</text><polygon fill="#181818" points="11,412.4727,1,416.4727,11,420.4727,7,416.4727" style="stroke:#181818;stroke-width:1.0;"/><line style="stroke:#181818;stroke-width:1.0;stroke-dasharray:2.0,2.0;" x1="5" x2="194" y1="416.4727" y2="416.4727"/><text fill="#000000" font-family="sans-serif" font-size="13" font-weight="bold" lengthAdjust="spacing" textLength="14" x="17" y="411.21">14</text><text fill="#000000" font-family="sans-serif" font-size="13" lengthAdjust="spacing" textLength="25" x="35" y="411.21">task</text><!--SRC=[TLB1QiCm3BtxAqHFQo63ift2DWXj6MDbXJQNmIvgegMcYHriPQD_lzWjMPocEYIszFIU_MHxbAf6WnLKMkdiO7H5mAOXORjAZTaH2zhngIGmb36gekm3x05p_IjL0TzOMXAYJRFCP8sAOH8dUPuKf79SAJQdXMw_kYp9J00jBDBjEiIpNkgrjEpHNofE-tlVaswMc_NRBbrzfDlFGJFQe-jfVsTeidiN0XlMggdsP63-8A8Nhnf3GUo0Tu7YalLqq74_5vYn_46cytcXZSBefePNOd0SmkUwS2Yuw40CWG0y-ts5Keqe1pJNgbta51R5c7nWr6m6DwuSgdQyeSsX_2K2Y5Ti_Gw4fgDz_nf-Fd0ZN1MYuKMSeSxoiOwUBUFKWnFtPZIax5DTEz6-v_EY_r8UVUOfYWBIgr7z0G00]--></g></svg>