<?xml version="1.0" encoding="us-ascii" standalone="no"?><svg xmlns="http://www.w3.org/2000/svg" xmlns:xlink="http://www.w3.org/1999/xlink" contentStyleType="text/css" height="1398px" preserveAspectRatio="none" style="width:933px;height:1398px;background:#FFFFFF;" version="1.1" viewBox="0 0 933 1398" width="933px" zoomAndPan="magnify"><defs/><g><rect fill="#FFFFFF" height="1166.8828" style="stroke:#181818;stroke-width:1.0;" width="10" x="48.5" y="112.2422"/><rect fill="#FFFFFF" height="396.793" style="stroke:#181818;stroke-width:1.0;" width="10" x="336.5" y="135.5332"/><rect fill="#FFFFFF" height="192.668" style="stroke:#181818;stroke-width:1.0;" width="10" x="336.5" y="563.6172"/><rect fill="#FFFFFF" height="284.8809" style="stroke:#181818;stroke-width:1.0;" width="10" x="336.5" y="804.8672"/><rect fill="#FFFFFF" height="158.0859" style="stroke:#181818;stroke-width:1.0;" width="10" x="336.5" y="1121.0391"/><rect fill="#FFFFFF" height="273.2988" style="stroke:#181818;stroke-width:1.0;" width="10" x="721.5" y="210.4453"/><rect fill="#FFFFFF" height="106.5039" style="stroke:#181818;stroke-width:1.0;" width="10" x="726.5" y="249.7363"/><rect fill="#FFFFFF" height="95.5039" style="stroke:#181818;stroke-width:1.0;" width="10" x="721.5" y="594.9082"/><rect fill="#FFFFFF" height="95.5039" style="stroke:#181818;stroke-width:1.0;" width="10" x="721.5" y="836.1582"/><rect fill="#FFFFFF" height="95.5039" style="stroke:#181818;stroke-width:1.0;" width="10" x="721.5" y="962.9531"/><rect fill="#FFFFFF" height="95.5039" style="stroke:#181818;stroke-width:1.0;" width="10" x="721.5" y="1152.3301"/><line style="stroke:#181818;stroke-width:0.5;stroke-dasharray:5.0,5.0;" x1="53" x2="53" y1="102.2422" y2="1297.125"/><line style="stroke:#181818;stroke-width:0.5;stroke-dasharray:5.0,5.0;" x1="341" x2="341" y1="102.2422" y2="1297.125"/><line style="stroke:#181818;stroke-width:0.5;stroke-dasharray:5.0,5.0;" x1="726" x2="726" y1="175.3438" y2="1297.125"/><text fill="#000000" font-family="sans-serif" font-size="14" lengthAdjust="spacing" textLength="91" x="5" y="80.1074">Green Spaces</text><text fill="#000000" font-family="sans-serif" font-size="14" lengthAdjust="spacing" textLength="56" x="24.5" y="98.7285">Manager</text><ellipse cx="53.5" cy="13.5" fill="#E3E3E3" rx="8" ry="8" style="stroke:#181818;stroke-width:0.5;"/><path d="M53.5,21.5 L53.5,48.5 M40.5,29.5 L66.5,29.5 M53.5,48.5 L40.5,63.5 M53.5,48.5 L66.5,63.5 " fill="none" style="stroke:#181818;stroke-width:0.5;"/><text fill="#000000" font-family="sans-serif" font-size="14" lengthAdjust="spacing" textLength="91" x="5" y="1311.2324">Green Spaces</text><text fill="#000000" font-family="sans-serif" font-size="14" lengthAdjust="spacing" textLength="56" x="24.5" y="1329.8535">Manager</text><ellipse cx="53.5" cy="1341.8672" fill="#E3E3E3" rx="8" ry="8" style="stroke:#181818;stroke-width:0.5;"/><path d="M53.5,1349.8672 L53.5,1376.8672 M40.5,1357.8672 L66.5,1357.8672 M53.5,1376.8672 L40.5,1391.8672 M53.5,1376.8672 L66.5,1391.8672 " fill="none" style="stroke:#181818;stroke-width:0.5;"/><rect fill="#E3E3E3" height="32.6211" rx="2.5" ry="2.5" style="stroke:#181818;stroke-width:0.5;" width="137" x="273" y="68.6211"/><text fill="#000000" font-family="sans-serif" font-size="14" lengthAdjust="spacing" textLength="123" x="280" y="90.7285">:AddAgendaEntryUI</text><rect fill="#E3E3E3" height="32.6211" rx="2.5" ry="2.5" style="stroke:#181818;stroke-width:0.5;" width="137" x="273" y="1296.125"/><text fill="#000000" font-family="sans-serif" font-size="14" lengthAdjust="spacing" textLength="123" x="280" y="1318.2324">:AddAgendaEntryUI</text><rect fill="#E3E3E3" height="32.6211" rx="2.5" ry="2.5" style="stroke:#181818;stroke-width:0.5;" width="187" x="633" y="1296.125"/><text fill="#000000" font-family="sans-serif" font-size="14" lengthAdjust="spacing" textLength="173" x="640" y="1318.2324">:AddAgendaEntryController</text><rect fill="#FFFFFF" height="1166.8828" style="stroke:#181818;stroke-width:1.0;" width="10" x="48.5" y="112.2422"/><rect fill="#FFFFFF" height="396.793" style="stroke:#181818;stroke-width:1.0;" width="10" x="336.5" y="135.5332"/><rect fill="#FFFFFF" height="192.668" style="stroke:#181818;stroke-width:1.0;" width="10" x="336.5" y="563.6172"/><rect fill="#FFFFFF" height="284.8809" style="stroke:#181818;stroke-width:1.0;" width="10" x="336.5" y="804.8672"/><rect fill="#FFFFFF" height="158.0859" style="stroke:#181818;stroke-width:1.0;" width="10" x="336.5" y="1121.0391"/><rect fill="#FFFFFF" height="273.2988" style="stroke:#181818;stroke-width:1.0;" width="10" x="721.5" y="210.4453"/><rect fill="#FFFFFF" height="106.5039" style="stroke:#181818;stroke-width:1.0;" width="10" x="726.5" y="249.7363"/><rect fill="#FFFFFF" height="95.5039" style="stroke:#181818;stroke-width:1.0;" width="10" x="721.5" y="594.9082"/><rect fill="#FFFFFF" height="95.5039" style="stroke:#181818;stroke-width:1.0;" width="10" x="721.5" y="836.1582"/><rect fill="#FFFFFF" height="95.5039" style="stroke:#181818;stroke-width:1.0;" width="10" x="721.5" y="962.9531"/><rect fill="#FFFFFF" height="95.5039" style="stroke:#181818;stroke-width:1.0;" width="10" x="721.5" y="1152.3301"/><polygon fill="#181818" points="324.5,131.5332,334.5,135.5332,324.5,139.5332,328.5,135.5332" style="stroke:#181818;stroke-width:1.0;"/><line style="stroke:#181818;stroke-width:1.0;" x1="58.5" x2="330.5" y1="135.5332" y2="135.5332"/><text fill="#000000" font-family="sans-serif" font-size="13" font-weight="bold" lengthAdjust="spacing" textLength="7" x="65.5" y="130.2705">1</text><text fill="#000000" font-family="sans-serif" font-size="13" lengthAdjust="spacing" textLength="222" x="76.5" y="130.2705">asks to add a new entry to the agenda</text><polygon fill="#181818" points="621,162.8242,631,166.8242,621,170.8242,625,166.8242" style="stroke:#181818;stroke-width:1.0;"/><line style="stroke:#181818;stroke-width:1.0;" x1="346.5" x2="627" y1="166.8242" y2="166.8242"/><text fill="#000000" font-family="sans-serif" font-size="13" font-weight="bold" lengthAdjust="spacing" textLength="7" x="353.5" y="161.5615">2</text><text fill="#000000" font-family="sans-serif" font-size="13" lengthAdjust="spacing" textLength="36" x="364.5" y="161.5615">create</text><rect fill="#E3E3E3" height="32.6211" rx="2.5" ry="2.5" style="stroke:#181818;stroke-width:0.5;" width="187" x="633" y="143.5332"/><text fill="#000000" font-family="sans-serif" font-size="14" lengthAdjust="spacing" textLength="173" x="640" y="165.6406">:AddAgendaEntryController</text><polygon fill="#181818" points="709.5,206.4453,719.5,210.4453,709.5,214.4453,713.5,210.4453" style="stroke:#181818;stroke-width:1.0;"/><line style="stroke:#181818;stroke-width:1.0;" x1="346.5" x2="715.5" y1="210.4453" y2="210.4453"/><text fill="#000000" font-family="sans-serif" font-size="13" font-weight="bold" lengthAdjust="spacing" textLength="7" x="353.5" y="205.1826">3</text><text fill="#000000" font-family="sans-serif" font-size="13" lengthAdjust="spacing" textLength="126" x="364.5" y="205.1826">getListGreenSpaces()</text><line style="stroke:#181818;stroke-width:1.0;" x1="731.5" x2="778.5" y1="236.7363" y2="236.7363"/><line style="stroke:#181818;stroke-width:1.0;" x1="778.5" x2="778.5" y1="236.7363" y2="249.7363"/><line style="stroke:#181818;stroke-width:1.0;" x1="737.5" x2="778.5" y1="249.7363" y2="249.7363"/><polygon fill="#181818" points="747.5,245.7363,737.5,249.7363,747.5,253.7363,743.5,249.7363" style="stroke:#181818;stroke-width:1.0;"/><text fill="#000000" font-family="sans-serif" font-size="13" font-weight="bold" lengthAdjust="spacing" textLength="7" x="743.5" y="231.4736">4</text><text fill="#000000" font-family="sans-serif" font-size="13" lengthAdjust="spacing" textLength="172" x="754.5" y="231.4736">getCollaboratorFromSession()</text><rect fill="none" height="59.2129" style="stroke:#000000;stroke-width:1.5;" width="193" x="630" y="262.7363"/><path d="M630,262.7363 L692,262.7363 L692,271.7363 L682,281.7363 L630,281.7363 L630,262.7363 " fill="#EEEEEE" style="stroke:#000000;stroke-width:2.0;"/><text fill="#000000" font-family="sans-serif" font-size="13" font-weight="bold" lengthAdjust="spacing" textLength="17" x="643" y="278.7646">ref</text><text fill="#000000" font-family="sans-serif" font-size="12" lengthAdjust="spacing" textLength="145" x="654" y="298.6855">Get Green Space Manager</text><text fill="#000000" font-family="sans-serif" font-size="12" lengthAdjust="spacing" textLength="3" x="725" y="314.6465">&#160;</text><line style="stroke:#181818;stroke-width:1.0;stroke-dasharray:2.0,2.0;" x1="736.5" x2="778.5" y1="355.2402" y2="355.2402"/><line style="stroke:#181818;stroke-width:1.0;stroke-dasharray:2.0,2.0;" x1="778.5" x2="778.5" y1="355.2402" y2="368.2402"/><line style="stroke:#181818;stroke-width:1.0;stroke-dasharray:2.0,2.0;" x1="731.5" x2="778.5" y1="368.2402" y2="368.2402"/><polygon fill="#181818" points="741.5,364.2402,731.5,368.2402,741.5,372.2402,737.5,368.2402" style="stroke:#181818;stroke-width:1.0;"/><text fill="#000000" font-family="sans-serif" font-size="13" font-weight="bold" lengthAdjust="spacing" textLength="7" x="743.5" y="349.9775">5</text><text fill="#000000" font-family="sans-serif" font-size="13" lengthAdjust="spacing" textLength="119" x="754.5" y="349.9775">greenSpaceManager</text><rect fill="none" height="59.2129" style="stroke:#000000;stroke-width:1.5;" width="193" x="630" y="396.2402"/><path d="M630,396.2402 L692,396.2402 L692,405.2402 L682,415.2402 L630,415.2402 L630,396.2402 " fill="#EEEEEE" style="stroke:#000000;stroke-width:2.0;"/><text fill="#000000" font-family="sans-serif" font-size="13" font-weight="bold" lengthAdjust="spacing" textLength="17" x="643" y="412.2686">ref</text><text fill="#000000" font-family="sans-serif" font-size="12" lengthAdjust="spacing" textLength="154" x="649.5" y="432.1895">Get Green Spaces with DTO</text><text fill="#000000" font-family="sans-serif" font-size="12" lengthAdjust="spacing" textLength="3" x="725" y="448.1504">&#160;</text><polygon fill="#181818" points="357.5,479.7441,347.5,483.7441,357.5,487.7441,353.5,483.7441" style="stroke:#181818;stroke-width:1.0;"/><line style="stroke:#181818;stroke-width:1.0;stroke-dasharray:2.0,2.0;" x1="351.5" x2="725.5" y1="483.7441" y2="483.7441"/><text fill="#000000" font-family="sans-serif" font-size="13" font-weight="bold" lengthAdjust="spacing" textLength="7" x="363.5" y="478.4814">6</text><text fill="#000000" font-family="sans-serif" font-size="13" lengthAdjust="spacing" textLength="116" x="374.5" y="478.4814">listGreenSpacesDto</text><polygon fill="#181818" points="69.5,528.3262,59.5,532.3262,69.5,536.3262,65.5,532.3262" style="stroke:#181818;stroke-width:1.0;"/><line style="stroke:#181818;stroke-width:1.0;stroke-dasharray:2.0,2.0;" x1="63.5" x2="340.5" y1="532.3262" y2="532.3262"/><text fill="#000000" font-family="sans-serif" font-size="13" font-weight="bold" lengthAdjust="spacing" textLength="7" x="75.5" y="518.418">7</text><text fill="#000000" font-family="sans-serif" font-size="13" lengthAdjust="spacing" textLength="186" x="86.5" y="509.7725">asks to choose the green space</text><text fill="#000000" font-family="sans-serif" font-size="13" lengthAdjust="spacing" textLength="177" x="86.5" y="527.0635">for which want to add the entry</text><polygon fill="#181818" points="324.5,559.6172,334.5,563.6172,324.5,567.6172,328.5,563.6172" style="stroke:#181818;stroke-width:1.0;"/><line style="stroke:#181818;stroke-width:1.0;" x1="58.5" x2="330.5" y1="563.6172" y2="563.6172"/><text fill="#000000" font-family="sans-serif" font-size="13" font-weight="bold" lengthAdjust="spacing" textLength="7" x="65.5" y="558.3545">8</text><text fill="#000000" font-family="sans-serif" font-size="13" lengthAdjust="spacing" textLength="178" x="76.5" y="558.3545">select the desired green space</text><polygon fill="#181818" points="709.5,590.9082,719.5,594.9082,709.5,598.9082,713.5,594.9082" style="stroke:#181818;stroke-width:1.0;"/><line style="stroke:#181818;stroke-width:1.0;" x1="346.5" x2="715.5" y1="594.9082" y2="594.9082"/><text fill="#000000" font-family="sans-serif" font-size="13" font-weight="bold" lengthAdjust="spacing" textLength="7" x="353.5" y="589.6455">9</text><text fill="#000000" font-family="sans-serif" font-size="13" lengthAdjust="spacing" textLength="207" x="364.5" y="589.6455">getToDoListEntries(greenSpaceDto)</text><rect fill="none" height="59.2129" style="stroke:#000000;stroke-width:1.5;" width="193" x="630" y="602.9082"/><path d="M630,602.9082 L692,602.9082 L692,611.9082 L682,621.9082 L630,621.9082 L630,602.9082 " fill="#EEEEEE" style="stroke:#000000;stroke-width:2.0;"/><text fill="#000000" font-family="sans-serif" font-size="13" font-weight="bold" lengthAdjust="spacing" textLength="17" x="643" y="618.9365">ref</text><text fill="#000000" font-family="sans-serif" font-size="12" lengthAdjust="spacing" textLength="173" x="640" y="638.8574">Get To-Do List entries with DTO</text><text fill="#000000" font-family="sans-serif" font-size="12" lengthAdjust="spacing" textLength="3" x="725" y="654.8184">&#160;</text><polygon fill="#181818" points="357.5,686.4121,347.5,690.4121,357.5,694.4121,353.5,690.4121" style="stroke:#181818;stroke-width:1.0;"/><line style="stroke:#181818;stroke-width:1.0;stroke-dasharray:2.0,2.0;" x1="351.5" x2="725.5" y1="690.4121" y2="690.4121"/><text fill="#000000" font-family="sans-serif" font-size="13" font-weight="bold" lengthAdjust="spacing" textLength="14" x="363.5" y="685.1494">10</text><text fill="#000000" font-family="sans-serif" font-size="13" lengthAdjust="spacing" textLength="68" x="381.5" y="685.1494">toDoListDto</text><polygon fill="#181818" points="69.5,752.2852,59.5,756.2852,69.5,760.2852,65.5,756.2852" style="stroke:#181818;stroke-width:1.0;"/><line style="stroke:#181818;stroke-width:1.0;stroke-dasharray:2.0,2.0;" x1="63.5" x2="340.5" y1="756.2852" y2="756.2852"/><text fill="#000000" font-family="sans-serif" font-size="13" font-weight="bold" lengthAdjust="spacing" textLength="14" x="75.5" y="733.7314">11</text><text fill="#000000" font-family="sans-serif" font-size="13" lengthAdjust="spacing" textLength="209" x="93.5" y="716.4404">shows all the tasks registered in the</text><text fill="#000000" font-family="sans-serif" font-size="13" lengthAdjust="spacing" textLength="207" x="93.5" y="733.7314">to-do list of the chosen green space</text><text fill="#000000" font-family="sans-serif" font-size="13" lengthAdjust="spacing" textLength="225" x="93.5" y="751.0225">and asks to select the one want to add</text><polygon fill="#181818" points="324.5,800.8672,334.5,804.8672,324.5,808.8672,328.5,804.8672" style="stroke:#181818;stroke-width:1.0;"/><line style="stroke:#181818;stroke-width:1.0;" x1="58.5" x2="330.5" y1="804.8672" y2="804.8672"/><text fill="#000000" font-family="sans-serif" font-size="13" font-weight="bold" lengthAdjust="spacing" textLength="14" x="65.5" y="790.959">12</text><text fill="#000000" font-family="sans-serif" font-size="13" lengthAdjust="spacing" textLength="230" x="83.5" y="782.3135">select the desired task and its start and</text><text fill="#000000" font-family="sans-serif" font-size="13" lengthAdjust="spacing" textLength="50" x="87.5" y="799.6045">end date</text><polygon fill="#181818" points="709.5,832.1582,719.5,836.1582,709.5,840.1582,713.5,836.1582" style="stroke:#181818;stroke-width:1.0;"/><line style="stroke:#181818;stroke-width:1.0;" x1="346.5" x2="715.5" y1="836.1582" y2="836.1582"/><text fill="#000000" font-family="sans-serif" font-size="13" font-weight="bold" lengthAdjust="spacing" textLength="14" x="353.5" y="830.8955">13</text><text fill="#000000" font-family="sans-serif" font-size="13" lengthAdjust="spacing" textLength="153" x="371.5" y="830.8955">getTask(toDoListEntryDto)</text><rect fill="none" height="59.2129" style="stroke:#000000;stroke-width:1.5;" width="193" x="630" y="844.1582"/><path d="M630,844.1582 L692,844.1582 L692,853.1582 L682,863.1582 L630,863.1582 L630,844.1582 " fill="#EEEEEE" style="stroke:#000000;stroke-width:2.0;"/><text fill="#000000" font-family="sans-serif" font-size="13" font-weight="bold" lengthAdjust="spacing" textLength="17" x="643" y="860.1865">ref</text><text fill="#000000" font-family="sans-serif" font-size="12" lengthAdjust="spacing" textLength="49" x="702" y="880.1074">Get Task</text><text fill="#000000" font-family="sans-serif" font-size="12" lengthAdjust="spacing" textLength="3" x="725" y="896.0684">&#160;</text><polygon fill="#181818" points="357.5,927.6621,347.5,931.6621,357.5,935.6621,353.5,931.6621" style="stroke:#181818;stroke-width:1.0;"/><line style="stroke:#181818;stroke-width:1.0;stroke-dasharray:2.0,2.0;" x1="351.5" x2="725.5" y1="931.6621" y2="931.6621"/><text fill="#000000" font-family="sans-serif" font-size="13" font-weight="bold" lengthAdjust="spacing" textLength="14" x="363.5" y="926.3994">14</text><text fill="#000000" font-family="sans-serif" font-size="13" lengthAdjust="spacing" textLength="25" x="381.5" y="926.3994">task</text><polygon fill="#181818" points="709.5,958.9531,719.5,962.9531,709.5,966.9531,713.5,962.9531" style="stroke:#181818;stroke-width:1.0;"/><line style="stroke:#181818;stroke-width:1.0;" x1="346.5" x2="715.5" y1="962.9531" y2="962.9531"/><text fill="#000000" font-family="sans-serif" font-size="13" font-weight="bold" lengthAdjust="spacing" textLength="14" x="353.5" y="957.6904">15</text><text fill="#000000" font-family="sans-serif" font-size="13" lengthAdjust="spacing" textLength="338" x="371.5" y="957.6904">createAgendaEntry(task, greenSpace, startDate, endDate)</text><rect fill="none" height="59.2129" style="stroke:#000000;stroke-width:1.5;" width="193" x="630" y="970.9531"/><path d="M630,970.9531 L692,970.9531 L692,979.9531 L682,989.9531 L630,989.9531 L630,970.9531 " fill="#EEEEEE" style="stroke:#000000;stroke-width:2.0;"/><text fill="#000000" font-family="sans-serif" font-size="13" font-weight="bold" lengthAdjust="spacing" textLength="17" x="643" y="986.9814">ref</text><text fill="#000000" font-family="sans-serif" font-size="12" lengthAdjust="spacing" textLength="112" x="670.5" y="1006.9023">Create Agenda Entry</text><text fill="#000000" font-family="sans-serif" font-size="12" lengthAdjust="spacing" textLength="3" x="725" y="1022.8633">&#160;</text><polygon fill="#181818" points="357.5,1054.457,347.5,1058.457,357.5,1062.457,353.5,1058.457" style="stroke:#181818;stroke-width:1.0;"/><line style="stroke:#181818;stroke-width:1.0;stroke-dasharray:2.0,2.0;" x1="351.5" x2="725.5" y1="1058.457" y2="1058.457"/><text fill="#000000" font-family="sans-serif" font-size="13" font-weight="bold" lengthAdjust="spacing" textLength="14" x="363.5" y="1053.1943">16</text><text fill="#000000" font-family="sans-serif" font-size="13" lengthAdjust="spacing" textLength="73" x="381.5" y="1053.1943">agendaEntry</text><polygon fill="#181818" points="69.5,1085.748,59.5,1089.748,69.5,1093.748,65.5,1089.748" style="stroke:#181818;stroke-width:1.0;"/><line style="stroke:#181818;stroke-width:1.0;stroke-dasharray:2.0,2.0;" x1="63.5" x2="340.5" y1="1089.748" y2="1089.748"/><text fill="#000000" font-family="sans-serif" font-size="13" font-weight="bold" lengthAdjust="spacing" textLength="14" x="75.5" y="1084.4854">17</text><text fill="#000000" font-family="sans-serif" font-size="13" lengthAdjust="spacing" textLength="236" x="93.5" y="1084.4854">shows all data and requests confirmation</text><polygon fill="#181818" points="324.5,1117.0391,334.5,1121.0391,324.5,1125.0391,328.5,1121.0391" style="stroke:#181818;stroke-width:1.0;"/><line style="stroke:#181818;stroke-width:1.0;" x1="58.5" x2="330.5" y1="1121.0391" y2="1121.0391"/><text fill="#000000" font-family="sans-serif" font-size="13" font-weight="bold" lengthAdjust="spacing" textLength="14" x="65.5" y="1115.7764">18</text><text fill="#000000" font-family="sans-serif" font-size="13" lengthAdjust="spacing" textLength="78" x="83.5" y="1115.7764">confirms data</text><polygon fill="#181818" points="709.5,1148.3301,719.5,1152.3301,709.5,1156.3301,713.5,1152.3301" style="stroke:#181818;stroke-width:1.0;"/><line style="stroke:#181818;stroke-width:1.0;" x1="346.5" x2="715.5" y1="1152.3301" y2="1152.3301"/><text fill="#000000" font-family="sans-serif" font-size="13" font-weight="bold" lengthAdjust="spacing" textLength="14" x="353.5" y="1147.0674">19</text><text fill="#000000" font-family="sans-serif" font-size="13" lengthAdjust="spacing" textLength="177" x="371.5" y="1147.0674">addAgendaEntry(agendaEntry)</text><rect fill="none" height="59.2129" style="stroke:#000000;stroke-width:1.5;" width="193" x="630" y="1160.3301"/><path d="M630,1160.3301 L692,1160.3301 L692,1169.3301 L682,1179.3301 L630,1179.3301 L630,1160.3301 " fill="#EEEEEE" style="stroke:#000000;stroke-width:2.0;"/><text fill="#000000" font-family="sans-serif" font-size="13" font-weight="bold" lengthAdjust="spacing" textLength="17" x="643" y="1176.3584">ref</text><text fill="#000000" font-family="sans-serif" font-size="12" lengthAdjust="spacing" textLength="96" x="678.5" y="1196.2793">Add Agenda Entry</text><text fill="#000000" font-family="sans-serif" font-size="12" lengthAdjust="spacing" textLength="3" x="725" y="1212.2402">&#160;</text><polygon fill="#181818" points="357.5,1243.834,347.5,1247.834,357.5,1251.834,353.5,1247.834" style="stroke:#181818;stroke-width:1.0;"/><line style="stroke:#181818;stroke-width:1.0;stroke-dasharray:2.0,2.0;" x1="351.5" x2="725.5" y1="1247.834" y2="1247.834"/><text fill="#000000" font-family="sans-serif" font-size="13" font-weight="bold" lengthAdjust="spacing" textLength="14" x="363.5" y="1242.5713">20</text><text fill="#000000" font-family="sans-serif" font-size="13" lengthAdjust="spacing" textLength="106" x="381.5" y="1242.5713">operation success</text><polygon fill="#181818" points="64.5,1275.125,54.5,1279.125,64.5,1283.125,60.5,1279.125" style="stroke:#181818;stroke-width:1.0;"/><line style="stroke:#181818;stroke-width:1.0;stroke-dasharray:2.0,2.0;" x1="58.5" x2="340.5" y1="1279.125" y2="1279.125"/><text fill="#000000" font-family="sans-serif" font-size="13" font-weight="bold" lengthAdjust="spacing" textLength="14" x="70.5" y="1273.8623">21</text><text fill="#000000" font-family="sans-serif" font-size="13" lengthAdjust="spacing" textLength="158" x="88.5" y="1273.8623">displays operation success</text><!--SRC=[fLR1RY8n3BtFLrYzB5krFz33IXNieagjLbhehHTtOfY88MRZK1Q9Zryd0qEcBGNQELGpYVDil_TYAZFh5kXn3dDsN5QUvmJ1BwcGTcU1vGodD0hhci1J6T1Dwpn0AZIyicuA4wo5YWANWTro_ao-ABvLrX1CcCCp_okm3EpXOkY978mKcUJ9mGCwJU0l00M6euT2OOCjxG9TW8kRMsDkf-GC_dJ1hn_lKjZZtOTHVTQ_NDTRqFxuptqHaziN39Ho5A2Fli3r3mM36msR2GG6D0OG7As08b9S2XK19l1qgiNH8j92V1H3aMAYoqj5Aprfn7lRkZcbS6yb91OQ4dhVsyWMlIbwjzoStM8aYBxsXy_iKIdzfSADICIoow0EOkdZQGByGhxPodU6520JQATEzxYIqVb-NMVMRDlb3gWDDTGfi0EpVzjiDfyiNM1bGmM3yU-tnNSMsfgJ4-gkDeF0nO6Ak_hg-MYelPNAYbaesIUn0988VN8JlGIhofOLhA9xjwwBSSbpnQjKEv_bTXMgzIgcCuR4UZ9vZbDysXXnp0EEPepNngeHzt9ftyTT-O4QKOmnNmyO8dxgp1wIv8WYOLlacL8eInMl1B2k4r4X2UDfgb0K6RCkhJ-vmDU6a_30axIcsecosTKDdMd5pGHWHxcGH-LxLxrO7CG4DWX8qE4MltGwAZTWuZ0vNLE5weLCsFM9MXwvMX7th9iKUpfDiBRyPd1cexmNGQwoCNBLi3FGiAjOG7pvOdFzb1IQh93IdjKdxiljH9tfKLKPamKy_LsIg0zATXFhvnXqi9zWgssu9AGJ_OAT7yvUrieNITLVvCypoWlogMkGPQb3MCwxzyRAeiQr7C1vnMBs6Vyr-0y0]--></g></svg>