<?xml version="1.0" encoding="us-ascii" standalone="no"?><svg xmlns="http://www.w3.org/2000/svg" xmlns:xlink="http://www.w3.org/1999/xlink" contentStyleType="text/css" height="1067px" preserveAspectRatio="none" style="width:1391px;height:1067px;background:#FFFFFF;" version="1.1" viewBox="0 0 1391 1067" width="1391px" zoomAndPan="magnify"><defs/><g><rect fill="#FFFFFF" height="902.5859" style="stroke:#181818;stroke-width:1.0;" width="10" x="148" y="90.5332"/><rect fill="#FFFFFF" height="31.291" style="stroke:#181818;stroke-width:1.0;" width="10" x="298" y="148.1152"/><rect fill="#FFFFFF" height="31.291" style="stroke:#181818;stroke-width:1.0;" width="10" x="403" y="210.6973"/><rect fill="#FFFFFF" height="219.4063" style="stroke:#181818;stroke-width:1.0;" width="10" x="496.5" y="273.2793"/><rect fill="#FFFFFF" height="420.8516" style="stroke:#181818;stroke-width:1.0;" width="10" x="680" y="533.9766"/><rect fill="#FFFFFF" height="28" style="stroke:#181818;stroke-width:1.0;" width="10" x="685" y="726.7129"/><rect fill="#FFFFFF" height="146.8242" style="stroke:#181818;stroke-width:1.0;" width="10" x="972" y="314.5703"/><rect fill="#FFFFFF" height="30" style="stroke:#181818;stroke-width:1.0;" width="10" x="977" y="393.1035"/><rect fill="#FFFFFF" height="31.291" style="stroke:#181818;stroke-width:1.0;" width="10" x="972" y="656.1309"/><rect fill="#FFFFFF" height="30" style="stroke:#181818;stroke-width:1.0;" width="10" x="1142" y="886.5371"/><rect fill="#FFFFFF" height="52.2422" style="stroke:#181818;stroke-width:1.0;" width="10" x="1299.5" y="803.0039"/><rect fill="none" height="857.2949" style="stroke:#000000;stroke-width:1.5;" width="1335.5" x="49.5" y="105.5332"/><rect fill="none" height="80.582" style="stroke:#000000;stroke-width:1.5;" width="603.5" x="456.5" y="350.5215"/><rect fill="none" height="310.9883" style="stroke:#000000;stroke-width:1.5;" width="761.5" x="613.5" y="613.5488"/><line style="stroke:#181818;stroke-width:0.5;stroke-dasharray:5.0,5.0;" x1="152.5" x2="152.5" y1="57.2422" y2="1011.1191"/><line style="stroke:#181818;stroke-width:0.5;stroke-dasharray:5.0,5.0;" x1="302.5" x2="302.5" y1="57.2422" y2="1011.1191"/><line style="stroke:#181818;stroke-width:0.5;stroke-dasharray:5.0,5.0;" x1="407.5" x2="407.5" y1="57.2422" y2="1011.1191"/><line style="stroke:#181818;stroke-width:0.5;stroke-dasharray:5.0,5.0;" x1="501.5" x2="501.5" y1="57.2422" y2="1011.1191"/><line style="stroke:#181818;stroke-width:0.5;stroke-dasharray:5.0,5.0;" x1="579.5" x2="579.5" y1="57.2422" y2="1011.1191"/><line style="stroke:#181818;stroke-width:0.5;stroke-dasharray:5.0,5.0;" x1="684.5" x2="684.5" y1="532.4961" y2="1011.1191"/><line style="stroke:#181818;stroke-width:0.5;stroke-dasharray:5.0,5.0;" x1="977" x2="977" y1="322.4004" y2="1011.1191"/><line style="stroke:#181818;stroke-width:0.5;stroke-dasharray:5.0,5.0;" x1="1147" x2="1147" y1="585.4277" y2="1011.1191"/><line style="stroke:#181818;stroke-width:0.5;stroke-dasharray:5.0,5.0;" x1="1304" x2="1304" y1="810.834" y2="1011.1191"/><rect fill="#E3E3E3" height="32.6211" rx="2.5" ry="2.5" style="stroke:#181818;stroke-width:0.5;" width="187" x="59.5" y="23.6211"/><text fill="#000000" font-family="sans-serif" font-size="14" lengthAdjust="spacing" textLength="173" x="66.5" y="45.7285">:AddAgendaEntryController</text><rect fill="#E3E3E3" height="32.6211" rx="2.5" ry="2.5" style="stroke:#181818;stroke-width:0.5;" width="187" x="59.5" y="1010.1191"/><text fill="#000000" font-family="sans-serif" font-size="14" lengthAdjust="spacing" textLength="173" x="66.5" y="1032.2266">:AddAgendaEntryController</text><rect fill="#E3E3E3" height="32.6211" rx="2.5" ry="2.5" style="stroke:#181818;stroke-width:0.5;" width="93" x="256.5" y="23.6211"/><text fill="#000000" font-family="sans-serif" font-size="14" lengthAdjust="spacing" textLength="79" x="263.5" y="45.7285">Repositories</text><rect fill="#E3E3E3" height="32.6211" rx="2.5" ry="2.5" style="stroke:#181818;stroke-width:0.5;" width="93" x="256.5" y="1010.1191"/><text fill="#000000" font-family="sans-serif" font-size="14" lengthAdjust="spacing" textLength="79" x="263.5" y="1032.2266">Repositories</text><rect fill="#E3E3E3" height="51.2422" rx="2.5" ry="2.5" style="stroke:#181818;stroke-width:0.5;" width="97" x="359.5" y="5"/><text fill="#000000" font-family="sans-serif" font-size="14" lengthAdjust="spacing" textLength="74" x="371" y="27.1074">repositories</text><text fill="#000000" font-family="sans-serif" font-size="14" lengthAdjust="spacing" textLength="83" x="366.5" y="45.7285">:Repositories</text><rect fill="#E3E3E3" height="51.2422" rx="2.5" ry="2.5" style="stroke:#181818;stroke-width:0.5;" width="97" x="359.5" y="1010.1191"/><text fill="#000000" font-family="sans-serif" font-size="14" lengthAdjust="spacing" textLength="74" x="371" y="1032.2266">repositories</text><text fill="#000000" font-family="sans-serif" font-size="14" lengthAdjust="spacing" textLength="83" x="366.5" y="1050.8477">:Repositories</text><rect fill="#E3E3E3" height="51.2422" rx="2.5" ry="2.5" style="stroke:#181818;stroke-width:0.5;" width="70" x="466.5" y="5"/><text fill="#000000" font-family="sans-serif" font-size="14" lengthAdjust="spacing" textLength="52" x="475.5" y="27.1074">toDoList</text><text fill="#000000" font-family="sans-serif" font-size="14" lengthAdjust="spacing" textLength="56" x="473.5" y="45.7285">:toDoList</text><rect fill="#E3E3E3" height="51.2422" rx="2.5" ry="2.5" style="stroke:#181818;stroke-width:0.5;" width="70" x="466.5" y="1010.1191"/><text fill="#000000" font-family="sans-serif" font-size="14" lengthAdjust="spacing" textLength="52" x="475.5" y="1032.2266">toDoList</text><text fill="#000000" font-family="sans-serif" font-size="14" lengthAdjust="spacing" textLength="56" x="473.5" y="1050.8477">:toDoList</text><rect fill="#E3E3E3" height="51.2422" rx="2.5" ry="2.5" style="stroke:#181818;stroke-width:0.5;" width="67" x="546.5" y="5"/><text fill="#000000" font-family="sans-serif" font-size="14" lengthAdjust="spacing" textLength="48" x="556" y="27.1074">agenda</text><text fill="#000000" font-family="sans-serif" font-size="14" lengthAdjust="spacing" textLength="53" x="553.5" y="45.7285">:Agenda</text><rect fill="#E3E3E3" height="51.2422" rx="2.5" ry="2.5" style="stroke:#181818;stroke-width:0.5;" width="67" x="546.5" y="1010.1191"/><text fill="#000000" font-family="sans-serif" font-size="14" lengthAdjust="spacing" textLength="48" x="556" y="1032.2266">agenda</text><text fill="#000000" font-family="sans-serif" font-size="14" lengthAdjust="spacing" textLength="53" x="553.5" y="1050.8477">:Agenda</text><rect fill="#E3E3E3" height="32.6211" rx="2.5" ry="2.5" style="stroke:#181818;stroke-width:0.5;" width="123" x="623.5" y="1010.1191"/><text fill="#000000" font-family="sans-serif" font-size="14" lengthAdjust="spacing" textLength="109" x="630.5" y="1032.2266">:ToDoListMapper</text><rect fill="#E3E3E3" height="51.2422" rx="2.5" ry="2.5" style="stroke:#181818;stroke-width:0.5;" width="146" x="904" y="1010.1191"/><text fill="#000000" font-family="sans-serif" font-size="14" lengthAdjust="spacing" textLength="61" x="946.5" y="1032.2266">listEntries</text><text fill="#000000" font-family="sans-serif" font-size="14" lengthAdjust="spacing" textLength="132" x="911" y="1050.8477">:List&lt;ToDoListEntry&gt;</text><rect fill="#E3E3E3" height="51.2422" rx="2.5" ry="2.5" style="stroke:#181818;stroke-width:0.5;" width="174" x="1060" y="1010.1191"/><text fill="#000000" font-family="sans-serif" font-size="14" lengthAdjust="spacing" textLength="74" x="1110" y="1032.2266">toDoListDto</text><text fill="#000000" font-family="sans-serif" font-size="14" lengthAdjust="spacing" textLength="160" x="1067" y="1050.8477">:List&lt;toDoListEntriesDto&gt;</text><rect fill="#E3E3E3" height="51.2422" rx="2.5" ry="2.5" style="stroke:#181818;stroke-width:0.5;" width="121" x="1244" y="1010.1191"/><text fill="#000000" font-family="sans-serif" font-size="14" lengthAdjust="spacing" textLength="107" x="1251" y="1032.2266">toDoListEntryDto</text><text fill="#000000" font-family="sans-serif" font-size="14" lengthAdjust="spacing" textLength="83" x="1263" y="1050.8477">:ToDoListDto</text><rect fill="#FFFFFF" height="902.5859" style="stroke:#181818;stroke-width:1.0;" width="10" x="148" y="90.5332"/><rect fill="#FFFFFF" height="31.291" style="stroke:#181818;stroke-width:1.0;" width="10" x="298" y="148.1152"/><rect fill="#FFFFFF" height="31.291" style="stroke:#181818;stroke-width:1.0;" width="10" x="403" y="210.6973"/><rect fill="#FFFFFF" height="219.4063" style="stroke:#181818;stroke-width:1.0;" width="10" x="496.5" y="273.2793"/><rect fill="#FFFFFF" height="420.8516" style="stroke:#181818;stroke-width:1.0;" width="10" x="680" y="533.9766"/><rect fill="#FFFFFF" height="28" style="stroke:#181818;stroke-width:1.0;" width="10" x="685" y="726.7129"/><rect fill="#FFFFFF" height="146.8242" style="stroke:#181818;stroke-width:1.0;" width="10" x="972" y="314.5703"/><rect fill="#FFFFFF" height="30" style="stroke:#181818;stroke-width:1.0;" width="10" x="977" y="393.1035"/><rect fill="#FFFFFF" height="31.291" style="stroke:#181818;stroke-width:1.0;" width="10" x="972" y="656.1309"/><rect fill="#FFFFFF" height="30" style="stroke:#181818;stroke-width:1.0;" width="10" x="1142" y="886.5371"/><rect fill="#FFFFFF" height="52.2422" style="stroke:#181818;stroke-width:1.0;" width="10" x="1299.5" y="803.0039"/><polygon fill="#181818" points="136,86.5332,146,90.5332,136,94.5332,140,90.5332" style="stroke:#181818;stroke-width:1.0;"/><line style="stroke:#181818;stroke-width:1.0;" x1="0" x2="142" y1="90.5332" y2="90.5332"/><text fill="#000000" font-family="sans-serif" font-size="13" font-weight="bold" lengthAdjust="spacing" textLength="7" x="7" y="85.2705">3</text><text fill="#000000" font-family="sans-serif" font-size="13" lengthAdjust="spacing" textLength="118" x="18" y="85.2705">getToDoListEntries()</text><path d="M49.5,105.5332 L292.5,105.5332 L292.5,114.8242 L282.5,124.8242 L49.5,124.8242 L49.5,105.5332 " fill="#EEEEEE" style="stroke:#000000;stroke-width:1.5;"/><rect fill="none" height="857.2949" style="stroke:#000000;stroke-width:1.5;" width="1335.5" x="49.5" y="105.5332"/><text fill="#000000" font-family="sans-serif" font-size="13" font-weight="bold" lengthAdjust="spacing" textLength="198" x="64.5" y="120.5615">Get To-Do List Entries with DTO</text><polygon fill="#181818" points="286,144.1152,296,148.1152,286,152.1152,290,148.1152" style="stroke:#181818;stroke-width:1.0;"/><line style="stroke:#181818;stroke-width:1.0;" x1="158" x2="292" y1="148.1152" y2="148.1152"/><text fill="#000000" font-family="sans-serif" font-size="13" font-weight="bold" lengthAdjust="spacing" textLength="18" x="165" y="142.8525">3.1</text><text fill="#000000" font-family="sans-serif" font-size="13" lengthAdjust="spacing" textLength="75" x="187" y="142.8525">getInstance()</text><polygon fill="#181818" points="169,175.4063,159,179.4063,169,183.4063,165,179.4063" style="stroke:#181818;stroke-width:1.0;"/><line style="stroke:#181818;stroke-width:1.0;stroke-dasharray:2.0,2.0;" x1="163" x2="302" y1="179.4063" y2="179.4063"/><text fill="#000000" font-family="sans-serif" font-size="13" font-weight="bold" lengthAdjust="spacing" textLength="18" x="175" y="174.1436">3.2</text><text fill="#000000" font-family="sans-serif" font-size="13" lengthAdjust="spacing" textLength="67" x="197" y="174.1436">repositories</text><polygon fill="#181818" points="391,206.6973,401,210.6973,391,214.6973,395,210.6973" style="stroke:#181818;stroke-width:1.0;"/><line style="stroke:#181818;stroke-width:1.0;" x1="158" x2="397" y1="210.6973" y2="210.6973"/><text fill="#000000" font-family="sans-serif" font-size="13" font-weight="bold" lengthAdjust="spacing" textLength="18" x="165" y="205.4346">3.3</text><text fill="#000000" font-family="sans-serif" font-size="13" lengthAdjust="spacing" textLength="77" x="187" y="205.4346">getToDoList()</text><polygon fill="#181818" points="169,237.9883,159,241.9883,169,245.9883,165,241.9883" style="stroke:#181818;stroke-width:1.0;"/><line style="stroke:#181818;stroke-width:1.0;stroke-dasharray:2.0,2.0;" x1="163" x2="407" y1="241.9883" y2="241.9883"/><text fill="#000000" font-family="sans-serif" font-size="13" font-weight="bold" lengthAdjust="spacing" textLength="18" x="175" y="236.7256">3.4</text><text fill="#000000" font-family="sans-serif" font-size="13" lengthAdjust="spacing" textLength="48" x="197" y="236.7256">toDoList</text><polygon fill="#181818" points="484.5,269.2793,494.5,273.2793,484.5,277.2793,488.5,273.2793" style="stroke:#181818;stroke-width:1.0;"/><line style="stroke:#181818;stroke-width:1.0;" x1="158" x2="490.5" y1="273.2793" y2="273.2793"/><text fill="#000000" font-family="sans-serif" font-size="13" font-weight="bold" lengthAdjust="spacing" textLength="18" x="165" y="268.0166">3.5</text><text fill="#000000" font-family="sans-serif" font-size="13" lengthAdjust="spacing" textLength="118" x="187" y="268.0166">getToDoListEntries()</text><polygon fill="#181818" points="892,300.5703,902,304.5703,892,308.5703,896,304.5703" style="stroke:#181818;stroke-width:1.0;"/><line style="stroke:#181818;stroke-width:1.0;stroke-dasharray:2.0,2.0;" x1="506.5" x2="898" y1="304.5703" y2="304.5703"/><text fill="#000000" font-family="sans-serif" font-size="13" font-weight="bold" lengthAdjust="spacing" textLength="18" x="513.5" y="299.3076">3.6</text><text fill="#000000" font-family="sans-serif" font-size="13" lengthAdjust="spacing" textLength="44" x="535.5" y="299.3076">create()</text><rect fill="#E3E3E3" height="51.2422" rx="2.5" ry="2.5" style="stroke:#181818;stroke-width:0.5;" width="146" x="904" y="281.2793"/><text fill="#000000" font-family="sans-serif" font-size="14" lengthAdjust="spacing" textLength="61" x="946.5" y="303.3867">listEntries</text><text fill="#000000" font-family="sans-serif" font-size="14" lengthAdjust="spacing" textLength="132" x="911" y="322.0078">:List&lt;ToDoListEntry&gt;</text><path d="M456.5,350.5215 L529.5,350.5215 L529.5,359.8125 L519.5,369.8125 L456.5,369.8125 L456.5,350.5215 " fill="#EEEEEE" style="stroke:#000000;stroke-width:1.5;"/><rect fill="none" height="80.582" style="stroke:#000000;stroke-width:1.5;" width="603.5" x="456.5" y="350.5215"/><text fill="#000000" font-family="sans-serif" font-size="13" font-weight="bold" lengthAdjust="spacing" textLength="28" x="471.5" y="365.5498">loop</text><text fill="#000000" font-family="sans-serif" font-size="11" font-weight="bold" lengthAdjust="spacing" textLength="130" x="544.5" y="364.3916">[for each toDoListEntry]</text><polygon fill="#181818" points="965,389.1035,975,393.1035,965,397.1035,969,393.1035" style="stroke:#181818;stroke-width:1.0;"/><line style="stroke:#181818;stroke-width:1.0;" x1="506.5" x2="971" y1="393.1035" y2="393.1035"/><text fill="#000000" font-family="sans-serif" font-size="13" font-weight="bold" lengthAdjust="spacing" textLength="18" x="513.5" y="387.8408">3.7</text><text fill="#000000" font-family="sans-serif" font-size="13" lengthAdjust="spacing" textLength="108" x="535.5" y="387.8408">add(toDoListEntry)</text><polygon fill="#181818" points="517.5,457.3945,507.5,461.3945,517.5,465.3945,513.5,461.3945" style="stroke:#181818;stroke-width:1.0;"/><line style="stroke:#181818;stroke-width:1.0;stroke-dasharray:2.0,2.0;" x1="511.5" x2="976" y1="461.3945" y2="461.3945"/><text fill="#000000" font-family="sans-serif" font-size="13" font-weight="bold" lengthAdjust="spacing" textLength="18" x="523.5" y="456.1318">3.8</text><text fill="#000000" font-family="sans-serif" font-size="13" lengthAdjust="spacing" textLength="58" x="545.5" y="456.1318">listEntries</text><polygon fill="#181818" points="169,488.6855,159,492.6855,169,496.6855,165,492.6855" style="stroke:#181818;stroke-width:1.0;"/><line style="stroke:#181818;stroke-width:1.0;stroke-dasharray:2.0,2.0;" x1="163" x2="500.5" y1="492.6855" y2="492.6855"/><text fill="#000000" font-family="sans-serif" font-size="13" font-weight="bold" lengthAdjust="spacing" textLength="18" x="175" y="487.4229">3.9</text><text fill="#000000" font-family="sans-serif" font-size="13" lengthAdjust="spacing" textLength="58" x="197" y="487.4229">listEntries</text><polygon fill="#181818" points="611.5,519.9766,621.5,523.9766,611.5,527.9766,615.5,523.9766" style="stroke:#181818;stroke-width:1.0;"/><line style="stroke:#181818;stroke-width:1.0;" x1="158" x2="617.5" y1="523.9766" y2="523.9766"/><text fill="#000000" font-family="sans-serif" font-size="13" font-weight="bold" lengthAdjust="spacing" textLength="25" x="165" y="518.7139">3.10</text><text fill="#000000" font-family="sans-serif" font-size="13" lengthAdjust="spacing" textLength="189" x="194" y="518.7139">toDoListEntriesToDto(listEntries)</text><rect fill="#E3E3E3" height="32.6211" rx="2.5" ry="2.5" style="stroke:#181818;stroke-width:0.5;" width="123" x="623.5" y="500.6855"/><text fill="#000000" font-family="sans-serif" font-size="14" lengthAdjust="spacing" textLength="109" x="630.5" y="522.793">:ToDoListMapper</text><polygon fill="#181818" points="1048,563.5977,1058,567.5977,1048,571.5977,1052,567.5977" style="stroke:#181818;stroke-width:1.0;"/><line style="stroke:#181818;stroke-width:1.0;stroke-dasharray:2.0,2.0;" x1="690" x2="1054" y1="567.5977" y2="567.5977"/><text fill="#000000" font-family="sans-serif" font-size="13" font-weight="bold" lengthAdjust="spacing" textLength="25" x="697" y="562.335">3.11</text><text fill="#000000" font-family="sans-serif" font-size="13" lengthAdjust="spacing" textLength="44" x="726" y="562.335">create()</text><rect fill="#E3E3E3" height="51.2422" rx="2.5" ry="2.5" style="stroke:#181818;stroke-width:0.5;" width="174" x="1060" y="544.3066"/><text fill="#000000" font-family="sans-serif" font-size="14" lengthAdjust="spacing" textLength="74" x="1110" y="566.4141">toDoListDto</text><text fill="#000000" font-family="sans-serif" font-size="14" lengthAdjust="spacing" textLength="160" x="1067" y="585.0352">:List&lt;toDoListEntriesDto&gt;</text><path d="M613.5,613.5488 L686.5,613.5488 L686.5,622.8398 L676.5,632.8398 L613.5,632.8398 L613.5,613.5488 " fill="#EEEEEE" style="stroke:#000000;stroke-width:1.5;"/><rect fill="none" height="310.9883" style="stroke:#000000;stroke-width:1.5;" width="761.5" x="613.5" y="613.5488"/><text fill="#000000" font-family="sans-serif" font-size="13" font-weight="bold" lengthAdjust="spacing" textLength="28" x="628.5" y="628.5771">loop</text><text fill="#000000" font-family="sans-serif" font-size="11" font-weight="bold" lengthAdjust="spacing" textLength="130" x="701.5" y="627.4189">[for each toDoListEntry]</text><polygon fill="#181818" points="960,652.1309,970,656.1309,960,660.1309,964,656.1309" style="stroke:#181818;stroke-width:1.0;"/><line style="stroke:#181818;stroke-width:1.0;" x1="690" x2="966" y1="656.1309" y2="656.1309"/><text fill="#000000" font-family="sans-serif" font-size="13" font-weight="bold" lengthAdjust="spacing" textLength="25" x="697" y="650.8682">3.12</text><text fill="#000000" font-family="sans-serif" font-size="13" lengthAdjust="spacing" textLength="29" x="726" y="650.8682">get(i)</text><polygon fill="#181818" points="701,683.4219,691,687.4219,701,691.4219,697,687.4219" style="stroke:#181818;stroke-width:1.0;"/><line style="stroke:#181818;stroke-width:1.0;stroke-dasharray:2.0,2.0;" x1="695" x2="976" y1="687.4219" y2="687.4219"/><text fill="#000000" font-family="sans-serif" font-size="13" font-weight="bold" lengthAdjust="spacing" textLength="25" x="707" y="682.1592">3.13</text><text fill="#000000" font-family="sans-serif" font-size="13" lengthAdjust="spacing" textLength="79" x="736" y="682.1592">toDoListEntry</text><line style="stroke:#181818;stroke-width:1.0;" x1="695" x2="737" y1="718.7129" y2="718.7129"/><line style="stroke:#181818;stroke-width:1.0;" x1="737" x2="737" y1="718.7129" y2="731.7129"/><line style="stroke:#181818;stroke-width:1.0;" x1="696" x2="737" y1="731.7129" y2="731.7129"/><polygon fill="#181818" points="706,727.7129,696,731.7129,706,735.7129,702,731.7129" style="stroke:#181818;stroke-width:1.0;"/><text fill="#000000" font-family="sans-serif" font-size="13" font-weight="bold" lengthAdjust="spacing" textLength="25" x="702" y="713.4502">3.14</text><text fill="#000000" font-family="sans-serif" font-size="13" lengthAdjust="spacing" textLength="239" x="731" y="713.4502">toDoListEntryDto = toDTO(toDoListEntry)</text><polygon fill="#181818" points="1232,789.0039,1242,793.0039,1232,797.0039,1236,793.0039" style="stroke:#181818;stroke-width:1.0;"/><line style="stroke:#181818;stroke-width:1.0;stroke-dasharray:2.0,2.0;" x1="690" x2="1238" y1="793.0039" y2="793.0039"/><text fill="#000000" font-family="sans-serif" font-size="13" font-weight="bold" lengthAdjust="spacing" textLength="25" x="697" y="787.7412">3.15</text><text fill="#000000" font-family="sans-serif" font-size="13" lengthAdjust="spacing" textLength="44" x="726" y="787.7412">create()</text><rect fill="#E3E3E3" height="51.2422" rx="2.5" ry="2.5" style="stroke:#181818;stroke-width:0.5;" width="121" x="1244" y="769.7129"/><text fill="#000000" font-family="sans-serif" font-size="14" lengthAdjust="spacing" textLength="107" x="1251" y="791.8203">toDoListEntryDto</text><text fill="#000000" font-family="sans-serif" font-size="14" lengthAdjust="spacing" textLength="83" x="1263" y="810.4414">:ToDoListDto</text><polygon fill="#181818" points="701,851.2461,691,855.2461,701,859.2461,697,855.2461" style="stroke:#181818;stroke-width:1.0;"/><line style="stroke:#181818;stroke-width:1.0;stroke-dasharray:2.0,2.0;" x1="695" x2="1303.5" y1="855.2461" y2="855.2461"/><text fill="#000000" font-family="sans-serif" font-size="13" font-weight="bold" lengthAdjust="spacing" textLength="25" x="707" y="849.9834">3.16</text><text fill="#000000" font-family="sans-serif" font-size="13" lengthAdjust="spacing" textLength="99" x="736" y="849.9834">toDoListEntryDto</text><polygon fill="#181818" points="1130,882.5371,1140,886.5371,1130,890.5371,1134,886.5371" style="stroke:#181818;stroke-width:1.0;"/><line style="stroke:#181818;stroke-width:1.0;" x1="690" x2="1136" y1="886.5371" y2="886.5371"/><text fill="#000000" font-family="sans-serif" font-size="13" font-weight="bold" lengthAdjust="spacing" textLength="25" x="697" y="881.2744">3.17</text><text fill="#000000" font-family="sans-serif" font-size="13" lengthAdjust="spacing" textLength="128" x="726" y="881.2744">add(toDoListEntryDto)</text><polygon fill="#181818" points="169,950.8281,159,954.8281,169,958.8281,165,954.8281" style="stroke:#181818;stroke-width:1.0;"/><line style="stroke:#181818;stroke-width:1.0;stroke-dasharray:2.0,2.0;" x1="163" x2="684" y1="954.8281" y2="954.8281"/><text fill="#000000" font-family="sans-serif" font-size="13" font-weight="bold" lengthAdjust="spacing" textLength="25" x="175" y="949.5654">3.18</text><text fill="#000000" font-family="sans-serif" font-size="13" lengthAdjust="spacing" textLength="68" x="204" y="949.5654">toDoListDto</text><polygon fill="#181818" points="11,989.1191,1,993.1191,11,997.1191,7,993.1191" style="stroke:#181818;stroke-width:1.0;"/><line style="stroke:#181818;stroke-width:1.0;stroke-dasharray:2.0,2.0;" x1="5" x2="152" y1="993.1191" y2="993.1191"/><text fill="#000000" font-family="sans-serif" font-size="13" font-weight="bold" lengthAdjust="spacing" textLength="7" x="17" y="987.8564">4</text><text fill="#000000" font-family="sans-serif" font-size="13" lengthAdjust="spacing" textLength="68" x="28" y="987.8564">toDoListDto</text><!--SRC=[fLPDRwCm4BtpAqOzfPLOQTMUecwagA0gKjf42PULzkA2Ir09HiRPglz-n-PZns0IedAeAZpptXlUOqBraHKba-m8Hr68-235aOEI9-vLtKd9uW-MyhtwoZb87YjMf3ajg0ui4PzPaS8xoolkUNXRPN5MiaB1pNoP9CkK5maB2oM_dWJ-5NdEvGsm2fwYtTggt_5IL9aICkEL3IJ9oPzYJWiDr2xSsWrA16ATLGgBstzDORG9DklLFhAhcT68jRLOKxby3b-3PM-UgC5wOMNPJD4YlYotst1dr-TOgYUlLUl6nnR1F925GT3TuMkqMuLxzn214csx8ks8YYSBIqKGRTmOXgy6Ylx3MhrQmsyDm4vA5AVZ6vTmx_aBOzGSKguYctrswrcrFtvwB5RPNwPuRIxWbKfnAk6PAuY47mZG_T00m6Uc3g0fJMbpwLP0MkgoeLyL5GOmviXBoZjAApwqmbpq5FnkAfeisfFmoxYTq71hFPunVHZIeQnmIzIqReqfwIEq2beBOSGcSEdfteM1A7rra5eTYUZT7PB4aYD23tX0G8FjhDHNBaG9xq82Zda0AwwZFRO-InwAOqaoit1kpm8vvPvh88PCQS6DCZuzLUxRHfBbuLqXOyXbEMaICmvEGDtnw2UkNdic5BtTX2bKOaQ8BiImMQ2ZykjpwodXvh3Zw7qtNNsoVhRmxPfbtutzcEaDwNo2pZ7pfyrqdX1jWr_wLhIPyXwD6Nb1zYNRBrZV_bXTiOu6ltDdETkg2GxX0viwxJJkeLDQY6Ep8VF4eJNdH8rEUSujvl2dsI_aqyMx8W0T2_ciU30t7dtVXKtmp1U7zmy0]--></g></svg>