<?xml version="1.0" encoding="us-ascii" standalone="no"?><svg xmlns="http://www.w3.org/2000/svg" xmlns:xlink="http://www.w3.org/1999/xlink" contentStyleType="text/css" height="1140px" preserveAspectRatio="none" style="width:1438px;height:1140px;background:#FFFFFF;" version="1.1" viewBox="0 0 1438 1140" width="1438px" zoomAndPan="magnify"><defs/><g><rect fill="#FFFFFF" height="976.1973" style="stroke:#181818;stroke-width:1.0;" width="10" x="237" y="90.5332"/><rect fill="#FFFFFF" height="28" style="stroke:#181818;stroke-width:1.0;" width="10" x="242" y="156.1152"/><rect fill="#FFFFFF" height="52.2422" style="stroke:#181818;stroke-width:1.0;" width="10" x="520" y="232.4063"/><rect fill="#FFFFFF" height="240.3574" style="stroke:#181818;stroke-width:1.0;" width="10" x="616" y="325.9395"/><rect fill="#FFFFFF" height="420.8516" style="stroke:#181818;stroke-width:1.0;" width="10" x="722.5" y="607.5879"/><rect fill="#FFFFFF" height="28" style="stroke:#181818;stroke-width:1.0;" width="10" x="727.5" y="800.3242"/><rect fill="#FFFFFF" height="146.8242" style="stroke:#181818;stroke-width:1.0;" width="10" x="1014.5" y="388.1816"/><rect fill="#FFFFFF" height="30" style="stroke:#181818;stroke-width:1.0;" width="10" x="1019.5" y="466.7148"/><rect fill="#FFFFFF" height="31.291" style="stroke:#181818;stroke-width:1.0;" width="10" x="1014.5" y="729.7422"/><rect fill="#FFFFFF" height="30" style="stroke:#181818;stroke-width:1.0;" width="10" x="1187" y="960.1484"/><rect fill="#FFFFFF" height="52.2422" style="stroke:#181818;stroke-width:1.0;" width="10" x="1347" y="876.6152"/><rect fill="none" height="930.9063" style="stroke:#000000;stroke-width:1.5;" width="1294" x="138.5" y="105.5332"/><rect fill="none" height="80.582" style="stroke:#000000;stroke-width:1.5;" width="526.5" x="576" y="424.1328"/><rect fill="none" height="310.9883" style="stroke:#000000;stroke-width:1.5;" width="766.5" x="656" y="687.1602"/><line style="stroke:#181818;stroke-width:0.5;stroke-dasharray:5.0,5.0;" x1="241.5" x2="241.5" y1="57.2422" y2="1084.7305"/><line style="stroke:#181818;stroke-width:0.5;stroke-dasharray:5.0,5.0;" x1="525" x2="525" y1="240.2363" y2="1084.7305"/><line style="stroke:#181818;stroke-width:0.5;stroke-dasharray:5.0,5.0;" x1="621" x2="621" y1="333.7695" y2="1084.7305"/><line style="stroke:#181818;stroke-width:0.5;stroke-dasharray:5.0,5.0;" x1="727" x2="727" y1="606.1074" y2="1084.7305"/><line style="stroke:#181818;stroke-width:0.5;stroke-dasharray:5.0,5.0;" x1="1019.5" x2="1019.5" y1="396.0117" y2="1084.7305"/><line style="stroke:#181818;stroke-width:0.5;stroke-dasharray:5.0,5.0;" x1="1191.5" x2="1191.5" y1="659.0391" y2="1084.7305"/><line style="stroke:#181818;stroke-width:0.5;stroke-dasharray:5.0,5.0;" x1="1351.5" x2="1351.5" y1="884.4453" y2="1084.7305"/><rect fill="#E3E3E3" height="32.6211" rx="2.5" ry="2.5" style="stroke:#181818;stroke-width:0.5;" width="187" x="148.5" y="23.6211"/><text fill="#000000" font-family="sans-serif" font-size="14" lengthAdjust="spacing" textLength="173" x="155.5" y="45.7285">:AddAgendaEntryController</text><rect fill="#E3E3E3" height="32.6211" rx="2.5" ry="2.5" style="stroke:#181818;stroke-width:0.5;" width="187" x="148.5" y="1083.7305"/><text fill="#000000" font-family="sans-serif" font-size="14" lengthAdjust="spacing" textLength="173" x="155.5" y="1105.8379">:AddAgendaEntryController</text><rect fill="#E3E3E3" height="51.2422" rx="2.5" ry="2.5" style="stroke:#181818;stroke-width:0.5;" width="102" x="474" y="1083.7305"/><text fill="#000000" font-family="sans-serif" font-size="14" lengthAdjust="spacing" textLength="77" x="486.5" y="1105.8379">greenSpace</text><text fill="#000000" font-family="sans-serif" font-size="14" lengthAdjust="spacing" textLength="88" x="481" y="1124.459">: GreenSpace</text><rect fill="#E3E3E3" height="51.2422" rx="2.5" ry="2.5" style="stroke:#181818;stroke-width:0.5;" width="70" x="586" y="1083.7305"/><text fill="#000000" font-family="sans-serif" font-size="14" lengthAdjust="spacing" textLength="52" x="595" y="1105.8379">toDoList</text><text fill="#000000" font-family="sans-serif" font-size="14" lengthAdjust="spacing" textLength="56" x="593" y="1124.459">:toDoList</text><rect fill="#E3E3E3" height="32.6211" rx="2.5" ry="2.5" style="stroke:#181818;stroke-width:0.5;" width="123" x="666" y="1083.7305"/><text fill="#000000" font-family="sans-serif" font-size="14" lengthAdjust="spacing" textLength="109" x="673" y="1105.8379">:ToDoListMapper</text><rect fill="#E3E3E3" height="51.2422" rx="2.5" ry="2.5" style="stroke:#181818;stroke-width:0.5;" width="146" x="946.5" y="1083.7305"/><text fill="#000000" font-family="sans-serif" font-size="14" lengthAdjust="spacing" textLength="61" x="989" y="1105.8379">listEntries</text><text fill="#000000" font-family="sans-serif" font-size="14" lengthAdjust="spacing" textLength="132" x="953.5" y="1124.459">:List&lt;ToDoListEntry&gt;</text><rect fill="#E3E3E3" height="51.2422" rx="2.5" ry="2.5" style="stroke:#181818;stroke-width:0.5;" width="179" x="1102.5" y="1083.7305"/><text fill="#000000" font-family="sans-serif" font-size="14" lengthAdjust="spacing" textLength="74" x="1155" y="1105.8379">toDoListDto</text><text fill="#000000" font-family="sans-serif" font-size="14" lengthAdjust="spacing" textLength="165" x="1109.5" y="1124.459">:List&lt;ToDoListEntriesDto&gt;</text><rect fill="#E3E3E3" height="51.2422" rx="2.5" ry="2.5" style="stroke:#181818;stroke-width:0.5;" width="121" x="1291.5" y="1083.7305"/><text fill="#000000" font-family="sans-serif" font-size="14" lengthAdjust="spacing" textLength="107" x="1298.5" y="1105.8379">toDoListEntryDto</text><text fill="#000000" font-family="sans-serif" font-size="14" lengthAdjust="spacing" textLength="83" x="1310.5" y="1124.459">:ToDoListDto</text><rect fill="#FFFFFF" height="976.1973" style="stroke:#181818;stroke-width:1.0;" width="10" x="237" y="90.5332"/><rect fill="#FFFFFF" height="28" style="stroke:#181818;stroke-width:1.0;" width="10" x="242" y="156.1152"/><rect fill="#FFFFFF" height="52.2422" style="stroke:#181818;stroke-width:1.0;" width="10" x="520" y="232.4063"/><rect fill="#FFFFFF" height="240.3574" style="stroke:#181818;stroke-width:1.0;" width="10" x="616" y="325.9395"/><rect fill="#FFFFFF" height="420.8516" style="stroke:#181818;stroke-width:1.0;" width="10" x="722.5" y="607.5879"/><rect fill="#FFFFFF" height="28" style="stroke:#181818;stroke-width:1.0;" width="10" x="727.5" y="800.3242"/><rect fill="#FFFFFF" height="146.8242" style="stroke:#181818;stroke-width:1.0;" width="10" x="1014.5" y="388.1816"/><rect fill="#FFFFFF" height="30" style="stroke:#181818;stroke-width:1.0;" width="10" x="1019.5" y="466.7148"/><rect fill="#FFFFFF" height="31.291" style="stroke:#181818;stroke-width:1.0;" width="10" x="1014.5" y="729.7422"/><rect fill="#FFFFFF" height="30" style="stroke:#181818;stroke-width:1.0;" width="10" x="1187" y="960.1484"/><rect fill="#FFFFFF" height="52.2422" style="stroke:#181818;stroke-width:1.0;" width="10" x="1347" y="876.6152"/><polygon fill="#181818" points="225,86.5332,235,90.5332,225,94.5332,229,90.5332" style="stroke:#181818;stroke-width:1.0;"/><line style="stroke:#181818;stroke-width:1.0;" x1="0" x2="231" y1="90.5332" y2="90.5332"/><text fill="#000000" font-family="sans-serif" font-size="13" font-weight="bold" lengthAdjust="spacing" textLength="7" x="7" y="85.2705">9</text><text fill="#000000" font-family="sans-serif" font-size="13" lengthAdjust="spacing" textLength="207" x="18" y="85.2705">getToDoListEntries(greenSpaceDto)</text><path d="M138.5,105.5332 L381.5,105.5332 L381.5,114.8242 L371.5,124.8242 L138.5,124.8242 L138.5,105.5332 " fill="#EEEEEE" style="stroke:#000000;stroke-width:1.5;"/><rect fill="none" height="930.9063" style="stroke:#000000;stroke-width:1.5;" width="1294" x="138.5" y="105.5332"/><text fill="#000000" font-family="sans-serif" font-size="13" font-weight="bold" lengthAdjust="spacing" textLength="198" x="153.5" y="120.5615">Get To-Do List entries with DTO</text><line style="stroke:#181818;stroke-width:1.0;" x1="252" x2="294" y1="148.1152" y2="148.1152"/><line style="stroke:#181818;stroke-width:1.0;" x1="294" x2="294" y1="148.1152" y2="161.1152"/><line style="stroke:#181818;stroke-width:1.0;" x1="253" x2="294" y1="161.1152" y2="161.1152"/><polygon fill="#181818" points="263,157.1152,253,161.1152,263,165.1152,259,161.1152" style="stroke:#181818;stroke-width:1.0;"/><text fill="#000000" font-family="sans-serif" font-size="13" font-weight="bold" lengthAdjust="spacing" textLength="18" x="259" y="142.8525">9.1</text><text fill="#000000" font-family="sans-serif" font-size="13" lengthAdjust="spacing" textLength="237" x="281" y="142.8525">greenSpace = toDomain(greenSpaceDto)</text><polygon fill="#181818" points="462,218.4063,472,222.4063,462,226.4063,466,222.4063" style="stroke:#181818;stroke-width:1.0;"/><line style="stroke:#181818;stroke-width:1.0;" x1="247" x2="468" y1="222.4063" y2="222.4063"/><text fill="#000000" font-family="sans-serif" font-size="13" font-weight="bold" lengthAdjust="spacing" textLength="18" x="254" y="217.1436">9.2</text><text fill="#000000" font-family="sans-serif" font-size="13" lengthAdjust="spacing" textLength="77" x="276" y="217.1436">getToDoList()</text><rect fill="#E3E3E3" height="51.2422" rx="2.5" ry="2.5" style="stroke:#181818;stroke-width:0.5;" width="102" x="474" y="199.1152"/><text fill="#000000" font-family="sans-serif" font-size="14" lengthAdjust="spacing" textLength="77" x="486.5" y="221.2227">greenSpace</text><text fill="#000000" font-family="sans-serif" font-size="14" lengthAdjust="spacing" textLength="88" x="481" y="239.8438">: GreenSpace</text><polygon fill="#181818" points="258,280.6484,248,284.6484,258,288.6484,254,284.6484" style="stroke:#181818;stroke-width:1.0;"/><line style="stroke:#181818;stroke-width:1.0;stroke-dasharray:2.0,2.0;" x1="252" x2="524" y1="284.6484" y2="284.6484"/><text fill="#000000" font-family="sans-serif" font-size="13" font-weight="bold" lengthAdjust="spacing" textLength="18" x="264" y="279.3857">9.3</text><text fill="#000000" font-family="sans-serif" font-size="13" lengthAdjust="spacing" textLength="48" x="286" y="279.3857">toDoList</text><polygon fill="#181818" points="574,311.9395,584,315.9395,574,319.9395,578,315.9395" style="stroke:#181818;stroke-width:1.0;"/><line style="stroke:#181818;stroke-width:1.0;" x1="247" x2="580" y1="315.9395" y2="315.9395"/><text fill="#000000" font-family="sans-serif" font-size="13" font-weight="bold" lengthAdjust="spacing" textLength="18" x="254" y="310.6768">9.4</text><text fill="#000000" font-family="sans-serif" font-size="13" lengthAdjust="spacing" textLength="118" x="276" y="310.6768">getToDoListEntries()</text><rect fill="#E3E3E3" height="51.2422" rx="2.5" ry="2.5" style="stroke:#181818;stroke-width:0.5;" width="70" x="586" y="292.6484"/><text fill="#000000" font-family="sans-serif" font-size="14" lengthAdjust="spacing" textLength="52" x="595" y="314.7559">toDoList</text><text fill="#000000" font-family="sans-serif" font-size="14" lengthAdjust="spacing" textLength="56" x="593" y="333.377">:toDoList</text><polygon fill="#181818" points="934.5,374.1816,944.5,378.1816,934.5,382.1816,938.5,378.1816" style="stroke:#181818;stroke-width:1.0;"/><line style="stroke:#181818;stroke-width:1.0;stroke-dasharray:2.0,2.0;" x1="626" x2="940.5" y1="378.1816" y2="378.1816"/><text fill="#000000" font-family="sans-serif" font-size="13" font-weight="bold" lengthAdjust="spacing" textLength="18" x="633" y="372.9189">9.5</text><text fill="#000000" font-family="sans-serif" font-size="13" lengthAdjust="spacing" textLength="44" x="655" y="372.9189">create()</text><rect fill="#E3E3E3" height="51.2422" rx="2.5" ry="2.5" style="stroke:#181818;stroke-width:0.5;" width="146" x="946.5" y="354.8906"/><text fill="#000000" font-family="sans-serif" font-size="14" lengthAdjust="spacing" textLength="61" x="989" y="376.998">listEntries</text><text fill="#000000" font-family="sans-serif" font-size="14" lengthAdjust="spacing" textLength="132" x="953.5" y="395.6191">:List&lt;ToDoListEntry&gt;</text><path d="M576,424.1328 L649,424.1328 L649,433.4238 L639,443.4238 L576,443.4238 L576,424.1328 " fill="#EEEEEE" style="stroke:#000000;stroke-width:1.5;"/><rect fill="none" height="80.582" style="stroke:#000000;stroke-width:1.5;" width="526.5" x="576" y="424.1328"/><text fill="#000000" font-family="sans-serif" font-size="13" font-weight="bold" lengthAdjust="spacing" textLength="28" x="591" y="439.1611">loop</text><text fill="#000000" font-family="sans-serif" font-size="11" font-weight="bold" lengthAdjust="spacing" textLength="130" x="664" y="438.0029">[for each toDoListEntry]</text><polygon fill="#181818" points="1007.5,462.7148,1017.5,466.7148,1007.5,470.7148,1011.5,466.7148" style="stroke:#181818;stroke-width:1.0;"/><line style="stroke:#181818;stroke-width:1.0;" x1="626" x2="1013.5" y1="466.7148" y2="466.7148"/><text fill="#000000" font-family="sans-serif" font-size="13" font-weight="bold" lengthAdjust="spacing" textLength="18" x="633" y="461.4521">9.6</text><text fill="#000000" font-family="sans-serif" font-size="13" lengthAdjust="spacing" textLength="108" x="655" y="461.4521">add(toDoListEntry)</text><polygon fill="#181818" points="637,531.0059,627,535.0059,637,539.0059,633,535.0059" style="stroke:#181818;stroke-width:1.0;"/><line style="stroke:#181818;stroke-width:1.0;stroke-dasharray:2.0,2.0;" x1="631" x2="1018.5" y1="535.0059" y2="535.0059"/><text fill="#000000" font-family="sans-serif" font-size="13" font-weight="bold" lengthAdjust="spacing" textLength="18" x="643" y="529.7432">9.7</text><text fill="#000000" font-family="sans-serif" font-size="13" lengthAdjust="spacing" textLength="58" x="665" y="529.7432">listEntries</text><polygon fill="#181818" points="258,562.2969,248,566.2969,258,570.2969,254,566.2969" style="stroke:#181818;stroke-width:1.0;"/><line style="stroke:#181818;stroke-width:1.0;stroke-dasharray:2.0,2.0;" x1="252" x2="620" y1="566.2969" y2="566.2969"/><text fill="#000000" font-family="sans-serif" font-size="13" font-weight="bold" lengthAdjust="spacing" textLength="18" x="264" y="561.0342">9.8</text><text fill="#000000" font-family="sans-serif" font-size="13" lengthAdjust="spacing" textLength="58" x="286" y="561.0342">listEntries</text><polygon fill="#181818" points="654,593.5879,664,597.5879,654,601.5879,658,597.5879" style="stroke:#181818;stroke-width:1.0;"/><line style="stroke:#181818;stroke-width:1.0;" x1="247" x2="660" y1="597.5879" y2="597.5879"/><text fill="#000000" font-family="sans-serif" font-size="13" font-weight="bold" lengthAdjust="spacing" textLength="18" x="254" y="592.3252">9.9</text><text fill="#000000" font-family="sans-serif" font-size="13" lengthAdjust="spacing" textLength="189" x="276" y="592.3252">toDoListEntriesToDto(listEntries)</text><rect fill="#E3E3E3" height="32.6211" rx="2.5" ry="2.5" style="stroke:#181818;stroke-width:0.5;" width="123" x="666" y="574.2969"/><text fill="#000000" font-family="sans-serif" font-size="14" lengthAdjust="spacing" textLength="109" x="673" y="596.4043">:ToDoListMapper</text><polygon fill="#181818" points="1090.5,637.209,1100.5,641.209,1090.5,645.209,1094.5,641.209" style="stroke:#181818;stroke-width:1.0;"/><line style="stroke:#181818;stroke-width:1.0;stroke-dasharray:2.0,2.0;" x1="732.5" x2="1096.5" y1="641.209" y2="641.209"/><text fill="#000000" font-family="sans-serif" font-size="13" font-weight="bold" lengthAdjust="spacing" textLength="25" x="739.5" y="635.9463">9.10</text><text fill="#000000" font-family="sans-serif" font-size="13" lengthAdjust="spacing" textLength="44" x="768.5" y="635.9463">create()</text><rect fill="#E3E3E3" height="51.2422" rx="2.5" ry="2.5" style="stroke:#181818;stroke-width:0.5;" width="179" x="1102.5" y="617.918"/><text fill="#000000" font-family="sans-serif" font-size="14" lengthAdjust="spacing" textLength="74" x="1155" y="640.0254">toDoListDto</text><text fill="#000000" font-family="sans-serif" font-size="14" lengthAdjust="spacing" textLength="165" x="1109.5" y="658.6465">:List&lt;ToDoListEntriesDto&gt;</text><path d="M656,687.1602 L729,687.1602 L729,696.4512 L719,706.4512 L656,706.4512 L656,687.1602 " fill="#EEEEEE" style="stroke:#000000;stroke-width:1.5;"/><rect fill="none" height="310.9883" style="stroke:#000000;stroke-width:1.5;" width="766.5" x="656" y="687.1602"/><text fill="#000000" font-family="sans-serif" font-size="13" font-weight="bold" lengthAdjust="spacing" textLength="28" x="671" y="702.1885">loop</text><text fill="#000000" font-family="sans-serif" font-size="11" font-weight="bold" lengthAdjust="spacing" textLength="130" x="744" y="701.0303">[for each toDoListEntry]</text><polygon fill="#181818" points="1002.5,725.7422,1012.5,729.7422,1002.5,733.7422,1006.5,729.7422" style="stroke:#181818;stroke-width:1.0;"/><line style="stroke:#181818;stroke-width:1.0;" x1="732.5" x2="1008.5" y1="729.7422" y2="729.7422"/><text fill="#000000" font-family="sans-serif" font-size="13" font-weight="bold" lengthAdjust="spacing" textLength="25" x="739.5" y="724.4795">9.11</text><text fill="#000000" font-family="sans-serif" font-size="13" lengthAdjust="spacing" textLength="29" x="768.5" y="724.4795">get(i)</text><polygon fill="#181818" points="743.5,757.0332,733.5,761.0332,743.5,765.0332,739.5,761.0332" style="stroke:#181818;stroke-width:1.0;"/><line style="stroke:#181818;stroke-width:1.0;stroke-dasharray:2.0,2.0;" x1="737.5" x2="1018.5" y1="761.0332" y2="761.0332"/><text fill="#000000" font-family="sans-serif" font-size="13" font-weight="bold" lengthAdjust="spacing" textLength="25" x="749.5" y="755.7705">9.12</text><text fill="#000000" font-family="sans-serif" font-size="13" lengthAdjust="spacing" textLength="79" x="778.5" y="755.7705">toDoListEntry</text><line style="stroke:#181818;stroke-width:1.0;" x1="737.5" x2="779.5" y1="792.3242" y2="792.3242"/><line style="stroke:#181818;stroke-width:1.0;" x1="779.5" x2="779.5" y1="792.3242" y2="805.3242"/><line style="stroke:#181818;stroke-width:1.0;" x1="738.5" x2="779.5" y1="805.3242" y2="805.3242"/><polygon fill="#181818" points="748.5,801.3242,738.5,805.3242,748.5,809.3242,744.5,805.3242" style="stroke:#181818;stroke-width:1.0;"/><text fill="#000000" font-family="sans-serif" font-size="13" font-weight="bold" lengthAdjust="spacing" textLength="25" x="744.5" y="787.0615">9.13</text><text fill="#000000" font-family="sans-serif" font-size="13" lengthAdjust="spacing" textLength="239" x="773.5" y="787.0615">toDoListEntryDto = toDTO(toDoListEntry)</text><polygon fill="#181818" points="1279.5,862.6152,1289.5,866.6152,1279.5,870.6152,1283.5,866.6152" style="stroke:#181818;stroke-width:1.0;"/><line style="stroke:#181818;stroke-width:1.0;stroke-dasharray:2.0,2.0;" x1="732.5" x2="1285.5" y1="866.6152" y2="866.6152"/><text fill="#000000" font-family="sans-serif" font-size="13" font-weight="bold" lengthAdjust="spacing" textLength="25" x="739.5" y="861.3525">9.14</text><text fill="#000000" font-family="sans-serif" font-size="13" lengthAdjust="spacing" textLength="44" x="768.5" y="861.3525">create()</text><rect fill="#E3E3E3" height="51.2422" rx="2.5" ry="2.5" style="stroke:#181818;stroke-width:0.5;" width="121" x="1291.5" y="843.3242"/><text fill="#000000" font-family="sans-serif" font-size="14" lengthAdjust="spacing" textLength="107" x="1298.5" y="865.4316">toDoListEntryDto</text><text fill="#000000" font-family="sans-serif" font-size="14" lengthAdjust="spacing" textLength="83" x="1310.5" y="884.0527">:ToDoListDto</text><polygon fill="#181818" points="743.5,924.8574,733.5,928.8574,743.5,932.8574,739.5,928.8574" style="stroke:#181818;stroke-width:1.0;"/><line style="stroke:#181818;stroke-width:1.0;stroke-dasharray:2.0,2.0;" x1="737.5" x2="1351" y1="928.8574" y2="928.8574"/><text fill="#000000" font-family="sans-serif" font-size="13" font-weight="bold" lengthAdjust="spacing" textLength="25" x="749.5" y="923.5947">9.15</text><text fill="#000000" font-family="sans-serif" font-size="13" lengthAdjust="spacing" textLength="99" x="778.5" y="923.5947">toDoListEntryDto</text><polygon fill="#181818" points="1175,956.1484,1185,960.1484,1175,964.1484,1179,960.1484" style="stroke:#181818;stroke-width:1.0;"/><line style="stroke:#181818;stroke-width:1.0;" x1="732.5" x2="1181" y1="960.1484" y2="960.1484"/><text fill="#000000" font-family="sans-serif" font-size="13" font-weight="bold" lengthAdjust="spacing" textLength="25" x="739.5" y="954.8857">9.16</text><text fill="#000000" font-family="sans-serif" font-size="13" lengthAdjust="spacing" textLength="128" x="768.5" y="954.8857">add(toDoListEntryDto)</text><polygon fill="#181818" points="258,1024.4395,248,1028.4395,258,1032.4395,254,1028.4395" style="stroke:#181818;stroke-width:1.0;"/><line style="stroke:#181818;stroke-width:1.0;stroke-dasharray:2.0,2.0;" x1="252" x2="726.5" y1="1028.4395" y2="1028.4395"/><text fill="#000000" font-family="sans-serif" font-size="13" font-weight="bold" lengthAdjust="spacing" textLength="25" x="264" y="1023.1768">9.17</text><text fill="#000000" font-family="sans-serif" font-size="13" lengthAdjust="spacing" textLength="68" x="293" y="1023.1768">toDoListDto</text><polygon fill="#181818" points="11,1062.7305,1,1066.7305,11,1070.7305,7,1066.7305" style="stroke:#181818;stroke-width:1.0;"/><line style="stroke:#181818;stroke-width:1.0;stroke-dasharray:2.0,2.0;" x1="5" x2="241" y1="1066.7305" y2="1066.7305"/><text fill="#000000" font-family="sans-serif" font-size="13" font-weight="bold" lengthAdjust="spacing" textLength="14" x="17" y="1061.4678">10</text><text fill="#000000" font-family="sans-serif" font-size="13" lengthAdjust="spacing" textLength="68" x="35" y="1061.4678">toDoListDto</text><!--SRC=[fLPDR-8m4BtdLunweaXPROz5NIG44Qf42u9SLjgBcxWXQh0ZnxJglz-nysKd3WJL1mHuvhqtdfTnYe-KvKIG4vmuuz5Hy1C5ASxKAvgTd4GV9A47-PrH43IIX2MP6L0SISo_KfR0EyaAwddujqoZD2TCmjri4SUBXBAO14oAxoN7JvvbLDm1AM0PxZTsV28ePGSafV_O3DRDBns-tWV1ws6tM0PsakGhlaaBYIdrLnqVRbVRpVCXx4WAgvWNakULa3hoPR7R1NixFiDG9Jwb1HAenASQGTSqrmWgEtWDzy_1mIrk9Rah7L5nPswfM8LRDuRcAu725jRALHh-AW2Fd2LdvzCR5V3e-NDzs3D8gEpGJzepHx1xE_7NWqSYcNuIISjk0Qv4y7CEQoeXvFwAWm83MgB1LogFe0L0krGgL1e0HJICy0TKSIUIiguE8xqleLenjRTSdArhfbEh_ecRmt2PkQzNkmT-SwHrTmQ43U7L-khEJQVWR8-bifNPcBidKgrwLyiqlAb98a4HeGFS8p0TxOnKA-CyXtSk0EizWkNJmHnRdoKFnP4udbWuznU1d78l9HYT6PE2eskuUbEvRxGIop2cXdU3Z3wNrSdg-Ha2Dq3TzkXwhfntsXJIjXswKFA9GNJ5XjNa79HVxbkdX4F2jgFtKtTroRhUmgThalxKzaDDhqXd8tGEDNzSJPS9iMtbK0stOvwZeKPUaNsjxLTQNzzIDuoZ_WLtYREE6j4XFB2nrOxZxdTA2N5CjkurDroquXofqIdFESKS_QdcY_7EujrWW8R5U8Du-At_UV9z5tZl_luF]--></g></svg>