<?xml version="1.0" encoding="us-ascii" standalone="no"?><svg xmlns="http://www.w3.org/2000/svg" xmlns:xlink="http://www.w3.org/1999/xlink" contentStyleType="text/css" height="792px" preserveAspectRatio="none" style="width:843px;height:792px;background:#FFFFFF;" version="1.1" viewBox="0 0 843 792" width="843.6px" zoomAndPan="magnify"><defs/><g><rect fill="#FFFFFF" height="699.2727" style="stroke:#181818;stroke-width:0.4000000000000001;" width="4" x="19.4" y="44.8969"/><rect fill="#FFFFFF" height="386.0672" style="stroke:#181818;stroke-width:0.4000000000000001;" width="4" x="134.6" y="54.2133"/><rect fill="#FFFFFF" height="179.6414" style="stroke:#181818;stroke-width:0.4000000000000001;" width="4" x="134.6" y="459.7133"/><rect fill="#FFFFFF" height="92.2984" style="stroke:#181818;stroke-width:0.4000000000000001;" width="4" x="134.6" y="651.8711"/><rect fill="#FFFFFF" height="329.7531" style="stroke:#181818;stroke-width:0.4000000000000001;" width="4" x="261.8" y="84.1781"/><rect fill="#FFFFFF" height="275.5398" style="stroke:#181818;stroke-width:0.4000000000000001;" width="4" x="261.8" y="472.2297"/><rect fill="#FFFFFF" height="67.2656" style="stroke:#181818;stroke-width:0.4000000000000001;" width="4" x="263.8" y="664.3875"/><rect fill="#FFFFFF" height="12.5164" style="stroke:#181818;stroke-width:0.4000000000000001;" width="4" x="321.8" y="96.6945"/><rect fill="#FFFFFF" height="12.5164" style="stroke:#181818;stroke-width:0.4000000000000001;" width="4" x="321.8" y="484.7461"/><rect fill="#FFFFFF" height="12.5164" style="stroke:#181818;stroke-width:0.4000000000000001;" width="4" x="363.8" y="121.7273"/><rect fill="#FFFFFF" height="12.5164" style="stroke:#181818;stroke-width:0.4000000000000001;" width="4" x="363.8" y="509.7789"/><rect fill="#FFFFFF" height="87.7625" style="stroke:#181818;stroke-width:0.4000000000000001;" width="4" x="401.2" y="146.7602"/><rect fill="#FFFFFF" height="75.5102" style="stroke:#181818;stroke-width:0.4000000000000001;" width="4" x="432.6" y="538.8117"/><rect fill="#FFFFFF" height="42.2328" style="stroke:#181818;stroke-width:0.4000000000000001;" width="4" x="432.6" y="676.9039"/><rect fill="#FFFFFF" height="11.2" style="stroke:#181818;stroke-width:0.4000000000000001;" width="4" x="434.6" y="692.6203"/><rect fill="#FFFFFF" height="35.2969" style="stroke:#181818;stroke-width:0.4000000000000001;" width="4" x="579.8" y="563.7086"/><rect fill="#FFFFFF" height="11.2" style="stroke:#181818;stroke-width:0.4000000000000001;" width="4" x="581.8" y="587.8055"/><rect fill="#FFFFFF" height="154.3758" style="stroke:#181818;stroke-width:0.4000000000000001;" width="4" x="631.4" y="247.0391"/><rect fill="#FFFFFF" height="11.2" style="stroke:#181818;stroke-width:0.4000000000000001;" width="4" x="633.4" y="322.6852"/><rect fill="#FFFFFF" height="58.7297" style="stroke:#181818;stroke-width:0.4000000000000001;" width="4" x="694.2" y="163.2766"/><rect fill="#FFFFFF" height="12" style="stroke:#181818;stroke-width:0.4000000000000001;" width="4" x="696.2" y="194.6898"/><rect fill="#FFFFFF" height="12" style="stroke:#181818;stroke-width:0.4000000000000001;" width="4" x="694.2" y="294.9688"/><rect fill="#FFFFFF" height="12" style="stroke:#181818;stroke-width:0.4000000000000001;" width="4" x="753.4" y="374.0984"/><rect fill="none" height="32.2328" style="stroke:#000000;stroke-width:0.6000000000000001;" width="344.2" x="385.2" y="177.657"/><rect fill="none" height="111.3625" style="stroke:#000000;stroke-width:0.6000000000000001;" width="236.6" x="604.8" y="277.9359"/><line style="stroke:#181818;stroke-width:0.20000000000000004;stroke-dasharray:5.0,5.0;" x1="21.2" x2="21.2" y1="40.8969" y2="751.3695"/><line style="stroke:#181818;stroke-width:0.20000000000000004;stroke-dasharray:5.0,5.0;" x1="136.4" x2="136.4" y1="40.8969" y2="751.3695"/><line style="stroke:#181818;stroke-width:0.20000000000000004;stroke-dasharray:5.0,5.0;" x1="263.6" x2="263.6" y1="70.1375" y2="751.3695"/><line style="stroke:#181818;stroke-width:0.20000000000000004;stroke-dasharray:5.0,5.0;" x1="323.6" x2="323.6" y1="40.8969" y2="751.3695"/><line style="stroke:#181818;stroke-width:0.20000000000000004;stroke-dasharray:5.0,5.0;" x1="365.6" x2="365.6" y1="40.8969" y2="751.3695"/><line style="stroke:#181818;stroke-width:0.20000000000000004;stroke-dasharray:5.0,5.0;" x1="403.2" x2="403.2" y1="40.8969" y2="751.3695"/><line style="stroke:#181818;stroke-width:0.20000000000000004;stroke-dasharray:5.0,5.0;" x1="434.4" x2="434.4" y1="541.9438" y2="751.3695"/><line style="stroke:#181818;stroke-width:0.20000000000000004;stroke-dasharray:5.0,5.0;" x1="581.8" x2="581.8" y1="566.8406" y2="751.3695"/><line style="stroke:#181818;stroke-width:0.20000000000000004;stroke-dasharray:5.0,5.0;" x1="633.2" x2="633.2" y1="40.8969" y2="751.3695"/><line style="stroke:#181818;stroke-width:0.20000000000000004;stroke-dasharray:5.0,5.0;" x1="696.2" x2="696.2" y1="166.4086" y2="751.3695"/><line style="stroke:#181818;stroke-width:0.20000000000000004;stroke-dasharray:5.0,5.0;" x1="755.4" x2="755.4" y1="266.6875" y2="751.3695"/><line style="stroke:#181818;stroke-width:0.20000000000000004;stroke-dasharray:5.0,5.0;" x1="811.4" x2="811.4" y1="356.3336" y2="751.3695"/><text fill="#000000" font-family="sans-serif" font-size="5.6" lengthAdjust="spacing" textLength="36.4" x="2" y="32.043">Green Spaces</text><text fill="#000000" font-family="sans-serif" font-size="5.6" lengthAdjust="spacing" textLength="22.4" x="9.8" y="39.4914">Manager</text><ellipse cx="21.4" cy="5.4" fill="#E3E3E3" rx="3.2" ry="3.2" style="stroke:#181818;stroke-width:0.20000000000000004;"/><path d="M21.4,8.6 L21.4,19.4 M16.2,11.8 L26.6,11.8 M21.4,19.4 L16.2,25.4 M21.4,19.4 L26.6,25.4 " fill="none" style="stroke:#181818;stroke-width:0.20000000000000004;"/><text fill="#000000" font-family="sans-serif" font-size="5.6" lengthAdjust="spacing" textLength="36.4" x="2" y="757.0125">Green Spaces</text><text fill="#000000" font-family="sans-serif" font-size="5.6" lengthAdjust="spacing" textLength="22.4" x="9.8" y="764.4609">Manager</text><ellipse cx="21.4" cy="769.2664" fill="#E3E3E3" rx="3.2" ry="3.2" style="stroke:#181818;stroke-width:0.20000000000000004;"/><path d="M21.4,772.4664 L21.4,783.2664 M16.2,775.6664 L26.6,775.6664 M21.4,783.2664 L16.2,789.2664 M21.4,783.2664 L26.6,789.2664 " fill="none" style="stroke:#181818;stroke-width:0.20000000000000004;"/><rect fill="#E3E3E3" height="13.0484" rx="1" ry="1" style="stroke:#181818;stroke-width:0.20000000000000004;" width="54.8" x="109.2" y="27.4484"/><text fill="#000000" font-family="sans-serif" font-size="5.6" lengthAdjust="spacing" textLength="49.2" x="112" y="36.2914">:AddAgendaEntryUI</text><rect fill="#E3E3E3" height="13.0484" rx="1" ry="1" style="stroke:#181818;stroke-width:0.20000000000000004;" width="54.8" x="109.2" y="750.9695"/><text fill="#000000" font-family="sans-serif" font-size="5.6" lengthAdjust="spacing" textLength="49.2" x="112" y="759.8125">:AddAgendaEntryUI</text><rect fill="#E3E3E3" height="13.0484" rx="1" ry="1" style="stroke:#181818;stroke-width:0.20000000000000004;" width="74.8" x="226.4" y="750.9695"/><text fill="#000000" font-family="sans-serif" font-size="5.6" lengthAdjust="spacing" textLength="69.2" x="229.2" y="759.8125">:AddAgendaEntryController</text><rect fill="#E3E3E3" height="13.0484" rx="1" ry="1" style="stroke:#181818;stroke-width:0.20000000000000004;" width="37.2" x="305.2" y="27.4484"/><text fill="#000000" font-family="sans-serif" font-size="5.6" lengthAdjust="spacing" textLength="31.6" x="308" y="36.2914">Repositories</text><rect fill="#E3E3E3" height="13.0484" rx="1" ry="1" style="stroke:#181818;stroke-width:0.20000000000000004;" width="37.2" x="305.2" y="750.9695"/><text fill="#000000" font-family="sans-serif" font-size="5.6" lengthAdjust="spacing" textLength="31.6" x="308" y="759.8125">Repositories</text><rect fill="#E3E3E3" height="20.4969" rx="1" ry="1" style="stroke:#181818;stroke-width:0.20000000000000004;" width="38.8" x="346.4" y="20"/><text fill="#000000" font-family="sans-serif" font-size="5.6" lengthAdjust="spacing" textLength="29.6" x="351" y="28.843">repositories</text><text fill="#000000" font-family="sans-serif" font-size="5.6" lengthAdjust="spacing" textLength="33.2" x="349.2" y="36.2914">:Repositories</text><rect fill="#E3E3E3" height="20.4969" rx="1" ry="1" style="stroke:#181818;stroke-width:0.20000000000000004;" width="38.8" x="346.4" y="750.9695"/><text fill="#000000" font-family="sans-serif" font-size="5.6" lengthAdjust="spacing" textLength="29.6" x="351" y="759.8125">repositories</text><text fill="#000000" font-family="sans-serif" font-size="5.6" lengthAdjust="spacing" textLength="33.2" x="349.2" y="767.2609">:Repositories</text><rect fill="#E3E3E3" height="20.4969" rx="1" ry="1" style="stroke:#181818;stroke-width:0.20000000000000004;" width="28" x="389.2" y="20"/><text fill="#000000" font-family="sans-serif" font-size="5.6" lengthAdjust="spacing" textLength="20.8" x="392.8" y="28.843">toDoList</text><text fill="#000000" font-family="sans-serif" font-size="5.6" lengthAdjust="spacing" textLength="22.4" x="392" y="36.2914">:toDoList</text><rect fill="#E3E3E3" height="20.4969" rx="1" ry="1" style="stroke:#181818;stroke-width:0.20000000000000004;" width="28" x="389.2" y="750.9695"/><text fill="#000000" font-family="sans-serif" font-size="5.6" lengthAdjust="spacing" textLength="20.8" x="392.8" y="759.8125">toDoList</text><text fill="#000000" font-family="sans-serif" font-size="5.6" lengthAdjust="spacing" textLength="22.4" x="392" y="767.2609">:toDoList</text><rect fill="#E3E3E3" height="20.4969" rx="1" ry="1" style="stroke:#181818;stroke-width:0.20000000000000004;" width="26.8" x="421.2" y="750.9695"/><text fill="#000000" font-family="sans-serif" font-size="5.6" lengthAdjust="spacing" textLength="19.2" x="425" y="759.8125">agenda</text><text fill="#000000" font-family="sans-serif" font-size="5.6" lengthAdjust="spacing" textLength="21.2" x="424" y="767.2609">:Agenda</text><rect fill="#E3E3E3" height="20.4969" rx="1" ry="1" style="stroke:#181818;stroke-width:0.20000000000000004;" width="40" x="561.8" y="750.9695"/><text fill="#000000" font-family="sans-serif" font-size="5.6" lengthAdjust="spacing" textLength="32.4" x="565.6" y="759.8125">agendaEntry</text><text fill="#000000" font-family="sans-serif" font-size="5.6" lengthAdjust="spacing" textLength="34.4" x="564.6" y="767.2609">:AgendaEntry</text><rect fill="#E3E3E3" height="13.0484" rx="1" ry="1" style="stroke:#181818;stroke-width:0.20000000000000004;" width="49.2" x="608.8" y="27.4484"/><text fill="#000000" font-family="sans-serif" font-size="5.6" lengthAdjust="spacing" textLength="43.6" x="611.6" y="36.2914">:ToDoListMapper</text><rect fill="#E3E3E3" height="13.0484" rx="1" ry="1" style="stroke:#181818;stroke-width:0.20000000000000004;" width="49.2" x="608.8" y="750.9695"/><text fill="#000000" font-family="sans-serif" font-size="5.6" lengthAdjust="spacing" textLength="43.6" x="611.6" y="759.8125">:ToDoListMapper</text><rect fill="#E3E3E3" height="20.4969" rx="1" ry="1" style="stroke:#181818;stroke-width:0.20000000000000004;" width="58.4" x="667" y="750.9695"/><text fill="#000000" font-family="sans-serif" font-size="5.6" lengthAdjust="spacing" textLength="24.4" x="684" y="759.8125">listEntries</text><text fill="#000000" font-family="sans-serif" font-size="5.6" lengthAdjust="spacing" textLength="52.8" x="669.8" y="767.2609">:List&lt;ToDoListEntry&gt;</text><rect fill="#E3E3E3" height="20.4969" rx="1" ry="1" style="stroke:#181818;stroke-width:0.20000000000000004;" width="52" x="729.4" y="750.9695"/><text fill="#000000" font-family="sans-serif" font-size="5.6" lengthAdjust="spacing" textLength="29.6" x="740.6" y="759.8125">toDoListDto</text><text fill="#000000" font-family="sans-serif" font-size="5.6" lengthAdjust="spacing" textLength="46.4" x="732.2" y="767.2609">:List&lt;toDoListDto&gt;</text><rect fill="#E3E3E3" height="20.4969" rx="1" ry="1" style="stroke:#181818;stroke-width:0.20000000000000004;" width="52" x="785.4" y="750.9695"/><text fill="#000000" font-family="sans-serif" font-size="5.6" lengthAdjust="spacing" textLength="16.4" x="803.2" y="759.8125">objDto</text><text fill="#000000" font-family="sans-serif" font-size="5.6" lengthAdjust="spacing" textLength="46.4" x="788.2" y="767.2609">:ToDoListEntryDto</text><rect fill="#FFFFFF" height="699.2727" style="stroke:#181818;stroke-width:0.4000000000000001;" width="4" x="19.4" y="44.8969"/><rect fill="#FFFFFF" height="386.0672" style="stroke:#181818;stroke-width:0.4000000000000001;" width="4" x="134.6" y="54.2133"/><rect fill="#FFFFFF" height="179.6414" style="stroke:#181818;stroke-width:0.4000000000000001;" width="4" x="134.6" y="459.7133"/><rect fill="#FFFFFF" height="92.2984" style="stroke:#181818;stroke-width:0.4000000000000001;" width="4" x="134.6" y="651.8711"/><rect fill="#FFFFFF" height="329.7531" style="stroke:#181818;stroke-width:0.4000000000000001;" width="4" x="261.8" y="84.1781"/><rect fill="#FFFFFF" height="275.5398" style="stroke:#181818;stroke-width:0.4000000000000001;" width="4" x="261.8" y="472.2297"/><rect fill="#FFFFFF" height="67.2656" style="stroke:#181818;stroke-width:0.4000000000000001;" width="4" x="263.8" y="664.3875"/><rect fill="#FFFFFF" height="12.5164" style="stroke:#181818;stroke-width:0.4000000000000001;" width="4" x="321.8" y="96.6945"/><rect fill="#FFFFFF" height="12.5164" style="stroke:#181818;stroke-width:0.4000000000000001;" width="4" x="321.8" y="484.7461"/><rect fill="#FFFFFF" height="12.5164" style="stroke:#181818;stroke-width:0.4000000000000001;" width="4" x="363.8" y="121.7273"/><rect fill="#FFFFFF" height="12.5164" style="stroke:#181818;stroke-width:0.4000000000000001;" width="4" x="363.8" y="509.7789"/><rect fill="#FFFFFF" height="87.7625" style="stroke:#181818;stroke-width:0.4000000000000001;" width="4" x="401.2" y="146.7602"/><rect fill="#FFFFFF" height="75.5102" style="stroke:#181818;stroke-width:0.4000000000000001;" width="4" x="432.6" y="538.8117"/><rect fill="#FFFFFF" height="42.2328" style="stroke:#181818;stroke-width:0.4000000000000001;" width="4" x="432.6" y="676.9039"/><rect fill="#FFFFFF" height="11.2" style="stroke:#181818;stroke-width:0.4000000000000001;" width="4" x="434.6" y="692.6203"/><rect fill="#FFFFFF" height="35.2969" style="stroke:#181818;stroke-width:0.4000000000000001;" width="4" x="579.8" y="563.7086"/><rect fill="#FFFFFF" height="11.2" style="stroke:#181818;stroke-width:0.4000000000000001;" width="4" x="581.8" y="587.8055"/><rect fill="#FFFFFF" height="154.3758" style="stroke:#181818;stroke-width:0.4000000000000001;" width="4" x="631.4" y="247.0391"/><rect fill="#FFFFFF" height="11.2" style="stroke:#181818;stroke-width:0.4000000000000001;" width="4" x="633.4" y="322.6852"/><rect fill="#FFFFFF" height="58.7297" style="stroke:#181818;stroke-width:0.4000000000000001;" width="4" x="694.2" y="163.2766"/><rect fill="#FFFFFF" height="12" style="stroke:#181818;stroke-width:0.4000000000000001;" width="4" x="696.2" y="194.6898"/><rect fill="#FFFFFF" height="12" style="stroke:#181818;stroke-width:0.4000000000000001;" width="4" x="694.2" y="294.9688"/><rect fill="#FFFFFF" height="12" style="stroke:#181818;stroke-width:0.4000000000000001;" width="4" x="753.4" y="374.0984"/><polygon fill="#181818" points="129.8,52.6133,133.8,54.2133,129.8,55.8133,131.4,54.2133" style="stroke:#181818;stroke-width:0.4000000000000001;"/><line style="stroke:#181818;stroke-width:0.4000000000000001;" x1="23.4" x2="132.2" y1="54.2133" y2="54.2133"/><text fill="#000000" font-family="sans-serif" font-size="5.2" font-weight="bold" lengthAdjust="spacing" textLength="2.8" x="26.2" y="52.1082">1</text><text fill="#000000" font-family="sans-serif" font-size="5.2" lengthAdjust="spacing" textLength="88.8" x="30.6" y="52.1082">asks to add a new entry to the agenda</text><polygon fill="#181818" points="221.6,65.1297,225.6,66.7297,221.6,68.3297,223.2,66.7297" style="stroke:#181818;stroke-width:0.4000000000000001;"/><line style="stroke:#181818;stroke-width:0.4000000000000001;" x1="138.6" x2="224" y1="66.7297" y2="66.7297"/><text fill="#000000" font-family="sans-serif" font-size="5.2" font-weight="bold" lengthAdjust="spacing" textLength="2.8" x="141.4" y="64.6246">2</text><text fill="#000000" font-family="sans-serif" font-size="5.2" lengthAdjust="spacing" textLength="8.4" x="145.8" y="64.6246">add</text><rect fill="#E3E3E3" height="13.0484" rx="1" ry="1" style="stroke:#181818;stroke-width:0.20000000000000004;" width="74.8" x="226.4" y="57.4133"/><text fill="#000000" font-family="sans-serif" font-size="5.6" lengthAdjust="spacing" textLength="69.2" x="229.2" y="66.2563">:AddAgendaEntryController</text><polygon fill="#181818" points="257,82.5781,261,84.1781,257,85.7781,258.6,84.1781" style="stroke:#181818;stroke-width:0.4000000000000001;"/><line style="stroke:#181818;stroke-width:0.4000000000000001;" x1="138.6" x2="259.4" y1="84.1781" y2="84.1781"/><text fill="#000000" font-family="sans-serif" font-size="5.2" font-weight="bold" lengthAdjust="spacing" textLength="2.8" x="141.4" y="82.073">3</text><text fill="#000000" font-family="sans-serif" font-size="5.2" lengthAdjust="spacing" textLength="47.2" x="145.8" y="82.073">getToDoListEntries()</text><polygon fill="#181818" points="317,95.0945,321,96.6945,317,98.2945,318.6,96.6945" style="stroke:#181818;stroke-width:0.4000000000000001;"/><line style="stroke:#181818;stroke-width:0.4000000000000001;" x1="265.8" x2="319.4" y1="96.6945" y2="96.6945"/><text fill="#000000" font-family="sans-serif" font-size="5.2" font-weight="bold" lengthAdjust="spacing" textLength="2.8" x="268.6" y="94.5895">4</text><text fill="#000000" font-family="sans-serif" font-size="5.2" lengthAdjust="spacing" textLength="30" x="273" y="94.5895">getInstance()</text><polygon fill="#181818" points="270.2,107.6109,266.2,109.2109,270.2,110.8109,268.6,109.2109" style="stroke:#181818;stroke-width:0.4000000000000001;"/><line style="stroke:#181818;stroke-width:0.4000000000000001;stroke-dasharray:2.0,2.0;" x1="267.8" x2="323.4" y1="109.2109" y2="109.2109"/><text fill="#000000" font-family="sans-serif" font-size="5.2" font-weight="bold" lengthAdjust="spacing" textLength="2.8" x="272.6" y="107.1059">5</text><text fill="#000000" font-family="sans-serif" font-size="5.2" lengthAdjust="spacing" textLength="26.8" x="277" y="107.1059">repositories</text><polygon fill="#181818" points="359,120.1273,363,121.7273,359,123.3273,360.6,121.7273" style="stroke:#181818;stroke-width:0.4000000000000001;"/><line style="stroke:#181818;stroke-width:0.4000000000000001;" x1="265.8" x2="361.4" y1="121.7273" y2="121.7273"/><text fill="#000000" font-family="sans-serif" font-size="5.2" font-weight="bold" lengthAdjust="spacing" textLength="2.8" x="268.6" y="119.6223">6</text><text fill="#000000" font-family="sans-serif" font-size="5.2" lengthAdjust="spacing" textLength="30.8" x="273" y="119.6223">getToDoList()</text><polygon fill="#181818" points="270.2,132.6438,266.2,134.2438,270.2,135.8438,268.6,134.2438" style="stroke:#181818;stroke-width:0.4000000000000001;"/><line style="stroke:#181818;stroke-width:0.4000000000000001;stroke-dasharray:2.0,2.0;" x1="267.8" x2="365.4" y1="134.2438" y2="134.2438"/><text fill="#000000" font-family="sans-serif" font-size="5.2" font-weight="bold" lengthAdjust="spacing" textLength="2.8" x="272.6" y="132.1387">7</text><text fill="#000000" font-family="sans-serif" font-size="5.2" lengthAdjust="spacing" textLength="19.2" x="277" y="132.1387">toDoList</text><polygon fill="#181818" points="396.4,145.1602,400.4,146.7602,396.4,148.3602,398,146.7602" style="stroke:#181818;stroke-width:0.4000000000000001;"/><line style="stroke:#181818;stroke-width:0.4000000000000001;" x1="265.8" x2="398.8" y1="146.7602" y2="146.7602"/><text fill="#000000" font-family="sans-serif" font-size="5.2" font-weight="bold" lengthAdjust="spacing" textLength="2.8" x="268.6" y="144.6551">8</text><text fill="#000000" font-family="sans-serif" font-size="5.2" lengthAdjust="spacing" textLength="47.2" x="273" y="144.6551">getToDoListEntries()</text><polygon fill="#181818" points="662.2,157.6766,666.2,159.2766,662.2,160.8766,663.8,159.2766" style="stroke:#181818;stroke-width:0.4000000000000001;"/><line style="stroke:#181818;stroke-width:0.4000000000000001;stroke-dasharray:2.0,2.0;" x1="405.2" x2="664.6" y1="159.2766" y2="159.2766"/><text fill="#000000" font-family="sans-serif" font-size="5.2" font-weight="bold" lengthAdjust="spacing" textLength="2.8" x="408" y="157.1715">9</text><text fill="#000000" font-family="sans-serif" font-size="5.2" lengthAdjust="spacing" textLength="17.6" x="412.4" y="157.1715">create()</text><rect fill="#E3E3E3" height="20.4969" rx="1" ry="1" style="stroke:#181818;stroke-width:0.20000000000000004;" width="58.4" x="667" y="149.9602"/><text fill="#000000" font-family="sans-serif" font-size="5.6" lengthAdjust="spacing" textLength="24.4" x="684" y="158.8031">listEntries</text><text fill="#000000" font-family="sans-serif" font-size="5.6" lengthAdjust="spacing" textLength="52.8" x="669.8" y="166.2516">:List&lt;ToDoListEntry&gt;</text><path d="M385.2,177.657 L414.4,177.657 L414.4,181.3734 L410.4,185.3734 L385.2,185.3734 L385.2,177.657 " fill="#EEEEEE" style="stroke:#000000;stroke-width:0.6000000000000001;"/><rect fill="none" height="32.2328" style="stroke:#000000;stroke-width:0.6000000000000001;" width="344.2" x="385.2" y="177.657"/><text fill="#000000" font-family="sans-serif" font-size="5.2" font-weight="bold" lengthAdjust="spacing" textLength="11.2" x="391.2" y="183.6684">loop</text><text fill="#000000" font-family="sans-serif" font-size="4.4" font-weight="bold" lengthAdjust="spacing" textLength="52" x="420.4" y="183.2051">[for each toDoListEntry]</text><polygon fill="#181818" points="691.4,193.0898,695.4,194.6898,691.4,196.2898,693,194.6898" style="stroke:#181818;stroke-width:0.4000000000000001;"/><line style="stroke:#181818;stroke-width:0.4000000000000001;" x1="405.2" x2="693.8" y1="194.6898" y2="194.6898"/><text fill="#000000" font-family="sans-serif" font-size="5.2" font-weight="bold" lengthAdjust="spacing" textLength="5.6" x="408" y="192.5848">10</text><text fill="#000000" font-family="sans-serif" font-size="5.2" lengthAdjust="spacing" textLength="43.2" x="415.2" y="192.5848">add(toDoListEntry)</text><polygon fill="#181818" points="409.6,220.4063,405.6,222.0063,409.6,223.6063,408,222.0063" style="stroke:#181818;stroke-width:0.4000000000000001;"/><line style="stroke:#181818;stroke-width:0.4000000000000001;stroke-dasharray:2.0,2.0;" x1="407.2" x2="695.8" y1="222.0063" y2="222.0063"/><text fill="#000000" font-family="sans-serif" font-size="5.2" font-weight="bold" lengthAdjust="spacing" textLength="5.6" x="412" y="219.9012">11</text><text fill="#000000" font-family="sans-serif" font-size="5.2" lengthAdjust="spacing" textLength="23.2" x="419.2" y="219.9012">listEntries</text><polygon fill="#181818" points="270.2,232.9227,266.2,234.5227,270.2,236.1227,268.6,234.5227" style="stroke:#181818;stroke-width:0.4000000000000001;"/><line style="stroke:#181818;stroke-width:0.4000000000000001;stroke-dasharray:2.0,2.0;" x1="267.8" x2="402.8" y1="234.5227" y2="234.5227"/><text fill="#000000" font-family="sans-serif" font-size="5.2" font-weight="bold" lengthAdjust="spacing" textLength="5.6" x="272.6" y="232.4176">12</text><text fill="#000000" font-family="sans-serif" font-size="5.2" lengthAdjust="spacing" textLength="23.2" x="279.8" y="232.4176">listEntries</text><polygon fill="#181818" points="626.6,245.4391,630.6,247.0391,626.6,248.6391,628.2,247.0391" style="stroke:#181818;stroke-width:0.4000000000000001;"/><line style="stroke:#181818;stroke-width:0.4000000000000001;" x1="265.8" x2="629" y1="247.0391" y2="247.0391"/><text fill="#000000" font-family="sans-serif" font-size="5.2" font-weight="bold" lengthAdjust="spacing" textLength="5.6" x="268.6" y="244.934">13</text><text fill="#000000" font-family="sans-serif" font-size="5.2" lengthAdjust="spacing" textLength="75.6" x="275.8" y="244.934">toDoListEntriesToDto(listEntries)</text><polygon fill="#181818" points="724.6,257.9555,728.6,259.5555,724.6,261.1555,726.2,259.5555" style="stroke:#181818;stroke-width:0.4000000000000001;"/><line style="stroke:#181818;stroke-width:0.4000000000000001;stroke-dasharray:2.0,2.0;" x1="635.4" x2="727" y1="259.5555" y2="259.5555"/><text fill="#000000" font-family="sans-serif" font-size="5.2" font-weight="bold" lengthAdjust="spacing" textLength="5.6" x="638.2" y="257.4504">14</text><text fill="#000000" font-family="sans-serif" font-size="5.2" lengthAdjust="spacing" textLength="17.6" x="645.4" y="257.4504">create()</text><rect fill="#E3E3E3" height="20.4969" rx="1" ry="1" style="stroke:#181818;stroke-width:0.20000000000000004;" width="52" x="729.4" y="250.2391"/><text fill="#000000" font-family="sans-serif" font-size="5.6" lengthAdjust="spacing" textLength="29.6" x="740.6" y="259.082">toDoListDto</text><text fill="#000000" font-family="sans-serif" font-size="5.6" lengthAdjust="spacing" textLength="46.4" x="732.2" y="266.5305">:List&lt;toDoListDto&gt;</text><path d="M604.8,277.9359 L634,277.9359 L634,281.6523 L630,285.6523 L604.8,285.6523 L604.8,277.9359 " fill="#EEEEEE" style="stroke:#000000;stroke-width:0.6000000000000001;"/><rect fill="none" height="111.3625" style="stroke:#000000;stroke-width:0.6000000000000001;" width="236.6" x="604.8" y="277.9359"/><text fill="#000000" font-family="sans-serif" font-size="5.2" font-weight="bold" lengthAdjust="spacing" textLength="11.2" x="610.8" y="283.9473">loop</text><text fill="#000000" font-family="sans-serif" font-size="4.4" font-weight="bold" lengthAdjust="spacing" textLength="52" x="640" y="283.484">[for each toDoListEntry]</text><polygon fill="#181818" points="689.4,293.3688,693.4,294.9688,689.4,296.5688,691,294.9688" style="stroke:#181818;stroke-width:0.4000000000000001;"/><line style="stroke:#181818;stroke-width:0.4000000000000001;" x1="635.4" x2="691.8" y1="294.9688" y2="294.9688"/><text fill="#000000" font-family="sans-serif" font-size="5.2" font-weight="bold" lengthAdjust="spacing" textLength="5.6" x="638.2" y="292.8637">15</text><text fill="#000000" font-family="sans-serif" font-size="5.2" lengthAdjust="spacing" textLength="24.8" x="645.4" y="292.8637">obj = get(i)</text><line style="stroke:#181818;stroke-width:0.4000000000000001;" x1="637.4" x2="654.2" y1="319.4852" y2="319.4852"/><line style="stroke:#181818;stroke-width:0.4000000000000001;" x1="654.2" x2="654.2" y1="319.4852" y2="324.6852"/><line style="stroke:#181818;stroke-width:0.4000000000000001;" x1="637.8" x2="654.2" y1="324.6852" y2="324.6852"/><polygon fill="#181818" points="641.8,323.0852,637.8,324.6852,641.8,326.2852,640.2,324.6852" style="stroke:#181818;stroke-width:0.4000000000000001;"/><text fill="#000000" font-family="sans-serif" font-size="5.2" font-weight="bold" lengthAdjust="spacing" textLength="5.6" x="640.2" y="317.3801">16</text><text fill="#000000" font-family="sans-serif" font-size="5.2" lengthAdjust="spacing" textLength="46" x="647.4" y="317.3801">objDto = toDTO(obj)</text><polygon fill="#181818" points="780.6,347.6016,784.6,349.2016,780.6,350.8016,782.2,349.2016" style="stroke:#181818;stroke-width:0.4000000000000001;"/><line style="stroke:#181818;stroke-width:0.4000000000000001;stroke-dasharray:2.0,2.0;" x1="635.4" x2="783" y1="349.2016" y2="349.2016"/><text fill="#000000" font-family="sans-serif" font-size="5.2" font-weight="bold" lengthAdjust="spacing" textLength="5.6" x="638.2" y="347.0965">17</text><text fill="#000000" font-family="sans-serif" font-size="5.2" lengthAdjust="spacing" textLength="17.6" x="645.4" y="347.0965">create()</text><rect fill="#E3E3E3" height="20.4969" rx="1" ry="1" style="stroke:#181818;stroke-width:0.20000000000000004;" width="52" x="785.4" y="339.8852"/><text fill="#000000" font-family="sans-serif" font-size="5.6" lengthAdjust="spacing" textLength="16.4" x="803.2" y="348.7281">objDto</text><text fill="#000000" font-family="sans-serif" font-size="5.6" lengthAdjust="spacing" textLength="46.4" x="788.2" y="356.1766">:ToDoListEntryDto</text><polygon fill="#181818" points="748.6,372.4984,752.6,374.0984,748.6,375.6984,750.2,374.0984" style="stroke:#181818;stroke-width:0.4000000000000001;"/><line style="stroke:#181818;stroke-width:0.4000000000000001;" x1="635.4" x2="751" y1="374.0984" y2="374.0984"/><text fill="#000000" font-family="sans-serif" font-size="5.2" font-weight="bold" lengthAdjust="spacing" textLength="5.6" x="638.2" y="371.9934">18</text><text fill="#000000" font-family="sans-serif" font-size="5.2" lengthAdjust="spacing" textLength="26.4" x="645.4" y="371.9934">add(objDto)</text><polygon fill="#181818" points="270.2,399.8148,266.2,401.4148,270.2,403.0148,268.6,401.4148" style="stroke:#181818;stroke-width:0.4000000000000001;"/><line style="stroke:#181818;stroke-width:0.4000000000000001;stroke-dasharray:2.0,2.0;" x1="267.8" x2="633" y1="401.4148" y2="401.4148"/><text fill="#000000" font-family="sans-serif" font-size="5.2" font-weight="bold" lengthAdjust="spacing" textLength="5.6" x="272.6" y="399.3098">19</text><text fill="#000000" font-family="sans-serif" font-size="5.2" lengthAdjust="spacing" textLength="27.2" x="279.8" y="399.3098">toDoListDto</text><polygon fill="#181818" points="143,412.3313,139,413.9313,143,415.5313,141.4,413.9313" style="stroke:#181818;stroke-width:0.4000000000000001;"/><line style="stroke:#181818;stroke-width:0.4000000000000001;stroke-dasharray:2.0,2.0;" x1="140.6" x2="263.4" y1="413.9313" y2="413.9313"/><text fill="#000000" font-family="sans-serif" font-size="5.2" font-weight="bold" lengthAdjust="spacing" textLength="5.6" x="145.4" y="411.8262">20</text><text fill="#000000" font-family="sans-serif" font-size="5.2" lengthAdjust="spacing" textLength="27.2" x="152.6" y="411.8262">toDoListDto</text><polygon fill="#181818" points="27.8,438.6805,23.8,440.2805,27.8,441.8805,26.2,440.2805" style="stroke:#181818;stroke-width:0.4000000000000001;"/><line style="stroke:#181818;stroke-width:0.4000000000000001;stroke-dasharray:2.0,2.0;" x1="25.4" x2="136.2" y1="440.2805" y2="440.2805"/><text fill="#000000" font-family="sans-serif" font-size="5.2" font-weight="bold" lengthAdjust="spacing" textLength="5.6" x="30.2" y="431.259">21</text><text fill="#000000" font-family="sans-serif" font-size="5.2" lengthAdjust="spacing" textLength="83.6" x="37.4" y="424.3426">shows all the tasks registered in the</text><text fill="#000000" font-family="sans-serif" font-size="5.2" lengthAdjust="spacing" textLength="86.8" x="37.4" y="431.259">To-Do List and asks you to select the</text><text fill="#000000" font-family="sans-serif" font-size="5.2" lengthAdjust="spacing" textLength="46.8" x="37.4" y="438.1754">one you want to add</text><polygon fill="#181818" points="129.8,458.1133,133.8,459.7133,129.8,461.3133,131.4,459.7133" style="stroke:#181818;stroke-width:0.4000000000000001;"/><line style="stroke:#181818;stroke-width:0.4000000000000001;" x1="23.4" x2="132.2" y1="459.7133" y2="459.7133"/><text fill="#000000" font-family="sans-serif" font-size="5.2" font-weight="bold" lengthAdjust="spacing" textLength="5.6" x="26.2" y="454.15">22</text><text fill="#000000" font-family="sans-serif" font-size="5.2" lengthAdjust="spacing" textLength="92" x="33.4" y="450.6918">select the desired task and its start and</text><text fill="#000000" font-family="sans-serif" font-size="5.2" lengthAdjust="spacing" textLength="20" x="35" y="457.6082">end date</text><polygon fill="#181818" points="257,470.6297,261,472.2297,257,473.8297,258.6,472.2297" style="stroke:#181818;stroke-width:0.4000000000000001;"/><line style="stroke:#181818;stroke-width:0.4000000000000001;" x1="138.6" x2="259.4" y1="472.2297" y2="472.2297"/><text fill="#000000" font-family="sans-serif" font-size="5.2" font-weight="bold" lengthAdjust="spacing" textLength="5.6" x="141.4" y="470.1246">23</text><text fill="#000000" font-family="sans-serif" font-size="5.2" lengthAdjust="spacing" textLength="108.4" x="148.6" y="470.1246">createEntry(toDoListEntry, startDate, endDate)</text><polygon fill="#181818" points="317,483.1461,321,484.7461,317,486.3461,318.6,484.7461" style="stroke:#181818;stroke-width:0.4000000000000001;"/><line style="stroke:#181818;stroke-width:0.4000000000000001;" x1="265.8" x2="319.4" y1="484.7461" y2="484.7461"/><text fill="#000000" font-family="sans-serif" font-size="5.2" font-weight="bold" lengthAdjust="spacing" textLength="5.6" x="268.6" y="482.641">24</text><text fill="#000000" font-family="sans-serif" font-size="5.2" lengthAdjust="spacing" textLength="30" x="275.8" y="482.641">getInstance()</text><polygon fill="#181818" points="270.2,495.6625,266.2,497.2625,270.2,498.8625,268.6,497.2625" style="stroke:#181818;stroke-width:0.4000000000000001;"/><line style="stroke:#181818;stroke-width:0.4000000000000001;stroke-dasharray:2.0,2.0;" x1="267.8" x2="323.4" y1="497.2625" y2="497.2625"/><text fill="#000000" font-family="sans-serif" font-size="5.2" font-weight="bold" lengthAdjust="spacing" textLength="5.6" x="272.6" y="495.1574">25</text><text fill="#000000" font-family="sans-serif" font-size="5.2" lengthAdjust="spacing" textLength="26.8" x="279.8" y="495.1574">repositories</text><polygon fill="#181818" points="359,508.1789,363,509.7789,359,511.3789,360.6,509.7789" style="stroke:#181818;stroke-width:0.4000000000000001;"/><line style="stroke:#181818;stroke-width:0.4000000000000001;" x1="265.8" x2="361.4" y1="509.7789" y2="509.7789"/><text fill="#000000" font-family="sans-serif" font-size="5.2" font-weight="bold" lengthAdjust="spacing" textLength="5.6" x="268.6" y="507.6738">26</text><text fill="#000000" font-family="sans-serif" font-size="5.2" lengthAdjust="spacing" textLength="28" x="275.8" y="507.6738">getAgenda()</text><polygon fill="#181818" points="270.2,520.6953,266.2,522.2953,270.2,523.8953,268.6,522.2953" style="stroke:#181818;stroke-width:0.4000000000000001;"/><line style="stroke:#181818;stroke-width:0.4000000000000001;stroke-dasharray:2.0,2.0;" x1="267.8" x2="365.4" y1="522.2953" y2="522.2953"/><text fill="#000000" font-family="sans-serif" font-size="5.2" font-weight="bold" lengthAdjust="spacing" textLength="5.6" x="272.6" y="520.1902">27</text><text fill="#000000" font-family="sans-serif" font-size="5.2" lengthAdjust="spacing" textLength="16.8" x="279.8" y="520.1902">agenda</text><polygon fill="#181818" points="416.4,533.2117,420.4,534.8117,416.4,536.4117,418,534.8117" style="stroke:#181818;stroke-width:0.4000000000000001;"/><line style="stroke:#181818;stroke-width:0.4000000000000001;" x1="265.8" x2="418.8" y1="534.8117" y2="534.8117"/><text fill="#000000" font-family="sans-serif" font-size="5.2" font-weight="bold" lengthAdjust="spacing" textLength="5.6" x="268.6" y="532.7066">28</text><text fill="#000000" font-family="sans-serif" font-size="5.2" lengthAdjust="spacing" textLength="108.4" x="275.8" y="532.7066">createEntry(toDoListEntry, startDate, endDate)</text><rect fill="#E3E3E3" height="20.4969" rx="1" ry="1" style="stroke:#181818;stroke-width:0.20000000000000004;" width="26.8" x="421.2" y="525.4953"/><text fill="#000000" font-family="sans-serif" font-size="5.6" lengthAdjust="spacing" textLength="19.2" x="425" y="534.3383">agenda</text><text fill="#000000" font-family="sans-serif" font-size="5.6" lengthAdjust="spacing" textLength="21.2" x="424" y="541.7867">:Agenda</text><polygon fill="#181818" points="557,558.1086,561,559.7086,557,561.3086,558.6,559.7086" style="stroke:#181818;stroke-width:0.4000000000000001;"/><line style="stroke:#181818;stroke-width:0.4000000000000001;" x1="436.6" x2="559.4" y1="559.7086" y2="559.7086"/><text fill="#000000" font-family="sans-serif" font-size="5.2" font-weight="bold" lengthAdjust="spacing" textLength="5.6" x="439.4" y="557.6035">29</text><text fill="#000000" font-family="sans-serif" font-size="5.2" lengthAdjust="spacing" textLength="108.4" x="446.6" y="557.6035">createEntry(toDoListEntry, startDate, endDate)</text><rect fill="#E3E3E3" height="20.4969" rx="1" ry="1" style="stroke:#181818;stroke-width:0.20000000000000004;" width="40" x="561.8" y="550.3922"/><text fill="#000000" font-family="sans-serif" font-size="5.6" lengthAdjust="spacing" textLength="32.4" x="565.6" y="559.2352">agendaEntry</text><text fill="#000000" font-family="sans-serif" font-size="5.6" lengthAdjust="spacing" textLength="34.4" x="564.6" y="566.6836">:AgendaEntry</text><line style="stroke:#181818;stroke-width:0.4000000000000001;" x1="585.8" x2="602.6" y1="584.6055" y2="584.6055"/><line style="stroke:#181818;stroke-width:0.4000000000000001;" x1="602.6" x2="602.6" y1="584.6055" y2="589.8055"/><line style="stroke:#181818;stroke-width:0.4000000000000001;" x1="586.2" x2="602.6" y1="589.8055" y2="589.8055"/><polygon fill="#181818" points="590.2,588.2055,586.2,589.8055,590.2,591.4055,588.6,589.8055" style="stroke:#181818;stroke-width:0.4000000000000001;"/><text fill="#000000" font-family="sans-serif" font-size="5.2" font-weight="bold" lengthAdjust="spacing" textLength="5.6" x="588.6" y="582.5004">30</text><text fill="#000000" font-family="sans-serif" font-size="5.2" lengthAdjust="spacing" textLength="34.8" x="595.8" y="582.5004">taskSchedule()</text><polygon fill="#181818" points="270.2,612.7219,266.2,614.3219,270.2,615.9219,268.6,614.3219" style="stroke:#181818;stroke-width:0.4000000000000001;"/><line style="stroke:#181818;stroke-width:0.4000000000000001;stroke-dasharray:2.0,2.0;" x1="267.8" x2="434.2" y1="614.3219" y2="614.3219"/><text fill="#000000" font-family="sans-serif" font-size="5.2" font-weight="bold" lengthAdjust="spacing" textLength="5.6" x="272.6" y="612.2168">31</text><text fill="#000000" font-family="sans-serif" font-size="5.2" lengthAdjust="spacing" textLength="29.2" x="279.8" y="612.2168">agendaEntry</text><polygon fill="#181818" points="143,625.2383,139,626.8383,143,628.4383,141.4,626.8383" style="stroke:#181818;stroke-width:0.4000000000000001;"/><line style="stroke:#181818;stroke-width:0.4000000000000001;stroke-dasharray:2.0,2.0;" x1="140.6" x2="261.4" y1="626.8383" y2="626.8383"/><text fill="#000000" font-family="sans-serif" font-size="5.2" font-weight="bold" lengthAdjust="spacing" textLength="5.6" x="145.4" y="624.7332">32</text><text fill="#000000" font-family="sans-serif" font-size="5.2" lengthAdjust="spacing" textLength="29.2" x="152.6" y="624.7332">agendaEntry</text><polygon fill="#181818" points="27.8,637.7547,23.8,639.3547,27.8,640.9547,26.2,639.3547" style="stroke:#181818;stroke-width:0.4000000000000001;"/><line style="stroke:#181818;stroke-width:0.4000000000000001;stroke-dasharray:2.0,2.0;" x1="25.4" x2="136.2" y1="639.3547" y2="639.3547"/><text fill="#000000" font-family="sans-serif" font-size="5.2" font-weight="bold" lengthAdjust="spacing" textLength="5.6" x="30.2" y="637.2496">33</text><text fill="#000000" font-family="sans-serif" font-size="5.2" lengthAdjust="spacing" textLength="94.4" x="37.4" y="637.2496">shows all data and requests confirmation</text><polygon fill="#181818" points="129.8,650.2711,133.8,651.8711,129.8,653.4711,131.4,651.8711" style="stroke:#181818;stroke-width:0.4000000000000001;"/><line style="stroke:#181818;stroke-width:0.4000000000000001;" x1="23.4" x2="132.2" y1="651.8711" y2="651.8711"/><text fill="#000000" font-family="sans-serif" font-size="5.2" font-weight="bold" lengthAdjust="spacing" textLength="5.6" x="26.2" y="649.766">34</text><text fill="#000000" font-family="sans-serif" font-size="5.2" lengthAdjust="spacing" textLength="31.2" x="33.4" y="649.766">confirms data</text><polygon fill="#181818" points="259,662.7875,263,664.3875,259,665.9875,260.6,664.3875" style="stroke:#181818;stroke-width:0.4000000000000001;"/><line style="stroke:#181818;stroke-width:0.4000000000000001;" x1="138.6" x2="261.4" y1="664.3875" y2="664.3875"/><text fill="#000000" font-family="sans-serif" font-size="5.2" font-weight="bold" lengthAdjust="spacing" textLength="5.6" x="141.4" y="662.2824">35</text><text fill="#000000" font-family="sans-serif" font-size="5.2" lengthAdjust="spacing" textLength="41.6" x="148.6" y="662.2824">addAgendaEntry()</text><polygon fill="#181818" points="427.8,675.3039,431.8,676.9039,427.8,678.5039,429.4,676.9039" style="stroke:#181818;stroke-width:0.4000000000000001;"/><line style="stroke:#181818;stroke-width:0.4000000000000001;" x1="267.8" x2="430.2" y1="676.9039" y2="676.9039"/><text fill="#000000" font-family="sans-serif" font-size="5.2" font-weight="bold" lengthAdjust="spacing" textLength="5.6" x="270.6" y="674.7988">36</text><text fill="#000000" font-family="sans-serif" font-size="5.2" lengthAdjust="spacing" textLength="70.8" x="277.8" y="674.7988">addAgendaEntry(agendaEntry)</text><line style="stroke:#181818;stroke-width:0.4000000000000001;" x1="438.6" x2="455.4" y1="689.4203" y2="689.4203"/><line style="stroke:#181818;stroke-width:0.4000000000000001;" x1="455.4" x2="455.4" y1="689.4203" y2="694.6203"/><line style="stroke:#181818;stroke-width:0.4000000000000001;" x1="439" x2="455.4" y1="694.6203" y2="694.6203"/><polygon fill="#181818" points="443,693.0203,439,694.6203,443,696.2203,441.4,694.6203" style="stroke:#181818;stroke-width:0.4000000000000001;"/><text fill="#000000" font-family="sans-serif" font-size="5.2" font-weight="bold" lengthAdjust="spacing" textLength="5.6" x="441.4" y="687.3152">37</text><text fill="#000000" font-family="sans-serif" font-size="5.2" lengthAdjust="spacing" textLength="32.8" x="448.6" y="687.3152">validateEntry()</text><polygon fill="#181818" points="272.2,717.5367,268.2,719.1367,272.2,720.7367,270.6,719.1367" style="stroke:#181818;stroke-width:0.4000000000000001;"/><line style="stroke:#181818;stroke-width:0.4000000000000001;stroke-dasharray:2.0,2.0;" x1="269.8" x2="434.2" y1="719.1367" y2="719.1367"/><text fill="#000000" font-family="sans-serif" font-size="5.2" font-weight="bold" lengthAdjust="spacing" textLength="5.6" x="274.6" y="717.0316">38</text><text fill="#000000" font-family="sans-serif" font-size="5.2" lengthAdjust="spacing" textLength="42.4" x="281.8" y="717.0316">operation success</text><polygon fill="#181818" points="143,730.0531,139,731.6531,143,733.2531,141.4,731.6531" style="stroke:#181818;stroke-width:0.4000000000000001;"/><line style="stroke:#181818;stroke-width:0.4000000000000001;stroke-dasharray:2.0,2.0;" x1="140.6" x2="261.4" y1="731.6531" y2="731.6531"/><text fill="#000000" font-family="sans-serif" font-size="5.2" font-weight="bold" lengthAdjust="spacing" textLength="5.6" x="145.4" y="729.548">39</text><text fill="#000000" font-family="sans-serif" font-size="5.2" lengthAdjust="spacing" textLength="42.4" x="152.6" y="729.548">operation success</text><polygon fill="#181818" points="25.8,742.5695,21.8,744.1695,25.8,745.7695,24.2,744.1695" style="stroke:#181818;stroke-width:0.4000000000000001;"/><line style="stroke:#181818;stroke-width:0.4000000000000001;stroke-dasharray:2.0,2.0;" x1="23.4" x2="136.2" y1="744.1695" y2="744.1695"/><text fill="#000000" font-family="sans-serif" font-size="5.2" font-weight="bold" lengthAdjust="spacing" textLength="5.6" x="28.2" y="742.0645">40</text><text fill="#000000" font-family="sans-serif" font-size="5.2" lengthAdjust="spacing" textLength="63.2" x="35.4" y="742.0645">displays operation success</text><!--SRC=[jLVRRkCW47ttLw2-R5erFn3jLeeQguhKD57YFgpK5sfemjO1Bv1cy_Sxu4l1Ts-rVeXYc3bp1ix0MBqpdcA9Z-Wek8WFKXmfql940rNEf3X-ntkwqvU48abZZVa-SGtK0HDnPdoFtd2YQ13WanRyT7obCWY-7HYXw4q8_Ih-13ZMGgAh1qafHpj0fkg5enNc441U8QpGmsuL0AncCKinr-XgDYTalgUSu91hUNbUMhFdPQVLlO1VaIGvw7sqVVJijpGLYW4NHfKF99sP5pvp3ItKDjpu3bein2DJ6eoBlzOmMY_MZyjTv5jZon5iCxBMSluGFYtcJNOsbzBOlZaUuLEq_LbPXYYdiC9fcYTV45dDDvjmwzidO6fWisIDu_S2mKQximZ6smHRXhlct1TQ5ExEq9qNVX6jVMVn-YlpyoB2aETcapI-HZli0sjg9H8WUE0Fcjw15j0CNDuLqW9XGX16d9uHDN1cI1yeojRJUfKue24xO1x002IZaviRWqP8qnpCxAbs-SB2JQvBonBQ2guSXiTw0ugh9mksv0eAAgOEYWla2TMri8yxYwOvoHboDUpw4DgFMn8DDrwoRVoW7Egqmet3fb146vCgGi6WK43VedjyogghaJ9F2MdOEQgsUnvB2WWLu5e0jnOQBSsJ2972cISHf7ae5y3gkzN7v-VHomGvyN2kEu4QwNOvE1ion0MAgJrxb_dKtqZdl0b6qAZ7ydOoByqsS0UqMHvLnMKd9PfvEmUee44j9awO7X7c9suh-JoEkqPmqlbY3BwghMgmghBW64O_J8LDs0ZfZzcyOQngYv_T3y0DSepM4tZjuLTPzXwAVPlKir75lTIpMzsvWdzUsrco0nCqr-70xEpDEQXw6tBDwygvqeD_MCoikefxkWdC0V8lJdFpWYFSypFeCiLP8PmazZxNzhwNT0zGL5A26BVZBpmIquL09WJ2d6HzmKMSJ2EWQ0BjQsudEBNZPzECP8r3K25JD0Xbdp5p8GXLp4GsL6mefXM2orpQmD3MmZ8Z0ZX3kevIHBQG_QF-DaDTmEoj0JL_XlGSOvkE_zHr36exQdr7rlAs4knlEvoERqpNaRNMJbMFtX2FQDxRrxXcuvy1xN7orQWDaRDlX9RmThB2mPGe27eN7oWv9KtjK6E4ZgEeayXGksAzFil5-KBgH-qwaLoWdfC7gXdRKfVqzuaggFTOy3ScZrWpmGSS7xcviaW3pmNiVTbEHbL-lcmr42Vd4SAjYXPmFt32IAdN4LWzMrJVRm7VitQPaJh5CLMg1ywTxTZzTjX1jn9XAatmHRNWLDJWl9gFsBy0]--></g></svg>