<?xml version="1.0" encoding="us-ascii" standalone="no"?><svg xmlns="http://www.w3.org/2000/svg" xmlns:xlink="http://www.w3.org/1999/xlink" contentStyleType="text/css" height="1050.5px" preserveAspectRatio="none" style="width:1063px;height:1050px;background:#FFFFFF;" version="1.1" viewBox="0 0 1063 1050" width="1063.5px" zoomAndPan="magnify"><defs/><g><rect fill="#FFFFFF" height="934.6924" style="stroke:#181818;stroke-width:0.5;" width="5" x="24.25" y="56.1211"/><rect fill="#FFFFFF" height="489.3945" style="stroke:#181818;stroke-width:0.5;" width="5" x="168.25" y="67.7666"/><rect fill="#FFFFFF" height="278.3428" style="stroke:#181818;stroke-width:0.5;" width="5" x="168.25" y="581.4521"/><rect fill="#FFFFFF" height="115.373" style="stroke:#181818;stroke-width:0.5;" width="5" x="168.25" y="875.4404"/><rect fill="#FFFFFF" height="419.002" style="stroke:#181818;stroke-width:0.5;" width="5" x="327.25" y="105.2227"/><rect fill="#FFFFFF" height="398.2158" style="stroke:#181818;stroke-width:0.5;" width="5" x="327.25" y="597.0977"/><rect fill="#FFFFFF" height="84.082" style="stroke:#181818;stroke-width:0.5;" width="5" x="329.75" y="891.0859"/><rect fill="#FFFFFF" height="15.6455" style="stroke:#181818;stroke-width:0.5;" width="5" x="402.25" y="120.8682"/><rect fill="#FFFFFF" height="15.6455" style="stroke:#181818;stroke-width:0.5;" width="5" x="402.25" y="612.7432"/><rect fill="#FFFFFF" height="15.6455" style="stroke:#181818;stroke-width:0.5;" width="5" x="454.75" y="152.1592"/><rect fill="#FFFFFF" height="15.6455" style="stroke:#181818;stroke-width:0.5;" width="5" x="454.75" y="644.0342"/><rect fill="#FFFFFF" height="109.7031" style="stroke:#181818;stroke-width:0.5;" width="5" x="501.5" y="183.4502"/><rect fill="#FFFFFF" height="148.1787" style="stroke:#181818;stroke-width:0.5;" width="5" x="540.75" y="680.3252"/><rect fill="#FFFFFF" height="52.791" style="stroke:#181818;stroke-width:0.5;" width="5" x="540.75" y="906.7314"/><rect fill="#FFFFFF" height="14" style="stroke:#181818;stroke-width:0.5;" width="5" x="543.25" y="926.377"/><rect fill="#FFFFFF" height="94.4121" style="stroke:#181818;stroke-width:0.5;" width="5" x="724.75" y="711.4463"/><rect fill="#FFFFFF" height="14" style="stroke:#181818;stroke-width:0.5;" width="5" x="727.25" y="741.5674"/><rect fill="#FFFFFF" height="14" style="stroke:#181818;stroke-width:0.5;" width="5" x="727.25" y="791.8584"/><rect fill="#FFFFFF" height="194.7803" style="stroke:#181818;stroke-width:0.5;" width="5" x="798.25" y="313.7988"/><rect fill="#FFFFFF" height="14" style="stroke:#181818;stroke-width:0.5;" width="5" x="800.75" y="410.167"/><rect fill="#FFFFFF" height="73.4121" style="stroke:#181818;stroke-width:0.5;" width="5" x="876.75" y="204.0957"/><rect fill="#FFFFFF" height="15" style="stroke:#181818;stroke-width:0.5;" width="5" x="879.25" y="243.3623"/><rect fill="#FFFFFF" height="15.6455" style="stroke:#181818;stroke-width:0.5;" width="5" x="876.75" y="374.876"/><rect fill="#FFFFFF" height="15" style="stroke:#181818;stroke-width:0.5;" width="5" x="950.75" y="474.4336"/><rect fill="none" height="40.291" style="stroke:#000000;stroke-width:0.75;" width="439.25" x="481.5" y="222.0713"/><rect fill="none" height="139.8486" style="stroke:#000000;stroke-width:0.75;" width="295.75" x="765" y="353.585"/><rect fill="none" height="46.791" style="stroke:#000000;stroke-width:0.75;" width="97" x="697.25" y="766.5674"/><line style="stroke:#181818;stroke-width:0.25;stroke-dasharray:5.0,5.0;" x1="26.5" x2="26.5" y1="51.1211" y2="999.8135"/><line style="stroke:#181818;stroke-width:0.25;stroke-dasharray:5.0,5.0;" x1="170.5" x2="170.5" y1="51.1211" y2="999.8135"/><line style="stroke:#181818;stroke-width:0.25;stroke-dasharray:5.0,5.0;" x1="329.5" x2="329.5" y1="87.6719" y2="999.8135"/><line style="stroke:#181818;stroke-width:0.25;stroke-dasharray:5.0,5.0;" x1="404.5" x2="404.5" y1="51.1211" y2="999.8135"/><line style="stroke:#181818;stroke-width:0.25;stroke-dasharray:5.0,5.0;" x1="457" x2="457" y1="51.1211" y2="999.8135"/><line style="stroke:#181818;stroke-width:0.25;stroke-dasharray:5.0,5.0;" x1="504" x2="504" y1="51.1211" y2="999.8135"/><line style="stroke:#181818;stroke-width:0.25;stroke-dasharray:5.0,5.0;" x1="543" x2="543" y1="684.2402" y2="999.8135"/><line style="stroke:#181818;stroke-width:0.25;stroke-dasharray:5.0,5.0;" x1="727.25" x2="727.25" y1="715.3613" y2="999.8135"/><line style="stroke:#181818;stroke-width:0.25;stroke-dasharray:5.0,5.0;" x1="800.5" x2="800.5" y1="313.0586" y2="999.8135"/><line style="stroke:#181818;stroke-width:0.25;stroke-dasharray:5.0,5.0;" x1="879.25" x2="879.25" y1="208.0107" y2="999.8135"/><line style="stroke:#181818;stroke-width:0.25;stroke-dasharray:5.0,5.0;" x1="953.25" x2="953.25" y1="339.5244" y2="999.8135"/><line style="stroke:#181818;stroke-width:0.25;stroke-dasharray:5.0,5.0;" x1="1023.25" x2="1023.25" y1="452.2275" y2="999.8135"/><text fill="#000000" font-family="sans-serif" font-size="7" lengthAdjust="spacing" textLength="45.5" x="2.5" y="40.0537">Green Spaces</text><text fill="#000000" font-family="sans-serif" font-size="7" lengthAdjust="spacing" textLength="28" x="12.25" y="49.3643">Manager</text><ellipse cx="26.75" cy="6.75" fill="#E3E3E3" rx="4" ry="4" style="stroke:#181818;stroke-width:0.25;"/><path d="M26.75,10.75 L26.75,24.25 M20.25,14.75 L33.25,14.75 M26.75,24.25 L20.25,31.75 M26.75,24.25 L33.25,31.75 " fill="none" style="stroke:#181818;stroke-width:0.25;"/><text fill="#000000" font-family="sans-serif" font-size="7" lengthAdjust="spacing" textLength="45.5" x="2.5" y="1006.8672">Green Spaces</text><text fill="#000000" font-family="sans-serif" font-size="7" lengthAdjust="spacing" textLength="28" x="12.25" y="1016.1777">Manager</text><ellipse cx="26.75" cy="1022.1846" fill="#E3E3E3" rx="4" ry="4" style="stroke:#181818;stroke-width:0.25;"/><path d="M26.75,1026.1846 L26.75,1039.6846 M20.25,1030.1846 L33.25,1030.1846 M26.75,1039.6846 L20.25,1047.1846 M26.75,1039.6846 L33.25,1047.1846 " fill="none" style="stroke:#181818;stroke-width:0.25;"/><rect fill="#E3E3E3" height="16.3105" rx="1.25" ry="1.25" style="stroke:#181818;stroke-width:0.25;" width="68.5" x="136.5" y="34.3105"/><text fill="#000000" font-family="sans-serif" font-size="7" lengthAdjust="spacing" textLength="61.5" x="140" y="45.3643">:AddAgendaEntryUI</text><rect fill="#E3E3E3" height="16.3105" rx="1.25" ry="1.25" style="stroke:#181818;stroke-width:0.25;" width="68.5" x="136.5" y="999.3135"/><text fill="#000000" font-family="sans-serif" font-size="7" lengthAdjust="spacing" textLength="61.5" x="140" y="1010.3672">:AddAgendaEntryUI</text><rect fill="#E3E3E3" height="16.3105" rx="1.25" ry="1.25" style="stroke:#181818;stroke-width:0.25;" width="93.5" x="283" y="999.3135"/><text fill="#000000" font-family="sans-serif" font-size="7" lengthAdjust="spacing" textLength="86.5" x="286.5" y="1010.3672">:AddAgendaEntryController</text><rect fill="#E3E3E3" height="16.3105" rx="1.25" ry="1.25" style="stroke:#181818;stroke-width:0.25;" width="46.5" x="381.5" y="34.3105"/><text fill="#000000" font-family="sans-serif" font-size="7" lengthAdjust="spacing" textLength="39.5" x="385" y="45.3643">Repositories</text><rect fill="#E3E3E3" height="16.3105" rx="1.25" ry="1.25" style="stroke:#181818;stroke-width:0.25;" width="46.5" x="381.5" y="999.3135"/><text fill="#000000" font-family="sans-serif" font-size="7" lengthAdjust="spacing" textLength="39.5" x="385" y="1010.3672">Repositories</text><rect fill="#E3E3E3" height="25.6211" rx="1.25" ry="1.25" style="stroke:#181818;stroke-width:0.25;" width="48.5" x="433" y="25"/><text fill="#000000" font-family="sans-serif" font-size="7" lengthAdjust="spacing" textLength="37" x="438.75" y="36.0537">repositories</text><text fill="#000000" font-family="sans-serif" font-size="7" lengthAdjust="spacing" textLength="41.5" x="436.5" y="45.3643">:Repositories</text><rect fill="#E3E3E3" height="25.6211" rx="1.25" ry="1.25" style="stroke:#181818;stroke-width:0.25;" width="48.5" x="433" y="999.3135"/><text fill="#000000" font-family="sans-serif" font-size="7" lengthAdjust="spacing" textLength="37" x="438.75" y="1010.3672">repositories</text><text fill="#000000" font-family="sans-serif" font-size="7" lengthAdjust="spacing" textLength="41.5" x="436.5" y="1019.6777">:Repositories</text><rect fill="#E3E3E3" height="25.6211" rx="1.25" ry="1.25" style="stroke:#181818;stroke-width:0.25;" width="35" x="486.5" y="25"/><text fill="#000000" font-family="sans-serif" font-size="7" lengthAdjust="spacing" textLength="26" x="491" y="36.0537">toDoList</text><text fill="#000000" font-family="sans-serif" font-size="7" lengthAdjust="spacing" textLength="28" x="490" y="45.3643">:toDoList</text><rect fill="#E3E3E3" height="25.6211" rx="1.25" ry="1.25" style="stroke:#181818;stroke-width:0.25;" width="35" x="486.5" y="999.3135"/><text fill="#000000" font-family="sans-serif" font-size="7" lengthAdjust="spacing" textLength="26" x="491" y="1010.3672">toDoList</text><text fill="#000000" font-family="sans-serif" font-size="7" lengthAdjust="spacing" textLength="28" x="490" y="1019.6777">:toDoList</text><rect fill="#E3E3E3" height="25.6211" rx="1.25" ry="1.25" style="stroke:#181818;stroke-width:0.25;" width="33.5" x="526.5" y="999.3135"/><text fill="#000000" font-family="sans-serif" font-size="7" lengthAdjust="spacing" textLength="24" x="531.25" y="1010.3672">agenda</text><text fill="#000000" font-family="sans-serif" font-size="7" lengthAdjust="spacing" textLength="26.5" x="530" y="1019.6777">:Agenda</text><rect fill="#E3E3E3" height="25.6211" rx="1.25" ry="1.25" style="stroke:#181818;stroke-width:0.25;" width="50" x="702.25" y="999.3135"/><text fill="#000000" font-family="sans-serif" font-size="7" lengthAdjust="spacing" textLength="40.5" x="707" y="1010.3672">agendaEntry</text><text fill="#000000" font-family="sans-serif" font-size="7" lengthAdjust="spacing" textLength="43" x="705.75" y="1019.6777">:AgendaEntry</text><rect fill="#E3E3E3" height="16.3105" rx="1.25" ry="1.25" style="stroke:#181818;stroke-width:0.25;" width="61.5" x="770" y="999.3135"/><text fill="#000000" font-family="sans-serif" font-size="7" lengthAdjust="spacing" textLength="54.5" x="773.5" y="1010.3672">:ToDoListMapper</text><rect fill="#E3E3E3" height="25.6211" rx="1.25" ry="1.25" style="stroke:#181818;stroke-width:0.25;" width="73" x="842.75" y="999.3135"/><text fill="#000000" font-family="sans-serif" font-size="7" lengthAdjust="spacing" textLength="30.5" x="864" y="1010.3672">listEntries</text><text fill="#000000" font-family="sans-serif" font-size="7" lengthAdjust="spacing" textLength="66" x="846.25" y="1019.6777">:List&lt;ToDoListEntry&gt;</text><rect fill="#E3E3E3" height="25.6211" rx="1.25" ry="1.25" style="stroke:#181818;stroke-width:0.25;" width="65" x="920.75" y="999.3135"/><text fill="#000000" font-family="sans-serif" font-size="7" lengthAdjust="spacing" textLength="37" x="934.75" y="1010.3672">toDoListDto</text><text fill="#000000" font-family="sans-serif" font-size="7" lengthAdjust="spacing" textLength="58" x="924.25" y="1019.6777">:List&lt;toDoListDto&gt;</text><rect fill="#E3E3E3" height="25.6211" rx="1.25" ry="1.25" style="stroke:#181818;stroke-width:0.25;" width="65" x="990.75" y="999.3135"/><text fill="#000000" font-family="sans-serif" font-size="7" lengthAdjust="spacing" textLength="20.5" x="1013" y="1010.3672">objDto</text><text fill="#000000" font-family="sans-serif" font-size="7" lengthAdjust="spacing" textLength="58" x="994.25" y="1019.6777">:ToDoListEntryDto</text><rect fill="#FFFFFF" height="934.6924" style="stroke:#181818;stroke-width:0.5;" width="5" x="24.25" y="56.1211"/><rect fill="#FFFFFF" height="489.3945" style="stroke:#181818;stroke-width:0.5;" width="5" x="168.25" y="67.7666"/><rect fill="#FFFFFF" height="278.3428" style="stroke:#181818;stroke-width:0.5;" width="5" x="168.25" y="581.4521"/><rect fill="#FFFFFF" height="115.373" style="stroke:#181818;stroke-width:0.5;" width="5" x="168.25" y="875.4404"/><rect fill="#FFFFFF" height="419.002" style="stroke:#181818;stroke-width:0.5;" width="5" x="327.25" y="105.2227"/><rect fill="#FFFFFF" height="398.2158" style="stroke:#181818;stroke-width:0.5;" width="5" x="327.25" y="597.0977"/><rect fill="#FFFFFF" height="84.082" style="stroke:#181818;stroke-width:0.5;" width="5" x="329.75" y="891.0859"/><rect fill="#FFFFFF" height="15.6455" style="stroke:#181818;stroke-width:0.5;" width="5" x="402.25" y="120.8682"/><rect fill="#FFFFFF" height="15.6455" style="stroke:#181818;stroke-width:0.5;" width="5" x="402.25" y="612.7432"/><rect fill="#FFFFFF" height="15.6455" style="stroke:#181818;stroke-width:0.5;" width="5" x="454.75" y="152.1592"/><rect fill="#FFFFFF" height="15.6455" style="stroke:#181818;stroke-width:0.5;" width="5" x="454.75" y="644.0342"/><rect fill="#FFFFFF" height="109.7031" style="stroke:#181818;stroke-width:0.5;" width="5" x="501.5" y="183.4502"/><rect fill="#FFFFFF" height="148.1787" style="stroke:#181818;stroke-width:0.5;" width="5" x="540.75" y="680.3252"/><rect fill="#FFFFFF" height="52.791" style="stroke:#181818;stroke-width:0.5;" width="5" x="540.75" y="906.7314"/><rect fill="#FFFFFF" height="14" style="stroke:#181818;stroke-width:0.5;" width="5" x="543.25" y="926.377"/><rect fill="#FFFFFF" height="94.4121" style="stroke:#181818;stroke-width:0.5;" width="5" x="724.75" y="711.4463"/><rect fill="#FFFFFF" height="14" style="stroke:#181818;stroke-width:0.5;" width="5" x="727.25" y="741.5674"/><rect fill="#FFFFFF" height="14" style="stroke:#181818;stroke-width:0.5;" width="5" x="727.25" y="791.8584"/><rect fill="#FFFFFF" height="194.7803" style="stroke:#181818;stroke-width:0.5;" width="5" x="798.25" y="313.7988"/><rect fill="#FFFFFF" height="14" style="stroke:#181818;stroke-width:0.5;" width="5" x="800.75" y="410.167"/><rect fill="#FFFFFF" height="73.4121" style="stroke:#181818;stroke-width:0.5;" width="5" x="876.75" y="204.0957"/><rect fill="#FFFFFF" height="15" style="stroke:#181818;stroke-width:0.5;" width="5" x="879.25" y="243.3623"/><rect fill="#FFFFFF" height="15.6455" style="stroke:#181818;stroke-width:0.5;" width="5" x="876.75" y="374.876"/><rect fill="#FFFFFF" height="15" style="stroke:#181818;stroke-width:0.5;" width="5" x="950.75" y="474.4336"/><polygon fill="#181818" points="162.25,65.7666,167.25,67.7666,162.25,69.7666,164.25,67.7666" style="stroke:#181818;stroke-width:0.5;"/><line style="stroke:#181818;stroke-width:0.5;" x1="29.25" x2="165.25" y1="67.7666" y2="67.7666"/><text fill="#000000" font-family="sans-serif" font-size="6.5" font-weight="bold" lengthAdjust="spacing" textLength="3.5" x="32.75" y="65.1353">1</text><text fill="#000000" font-family="sans-serif" font-size="6.5" lengthAdjust="spacing" textLength="111" x="38.25" y="65.1353">asks to add a new entry to the agenda</text><polygon fill="#181818" points="277,81.4121,282,83.4121,277,85.4121,279,83.4121" style="stroke:#181818;stroke-width:0.5;"/><line style="stroke:#181818;stroke-width:0.5;" x1="173.25" x2="280" y1="83.4121" y2="83.4121"/><text fill="#000000" font-family="sans-serif" font-size="6.5" font-weight="bold" lengthAdjust="spacing" textLength="3.5" x="176.75" y="80.7808">2</text><text fill="#000000" font-family="sans-serif" font-size="6.5" lengthAdjust="spacing" textLength="10.5" x="182.25" y="80.7808">add</text><rect fill="#E3E3E3" height="16.3105" rx="1.25" ry="1.25" style="stroke:#181818;stroke-width:0.25;" width="93.5" x="283" y="71.7666"/><text fill="#000000" font-family="sans-serif" font-size="7" lengthAdjust="spacing" textLength="86.5" x="286.5" y="82.8203">:AddAgendaEntryController</text><polygon fill="#181818" points="321.25,103.2227,326.25,105.2227,321.25,107.2227,323.25,105.2227" style="stroke:#181818;stroke-width:0.5;"/><line style="stroke:#181818;stroke-width:0.5;" x1="173.25" x2="324.25" y1="105.2227" y2="105.2227"/><text fill="#000000" font-family="sans-serif" font-size="6.5" font-weight="bold" lengthAdjust="spacing" textLength="3.5" x="176.75" y="102.5913">3</text><text fill="#000000" font-family="sans-serif" font-size="6.5" lengthAdjust="spacing" textLength="59" x="182.25" y="102.5913">getToDoListEntries()</text><polygon fill="#181818" points="396.25,118.8682,401.25,120.8682,396.25,122.8682,398.25,120.8682" style="stroke:#181818;stroke-width:0.5;"/><line style="stroke:#181818;stroke-width:0.5;" x1="332.25" x2="399.25" y1="120.8682" y2="120.8682"/><text fill="#000000" font-family="sans-serif" font-size="6.5" font-weight="bold" lengthAdjust="spacing" textLength="3.5" x="335.75" y="118.2368">4</text><text fill="#000000" font-family="sans-serif" font-size="6.5" lengthAdjust="spacing" textLength="37.5" x="341.25" y="118.2368">getInstance()</text><polygon fill="#181818" points="337.75,134.5137,332.75,136.5137,337.75,138.5137,335.75,136.5137" style="stroke:#181818;stroke-width:0.5;"/><line style="stroke:#181818;stroke-width:0.5;stroke-dasharray:2.0,2.0;" x1="334.75" x2="404.25" y1="136.5137" y2="136.5137"/><text fill="#000000" font-family="sans-serif" font-size="6.5" font-weight="bold" lengthAdjust="spacing" textLength="3.5" x="340.75" y="133.8823">5</text><text fill="#000000" font-family="sans-serif" font-size="6.5" lengthAdjust="spacing" textLength="33.5" x="346.25" y="133.8823">repositories</text><polygon fill="#181818" points="448.75,150.1592,453.75,152.1592,448.75,154.1592,450.75,152.1592" style="stroke:#181818;stroke-width:0.5;"/><line style="stroke:#181818;stroke-width:0.5;" x1="332.25" x2="451.75" y1="152.1592" y2="152.1592"/><text fill="#000000" font-family="sans-serif" font-size="6.5" font-weight="bold" lengthAdjust="spacing" textLength="3.5" x="335.75" y="149.5278">6</text><text fill="#000000" font-family="sans-serif" font-size="6.5" lengthAdjust="spacing" textLength="38.5" x="341.25" y="149.5278">getToDoList()</text><polygon fill="#181818" points="337.75,165.8047,332.75,167.8047,337.75,169.8047,335.75,167.8047" style="stroke:#181818;stroke-width:0.5;"/><line style="stroke:#181818;stroke-width:0.5;stroke-dasharray:2.0,2.0;" x1="334.75" x2="456.75" y1="167.8047" y2="167.8047"/><text fill="#000000" font-family="sans-serif" font-size="6.5" font-weight="bold" lengthAdjust="spacing" textLength="3.5" x="340.75" y="165.1733">7</text><text fill="#000000" font-family="sans-serif" font-size="6.5" lengthAdjust="spacing" textLength="24" x="346.25" y="165.1733">toDoList</text><polygon fill="#181818" points="495.5,181.4502,500.5,183.4502,495.5,185.4502,497.5,183.4502" style="stroke:#181818;stroke-width:0.5;"/><line style="stroke:#181818;stroke-width:0.5;" x1="332.25" x2="498.5" y1="183.4502" y2="183.4502"/><text fill="#000000" font-family="sans-serif" font-size="6.5" font-weight="bold" lengthAdjust="spacing" textLength="3.5" x="335.75" y="180.8188">8</text><text fill="#000000" font-family="sans-serif" font-size="6.5" lengthAdjust="spacing" textLength="59" x="341.25" y="180.8188">getToDoListEntries()</text><polygon fill="#181818" points="836.75,197.0957,841.75,199.0957,836.75,201.0957,838.75,199.0957" style="stroke:#181818;stroke-width:0.5;"/><line style="stroke:#181818;stroke-width:0.5;stroke-dasharray:2.0,2.0;" x1="506.5" x2="839.75" y1="199.0957" y2="199.0957"/><text fill="#000000" font-family="sans-serif" font-size="6.5" font-weight="bold" lengthAdjust="spacing" textLength="3.5" x="510" y="196.4644">9</text><text fill="#000000" font-family="sans-serif" font-size="6.5" lengthAdjust="spacing" textLength="22" x="515.5" y="196.4644">create()</text><rect fill="#E3E3E3" height="25.6211" rx="1.25" ry="1.25" style="stroke:#181818;stroke-width:0.25;" width="73" x="842.75" y="187.4502"/><text fill="#000000" font-family="sans-serif" font-size="7" lengthAdjust="spacing" textLength="30.5" x="864" y="198.5039">listEntries</text><text fill="#000000" font-family="sans-serif" font-size="7" lengthAdjust="spacing" textLength="66" x="846.25" y="207.8145">:List&lt;ToDoListEntry&gt;</text><path d="M481.5,222.0713 L518,222.0713 L518,226.7168 L513,231.7168 L481.5,231.7168 L481.5,222.0713 " fill="#EEEEEE" style="stroke:#000000;stroke-width:0.75;"/><rect fill="none" height="40.291" style="stroke:#000000;stroke-width:0.75;" width="439.25" x="481.5" y="222.0713"/><text fill="#000000" font-family="sans-serif" font-size="6.5" font-weight="bold" lengthAdjust="spacing" textLength="14" x="489" y="229.5854">loop</text><text fill="#000000" font-family="sans-serif" font-size="5.5" font-weight="bold" lengthAdjust="spacing" textLength="65" x="525.5" y="229.0063">[for each toDoListEntry]</text><polygon fill="#181818" points="873.25,241.3623,878.25,243.3623,873.25,245.3623,875.25,243.3623" style="stroke:#181818;stroke-width:0.5;"/><line style="stroke:#181818;stroke-width:0.5;" x1="506.5" x2="876.25" y1="243.3623" y2="243.3623"/><text fill="#000000" font-family="sans-serif" font-size="6.5" font-weight="bold" lengthAdjust="spacing" textLength="7" x="510" y="240.731">10</text><text fill="#000000" font-family="sans-serif" font-size="6.5" lengthAdjust="spacing" textLength="54" x="519" y="240.731">add(toDoListEntry)</text><polygon fill="#181818" points="512,275.5078,507,277.5078,512,279.5078,510,277.5078" style="stroke:#181818;stroke-width:0.5;"/><line style="stroke:#181818;stroke-width:0.5;stroke-dasharray:2.0,2.0;" x1="509" x2="878.75" y1="277.5078" y2="277.5078"/><text fill="#000000" font-family="sans-serif" font-size="6.5" font-weight="bold" lengthAdjust="spacing" textLength="7" x="515" y="274.8765">11</text><text fill="#000000" font-family="sans-serif" font-size="6.5" lengthAdjust="spacing" textLength="29" x="524" y="274.8765">listEntries</text><polygon fill="#181818" points="337.75,291.1533,332.75,293.1533,337.75,295.1533,335.75,293.1533" style="stroke:#181818;stroke-width:0.5;"/><line style="stroke:#181818;stroke-width:0.5;stroke-dasharray:2.0,2.0;" x1="334.75" x2="503.5" y1="293.1533" y2="293.1533"/><text fill="#000000" font-family="sans-serif" font-size="6.5" font-weight="bold" lengthAdjust="spacing" textLength="7" x="340.75" y="290.522">12</text><text fill="#000000" font-family="sans-serif" font-size="6.5" lengthAdjust="spacing" textLength="29" x="349.75" y="290.522">listEntries</text><polygon fill="#181818" points="764,306.7988,769,308.7988,764,310.7988,766,308.7988" style="stroke:#181818;stroke-width:0.5;"/><line style="stroke:#181818;stroke-width:0.5;" x1="332.25" x2="767" y1="308.7988" y2="308.7988"/><text fill="#000000" font-family="sans-serif" font-size="6.5" font-weight="bold" lengthAdjust="spacing" textLength="7" x="335.75" y="306.1675">13</text><text fill="#000000" font-family="sans-serif" font-size="6.5" lengthAdjust="spacing" textLength="94.5" x="344.75" y="306.1675">toDoListEntriesToDto(listEntries)</text><rect fill="#E3E3E3" height="16.3105" rx="1.25" ry="1.25" style="stroke:#181818;stroke-width:0.25;" width="61.5" x="770" y="297.1533"/><text fill="#000000" font-family="sans-serif" font-size="7" lengthAdjust="spacing" textLength="54.5" x="773.5" y="308.207">:ToDoListMapper</text><polygon fill="#181818" points="914.75,328.6094,919.75,330.6094,914.75,332.6094,916.75,330.6094" style="stroke:#181818;stroke-width:0.5;"/><line style="stroke:#181818;stroke-width:0.5;stroke-dasharray:2.0,2.0;" x1="803.25" x2="917.75" y1="330.6094" y2="330.6094"/><text fill="#000000" font-family="sans-serif" font-size="6.5" font-weight="bold" lengthAdjust="spacing" textLength="7" x="806.75" y="327.978">14</text><text fill="#000000" font-family="sans-serif" font-size="6.5" lengthAdjust="spacing" textLength="22" x="815.75" y="327.978">create()</text><rect fill="#E3E3E3" height="25.6211" rx="1.25" ry="1.25" style="stroke:#181818;stroke-width:0.25;" width="65" x="920.75" y="318.9639"/><text fill="#000000" font-family="sans-serif" font-size="7" lengthAdjust="spacing" textLength="37" x="934.75" y="330.0176">toDoListDto</text><text fill="#000000" font-family="sans-serif" font-size="7" lengthAdjust="spacing" textLength="58" x="924.25" y="339.3281">:List&lt;toDoListDto&gt;</text><path d="M765,353.585 L801.5,353.585 L801.5,358.2305 L796.5,363.2305 L765,363.2305 L765,353.585 " fill="#EEEEEE" style="stroke:#000000;stroke-width:0.75;"/><rect fill="none" height="139.8486" style="stroke:#000000;stroke-width:0.75;" width="295.75" x="765" y="353.585"/><text fill="#000000" font-family="sans-serif" font-size="6.5" font-weight="bold" lengthAdjust="spacing" textLength="14" x="772.5" y="361.0991">loop</text><text fill="#000000" font-family="sans-serif" font-size="5.5" font-weight="bold" lengthAdjust="spacing" textLength="65" x="809" y="360.52">[for each toDoListEntry]</text><polygon fill="#181818" points="870.75,372.876,875.75,374.876,870.75,376.876,872.75,374.876" style="stroke:#181818;stroke-width:0.5;"/><line style="stroke:#181818;stroke-width:0.5;" x1="803.25" x2="873.75" y1="374.876" y2="374.876"/><text fill="#000000" font-family="sans-serif" font-size="6.5" font-weight="bold" lengthAdjust="spacing" textLength="7" x="806.75" y="372.2446">15</text><text fill="#000000" font-family="sans-serif" font-size="6.5" lengthAdjust="spacing" textLength="14.5" x="815.75" y="372.2446">get(i)</text><polygon fill="#181818" points="808.75,388.5215,803.75,390.5215,808.75,392.5215,806.75,390.5215" style="stroke:#181818;stroke-width:0.5;"/><line style="stroke:#181818;stroke-width:0.5;stroke-dasharray:2.0,2.0;" x1="805.75" x2="878.75" y1="390.5215" y2="390.5215"/><text fill="#000000" font-family="sans-serif" font-size="6.5" font-weight="bold" lengthAdjust="spacing" textLength="7" x="811.75" y="387.8901">16</text><text fill="#000000" font-family="sans-serif" font-size="6.5" lengthAdjust="spacing" textLength="8.5" x="820.75" y="387.8901">obj</text><line style="stroke:#181818;stroke-width:0.5;" x1="805.75" x2="826.75" y1="406.167" y2="406.167"/><line style="stroke:#181818;stroke-width:0.5;" x1="826.75" x2="826.75" y1="406.167" y2="412.667"/><line style="stroke:#181818;stroke-width:0.5;" x1="806.25" x2="826.75" y1="412.667" y2="412.667"/><polygon fill="#181818" points="811.25,410.667,806.25,412.667,811.25,414.667,809.25,412.667" style="stroke:#181818;stroke-width:0.5;"/><text fill="#000000" font-family="sans-serif" font-size="6.5" font-weight="bold" lengthAdjust="spacing" textLength="7" x="809.25" y="403.5356">17</text><text fill="#000000" font-family="sans-serif" font-size="6.5" lengthAdjust="spacing" textLength="57.5" x="818.25" y="403.5356">objDto = toDTO(obj)</text><polygon fill="#181818" points="984.75,441.3125,989.75,443.3125,984.75,445.3125,986.75,443.3125" style="stroke:#181818;stroke-width:0.5;"/><line style="stroke:#181818;stroke-width:0.5;stroke-dasharray:2.0,2.0;" x1="803.25" x2="987.75" y1="443.3125" y2="443.3125"/><text fill="#000000" font-family="sans-serif" font-size="6.5" font-weight="bold" lengthAdjust="spacing" textLength="7" x="806.75" y="440.6812">18</text><text fill="#000000" font-family="sans-serif" font-size="6.5" lengthAdjust="spacing" textLength="22" x="815.75" y="440.6812">create()</text><rect fill="#E3E3E3" height="25.6211" rx="1.25" ry="1.25" style="stroke:#181818;stroke-width:0.25;" width="65" x="990.75" y="431.667"/><text fill="#000000" font-family="sans-serif" font-size="7" lengthAdjust="spacing" textLength="20.5" x="1013" y="442.7207">objDto</text><text fill="#000000" font-family="sans-serif" font-size="7" lengthAdjust="spacing" textLength="58" x="994.25" y="452.0313">:ToDoListEntryDto</text><polygon fill="#181818" points="944.75,472.4336,949.75,474.4336,944.75,476.4336,946.75,474.4336" style="stroke:#181818;stroke-width:0.5;"/><line style="stroke:#181818;stroke-width:0.5;" x1="803.25" x2="947.75" y1="474.4336" y2="474.4336"/><text fill="#000000" font-family="sans-serif" font-size="6.5" font-weight="bold" lengthAdjust="spacing" textLength="7" x="806.75" y="471.8022">19</text><text fill="#000000" font-family="sans-serif" font-size="6.5" lengthAdjust="spacing" textLength="33" x="815.75" y="471.8022">add(objDto)</text><polygon fill="#181818" points="337.75,506.5791,332.75,508.5791,337.75,510.5791,335.75,508.5791" style="stroke:#181818;stroke-width:0.5;"/><line style="stroke:#181818;stroke-width:0.5;stroke-dasharray:2.0,2.0;" x1="334.75" x2="800.25" y1="508.5791" y2="508.5791"/><text fill="#000000" font-family="sans-serif" font-size="6.5" font-weight="bold" lengthAdjust="spacing" textLength="7" x="340.75" y="505.9478">20</text><text fill="#000000" font-family="sans-serif" font-size="6.5" lengthAdjust="spacing" textLength="34" x="349.75" y="505.9478">toDoListDto</text><polygon fill="#181818" points="178.75,522.2246,173.75,524.2246,178.75,526.2246,176.75,524.2246" style="stroke:#181818;stroke-width:0.5;"/><line style="stroke:#181818;stroke-width:0.5;stroke-dasharray:2.0,2.0;" x1="175.75" x2="329.25" y1="524.2246" y2="524.2246"/><text fill="#000000" font-family="sans-serif" font-size="6.5" font-weight="bold" lengthAdjust="spacing" textLength="7" x="181.75" y="521.5933">21</text><text fill="#000000" font-family="sans-serif" font-size="6.5" lengthAdjust="spacing" textLength="34" x="190.75" y="521.5933">toDoListDto</text><polygon fill="#181818" points="34.75,555.1611,29.75,557.1611,34.75,559.1611,32.75,557.1611" style="stroke:#181818;stroke-width:0.5;"/><line style="stroke:#181818;stroke-width:0.5;stroke-dasharray:2.0,2.0;" x1="31.75" x2="170.25" y1="557.1611" y2="557.1611"/><text fill="#000000" font-family="sans-serif" font-size="6.5" font-weight="bold" lengthAdjust="spacing" textLength="7" x="37.75" y="545.8843">22</text><text fill="#000000" font-family="sans-serif" font-size="6.5" lengthAdjust="spacing" textLength="104.5" x="46.75" y="537.2388">shows all the tasks registered in the</text><text fill="#000000" font-family="sans-serif" font-size="6.5" lengthAdjust="spacing" textLength="108.5" x="46.75" y="545.8843">To-Do List and asks you to select the</text><text fill="#000000" font-family="sans-serif" font-size="6.5" lengthAdjust="spacing" textLength="58.5" x="46.75" y="554.5298">one you want to add</text><polygon fill="#181818" points="162.25,579.4521,167.25,581.4521,162.25,583.4521,164.25,581.4521" style="stroke:#181818;stroke-width:0.5;"/><line style="stroke:#181818;stroke-width:0.5;" x1="29.25" x2="165.25" y1="581.4521" y2="581.4521"/><text fill="#000000" font-family="sans-serif" font-size="6.5" font-weight="bold" lengthAdjust="spacing" textLength="7" x="32.75" y="574.498">23</text><text fill="#000000" font-family="sans-serif" font-size="6.5" lengthAdjust="spacing" textLength="115" x="41.75" y="570.1753">select the desired task and its start and</text><text fill="#000000" font-family="sans-serif" font-size="6.5" lengthAdjust="spacing" textLength="25" x="43.75" y="578.8208">end date</text><polygon fill="#181818" points="321.25,595.0977,326.25,597.0977,321.25,599.0977,323.25,597.0977" style="stroke:#181818;stroke-width:0.5;"/><line style="stroke:#181818;stroke-width:0.5;" x1="173.25" x2="324.25" y1="597.0977" y2="597.0977"/><text fill="#000000" font-family="sans-serif" font-size="6.5" font-weight="bold" lengthAdjust="spacing" textLength="7" x="176.75" y="594.4663">24</text><text fill="#000000" font-family="sans-serif" font-size="6.5" lengthAdjust="spacing" textLength="135.5" x="185.75" y="594.4663">createEntry(toDoListEntry, startDate, endDate)</text><polygon fill="#181818" points="396.25,610.7432,401.25,612.7432,396.25,614.7432,398.25,612.7432" style="stroke:#181818;stroke-width:0.5;"/><line style="stroke:#181818;stroke-width:0.5;" x1="332.25" x2="399.25" y1="612.7432" y2="612.7432"/><text fill="#000000" font-family="sans-serif" font-size="6.5" font-weight="bold" lengthAdjust="spacing" textLength="7" x="335.75" y="610.1118">25</text><text fill="#000000" font-family="sans-serif" font-size="6.5" lengthAdjust="spacing" textLength="37.5" x="344.75" y="610.1118">getInstance()</text><polygon fill="#181818" points="337.75,626.3887,332.75,628.3887,337.75,630.3887,335.75,628.3887" style="stroke:#181818;stroke-width:0.5;"/><line style="stroke:#181818;stroke-width:0.5;stroke-dasharray:2.0,2.0;" x1="334.75" x2="404.25" y1="628.3887" y2="628.3887"/><text fill="#000000" font-family="sans-serif" font-size="6.5" font-weight="bold" lengthAdjust="spacing" textLength="7" x="340.75" y="625.7573">26</text><text fill="#000000" font-family="sans-serif" font-size="6.5" lengthAdjust="spacing" textLength="33.5" x="349.75" y="625.7573">repositories</text><polygon fill="#181818" points="448.75,642.0342,453.75,644.0342,448.75,646.0342,450.75,644.0342" style="stroke:#181818;stroke-width:0.5;"/><line style="stroke:#181818;stroke-width:0.5;" x1="332.25" x2="451.75" y1="644.0342" y2="644.0342"/><text fill="#000000" font-family="sans-serif" font-size="6.5" font-weight="bold" lengthAdjust="spacing" textLength="7" x="335.75" y="641.4028">27</text><text fill="#000000" font-family="sans-serif" font-size="6.5" lengthAdjust="spacing" textLength="35" x="344.75" y="641.4028">getAgenda()</text><polygon fill="#181818" points="337.75,657.6797,332.75,659.6797,337.75,661.6797,335.75,659.6797" style="stroke:#181818;stroke-width:0.5;"/><line style="stroke:#181818;stroke-width:0.5;stroke-dasharray:2.0,2.0;" x1="334.75" x2="456.75" y1="659.6797" y2="659.6797"/><text fill="#000000" font-family="sans-serif" font-size="6.5" font-weight="bold" lengthAdjust="spacing" textLength="7" x="340.75" y="657.0483">28</text><text fill="#000000" font-family="sans-serif" font-size="6.5" lengthAdjust="spacing" textLength="21" x="349.75" y="657.0483">agenda</text><polygon fill="#181818" points="520.5,673.3252,525.5,675.3252,520.5,677.3252,522.5,675.3252" style="stroke:#181818;stroke-width:0.5;"/><line style="stroke:#181818;stroke-width:0.5;" x1="332.25" x2="523.5" y1="675.3252" y2="675.3252"/><text fill="#000000" font-family="sans-serif" font-size="6.5" font-weight="bold" lengthAdjust="spacing" textLength="7" x="335.75" y="672.6938">29</text><text fill="#000000" font-family="sans-serif" font-size="6.5" lengthAdjust="spacing" textLength="135.5" x="344.75" y="672.6938">createEntry(toDoListEntry, startDate, endDate)</text><rect fill="#E3E3E3" height="25.6211" rx="1.25" ry="1.25" style="stroke:#181818;stroke-width:0.25;" width="33.5" x="526.5" y="663.6797"/><text fill="#000000" font-family="sans-serif" font-size="7" lengthAdjust="spacing" textLength="24" x="531.25" y="674.7334">agenda</text><text fill="#000000" font-family="sans-serif" font-size="7" lengthAdjust="spacing" textLength="26.5" x="530" y="684.0439">:Agenda</text><polygon fill="#181818" points="696.25,704.4463,701.25,706.4463,696.25,708.4463,698.25,706.4463" style="stroke:#181818;stroke-width:0.5;"/><line style="stroke:#181818;stroke-width:0.5;" x1="545.75" x2="699.25" y1="706.4463" y2="706.4463"/><text fill="#000000" font-family="sans-serif" font-size="6.5" font-weight="bold" lengthAdjust="spacing" textLength="7" x="549.25" y="703.8149">30</text><text fill="#000000" font-family="sans-serif" font-size="6.5" lengthAdjust="spacing" textLength="135.5" x="558.25" y="703.8149">createEntry(toDoListEntry, startDate, endDate)</text><rect fill="#E3E3E3" height="25.6211" rx="1.25" ry="1.25" style="stroke:#181818;stroke-width:0.25;" width="50" x="702.25" y="694.8008"/><text fill="#000000" font-family="sans-serif" font-size="7" lengthAdjust="spacing" textLength="40.5" x="707" y="705.8545">agendaEntry</text><text fill="#000000" font-family="sans-serif" font-size="7" lengthAdjust="spacing" textLength="43" x="705.75" y="715.165">:AgendaEntry</text><line style="stroke:#181818;stroke-width:0.5;" x1="732.25" x2="753.25" y1="737.5674" y2="737.5674"/><line style="stroke:#181818;stroke-width:0.5;" x1="753.25" x2="753.25" y1="737.5674" y2="744.0674"/><line style="stroke:#181818;stroke-width:0.5;" x1="732.75" x2="753.25" y1="744.0674" y2="744.0674"/><polygon fill="#181818" points="737.75,742.0674,732.75,744.0674,737.75,746.0674,735.75,744.0674" style="stroke:#181818;stroke-width:0.5;"/><text fill="#000000" font-family="sans-serif" font-size="6.5" font-weight="bold" lengthAdjust="spacing" textLength="7" x="735.75" y="734.936">31</text><text fill="#000000" font-family="sans-serif" font-size="6.5" lengthAdjust="spacing" textLength="52.5" x="744.75" y="734.936">b = validateEntry()</text><path d="M697.25,766.5674 L729.75,766.5674 L729.75,771.2129 L724.75,776.2129 L697.25,776.2129 L697.25,766.5674 " fill="#EEEEEE" style="stroke:#000000;stroke-width:0.75;"/><rect fill="none" height="46.791" style="stroke:#000000;stroke-width:0.75;" width="97" x="697.25" y="766.5674"/><text fill="#000000" font-family="sans-serif" font-size="6.5" font-weight="bold" lengthAdjust="spacing" textLength="10" x="704.75" y="774.0815">opt</text><text fill="#000000" font-family="sans-serif" font-size="5.5" font-weight="bold" lengthAdjust="spacing" textLength="28" x="737.25" y="773.5024">[b == true]</text><line style="stroke:#181818;stroke-width:0.5;" x1="732.25" x2="753.25" y1="787.8584" y2="787.8584"/><line style="stroke:#181818;stroke-width:0.5;" x1="753.25" x2="753.25" y1="787.8584" y2="794.3584"/><line style="stroke:#181818;stroke-width:0.5;" x1="732.75" x2="753.25" y1="794.3584" y2="794.3584"/><polygon fill="#181818" points="737.75,792.3584,732.75,794.3584,737.75,796.3584,735.75,794.3584" style="stroke:#181818;stroke-width:0.5;"/><text fill="#000000" font-family="sans-serif" font-size="6.5" font-weight="bold" lengthAdjust="spacing" textLength="7" x="735.75" y="785.2271">32</text><text fill="#000000" font-family="sans-serif" font-size="6.5" lengthAdjust="spacing" textLength="43.5" x="744.75" y="785.2271">taskSchedule()</text><polygon fill="#181818" points="337.75,826.5039,332.75,828.5039,337.75,830.5039,335.75,828.5039" style="stroke:#181818;stroke-width:0.5;"/><line style="stroke:#181818;stroke-width:0.5;stroke-dasharray:2.0,2.0;" x1="334.75" x2="542.75" y1="828.5039" y2="828.5039"/><text fill="#000000" font-family="sans-serif" font-size="6.5" font-weight="bold" lengthAdjust="spacing" textLength="7" x="340.75" y="825.8726">33</text><text fill="#000000" font-family="sans-serif" font-size="6.5" lengthAdjust="spacing" textLength="36.5" x="349.75" y="825.8726">agendaEntry</text><polygon fill="#181818" points="178.75,842.1494,173.75,844.1494,178.75,846.1494,176.75,844.1494" style="stroke:#181818;stroke-width:0.5;"/><line style="stroke:#181818;stroke-width:0.5;stroke-dasharray:2.0,2.0;" x1="175.75" x2="326.75" y1="844.1494" y2="844.1494"/><text fill="#000000" font-family="sans-serif" font-size="6.5" font-weight="bold" lengthAdjust="spacing" textLength="7" x="181.75" y="841.5181">34</text><text fill="#000000" font-family="sans-serif" font-size="6.5" lengthAdjust="spacing" textLength="36.5" x="190.75" y="841.5181">agendaEntry</text><polygon fill="#181818" points="34.75,857.7949,29.75,859.7949,34.75,861.7949,32.75,859.7949" style="stroke:#181818;stroke-width:0.5;"/><line style="stroke:#181818;stroke-width:0.5;stroke-dasharray:2.0,2.0;" x1="31.75" x2="170.25" y1="859.7949" y2="859.7949"/><text fill="#000000" font-family="sans-serif" font-size="6.5" font-weight="bold" lengthAdjust="spacing" textLength="7" x="37.75" y="857.1636">35</text><text fill="#000000" font-family="sans-serif" font-size="6.5" lengthAdjust="spacing" textLength="118" x="46.75" y="857.1636">shows all data and requests confirmation</text><polygon fill="#181818" points="162.25,873.4404,167.25,875.4404,162.25,877.4404,164.25,875.4404" style="stroke:#181818;stroke-width:0.5;"/><line style="stroke:#181818;stroke-width:0.5;" x1="29.25" x2="165.25" y1="875.4404" y2="875.4404"/><text fill="#000000" font-family="sans-serif" font-size="6.5" font-weight="bold" lengthAdjust="spacing" textLength="7" x="32.75" y="872.8091">36</text><text fill="#000000" font-family="sans-serif" font-size="6.5" lengthAdjust="spacing" textLength="39" x="41.75" y="872.8091">confirms data</text><polygon fill="#181818" points="323.75,889.0859,328.75,891.0859,323.75,893.0859,325.75,891.0859" style="stroke:#181818;stroke-width:0.5;"/><line style="stroke:#181818;stroke-width:0.5;" x1="173.25" x2="326.75" y1="891.0859" y2="891.0859"/><text fill="#000000" font-family="sans-serif" font-size="6.5" font-weight="bold" lengthAdjust="spacing" textLength="7" x="176.75" y="888.4546">37</text><text fill="#000000" font-family="sans-serif" font-size="6.5" lengthAdjust="spacing" textLength="52" x="185.75" y="888.4546">addAgendaEntry()</text><polygon fill="#181818" points="534.75,904.7314,539.75,906.7314,534.75,908.7314,536.75,906.7314" style="stroke:#181818;stroke-width:0.5;"/><line style="stroke:#181818;stroke-width:0.5;" x1="334.75" x2="537.75" y1="906.7314" y2="906.7314"/><text fill="#000000" font-family="sans-serif" font-size="6.5" font-weight="bold" lengthAdjust="spacing" textLength="7" x="338.25" y="904.1001">38</text><text fill="#000000" font-family="sans-serif" font-size="6.5" lengthAdjust="spacing" textLength="88.5" x="347.25" y="904.1001">addAgendaEntry(agendaEntry)</text><line style="stroke:#181818;stroke-width:0.5;" x1="548.25" x2="569.25" y1="922.377" y2="922.377"/><line style="stroke:#181818;stroke-width:0.5;" x1="569.25" x2="569.25" y1="922.377" y2="928.877"/><line style="stroke:#181818;stroke-width:0.5;" x1="548.75" x2="569.25" y1="928.877" y2="928.877"/><polygon fill="#181818" points="553.75,926.877,548.75,928.877,553.75,930.877,551.75,928.877" style="stroke:#181818;stroke-width:0.5;"/><text fill="#000000" font-family="sans-serif" font-size="6.5" font-weight="bold" lengthAdjust="spacing" textLength="7" x="551.75" y="919.7456">39</text><text fill="#000000" font-family="sans-serif" font-size="6.5" lengthAdjust="spacing" textLength="41" x="560.75" y="919.7456">validateEntry()</text><polygon fill="#181818" points="340.25,957.5225,335.25,959.5225,340.25,961.5225,338.25,959.5225" style="stroke:#181818;stroke-width:0.5;"/><line style="stroke:#181818;stroke-width:0.5;stroke-dasharray:2.0,2.0;" x1="337.25" x2="542.75" y1="959.5225" y2="959.5225"/><text fill="#000000" font-family="sans-serif" font-size="6.5" font-weight="bold" lengthAdjust="spacing" textLength="7" x="343.25" y="956.8911">40</text><text fill="#000000" font-family="sans-serif" font-size="6.5" lengthAdjust="spacing" textLength="53" x="352.25" y="956.8911">operation success</text><polygon fill="#181818" points="178.75,973.168,173.75,975.168,178.75,977.168,176.75,975.168" style="stroke:#181818;stroke-width:0.5;"/><line style="stroke:#181818;stroke-width:0.5;stroke-dasharray:2.0,2.0;" x1="175.75" x2="326.75" y1="975.168" y2="975.168"/><text fill="#000000" font-family="sans-serif" font-size="6.5" font-weight="bold" lengthAdjust="spacing" textLength="7" x="181.75" y="972.5366">41</text><text fill="#000000" font-family="sans-serif" font-size="6.5" lengthAdjust="spacing" textLength="53" x="190.75" y="972.5366">operation success</text><polygon fill="#181818" points="32.25,988.8135,27.25,990.8135,32.25,992.8135,30.25,990.8135" style="stroke:#181818;stroke-width:0.5;"/><line style="stroke:#181818;stroke-width:0.5;stroke-dasharray:2.0,2.0;" x1="29.25" x2="170.25" y1="990.8135" y2="990.8135"/><text fill="#000000" font-family="sans-serif" font-size="6.5" font-weight="bold" lengthAdjust="spacing" textLength="7" x="35.25" y="988.1821">42</text><text fill="#000000" font-family="sans-serif" font-size="6.5" lengthAdjust="spacing" textLength="79" x="44.25" y="988.1821">displays operation success</text><!--SRC=[jLVRJkCm47tFLrYyR47m0zM2LD4ALU9IjULX9LvCFBHUKZjhkx3y_Oxj9DXfRWLj7gh6dZbpndFnHBzoaLD5TsGdXKotIkw06BM7H5SxEKrVwGPMvYC3eY0rL6ooK41lAPFlN6p82yqq90dT6odsksTGIV9ZoncG5odDi_oRqDH8HKvk580WAqG6_IJ87HLeG9qGgidDwYv1MCDJdbDXoCbumjXa0uBHcJ3gut7kn1xddLBN4dzbbXMWr-lbRII_X5ngZbmuw1X81JjFOXmAEgZbR14h63cLjrmR52x_Ei7rm_JXThvQnzBKSKHPJzP9JcvczzD9avppfH9sRu76x7wz_5KxXdL1uOxcUU5yIUHkibZCbh5yXg8MrZjh5N-M2CxQbKEmsjROVBPgzdrgPAaUB5r5vgVhXrXPFl_sUf55N8hKd9DMr-OEVwC6N8ea11_yGowkC1V865LUDJ6IKCO89GBU2LWuksIsGFnvEgqA1tF8BTW7CH39vidPcKLZh6aFTpPWGhvuSAFJIhA2TWbNBUFZj14bp2S7DXSQ2og502K4YX8rb71Fk4ik2f9Z4kPmgCEW7xSYEbj4phRnmt8uf3LR16pAZ6XZKaSe6PGPq7Ve4P-gwWv8sQU2jEo2h7OnJnKWGWtum41O2usIzicapB7dAO9kRgi3SFdTgXFpY-ZvX1n5EAUTG8rqknI2W0nHmM9gzpvaVX47CkWtoH4q3cr5aInAimqy06rEZth6-KxfaiB4QOTPQEGeCDIJXaNFRQNlzwDJmbuNfsFotUog6wld5bRNY7ytxTk2NXWT4sptHuLyc2TDPZ14vDAUo_fXXAyzdjL2rKEnBx0zmIrlivu8T_kA-aL7yCuETD1UeWEzS_Vje9flyBMenc0GIBvmcBucozkz2Im0YgzRUr-Z8au7OvnDvRicDClS563SbA1WWr2WW14ktFgJMCkBgIJM1A62-MdYG-xj-A0Xmw6ta9C2tFgx7M7yk97Ko9HZHJMTZ4C81ffRovQACyMD9ZW2A6SOXs4yPi8GPyYiKYMHA_xuWZZtg5FSFRUWzi-GIUNOKUK_pIg3XfM3QSKFogq4-uULO4uyPbRn0tbGrKS7929QV14SSFNhdmPTE_ckrGRB_ikYnRpRh7501i_OSzzenbd5Ow2PZdxKoKRcnXgzzD-hHt6rnRTAjy3s6Oo-UXf3URR83MglPS0_wptuCEotrDLIGw2UreaXfQvNAVYp1uqDAvNYXQiTDLoA0Vsl4DSEQM1Zez47_UYerbKSsm58uFCHbLUlEiJjIlHEh9uG7SPRucUyEsQYzsaAMYTVZdWxrA2hb76TP_H3j-3KCY1ujT_h_m00]--></g></svg>