<?xml version="1.0" encoding="us-ascii" standalone="no"?><svg xmlns="http://www.w3.org/2000/svg" xmlns:xlink="http://www.w3.org/1999/xlink" contentStyleType="text/css" height="570.5px" preserveAspectRatio="none" style="width:722px;height:570px;background:#FFFFFF;" version="1.1" viewBox="0 0 722 570" width="722px" zoomAndPan="magnify"><defs/><g><rect fill="#FFFFFF" height="488.4092" style="stroke:#181818;stroke-width:0.5;" width="5" x="78" y="45.2666"/><rect fill="#FFFFFF" height="16.8105" style="stroke:#181818;stroke-width:0.5;" width="5" x="164.25" y="79.0576"/><rect fill="#FFFFFF" height="26.1211" style="stroke:#181818;stroke-width:0.5;" width="5" x="216.75" y="116.5137"/><rect fill="#FFFFFF" height="120.1787" style="stroke:#181818;stroke-width:0.5;" width="5" x="287.5" y="163.2803"/><rect fill="#FFFFFF" height="210.4258" style="stroke:#181818;stroke-width:0.5;" width="5" x="387.5" y="304.1045"/><rect fill="#FFFFFF" height="14" style="stroke:#181818;stroke-width:0.5;" width="5" x="390" y="400.4727"/><rect fill="#FFFFFF" height="73.4121" style="stroke:#181818;stroke-width:0.5;" width="5" x="523.5" y="194.4014"/><rect fill="#FFFFFF" height="15" style="stroke:#181818;stroke-width:0.5;" width="5" x="526" y="233.668"/><rect fill="#FFFFFF" height="15.6455" style="stroke:#181818;stroke-width:0.5;" width="5" x="523.5" y="365.1816"/><rect fill="#FFFFFF" height="15" style="stroke:#181818;stroke-width:0.5;" width="5" x="602" y="480.3848"/><rect fill="#FFFFFF" height="26.1211" style="stroke:#181818;stroke-width:0.5;" width="5" x="676.5" y="438.6182"/><rect fill="none" height="465.7637" style="stroke:#000000;stroke-width:0.75;" width="690.25" x="28.75" y="52.7666"/><rect fill="none" height="40.291" style="stroke:#000000;stroke-width:0.75;" width="321.5" x="243.5" y="212.377"/><rect fill="none" height="155.4941" style="stroke:#000000;stroke-width:0.75;" width="382.5" x="331.5" y="343.8906"/><line style="stroke:#181818;stroke-width:0.25;stroke-dasharray:5.0,5.0;" x1="80.25" x2="80.25" y1="28.6211" y2="542.6758"/><line style="stroke:#181818;stroke-width:0.25;stroke-dasharray:5.0,5.0;" x1="166.5" x2="166.5" y1="78.3174" y2="542.6758"/><line style="stroke:#181818;stroke-width:0.25;stroke-dasharray:5.0,5.0;" x1="219" x2="219" y1="120.4287" y2="542.6758"/><line style="stroke:#181818;stroke-width:0.25;stroke-dasharray:5.0,5.0;" x1="290" x2="290" y1="167.1953" y2="542.6758"/><line style="stroke:#181818;stroke-width:0.25;stroke-dasharray:5.0,5.0;" x1="390" x2="390" y1="303.3643" y2="542.6758"/><line style="stroke:#181818;stroke-width:0.25;stroke-dasharray:5.0,5.0;" x1="526" x2="526" y1="198.3164" y2="542.6758"/><line style="stroke:#181818;stroke-width:0.25;stroke-dasharray:5.0,5.0;" x1="604.5" x2="604.5" y1="329.8301" y2="542.6758"/><line style="stroke:#181818;stroke-width:0.25;stroke-dasharray:5.0,5.0;" x1="679" x2="679" y1="442.5332" y2="542.6758"/><rect fill="#E3E3E3" height="16.3105" rx="1.25" ry="1.25" style="stroke:#181818;stroke-width:0.25;" width="93.5" x="33.75" y="11.8105"/><text fill="#000000" font-family="sans-serif" font-size="7" lengthAdjust="spacing" textLength="86.5" x="37.25" y="22.8643">:AddAgendaEntryController</text><rect fill="#E3E3E3" height="16.3105" rx="1.25" ry="1.25" style="stroke:#181818;stroke-width:0.25;" width="93.5" x="33.75" y="542.1758"/><text fill="#000000" font-family="sans-serif" font-size="7" lengthAdjust="spacing" textLength="86.5" x="37.25" y="553.2295">:AddAgendaEntryController</text><rect fill="#E3E3E3" height="16.3105" rx="1.25" ry="1.25" style="stroke:#181818;stroke-width:0.25;" width="46.5" x="143.5" y="542.1758"/><text fill="#000000" font-family="sans-serif" font-size="7" lengthAdjust="spacing" textLength="39.5" x="147" y="553.2295">Repositories</text><rect fill="#E3E3E3" height="25.6211" rx="1.25" ry="1.25" style="stroke:#181818;stroke-width:0.25;" width="48.5" x="195" y="542.1758"/><text fill="#000000" font-family="sans-serif" font-size="7" lengthAdjust="spacing" textLength="37" x="200.75" y="553.2295">repositories</text><text fill="#000000" font-family="sans-serif" font-size="7" lengthAdjust="spacing" textLength="41.5" x="198.5" y="562.54">:Repositories</text><rect fill="#E3E3E3" height="25.6211" rx="1.25" ry="1.25" style="stroke:#181818;stroke-width:0.25;" width="83" x="248.5" y="542.1758"/><text fill="#000000" font-family="sans-serif" font-size="7" lengthAdjust="spacing" textLength="72.5" x="253.75" y="553.2295">greenSpaceRepository</text><text fill="#000000" font-family="sans-serif" font-size="7" lengthAdjust="spacing" textLength="76" x="252" y="562.54">:GreenSpaceRepository</text><rect fill="#E3E3E3" height="16.3105" rx="1.25" ry="1.25" style="stroke:#181818;stroke-width:0.25;" width="107" x="336.5" y="542.1758"/><text fill="#000000" font-family="sans-serif" font-size="7" lengthAdjust="spacing" textLength="100" x="340" y="553.2295">:GreenSpaceRepositoryMapper</text><rect fill="#E3E3E3" height="25.6211" rx="1.25" ry="1.25" style="stroke:#181818;stroke-width:0.25;" width="68" x="492" y="542.1758"/><text fill="#000000" font-family="sans-serif" font-size="7" lengthAdjust="spacing" textLength="52" x="500" y="553.2295">listGreenSpaces</text><text fill="#000000" font-family="sans-serif" font-size="7" lengthAdjust="spacing" textLength="61" x="495.5" y="562.54">:List&lt;GreenSpace&gt;</text><rect fill="#E3E3E3" height="25.6211" rx="1.25" ry="1.25" style="stroke:#181818;stroke-width:0.25;" width="79" x="565" y="542.1758"/><text fill="#000000" font-family="sans-serif" font-size="7" lengthAdjust="spacing" textLength="63" x="573" y="553.2295">listGreenSpacesDto</text><text fill="#000000" font-family="sans-serif" font-size="7" lengthAdjust="spacing" textLength="72" x="568.5" y="562.54">:List&lt;GreenSpaceDto&gt;</text><rect fill="#E3E3E3" height="25.6211" rx="1.25" ry="1.25" style="stroke:#181818;stroke-width:0.25;" width="60" x="649" y="542.1758"/><text fill="#000000" font-family="sans-serif" font-size="7" lengthAdjust="spacing" textLength="49.5" x="654.25" y="553.2295">greenSpaceDto</text><text fill="#000000" font-family="sans-serif" font-size="7" lengthAdjust="spacing" textLength="53" x="652.5" y="562.54">:GreenSpaceDto</text><rect fill="#FFFFFF" height="488.4092" style="stroke:#181818;stroke-width:0.5;" width="5" x="78" y="45.2666"/><rect fill="#FFFFFF" height="16.8105" style="stroke:#181818;stroke-width:0.5;" width="5" x="164.25" y="79.0576"/><rect fill="#FFFFFF" height="26.1211" style="stroke:#181818;stroke-width:0.5;" width="5" x="216.75" y="116.5137"/><rect fill="#FFFFFF" height="120.1787" style="stroke:#181818;stroke-width:0.5;" width="5" x="287.5" y="163.2803"/><rect fill="#FFFFFF" height="210.4258" style="stroke:#181818;stroke-width:0.5;" width="5" x="387.5" y="304.1045"/><rect fill="#FFFFFF" height="14" style="stroke:#181818;stroke-width:0.5;" width="5" x="390" y="400.4727"/><rect fill="#FFFFFF" height="73.4121" style="stroke:#181818;stroke-width:0.5;" width="5" x="523.5" y="194.4014"/><rect fill="#FFFFFF" height="15" style="stroke:#181818;stroke-width:0.5;" width="5" x="526" y="233.668"/><rect fill="#FFFFFF" height="15.6455" style="stroke:#181818;stroke-width:0.5;" width="5" x="523.5" y="365.1816"/><rect fill="#FFFFFF" height="15" style="stroke:#181818;stroke-width:0.5;" width="5" x="602" y="480.3848"/><rect fill="#FFFFFF" height="26.1211" style="stroke:#181818;stroke-width:0.5;" width="5" x="676.5" y="438.6182"/><polygon fill="#181818" points="72,43.2666,77,45.2666,72,47.2666,74,45.2666" style="stroke:#181818;stroke-width:0.5;"/><line style="stroke:#181818;stroke-width:0.5;" x1="0" x2="75" y1="45.2666" y2="45.2666"/><text fill="#000000" font-family="sans-serif" font-size="6.5" font-weight="bold" lengthAdjust="spacing" textLength="3.5" x="3.5" y="42.6353">3</text><text fill="#000000" font-family="sans-serif" font-size="6.5" lengthAdjust="spacing" textLength="63" x="9" y="42.6353">getListGreenSpaces()</text><path d="M28.75,52.7666 L139.75,52.7666 L139.75,57.4121 L134.75,62.4121 L28.75,62.4121 L28.75,52.7666 " fill="#EEEEEE" style="stroke:#000000;stroke-width:0.75;"/><rect fill="none" height="465.7637" style="stroke:#000000;stroke-width:0.75;" width="690.25" x="28.75" y="52.7666"/><text fill="#000000" font-family="sans-serif" font-size="6.5" font-weight="bold" lengthAdjust="spacing" textLength="88.5" x="36.25" y="60.2808">Get Green Spaces with DTO</text><polygon fill="#181818" points="137.5,72.0576,142.5,74.0576,137.5,76.0576,139.5,74.0576" style="stroke:#181818;stroke-width:0.5;"/><line style="stroke:#181818;stroke-width:0.5;" x1="83" x2="140.5" y1="74.0576" y2="74.0576"/><text fill="#000000" font-family="sans-serif" font-size="6.5" font-weight="bold" lengthAdjust="spacing" textLength="9" x="86.5" y="71.4263">3.1</text><text fill="#000000" font-family="sans-serif" font-size="6.5" lengthAdjust="spacing" textLength="37.5" x="97.5" y="71.4263">getInstance()</text><rect fill="#E3E3E3" height="16.3105" rx="1.25" ry="1.25" style="stroke:#181818;stroke-width:0.25;" width="46.5" x="143.5" y="62.4121"/><text fill="#000000" font-family="sans-serif" font-size="7" lengthAdjust="spacing" textLength="39.5" x="147" y="73.4658">Repositories</text><polygon fill="#181818" points="88.5,93.8682,83.5,95.8682,88.5,97.8682,86.5,95.8682" style="stroke:#181818;stroke-width:0.5;"/><line style="stroke:#181818;stroke-width:0.5;stroke-dasharray:2.0,2.0;" x1="85.5" x2="166.25" y1="95.8682" y2="95.8682"/><text fill="#000000" font-family="sans-serif" font-size="6.5" font-weight="bold" lengthAdjust="spacing" textLength="9" x="91.5" y="93.2368">3.2</text><text fill="#000000" font-family="sans-serif" font-size="6.5" lengthAdjust="spacing" textLength="33.5" x="102.5" y="93.2368">repositories</text><polygon fill="#181818" points="189,109.5137,194,111.5137,189,113.5137,191,111.5137" style="stroke:#181818;stroke-width:0.5;"/><line style="stroke:#181818;stroke-width:0.5;" x1="83" x2="192" y1="111.5137" y2="111.5137"/><text fill="#000000" font-family="sans-serif" font-size="6.5" font-weight="bold" lengthAdjust="spacing" textLength="9" x="86.5" y="108.8823">3.3</text><text fill="#000000" font-family="sans-serif" font-size="6.5" lengthAdjust="spacing" textLength="80" x="97.5" y="108.8823">getGreenSpaceRepository()</text><rect fill="#E3E3E3" height="25.6211" rx="1.25" ry="1.25" style="stroke:#181818;stroke-width:0.25;" width="48.5" x="195" y="99.8682"/><text fill="#000000" font-family="sans-serif" font-size="7" lengthAdjust="spacing" textLength="37" x="200.75" y="110.9219">repositories</text><text fill="#000000" font-family="sans-serif" font-size="7" lengthAdjust="spacing" textLength="41.5" x="198.5" y="120.2324">:Repositories</text><polygon fill="#181818" points="88.5,140.6348,83.5,142.6348,88.5,144.6348,86.5,142.6348" style="stroke:#181818;stroke-width:0.5;"/><line style="stroke:#181818;stroke-width:0.5;stroke-dasharray:2.0,2.0;" x1="85.5" x2="218.75" y1="142.6348" y2="142.6348"/><text fill="#000000" font-family="sans-serif" font-size="6.5" font-weight="bold" lengthAdjust="spacing" textLength="9" x="91.5" y="140.0034">3.4</text><text fill="#000000" font-family="sans-serif" font-size="6.5" lengthAdjust="spacing" textLength="65.5" x="102.5" y="140.0034">greenSpaceRepository</text><polygon fill="#181818" points="242.5,156.2803,247.5,158.2803,242.5,160.2803,244.5,158.2803" style="stroke:#181818;stroke-width:0.5;"/><line style="stroke:#181818;stroke-width:0.5;" x1="83" x2="245.5" y1="158.2803" y2="158.2803"/><text fill="#000000" font-family="sans-serif" font-size="6.5" font-weight="bold" lengthAdjust="spacing" textLength="9" x="86.5" y="155.6489">3.5</text><text fill="#000000" font-family="sans-serif" font-size="6.5" lengthAdjust="spacing" textLength="63" x="97.5" y="155.6489">getListGreenSpaces()</text><rect fill="#E3E3E3" height="25.6211" rx="1.25" ry="1.25" style="stroke:#181818;stroke-width:0.25;" width="83" x="248.5" y="146.6348"/><text fill="#000000" font-family="sans-serif" font-size="7" lengthAdjust="spacing" textLength="72.5" x="253.75" y="157.6885">greenSpaceRepository</text><text fill="#000000" font-family="sans-serif" font-size="7" lengthAdjust="spacing" textLength="76" x="252" y="166.999">:GreenSpaceRepository</text><polygon fill="#181818" points="486,187.4014,491,189.4014,486,191.4014,488,189.4014" style="stroke:#181818;stroke-width:0.5;"/><line style="stroke:#181818;stroke-width:0.5;stroke-dasharray:2.0,2.0;" x1="292.5" x2="489" y1="189.4014" y2="189.4014"/><text fill="#000000" font-family="sans-serif" font-size="6.5" font-weight="bold" lengthAdjust="spacing" textLength="9" x="296" y="186.77">3.6</text><text fill="#000000" font-family="sans-serif" font-size="6.5" lengthAdjust="spacing" textLength="22" x="307" y="186.77">create()</text><rect fill="#E3E3E3" height="25.6211" rx="1.25" ry="1.25" style="stroke:#181818;stroke-width:0.25;" width="68" x="492" y="177.7559"/><text fill="#000000" font-family="sans-serif" font-size="7" lengthAdjust="spacing" textLength="52" x="500" y="188.8096">listGreenSpaces</text><text fill="#000000" font-family="sans-serif" font-size="7" lengthAdjust="spacing" textLength="61" x="495.5" y="198.1201">:List&lt;GreenSpace&gt;</text><path d="M243.5,212.377 L280,212.377 L280,217.0225 L275,222.0225 L243.5,222.0225 L243.5,212.377 " fill="#EEEEEE" style="stroke:#000000;stroke-width:0.75;"/><rect fill="none" height="40.291" style="stroke:#000000;stroke-width:0.75;" width="321.5" x="243.5" y="212.377"/><text fill="#000000" font-family="sans-serif" font-size="6.5" font-weight="bold" lengthAdjust="spacing" textLength="14" x="251" y="219.8911">loop</text><text fill="#000000" font-family="sans-serif" font-size="5.5" font-weight="bold" lengthAdjust="spacing" textLength="61" x="287.5" y="219.312">[for each greenSpace]</text><polygon fill="#181818" points="520,231.668,525,233.668,520,235.668,522,233.668" style="stroke:#181818;stroke-width:0.5;"/><line style="stroke:#181818;stroke-width:0.5;" x1="292.5" x2="523" y1="233.668" y2="233.668"/><text fill="#000000" font-family="sans-serif" font-size="6.5" font-weight="bold" lengthAdjust="spacing" textLength="9" x="296" y="231.0366">3.7</text><text fill="#000000" font-family="sans-serif" font-size="6.5" lengthAdjust="spacing" textLength="49" x="307" y="231.0366">add(greenSpace)</text><polygon fill="#181818" points="298,265.8135,293,267.8135,298,269.8135,296,267.8135" style="stroke:#181818;stroke-width:0.5;"/><line style="stroke:#181818;stroke-width:0.5;stroke-dasharray:2.0,2.0;" x1="295" x2="525.5" y1="267.8135" y2="267.8135"/><text fill="#000000" font-family="sans-serif" font-size="6.5" font-weight="bold" lengthAdjust="spacing" textLength="9" x="301" y="265.1821">3.8</text><text fill="#000000" font-family="sans-serif" font-size="6.5" lengthAdjust="spacing" textLength="48" x="312" y="265.1821">listGreenSpaces</text><polygon fill="#181818" points="88.5,281.459,83.5,283.459,88.5,285.459,86.5,283.459" style="stroke:#181818;stroke-width:0.5;"/><line style="stroke:#181818;stroke-width:0.5;stroke-dasharray:2.0,2.0;" x1="85.5" x2="289.5" y1="283.459" y2="283.459"/><text fill="#000000" font-family="sans-serif" font-size="6.5" font-weight="bold" lengthAdjust="spacing" textLength="9" x="91.5" y="280.8276">3.9</text><text fill="#000000" font-family="sans-serif" font-size="6.5" lengthAdjust="spacing" textLength="48" x="102.5" y="280.8276">listGreenSpaces</text><polygon fill="#181818" points="330.5,297.1045,335.5,299.1045,330.5,301.1045,332.5,299.1045" style="stroke:#181818;stroke-width:0.5;"/><line style="stroke:#181818;stroke-width:0.5;" x1="83" x2="333.5" y1="299.1045" y2="299.1045"/><text fill="#000000" font-family="sans-serif" font-size="6.5" font-weight="bold" lengthAdjust="spacing" textLength="12.5" x="86.5" y="296.4731">3.10</text><text fill="#000000" font-family="sans-serif" font-size="6.5" lengthAdjust="spacing" textLength="117" x="101" y="296.4731">listGreenSpacesToDto(listGreenSpaces)</text><rect fill="#E3E3E3" height="16.3105" rx="1.25" ry="1.25" style="stroke:#181818;stroke-width:0.25;" width="107" x="336.5" y="287.459"/><text fill="#000000" font-family="sans-serif" font-size="7" lengthAdjust="spacing" textLength="100" x="340" y="298.5127">:GreenSpaceRepositoryMapper</text><polygon fill="#181818" points="559,318.915,564,320.915,559,322.915,561,320.915" style="stroke:#181818;stroke-width:0.5;"/><line style="stroke:#181818;stroke-width:0.5;stroke-dasharray:2.0,2.0;" x1="392.5" x2="562" y1="320.915" y2="320.915"/><text fill="#000000" font-family="sans-serif" font-size="6.5" font-weight="bold" lengthAdjust="spacing" textLength="12.5" x="396" y="318.2837">3.11</text><text fill="#000000" font-family="sans-serif" font-size="6.5" lengthAdjust="spacing" textLength="22" x="410.5" y="318.2837">create()</text><rect fill="#E3E3E3" height="25.6211" rx="1.25" ry="1.25" style="stroke:#181818;stroke-width:0.25;" width="79" x="565" y="309.2695"/><text fill="#000000" font-family="sans-serif" font-size="7" lengthAdjust="spacing" textLength="63" x="573" y="320.3232">listGreenSpacesDto</text><text fill="#000000" font-family="sans-serif" font-size="7" lengthAdjust="spacing" textLength="72" x="568.5" y="329.6338">:List&lt;GreenSpaceDto&gt;</text><path d="M331.5,343.8906 L368,343.8906 L368,348.5361 L363,353.5361 L331.5,353.5361 L331.5,343.8906 " fill="#EEEEEE" style="stroke:#000000;stroke-width:0.75;"/><rect fill="none" height="155.4941" style="stroke:#000000;stroke-width:0.75;" width="382.5" x="331.5" y="343.8906"/><text fill="#000000" font-family="sans-serif" font-size="6.5" font-weight="bold" lengthAdjust="spacing" textLength="14" x="339" y="351.4048">loop</text><text fill="#000000" font-family="sans-serif" font-size="5.5" font-weight="bold" lengthAdjust="spacing" textLength="61" x="375.5" y="350.8257">[for each greenSpace]</text><polygon fill="#181818" points="517.5,363.1816,522.5,365.1816,517.5,367.1816,519.5,365.1816" style="stroke:#181818;stroke-width:0.5;"/><line style="stroke:#181818;stroke-width:0.5;" x1="392.5" x2="520.5" y1="365.1816" y2="365.1816"/><text fill="#000000" font-family="sans-serif" font-size="6.5" font-weight="bold" lengthAdjust="spacing" textLength="12.5" x="396" y="362.5503">3.12</text><text fill="#000000" font-family="sans-serif" font-size="6.5" lengthAdjust="spacing" textLength="14.5" x="410.5" y="362.5503">get(i)</text><polygon fill="#181818" points="398,378.8271,393,380.8271,398,382.8271,396,380.8271" style="stroke:#181818;stroke-width:0.5;"/><line style="stroke:#181818;stroke-width:0.5;stroke-dasharray:2.0,2.0;" x1="395" x2="525.5" y1="380.8271" y2="380.8271"/><text fill="#000000" font-family="sans-serif" font-size="6.5" font-weight="bold" lengthAdjust="spacing" textLength="12.5" x="401" y="378.1958">3.13</text><text fill="#000000" font-family="sans-serif" font-size="6.5" lengthAdjust="spacing" textLength="34.5" x="415.5" y="378.1958">greenSpace</text><line style="stroke:#181818;stroke-width:0.5;" x1="395" x2="416" y1="396.4727" y2="396.4727"/><line style="stroke:#181818;stroke-width:0.5;" x1="416" x2="416" y1="396.4727" y2="402.9727"/><line style="stroke:#181818;stroke-width:0.5;" x1="395.5" x2="416" y1="402.9727" y2="402.9727"/><polygon fill="#181818" points="400.5,400.9727,395.5,402.9727,400.5,404.9727,398.5,402.9727" style="stroke:#181818;stroke-width:0.5;"/><text fill="#000000" font-family="sans-serif" font-size="6.5" font-weight="bold" lengthAdjust="spacing" textLength="12.5" x="398.5" y="393.8413">3.14</text><text fill="#000000" font-family="sans-serif" font-size="6.5" lengthAdjust="spacing" textLength="109.5" x="413" y="393.8413">greenSpaceDto = toDTO(greenSpace)</text><polygon fill="#181818" points="643,431.6182,648,433.6182,643,435.6182,645,433.6182" style="stroke:#181818;stroke-width:0.5;"/><line style="stroke:#181818;stroke-width:0.5;stroke-dasharray:2.0,2.0;" x1="392.5" x2="646" y1="433.6182" y2="433.6182"/><text fill="#000000" font-family="sans-serif" font-size="6.5" font-weight="bold" lengthAdjust="spacing" textLength="12.5" x="396" y="430.9868">3.15</text><text fill="#000000" font-family="sans-serif" font-size="6.5" lengthAdjust="spacing" textLength="22" x="410.5" y="430.9868">create()</text><rect fill="#E3E3E3" height="25.6211" rx="1.25" ry="1.25" style="stroke:#181818;stroke-width:0.25;" width="60" x="649" y="421.9727"/><text fill="#000000" font-family="sans-serif" font-size="7" lengthAdjust="spacing" textLength="49.5" x="654.25" y="433.0264">greenSpaceDto</text><text fill="#000000" font-family="sans-serif" font-size="7" lengthAdjust="spacing" textLength="53" x="652.5" y="442.3369">:GreenSpaceDto</text><polygon fill="#181818" points="398,462.7393,393,464.7393,398,466.7393,396,464.7393" style="stroke:#181818;stroke-width:0.5;"/><line style="stroke:#181818;stroke-width:0.5;stroke-dasharray:2.0,2.0;" x1="395" x2="678.5" y1="464.7393" y2="464.7393"/><text fill="#000000" font-family="sans-serif" font-size="6.5" font-weight="bold" lengthAdjust="spacing" textLength="12.5" x="401" y="462.1079">3.16</text><text fill="#000000" font-family="sans-serif" font-size="6.5" lengthAdjust="spacing" textLength="44.5" x="415.5" y="462.1079">greenSpaceDto</text><polygon fill="#181818" points="596,478.3848,601,480.3848,596,482.3848,598,480.3848" style="stroke:#181818;stroke-width:0.5;"/><line style="stroke:#181818;stroke-width:0.5;" x1="392.5" x2="599" y1="480.3848" y2="480.3848"/><text fill="#000000" font-family="sans-serif" font-size="6.5" font-weight="bold" lengthAdjust="spacing" textLength="12.5" x="396" y="477.7534">3.17</text><text fill="#000000" font-family="sans-serif" font-size="6.5" lengthAdjust="spacing" textLength="59" x="410.5" y="477.7534">add(greenSpaceDto)</text><polygon fill="#181818" points="88.5,512.5303,83.5,514.5303,88.5,516.5303,86.5,514.5303" style="stroke:#181818;stroke-width:0.5;"/><line style="stroke:#181818;stroke-width:0.5;stroke-dasharray:2.0,2.0;" x1="85.5" x2="389.5" y1="514.5303" y2="514.5303"/><text fill="#000000" font-family="sans-serif" font-size="6.5" font-weight="bold" lengthAdjust="spacing" textLength="12.5" x="91.5" y="511.8989">3.18</text><text fill="#000000" font-family="sans-serif" font-size="6.5" lengthAdjust="spacing" textLength="58" x="106" y="511.8989">listGreenSpacesDto</text><polygon fill="#181818" points="5.5,531.6758,0.5,533.6758,5.5,535.6758,3.5,533.6758" style="stroke:#181818;stroke-width:0.5;"/><line style="stroke:#181818;stroke-width:0.5;stroke-dasharray:2.0,2.0;" x1="2.5" x2="80" y1="533.6758" y2="533.6758"/><text fill="#000000" font-family="sans-serif" font-size="6.5" font-weight="bold" lengthAdjust="spacing" textLength="3.5" x="8.5" y="531.0444">4</text><text fill="#000000" font-family="sans-serif" font-size="6.5" lengthAdjust="spacing" textLength="58" x="14" y="531.0444">listGreenSpacesDto</text><!--SRC=[fLR1Yjim4BtxAuOzPGCfbFOKjWiXQq8WsnWxbq8lggrrp3gIaPKk-VkEbQmZoR8jKnroa6RUUwDv6gT-BrX513d1YJEU7WK_KP3YJ8EwFQb8-avociXBIK7GL1AMbtf0VIGP_oXO3c-ah6aGuBOiqg8YJCB3SfLbgvooZ8HCYikQuoylIoeUWDImFiGx8pwc5QyBoKL1QnD8Q2U_sL8FL51n69a9kQ2K9IYVjh4NJDmujXN09Wx3dqcqMeS8jK-sXttyowh5bVjAgkfMZGlXTHL5OMpYb4Kjxr1DDJlSURflFIkutJOvt26JGOmNoRimkEb4UZdi-wxgYcD0MAKroG4vIyxEfpzKmBTWyQpwk8ISofqfQ_Pendxv6f1K5d-9fDVU0wvSy7C56of1PS8r5JuAUGJ51lVL904IwksVpnNrbjNepPGYfvRGqXdEqYFKqazXqLQacqxFoUWuRYirZ6uANVRfKujkxeXiTZLnBeFtYRJWFhMv73kVGqyhNKAThwQZt1MbAh6SgRXJGH7Pv3D9xPVHlIbS9USLl741U0r7xRBSqMw57O4eZsJPx8xsw4JhLUeArlhaLHWEK_U1hNNHqs4imXeVmHHD_jrLDXiaqtZ6dJJaskkSLVwnw0uSXzZCsZJRDgZXDi6zghx6kfoDWymqT-3jLr-xVfAxJ8llULPCzEf_UUmcPZbMo5Jp3nVkgGGD0Jz0ScoA_rCUyCP8OLDSvU4iuriyF35x2h2_gWvc39dIMxnH_rlmeFTmTQFGdiOeOvh96odJREaKxnp98srq3qVx8YVOg1MX_UFwhZQU5ei1Eer2_ISB_W40]--></g></svg>