<?xml version="1.0" encoding="us-ascii" standalone="no"?><svg xmlns="http://www.w3.org/2000/svg" xmlns:xlink="http://www.w3.org/1999/xlink" contentStyleType="text/css" height="827px" preserveAspectRatio="none" style="width:1277px;height:827px;background:#FFFFFF;" version="1.1" viewBox="0 0 1277 827" width="1277px" zoomAndPan="magnify"><defs/><g><rect fill="#FFFFFF" height="662.8301" style="stroke:#181818;stroke-width:1.0;" width="10" x="202" y="90.5332"/><rect fill="#FFFFFF" height="33.6211" style="stroke:#181818;stroke-width:1.0;" width="10" x="396.5" y="158.1152"/><rect fill="#FFFFFF" height="52.2422" style="stroke:#181818;stroke-width:1.0;" width="10" x="543.5" y="233.0273"/><rect fill="#FFFFFF" height="52.2422" style="stroke:#181818;stroke-width:1.0;" width="10" x="676.5" y="326.5605"/><rect fill="#FFFFFF" height="33.6211" style="stroke:#181818;stroke-width:1.0;" width="10" x="787.5" y="420.0938"/><rect fill="#FFFFFF" height="52.2422" style="stroke:#181818;stroke-width:1.0;" width="10" x="892.5" y="495.0059"/><rect fill="#FFFFFF" height="126.5332" style="stroke:#181818;stroke-width:1.0;" width="10" x="1033" y="588.5391"/><rect fill="#FFFFFF" height="28" style="stroke:#181818;stroke-width:1.0;" width="10" x="1038" y="648.7813"/><rect fill="none" height="617.5391" style="stroke:#000000;stroke-width:1.5;" width="1167.5" x="103.5" y="105.5332"/><line style="stroke:#181818;stroke-width:0.5;stroke-dasharray:5.0,5.0;" x1="206.5" x2="206.5" y1="57.2422" y2="771.3633"/><line style="stroke:#181818;stroke-width:0.5;stroke-dasharray:5.0,5.0;" x1="401" x2="401" y1="156.6348" y2="771.3633"/><line style="stroke:#181818;stroke-width:0.5;stroke-dasharray:5.0,5.0;" x1="548" x2="548" y1="240.8574" y2="771.3633"/><line style="stroke:#181818;stroke-width:0.5;stroke-dasharray:5.0,5.0;" x1="681" x2="681" y1="334.3906" y2="771.3633"/><line style="stroke:#181818;stroke-width:0.5;stroke-dasharray:5.0,5.0;" x1="792" x2="792" y1="418.6133" y2="771.3633"/><line style="stroke:#181818;stroke-width:0.5;stroke-dasharray:5.0,5.0;" x1="897" x2="897" y1="502.8359" y2="771.3633"/><line style="stroke:#181818;stroke-width:0.5;stroke-dasharray:5.0,5.0;" x1="1038" x2="1038" y1="596.3691" y2="771.3633"/><rect fill="#E3E3E3" height="32.6211" rx="2.5" ry="2.5" style="stroke:#181818;stroke-width:0.5;" width="187" x="113.5" y="23.6211"/><text fill="#000000" font-family="sans-serif" font-size="14" lengthAdjust="spacing" textLength="173" x="120.5" y="45.7285">:AddAgendaEntryController</text><rect fill="#E3E3E3" height="32.6211" rx="2.5" ry="2.5" style="stroke:#181818;stroke-width:0.5;" width="187" x="113.5" y="770.3633"/><text fill="#000000" font-family="sans-serif" font-size="14" lengthAdjust="spacing" textLength="173" x="120.5" y="792.4707">:AddAgendaEntryController</text><rect fill="#E3E3E3" height="32.6211" rx="2.5" ry="2.5" style="stroke:#181818;stroke-width:0.5;" width="137" x="333" y="770.3633"/><text fill="#000000" font-family="sans-serif" font-size="14" lengthAdjust="spacing" textLength="123" x="340" y="792.4707">:ApplicationSession</text><rect fill="#E3E3E3" height="51.2422" rx="2.5" ry="2.5" style="stroke:#181818;stroke-width:0.5;" width="137" x="480" y="770.3633"/><text fill="#000000" font-family="sans-serif" font-size="14" lengthAdjust="spacing" textLength="74" x="511.5" y="792.4707">appSession</text><text fill="#000000" font-family="sans-serif" font-size="14" lengthAdjust="spacing" textLength="123" x="487" y="811.0918">:ApplicationSession</text><rect fill="#E3E3E3" height="51.2422" rx="2.5" ry="2.5" style="stroke:#181818;stroke-width:0.5;" width="109" x="627" y="770.3633"/><text fill="#000000" font-family="sans-serif" font-size="14" lengthAdjust="spacing" textLength="95" x="634" y="792.4707">currentSession</text><text fill="#000000" font-family="sans-serif" font-size="14" lengthAdjust="spacing" textLength="83" x="640" y="811.0918">:UserSession</text><rect fill="#E3E3E3" height="32.6211" rx="2.5" ry="2.5" style="stroke:#181818;stroke-width:0.5;" width="93" x="746" y="770.3633"/><text fill="#000000" font-family="sans-serif" font-size="14" lengthAdjust="spacing" textLength="79" x="753" y="792.4707">Repositories</text><rect fill="#E3E3E3" height="51.2422" rx="2.5" ry="2.5" style="stroke:#181818;stroke-width:0.5;" width="97" x="849" y="770.3633"/><text fill="#000000" font-family="sans-serif" font-size="14" lengthAdjust="spacing" textLength="74" x="860.5" y="792.4707">repositories</text><text fill="#000000" font-family="sans-serif" font-size="14" lengthAdjust="spacing" textLength="83" x="856" y="811.0918">:Repositories</text><rect fill="#E3E3E3" height="51.2422" rx="2.5" ry="2.5" style="stroke:#181818;stroke-width:0.5;" width="164" x="956" y="770.3633"/><text fill="#000000" font-family="sans-serif" font-size="14" lengthAdjust="spacing" textLength="143" x="966.5" y="792.4707">collaboratorRepository</text><text fill="#000000" font-family="sans-serif" font-size="14" lengthAdjust="spacing" textLength="150" x="963" y="811.0918">:CollaboratorRepository</text><rect fill="#FFFFFF" height="662.8301" style="stroke:#181818;stroke-width:1.0;" width="10" x="202" y="90.5332"/><rect fill="#FFFFFF" height="33.6211" style="stroke:#181818;stroke-width:1.0;" width="10" x="396.5" y="158.1152"/><rect fill="#FFFFFF" height="52.2422" style="stroke:#181818;stroke-width:1.0;" width="10" x="543.5" y="233.0273"/><rect fill="#FFFFFF" height="52.2422" style="stroke:#181818;stroke-width:1.0;" width="10" x="676.5" y="326.5605"/><rect fill="#FFFFFF" height="33.6211" style="stroke:#181818;stroke-width:1.0;" width="10" x="787.5" y="420.0938"/><rect fill="#FFFFFF" height="52.2422" style="stroke:#181818;stroke-width:1.0;" width="10" x="892.5" y="495.0059"/><rect fill="#FFFFFF" height="126.5332" style="stroke:#181818;stroke-width:1.0;" width="10" x="1033" y="588.5391"/><rect fill="#FFFFFF" height="28" style="stroke:#181818;stroke-width:1.0;" width="10" x="1038" y="648.7813"/><polygon fill="#181818" points="190,86.5332,200,90.5332,190,94.5332,194,90.5332" style="stroke:#181818;stroke-width:1.0;"/><line style="stroke:#181818;stroke-width:1.0;" x1="0" x2="196" y1="90.5332" y2="90.5332"/><text fill="#000000" font-family="sans-serif" font-size="13" font-weight="bold" lengthAdjust="spacing" textLength="7" x="7" y="85.2705">4</text><text fill="#000000" font-family="sans-serif" font-size="13" lengthAdjust="spacing" textLength="172" x="18" y="85.2705">getCollaboratorFromSession()</text><path d="M103.5,105.5332 L317.5,105.5332 L317.5,114.8242 L307.5,124.8242 L103.5,124.8242 L103.5,105.5332 " fill="#EEEEEE" style="stroke:#000000;stroke-width:1.5;"/><rect fill="none" height="617.5391" style="stroke:#000000;stroke-width:1.5;" width="1167.5" x="103.5" y="105.5332"/><text fill="#000000" font-family="sans-serif" font-size="13" font-weight="bold" lengthAdjust="spacing" textLength="169" x="118.5" y="120.5615">Get Green Space Manager</text><polygon fill="#181818" points="321,144.1152,331,148.1152,321,152.1152,325,148.1152" style="stroke:#181818;stroke-width:1.0;"/><line style="stroke:#181818;stroke-width:1.0;" x1="212" x2="327" y1="148.1152" y2="148.1152"/><text fill="#000000" font-family="sans-serif" font-size="13" font-weight="bold" lengthAdjust="spacing" textLength="18" x="219" y="142.8525">4.1</text><text fill="#000000" font-family="sans-serif" font-size="13" lengthAdjust="spacing" textLength="75" x="241" y="142.8525">getInstance()</text><rect fill="#E3E3E3" height="32.6211" rx="2.5" ry="2.5" style="stroke:#181818;stroke-width:0.5;" width="137" x="333" y="124.8242"/><text fill="#000000" font-family="sans-serif" font-size="14" lengthAdjust="spacing" textLength="123" x="340" y="146.9316">:ApplicationSession</text><polygon fill="#181818" points="223,187.7363,213,191.7363,223,195.7363,219,191.7363" style="stroke:#181818;stroke-width:1.0;"/><line style="stroke:#181818;stroke-width:1.0;" x1="217" x2="400.5" y1="191.7363" y2="191.7363"/><text fill="#000000" font-family="sans-serif" font-size="13" font-weight="bold" lengthAdjust="spacing" textLength="18" x="229" y="186.4736">4.2</text><text fill="#000000" font-family="sans-serif" font-size="13" lengthAdjust="spacing" textLength="68" x="251" y="186.4736">appSession</text><polygon fill="#181818" points="468,219.0273,478,223.0273,468,227.0273,472,223.0273" style="stroke:#181818;stroke-width:1.0;"/><line style="stroke:#181818;stroke-width:1.0;" x1="212" x2="474" y1="223.0273" y2="223.0273"/><text fill="#000000" font-family="sans-serif" font-size="13" font-weight="bold" lengthAdjust="spacing" textLength="18" x="219" y="217.7646">4.3</text><text fill="#000000" font-family="sans-serif" font-size="13" lengthAdjust="spacing" textLength="115" x="241" y="217.7646">getCurrentSession()</text><rect fill="#E3E3E3" height="51.2422" rx="2.5" ry="2.5" style="stroke:#181818;stroke-width:0.5;" width="137" x="480" y="199.7363"/><text fill="#000000" font-family="sans-serif" font-size="14" lengthAdjust="spacing" textLength="74" x="511.5" y="221.8438">appSession</text><text fill="#000000" font-family="sans-serif" font-size="14" lengthAdjust="spacing" textLength="123" x="487" y="240.4648">:ApplicationSession</text><polygon fill="#181818" points="223,281.2695,213,285.2695,223,289.2695,219,285.2695" style="stroke:#181818;stroke-width:1.0;"/><line style="stroke:#181818;stroke-width:1.0;stroke-dasharray:2.0,2.0;" x1="217" x2="547.5" y1="285.2695" y2="285.2695"/><text fill="#000000" font-family="sans-serif" font-size="13" font-weight="bold" lengthAdjust="spacing" textLength="18" x="229" y="280.0068">4.4</text><text fill="#000000" font-family="sans-serif" font-size="13" lengthAdjust="spacing" textLength="87" x="251" y="280.0068">currentSession</text><polygon fill="#181818" points="615,312.5605,625,316.5605,615,320.5605,619,316.5605" style="stroke:#181818;stroke-width:1.0;"/><line style="stroke:#181818;stroke-width:1.0;" x1="212" x2="621" y1="316.5605" y2="316.5605"/><text fill="#000000" font-family="sans-serif" font-size="13" font-weight="bold" lengthAdjust="spacing" textLength="18" x="219" y="311.2979">4.5</text><text fill="#000000" font-family="sans-serif" font-size="13" lengthAdjust="spacing" textLength="133" x="241" y="311.2979">email = getUserEmail()</text><rect fill="#E3E3E3" height="51.2422" rx="2.5" ry="2.5" style="stroke:#181818;stroke-width:0.5;" width="109" x="627" y="293.2695"/><text fill="#000000" font-family="sans-serif" font-size="14" lengthAdjust="spacing" textLength="95" x="634" y="315.377">currentSession</text><text fill="#000000" font-family="sans-serif" font-size="14" lengthAdjust="spacing" textLength="83" x="640" y="333.998">:UserSession</text><polygon fill="#181818" points="223,374.8027,213,378.8027,223,382.8027,219,378.8027" style="stroke:#181818;stroke-width:1.0;"/><line style="stroke:#181818;stroke-width:1.0;stroke-dasharray:2.0,2.0;" x1="217" x2="680.5" y1="378.8027" y2="378.8027"/><text fill="#000000" font-family="sans-serif" font-size="13" font-weight="bold" lengthAdjust="spacing" textLength="18" x="229" y="373.54">4.6</text><text fill="#000000" font-family="sans-serif" font-size="13" lengthAdjust="spacing" textLength="31" x="251" y="373.54">email</text><polygon fill="#181818" points="734,406.0938,744,410.0938,734,414.0938,738,410.0938" style="stroke:#181818;stroke-width:1.0;"/><line style="stroke:#181818;stroke-width:1.0;" x1="212" x2="740" y1="410.0938" y2="410.0938"/><text fill="#000000" font-family="sans-serif" font-size="13" font-weight="bold" lengthAdjust="spacing" textLength="18" x="219" y="404.8311">4.7</text><text fill="#000000" font-family="sans-serif" font-size="13" lengthAdjust="spacing" textLength="75" x="241" y="404.8311">getInstance()</text><rect fill="#E3E3E3" height="32.6211" rx="2.5" ry="2.5" style="stroke:#181818;stroke-width:0.5;" width="93" x="746" y="386.8027"/><text fill="#000000" font-family="sans-serif" font-size="14" lengthAdjust="spacing" textLength="79" x="753" y="408.9102">Repositories</text><polygon fill="#181818" points="223,449.7148,213,453.7148,223,457.7148,219,453.7148" style="stroke:#181818;stroke-width:1.0;"/><line style="stroke:#181818;stroke-width:1.0;stroke-dasharray:2.0,2.0;" x1="217" x2="791.5" y1="453.7148" y2="453.7148"/><text fill="#000000" font-family="sans-serif" font-size="13" font-weight="bold" lengthAdjust="spacing" textLength="18" x="229" y="448.4521">4.8</text><text fill="#000000" font-family="sans-serif" font-size="13" lengthAdjust="spacing" textLength="67" x="251" y="448.4521">repositories</text><polygon fill="#181818" points="837,481.0059,847,485.0059,837,489.0059,841,485.0059" style="stroke:#181818;stroke-width:1.0;"/><line style="stroke:#181818;stroke-width:1.0;" x1="212" x2="843" y1="485.0059" y2="485.0059"/><text fill="#000000" font-family="sans-serif" font-size="13" font-weight="bold" lengthAdjust="spacing" textLength="18" x="219" y="479.7432">4.9</text><text fill="#000000" font-family="sans-serif" font-size="13" lengthAdjust="spacing" textLength="157" x="241" y="479.7432">getCollaboratorRepository()</text><rect fill="#E3E3E3" height="51.2422" rx="2.5" ry="2.5" style="stroke:#181818;stroke-width:0.5;" width="97" x="849" y="461.7148"/><text fill="#000000" font-family="sans-serif" font-size="14" lengthAdjust="spacing" textLength="74" x="860.5" y="483.8223">repositories</text><text fill="#000000" font-family="sans-serif" font-size="14" lengthAdjust="spacing" textLength="83" x="856" y="502.4434">:Repositories</text><polygon fill="#181818" points="223,543.248,213,547.248,223,551.248,219,547.248" style="stroke:#181818;stroke-width:1.0;"/><line style="stroke:#181818;stroke-width:1.0;stroke-dasharray:2.0,2.0;" x1="217" x2="896.5" y1="547.248" y2="547.248"/><text fill="#000000" font-family="sans-serif" font-size="13" font-weight="bold" lengthAdjust="spacing" textLength="25" x="229" y="541.9854">4.10</text><text fill="#000000" font-family="sans-serif" font-size="13" lengthAdjust="spacing" textLength="129" x="258" y="541.9854">collaboratorRepository</text><polygon fill="#181818" points="944,574.5391,954,578.5391,944,582.5391,948,578.5391" style="stroke:#181818;stroke-width:1.0;"/><line style="stroke:#181818;stroke-width:1.0;" x1="212" x2="950" y1="578.5391" y2="578.5391"/><text fill="#000000" font-family="sans-serif" font-size="13" font-weight="bold" lengthAdjust="spacing" textLength="25" x="219" y="573.2764">4.11</text><text fill="#000000" font-family="sans-serif" font-size="13" lengthAdjust="spacing" textLength="175" x="248" y="573.2764">getCollaboratorByEmail(email)</text><rect fill="#E3E3E3" height="51.2422" rx="2.5" ry="2.5" style="stroke:#181818;stroke-width:0.5;" width="164" x="956" y="555.248"/><text fill="#000000" font-family="sans-serif" font-size="14" lengthAdjust="spacing" textLength="143" x="966.5" y="577.3555">collaboratorRepository</text><text fill="#000000" font-family="sans-serif" font-size="14" lengthAdjust="spacing" textLength="150" x="963" y="595.9766">:CollaboratorRepository</text><line style="stroke:#181818;stroke-width:1.0;stroke-dasharray:2.0,2.0;" x1="1048" x2="1090" y1="640.7813" y2="640.7813"/><line style="stroke:#181818;stroke-width:1.0;stroke-dasharray:2.0,2.0;" x1="1090" x2="1090" y1="640.7813" y2="653.7813"/><line style="stroke:#181818;stroke-width:1.0;stroke-dasharray:2.0,2.0;" x1="1049" x2="1090" y1="653.7813" y2="653.7813"/><polygon fill="#181818" points="1059,649.7813,1049,653.7813,1059,657.7813,1055,653.7813" style="stroke:#181818;stroke-width:1.0;"/><text fill="#000000" font-family="sans-serif" font-size="13" font-weight="bold" lengthAdjust="spacing" textLength="25" x="1055" y="635.5186">4.12</text><text fill="#000000" font-family="sans-serif" font-size="13" lengthAdjust="spacing" textLength="175" x="1084" y="635.5186">getCollaboratorByEmail(email)</text><polygon fill="#181818" points="223,711.0723,213,715.0723,223,719.0723,219,715.0723" style="stroke:#181818;stroke-width:1.0;"/><line style="stroke:#181818;stroke-width:1.0;stroke-dasharray:2.0,2.0;" x1="217" x2="1037" y1="715.0723" y2="715.0723"/><text fill="#000000" font-family="sans-serif" font-size="13" font-weight="bold" lengthAdjust="spacing" textLength="25" x="229" y="709.8096">4.13</text><text fill="#000000" font-family="sans-serif" font-size="13" lengthAdjust="spacing" textLength="119" x="258" y="709.8096">greenSpaceManager</text><polygon fill="#181818" points="11,749.3633,1,753.3633,11,757.3633,7,753.3633" style="stroke:#181818;stroke-width:1.0;"/><line style="stroke:#181818;stroke-width:1.0;stroke-dasharray:2.0,2.0;" x1="5" x2="206" y1="753.3633" y2="753.3633"/><text fill="#000000" font-family="sans-serif" font-size="13" font-weight="bold" lengthAdjust="spacing" textLength="7" x="17" y="748.1006">5</text><text fill="#000000" font-family="sans-serif" font-size="13" lengthAdjust="spacing" textLength="119" x="28" y="748.1006">greenSpaceManager</text><!--SRC=[hPLTQzim58RlzIj4hxf01eNjfcm3DtWbaCt5xYuAWt5gdxcYjYGaUIF_VfBiE78jGGlpHUBeV3tIUtIYdncNeA2dlU2YVbAYHshKW4JF5WdrCxHOcME7L65jWBTTwA2Ve15_6M_fR-Wq4cAN3QkP16xenNNMD5cBl86S6tNS2VifkWxL1GLDT_VbuQM_b1shmJ31AzJQVddFNzdTtT8Jf9mSVl9Kr2ge7fH2Riw1FpIgCABAgsfVV5z4bIY5PaOeXdgPJWKMconqzDdA_6LzktTu50giq-nzjA6xg64yfE9mo6wAChilIfkmgFRsvO4G68pWG_-8YduWso_-CAzfYoRCzTLgEktlyjqovlqLWTgmFs1m58BQfrLYaFGM3RrLY9nMLd-atu3R7b34kqoF2w6sh5Dci_65zrpRzgZHLWeSvo9Umz3Y7xTAP_opgg5ZW-aa9uupncuXSW8cok9HPfPbioHuKZXJ8paax85rzBD3S-sMkvy9gbFxhSWcGq3dioQWOcbEO66JlawtHV-lo1RcW2-y6mdCPEAPDPyrZTwF570UqTOkXjf6ywKuyxZ6yPkvsT0LyirnLDsB5eTENVFLUSSTnxr5JM-WUHtJAY0ug_-oZN6IkG7avyzf_BojedUt_ppZIp3vFlg5JzljA6IiKfZUZKRo3m00]--></g></svg>