<?xml version="1.0" encoding="us-ascii" standalone="no"?><svg xmlns="http://www.w3.org/2000/svg" xmlns:xlink="http://www.w3.org/1999/xlink" contentStyleType="text/css" height="454px" preserveAspectRatio="none" style="width:465px;height:454px;background:#FFFFFF;" version="1.1" viewBox="0 0 465 454" width="465px" zoomAndPan="magnify"><defs/><g><text fill="#000000" font-family="sans-serif" font-size="14" font-weight="bold" lengthAdjust="spacing" textLength="363" x="50" y="28.5352">System Sequence Diagram (SSD) - Alternative One</text><rect fill="#FFFFFF" height="235.4844" style="stroke:#181818;stroke-width:1.0;" width="10" x="81" y="128.9766"/><rect fill="#FFFFFF" height="29.3105" style="stroke:#181818;stroke-width:1.0;" width="10" x="421" y="150.2871"/><rect fill="#FFFFFF" height="29.3105" style="stroke:#181818;stroke-width:1.0;" width="10" x="421" y="208.9082"/><rect fill="#FFFFFF" height="29.3105" style="stroke:#181818;stroke-width:1.0;" width="10" x="421" y="267.5293"/><rect fill="#FFFFFF" height="29.3105" style="stroke:#181818;stroke-width:1.0;" width="10" x="421" y="326.1504"/><line style="stroke:#181818;stroke-width:0.5;stroke-dasharray:5.0,5.0;" x1="86" x2="86" y1="118.9766" y2="373.4609"/><line style="stroke:#181818;stroke-width:0.5;stroke-dasharray:5.0,5.0;" x1="426" x2="426" y1="118.9766" y2="373.4609"/><text fill="#000000" font-family="sans-serif" font-size="14" lengthAdjust="spacing" textLength="156" x="5" y="116.0234">Green Spaces Manager</text><ellipse cx="86" cy="50.9883" fill="#E3E3E3" rx="8" ry="8" style="stroke:#181818;stroke-width:0.5;"/><path d="M86,58.9883 L86,85.9883 M73,66.9883 L99,66.9883 M86,85.9883 L73,100.9883 M86,85.9883 L99,100.9883 " fill="none" style="stroke:#181818;stroke-width:0.5;"/><text fill="#000000" font-family="sans-serif" font-size="14" lengthAdjust="spacing" textLength="156" x="5" y="385.9961">Green Spaces Manager</text><ellipse cx="86" cy="397.4492" fill="#E3E3E3" rx="8" ry="8" style="stroke:#181818;stroke-width:0.5;"/><path d="M86,405.4492 L86,432.4492 M73,413.4492 L99,413.4492 M86,432.4492 L73,447.4492 M86,432.4492 L99,447.4492 " fill="none" style="stroke:#181818;stroke-width:0.5;"/><rect fill="#E3E3E3" height="30.4883" rx="2.5" ry="2.5" style="stroke:#181818;stroke-width:0.5;" width="66" x="393" y="87.4883"/><text fill="#000000" font-family="sans-serif" font-size="14" lengthAdjust="spacing" textLength="52" x="400" y="108.0234">:System</text><rect fill="#E3E3E3" height="30.4883" rx="2.5" ry="2.5" style="stroke:#181818;stroke-width:0.5;" width="66" x="393" y="372.4609"/><text fill="#000000" font-family="sans-serif" font-size="14" lengthAdjust="spacing" textLength="52" x="400" y="392.9961">:System</text><rect fill="#FFFFFF" height="235.4844" style="stroke:#181818;stroke-width:1.0;" width="10" x="81" y="128.9766"/><rect fill="#FFFFFF" height="29.3105" style="stroke:#181818;stroke-width:1.0;" width="10" x="421" y="150.2871"/><rect fill="#FFFFFF" height="29.3105" style="stroke:#181818;stroke-width:1.0;" width="10" x="421" y="208.9082"/><rect fill="#FFFFFF" height="29.3105" style="stroke:#181818;stroke-width:1.0;" width="10" x="421" y="267.5293"/><rect fill="#FFFFFF" height="29.3105" style="stroke:#181818;stroke-width:1.0;" width="10" x="421" y="326.1504"/><polygon fill="#181818" points="409,146.2871,419,150.2871,409,154.2871,413,150.2871" style="stroke:#181818;stroke-width:1.0;"/><line style="stroke:#181818;stroke-width:1.0;" x1="91" x2="415" y1="150.2871" y2="150.2871"/><text fill="#000000" font-family="sans-serif" font-size="13" font-weight="bold" lengthAdjust="spacing" textLength="9" x="98" y="145.5449">1</text><text fill="#000000" font-family="sans-serif" font-size="13" lengthAdjust="spacing" textLength="298" x="111" y="145.5449">asks to assign one or more vehicles to an entry</text><polygon fill="#181818" points="102,175.5977,92,179.5977,102,183.5977,98,179.5977" style="stroke:#181818;stroke-width:1.0;"/><line style="stroke:#181818;stroke-width:1.0;stroke-dasharray:2.0,2.0;" x1="96" x2="425" y1="179.5977" y2="179.5977"/><text fill="#000000" font-family="sans-serif" font-size="13" font-weight="bold" lengthAdjust="spacing" textLength="9" x="108" y="174.8555">2</text><text fill="#000000" font-family="sans-serif" font-size="13" lengthAdjust="spacing" textLength="87" x="121" y="174.8555">shows entries</text><polygon fill="#181818" points="409,204.9082,419,208.9082,409,212.9082,413,208.9082" style="stroke:#181818;stroke-width:1.0;"/><line style="stroke:#181818;stroke-width:1.0;" x1="91" x2="415" y1="208.9082" y2="208.9082"/><text fill="#000000" font-family="sans-serif" font-size="13" font-weight="bold" lengthAdjust="spacing" textLength="9" x="98" y="204.166">3</text><text fill="#000000" font-family="sans-serif" font-size="13" lengthAdjust="spacing" textLength="205" x="111" y="204.166">chooses entry to assign vehicles</text><polygon fill="#181818" points="102,234.2188,92,238.2188,102,242.2188,98,238.2188" style="stroke:#181818;stroke-width:1.0;"/><line style="stroke:#181818;stroke-width:1.0;stroke-dasharray:2.0,2.0;" x1="96" x2="425" y1="238.2188" y2="238.2188"/><text fill="#000000" font-family="sans-serif" font-size="13" font-weight="bold" lengthAdjust="spacing" textLength="9" x="108" y="233.4766">4</text><text fill="#000000" font-family="sans-serif" font-size="13" lengthAdjust="spacing" textLength="181" x="121" y="233.4766">shows all registered vehicles</text><polygon fill="#181818" points="409,263.5293,419,267.5293,409,271.5293,413,267.5293" style="stroke:#181818;stroke-width:1.0;"/><line style="stroke:#181818;stroke-width:1.0;" x1="91" x2="415" y1="267.5293" y2="267.5293"/><text fill="#000000" font-family="sans-serif" font-size="13" font-weight="bold" lengthAdjust="spacing" textLength="9" x="98" y="262.7871">5</text><text fill="#000000" font-family="sans-serif" font-size="13" lengthAdjust="spacing" textLength="249" x="111" y="262.7871">chooses one or more vehicles to assign</text><polygon fill="#181818" points="102,292.8398,92,296.8398,102,300.8398,98,296.8398" style="stroke:#181818;stroke-width:1.0;"/><line style="stroke:#181818;stroke-width:1.0;" x1="96" x2="425" y1="296.8398" y2="296.8398"/><text fill="#000000" font-family="sans-serif" font-size="13" font-weight="bold" lengthAdjust="spacing" textLength="9" x="108" y="292.0977">6</text><text fill="#000000" font-family="sans-serif" font-size="13" lengthAdjust="spacing" textLength="260" x="121" y="292.0977">shows all data and requests confirmation</text><polygon fill="#181818" points="409,322.1504,419,326.1504,409,330.1504,413,326.1504" style="stroke:#181818;stroke-width:1.0;"/><line style="stroke:#181818;stroke-width:1.0;" x1="91" x2="415" y1="326.1504" y2="326.1504"/><text fill="#000000" font-family="sans-serif" font-size="13" font-weight="bold" lengthAdjust="spacing" textLength="9" x="98" y="321.4082">7</text><text fill="#000000" font-family="sans-serif" font-size="13" lengthAdjust="spacing" textLength="87" x="111" y="321.4082">confirms data</text><polygon fill="#181818" points="102,351.4609,92,355.4609,102,359.4609,98,355.4609" style="stroke:#181818;stroke-width:1.0;"/><line style="stroke:#181818;stroke-width:1.0;stroke-dasharray:2.0,2.0;" x1="96" x2="425" y1="355.4609" y2="355.4609"/><text fill="#000000" font-family="sans-serif" font-size="13" font-weight="bold" lengthAdjust="spacing" textLength="9" x="108" y="350.7188">8</text><text fill="#000000" font-family="sans-serif" font-size="13" lengthAdjust="spacing" textLength="170" x="121" y="350.7188">displays operation success</text><!--SRC=[dPB1JiCm38RlVGfh9pZi1NP0GXhYX3Zq2KpgjT4IfyHkfxuz9bt749k0vT94-V_VNntBtdEF6IF4nCbrEKK2pGDLShhfqUsnfLgdG939AN8RpWNIOPCEdblOOH2gAlLgqdeIfGWrlG_4Zc3hiVsKtzNrzXxMy1YKCgFwaU2LpOQ39XxY6sNREqqPLi-PYA4s119uGJQEl08KU8fzI1DHPGZgdU-H5LQRkMPHpDkIv4TK-h9KO6ivmVfX8TsORI-WoRxYMuR414OHKoOOgVCkq7pDGAnvAa6d_AKW7DSnTMq5JiKsrgnqa6Bt94NRqCM8Yu2kIqbezazdf0lTxKGOWZrkwqsHgVaU-9FmLy2hhIkyVyEyGjcWeZr1OxWsMQ82Bl7EvsYZbFZVmBDNIkmjxMkyz04d- -MUSa406PpDwxNUVG00]--></g></svg>