<?xml version="1.0" encoding="us-ascii" standalone="no"?><svg xmlns="http://www.w3.org/2000/svg" xmlns:xlink="http://www.w3.org/1999/xlink" contentStyleType="text/css" height="463px" preserveAspectRatio="none" style="width:541px;height:463px;background:#FFFFFF;" version="1.1" viewBox="0 0 541 463" width="541px" zoomAndPan="magnify"><defs/><g><text fill="#000000" font-family="sans-serif" font-size="14" font-weight="bold" lengthAdjust="spacing" textLength="351" x="94" y="30.1074">System Sequence Diagram (SSD) - Alternative One</text><rect fill="#FFFFFF" height="126.1641" style="stroke:#181818;stroke-width:1.0;" width="10" x="31" y="189.1055"/><rect fill="#FFFFFF" height="31.291" style="stroke:#181818;stroke-width:1.0;" width="10" x="498" y="212.3965"/><rect fill="#FFFFFF" height="31.291" style="stroke:#181818;stroke-width:1.0;" width="10" x="498" y="274.9785"/><line style="stroke:#181818;stroke-width:0.5;stroke-dasharray:5.0,5.0;" x1="36" x2="36" y1="179.1055" y2="324.2695"/><line style="stroke:#181818;stroke-width:0.5;stroke-dasharray:5.0,5.0;" x1="503" x2="503" y1="179.1055" y2="324.2695"/><text fill="#000000" font-family="sans-serif" font-size="14" lengthAdjust="spacing" textLength="46" x="10" y="119.7285">Vehicle</text><text fill="#000000" font-family="sans-serif" font-size="14" lengthAdjust="spacing" textLength="32" x="17" y="138.3496">Fleet</text><text fill="#000000" font-family="sans-serif" font-size="14" lengthAdjust="spacing" textLength="56" x="5" y="156.9707">Manager</text><text fill="#000000" font-family="sans-serif" font-size="14" lengthAdjust="spacing" textLength="39" x="13.5" y="175.5918">(VFM)</text><ellipse cx="36" cy="53.1211" fill="#E3E3E3" rx="8" ry="8" style="stroke:#181818;stroke-width:0.5;"/><path d="M36,61.1211 L36,88.1211 M23,69.1211 L49,69.1211 M36,88.1211 L23,103.1211 M36,88.1211 L49,103.1211 " fill="none" style="stroke:#181818;stroke-width:0.5;"/><text fill="#000000" font-family="sans-serif" font-size="14" lengthAdjust="spacing" textLength="46" x="10" y="338.377">Vehicle</text><text fill="#000000" font-family="sans-serif" font-size="14" lengthAdjust="spacing" textLength="32" x="17" y="356.998">Fleet</text><text fill="#000000" font-family="sans-serif" font-size="14" lengthAdjust="spacing" textLength="56" x="5" y="375.6191">Manager</text><text fill="#000000" font-family="sans-serif" font-size="14" lengthAdjust="spacing" textLength="39" x="13.5" y="394.2402">(VFM)</text><ellipse cx="36" cy="406.2539" fill="#E3E3E3" rx="8" ry="8" style="stroke:#181818;stroke-width:0.5;"/><path d="M36,414.2539 L36,441.2539 M23,422.2539 L49,422.2539 M36,441.2539 L23,456.2539 M36,441.2539 L49,456.2539 " fill="none" style="stroke:#181818;stroke-width:0.5;"/><rect fill="#E3E3E3" height="32.6211" rx="2.5" ry="2.5" style="stroke:#181818;stroke-width:0.5;" width="64" x="471" y="145.4844"/><text fill="#000000" font-family="sans-serif" font-size="14" lengthAdjust="spacing" textLength="50" x="478" y="167.5918">:System</text><rect fill="#E3E3E3" height="32.6211" rx="2.5" ry="2.5" style="stroke:#181818;stroke-width:0.5;" width="64" x="471" y="323.2695"/><text fill="#000000" font-family="sans-serif" font-size="14" lengthAdjust="spacing" textLength="50" x="478" y="345.377">:System</text><rect fill="#FFFFFF" height="126.1641" style="stroke:#181818;stroke-width:1.0;" width="10" x="31" y="189.1055"/><rect fill="#FFFFFF" height="31.291" style="stroke:#181818;stroke-width:1.0;" width="10" x="498" y="212.3965"/><rect fill="#FFFFFF" height="31.291" style="stroke:#181818;stroke-width:1.0;" width="10" x="498" y="274.9785"/><polygon fill="#181818" points="486,208.3965,496,212.3965,486,216.3965,490,212.3965" style="stroke:#181818;stroke-width:1.0;"/><line style="stroke:#181818;stroke-width:1.0;" x1="41" x2="492" y1="212.3965" y2="212.3965"/><text fill="#000000" font-family="sans-serif" font-size="13" font-weight="bold" lengthAdjust="spacing" textLength="7" x="48" y="207.1338">1</text><text fill="#000000" font-family="sans-serif" font-size="13" lengthAdjust="spacing" textLength="427" x="59" y="207.1338">asks to create a topographic survey, of the pipelines between water points</text><polygon fill="#181818" points="52,239.6875,42,243.6875,52,247.6875,48,243.6875" style="stroke:#181818;stroke-width:1.0;"/><line style="stroke:#181818;stroke-width:1.0;stroke-dasharray:2.0,2.0;" x1="46" x2="502" y1="243.6875" y2="243.6875"/><text fill="#000000" font-family="sans-serif" font-size="13" font-weight="bold" lengthAdjust="spacing" textLength="7" x="58" y="238.4248">2</text><text fill="#000000" font-family="sans-serif" font-size="13" lengthAdjust="spacing" textLength="120" x="69" y="238.4248">asks for confirmation</text><polygon fill="#181818" points="486,270.9785,496,274.9785,486,278.9785,490,274.9785" style="stroke:#181818;stroke-width:1.0;"/><line style="stroke:#181818;stroke-width:1.0;" x1="41" x2="492" y1="274.9785" y2="274.9785"/><text fill="#000000" font-family="sans-serif" font-size="13" font-weight="bold" lengthAdjust="spacing" textLength="7" x="48" y="269.7158">3</text><text fill="#000000" font-family="sans-serif" font-size="13" lengthAdjust="spacing" textLength="322" x="59" y="269.7158">Confirms that he wants to create the topographic survey</text><polygon fill="#181818" points="52,302.2695,42,306.2695,52,310.2695,48,306.2695" style="stroke:#181818;stroke-width:1.0;"/><line style="stroke:#181818;stroke-width:1.0;stroke-dasharray:2.0,2.0;" x1="46" x2="502" y1="306.2695" y2="306.2695"/><text fill="#000000" font-family="sans-serif" font-size="13" font-weight="bold" lengthAdjust="spacing" textLength="7" x="58" y="301.0068">4</text><text fill="#000000" font-family="sans-serif" font-size="13" lengthAdjust="spacing" textLength="381" x="69" y="301.0068">shows a topographic survey, of the pipelines between water points</text><!--SRC=[fP31Ri8m38RlVGgB4qZZ1JXCciQu8GwLE74nmMqZ4YTBNAg-_Gob7HhYD9ySnR__xtS-MuwOq8CF74oJWYUGr5AHfv-8vemrbT8xWaH6a6ltE90RF8NESWqLkan58LPqjEopa8UIlbjYGx2sM5_7vsMvNi0IFfnGOXHx8TYnoh2LmAq_KjBUI4WmsrDZZQC3RnoH77YBh2ZfmFFzPhkO0MRuyj65dgXG6B76HcI1sMfmlqqCxMsdlQ3GhwG0hV45o_UHUQMoSmO9O19T5QXz38eVbGTocoxKlq6eG1g2Q2CvovJXID8HCNIgIH23PSc3oUGzmi2zxevBDPz0xlQLNi04hcpoUgN0Dys9_gvwcU5pq6gE1WKKjDFJFAQwmZ_dcj1UCh_cpateyh-kDUv_pbdy0000]--></g></svg>