<?xml version="1.0" encoding="us-ascii" standalone="no"?><svg xmlns="http://www.w3.org/2000/svg" xmlns:xlink="http://www.w3.org/1999/xlink" contentStyleType="text/css" height="635px" preserveAspectRatio="none" style="width:752px;height:635px;background:#FFFFFF;" version="1.1" viewBox="0 0 752 635" width="752px" zoomAndPan="magnify"><defs/><g><!--class Collaborator--><g id="elem_Collaborator"><rect codeLine="11" fill="#F1F1F1" height="166.9688" id="Collaborator" rx="2.5" ry="2.5" style="stroke:#181818;stroke-width:0.5;" width="136" x="174.5" y="160"/><text fill="#000000" font-family="sans-serif" font-size="14" lengthAdjust="spacing" textLength="78" x="203.5" y="180.1074">Collaborator</text><line style="stroke:#181818;stroke-width:0.5;" x1="175.5" x2="309.5" y1="188.6211" y2="188.6211"/><text fill="#000000" font-family="sans-serif" font-size="14" lengthAdjust="spacing" textLength="35" x="180.5" y="207.7285">name</text><text fill="#000000" font-family="sans-serif" font-size="14" lengthAdjust="spacing" textLength="56" x="180.5" y="226.3496">birthdate</text><text fill="#000000" font-family="sans-serif" font-size="14" lengthAdjust="spacing" textLength="93" x="180.5" y="244.9707">admissionDate</text><text fill="#000000" font-family="sans-serif" font-size="14" lengthAdjust="spacing" textLength="51" x="180.5" y="263.5918">address</text><text fill="#000000" font-family="sans-serif" font-size="14" lengthAdjust="spacing" textLength="69" x="180.5" y="282.2129">contactInfo</text><text fill="#000000" font-family="sans-serif" font-size="14" lengthAdjust="spacing" textLength="107" x="180.5" y="300.834">idDocumentType</text><text fill="#000000" font-family="sans-serif" font-size="14" lengthAdjust="spacing" textLength="124" x="180.5" y="319.4551">idDocumentNumber</text></g><!--class VFM--><g id="elem_VFM"><rect codeLine="21" fill="#F1F1F1" height="36.6211" id="VFM" rx="2.5" ry="2.5" style="stroke:#181818;stroke-width:0.5;" width="35" x="7" y="499"/><text fill="#000000" font-family="sans-serif" font-size="14" lengthAdjust="spacing" textLength="29" x="10" y="519.1074">VFM</text><line style="stroke:#181818;stroke-width:0.5;" x1="8" x2="41" y1="527.6211" y2="527.6211"/></g><!--class Vehicle--><g id="elem_Vehicle"><rect codeLine="25" fill="#F1F1F1" height="222.832" id="Vehicle" rx="2.5" ry="2.5" style="stroke:#181818;stroke-width:0.5;" width="222" x="140.5" y="406"/><text fill="#000000" font-family="sans-serif" font-size="14" lengthAdjust="spacing" textLength="46" x="228.5" y="426.1074">Vehicle</text><line style="stroke:#181818;stroke-width:0.5;" x1="141.5" x2="361.5" y1="434.6211" y2="434.6211"/><text fill="#000000" font-family="sans-serif" font-size="14" lengthAdjust="spacing" textLength="46" x="146.5" y="453.7285">plate id</text><text fill="#000000" font-family="sans-serif" font-size="14" lengthAdjust="spacing" textLength="37" x="146.5" y="472.3496">brand</text><text fill="#000000" font-family="sans-serif" font-size="14" lengthAdjust="spacing" textLength="38" x="146.5" y="490.9707">model</text><text fill="#000000" font-family="sans-serif" font-size="14" lengthAdjust="spacing" textLength="27" x="146.5" y="509.5918">type</text><text fill="#000000" font-family="sans-serif" font-size="14" lengthAdjust="spacing" textLength="25" x="146.5" y="528.2129">tare</text><text fill="#000000" font-family="sans-serif" font-size="14" lengthAdjust="spacing" textLength="79" x="146.5" y="546.834">gross weight</text><text fill="#000000" font-family="sans-serif" font-size="14" lengthAdjust="spacing" textLength="74" x="146.5" y="565.4551">current kms</text><text fill="#000000" font-family="sans-serif" font-size="14" lengthAdjust="spacing" textLength="103" x="146.5" y="584.0762">registration date</text><text fill="#000000" font-family="sans-serif" font-size="14" lengthAdjust="spacing" textLength="99" x="146.5" y="602.6973">acquisition date</text><text fill="#000000" font-family="sans-serif" font-size="14" lengthAdjust="spacing" textLength="210" x="146.5" y="621.3184">maintenance/check-up frequency</text></g><!--class GreenSpace--><g id="elem_GreenSpace"><rect codeLine="38" fill="#F1F1F1" height="92.4844" id="GreenSpace" rx="2.5" ry="2.5" style="stroke:#181818;stroke-width:0.5;" width="86" x="381.5" y="197.5"/><text fill="#000000" font-family="sans-serif" font-size="14" lengthAdjust="spacing" textLength="80" x="384.5" y="217.6074">GreenSpace</text><line style="stroke:#181818;stroke-width:0.5;" x1="382.5" x2="466.5" y1="226.1211" y2="226.1211"/><text fill="#000000" font-family="sans-serif" font-size="14" lengthAdjust="spacing" textLength="35" x="387.5" y="245.2285">name</text><text fill="#000000" font-family="sans-serif" font-size="14" lengthAdjust="spacing" textLength="51" x="387.5" y="263.8496">address</text><text fill="#000000" font-family="sans-serif" font-size="14" lengthAdjust="spacing" textLength="64" x="387.5" y="282.4707">dimension</text></g><!--class Garden--><g id="elem_Garden"><rect codeLine="44" fill="#F1F1F1" height="36.6211" id="Garden" rx="2.5" ry="2.5" style="stroke:#181818;stroke-width:0.5;" width="54" x="397.5" y="499"/><text fill="#000000" font-family="sans-serif" font-size="14" lengthAdjust="spacing" textLength="48" x="400.5" y="519.1074">Garden</text><line style="stroke:#181818;stroke-width:0.5;" x1="398.5" x2="450.5" y1="527.6211" y2="527.6211"/></g><!--class MediumSizedPark--><g id="elem_MediumSizedPark"><rect codeLine="47" fill="#F1F1F1" height="36.6211" id="MediumSizedPark" rx="2.5" ry="2.5" style="stroke:#181818;stroke-width:0.5;" width="118" x="486.5" y="499"/><text fill="#000000" font-family="sans-serif" font-size="14" lengthAdjust="spacing" textLength="112" x="489.5" y="519.1074">MediumSizedPark</text><line style="stroke:#181818;stroke-width:0.5;" x1="487.5" x2="603.5" y1="527.6211" y2="527.6211"/></g><!--class LargeSizedPark--><g id="elem_LargeSizedPark"><rect codeLine="50" fill="#F1F1F1" height="36.6211" id="LargeSizedPark" rx="2.5" ry="2.5" style="stroke:#181818;stroke-width:0.5;" width="106" x="639.5" y="499"/><text fill="#000000" font-family="sans-serif" font-size="14" lengthAdjust="spacing" textLength="100" x="642.5" y="519.1074">LargeSizedPark</text><line style="stroke:#181818;stroke-width:0.5;" x1="640.5" x2="744.5" y1="527.6211" y2="527.6211"/></g><!--class Organization--><g id="elem_Organization"><rect codeLine="53" fill="#F1F1F1" height="73.8633" id="Organization" rx="2.5" ry="2.5" style="stroke:#181818;stroke-width:0.5;" width="86" x="289.5" y="7"/><text fill="#000000" font-family="sans-serif" font-size="14" lengthAdjust="spacing" textLength="80" x="292.5" y="27.1074">Organization</text><line style="stroke:#181818;stroke-width:0.5;" x1="290.5" x2="374.5" y1="35.6211" y2="35.6211"/><text fill="#000000" font-family="sans-serif" font-size="14" lengthAdjust="spacing" textLength="35" x="295.5" y="54.7285">name</text><text fill="#000000" font-family="sans-serif" font-size="14" lengthAdjust="spacing" textLength="51" x="295.5" y="73.3496">address</text></g><!--reverse link Collaborator to VFM--><g id="link_Collaborator_VFM"><path codeLine="58" d="M164.9433,341.2659 C116.4733,401.7459 65.86,464.89 38.54,498.98 " fill="none" id="Collaborator-backto-VFM" style="stroke:#181818;stroke-width:1.0;"/><polygon fill="none" points="176.2,327.22,160.2614,337.5137,169.6253,345.0181,176.2,327.22" style="stroke:#181818;stroke-width:1.0;"/></g><!--link VFM to Vehicle--><g id="link_VFM_Vehicle"><path codeLine="59" d="M42.31,517.5 C63.95,517.5 102.28,517.5 140.28,517.5 " fill="none" id="VFM-Vehicle" style="stroke:#181818;stroke-width:1.0;"/><polygon fill="#000000" points="69.25,505.1455,60.2049,502.2066,60.2049,508.0844,69.25,505.1455" style="stroke:#000000;stroke-width:1.0;"/><text fill="#000000" font-family="sans-serif" font-size="13" lengthAdjust="spacing" textLength="49" x="73.25" y="510.5283">chooses</text><text fill="#000000" font-family="sans-serif" font-size="13" lengthAdjust="spacing" textLength="7" x="49.9017" y="511.6195">1</text><text fill="#000000" font-family="sans-serif" font-size="13" lengthAdjust="spacing" textLength="20" x="112.5275" y="532.0603">1..*</text></g><!--link Collaborator to GreenSpace--><g id="link_Collaborator_GreenSpace"><path codeLine="60" d="M310.53,243.5 C334.26,243.5 360.21,243.5 381.35,243.5 " fill="none" id="Collaborator-GreenSpace" style="stroke:#181818;stroke-width:1.0;"/><polygon fill="#000000" points="328,231.1455,337.0451,234.0844,337.0451,228.2066,328,231.1455" style="stroke:#000000;stroke-width:1.0;"/><text fill="#000000" font-family="sans-serif" font-size="13" lengthAdjust="spacing" textLength="21" x="342" y="236.5283">has</text><text fill="#000000" font-family="sans-serif" font-size="13" lengthAdjust="spacing" textLength="20" x="318.5768" y="258.4215">1..*</text><text fill="#000000" font-family="sans-serif" font-size="13" lengthAdjust="spacing" textLength="7" x="366.6236" y="239.1045">1</text></g><!--link GreenSpace to Vehicle--><g id="link_GreenSpace_Vehicle"><path codeLine="61" d="M395.74,289.72 C375.56,321.44 347.67,365.29 321.79,405.99 " fill="none" id="GreenSpace-Vehicle" style="stroke:#181818;stroke-width:1.0;"/><polygon fill="#000000" points="350.8167,370.8645,358.1507,364.8095,353.191,361.6551,350.8167,370.8645" style="stroke:#000000;stroke-width:1.0;"/><text fill="#000000" font-family="sans-serif" font-size="13" lengthAdjust="spacing" textLength="21" x="362.5" y="372.0283">has</text><text fill="#000000" font-family="sans-serif" font-size="13" lengthAdjust="spacing" textLength="7" x="383.8002" y="312.1125">1</text><text fill="#000000" font-family="sans-serif" font-size="13" lengthAdjust="spacing" textLength="20" x="306.0291" y="394.5963">1..*</text></g><!--reverse link GreenSpace to Garden--><g id="link_GreenSpace_Garden"><path codeLine="62" d="M424.5,307.72 C424.5,368.9 424.5,457.19 424.5,498.94 " fill="none" id="GreenSpace-backto-Garden" style="stroke:#181818;stroke-width:1.0;"/><polygon fill="none" points="424.5,289.72,418.5,307.72,430.5,307.72,424.5,289.72" style="stroke:#181818;stroke-width:1.0;"/></g><!--reverse link GreenSpace to MediumSizedPark--><g id="link_GreenSpace_MediumSizedPark"><path codeLine="63" d="M451.9347,306.1667 C479.1447,367.3467 519.12,457.19 537.69,498.94 " fill="none" id="GreenSpace-backto-MediumSizedPark" style="stroke:#181818;stroke-width:1.0;"/><polygon fill="none" points="444.62,289.72,446.4525,308.605,457.417,303.7285,444.62,289.72" style="stroke:#181818;stroke-width:1.0;"/></g><!--reverse link GreenSpace to LargeSizedPark--><g id="link_GreenSpace_LargeSizedPark"><path codeLine="64" d="M482.4446,284.2938 C524.7346,314.3338 574.73,353.49 621.5,406 C647.89,435.63 671.21,476.03 683.44,498.87 " fill="none" id="GreenSpace-backto-LargeSizedPark" style="stroke:#181818;stroke-width:1.0;"/><polygon fill="none" points="467.77,273.87,478.97,289.1854,485.9192,279.4023,467.77,273.87" style="stroke:#181818;stroke-width:1.0;"/></g><!--link Organization to GreenSpace--><g id="link_Organization_GreenSpace"><path codeLine="65" d="M351.6,81.11 C356.57,90.77 361.83,101.23 366.5,111 C380.1,139.48 394.42,171.93 405.43,197.46 " fill="none" id="Organization-GreenSpace" style="stroke:#181818;stroke-width:1.0;"/><polygon fill="#000000" points="382.5995,125.1834,381.4688,115.7403,376.1342,118.2083,382.5995,125.1834" style="stroke:#000000;stroke-width:1.0;"/><text fill="#000000" font-family="sans-serif" font-size="13" lengthAdjust="spacing" textLength="30" x="389.5" y="126.0283">owns</text><text fill="#000000" font-family="sans-serif" font-size="13" lengthAdjust="spacing" textLength="7" x="347.2813" y="103.0143">1</text><text fill="#000000" font-family="sans-serif" font-size="13" lengthAdjust="spacing" textLength="20" x="380.9787" y="186.1221">1..*</text></g><!--link Organization to Collaborator--><g id="link_Organization_Collaborator"><path codeLine="66" d="M311.1,81.22 C305.76,90.77 300.21,101.17 295.5,111 C288.05,126.54 280.71,143.41 273.98,159.72 " fill="none" id="Organization-Collaborator" style="stroke:#181818;stroke-width:1.0;"/><polygon fill="#000000" points="302.6374,116.1254,296.1139,123.046,301.4277,125.5587,302.6374,116.1254" style="stroke:#000000;stroke-width:1.0;"/><text fill="#000000" font-family="sans-serif" font-size="13" lengthAdjust="spacing" textLength="52" x="309.5" y="126.0283">works for</text><text fill="#000000" font-family="sans-serif" font-size="13" lengthAdjust="spacing" textLength="7" x="286.9822" y="102.8561">1</text><text fill="#000000" font-family="sans-serif" font-size="13" lengthAdjust="spacing" textLength="20" x="255.8259" y="148.8319">1..*</text></g><!--SRC=[TL9TQnmn37pthn3xKYXishmU8L0QMW9DMxZITvsjNPlrnqRsSbpQ_lVQQ-xETsaN3B8qOur66oVZPsHqu88FKdDm18aN4l5KcL5EED8s7Im1aqpeHzi2eaOLziQFCA2D9CGRIqE2583Dg1CeKrWcUD6GfCKOFwJ4PhSaUfJ1RyqBmNkXZIAGXgMbM2-EaWug2h5ou6Em5dU1CGM6NmBovz7H6kmC9wqmrHigPsBCZH_E6SKKunhdbWbbUlH3MEz6FGIvEFBfns6cgzJNnUs8nP-ZY9-Vdchh9aNQPD4rFTlSClEhAaPV8nSKsJLAnnu9kGOZX_pAdefdLU32d5l3vAfWfj74bEVE4y5vIFcyc6WkamwDJ-JHItedDScfNsOOc9uNyl9mrloPYVmsRvYkdMoTKYPRK7niYCYAV2QTCa-apEBA4jLtvAajVK7E_y-_AjzuH6zUrf7-8o1ZBpP-zxllY_qY7-XkkxxBuDkRcxVTSGCRa3g4I17kBwbTXVM5reo-0OqHxaHZHW7q_P5mUhVWxblSAgPwyIfzPSYh-gKhehNYgdyhDUnzqN25pXQqX7Rg3Um3Jn66ujrV]--></g></svg>