<?xml version="1.0" encoding="us-ascii" standalone="no"?><svg xmlns="http://www.w3.org/2000/svg" xmlns:xlink="http://www.w3.org/1999/xlink" contentStyleType="text/css" height="844px" preserveAspectRatio="none" style="width:1061px;height:844px;background:#FFFFFF;" version="1.1" viewBox="0 0 1061 844" width="1061px" zoomAndPan="magnify"><defs/><g><rect fill="#FFFFFF" height="649.9063" style="stroke:#181818;stroke-width:1.0;" width="10" x="74" y="93.6211"/><rect fill="#FFFFFF" height="626.6152" style="stroke:#181818;stroke-width:1.0;" width="10" x="355" y="116.9121"/><rect fill="#FFFFFF" height="335.123" style="stroke:#181818;stroke-width:1.0;" width="10" x="602" y="377.1133"/><rect fill="#FFFFFF" height="31.291" style="stroke:#181818;stroke-width:1.0;" width="10" x="750" y="408.4043"/><rect fill="#FFFFFF" height="31.291" style="stroke:#181818;stroke-width:1.0;" width="10" x="857" y="470.9863"/><rect fill="#FFFFFF" height="95.5039" style="stroke:#181818;stroke-width:1.0;" width="10" x="981.5" y="585.4414"/><line style="stroke:#181818;stroke-width:0.5;stroke-dasharray:5.0,5.0;" x1="79" x2="79" y1="83.6211" y2="761.5273"/><line style="stroke:#181818;stroke-width:0.5;stroke-dasharray:5.0,5.0;" x1="359.5" x2="359.5" y1="83.6211" y2="761.5273"/><line style="stroke:#181818;stroke-width:0.5;stroke-dasharray:5.0,5.0;" x1="606.5" x2="606.5" y1="83.6211" y2="761.5273"/><line style="stroke:#181818;stroke-width:0.5;stroke-dasharray:5.0,5.0;" x1="754.5" x2="754.5" y1="83.6211" y2="761.5273"/><line style="stroke:#181818;stroke-width:0.5;stroke-dasharray:5.0,5.0;" x1="861.5" x2="861.5" y1="83.6211" y2="761.5273"/><line style="stroke:#181818;stroke-width:0.5;stroke-dasharray:5.0,5.0;" x1="986.5" x2="986.5" y1="83.6211" y2="761.5273"/><text fill="#000000" font-family="sans-serif" font-size="14" lengthAdjust="spacing" textLength="142" x="5" y="80.1074">Vehicle Fleet Manager</text><ellipse cx="79" cy="13.5" fill="#E3E3E3" rx="8" ry="8" style="stroke:#181818;stroke-width:0.5;"/><path d="M79,21.5 L79,48.5 M66,29.5 L92,29.5 M79,48.5 L66,63.5 M79,48.5 L92,63.5 " fill="none" style="stroke:#181818;stroke-width:0.5;"/><text fill="#000000" font-family="sans-serif" font-size="14" lengthAdjust="spacing" textLength="142" x="5" y="775.6348">Vehicle Fleet Manager</text><ellipse cx="79" cy="787.6484" fill="#E3E3E3" rx="8" ry="8" style="stroke:#181818;stroke-width:0.5;"/><path d="M79,795.6484 L79,822.6484 M66,803.6484 L92,803.6484 M79,822.6484 L66,837.6484 M79,822.6484 L92,837.6484 " fill="none" style="stroke:#181818;stroke-width:0.5;"/><rect fill="#E3E3E3" height="32.6211" rx="2.5" ry="2.5" style="stroke:#181818;stroke-width:0.5;" width="129" x="295.5" y="50"/><text fill="#000000" font-family="sans-serif" font-size="14" lengthAdjust="spacing" textLength="115" x="302.5" y="72.1074">:RegisterVehicleUI</text><rect fill="#E3E3E3" height="32.6211" rx="2.5" ry="2.5" style="stroke:#181818;stroke-width:0.5;" width="129" x="295.5" y="760.5273"/><text fill="#000000" font-family="sans-serif" font-size="14" lengthAdjust="spacing" textLength="115" x="302.5" y="782.6348">:RegisterVehicleUI</text><rect fill="#E3E3E3" height="32.6211" rx="2.5" ry="2.5" style="stroke:#181818;stroke-width:0.5;" width="179" x="517.5" y="50"/><text fill="#000000" font-family="sans-serif" font-size="14" lengthAdjust="spacing" textLength="165" x="524.5" y="72.1074">:RegisterVehicleController</text><rect fill="#E3E3E3" height="32.6211" rx="2.5" ry="2.5" style="stroke:#181818;stroke-width:0.5;" width="179" x="517.5" y="760.5273"/><text fill="#000000" font-family="sans-serif" font-size="14" lengthAdjust="spacing" textLength="165" x="524.5" y="782.6348">:RegisterVehicleController</text><rect fill="#E3E3E3" height="32.6211" rx="2.5" ry="2.5" style="stroke:#181818;stroke-width:0.5;" width="97" x="706.5" y="50"/><text fill="#000000" font-family="sans-serif" font-size="14" lengthAdjust="spacing" textLength="83" x="713.5" y="72.1074">:Repositories</text><rect fill="#E3E3E3" height="32.6211" rx="2.5" ry="2.5" style="stroke:#181818;stroke-width:0.5;" width="97" x="706.5" y="760.5273"/><text fill="#000000" font-family="sans-serif" font-size="14" lengthAdjust="spacing" textLength="83" x="713.5" y="782.6348">:Repositories</text><rect fill="#E3E3E3" height="51.2422" rx="2.5" ry="2.5" style="stroke:#181818;stroke-width:0.5;" width="97" x="813.5" y="31.3789"/><text fill="#000000" font-family="sans-serif" font-size="14" lengthAdjust="spacing" textLength="74" x="825" y="53.4863">repositories</text><text fill="#000000" font-family="sans-serif" font-size="14" lengthAdjust="spacing" textLength="83" x="820.5" y="72.1074">:Repositories</text><rect fill="#E3E3E3" height="51.2422" rx="2.5" ry="2.5" style="stroke:#181818;stroke-width:0.5;" width="97" x="813.5" y="760.5273"/><text fill="#000000" font-family="sans-serif" font-size="14" lengthAdjust="spacing" textLength="74" x="825" y="782.6348">repositories</text><text fill="#000000" font-family="sans-serif" font-size="14" lengthAdjust="spacing" textLength="83" x="820.5" y="801.2559">:Repositories</text><rect fill="#E3E3E3" height="51.2422" rx="2.5" ry="2.5" style="stroke:#181818;stroke-width:0.5;" width="132" x="920.5" y="31.3789"/><text fill="#000000" font-family="sans-serif" font-size="14" lengthAdjust="spacing" textLength="112" x="930.5" y="53.4863">vehicleRepository</text><text fill="#000000" font-family="sans-serif" font-size="14" lengthAdjust="spacing" textLength="118" x="927.5" y="72.1074">:VehicleRepository</text><rect fill="#E3E3E3" height="51.2422" rx="2.5" ry="2.5" style="stroke:#181818;stroke-width:0.5;" width="132" x="920.5" y="760.5273"/><text fill="#000000" font-family="sans-serif" font-size="14" lengthAdjust="spacing" textLength="112" x="930.5" y="782.6348">vehicleRepository</text><text fill="#000000" font-family="sans-serif" font-size="14" lengthAdjust="spacing" textLength="118" x="927.5" y="801.2559">:VehicleRepository</text><rect fill="#FFFFFF" height="649.9063" style="stroke:#181818;stroke-width:1.0;" width="10" x="74" y="93.6211"/><rect fill="#FFFFFF" height="626.6152" style="stroke:#181818;stroke-width:1.0;" width="10" x="355" y="116.9121"/><rect fill="#FFFFFF" height="335.123" style="stroke:#181818;stroke-width:1.0;" width="10" x="602" y="377.1133"/><rect fill="#FFFFFF" height="31.291" style="stroke:#181818;stroke-width:1.0;" width="10" x="750" y="408.4043"/><rect fill="#FFFFFF" height="31.291" style="stroke:#181818;stroke-width:1.0;" width="10" x="857" y="470.9863"/><rect fill="#FFFFFF" height="95.5039" style="stroke:#181818;stroke-width:1.0;" width="10" x="981.5" y="585.4414"/><polygon fill="#181818" points="343,112.9121,353,116.9121,343,120.9121,347,116.9121" style="stroke:#181818;stroke-width:1.0;"/><line style="stroke:#181818;stroke-width:1.0;" x1="84" x2="349" y1="116.9121" y2="116.9121"/><text fill="#000000" font-family="sans-serif" font-size="13" font-weight="bold" lengthAdjust="spacing" textLength="7" x="91" y="111.6494">1</text><text fill="#000000" font-family="sans-serif" font-size="13" lengthAdjust="spacing" textLength="171" x="102" y="111.6494">asks to register a new vehicle</text><polygon fill="#181818" points="95,196.0762,85,200.0762,95,204.0762,91,200.0762" style="stroke:#181818;stroke-width:1.0;"/><line style="stroke:#181818;stroke-width:1.0;stroke-dasharray:2.0,2.0;" x1="89" x2="354" y1="200.0762" y2="200.0762"/><text fill="#000000" font-family="sans-serif" font-size="13" font-weight="bold" lengthAdjust="spacing" textLength="7" x="101" y="168.877">2</text><text fill="#000000" font-family="sans-serif" font-size="13" lengthAdjust="spacing" textLength="204" x="112" y="142.9404">requests data (plateNumber, brand,</text><text fill="#000000" font-family="sans-serif" font-size="13" lengthAdjust="spacing" textLength="179" x="116" y="160.2314">model,type, tare, grossWeight,</text><text fill="#000000" font-family="sans-serif" font-size="13" lengthAdjust="spacing" textLength="166" x="116" y="177.5225">currentKms,registrationDate,</text><text fill="#000000" font-family="sans-serif" font-size="13" lengthAdjust="spacing" textLength="202" x="112" y="194.8135">acquisitionDate, serviceFrequency)</text><polygon fill="#181818" points="343,227.3672,353,231.3672,343,235.3672,347,231.3672" style="stroke:#181818;stroke-width:1.0;"/><line style="stroke:#181818;stroke-width:1.0;" x1="84" x2="349" y1="231.3672" y2="231.3672"/><text fill="#000000" font-family="sans-serif" font-size="13" font-weight="bold" lengthAdjust="spacing" textLength="7" x="91" y="226.1045">3</text><text fill="#000000" font-family="sans-serif" font-size="13" lengthAdjust="spacing" textLength="122" x="102" y="226.1045">types requested data</text><polygon fill="#181818" points="95,258.6582,85,262.6582,95,266.6582,91,262.6582" style="stroke:#181818;stroke-width:1.0;"/><line style="stroke:#181818;stroke-width:1.0;stroke-dasharray:2.0,2.0;" x1="89" x2="354" y1="262.6582" y2="262.6582"/><text fill="#000000" font-family="sans-serif" font-size="13" font-weight="bold" lengthAdjust="spacing" textLength="7" x="101" y="257.3955">4</text><text fill="#000000" font-family="sans-serif" font-size="13" lengthAdjust="spacing" textLength="236" x="112" y="257.3955">shows all data and requests confirmation</text><polygon fill="#181818" points="343,289.9492,353,293.9492,343,297.9492,347,293.9492" style="stroke:#181818;stroke-width:1.0;"/><line style="stroke:#181818;stroke-width:1.0;" x1="84" x2="349" y1="293.9492" y2="293.9492"/><text fill="#000000" font-family="sans-serif" font-size="13" font-weight="bold" lengthAdjust="spacing" textLength="7" x="91" y="288.6865">5</text><text fill="#000000" font-family="sans-serif" font-size="13" lengthAdjust="spacing" textLength="78" x="102" y="288.6865">confirms data</text><polygon fill="#181818" points="590,373.1133,600,377.1133,590,381.1133,594,377.1133" style="stroke:#181818;stroke-width:1.0;"/><line style="stroke:#181818;stroke-width:1.0;" x1="365" x2="596" y1="377.1133" y2="377.1133"/><text fill="#000000" font-family="sans-serif" font-size="13" font-weight="bold" lengthAdjust="spacing" textLength="7" x="372" y="345.9141">6</text><text fill="#000000" font-family="sans-serif" font-size="13" lengthAdjust="spacing" textLength="207" x="383" y="319.9775">registerVehicle(plateNumber, brand,</text><text fill="#000000" font-family="sans-serif" font-size="13" lengthAdjust="spacing" textLength="179" x="387" y="337.2686">model,type, tare, grossWeight,</text><text fill="#000000" font-family="sans-serif" font-size="13" lengthAdjust="spacing" textLength="166" x="387" y="354.5596">currentKms,registrationDate,</text><text fill="#000000" font-family="sans-serif" font-size="13" lengthAdjust="spacing" textLength="202" x="383" y="371.8506">acquisitionDate, serviceFrequency)</text><polygon fill="#181818" points="738,404.4043,748,408.4043,738,412.4043,742,408.4043" style="stroke:#181818;stroke-width:1.0;"/><line style="stroke:#181818;stroke-width:1.0;" x1="612" x2="744" y1="408.4043" y2="408.4043"/><text fill="#000000" font-family="sans-serif" font-size="13" font-weight="bold" lengthAdjust="spacing" textLength="7" x="619" y="403.1416">7</text><text fill="#000000" font-family="sans-serif" font-size="13" lengthAdjust="spacing" textLength="75" x="630" y="403.1416">getInstance()</text><polygon fill="#181818" points="623,435.6953,613,439.6953,623,443.6953,619,439.6953" style="stroke:#181818;stroke-width:1.0;"/><line style="stroke:#181818;stroke-width:1.0;stroke-dasharray:2.0,2.0;" x1="617" x2="754" y1="439.6953" y2="439.6953"/><text fill="#000000" font-family="sans-serif" font-size="13" font-weight="bold" lengthAdjust="spacing" textLength="7" x="629" y="434.4326">8</text><text fill="#000000" font-family="sans-serif" font-size="13" lengthAdjust="spacing" textLength="67" x="640" y="434.4326">repositories</text><polygon fill="#181818" points="845,466.9863,855,470.9863,845,474.9863,849,470.9863" style="stroke:#181818;stroke-width:1.0;"/><line style="stroke:#181818;stroke-width:1.0;" x1="612" x2="851" y1="470.9863" y2="470.9863"/><text fill="#000000" font-family="sans-serif" font-size="13" font-weight="bold" lengthAdjust="spacing" textLength="7" x="619" y="465.7236">9</text><text fill="#000000" font-family="sans-serif" font-size="13" lengthAdjust="spacing" textLength="131" x="630" y="465.7236">getVehicleRepository()</text><polygon fill="#181818" points="623,498.2773,613,502.2773,623,506.2773,619,502.2773" style="stroke:#181818;stroke-width:1.0;"/><line style="stroke:#181818;stroke-width:1.0;stroke-dasharray:2.0,2.0;" x1="617" x2="861" y1="502.2773" y2="502.2773"/><text fill="#000000" font-family="sans-serif" font-size="13" font-weight="bold" lengthAdjust="spacing" textLength="14" x="629" y="497.0146">10</text><text fill="#000000" font-family="sans-serif" font-size="13" lengthAdjust="spacing" textLength="101" x="647" y="497.0146">vehicleRepository</text><polygon fill="#181818" points="969.5,581.4414,979.5,585.4414,969.5,589.4414,973.5,585.4414" style="stroke:#181818;stroke-width:1.0;"/><line style="stroke:#181818;stroke-width:1.0;" x1="612" x2="975.5" y1="585.4414" y2="585.4414"/><text fill="#000000" font-family="sans-serif" font-size="13" font-weight="bold" lengthAdjust="spacing" textLength="14" x="619" y="554.2422">11</text><text fill="#000000" font-family="sans-serif" font-size="13" lengthAdjust="spacing" textLength="207" x="637" y="528.3057">registerVehicle(plateNumber, brand,</text><text fill="#000000" font-family="sans-serif" font-size="13" lengthAdjust="spacing" textLength="179" x="641" y="545.5967">model,type, tare, grossWeight,</text><text fill="#000000" font-family="sans-serif" font-size="13" lengthAdjust="spacing" textLength="166" x="641" y="562.8877">currentKms,registrationDate,</text><text fill="#000000" font-family="sans-serif" font-size="13" lengthAdjust="spacing" textLength="202" x="637" y="580.1787">acquisitionDate, serviceFrequency)</text><rect fill="none" height="59.2129" style="stroke:#000000;stroke-width:1.5;" width="138" x="917.5" y="593.4414"/><path d="M917.5,593.4414 L979.5,593.4414 L979.5,602.4414 L969.5,612.4414 L917.5,612.4414 L917.5,593.4414 " fill="#EEEEEE" style="stroke:#000000;stroke-width:2.0;"/><text fill="#000000" font-family="sans-serif" font-size="13" font-weight="bold" lengthAdjust="spacing" textLength="17" x="930.5" y="609.4697">ref</text><text fill="#000000" font-family="sans-serif" font-size="12" lengthAdjust="spacing" textLength="90" x="941.5" y="629.3906">Register Vehicle</text><text fill="#000000" font-family="sans-serif" font-size="12" lengthAdjust="spacing" textLength="3" x="985" y="645.3516">&#160;</text><polygon fill="#181818" points="623,676.9453,613,680.9453,623,684.9453,619,680.9453" style="stroke:#181818;stroke-width:1.0;"/><line style="stroke:#181818;stroke-width:1.0;stroke-dasharray:2.0,2.0;" x1="617" x2="985.5" y1="680.9453" y2="680.9453"/><text fill="#000000" font-family="sans-serif" font-size="13" font-weight="bold" lengthAdjust="spacing" textLength="14" x="629" y="675.6826">12</text><text fill="#000000" font-family="sans-serif" font-size="13" lengthAdjust="spacing" textLength="39" x="647" y="675.6826">vehicle</text><polygon fill="#181818" points="376,708.2363,366,712.2363,376,716.2363,372,712.2363" style="stroke:#181818;stroke-width:1.0;"/><line style="stroke:#181818;stroke-width:1.0;stroke-dasharray:2.0,2.0;" x1="370" x2="606" y1="712.2363" y2="712.2363"/><text fill="#000000" font-family="sans-serif" font-size="13" font-weight="bold" lengthAdjust="spacing" textLength="14" x="382" y="706.9736">13</text><text fill="#000000" font-family="sans-serif" font-size="13" lengthAdjust="spacing" textLength="39" x="400" y="706.9736">vehicle</text><polygon fill="#181818" points="90,739.5273,80,743.5273,90,747.5273,86,743.5273" style="stroke:#181818;stroke-width:1.0;"/><line style="stroke:#181818;stroke-width:1.0;stroke-dasharray:2.0,2.0;" x1="84" x2="359" y1="743.5273" y2="743.5273"/><text fill="#000000" font-family="sans-serif" font-size="13" font-weight="bold" lengthAdjust="spacing" textLength="14" x="96" y="738.2646">14</text><text fill="#000000" font-family="sans-serif" font-size="13" lengthAdjust="spacing" textLength="158" x="114" y="738.2646">displays operation success</text><!--SRC=[pLN9Rjim4BthAmQ-D07i7_0XG90WWD6aABAubrneQYmHbaY5GzdrttT8oLf2sK5FxHmCY9nvyzuiDEsKheGL9PH66vbRKo8uMsD2tKqbv4va-EAE1O95wOJEYg43vI8r1wKps8g2C4b4xOokomtQ9FcMgnHXQupRcD-9aCvOcAqnLvBH7Wf41qz2CxwTWI2ulNzA6DKfgIgX7SoMpvWfScZRcBTLy7jRNNQxCzfPKnGjxDthysCKK1bIJ4SX1P_kuFYYl4BMC0wnWuXt7GFyVBnz7KVi6p8zCeUjFv-5sEZKbqhjXSDGaWHQumzOtB1yM7BOZi0PxaaZ7GHeF42Rj8_faBXetQ4tHbamcCTSCif7ZUG8Kk44N5K5H_m8JPp3nWgTpjyrJqcAnTmTAvo34vP_Csk8Vg7ASkSTP6qjQlUzf7b3omgdZBvdCBuMygDMhEzq0eHshoG-XEHQ7g_718TgVL8wiSGqqBmWXt9p8115qUXX_hr2QVHMsJ8mEv-mzQ8pcMx2K8N2ZIRldrLkIB1hUHZyqPMtm9mLJ8my2yhGhJJncakykevYE-YfVOcylKrbMRJry-NhroWAJ_7lqfs4-LLib4IBTKbIsE193G6m9nqjzYNcqwWdgX71_tIaHeLQVwdVuXRCdX-bhrsR6MdViFNdr-ja63PuEnazjBYUYtvNz-VGpxGk9f_4FGmFHezz1YfiulHpjOHK4VVuI60gR9e4L4k9rAp40CQ_uODF_-Vm1m00]--></g></svg>