<?xml version="1.0" encoding="us-ascii" standalone="no"?><svg xmlns="http://www.w3.org/2000/svg" xmlns:xlink="http://www.w3.org/1999/xlink" contentStyleType="text/css" height="593px" preserveAspectRatio="none" style="width:418px;height:593px;background:#FFFFFF;" version="1.1" viewBox="0 0 418 593" width="418px" zoomAndPan="magnify"><defs/><g><text fill="#000000" font-family="sans-serif" font-size="14" font-weight="bold" lengthAdjust="spacing" textLength="351" x="32.5" y="30.1074">System Sequence Diagram (SSD) - Alternative One</text><rect fill="#FFFFFF" height="331.2012" style="stroke:#181818;stroke-width:1.0;" width="10" x="61" y="151.8633"/><rect fill="#FFFFFF" height="31.291" style="stroke:#181818;stroke-width:1.0;" width="10" x="375" y="175.1543"/><rect fill="#FFFFFF" height="48.582" style="stroke:#181818;stroke-width:1.0;" width="10" x="375" y="237.7363"/><rect fill="#FFFFFF" height="31.291" style="stroke:#181818;stroke-width:1.0;" width="10" x="375" y="317.6094"/><rect fill="#FFFFFF" height="31.291" style="stroke:#181818;stroke-width:1.0;" width="10" x="375" y="380.1914"/><rect fill="#FFFFFF" height="31.291" style="stroke:#181818;stroke-width:1.0;" width="10" x="375" y="442.7734"/><line style="stroke:#181818;stroke-width:0.5;stroke-dasharray:5.0,5.0;" x1="66" x2="66" y1="141.8633" y2="492.0645"/><line style="stroke:#181818;stroke-width:0.5;stroke-dasharray:5.0,5.0;" x1="380" x2="380" y1="141.8633" y2="492.0645"/><text fill="#000000" font-family="sans-serif" font-size="14" lengthAdjust="spacing" textLength="116" x="5" y="119.7285">Human Resources</text><text fill="#000000" font-family="sans-serif" font-size="14" lengthAdjust="spacing" textLength="56" x="35" y="138.3496">Manager</text><ellipse cx="66" cy="53.1211" fill="#E3E3E3" rx="8" ry="8" style="stroke:#181818;stroke-width:0.5;"/><path d="M66,61.1211 L66,88.1211 M53,69.1211 L79,69.1211 M66,88.1211 L53,103.1211 M66,88.1211 L79,103.1211 " fill="none" style="stroke:#181818;stroke-width:0.5;"/><text fill="#000000" font-family="sans-serif" font-size="14" lengthAdjust="spacing" textLength="116" x="5" y="506.1719">Human Resources</text><text fill="#000000" font-family="sans-serif" font-size="14" lengthAdjust="spacing" textLength="56" x="35" y="524.793">Manager</text><ellipse cx="66" cy="536.8066" fill="#E3E3E3" rx="8" ry="8" style="stroke:#181818;stroke-width:0.5;"/><path d="M66,544.8066 L66,571.8066 M53,552.8066 L79,552.8066 M66,571.8066 L53,586.8066 M66,571.8066 L79,586.8066 " fill="none" style="stroke:#181818;stroke-width:0.5;"/><rect fill="#E3E3E3" height="32.6211" rx="2.5" ry="2.5" style="stroke:#181818;stroke-width:0.5;" width="64" x="348" y="108.2422"/><text fill="#000000" font-family="sans-serif" font-size="14" lengthAdjust="spacing" textLength="50" x="355" y="130.3496">:System</text><rect fill="#E3E3E3" height="32.6211" rx="2.5" ry="2.5" style="stroke:#181818;stroke-width:0.5;" width="64" x="348" y="491.0645"/><text fill="#000000" font-family="sans-serif" font-size="14" lengthAdjust="spacing" textLength="50" x="355" y="513.1719">:System</text><rect fill="#FFFFFF" height="331.2012" style="stroke:#181818;stroke-width:1.0;" width="10" x="61" y="151.8633"/><rect fill="#FFFFFF" height="31.291" style="stroke:#181818;stroke-width:1.0;" width="10" x="375" y="175.1543"/><rect fill="#FFFFFF" height="48.582" style="stroke:#181818;stroke-width:1.0;" width="10" x="375" y="237.7363"/><rect fill="#FFFFFF" height="31.291" style="stroke:#181818;stroke-width:1.0;" width="10" x="375" y="317.6094"/><rect fill="#FFFFFF" height="31.291" style="stroke:#181818;stroke-width:1.0;" width="10" x="375" y="380.1914"/><rect fill="#FFFFFF" height="31.291" style="stroke:#181818;stroke-width:1.0;" width="10" x="375" y="442.7734"/><polygon fill="#181818" points="363,171.1543,373,175.1543,363,179.1543,367,175.1543" style="stroke:#181818;stroke-width:1.0;"/><line style="stroke:#181818;stroke-width:1.0;" x1="71" x2="369" y1="175.1543" y2="175.1543"/><text fill="#000000" font-family="sans-serif" font-size="13" font-weight="bold" lengthAdjust="spacing" textLength="7" x="78" y="169.8916">1</text><text fill="#000000" font-family="sans-serif" font-size="13" lengthAdjust="spacing" textLength="154" x="89" y="169.8916">asks to create a new team</text><polygon fill="#181818" points="82,202.4453,72,206.4453,82,210.4453,78,206.4453" style="stroke:#181818;stroke-width:1.0;"/><line style="stroke:#181818;stroke-width:1.0;stroke-dasharray:2.0,2.0;" x1="76" x2="379" y1="206.4453" y2="206.4453"/><text fill="#000000" font-family="sans-serif" font-size="13" font-weight="bold" lengthAdjust="spacing" textLength="7" x="88" y="201.1826">2</text><text fill="#000000" font-family="sans-serif" font-size="13" lengthAdjust="spacing" textLength="269" x="99" y="201.1826">request the maximum and minimum team size</text><polygon fill="#181818" points="363,233.7363,373,237.7363,363,241.7363,367,237.7363" style="stroke:#181818;stroke-width:1.0;"/><line style="stroke:#181818;stroke-width:1.0;" x1="71" x2="369" y1="237.7363" y2="237.7363"/><text fill="#000000" font-family="sans-serif" font-size="13" font-weight="bold" lengthAdjust="spacing" textLength="7" x="78" y="232.4736">3</text><text fill="#000000" font-family="sans-serif" font-size="13" lengthAdjust="spacing" textLength="121" x="89" y="232.4736">types requested size</text><polygon fill="#181818" points="82,282.3184,72,286.3184,82,290.3184,78,286.3184" style="stroke:#181818;stroke-width:1.0;"/><line style="stroke:#181818;stroke-width:1.0;stroke-dasharray:2.0,2.0;" x1="76" x2="379" y1="286.3184" y2="286.3184"/><text fill="#000000" font-family="sans-serif" font-size="13" font-weight="bold" lengthAdjust="spacing" textLength="7" x="88" y="272.4102">4</text><text fill="#000000" font-family="sans-serif" font-size="13" lengthAdjust="spacing" textLength="264" x="99" y="263.7646">shows the list of skills and asks you to select</text><text fill="#000000" font-family="sans-serif" font-size="13" lengthAdjust="spacing" textLength="186" x="99" y="281.0557">all the ones needed for that task</text><polygon fill="#181818" points="363,313.6094,373,317.6094,363,321.6094,367,317.6094" style="stroke:#181818;stroke-width:1.0;"/><line style="stroke:#181818;stroke-width:1.0;" x1="71" x2="369" y1="317.6094" y2="317.6094"/><text fill="#000000" font-family="sans-serif" font-size="13" font-weight="bold" lengthAdjust="spacing" textLength="7" x="78" y="312.3467">5</text><text fill="#000000" font-family="sans-serif" font-size="13" lengthAdjust="spacing" textLength="91" x="89" y="312.3467">select the skills</text><polygon fill="#181818" points="82,344.9004,72,348.9004,82,352.9004,78,348.9004" style="stroke:#181818;stroke-width:1.0;"/><line style="stroke:#181818;stroke-width:1.0;stroke-dasharray:2.0,2.0;" x1="76" x2="379" y1="348.9004" y2="348.9004"/><text fill="#000000" font-family="sans-serif" font-size="13" font-weight="bold" lengthAdjust="spacing" textLength="7" x="88" y="343.6377">6</text><text fill="#000000" font-family="sans-serif" font-size="13" lengthAdjust="spacing" textLength="236" x="99" y="343.6377">shows all data and requests confirmation</text><polygon fill="#181818" points="363,376.1914,373,380.1914,363,384.1914,367,380.1914" style="stroke:#181818;stroke-width:1.0;"/><line style="stroke:#181818;stroke-width:1.0;" x1="71" x2="369" y1="380.1914" y2="380.1914"/><text fill="#000000" font-family="sans-serif" font-size="13" font-weight="bold" lengthAdjust="spacing" textLength="7" x="78" y="374.9287">7</text><text fill="#000000" font-family="sans-serif" font-size="13" lengthAdjust="spacing" textLength="78" x="89" y="374.9287">confirms data</text><polygon fill="#181818" points="82,407.4824,72,411.4824,82,415.4824,78,411.4824" style="stroke:#181818;stroke-width:1.0;"/><line style="stroke:#181818;stroke-width:1.0;stroke-dasharray:2.0,2.0;" x1="76" x2="379" y1="411.4824" y2="411.4824"/><text fill="#000000" font-family="sans-serif" font-size="13" font-weight="bold" lengthAdjust="spacing" textLength="7" x="88" y="406.2197">8</text><text fill="#000000" font-family="sans-serif" font-size="13" lengthAdjust="spacing" textLength="185" x="99" y="406.2197">show the team recommendation</text><polygon fill="#181818" points="363,438.7734,373,442.7734,363,446.7734,367,442.7734" style="stroke:#181818;stroke-width:1.0;"/><line style="stroke:#181818;stroke-width:1.0;" x1="71" x2="369" y1="442.7734" y2="442.7734"/><text fill="#000000" font-family="sans-serif" font-size="13" font-weight="bold" lengthAdjust="spacing" textLength="7" x="78" y="437.5107">9</text><text fill="#000000" font-family="sans-serif" font-size="13" lengthAdjust="spacing" textLength="179" x="89" y="437.5107">accepts team recommendation</text><polygon fill="#181818" points="82,470.0645,72,474.0645,82,478.0645,78,474.0645" style="stroke:#181818;stroke-width:1.0;"/><line style="stroke:#181818;stroke-width:1.0;stroke-dasharray:2.0,2.0;" x1="76" x2="379" y1="474.0645" y2="474.0645"/><text fill="#000000" font-family="sans-serif" font-size="13" font-weight="bold" lengthAdjust="spacing" textLength="14" x="88" y="468.8018">10</text><text fill="#000000" font-family="sans-serif" font-size="13" lengthAdjust="spacing" textLength="158" x="106" y="468.8018">displays operation success</text><!--SRC=[dPF1JiCm38RlVGfh9pZi1NP0GaA22q9QhxkOr5kZ9Kw97KPvUjni0uIOj2qdI_dz-_lZLhQU1ymO8IPEhiyf4cWkrCZtpO1kYnjgTGm4cPmYRy9lWVJOfPtd3Qmn23MDUZLfEufIX9RU2h4ZUF2ucUGtRVjm2tEu3qgPKVqxmGjR6nPDNE8hPQkTfWopfnAHOKcIIdOaAtv6DfOy0nHuN3urHg3U-G5PORROZwoN-x8Q-NTKgke6x5W1yxiZtiB4Mm5Du39DEWIc7IXXhEhl_gCX7CwXVsvMa-F2diQ2YeBs114_V2mHa3k8dcizMOBuJweM7Vth_1TEnu7aQ4tTJ__vNDAddLIgu0qlhS5M5u9Kk1f-J6Lw0A5WsrqnXb3bYMqq4tKsTstRq1ujdNLS4c1lMltsOw-Ydv0wLApCXzSGS8dNFaVxX19VmdJeasfv1KzDKzTflqEAaRYxc06Tey4odB8vdwZpCWGS1T90kHg057CNES7p1G00]--></g></svg>