<?xml version="1.0" encoding="us-ascii" standalone="no"?><svg xmlns="http://www.w3.org/2000/svg" xmlns:xlink="http://www.w3.org/1999/xlink" contentStyleType="text/css" height="395px" preserveAspectRatio="none" style="width:457px;height:395px;background:#FFFFFF;" version="1.1" viewBox="0 0 457 395" width="457px" zoomAndPan="magnify"><defs/><g><text fill="#000000" font-family="sans-serif" font-size="14" font-weight="bold" lengthAdjust="spacing" textLength="363" x="46.25" y="28.5352">System Sequence Diagram (SSD) - Alternative One</text><rect fill="#FFFFFF" height="176.8633" style="stroke:#181818;stroke-width:1.0;" width="10" x="48.5" y="128.9766"/><rect fill="#FFFFFF" height="29.3105" style="stroke:#181818;stroke-width:1.0;" width="10" x="413.5" y="150.2871"/><rect fill="#FFFFFF" height="29.3105" style="stroke:#181818;stroke-width:1.0;" width="10" x="413.5" y="208.9082"/><rect fill="#FFFFFF" height="29.3105" style="stroke:#181818;stroke-width:1.0;" width="10" x="413.5" y="267.5293"/><line style="stroke:#181818;stroke-width:0.5;stroke-dasharray:5.0,5.0;" x1="53" x2="53" y1="118.9766" y2="314.8398"/><line style="stroke:#181818;stroke-width:0.5;stroke-dasharray:5.0,5.0;" x1="418.5" x2="418.5" y1="118.9766" y2="314.8398"/><text fill="#000000" font-family="sans-serif" font-size="14" lengthAdjust="spacing" textLength="91" x="5" y="116.0234">Fleet Manage</text><ellipse cx="53.5" cy="50.9883" fill="#E3E3E3" rx="8" ry="8" style="stroke:#181818;stroke-width:0.5;"/><path d="M53.5,58.9883 L53.5,85.9883 M40.5,66.9883 L66.5,66.9883 M53.5,85.9883 L40.5,100.9883 M53.5,85.9883 L66.5,100.9883 " fill="none" style="stroke:#181818;stroke-width:0.5;"/><text fill="#000000" font-family="sans-serif" font-size="14" lengthAdjust="spacing" textLength="91" x="5" y="327.375">Fleet Manage</text><ellipse cx="53.5" cy="338.8281" fill="#E3E3E3" rx="8" ry="8" style="stroke:#181818;stroke-width:0.5;"/><path d="M53.5,346.8281 L53.5,373.8281 M40.5,354.8281 L66.5,354.8281 M53.5,373.8281 L40.5,388.8281 M53.5,373.8281 L66.5,388.8281 " fill="none" style="stroke:#181818;stroke-width:0.5;"/><rect fill="#E3E3E3" height="30.4883" rx="2.5" ry="2.5" style="stroke:#181818;stroke-width:0.5;" width="66" x="385.5" y="87.4883"/><text fill="#000000" font-family="sans-serif" font-size="14" lengthAdjust="spacing" textLength="52" x="392.5" y="108.0234">:System</text><rect fill="#E3E3E3" height="30.4883" rx="2.5" ry="2.5" style="stroke:#181818;stroke-width:0.5;" width="66" x="385.5" y="313.8398"/><text fill="#000000" font-family="sans-serif" font-size="14" lengthAdjust="spacing" textLength="52" x="392.5" y="334.375">:System</text><rect fill="#FFFFFF" height="176.8633" style="stroke:#181818;stroke-width:1.0;" width="10" x="48.5" y="128.9766"/><rect fill="#FFFFFF" height="29.3105" style="stroke:#181818;stroke-width:1.0;" width="10" x="413.5" y="150.2871"/><rect fill="#FFFFFF" height="29.3105" style="stroke:#181818;stroke-width:1.0;" width="10" x="413.5" y="208.9082"/><rect fill="#FFFFFF" height="29.3105" style="stroke:#181818;stroke-width:1.0;" width="10" x="413.5" y="267.5293"/><polygon fill="#181818" points="401.5,146.2871,411.5,150.2871,401.5,154.2871,405.5,150.2871" style="stroke:#181818;stroke-width:1.0;"/><line style="stroke:#181818;stroke-width:1.0;" x1="58.5" x2="407.5" y1="150.2871" y2="150.2871"/><text fill="#000000" font-family="sans-serif" font-size="13" font-weight="bold" lengthAdjust="spacing" textLength="9" x="65.5" y="145.5449">1</text><text fill="#000000" font-family="sans-serif" font-size="13" lengthAdjust="spacing" textLength="244" x="78.5" y="145.5449">asks to register a vehicle for check-up</text><polygon fill="#181818" points="69.5,175.5977,59.5,179.5977,69.5,183.5977,65.5,179.5977" style="stroke:#181818;stroke-width:1.0;"/><line style="stroke:#181818;stroke-width:1.0;stroke-dasharray:2.0,2.0;" x1="63.5" x2="417.5" y1="179.5977" y2="179.5977"/><text fill="#000000" font-family="sans-serif" font-size="13" font-weight="bold" lengthAdjust="spacing" textLength="9" x="75.5" y="174.8555">2</text><text fill="#000000" font-family="sans-serif" font-size="13" lengthAdjust="spacing" textLength="318" x="88.5" y="174.8555">requests data (i.e. designation of the vehicle, cost)</text><polygon fill="#181818" points="401.5,204.9082,411.5,208.9082,401.5,212.9082,405.5,208.9082" style="stroke:#181818;stroke-width:1.0;"/><line style="stroke:#181818;stroke-width:1.0;" x1="58.5" x2="407.5" y1="208.9082" y2="208.9082"/><text fill="#000000" font-family="sans-serif" font-size="13" font-weight="bold" lengthAdjust="spacing" textLength="9" x="65.5" y="204.166">3</text><text fill="#000000" font-family="sans-serif" font-size="13" lengthAdjust="spacing" textLength="131" x="78.5" y="204.166">types requested data</text><polygon fill="#181818" points="69.5,234.2188,59.5,238.2188,69.5,242.2188,65.5,238.2188" style="stroke:#181818;stroke-width:1.0;"/><line style="stroke:#181818;stroke-width:1.0;stroke-dasharray:2.0,2.0;" x1="63.5" x2="417.5" y1="238.2188" y2="238.2188"/><text fill="#000000" font-family="sans-serif" font-size="13" font-weight="bold" lengthAdjust="spacing" textLength="9" x="75.5" y="233.4766">4</text><text fill="#000000" font-family="sans-serif" font-size="13" lengthAdjust="spacing" textLength="241" x="88.5" y="233.4766">shows data and requests confirmation</text><polygon fill="#181818" points="401.5,263.5293,411.5,267.5293,401.5,271.5293,405.5,267.5293" style="stroke:#181818;stroke-width:1.0;"/><line style="stroke:#181818;stroke-width:1.0;" x1="58.5" x2="407.5" y1="267.5293" y2="267.5293"/><text fill="#000000" font-family="sans-serif" font-size="13" font-weight="bold" lengthAdjust="spacing" textLength="9" x="65.5" y="262.7871">5</text><text fill="#000000" font-family="sans-serif" font-size="13" lengthAdjust="spacing" textLength="87" x="78.5" y="262.7871">confirms data</text><polygon fill="#181818" points="69.5,292.8398,59.5,296.8398,69.5,300.8398,65.5,296.8398" style="stroke:#181818;stroke-width:1.0;"/><line style="stroke:#181818;stroke-width:1.0;stroke-dasharray:2.0,2.0;" x1="63.5" x2="417.5" y1="296.8398" y2="296.8398"/><text fill="#000000" font-family="sans-serif" font-size="13" font-weight="bold" lengthAdjust="spacing" textLength="9" x="75.5" y="292.0977">6</text><text fill="#000000" font-family="sans-serif" font-size="13" lengthAdjust="spacing" textLength="170" x="88.5" y="292.0977">displays operation success</text><!--SRC=[dP0nRiCm34LtduB8b01r3f2XG86qMz719s0bsXOiYQf89_3jgpXsqY4TMawKHFx_lcHmCM76084Zcpvp8D0yKYMtbuHcm8uQdJn19gCOE_zpG7gqV7QnWnQzK5MfqpBQJA8KeA6laQ8XE3hiBkFRfZdke8ONhvGZgZiHVCIoXgDo7CCdvT8RvGoRDq-ay8wn06m01Lv3yZmHLSLQdN49eyBcSFMQ9wxjhE1Eg7HVgQ3KUeBwUIKybBL1GBcawrovoe1mejwPag8j6AOdCzHZcWLkkgiHBBMerKNuPd8eaYM-g815HTYwFUt1ahZkafmZS0lQqsht18P5TxEcfOTM3mFeb4XMBxApsNzefUVpWehHtk4DnzRbC2F_6MvPbdzJMIV9uoJ0YVBrssGqXaH-OVa6]--></g></svg>