<?xml version="1.0" encoding="UTF-8" standalone="no"?>
<!DOCTYPE svg PUBLIC "-//W3C//DTD SVG 1.1//EN"
 "http://www.w3.org/Graphics/SVG/1.1/DTD/svg11.dtd">
<!-- Generated by graphviz version 10.0.1 (20240210.2158)
 -->
<!-- Title: G Pages: 1 -->
<svg width="639pt" height="1106pt"
 viewBox="0.00 0.00 639.36 1106.00" xmlns="http://www.w3.org/2000/svg" xmlns:xlink="http://www.w3.org/1999/xlink">
<g id="graph0" class="graph" transform="scale(1 1) rotate(0) translate(4 1102)">
<title>G</title>
<polygon fill="white" stroke="none" points="-4,4 -4,-1102 635.36,-1102 635.36,4 -4,4"/>
<!-- Tilia -->
<g id="node1" class="node">
<title>Tilia</title>
<ellipse fill="none" stroke="black" cx="106.23" cy="-549" rx="28.32" ry="18"/>
<text text-anchor="middle" x="106.23" y="-543.95" font-family="Helvetica,Arial,sans-serif" font-size="14.00">Tilia</text>
</g>
<!-- Camelia_e3 -->
<g id="node2" class="node">
<title>Camelia_e3</title>
<ellipse fill="none" stroke="black" cx="148.23" cy="-460.5" rx="63.12" ry="18"/>
<text text-anchor="middle" x="148.23" y="-455.45" font-family="Helvetica,Arial,sans-serif" font-size="14.00">Camelia_e3</text>
</g>
<!-- Tilia&#45;&#45;Camelia_e3 -->
<g id="edge1" class="edge">
<title>Tilia&#45;&#45;Camelia_e3</title>
<path fill="none" stroke="black" d="M114.33,-531.32C121.67,-516.2 132.45,-494.01 139.87,-478.72"/>
<text text-anchor="middle" x="135.36" y="-499.7" font-family="Helvetica,Arial,sans-serif" font-size="14.00">3</text>
</g>
<!-- Camelia_e4 -->
<g id="node17" class="node">
<title>Camelia_e4</title>
<ellipse fill="none" stroke="black" cx="148.23" cy="-372" rx="63.12" ry="18"/>
<text text-anchor="middle" x="148.23" y="-366.95" font-family="Helvetica,Arial,sans-serif" font-size="14.00">Camelia_e4</text>
</g>
<!-- Camelia_e3&#45;&#45;Camelia_e4 -->
<g id="edge13" class="edge">
<title>Camelia_e3&#45;&#45;Camelia_e4</title>
<path fill="none" stroke="black" d="M148.23,-442.41C148.23,-427.34 148.23,-405.49 148.23,-390.35"/>
<text text-anchor="middle" x="152.36" y="-411.2" font-family="Helvetica,Arial,sans-serif" font-size="14.00">6</text>
</g>
<!-- Carvalho -->
<g id="node3" class="node">
<title>Carvalho</title>
<ellipse fill="none" stroke="black" cx="461.23" cy="-726" rx="48.79" ry="18"/>
<text text-anchor="middle" x="461.23" y="-720.95" font-family="Helvetica,Arial,sans-serif" font-size="14.00">Carvalho</text>
</g>
<!-- Camelia_e1 -->
<g id="node4" class="node">
<title>Camelia_e1</title>
<ellipse fill="none" stroke="black" cx="461.23" cy="-637.5" rx="63.12" ry="18"/>
<text text-anchor="middle" x="461.23" y="-632.45" font-family="Helvetica,Arial,sans-serif" font-size="14.00">Camelia_e1</text>
</g>
<!-- Carvalho&#45;&#45;Camelia_e1 -->
<g id="edge2" class="edge">
<title>Carvalho&#45;&#45;Camelia_e1</title>
<path fill="none" stroke="black" d="M461.23,-707.91C461.23,-692.84 461.23,-670.99 461.23,-655.85"/>
<text text-anchor="middle" x="465.36" y="-676.7" font-family="Helvetica,Arial,sans-serif" font-size="14.00">4</text>
</g>
<!-- Camelia_e2 -->
<g id="node7" class="node">
<title>Camelia_e2</title>
<ellipse fill="none" stroke="black" cx="467.23" cy="-549" rx="63.12" ry="18"/>
<text text-anchor="middle" x="467.23" y="-543.95" font-family="Helvetica,Arial,sans-serif" font-size="14.00">Camelia_e2</text>
</g>
<!-- Camelia_e1&#45;&#45;Camelia_e2 -->
<g id="edge4" class="edge">
<title>Camelia_e1&#45;&#45;Camelia_e2</title>
<path fill="none" stroke="black" d="M462.42,-619.41C463.46,-604.34 464.98,-582.49 466.03,-567.35"/>
<text text-anchor="middle" x="468.36" y="-588.2" font-family="Helvetica,Arial,sans-serif" font-size="14.00">4</text>
</g>
<!-- Camelia_d1 -->
<g id="node12" class="node">
<title>Camelia_d1</title>
<ellipse fill="none" stroke="black" cx="269.23" cy="-549" rx="63.12" ry="18"/>
<text text-anchor="middle" x="269.23" y="-543.95" font-family="Helvetica,Arial,sans-serif" font-size="14.00">Camelia_d1</text>
</g>
<!-- Camelia_e1&#45;&#45;Camelia_d1 -->
<g id="edge24" class="edge">
<title>Camelia_e1&#45;&#45;Camelia_d1</title>
<path fill="none" stroke="black" d="M428.66,-621.83C393.36,-605.92 337.33,-580.68 301.96,-564.75"/>
<text text-anchor="middle" x="391.48" y="-588.2" font-family="Helvetica,Arial,sans-serif" font-size="14.00">10</text>
</g>
<!-- Abrunheiro -->
<g id="node5" class="node">
<title>Abrunheiro</title>
<ellipse fill="none" stroke="black" cx="372.23" cy="-106.5" rx="58" ry="18"/>
<text text-anchor="middle" x="372.23" y="-101.45" font-family="Helvetica,Arial,sans-serif" font-size="14.00">Abrunheiro</text>
</g>
<!-- Ginkgo -->
<g id="node6" class="node">
<title>Ginkgo</title>
<ellipse fill="none" stroke="black" cx="372.23" cy="-18" rx="41.63" ry="18"/>
<text text-anchor="middle" x="372.23" y="-12.95" font-family="Helvetica,Arial,sans-serif" font-size="14.00">Ginkgo</text>
</g>
<!-- Abrunheiro&#45;&#45;Ginkgo -->
<g id="edge3" class="edge">
<title>Abrunheiro&#45;&#45;Ginkgo</title>
<path fill="none" stroke="black" d="M372.23,-88.41C372.23,-73.34 372.23,-51.49 372.23,-36.35"/>
<text text-anchor="middle" x="376.36" y="-57.2" font-family="Helvetica,Arial,sans-serif" font-size="14.00">4</text>
</g>
<!-- Camelia_e2&#45;&#45;Camelia_e3 -->
<g id="edge8" class="edge">
<title>Camelia_e2&#45;&#45;Camelia_e3</title>
<path fill="none" stroke="black" d="M422.54,-535.88C361.76,-519.4 253.64,-490.08 192.88,-473.61"/>
<text text-anchor="middle" x="341.36" y="-499.7" font-family="Helvetica,Arial,sans-serif" font-size="14.00">5</text>
</g>
<!-- Camelia_d3 -->
<g id="node8" class="node">
<title>Camelia_d3</title>
<ellipse fill="none" stroke="black" cx="88.23" cy="-726" rx="63.12" ry="18"/>
<text text-anchor="middle" x="88.23" y="-720.95" font-family="Helvetica,Arial,sans-serif" font-size="14.00">Camelia_d3</text>
</g>
<!-- Camelia_d2 -->
<g id="node9" class="node">
<title>Camelia_d2</title>
<ellipse fill="none" stroke="black" cx="88.23" cy="-637.5" rx="63.12" ry="18"/>
<text text-anchor="middle" x="88.23" y="-632.45" font-family="Helvetica,Arial,sans-serif" font-size="14.00">Camelia_d2</text>
</g>
<!-- Camelia_d3&#45;&#45;Camelia_d2 -->
<g id="edge5" class="edge">
<title>Camelia_d3&#45;&#45;Camelia_d2</title>
<path fill="none" stroke="black" d="M88.23,-707.91C88.23,-692.84 88.23,-670.99 88.23,-655.85"/>
<text text-anchor="middle" x="92.36" y="-676.7" font-family="Helvetica,Arial,sans-serif" font-size="14.00">4</text>
</g>
<!-- Camelia_d2&#45;&#45;Camelia_d1 -->
<g id="edge10" class="edge">
<title>Camelia_d2&#45;&#45;Camelia_d1</title>
<path fill="none" stroke="black" d="M119.76,-621.43C152.88,-605.6 204.67,-580.86 237.76,-565.04"/>
<text text-anchor="middle" x="199.36" y="-588.2" font-family="Helvetica,Arial,sans-serif" font-size="14.00">5</text>
</g>
<!-- Liquidanbar -->
<g id="node10" class="node">
<title>Liquidanbar</title>
<ellipse fill="none" stroke="black" cx="372.23" cy="-195" rx="61.08" ry="18"/>
<text text-anchor="middle" x="372.23" y="-189.95" font-family="Helvetica,Arial,sans-serif" font-size="14.00">Liquidanbar</text>
</g>
<!-- Liquidanbar&#45;&#45;Abrunheiro -->
<g id="edge6" class="edge">
<title>Liquidanbar&#45;&#45;Abrunheiro</title>
<path fill="none" stroke="black" d="M372.23,-176.91C372.23,-161.84 372.23,-139.99 372.23,-124.85"/>
<text text-anchor="middle" x="376.36" y="-145.7" font-family="Helvetica,Arial,sans-serif" font-size="14.00">5</text>
</g>
<!-- Camelia_e9 -->
<g id="node14" class="node">
<title>Camelia_e9</title>
<ellipse fill="none" stroke="black" cx="566.23" cy="-106.5" rx="63.12" ry="18"/>
<text text-anchor="middle" x="566.23" y="-101.45" font-family="Helvetica,Arial,sans-serif" font-size="14.00">Camelia_e9</text>
</g>
<!-- Liquidanbar&#45;&#45;Camelia_e9 -->
<g id="edge11" class="edge">
<title>Liquidanbar&#45;&#45;Camelia_e9</title>
<path fill="none" stroke="black" d="M404.7,-179.52C440.41,-163.6 497.46,-138.17 533.33,-122.17"/>
<text text-anchor="middle" x="490.36" y="-145.7" font-family="Helvetica,Arial,sans-serif" font-size="14.00">6</text>
</g>
<!-- Sobreiro -->
<g id="node11" class="node">
<title>Sobreiro</title>
<ellipse fill="none" stroke="black" cx="271.23" cy="-637.5" rx="48.28" ry="18"/>
<text text-anchor="middle" x="271.23" y="-632.45" font-family="Helvetica,Arial,sans-serif" font-size="14.00">Sobreiro</text>
</g>
<!-- Sobreiro&#45;&#45;Camelia_d1 -->
<g id="edge7" class="edge">
<title>Sobreiro&#45;&#45;Camelia_d1</title>
<path fill="none" stroke="black" d="M270.84,-619.41C270.49,-604.34 269.98,-582.49 269.63,-567.35"/>
<text text-anchor="middle" x="275.36" y="-588.2" font-family="Helvetica,Arial,sans-serif" font-size="14.00">5</text>
</g>
<!-- Camelia_d4 -->
<g id="node13" class="node">
<title>Camelia_d4</title>
<ellipse fill="none" stroke="black" cx="88.23" cy="-814.5" rx="63.12" ry="18"/>
<text text-anchor="middle" x="88.23" y="-809.45" font-family="Helvetica,Arial,sans-serif" font-size="14.00">Camelia_d4</text>
</g>
<!-- Camelia_d4&#45;&#45;Camelia_d3 -->
<g id="edge9" class="edge">
<title>Camelia_d4&#45;&#45;Camelia_d3</title>
<path fill="none" stroke="black" d="M88.23,-796.41C88.23,-781.34 88.23,-759.49 88.23,-744.35"/>
<text text-anchor="middle" x="92.36" y="-765.2" font-family="Helvetica,Arial,sans-serif" font-size="14.00">5</text>
</g>
<!-- Folhado -->
<g id="node15" class="node">
<title>Folhado</title>
<ellipse fill="none" stroke="black" cx="46.23" cy="-991.5" rx="46.23" ry="18"/>
<text text-anchor="middle" x="46.23" y="-986.45" font-family="Helvetica,Arial,sans-serif" font-size="14.00">Folhado</text>
</g>
<!-- Camelia_d5 -->
<g id="node16" class="node">
<title>Camelia_d5</title>
<ellipse fill="none" stroke="black" cx="88.23" cy="-903" rx="63.12" ry="18"/>
<text text-anchor="middle" x="88.23" y="-897.95" font-family="Helvetica,Arial,sans-serif" font-size="14.00">Camelia_d5</text>
</g>
<!-- Folhado&#45;&#45;Camelia_d5 -->
<g id="edge12" class="edge">
<title>Folhado&#45;&#45;Camelia_d5</title>
<path fill="none" stroke="black" d="M54.53,-973.41C61.89,-958.25 72.59,-936.21 79.95,-921.05"/>
<text text-anchor="middle" x="75.36" y="-942.2" font-family="Helvetica,Arial,sans-serif" font-size="14.00">6</text>
</g>
<!-- Camelia_d5&#45;&#45;Camelia_d4 -->
<g id="edge18" class="edge">
<title>Camelia_d5&#45;&#45;Camelia_d4</title>
<path fill="none" stroke="black" d="M88.23,-884.91C88.23,-869.84 88.23,-847.99 88.23,-832.85"/>
<text text-anchor="middle" x="92.36" y="-853.7" font-family="Helvetica,Arial,sans-serif" font-size="14.00">6</text>
</g>
<!-- Camelia_e6 -->
<g id="node18" class="node">
<title>Camelia_e6</title>
<ellipse fill="none" stroke="black" cx="203.23" cy="-283.5" rx="63.12" ry="18"/>
<text text-anchor="middle" x="203.23" y="-278.45" font-family="Helvetica,Arial,sans-serif" font-size="14.00">Camelia_e6</text>
</g>
<!-- Camelia_e4&#45;&#45;Camelia_e6 -->
<g id="edge14" class="edge">
<title>Camelia_e4&#45;&#45;Camelia_e6</title>
<path fill="none" stroke="black" d="M156.54,-353.89C161.73,-343.67 168.77,-330.56 175.98,-319.5 179.94,-313.44 184.66,-307.11 189.06,-301.52"/>
<text text-anchor="middle" x="180.36" y="-322.7" font-family="Helvetica,Arial,sans-serif" font-size="14.00">6</text>
</g>
<!-- Camelia_e8 -->
<g id="node19" class="node">
<title>Camelia_e8</title>
<ellipse fill="none" stroke="black" cx="568.23" cy="-195" rx="63.12" ry="18"/>
<text text-anchor="middle" x="568.23" y="-189.95" font-family="Helvetica,Arial,sans-serif" font-size="14.00">Camelia_e8</text>
</g>
<!-- Camelia_e8&#45;&#45;Camelia_e9 -->
<g id="edge15" class="edge">
<title>Camelia_e8&#45;&#45;Camelia_e9</title>
<path fill="none" stroke="black" d="M567.84,-176.91C567.49,-161.84 566.98,-139.99 566.63,-124.85"/>
<text text-anchor="middle" x="571.36" y="-145.7" font-family="Helvetica,Arial,sans-serif" font-size="14.00">6</text>
</g>
<!-- Camelia_d7 -->
<g id="node20" class="node">
<title>Camelia_d7</title>
<ellipse fill="none" stroke="black" cx="135.23" cy="-1080" rx="63.12" ry="18"/>
<text text-anchor="middle" x="135.23" y="-1074.95" font-family="Helvetica,Arial,sans-serif" font-size="14.00">Camelia_d7</text>
</g>
<!-- Camelia_d6 -->
<g id="node21" class="node">
<title>Camelia_d6</title>
<ellipse fill="none" stroke="black" cx="227.23" cy="-991.5" rx="63.12" ry="18"/>
<text text-anchor="middle" x="227.23" y="-986.45" font-family="Helvetica,Arial,sans-serif" font-size="14.00">Camelia_d6</text>
</g>
<!-- Camelia_d7&#45;&#45;Camelia_d6 -->
<g id="edge16" class="edge">
<title>Camelia_d7&#45;&#45;Camelia_d6</title>
<path fill="none" stroke="black" d="M152.97,-1062.32C169.26,-1047 193.28,-1024.43 209.55,-1009.13"/>
<text text-anchor="middle" x="194.36" y="-1030.7" font-family="Helvetica,Arial,sans-serif" font-size="14.00">6</text>
</g>
<!-- Camelia_d6&#45;&#45;Camelia_d5 -->
<g id="edge17" class="edge">
<title>Camelia_d6&#45;&#45;Camelia_d5</title>
<path fill="none" stroke="black" d="M201.74,-974.63C176.66,-959.03 138.59,-935.34 113.57,-919.76"/>
<text text-anchor="middle" x="174.36" y="-942.2" font-family="Helvetica,Arial,sans-serif" font-size="14.00">6</text>
</g>
<!-- Castanheiro_India -->
<g id="node22" class="node">
<title>Castanheiro_India</title>
<ellipse fill="none" stroke="black" cx="372.23" cy="-372" rx="89.23" ry="18"/>
<text text-anchor="middle" x="372.23" y="-366.95" font-family="Helvetica,Arial,sans-serif" font-size="14.00">Castanheiro_India</text>
</g>
<!-- Castanheiro_India&#45;&#45;Camelia_e6 -->
<g id="edge19" class="edge">
<title>Castanheiro_India&#45;&#45;Camelia_e6</title>
<path fill="none" stroke="black" d="M340.45,-354.73C309.56,-338.92 263.04,-315.11 232.9,-299.68"/>
<text text-anchor="middle" x="307.36" y="-322.7" font-family="Helvetica,Arial,sans-serif" font-size="14.00">7</text>
</g>
<!-- Olaia -->
<g id="node23" class="node">
<title>Olaia</title>
<ellipse fill="none" stroke="black" cx="372.23" cy="-283.5" rx="32.93" ry="18"/>
<text text-anchor="middle" x="372.23" y="-278.45" font-family="Helvetica,Arial,sans-serif" font-size="14.00">Olaia</text>
</g>
<!-- Castanheiro_India&#45;&#45;Olaia -->
<g id="edge23" class="edge">
<title>Castanheiro_India&#45;&#45;Olaia</title>
<path fill="none" stroke="black" d="M372.23,-353.91C372.23,-338.84 372.23,-316.99 372.23,-301.85"/>
<text text-anchor="middle" x="380.48" y="-322.7" font-family="Helvetica,Arial,sans-serif" font-size="14.00">10</text>
</g>
<!-- Olaia&#45;&#45;Liquidanbar -->
<g id="edge20" class="edge">
<title>Olaia&#45;&#45;Liquidanbar</title>
<path fill="none" stroke="black" d="M372.23,-265.41C372.23,-250.34 372.23,-228.49 372.23,-213.35"/>
<text text-anchor="middle" x="376.36" y="-234.2" font-family="Helvetica,Arial,sans-serif" font-size="14.00">7</text>
</g>
<!-- Camelia_e7 -->
<g id="node24" class="node">
<title>Camelia_e7</title>
<ellipse fill="none" stroke="black" cx="568.23" cy="-283.5" rx="63.12" ry="18"/>
<text text-anchor="middle" x="568.23" y="-278.45" font-family="Helvetica,Arial,sans-serif" font-size="14.00">Camelia_e7</text>
</g>
<!-- Camelia_e7&#45;&#45;Camelia_e8 -->
<g id="edge21" class="edge">
<title>Camelia_e7&#45;&#45;Camelia_e8</title>
<path fill="none" stroke="black" d="M568.23,-265.41C568.23,-250.34 568.23,-228.49 568.23,-213.35"/>
<text text-anchor="middle" x="572.36" y="-234.2" font-family="Helvetica,Arial,sans-serif" font-size="14.00">7</text>
</g>
<!-- Magnolia -->
<g id="node25" class="node">
<title>Magnolia</title>
<ellipse fill="none" stroke="black" cx="319.23" cy="-1080" rx="49.3" ry="18"/>
<text text-anchor="middle" x="319.23" y="-1074.95" font-family="Helvetica,Arial,sans-serif" font-size="14.00">Magnolia</text>
</g>
<!-- Magnolia&#45;&#45;Camelia_d6 -->
<g id="edge22" class="edge">
<title>Magnolia&#45;&#45;Camelia_d6</title>
<path fill="none" stroke="black" d="M301.93,-1062.73C285.58,-1047.36 261.19,-1024.43 244.77,-1008.99"/>
<text text-anchor="middle" x="286.36" y="-1030.7" font-family="Helvetica,Arial,sans-serif" font-size="14.00">8</text>
</g>
</g>
</svg>
