<?xml version="1.0" encoding="us-ascii" standalone="no"?><svg xmlns="http://www.w3.org/2000/svg" xmlns:xlink="http://www.w3.org/1999/xlink" contentStyleType="text/css" height="759px" preserveAspectRatio="none" style="width:1340px;height:759px;background:#FFFFFF;" version="1.1" viewBox="0 0 1340 759" width="1340px" zoomAndPan="magnify"><defs/><g><rect fill="#FFFFFF" height="603.5684" style="stroke:#181818;stroke-width:1.0;" width="10" x="120" y="90.5332"/><rect fill="#FFFFFF" height="31.291" style="stroke:#181818;stroke-width:1.0;" width="10" x="259" y="148.1152"/><rect fill="#FFFFFF" height="31.291" style="stroke:#181818;stroke-width:1.0;" width="10" x="259" y="335.8613"/><rect fill="#FFFFFF" height="31.291" style="stroke:#181818;stroke-width:1.0;" width="10" x="366" y="210.6973"/><rect fill="#FFFFFF" height="31.291" style="stroke:#181818;stroke-width:1.0;" width="10" x="366" y="398.4434"/><rect fill="#FFFFFF" height="9" style="stroke:#181818;stroke-width:1.0;" width="10" x="656.5" y="685.1016"/><rect fill="#FFFFFF" height="31.291" style="stroke:#181818;stroke-width:1.0;" width="10" x="784.5" y="273.2793"/><rect fill="#FFFFFF" height="185.7852" style="stroke:#181818;stroke-width:1.0;" width="10" x="939" y="461.0254"/><rect fill="#FFFFFF" height="50.291" style="stroke:#181818;stroke-width:1.0;" width="10" x="944" y="596.5195"/><rect fill="none" height="549.2773" style="stroke:#000000;stroke-width:1.5;" width="1299.5" x="34.5" y="105.5332"/><rect fill="none" height="140.4941" style="stroke:#000000;stroke-width:1.5;" width="481.5" x="842.5" y="476.0254"/><rect fill="none" height="107.2031" style="stroke:#000000;stroke-width:1.5;" width="461.5" x="852.5" y="502.3164"/><line style="stroke:#181818;stroke-width:0.5;stroke-dasharray:5.0,5.0;" x1="124.5" x2="124.5" y1="57.2422" y2="703.1016"/><line style="stroke:#181818;stroke-width:0.5;stroke-dasharray:5.0,5.0;" x1="263.5" x2="263.5" y1="57.2422" y2="703.1016"/><line style="stroke:#181818;stroke-width:0.5;stroke-dasharray:5.0,5.0;" x1="370.5" x2="370.5" y1="57.2422" y2="703.1016"/><line style="stroke:#181818;stroke-width:0.5;stroke-dasharray:5.0,5.0;" x1="512.5" x2="512.5" y1="57.2422" y2="703.1016"/><line style="stroke:#181818;stroke-width:0.5;stroke-dasharray:5.0,5.0;" x1="661.5" x2="661.5" y1="57.2422" y2="703.1016"/><line style="stroke:#181818;stroke-width:0.5;stroke-dasharray:5.0,5.0;" x1="789.5" x2="789.5" y1="57.2422" y2="703.1016"/><line style="stroke:#181818;stroke-width:0.5;stroke-dasharray:5.0,5.0;" x1="943.5" x2="943.5" y1="57.2422" y2="703.1016"/><line style="stroke:#181818;stroke-width:0.5;stroke-dasharray:5.0,5.0;" x1="1256" x2="1256" y1="553.418" y2="703.1016"/><rect fill="#E3E3E3" height="32.6211" rx="2.5" ry="2.5" style="stroke:#181818;stroke-width:0.5;" width="161" x="44.5" y="23.6211"/><text fill="#000000" font-family="sans-serif" font-size="14" lengthAdjust="spacing" textLength="147" x="51.5" y="45.7285">:MaintenanceController</text><rect fill="#E3E3E3" height="32.6211" rx="2.5" ry="2.5" style="stroke:#181818;stroke-width:0.5;" width="161" x="44.5" y="702.1016"/><text fill="#000000" font-family="sans-serif" font-size="14" lengthAdjust="spacing" textLength="147" x="51.5" y="724.209">:MaintenanceController</text><rect fill="#E3E3E3" height="32.6211" rx="2.5" ry="2.5" style="stroke:#181818;stroke-width:0.5;" width="97" x="215.5" y="23.6211"/><text fill="#000000" font-family="sans-serif" font-size="14" lengthAdjust="spacing" textLength="83" x="222.5" y="45.7285">:Repositories</text><rect fill="#E3E3E3" height="32.6211" rx="2.5" ry="2.5" style="stroke:#181818;stroke-width:0.5;" width="97" x="215.5" y="702.1016"/><text fill="#000000" font-family="sans-serif" font-size="14" lengthAdjust="spacing" textLength="83" x="222.5" y="724.209">:Repositories</text><rect fill="#E3E3E3" height="51.2422" rx="2.5" ry="2.5" style="stroke:#181818;stroke-width:0.5;" width="97" x="322.5" y="5"/><text fill="#000000" font-family="sans-serif" font-size="14" lengthAdjust="spacing" textLength="74" x="334" y="27.1074">repositories</text><text fill="#000000" font-family="sans-serif" font-size="14" lengthAdjust="spacing" textLength="83" x="329.5" y="45.7285">:Repositories</text><rect fill="#E3E3E3" height="51.2422" rx="2.5" ry="2.5" style="stroke:#181818;stroke-width:0.5;" width="97" x="322.5" y="702.1016"/><text fill="#000000" font-family="sans-serif" font-size="14" lengthAdjust="spacing" textLength="74" x="334" y="724.209">repositories</text><text fill="#000000" font-family="sans-serif" font-size="14" lengthAdjust="spacing" textLength="83" x="329.5" y="742.8301">:Repositories</text><rect fill="#E3E3E3" height="51.2422" rx="2.5" ry="2.5" style="stroke:#181818;stroke-width:0.5;" width="167" x="429.5" y="5"/><text fill="#000000" font-family="sans-serif" font-size="14" lengthAdjust="spacing" textLength="149" x="438.5" y="27.1074">maintenanceRepository</text><text fill="#000000" font-family="sans-serif" font-size="14" lengthAdjust="spacing" textLength="153" x="436.5" y="45.7285">:MaintenanceRepository</text><rect fill="#E3E3E3" height="51.2422" rx="2.5" ry="2.5" style="stroke:#181818;stroke-width:0.5;" width="167" x="429.5" y="702.1016"/><text fill="#000000" font-family="sans-serif" font-size="14" lengthAdjust="spacing" textLength="149" x="438.5" y="724.209">maintenanceRepository</text><text fill="#000000" font-family="sans-serif" font-size="14" lengthAdjust="spacing" textLength="153" x="436.5" y="742.8301">:MaintenanceRepository</text><rect fill="#E3E3E3" height="32.6211" rx="2.5" ry="2.5" style="stroke:#181818;stroke-width:0.5;" width="110" x="606.5" y="23.6211"/><text fill="#000000" font-family="sans-serif" font-size="14" lengthAdjust="spacing" textLength="96" x="613.5" y="45.7285">:vehicleMapper</text><rect fill="#E3E3E3" height="32.6211" rx="2.5" ry="2.5" style="stroke:#181818;stroke-width:0.5;" width="110" x="606.5" y="702.1016"/><text fill="#000000" font-family="sans-serif" font-size="14" lengthAdjust="spacing" textLength="96" x="613.5" y="724.209">:vehicleMapper</text><rect fill="#E3E3E3" height="32.6211" rx="2.5" ry="2.5" style="stroke:#181818;stroke-width:0.5;" width="126" x="726.5" y="23.6211"/><text fill="#000000" font-family="sans-serif" font-size="14" lengthAdjust="spacing" textLength="112" x="733.5" y="45.7285">vehicleRepository</text><rect fill="#E3E3E3" height="32.6211" rx="2.5" ry="2.5" style="stroke:#181818;stroke-width:0.5;" width="126" x="726.5" y="702.1016"/><text fill="#000000" font-family="sans-serif" font-size="14" lengthAdjust="spacing" textLength="112" x="733.5" y="724.209">vehicleRepository</text><rect fill="#E3E3E3" height="32.6211" rx="2.5" ry="2.5" style="stroke:#181818;stroke-width:0.5;" width="163" x="862.5" y="23.6211"/><text fill="#000000" font-family="sans-serif" font-size="14" lengthAdjust="spacing" textLength="149" x="869.5" y="45.7285">maintenanceRepository</text><rect fill="#E3E3E3" height="32.6211" rx="2.5" ry="2.5" style="stroke:#181818;stroke-width:0.5;" width="163" x="862.5" y="702.1016"/><text fill="#000000" font-family="sans-serif" font-size="14" lengthAdjust="spacing" textLength="149" x="869.5" y="724.209">maintenanceRepository</text><rect fill="#E3E3E3" height="32.6211" rx="2.5" ry="2.5" style="stroke:#181818;stroke-width:0.5;" width="95" x="1209" y="702.1016"/><text fill="#000000" font-family="sans-serif" font-size="14" lengthAdjust="spacing" textLength="81" x="1216" y="724.209">maintenance</text><rect fill="#FFFFFF" height="603.5684" style="stroke:#181818;stroke-width:1.0;" width="10" x="120" y="90.5332"/><rect fill="#FFFFFF" height="31.291" style="stroke:#181818;stroke-width:1.0;" width="10" x="259" y="148.1152"/><rect fill="#FFFFFF" height="31.291" style="stroke:#181818;stroke-width:1.0;" width="10" x="259" y="335.8613"/><rect fill="#FFFFFF" height="31.291" style="stroke:#181818;stroke-width:1.0;" width="10" x="366" y="210.6973"/><rect fill="#FFFFFF" height="31.291" style="stroke:#181818;stroke-width:1.0;" width="10" x="366" y="398.4434"/><rect fill="#FFFFFF" height="9" style="stroke:#181818;stroke-width:1.0;" width="10" x="656.5" y="685.1016"/><rect fill="#FFFFFF" height="31.291" style="stroke:#181818;stroke-width:1.0;" width="10" x="784.5" y="273.2793"/><rect fill="#FFFFFF" height="185.7852" style="stroke:#181818;stroke-width:1.0;" width="10" x="939" y="461.0254"/><rect fill="#FFFFFF" height="50.291" style="stroke:#181818;stroke-width:1.0;" width="10" x="944" y="596.5195"/><polygon fill="#181818" points="108,86.5332,118,90.5332,108,94.5332,112,90.5332" style="stroke:#181818;stroke-width:1.0;"/><line style="stroke:#181818;stroke-width:1.0;" x1="0" x2="114" y1="90.5332" y2="90.5332"/><text fill="#000000" font-family="sans-serif" font-size="13" font-weight="bold" lengthAdjust="spacing" textLength="7" x="7" y="85.2705">5</text><text fill="#000000" font-family="sans-serif" font-size="13" lengthAdjust="spacing" textLength="90" x="18" y="85.2705">getVehicleList()</text><path d="M34.5,105.5332 L179.5,105.5332 L179.5,114.8242 L169.5,124.8242 L34.5,124.8242 L34.5,105.5332 " fill="#EEEEEE" style="stroke:#000000;stroke-width:1.5;"/><rect fill="none" height="549.2773" style="stroke:#000000;stroke-width:1.5;" width="1299.5" x="34.5" y="105.5332"/><text fill="#000000" font-family="sans-serif" font-size="13" font-weight="bold" lengthAdjust="spacing" textLength="100" x="49.5" y="120.5615">Get Vehicle List</text><polygon fill="#181818" points="247,144.1152,257,148.1152,247,152.1152,251,148.1152" style="stroke:#181818;stroke-width:1.0;"/><line style="stroke:#181818;stroke-width:1.0;" x1="130" x2="253" y1="148.1152" y2="148.1152"/><text fill="#000000" font-family="sans-serif" font-size="13" font-weight="bold" lengthAdjust="spacing" textLength="18" x="137" y="142.8525">5.1</text><text fill="#000000" font-family="sans-serif" font-size="13" lengthAdjust="spacing" textLength="75" x="159" y="142.8525">getInstance()</text><polygon fill="#181818" points="141,175.4063,131,179.4063,141,183.4063,137,179.4063" style="stroke:#181818;stroke-width:1.0;"/><line style="stroke:#181818;stroke-width:1.0;stroke-dasharray:2.0,2.0;" x1="135" x2="263" y1="179.4063" y2="179.4063"/><text fill="#000000" font-family="sans-serif" font-size="13" font-weight="bold" lengthAdjust="spacing" textLength="18" x="147" y="174.1436">5.2</text><text fill="#000000" font-family="sans-serif" font-size="13" lengthAdjust="spacing" textLength="67" x="169" y="174.1436">repositories</text><polygon fill="#181818" points="354,206.6973,364,210.6973,354,214.6973,358,210.6973" style="stroke:#181818;stroke-width:1.0;"/><line style="stroke:#181818;stroke-width:1.0;" x1="130" x2="360" y1="210.6973" y2="210.6973"/><text fill="#000000" font-family="sans-serif" font-size="13" font-weight="bold" lengthAdjust="spacing" textLength="18" x="137" y="205.4346">5.3</text><text fill="#000000" font-family="sans-serif" font-size="13" lengthAdjust="spacing" textLength="131" x="159" y="205.4346">getVehicleRepository()</text><polygon fill="#181818" points="141,237.9883,131,241.9883,141,245.9883,137,241.9883" style="stroke:#181818;stroke-width:1.0;"/><line style="stroke:#181818;stroke-width:1.0;stroke-dasharray:2.0,2.0;" x1="135" x2="370" y1="241.9883" y2="241.9883"/><text fill="#000000" font-family="sans-serif" font-size="13" font-weight="bold" lengthAdjust="spacing" textLength="18" x="147" y="236.7256">5.4</text><text fill="#000000" font-family="sans-serif" font-size="13" lengthAdjust="spacing" textLength="101" x="169" y="236.7256">vehicleRepository</text><polygon fill="#181818" points="772.5,269.2793,782.5,273.2793,772.5,277.2793,776.5,273.2793" style="stroke:#181818;stroke-width:1.0;"/><line style="stroke:#181818;stroke-width:1.0;" x1="130" x2="778.5" y1="273.2793" y2="273.2793"/><text fill="#000000" font-family="sans-serif" font-size="13" font-weight="bold" lengthAdjust="spacing" textLength="18" x="137" y="268.0166">5.5</text><text fill="#000000" font-family="sans-serif" font-size="13" lengthAdjust="spacing" textLength="90" x="159" y="268.0166">getVehicleList()</text><polygon fill="#181818" points="141,300.5703,131,304.5703,141,308.5703,137,304.5703" style="stroke:#181818;stroke-width:1.0;"/><line style="stroke:#181818;stroke-width:1.0;stroke-dasharray:2.0,2.0;" x1="135" x2="788.5" y1="304.5703" y2="304.5703"/><text fill="#000000" font-family="sans-serif" font-size="13" font-weight="bold" lengthAdjust="spacing" textLength="18" x="147" y="299.3076">5.6</text><text fill="#000000" font-family="sans-serif" font-size="13" lengthAdjust="spacing" textLength="60" x="169" y="299.3076">vehicleList</text><polygon fill="#181818" points="247,331.8613,257,335.8613,247,339.8613,251,335.8613" style="stroke:#181818;stroke-width:1.0;"/><line style="stroke:#181818;stroke-width:1.0;" x1="130" x2="253" y1="335.8613" y2="335.8613"/><text fill="#000000" font-family="sans-serif" font-size="13" font-weight="bold" lengthAdjust="spacing" textLength="18" x="137" y="330.5986">5.7</text><text fill="#000000" font-family="sans-serif" font-size="13" lengthAdjust="spacing" textLength="75" x="159" y="330.5986">getInstance()</text><polygon fill="#181818" points="141,363.1523,131,367.1523,141,371.1523,137,367.1523" style="stroke:#181818;stroke-width:1.0;"/><line style="stroke:#181818;stroke-width:1.0;stroke-dasharray:2.0,2.0;" x1="135" x2="263" y1="367.1523" y2="367.1523"/><text fill="#000000" font-family="sans-serif" font-size="13" font-weight="bold" lengthAdjust="spacing" textLength="18" x="147" y="361.8896">5.8</text><text fill="#000000" font-family="sans-serif" font-size="13" lengthAdjust="spacing" textLength="67" x="169" y="361.8896">repositories</text><polygon fill="#181818" points="354,394.4434,364,398.4434,354,402.4434,358,398.4434" style="stroke:#181818;stroke-width:1.0;"/><line style="stroke:#181818;stroke-width:1.0;" x1="130" x2="360" y1="398.4434" y2="398.4434"/><text fill="#000000" font-family="sans-serif" font-size="13" font-weight="bold" lengthAdjust="spacing" textLength="18" x="137" y="393.1807">5.9</text><text fill="#000000" font-family="sans-serif" font-size="13" lengthAdjust="spacing" textLength="162" x="159" y="393.1807">getMaintenanceRepository()</text><polygon fill="#181818" points="141,425.7344,131,429.7344,141,433.7344,137,429.7344" style="stroke:#181818;stroke-width:1.0;"/><line style="stroke:#181818;stroke-width:1.0;stroke-dasharray:2.0,2.0;" x1="135" x2="370" y1="429.7344" y2="429.7344"/><text fill="#000000" font-family="sans-serif" font-size="13" font-weight="bold" lengthAdjust="spacing" textLength="25" x="147" y="424.4717">5.10</text><text fill="#000000" font-family="sans-serif" font-size="13" lengthAdjust="spacing" textLength="136" x="176" y="424.4717">maintenanceRepository</text><polygon fill="#181818" points="927,457.0254,937,461.0254,927,465.0254,931,461.0254" style="stroke:#181818;stroke-width:1.0;"/><line style="stroke:#181818;stroke-width:1.0;" x1="130" x2="933" y1="461.0254" y2="461.0254"/><text fill="#000000" font-family="sans-serif" font-size="13" font-weight="bold" lengthAdjust="spacing" textLength="25" x="137" y="455.7627">5.11</text><text fill="#000000" font-family="sans-serif" font-size="13" lengthAdjust="spacing" textLength="181" x="166" y="455.7627">getMaintenanceList(vehicleList)</text><path d="M842.5,476.0254 L915.5,476.0254 L915.5,485.3164 L905.5,495.3164 L842.5,495.3164 L842.5,476.0254 " fill="#EEEEEE" style="stroke:#000000;stroke-width:1.5;"/><rect fill="none" height="140.4941" style="stroke:#000000;stroke-width:1.5;" width="481.5" x="842.5" y="476.0254"/><text fill="#000000" font-family="sans-serif" font-size="13" font-weight="bold" lengthAdjust="spacing" textLength="28" x="857.5" y="491.0537">loop</text><text fill="#000000" font-family="sans-serif" font-size="11" font-weight="bold" lengthAdjust="spacing" textLength="192" x="930.5" y="489.8955">[for each vehicle in the vehicleList]</text><path d="M852.5,502.3164 L917.5,502.3164 L917.5,511.6074 L907.5,521.6074 L852.5,521.6074 L852.5,502.3164 " fill="#EEEEEE" style="stroke:#000000;stroke-width:1.5;"/><rect fill="none" height="107.2031" style="stroke:#000000;stroke-width:1.5;" width="461.5" x="852.5" y="502.3164"/><text fill="#000000" font-family="sans-serif" font-size="13" font-weight="bold" lengthAdjust="spacing" textLength="20" x="867.5" y="517.3447">opt</text><text fill="#000000" font-family="sans-serif" font-size="11" font-weight="bold" lengthAdjust="spacing" textLength="319" x="932.5" y="516.1865">[serviceFrequency &lt; currentKms - kmAtLastMaintenance]</text><polygon fill="#181818" points="1197,540.8984,1207,544.8984,1197,548.8984,1201,544.8984" style="stroke:#181818;stroke-width:1.0;"/><line style="stroke:#181818;stroke-width:1.0;" x1="949" x2="1203" y1="544.8984" y2="544.8984"/><text fill="#000000" font-family="sans-serif" font-size="13" font-weight="bold" lengthAdjust="spacing" textLength="25" x="956" y="539.6357">5.12</text><text fill="#000000" font-family="sans-serif" font-size="13" lengthAdjust="spacing" textLength="207" x="985" y="539.6357">validateVehicleMaintenance(vehicle)</text><rect fill="#E3E3E3" height="32.6211" rx="2.5" ry="2.5" style="stroke:#181818;stroke-width:0.5;" width="95" x="1209" y="521.6074"/><text fill="#000000" font-family="sans-serif" font-size="14" lengthAdjust="spacing" textLength="81" x="1216" y="543.7148">maintenance</text><line style="stroke:#181818;stroke-width:1.0;" x1="949" x2="996" y1="583.5195" y2="583.5195"/><line style="stroke:#181818;stroke-width:1.0;" x1="996" x2="996" y1="583.5195" y2="596.5195"/><line style="stroke:#181818;stroke-width:1.0;" x1="955" x2="996" y1="596.5195" y2="596.5195"/><polygon fill="#181818" points="965,592.5195,955,596.5195,965,600.5195,961,596.5195" style="stroke:#181818;stroke-width:1.0;"/><text fill="#000000" font-family="sans-serif" font-size="13" font-weight="bold" lengthAdjust="spacing" textLength="25" x="961" y="578.2568">5.13</text><text fill="#000000" font-family="sans-serif" font-size="13" lengthAdjust="spacing" textLength="131" x="990" y="578.2568">removeVehicle(vehicle)</text><polygon fill="#181818" points="141,642.8105,131,646.8105,141,650.8105,137,646.8105" style="stroke:#181818;stroke-width:1.0;"/><line style="stroke:#181818;stroke-width:1.0;stroke-dasharray:2.0,2.0;" x1="135" x2="943" y1="646.8105" y2="646.8105"/><text fill="#000000" font-family="sans-serif" font-size="13" font-weight="bold" lengthAdjust="spacing" textLength="25" x="147" y="641.5479">5.14</text><text fill="#000000" font-family="sans-serif" font-size="13" lengthAdjust="spacing" textLength="60" x="176" y="641.5479">vehicleList</text><polygon fill="#181818" points="644.5,681.1016,654.5,685.1016,644.5,689.1016,648.5,685.1016" style="stroke:#181818;stroke-width:1.0;"/><line style="stroke:#181818;stroke-width:1.0;" x1="130" x2="650.5" y1="685.1016" y2="685.1016"/><text fill="#000000" font-family="sans-serif" font-size="13" font-weight="bold" lengthAdjust="spacing" textLength="7" x="137" y="679.8389">6</text><text fill="#000000" font-family="sans-serif" font-size="13" lengthAdjust="spacing" textLength="99" x="148" y="679.8389">toDto(vehicleList)</text><!--SRC=[nLPDRzGm4BtxLunwWLPQ90vmM26agXI4s9Mg5lN4nNMcYRM9RUn9OFyzJj9adOtPJKhH-XJ5C_FcFJz_k8rKXbjUGA6L5fdL1GBP4fdhPmmN6vxY7Mrp18k2k4hpCC1bFD6_f4hXaUSE6UCbQLKM3sWPUvN91E5HQthGlndp6II5D5mHd2tNN2f2nPN0Awt8wZn7UmRSmTNtszLUy2qQxIHfAz4rCVsFxPsiM_AWmnGRPFnGaGBNDyE4OjVFhhZFNCV-DoMYCtkDLvX9aUEQ6_F4hlqCXO9tZC7YOyCRbf0YtRTPA-dezVaWyirRnWN9YXEsEe4VgTMbWIz8y9G8TIPZpUJVHeFcKIDAjaryLOvgRhw3WuNwVc9hSZ2p7Z7unKwCS1aFrahm-NtqKbpV3FJV5V8QJ9F0k-euPGyJKApsmIRpF0RMyHeXn5msYT-urwDin-1ZxerT9xAU9zSSbv_6vAVoUFJq-cy-NqBqV7rngqTHHeGRomVUEymwrzhuMyo2xoVh_0TI0MKuSF0qxUOBqGrj21pQIWhyRF5dYKfiuGE8qbfKzArmi81DSKahxaAsash7XHigUd5HRrcUoyJpkEzkjdwwK_Hy4k0SuC5IMYnqrS4_3_C5rW9LmXXZasF_GOhvnsLa1yMPibDcir2Ru97pdeKxkdqlUVAaFv6ExzeUgNjS_G40]--></g></svg>