<?xml version="1.0" encoding="us-ascii" standalone="no"?><svg xmlns="http://www.w3.org/2000/svg" xmlns:xlink="http://www.w3.org/1999/xlink" contentStyleType="text/css" height="489px" preserveAspectRatio="none" style="width:527px;height:489px;background:#FFFFFF;" version="1.1" viewBox="0 0 527 489" width="527px" zoomAndPan="magnify"><defs/><g><!--class ListMaintenanceUI--><g id="elem_ListMaintenanceUI"><rect codeLine="11" fill="#F1F1F1" height="48" id="ListMaintenanceUI" rx="2.5" ry="2.5" style="stroke:#181818;stroke-width:0.5;" width="147" x="55" y="25.5"/><ellipse cx="70" cy="41.5" fill="#ADD1B2" rx="11" ry="11" style="stroke:#181818;stroke-width:1.0;"/><path d="M72.7656,37.375 Q72.9219,37.1563 73.1094,37.0469 Q73.2969,36.9375 73.5156,36.9375 Q73.8906,36.9375 74.125,37.2031 Q74.3594,37.4531 74.3594,38.0625 L74.3594,39.5156 Q74.3594,40.125 74.125,40.3906 Q73.8906,40.6563 73.5156,40.6563 Q73.1719,40.6563 72.9688,40.4531 Q72.7656,40.2656 72.6563,39.75 Q72.6094,39.3906 72.4219,39.2031 Q72.0938,38.8281 71.4844,38.6094 Q70.875,38.3906 70.25,38.3906 Q69.4844,38.3906 68.8438,38.7188 Q68.2188,39.0469 67.7188,39.7969 Q67.2344,40.5469 67.2344,41.5781 L67.2344,42.6719 Q67.2344,43.9063 68.125,44.7344 Q69.0156,45.5469 70.6094,45.5469 Q71.5469,45.5469 72.2031,45.2969 Q72.5938,45.1406 73.0156,44.7031 Q73.2813,44.4375 73.4219,44.3594 Q73.5781,44.2813 73.7813,44.2813 Q74.1094,44.2813 74.3594,44.5469 Q74.625,44.7969 74.625,45.1406 Q74.625,45.4844 74.2813,45.8906 Q73.7813,46.4688 72.9844,46.7969 Q71.9063,47.25 70.6094,47.25 Q69.0938,47.25 67.8906,46.625 Q66.9063,46.125 66.2188,45.0625 Q65.5313,43.9844 65.5313,42.7031 L65.5313,41.5469 Q65.5313,40.2188 66.1406,39.0781 Q66.7656,37.9219 67.8594,37.3125 Q68.9531,36.6875 70.1875,36.6875 Q70.9219,36.6875 71.5625,36.8594 Q72.2188,37.0156 72.7656,37.375 Z " fill="#000000"/><text fill="#000000" font-family="sans-serif" font-size="14" lengthAdjust="spacing" textLength="115" x="84" y="47.2969">ListMaintenanceUI</text><line style="stroke:#181818;stroke-width:0.5;" x1="56" x2="201" y1="57.5" y2="57.5"/><line style="stroke:#181818;stroke-width:0.5;" x1="56" x2="201" y1="65.5" y2="65.5"/></g><!--class ListMaintenanceController--><g id="elem_ListMaintenanceController"><rect codeLine="14" fill="#F1F1F1" height="85.2422" id="ListMaintenanceController" rx="2.5" ry="2.5" style="stroke:#181818;stroke-width:0.5;" width="213" x="237" y="7"/><ellipse cx="259.2" cy="23" fill="#ADD1B2" rx="11" ry="11" style="stroke:#181818;stroke-width:1.0;"/><path d="M261.9656,18.875 Q262.1219,18.6563 262.3094,18.5469 Q262.4969,18.4375 262.7156,18.4375 Q263.0906,18.4375 263.325,18.7031 Q263.5594,18.9531 263.5594,19.5625 L263.5594,21.0156 Q263.5594,21.625 263.325,21.8906 Q263.0906,22.1563 262.7156,22.1563 Q262.3719,22.1563 262.1688,21.9531 Q261.9656,21.7656 261.8563,21.25 Q261.8094,20.8906 261.6219,20.7031 Q261.2938,20.3281 260.6844,20.1094 Q260.075,19.8906 259.45,19.8906 Q258.6844,19.8906 258.0438,20.2188 Q257.4188,20.5469 256.9188,21.2969 Q256.4344,22.0469 256.4344,23.0781 L256.4344,24.1719 Q256.4344,25.4063 257.325,26.2344 Q258.2156,27.0469 259.8094,27.0469 Q260.7469,27.0469 261.4031,26.7969 Q261.7938,26.6406 262.2156,26.2031 Q262.4813,25.9375 262.6219,25.8594 Q262.7781,25.7813 262.9813,25.7813 Q263.3094,25.7813 263.5594,26.0469 Q263.825,26.2969 263.825,26.6406 Q263.825,26.9844 263.4813,27.3906 Q262.9813,27.9688 262.1844,28.2969 Q261.1063,28.75 259.8094,28.75 Q258.2938,28.75 257.0906,28.125 Q256.1063,27.625 255.4188,26.5625 Q254.7313,25.4844 254.7313,24.2031 L254.7313,23.0469 Q254.7313,21.7188 255.3406,20.5781 Q255.9656,19.4219 257.0594,18.8125 Q258.1531,18.1875 259.3875,18.1875 Q260.1219,18.1875 260.7625,18.3594 Q261.4188,18.5156 261.9656,18.875 Z " fill="#000000"/><text fill="#000000" font-family="sans-serif" font-size="14" lengthAdjust="spacing" textLength="165" x="274.8" y="28.7969">ListMaintenanceController</text><line style="stroke:#181818;stroke-width:0.5;" x1="238" x2="449" y1="39" y2="39"/><line style="stroke:#181818;stroke-width:0.5;" x1="238" x2="449" y1="47" y2="47"/><text fill="#000000" font-family="sans-serif" font-size="14" lengthAdjust="spacing" textLength="141" x="243" y="66.1074">+getMaintenanceList()</text><text fill="#000000" font-family="sans-serif" font-size="14" lengthAdjust="spacing" textLength="201" x="243" y="84.7285">+createMaintenanceController()</text></g><!--class MaintenanceRepository--><g id="elem_MaintenanceRepository"><rect codeLine="18" fill="#F1F1F1" height="66.6211" id="MaintenanceRepository" rx="2.5" ry="2.5" style="stroke:#181818;stroke-width:0.5;" width="181" x="205" y="416"/><ellipse cx="220" cy="432" fill="#ADD1B2" rx="11" ry="11" style="stroke:#181818;stroke-width:1.0;"/><path d="M222.7656,427.875 Q222.9219,427.6563 223.1094,427.5469 Q223.2969,427.4375 223.5156,427.4375 Q223.8906,427.4375 224.125,427.7031 Q224.3594,427.9531 224.3594,428.5625 L224.3594,430.0156 Q224.3594,430.625 224.125,430.8906 Q223.8906,431.1563 223.5156,431.1563 Q223.1719,431.1563 222.9688,430.9531 Q222.7656,430.7656 222.6563,430.25 Q222.6094,429.8906 222.4219,429.7031 Q222.0938,429.3281 221.4844,429.1094 Q220.875,428.8906 220.25,428.8906 Q219.4844,428.8906 218.8438,429.2188 Q218.2188,429.5469 217.7188,430.2969 Q217.2344,431.0469 217.2344,432.0781 L217.2344,433.1719 Q217.2344,434.4063 218.125,435.2344 Q219.0156,436.0469 220.6094,436.0469 Q221.5469,436.0469 222.2031,435.7969 Q222.5938,435.6406 223.0156,435.2031 Q223.2813,434.9375 223.4219,434.8594 Q223.5781,434.7813 223.7813,434.7813 Q224.1094,434.7813 224.3594,435.0469 Q224.625,435.2969 224.625,435.6406 Q224.625,435.9844 224.2813,436.3906 Q223.7813,436.9688 222.9844,437.2969 Q221.9063,437.75 220.6094,437.75 Q219.0938,437.75 217.8906,437.125 Q216.9063,436.625 216.2188,435.5625 Q215.5313,434.4844 215.5313,433.2031 L215.5313,432.0469 Q215.5313,430.7188 216.1406,429.5781 Q216.7656,428.4219 217.8594,427.8125 Q218.9531,427.1875 220.1875,427.1875 Q220.9219,427.1875 221.5625,427.3594 Q222.2188,427.5156 222.7656,427.875 Z " fill="#000000"/><text fill="#000000" font-family="sans-serif" font-size="14" lengthAdjust="spacing" textLength="149" x="234" y="437.7969">MaintenanceRepository</text><line style="stroke:#181818;stroke-width:0.5;" x1="206" x2="385" y1="448" y2="448"/><line style="stroke:#181818;stroke-width:0.5;" x1="206" x2="385" y1="456" y2="456"/><text fill="#000000" font-family="sans-serif" font-size="14" lengthAdjust="spacing" textLength="141" x="211" y="475.1074">+getMaintenanceList()</text></g><!--class Repositories--><g id="elem_Repositories"><rect codeLine="22" fill="#F1F1F1" height="103.8633" id="Repositories" rx="2.5" ry="2.5" style="stroke:#181818;stroke-width:0.5;" width="297" x="7" y="171"/><ellipse cx="111.75" cy="187" fill="#ADD1B2" rx="11" ry="11" style="stroke:#181818;stroke-width:1.0;"/><path d="M114.5156,182.875 Q114.6719,182.6563 114.8594,182.5469 Q115.0469,182.4375 115.2656,182.4375 Q115.6406,182.4375 115.875,182.7031 Q116.1094,182.9531 116.1094,183.5625 L116.1094,185.0156 Q116.1094,185.625 115.875,185.8906 Q115.6406,186.1563 115.2656,186.1563 Q114.9219,186.1563 114.7188,185.9531 Q114.5156,185.7656 114.4063,185.25 Q114.3594,184.8906 114.1719,184.7031 Q113.8438,184.3281 113.2344,184.1094 Q112.625,183.8906 112,183.8906 Q111.2344,183.8906 110.5938,184.2188 Q109.9688,184.5469 109.4688,185.2969 Q108.9844,186.0469 108.9844,187.0781 L108.9844,188.1719 Q108.9844,189.4063 109.875,190.2344 Q110.7656,191.0469 112.3594,191.0469 Q113.2969,191.0469 113.9531,190.7969 Q114.3438,190.6406 114.7656,190.2031 Q115.0313,189.9375 115.1719,189.8594 Q115.3281,189.7813 115.5313,189.7813 Q115.8594,189.7813 116.1094,190.0469 Q116.375,190.2969 116.375,190.6406 Q116.375,190.9844 116.0313,191.3906 Q115.5313,191.9688 114.7344,192.2969 Q113.6563,192.75 112.3594,192.75 Q110.8438,192.75 109.6406,192.125 Q108.6563,191.625 107.9688,190.5625 Q107.2813,189.4844 107.2813,188.2031 L107.2813,187.0469 Q107.2813,185.7188 107.8906,184.5781 Q108.5156,183.4219 109.6094,182.8125 Q110.7031,182.1875 111.9375,182.1875 Q112.6719,182.1875 113.3125,182.3594 Q113.9688,182.5156 114.5156,182.875 Z " fill="#000000"/><text fill="#000000" font-family="sans-serif" font-size="14" lengthAdjust="spacing" textLength="79" x="132.25" y="192.7969">Repositories</text><line style="stroke:#181818;stroke-width:0.5;" x1="8" x2="303" y1="203" y2="203"/><line style="stroke:#181818;stroke-width:0.5;" x1="8" x2="303" y1="211" y2="211"/><text fill="#000000" font-family="sans-serif" font-size="14" lengthAdjust="spacing" textLength="94" x="13" y="230.1074">-Repositories()</text><text fill="#000000" font-family="sans-serif" font-size="14" lengthAdjust="spacing" textLength="285" x="13" y="248.7285">+getMaintenanceRepositories(): Repositories</text><text fill="#000000" font-family="sans-serif" font-size="14" lengthAdjust="spacing" textLength="178" x="13" y="267.3496">+getInstance(): Repositories</text></g><!--link ListMaintenanceUI to ListMaintenanceController--><g id="link_ListMaintenanceUI_ListMaintenanceController"><path codeLine="28" d="M202.23,49.5 C207.56,49.5 216.35,49.5 230.93,49.5 " fill="none" id="ListMaintenanceUI-to-ListMaintenanceController" style="stroke:#181818;stroke-width:1.0;stroke-dasharray:7.0,7.0;"/><polygon fill="#181818" points="236.93,49.5,227.93,45.5,231.93,49.5,227.93,53.5,236.93,49.5" style="stroke:#181818;stroke-width:1.0;"/></g><!--link ListMaintenanceController to Repositories--><g id="link_ListMaintenanceController_Repositories"><path codeLine="29" d="M297.99,92.02 C272.02,115.71 243.672,141.5556 216.112,166.7056 " fill="none" id="ListMaintenanceController-to-Repositories" style="stroke:#181818;stroke-width:1.0;stroke-dasharray:7.0,7.0;"/><polygon fill="#181818" points="211.68,170.75,221.0243,167.638,215.3733,167.3796,215.6317,161.7287,211.68,170.75" style="stroke:#181818;stroke-width:1.0;"/><text fill="#000000" font-family="sans-serif" font-size="13" lengthAdjust="spacing" textLength="67" x="262.5" y="137.0283">repositories</text></g><!--link Repositories to Repositories--><g id="link_Repositories_Repositories"><path codeLine="30" d="M304.18,207.9 C325.03,210.36 339,215.4 339,223 C339,230.6 330.9887,234.937 310.1387,237.397 " fill="none" id="Repositories-to-Repositories" style="stroke:#181818;stroke-width:1.0;"/><polygon fill="#181818" points="304.18,238.1,313.5867,241.0179,309.1456,237.5141,312.6493,233.073,304.18,238.1" style="stroke:#181818;stroke-width:1.0;"/><text fill="#000000" font-family="sans-serif" font-size="13" lengthAdjust="spacing" textLength="49" x="345" y="228.5283">instance</text></g><!--link ListMaintenanceController to MaintenanceRepository--><g id="link_ListMaintenanceController_MaintenanceRepository"><path codeLine="31" d="M363.28,92.31 C379.74,127.11 400.5,171 400.5,171 C400.5,171 400.5,275 400.5,275 C400.5,275 348.7768,360.477 318.3568,410.737 " fill="none" id="ListMaintenanceController-to-MaintenanceRepository" style="stroke:#181818;stroke-width:1.0;stroke-dasharray:7.0,7.0;"/><polygon fill="#181818" points="315.25,415.87,323.3322,410.2416,317.839,411.5925,316.4881,406.0993,315.25,415.87" style="stroke:#181818;stroke-width:1.0;"/><text fill="#000000" font-family="sans-serif" font-size="13" lengthAdjust="spacing" textLength="136" x="383.5" y="320.0283">maintenanceRepository</text></g><!--link Repositories to MaintenanceRepository--><g id="link_Repositories_MaintenanceRepository"><path codeLine="32" d="M187.44,275.22 C214.4,318.45 248.9956,373.9285 271.9956,410.8185 " fill="none" id="Repositories-to-MaintenanceRepository" style="stroke:#181818;stroke-width:1.0;"/><polygon fill="#181818" points="275.17,415.91,273.8027,406.1565,272.5247,411.6671,267.0141,410.3891,275.17,415.91" style="stroke:#181818;stroke-width:1.0;"/><text fill="#000000" font-family="sans-serif" font-size="13" lengthAdjust="spacing" textLength="7" x="184.0839" y="297.0555">1</text><text fill="#000000" font-family="sans-serif" font-size="13" lengthAdjust="spacing" textLength="7" x="263.4785" y="404.7178">1</text></g><!--SRC=[VPB1JiCm38RlUGfhbu9G9xZsC0bngZGkJ3n0oBpMMXfNYITKfhqx2TeWfTroIlpzlt_BIX7sv7hjTGSTEpQjvmv1_07L7-crsUi6Dp9O18z6j6jiBWYjtl8dkGPsseQSM78eGu_GintIGnKpaBsmobp6wX2UHJnz70Hhmsv3NmYFIXKMTmB2uAbf1RQKnY5sIlruO4r1NZKvGQUTmVVwgDHfdhsm4y_MeZygYES16invaj_Tdv7ng0LdtL5pISZu6_OSIDWFDxkVBeF_wWb3T9IZGXhZVuCnhqRwixfsGP9qWcFgP56mN5tVaBfAO1bzUNEeuXV9iaQid6ZfFEEjXDNyOYlevihZnCNJ0ieovgRBR9jl]--></g></svg>