<?xml version="1.0" encoding="us-ascii" standalone="no"?><svg xmlns="http://www.w3.org/2000/svg" xmlns:xlink="http://www.w3.org/1999/xlink" contentStyleType="text/css" height="645px" preserveAspectRatio="none" style="width:406px;height:645px;background:#FFFFFF;" version="1.1" viewBox="0 0 406 645" width="406px" zoomAndPan="magnify"><defs/><g><text fill="#000000" font-family="sans-serif" font-size="14" font-weight="bold" lengthAdjust="spacing" textLength="276" x="64" y="30.1074">System Sequence Diagram (SSD) - US20</text><rect fill="#FFFFFF" height="383.0742" style="stroke:#181818;stroke-width:1.0;" width="10" x="45" y="151.8633"/><rect fill="#FFFFFF" height="48.582" style="stroke:#181818;stroke-width:1.0;" width="10" x="363" y="192.4453"/><rect fill="#FFFFFF" height="65.873" style="stroke:#181818;stroke-width:1.0;" width="10" x="363" y="272.3184"/><rect fill="#FFFFFF" height="31.291" style="stroke:#181818;stroke-width:1.0;" width="10" x="363" y="369.4824"/><rect fill="#FFFFFF" height="31.291" style="stroke:#181818;stroke-width:1.0;" width="10" x="363" y="432.0645"/><rect fill="#FFFFFF" height="31.291" style="stroke:#181818;stroke-width:1.0;" width="10" x="363" y="494.6465"/><line style="stroke:#181818;stroke-width:0.5;stroke-dasharray:5.0,5.0;" x1="50" x2="50" y1="141.8633" y2="543.9375"/><line style="stroke:#181818;stroke-width:0.5;stroke-dasharray:5.0,5.0;" x1="368" x2="368" y1="141.8633" y2="543.9375"/><text fill="#000000" font-family="sans-serif" font-size="14" lengthAdjust="spacing" textLength="84" x="5" y="119.7285">Green Space</text><text fill="#000000" font-family="sans-serif" font-size="14" lengthAdjust="spacing" textLength="56" x="19" y="138.3496">Manager</text><ellipse cx="50" cy="53.1211" fill="#E3E3E3" rx="8" ry="8" style="stroke:#181818;stroke-width:0.5;"/><path d="M50,61.1211 L50,88.1211 M37,69.1211 L63,69.1211 M50,88.1211 L37,103.1211 M50,88.1211 L63,103.1211 " fill="none" style="stroke:#181818;stroke-width:0.5;"/><text fill="#000000" font-family="sans-serif" font-size="14" lengthAdjust="spacing" textLength="84" x="5" y="558.0449">Green Space</text><text fill="#000000" font-family="sans-serif" font-size="14" lengthAdjust="spacing" textLength="56" x="19" y="576.666">Manager</text><ellipse cx="50" cy="588.6797" fill="#E3E3E3" rx="8" ry="8" style="stroke:#181818;stroke-width:0.5;"/><path d="M50,596.6797 L50,623.6797 M37,604.6797 L63,604.6797 M50,623.6797 L37,638.6797 M50,623.6797 L63,638.6797 " fill="none" style="stroke:#181818;stroke-width:0.5;"/><rect fill="#E3E3E3" height="32.6211" rx="2.5" ry="2.5" style="stroke:#181818;stroke-width:0.5;" width="64" x="336" y="108.2422"/><text fill="#000000" font-family="sans-serif" font-size="14" lengthAdjust="spacing" textLength="50" x="343" y="130.3496">:System</text><rect fill="#E3E3E3" height="32.6211" rx="2.5" ry="2.5" style="stroke:#181818;stroke-width:0.5;" width="64" x="336" y="542.9375"/><text fill="#000000" font-family="sans-serif" font-size="14" lengthAdjust="spacing" textLength="50" x="343" y="565.0449">:System</text><rect fill="#FFFFFF" height="383.0742" style="stroke:#181818;stroke-width:1.0;" width="10" x="45" y="151.8633"/><rect fill="#FFFFFF" height="48.582" style="stroke:#181818;stroke-width:1.0;" width="10" x="363" y="192.4453"/><rect fill="#FFFFFF" height="65.873" style="stroke:#181818;stroke-width:1.0;" width="10" x="363" y="272.3184"/><rect fill="#FFFFFF" height="31.291" style="stroke:#181818;stroke-width:1.0;" width="10" x="363" y="369.4824"/><rect fill="#FFFFFF" height="31.291" style="stroke:#181818;stroke-width:1.0;" width="10" x="363" y="432.0645"/><rect fill="#FFFFFF" height="31.291" style="stroke:#181818;stroke-width:1.0;" width="10" x="363" y="494.6465"/><polygon fill="#181818" points="351,188.4453,361,192.4453,351,196.4453,355,192.4453" style="stroke:#181818;stroke-width:1.0;"/><line style="stroke:#181818;stroke-width:1.0;" x1="55" x2="357" y1="192.4453" y2="192.4453"/><text fill="#000000" font-family="sans-serif" font-size="13" font-weight="bold" lengthAdjust="spacing" textLength="7" x="62" y="178.5371">1</text><text fill="#000000" font-family="sans-serif" font-size="13" lengthAdjust="spacing" textLength="203" x="73" y="169.8916">asks to register a green space with</text><text fill="#000000" font-family="sans-serif" font-size="13" lengthAdjust="spacing" textLength="105" x="77" y="187.1826">its respective area</text><polygon fill="#181818" points="66,237.0273,56,241.0273,66,245.0273,62,241.0273" style="stroke:#181818;stroke-width:1.0;"/><line style="stroke:#181818;stroke-width:1.0;stroke-dasharray:2.0,2.0;" x1="60" x2="367" y1="241.0273" y2="241.0273"/><text fill="#000000" font-family="sans-serif" font-size="13" font-weight="bold" lengthAdjust="spacing" textLength="7" x="72" y="227.1191">2</text><text fill="#000000" font-family="sans-serif" font-size="13" lengthAdjust="spacing" textLength="198" x="83" y="218.4736">requests green space data (name,</text><text fill="#000000" font-family="sans-serif" font-size="13" lengthAdjust="spacing" textLength="62" x="87" y="235.7646">type, area)</text><polygon fill="#181818" points="351,268.3184,361,272.3184,351,276.3184,355,272.3184" style="stroke:#181818;stroke-width:1.0;"/><line style="stroke:#181818;stroke-width:1.0;" x1="55" x2="357" y1="272.3184" y2="272.3184"/><text fill="#000000" font-family="sans-serif" font-size="13" font-weight="bold" lengthAdjust="spacing" textLength="7" x="62" y="267.0557">3</text><text fill="#000000" font-family="sans-serif" font-size="13" lengthAdjust="spacing" textLength="139" x="73" y="267.0557">inputs green space data</text><polygon fill="#181818" points="66,334.1914,56,338.1914,66,342.1914,62,338.1914" style="stroke:#181818;stroke-width:1.0;"/><line style="stroke:#181818;stroke-width:1.0;stroke-dasharray:2.0,2.0;" x1="60" x2="367" y1="338.1914" y2="338.1914"/><text fill="#000000" font-family="sans-serif" font-size="13" font-weight="bold" lengthAdjust="spacing" textLength="7" x="72" y="315.6377">4</text><text fill="#000000" font-family="sans-serif" font-size="13" lengthAdjust="spacing" textLength="194" x="83" y="298.3467">shows a list of green space types</text><text fill="#000000" font-family="sans-serif" font-size="13" lengthAdjust="spacing" textLength="265" x="87" y="315.6377">(garden, medium-sized park, large-sized park)</text><text fill="#000000" font-family="sans-serif" font-size="13" lengthAdjust="spacing" textLength="132" x="87" y="332.9287">and asks to select one</text><polygon fill="#181818" points="351,365.4824,361,369.4824,351,373.4824,355,369.4824" style="stroke:#181818;stroke-width:1.0;"/><line style="stroke:#181818;stroke-width:1.0;" x1="55" x2="357" y1="369.4824" y2="369.4824"/><text fill="#000000" font-family="sans-serif" font-size="13" font-weight="bold" lengthAdjust="spacing" textLength="7" x="62" y="364.2197">5</text><text fill="#000000" font-family="sans-serif" font-size="13" lengthAdjust="spacing" textLength="146" x="73" y="364.2197">selects green space type</text><polygon fill="#181818" points="66,396.7734,56,400.7734,66,404.7734,62,400.7734" style="stroke:#181818;stroke-width:1.0;"/><line style="stroke:#181818;stroke-width:1.0;stroke-dasharray:2.0,2.0;" x1="60" x2="367" y1="400.7734" y2="400.7734"/><text fill="#000000" font-family="sans-serif" font-size="13" font-weight="bold" lengthAdjust="spacing" textLength="7" x="72" y="395.5107">6</text><text fill="#000000" font-family="sans-serif" font-size="13" lengthAdjust="spacing" textLength="101" x="83" y="395.5107">requests the area</text><polygon fill="#181818" points="351,428.0645,361,432.0645,351,436.0645,355,432.0645" style="stroke:#181818;stroke-width:1.0;"/><line style="stroke:#181818;stroke-width:1.0;" x1="55" x2="357" y1="432.0645" y2="432.0645"/><text fill="#000000" font-family="sans-serif" font-size="13" font-weight="bold" lengthAdjust="spacing" textLength="7" x="62" y="426.8018">7</text><text fill="#000000" font-family="sans-serif" font-size="13" lengthAdjust="spacing" textLength="86" x="73" y="426.8018">inputs the area</text><polygon fill="#181818" points="66,459.3555,56,463.3555,66,467.3555,62,463.3555" style="stroke:#181818;stroke-width:1.0;"/><line style="stroke:#181818;stroke-width:1.0;stroke-dasharray:2.0,2.0;" x1="60" x2="367" y1="463.3555" y2="463.3555"/><text fill="#000000" font-family="sans-serif" font-size="13" font-weight="bold" lengthAdjust="spacing" textLength="7" x="72" y="458.0928">8</text><text fill="#000000" font-family="sans-serif" font-size="13" lengthAdjust="spacing" textLength="236" x="83" y="458.0928">shows all data and requests confirmation</text><polygon fill="#181818" points="351,490.6465,361,494.6465,351,498.6465,355,494.6465" style="stroke:#181818;stroke-width:1.0;"/><line style="stroke:#181818;stroke-width:1.0;" x1="55" x2="357" y1="494.6465" y2="494.6465"/><text fill="#000000" font-family="sans-serif" font-size="13" font-weight="bold" lengthAdjust="spacing" textLength="7" x="62" y="489.3838">9</text><text fill="#000000" font-family="sans-serif" font-size="13" lengthAdjust="spacing" textLength="78" x="73" y="489.3838">confirms data</text><polygon fill="#181818" points="66,521.9375,56,525.9375,66,529.9375,62,525.9375" style="stroke:#181818;stroke-width:1.0;"/><line style="stroke:#181818;stroke-width:1.0;stroke-dasharray:2.0,2.0;" x1="60" x2="367" y1="525.9375" y2="525.9375"/><text fill="#000000" font-family="sans-serif" font-size="13" font-weight="bold" lengthAdjust="spacing" textLength="14" x="72" y="520.6748">10</text><text fill="#000000" font-family="sans-serif" font-size="13" lengthAdjust="spacing" textLength="158" x="90" y="520.6748">displays operation success</text><!--SRC=[dP8nRy9038Nt_0gB2IIGgeuCdIenCKNTkhWNavouywLdfuZ- -le2HRIbGyXatTdlUtuNsNlkCME4c3YvBgT8e7cWIYutFRezjbJhCH1aSehSXki6wR191yyjx308LPLwjTRwA4eHQdeVY1t1iyUsjC_h-da1AtYf7n-g2WTDFCGtobOxJHbccqp4K1kNNdcBRF0y0nJOrDlAaEgTxv4LPkiJOxmybQE8_q2biRi2-wo0rTEtdxKrxmKqsIwjjwCC2Es8b8A4WzSENXcyYhL8JqMG03FXA7S1V1FX_9q1AsCLvDgcRNKncMlv1XLXpXXfMIXwxAqeuejHgA6R-hztiEo76y8J3KgN3cBh1yi1qkw7N34cnU6ynTmGBo5IuuUu4lz9ZVqLUR-4WBcbgvD56K1kBXaB1SiF4jEKxKvJyiVFlVbhT_L-qnB-CJevsH1ExrqYkRXnYNS-HrIVU8gZyvpSyzADbpxWKI3rb4SooE0SYVpZu0i0]--></g></svg>