<?xml version="1.0" encoding="us-ascii" standalone="no"?><svg xmlns="http://www.w3.org/2000/svg" xmlns:xlink="http://www.w3.org/1999/xlink" contentStyleType="text/css" height="584px" preserveAspectRatio="none" style="width:393px;height:584px;background:#FFFFFF;" version="1.1" viewBox="0 0 393 584" width="393px" zoomAndPan="magnify"><defs/><g><!--class HRM--><g id="elem_HRM"><rect codeLine="13" fill="#F1F1F1" height="36.6211" id="HRM" rx="2.5" ry="2.5" style="stroke:#181818;stroke-width:0.5;" width="36" x="24" y="7"/><text fill="#000000" font-family="sans-serif" font-size="14" lengthAdjust="spacing" textLength="30" x="27" y="27.1074">HRM</text><line style="stroke:#181818;stroke-width:0.5;" x1="25" x2="59" y1="35.6211" y2="35.6211"/></g><!--class Team--><g id="elem_Team"><rect codeLine="17" fill="#F1F1F1" height="73.8633" id="Team" rx="2.5" ry="2.5" style="stroke:#181818;stroke-width:0.5;" width="70" x="7" y="123"/><text fill="#000000" font-family="sans-serif" font-size="14" lengthAdjust="spacing" textLength="36" x="24" y="143.1074">Team</text><line style="stroke:#181818;stroke-width:0.5;" x1="8" x2="76" y1="151.6211" y2="151.6211"/><text fill="#000000" font-family="sans-serif" font-size="14" lengthAdjust="spacing" textLength="24" x="13" y="170.7285">size</text><text fill="#000000" font-family="sans-serif" font-size="14" lengthAdjust="spacing" textLength="58" x="13" y="189.3496">members</text></g><!--class Collaborator--><g id="elem_Collaborator"><rect codeLine="22" fill="#F1F1F1" height="166.9688" id="Collaborator" rx="2.5" ry="2.5" style="stroke:#181818;stroke-width:0.5;" width="136" x="172" y="276"/><text fill="#000000" font-family="sans-serif" font-size="14" lengthAdjust="spacing" textLength="78" x="201" y="296.1074">Collaborator</text><line style="stroke:#181818;stroke-width:0.5;" x1="173" x2="307" y1="304.6211" y2="304.6211"/><text fill="#000000" font-family="sans-serif" font-size="14" lengthAdjust="spacing" textLength="35" x="178" y="323.7285">name</text><text fill="#000000" font-family="sans-serif" font-size="14" lengthAdjust="spacing" textLength="56" x="178" y="342.3496">birthdate</text><text fill="#000000" font-family="sans-serif" font-size="14" lengthAdjust="spacing" textLength="93" x="178" y="360.9707">admissionDate</text><text fill="#000000" font-family="sans-serif" font-size="14" lengthAdjust="spacing" textLength="51" x="178" y="379.5918">address</text><text fill="#000000" font-family="sans-serif" font-size="14" lengthAdjust="spacing" textLength="69" x="178" y="398.2129">contactInfo</text><text fill="#000000" font-family="sans-serif" font-size="14" lengthAdjust="spacing" textLength="107" x="178" y="416.834">idDocumentType</text><text fill="#000000" font-family="sans-serif" font-size="14" lengthAdjust="spacing" textLength="124" x="178" y="435.4551">idDocumentNumber</text></g><!--class Organization--><g id="elem_Organization"><rect codeLine="32" fill="#F1F1F1" height="73.8633" id="Organization" rx="2.5" ry="2.5" style="stroke:#181818;stroke-width:0.5;" width="86" x="197" y="123"/><text fill="#000000" font-family="sans-serif" font-size="14" lengthAdjust="spacing" textLength="80" x="200" y="143.1074">Organization</text><line style="stroke:#181818;stroke-width:0.5;" x1="198" x2="282" y1="151.6211" y2="151.6211"/><text fill="#000000" font-family="sans-serif" font-size="14" lengthAdjust="spacing" textLength="35" x="203" y="170.7285">name</text><text fill="#000000" font-family="sans-serif" font-size="14" lengthAdjust="spacing" textLength="51" x="203" y="189.3496">address</text></g><!--class Skill--><g id="elem_Skill"><rect codeLine="37" fill="#F1F1F1" height="55.2422" id="Skill" rx="2.5" ry="2.5" style="stroke:#181818;stroke-width:0.5;" width="47" x="108.5" y="522"/><text fill="#000000" font-family="sans-serif" font-size="14" lengthAdjust="spacing" textLength="25" x="119.5" y="542.1074">Skill</text><line style="stroke:#181818;stroke-width:0.5;" x1="109.5" x2="154.5" y1="550.6211" y2="550.6211"/><text fill="#000000" font-family="sans-serif" font-size="14" lengthAdjust="spacing" textLength="35" x="114.5" y="569.7285">name</text></g><!--class Job--><g id="elem_Job"><rect codeLine="41" fill="#F1F1F1" height="55.2422" id="Job" rx="2.5" ry="2.5" style="stroke:#181818;stroke-width:0.5;" width="47" x="319.5" y="522"/><text fill="#000000" font-family="sans-serif" font-size="14" lengthAdjust="spacing" textLength="22" x="332" y="542.1074">Job</text><line style="stroke:#181818;stroke-width:0.5;" x1="320.5" x2="365.5" y1="550.6211" y2="550.6211"/><text fill="#000000" font-family="sans-serif" font-size="14" lengthAdjust="spacing" textLength="35" x="325.5" y="569.7285">name</text></g><!--link HRM to Team--><g id="link_HRM_Team"><path codeLine="45" d="M42,44.09 C42,64.09 42,97.25 42,122.83 " fill="none" id="HRM-Team" style="stroke:#181818;stroke-width:1.0;"/><polygon fill="#000000" points="47,88.6455,49.9389,79.6004,44.0611,79.6004,47,88.6455" style="stroke:#000000;stroke-width:1.0;"/><text fill="#000000" font-family="sans-serif" font-size="13" lengthAdjust="spacing" textLength="43" x="56" y="89.0283">creates</text><text fill="#000000" font-family="sans-serif" font-size="13" lengthAdjust="spacing" textLength="7" x="34.0594" y="65.4888">1</text><text fill="#000000" font-family="sans-serif" font-size="13" lengthAdjust="spacing" textLength="5" x="36.5547" y="111.7614">*</text></g><!--link Team to Collaborator--><g id="link_Team_Collaborator"><path codeLine="46" d="M77.4,196.31 C103.54,222.38 139.94,258.69 171.67,290.34 " fill="none" id="Team-Collaborator" style="stroke:#181818;stroke-width:1.0;"/><polygon fill="#000000" points="132.54,240.1765,128.2115,231.7081,124.0606,235.8696,132.54,240.1765" style="stroke:#000000;stroke-width:1.0;"/><text fill="#000000" font-family="sans-serif" font-size="13" lengthAdjust="spacing" textLength="21" x="138" y="242.0283">has</text><text fill="#000000" font-family="sans-serif" font-size="13" lengthAdjust="spacing" textLength="7" x="76.4809" y="218.921">1</text><text fill="#000000" font-family="sans-serif" font-size="13" lengthAdjust="spacing" textLength="20" x="143.9594" y="279.7395">1..*</text></g><!--link Collaborator to Skill--><g id="link_Collaborator_Skill"><path codeLine="47" d="M192.47,443.23 C176.17,471.6 159.08,501.37 147.24,521.98 " fill="none" id="Collaborator-Skill" style="stroke:#181818;stroke-width:1.0;"/><polygon fill="#000000" points="176.5098,486.9813,183.5631,480.6015,178.4662,477.6741,176.5098,486.9813" style="stroke:#000000;stroke-width:1.0;"/><text fill="#000000" font-family="sans-serif" font-size="13" lengthAdjust="spacing" textLength="21" x="188" y="488.0283">has</text><text fill="#000000" font-family="sans-serif" font-size="13" lengthAdjust="spacing" textLength="7" x="181.2441" y="464.9095">1</text><text fill="#000000" font-family="sans-serif" font-size="13" lengthAdjust="spacing" textLength="5" x="145.1861" y="510.6843">*</text></g><!--link Collaborator to Job--><g id="link_Collaborator_Job"><path codeLine="48" d="M285.33,443.23 C300.87,471.6 317.18,501.37 328.47,521.98 " fill="none" id="Collaborator-Job" style="stroke:#181818;stroke-width:1.0;"/><polygon fill="#000000" points="316.4022,487.0306,314.6341,477.6859,309.4791,480.5099,316.4022,487.0306" style="stroke:#000000;stroke-width:1.0;"/><text fill="#000000" font-family="sans-serif" font-size="13" lengthAdjust="spacing" textLength="21" x="323" y="488.0283">has</text><text fill="#000000" font-family="sans-serif" font-size="13" lengthAdjust="spacing" textLength="7" x="281.794" y="464.9095">1</text><text fill="#000000" font-family="sans-serif" font-size="13" lengthAdjust="spacing" textLength="5" x="319.5318" y="510.6843">*</text></g><!--link Organization to Collaborator--><g id="link_Organization_Collaborator"><path codeLine="49" d="M240,197.22 C240,219.27 240,248.39 240,275.81 " fill="none" id="Organization-Collaborator" style="stroke:#181818;stroke-width:1.0;"/><polygon fill="#000000" points="245,231.6455,242.0611,240.6906,247.9389,240.6906,245,231.6455" style="stroke:#000000;stroke-width:1.0;"/><text fill="#000000" font-family="sans-serif" font-size="13" lengthAdjust="spacing" textLength="52" x="254" y="242.0283">works for</text><text fill="#000000" font-family="sans-serif" font-size="13" lengthAdjust="spacing" textLength="7" x="232.4203" y="218.8561">1</text><text fill="#000000" font-family="sans-serif" font-size="13" lengthAdjust="spacing" textLength="20" x="219.1094" y="264.642">1..*</text></g><!--link Organization to Skill--><g id="link_Organization_Skill"><path codeLine="50" d="M196.89,187.83 C168.62,208.14 134.03,238.85 118,276 C81.86,359.72 107.99,471.62 123.17,521.97 " fill="none" id="Organization-Skill" style="stroke:#181818;stroke-width:1.0;"/><polygon fill="#000000" points="121.9228,364.5281,126.7414,356.3286,121.0016,355.0622,121.9228,364.5281" style="stroke:#000000;stroke-width:1.0;"/><text fill="#000000" font-family="sans-serif" font-size="13" lengthAdjust="spacing" textLength="21" x="132" y="365.0283">has</text><text fill="#000000" font-family="sans-serif" font-size="13" lengthAdjust="spacing" textLength="7" x="181.8789" y="188.2174">1</text><text fill="#000000" font-family="sans-serif" font-size="13" lengthAdjust="spacing" textLength="5" x="115.5499" y="510.672">*</text></g><!--link Organization to Job--><g id="link_Organization_Job"><path codeLine="51" d="M283.28,190.99 C295.15,201.16 306.95,213.42 315,227 C336.17,262.72 341.14,299.13 353,473 C353.57,481.42 353.74,483.59 353,492 C352.14,501.82 350.45,512.5 348.7,521.9 " fill="none" id="Organization-Job" style="stroke:#181818;stroke-width:1.0;"/><polygon fill="#000000" points="355.9697,364.5506,357.0986,355.1072,351.3324,356.2472,355.9697,364.5506" style="stroke:#000000;stroke-width:1.0;"/><text fill="#000000" font-family="sans-serif" font-size="13" lengthAdjust="spacing" textLength="21" x="364" y="365.0283">has</text><text fill="#000000" font-family="sans-serif" font-size="13" lengthAdjust="spacing" textLength="7" x="291.0279" y="191.7786">1</text><text fill="#000000" font-family="sans-serif" font-size="13" lengthAdjust="spacing" textLength="5" x="344.44" y="510.5858">*</text></g><!--SRC=[XP3BQiCm44Nt-eh1cq8XeTc6KYZDeYcqXIO_C9R6jh0UHXeJaj1_h-pKZXFwq6fqTMRkrSHQkmO3Mh3UULa5Rmauj2JY-DAWhB6a3UyDGI39w4ep1MA5ok-qAw504qc86qC50ti8kgmObEwwj7TYqYGDnlZ877JUCgsbTnjz8BWJejAAGEeWaqbVM-BAgoY4w9lW-UCLZaB0vo1iAGqy2aWdfY5zOSdc5A8OeITl3EO-8Flm3Jkq9pZNWIk5VBgXiZh6b7TrLbIW6Fiw9MMKl7Q5x-zQhRniBJdUxXkwajxQBiKvn7ieqUa3TjkuoZ1uZEocriPCeF7XnUUNShUGR971R0RPRNPQnn9ae9G_meFeXG5OpEU9cMvZ2HLssCM69lFw8Fz1ATI0J3_vf-tEXpf2aGRT_znqRVuRT3R_0W00]--></g></svg>