<?xml version="1.0" encoding="us-ascii" standalone="no"?><svg xmlns="http://www.w3.org/2000/svg" xmlns:xlink="http://www.w3.org/1999/xlink" contentStyleType="text/css" height="1187px" preserveAspectRatio="none" style="width:918px;height:1187px;background:#FFFFFF;" version="1.1" viewBox="0 0 918 1187" width="918px" zoomAndPan="magnify"><defs/><g><!--class HRM--><g id="elem_HRM"><rect codeLine="10" fill="#F1F1F1" height="166.9688" id="HRM" rx="2.5" ry="2.5" style="stroke:#181818;stroke-width:0.5;" width="136" x="148.99" y="7"/><text fill="#000000" font-family="sans-serif" font-size="14" lengthAdjust="spacing" textLength="30" x="201.99" y="27.1074">HRM</text><line style="stroke:#181818;stroke-width:0.5;" x1="149.99" x2="283.99" y1="35.6211" y2="35.6211"/><text fill="#000000" font-family="sans-serif" font-size="14" lengthAdjust="spacing" textLength="35" x="154.99" y="54.7285">name</text><text fill="#000000" font-family="sans-serif" font-size="14" lengthAdjust="spacing" textLength="56" x="154.99" y="73.3496">birthdate</text><text fill="#000000" font-family="sans-serif" font-size="14" lengthAdjust="spacing" textLength="93" x="154.99" y="91.9707">admissionDate</text><text fill="#000000" font-family="sans-serif" font-size="14" lengthAdjust="spacing" textLength="51" x="154.99" y="110.5918">address</text><text fill="#000000" font-family="sans-serif" font-size="14" lengthAdjust="spacing" textLength="69" x="154.99" y="129.2129">contactInfo</text><text fill="#000000" font-family="sans-serif" font-size="14" lengthAdjust="spacing" textLength="107" x="154.99" y="147.834">idDocumentType</text><text fill="#000000" font-family="sans-serif" font-size="14" lengthAdjust="spacing" textLength="124" x="154.99" y="166.4551">idDocumentNumber</text></g><!--class Skill--><g id="elem_Skill"><rect codeLine="20" fill="#F1F1F1" height="55.2422" id="Skill" rx="2.5" ry="2.5" style="stroke:#181818;stroke-width:0.5;" width="47" x="66.49" y="583"/><text fill="#000000" font-family="sans-serif" font-size="14" lengthAdjust="spacing" textLength="25" x="77.49" y="603.1074">Skill</text><line style="stroke:#181818;stroke-width:0.5;" x1="67.49" x2="112.49" y1="611.6211" y2="611.6211"/><text fill="#000000" font-family="sans-serif" font-size="14" lengthAdjust="spacing" textLength="35" x="72.49" y="630.7285">name</text></g><!--class Job--><g id="elem_Job"><rect codeLine="23" fill="#F1F1F1" height="55.2422" id="Job" rx="2.5" ry="2.5" style="stroke:#181818;stroke-width:0.5;" width="47" x="222.49" y="583"/><text fill="#000000" font-family="sans-serif" font-size="14" lengthAdjust="spacing" textLength="22" x="234.99" y="603.1074">Job</text><line style="stroke:#181818;stroke-width:0.5;" x1="223.49" x2="268.49" y1="611.6211" y2="611.6211"/><text fill="#000000" font-family="sans-serif" font-size="14" lengthAdjust="spacing" textLength="35" x="228.49" y="630.7285">name</text></g><!--class Team--><g id="elem_Team"><rect codeLine="28" fill="#F1F1F1" height="73.8633" id="Team" rx="2.5" ry="2.5" style="stroke:#181818;stroke-width:0.5;" width="70" x="377.99" y="53.5"/><text fill="#000000" font-family="sans-serif" font-size="14" lengthAdjust="spacing" textLength="36" x="394.99" y="73.6074">Team</text><line style="stroke:#181818;stroke-width:0.5;" x1="378.99" x2="446.99" y1="82.1211" y2="82.1211"/><text fill="#000000" font-family="sans-serif" font-size="14" lengthAdjust="spacing" textLength="24" x="383.99" y="101.2285">size</text><text fill="#000000" font-family="sans-serif" font-size="14" lengthAdjust="spacing" textLength="58" x="383.99" y="119.8496">members</text></g><!--class Collaborator--><g id="elem_Collaborator"><rect codeLine="34" fill="#F1F1F1" height="166.9688" id="Collaborator" rx="2.5" ry="2.5" style="stroke:#181818;stroke-width:0.5;" width="136" x="310.99" y="253"/><text fill="#000000" font-family="sans-serif" font-size="14" lengthAdjust="spacing" textLength="78" x="339.99" y="273.1074">Collaborator</text><line style="stroke:#181818;stroke-width:0.5;" x1="311.99" x2="445.99" y1="281.6211" y2="281.6211"/><text fill="#000000" font-family="sans-serif" font-size="14" lengthAdjust="spacing" textLength="35" x="316.99" y="300.7285">name</text><text fill="#000000" font-family="sans-serif" font-size="14" lengthAdjust="spacing" textLength="56" x="316.99" y="319.3496">birthdate</text><text fill="#000000" font-family="sans-serif" font-size="14" lengthAdjust="spacing" textLength="93" x="316.99" y="337.9707">admissionDate</text><text fill="#000000" font-family="sans-serif" font-size="14" lengthAdjust="spacing" textLength="51" x="316.99" y="356.5918">address</text><text fill="#000000" font-family="sans-serif" font-size="14" lengthAdjust="spacing" textLength="69" x="316.99" y="375.2129">contactInfo</text><text fill="#000000" font-family="sans-serif" font-size="14" lengthAdjust="spacing" textLength="107" x="316.99" y="393.834">idDocumentType</text><text fill="#000000" font-family="sans-serif" font-size="14" lengthAdjust="spacing" textLength="124" x="316.99" y="412.4551">idDocumentNumber</text></g><!--class GreenSpace--><g id="elem_GreenSpace"><rect codeLine="46" fill="#F1F1F1" height="92.4844" id="GreenSpace" rx="2.5" ry="2.5" style="stroke:#181818;stroke-width:0.5;" width="86" x="642.99" y="935"/><text fill="#000000" font-family="sans-serif" font-size="14" lengthAdjust="spacing" textLength="80" x="645.99" y="955.1074">GreenSpace</text><line style="stroke:#181818;stroke-width:0.5;" x1="643.99" x2="727.99" y1="963.6211" y2="963.6211"/><text fill="#000000" font-family="sans-serif" font-size="14" lengthAdjust="spacing" textLength="35" x="648.99" y="982.7285">name</text><text fill="#000000" font-family="sans-serif" font-size="14" lengthAdjust="spacing" textLength="51" x="648.99" y="1001.3496">address</text><text fill="#000000" font-family="sans-serif" font-size="14" lengthAdjust="spacing" textLength="27" x="648.99" y="1019.9707">type</text></g><!--class Garden--><g id="elem_Garden"><rect codeLine="52" fill="#F1F1F1" height="92.4844" id="Garden" rx="2.5" ry="2.5" style="stroke:#181818;stroke-width:0.5;" width="76" x="515.99" y="1088"/><text fill="#000000" font-family="sans-serif" font-size="14" lengthAdjust="spacing" textLength="48" x="529.99" y="1108.1074">Garden</text><line style="stroke:#181818;stroke-width:0.5;" x1="516.99" x2="590.99" y1="1116.6211" y2="1116.6211"/><text fill="#000000" font-family="sans-serif" font-size="14" lengthAdjust="spacing" textLength="35" x="521.99" y="1135.7285">name</text><text fill="#000000" font-family="sans-serif" font-size="14" lengthAdjust="spacing" textLength="51" x="521.99" y="1154.3496">address</text><text fill="#000000" font-family="sans-serif" font-size="14" lengthAdjust="spacing" textLength="64" x="521.99" y="1172.9707">dimension</text></g><!--class MediumSizedPark--><g id="elem_MediumSizedPark"><rect codeLine="58" fill="#F1F1F1" height="92.4844" id="MediumSizedPark" rx="2.5" ry="2.5" style="stroke:#181818;stroke-width:0.5;" width="118" x="626.99" y="1088"/><text fill="#000000" font-family="sans-serif" font-size="14" lengthAdjust="spacing" textLength="112" x="629.99" y="1108.1074">MediumSizedPark</text><line style="stroke:#181818;stroke-width:0.5;" x1="627.99" x2="743.99" y1="1116.6211" y2="1116.6211"/><text fill="#000000" font-family="sans-serif" font-size="14" lengthAdjust="spacing" textLength="35" x="632.99" y="1135.7285">name</text><text fill="#000000" font-family="sans-serif" font-size="14" lengthAdjust="spacing" textLength="51" x="632.99" y="1154.3496">address</text><text fill="#000000" font-family="sans-serif" font-size="14" lengthAdjust="spacing" textLength="64" x="632.99" y="1172.9707">dimension</text></g><!--class LargeSizedPark--><g id="elem_LargeSizedPark"><rect codeLine="64" fill="#F1F1F1" height="92.4844" id="LargeSizedPark" rx="2.5" ry="2.5" style="stroke:#181818;stroke-width:0.5;" width="106" x="779.99" y="1088"/><text fill="#000000" font-family="sans-serif" font-size="14" lengthAdjust="spacing" textLength="100" x="782.99" y="1108.1074">LargeSizedPark</text><line style="stroke:#181818;stroke-width:0.5;" x1="780.99" x2="884.99" y1="1116.6211" y2="1116.6211"/><text fill="#000000" font-family="sans-serif" font-size="14" lengthAdjust="spacing" textLength="35" x="785.99" y="1135.7285">name</text><text fill="#000000" font-family="sans-serif" font-size="14" lengthAdjust="spacing" textLength="51" x="785.99" y="1154.3496">address</text><text fill="#000000" font-family="sans-serif" font-size="14" lengthAdjust="spacing" textLength="64" x="785.99" y="1172.9707">dimension</text></g><!--class Vehicle--><g id="elem_Vehicle"><rect codeLine="71" fill="#F1F1F1" height="222.832" id="Vehicle" rx="2.5" ry="2.5" style="stroke:#181818;stroke-width:0.5;" width="222" x="574.99" y="499"/><text fill="#000000" font-family="sans-serif" font-size="14" lengthAdjust="spacing" textLength="46" x="662.99" y="519.1074">Vehicle</text><line style="stroke:#181818;stroke-width:0.5;" x1="575.99" x2="795.99" y1="527.6211" y2="527.6211"/><text fill="#000000" font-family="sans-serif" font-size="14" lengthAdjust="spacing" textLength="46" x="580.99" y="546.7285">plate id</text><text fill="#000000" font-family="sans-serif" font-size="14" lengthAdjust="spacing" textLength="37" x="580.99" y="565.3496">brand</text><text fill="#000000" font-family="sans-serif" font-size="14" lengthAdjust="spacing" textLength="38" x="580.99" y="583.9707">model</text><text fill="#000000" font-family="sans-serif" font-size="14" lengthAdjust="spacing" textLength="27" x="580.99" y="602.5918">type</text><text fill="#000000" font-family="sans-serif" font-size="14" lengthAdjust="spacing" textLength="25" x="580.99" y="621.2129">tare</text><text fill="#000000" font-family="sans-serif" font-size="14" lengthAdjust="spacing" textLength="79" x="580.99" y="639.834">gross weight</text><text fill="#000000" font-family="sans-serif" font-size="14" lengthAdjust="spacing" textLength="74" x="580.99" y="658.4551">current kms</text><text fill="#000000" font-family="sans-serif" font-size="14" lengthAdjust="spacing" textLength="103" x="580.99" y="677.0762">registration date</text><text fill="#000000" font-family="sans-serif" font-size="14" lengthAdjust="spacing" textLength="99" x="580.99" y="695.6973">acquisition date</text><text fill="#000000" font-family="sans-serif" font-size="14" lengthAdjust="spacing" textLength="210" x="580.99" y="714.3184">maintenance/check-up frequency</text></g><!--class VFM--><g id="elem_VFM"><rect codeLine="84" fill="#F1F1F1" height="185.5898" id="VFM" rx="2.5" ry="2.5" style="stroke:#181818;stroke-width:0.5;" width="157" x="318.49" y="517.5"/><text fill="#000000" font-family="sans-serif" font-size="14" lengthAdjust="spacing" textLength="29" x="382.49" y="537.6074">VFM</text><line style="stroke:#181818;stroke-width:0.5;" x1="319.49" x2="474.49" y1="546.1211" y2="546.1211"/><text fill="#000000" font-family="sans-serif" font-size="14" lengthAdjust="spacing" textLength="35" x="324.49" y="565.2285">name</text><text fill="#000000" font-family="sans-serif" font-size="14" lengthAdjust="spacing" textLength="56" x="324.49" y="583.8496">birthdate</text><text fill="#000000" font-family="sans-serif" font-size="14" lengthAdjust="spacing" textLength="95" x="324.49" y="602.4707">admission date</text><text fill="#000000" font-family="sans-serif" font-size="14" lengthAdjust="spacing" textLength="51" x="324.49" y="621.0918">address</text><text fill="#000000" font-family="sans-serif" font-size="14" lengthAdjust="spacing" textLength="92" x="324.49" y="639.7129">phone number</text><text fill="#000000" font-family="sans-serif" font-size="14" lengthAdjust="spacing" textLength="33" x="324.49" y="658.334">email</text><text fill="#000000" font-family="sans-serif" font-size="14" lengthAdjust="spacing" textLength="145" x="324.49" y="676.9551">identification document</text><text fill="#000000" font-family="sans-serif" font-size="14" lengthAdjust="spacing" textLength="48" x="324.49" y="695.5762">number</text></g><!--class VehiclesCheckUp--><g id="elem_VehiclesCheckUp"><rect codeLine="95" fill="#F1F1F1" height="55.2422" id="VehiclesCheckUp" rx="2.5" ry="2.5" style="stroke:#181818;stroke-width:0.5;" width="116" x="459.99" y="801"/><text fill="#000000" font-family="sans-serif" font-size="14" lengthAdjust="spacing" textLength="110" x="462.99" y="821.1074">VehiclesCheckUp</text><line style="stroke:#181818;stroke-width:0.5;" x1="460.99" x2="574.99" y1="829.6211" y2="829.6211"/><text fill="#000000" font-family="sans-serif" font-size="14" lengthAdjust="spacing" textLength="46" x="465.99" y="848.7285">plate id</text></g><!--reverse link Collaborator to HRM--><g id="link_Collaborator_HRM"><path codeLine="100" d="M299.5196,246.5893 C289.6796,234.3893 291.37,235.62 282.99,223 C272.89,207.78 263.29,190.81 254.69,174.24 " fill="none" id="Collaborator-backto-HRM" style="stroke:#181818;stroke-width:1.0;"/><polygon fill="none" points="310.82,260.6,304.1898,242.8225,294.8493,250.3561,310.82,260.6" style="stroke:#181818;stroke-width:1.0;"/></g><!--link HRM to Collaborator--><g id="link_HRM_Collaborator"><path codeLine="113" d="M271.84,174.11 C288.73,199.55 304.0027,222.5405 320.8827,247.9805 " fill="none" id="HRM-to-Collaborator" style="stroke:#181818;stroke-width:1.0;"/><polygon fill="#181818" points="324.2,252.98,322.5571,243.2691,321.4356,248.8137,315.891,247.6922,324.2,252.98" style="stroke:#181818;stroke-width:1.0;"/><text fill="#000000" font-family="sans-serif" font-size="13" lengthAdjust="spacing" textLength="50" x="303.99" y="219.0283">registers</text><text fill="#000000" font-family="sans-serif" font-size="13" lengthAdjust="spacing" textLength="7" x="269.2529" y="196.0679">1</text><text fill="#000000" font-family="sans-serif" font-size="13" lengthAdjust="spacing" textLength="5" x="314.0976" y="241.8271">*</text></g><!--link GreenSpace to Collaborator--><g id="link_GreenSpace_Collaborator"><path codeLine="101" d="M720.88,934.65 C786.04,844.03 911.3,637.38 814.99,499 C731.3,378.75 547.12,347.83 447.01,340.02 " fill="none" id="GreenSpace-Collaborator" style="stroke:#181818;stroke-width:1.0;"/><polygon fill="#000000" points="822.8983,757.104,824.0128,766.5491,829.3516,764.0902,822.8983,757.104" style="stroke:#000000;stroke-width:1.0;"/><text fill="#000000" font-family="sans-serif" font-size="13" lengthAdjust="spacing" textLength="49" x="833.99" y="767.0283">contains</text><text fill="#000000" font-family="sans-serif" font-size="13" lengthAdjust="spacing" textLength="7" x="718.4904" y="923.608">1</text><text fill="#000000" font-family="sans-serif" font-size="13" lengthAdjust="spacing" textLength="20" x="455.0558" y="336.5514">1..*</text></g><!--reverse link GreenSpace to Garden--><g id="link_GreenSpace_Garden"><path codeLine="102" d="M634.5428,1040.8515 C617.3728,1060.4915 609.21,1069.83 592.21,1089.28 " fill="none" id="GreenSpace-backto-Garden" style="stroke:#181818;stroke-width:1.0;"/><polygon fill="none" points="646.39,1027.3,630.0256,1036.9024,639.0599,1044.8006,646.39,1027.3" style="stroke:#181818;stroke-width:1.0;"/></g><!--reverse link GreenSpace to MediumSizedPark--><g id="link_GreenSpace_MediumSizedPark"><path codeLine="103" d="M685.99,1045.3 C685.99,1064.5 685.99,1068.82 685.99,1087.99 " fill="none" id="GreenSpace-backto-MediumSizedPark" style="stroke:#181818;stroke-width:1.0;"/><polygon fill="none" points="685.99,1027.3,679.99,1045.3,691.99,1045.3,685.99,1027.3" style="stroke:#181818;stroke-width:1.0;"/></g><!--reverse link GreenSpace to LargeSizedPark--><g id="link_GreenSpace_LargeSizedPark"><path codeLine="104" d="M741.8565,1039.3871 C760.6565,1058.6971 770.09,1068.39 788.97,1087.78 " fill="none" id="GreenSpace-backto-LargeSizedPark" style="stroke:#181818;stroke-width:1.0;"/><polygon fill="none" points="729.3,1026.49,737.5574,1043.5726,746.1555,1035.2016,729.3,1026.49" style="stroke:#181818;stroke-width:1.0;"/></g><!--link HRM to Skill--><g id="link_HRM_Skill"><path codeLine="107" d="M185.21,174.17 C176.28,199.25 167.08,227.04 159.99,253 C126.84,374.39 102.85,523.09 93.87,582.81 " fill="none" id="HRM-Skill" style="stroke:#181818;stroke-width:1.0;"/><polygon fill="#000000" points="163.8993,341.5251,168.7405,333.3389,163.0042,332.0567,163.8993,341.5251" style="stroke:#000000;stroke-width:1.0;"/><text fill="#000000" font-family="sans-serif" font-size="13" lengthAdjust="spacing" textLength="43" x="173.99" y="342.0283">creates</text><text fill="#000000" font-family="sans-serif" font-size="13" lengthAdjust="spacing" textLength="7" x="175.1781" y="196.133">1</text><text fill="#000000" font-family="sans-serif" font-size="13" lengthAdjust="spacing" textLength="20" x="96.9063" y="571.9271">1..*</text></g><!--link HRM to Skill--><g id="link_HRM_Skill"><path codeLine="116" d="M148.95,137.96 C113.41,166.51 73.38,206.49 53.99,253 C6,368.12 55.26,521.6 78.88,582.73 " fill="none" id="HRM-Skill-1" style="stroke:#181818;stroke-width:1.0;"/><polygon fill="#000000" points="58.2119,341.5846,62.5226,333.1071,56.7164,332.1923,58.2119,341.5846" style="stroke:#000000;stroke-width:1.0;"/><text fill="#000000" font-family="sans-serif" font-size="13" lengthAdjust="spacing" textLength="45" x="67.99" y="342.0283">assigns</text><text fill="#000000" font-family="sans-serif" font-size="13" lengthAdjust="spacing" textLength="7" x="134.1253" y="139.2672">1</text><text fill="#000000" font-family="sans-serif" font-size="13" lengthAdjust="spacing" textLength="20" x="54.2622" y="571.8296">1..*</text></g><!--link HRM to Job--><g id="link_HRM_Job"><path codeLine="110" d="M221.45,174.19 C225.05,240.63 230.27,336.31 234.99,420 C238.27,478.07 242.26,546.15 244.42,582.83 " fill="none" id="HRM-Job" style="stroke:#181818;stroke-width:1.0;"/><polygon fill="#000000" points="240.2706,341.6376,242.6973,332.4419,236.8287,332.7717,240.2706,341.6376" style="stroke:#000000;stroke-width:1.0;"/><text fill="#000000" font-family="sans-serif" font-size="13" lengthAdjust="spacing" textLength="43" x="248.99" y="342.0283">creates</text><text fill="#000000" font-family="sans-serif" font-size="13" lengthAdjust="spacing" textLength="7" x="214.5295" y="195.8661">1</text><text fill="#000000" font-family="sans-serif" font-size="13" lengthAdjust="spacing" textLength="20" x="221.8891" y="571.9515">1..*</text></g><!--link Collaborator to Skill--><g id="link_Collaborator_Skill"><path codeLine="117" d="M310.98,400.12 C278.74,429.94 239.75,466.17 204.99,499 C173.19,529.04 136.83,564.09 113.66,586.52 " fill="none" id="Collaborator-Skill" style="stroke:#181818;stroke-width:1.0;"/><polygon fill="#000000" points="254.3553,463.079,262.9487,459.0041,258.9123,454.7313,254.3553,463.079" style="stroke:#000000;stroke-width:1.0;"/><text fill="#000000" font-family="sans-serif" font-size="13" lengthAdjust="spacing" textLength="21" x="266.99" y="465.0283">has</text><text fill="#000000" font-family="sans-serif" font-size="13" lengthAdjust="spacing" textLength="7" x="296.1586" y="403.1947">1</text><text fill="#000000" font-family="sans-serif" font-size="13" lengthAdjust="spacing" textLength="20" x="121.4462" y="576.043">1..*</text></g><!--link HRM to Team--><g id="link_HRM_Team"><path codeLine="120" d="M284.99,90.5 C316.28,90.5 352.09,90.5 377.86,90.5 " fill="none" id="HRM-Team" style="stroke:#181818;stroke-width:1.0;"/><polygon fill="#000000" points="312.49,78.1455,303.4449,75.2066,303.4449,81.0844,312.49,78.1455" style="stroke:#000000;stroke-width:1.0;"/><text fill="#000000" font-family="sans-serif" font-size="13" lengthAdjust="spacing" textLength="43" x="316.49" y="83.5283">creates</text><text fill="#000000" font-family="sans-serif" font-size="13" lengthAdjust="spacing" textLength="7" x="292.8103" y="86.6163">1</text><text fill="#000000" font-family="sans-serif" font-size="13" lengthAdjust="spacing" textLength="20" x="350.1033" y="106.026">1..*</text></g><!--link Collaborator to Job--><g id="link_Collaborator_Job"><path codeLine="121" d="M338.55,420.22 C311.34,475.86 277.22,545.63 258.96,582.99 " fill="none" id="Collaborator-Job" style="stroke:#181818;stroke-width:1.0;"/><polygon fill="#000000" points="323.7936,464.1373,330.4071,457.3026,325.1267,454.7206,323.7936,464.1373" style="stroke:#000000;stroke-width:1.0;"/><text fill="#000000" font-family="sans-serif" font-size="13" lengthAdjust="spacing" textLength="21" x="334.99" y="465.0283">has</text><text fill="#000000" font-family="sans-serif" font-size="13" lengthAdjust="spacing" textLength="7" x="327.9112" y="441.8986">1</text><text fill="#000000" font-family="sans-serif" font-size="13" lengthAdjust="spacing" textLength="7" x="254.1499" y="571.6967">1</text></g><!--link Team to Collaborator--><g id="link_Team_Collaborator"><path codeLine="122" d="M407.97,127.5 C403.39,160.38 396.45,210.21 390.51,252.85 " fill="none" id="Team-Collaborator" style="stroke:#181818;stroke-width:1.0;"/><polygon fill="#000000" points="401.3002,218.5977,405.4589,210.0446,399.6372,209.2337,401.3002,218.5977" style="stroke:#000000;stroke-width:1.0;"/><text fill="#000000" font-family="sans-serif" font-size="13" lengthAdjust="spacing" textLength="21" x="410.99" y="219.0283">has</text><text fill="#000000" font-family="sans-serif" font-size="13" lengthAdjust="spacing" textLength="7" x="399.5056" y="149.3854">1</text><text fill="#000000" font-family="sans-serif" font-size="13" lengthAdjust="spacing" textLength="20" x="370.6454" y="241.6856">1..*</text></g><!--reverse link Collaborator to VFM--><g id="link_Collaborator_VFM"><path codeLine="124" d="M388.1801,438.049 C389.0101,448.109 388.32,440.32 388.99,450 C390.5,471.71 391.84,495.11 392.96,517.11 " fill="none" id="Collaborator-backto-VFM" style="stroke:#181818;stroke-width:1.0;"/><polygon fill="none" points="386.7,420.11,382.2004,438.5424,394.1597,437.5557,386.7,420.11" style="stroke:#181818;stroke-width:1.0;"/></g><!--link VFM to Vehicle--><g id="link_VFM_Vehicle"><path codeLine="127" d="M475.58,610.5 C506.17,610.5 541.77,610.5 574.9,610.5 " fill="none" id="VFM-Vehicle" style="stroke:#181818;stroke-width:1.0;"/><polygon fill="#000000" points="502.74,598.1455,493.6949,595.2066,493.6949,601.0844,502.74,598.1455" style="stroke:#000000;stroke-width:1.0;"/><text fill="#000000" font-family="sans-serif" font-size="13" lengthAdjust="spacing" textLength="50" x="506.74" y="603.5283">registers</text><text fill="#000000" font-family="sans-serif" font-size="13" lengthAdjust="spacing" textLength="7" x="483.4042" y="606.7516">1</text><text fill="#000000" font-family="sans-serif" font-size="13" lengthAdjust="spacing" textLength="20" x="547.1555" y="607.0243">1..*</text></g><!--link VFM to Vehicle--><g id="link_VFM_Vehicle"><path codeLine="130" d="M475.53,629.96 C481.5,630.98 487.45,631.85 493.24,632.5 C519.68,635.48 548.16,634.53 574.9,631.79 " fill="none" id="VFM-Vehicle-1" style="stroke:#181818;stroke-width:1.0;"/><polygon fill="#000000" points="503.2392,623.2376,494.2497,620.1326,494.1415,626.0095,503.2392,623.2376" style="stroke:#000000;stroke-width:1.0;"/><text fill="#000000" font-family="sans-serif" font-size="13" lengthAdjust="spacing" textLength="49" x="507.24" y="628.5283">chooses</text><text fill="#000000" font-family="sans-serif" font-size="13" lengthAdjust="spacing" textLength="7" x="483.6058" y="628.1017">1</text><text fill="#000000" font-family="sans-serif" font-size="13" lengthAdjust="spacing" textLength="20" x="547.1555" y="647.6476">1..*</text></g><!--link Vehicle to GreenSpace--><g id="link_Vehicle_GreenSpace"><path codeLine="131" d="M685.99,722.06 C685.99,793.29 685.99,882.12 685.99,934.77 " fill="none" id="Vehicle-GreenSpace" style="stroke:#181818;stroke-width:1.0;"/><polygon fill="#000000" points="690.99,823.6455,688.0511,832.6906,693.9289,832.6906,690.99,823.6455" style="stroke:#000000;stroke-width:1.0;"/><text fill="#000000" font-family="sans-serif" font-size="13" lengthAdjust="spacing" textLength="21" x="699.99" y="834.0283">has</text><text fill="#000000" font-family="sans-serif" font-size="13" lengthAdjust="spacing" textLength="20" x="665.3494" y="743.7944">1..*</text><text fill="#000000" font-family="sans-serif" font-size="13" lengthAdjust="spacing" textLength="7" x="669.8884" y="923.7457">1</text></g><!--link VFM to VehiclesCheckUp--><g id="link_VFM_VehiclesCheckUp"><path codeLine="134" d="M448.66,703.73 C468.31,738.82 489.24,776.17 502.9,800.55 " fill="none" id="VFM-VehiclesCheckUp" style="stroke:#181818;stroke-width:1.0;"/><polygon fill="#000000" points="492.4337,766.0076,490.577,756.6801,485.449,759.5529,492.4337,766.0076" style="stroke:#000000;stroke-width:1.0;"/><text fill="#000000" font-family="sans-serif" font-size="13" lengthAdjust="spacing" textLength="24" x="498.99" y="767.0283">lists</text><text fill="#000000" font-family="sans-serif" font-size="13" lengthAdjust="spacing" textLength="7" x="445.1975" y="725.2549">1</text><text fill="#000000" font-family="sans-serif" font-size="13" lengthAdjust="spacing" textLength="20" x="477.4116" y="789.6102">1..*</text></g><!--link VehiclesCheckUp to GreenSpace--><g id="link_VehiclesCheckUp_GreenSpace"><path codeLine="135" d="M547.64,856.06 C574.02,879.69 612.92,914.54 642.76,941.27 " fill="none" id="VehiclesCheckUp-GreenSpace" style="stroke:#181818;stroke-width:1.0;"/><polygon fill="#000000" points="603.2658,892.3093,608.042,900.5336,611.9639,896.1555,603.2658,892.3093" style="stroke:#000000;stroke-width:1.0;"/><text fill="#000000" font-family="sans-serif" font-size="13" lengthAdjust="spacing" textLength="21" x="615.99" y="901.0283">has</text><text fill="#000000" font-family="sans-serif" font-size="13" lengthAdjust="spacing" textLength="20" x="532.1841" y="878.4328">1..*</text><text fill="#000000" font-family="sans-serif" font-size="13" lengthAdjust="spacing" textLength="7" x="619.992" y="930.8983">1</text></g><!--SRC=[nLLDJzmm4BtxLrYv85LQklHR225Le5AgKbLTuEvrPXDh_H5iHsZRyjyPsyd6oMuHdBedPppptflnizUjXMwOPOegemslhL50lMs1kErEm_YQLR3m6mdK0lTCLp9FS3KhpRtG5LqnwO0S35jIQF2R1gYnlZRaGCBAKs-e5LNjQIa2d30w0-EIEVVPUokMhOTBRlH2_0Ow9xKeWN9XENB7jGA4B1qXiOH-_NL5_n2AFyqKnCLI86l9VFfYfHBE8Tlv42ajE1VNIEGPzvTwPUAtACyDRnLeVutw9w4VhLg29Gyzzs8jfCpP7xgDRsOv3lSLru2zfXs7_SM5We2A3MrnpuoKR6aiyyR-X-Pw6HSMG2_G1p0LaPE4SnwaNp1RWduglnJ85YGFHLTGYbQ50oz_Chj-OVLtPj6cBoxkgc-X5kYjLDL872FE94tQCfrMofGWXsRZWjcqgAn1b7i8pav3Rwt5STArIgGMAk4ydYNoqk7W-5qhd1W75HFQWsQQmsjU0r_FseQkBDoreFbcwFZsotCzdn5cSsXgeu7gTE0X0CWiEp-WTh4IlDFRcIEHJUpVZSwT1Qat3PtCCCnuvEIJlxDPkAyaCrPnL52C5aU7Xw-AaV6Fats5TlGqhuWeoMOxuOcHTlR7LY7au6Ondn-Hy8QCXSIRZGeiO3D1G4fzioSrtFNTpBTPvYaj9hrXGR95lFUnuDs_L60k3bjKSGuZaFt9DHjKl1z0-xJu0kLwzqF6ldgmMFFKINMSkwUDJksaV231jGWocnNeaeJIEIYRnbRwnst-ddHU6-EY-YxKoue2AIsojokfE-bWF_MmMIyJ7n_ZtvVp6VZMuCyWUGG0]--></g></svg>