<?xml version="1.0" encoding="us-ascii" standalone="no"?><svg xmlns="http://www.w3.org/2000/svg" xmlns:xlink="http://www.w3.org/1999/xlink" contentStyleType="text/css" height="863px" preserveAspectRatio="none" style="width:884px;height:863px;background:#FFFFFF;" version="1.1" viewBox="0 0 884 863" width="884px" zoomAndPan="magnify"><defs/><g><!--class HRM--><g id="elem_HRM"><rect codeLine="10" fill="#F1F1F1" height="166.9688" id="HRM" rx="2.5" ry="2.5" style="stroke:#181818;stroke-width:0.5;" width="136" x="146.64" y="7"/><text fill="#000000" font-family="sans-serif" font-size="14" lengthAdjust="spacing" textLength="30" x="199.64" y="27.1074">HRM</text><line style="stroke:#181818;stroke-width:0.5;" x1="147.64" x2="281.64" y1="35.6211" y2="35.6211"/><text fill="#000000" font-family="sans-serif" font-size="14" lengthAdjust="spacing" textLength="35" x="152.64" y="54.7285">name</text><text fill="#000000" font-family="sans-serif" font-size="14" lengthAdjust="spacing" textLength="56" x="152.64" y="73.3496">birthdate</text><text fill="#000000" font-family="sans-serif" font-size="14" lengthAdjust="spacing" textLength="93" x="152.64" y="91.9707">admissionDate</text><text fill="#000000" font-family="sans-serif" font-size="14" lengthAdjust="spacing" textLength="51" x="152.64" y="110.5918">address</text><text fill="#000000" font-family="sans-serif" font-size="14" lengthAdjust="spacing" textLength="69" x="152.64" y="129.2129">contactInfo</text><text fill="#000000" font-family="sans-serif" font-size="14" lengthAdjust="spacing" textLength="107" x="152.64" y="147.834">idDocumentType</text><text fill="#000000" font-family="sans-serif" font-size="14" lengthAdjust="spacing" textLength="124" x="152.64" y="166.4551">idDocumentNumber</text></g><!--class Skill--><g id="elem_Skill"><rect codeLine="20" fill="#F1F1F1" height="55.2422" id="Skill" rx="2.5" ry="2.5" style="stroke:#181818;stroke-width:0.5;" width="47" x="66.14" y="583"/><text fill="#000000" font-family="sans-serif" font-size="14" lengthAdjust="spacing" textLength="25" x="77.14" y="603.1074">Skill</text><line style="stroke:#181818;stroke-width:0.5;" x1="67.14" x2="112.14" y1="611.6211" y2="611.6211"/><text fill="#000000" font-family="sans-serif" font-size="14" lengthAdjust="spacing" textLength="35" x="72.14" y="630.7285">name</text></g><!--class Job--><g id="elem_Job"><rect codeLine="23" fill="#F1F1F1" height="55.2422" id="Job" rx="2.5" ry="2.5" style="stroke:#181818;stroke-width:0.5;" width="47" x="222.14" y="583"/><text fill="#000000" font-family="sans-serif" font-size="14" lengthAdjust="spacing" textLength="22" x="234.64" y="603.1074">Job</text><line style="stroke:#181818;stroke-width:0.5;" x1="223.14" x2="268.14" y1="611.6211" y2="611.6211"/><text fill="#000000" font-family="sans-serif" font-size="14" lengthAdjust="spacing" textLength="35" x="228.14" y="630.7285">name</text></g><!--class Team--><g id="elem_Team"><rect codeLine="28" fill="#F1F1F1" height="73.8633" id="Team" rx="2.5" ry="2.5" style="stroke:#181818;stroke-width:0.5;" width="70" x="375.64" y="53.5"/><text fill="#000000" font-family="sans-serif" font-size="14" lengthAdjust="spacing" textLength="36" x="392.64" y="73.6074">Team</text><line style="stroke:#181818;stroke-width:0.5;" x1="376.64" x2="444.64" y1="82.1211" y2="82.1211"/><text fill="#000000" font-family="sans-serif" font-size="14" lengthAdjust="spacing" textLength="24" x="381.64" y="101.2285">size</text><text fill="#000000" font-family="sans-serif" font-size="14" lengthAdjust="spacing" textLength="58" x="381.64" y="119.8496">members</text></g><!--class Collaborator--><g id="elem_Collaborator"><rect codeLine="34" fill="#F1F1F1" height="166.9688" id="Collaborator" rx="2.5" ry="2.5" style="stroke:#181818;stroke-width:0.5;" width="136" x="310.64" y="253"/><text fill="#000000" font-family="sans-serif" font-size="14" lengthAdjust="spacing" textLength="78" x="339.64" y="273.1074">Collaborator</text><line style="stroke:#181818;stroke-width:0.5;" x1="311.64" x2="445.64" y1="281.6211" y2="281.6211"/><text fill="#000000" font-family="sans-serif" font-size="14" lengthAdjust="spacing" textLength="35" x="316.64" y="300.7285">name</text><text fill="#000000" font-family="sans-serif" font-size="14" lengthAdjust="spacing" textLength="56" x="316.64" y="319.3496">birthdate</text><text fill="#000000" font-family="sans-serif" font-size="14" lengthAdjust="spacing" textLength="93" x="316.64" y="337.9707">admissionDate</text><text fill="#000000" font-family="sans-serif" font-size="14" lengthAdjust="spacing" textLength="51" x="316.64" y="356.5918">address</text><text fill="#000000" font-family="sans-serif" font-size="14" lengthAdjust="spacing" textLength="69" x="316.64" y="375.2129">contactInfo</text><text fill="#000000" font-family="sans-serif" font-size="14" lengthAdjust="spacing" textLength="107" x="316.64" y="393.834">idDocumentType</text><text fill="#000000" font-family="sans-serif" font-size="14" lengthAdjust="spacing" textLength="124" x="316.64" y="412.4551">idDocumentNumber</text></g><!--class GreenSpace--><g id="elem_GreenSpace"><rect codeLine="46" fill="#F1F1F1" height="92.4844" id="GreenSpace" rx="2.5" ry="2.5" style="stroke:#181818;stroke-width:0.5;" width="86" x="581.64" y="44.5"/><text fill="#000000" font-family="sans-serif" font-size="14" lengthAdjust="spacing" textLength="80" x="584.64" y="64.6074">GreenSpace</text><line style="stroke:#181818;stroke-width:0.5;" x1="582.64" x2="666.64" y1="73.1211" y2="73.1211"/><text fill="#000000" font-family="sans-serif" font-size="14" lengthAdjust="spacing" textLength="35" x="587.64" y="92.2285">name</text><text fill="#000000" font-family="sans-serif" font-size="14" lengthAdjust="spacing" textLength="51" x="587.64" y="110.8496">address</text><text fill="#000000" font-family="sans-serif" font-size="14" lengthAdjust="spacing" textLength="27" x="587.64" y="129.4707">type</text></g><!--class Garden--><g id="elem_Garden"><rect codeLine="52" fill="#F1F1F1" height="92.4844" id="Garden" rx="2.5" ry="2.5" style="stroke:#181818;stroke-width:0.5;" width="76" x="507.64" y="290.5"/><text fill="#000000" font-family="sans-serif" font-size="14" lengthAdjust="spacing" textLength="48" x="521.64" y="310.6074">Garden</text><line style="stroke:#181818;stroke-width:0.5;" x1="508.64" x2="582.64" y1="319.1211" y2="319.1211"/><text fill="#000000" font-family="sans-serif" font-size="14" lengthAdjust="spacing" textLength="35" x="513.64" y="338.2285">name</text><text fill="#000000" font-family="sans-serif" font-size="14" lengthAdjust="spacing" textLength="51" x="513.64" y="356.8496">address</text><text fill="#000000" font-family="sans-serif" font-size="14" lengthAdjust="spacing" textLength="64" x="513.64" y="375.4707">dimension</text></g><!--class MediumSizedPark--><g id="elem_MediumSizedPark"><rect codeLine="58" fill="#F1F1F1" height="92.4844" id="MediumSizedPark" rx="2.5" ry="2.5" style="stroke:#181818;stroke-width:0.5;" width="118" x="618.64" y="290.5"/><text fill="#000000" font-family="sans-serif" font-size="14" lengthAdjust="spacing" textLength="112" x="621.64" y="310.6074">MediumSizedPark</text><line style="stroke:#181818;stroke-width:0.5;" x1="619.64" x2="735.64" y1="319.1211" y2="319.1211"/><text fill="#000000" font-family="sans-serif" font-size="14" lengthAdjust="spacing" textLength="35" x="624.64" y="338.2285">name</text><text fill="#000000" font-family="sans-serif" font-size="14" lengthAdjust="spacing" textLength="51" x="624.64" y="356.8496">address</text><text fill="#000000" font-family="sans-serif" font-size="14" lengthAdjust="spacing" textLength="64" x="624.64" y="375.4707">dimension</text></g><!--class LargeSizedPark--><g id="elem_LargeSizedPark"><rect codeLine="64" fill="#F1F1F1" height="92.4844" id="LargeSizedPark" rx="2.5" ry="2.5" style="stroke:#181818;stroke-width:0.5;" width="106" x="771.64" y="290.5"/><text fill="#000000" font-family="sans-serif" font-size="14" lengthAdjust="spacing" textLength="100" x="774.64" y="310.6074">LargeSizedPark</text><line style="stroke:#181818;stroke-width:0.5;" x1="772.64" x2="876.64" y1="319.1211" y2="319.1211"/><text fill="#000000" font-family="sans-serif" font-size="14" lengthAdjust="spacing" textLength="35" x="777.64" y="338.2285">name</text><text fill="#000000" font-family="sans-serif" font-size="14" lengthAdjust="spacing" textLength="51" x="777.64" y="356.8496">address</text><text fill="#000000" font-family="sans-serif" font-size="14" lengthAdjust="spacing" textLength="64" x="777.64" y="375.4707">dimension</text></g><!--class Vehicle--><g id="elem_Vehicle"><rect codeLine="71" fill="#F1F1F1" height="222.832" id="Vehicle" rx="2.5" ry="2.5" style="stroke:#181818;stroke-width:0.5;" width="222" x="588.64" y="499"/><text fill="#000000" font-family="sans-serif" font-size="14" lengthAdjust="spacing" textLength="46" x="676.64" y="519.1074">Vehicle</text><line style="stroke:#181818;stroke-width:0.5;" x1="589.64" x2="809.64" y1="527.6211" y2="527.6211"/><text fill="#000000" font-family="sans-serif" font-size="14" lengthAdjust="spacing" textLength="46" x="594.64" y="546.7285">plate id</text><text fill="#000000" font-family="sans-serif" font-size="14" lengthAdjust="spacing" textLength="37" x="594.64" y="565.3496">brand</text><text fill="#000000" font-family="sans-serif" font-size="14" lengthAdjust="spacing" textLength="38" x="594.64" y="583.9707">model</text><text fill="#000000" font-family="sans-serif" font-size="14" lengthAdjust="spacing" textLength="27" x="594.64" y="602.5918">type</text><text fill="#000000" font-family="sans-serif" font-size="14" lengthAdjust="spacing" textLength="25" x="594.64" y="621.2129">tare</text><text fill="#000000" font-family="sans-serif" font-size="14" lengthAdjust="spacing" textLength="79" x="594.64" y="639.834">gross weight</text><text fill="#000000" font-family="sans-serif" font-size="14" lengthAdjust="spacing" textLength="74" x="594.64" y="658.4551">current kms</text><text fill="#000000" font-family="sans-serif" font-size="14" lengthAdjust="spacing" textLength="103" x="594.64" y="677.0762">registration date</text><text fill="#000000" font-family="sans-serif" font-size="14" lengthAdjust="spacing" textLength="99" x="594.64" y="695.6973">acquisition date</text><text fill="#000000" font-family="sans-serif" font-size="14" lengthAdjust="spacing" textLength="210" x="594.64" y="714.3184">maintenance/check-up frequency</text></g><!--class VFM--><g id="elem_VFM"><rect codeLine="84" fill="#F1F1F1" height="185.5898" id="VFM" rx="2.5" ry="2.5" style="stroke:#181818;stroke-width:0.5;" width="157" x="332.14" y="517.5"/><text fill="#000000" font-family="sans-serif" font-size="14" lengthAdjust="spacing" textLength="29" x="396.14" y="537.6074">VFM</text><line style="stroke:#181818;stroke-width:0.5;" x1="333.14" x2="488.14" y1="546.1211" y2="546.1211"/><text fill="#000000" font-family="sans-serif" font-size="14" lengthAdjust="spacing" textLength="35" x="338.14" y="565.2285">name</text><text fill="#000000" font-family="sans-serif" font-size="14" lengthAdjust="spacing" textLength="56" x="338.14" y="583.8496">birthdate</text><text fill="#000000" font-family="sans-serif" font-size="14" lengthAdjust="spacing" textLength="95" x="338.14" y="602.4707">admission date</text><text fill="#000000" font-family="sans-serif" font-size="14" lengthAdjust="spacing" textLength="51" x="338.14" y="621.0918">address</text><text fill="#000000" font-family="sans-serif" font-size="14" lengthAdjust="spacing" textLength="92" x="338.14" y="639.7129">phone number</text><text fill="#000000" font-family="sans-serif" font-size="14" lengthAdjust="spacing" textLength="33" x="338.14" y="658.334">email</text><text fill="#000000" font-family="sans-serif" font-size="14" lengthAdjust="spacing" textLength="145" x="338.14" y="676.9551">identification document</text><text fill="#000000" font-family="sans-serif" font-size="14" lengthAdjust="spacing" textLength="48" x="338.14" y="695.5762">number</text></g><!--class VehiclesCheckUp--><g id="elem_VehiclesCheckUp"><rect codeLine="95" fill="#F1F1F1" height="55.2422" id="VehiclesCheckUp" rx="2.5" ry="2.5" style="stroke:#181818;stroke-width:0.5;" width="116" x="352.64" y="801"/><text fill="#000000" font-family="sans-serif" font-size="14" lengthAdjust="spacing" textLength="110" x="355.64" y="821.1074">VehiclesCheckUp</text><line style="stroke:#181818;stroke-width:0.5;" x1="353.64" x2="467.64" y1="829.6211" y2="829.6211"/><text fill="#000000" font-family="sans-serif" font-size="14" lengthAdjust="spacing" textLength="46" x="358.64" y="848.7285">plate id</text></g><!--reverse link Collaborator to HRM--><g id="link_Collaborator_HRM"><path codeLine="100" d="M346.6898,236.1977 C339.8698,219.3677 338.38,218.94 328.64,204 C315.97,184.55 299.43,165.82 282.9,149.41 " fill="none" id="Collaborator-backto-HRM" style="stroke:#181818;stroke-width:1.0;"/><polygon fill="none" points="353.45,252.88,352.2506,233.9443,341.1291,238.4511,353.45,252.88" style="stroke:#181818;stroke-width:1.0;"/></g><!--link HRM to Collaborator--><g id="link_HRM_Collaborator"><path codeLine="109" d="M242.95,174.29 C250.22,191.02 258.81,208.05 268.64,223 C280.51,241.03 291.3677,254.3089 306.4577,270.0489 " fill="none" id="HRM-to-Collaborator" style="stroke:#181818;stroke-width:1.0;"/><polygon fill="#181818" points="310.61,274.38,307.269,265.1151,307.1498,270.7707,301.4942,270.6515,310.61,274.38" style="stroke:#181818;stroke-width:1.0;"/><text fill="#000000" font-family="sans-serif" font-size="13" lengthAdjust="spacing" textLength="50" x="269.64" y="219.0283">registers</text><text fill="#000000" font-family="sans-serif" font-size="13" lengthAdjust="spacing" textLength="7" x="238.0046" y="195.9744">1</text><text fill="#000000" font-family="sans-serif" font-size="13" lengthAdjust="spacing" textLength="5" x="297.455" y="263.2615">*</text></g><!--link HRM to Skill--><g id="link_HRM_Skill"><path codeLine="103" d="M183.43,174.2 C174.65,199.28 165.61,227.06 158.64,253 C126.01,374.46 102.34,523.12 93.48,582.82 " fill="none" id="HRM-Skill" style="stroke:#181818;stroke-width:1.0;"/><polygon fill="#000000" points="162.5651,341.5286,167.3798,333.3268,161.6394,332.0632,162.5651,341.5286" style="stroke:#000000;stroke-width:1.0;"/><text fill="#000000" font-family="sans-serif" font-size="13" lengthAdjust="spacing" textLength="43" x="172.64" y="342.0283">creates</text><text fill="#000000" font-family="sans-serif" font-size="13" lengthAdjust="spacing" textLength="7" x="173.5556" y="195.877">1</text><text fill="#000000" font-family="sans-serif" font-size="13" lengthAdjust="spacing" textLength="20" x="96.5075" y="571.9393">1..*</text></g><!--link HRM to Skill--><g id="link_HRM_Skill"><path codeLine="112" d="M146.58,138.82 C111.69,167.37 72.62,207.08 53.64,253 C6,368.27 55.07,521.66 78.58,582.75 " fill="none" id="HRM-Skill-1" style="stroke:#181818;stroke-width:1.0;"/><polygon fill="#000000" points="57.8829,341.5879,62.1575,333.092,56.3474,332.2021,57.8829,341.5879" style="stroke:#000000;stroke-width:1.0;"/><text fill="#000000" font-family="sans-serif" font-size="13" lengthAdjust="spacing" textLength="45" x="67.64" y="342.0283">assigns</text><text fill="#000000" font-family="sans-serif" font-size="13" lengthAdjust="spacing" textLength="7" x="131.7531" y="140.2213">1</text><text fill="#000000" font-family="sans-serif" font-size="13" lengthAdjust="spacing" textLength="20" x="53.9731" y="571.854">1..*</text></g><!--link HRM to Job--><g id="link_HRM_Job"><path codeLine="106" d="M219.59,174.15 C226.74,293.55 239.58,508.16 244.05,582.94 " fill="none" id="HRM-Job" style="stroke:#181818;stroke-width:1.0;"/><polygon fill="#000000" points="239.9386,341.6366,242.3321,332.4321,236.4647,332.7832,239.9386,341.6366" style="stroke:#000000;stroke-width:1.0;"/><text fill="#000000" font-family="sans-serif" font-size="13" lengthAdjust="spacing" textLength="43" x="248.64" y="342.0283">creates</text><text fill="#000000" font-family="sans-serif" font-size="13" lengthAdjust="spacing" textLength="7" x="212.7146" y="196.1113">1</text><text fill="#000000" font-family="sans-serif" font-size="13" lengthAdjust="spacing" textLength="20" x="221.3698" y="571.6351">1..*</text></g><!--link Collaborator to Skill--><g id="link_Collaborator_Skill"><path codeLine="113" d="M310.63,400.12 C278.39,429.94 239.4,466.17 204.64,499 C172.84,529.04 136.49,564.09 113.32,586.52 " fill="none" id="Collaborator-Skill" style="stroke:#181818;stroke-width:1.0;"/><polygon fill="#000000" points="254.0054,463.0791,262.5987,459.004,258.5622,454.7313,254.0054,463.0791" style="stroke:#000000;stroke-width:1.0;"/><text fill="#000000" font-family="sans-serif" font-size="13" lengthAdjust="spacing" textLength="21" x="266.64" y="465.0283">has</text><text fill="#000000" font-family="sans-serif" font-size="13" lengthAdjust="spacing" textLength="7" x="295.8086" y="403.1947">1</text><text fill="#000000" font-family="sans-serif" font-size="13" lengthAdjust="spacing" textLength="20" x="121.1085" y="576.043">1..*</text></g><!--link HRM to Team--><g id="link_HRM_Team"><path codeLine="116" d="M282.65,90.5 C313.94,90.5 349.74,90.5 375.51,90.5 " fill="none" id="HRM-Team" style="stroke:#181818;stroke-width:1.0;"/><polygon fill="#000000" points="310.14,78.1455,301.0949,75.2066,301.0949,81.0844,310.14,78.1455" style="stroke:#000000;stroke-width:1.0;"/><text fill="#000000" font-family="sans-serif" font-size="13" lengthAdjust="spacing" textLength="43" x="314.14" y="83.5283">creates</text><text fill="#000000" font-family="sans-serif" font-size="13" lengthAdjust="spacing" textLength="7" x="290.4714" y="86.6163">1</text><text fill="#000000" font-family="sans-serif" font-size="13" lengthAdjust="spacing" textLength="20" x="347.7533" y="106.026">1..*</text></g><!--link Collaborator to Job--><g id="link_Collaborator_Job"><path codeLine="117" d="M338.2,420.22 C310.99,475.86 276.87,545.63 258.61,582.99 " fill="none" id="Collaborator-Job" style="stroke:#181818;stroke-width:1.0;"/><polygon fill="#000000" points="323.4436,464.1373,330.0571,457.3026,324.7767,454.7206,323.4436,464.1373" style="stroke:#000000;stroke-width:1.0;"/><text fill="#000000" font-family="sans-serif" font-size="13" lengthAdjust="spacing" textLength="21" x="334.64" y="465.0283">has</text><text fill="#000000" font-family="sans-serif" font-size="13" lengthAdjust="spacing" textLength="7" x="327.5612" y="441.8986">1</text><text fill="#000000" font-family="sans-serif" font-size="13" lengthAdjust="spacing" textLength="7" x="253.7999" y="571.6967">1</text></g><!--link Team to Collaborator--><g id="link_Team_Collaborator"><path codeLine="118" d="M405.92,127.5 C401.61,160.38 395.08,210.21 389.48,252.85 " fill="none" id="Team-Collaborator" style="stroke:#181818;stroke-width:1.0;"/><polygon fill="#000000" points="399.9898,218.6031,404.08,210.0169,398.252,209.2526,399.9898,218.6031" style="stroke:#000000;stroke-width:1.0;"/><text fill="#000000" font-family="sans-serif" font-size="13" lengthAdjust="spacing" textLength="21" x="409.64" y="219.0283">has</text><text fill="#000000" font-family="sans-serif" font-size="13" lengthAdjust="spacing" textLength="7" x="397.5072" y="149.3854">1</text><text fill="#000000" font-family="sans-serif" font-size="13" lengthAdjust="spacing" textLength="20" x="369.5548" y="241.6856">1..*</text></g><!--link GreenSpace to Collaborator--><g id="link_GreenSpace_Collaborator"><path codeLine="119" d="M581.51,134.28 C544.31,171.18 489.93,225.12 446.83,267.87 " fill="none" id="GreenSpace-Collaborator" style="stroke:#181818;stroke-width:1.0;"/><polygon fill="#000000" points="511.0901,217.1666,519.5816,212.8834,515.4422,208.7103,511.0901,217.1666" style="stroke:#000000;stroke-width:1.0;"/><text fill="#000000" font-family="sans-serif" font-size="13" lengthAdjust="spacing" textLength="49" x="523.64" y="219.0283">contains</text><text fill="#000000" font-family="sans-serif" font-size="13" lengthAdjust="spacing" textLength="7" x="566.4955" y="137.3555">1</text><text fill="#000000" font-family="sans-serif" font-size="13" lengthAdjust="spacing" textLength="20" x="454.5268" y="257.3217">1..*</text></g><!--reverse link GreenSpace to Garden--><g id="link_GreenSpace_Garden"><path codeLine="120" d="M604.5183,153.6657 C590.3483,197.4557 574.47,246.47 560.27,290.31 " fill="none" id="GreenSpace-backto-Garden" style="stroke:#181818;stroke-width:1.0;"/><polygon fill="none" points="610.06,136.54,598.8097,151.8185,610.2269,155.5129,610.06,136.54" style="stroke:#181818;stroke-width:1.0;"/></g><!--reverse link GreenSpace to MediumSizedPark--><g id="link_GreenSpace_MediumSizedPark"><path codeLine="121" d="M638.2501,154.13 C647.7601,197.92 658.31,246.47 667.83,290.31 " fill="none" id="GreenSpace-backto-MediumSizedPark" style="stroke:#181818;stroke-width:1.0;"/><polygon fill="none" points="634.43,136.54,632.3867,155.4033,644.1134,152.8566,634.43,136.54" style="stroke:#181818;stroke-width:1.0;"/></g><!--reverse link GreenSpace to LargeSizedPark--><g id="link_GreenSpace_LargeSizedPark"><path codeLine="122" d="M672.97,150.4616 C708.86,194.2516 751.67,246.47 787.61,290.31 " fill="none" id="GreenSpace-backto-LargeSizedPark" style="stroke:#181818;stroke-width:1.0;"/><polygon fill="none" points="661.56,136.54,668.3295,154.2649,677.6106,146.6582,661.56,136.54" style="stroke:#181818;stroke-width:1.0;"/></g><!--reverse link Collaborator to VFM--><g id="link_Collaborator_VFM"><path codeLine="124" d="M390.4811,438.0969 C394.0811,468.7269 396.09,485.77 399.79,517.2 " fill="none" id="Collaborator-backto-VFM" style="stroke:#181818;stroke-width:1.0;"/><polygon fill="none" points="388.38,420.22,384.5221,438.7973,396.4401,437.3966,388.38,420.22" style="stroke:#181818;stroke-width:1.0;"/></g><!--link VFM to Vehicle--><g id="link_VFM_Vehicle"><path codeLine="127" d="M489.23,610.5 C519.82,610.5 555.42,610.5 588.55,610.5 " fill="none" id="VFM-Vehicle" style="stroke:#181818;stroke-width:1.0;"/><polygon fill="#000000" points="516.39,598.1455,507.3449,595.2066,507.3449,601.0844,516.39,598.1455" style="stroke:#000000;stroke-width:1.0;"/><text fill="#000000" font-family="sans-serif" font-size="13" lengthAdjust="spacing" textLength="50" x="520.39" y="603.5283">registers</text><text fill="#000000" font-family="sans-serif" font-size="13" lengthAdjust="spacing" textLength="7" x="497.0542" y="606.7516">1</text><text fill="#000000" font-family="sans-serif" font-size="13" lengthAdjust="spacing" textLength="20" x="560.8055" y="607.0243">1..*</text></g><!--link VFM to Vehicle--><g id="link_VFM_Vehicle"><path codeLine="130" d="M489.19,629.96 C495.15,630.98 501.1,631.85 506.89,632.5 C533.33,635.48 561.81,634.53 588.55,631.79 " fill="none" id="VFM-Vehicle-1" style="stroke:#181818;stroke-width:1.0;"/><polygon fill="#000000" points="516.8892,623.2376,507.8997,620.1326,507.7915,626.0094,516.8892,623.2376" style="stroke:#000000;stroke-width:1.0;"/><text fill="#000000" font-family="sans-serif" font-size="13" lengthAdjust="spacing" textLength="49" x="520.89" y="628.5283">chooses</text><text fill="#000000" font-family="sans-serif" font-size="13" lengthAdjust="spacing" textLength="7" x="497.2668" y="628.1017">1</text><text fill="#000000" font-family="sans-serif" font-size="13" lengthAdjust="spacing" textLength="20" x="560.8055" y="647.6476">1..*</text></g><!--link VFM to VehiclesCheckUp--><g id="link_VFM_VehiclesCheckUp"><path codeLine="133" d="M410.64,703.73 C410.64,738.82 410.64,776.17 410.64,800.55 " fill="none" id="VFM-VehiclesCheckUp" style="stroke:#181818;stroke-width:1.0;"/><polygon fill="#000000" points="415.64,766.6455,418.5789,757.6004,412.7011,757.6004,415.64,766.6455" style="stroke:#000000;stroke-width:1.0;"/><text fill="#000000" font-family="sans-serif" font-size="13" lengthAdjust="spacing" textLength="24" x="424.64" y="767.0283">lists</text><text fill="#000000" font-family="sans-serif" font-size="13" lengthAdjust="spacing" textLength="7" x="403.383" y="725.2549">1</text><text fill="#000000" font-family="sans-serif" font-size="13" lengthAdjust="spacing" textLength="20" x="388.4525" y="789.6102">1..*</text></g><!--SRC=[nLNRJXin47tVhx3oWbGf57eNgf0gK2bLgQe6U7VioUuelYosLuXU_hrZUvVrBYagJytJP7ncpbpE97wBfkMEQwQjiQ9nLWCBheFAtx-qN6nv3Qjmfu0v486RMfK0tt1fRz7KRCELXsflV59e8DormAmBZQts56m22vOvh9l09CPqQ4sHJ2Zk_OSG7Awx0EV2cXN-07PGDIY12NI2k9EjWL9ANrKfX7twVi5-Lem-Xcj8nXg9LVAGlt6fqNjYEnqzqe7toIQYm4KuDnkRlgCyjQBJOC8brJzpVUtq6bprU-1URL6falrt__3PhgVk8U8IgDVyugc_P6Y8MQcX-xmdLYc-jeu7w_v3SqCPPmx0h4W7C2-Y98bx7ai_uqw2UGmlaTXYoMFG1KZiT5ou_CRTzedHNxWZcJuvk8- -XWP9MpcgLJH6cacUjECcMzfAK6EpoU0k6xMpbEKMehBpq3ldQ9nigpEfWnfze5qIBniN9suwz3XrQeucWE56m7FHWDWkkvPj7DnqOCJTsF7rnt_LV45OpA5jh05cyiAZ0uXPzNgWsd63eg-t5qSccyc_7vq_YQLUjMmsmpZZYPBV_rekuxrMrTxLwk3Wi8gtkpXSC78l3lVtdotoHHqnuO2IU7RSGr_iWCORUuXyMI2FsO9manAE-dMaUqi1h_vM1M6fIQnDJ3v9iXlSyB6ArsFI0POklwntTyhKrv0inKpPogW1LjpfO-3qQu1c5f6Mag_sWNjsbm_UfvUtQzkar7uaRwgeMgflkI2HvFfw0HLBkP_WsyVWeh7M5qj_Du2BtcVYFAB_91zIo1y0]--></g></svg>