<?xml version="1.0" encoding="us-ascii" standalone="no"?><svg xmlns="http://www.w3.org/2000/svg" xmlns:xlink="http://www.w3.org/1999/xlink" contentStyleType="text/css" height="1038px" preserveAspectRatio="none" style="width:1145px;height:1038px;background:#FFFFFF;" version="1.1" viewBox="0 0 1145 1038" width="1145px" zoomAndPan="magnify"><defs/><g><!--class Organization--><g id="elem_Organization"><rect codeLine="10" fill="#F1F1F1" height="73.8633" id="Organization" rx="2.5" ry="2.5" style="stroke:#181818;stroke-width:0.5;" width="86" x="869.54" y="7"/><text fill="#000000" font-family="sans-serif" font-size="14" lengthAdjust="spacing" textLength="80" x="872.54" y="27.1074">Organization</text><line style="stroke:#181818;stroke-width:0.5;" x1="870.54" x2="954.54" y1="35.6211" y2="35.6211"/><text fill="#000000" font-family="sans-serif" font-size="14" lengthAdjust="spacing" textLength="35" x="875.54" y="54.7285">name</text><text fill="#000000" font-family="sans-serif" font-size="14" lengthAdjust="spacing" textLength="51" x="875.54" y="73.3496">address</text></g><!--class HRM--><g id="elem_HRM"><rect codeLine="15" fill="#F1F1F1" height="36.6211" id="HRM" rx="2.5" ry="2.5" style="stroke:#181818;stroke-width:0.5;" width="36" x="301.54" y="25.5"/><text fill="#000000" font-family="sans-serif" font-size="14" lengthAdjust="spacing" textLength="30" x="304.54" y="45.6074">HRM</text><line style="stroke:#181818;stroke-width:0.5;" x1="302.54" x2="336.54" y1="54.1211" y2="54.1211"/></g><!--class Skill--><g id="elem_Skill"><rect codeLine="19" fill="#F1F1F1" height="55.2422" id="Skill" rx="2.5" ry="2.5" style="stroke:#181818;stroke-width:0.5;" width="47" x="145.04" y="490"/><text fill="#000000" font-family="sans-serif" font-size="14" lengthAdjust="spacing" textLength="25" x="156.04" y="510.1074">Skill</text><line style="stroke:#181818;stroke-width:0.5;" x1="146.04" x2="191.04" y1="518.6211" y2="518.6211"/><text fill="#000000" font-family="sans-serif" font-size="14" lengthAdjust="spacing" textLength="35" x="151.04" y="537.7285">name</text></g><!--class Job--><g id="elem_Job"><rect codeLine="22" fill="#F1F1F1" height="55.2422" id="Job" rx="2.5" ry="2.5" style="stroke:#181818;stroke-width:0.5;" width="47" x="333.04" y="490"/><text fill="#000000" font-family="sans-serif" font-size="14" lengthAdjust="spacing" textLength="22" x="345.54" y="510.1074">Job</text><line style="stroke:#181818;stroke-width:0.5;" x1="334.04" x2="379.04" y1="518.6211" y2="518.6211"/><text fill="#000000" font-family="sans-serif" font-size="14" lengthAdjust="spacing" textLength="35" x="339.04" y="537.7285">name</text></g><!--class Team--><g id="elem_Team"><rect codeLine="27" fill="#F1F1F1" height="73.8633" id="Team" rx="2.5" ry="2.5" style="stroke:#181818;stroke-width:0.5;" width="70" x="452.54" y="7"/><text fill="#000000" font-family="sans-serif" font-size="14" lengthAdjust="spacing" textLength="36" x="469.54" y="27.1074">Team</text><line style="stroke:#181818;stroke-width:0.5;" x1="453.54" x2="521.54" y1="35.6211" y2="35.6211"/><text fill="#000000" font-family="sans-serif" font-size="14" lengthAdjust="spacing" textLength="24" x="458.54" y="54.7285">size</text><text fill="#000000" font-family="sans-serif" font-size="14" lengthAdjust="spacing" textLength="58" x="458.54" y="73.3496">members</text></g><!--class Collaborator--><g id="elem_Collaborator"><rect codeLine="33" fill="#F1F1F1" height="166.9688" id="Collaborator" rx="2.5" ry="2.5" style="stroke:#181818;stroke-width:0.5;" width="136" x="406.54" y="160"/><text fill="#000000" font-family="sans-serif" font-size="14" lengthAdjust="spacing" textLength="78" x="435.54" y="180.1074">Collaborator</text><line style="stroke:#181818;stroke-width:0.5;" x1="407.54" x2="541.54" y1="188.6211" y2="188.6211"/><text fill="#000000" font-family="sans-serif" font-size="14" lengthAdjust="spacing" textLength="35" x="412.54" y="207.7285">name</text><text fill="#000000" font-family="sans-serif" font-size="14" lengthAdjust="spacing" textLength="56" x="412.54" y="226.3496">birthdate</text><text fill="#000000" font-family="sans-serif" font-size="14" lengthAdjust="spacing" textLength="93" x="412.54" y="244.9707">admissionDate</text><text fill="#000000" font-family="sans-serif" font-size="14" lengthAdjust="spacing" textLength="51" x="412.54" y="263.5918">address</text><text fill="#000000" font-family="sans-serif" font-size="14" lengthAdjust="spacing" textLength="69" x="412.54" y="282.2129">contactInfo</text><text fill="#000000" font-family="sans-serif" font-size="14" lengthAdjust="spacing" textLength="107" x="412.54" y="300.834">idDocumentType</text><text fill="#000000" font-family="sans-serif" font-size="14" lengthAdjust="spacing" textLength="124" x="412.54" y="319.4551">idDocumentNumber</text></g><!--class GreenSpace--><g id="elem_GreenSpace"><rect codeLine="45" fill="#F1F1F1" height="92.4844" id="GreenSpace" rx="2.5" ry="2.5" style="stroke:#181818;stroke-width:0.5;" width="86" x="837.54" y="842"/><text fill="#000000" font-family="sans-serif" font-size="14" lengthAdjust="spacing" textLength="80" x="840.54" y="862.1074">GreenSpace</text><line style="stroke:#181818;stroke-width:0.5;" x1="838.54" x2="922.54" y1="870.6211" y2="870.6211"/><text fill="#000000" font-family="sans-serif" font-size="14" lengthAdjust="spacing" textLength="35" x="843.54" y="889.7285">name</text><text fill="#000000" font-family="sans-serif" font-size="14" lengthAdjust="spacing" textLength="51" x="843.54" y="908.3496">address</text><text fill="#000000" font-family="sans-serif" font-size="14" lengthAdjust="spacing" textLength="64" x="843.54" y="926.9707">dimension</text></g><!--class Garden--><g id="elem_Garden"><rect codeLine="51" fill="#F1F1F1" height="36.6211" id="Garden" rx="2.5" ry="2.5" style="stroke:#181818;stroke-width:0.5;" width="54" x="732.54" y="995"/><text fill="#000000" font-family="sans-serif" font-size="14" lengthAdjust="spacing" textLength="48" x="735.54" y="1015.1074">Garden</text><line style="stroke:#181818;stroke-width:0.5;" x1="733.54" x2="785.54" y1="1023.6211" y2="1023.6211"/></g><!--class MediumSizedPark--><g id="elem_MediumSizedPark"><rect codeLine="55" fill="#F1F1F1" height="36.6211" id="MediumSizedPark" rx="2.5" ry="2.5" style="stroke:#181818;stroke-width:0.5;" width="118" x="821.54" y="995"/><text fill="#000000" font-family="sans-serif" font-size="14" lengthAdjust="spacing" textLength="112" x="824.54" y="1015.1074">MediumSizedPark</text><line style="stroke:#181818;stroke-width:0.5;" x1="822.54" x2="938.54" y1="1023.6211" y2="1023.6211"/></g><!--class LargeSizedPark--><g id="elem_LargeSizedPark"><rect codeLine="59" fill="#F1F1F1" height="36.6211" id="LargeSizedPark" rx="2.5" ry="2.5" style="stroke:#181818;stroke-width:0.5;" width="106" x="974.54" y="995"/><text fill="#000000" font-family="sans-serif" font-size="14" lengthAdjust="spacing" textLength="100" x="977.54" y="1015.1074">LargeSizedPark</text><line style="stroke:#181818;stroke-width:0.5;" x1="975.54" x2="1079.54" y1="1023.6211" y2="1023.6211"/></g><!--class Vehicle--><g id="elem_Vehicle"><rect codeLine="64" fill="#F1F1F1" height="222.832" id="Vehicle" rx="2.5" ry="2.5" style="stroke:#181818;stroke-width:0.5;" width="222" x="801.54" y="406"/><text fill="#000000" font-family="sans-serif" font-size="14" lengthAdjust="spacing" textLength="46" x="889.54" y="426.1074">Vehicle</text><line style="stroke:#181818;stroke-width:0.5;" x1="802.54" x2="1022.54" y1="434.6211" y2="434.6211"/><text fill="#000000" font-family="sans-serif" font-size="14" lengthAdjust="spacing" textLength="46" x="807.54" y="453.7285">plate id</text><text fill="#000000" font-family="sans-serif" font-size="14" lengthAdjust="spacing" textLength="37" x="807.54" y="472.3496">brand</text><text fill="#000000" font-family="sans-serif" font-size="14" lengthAdjust="spacing" textLength="38" x="807.54" y="490.9707">model</text><text fill="#000000" font-family="sans-serif" font-size="14" lengthAdjust="spacing" textLength="27" x="807.54" y="509.5918">type</text><text fill="#000000" font-family="sans-serif" font-size="14" lengthAdjust="spacing" textLength="25" x="807.54" y="528.2129">tare</text><text fill="#000000" font-family="sans-serif" font-size="14" lengthAdjust="spacing" textLength="79" x="807.54" y="546.834">gross weight</text><text fill="#000000" font-family="sans-serif" font-size="14" lengthAdjust="spacing" textLength="74" x="807.54" y="565.4551">current kms</text><text fill="#000000" font-family="sans-serif" font-size="14" lengthAdjust="spacing" textLength="103" x="807.54" y="584.0762">registration date</text><text fill="#000000" font-family="sans-serif" font-size="14" lengthAdjust="spacing" textLength="99" x="807.54" y="602.6973">acquisition date</text><text fill="#000000" font-family="sans-serif" font-size="14" lengthAdjust="spacing" textLength="210" x="807.54" y="621.3184">maintenance/check-up frequency</text></g><!--class VFM--><g id="elem_VFM"><rect codeLine="77" fill="#F1F1F1" height="185.5898" id="VFM" rx="2.5" ry="2.5" style="stroke:#181818;stroke-width:0.5;" width="157" x="545.04" y="424.5"/><text fill="#000000" font-family="sans-serif" font-size="14" lengthAdjust="spacing" textLength="29" x="609.04" y="444.6074">VFM</text><line style="stroke:#181818;stroke-width:0.5;" x1="546.04" x2="701.04" y1="453.1211" y2="453.1211"/><text fill="#000000" font-family="sans-serif" font-size="14" lengthAdjust="spacing" textLength="35" x="551.04" y="472.2285">name</text><text fill="#000000" font-family="sans-serif" font-size="14" lengthAdjust="spacing" textLength="56" x="551.04" y="490.8496">birthdate</text><text fill="#000000" font-family="sans-serif" font-size="14" lengthAdjust="spacing" textLength="95" x="551.04" y="509.4707">admission date</text><text fill="#000000" font-family="sans-serif" font-size="14" lengthAdjust="spacing" textLength="51" x="551.04" y="528.0918">address</text><text fill="#000000" font-family="sans-serif" font-size="14" lengthAdjust="spacing" textLength="92" x="551.04" y="546.7129">phone number</text><text fill="#000000" font-family="sans-serif" font-size="14" lengthAdjust="spacing" textLength="33" x="551.04" y="565.334">email</text><text fill="#000000" font-family="sans-serif" font-size="14" lengthAdjust="spacing" textLength="145" x="551.04" y="583.9551">identification document</text><text fill="#000000" font-family="sans-serif" font-size="14" lengthAdjust="spacing" textLength="48" x="551.04" y="602.5762">number</text></g><!--class VehiclesCheckUp--><g id="elem_VehiclesCheckUp"><rect codeLine="88" fill="#F1F1F1" height="55.2422" id="VehiclesCheckUp" rx="2.5" ry="2.5" style="stroke:#181818;stroke-width:0.5;" width="116" x="726.54" y="708"/><text fill="#000000" font-family="sans-serif" font-size="14" lengthAdjust="spacing" textLength="110" x="729.54" y="728.1074">VehiclesCheckUp</text><line style="stroke:#181818;stroke-width:0.5;" x1="727.54" x2="841.54" y1="736.6211" y2="736.6211"/><text fill="#000000" font-family="sans-serif" font-size="14" lengthAdjust="spacing" textLength="46" x="732.54" y="755.7285">plate id</text></g><!--link Organization to Collaborator--><g id="link_Organization_Collaborator"><path codeLine="92" d="M869.35,64.48 C793.05,98.88 633.91,170.64 542.69,211.77 " fill="none" id="Organization-Collaborator" style="stroke:#181818;stroke-width:1.0;"/><polygon fill="#000000" points="767.0981,118.5903,757.6444,119.629,760.0605,124.9874,767.0981,118.5903" style="stroke:#000000;stroke-width:1.0;"/><text fill="#000000" font-family="sans-serif" font-size="13" lengthAdjust="spacing" textLength="52" x="771.54" y="126.0283">works for</text><text fill="#000000" font-family="sans-serif" font-size="13" lengthAdjust="spacing" textLength="7" x="842.6112" y="63.2993">1</text><text fill="#000000" font-family="sans-serif" font-size="13" lengthAdjust="spacing" textLength="20" x="550.7492" y="204.6662">1..*</text></g><!--reverse link Collaborator to HRM--><g id="link_Collaborator_HRM"><path codeLine="93" d="M393.7042,169.1101 C377.8742,153.1501 374.55,148.09 361.54,130 C346.07,108.48 333.45,80.41 326.21,62.54 " fill="none" id="Collaborator-backto-HRM" style="stroke:#181818;stroke-width:1.0;"/><polygon fill="none" points="406.38,181.89,397.9642,164.8849,389.4443,173.3354,406.38,181.89" style="stroke:#181818;stroke-width:1.0;"/></g><!--link HRM to Collaborator--><g id="link_HRM_Collaborator"><path codeLine="107" d="M333.3,62.53 C350.49,84.43 377.3963,118.7096 405.7363,154.8296 " fill="none" id="HRM-to-Collaborator" style="stroke:#181818;stroke-width:1.0;"/><polygon fill="#181818" points="409.44,159.55,407.0314,150.0002,406.3536,155.6163,400.7375,154.9385,409.44,159.55" style="stroke:#181818;stroke-width:1.0;"/><text fill="#000000" font-family="sans-serif" font-size="13" lengthAdjust="spacing" textLength="50" x="383.54" y="126.0283">registers</text><text fill="#000000" font-family="sans-serif" font-size="13" lengthAdjust="spacing" textLength="7" x="329.1856" y="84.2547">1</text><text fill="#000000" font-family="sans-serif" font-size="13" lengthAdjust="spacing" textLength="5" x="398.6306" y="148.6472">*</text></g><!--link Organization to GreenSpace--><g id="link_Organization_GreenSpace"><path codeLine="94" d="M955.9,67.63 C1009.44,99.06 1093.54,161.34 1093.54,242.5 C1093.54,242.5 1093.54,242.5 1093.54,736.5 C1093.54,818.91 985.89,860.21 923.65,877.2 " fill="none" id="Organization-GreenSpace" style="stroke:#181818;stroke-width:1.0;"/><polygon fill="#000000" points="1098.341,522.6415,1101.6376,513.7206,1095.7644,513.4866,1098.341,522.6415" style="stroke:#000000;stroke-width:1.0;"/><text fill="#000000" font-family="sans-serif" font-size="13" lengthAdjust="spacing" textLength="30" x="1107.54" y="523.0283">owns</text><text fill="#000000" font-family="sans-serif" font-size="13" lengthAdjust="spacing" textLength="7" x="963.6612" y="67.1996">1</text><text fill="#000000" font-family="sans-serif" font-size="13" lengthAdjust="spacing" textLength="20" x="931.4505" y="871.3794">1..*</text></g><!--link GreenSpace to Collaborator--><g id="link_GreenSpace_Collaborator"><path codeLine="95" d="M837.26,869.25 C760.42,835.25 601.37,753.12 527.54,629 C472.43,536.34 465.5,409.31 468.06,327.07 " fill="none" id="GreenSpace-Collaborator" style="stroke:#181818;stroke-width:1.0;"/><polygon fill="#000000" points="563.7258,664.5127,566.3876,673.6432,571.246,670.3348,563.7258,664.5127" style="stroke:#000000;stroke-width:1.0;"/><text fill="#000000" font-family="sans-serif" font-size="13" lengthAdjust="spacing" textLength="21" x="575.54" y="674.0283">has</text><text fill="#000000" font-family="sans-serif" font-size="13" lengthAdjust="spacing" textLength="7" x="822.5121" y="861.749">1</text><text fill="#000000" font-family="sans-serif" font-size="13" lengthAdjust="spacing" textLength="20" x="446.6438" y="349.0244">1..*</text></g><!--reverse link GreenSpace to Garden--><g id="link_GreenSpace_Garden"><path codeLine="96" d="M824.9422,945.7467 C804.0222,967.0967 792.64,978.71 776.86,994.83 " fill="none" id="GreenSpace-backto-Garden" style="stroke:#181818;stroke-width:1.0;"/><polygon fill="none" points="837.54,932.89,820.6566,941.5475,829.2278,949.946,837.54,932.89" style="stroke:#181818;stroke-width:1.0;"/></g><!--reverse link GreenSpace to MediumSizedPark--><g id="link_GreenSpace_MediumSizedPark"><path codeLine="97" d="M880.54,952.29 C880.54,973.35 880.54,979.17 880.54,994.93 " fill="none" id="GreenSpace-backto-MediumSizedPark" style="stroke:#181818;stroke-width:1.0;"/><polygon fill="none" points="880.54,934.29,874.54,952.29,886.54,952.29,880.54,934.29" style="stroke:#181818;stroke-width:1.0;"/></g><!--reverse link GreenSpace to LargeSizedPark--><g id="link_GreenSpace_LargeSizedPark"><path codeLine="98" d="M937.6319,936.9684 C964.9019,959.8784 985.1,976.85 1006.57,994.88 " fill="none" id="GreenSpace-backto-LargeSizedPark" style="stroke:#181818;stroke-width:1.0;"/><polygon fill="none" points="923.85,925.39,933.7724,941.5624,941.4914,932.3744,923.85,925.39" style="stroke:#181818;stroke-width:1.0;"/></g><!--link HRM to Skill--><g id="link_HRM_Skill"><path codeLine="101" d="M301.31,46.33 C251.76,51.09 115.15,72.03 67.54,160 C6,273.72 103.36,428.63 148.04,489.95 " fill="none" id="HRM-Skill" style="stroke:#181818;stroke-width:1.0;"/><polygon fill="#000000" points="70.9072,248.3714,76.6388,240.7819,71.0831,238.8625,70.9072,248.3714" style="stroke:#000000;stroke-width:1.0;"/><text fill="#000000" font-family="sans-serif" font-size="13" lengthAdjust="spacing" textLength="43" x="81.54" y="249.0283">creates</text><text fill="#000000" font-family="sans-serif" font-size="13" lengthAdjust="spacing" textLength="7" x="286.5687" y="41.2796">1</text><text fill="#000000" font-family="sans-serif" font-size="13" lengthAdjust="spacing" textLength="20" x="120.9869" y="478.6474">1..*</text></g><!--link HRM to Skill--><g id="link_HRM_Skill"><path codeLine="110" d="M305.54,62.63 C289.02,84.31 261.85,122.82 246.54,160 C198.31,277.17 177.83,428.85 171.18,489.61 " fill="none" id="HRM-Skill-1" style="stroke:#181818;stroke-width:1.0;"/><polygon fill="#000000" points="250.0392,248.4149,255.5576,240.6691,249.9508,238.9048,250.0392,248.4149" style="stroke:#000000;stroke-width:1.0;"/><text fill="#000000" font-family="sans-serif" font-size="13" lengthAdjust="spacing" textLength="45" x="260.54" y="249.0283">assigns</text><text fill="#000000" font-family="sans-serif" font-size="13" lengthAdjust="spacing" textLength="7" x="293.8369" y="84.0395">1</text><text fill="#000000" font-family="sans-serif" font-size="13" lengthAdjust="spacing" textLength="20" x="149.57" y="478.6833">1..*</text></g><!--link HRM to Job--><g id="link_HRM_Job"><path codeLine="104" d="M318.41,62.67 C315.51,112.3 309.03,257.06 323.54,376 C328.46,416.29 340.37,461.85 348.45,489.88 " fill="none" id="HRM-Job" style="stroke:#181818;stroke-width:1.0;"/><polygon fill="#000000" points="324.8907,248.6332,327.188,239.4042,321.3246,239.8165,324.8907,248.6332" style="stroke:#000000;stroke-width:1.0;"/><text fill="#000000" font-family="sans-serif" font-size="13" lengthAdjust="spacing" textLength="43" x="333.54" y="249.0283">creates</text><text fill="#000000" font-family="sans-serif" font-size="13" lengthAdjust="spacing" textLength="7" x="310.1657" y="84.0903">1</text><text fill="#000000" font-family="sans-serif" font-size="13" lengthAdjust="spacing" textLength="20" x="324.2667" y="478.5612">1..*</text></g><!--link Collaborator to Skill--><g id="link_Collaborator_Skill"><path codeLine="111" d="M406.25,305.2 C338.26,365.64 237.68,455.05 192.29,495.39 " fill="none" id="Collaborator-Skill" style="stroke:#181818;stroke-width:1.0;"/><polygon fill="#000000" points="341.803,369.9674,350.5158,366.1546,346.6108,361.7615,341.803,369.9674" style="stroke:#000000;stroke-width:1.0;"/><text fill="#000000" font-family="sans-serif" font-size="13" lengthAdjust="spacing" textLength="21" x="354.54" y="372.0283">has</text><text fill="#000000" font-family="sans-serif" font-size="13" lengthAdjust="spacing" textLength="7" x="391.398" y="308.0647">1</text><text fill="#000000" font-family="sans-serif" font-size="13" lengthAdjust="spacing" textLength="20" x="200.0947" y="485.3454">1..*</text></g><!--link HRM to Team--><g id="link_HRM_Team"><path codeLine="114" d="M337.84,44 C365.23,44 417.38,44 452.31,44 " fill="none" id="HRM-Team" style="stroke:#181818;stroke-width:1.0;"/><polygon fill="#000000" points="376.04,31.6455,366.9949,28.7066,366.9949,34.5844,376.04,31.6455" style="stroke:#000000;stroke-width:1.0;"/><text fill="#000000" font-family="sans-serif" font-size="13" lengthAdjust="spacing" textLength="43" x="380.04" y="37.0283">creates</text><text fill="#000000" font-family="sans-serif" font-size="13" lengthAdjust="spacing" textLength="7" x="345.6063" y="38.1195">1</text><text fill="#000000" font-family="sans-serif" font-size="13" lengthAdjust="spacing" textLength="20" x="424.5361" y="39.6041">1..*</text></g><!--link Collaborator to Job--><g id="link_Collaborator_Job"><path codeLine="115" d="M438.66,327.22 C414.52,382.86 384.25,452.63 368.04,489.99 " fill="none" id="Collaborator-Job" style="stroke:#181818;stroke-width:1.0;"/><polygon fill="#000000" points="425.5499,371.2324,431.8461,364.1044,426.4539,361.7649,425.5499,371.2324" style="stroke:#000000;stroke-width:1.0;"/><text fill="#000000" font-family="sans-serif" font-size="13" lengthAdjust="spacing" textLength="21" x="436.54" y="372.0283">has</text><text fill="#000000" font-family="sans-serif" font-size="13" lengthAdjust="spacing" textLength="7" x="428.3988" y="348.8986">1</text><text fill="#000000" font-family="sans-serif" font-size="13" lengthAdjust="spacing" textLength="7" x="362.89" y="478.6967">1</text></g><!--link Team to Collaborator--><g id="link_Team_Collaborator"><path codeLine="116" d="M485.16,81.22 C483.71,103.27 481.79,132.39 479.99,159.81 " fill="none" id="Team-Collaborator" style="stroke:#181818;stroke-width:1.0;"/><polygon fill="#000000" points="487.2118,125.6347,490.7381,116.8021,484.8729,116.4162,487.2118,125.6347" style="stroke:#000000;stroke-width:1.0;"/><text fill="#000000" font-family="sans-serif" font-size="13" lengthAdjust="spacing" textLength="21" x="496.54" y="126.0283">has</text><text fill="#000000" font-family="sans-serif" font-size="13" lengthAdjust="spacing" textLength="7" x="477.1861" y="102.8561">1</text><text fill="#000000" font-family="sans-serif" font-size="13" lengthAdjust="spacing" textLength="20" x="459.5848" y="148.642">1..*</text></g><!--reverse link Collaborator to VFM--><g id="link_Collaborator_VFM"><path codeLine="118" d="M528.5022,343.0042 C545.2922,373.6342 555.76,392.77 572.98,424.2 " fill="none" id="Collaborator-backto-VFM" style="stroke:#181818;stroke-width:1.0;"/><polygon fill="none" points="519.85,327.22,523.2408,345.8882,533.7636,340.1201,519.85,327.22" style="stroke:#181818;stroke-width:1.0;"/></g><!--link VFM to Vehicle--><g id="link_VFM_Vehicle"><path codeLine="121" d="M702.13,517.5 C732.72,517.5 768.32,517.5 801.45,517.5 " fill="none" id="VFM-Vehicle" style="stroke:#181818;stroke-width:1.0;"/><polygon fill="#000000" points="729.29,505.1455,720.2449,502.2066,720.2449,508.0844,729.29,505.1455" style="stroke:#000000;stroke-width:1.0;"/><text fill="#000000" font-family="sans-serif" font-size="13" lengthAdjust="spacing" textLength="50" x="733.29" y="510.5283">registers</text><text fill="#000000" font-family="sans-serif" font-size="13" lengthAdjust="spacing" textLength="7" x="709.9542" y="513.7516">1</text><text fill="#000000" font-family="sans-serif" font-size="13" lengthAdjust="spacing" textLength="20" x="773.7055" y="514.0243">1..*</text></g><!--link VFM to Vehicle--><g id="link_VFM_Vehicle"><path codeLine="124" d="M702.09,536.96 C708.05,537.98 714,538.85 719.79,539.5 C746.23,542.48 774.71,541.53 801.45,538.79 " fill="none" id="VFM-Vehicle-1" style="stroke:#181818;stroke-width:1.0;"/><polygon fill="#000000" points="729.7892,530.2376,720.7997,527.1326,720.6915,533.0094,729.7892,530.2376" style="stroke:#000000;stroke-width:1.0;"/><text fill="#000000" font-family="sans-serif" font-size="13" lengthAdjust="spacing" textLength="49" x="733.79" y="535.5283">chooses</text><text fill="#000000" font-family="sans-serif" font-size="13" lengthAdjust="spacing" textLength="7" x="710.1668" y="535.1017">1</text><text fill="#000000" font-family="sans-serif" font-size="13" lengthAdjust="spacing" textLength="20" x="773.7055" y="554.6476">1..*</text></g><!--link Vehicle to GreenSpace--><g id="link_Vehicle_GreenSpace"><path codeLine="125" d="M902.94,629.06 C896.76,700.29 889.04,789.12 884.47,841.77 " fill="none" id="Vehicle-GreenSpace" style="stroke:#181818;stroke-width:1.0;"/><polygon fill="#000000" points="900.9725,730.6643,897.2622,739.4212,903.118,739.9297,900.9725,730.6643" style="stroke:#000000;stroke-width:1.0;"/><text fill="#000000" font-family="sans-serif" font-size="13" lengthAdjust="spacing" textLength="21" x="909.54" y="741.0283">has</text><text fill="#000000" font-family="sans-serif" font-size="13" lengthAdjust="spacing" textLength="20" x="881.6844" y="650.7944">1..*</text><text fill="#000000" font-family="sans-serif" font-size="13" lengthAdjust="spacing" textLength="7" x="868.9457" y="830.7457">1</text></g><!--link VFM to VehiclesCheckUp--><g id="link_VFM_VehiclesCheckUp"><path codeLine="128" d="M692.29,610.73 C718.44,645.82 746.29,683.17 764.46,707.55 " fill="none" id="VFM-VehiclesCheckUp" style="stroke:#181818;stroke-width:1.0;"/><polygon fill="#000000" points="748.5282,672.6543,745.4788,663.6459,740.7662,667.1587,748.5282,672.6543" style="stroke:#000000;stroke-width:1.0;"/><text fill="#000000" font-family="sans-serif" font-size="13" lengthAdjust="spacing" textLength="24" x="754.54" y="674.0283">lists</text><text fill="#000000" font-family="sans-serif" font-size="13" lengthAdjust="spacing" textLength="7" x="690.0818" y="632.2549">1</text><text fill="#000000" font-family="sans-serif" font-size="13" lengthAdjust="spacing" textLength="20" x="737.88" y="696.6102">1..*</text></g><!--link VehiclesCheckUp to GreenSpace--><g id="link_VehiclesCheckUp_GreenSpace"><path codeLine="129" d="M801.48,763.06 C815.37,784.83 835.34,816.13 851.73,841.83 " fill="none" id="VehiclesCheckUp-GreenSpace" style="stroke:#181818;stroke-width:1.0;"/><polygon fill="#000000" points="834.8509,798.4302,837.2378,807.6364,842.1932,804.4752,834.8509,798.4302" style="stroke:#000000;stroke-width:1.0;"/><text fill="#000000" font-family="sans-serif" font-size="13" lengthAdjust="spacing" textLength="21" x="846.54" y="808.0283">has</text><text fill="#000000" font-family="sans-serif" font-size="13" lengthAdjust="spacing" textLength="20" x="783.0849" y="785.4328">1..*</text><text fill="#000000" font-family="sans-serif" font-size="13" lengthAdjust="spacing" textLength="7" x="831.397" y="830.8145">1</text></g><!--link Vehicle to VehiclesCheckUp--><g id="link_Vehicle_VehiclesCheckUp"><path codeLine="130" d="M847.04,629.03 C829.57,658.51 812.26,687.74 800.29,707.92 " fill="none" id="Vehicle-VehiclesCheckUp" style="stroke:#181818;stroke-width:1.0;"/><polygon fill="#000000" points="833.089,664.3441,825.9495,670.6272,831.0061,673.6237,833.089,664.3441" style="stroke:#000000;stroke-width:1.0;"/><text fill="#000000" font-family="sans-serif" font-size="13" lengthAdjust="spacing" textLength="21" x="839.54" y="674.0283">has</text><text fill="#000000" font-family="sans-serif" font-size="13" lengthAdjust="spacing" textLength="20" x="822.2033" y="650.7624">1..*</text><text fill="#000000" font-family="sans-serif" font-size="13" lengthAdjust="spacing" textLength="7" x="796.1228" y="696.6105">1</text></g><!--link Organization to Vehicle--><g id="link_Organization_Vehicle"><path codeLine="131" d="M912.54,81.21 C912.54,149.79 912.54,301.1 912.54,405.91 " fill="none" id="Organization-Vehicle" style="stroke:#181818;stroke-width:1.0;"/><polygon fill="#000000" points="917.54,248.6455,920.4789,239.6004,914.6011,239.6004,917.54,248.6455" style="stroke:#000000;stroke-width:1.0;"/><text fill="#000000" font-family="sans-serif" font-size="13" lengthAdjust="spacing" textLength="30" x="926.54" y="249.0283">owns</text><text fill="#000000" font-family="sans-serif" font-size="13" lengthAdjust="spacing" textLength="7" x="904.9603" y="102.8445">1</text><text fill="#000000" font-family="sans-serif" font-size="13" lengthAdjust="spacing" textLength="20" x="891.8681" y="394.8852">1..*</text></g><!--SRC=[ZLLDRzim3BthLn2v11YGhjqtWgB0q69TXtKRbhPtHMPimRQKIZA2jkj_7oNPiUowwt9YHFBnaNnCR2dLbXjUGwsL5eNHDO8p3JAxzsovA7cEAtTN8HWKZgkyIWDimJEzaog73QyiiddlggH2TxT5qCOLciqht3Xm6epC2mUPz71IgmHCLDpQpyuPkMuSNWYjLl8UuP0LCaCGqWYg7UmQ2JApZ8KK-6bohkGzztWF3EYZU8t1u5bcq5hssCL-_Nq93wp_lYfbLK6IzTWwlkdryBdBk4BY6ZsM-0MZndgDnYQufxgg-5eRxhI14Qcrf95at7KKQsajKJ_hNo9fRzCK71VkGcrq-2wpCosQ6fMxek6EdduqdaRWsj8uDuXgHNj4U6OotiuaPNiAFVzpRZ9KWr5TOYQRskya-yLDEV1zvuPqCdArlXii9AqkrjzMr2LHZeCmN4MhrXbMmN9TMuwRQEH64yeElN3YJ1fZg5iewqZVO2wjCs7_qCzLt3RIok5ZpQLogBWI-5eKACf5iuMDmTi6bRZh-xdvSlcVMqiA9XFT5beXgBWF_u1KkMhNHTpbHegMRxkxM6o_mC7exAcdUhs5qGmfBjK-p8x8EuF5Wgo3WrUpWGgNiDEcjB0XGHwpWJwF_r0ANSOOBONgbRG4lLCMJbWYhc7ii6p1Hy6XN1JOa-UHo9xuXq9ZR7wzEZmyOlwiXnp2OIz16AHXUG8nzCr4g3_rfv5layWJc8tQeeGekt3s8U7TSomebfOfyp2q0SXqS1nO17tVWtPXuGSevJiD6Vhgm4BEoqkQa0LTGalb0_DNGI2BnOnq5b5QXIRJs5F_k8-V21U5rZQmRvywMe6WLt4gEC_kk8NzrC4clOpkP4d_FjObuFi3Uhd859s90Z7u7_UoxxGz5lON]--></g></svg>