<?xml version="1.0" encoding="us-ascii" standalone="no"?><svg xmlns="http://www.w3.org/2000/svg" xmlns:xlink="http://www.w3.org/1999/xlink" contentStyleType="text/css" height="639px" preserveAspectRatio="none" style="width:551px;height:639px;background:#FFFFFF;" version="1.1" viewBox="0 0 551 639" width="551px" zoomAndPan="magnify"><defs/><g><!--class Collaborator--><g id="elem_Collaborator"><rect codeLine="12" fill="#F1F1F1" height="166.9688" id="Collaborator" rx="2.5" ry="2.5" style="stroke:#181818;stroke-width:0.5;" width="136" x="25" y="331"/><text fill="#000000" font-family="sans-serif" font-size="14" lengthAdjust="spacing" textLength="78" x="54" y="351.1074">Collaborator</text><line style="stroke:#181818;stroke-width:0.5;" x1="26" x2="160" y1="359.6211" y2="359.6211"/><text fill="#000000" font-family="sans-serif" font-size="14" lengthAdjust="spacing" textLength="35" x="31" y="378.7285">name</text><text fill="#000000" font-family="sans-serif" font-size="14" lengthAdjust="spacing" textLength="56" x="31" y="397.3496">birthdate</text><text fill="#000000" font-family="sans-serif" font-size="14" lengthAdjust="spacing" textLength="93" x="31" y="415.9707">admissionDate</text><text fill="#000000" font-family="sans-serif" font-size="14" lengthAdjust="spacing" textLength="51" x="31" y="434.5918">address</text><text fill="#000000" font-family="sans-serif" font-size="14" lengthAdjust="spacing" textLength="69" x="31" y="453.2129">contactInfo</text><text fill="#000000" font-family="sans-serif" font-size="14" lengthAdjust="spacing" textLength="107" x="31" y="471.834">idDocumentType</text><text fill="#000000" font-family="sans-serif" font-size="14" lengthAdjust="spacing" textLength="124" x="31" y="490.4551">idDocumentNumber</text></g><!--class Skill--><g id="elem_Skill"><rect codeLine="22" fill="#F1F1F1" height="55.2422" id="Skill" rx="2.5" ry="2.5" style="stroke:#181818;stroke-width:0.5;" width="47" x="137.5" y="577"/><text fill="#000000" font-family="sans-serif" font-size="14" lengthAdjust="spacing" textLength="25" x="148.5" y="597.1074">Skill</text><line style="stroke:#181818;stroke-width:0.5;" x1="138.5" x2="183.5" y1="605.6211" y2="605.6211"/><text fill="#000000" font-family="sans-serif" font-size="14" lengthAdjust="spacing" textLength="35" x="143.5" y="624.7285">name</text></g><!--class HRM--><g id="elem_HRM"><rect codeLine="26" fill="#F1F1F1" height="36.6211" id="HRM" rx="2.5" ry="2.5" style="stroke:#181818;stroke-width:0.5;" width="36" x="7" y="586"/><text fill="#000000" font-family="sans-serif" font-size="14" lengthAdjust="spacing" textLength="30" x="10" y="606.1074">HRM</text><line style="stroke:#181818;stroke-width:0.5;" x1="8" x2="42" y1="614.6211" y2="614.6211"/></g><!--class GreenSpace--><g id="elem_GreenSpace"><rect codeLine="29" fill="#F1F1F1" height="92.4844" id="GreenSpace" rx="2.5" ry="2.5" style="stroke:#181818;stroke-width:0.5;" width="86" x="195" y="160"/><text fill="#000000" font-family="sans-serif" font-size="14" lengthAdjust="spacing" textLength="80" x="198" y="180.1074">GreenSpace</text><line style="stroke:#181818;stroke-width:0.5;" x1="196" x2="280" y1="188.6211" y2="188.6211"/><text fill="#000000" font-family="sans-serif" font-size="14" lengthAdjust="spacing" textLength="35" x="201" y="207.7285">name</text><text fill="#000000" font-family="sans-serif" font-size="14" lengthAdjust="spacing" textLength="51" x="201" y="226.3496">address</text><text fill="#000000" font-family="sans-serif" font-size="14" lengthAdjust="spacing" textLength="64" x="201" y="244.9707">dimension</text></g><!--class Garden--><g id="elem_Garden"><rect codeLine="35" fill="#F1F1F1" height="36.6211" id="Garden" rx="2.5" ry="2.5" style="stroke:#181818;stroke-width:0.5;" width="54" x="196" y="396"/><text fill="#000000" font-family="sans-serif" font-size="14" lengthAdjust="spacing" textLength="48" x="199" y="416.1074">Garden</text><line style="stroke:#181818;stroke-width:0.5;" x1="197" x2="249" y1="424.6211" y2="424.6211"/></g><!--class MediumSizedPark--><g id="elem_MediumSizedPark"><rect codeLine="39" fill="#F1F1F1" height="36.6211" id="MediumSizedPark" rx="2.5" ry="2.5" style="stroke:#181818;stroke-width:0.5;" width="118" x="285" y="396"/><text fill="#000000" font-family="sans-serif" font-size="14" lengthAdjust="spacing" textLength="112" x="288" y="416.1074">MediumSizedPark</text><line style="stroke:#181818;stroke-width:0.5;" x1="286" x2="402" y1="424.6211" y2="424.6211"/></g><!--class LargeSizedPark--><g id="elem_LargeSizedPark"><rect codeLine="43" fill="#F1F1F1" height="36.6211" id="LargeSizedPark" rx="2.5" ry="2.5" style="stroke:#181818;stroke-width:0.5;" width="106" x="438" y="396"/><text fill="#000000" font-family="sans-serif" font-size="14" lengthAdjust="spacing" textLength="100" x="441" y="416.1074">LargeSizedPark</text><line style="stroke:#181818;stroke-width:0.5;" x1="439" x2="543" y1="424.6211" y2="424.6211"/></g><!--class Organization--><g id="elem_Organization"><rect codeLine="47" fill="#F1F1F1" height="73.8633" id="Organization" rx="2.5" ry="2.5" style="stroke:#181818;stroke-width:0.5;" width="86" x="79" y="7"/><text fill="#000000" font-family="sans-serif" font-size="14" lengthAdjust="spacing" textLength="80" x="82" y="27.1074">Organization</text><line style="stroke:#181818;stroke-width:0.5;" x1="80" x2="164" y1="35.6211" y2="35.6211"/><text fill="#000000" font-family="sans-serif" font-size="14" lengthAdjust="spacing" textLength="35" x="85" y="54.7285">name</text><text fill="#000000" font-family="sans-serif" font-size="14" lengthAdjust="spacing" textLength="51" x="85" y="73.3496">address</text></g><!--reverse link GreenSpace to Garden--><g id="link_GreenSpace_Garden"><path codeLine="52" d="M233.4244,270.0126 C230.1444,315.1126 226.58,364.24 224.28,395.83 " fill="none" id="GreenSpace-backto-Garden" style="stroke:#181818;stroke-width:1.0;"/><polygon fill="none" points="234.73,252.06,227.4402,269.5774,239.4086,270.4478,234.73,252.06" style="stroke:#181818;stroke-width:1.0;"/></g><!--reverse link GreenSpace to MediumSizedPark--><g id="link_GreenSpace_MediumSizedPark"><path codeLine="53" d="M269.3498,268.0736 C292.4998,313.1736 318.71,364.24 334.93,395.83 " fill="none" id="GreenSpace-backto-MediumSizedPark" style="stroke:#181818;stroke-width:1.0;"/><polygon fill="none" points="261.13,252.06,264.012,270.8135,274.6877,265.3336,261.13,252.06" style="stroke:#181818;stroke-width:1.0;"/></g><!--reverse link GreenSpace to LargeSizedPark--><g id="link_GreenSpace_LargeSizedPark"><path codeLine="54" d="M296.5118,240.8027 C335.1718,263.9027 377.01,291.53 421,331 C443.37,351.07 465.12,378.28 478.29,395.86 " fill="none" id="GreenSpace-backto-LargeSizedPark" style="stroke:#181818;stroke-width:1.0;"/><polygon fill="none" points="281.06,231.57,293.4342,245.9533,299.5893,235.6521,281.06,231.57" style="stroke:#181818;stroke-width:1.0;"/></g><!--reverse link Collaborator to HRM--><g id="link_Collaborator_HRM"><path codeLine="55" d="M56.9581,515.157 C45.1281,547.867 38.75,565.49 31.42,585.74 " fill="none" id="Collaborator-backto-HRM" style="stroke:#181818;stroke-width:1.0;"/><polygon fill="none" points="63.08,498.23,51.3158,513.1164,62.6005,517.1976,63.08,498.23" style="stroke:#181818;stroke-width:1.0;"/></g><!--link HRM to Skill--><g id="link_HRM_Skill"><path codeLine="56" d="M43.06,604.5 C67.34,604.5 110.54,604.5 137.38,604.5 " fill="none" id="HRM-Skill" style="stroke:#181818;stroke-width:1.0;"/><polygon fill="#000000" points="70.25,592.1455,61.2049,589.2066,61.2049,595.0844,70.25,592.1455" style="stroke:#000000;stroke-width:1.0;"/><text fill="#000000" font-family="sans-serif" font-size="13" lengthAdjust="spacing" textLength="45" x="74.25" y="597.5283">assigns</text><text fill="#000000" font-family="sans-serif" font-size="13" lengthAdjust="spacing" textLength="7" x="51.0103" y="598.5175">1</text><text fill="#000000" font-family="sans-serif" font-size="13" lengthAdjust="spacing" textLength="20" x="109.6054" y="620.4996">1..*</text></g><!--link Collaborator to Skill--><g id="link_Collaborator_Skill"><path codeLine="57" d="M122.92,498.23 C133.19,526.6 143.95,556.37 151.41,576.98 " fill="none" id="Collaborator-Skill" style="stroke:#181818;stroke-width:1.0;"/><polygon fill="#000000" points="146.701,542.3473,146.3875,532.8419,140.8602,534.8415,146.701,542.3473" style="stroke:#000000;stroke-width:1.0;"/><text fill="#000000" font-family="sans-serif" font-size="13" lengthAdjust="spacing" textLength="21" x="154" y="543.0283">has</text><text fill="#000000" font-family="sans-serif" font-size="13" lengthAdjust="spacing" textLength="7" x="118.1079" y="519.9095">1</text><text fill="#000000" font-family="sans-serif" font-size="13" lengthAdjust="spacing" textLength="20" x="126.8798" y="565.6843">1..*</text></g><!--link GreenSpace to Collaborator--><g id="link_GreenSpace_Collaborator"><path codeLine="58" d="M206.36,252.06 C190.19,275.08 170,303.84 151.16,330.67 " fill="none" id="GreenSpace-Collaborator" style="stroke:#181818;stroke-width:1.0;"/><polygon fill="#000000" points="184.1266,295.7374,191.7298,290.024,186.9194,286.6462,184.1266,295.7374" style="stroke:#000000;stroke-width:1.0;"/><text fill="#000000" font-family="sans-serif" font-size="13" lengthAdjust="spacing" textLength="21" x="196" y="297.0283">has</text><text fill="#000000" font-family="sans-serif" font-size="13" lengthAdjust="spacing" textLength="7" x="193.9792" y="274.428">1</text><text fill="#000000" font-family="sans-serif" font-size="13" lengthAdjust="spacing" textLength="20" x="135.2987" y="319.7776">1..*</text></g><!--link Organization to GreenSpace--><g id="link_Organization_GreenSpace"><path codeLine="59" d="M148.32,81.31 C165.23,104.63 187.33,135.11 205.36,159.97 " fill="none" id="Organization-GreenSpace" style="stroke:#181818;stroke-width:1.0;"/><polygon fill="#000000" points="190.9352,124.6933,188.0046,115.6455,183.2461,119.0961,190.9352,124.6933" style="stroke:#000000;stroke-width:1.0;"/><text fill="#000000" font-family="sans-serif" font-size="13" lengthAdjust="spacing" textLength="30" x="197" y="126.0283">owns</text><text fill="#000000" font-family="sans-serif" font-size="13" lengthAdjust="spacing" textLength="7" x="145.0996" y="102.961">1</text><text fill="#000000" font-family="sans-serif" font-size="13" lengthAdjust="spacing" textLength="20" x="178.8308" y="148.6336">1..*</text></g><!--link Organization to Collaborator--><g id="link_Organization_Collaborator"><path codeLine="60" d="M118.3,81.24 C116.05,103.87 113.2,133.62 111,160 C106.25,217.05 101.69,281.39 98.35,330.97 " fill="none" id="Organization-Collaborator" style="stroke:#181818;stroke-width:1.0;"/><polygon fill="#000000" points="116.3982,201.1614,112.7483,209.9437,118.6075,210.4118,116.3982,201.1614" style="stroke:#000000;stroke-width:1.0;"/><text fill="#000000" font-family="sans-serif" font-size="13" lengthAdjust="spacing" textLength="52" x="125" y="211.5283">works for</text><text fill="#000000" font-family="sans-serif" font-size="13" lengthAdjust="spacing" textLength="7" x="97.1138" y="102.8794">1</text><text fill="#000000" font-family="sans-serif" font-size="13" lengthAdjust="spacing" textLength="20" x="77.9359" y="319.8162">1..*</text></g><!--SRC=[TL7RIWCn47tFLmnz4OGMVIqYY48jM1Nh3qoJsTsmkPH9bjAg_swolUtsyhB9p9mvv-n9gBLR8gC5wvsN5NjB4BaX4GwJ9SeQIvh7jI5WaX5TQRg0KA7oA-rAAD044kB6K14XUc1TLX6KpblQEz5PaWP3U8gHzQA9D9NUpVM6u4w8IYi2gLacaVPkALPU1I7Q7NZsnk32CqRFy2C0mA6bV2uqnqfXR0jKLeUGL5yE3SKKGhucjOWoJbtXSwdLYvUD9HU_rqlgTzuRko0MVtlrUQsDsSfkTG-JrwzPwgTwMqwOoCrJUDH5Gzz8oYQ9P9T7dWco8hUbshLcf7HZSq3g4xdkpTwGq-DS77rmYKvlC6T_nKF2Tem-_0w7E_spzec7itdVX-YzKWj8-OYSqU1-0CFq7Ork1xiunv3iwj85UEmljjWpS8KPs37GXtKPzk1k52Vm8yyO_CfTGAUyhlElFDS1YloNuXy0]--></g></svg>